<?xml version="1.0" encoding="iso-8859-1"?>
<!-- Generator: Adobe Illustrator 18.0.0, SVG Export Plug-In . SVG Version: 6.00 Build 0)  -->
<!DOCTYPE svg PUBLIC "-//W3C//DTD SVG 1.1//EN" "http://www.w3.org/Graphics/SVG/1.1/DTD/svg11.dtd">
<svg version="1.1" id="Layer_1" xmlns="http://www.w3.org/2000/svg" xmlns:xlink="http://www.w3.org/1999/xlink" x="0px" y="0px"
	 viewBox="0 0 60.5 189.9" style="enable-background:new 0 0 60.5 189.9;" xml:space="preserve">
<g>
	<path style="fill:#423E3F;" d="M35,178.6c0,0,0.3,1,0.3,1.7c0,0.7,0.3,3.5,0.3,3.5l3.1,2.7h6.3c0,0,1.9-0.9,1.9-3.8
		c0-2.9-4.4-9-4.4-9S34.8,175.5,35,178.6z"/>
	<path style="fill:#423E3F;" d="M15.8,174.8c0,0-3.4,7.3-3.4,7.9c0,0.6,0.3,3.2,0.3,3.2s1.3,1.4,5.5,1.4s6.2-4.3,6.2-4.3l-0.1-2.1
		l2.9-3.4v-4L15.8,174.8z"/>
	<polygon style="fill:#805931;" points="24,24.2 24,29.9 30.4,36.3 36,31 36,22.5 	"/>
	<g>
		<path style="fill:#70471E;" d="M30.1,31.3c2.4,0,5.1-4.3,5.2-4.9c0.2-0.3,0.4-0.7,0.5-1H24.3c0.2,0.3,0.3,0.7,0.5,1
			C24.9,26.9,27.6,31.3,30.1,31.3z"/>
	</g>
	<path style="fill:#805931;" d="M22.1,16.8c0,0-2.2-11.4,7.3-11.4s8,11.4,8,11.4s1.2-0.8,1.8-0.3s0.7,5.3-2.4,6c0,0-0.9,2.9-1.4,3.4
		c-0.5,0.5-2.3,3.7-5.7,3.7c-1.8,0-3.9-1.7-5.3-3.7c-1.2-1.9-1.8-4.1-1.8-4.1s-3.3-0.8-2.2-5.3C20.5,16.5,21.5,15.7,22.1,16.8z"/>
	<path style="fill:#9FAAAA;" d="M24.2,29.1c0,0,0.4,1.8,4.9,5.1h3.1c0,0,3.5-3.7,3.7-3.9c0.1-0.2,0.1-1.5,0.1-1.5s1.7,1.7,1.4,4.7
		c-0.3,3.1-6.4,24.8-6.4,24.8s-12-26.2-6.9-29.1"/>
	<path style="fill:#231F20;" d="M13.9,96.4c0,0,2.9,64.4,3.3,70.7l-1.9,8.7c0,0,3.6,0.4,5.3,0.5c1.7,0.2,7.2,1.7,7.2,1.6
		c0,0,1.2-4,1.2-4.6c0.1-1.4-1.8-11.7-1.6-15.4c0.1-3.7,2.6-49.1,2.6-49.1s0.6,6.9,1,12.8c0.3,5.8-0.5,51.7-0.5,51.7s1.8,4.8,4.1,6
		c0,0,3.8-5,9-3.9c0,0,0.7-8-0.1-9.8c-0.8-1.8,0.5-6.5,0.5-6.5l3-62.7H13.9z"/>
	<path style="fill:#3F190B;" d="M22.4,18l-1.1-1.8l0-8.5c0,0,2.7-5,9.5-6.3c0,0,6.3,2.3,7.4,7.7v7.2l-1.4,1.6c0,0,1.6-10.7-7-10.7
		C21.1,7.2,22.4,18,22.4,18z"/>
	<polygon style="fill:#668C9E;" points="32.7,36.6 31.3,34.2 28.9,34.3 27.3,36.6 27.3,37.7 28.4,38.4 26.6,53.8 30.1,53.8 
		30.4,53.8 33.8,53.8 31.8,38.4 32.7,37.7 	"/>
	<circle style="fill:#4F4C4D;" cx="30.7" cy="65.5" r="0.9"/>
	<rect x="21.2" y="72" style="fill:#9FAAAA;" width="16.9" height="26.5"/>
	<polygon style="fill:#668C9E;" points="26.2,85.2 30.2,91.1 34.3,85.2 33.2,54 26.6,53.8 	"/>
	<path style="fill:#DADADA;" d="M22.7,33.7c0,0-5.2,2-8.3,3.9c-3.1,1.9-9.8,7-11.9,30.3c0,0-1.5,9.1,9.3,11.1c0,0-0.9,8.5-7.2,58.6
		l13.9,1l4.6-64h9.1l9.5,62.5l9.6-0.6c0,0-0.5-40.4-2.7-59.1c0,0,10.1-0.5,10.1-8c0-7.4-3.4-25.6-4.6-27.1c-1.2-1.5-17-8.9-17-8.9
		L30.8,48L22.7,33.7z"/>
	<path style="fill:#668C9E;" d="M22.8,32.4l-1.5,1.2c-1.1,0.9-1.9,2.6-1.9,4l0,1.4c0,1.3,0.4,3.2,0.8,4.4l2.8,7.8l1-0.4L21.2,43
		c-0.4-1.1-0.7-2.9-0.7-4l0-1.4c0-1,0.7-2.5,1.5-3.1l0.9-0.7l-0.1-1L22.8,32.4z"/>
	<g>
		<path style="fill:#668C9E;" d="M43.4,39.7c-0.2-1.3-1.3-3.1-2.3-4l-3.8-3.5l-0.2,1.3l3.3,3c0.8,0.7,1.7,2.3,1.8,3.4l1.4,10
			l1.1-0.1L43.4,39.7z"/>
		<g>
			<polygon style="fill:#668C9E;" points="37,48.1 43,38.9 42.1,38.3 36,47.8 			"/>
		</g>
		<g>
			<path style="fill:#96ABA3;" d="M41.2,63.2l1.4-0.2c1-0.1,1.9-1,2.1-2.1c0.1-0.8,0.2-2.5,0.2-3.7l-0.1-7.6l-1.1,0.1l0,7.5
				c0,1.2-0.1,2.8-0.2,3.5c-0.1,0.5-0.6,1.1-1.2,1.1L41,62.1L41.2,63.2z"/>
		</g>
		<g>
			<path style="fill:#96ABA3;" d="M37.7,62l0.3-1l-3.8-1.2c-0.4-0.1-0.7-0.4-0.9-0.8c-0.2-0.4-0.2-0.8,0-1.2l3.7-9.7l-1-0.4
				l-3.7,9.7c-0.3,0.7-0.2,1.4,0.1,2.1c0.3,0.6,0.9,1.1,1.6,1.3L37.7,62z"/>
		</g>
	</g>
	<polygon style="fill:#00405E;" points="7.9,67.9 26.8,67.9 24.3,50.5 1,50.5 	"/>
	<path style="fill:#00405E;" d="M20.6,73.9l-1.2,3.2h6.7v-4.6C26.1,72.5,20.7,71.9,20.6,73.9z"/>
	<path style="fill:#805931;" d="M14.4,72.1l4.4-4l1-3.3l7.2-5.1l4.1,6.8l-1.6,5.6l-12.2,6.1C17.3,78.3,13.8,76.2,14.4,72.1z"/>
	<path style="fill:#805931;" d="M35.3,68.8c0,0,2.1,3.1,1.7,8.5h-4.7c0,0-7.7,3.5-11.9-4.2l-0.7-2.4l7-2.5c0,0,2.5,1.7,4.5,1.2
		C33.3,68.9,35.3,68.8,35.3,68.8z"/>
</g>
</svg>
