<?xml version="1.0" encoding="iso-8859-1"?>
<!-- Generator: Adobe Illustrator 18.0.0, SVG Export Plug-In . SVG Version: 6.00 Build 0)  -->
<!DOCTYPE svg PUBLIC "-//W3C//DTD SVG 1.1//EN" "http://www.w3.org/Graphics/SVG/1.1/DTD/svg11.dtd">
<svg version="1.1" id="Layer_1" xmlns="http://www.w3.org/2000/svg" xmlns:xlink="http://www.w3.org/1999/xlink" x="0px" y="0px"
	 viewBox="0 0 57.5 185.9" style="enable-background:new 0 0 57.5 185.9;" xml:space="preserve">
<g>
	<g>
		<path style="fill:#231F20;" d="M35.5,165c0.5,0.3,1,1,1.1,1.5l1.1,3.6c0.2,0.5,0.4,1.4,0.5,1.9l1,3.8c0.1,0.5,0.3,1.4,0.3,2v3.2
			c0,0.5-0.5,1.3-0.9,1.6l-0.9,0.6c-0.5,0.3-1.3,0.5-1.8,0.3l-2.1-0.5c-0.5-0.1-1.3-0.5-1.8-0.8c-0.4-0.3-0.9-1-0.9-1.5l-1.2-11.5
			c-0.1-0.5-0.1-1.4-0.1-2c0-0.5,0.2-1.4,0.3-1.9l0.3-1c0.2-0.5,0.8-1,1.3-1h0.1c0.5,0,1.4,0.3,1.9,0.6L35.5,165z"/>
		<path style="fill:#A7A8A9;" d="M41.3,118.2l0.1,9.1c0,0,1.9,10.7-4,31.3l-1.3,5.9l2.1,12.8h-6.5c0,0-0.8-8.5-0.7-10.2
			c0.1-1.8,0.1-3.4,0.1-3.4s-0.3-21.2,0.4-30.1c0.7-8.9,0-16,0-16L41.3,118.2z"/>
		<path style="fill:#231F20;" d="M23,165c-0.5,0.3-1,1-1.1,1.5l-1.1,3.6c-0.2,0.5-0.4,1.4-0.5,1.9l-0.7,3.8c-0.1,0.5-0.1,1.4-0.1,2
			v3.2c0,0.5,0.2,1.3,0.6,1.6l0.7,0.6c0.5,0.3,1.2,0.5,1.8,0.3l2.1-0.5c0.5-0.1,1.3-0.5,1.8-0.8c0.4-0.3,0.9-1,0.9-1.5l1.2-11.5
			c0.1-0.5,0.1-1.4,0.1-2c0-0.5-0.2-1.4-0.3-1.9l-0.3-1c-0.2-0.5-0.8-1-1.3-1h-0.1c-0.6,0-1.4,0.3-1.9,0.6L23,165z"/>
		<path style="fill:#A7A8A9;" d="M17.2,118.2l-0.1,9.1c0,0-1.9,10.7,4,31.3l1.3,5.9l-2.1,12.8h6.5c0,0,0.8-8.5,0.7-10.2
			c-0.1-1.8-0.1-3.4-0.1-3.4s0.3-21.2-0.4-30.1c-0.7-8.9,0-16,0-16L17.2,118.2z"/>
	</g>
	<polygon style="fill:#EDCAAB;" points="23.5,21.3 23.5,30.9 23.5,31.2 23.5,32.1 23.5,47.3 33.5,47.3 33.5,31.1 33.5,30.6 
		33.5,29.4 33.5,21.3 	"/>
	<path style="fill:#668C9E;" d="M13.9,127.2c0.2,0.1,9.2,1,17.3-0.1c7.2-0.9,13.5,0.1,13.5,0.1l-3.5-58H15.6L13.9,127.2z"/>
	<path style="fill:#DADADA;" d="M23.4,32.1c0,0-6.2,2.4-9.1,4.1c-2.9,1.7-9,6.5-10.9,27.9c0,0-1.4,8.4,8.5,10.2
		c0,0-0.8,7.8-6.6,53.9l12.8,1l4.2-58.8h8.4l8.7,57.5l8.8-0.6c0,0-0.5-37.2-2.4-54.3c0,0,9.3-0.5,9.3-7.4c0-6.8-3.1-23.5-4.2-24.9
		c-1.1-1.4-16.5-11.5-16.5-11.5l-5.1,16.6L23.4,32.1z"/>
	<path style="fill:#668C9E;" d="M23.5,30.9l-1.5,1c-1,0.7-1.9,2.3-2,3.5l-0.1,1.3c-0.1,1.1,0.1,3,0.4,4.1l1.9,7.3l1-0.3l-1.9-7.3
		c-0.3-1-0.4-2.7-0.4-3.8l0.1-1.3c0.1-1,0.9-2.2,1.6-2.8l0.9-0.6v-0.9V30.9z"/>
	<path style="fill:#668C9E;" d="M40.1,35.4c-0.4-1.2-1.6-2.6-2.6-3.3l-4-2.6v1.2l3.4,2.2c0.8,0.6,1.8,1.9,2.1,2.8l2.7,8.9l1-0.3
		L40.1,35.4z"/>
	<path style="fill:#898989;" d="M22.5,67.3l-1.1,3h6.1v-4.2C27.5,66.1,22.6,65.5,22.5,67.3z"/>
	<path style="fill:#EDCAAB;" d="M37.5,64.4c0,0,1.9,2.8,1.6,7.8h-4.3c0,0-7.1,3.2-10.9-3.9l-0.6-2.2l6.4-2.3c0,0,2.3,1.6,4.1,1.1
		C35.6,64.5,37.5,64.4,37.5,64.4z"/>
	<path style="fill:#D5B9A5;" d="M33.2,10.4l1.9,7.9l1.4,1l0.1,0.7c0-0.2,0-0.5,0-0.8C36.5,13,32.9,8,28.5,8.1
		c-0.4,0-0.7,0.1-1.1,0.1l0.7,0.1L33.2,10.4z"/>
	<path style="fill:#D5B9A5;" d="M26.2,8.6C26.1,8.6,26.1,8.6,26.2,8.6L26.2,8.6L26.2,8.6z"/>
	<g>
		<path style="fill:#DDBA9B;" d="M28.7,32.5c2.4,0,5.1-4.3,5.2-4.9c0.2-0.3,0.4-0.7,0.5-1H22.9c0.2,0.3,0.3,0.7,0.5,1
			C23.5,28.2,26.2,32.5,28.7,32.5z"/>
	</g>
	<path style="fill:#EDCAAB;" d="M36.5,19.3l-1.4-1l-1.9-7.9l-5-2.1l-0.5-0.1l-1.1-0.2v0.6v0.1l-0.2-0.1c-3.2,1.5-5.5,5.8-5.5,10.8
		c0,0.6,0,1.1,0.1,1.6l-0.6,0.7c0,0,0.1,1.2,1,1.5c0.5,1.7,1.2,3.2,2.1,4.4c1.4,1.8,3.3,2.9,5.4,2.9c2,0,3.8-1.1,5.1-2.8
		c1.5-1.9,2.5-4.7,2.7-7.8L36.5,19.3z"/>
	<g>
		<polygon style="fill:#668C9E;" points="35.5,43.9 39.6,34.7 38.7,34.3 34.5,43.8 		"/>
	</g>
	<g>
		<path style="fill:#96ABA3;" d="M41.4,57.1l1.2-0.4c0.9-0.3,1.6-1.2,1.6-2.2c0-0.7-0.1-2.3-0.3-3.4l-1.1-6.9l-1,0.2l1.1,6.8
			c0.2,1,0.3,2.5,0.3,3.2c0,0.5-0.4,1.1-0.9,1.2l-1.2,0.4L41.4,57.1z"/>
	</g>
	<g>
		<path style="fill:#96ABA3;" d="M38.1,56.5l0.1-1L34.6,55c-0.4-0.1-0.7-0.3-0.9-0.6c-0.2-0.3-0.3-0.7-0.2-1.1l2-9.4l-1-0.2l-2,9.4
			c-0.1,0.7,0,1.3,0.4,1.9c0.4,0.5,0.9,0.9,1.6,1L38.1,56.5z"/>
	</g>
	<circle style="fill:#B5C2BF;" cx="23" cy="51.2" r="2.7"/>
	
		<rect x="21.4" y="47.9" transform="matrix(-0.9869 0.1616 -0.1616 -0.9869 53.0475 93.1229)" style="fill:#B5C2BF;" width="2.7" height="1.6"/>
	<polygon style="fill:#00405E;" points="10.5,61.3 27.9,61.3 25.6,45.3 4.2,45.3 	"/>
	<path style="fill:#EDCAAB;" d="M15.7,63.9l4.1-3.6l1-3.1l6.6-4.7l3.8,6.2l-1.5,5.1l-11.2,5.7C18.4,69.6,15.1,67.7,15.7,63.9z"/>
	<path style="fill:#332120;" d="M38,12.8l-4.5-7.4l-5.6-1.8l-2.5,1.1L23.8,5l-0.6,0.7l-3.7,4.2l-2.6,12.7l1.8,7.1l3.6,1.9l1.1-0.4
		v-3.6c-1-1.2-1.7-2.7-2.2-4.4c-0.8-0.3-1-1.5-1-1.5l0.5-0.7c-0.1-0.5-0.1-1.1-0.1-1.6c-0.1-5,2.4-9.3,5.5-10.8l0.2,0.1V8.1l1.8,0.2
		l5,2.1l1.9,7.9l1.2,1.7c-0.1,3.1-0.9,5.9-2.9,7.8v3.3l2.7,0.3l4.3-8.3l0.2-0.2L38,12.8z"/>
</g>
</svg>
