<?xml version="1.0" encoding="UTF-8" standalone="no"?>
<!-- Generator: Adobe Illustrator 18.0.0, SVG Export Plug-In . SVG Version: 6.00 Build 0)  -->
<!DOCTYPE svg  PUBLIC '-//W3C//DTD SVG 1.1//EN'  'http://www.w3.org/Graphics/SVG/1.1/DTD/svg11.dtd'>
<svg style="enable-background:new 0 0 144 80" xmlns="http://www.w3.org/2000/svg" xml:space="preserve" version="1.1" y="0px" x="0px" xmlns:xlink="http://www.w3.org/1999/xlink" viewBox="0 0 144 80">
<g id="MKD">
		<polygon points="144 80.002 144 0.002 0 0.002 0 80.002" fill="#FFDE1B"/>
		<path d="m71.999 40.002" fill="#FFDE1B"/>
		<path stroke-width=".1317" d="m71.999 40.002" stroke="#000" fill="none"/>
		<path d="m144 0.004l-60.716 33.73c-0.297-0.657-0.639-1.285-1.02-1.879l40.135-31.852-43.204-0.001-4.724 26.253c-0.8-0.178-1.626-0.271-2.474-0.271s-1.672 0.093-2.471 0.271l-4.722-26.253-43.202-0.002 40.133 31.854c-0.381 0.595-0.723 1.224-1.019 1.881l-60.716-33.735-0.001 32.001 59.446 6.606c-0.041 0.459-0.062 0.923-0.062 1.395 0 0.471 0.021 0.935 0.062 1.395l-59.446 6.604v32.001l60.716-33.731c0.297 0.657 0.639 1.286 1.019 1.876l-40.134 31.855h43.202l4.723-26.252c0.801 0.177 1.625 0.271 2.473 0.271s1.674-0.094 2.474-0.271l4.724 26.252h43.201l-40.135-31.856c0.381-0.59 0.723-1.219 1.02-1.876l60.715 33.731v-32l-59.445-6.604c0.04-0.46 0.062-0.924 0.062-1.395 0-0.472-0.023-0.936-0.062-1.395l59.445-6.601v-32.002z" fill="#EC1C2E"/>
		<path d="m72 54.372c7.938 0 14.371-6.435 14.371-14.371s-6.433-14.37-14.371-14.37c-7.937 0-14.37 6.434-14.37 14.37s6.433 14.371 14.37 14.371z" fill="#EC1C2E"/>
		<path d="m72 51.617c6.416 0 11.616-5.201 11.616-11.616s-5.2-11.615-11.616-11.615c-6.415 0-11.615 5.2-11.615 11.615s5.2 11.616 11.615 11.616z" fill="#FFDE1B"/>
		<path d="m71.999 40.002" fill="#FFDE1B"/>
		<path stroke-width=".1317" d="m71.999 40.002" stroke="#000" fill="none"/>
</g>
</svg>
