<?xml version="1.0" encoding="UTF-8" standalone="no"?>
<!-- Generator: Adobe Illustrator 18.0.0, SVG Export Plug-In . SVG Version: 6.00 Build 0)  -->
<!DOCTYPE svg  PUBLIC '-//W3C//DTD SVG 1.1//EN'  'http://www.w3.org/Graphics/SVG/1.1/DTD/svg11.dtd'>
<svg style="enable-background:new 0 0 144 80" xmlns="http://www.w3.org/2000/svg" xml:space="preserve" version="1.1" y="0px" x="0px" xmlns:xlink="http://www.w3.org/1999/xlink" viewBox="0 0 144 80">
<g id="GUA">
		<polygon points="47.999 0 47.999 80 0 80 0 0" fill="#3697D3"/>
		<polygon points="95.998 0 95.998 80 144 80 144 0" fill="#3697D3"/>
		<polygon points="47.999 80 47.999 0 95.998 0 95.998 80" fill="#fff"/>
			<path d="m70.233 53.268c-2.078-0.861-2.93-3.082-2.73-4.285 0.084-0.504 0.324-0.82 0.547 0.021 0.273 1.028 1.029 0.776 1.639 2.729 0.311 0.996 0.588 1.198 1.891 1.786" fill="#23913C"/>
			<path stroke-width=".0839" d="m70.233 53.268c-2.078-0.861-2.93-3.082-2.73-4.285 0.084-0.504 0.324-0.82 0.547 0.021 0.273 1.028 1.029 0.776 1.639 2.729 0.311 0.996 0.588 1.198 1.891 1.786" stroke="#000" fill="none"/>
			<path d="m69.835 53.437c-3.844-0.59-3.738 1.154-5.65 1.722-0.553 0.163-0.719 0.47 0.168 0.545 3.906 0.337 4.475-2.519 6.68-1.658" fill="#23913C"/>
			<path stroke-width=".0839" d="m69.835 53.437c-3.844-0.59-3.738 1.154-5.65 1.722-0.553 0.163-0.719 0.47 0.168 0.545 3.906 0.337 4.475-2.519 6.68-1.658" stroke="#000" fill="none"/>
			<path d="m65.685 52.003c-1.141-0.55-3.145-1.256-4.355-0.878-1.213 0.378-1.422 0.516-0.5 0.976 3.191 1.592 4.445 0.062 5.822 0.369" fill="#23913C"/>
			<path stroke-width=".0839" d="m65.685 52.003c-1.141-0.55-3.145-1.256-4.355-0.878-1.213 0.378-1.422 0.516-0.5 0.976 3.191 1.592 4.445 0.062 5.822 0.369" stroke="#000" fill="none"/>
			<path d="m64.269 51.166c-2.268-1.638-1.891-2.604-2.5-3.549-0.607-0.945-0.529-1.181 0.316-0.609 2.855 1.933 1.658 3.382 2.73 3.991" fill="#23913C"/>
			<path stroke-width=".0839" d="m64.269 51.166c-2.268-1.638-1.891-2.604-2.5-3.549-0.607-0.945-0.529-1.181 0.316-0.609 2.855 1.933 1.658 3.382 2.73 3.991" stroke="#000" fill="none"/>
			<path d="m61.622 48.71c-2.1-2.835-0.314-3.529-0.461-4.243-0.148-0.714 0.043-0.842 0.44 0.043 1.051 2.33-0.775 3.149 0.525 4.473" fill="#23913C"/>
			<path stroke-width=".0839" d="m61.622 48.71c-2.1-2.835-0.314-3.529-0.461-4.243-0.148-0.714 0.043-0.842 0.44 0.043 1.051 2.33-0.775 3.149 0.525 4.473" stroke="#000" fill="none"/>
			<path d="m58.702 44.487c-0.504-1.154-1.701-1.555-2.226-1.491-0.524 0.063-1.197 0.147-1.574 0.021-0.379-0.126-0.379 0.44 0.672 0.882 1.051 0.441 3.402 1.365 3.928 2.27" fill="#23913C"/>
			<path stroke-width=".0839" d="m58.702 44.487c-0.504-1.154-1.701-1.555-2.226-1.491-0.524 0.063-1.197 0.147-1.574 0.021-0.379-0.126-0.379 0.44 0.672 0.882 1.051 0.441 3.402 1.365 3.928 2.27" stroke="#000" fill="none"/>
			<path d="m57.653 38.923c0.062-1.282 0.252-2.061 1.049-2.774 0.799-0.714 1.199-0.804 0.883-0.189-0.672 1.302-0.273 2.185-1.701 4.054" fill="#23913C"/>
			<path stroke-width=".0839" d="m57.653 38.923c0.062-1.282 0.252-2.061 1.049-2.774 0.799-0.714 1.199-0.804 0.883-0.189-0.672 1.302-0.273 2.185-1.701 4.054" stroke="#000" fill="none"/>
			<path d="m57.862 36.4c-0.168-1.953-1.176-1.911-1.49-2.793-0.316-0.882-0.516-0.142-0.4 0.693 0.189 1.365 1.639 2.268 1.639 3.571" fill="#23913C"/>
			<path stroke-width=".0839" d="m57.862 36.4c-0.168-1.953-1.176-1.911-1.49-2.793-0.316-0.882-0.516-0.142-0.4 0.693 0.189 1.365 1.639 2.268 1.639 3.571" stroke="#000" fill="none"/>
			<path d="m57.8 37.347c0.062-1.239-0.084-2.269-0.504-3.005-0.42-0.734-0.316 0.189-0.693 1.009-0.428 0.926-0.273 2.92 1.051 4.475" fill="#23913C"/>
			<path stroke-width=".0839" d="m57.8 37.347c0.062-1.239-0.084-2.269-0.504-3.005-0.42-0.734-0.316 0.189-0.693 1.009-0.428 0.926-0.273 2.92 1.051 4.475" stroke="#000" fill="none"/>
			<path d="m58.409 33.797c0.105-2.584-0.945-2.563-1.26-3.677-0.316-1.112-0.379-0.853-0.525 0.042-0.672 4.075 1.555 3.612 1.344 5.189" fill="#23913C"/>
			<path stroke-width=".0839" d="m58.409 33.797c0.105-2.584-0.945-2.563-1.26-3.677-0.316-1.112-0.379-0.853-0.525 0.042-0.672 4.075 1.555 3.612 1.344 5.189" stroke="#000" fill="none"/>
			<path d="m59.501 30.541c0.273-1.659-0.35-2.101 0.295-3.13 0.314-0.504 0.797-1.176 0.672-0.336-0.127 0.84-0.022 2.164-0.967 3.466z" fill="#23913C"/>
			<path stroke-width=".0839" d="m59.501 30.541c0.273-1.659-0.35-2.101 0.295-3.13 0.314-0.504 0.797-1.176 0.672-0.336-0.127 0.84-0.022 2.164-0.967 3.466z" stroke="#000" fill="none"/>
			<path d="m58.472 33.188c0.273-2.038-1.174-3.729-0.125-5.461 0.545-0.903 0.836-0.985 0.775-0.253-0.104 1.303 1.178 2.71-0.482 5.294" fill="#23913C"/>
			<path stroke-width=".0839" d="m58.472 33.188c0.273-2.038-1.174-3.729-0.125-5.461 0.545-0.903 0.836-0.985 0.775-0.253-0.104 1.303 1.178 2.71-0.482 5.294" stroke="#000" fill="none"/>
			<path d="m68.722 52.574c2.814 0.756 4.328 1.344 5.084 2.269-0.043 0.378 0 0.798-0.084 1.008-2.143-2.269-4.58-1.806-7.688-3.569-10.451-5.933-9.578-15.04-6.596-21.72 0.391-0.876 0.818-1.722 0.902-2.667 0.092-1.029 0.924-1.617 1.975-1.953 0.898-0.288 0.619 0.136 0.295 0.482-0.652 0.693-0.16 1.598-1.953 2.794-0.441 0.295-0.609 0.705-0.883 1.344-5.252 12.308 1.338 19.967 8.948 22.012z" fill="#23913C"/>
			<path stroke-width=".0839" d="m68.722 52.574c2.814 0.756 4.328 1.344 5.084 2.269-0.043 0.378 0 0.798-0.084 1.008-2.143-2.269-4.58-1.806-7.688-3.569-10.451-5.933-9.578-15.04-6.596-21.72 0.391-0.876 0.818-1.722 0.902-2.667 0.092-1.029 0.924-1.617 1.975-1.953 0.898-0.288 0.619 0.136 0.295 0.482-0.652 0.693-0.16 1.598-1.953 2.794-0.441 0.295-0.609 0.705-0.883 1.344-5.252 12.308 1.338 19.967 8.948 22.012z" stroke="#000" fill="none"/>
			<path d="m58.681 33.377c0.274-0.799 1.01-2.542 2.102-2.836s2.1-0.799 2.604-2.269c0.176-0.509 0.547-1.639-0.168-0.757-0.713 0.884-2.078 0.147-3.486 2.963-0.252 0.503-0.881 1.596-1.365 3.213" fill="#23913C"/>
			<path stroke-width=".0839" d="m58.681 33.377c0.274-0.799 1.01-2.542 2.102-2.836s2.1-0.799 2.604-2.269c0.176-0.509 0.547-1.639-0.168-0.757-0.713 0.884-2.078 0.147-3.486 2.963-0.252 0.503-0.881 1.596-1.365 3.213" stroke="#000" fill="none"/>
			<path d="m58.22 33.859c0.715-2.563 2.164-2.163 2.857-3.088 0.691-0.924 0.969-0.938 0.545 0.252-1.029 2.898-3.088 2.751-3.424 4.097" fill="#23913C"/>
			<path stroke-width=".0839" d="m58.22 33.859c0.715-2.563 2.164-2.163 2.857-3.088 0.691-0.924 0.969-0.938 0.545 0.252-1.029 2.898-3.088 2.751-3.424 4.097" stroke="#000" fill="none"/>
			<path d="m58.073 35.413c0.756-2.625 2.562-2.268 3.318-3.381s1.049-1.239 0.902 0.084c-0.393 3.535-4.053 2.247-4.285 4.201" fill="#23913C"/>
			<path stroke-width=".0839" d="m58.073 35.413c0.756-2.625 2.562-2.268 3.318-3.381s1.049-1.239 0.902 0.084c-0.393 3.535-4.053 2.247-4.285 4.201" stroke="#000" fill="none"/>
			<path d="m57.548 37.262c0.293-2.814 2.582-2.498 3.297-3.234 0.279-0.288 0.43 0.417-0.084 1.155-1.238 1.785-2.668 0.588-2.834 2.5" fill="#23913C"/>
			<path stroke-width=".0839" d="m57.548 37.262c0.293-2.814 2.582-2.498 3.297-3.234 0.279-0.288 0.43 0.417-0.084 1.155-1.238 1.785-2.668 0.588-2.834 2.5" stroke="#000" fill="none"/>
			<path d="m58.009 40.812c-0.293-2.837-2.1-3.697-2.52-4.747-0.42-1.051-0.348 0.229-0.252 0.861 0.566 3.759 2.037 2.478 2.435 4.578" fill="#23913C"/>
			<path stroke-width=".0839" d="m58.009 40.812c-0.293-2.837-2.1-3.697-2.52-4.747-0.42-1.051-0.348 0.229-0.252 0.861 0.566 3.759 2.037 2.478 2.435 4.578" stroke="#000" fill="none"/>
			<path d="m57.694 41.758c-0.377-1.975 0.314-3.466 1.449-4.264 1.135-0.799 0.848-0.343 0.756 0.356-0.441 3.382-2.1 2.037-1.637 4.453" fill="#23913C"/>
			<path stroke-width=".0839" d="m57.694 41.758c-0.377-1.975 0.314-3.466 1.449-4.264 1.135-0.799 0.848-0.343 0.756 0.356-0.441 3.382-2.1 2.037-1.637 4.453" stroke="#000" fill="none"/>
			<path d="m58.198 42.408c-0.566-1.953-1.994-2.752-3.045-2.814s-0.283 0.343-0.127 0.714c0.926 2.185 2.543 1.281 3.131 2.983" fill="#23913C"/>
			<path stroke-width=".0839" d="m58.198 42.408c-0.566-1.953-1.994-2.752-3.045-2.814s-0.283 0.343-0.127 0.714c0.926 2.185 2.543 1.281 3.131 2.983" stroke="#000" fill="none"/>
			<path d="m60.278 46.84c-0.967-1.407-0.777-2.436-1.764-3.298-0.988-0.86-1.744-0.945-2.248-1.47s-0.559 0.101-0.084 1.05c1.07 2.143 2.625 1.953 3.508 3.487" fill="#23913C"/>
			<path stroke-width=".0839" d="m60.278 46.84c-0.967-1.407-0.777-2.436-1.764-3.298-0.988-0.86-1.744-0.945-2.248-1.47s-0.559 0.101-0.084 1.05c1.07 2.143 2.625 1.953 3.508 3.487" stroke="#000" fill="none"/>
			<path d="m59.712 45.979c-0.441-0.903-0.127-3.528 0.188-4.894 0.316-1.365 0.09-1.578-0.545-0.841-0.777 0.903-1.869 2.184 0.209 5.734" fill="#23913C"/>
			<path stroke-width=".0839" d="m59.712 45.979c-0.441-0.903-0.127-3.528 0.188-4.894 0.316-1.365 0.09-1.578-0.545-0.841-0.777 0.903-1.869 2.184 0.209 5.734" stroke="#000" fill="none"/>
			<path d="m60.216 46.945c-2.037-2.458-3.467-1.492-4.475-2.08-1.008-0.587-0.463 0.336-0.189 0.609 2.879 2.877 3.299 0.631 4.916 2.248" fill="#23913C"/>
			<path stroke-width=".0839" d="m60.216 46.945c-2.037-2.458-3.467-1.492-4.475-2.08-1.008-0.587-0.463 0.336-0.189 0.609 2.879 2.877 3.299 0.631 4.916 2.248" stroke="#000" fill="none"/>
			<path d="m60.026 46.651c-1.008-1.576-1.008-3.067-0.314-4.475 0.635-1.289 0.82-0.922 0.756 0.064-0.064 0.944 0.727 1.318 0.209 3.129-0.168 0.588-0.293 1.806 0.463 2.605" fill="#23913C"/>
			<path stroke-width=".0839" d="m60.026 46.651c-1.008-1.576-1.008-3.067-0.314-4.475 0.635-1.289 0.82-0.922 0.756 0.064-0.064 0.944 0.727 1.318 0.209 3.129-0.168 0.588-0.293 1.806 0.463 2.605" stroke="#000" fill="none"/>
			<path d="m62.421 49.486c-0.82-0.966-1.555-1.89-2.814-2.037-1.26-0.146-1.707-0.334-1.051 0.463 2.27 2.751 3.424 1.554 4.559 2.394" fill="#23913C"/>
			<path stroke-width=".0839" d="m62.421 49.486c-0.82-0.966-1.555-1.89-2.814-2.037-1.26-0.146-1.707-0.334-1.051 0.463 2.27 2.751 3.424 1.554 4.559 2.394" stroke="#000" fill="none"/>
			<path d="m63.966 50.462c-1.006-0.623-3.041-1.099-4.477-0.799-0.814 0.17-0.539 0.315 0.014 0.482 1.08 0.328 1.402 1.413 3.754 1.24 0.461-0.034 0.939-0.174 1.771 0.286" fill="#23913C"/>
			<path stroke-width=".0839" d="m63.966 50.462c-1.006-0.623-3.041-1.099-4.477-0.799-0.814 0.17-0.539 0.315 0.014 0.482 1.08 0.328 1.402 1.413 3.754 1.24 0.461-0.034 0.939-0.174 1.771 0.286" stroke="#000" fill="none"/>
			<path d="m64.94 51.293c-1.154-0.735-1.889-2.437-2.059-4.159-0.09-0.935 0.158-1.388 0.568-0.378 0.504 1.239 1.406 1.219 1.975 3.088 0.51 1.688 0.84 1.869 1.721 2.227" fill="#23913C"/>
			<path stroke-width=".0839" d="m64.94 51.293c-1.154-0.735-1.889-2.437-2.059-4.159-0.09-0.935 0.158-1.388 0.568-0.378 0.504 1.239 1.406 1.219 1.975 3.088 0.51 1.688 0.84 1.869 1.721 2.227" stroke="#000" fill="none"/>
			<path d="m67.735 52.511c-1.553-0.843-2.332-2.165-2.52-3.723-0.172-1.428 0.186-1.222 0.668-0.36 0.465 0.826 1.33 0.708 1.885 2.508 0.182 0.584 0.596 1.513 1.793 1.869" fill="#23913C"/>
			<path stroke-width=".0839" d="m67.735 52.511c-1.553-0.843-2.332-2.165-2.52-3.723-0.172-1.428 0.186-1.222 0.668-0.36 0.465 0.826 1.33 0.708 1.885 2.508 0.182 0.584 0.596 1.513 1.793 1.869" stroke="#000" fill="none"/>
			<path d="m69.269 53.016c-2.438-0.757-4.676-0.671-6.008 0.315-0.67 0.495-0.486 0.678 0.084 0.588 1.633-0.256 2.289 0.673 4.264-0.21 0.422-0.188 1.156-0.398 2.773 0.21" fill="#23913C"/>
			<path stroke-width=".0839" d="m69.269 53.016c-2.438-0.757-4.676-0.671-6.008 0.315-0.67 0.495-0.486 0.678 0.084 0.588 1.633-0.256 2.289 0.673 4.264-0.21 0.422-0.188 1.156-0.398 2.773 0.21" stroke="#000" fill="none"/>
			<path d="m73.763 53.268c2.08-0.861 2.932-3.082 2.73-4.285-0.084-0.504-0.322-0.82-0.545 0.021-0.273 1.028-1.029 0.776-1.639 2.729-0.311 0.996-0.588 1.198-1.891 1.786" fill="#23913C"/>
			<path stroke-width=".0839" d="m73.763 53.268c2.08-0.861 2.932-3.082 2.73-4.285-0.084-0.504-0.322-0.82-0.545 0.021-0.273 1.028-1.029 0.776-1.639 2.729-0.311 0.996-0.588 1.198-1.891 1.786" stroke="#000" fill="none"/>
			<path d="m74.161 53.437c3.846-0.59 3.74 1.154 5.65 1.722 0.553 0.163 0.721 0.47-0.168 0.545-3.906 0.337-4.473-2.519-6.68-1.658" fill="#23913C"/>
			<path stroke-width=".0839" d="m74.161 53.437c3.846-0.59 3.74 1.154 5.65 1.722 0.553 0.163 0.721 0.47-0.168 0.545-3.906 0.337-4.473-2.519-6.68-1.658" stroke="#000" fill="none"/>
			<path d="m78.312 52.003c1.143-0.55 3.146-1.256 4.357-0.878s1.422 0.516 0.498 0.976c-3.191 1.592-4.443 0.062-5.822 0.369" fill="#23913C"/>
			<path stroke-width=".0839" d="m78.312 52.003c1.143-0.55 3.146-1.256 4.357-0.878s1.422 0.516 0.498 0.976c-3.191 1.592-4.443 0.062-5.822 0.369" stroke="#000" fill="none"/>
			<path d="m79.728 51.166c2.27-1.638 1.891-2.604 2.5-3.549s0.529-1.181-0.314-0.609c-2.857 1.933-1.66 3.382-2.73 3.991" fill="#23913C"/>
			<path stroke-width=".0839" d="m79.728 51.166c2.27-1.638 1.891-2.604 2.5-3.549s0.529-1.181-0.314-0.609c-2.857 1.933-1.66 3.382-2.73 3.991" stroke="#000" fill="none"/>
			<path d="m82.374 48.71c2.102-2.835 0.316-3.529 0.463-4.243 0.146-0.714-0.043-0.842-0.441 0.043-1.051 2.33 0.777 3.149-0.525 4.473" fill="#23913C"/>
			<path stroke-width=".0839" d="m82.374 48.71c2.102-2.835 0.316-3.529 0.463-4.243 0.146-0.714-0.043-0.842-0.441 0.043-1.051 2.33 0.777 3.149-0.525 4.473" stroke="#000" fill="none"/>
			<path d="m85.294 44.487c0.504-1.154 1.701-1.555 2.227-1.491 0.525 0.063 1.197 0.147 1.576 0.021 0.377-0.126 0.377 0.44-0.672 0.882-1.051 0.441-3.404 1.365-3.928 2.27" fill="#23913C"/>
			<path stroke-width=".0839" d="m85.294 44.487c0.504-1.154 1.701-1.555 2.227-1.491 0.525 0.063 1.197 0.147 1.576 0.021 0.377-0.126 0.377 0.44-0.672 0.882-1.051 0.441-3.404 1.365-3.928 2.27" stroke="#000" fill="none"/>
			<path d="m86.345 38.923c-0.062-1.282-0.252-2.061-1.051-2.774-0.797-0.714-1.199-0.804-0.881-0.189 0.672 1.302 0.271 2.185 1.699 4.054" fill="#23913C"/>
			<path stroke-width=".0839" d="m86.345 38.923c-0.062-1.282-0.252-2.061-1.051-2.774-0.797-0.714-1.199-0.804-0.881-0.189 0.672 1.302 0.271 2.185 1.699 4.054" stroke="#000" fill="none"/>
			<path d="m86.134 36.4c0.168-1.953 1.178-1.911 1.492-2.793s0.514-0.142 0.398 0.693c-0.189 1.365-1.639 2.268-1.639 3.571" fill="#23913C"/>
			<path stroke-width=".0839" d="m86.134 36.4c0.168-1.953 1.178-1.911 1.492-2.793s0.514-0.142 0.398 0.693c-0.189 1.365-1.639 2.268-1.639 3.571" stroke="#000" fill="none"/>
			<path d="m86.198 37.347c-0.064-1.239 0.084-2.269 0.504-3.005 0.42-0.734 0.314 0.189 0.693 1.009 0.426 0.926 0.271 2.92-1.051 4.475" fill="#23913C"/>
			<path stroke-width=".0839" d="m86.198 37.347c-0.064-1.239 0.084-2.269 0.504-3.005 0.42-0.734 0.314 0.189 0.693 1.009 0.426 0.926 0.271 2.92-1.051 4.475" stroke="#000" fill="none"/>
			<path d="m85.589 33.797c-0.105-2.584 0.945-2.563 1.26-3.677 0.314-1.112 0.377-0.853 0.525 0.042 0.672 4.075-1.555 3.612-1.346 5.189" fill="#23913C"/>
			<path stroke-width=".0839" d="m85.589 33.797c-0.105-2.584 0.945-2.563 1.26-3.677 0.314-1.112 0.377-0.853 0.525 0.042 0.672 4.075-1.555 3.612-1.346 5.189" stroke="#000" fill="none"/>
			<path d="m84.497 30.541c-0.273-1.659 0.348-2.101-0.295-3.13-0.314-0.504-0.799-1.176-0.672-0.336 0.125 0.84 0.02 2.164 0.967 3.466z" fill="#23913C"/>
			<path stroke-width=".0839" d="m84.497 30.541c-0.273-1.659 0.348-2.101-0.295-3.13-0.314-0.504-0.799-1.176-0.672-0.336 0.125 0.84 0.02 2.164 0.967 3.466z" stroke="#000" fill="none"/>
			<path d="m85.526 33.188c-0.275-2.038 1.172-3.729 0.125-5.461-0.547-0.903-0.836-0.985-0.777-0.253 0.105 1.303-1.176 2.71 0.482 5.294" fill="#23913C"/>
			<path stroke-width=".0839" d="m85.526 33.188c-0.275-2.038 1.172-3.729 0.125-5.461-0.547-0.903-0.836-0.985-0.777-0.253 0.105 1.303-1.176 2.71 0.482 5.294" stroke="#000" fill="none"/>
			<path d="m75.274 52.574c-2.814 0.756-4.326 1.344-5.082 2.269 0.041 0.378 0 0.798 0.084 1.008 2.143-2.269 4.578-1.806 7.688-3.569 10.451-5.933 9.578-15.04 6.596-21.72-0.393-0.876-0.82-1.722-0.904-2.667-0.09-1.029-0.924-1.617-1.975-1.953-0.898-0.288-0.619 0.136-0.293 0.482 0.65 0.693 0.16 1.598 1.953 2.794 0.441 0.295 0.609 0.705 0.883 1.344 5.25 12.308-1.34 19.967-8.95 22.012z" fill="#23913C"/>
			<path stroke-width=".0839" d="m75.274 52.574c-2.814 0.756-4.326 1.344-5.082 2.269 0.041 0.378 0 0.798 0.084 1.008 2.143-2.269 4.578-1.806 7.688-3.569 10.451-5.933 9.578-15.04 6.596-21.72-0.393-0.876-0.82-1.722-0.904-2.667-0.09-1.029-0.924-1.617-1.975-1.953-0.898-0.288-0.619 0.136-0.293 0.482 0.65 0.693 0.16 1.598 1.953 2.794 0.441 0.295 0.609 0.705 0.883 1.344 5.25 12.308-1.34 19.967-8.95 22.012z" stroke="#000" fill="none"/>
			<path d="m85.315 33.377c-0.273-0.799-1.008-2.542-2.102-2.836-1.092-0.294-2.1-0.799-2.604-2.269-0.176-0.509-0.547-1.639 0.168-0.757 0.713 0.884 2.08 0.147 3.486 2.963 0.252 0.503 0.883 1.596 1.365 3.213" fill="#23913C"/>
			<path stroke-width=".0839" d="m85.315 33.377c-0.273-0.799-1.008-2.542-2.102-2.836-1.092-0.294-2.1-0.799-2.604-2.269-0.176-0.509-0.547-1.639 0.168-0.757 0.713 0.884 2.08 0.147 3.486 2.963 0.252 0.503 0.883 1.596 1.365 3.213" stroke="#000" fill="none"/>
			<path d="m85.776 33.859c-0.713-2.563-2.162-2.163-2.855-3.088-0.693-0.924-0.969-0.938-0.547 0.252 1.029 2.898 3.088 2.751 3.424 4.097" fill="#23913C"/>
			<path stroke-width=".0839" d="m85.776 33.859c-0.713-2.563-2.162-2.163-2.855-3.088-0.693-0.924-0.969-0.938-0.547 0.252 1.029 2.898 3.088 2.751 3.424 4.097" stroke="#000" fill="none"/>
			<path d="m85.925 35.413c-0.756-2.625-2.562-2.268-3.32-3.381-0.756-1.113-1.049-1.239-0.902 0.084 0.393 3.535 4.053 2.247 4.285 4.201" fill="#23913C"/>
			<path stroke-width=".0839" d="m85.925 35.413c-0.756-2.625-2.562-2.268-3.32-3.381-0.756-1.113-1.049-1.239-0.902 0.084 0.393 3.535 4.053 2.247 4.285 4.201" stroke="#000" fill="none"/>
			<path d="m86.448 37.262c-0.293-2.814-2.582-2.498-3.297-3.234-0.279-0.288-0.428 0.417 0.084 1.155 1.24 1.785 2.668 0.588 2.836 2.5" fill="#23913C"/>
			<path stroke-width=".0839" d="m86.448 37.262c-0.293-2.814-2.582-2.498-3.297-3.234-0.279-0.288-0.428 0.417 0.084 1.155 1.24 1.785 2.668 0.588 2.836 2.5" stroke="#000" fill="none"/>
			<path d="m85.987 40.812c0.295-2.837 2.1-3.697 2.52-4.747 0.42-1.051 0.348 0.229 0.254 0.861-0.568 3.759-2.039 2.478-2.438 4.578" fill="#23913C"/>
			<path stroke-width=".0839" d="m85.987 40.812c0.295-2.837 2.1-3.697 2.52-4.747 0.42-1.051 0.348 0.229 0.254 0.861-0.568 3.759-2.039 2.478-2.438 4.578" stroke="#000" fill="none"/>
			<path d="m86.302 41.758c0.379-1.975-0.314-3.466-1.449-4.264-1.133-0.799-0.846-0.343-0.756 0.356 0.441 3.382 2.101 2.037 1.639 4.453" fill="#23913C"/>
			<path stroke-width=".0839" d="m86.302 41.758c0.379-1.975-0.314-3.466-1.449-4.264-1.133-0.799-0.846-0.343-0.756 0.356 0.441 3.382 2.101 2.037 1.639 4.453" stroke="#000" fill="none"/>
			<path d="m85.798 42.408c0.568-1.953 1.996-2.752 3.047-2.814 1.049-0.062 0.281 0.343 0.125 0.714-0.924 2.185-2.541 1.281-3.131 2.983" fill="#23913C"/>
			<path stroke-width=".0839" d="m85.798 42.408c0.568-1.953 1.996-2.752 3.047-2.814 1.049-0.062 0.281 0.343 0.125 0.714-0.924 2.185-2.541 1.281-3.131 2.983" stroke="#000" fill="none"/>
			<path d="m83.72 46.84c0.965-1.407 0.777-2.436 1.764-3.298 0.986-0.86 1.744-0.945 2.248-1.47s0.559 0.101 0.084 1.05c-1.072 2.143-2.627 1.953-3.508 3.487" fill="#23913C"/>
			<path stroke-width=".0839" d="m83.72 46.84c0.965-1.407 0.777-2.436 1.764-3.298 0.986-0.86 1.744-0.945 2.248-1.47s0.559 0.101 0.084 1.05c-1.072 2.143-2.627 1.953-3.508 3.487" stroke="#000" fill="none"/>
			<path d="m84.286 45.979c0.441-0.903 0.127-3.528-0.189-4.894-0.314-1.365-0.088-1.578 0.547-0.841 0.775 0.903 1.869 2.184-0.211 5.734" fill="#23913C"/>
			<path stroke-width=".0839" d="m84.286 45.979c0.441-0.903 0.127-3.528-0.189-4.894-0.314-1.365-0.088-1.578 0.547-0.841 0.775 0.903 1.869 2.184-0.211 5.734" stroke="#000" fill="none"/>
			<path d="m83.782 46.945c2.037-2.458 3.465-1.492 4.473-2.08 1.01-0.587 0.463 0.336 0.189 0.609-2.877 2.877-3.297 0.631-4.914 2.248" fill="#23913C"/>
			<path stroke-width=".0839" d="m83.782 46.945c2.037-2.458 3.465-1.492 4.473-2.08 1.01-0.587 0.463 0.336 0.189 0.609-2.877 2.877-3.297 0.631-4.914 2.248" stroke="#000" fill="none"/>
			<path d="m83.97 46.651c1.01-1.576 1.01-3.067 0.316-4.475-0.635-1.289-0.822-0.922-0.756 0.064 0.062 0.944-0.729 1.318-0.211 3.129 0.168 0.588 0.295 1.806-0.461 2.605" fill="#23913C"/>
			<path stroke-width=".0839" d="m83.97 46.651c1.01-1.576 1.01-3.067 0.316-4.475-0.635-1.289-0.822-0.922-0.756 0.064 0.062 0.944-0.729 1.318-0.211 3.129 0.168 0.588 0.295 1.806-0.461 2.605" stroke="#000" fill="none"/>
			<path d="m81.575 49.486c0.82-0.966 1.555-1.89 2.816-2.037 1.26-0.146 1.705-0.334 1.049 0.463-2.268 2.751-3.424 1.554-4.557 2.394" fill="#23913C"/>
			<path stroke-width=".0839" d="m81.575 49.486c0.82-0.966 1.555-1.89 2.816-2.037 1.26-0.146 1.705-0.334 1.049 0.463-2.268 2.751-3.424 1.554-4.557 2.394" stroke="#000" fill="none"/>
			<path d="m80.03 50.462c1.006-0.623 3.041-1.099 4.479-0.799 0.814 0.17 0.539 0.315-0.014 0.482-1.082 0.328-1.404 1.413-3.754 1.24-0.461-0.034-0.941-0.174-1.773 0.286" fill="#23913C"/>
			<path stroke-width=".0839" d="m80.03 50.462c1.006-0.623 3.041-1.099 4.479-0.799 0.814 0.17 0.539 0.315-0.014 0.482-1.082 0.328-1.404 1.413-3.754 1.24-0.461-0.034-0.941-0.174-1.773 0.286" stroke="#000" fill="none"/>
			<path d="m79.056 51.293c1.156-0.735 1.891-2.437 2.059-4.159 0.092-0.935-0.156-1.388-0.566-0.378-0.506 1.239-1.408 1.219-1.975 3.088-0.512 1.688-0.84 1.869-1.723 2.227" fill="#23913C"/>
			<path stroke-width=".0839" d="m79.056 51.293c1.156-0.735 1.891-2.437 2.059-4.159 0.092-0.935-0.156-1.388-0.566-0.378-0.506 1.239-1.408 1.219-1.975 3.088-0.512 1.688-0.84 1.869-1.723 2.227" stroke="#000" fill="none"/>
			<path d="m76.263 52.511c1.553-0.843 2.33-2.165 2.518-3.723 0.172-1.428-0.186-1.222-0.668-0.36-0.463 0.826-1.33 0.708-1.885 2.508-0.18 0.584-0.596 1.513-1.793 1.869" fill="#23913C"/>
			<path stroke-width=".0839" d="m76.263 52.511c1.553-0.843 2.33-2.165 2.518-3.723 0.172-1.428-0.186-1.222-0.668-0.36-0.463 0.826-1.33 0.708-1.885 2.508-0.18 0.584-0.596 1.513-1.793 1.869" stroke="#000" fill="none"/>
			<path d="m74.729 53.016c2.436-0.757 4.676-0.671 6.006 0.315 0.67 0.495 0.488 0.678-0.084 0.588-1.633-0.256-2.289 0.673-4.264-0.21-0.422-0.188-1.154-0.398-2.771 0.21" fill="#23913C"/>
			<path stroke-width=".0839" d="m74.729 53.016c2.436-0.757 4.676-0.671 6.006 0.315 0.67 0.495 0.488 0.678-0.084 0.588-1.633-0.256-2.289 0.673-4.264-0.21-0.422-0.188-1.154-0.398-2.771 0.21" stroke="#000" fill="none"/>
			<path d="m62.294 26.298c-1.154 0.861-1.176 2.142-1.764 2.625m-0.043 1.261c0.967-1.05 2.101-1.092 2.543-2.058m-2.814-0.799c-0.441 0.483-0.168 1.513-0.4 1.933m-0.965-1.639c-0.441 1.197 0.377 2.415 0.104 3.528m-2.017-0.923c0.041 1.534 0.609 1.197 0.883 3.256m3.487-2.5c-0.525 1.155-1.891 1.344-2.332 2.417m0.211 1.09c0.861-0.882 2.246-1.05 2.771-2.498m-1.26 2.54c-0.631 0.819-1.639 0.609-2.143 1.513m-1.449-1.071c0.105 0.735 0 1.933 0.105 2.499m-1.007-3.613c0.084 0.399 0.271 0.777 0.398 1.05m-1.113 1.617c0.357 1.723 1.428 1.829 1.68 2.941m2.394-1.616c-0.314 1.072-1.238 1.701-1.512 2.646m-2.857-0.525c0.926 0.336 1.281 1.113 2.186 1.701m-1.029 0.882c0.65 0.925 1.26 0.945 1.658 1.618m1.597-3.676c-0.105 0.819-0.799 1.428-0.736 2.289m1.303-0.84c-0.377 1.239 0.106 2.1-0.146 3.108m-4.286 0.127c0.84 0.65 2.268 0.588 2.793 1.135m2.879-1.639c0.062 0.84-0.4 1.449-0.274 2.142m-2.269 0.882c0.967 0.378 1.996 1.323 2.562 1.533m0.505-1.995c0.379 0.462 0.504 1.281 1.094 2.017m0.187-2.374c0.189 1.303 1.072 1.849 1.535 3.298m-4.832-0.274c1.156 0.063 2.186 0.715 3.213 0.819m-2.078 0.988c0.965-0.02 2.205 0.482 3.129 0.378m1.281-3.739c0.295 1.409 1.197 1.786 1.576 2.899m0.734-2.143c0.105 1.261 1.008 1.933 1.324 2.69m-5.566 1.806c1.658-0.504 2.961-0.252 4.033-0.525m-2.92 2.289c2.162-0.295 2.541-1.45 3.717-1.513m13.338-27.557c1.156 0.861 1.176 2.142 1.766 2.625m0.041 1.261c-0.967-1.05-2.1-1.092-2.541-2.058m2.814-0.799c0.441 0.483 0.168 1.513 0.398 1.933m0.967-1.639c0.441 1.197-0.379 2.415-0.105 3.528m2.016-0.923c-0.041 1.534-0.609 1.197-0.881 3.256m-3.487-2.5c0.523 1.155 1.889 1.344 2.33 2.417m-0.208 1.09c-0.861-0.882-2.248-1.05-2.773-2.498m1.259 2.54c0.631 0.819 1.639 0.609 2.143 1.513m1.449-1.071c-0.104 0.735 0 1.933-0.104 2.499m1.008-3.613c-0.084 0.399-0.273 0.777-0.398 1.05m1.111 1.617c-0.355 1.723-1.428 1.829-1.68 2.941m-2.394-1.616c0.316 1.072 1.238 1.701 1.514 2.646m2.855-0.525c-0.924 0.336-1.281 1.113-2.184 1.701m1.029 0.882c-0.652 0.925-1.262 0.945-1.66 1.618m-1.595-3.676c0.105 0.819 0.797 1.428 0.734 2.289m-1.303-0.84c0.379 1.239-0.103 2.1 0.147 3.108m4.285 0.127c-0.84 0.65-2.268 0.588-2.793 1.135m-2.877-1.639c-0.064 0.84 0.398 1.449 0.273 2.142m2.268 0.882c-0.967 0.378-1.996 1.323-2.562 1.533m-0.504-1.995c-0.379 0.462-0.504 1.281-1.092 2.017m-0.19-2.374c-0.189 1.303-1.072 1.849-1.533 3.298m4.83-0.274c-1.154 0.063-2.184 0.715-3.213 0.819m2.08 0.988c-0.967-0.02-2.207 0.482-3.131 0.378m-1.281-3.739c-0.293 1.409-1.197 1.786-1.574 2.899m-0.736-2.143c-0.106 1.261-1.008 1.933-1.322 2.69m5.566 1.806c-1.66-0.504-2.963-0.252-4.033-0.525m2.92 2.289c-2.164-0.295-2.543-1.45-3.719-1.513" stroke="#000" stroke-linecap="round" stroke-width=".0839" fill="none"/>
			<path d="m86.323 34.678c0.512 0 0.518 0.758 0 0.758-0.517 0-0.511-0.758 0-0.758z" fill="#EC1C2E"/>
			<path d="m84.308 30.854c0.51 0 0.518 0.757 0 0.757-0.52 0-0.512-0.757 0-0.757z" fill="#EC1C2E"/>
			<path d="m86.491 37.703c0.512 0 0.518 0.756 0 0.756-0.517 0-0.512-0.756 0-0.756z" fill="#EC1C2E"/>
			<path d="m83.636 46.733c0.51 0 0.518 0.758 0 0.758-0.52 0-0.512-0.758 0-0.758z" fill="#EC1C2E"/>
			<path d="m75.989 51.816c0.512 0 0.518 0.758 0 0.758-0.517 0-0.511-0.758 0-0.758z" fill="#EC1C2E"/>
			<path d="m57.673 34.678c-0.51 0-0.517 0.758 0 0.758 0.519 0 0.512-0.758 0-0.758z" fill="#EC1C2E"/>
			<path d="m59.69 30.854c-0.512 0-0.52 0.757 0 0.757 0.518 0 0.512-0.757 0-0.757z" fill="#EC1C2E"/>
			<path d="m57.505 37.703c-0.51 0-0.518 0.756 0 0.756 0.519 0 0.512-0.756 0-0.756z" fill="#EC1C2E"/>
			<path d="m60.362 46.733c-0.512 0-0.52 0.758 0 0.758 0.518 0 0.512-0.758 0-0.758z" fill="#EC1C2E"/>
			<path d="m68.007 51.816c-0.51 0-0.518 0.758 0 0.758 0.519 0 0.512-0.758 0-0.758z" fill="#EC1C2E"/>
			<path stroke-linejoin="round" d="m78.741 47.061c-0.231 0.126-0.641 0.21-0.904-0.242-0.188-0.325-0.125-0.734 0.273-0.901l0.432 0.734c-0.115 0.178-0.336 0.209-0.484 0.23" stroke="#000" stroke-linecap="round" stroke-width=".0839" fill="none"/>
			<path d="m79.812 46.588s-0.316-0.317-0.408-0.409c-0.158-0.158-0.164-0.673 0.115-0.83-0.305-0.031-0.578-0.284-0.506-0.672l-5.271-5.272c-0.094-0.095-0.152-0.068-0.199-0.021-0.82-0.819-7.963-7.962-8.789-8.789l-0.406 0.404 8.082 8.082c-0.262 0.261-0.305 0.85 0.535 1.689 0.842 0.841 4.453 4.453 4.453 4.453l0.137-0.137c0.242 0.389 1.396 2.374 1.396 2.374l0.861-0.872z" fill="#C3B8AF"/>
			<path stroke-linejoin="round" d="m79.812 46.588s-0.316-0.317-0.408-0.409c-0.158-0.158-0.164-0.673 0.115-0.83-0.305-0.031-0.578-0.284-0.506-0.672l-5.271-5.272c-0.094-0.095-0.152-0.068-0.199-0.021-0.82-0.819-7.963-7.962-8.789-8.789l-0.406 0.404 8.082 8.082c-0.262 0.261-0.305 0.85 0.535 1.689 0.842 0.841 4.453 4.453 4.453 4.453l0.137-0.137c0.242 0.389 1.396 2.374 1.396 2.374l0.861-0.872v0z" stroke="#000" stroke-linecap="round" stroke-width=".0839" fill="none"/>
			<path d="m67.378 33.624c-0.307 0.307-0.395 0.256-0.598 0.052-0.264-0.264-0.223-0.321-0.178-0.414 0.051 0.052 0.203-0.057 0.279-0.134 0.078-0.076 0.186-0.229 0.135-0.28 0.092-0.044 0.15-0.085 0.412 0.178 0.206 0.203 0.259 0.291-0.05 0.598z" fill="#C3B8AF"/>
			<path stroke-linejoin="round" d="m67.378 33.624c-0.307 0.307-0.395 0.256-0.598 0.052-0.264-0.264-0.223-0.321-0.178-0.414 0.051 0.052 0.203-0.057 0.279-0.134 0.078-0.076 0.186-0.229 0.135-0.28 0.092-0.044 0.15-0.085 0.412 0.178 0.206 0.203 0.259 0.291-0.05 0.598v0z" stroke="#000" stroke-linecap="round" stroke-width=".0839" fill="none"/>
			<path d="m64.341 30.916l-0.818 0.816-5.492-5.492c-0.535-0.536-0.486-0.626 0.084-0.104 1.449 1.322 5.473 4.968 5.473 4.968s0.25-0.251 0.469-0.471l0.284 0.283z" fill="#C3B8AF"/>
			<path stroke-linejoin="round" d="m64.341 30.916l-0.818 0.816-5.492-5.492c-0.535-0.536-0.486-0.626 0.084-0.104 1.449 1.322 5.473 4.968 5.473 4.968s0.25-0.251 0.469-0.471l0.284 0.283v0z" stroke="#000" stroke-linecap="round" stroke-width=".0839" fill="none"/>
			<path d="m64.622 30.365c-0.205-0.207-0.289-0.264-0.527-0.024-0.238 0.237-0.182 0.322 0.025 0.527 0.205 0.208 0.291 0.264 0.527 0.026 0.239-0.238 0.182-0.323-0.025-0.529z" fill="#C3B8AF"/>
			<path stroke-linejoin="round" d="m64.622 30.365c-0.205-0.207-0.289-0.264-0.527-0.024-0.238 0.237-0.182 0.322 0.025 0.527 0.205 0.208 0.291 0.264 0.527 0.026 0.239-0.238 0.182-0.323-0.025-0.529v0z" stroke="#000" stroke-linecap="round" stroke-width=".0839" fill="none"/>
			<path d="m78.95 47.46c-0.02 0.179 0.105 0.389 0.4 0.85 0.293 0.463 1.406 2.5 2.498 4.391 0.096 0.163 0.422 0.104 0.693-0.104 0.273-0.211 0.861-0.715 1.197-1.029 0.434-0.407 0.6-0.589 0.283-0.945-0.314-0.357-2.619-2.904-3.033-3.371-0.578-0.65-0.746-0.379-1.178-0.662-0.115-0.084-0.377 0.157-0.566 0.368-0.188 0.208-0.282 0.407-0.294 0.502z" fill="#7B2D19"/>
			<path stroke-linejoin="round" d="m78.95 47.46c-0.02 0.179 0.105 0.389 0.4 0.85 0.293 0.463 1.406 2.5 2.498 4.391 0.096 0.163 0.422 0.104 0.693-0.104 0.273-0.211 0.861-0.715 1.197-1.029 0.434-0.407 0.6-0.589 0.283-0.945-0.314-0.357-2.619-2.904-3.033-3.371-0.578-0.65-0.746-0.379-1.178-0.662-0.115-0.084-0.377 0.157-0.566 0.368-0.188 0.208-0.282 0.407-0.294 0.502v0z" stroke="#000" stroke-linecap="round" stroke-width=".0839" fill="none"/>
			<path d="m77.396 45.202s-3.59-3.592-4.432-4.433c-0.84-0.84-0.797-1.429-0.535-1.689 0.031-0.032 0.295-0.296 0.295-0.296l5.564 5.566c-0.25 0.086-0.639 1.103-0.892 0.852z" fill="#7B2D19"/>
			<path stroke-linejoin="round" d="m77.396 45.202s-3.59-3.592-4.432-4.433c-0.84-0.84-0.797-1.429-0.535-1.689 0.031-0.032 0.295-0.296 0.295-0.296l5.564 5.566c-0.25 0.086-0.639 1.103-0.892 0.852v0zm-12.139 1.859c0.23 0.126 0.641 0.21 0.902-0.242 0.189-0.325 0.125-0.734-0.274-0.901l-0.43 0.734c0.115 0.178 0.336 0.209 0.482 0.23" stroke="#000" stroke-linecap="round" stroke-width=".0839" fill="none"/>
			<path d="m64.185 46.588s0.318-0.317 0.41-0.409c0.158-0.158 0.162-0.673-0.115-0.83 0.305-0.031 0.576-0.284 0.504-0.672l5.271-5.272c0.094-0.095 0.152-0.068 0.199-0.021 0.82-0.819 7.963-7.962 8.791-8.789l0.404 0.404-8.082 8.082c0.264 0.261 0.305 0.85-0.535 1.689-0.84 0.841-4.453 4.453-4.453 4.453l-0.137-0.137c-0.242 0.389-1.396 2.374-1.396 2.374l-0.861-0.872z" fill="#C3B8AF"/>
			<path stroke-linejoin="round" d="m64.185 46.588s0.318-0.317 0.41-0.409c0.158-0.158 0.162-0.673-0.115-0.83 0.305-0.031 0.576-0.284 0.504-0.672l5.271-5.272c0.094-0.095 0.152-0.068 0.199-0.021 0.82-0.819 7.963-7.962 8.791-8.789l0.404 0.404-8.082 8.082c0.264 0.261 0.305 0.85-0.535 1.689-0.84 0.841-4.453 4.453-4.453 4.453l-0.137-0.137c-0.242 0.389-1.396 2.374-1.396 2.374l-0.861-0.872v0z" stroke="#000" stroke-linecap="round" stroke-width=".0839" fill="none"/>
			<path d="m76.618 33.624c0.307 0.307 0.395 0.256 0.6 0.052 0.262-0.264 0.221-0.321 0.178-0.414-0.053 0.052-0.205-0.057-0.281-0.134-0.076-0.076-0.185-0.229-0.133-0.28-0.094-0.044-0.15-0.085-0.414 0.178-0.206 0.203-0.256 0.291 0.05 0.598z" fill="#C3B8AF"/>
			<path stroke-linejoin="round" d="m76.618 33.624c0.307 0.307 0.395 0.256 0.6 0.052 0.262-0.264 0.221-0.321 0.178-0.414-0.053 0.052-0.205-0.057-0.281-0.134-0.076-0.076-0.185-0.229-0.133-0.28-0.094-0.044-0.15-0.085-0.414 0.178-0.206 0.203-0.256 0.291 0.05 0.598v0z" stroke="#000" stroke-linecap="round" stroke-width=".0839" fill="none"/>
			<path d="m79.657 30.916l0.816 0.816 5.492-5.492c0.535-0.536 0.486-0.626-0.084-0.104-1.449 1.322-5.471 4.968-5.471 4.968s-0.25-0.251-0.471-0.471l-0.282 0.283z" fill="#C3B8AF"/>
			<path stroke-linejoin="round" d="m79.657 30.916l0.816 0.816 5.492-5.492c0.535-0.536 0.486-0.626-0.084-0.104-1.449 1.322-5.471 4.968-5.471 4.968s-0.25-0.251-0.471-0.471l-0.282 0.283v0z" stroke="#000" stroke-linecap="round" stroke-width=".0839" fill="none"/>
			<path d="m79.374 30.365c0.207-0.207 0.291-0.264 0.529-0.024 0.236 0.237 0.18 0.322-0.025 0.527-0.207 0.208-0.291 0.264-0.529 0.026-0.239-0.238-0.182-0.323 0.025-0.529z" fill="#C3B8AF"/>
			<path stroke-linejoin="round" d="m79.374 30.365c0.207-0.207 0.291-0.264 0.529-0.024 0.236 0.237 0.18 0.322-0.025 0.527-0.207 0.208-0.291 0.264-0.529 0.026-0.239-0.238-0.182-0.323 0.025-0.529v0z" stroke="#000" stroke-linecap="round" stroke-width=".0839" fill="none"/>
			<path d="m65.046 47.46c0.021 0.179-0.105 0.389-0.398 0.85-0.295 0.463-1.408 2.5-2.5 4.391-0.094 0.163-0.42 0.104-0.693-0.104-0.274-0.211-0.861-0.715-1.197-1.029-0.434-0.407-0.598-0.589-0.283-0.945 0.315-0.357 2.621-2.904 3.035-3.371 0.578-0.65 0.746-0.379 1.176-0.662 0.115-0.084 0.379 0.157 0.568 0.368 0.186 0.208 0.282 0.407 0.292 0.502z" fill="#7B2D19"/>
			<path stroke-linejoin="round" d="m65.046 47.46c0.021 0.179-0.105 0.389-0.398 0.85-0.295 0.463-1.408 2.5-2.5 4.391-0.094 0.163-0.42 0.104-0.693-0.104-0.274-0.211-0.861-0.715-1.197-1.029-0.434-0.407-0.598-0.589-0.283-0.945 0.315-0.357 2.621-2.904 3.035-3.371 0.578-0.65 0.746-0.379 1.176-0.662 0.115-0.084 0.379 0.157 0.568 0.368 0.186 0.208 0.282 0.407 0.292 0.502v0z" stroke="#000" stroke-linecap="round" stroke-width=".0839" fill="none"/>
			<path d="m66.601 45.202s3.592-3.592 4.432-4.433c0.84-0.84 0.799-1.429 0.535-1.689-0.031-0.032-0.293-0.296-0.293-0.296l-5.566 5.566c0.251 0.086 0.64 1.103 0.892 0.852z" fill="#7B2D19"/>
			<path stroke-linejoin="round" d="m66.601 45.202s3.592-3.592 4.432-4.433c0.84-0.84 0.799-1.429 0.535-1.689-0.031-0.032-0.293-0.296-0.293-0.296l-5.566 5.566c0.251 0.086 0.64 1.103 0.892 0.852v0z" stroke="#000" stroke-linecap="round" stroke-width=".0839" fill="none"/>
			<path d="m67.489 50.186c4.303-4.57 10.027-9.538 14.774-12.067-5.412 1.862-10.779 7.054-15.039 11.801l0.265 0.266z" fill="#C3B8AF"/>
			<path stroke-linejoin="round" d="m67.489 50.186c4.303-4.57 10.027-9.538 14.774-12.067-5.412 1.862-10.779 7.054-15.039 11.801l0.265 0.266v0z" stroke="#000" stroke-linecap="round" stroke-width=".0839" fill="none"/>
			<path d="m67.335 50.341l-1.828 1.828c0.01 0.101-0.211 0.133-0.322 0.033s-0.07-0.27 0.051-0.303c-0.27-0.084-0.445-0.261-0.5-0.457-0.166-0.601 0.055-0.975 0.482-1.402 0.607-0.609 1.406-0.632 1.773-0.354 0.348 0.264 0.555 0.408 0.932 0.497 0.379 0.089 0.355 0.422 0.09 0.443-0.266 0.022-0.566-0.144-0.922-0.521-0.354-0.376-0.721-0.408-1.064-0.265-0.498 0.209-0.799 0.583-0.953 0.842-0.133 0.222-0.162 0.596 0.016 0.795s0.316 0.293 0.539 0.07c0.203-0.204 0.988-0.933 1.475-1.428 0.063 0.065 0.174 0.17 0.231 0.222z" fill="#FFCE46"/>
			<path stroke-linejoin="round" d="m67.335 50.341l-1.828 1.828c0.01 0.101-0.211 0.133-0.322 0.033s-0.07-0.27 0.051-0.303c-0.27-0.084-0.445-0.261-0.5-0.457-0.166-0.601 0.055-0.975 0.482-1.402 0.607-0.609 1.406-0.632 1.773-0.354 0.348 0.264 0.555 0.408 0.932 0.497 0.379 0.089 0.355 0.422 0.09 0.443-0.266 0.022-0.566-0.144-0.922-0.521-0.354-0.376-0.721-0.408-1.064-0.265-0.498 0.209-0.799 0.583-0.953 0.842-0.133 0.222-0.162 0.596 0.016 0.795s0.316 0.293 0.539 0.07c0.203-0.204 0.988-0.933 1.475-1.428 0.063 0.065 0.174 0.17 0.231 0.222v0z" stroke="#000" stroke-linecap="round" stroke-width=".0839" fill="none"/>
			<path d="m67.103 50.119c-0.107 0.011-0.188 0.044-0.246 0.098-0.111 0.1-0.123 0.275-0.123 0.497 0 0.089-0.006 0.17-0.016 0.242 0.109-0.011 0.189-0.045 0.248-0.099 0.111-0.101 0.121-0.276 0.121-0.497 0-0.089 0.006-0.169 0.016-0.241z" fill="#FFCE46"/>
			<path stroke-linejoin="round" d="m67.103 50.119c-0.107 0.011-0.188 0.044-0.246 0.098-0.111 0.1-0.123 0.275-0.123 0.497 0 0.089-0.006 0.17-0.016 0.242 0.109-0.011 0.189-0.045 0.248-0.099 0.111-0.101 0.121-0.276 0.121-0.497 0-0.089 0.006-0.169 0.016-0.241v0z" stroke="#000" stroke-linecap="round" stroke-width=".0839" fill="none"/>
			<path d="m66.745 50.477c-0.109 0.011-0.188 0.044-0.248 0.098-0.109 0.101-0.121 0.276-0.121 0.497 0 0.09-0.006 0.171-0.016 0.242 0.109-0.011 0.189-0.045 0.248-0.098 0.111-0.101 0.121-0.276 0.121-0.498 0-0.089 0.006-0.169 0.016-0.241z" fill="#FFCE46"/>
			<path stroke-linejoin="round" d="m66.745 50.477c-0.109 0.011-0.188 0.044-0.248 0.098-0.109 0.101-0.121 0.276-0.121 0.497 0 0.09-0.006 0.171-0.016 0.242 0.109-0.011 0.189-0.045 0.248-0.098 0.111-0.101 0.121-0.276 0.121-0.498 0-0.089 0.006-0.169 0.016-0.241v0z" stroke="#000" stroke-linecap="round" stroke-width=".0839" fill="none"/>
			<path d="m66.388 50.834c-0.107 0.012-0.188 0.044-0.248 0.098-0.109 0.1-0.121 0.276-0.121 0.498 0 0.089-0.006 0.169-0.016 0.241 0.109-0.011 0.188-0.044 0.248-0.099 0.109-0.1 0.121-0.275 0.121-0.496 0-0.089 0.006-0.17 0.016-0.242z" fill="#FFCE46"/>
			<path stroke-linejoin="round" d="m66.388 50.834c-0.107 0.012-0.188 0.044-0.248 0.098-0.109 0.1-0.121 0.276-0.121 0.498 0 0.089-0.006 0.169-0.016 0.241 0.109-0.011 0.188-0.044 0.248-0.099 0.109-0.1 0.121-0.275 0.121-0.496 0-0.089 0.006-0.17 0.016-0.242v0z" stroke="#000" stroke-linecap="round" stroke-width=".0839" fill="none"/>
			<path d="m66.03 51.192c-0.109 0.011-0.189 0.043-0.248 0.098-0.111 0.1-0.121 0.275-0.121 0.497 0 0.089-0.006 0.17-0.016 0.241 0.107-0.01 0.188-0.044 0.248-0.098 0.109-0.101 0.121-0.276 0.121-0.497 0.001-0.088 0.007-0.168 0.016-0.241z" fill="#FFCE46"/>
			<path stroke-linejoin="round" d="m66.03 51.192c-0.109 0.011-0.189 0.043-0.248 0.098-0.111 0.1-0.121 0.275-0.121 0.497 0 0.089-0.006 0.17-0.016 0.241 0.107-0.01 0.188-0.044 0.248-0.098 0.109-0.101 0.121-0.276 0.121-0.497 0.001-0.088 0.007-0.168 0.016-0.241v0z" stroke="#000" stroke-linecap="round" stroke-width=".0839" fill="none"/>
			<path stroke-linejoin="round" d="m67.579 49.786c3.859-4.214 10.004-9.56 13.953-11.336" stroke="#000" stroke-linecap="round" stroke-width=".0423" fill="none"/>
			<path d="m76.507 50.186c-4.303-4.57-10.027-9.538-14.773-12.067 5.412 1.862 10.781 7.054 15.041 11.801l-0.268 0.266z" fill="#C3B8AF"/>
			<path stroke-linejoin="round" d="m76.507 50.186c-4.303-4.57-10.027-9.538-14.773-12.067 5.412 1.862 10.781 7.054 15.041 11.801l-0.268 0.266v0z" stroke="#000" stroke-linecap="round" stroke-width=".0839" fill="none"/>
			<path d="m76.663 50.341l1.828 1.828c-0.012 0.101 0.211 0.133 0.322 0.033s0.068-0.27-0.053-0.303c0.27-0.084 0.447-0.261 0.502-0.457 0.164-0.601-0.057-0.975-0.482-1.402-0.609-0.609-1.408-0.632-1.775-0.354-0.348 0.264-0.555 0.408-0.932 0.497s-0.355 0.422-0.088 0.443c0.266 0.022 0.564-0.144 0.92-0.521 0.354-0.376 0.723-0.408 1.066-0.265 0.498 0.209 0.797 0.583 0.953 0.842 0.133 0.222 0.16 0.596-0.018 0.795-0.176 0.199-0.316 0.293-0.537 0.07-0.205-0.204-0.988-0.933-1.477-1.428-0.063 0.065-0.172 0.17-0.229 0.222z" fill="#FFCE46"/>
			<path stroke-linejoin="round" d="m76.663 50.341l1.828 1.828c-0.012 0.101 0.211 0.133 0.322 0.033s0.068-0.27-0.053-0.303c0.27-0.084 0.447-0.261 0.502-0.457 0.164-0.601-0.057-0.975-0.482-1.402-0.609-0.609-1.408-0.632-1.775-0.354-0.348 0.264-0.555 0.408-0.932 0.497s-0.355 0.422-0.088 0.443c0.266 0.022 0.564-0.144 0.92-0.521 0.354-0.376 0.723-0.408 1.066-0.265 0.498 0.209 0.797 0.583 0.953 0.842 0.133 0.222 0.16 0.596-0.018 0.795-0.176 0.199-0.316 0.293-0.537 0.07-0.205-0.204-0.988-0.933-1.477-1.428-0.063 0.065-0.172 0.17-0.229 0.222v0z" stroke="#000" stroke-linecap="round" stroke-width=".0839" fill="none"/>
			<path d="m76.894 50.119c0.109 0.011 0.189 0.044 0.248 0.098 0.109 0.1 0.121 0.275 0.121 0.497 0 0.089 0.006 0.17 0.016 0.242-0.107-0.011-0.189-0.045-0.248-0.099-0.109-0.101-0.121-0.276-0.121-0.497-0.001-0.089-0.007-0.169-0.016-0.241z" fill="#FFCE46"/>
			<path stroke-linejoin="round" d="m76.894 50.119c0.109 0.011 0.189 0.044 0.248 0.098 0.109 0.1 0.121 0.275 0.121 0.497 0 0.089 0.006 0.17 0.016 0.242-0.107-0.011-0.189-0.045-0.248-0.099-0.109-0.101-0.121-0.276-0.121-0.497-0.001-0.089-0.007-0.169-0.016-0.241v0z" stroke="#000" stroke-linecap="round" stroke-width=".0839" fill="none"/>
			<path d="m77.251 50.477c0.109 0.011 0.189 0.044 0.248 0.098 0.111 0.101 0.121 0.276 0.121 0.497 0 0.09 0.006 0.171 0.016 0.242-0.107-0.011-0.188-0.045-0.248-0.098-0.109-0.101-0.121-0.276-0.121-0.498 0-0.089-0.006-0.169-0.016-0.241z" fill="#FFCE46"/>
			<path stroke-linejoin="round" d="m77.251 50.477c0.109 0.011 0.189 0.044 0.248 0.098 0.111 0.101 0.121 0.276 0.121 0.497 0 0.09 0.006 0.171 0.016 0.242-0.107-0.011-0.188-0.045-0.248-0.098-0.109-0.101-0.121-0.276-0.121-0.498 0-0.089-0.006-0.169-0.016-0.241v0z" stroke="#000" stroke-linecap="round" stroke-width=".0839" fill="none"/>
			<path d="m77.61 50.834c0.107 0.012 0.188 0.044 0.246 0.098 0.111 0.1 0.121 0.276 0.121 0.498 0 0.089 0.006 0.169 0.016 0.241-0.107-0.011-0.188-0.044-0.248-0.099-0.109-0.1-0.121-0.275-0.121-0.496 0-0.089-0.006-0.17-0.014-0.242z" fill="#FFCE46"/>
			<path stroke-linejoin="round" d="m77.61 50.834c0.107 0.012 0.188 0.044 0.246 0.098 0.111 0.1 0.121 0.276 0.121 0.498 0 0.089 0.006 0.169 0.016 0.241-0.107-0.011-0.188-0.044-0.248-0.099-0.109-0.1-0.121-0.275-0.121-0.496 0-0.089-0.006-0.17-0.014-0.242v0z" stroke="#000" stroke-linecap="round" stroke-width=".0839" fill="none"/>
			<path d="m77.968 51.192c0.107 0.011 0.188 0.043 0.246 0.098 0.111 0.1 0.123 0.275 0.123 0.497 0 0.089 0.006 0.17 0.014 0.241-0.107-0.01-0.188-0.044-0.246-0.098-0.111-0.101-0.123-0.276-0.123-0.497-0.001-0.088-0.006-0.168-0.014-0.241z" fill="#FFCE46"/>
			<path stroke-linejoin="round" d="m77.968 51.192c0.107 0.011 0.188 0.043 0.246 0.098 0.111 0.1 0.123 0.275 0.123 0.497 0 0.089 0.006 0.17 0.014 0.241-0.107-0.01-0.188-0.044-0.246-0.098-0.111-0.101-0.123-0.276-0.123-0.497-0.001-0.088-0.006-0.168-0.014-0.241v0z" stroke="#000" stroke-linecap="round" stroke-width=".0839" fill="none"/>
			<path stroke-linejoin="round" d="m76.419 49.786c-3.861-4.214-10.006-9.56-13.953-11.336" stroke="#000" stroke-linecap="round" stroke-width=".0423" fill="none"/>
			<path d="m70.905 27.769c0.357 1.219 0.904 2.961 4.307 2.857-0.231-1.366-2.289-3.488-4.307-2.857z" fill="#EC1C2E"/>
			<path stroke-linejoin="round" d="m70.905 27.769c0.357 1.219 0.904 2.961 4.307 2.857-0.231-1.366-2.289-3.488-4.307-2.857v0z" stroke="#000" stroke-linecap="round" stroke-width=".0839" fill="none"/>
			<path d="m70.979 26.099c-0.23 0-0.545-0.095-0.713-0.253 0.146 0 0.672 0.011 0.787 0l-0.074 0.253z" fill="#EC1C2E"/>
			<path stroke-linejoin="round" d="m70.979 26.099c-0.23 0-0.545-0.095-0.713-0.253 0.146 0 0.672 0.011 0.787 0l-0.074 0.253v0z" stroke="#000" stroke-linecap="round" stroke-width=".0839" fill="none"/>
			<path d="m70.802 25.405c-0.096 0.095-0.41 0.283-0.506 0.336-0.094 0.053-0.166 0.126 0.096 0.136 0.262 0.011 0.619 0.032 0.715 0.032l-0.305-0.504z" fill="#EC1C2E"/>
			<path stroke-linejoin="round" d="m70.802 25.405c-0.096 0.095-0.41 0.283-0.506 0.336-0.094 0.053-0.166 0.126 0.096 0.136 0.262 0.011 0.619 0.032 0.715 0.032l-0.305-0.504v0z" stroke="#000" stroke-linecap="round" stroke-width=".0839" fill="none"/>
			<path d="m73.479 25.973c-0.6-0.388 0.336-2.122-1.125-2.385-0.641-0.115-1.322 0.147-1.615 0.609-0.152 0.239-0.305 0.798 0.01 1.303 0.314 0.504 0.227 0.628 0.127 0.819-0.453 0.86-0.285 1.764 0.996 2.163 1.281 0.4 1.984-2.265 1.607-2.509z" fill="#23913C"/>
			<path stroke-linejoin="round" d="m73.479 25.973c-0.6-0.388 0.336-2.122-1.125-2.385-0.641-0.115-1.322 0.147-1.615 0.609-0.152 0.239-0.305 0.798 0.01 1.303 0.314 0.504 0.227 0.628 0.127 0.819-0.453 0.86-0.285 1.764 0.996 2.163 1.281 0.4 1.984-2.265 1.607-2.509v0z" stroke="#000" stroke-linecap="round" stroke-width=".0839" fill="none"/>
			<path d="m71.999 26.319c-0.744 1.191-0.883 2.899 1.807 3.066 0.273 0.38 0.566 1.282 0.439 1.681 0.158-0.115 0.348-0.43 0.336-0.725 0.158 0.221 0.158 0.525 0.096 0.735 0.168-0.126 0.315-0.347 0.336-0.535 0.062 0.241 0.146 0.64 0.053 0.871 0.189-0.199 0.367-0.515 0.398-0.798 0.158 0.347 0.189 0.809 0.137 1.103 0.105-0.137 0.221-0.408 0.262-0.609-0.041 0.326-0.031 0.841-0.262 1.271 0.326-0.294 0.777-0.799 0.945-1.503 0.137 0.273 0.305 0.904 0.346 1.366 0.127-0.21 0.232-0.504 0.273-0.735 4.244 4.811 3.172 9.557-0.021 13.842 0.273-0.252 0.725-0.462 1.01-0.903-0.064 0.105-0.316 0.462-0.441 0.588 0.389-0.157 0.672-0.389 0.902-0.693-0.115 0.284-0.305 0.6-0.461 0.767 0.283-0.063 0.555-0.273 0.66-0.409-1.941 4.179-5.85 7.246-8.412 8.758 2.018-0.378 4.244-1.932 5.42-2.941-1.051 1.68-2.059 3.907-2.438 5.923 0.967-2.016 2.412-4.772 4.412-6.847 2.227-2.31 3.949-5.714 3.949-10.754 0-4.621-3.215-8.528-4.938-10.293-1.721-1.764-2.078-1.491-3.15-2.583-0.842-0.858-1.554 0.19-1.658 0.357z" fill="#23913C"/>
			<path stroke-linejoin="round" d="m71.999 26.319c-0.744 1.191-0.883 2.899 1.807 3.066 0.273 0.38 0.566 1.282 0.439 1.681 0.158-0.115 0.348-0.43 0.336-0.725 0.158 0.221 0.158 0.525 0.096 0.735 0.168-0.126 0.315-0.347 0.336-0.535 0.062 0.241 0.146 0.64 0.053 0.871 0.189-0.199 0.367-0.515 0.398-0.798 0.158 0.347 0.189 0.809 0.137 1.103 0.105-0.137 0.221-0.408 0.262-0.609-0.041 0.326-0.031 0.841-0.262 1.271 0.326-0.294 0.777-0.799 0.945-1.503 0.137 0.273 0.305 0.904 0.346 1.366 0.127-0.21 0.232-0.504 0.273-0.735 4.244 4.811 3.172 9.557-0.021 13.842 0.273-0.252 0.725-0.462 1.01-0.903-0.064 0.105-0.316 0.462-0.441 0.588 0.389-0.157 0.672-0.389 0.902-0.693-0.115 0.284-0.305 0.6-0.461 0.767 0.283-0.063 0.555-0.273 0.66-0.409-1.941 4.179-5.85 7.246-8.412 8.758 2.018-0.378 4.244-1.932 5.42-2.941-1.051 1.68-2.059 3.907-2.438 5.923 0.967-2.016 2.412-4.772 4.412-6.847 2.227-2.31 3.949-5.714 3.949-10.754 0-4.621-3.215-8.528-4.938-10.293-1.721-1.764-2.078-1.491-3.15-2.583-0.842-0.858-1.554 0.19-1.658 0.357v0z" stroke="#000" stroke-linecap="round" stroke-width=".0839" fill="none"/>
			<path d="m71.368 24.6c-0.246 0-0.25 0.366 0 0.366s0.246-0.366 0-0.366z" fill="#FFF100"/>
			<path stroke-linejoin="round" d="m78.813 44.698c1.797-3.466 3.436-8.003-1.186-13.591m0.987 13.233c0.441-0.64 1.051-1.743 1.576-3.695m-2.037 3.8c1.428-1.995 3.15-5.439 1.449-9.682m-3.781 15.753c2.479-2.1 5.377-7.058 5.377-11.09 0-3.445-0.84-6.049-3.486-8.989m-4.621 21.633c2.184-1.471 5.209-4.327 6.68-8.192m-4.622 8.822c1.008-1.723 2.352-3.234 3.066-3.99 0.715-0.757 2.436-3.865 2.73-5.798m-5.471-12.308c0.021-0.42-0.072-1.029-0.199-1.364m-0.262 1.312c0.062-0.295-0.021-0.683-0.074-0.872m0.923 1.427c0.064-0.283 0.137-0.809 0.137-0.966m0.547 0.735c0.062-0.25 0.146-0.882 0.094-1.206m0.525 1.837c-0.146-0.168-0.357-0.451-0.441-0.557m-2.143-0.609c0.021-0.325-0.072-0.882-0.283-1.176" stroke="#000" stroke-linecap="round" stroke-width=".0423" fill="none"/>
			<path d="m74.753 30.384c-1.775 0.127-4.717 0.028-7.002-0.459-1.293-0.274-2.574 1.26-1.898 3.346 1.018 3.148 2.363 4.536 3.635 6.9-1.512-0.547-2.885 0.207-2.844 1.372 0.051 1.354 0.826 2.159 2.584 1.863 1.758-0.297 5.773-0.601 7.941-0.36 0.76 0.085 1.277-0.598 1.375-0.995 0.613-2.478 0.271-4.823-3.25-9.359 0.676 0 0.934-0.646 0.869-1.317-0.043-0.437-0.223-1.076-1.41-0.991z" fill="#FFFBD4"/>
			<path stroke-width=".0839" d="m74.753 30.384c-1.775 0.127-4.717 0.028-7.002-0.459-1.293-0.274-2.574 1.26-1.898 3.346 1.018 3.148 2.363 4.536 3.635 6.9-1.512-0.547-2.885 0.207-2.844 1.372 0.051 1.354 0.826 2.159 2.584 1.863 1.758-0.297 5.773-0.601 7.941-0.36 0.76 0.085 1.277-0.598 1.375-0.995 0.613-2.478 0.271-4.823-3.25-9.359 0.676 0 0.934-0.646 0.869-1.317-0.043-0.437-0.223-1.076-1.41-0.991z" stroke="#000" fill="none"/>
			<path d="m67.751 29.925c-1.293-0.274-2.574 1.26-1.898 3.346 1.018 3.148 2.363 4.536 3.635 6.9-1.545-0.531-2.885 0.207-2.844 1.372 0.051 1.354 0.826 2.159 2.584 1.863-0.641 0.142-1.574-0.131-1.814-0.711 0.176 0.322 0.803 0.371 1.141 0.371 0.414 0 1.434-0.268 1.674-1.271 0.297-1.245-0.273-1.914-1.867-4.454-0.961-1.536-2.105-3.909-2.121-5.163-0.017-1.175 0.578-1.802 1.19-1.545-0.652-0.097-0.869 0.724-0.869 1.191 0 0.466 0.516 1.215 1.4 1.109 2.154-0.257 6.016-0.37 7.334-0.241-2.236-0.225-5.244-0.112-6.387 0.032-1.141 0.145-1.93 0.065-1.994-0.788 0.387 0.515 1.385 0.596 1.658-0.498 0.219-0.886-0.324-1.432-0.822-1.513z"/>
			<path d="m68.747 32.394c1.641-0.13 5.066-0.064 6.547 0-1.111-0.097-6-0.258-6.547 0z"/>
			<path d="m69.229 32.216c1.395-0.129 4.307-0.063 5.564 0-0.942-0.096-5.099-0.257-5.564 0z"/>
			<path d="m69.64 32.027c1.186-0.128 3.66-0.064 4.73 0-0.803-0.095-4.336-0.256-4.73 0z"/>
			<path d="m69.94 42.948c1.865-0.258 6.369-0.354 7.752-0.161-1.576-0.322-6.562-0.225-7.752 0.161z"/>
			<path d="m70.481 42.723c1.586-0.258 5.412-0.353 6.59-0.16-1.34-0.322-5.578-0.226-6.59 0.16z"/>
			<path d="m70.94 42.503c1.348-0.257 4.602-0.354 5.6-0.161-1.139-0.321-4.74-0.225-5.6 0.161z"/>
			<path d="m68.136 30.874c0.289 0.53 0.049 0.886-0.258 1.046 0.209-0.306-0.047-0.869-0.434-1.126 0.243 0 0.547 0.016 0.692 0.08z" fill="#FFFBD4"/>
			<path d="m67.171 31.662v-0.37c0.209 0.017 0.371 0.209 0.371 0.37h-0.371z" fill="#FFFBD4"/>
			<path d="m69.62 40.488l-0.695-0.189c0.676 0.194 0.803 1.673 0.312 2.252 0.491-0.458 0.623-1.338 0.383-2.063z" fill="#FFFBD4"/>
			<path d="m69.028 40.83c-0.201-0.603-0.764-0.547-1.246-0.354-0.648 0.261-1.109 1.046-0.498 2.093-0.16-0.371-0.033-1.015 0.08-1.175 0.114-0.162 0.377-0.708 1.664-0.564z" fill="#FFFBD4"/>
			<path d="m69.062 42.148c0.104-0.354 0.129-0.754 0.039-1.044-0.996-0.033-1.398 0.096-1.527 0.449 0.514-0.401 1.094-0.097 1.094 0.258-0.001 0.354 0.005 0.369 0.394 0.337z" fill="#FFFBD4"/>
			<path d="m68.964 42.358c-0.449 0.289-1.23 0.128-0.908-0.66 0.193-0.032 0.418-0.097 0.418 0.291 0 0.16 0.041 0.369 0.49 0.369z" fill="#FFFBD4"/>
			<path d="m65.685 52.003c-1.141-0.55-3.145-1.256-4.355-0.878-1.213 0.378-1.422 0.516-0.5 0.976 3.191 1.592 4.445 0.062 5.822 0.369" fill="#23913C"/>
			<path stroke-width=".0839" d="m65.685 52.003c-1.141-0.55-3.145-1.256-4.355-0.878-1.213 0.378-1.422 0.516-0.5 0.976 3.191 1.592 4.445 0.062 5.822 0.369" stroke="#000" fill="none"/>
			<path d="m61.056 51.713c0.965-0.02 2.205 0.482 3.129 0.378" fill="#23913C"/>
			<path d="m61.056 51.713c0.965-0.02 2.205 0.482 3.129 0.378" stroke="#000" stroke-linecap="round" stroke-width=".0839" fill="none"/>
			<path d="m78.312 52.003c1.143-0.55 3.146-1.256 4.357-0.878s1.422 0.516 0.498 0.976c-3.191 1.592-4.443 0.062-5.822 0.369" fill="#23913C"/>
			<path stroke-width=".0839" d="m78.312 52.003c1.143-0.55 3.146-1.256 4.357-0.878s1.422 0.516 0.498 0.976c-3.191 1.592-4.443 0.062-5.822 0.369" stroke="#000" fill="none"/>
			<path d="m82.942 51.713c-0.967-0.02-2.207 0.482-3.131 0.378" fill="#23913C"/>
			<path d="m82.942 51.713c-0.967-0.02-2.207 0.482-3.131 0.378" stroke="#000" stroke-linecap="round" stroke-width=".0839" fill="none"/>
			<path stroke-linejoin="round" d="m77.233 37.596l-0.346 0.013v0.673l0.346-0.013m-0.345-0.325l0.262-0.01m-8.301-3.657v0.672l0.355-0.014m0.568-0.692v0.672m2.047-0.75l-0.346 0.014v0.672l0.346-0.013m-0.345-0.323l0.262-0.009m1.685-0.411v0.672m-0.24-0.663l0.494-0.02m-3.19 0.132l0.225-0.009c0.09-0.004 0.15 0.065 0.15 0.162 0 0.096-0.057 0.17-0.135 0.172-0.078 0.003-0.195 0.008-0.24 0.01m0 0.335l0.225-0.009c0.09-0.003 0.15-0.077 0.15-0.173 0-0.095-0.057-0.165-0.135-0.163-0.078 0.003-0.195 0.008-0.24 0.01m0-0.335v0.672m1.828-0.741l0.225-0.01c0.088-0.003 0.15 0.067 0.15 0.163 0 0.095-0.057 0.169-0.135 0.172s-0.195 0.007-0.24 0.009c0.133-0.004 0.209-0.02 0.291 0.059 0.08 0.076 0.033 0.183 0.068 0.266m-0.359-0.659v0.672m1.696-0.069l0.242-0.681 0.252 0.662m-0.383-0.258l0.283-0.011m0.715 0.249v-0.67c0.072-0.002 0.15-0.005 0.188-0.007 0.039-0.001 0.203 0.05 0.203 0.323 0 0.274-0.133 0.344-0.203 0.347-0.069 0.003-0.135 0.006-0.188 0.007v0zm-3.771 1.909v-0.672l-0.125 0.005m0.924-0.015l-0.305 0.013v0.314c0.205-0.123 0.398-0.057 0.398 0.148 0 0.146-0.24 0.267-0.398 0.146m1.539-0.019v-0.669c0.074-0.003 0.15-0.006 0.188-0.008 0.039-0.001 0.205 0.051 0.205 0.324 0 0.272-0.135 0.343-0.205 0.346-0.069 0.003-0.135 0.005-0.188 0.007v0zm1.223-0.714l-0.346 0.012v0.672l0.346-0.013m-0.346-0.323l0.262-0.009m-3.004 1.646l-0.346 0.014v0.672l0.346-0.013m-0.346-0.325l0.262-0.009m0.73-0.364v0.672m-0.242-0.663l0.494-0.018m0.447-0.017v0.672m0.924-0.705l-0.348 0.012v0.673l0.348-0.014m-0.347-0.324l0.264-0.01m1.626-0.394l0.225-0.009c0.088-0.003 0.15 0.066 0.15 0.161s-0.057 0.17-0.135 0.173c-0.078 0.003-0.195 0.008-0.24 0.009m0 0.335l0.225-0.007c0.088-0.004 0.15-0.078 0.15-0.174s-0.057-0.166-0.135-0.163c-0.078 0.003-0.195 0.008-0.24 0.009m0-0.334v0.672m-3.459 1.852v-0.669c0.074-0.003 0.15-0.006 0.189-0.007 0.039-0.002 0.203 0.05 0.203 0.322s-0.135 0.344-0.203 0.347c-0.07 0.003-0.134 0.005-0.189 0.007v0zm1.092-0.72l-0.346 0.013v0.672l0.346-0.013m-0.346-0.324l0.262-0.009m1.285 0.283v-0.673l-0.125 0.005m-3.387-1.506c-0.074-0.102-0.289-0.104-0.348 0.087-0.033 0.112 0.084 0.164 0.205 0.187 0.137 0.024 0.199 0.14 0.146 0.251-0.066 0.146-0.268 0.115-0.34 0.003m4.607-0.1l-0.115-0.668-0.236 0.371-0.234-0.354-0.115 0.677m0.61 1.021c-0.234 0.009-0.236 0.333 0 0.324s0.234-0.332 0-0.324v0zm0 0.317c-0.262 0.01-0.266 0.372 0 0.361 0.264-0.01 0.26-0.371 0-0.361v0zm1.496 0.3v-0.673l-0.127 0.006m-0.719 0.099c0.109-0.1 0.264-0.065 0.32 0.05 0.062 0.13 0.006 0.237-0.084 0.299-0.107 0.074-0.252 0.126-0.252 0.261l0.367-0.014m0.292-2.405l0.225-0.008c0.088-0.004 0.15 0.065 0.15 0.163 0 0.095-0.057 0.169-0.135 0.172s-0.195 0.007-0.24 0.009c0.133-0.005 0.209-0.02 0.293 0.059 0.078 0.075 0.031 0.182 0.068 0.265m-0.361-0.66v0.673" stroke="#FFCE46" stroke-linecap="round" stroke-width=".1677" fill="none"/>
</g>
</svg>
