<?xml version="1.0" encoding="UTF-8" standalone="no"?>
<!-- Generator: Adobe Illustrator 18.0.0, SVG Export Plug-In . SVG Version: 6.00 Build 0)  -->

<svg
   xmlns:dc="http://purl.org/dc/elements/1.1/"
   xmlns:cc="http://creativecommons.org/ns#"
   xmlns:rdf="http://www.w3.org/1999/02/22-rdf-syntax-ns#"
   xmlns:svg="http://www.w3.org/2000/svg"
   xmlns="http://www.w3.org/2000/svg"
   xmlns:sodipodi="http://sodipodi.sourceforge.net/DTD/sodipodi-0.dtd"
   xmlns:inkscape="http://www.inkscape.org/namespaces/inkscape"
   style="enable-background:new 0 0 144 80"
   xml:space="preserve"
   version="1.1"
   y="0px"
   x="0px"
   viewBox="0 0 144 80"
   id="svg2"
   inkscape:version="0.91 r13725"
   sodipodi:docname="uruguay.svg"><metadata
     id="metadata119"><rdf:RDF><cc:Work
         rdf:about=""><dc:format>image/svg+xml</dc:format><dc:type
           rdf:resource="http://purl.org/dc/dcmitype/StillImage" /></cc:Work></rdf:RDF></metadata><defs
     id="defs117" /><sodipodi:namedview
     pagecolor="#ffffff"
     bordercolor="#666666"
     borderopacity="1"
     objecttolerance="10"
     gridtolerance="10"
     guidetolerance="10"
     inkscape:pageopacity="0"
     inkscape:pageshadow="2"
     inkscape:window-width="1418"
     inkscape:window-height="837"
     id="namedview115"
     showgrid="false"
     inkscape:zoom="0.70710678"
     inkscape:cx="382.03092"
     inkscape:cy="-379.41126"
     inkscape:window-x="0"
     inkscape:window-y="0"
     inkscape:window-maximized="0"
     inkscape:current-layer="svg2" /><g
     id="URU"
     transform="matrix(0.17104169,0,0,0.17104169,0,-61.810666)"><rect
       x="0"
       y="361.39999"
       width="841.90002"
       height="467.70001"
       id="rect5"
       style="fill:#ffffff" /><rect
       x="259.39999"
       y="413.39999"
       width="582.5"
       height="52"
       id="rect7"
       style="fill:#1d439a" /><rect
       x="259.39999"
       y="517.29999"
       width="582.5"
       height="52"
       id="rect9"
       style="fill:#1d439a" /><rect
       x="0"
       y="621.29999"
       width="841.90002"
       height="52"
       id="rect11"
       style="fill:#1d439a" /><rect
       x="0"
       y="725.20001"
       width="841.90002"
       height="52"
       id="rect13"
       style="fill:#1d439a" /></g><g
     id="g15"
     transform="matrix(0.17104169,0,0,0.17104169,0,-61.810666)"><path
       d="m 122.5,515.2 8.3,12.3 c -34,24.6 -13.2,39.1 -37.3,47 15,-14.6 -2.4,-15.8 10.3,-46.3"
       id="path17"
       inkscape:connector-curvature="0"
       style="fill:#fcd116" /><path
       stroke-miterlimit="20"
       d="m 122.5,515.2 8.3,12.3 c -34,24.6 -13.2,39.1 -37.3,47 15,-14.6 -2.4,-15.8 10.3,-46.3"
       id="path19"
       inkscape:connector-curvature="0"
       style="fill:none;stroke:#000000;stroke-width:1.75999999;stroke-linecap:square;stroke-miterlimit:20" /><path
       stroke-miterlimit="20"
       d="m 116.6,518.7 c -18.7,30.9 -6.5,47.9 -23.1,55.8"
       id="path21"
       inkscape:connector-curvature="0"
       style="fill:none;stroke:#000000;stroke-width:1.75999999;stroke-miterlimit:20" /><polyline
       points="128.2,490.7 144.7,490.7 128.2,581.4 111.7,490.7 128.2,490.7 128.2,581.4  "
       id="polyline23"
       style="fill:#fcd116" /><polyline
       stroke-miterlimit="20"
       points="128.2,490.7 144.7,490.7 128.2,581.4    111.7,490.7 128.2,490.7 128.2,581.4  "
       id="polyline25"
       style="fill:none;stroke:#000000;stroke-width:1.75999999;stroke-miterlimit:20" /><path
       d="m 106.9,504 -2.9,14.6 c -41.4,-6.6 -37,18.3 -59.6,6.9 20.9,0.3 9.5,-12.9 40,-25.5"
       id="path27"
       inkscape:connector-curvature="0"
       style="fill:#fcd116" /><path
       stroke-miterlimit="20"
       d="m 106.9,504 -2.9,14.6 c -41.4,-6.6 -37,18.3 -59.6,6.9 20.9,0.3 9.5,-12.9 40,-25.5"
       id="path29"
       inkscape:connector-curvature="0"
       style="fill:none;stroke:#000000;stroke-width:1.75999999;stroke-linecap:square;stroke-miterlimit:20" /><path
       stroke-miterlimit="20"
       d="m 100.3,502.3 c -35.1,8.6 -38.4,29.3 -55.8,23.1"
       id="path31"
       inkscape:connector-curvature="0"
       style="fill:none;stroke:#000000;stroke-width:1.75999999;stroke-miterlimit:20" /><polyline
       points="128.2,490.7 139.9,502.4 64.1,554.9 116.5,479.1 128.2,490.7 64.1,554.9  "
       id="polyline33"
       style="fill:#fcd116" /><polyline
       stroke-miterlimit="20"
       points="128.2,490.7 139.9,502.4 64.1,554.9    116.5,479.1 128.2,490.7 64.1,554.9  "
       id="polyline35"
       style="fill:none;stroke:#000000;stroke-width:1.75999999;stroke-miterlimit:20" /><path
       d="m 103.8,485.1 -12.3,8.3 c -24.6,-34 -39.1,-13.2 -47,-37.3 14.6,15 15.8,-2.4 46.3,10.3"
       id="path37"
       inkscape:connector-curvature="0"
       style="fill:#fcd116" /><path
       stroke-miterlimit="20"
       d="m 103.8,485.1 -12.3,8.3 c -24.6,-34 -39.1,-13.2 -47,-37.3 14.6,15 15.8,-2.4 46.3,10.3"
       id="path39"
       inkscape:connector-curvature="0"
       style="fill:none;stroke:#000000;stroke-width:1.75999999;stroke-linecap:square;stroke-miterlimit:20" /><path
       stroke-miterlimit="20"
       d="M 100.3,479.2 C 69.4,460.5 52.4,472.7 44.5,456.1"
       id="path41"
       inkscape:connector-curvature="0"
       style="fill:none;stroke:#000000;stroke-width:1.75999999;stroke-miterlimit:20" /><polyline
       points="128.2,490.7 128.2,507.2 37.5,490.7 128.2,474.3 128.2,490.7 37.5,490.7  "
       id="polyline43"
       style="fill:#fcd116" /><polyline
       stroke-miterlimit="20"
       points="128.2,490.7 128.2,507.2 37.5,490.7    128.2,474.3 128.2,490.7 37.5,490.7  "
       id="polyline45"
       style="fill:none;stroke:#000000;stroke-width:1.75999999;stroke-miterlimit:20" /><path
       d="m 114.9,469.5 -14.6,-2.9 c 6.6,-41.4 -18.3,-37 -6.8,-59.6 -0.3,20.9 12.9,9.5 25.5,40"
       id="path47"
       inkscape:connector-curvature="0"
       style="fill:#fcd116" /><path
       stroke-miterlimit="20"
       d="m 114.9,469.5 -14.6,-2.9 c 6.6,-41.4 -18.3,-37 -6.8,-59.6 -0.3,20.9 12.9,9.5 25.5,40"
       id="path49"
       inkscape:connector-curvature="0"
       style="fill:none;stroke:#000000;stroke-width:1.75999999;stroke-linecap:square;stroke-miterlimit:20" /><path
       stroke-miterlimit="20"
       d="M 116.6,462.8 C 108,427.7 87.3,424.4 93.5,407"
       id="path51"
       inkscape:connector-curvature="0"
       style="fill:none;stroke:#000000;stroke-width:1.75999999;stroke-miterlimit:20" /><polyline
       points="128.2,490.7 116.5,502.4 64.1,426.6 139.9,479.1 128.2,490.7 64.1,426.6  "
       id="polyline53"
       style="fill:#fcd116" /><polyline
       stroke-miterlimit="20"
       points="128.2,490.7 116.5,502.4 64.1,426.6    139.9,479.1 128.2,490.7 64.1,426.6  "
       id="polyline55"
       style="fill:none;stroke:#000000;stroke-width:1.75999999;stroke-miterlimit:20" /><path
       d="M 133.9,466.3 125.6,454 c 34,-24.6 13.2,-39.1 37.3,-47 -15,14.6 2.4,15.8 -10.3,46.3"
       id="path57"
       inkscape:connector-curvature="0"
       style="fill:#fcd116" /><path
       stroke-miterlimit="20"
       d="M 133.9,466.3 125.6,454 c 34,-24.6 13.2,-39.1 37.3,-47 -15,14.6 2.4,15.8 -10.3,46.3"
       id="path59"
       inkscape:connector-curvature="0"
       style="fill:none;stroke:#000000;stroke-width:1.75999999;stroke-linecap:square;stroke-miterlimit:20" /><path
       stroke-miterlimit="20"
       d="m 139.8,462.8 c 18.7,-30.9 6.5,-47.9 23.1,-55.8"
       id="path61"
       inkscape:connector-curvature="0"
       style="fill:none;stroke:#000000;stroke-width:1.75999999;stroke-miterlimit:20" /><polyline
       points="128.2,490.7 111.7,490.7 128.2,400.1 144.7,490.7 128.2,490.7 128.2,400.1  "
       id="polyline63"
       style="fill:#fcd116" /><polyline
       stroke-miterlimit="20"
       points="128.2,490.7 111.7,490.7 128.2,400.1    144.7,490.7 128.2,490.7 128.2,400.1  "
       id="polyline65"
       style="fill:none;stroke:#000000;stroke-width:1.75999999;stroke-miterlimit:20" /><path
       d="m 149.5,477.5 2.9,-14.6 c 41.4,6.6 37,-18.3 59.6,-6.8 -20.9,-0.3 -9.5,12.9 -40,25.5"
       id="path67"
       inkscape:connector-curvature="0"
       style="fill:#fcd116" /><path
       stroke-miterlimit="20"
       d="m 149.5,477.5 2.9,-14.6 c 41.4,6.6 37,-18.3 59.6,-6.8 -20.9,-0.3 -9.5,12.9 -40,25.5"
       id="path69"
       inkscape:connector-curvature="0"
       style="fill:none;stroke:#000000;stroke-width:1.75999999;stroke-linecap:square;stroke-miterlimit:20" /><path
       stroke-miterlimit="20"
       d="m 156.1,479.2 c 35.1,-8.6 38.4,-29.3 55.8,-23.1"
       id="path71"
       inkscape:connector-curvature="0"
       style="fill:none;stroke:#000000;stroke-width:1.75999999;stroke-miterlimit:20" /><polyline
       points="128.2,490.7 116.5,479.1 192.3,426.6 139.9,502.4 128.2,490.7 192.3,426.6  "
       id="polyline73"
       style="fill:#fcd116" /><polyline
       stroke-miterlimit="20"
       points="128.2,490.7 116.5,479.1 192.3,426.6    139.9,502.4 128.2,490.7 192.3,426.6  "
       id="polyline75"
       style="fill:none;stroke:#000000;stroke-width:1.75999999;stroke-miterlimit:20" /><path
       d="m 152.6,496.4 12.3,-8.3 c 24.6,34 39.1,13.2 47,37.3 -14.6,-15 -15.8,2.4 -46.3,-10.3"
       id="path77"
       inkscape:connector-curvature="0"
       style="fill:#fcd116" /><path
       stroke-miterlimit="20"
       d="m 152.6,496.4 12.3,-8.3 c 24.6,34 39.1,13.2 47,37.3 -14.6,-15 -15.8,2.4 -46.3,-10.3"
       id="path79"
       inkscape:connector-curvature="0"
       style="fill:none;stroke:#000000;stroke-width:1.75999999;stroke-linecap:square;stroke-miterlimit:20" /><path
       stroke-miterlimit="20"
       d="m 156.1,502.3 c 30.9,18.7 47.9,6.5 55.8,23.1"
       id="path81"
       inkscape:connector-curvature="0"
       style="fill:none;stroke:#000000;stroke-width:1.75999999;stroke-miterlimit:20" /><polyline
       points="128.2,490.7 128.2,474.3 218.9,490.7 128.2,507.2 128.2,490.7 218.9,490.7  "
       id="polyline83"
       style="fill:#fcd116" /><polyline
       stroke-miterlimit="20"
       points="128.2,490.7 128.2,474.3 218.9,490.7    128.2,507.2 128.2,490.7 218.9,490.7  "
       id="polyline85"
       style="fill:none;stroke:#000000;stroke-width:1.75999999;stroke-miterlimit:20" /><path
       d="m 141.5,512 14.6,2.9 c -6.6,41.4 18.3,37 6.9,59.6 0.3,-20.9 -12.9,-9.5 -25.5,-40"
       id="path87"
       inkscape:connector-curvature="0"
       style="fill:#fcd116" /><path
       stroke-miterlimit="20"
       d="m 141.5,512 14.6,2.9 c -6.6,41.4 18.3,37 6.9,59.6 0.3,-20.9 -12.9,-9.5 -25.5,-40"
       id="path89"
       inkscape:connector-curvature="0"
       style="fill:none;stroke:#000000;stroke-width:1.75999999;stroke-linecap:square;stroke-miterlimit:20" /><path
       stroke-miterlimit="20"
       d="m 139.8,518.7 c 8.6,35.1 29.3,38.4 23.1,55.8"
       id="path91"
       inkscape:connector-curvature="0"
       style="fill:none;stroke:#000000;stroke-width:1.75999999;stroke-miterlimit:20" /><polyline
       points="128.2,490.7 139.9,479.1 192.3,554.9 116.5,502.4 128.2,490.7 192.3,554.9  "
       id="polyline93"
       style="fill:#fcd116" /><polyline
       stroke-miterlimit="20"
       points="128.2,490.7 139.9,479.1 192.3,554.9    116.5,502.4 128.2,490.7 192.3,554.9  "
       id="polyline95"
       style="fill:none;stroke:#000000;stroke-width:1.75999999;stroke-miterlimit:20" /><path
       d="m 158.4,490.7 c 0,16.7 -13.5,30.2 -30.2,30.2 -16.7,0 -30.2,-13.5 -30.2,-30.2 0,-16.7 13.5,-30.2 30.2,-30.2 16.7,0 30.2,13.6 30.2,30.2 l 0,0 z"
       id="path97"
       inkscape:connector-curvature="0"
       style="fill:#fcd116" /><path
       stroke-miterlimit="20"
       d="m 158.4,490.7 c 0,16.7 -13.5,30.2 -30.2,30.2 -16.7,0 -30.2,-13.5 -30.2,-30.2 0,-16.7 13.5,-30.2 30.2,-30.2 16.7,0 30.2,13.6 30.2,30.2 l 0,0 z"
       id="path99"
       inkscape:connector-curvature="0"
       style="fill:none;stroke:#000000;stroke-width:1.75999999;stroke-miterlimit:20" /><path
       d="m 150.4,478.7 c -1.9,2.2 -3,-1.6 -9.9,-1.6 -6.9,0 -8,4.1 -9.1,3.3 -1.1,-0.8 5.8,-5.8 8,-6 2.3,-0.4 8.6,1.8 11,4.3 m -7.9,2.4 c 1.9,1.7 0.3,5.2 -1.6,5.2 -1.9,0 -5.5,-3.3 -3.8,-5.5"
       id="path101"
       inkscape:connector-curvature="0" /><path
       d="m 133.4,483.6 c 0.3,-3.3 3,-3.8 7.4,-3.8 4.4,0 6.3,3.3 8,4.1 -1.9,0 -3.6,-2.7 -8,-2.7 -4.4,0 -4.4,0 -7.4,2.7 m 0.8,0.5 c 1.1,-1.6 2.5,1.7 5.5,1.7 3,0 4.7,-0.8 6.6,-2.2 1.9,-1.4 -2.7,3.3 -5.8,3.3 -3,0 -7.1,-1.7 -6.3,-2.8"
       id="path103"
       inkscape:connector-curvature="0" /><path
       d="m 143.6,486.1 c 3.6,-1.9 1.4,-4.7 0,-5.2 0.5,0.5 2.7,3.3 0,5.2 m -15.4,16.5 c 1.7,0 2.2,-0.5 4.4,-0.5 2.2,0 7.4,3 10.4,1.9 -6.3,2.5 -3.8,0.8 -14.8,0.8 l -1.4,0 m 17.3,1.6 c -1.1,-1.9 -0.8,-1.4 -3,-4.4 2.2,1.7 2.8,2.5 3,4.4 m -15.9,2.8 c 6.9,0 5.8,-1.4 14.8,-5.2 -6.6,0.8 -8,3 -14.8,3 l -1.4,0 m 1.4,-8 c 1.9,0 2.5,-1.4 4.7,-1.4 2.2,0 5.2,0.8 6.6,1.9 0.3,0.3 -0.8,-2.2 -3,-2.5 -2.2,-0.3 -1.4,-3.8 -3.8,-4.4 0,1.1 0.8,0.8 1.1,2.5 0,1.4 -2.5,1.4 -3,0 0.5,2.2 -1.1,2.2 -2.5,2.2"
       id="path105"
       inkscape:connector-curvature="0" /><path
       d="m 105.9,478.7 c 1.9,2.2 3,-1.6 9.9,-1.6 6.9,0 8,4.1 9.1,3.3 1.1,-0.8 -5.8,-5.8 -8,-6 -2.2,-0.4 -8.5,1.8 -11,4.3 m 8,2.4 c -1.9,1.7 -0.3,5.2 1.7,5.2 1.9,0 5.5,-3.3 3.8,-5.5"
       id="path107"
       inkscape:connector-curvature="0" /><path
       d="m 123,483.6 c -0.3,-3.3 -3,-3.8 -7.4,-3.8 -4.4,0 -6.3,3.3 -8,4.1 1.9,0 3.6,-2.7 8,-2.7 4.4,0 4.4,0 7.4,2.7 m -0.8,0.5 c -1.1,-1.6 -2.5,1.7 -5.5,1.7 -3,0 -4.7,-0.8 -6.6,-2.2 -1.9,-1.4 2.7,3.3 5.8,3.3 3,0 7.1,-1.7 6.3,-2.8"
       id="path109"
       inkscape:connector-curvature="0" /><path
       d="m 112.8,486.1 c -3.6,-1.9 -1.4,-4.7 0,-5.2 -0.5,0.5 -2.7,3.3 0,5.2 m 15.4,16.5 c -1.6,0 -2.2,-0.5 -4.4,-0.5 -2.2,0 -7.4,3 -10.4,1.9 6.3,2.5 3.8,0.8 14.8,0.8 l 1.4,0 m -17.3,1.6 c 1.1,-1.9 0.8,-1.4 3,-4.4 -2.2,1.7 -2.8,2.5 -3,4.4 m 15.9,2.8 c -6.9,0 -5.8,-1.4 -14.8,-5.2 6.6,0.8 8,3 14.8,3 l 1.4,0 m -1.4,-8 c -1.9,0 -2.5,-1.4 -4.7,-1.4 -2.2,0 -5.2,0.8 -6.6,1.9 -0.3,0.3 0.8,-2.2 3,-2.5 2.2,-0.3 1.4,-3.8 3.8,-4.4 0,1.1 -0.8,0.8 -1.1,2.5 0,1.4 2.5,1.4 3,0 -0.5,2.2 1.1,2.2 2.5,2.2"
       id="path111"
       inkscape:connector-curvature="0" /><path
       d="m 128.2,511.6 c -1.4,0 -4.9,0.8 0,0.8 4.9,0.1 1.4,-0.8 0,-0.8"
       id="path113"
       inkscape:connector-curvature="0" /></g></svg>