<?xml version="1.0" encoding="UTF-8" standalone="no"?>
<!-- Generator: Adobe Illustrator 18.0.0, SVG Export Plug-In . SVG Version: 6.00 Build 0)  -->
<!DOCTYPE svg  PUBLIC '-//W3C//DTD SVG 1.1//EN'  'http://www.w3.org/Graphics/SVG/1.1/DTD/svg11.dtd'>
<svg style="enable-background:new 0 0 144 80" xmlns="http://www.w3.org/2000/svg" xml:space="preserve" version="1.1" y="0px" x="0px" xmlns:xlink="http://www.w3.org/1999/xlink" viewBox="0 0 144 80">
<g id="AUS">
		<polygon points="144 80 144 0 0 0 0 80" fill="#00008B"/>
			<path d="m77.329 38.656" fill="#003876"/>
			<path stroke-width=".1343" d="m77.329 38.656" stroke="#000" fill="none"/>
			<polygon points="0 12.882 16.31 12.882 0 4.698 0 0 9.332 0 32.147 11.373 32.147 0 44.996 0 44.996 11.373 67.812 0 77.225 0 77.225 4.698 60.834 12.882 77.225 12.882 77.225 25.774 60.834 25.774 77.225 33.958 77.225 38.658 67.812 38.658 44.996 27.284 44.996 38.658 32.147 38.658 32.147 27.284 9.332 38.658 0 38.658 0 33.958 16.31 25.774 0 25.774" fill="#fff"/>
			<polygon points="71.154 0 45.378 12.892 51.549 12.892 77.225 0" fill="#f00"/>
			<polygon points="77.225 38.658 51.521 25.774 57.719 25.774 77.225 35.587" fill="#f00"/>
			<polygon points="25.825 12.892 0 0 0 3.078 19.601 12.892" fill="#f00"/>
			<polygon points="25.772 25.774 0 38.658 6.167 38.658 31.943 25.774" fill="#f00"/>
			<polygon points="0 15.557 34.885 15.557 34.885 0 42.435 0 42.435 15.557 77.225 15.557 77.225 23.107 42.435 23.107 42.435 38.658 34.885 38.658 34.885 23.107 0 23.107" fill="#f00"/>
		<g fill="#fff">
			<polygon points="37.552 54.851 44.387 52.258 40.37 58.313 46.586 62.015 39.358 62.654 40.36 69.85 35.312 64.575 30.295 69.85 31.266 62.654 24.069 62.015 30.254 58.313 26.268 52.258 33.072 54.851 35.312 47.922"/>
			<polygon points="113.68 12.169 116.92 10.939 115.02 13.811 117.97 15.564 114.54 15.868 115.02 19.28 112.62 16.778 110.24 19.28 110.7 15.868 107.29 15.564 110.22 13.811 108.33 10.939 111.56 12.169 112.62 8.883"/>
			<polygon points="113.68 63.721 116.92 62.491 115.02 65.362 117.97 67.116 114.54 67.42 115.02 70.832 112.62 68.331 110.24 70.832 110.7 67.42 107.29 67.116 110.22 65.362 108.33 62.491 111.56 63.721 112.62 60.436"/>
			<polygon points="130.87 27.942 134.11 26.713 132.2 29.584 135.15 31.339 131.72 31.644 132.2 35.055 129.81 32.553 127.43 35.055 127.89 31.644 124.48 31.339 127.41 29.584 125.52 26.713 128.74 27.942 129.81 24.657"/>
			<polygon points="94.353 33.111 97.593 31.882 95.688 34.754 98.635 36.508 95.209 36.812 95.684 40.223 93.29 37.722 90.911 40.223 91.372 36.812 87.959 36.508 90.892 34.754 89.002 31.882 92.229 33.111 93.29 29.826"/>
			<polygon points="120.35 40.023 119.61 42.355 117.14 42.361 119.15 43.807 118.39 46.136 120.36 44.684 122.35 46.125 121.59 43.78 123.57 42.354 121.12 42.361"/>
		</g>
</g>
</svg>
