<?xml version="1.0" encoding="UTF-8" standalone="no"?>
<!-- Generator: Adobe Illustrator 18.0.0, SVG Export Plug-In . SVG Version: 6.00 Build 0)  -->
<!DOCTYPE svg  PUBLIC '-//W3C//DTD SVG 1.1//EN'  'http://www.w3.org/Graphics/SVG/1.1/DTD/svg11.dtd'>
<svg style="enable-background:new 0 0 144 80" xmlns="http://www.w3.org/2000/svg" xml:space="preserve" version="1.1" y="0px" x="0px" xmlns:xlink="http://www.w3.org/1999/xlink" viewBox="0 0 144 80">
<g id="BHU">
			<polygon points="144 80 144 0 0 0 0 80" fill="#FDBE4F"/>
			<polygon points="0 80 144 80 144 0" fill="#EC1C2E"/>
			<path d="m70.813 38.869" fill="#FDBE4F"/>
			<path stroke-width=".1501" d="m70.813 38.869" stroke="#000" fill="none"/>
			<path d="m75.39 22.666c-0.721-0.254-1.186 0.117-1.16 1.045 0.023 0.928 0.51 1.461 1.229 1.113l-0.069-2.158z" fill="#fff"/>
			<path stroke-width=".0751" d="m75.39 22.666c-0.721-0.254-1.186 0.117-1.16 1.045 0.023 0.928 0.51 1.461 1.229 1.113l-0.069-2.158z" stroke="#000" fill="none"/>
			<path d="m76.021 20.93c-0.6-0.473-1.158-0.272-1.434 0.615-0.275 0.887 0.014 1.549 0.807 1.449l0.627-2.064z" fill="#fff"/>
			<path stroke-width=".0751" d="m76.021 20.93c-0.6-0.473-1.158-0.272-1.434 0.615-0.275 0.887 0.014 1.549 0.807 1.449l0.627-2.064z" stroke="#000" fill="none"/>
			<path d="m77.017 19.246c-0.516-0.562-1.1-0.453-1.516 0.379-0.414 0.832-0.232 1.529 0.566 1.561l0.95-1.94z" fill="#fff"/>
			<path stroke-width=".0751" d="m77.017 19.246c-0.516-0.562-1.1-0.453-1.516 0.379-0.414 0.832-0.232 1.529 0.566 1.561l0.95-1.94z" stroke="#000" fill="none"/>
			<path d="m76.364 27.424c-0.883 0.324-0.975 1.531-0.418 2.274 0.557 0.742 1.578 0.881 2.135 0l-1.717-2.274z" fill="#fff"/>
			<path stroke-width=".0751" d="m76.364 27.424c-0.883 0.324-0.975 1.531-0.418 2.274 0.557 0.742 1.578 0.881 2.135 0l-1.717-2.274z" stroke="#000" fill="none"/>
			<path d="m75.343 24.871c-0.836-0.277-1.588 0.844-1.717 1.857-0.164 1.275-1.973 1.691-0.975 3.619 0.209-1.23 1.021-1.902 1.67-1.949 0.65-0.047 1.625-0.186 2.043-0.975l-1.021-2.552z" fill="#fff"/>
			<path stroke-width=".0751" d="m75.343 24.871c-0.836-0.277-1.588 0.844-1.717 1.857-0.164 1.275-1.973 1.691-0.975 3.619 0.209-1.23 1.021-1.902 1.67-1.949 0.65-0.047 1.625-0.186 2.043-0.975l-1.021-2.552z" stroke="#000" fill="none"/>
			<path d="m77.987 29.836c-0.975 0.232-1.113 1.531-0.418 2.459 0.596 0.795 2.459 0.604 2.414-0.184l-1.996-2.275z" fill="#fff"/>
			<path stroke-width=".0751" d="m77.987 29.836c-0.975 0.232-1.113 1.531-0.418 2.459 0.596 0.795 2.459 0.604 2.414-0.184l-1.996-2.275z" stroke="#000" fill="none"/>
			<path d="m80.749 37.656c0.045-0.836-1.301-1.16-1.949-0.998-0.65 0.162-1.891-0.023-2.182-0.719-0.23 0.557 0.105 1.16 1.045 1.461 0.711 0.229 0.695 0.742 0.486 0.975 0.534 0.092 2.112 0.092 2.6-0.719z" fill="#fff"/>
			<path stroke-width=".0751" d="m80.749 37.656c0.045-0.836-1.301-1.16-1.949-0.998-0.65 0.162-1.891-0.023-2.182-0.719-0.23 0.557 0.105 1.16 1.045 1.461 0.711 0.229 0.695 0.742 0.486 0.975 0.534 0.092 2.112 0.092 2.6-0.719z" stroke="#000" fill="none"/>
			<path d="m79.983 32.318c-0.951-0.416-1.516 0.219-1.881 0.836-0.533 0.904-2.18-0.256-2.736 0.951 0.752-0.324 1.521 0.369 1.879 0.604 1.021 0.674 2.994 0.465 3.271-1.113l-0.533-1.278z" fill="#fff"/>
			<path stroke-width=".0751" d="m79.983 32.318c-0.951-0.416-1.516 0.219-1.881 0.836-0.533 0.904-2.18-0.256-2.736 0.951 0.752-0.324 1.521 0.369 1.879 0.604 1.021 0.674 2.994 0.465 3.271-1.113l-0.533-1.278z" stroke="#000" fill="none"/>
			<path d="m80.54 33.434c-0.951 0.719-1.322 1.578-1.299 2.158 0.021 0.58 0.836 1.855 1.717 1.924 0.51-1.043 0.766-3.248-0.418-4.082z" fill="#fff"/>
			<path stroke-width=".0751" d="m80.54 33.434c-0.951 0.719-1.322 1.578-1.299 2.158 0.021 0.58 0.836 1.855 1.717 1.924 0.51-1.043 0.766-3.248-0.418-4.082z" stroke="#000" fill="none"/>
			<path d="m76.595 37.91c0-0.346 0.512-0.486 0.859-0.371 0.348 0.117 0.883 0.465 0.695 0.836l-1.554-0.465z" fill="#fff"/>
			<path stroke-width=".0751" d="m76.595 37.91c0-0.346 0.512-0.486 0.859-0.371 0.348 0.117 0.883 0.465 0.695 0.836l-1.554-0.465z" stroke="#000" fill="none"/>
			<path d="m71.353 36.008c-0.094-0.416 0.578-1.137 1.484-0.742 0.904 0.395 1.021 1.16 0.65 1.461l-2.134-0.719z" fill="#fff"/>
			<path stroke-width=".0751" d="m71.353 36.008c-0.094-0.416 0.578-1.137 1.484-0.742 0.904 0.395 1.021 1.16 0.65 1.461l-2.134-0.719z" stroke="#000" fill="none"/>
			<path d="m73.556 36.775c-0.068-0.232 0.582-0.697 1.693-0.418 1.115 0.277 1.389 0.994 1.346 1.553l-3.039-1.135z" fill="#fff"/>
			<path stroke-width=".0751" d="m73.556 36.775c-0.068-0.232 0.582-0.697 1.693-0.418 1.115 0.277 1.389 0.994 1.346 1.553l-3.039-1.135z" stroke="#000" fill="none"/>
			<path d="m71.235 36.008c0.58-0.441 0.361-1.275-0.162-1.531-0.951-0.463-0.603-1.67-1.205-1.902-0.605-0.23-1.186-0.648-1.207-1.066-0.303 0.578-0.117 1.113 0.301 1.484s-0.324 1.879 0.209 2.273l2.064 0.742z" fill="#fff"/>
			<path stroke-width=".0751" d="m71.235 36.008c0.58-0.441 0.361-1.275-0.162-1.531-0.951-0.463-0.603-1.67-1.205-1.902-0.605-0.23-1.186-0.648-1.207-1.066-0.303 0.578-0.117 1.113 0.301 1.484s-0.324 1.879 0.209 2.273l2.064 0.742z" stroke="#000" fill="none"/>
			<path d="m58.8 35.684c-0.488-0.766-1.649-0.627-2.135-0.092-0.488 0.533-0.418 1.322 0.047 1.668l2.088-1.576z" fill="#fff"/>
			<path stroke-width=".0751" d="m58.8 35.684c-0.488-0.766-1.649-0.627-2.135-0.092-0.488 0.533-0.418 1.322 0.047 1.668l2.088-1.576z" stroke="#000" fill="none"/>
			<path d="m61.583 34.547c-0.186-1.022-1.414-1.137-2.088-0.883-0.672 0.256-1.137 1.277-0.695 2.02l2.783-1.137z" fill="#fff"/>
			<path stroke-width=".0751" d="m61.583 34.547c-0.186-1.022-1.414-1.137-2.088-0.883-0.672 0.256-1.137 1.277-0.695 2.02l2.783-1.137z" stroke="#000" fill="none"/>
			<path d="m63.44 34.406c0.44-0.857-0.418-2.133-1.393-2.32-0.814-0.154-1.775-0.148-2.088-0.951-0.199 0.697 0.324 1.139 0.928 1.531 0.604 0.396-0.117 1.416 0.859 1.996l1.694-0.256z" fill="#fff"/>
			<path stroke-width=".0751" d="m63.44 34.406c0.44-0.857-0.418-2.133-1.393-2.32-0.814-0.154-1.775-0.148-2.088-0.951-0.199 0.697 0.324 1.139 0.928 1.531 0.604 0.396-0.117 1.416 0.859 1.996l1.694-0.256z" stroke="#000" fill="none"/>
			<path d="m63.347 34.436c-0.203-0.613 0.209-1.432 1.043-1.375s1.309 0.664 0.941 1.422l-1.984-0.047z" fill="#fff"/>
			<path stroke-width=".0751" d="m63.347 34.436c-0.203-0.613 0.209-1.432 1.043-1.375s1.309 0.664 0.941 1.422l-1.984-0.047z" stroke="#000" fill="none"/>
			<path d="m65.202 34.484c-0.113-0.639 0.408-1.391 1.227-1.217 0.816 0.174 1.201 0.84 0.732 1.539l-1.959-0.322z" fill="#fff"/>
			<path stroke-width=".0751" d="m65.202 34.484c-0.113-0.639 0.408-1.391 1.227-1.217 0.816 0.174 1.201 0.84 0.732 1.539l-1.959-0.322z" stroke="#000" fill="none"/>
			<path d="m67.046 34.775c-0.084-0.641 0.477-1.367 1.285-1.152 0.807 0.213 1.158 0.898 0.654 1.574l-1.939-0.422z" fill="#fff"/>
			<path stroke-width=".0751" d="m67.046 34.775c-0.084-0.641 0.477-1.367 1.285-1.152 0.807 0.213 1.158 0.898 0.654 1.574l-1.939-0.422z" stroke="#000" fill="none"/>
			<path d="m53.044 45.406c-1.553 0-1.934 0.369-2.156 1.971-0.28 1.996 2.435 2.228 2.156-1.971z" fill="#fff"/>
			<path stroke-width=".0751" d="m53.044 45.406c-1.553 0-1.934 0.369-2.156 1.971-0.28 1.996 2.435 2.228 2.156-1.971z" stroke="#000" fill="none"/>
			<path d="m53.741 43.316c-2.391-0.904-3.689 2.879-6.057 2.205 0.848 1.346 2.9 0.002 3.666 0.139 1.301 0.233 4.108-0.254 2.391-2.344z" fill="#fff"/>
			<path stroke-width=".0751" d="m53.741 43.316c-2.391-0.904-3.689 2.879-6.057 2.205 0.848 1.346 2.9 0.002 3.666 0.139 1.301 0.233 4.108-0.254 2.391-2.344z" stroke="#000" fill="none"/>
			<path d="m52.187 48.49c-1.184-0.533-2.459 1.277-2.227 2.067 0.295 1.002 2.992 0.185 2.227-2.067z" fill="#fff"/>
			<path stroke-width=".0751" d="m52.187 48.49c-1.184-0.533-2.459 1.277-2.227 2.067 0.295 1.002 2.992 0.185 2.227-2.067z" stroke="#000" fill="none"/>
			<path d="m46.665 56.287c0.648 0.186 1.438 0.557 1.299 1.811-0.139 1.252-2.506 3.805-4.641 3.943-2.135 0.141-2.9 2.715-4.732 1.996 1.715-0.324 1.715-2.273 3.062-2.879-0.975-0.346-1.484 1.857-2.738 1.857s-1.855 1.996-3.387 1.856c-1.533-0.139-1.693 2.43-4.758 2.461-2.344 0.023-5.242 2.76-6.287 1.578 2.273-0.326 3.191-1.586 4.547-2.971 2.182-2.227 4.641-1.23 5.477-3.201-0.998 0.672-2.158 0.998-3.295 0.975-1.428-0.029-2.992 2.273-4.596 1.252 0.93-0.115 1.533-0.51 2.508-1.531 0.998-1.045 2.461-0.371 3.619-1.439 1.811-1.67 3.365-0.277 5.105-2.367-0.488-0.23-1.531-0.068-2.508 0.441-0.973 0.51-2.227-0.348-3.34 0.256 0.139-1.369 2.738-0.586 4.361-1.531 1.832-1.068 3.354-0.754 4.803-0.627-2.02-0.01-2.809-1.926-5.592-1.369-1.215 0.244-2.18-1.67-3.387-0.695 0.035-0.719 1.299-1.299 2.598-0.604s1.822-0.609 4.408 1.021c1.068 0.672 2.9-0.418 4.06 0.301-0.15-0.441-0.81-0.719-1.588-0.66 0.488-0.999 3.633-0.872 5.002 0.126z" fill="#fff"/>
			<path stroke-width=".0751" d="m46.665 56.287c0.648 0.186 1.438 0.557 1.299 1.811-0.139 1.252-2.506 3.805-4.641 3.943-2.135 0.141-2.9 2.715-4.732 1.996 1.715-0.324 1.715-2.273 3.062-2.879-0.975-0.346-1.484 1.857-2.738 1.857s-1.855 1.996-3.387 1.856c-1.533-0.139-1.693 2.43-4.758 2.461-2.344 0.023-5.242 2.76-6.287 1.578 2.273-0.326 3.191-1.586 4.547-2.971 2.182-2.227 4.641-1.23 5.477-3.201-0.998 0.672-2.158 0.998-3.295 0.975-1.428-0.029-2.992 2.273-4.596 1.252 0.93-0.115 1.533-0.51 2.508-1.531 0.998-1.045 2.461-0.371 3.619-1.439 1.811-1.67 3.365-0.277 5.105-2.367-0.488-0.23-1.531-0.068-2.508 0.441-0.973 0.51-2.227-0.348-3.34 0.256 0.139-1.369 2.738-0.586 4.361-1.531 1.832-1.068 3.354-0.754 4.803-0.627-2.02-0.01-2.809-1.926-5.592-1.369-1.215 0.244-2.18-1.67-3.387-0.695 0.035-0.719 1.299-1.299 2.598-0.604s1.822-0.609 4.408 1.021c1.068 0.672 2.9-0.418 4.06 0.301-0.15-0.441-0.81-0.719-1.588-0.66 0.488-0.999 3.633-0.872 5.002 0.126z" stroke="#000" fill="none"/>
			<path d="m48.729 54.779c-1.021-0.789-2.436 0.162-3.41-0.209 0 0.648 0.324 1.623 1.391 1.996 0.326-0.232 1.787-1.509 2.019-1.787z" fill="#fff"/>
			<path stroke-width=".0751" d="m48.729 54.779c-1.021-0.789-2.436 0.162-3.41-0.209 0 0.648 0.324 1.623 1.391 1.996 0.326-0.232 1.787-1.509 2.019-1.787z" stroke="#000" fill="none"/>
			<path d="m50.331 52.527c-1.602-0.811-1.881 1.207-3.133 0.789 0.047 0.58 0.51 1.301 1.531 1.463l1.602-2.252z" fill="#fff"/>
			<path stroke-width=".0751" d="m50.331 52.527c-1.602-0.811-1.881 1.207-3.133 0.789 0.047 0.58 0.51 1.301 1.531 1.463l1.602-2.252z" stroke="#000" fill="none"/>
			<path d="m51.282 50.695c-2.367-0.928-2.67 1.346-4.061 0.906 0.324 0.787 2.32 1.205 3.34 0.926l0.721-1.832z" fill="#fff"/>
			<path stroke-width=".0751" d="m51.282 50.695c-2.367-0.928-2.67 1.346-4.061 0.906 0.324 0.787 2.32 1.205 3.34 0.926l0.721-1.832z" stroke="#000" fill="none"/>
			<path d="m54.53 40.742c-0.627-0.883-1.949-0.162-2.158 0.881-0.209 1.045 0.301 2.506 1.184 2.182l0.974-3.063z" fill="#fff"/>
			<path stroke-width=".0751" d="m54.53 40.742c-0.627-0.883-1.949-0.162-2.158 0.881-0.209 1.045 0.301 2.506 1.184 2.182l0.974-3.063z" stroke="#000" fill="none"/>
			<path d="m56.132 37.957c-1.092-0.254-2.344-0.139-2.205 0.928-0.418 0.186-0.533 1.555 0.604 1.857l1.601-2.785z" fill="#fff"/>
			<path stroke-width=".0751" d="m56.132 37.957c-1.092-0.254-2.344-0.139-2.205 0.928-0.418 0.186-0.533 1.555 0.604 1.857l1.601-2.785z" stroke="#000" fill="none"/>
			<path d="m56.851 37.238c-1.068-1.254-2.258-1.225-2.924-0.695-1.229 0.973-2.424 0.416-2.459 1.391 0.742-0.568 1.391 0.117 1.994-0.092s1.045 0.951 2.715 0.463l0.674-1.067z" fill="#fff"/>
			<path stroke-width=".0751" d="m56.851 37.238c-1.068-1.254-2.258-1.225-2.924-0.695-1.229 0.973-2.424 0.416-2.459 1.391 0.742-0.568 1.391 0.117 1.994-0.092s1.045 0.951 2.715 0.463l0.674-1.067z" stroke="#000" fill="none"/>
			<path d="m54.274 55.963c0.162 0.301 1.16 0.44 1.648-0.07 0.645-0.676-0.07-2.553-1.092-2.691-1.018-0.14-1.112 2.11-0.556 2.761z" fill="#fff"/>
			<path stroke-width=".0751" d="m54.274 55.963c0.162 0.301 1.16 0.44 1.648-0.07 0.645-0.676-0.07-2.553-1.092-2.691-1.018-0.14-1.112 2.11-0.556 2.761z" stroke="#000" fill="none"/>
			<path d="m53.114 56.008c1.461 0.535 2.088-0.672 1.299-1.438-0.209 0.256-0.973 1.184-1.299 1.438z" fill="#fff"/>
			<path stroke-width=".0751" d="m53.114 56.008c1.461 0.535 2.088-0.672 1.299-1.438-0.209 0.256-0.973 1.184-1.299 1.438z" stroke="#000" fill="none"/>
			<path d="m47.64 58.004c-0.279 0.836-1.717 0.975-3.342 3.572-1.625 2.6-3.178 1.51-3.574 3.295 1.949-1.576 3.481-0.529 4.641-2.086 1.764-2.369 3.217-2.029 3.898-3.621 0.975-2.274 5.244-2.227 5.477-5.801-1.44-0.277-5.987 3.575-7.1 4.641z" fill="#fff"/>
			<path stroke-width=".0751" d="m47.64 58.004c-0.279 0.836-1.717 0.975-3.342 3.572-1.625 2.6-3.178 1.51-3.574 3.295 1.949-1.576 3.481-0.529 4.641-2.086 1.764-2.369 3.217-2.029 3.898-3.621 0.975-2.274 5.244-2.227 5.477-5.801-1.44-0.277-5.987 3.575-7.1 4.641z" stroke="#000" fill="none"/>
			<path d="m84.253 22.922c1.855 0.604 1.902 3.016 4.037 3.807 2.133 0.787 2.342 2.689 4.084 2.227-1.625-0.441-1.51-2.32-3.203-2.783-1.986-0.545-2.738-3.574-4.314-4.039" fill="#fff"/>
			<path stroke-width=".0751" d="m84.253 22.922c1.855 0.604 1.902 3.016 4.037 3.807 2.133 0.787 2.342 2.689 4.084 2.227-1.625-0.441-1.51-2.32-3.203-2.783-1.986-0.545-2.738-3.574-4.314-4.039" stroke="#000" fill="none"/>
			<path d="m92.769 35.521c0.324 0.742 0.277 2.064-0.883 2.412 0.627 0.394 1.555 0.023 2.065-0.834-0.766 1.693-0.254 3.225 0.951 3.525-0.58-1.182 0.721-1.74 0.303-2.506 0.766 0.326 1.438 1.369 1.414 2.019 1-1.113-0.742-2.6-0.416-3.643l-3.434-0.973z" fill="#fff"/>
			<path stroke-width=".0751" d="m92.769 35.521c0.324 0.742 0.277 2.064-0.883 2.412 0.627 0.394 1.555 0.023 2.065-0.834-0.766 1.693-0.254 3.225 0.951 3.525-0.58-1.182 0.721-1.74 0.303-2.506 0.766 0.326 1.438 1.369 1.414 2.019 1-1.113-0.742-2.6-0.416-3.643l-3.434-0.973z" stroke="#000" fill="none"/>
			<path d="m80.749 47.447c-1.137-0.998-1.623 0.26-2.182-0.174-0.521-0.406-1.219-0.465-1.484-0.059 0.975 0.035 0.498 0.789 2.389 0.975-1.891 0.129-1.543 2.238-2.807 2.135 1.346 1.277 2.043-1.137 3.133-0.742-0.326 0.092 0.51 0.859-0.07 1.879 0.939-0.023 1.322-1.322 1.439-1.996l-0.418-2.018z" fill="#fff"/>
			<path stroke-width=".0751" d="m80.749 47.447c-1.137-0.998-1.623 0.26-2.182-0.174-0.521-0.406-1.219-0.465-1.484-0.059 0.975 0.035 0.498 0.789 2.389 0.975-1.891 0.129-1.543 2.238-2.807 2.135 1.346 1.277 2.043-1.137 3.133-0.742-0.326 0.092 0.51 0.859-0.07 1.879 0.939-0.023 1.322-1.322 1.439-1.996l-0.418-2.018z" stroke="#000" fill="none"/>
			<path d="m55.714 58.283c-0.418-0.348-1.625-0.512-2.09-0.232-0.463 0.277-0.301 0.348 0.256 0.395s1.275 0.947 0.07 0.998c-0.557 0.021-0.371 1.369-1.531 1.461 0.475 0.58 1.832 0.197 2.32-0.441-0.094 0.522 0.604 0.998 0.324 1.625 0.859 0.094 0.359-1.74 1.717-1.646-0.557 0.068-0.324 1.322 0.65 0.996-0.58 0.279-0.279 0.951 0.371 0.789-0.418 0.141-0.557 0.674 0.023 0.975 0.558-0.767-0.069-3.506-2.11-4.92z" fill="#fff"/>
			<path stroke-width=".0751" d="m55.714 58.283c-0.418-0.348-1.625-0.512-2.09-0.232-0.463 0.277-0.301 0.348 0.256 0.395s1.275 0.947 0.07 0.998c-0.557 0.021-0.371 1.369-1.531 1.461 0.475 0.58 1.832 0.197 2.32-0.441-0.094 0.522 0.604 0.998 0.324 1.625 0.859 0.094 0.359-1.74 1.717-1.646-0.557 0.068-0.324 1.322 0.65 0.996-0.58 0.279-0.279 0.951 0.371 0.789-0.418 0.141-0.557 0.674 0.023 0.975 0.558-0.767-0.069-3.506-2.11-4.92z" stroke="#000" fill="none"/>
			<path d="m106.25 32.682c1.773 0 3.215-1.44 3.215-3.217 0-1.775-1.441-3.217-3.215-3.217-1.777 0-3.217 1.441-3.217 3.217 0.01 1.777 1.45 3.217 3.23 3.217z" fill="#fff"/>
			<path stroke-width=".0751" d="m106.25 32.682c1.773 0 3.215-1.44 3.215-3.217 0-1.775-1.441-3.217-3.215-3.217-1.777 0-3.217 1.441-3.217 3.217 0.01 1.777 1.45 3.217 3.23 3.217z" stroke="#000" fill="none"/>
			<path d="m106.25 29.465" fill="#fff"/>
			<path stroke-width=".0751" d="m106.25 29.465" stroke="#000" fill="none"/>
			<path d="m89.45 36.564c0.973-0.928 2.459-1.391 3.48-0.695 1.02 0.695 4.408 1.531 6.078 0.371s2.459-1.764 3.201-1.625c0.557 0.836 1.23 1.23 2.066 1.301 0.254 0.277 1.16 0.51 1.67 0.441 0.742 0.186 1.646-0.049 2.367-0.836 1.113 0.162 2.158-0.674 2.553-1.926 1.182-0.141 1.252-1.463 0.51-2.344-0.697-0.139-0.162-2.483-2.691-2.02 1.066 0.65 0.256 1.949 1.137 2.553-0.604 0-1.381 0.256-1.566 1.16 0.232-0.627-0.035-1.043-0.197-1.184 0.023-0.533-1.16-1.844-2.273-1.369 0.801 0.176 0.348 1.463 0.928 1.951-0.418 0.021-0.859 0.23-1.113 0.602-0.303-0.533-1.369-1.09-2.02-1.137 0-0.185-0.035-0.557-0.115-0.742-0.291-0.557-0.533-1.219-0.418-2.066-0.557 0.604-1.021 1.44-1.299 2.043-0.881-0.603-3.062 0.279-4.084 0.51-1.021 0.233-4.455-0.324-5.244-1.16-0.789-0.834-2.32-1.346-3.758-1.762-1.979-0.576-1.996-2.738-4.178-4.225-0.058 2.693 4.025 11.232 4.954 12.159z" fill="#fff"/>
			<path stroke-width=".0751" d="m89.45 36.564c0.973-0.928 2.459-1.391 3.48-0.695 1.02 0.695 4.408 1.531 6.078 0.371s2.459-1.764 3.201-1.625c0.557 0.836 1.23 1.23 2.066 1.301 0.254 0.277 1.16 0.51 1.67 0.441 0.742 0.186 1.646-0.049 2.367-0.836 1.113 0.162 2.158-0.674 2.553-1.926 1.182-0.141 1.252-1.463 0.51-2.344-0.697-0.139-0.162-2.483-2.691-2.02 1.066 0.65 0.256 1.949 1.137 2.553-0.604 0-1.381 0.256-1.566 1.16 0.232-0.627-0.035-1.043-0.197-1.184 0.023-0.533-1.16-1.844-2.273-1.369 0.801 0.176 0.348 1.463 0.928 1.951-0.418 0.021-0.859 0.23-1.113 0.602-0.303-0.533-1.369-1.09-2.02-1.137 0-0.185-0.035-0.557-0.115-0.742-0.291-0.557-0.533-1.219-0.418-2.066-0.557 0.604-1.021 1.44-1.299 2.043-0.881-0.603-3.062 0.279-4.084 0.51-1.021 0.233-4.455-0.324-5.244-1.16-0.789-0.834-2.32-1.346-3.758-1.762-1.979-0.576-1.996-2.738-4.178-4.225-0.058 2.693 4.025 11.232 4.954 12.159z" stroke="#000" fill="none"/>
			<path d="m66.712 57.076c1.717 0 3.107-1.393 3.107-3.109s-1.391-3.109-3.107-3.109c-1.719 0-3.109 1.393-3.109 3.109s1.39 3.109 3.109 3.109z" fill="#fff"/>
			<path stroke-width=".0751" d="m66.712 57.076c1.717 0 3.107-1.393 3.107-3.109s-1.391-3.109-3.107-3.109c-1.719 0-3.109 1.393-3.109 3.109s1.39 3.109 3.109 3.109z" stroke="#000" fill="none"/>
			<path d="m66.712 53.967" fill="#fff"/>
			<path stroke-width=".0751" d="m66.712 53.967" stroke="#000" fill="none"/>
			<path d="m59.286 54.686c0.627 0.812 1.693 0.766 2.135 0.697 0.371 0.975 1.555 0.951 2.066 1.484 0.51 0.533 2.25 0.486 2.76 0.186-0.465-0.045-1.066-0.324-1.646-0.812-0.701-0.588-0.371-1.764-0.93-2.182 0.418-0.463 0.488-1.229 0.396-1.531 0.439-0.254 0.764-0.672 0.811-0.881 0.766-0.045 1.439-0.441 1.717-0.742 0.394 0.371 1.393-0.117 1.926 0.51 0.117-1.531-1.346-2.344-2.32-1.832-0.393-0.209-1.438-0.07-1.625 0.209-0.324-0.139-1.229 0.324-1.647 0.627 0.465-0.256 0.533-1.021 0.35-1.301 0.393-0.162 0.834-0.695 0.881-1.09 0.557 0.092 1.392-0.279 1.764-0.186-0.604-0.789-1.602-1.068-2.623-0.998-1.055 0.059-1.508 0.801-1.646 1.602-0.627 0.371-0.836 1.623-0.604 2.064-0.359-0.012-0.697 0.336-0.836 0.533-0.486-0.209-1.182-0.359-1.682-0.359" fill="#fff"/>
			<path stroke-width=".0751" d="m59.286 54.686c0.627 0.812 1.693 0.766 2.135 0.697 0.371 0.975 1.555 0.951 2.066 1.484 0.51 0.533 2.25 0.486 2.76 0.186-0.465-0.045-1.066-0.324-1.646-0.812-0.701-0.588-0.371-1.764-0.93-2.182 0.418-0.463 0.488-1.229 0.396-1.531 0.439-0.254 0.764-0.672 0.811-0.881 0.766-0.045 1.439-0.441 1.717-0.742 0.394 0.371 1.393-0.117 1.926 0.51 0.117-1.531-1.346-2.344-2.32-1.832-0.393-0.209-1.438-0.07-1.625 0.209-0.324-0.139-1.229 0.324-1.647 0.627 0.465-0.256 0.533-1.021 0.35-1.301 0.393-0.162 0.834-0.695 0.881-1.09 0.557 0.092 1.392-0.279 1.764-0.186-0.604-0.789-1.602-1.068-2.623-0.998-1.055 0.059-1.508 0.801-1.646 1.602-0.627 0.371-0.836 1.623-0.604 2.064-0.359-0.012-0.697 0.336-0.836 0.533-0.486-0.209-1.182-0.359-1.682-0.359" stroke="#000" fill="none"/>
			<path d="m58.753 49.42c-0.209-0.604 0.066-1.146 0.209-1.625 0.359-1.217 0.139-1.531-0.951-1.369-0.094 0.58 0.463 2.482 0.742 2.994z" fill="#fff"/>
			<path stroke-width=".0751" d="m58.753 49.42c-0.209-0.604 0.066-1.146 0.209-1.625 0.359-1.217 0.139-1.531-0.951-1.369-0.094 0.58 0.463 2.482 0.742 2.994z" stroke="#000" fill="none"/>
			<path d="m57.952 46.496c0.279 0.277 1.266 0.406 1.369-0.477 0.119-1.012-0.289-1.402-1.172-1.008-0.068 0.233-0.15 1.184-0.197 1.485z" fill="#fff"/>
			<path stroke-width=".0751" d="m57.952 46.496c0.279 0.277 1.266 0.406 1.369-0.477 0.119-1.012-0.289-1.402-1.172-1.008-0.068 0.233-0.15 1.184-0.197 1.485z" stroke="#000" fill="none"/>
			<path d="m58.161 44.977c0.371 0.15 1.172 0.451 1.613-0.406 0.369-0.721-0.117-1.275-0.883-1.229-0.185 0.207-0.556 0.951-0.73 1.635z" fill="#fff"/>
			<path stroke-width=".0751" d="m58.161 44.977c0.371 0.15 1.172 0.451 1.613-0.406 0.369-0.721-0.117-1.275-0.883-1.229-0.185 0.207-0.556 0.951-0.73 1.635z" stroke="#000" fill="none"/>
			<path d="m58.845 43.27c0.094 0.279 1.045 1.207 1.742 0.535 0.695-0.674 0.695-1.672-0.35-2.041-0.277 0.045-1.113 1.019-1.392 1.506z" fill="#fff"/>
			<path stroke-width=".0751" d="m58.845 43.27c0.094 0.279 1.045 1.207 1.742 0.535 0.695-0.674 0.695-1.672-0.35-2.041-0.277 0.045-1.113 1.019-1.392 1.506z" stroke="#000" fill="none"/>
			<path d="m60.237 41.764c0.209 0.578 0.859 1.578 2.064 1.111 1.207-0.463 0.697-1.971 0.141-2.273-0.326 0.023-1.648 0.627-2.205 1.162z" fill="#fff"/>
			<path stroke-width=".0751" d="m60.237 41.764c0.209 0.578 0.859 1.578 2.064 1.111 1.207-0.463 0.697-1.971 0.141-2.273-0.326 0.023-1.648 0.627-2.205 1.162z" stroke="#000" fill="none"/>
			<path d="m62.442 40.602c-0.094 0.512 0 1.902 1.646 1.881 1.648-0.023 1.184-1.949 0.766-2.229-0.671 0-1.808 0.023-2.412 0.348z" fill="#fff"/>
			<path stroke-width=".0751" d="m62.442 40.602c-0.094 0.512 0 1.902 1.646 1.881 1.648-0.023 1.184-1.949 0.766-2.229-0.671 0-1.808 0.023-2.412 0.348z" stroke="#000" fill="none"/>
			<path d="m64.925 40.324c-0.186 0.395-0.604 2.99 2.621 2.273 0.42-0.093 1.508-2.482-2.621-2.273z" fill="#fff"/>
			<path stroke-width=".0751" d="m64.925 40.324c-0.186 0.395-0.604 2.99 2.621 2.273 0.42-0.093 1.508-2.482-2.621-2.273z" stroke="#000" fill="none"/>
			<path d="m66.688 40.557c-0.326 0.324 0.51 2.947 2.691 2.506 2.181-0.442 0.349-2.924-2.691-2.506z" fill="#fff"/>
			<path stroke-width=".0751" d="m66.688 40.557c-0.326 0.324 0.51 2.947 2.691 2.506 2.181-0.442 0.349-2.924-2.691-2.506z" stroke="#000" fill="none"/>
			<path d="m68.544 40.949c-0.348 0.721 0.174 2.855 2.867 2.855 2.438 0.001-0.129-2.808-2.867-2.855z" fill="#fff"/>
			<path stroke-width=".0751" d="m68.544 40.949c-0.348 0.721 0.174 2.855 2.867 2.855 2.438 0.001-0.129-2.808-2.867-2.855z" stroke="#000" fill="none"/>
			<path d="m70.655 41.576c-0.174 0.4-0.389 2.662 2.785 2.854 2.297 0.14 1.741-3.11-2.785-2.854z" fill="#fff"/>
			<path stroke-width=".0751" d="m70.655 41.576c-0.174 0.4-0.389 2.662 2.785 2.854 2.297 0.14 1.741-3.11-2.785-2.854z" stroke="#000" fill="none"/>
			<path d="m74.065 42.527c-0.393 0.697-0.812 2.438 2.67 2.576 2.229 0.09 0.858-2.529-2.67-2.576z" fill="#fff"/>
			<path stroke-width=".0751" d="m74.065 42.527c-0.393 0.697-0.812 2.438 2.67 2.576 2.229 0.09 0.858-2.529-2.67-2.576z" stroke="#000" fill="none"/>
			<path d="m76.966 43.062c-0.51 0.695-0.133 2.061 1.16 2.32 1.625 0.324 1.857-1.207 0.744-1.949-1.115-0.744-1.904-0.371-1.904-0.371z" fill="#fff"/>
			<path stroke-width=".0751" d="m76.966 43.062c-0.51 0.695-0.133 2.061 1.16 2.32 1.625 0.324 1.857-1.207 0.744-1.949-1.115-0.744-1.904-0.371-1.904-0.371z" stroke="#000" fill="none"/>
			<path d="m78.544 43.387c-0.371 0.65-0.141 2.227 2.32 2.227 0.51-0.001 2.459-1.995-2.32-2.227z" fill="#fff"/>
			<path stroke-width=".0751" d="m78.544 43.387c-0.371 0.65-0.141 2.227 2.32 2.227 0.51-0.001 2.459-1.995-2.32-2.227z" stroke="#000" fill="none"/>
			<path d="m59.497 73.645c1.992 0 3.607-1.615 3.607-3.609s-1.615-3.609-3.607-3.609c-1.994 0-3.611 1.615-3.611 3.609 0 1.993 1.617 3.609 3.611 3.609z" fill="#fff"/>
			<path stroke-width=".0751" d="m59.497 73.645c1.992 0 3.607-1.615 3.607-3.609s-1.615-3.609-3.607-3.609c-1.994 0-3.611 1.615-3.611 3.609 0 1.993 1.617 3.609 3.611 3.609z" stroke="#000" fill="none"/>
			<path d="m59.497 70.035" fill="#fff"/>
			<path stroke-width=".0751" d="m59.497 70.035" stroke="#000" fill="none"/>
			<path d="m85.97 21.158c-0.279 0.279-0.859 1.115-0.975 1.44-1.207 3.619 2.014 6.322 3.896 10.209 1.486 3.062 1.301 7.889-1.02 10.951-0.795 1.047-0.557 1.346-1.578 2.414-0.393 0.408-0.836 0.928-0.695 2.412 0.648-0.232 1.578 0.371 1.762 0.881 0.465-0.23 1.115-0.139 1.348 0.141 0.789-0.371 1.438-0.186 2.133 0.557 0.604-0.094 1.254 0 1.857 0.65 0.324-0.65 0.975-0.883 1.438-0.744-0.045-0.834 0.789-1.438 1.531-1.113-0.23-1.113 0.789-1.949 1.764-1.623 0.836-0.65 2.506-0.697 3.342 0.277-1.484-0.418-1.439 1.16-2.691 1.021 0.324 0.928-0.512 1.461-1.346 1.764 0.533-0.256 1.113-0.559 1.299-0.232 0.465-0.406 1.392-0.256 1.625-0.047 0.613-0.197 1.207-0.047 1.484 0.697 0.836 0.51 1.393 1.809 0.789 2.783-0.186-1.021-0.883-0.975-1.16-1.393-0.65 0.233-1.301 0.233-1.484-0.185-0.371 0.371-1.625 0.697-2.182 0.139-0.209 0.836-0.928 1.531-1.764 1.531 0.232 0.65-0.418 1.764-0.928 2.32 0.789 0.418 0.557 1.346 0.371 1.904 1.207 0.186 0.186 1.252 2.273 1.949-1.021 0.324-3.016 0-3.295-1.254-1.02-0.047-1.717-1.068-1.67-2.135-0.789-0.742-0.904-1.809 0.186-2.553-0.928 0.279-1.439-1.205-2.783-0.604-0.672 0.301-2.438-0.209-2.414-0.834-0.279 0.463-1.973 0.279-2.205-0.51-0.557 0.301-1.855-0.209-1.832-0.977-0.719 0.326-1.693-0.254-1.648-0.998-0.672-0.092-0.74-0.695-0.695-1.205-0.604-0.279-0.441-0.859-0.209-1.555-0.416-0.465-0.232-1.113 0.092-1.717-0.463-0.465-0.371-1.021-0.23-1.67-2.229-0.186-5.018-0.725-11.416-2.693-9.652-2.969-12.25 3.992-10.115 8.354 2.461 5.033-0.279 6.125 0.557 9.885 0.881 0.186 1.346 0.928 1.299 1.717 0.521 0.023 0.893 0.51 0.707 1.439 0.441-0.082 1.01 0.045 1.381 0.416 0.324-0.602 1.393-0.742 1.949-0.045 1.207-0.094 1.809 0.881 1.764 2.088 0.65 1.16 0.416 2.574-0.279 3.48 0.07-0.488 0-1.184-0.021-1.602-0.045-0.768-1.115-0.928-0.998-1.555-0.559 0.047-1.092-0.256-1.277-0.672-0.324 0.277-0.787 0.371-1.184 0.23 0.627 0.279 1.113 1.393 0.93 2.137 0.324 0.555 0.254 1.576-0.141 2.017-0.186 0.904-0.881 1.229-1.787 0.836 0.512-0.326 0.697-0.906 0.674-1.393-0.324-0.279-0.486-0.812-0.51-1.137-0.906 0.139-2.158-0.627-2.389-0.93-1.994 0-3.611 1.615-3.611 3.609-0.092-0.742-1.031-1.473-0.914-2.102-0.559-1.717 0.23-3.316 2.506-3.643-0.279-0.648 0.695-1.322 0.324-2.064-0.475-0.947-1.346-2.182-2.646-3.619 0.789-1.346 0.558-3.156 0.094-4.27-0.666-1.6-1.299-1.205-3.666 1.393-3.857 4.234-9.002 3.062-13.551 5.846-1.207 0.74-2.412 1.021-1.113-0.277 1.301-1.299 4.734-2.598 6.961-3.713 4.172-2.086 7.703-5.568 9.096-12.342 3.271-15.922 15.312-10.674 22.924-7.705 7.145 2.789 5.848-3.525 2.227-7.332-4.35-4.572-3.479-8.166-1.438-11.043 3.664-0.507 10.696 0.771 9.28 1.999z" fill="#fff"/>
			<path stroke-width=".0751" d="m85.97 21.158c-0.279 0.279-0.859 1.115-0.975 1.44-1.207 3.619 2.014 6.322 3.896 10.209 1.486 3.062 1.301 7.889-1.02 10.951-0.795 1.047-0.557 1.346-1.578 2.414-0.393 0.408-0.836 0.928-0.695 2.412 0.648-0.232 1.578 0.371 1.762 0.881 0.465-0.23 1.115-0.139 1.348 0.141 0.789-0.371 1.438-0.186 2.133 0.557 0.604-0.094 1.254 0 1.857 0.65 0.324-0.65 0.975-0.883 1.438-0.744-0.045-0.834 0.789-1.438 1.531-1.113-0.23-1.113 0.789-1.949 1.764-1.623 0.836-0.65 2.506-0.697 3.342 0.277-1.484-0.418-1.439 1.16-2.691 1.021 0.324 0.928-0.512 1.461-1.346 1.764 0.533-0.256 1.113-0.559 1.299-0.232 0.465-0.406 1.392-0.256 1.625-0.047 0.613-0.197 1.207-0.047 1.484 0.697 0.836 0.51 1.393 1.809 0.789 2.783-0.186-1.021-0.883-0.975-1.16-1.393-0.65 0.233-1.301 0.233-1.484-0.185-0.371 0.371-1.625 0.697-2.182 0.139-0.209 0.836-0.928 1.531-1.764 1.531 0.232 0.65-0.418 1.764-0.928 2.32 0.789 0.418 0.557 1.346 0.371 1.904 1.207 0.186 0.186 1.252 2.273 1.949-1.021 0.324-3.016 0-3.295-1.254-1.02-0.047-1.717-1.068-1.67-2.135-0.789-0.742-0.904-1.809 0.186-2.553-0.928 0.279-1.439-1.205-2.783-0.604-0.672 0.301-2.438-0.209-2.414-0.834-0.279 0.463-1.973 0.279-2.205-0.51-0.557 0.301-1.855-0.209-1.832-0.977-0.719 0.326-1.693-0.254-1.648-0.998-0.672-0.092-0.74-0.695-0.695-1.205-0.604-0.279-0.441-0.859-0.209-1.555-0.416-0.465-0.232-1.113 0.092-1.717-0.463-0.465-0.371-1.021-0.23-1.67-2.229-0.186-5.018-0.725-11.416-2.693-9.652-2.969-12.25 3.992-10.115 8.354 2.461 5.033-0.279 6.125 0.557 9.885 0.881 0.186 1.346 0.928 1.299 1.717 0.521 0.023 0.893 0.51 0.707 1.439 0.441-0.082 1.01 0.045 1.381 0.416 0.324-0.602 1.393-0.742 1.949-0.045 1.207-0.094 1.809 0.881 1.764 2.088 0.65 1.16 0.416 2.574-0.279 3.48 0.07-0.488 0-1.184-0.021-1.602-0.045-0.768-1.115-0.928-0.998-1.555-0.559 0.047-1.092-0.256-1.277-0.672-0.324 0.277-0.787 0.371-1.184 0.23 0.627 0.279 1.113 1.393 0.93 2.137 0.324 0.555 0.254 1.576-0.141 2.017-0.186 0.904-0.881 1.229-1.787 0.836 0.512-0.326 0.697-0.906 0.674-1.393-0.324-0.279-0.486-0.812-0.51-1.137-0.906 0.139-2.158-0.627-2.389-0.93-1.994 0-3.611 1.615-3.611 3.609-0.092-0.742-1.031-1.473-0.914-2.102-0.559-1.717 0.23-3.316 2.506-3.643-0.279-0.648 0.695-1.322 0.324-2.064-0.475-0.947-1.346-2.182-2.646-3.619 0.789-1.346 0.558-3.156 0.094-4.27-0.666-1.6-1.299-1.205-3.666 1.393-3.857 4.234-9.002 3.062-13.551 5.846-1.207 0.74-2.412 1.021-1.113-0.277 1.301-1.299 4.734-2.598 6.961-3.713 4.172-2.086 7.703-5.568 9.096-12.342 3.271-15.922 15.312-10.674 22.924-7.705 7.145 2.789 5.848-3.525 2.227-7.332-4.35-4.572-3.479-8.166-1.438-11.043 3.664-0.507 10.696 0.771 9.28 1.999z" stroke="#000" fill="none"/>
			<path d="m98.894 60.27c2.193 0 3.971-1.777 3.971-3.971 0-2.193-1.777-3.971-3.971-3.971-2.193 0-3.971 1.777-3.971 3.971 0.005 2.193 1.782 3.971 3.976 3.971z" fill="#fff"/>
			<path stroke-width=".0751" d="m98.894 60.27c2.193 0 3.971-1.777 3.971-3.971 0-2.193-1.777-3.971-3.971-3.971-2.193 0-3.971 1.777-3.971 3.971 0.005 2.193 1.782 3.971 3.976 3.971z" stroke="#000" fill="none"/>
			<path d="m98.894 56.299" fill="#fff"/>
			<path stroke-width=".0751" d="m98.894 56.299m-15.153-34.955c-0.881 3.898-0.139 5.662 1.16 7.379 2.686 3.549 4.826 11.647 1.764 16.937" stroke="#000" fill="none"/>
			<path d="m88.382 41.09c0.371-0.141 1.068-0.58 1.23-1.346m-0.951-0.348c0.115-0.674 1.16-0.965 1.182-1.684m-1.16-0.937c-0.068-0.697 1.045-1.324 0.883-2.019m-1.485-0.488c-0.094-0.395 0.928-1.137 0.648-1.764m-1.414-0.672c-0.209-0.441 0.486-0.951 0.186-1.416m-1.301-0.533c-0.068-0.301 0.359-0.963 0.129-1.357m-1.242-0.94c0.094-0.117 0.465-0.395 0.312-0.742m-1.078-0.94c0.15-0.082 0.604-0.221 0.545-0.557" stroke="#000" stroke-linecap="round" stroke-width=".0751" fill="none"/>
			<path stroke-linejoin="round" d="m61.097 69.652c-0.928-0.326-2.088 0.139-2.32 0.928m0.695 0.719c0.117-0.789 1.322-1.137 1.695-0.766-0.768-0.418-1.139 1.068-0.465 1.113m6.24-18.701c-0.557 0.279-0.719 1.301 0 2.064m0.836-1.831c-0.395 0.326-0.371 1.299 0.209 1.531-0.486-0.348 0-0.951 0.348-0.975 0.348-0.022 0.582 0.394 0.162 0.812m31.883 0.929c-1.299-0.348-2.344 1.16-1.16 2.506-0.023-1.299 0.904-2.158 2.041-1.924m-0.52 0.898c-0.32 0-0.498 0.248-0.498 0.492 0 0.256 0.219 0.5 0.58 0.5 0.23 0 0.418-0.268 0.418-0.477m4.08-29.003c0.209 0.789 1.301 1.115 2.158 0.93m0-0.512c-0.674 0.023-1.229-0.604-1.184-1.137 0 0.394 0.906 0.58 1.184 0.326" stroke="#000" stroke-linecap="round" stroke-width=".0751" fill="none"/>
			<path d="m61.421 55.383c-0.186-0.465 0.557-0.928 0.58-1.369s0.836-0.789 1.67 0.045m-0.393-4.942c-0.162 0.07-0.303 0.164-0.441 0.209m2.041 2.32c-0.197 0.012-0.602-0.012-0.824-0.162m0.013 1.043c-0.164 0.082-0.523 0.221-0.732 0.267m-7.227 13.749c-0.023 0.416 0.395 1.02 0.625 1.205m1.184-2.203c-0.232 0.348-0.371 0.951-0.232 1.369m3.689 0.024c-0.416-0.279-0.139-0.998-0.186-1.463-0.047-0.463 0.488-1.205 1.531-0.58m-5.241-0.604c0.416-0.068 0.857-0.045 1.137 0.07m4.152-1.392c-0.186 0.256-0.232 0.535-0.256 0.721m2.205-0.766c-0.324 0-0.604 0.23-0.742 0.463m-3.76-12.344c0.373 0.129 1.334 0.721 1.369 1.334m2.576-4.35c-1.137-0.024-1.578-1.184-0.719-1.184m2.76 2.739c-0.44 0.186-0.23 0.951 0.395 1.322m-3.108 5.963c-0.221-0.279 0.068-1.09 0.789-0.846m0.905 9.315c0.047-0.707 0.939-1.125 1.299-0.324m-4.594 2.343c-0.059-0.777 0.336-1.033 0.684-1.08 0.348-0.045 0.848 0.244 1.08 0.756m-8.678 0.903c0.045-0.463 0.439-0.951 0.857-0.881m41.602-19.721c-0.301 0.219-0.498 1.205 0.65 1.299m-2.414 0.324c0 0.115 0.15 0.279 0.244 0.348m5.229 1.509c-0.303-0.234-1.078 0.707-0.371 1.391m-7.005 6.404c-0.174-0.66 0.441-0.836 1.021-0.695m-2.506-3.992c0.348-0.232 0.695-0.486 1.137-0.604m-1.322 3.157c0-0.557 0.279-1.021 0.533-1.16m1.508-5.245c-0.045 0.674 0.232 1.324 0.441 1.67m5.082-1.623c-0.338 0.105-0.639 0.232-0.766 0.51m0.395 1.393c0.162-0.139 0.348-0.301 0.428-0.416m8.344-19.84c0 0.65-0.811 0.998-1.346 0.582m3.11-0.559c0.359 0.279 1.602 0.012 1.311-0.707m-2.82 4.443c-0.256-0.047-0.695-0.324-0.883-0.557m3.44-1.368c-0.418 0.092-0.697 0-0.906-0.092m-5.68 2.412c0.232 0 0.787-0.094 1.172-0.289m-1.87-3.818c-0.301-0.035-0.521 0.023-0.695 0.139m5.38 0.997c-0.082 0.289-0.291 0.742-0.545 0.939" stroke="#000" stroke-linecap="round" stroke-width=".0751" fill="none"/>
			<path stroke-linejoin="round" d="m102.79 33.967c0.58-0.256 1.301 1.717 2.691 1.021m0.12-2.043c-0.186 0.256-0.303 0.65-0.326 0.998" stroke="#000" stroke-linecap="round" stroke-width=".0751" fill="none"/>
			<path stroke-width=".0751" d="m77.849 29.93c0.186-0.023 0.51-0.094 0.58-0.326m-24.455 21.925c0.695 0.396 1.182 1.068 0.881 2.066m31.021-25.8c0.209 0.139 0.998 0.139 1.439-0.023m0.557 0.486c-0.023 0.326 0.068 1.555-0.557 1.811m0.233-0.163c0.58 0.186 1.74 0.115 2.111-0.951m-0.812 0.904c0.301 0.465 0.395 1.369-0.51 1.855m0.742-1.089c0.672 0.232 2.227 0.256 2.064-1.066m-0.533 1.066c0.463 0.65 2.506 1.416 2.18 0.07m-4.061 1.809c0.789 0.186 1.902-0.348 1.439-1.74m2.228 0.697c0.117 0.533 2.715 1.092 2.367-0.117m-0.487 0.697c0.486 1.113 3.062 1.021 2.25-0.465m-0.418 1.16c0.51 0.627 2.785 0.256 1.879-1.252m-0.021 1.229c1.414 1.068 3.062-0.463 1.275-1.578m0.809 1.23c1.252 0.998 2.783-0.812 1.693-1.322m-11.594 0.904c0.395 0.117 1.229 0.07 1.416-0.649m-0.315 0.487c-0.045 1.057 1.729 1.461 2.182 0.244m-0.592 0.66c0.324 0.697 1.879 0.975 2.135-0.023m-0.256 0.465c0.256 0.697 1.602 0.627 1.973-0.092m-0.487 0.465c0.416 0.902 2.135 0.902 2.527-0.42m-0.3 0.58c0.672 0.418 2.111 0.256 1.996-1.043m-0.27 0.928c0.998 0.812 2.414 0.023 1.717-1.346m-0.08 2.412c0.535-0.092 0.812-1.16 0.256-1.438m-12.623 1.626c1.113-0.605 1.322-1.625 0.557-2.623m0.394 1.601c0.695 0.416 2.018-0.023 2.25-1.045m-1.299 1.16c0.395 0.51 0.463 1.137-0.047 1.717m0.371-1.066c1.23-0.766 2.762 0.65 1.625 1.508m-0.209-1.578c0.277-0.07 0.766-0.58 0.812-1.16m-0.255 1.695c0.51-0.535 3.992 0.555 1.787 1.67m-0.162-3.133c0.672 0.256 1.02 1.207 0 1.531m0.881 0.789c0.742-0.766 3.062-0.277 2.227 0.695m-0.557-0.998c0.418-1.414 2.9-0.533 2.088 0.047m-2.598-1.461c0.068 0.279 0.092 0.975-0.371 1.346m2.459-1.625c0.092 0.232 0.07 0.674-0.139 0.951m1.719-0.928c0.139 0.256 0.371 0.742-0.139 1.137m-19.723-11.808c0.023 1.322 0.486 2.203 2.273 1.369m-1.717 0.209c-0.881 1.184 0.117 2.459 1.857 1.184m-4.572-0.606c1.207 1.299 3.365 0.348 1.973-1.623m1.461 2.738c-0.23 1.275 0.812 1.531 1.672 0.951m-6.172-1.855c0.219 1.281 1.531 2.297 2.807 1.506m-1.231 0.256c0 1.834 2.531 2.043 3.111 0.141m-0.906 1.159c0.812 1.67 2.576 0.996 3.156-0.023m-4.941-2.645c0.324 0.811 0.973 1.717 2.48 1.043m-7.12-1.437c0.209 0.672 1.414 1.482 2.807 0.555m-1.95 0.302c-0.742 1.09 0.742 2.111 2.529 0.488m-1.648 0.858c0.303 1.531 0.906 2.762 3.086 0.789m-1.09 0.789c0.789 0.975 1.996 1.576 3.133-0.07m0.836 0.347c-0.07 1.16 0.162 1.74 1.066 1.693 0.715-0.035 1.393-0.602 1.787-1.205m-1.949 1.206c-0.023 1.322 1.021 2.367 2.969 1.021m-2.157 0.533c-0.373 0.998 0.742 2.623 2.922 1.787m-7.541-4.431c-0.139 1.275 1.045 2.135 2.947 0.488m-2.017 0.928c0.07 1.043 1.252 2.297 2.992 0.486m-2.158 0.836c-0.139 1.787 1.508 2.297 2.9 0.928m-5.382-2.25c0.371 0.023 0.674-0.303 0.859-0.535m-0.07 1.834c0.324 0.07 0.883-0.232 1.068-0.604m-0.256 2.715c0.371 0.395 1.623 0.117 1.787-0.418m-0.394 0.395c0.695 1.625 2.553 1.555 3.318-0.277m-0.35 0.648c0.35 0.951 1.23 1.555 2.668 1.23m-1.97-0.256c-0.812 1.324 0.254 2.877 2.064 1.346m-1.625 0.627c-0.092 0.836 0.674 1.787 1.719 1.902m-5.152-4.338c-0.277 1.879 1.068 2.783 2.762 1.787m-4.735-0.882c0.441 0.348 1.23 0.395 1.973 0.115m0.906 1.092c-0.418 1.578 1.205 2.713 2.598 0.951m-4.85-1.902c0.023 0.811 0.812 1.693 2.182 1.438m3.828 1.624c-0.928 0.625-1.113 1.74 0.186 2.459m-2.46-2.785c0.047 0.951 0.486 1.484 1.531 1.578m-2.9-2.064c-1.393 1.275-0.023 2.76 1.625 1.508m-0.65 0.394c-0.465 1.463 1.275 2.344 2.205 0.857m-5.082-3.966c-0.512 1.439 0.139 2.391 1.322 2.297m-3.156-2.575c0.07 0.857 0.812 1.16 1.649 0.973m-1.116-0.068c-0.625 1.207 0.326 1.855 1.578 1.393m3.807 2.691c-0.209 0.766-0.094 1.322 1.043 1.576m-0.975-0.487c-1.369 0.627-1.484 1.949-0.418 2.809m-0.683-4.281c-0.721 0.649-0.58 1.775 0.209 2.215m-6.301-6.45c-0.787 0.777-0.033 2.922 1.707 1.752m2.818 0.961c-1.066 0.883-0.58 2.484 1.184 2.043m-2.948-2.715c-0.557 1.578-0.023 2.135 1.23 2.158m-5.151-4.269c-0.951 0.719-0.695 1.74-0.277 2.203 0.418 0.465 1.207 0.256 1.461-0.348m-3.179-2.482c-1.066 1.369 0 2.994 1.508 2.506m4.201 1.555c-1.092 0.395-1.924 1.385-1.254 2.252 0.395 0.51 2.111 0.578 2.598-1.393m-3.318-2.135c-0.625 0.904-0.416 1.764 0.744 2.203m-0.813-0.509c-0.674 0.371-1.113 0.812-0.951 1.625m-0.556-3.041c-0.256 1.092 0.045 1.764 0.719 2.088m-0.743-0.788c-1.045-0.07-1.578 0.371-1.23 1.392m0.093-1.138c-1.021-0.371-1.184-1.252-0.742-2.18m-0.14 1.37c-1.113 0.045-1.6 0.602-1.6 1.369m0.092-5.709c-0.811 0.348-1.066 1.439-0.766 2.041 0.303 0.603 1.254 0.65 1.834 0.256m-3.342-3.155c-0.742 0.834 0.115 2.459 1.439 2.062m-3.341-2.712c-0.697 0.975 0.068 2.598 1.855 2.135m0.094 4.523c-0.186-1.16 1.02-1.926 2.506-0.418m-0.721-2.342c-0.439 0.395-0.65 1.02-0.578 1.531m-5.058-5.986c-0.766 1.299 0.162 2.482 1.809 2.018m2.482 1.207c-1.09 1.09-0.719 2.182 0.094 2.807m-0.79-1.53c-1.646 0.023-1.74 1.924-0.395 2.529m-0.858-4.433c-0.672 0.465-0.881 1.74 0.279 2.252m-0.324 0.604c-0.697-0.326-1.531 0.068-1.463 0.881m0.418-0.86c-0.627-1.484-2.459-1.229-2.297 0.303m2.808-2.135c-0.395 0.07-1.184 0.301-1.484 0.904m0.115-2.574c-0.742 0.834-0.162 1.832 0.44 2.041m-2.645-4.385c-0.139 0.996 0.256 1.484 1.508 1.393m-1.066-0.117c-0.488 1.205 0.162 1.74 1.414 1.67m-1.137-0.186c-0.742 0.881-0.232 1.834 0.488 2.229m-0.836-1.114c-1.322-0.164-1.531 1.367-1.09 2.088m0.024-6.08c-0.812 0.35-1.275 1.369-0.836 1.996 0.441 0.627 1.322 0.418 1.809 0.094m-1.53 0.184c-0.674 1.021-0.07 1.789 0.648 2.09m-3.247-4.479c-0.533 0.557-0.209 1.693 1.092 1.717 1.045 0.02 1.576-0.975 1.252-1.67m-1.44 1.67c-0.418 0.928-0.162 1.926 1.416 1.764m0.674 1.46c-0.975-0.441-2.273 0-1.719 1.16m-0.139-2.806c-0.395 0.557-0.254 1.346 0.185 1.834m-0.255-0.35c-0.648 0.117-1.275 0.465-0.881 1.484m-0.092-0.833c-0.836-0.256-1.902 0.348-1.254 1.205m-0.138-0.811c-0.719-0.117-1.578 0.648-0.881 1.414m-0.279-0.627c-0.65 0.164-1.416 0.906-0.744 1.486m4.015-5.126c-0.928 0.418-1.022 1.461-0.58 2.227m-0.395-4.153c-1.393 0.533-1.369 2.389 0.162 2.969m-0.65-0.418c-0.834 0.486-0.996 1.416-0.439 2.019m-1.022-5.267c-0.557 0.186-0.51 1.902 0.975 1.857m-2.506-1.277c-1.113 0.742 0.232 2.621 2.043 1.277m-0.998 0.463c-0.162 0.766 0.045 1.601 1.275 1.695m-1.207-0.674c-0.881 0.324-1.043 2.135 0.557 2.273m-3.363-3.921c-1.137 1.045 0.928 1.949 1.693 0.441m-3.271 1.299c-0.557 0.674 1.393 2.438 2.25-0.51m0.209-0.045c0.047 0.695 0.465 1.113 1.322 1.158m-0.022 0.674c-1.369 0.209-1.811 1.924-0.279 2.297m-2.25-2.529c-0.047 0.648 0.625 1.184 1.391 1.066m0.697 1.416c-1.254 0.277-1.416 1.902-0.303 1.811m-0.58 1.508c-1.043-0.315-1.066-1.555-0.139-2.02m-0.718 0.93c-0.881 0.533-0.533 1.809-0.07 1.994 0.465 0.185 0.836-0.047 0.883-0.442m-0.071 1.788c0.092 0.604-2.146 0.371-0.998-1.508m-0.012 1.613c-0.754 1.182 0.476 2.145 1.254 1.137m-1.148 0.289c-0.303 0.951 0.846 1.637 1.588 0.894m-4.094-9.804c-0.418 0.859 1.67 1.184 1.809-0.58m-2.389 1.857c-0.418 1.67 2.738 1.322 1.926-0.836m0.068 1.114c0.441 0.256 1.764 0.279 2.088-1.137m-0.952 1.184c0.094 0.441 0.488 0.975 0.859 1.137m-2.366-0.696c-0.139 0.904 0.766 1.646 1.811 1.578m-1.649-0.697c-0.51 0.697-0.672 2.043 0.93 2.135m-3.366-1.903c-0.256 0.719 1.252 1.463 2.135 0.277m-2.598 1.557c-0.129 0.545 1.228 1.275 1.994-1.045m-0.603 1.184c0.324 0.58 1.416 1.043 2.09-0.094m-1.092 0.697c-0.277 0.81 0.486 1.576 1.416 1.346m-3.156-1.531c-0.186 1.16 1.16 1.832 1.996 1.229m-2.877-0.719c-0.394 1.484 1.508 2.041 2.227 0.928m-0.489 0.441c0.07 0.834 1.369 1.555 2.391 0.858m-4.709-0.163c-0.094 0.371 1.461 0.744 1.693-0.557m-0.789 0.883c0.371 0.951 1.623 1.182 2.344 0.021m-0.418 0.466c0.162 0.883 1.299 1.369 2.297 0.766m0.418 0.347c-0.256 1.184 0.975 2.135 1.74 1.486m-3.713-1.695c-0.371 1.301 1.254 2.043 2.158 1.322m-4.107-1.971c-0.092 1.207 0.859 1.924 1.949 1.393m-4.014-1.277c-0.324 0.789 1.393 1.438 2.205 0.766m-3.271 1.392c0.439 0.512 1.971 0 2.109-1.137m-0.416 0.834c0.557 0.65 1.879 0.998 2.412-0.393m-0.462 0.719c-0.024 0.998 1.762 1.717 2.342-0.117m2.101 0.361c-0.164 0.486 0.219 1.264 1.02 1.357m-2.495-1.659c-0.115 0.557 0.697 1.334 1.555 1.021m0.162 0.233c-0.232 0.602-0.033 1.473 0.777 1.461m-0.695-0.336c-0.604 0.51-0.35 1.414 0.521 1.449m-0.835-0.592c-0.857 0.58-0.557 1.857 0.58 1.787m-3.178-4.246c0 1.254 1.555 1.438 1.855 0.279m-0.601 0.742c-0.232 0.742 0.371 1.461 1.322 1.252m-1.138 7.704c0.209 0.301 1.068-0.209 0.836-0.719-0.232-0.512-1.141-0.232-1.043 0.303m0.834-0.512c0.117-1.021-1.09-1.184-1.391-0.303m0.439-0.51c0.303-0.51-0.719-1.205-1.137-0.463m0.372-0.302c0.279-0.742-0.881-1.066-0.975-0.395m-0.256-0.974c0.141-0.371 1.439-0.139 0.883 0.627m0.998 0.927c0.51-0.463-0.348-1.414-0.883-1.066m4.317 2.482c-0.406 0.045-0.824 0.312-0.521 1.172 0.209 0.596 1.102 0.627 1.229 0.268m-1.3-1.01c-0.394-0.256-1.252 0.174-0.859 1.01 0.299 0.627 1.045 0.371 1.16 0.045m-2.516 0.14c0.195 0.348 1.182 0.195 1.355-0.186m-0.683-0.964c0.209-0.139 0.592 0.035 0.674 0.209m-0.744-5.928c-0.672 0.441-0.254 1.787 0.789 1.439m-0.998-0.349c-0.533 0.418-0.045 1.717 0.953 1.23m-0.789 0c-0.371 0.371-0.012 1.404 0.951 1.207m-1.092-0.695c-0.207-0.094-0.754-0.025-0.984 0.324m0.381-5.023c-0.51 0.486-0.266 1.486 0.686 1.566m-0.87-0.547c-0.732 0.361-0.732 1.811 0.73 1.869m-0.791-0.232c-0.404 0.326-0.207 1.578 0.836 1.416m-0.498-0.047c-0.15 0.15-0.174 0.533-0.047 0.695m-0.418-1.169c-0.371 0.01-0.857 0.277-0.986 0.66m-0.672-1.346c0.139-0.371 1.287-0.348 1.369 0.742m0.116-1.298c-0.162 0.033-0.475 0.186-0.557 0.498m0.059-3.899c-0.498 0.453-0.742 1.881 0.777 2.158m-1.787 0.789c0-0.383 1.033-0.707 1.393-0.139m-2.053-1.937c0.15 0.289 0.869 0.686 1.311 0.359m-5.048-2.632c-0.023 0.672 0.533 1.275 1.299 1.182 0.766-0.092 0.928-0.764 0.697-1.205m-0.58 1.23c-0.512 0.625 0.115 1.508 0.695 1.252m-0.115-1.694c0.301-0.117 1.299-0.256 1.6 0.209m-4.826-0.023c-0.233 0.348 1.207 0.695 1.695 0.023m-0.488 0.348c-0.045 0.465 0.186 1.254 1.369 0.928m0.186 0.719c0.185-0.393-0.695-1.043-1.369-0.324s0.094 1.531 0.512 1.254m-2.229-2.483c-0.348 0.602 0.998 1.705 1.764 0.684m-2.657 0.359c-0.488 0.5 0.115 1.416 0.846 1.139 0.732-0.279 0.662-1.047 0.488-1.244m-2.273 1.033c-0.394 0.361-0.012 1.207 0.533 1.207s0.881-0.43 0.777-0.975m0.904-0.301c-0.07 0.533 0.719 0.904 1.23 0.404m0.024-0.972c0.068-0.117 0.012-0.314-0.106-0.408m-4.21 1.765c-0.453 0.357 0.521 1.357 1.137 0.442m2.355-0.639c-0.291 0.277 0.174 1.008 0.637 0.789m-2.227-0.279c0.07 0.498 1.045 0.869 1.658 0.104m-1.124 0.394c-0.15 0.314 0.152 0.812 0.523 0.744m8.711 2.121c-0.359 0.709 0.789 1.531 1.625 0.674" stroke="#000" fill="none"/>
			<path stroke-width=".0751" d="m59.507 60.348c-0.174 0.383 0.035 0.918 0.348 1.113m-1.438-0.313c0.08-0.348 0.58-0.674 1.031-0.512m-1.635-0.404c0.07-0.314 0.486-0.627 0.801-0.547m26.52-13.931c-1.646 0.024-0.951 2.668 0.465 2.135m-0.998-0.186c-0.326 0.533 0.301 1.379 0.998 0.881m-0.186 0.105c-0.488 0.811 1.252 2.053 1.947 0.775m-0.556 0.489c0.023 0.766 2.25 1.252 1.926-0.279m-0.209 0.836c0.533 0.904 2.529 0.998 2.32-0.348m-0.44 0.928c0.418 0.604 2.367 0.975 2.297-0.277m-10.209-7.356c0.277 0.719 1.229 0.973 2.274 0.557m-2.877-0.047c0.649 0.418-0.303 2.32-1.301 1.555m1.301-0.372c0.719 0.348 1.602 0.094 1.856-0.928m-0.442 0.79c0.07 0.533 0.836 0.951 1.834 0.742m-3.619-0.186c0.928 0.789-0.418 2.412-1.021 1.67m1.368-1.066c0.441 0.324 1.578 0.139 1.693-0.721m-0.509 0.721c0.094 0.557 0.533 0.766 1.16 0.787m-2.598-0.021c0.463 0.648 1.623 0.834 2.133-0.023m-0.51 0.485c-0.047 0.627 0.65 1.137 1.369 0.998m-3.898 0.395c0.604 0.301 1.252-0.836 0.742-1.625m-0.047 2.83c0.721 0.047 0.812-1.043 0.141-1.646m1.508 2.644c0.604-0.139 0.418-1.461-1.045-1.576m2.877 2.553c0.58-0.162 0.117-1.625-1.484-1.531m3.689 2.04c0.395-0.604-0.904-1.625-1.973-1.09m3.063 1.924c0.719 0.209 1.207-1.693-1.066-1.391m2.39 1.391c0.625-0.162 1.066-1.299-0.768-0.928m2.159 1.022c0.557 0.277 0.812-1.346-0.883-0.904m-8.467-4.154c0.695 0.395 1.785-0.068 1.693-0.951m-0.279 0.765c0.232 0.418 0.141 1.23-0.301 1.439m0.371-0.464c0.465 0.186 1.09 0.024 1.461-0.719m-0.648 0.719c0.139 0.324 0.186 0.975-0.117 1.301m0.232-0.745c0.512 0.279 1.113-0.092 1.369-0.627m-0.324 0.465c0.371 0.232 0.695 1.322 0.068 1.764m0.35-0.512c0.439 0.025 1.09 0.025 1.508-0.533m-0.303 0.303c0.395 0.115 0.859 0.766 0.697 1.346m0.024-0.21c0.439-0.047 1.207-0.348 1.414-0.881m-0.207 0.346c0.371 0.211 0.625 0.652 0.58 1.162m0-0.373c0.439-0.021 0.834-0.254 0.951-0.742m-0.117 0.324c0.326 0.117 0.719 0.488 0.742 0.93m-0.045-0.279c0.324-0.045 0.555-0.254 0.764-0.578m0.883-0.047c0.418 0.418-0.141 1.809-0.998 1.553m-7.912-29.674c-0.859 0.51-3.295 0.348-2.088-1.672m2.32 0.303c-1.693 0.672-3.783-0.627-1.602-2.041m-0.58-0.467c-1.416 0-2.367 2.275-0.463 3.064m-5.035-2.113c-0.371 0.721 0.951 1.51 1.855 0.791 0.701-0.557 0.65-2.064 0.233-2.646m-2.806 3.574c-0.465 1.531 2.945 1.625 2.412-0.812m-2.6 3.085c0.117 1.16 3.271 0.789 2.252-1.555m0.371-0.65c0.254 0.35 0.951 0.951 2.135 0.836m-1.578-2.482c0.105 0.418 0.812 0.742 1.717 0.43m-33.377 34.872c-0.801 0.568 0.43 1.461 0.881 0.475m-1.506-0.033c-0.801 0.566 0.428 1.461 0.881 0.475m-1.544-0.048c-0.801 0.57 0.43 1.463 0.881 0.475m-1.578-0.08c-0.766 0.406 0.129 1.404 0.906 0.523m-1.658-0.14c-0.768 0.406 0.127 1.404 0.904 0.523m2.981-1.719c-0.012 0.592 1.113 0.836 1.52-0.045m-0.811 0.592c-0.35 0.441 0.289 0.986 0.637 0.789m-2.135-0.871c-0.033 0.5 0.939 0.789 1.416 0.244m-0.881 0.28c-0.315 0.404 0.301 0.951 0.695 0.787m-1.878-0.858c0.035 0.395 0.59 0.846 1.195 0.592m-0.836-0.058c-0.233 0.209-0.115 0.695 0.209 0.848m-1.416-0.884c-0.094 0.359 0.522 0.998 1.149 0.58m-1.02-0.162c-0.373 0.289-0.326 0.73 0.15 0.789m-1.045-0.836c-0.047 0.244 0.268 0.639 0.662 0.592m-2.646-0.615c-0.371 0.197 0.58 1.207 1.172 0.268m-2.088 0.15c-0.463 0.221 0.686 1.334 1.195 0.197m1.809-0.244c-0.357 0.082-0.592 0.603-0.289 0.812m-0.883-0.626c-0.045 0.209 0.396 0.559 0.756 0.43m-1.057-0.337c-0.348 0.221-0.162 0.836 0.244 0.742m-1.486-0.335c-0.324 0.242-0.103 0.73 0.35 0.615m0.242-0.65c0.014 0.127 0.303 0.324 0.547 0.244m-2.262-0.453c-0.408 0.174-0.383 1.195 0.984 0.639m-1.902-0.233c-0.568 0.277-0.383 1.045 0.859 0.312m0.104 0.059c-0.15 0.115-0.312 0.627 0.256 0.43m-1.299-0.186c-0.232 0.207-0.082 0.637 0.428 0.475m-1.624-0.407c-0.418 0.244 0.498 0.568 1.113-0.08m-0.833 0.383c-0.188 0.186-0.188 0.73 0.301 0.533m-1.487-0.312c-0.277 0.209 0.197 0.486 1.068 0.104m-0.718 0.197c-0.324 0.266-0.291 0.604 0.184 0.5m-1.147-0.35c-0.359 0.324 0.162 0.545 0.789 0.279m-0.777 0.08c-0.615 0.279-0.35 0.789 0.035 0.592m20.498 1.184c-0.143 0.309 0.326 0.559 0.766 0.488 0.424-0.068 0.828-0.416 0.512-0.904m0.021 0.601c0.418 0.326 1.16-0.045 1.16-0.533" stroke="#000" fill="none"/>
			<path d="m84.647 14.197c-1.857-0.928-5.709-2.645-6.799-1.252 0.996-0.418 3.922 0.023 6.334 2.25l0.465-0.998z" fill="#fff"/>
			<path stroke-width=".0751" d="m84.647 14.197c-1.857-0.928-5.709-2.645-6.799-1.252 0.996-0.418 3.922 0.023 6.334 2.25l0.465-0.998z" stroke="#000" fill="none"/>
			<path d="m85.772 14.1c-2.146-2.5-3.41-1.939-4.953-2.803-1.451-0.809-3.76-0.973-4.207 0.312 2.117-1.031 4.062 0.555 5.258 0.748 1.641 0.264 2.566 1.531 3.047 2.113l0.855-0.37z" fill="#fff"/>
			<path stroke-width=".0751" d="m85.772 14.1c-2.146-2.5-3.41-1.939-4.953-2.803-1.451-0.809-3.76-0.973-4.207 0.312 2.117-1.031 4.062 0.555 5.258 0.748 1.641 0.264 2.566 1.531 3.047 2.113l0.855-0.37z" stroke="#000" fill="none"/>
			<path d="m93.858 13.781c-1.113-2.553-3.496-1.887-4.549-2.971-1.531-1.578-5.406-3.039-7.006-1.949 3.525-0.186 5.029 2.432 6.914 3.342 1.346 0.649 2.784 2.041 4.641 1.578z" fill="#fff"/>
			<path stroke-width=".0751" d="m93.858 13.781c-1.113-2.553-3.496-1.887-4.549-2.971-1.531-1.578-5.406-3.039-7.006-1.949 3.525-0.186 5.029 2.432 6.914 3.342 1.346 0.649 2.784 2.041 4.641 1.578z" stroke="#000" fill="none"/>
			<path d="m89.681 13.502c-1.902-2.367-4.824-4.455-6.17-3.666 1.762 0.092 2.318 1.322 3.572 2.111s0.695 1.926 2.598 1.555z" fill="#fff"/>
			<path stroke-width=".0751" d="m89.681 13.502c-1.902-2.367-4.824-4.455-6.17-3.666 1.762 0.092 2.318 1.322 3.572 2.111s0.695 1.926 2.598 1.555z" stroke="#000" fill="none"/>
			<path d="m80.632 17.678c-1.994-0.742-5.893-1.113-7.701 1.16 3.015 0.51 7.562 0.234 7.701-1.16z" fill="#fff"/>
			<path stroke-width=".0751" d="m80.632 17.678c-1.994-0.742-5.893-1.113-7.701 1.16 3.015 0.51 7.562 0.234 7.701-1.16z" stroke="#000" fill="none"/>
			<path d="m80.261 18.561c-1.994-0.928-3.553 0.369-5.428 0.185-3.574-0.35-6.125-0.141-6.451 1.578 2.041-1.834 5.477-0.326 6.867-0.697 1.393-0.371 6.543-0.047 8.168 0.65-0.836-1.021-2.135-1.298-3.156-1.716z" fill="#fff"/>
			<path stroke-width=".0751" d="m80.261 18.561c-1.994-0.928-3.553 0.369-5.428 0.185-3.574-0.35-6.125-0.141-6.451 1.578 2.041-1.834 5.477-0.326 6.867-0.697 1.393-0.371 6.543-0.047 8.168 0.65-0.836-1.021-2.135-1.298-3.156-1.716z" stroke="#000" fill="none"/>
			<path d="m86.526 13.246c-0.465-1.531-0.441-3.156 1.855-3.039-0.58-0.719-2.715-1.09-3.062 1.602-2.529-1.856-5.291-2.182-5.801-0.58 1.301-1.113 3.318-0.303 5.73 2.436 0.21-0.116 0.769-0.349 1.278-0.419z" fill="#fff"/>
			<path stroke-width=".0751" d="m86.526 13.246c-0.465-1.531-0.441-3.156 1.855-3.039-0.58-0.719-2.715-1.09-3.062 1.602-2.529-1.856-5.291-2.182-5.801-0.58 1.301-1.113 3.318-0.303 5.73 2.436 0.21-0.116 0.769-0.349 1.278-0.419z" stroke="#000" fill="none"/>
			<path d="m83.046 15.357c-1.438-0.926-3.387-2.436 0.023-3.039-1.461-0.789-3.598-0.441-3.363 2.252-3.898-1.58-6.697-1.047-7.287 0.51-0.65 1.717 1.764 2.668 2.182 1.578-0.441 0.186-1.949-0.324-1.16-1.301 0.789-0.973 4.832-0.242 8.678 1.764 1.066 0.557 4.732 0.465 0.927-1.764z" fill="#fff"/>
			<path stroke-width=".0751" d="m83.046 15.357c-1.438-0.926-3.387-2.436 0.023-3.039-1.461-0.789-3.598-0.441-3.363 2.252-3.898-1.58-6.697-1.047-7.287 0.51-0.65 1.717 1.764 2.668 2.182 1.578-0.441 0.186-1.949-0.324-1.16-1.301 0.789-0.973 4.832-0.242 8.678 1.764 1.066 0.557 4.732 0.465 0.927-1.764z" stroke="#000" fill="none"/>
			<path d="m82.024 17.91c-1.109-2.266-4.709-0.209-5.436-2.404-0.989 3.217 5.12 1.437 5.436 2.404z" fill="#fff"/>
			<path stroke-width=".0751" d="m82.024 17.91c-1.109-2.266-4.709-0.209-5.436-2.404-0.989 3.217 5.12 1.437 5.436 2.404z" stroke="#000" fill="none"/>
			<path d="m104.93 20.371c0.754 0.375 1.406-0.215 0.252-0.678 0.756 0.375 1.414-0.201 0.26-0.664 0.756 0.375 1.412-0.199 0.26-0.664-0.31 0.311-0.75 1.447-0.77 2.006z" fill="#fff"/>
			<path stroke-width=".0751" d="m104.93 20.371c0.754 0.375 1.406-0.215 0.252-0.678 0.756 0.375 1.414-0.201 0.26-0.664 0.756 0.375 1.412-0.199 0.26-0.664-0.31 0.311-0.75 1.447-0.77 2.006z" stroke="#000" fill="none"/>
			<path d="m105.32 16.008c1.672-1.764-0.139-2.367 1.902-4.178 1.67-1.479 0.32-2.465 1.904-3.617 0.51-0.373 1.623-1.115 1.717-1.857 0.672 1.67-2.09 1.902-1.902 4.594 0.117 1.715-1.041 1.564-1.486 4.455-0.09 0.603-0.51 1.949-2.13 0.603z" fill="#fff"/>
			<path stroke-width=".0751" d="m105.32 16.008c1.672-1.764-0.139-2.367 1.902-4.178 1.67-1.479 0.32-2.465 1.904-3.617 0.51-0.373 1.623-1.115 1.717-1.857 0.672 1.67-2.09 1.902-1.902 4.594 0.117 1.715-1.041 1.564-1.486 4.455-0.09 0.603-0.51 1.949-2.13 0.603z" stroke="#000" fill="none"/>
			<path d="m106.06 16.797c0.93-1.996 1.994-1.957 2.508-2.738 0.973-1.484 3.039 0.256 4.779-1.068-0.303 1.881-2.646 1.207-3.666 2.414-1.02 1.206-1.86 1.763-3.62 1.392z" fill="#fff"/>
			<path stroke-width=".0751" d="m106.06 16.797c0.93-1.996 1.994-1.957 2.508-2.738 0.973-1.484 3.039 0.256 4.779-1.068-0.303 1.881-2.646 1.207-3.666 2.414-1.02 1.206-1.86 1.763-3.62 1.392z" stroke="#000" fill="none"/>
			<path d="m106.29 17.445c1.625-1.299 2.82-0.432 3.945-1.111 2.83-1.719 3.967 0.346 6.496-0.465-0.674 1.623-4.408 0.23-6.033 1.438-1.63 1.207-7.34 2.367-4.42 0.138z" fill="#fff"/>
			<path stroke-width=".0751" d="m106.29 17.445c1.625-1.299 2.82-0.432 3.945-1.111 2.83-1.719 3.967 0.346 6.496-0.465-0.674 1.623-4.408 0.23-6.033 1.438-1.63 1.207-7.34 2.367-4.42 0.138z" stroke="#000" fill="none"/>
			<path d="m101.56 26.705c-0.023-0.742-0.721-1.693-1.693-1.811-0.975-0.117-1.393-1.137-2.137-1.184-0.742-0.047-1.229-1.531-2.25-1.51-1.021 0.025-1.438 1.348 0.951 2.555 2.392 1.208 5.039 2.599 5.129 1.95z" fill="#fff"/>
			<path stroke-width=".0751" d="m101.56 26.705c-0.023-0.742-0.721-1.693-1.693-1.811-0.975-0.117-1.393-1.137-2.137-1.184-0.742-0.047-1.229-1.531-2.25-1.51-1.021 0.025-1.438 1.348 0.951 2.555 2.392 1.208 5.039 2.599 5.129 1.95z" stroke="#000" fill="none"/>
			<path d="m98.546 27.33c-1.021 0.047-1.162 1.531-2.137 1.578 1.348 0.719 2.32-0.324 3.017-1.252l-0.88-0.326z" fill="#fff"/>
			<path stroke-width=".0751" d="m98.546 27.33c-1.021 0.047-1.162 1.531-2.137 1.578 1.348 0.719 2.32-0.324 3.017-1.252l-0.88-0.326z" stroke="#000" fill="none"/>
			<path d="m99.38 27.516c-0.881 0.742-1.137 2.297 0.141 2.738-0.768-1.055 1.346-1.531 0.693-2.506l-0.83-0.232z" fill="#fff"/>
			<path stroke-width=".0751" d="m99.38 27.516c-0.881 0.742-1.137 2.297 0.141 2.738-0.768-1.055 1.346-1.531 0.693-2.506l-0.83-0.232z" stroke="#000" fill="none"/>
			<path d="m100.26 27.562c-0.697 1.346 1.09 1.508 0.625 2.529 1.021-0.232 1.184-2.158 0.256-2.668l-0.88 0.139z" fill="#fff"/>
			<path stroke-width=".0751" d="m100.26 27.562c-0.697 1.346 1.09 1.508 0.625 2.529 1.021-0.232 1.184-2.158 0.256-2.668l-0.88 0.139z" stroke="#000" fill="none"/>
			<path d="m93.44 24.686c1.67-0.092 3.197 0.81 4.223 2.273 0.648 0.93 2.83 1.299 3.574 0.557 0.742-0.742 0.324-2.32-1.531-1.809-0.465-0.789-1.811-0.512-2.461-1.16-0.651-0.651-3.157-2.506-3.808 0.139z" fill="#fff"/>
			<path stroke-width=".0751" d="m93.44 24.686c1.67-0.092 3.197 0.81 4.223 2.273 0.648 0.93 2.83 1.299 3.574 0.557 0.742-0.742 0.324-2.32-1.531-1.809-0.465-0.789-1.811-0.512-2.461-1.16-0.651-0.651-3.157-2.506-3.808 0.139z" stroke="#000" fill="none"/>
			<path d="m99.706 25.707c-0.443 0.092-0.58 0.858-0.303 1.252" fill="#fff"/>
			<path d="m99.706 25.707c-0.443 0.092-0.58 0.858-0.303 1.252" stroke="#000" stroke-linecap="round" stroke-width=".0751" fill="none"/>
			<path d="m100.66 26.172c0.139 0.23 0.045 0.557-0.023 0.717" fill="#fff"/>
			<path d="m100.66 26.172c0.139 0.23 0.045 0.557-0.023 0.717" stroke="#000" stroke-linecap="round" stroke-width=".0751" fill="none"/>
			<path d="m96.085 24.756c0.859 0.047 1.021 0.672 1.949 0.904" fill="#fff"/>
			<path d="m96.085 24.756c0.859 0.047 1.021 0.672 1.949 0.904" stroke="#000" stroke-linecap="round" stroke-width=".0751" fill="none"/>
			<path d="m95.519 22.645c2.965 0.742 5.318 1.391 6.777 2.227 1.457 0.836 3.717 1.066 5.693 0.51 1.975-0.557 5.787-1.066 5.6 1.393 1.035-1.229-0.283-2.553-2.918-2.783 0.047-1.207-1.244-2.297-2.172-1.578 0.857-0.117 1.6 1.484-0.094 2.135 0.328-1.207-0.871-2.297-2.119-1.764 0.801 0.232 1.609 1.572-0.18 2.088-1.129 0.324-2.777-0.094-4-0.836-1.23-0.744-8.097-3.435-6.591-1.392z" fill="#fff"/>
			<path stroke-width=".0751" d="m95.519 22.645c2.965 0.742 5.318 1.391 6.777 2.227 1.457 0.836 3.717 1.066 5.693 0.51 1.975-0.557 5.787-1.066 5.6 1.393 1.035-1.229-0.283-2.553-2.918-2.783 0.047-1.207-1.244-2.297-2.172-1.578 0.857-0.117 1.6 1.484-0.094 2.135 0.328-1.207-0.871-2.297-2.119-1.764 0.801 0.232 1.609 1.572-0.18 2.088-1.129 0.324-2.777-0.094-4-0.836-1.23-0.744-8.097-3.435-6.591-1.392z" stroke="#000" fill="none"/>
			<path d="m103 21.438c-0.928 0.418-0.324 1.393-1.762 1.949-1.439 0.557-2.438 1.832-2.111 2.924 0.973-2.135 2.689-2.043 3.293-2.877 0.6-0.836 1.48-2.067 0.58-1.996z" fill="#fff"/>
			<path stroke-width=".0751" d="m103 21.438c-0.928 0.418-0.324 1.393-1.762 1.949-1.439 0.557-2.438 1.832-2.111 2.924 0.973-2.135 2.689-2.043 3.293-2.877 0.6-0.836 1.48-2.067 0.58-1.996z" stroke="#000" fill="none"/>
			<path d="m103.26 21.576c-0.047 1.693-1.379 1.076-0.857 3.459 0.162 0.74 0.463 1.947-0.047 3.154 1.496-1.092 0.533-3.383 1.205-4.246 0.326-0.418 0.744-1.068 0.906-1.625-0.35 0.975-0.326 2.785 0.625 3.248-0.766-1.809 2.066-3.293 0.117-5.381-0.29 0.51-1.18 1.415-1.96 1.391z" fill="#fff"/>
			<path stroke-width=".0751" d="m103.26 21.576c-0.047 1.693-1.379 1.076-0.857 3.459 0.162 0.74 0.463 1.947-0.047 3.154 1.496-1.092 0.533-3.383 1.205-4.246 0.326-0.418 0.744-1.068 0.906-1.625-0.35 0.975-0.326 2.785 0.625 3.248-0.766-1.809 2.066-3.293 0.117-5.381-0.29 0.51-1.18 1.415-1.96 1.391z" stroke="#000" fill="none"/>
			<path d="m98.521 19.883c0.232 0.348 0.465 1.231 0.256 1.717 0.465-0.277 1.137-0.998 1.346-1.484 0.951 0.139 1.324 1.322 0.418 1.832 0.557 0 1.508 0 2.041-0.625-0.65-0.721-2.667-1.835-4.059-1.44z" fill="#fff"/>
			<path stroke-width=".0751" d="m98.521 19.883c0.232 0.348 0.465 1.231 0.256 1.717 0.465-0.277 1.137-0.998 1.346-1.484 0.951 0.139 1.324 1.322 0.418 1.832 0.557 0 1.508 0 2.041-0.625-0.65-0.721-2.667-1.835-4.059-1.44z" stroke="#000" fill="none"/>
			<path d="m84.089 16.553c-0.148-0.137-0.404-0.266-0.857-0.359-1.404-0.287-0.68-1.555 0.516-1.543 2.553-2.785 3.984-0.639 7.094-1.519 1.088-0.309 1.836-0.217 2.428 0.039 1.393-0.928 3.025-0.668 4.209 0.422 0.131-0.209 0.309-0.369 0.557-0.438 1.09-0.303 1.971 0.627 2.273 1.832 0.85-0.156 1.82 0.264 2.457 0.844 0.885-0.453 1.494-0.473 1.719-0.008 0.789-0.369 1.811-0.604 2.32 0.65 0.512 1.252-1.205 0.881-1.484 3.525-0.172 1.633-1.994 2.275-3.434 1.301-2.303-1.56-4.547-1.81-5.662 0.557-1.113 2.365-1.984 3.74-4.686 2.969-0.975-0.277-2.229 0.094-3.018 1.162-0.789 1.065-1.994 0.068-3.434 0.186 1.811-0.279 1.117-0.734 2.691-0.836 1.439-0.094 1.068-1.44 1.996-1.625-3.619 0.928-3.48-0.418-6.451 0.51 1.301-1.67 3.342-0.742 4.363-1.717-2.691-0.047-3.895-1.803-5.105-1.066-1.902 1.16-1.066 4.463-6.031 4.176-2.414-0.139-3.945 0.185-5.383 1.625 2.506-5.197 5.914-2.342 7.562-3.992 0.977-0.973 1.717-1.717 2.229-2.644 0.18-0.326 0.422-0.512 0.727-0.586-4.144-1.301-1.646-3.325 2.391-3.465z" fill="#fff"/>
			<path stroke-width=".0751" d="m84.089 16.553c-0.148-0.137-0.404-0.266-0.857-0.359-1.404-0.287-0.68-1.555 0.516-1.543 2.553-2.785 3.984-0.639 7.094-1.519 1.088-0.309 1.836-0.217 2.428 0.039 1.393-0.928 3.025-0.668 4.209 0.422 0.131-0.209 0.309-0.369 0.557-0.438 1.09-0.303 1.971 0.627 2.273 1.832 0.85-0.156 1.82 0.264 2.457 0.844 0.885-0.453 1.494-0.473 1.719-0.008 0.789-0.369 1.811-0.604 2.32 0.65 0.512 1.252-1.205 0.881-1.484 3.525-0.172 1.633-1.994 2.275-3.434 1.301-2.303-1.56-4.547-1.81-5.662 0.557-1.113 2.365-1.984 3.74-4.686 2.969-0.975-0.277-2.229 0.094-3.018 1.162-0.789 1.065-1.994 0.068-3.434 0.186 1.811-0.279 1.117-0.734 2.691-0.836 1.439-0.094 1.068-1.44 1.996-1.625-3.619 0.928-3.48-0.418-6.451 0.51 1.301-1.67 3.342-0.742 4.363-1.717-2.691-0.047-3.895-1.803-5.105-1.066-1.902 1.16-1.066 4.463-6.031 4.176-2.414-0.139-3.945 0.185-5.383 1.625 2.506-5.197 5.914-2.342 7.562-3.992 0.977-0.973 1.717-1.717 2.229-2.644 0.18-0.326 0.422-0.512 0.727-0.586-4.144-1.301-1.646-3.325 2.391-3.465z" stroke="#000" fill="none"/>
			<path d="m104.48 15.824c0.062 0.129 0.096 0.299 0.096 0.51 0 1.02-1.531 1.066-1.623 2.574-0.049 0.789-0.141 1.231-0.674 1.137-0.533-0.092-0.998-0.928-0.488-1.902" fill="#fff"/>
			<path d="m104.48 15.824c0.062 0.129 0.096 0.299 0.096 0.51 0 1.02-1.531 1.066-1.623 2.574-0.049 0.789-0.141 1.231-0.674 1.137-0.533-0.092-0.998-0.928-0.488-1.902" stroke="#000" stroke-linecap="round" stroke-width=".0751" fill="none"/>
			<path d="m84.856 15.033c-0.385-0.27-0.77-0.379-1.115-0.383" fill="#fff"/>
			<path stroke-width=".0751" d="m84.856 15.033c-0.385-0.27-0.77-0.379-1.115-0.383" stroke="#000" fill="none"/>
			<path d="m93.261 13.162c1.229 0.531 1.828 1.809 3.613 1.871 1.719 0.061 2.785 2.553 5.662 0.928 0.078-0.043 0.152-0.084 0.229-0.123" fill="#fff"/>
			<path stroke-width=".0751" d="m93.261 13.162c1.229 0.531 1.828 1.809 3.613 1.871 1.719 0.061 2.785 2.553 5.662 0.928 0.078-0.043 0.152-0.084 0.229-0.123" stroke="#000" fill="none"/>
			<path d="m97.478 13.592c-0.256 0.408-0.314 0.977-0.244 1.477" fill="#fff"/>
			<path stroke-width=".0751" d="m97.478 13.592c-0.256 0.408-0.314 0.977-0.244 1.477" stroke="#000" fill="none"/>
			<path d="m91.862 18.838c-2.182 0-2.736 1.115-2.736 2.182 0 1.068 1.02 2.459 2.828 2.459 1.811 0 2.785-1.113 2.785-2.32 0-1.206-1.113-2.321-2.877-2.321z" fill="#fff"/>
			<path stroke-width=".0751" d="m91.862 18.838c-2.182 0-2.736 1.115-2.736 2.182 0 1.068 1.02 2.459 2.828 2.459 1.811 0 2.785-1.113 2.785-2.32 0-1.206-1.113-2.321-2.877-2.321z" stroke="#000" fill="none"/>
			<path d="m92.257 23.434c-0.047-0.604-1.137-0.512-1.092-0.977 0.047-0.463 0.605-0.648 0.605-1.299s0.975-0.695 1.299-0.184c0.324 0.51 1.299 1.508 1.508 0.996" fill="#fff"/>
			<path stroke-width=".0751" d="m92.257 23.434c-0.047-0.604-1.137-0.512-1.092-0.977 0.047-0.463 0.605-0.648 0.605-1.299s0.975-0.695 1.299-0.184c0.324 0.51 1.299 1.508 1.508 0.996" stroke="#000" fill="none"/>
			<path d="m93.069 20.975c-0.512 0.51-0.742 1.553-0.07 2.365" fill="#fff"/>
			<path stroke-width=".0751" d="m93.069 20.975c-0.512 0.51-0.742 1.553-0.07 2.365" stroke="#000" fill="none"/>
			<path d="m93.765 21.762c-0.162 0.348-0.209 0.883-0.023 1.207" fill="#fff"/>
			<path stroke-width=".0751" d="m93.765 21.762c-0.162 0.348-0.209 0.883-0.023 1.207m8.688-2.912c1.703 0.141 1.994-1.74 0.719-1.855m-2.82-3.216c-0.592-0.754-1.949-1.008-1.973 0.592" stroke="#000" fill="none"/>
			<path d="m98.196 17.4c-0.578-1.439-2.064-1.648-2.854-0.928-0.656 0.598-0.672 2.156 0.742 2.482 0.489-0.579 1.44-1.345 2.112-1.554z" fill="#fff"/>
			<path stroke-width=".0751" d="m98.196 17.4c-0.578-1.439-2.064-1.648-2.854-0.928-0.656 0.598-0.672 2.156 0.742 2.482 0.489-0.579 1.44-1.345 2.112-1.554z" stroke="#000" fill="none"/>
			<path d="m97.558 16.494c-0.834-0.742-2.064 0.662-0.951 1.951" fill="#fff"/>
			<path stroke-width=".0751" d="m97.558 16.494c-0.834-0.742-2.064 0.662-0.951 1.951" stroke="#000" fill="none"/>
			<path d="m100.33 14.986c-0.51-0.545-1.623-0.115-1.311 0.986 0.244-0.509 0.767-0.939 1.311-0.986z"/>
			<path d="m97.177 17.959c0.352-0.256 0.715-0.465 1.02-0.559-0.166-0.412-0.406-0.725-0.684-0.941-0.268-0.185-1.03 0.842-0.336 1.5z"/>
			<path d="m95.808 16.078c-0.836-0.557-1.602-0.512-1.857-0.047-0.604-0.024-1.102 0.418-1.125 1.299m1.286 0.371c-0.996-0.684-2.365-0.43-2.273 1.101m-0.602 0.872c0.486-0.394 1.182-0.674 1.715 0.024m5.733-1.532c-0.186 0.254-0.326 0.649-0.023 1.254-0.371-0.488-1.301-0.488-2.297 0.811m4.525-2.135c-1.205 0.141-1.182 0.928-0.209 1.277m-8.376-4.224c-1.021-0.209-1.764 0.394-0.35 0.906m2.299-1.602c-1.439-0.348-2.02 0.023-1.369 0.348m-2.785 5.429c-0.047 0.512 0.232 1.184 1.066 0.418m-0.787 1.114c0 0.141-0.023 0.303-0.117 0.418m-3.225-7.215c-0.881-0.256-1.043-1.068-0.023-0.998m-0.278 2.877c-0.975-0.326-0.975-1.277-0.162-1.184m1.973 0.695c-1.139-0.277-1.186-1.066-0.326-0.951m0.463-1.463c-0.602-0.045-1.529 0.629 0.025 1.024m1.67 0.324c-1.416-0.209-1.393 0.371-0.557 0.742m1.623-2.09c-1.09-0.207-1.461 0.443-0.719 0.721m-2.714 3.295c-0.266-0.221-0.486-1.277 0.789-0.963m1.857 0.639c-0.859-0.232-1.672 0.604-0.883 1.09m2.018-2.088c-0.904-0.162-1.67 0.092-1.182 0.416" stroke="#000" stroke-linecap="round" stroke-width=".0751" fill="none"/>
			<path d="m81.669 20.01c0.559-0.133 1.377 0.141 2.629 0.732 0.789 0.371 3.156 1.16 4.641 0.371-1.531 0.555-2.691-1.766-3.852-1.486-1.16 0.279-3.283 0.707-4.176-0.139 2.182 0.139 3.354-1.588 5.848-0.092 0.695 0.416 1.578 0.695 2.367 0.648-2.043-2.459-4.734-0.881-5.014-2.877 1.23 1.322 4.234-0.301 5.766 2.18" fill="#fff"/>
			<path stroke-width=".0751" d="m81.669 20.01c0.559-0.133 1.377 0.141 2.629 0.732 0.789 0.371 3.156 1.16 4.641 0.371-1.531 0.555-2.691-1.766-3.852-1.486-1.16 0.279-3.283 0.707-4.176-0.139 2.182 0.139 3.354-1.588 5.848-0.092 0.695 0.416 1.578 0.695 2.367 0.648-2.043-2.459-4.734-0.881-5.014-2.877 1.23 1.322 4.234-0.301 5.766 2.18" stroke="#000" fill="none"/>
			<path d="m100.28 14.988c-0.512 0.094-0.969 0.394-1.264 0.984" fill="#fff"/>
			<path stroke-width=".0751" d="m100.28 14.988c-0.512 0.094-0.969 0.394-1.264 0.984" stroke="#000" fill="none"/>
			<path d="m84.554 17.539c-0.287-0.357-0.156-0.715-0.465-0.996" fill="#fff"/>
			<path stroke-width=".0751" d="m84.554 17.539c-0.287-0.357-0.156-0.715-0.465-0.996" stroke="#000" fill="none"/>
</g>
</svg>
