<?xml version="1.0" encoding="UTF-8" standalone="no"?>
<!-- Generator: Adobe Illustrator 18.0.0, SVG Export Plug-In . SVG Version: 6.00 Build 0)  -->
<!DOCTYPE svg  PUBLIC '-//W3C//DTD SVG 1.1//EN'  'http://www.w3.org/Graphics/SVG/1.1/DTD/svg11.dtd'>
<svg style="enable-background:new 0 0 144 80" xmlns="http://www.w3.org/2000/svg" xml:space="preserve" version="1.1" y="0px" x="0px" xmlns:xlink="http://www.w3.org/1999/xlink" viewBox="0 0 144 80">
<g id="FSM">
		<polygon points="144 80 144 0 0 0 0 80" fill="#75B2DD"/>
		<g fill="#fff">
			<polygon points="71.915 8.477 69.953 14.574 63.499 14.574 68.74 18.369 66.727 24.462 71.915 20.676 77.104 24.462 75.118 18.317 80.332 14.6 73.903 14.6"/>
			<polygon points="45.01 40 51.108 41.962 51.108 48.416 54.903 43.175 60.995 45.188 57.21 40 60.995 34.812 54.852 36.798 51.134 31.584 51.134 38.012"/>
			<polygon points="71.915 71.523 73.878 65.426 80.332 65.426 75.091 61.631 77.104 55.538 71.915 59.324 66.727 55.538 68.714 61.683 63.499 65.4 69.928 65.4"/>
			<polygon points="98.99 40 92.892 38.037 92.892 31.584 89.097 36.824 83.004 34.812 86.79 40 83.004 45.188 89.148 43.202 92.866 48.416 92.866 41.988"/>
		</g>
</g>
</svg>
