<?xml version="1.0" encoding="UTF-8" standalone="no"?>
<!-- Generator: Adobe Illustrator 18.0.0, SVG Export Plug-In . SVG Version: 6.00 Build 0)  -->
<!DOCTYPE svg  PUBLIC '-//W3C//DTD SVG 1.1//EN'  'http://www.w3.org/Graphics/SVG/1.1/DTD/svg11.dtd'>
<svg style="enable-background:new 0 0 144 80" xmlns="http://www.w3.org/2000/svg" xml:space="preserve" version="1.1" y="0px" x="0px" xmlns:xlink="http://www.w3.org/1999/xlink" viewBox="0 0 144 80">
<g id="TKM">
		<polygon points="144 80 144 0 0 0 0 80" fill="#009A67"/>
		<polygon points="33.424 80 33.424 0.067 7.649 0.067 7.649 80" fill="#8A0F5E"/>
			<polygon points="20.537 17.941 21.132 18.555 21.948 18.15 21.948 21.002 22.194 21.002 22.194 19.774 24.086 19.774 24.086 21.619 24.255 21.785 24.255 20.646 26.259 20.646 26.259 22.361 26.427 22.361 26.427 21.594 28.611 21.594 28.611 22.703 29.334 22.703 28.814 23.625 29.334 24.545 28.611 24.545 28.611 25.654 26.427 25.654 26.427 24.889 26.259 24.889 26.259 26.604 24.255 26.604 24.255 25.463 24.086 25.627 24.086 27.475 22.194 27.475 22.194 26.246 21.948 26.246 21.948 29.098 21.132 28.693 20.537 29.307 19.942 28.693 19.126 29.098 19.126 26.246 18.88 26.246 18.88 27.475 16.987 27.475 16.987 25.627 16.819 25.463 16.819 26.604 14.815 26.604 14.815 24.889 14.647 24.889 14.647 25.654 12.462 25.654 12.462 24.545 11.74 24.545 12.259 23.625 11.74 22.703 12.462 22.703 12.462 21.594 14.647 21.594 14.647 22.361 14.815 22.361 14.815 20.646 16.819 20.646 16.819 21.785 16.987 21.619 16.987 19.774 18.88 19.774 18.88 21.002 19.126 21.002 19.126 18.15 19.942 18.555" fill="#F7981D"/>
			<polygon points="12.82 24.166 12.397 24.166 12.689 23.625 12.397 23.082 12.82 23.082" fill="#fff"/>
			<polygon points="28.254 24.166 28.677 24.166 28.386 23.625 28.677 23.082 28.254 23.082" fill="#fff"/>
			<polygon points="12.82 25.301 14.29 25.301 14.29 24.533 15.174 24.533 15.174 26.248 16.462 26.248 16.462 24.609 17.346 25.48 17.346 27.119 18.522 27.119 18.522 25.891 19.484 25.891 19.484 28.527 20.013 28.256 20.536 28.793 21.057 28.256 21.587 28.527 21.587 25.891 22.549 25.891 22.549 27.119 23.725 27.119 23.725 25.48 24.608 24.609 24.608 26.248 25.897 26.248 25.897 24.533 26.781 24.533 26.781 25.301 28.251 25.301 28.251 21.951 26.781 21.951 26.781 22.719 25.897 22.719 25.897 21.002 24.608 21.002 24.608 22.643 23.725 21.77 23.725 20.131 22.549 20.131 22.549 21.359 21.587 21.359 21.587 18.723 21.057 18.994 20.536 18.457 20.013 18.994 19.484 18.723 19.484 21.359 18.522 21.359 18.522 20.131 17.346 20.131 17.346 21.77 16.462 22.643 16.462 21.002 15.174 21.002 15.174 22.719 14.29 22.719 14.29 21.951 12.82 21.951"/>
			<polygon points="17.937 21.143 18.303 20.621 17.569 20.621" fill="#F7981D"/>
			<polygon points="17.937 26.107 18.303 26.629 17.569 26.629" fill="#F7981D"/>
			<polygon points="23.135 21.143 22.768 20.621 23.501 20.621" fill="#F7981D"/>
			<polygon points="23.135 26.107 22.768 26.629 23.501 26.629" fill="#F7981D"/>
			<polygon points="13.592 24.533 15.174 24.533 15.174 26.248 16.462 26.248 16.462 24.609 16.171 24.344 15.526 24.344 15.528 24.002 14.174 24.002 14.174 23.248 15.526 23.248 15.526 22.908 16.171 22.908 16.462 22.643 16.462 21.002 15.174 21.002 15.174 22.719 13.592 22.719" fill="#fff"/>
			<polygon points="27.479 24.533 25.897 24.533 25.897 26.248 24.608 26.248 24.608 24.609 24.899 24.344 25.544 24.344 25.542 24.002 26.897 24.002 26.897 23.248 25.544 23.248 25.544 22.908 24.899 22.908 24.608 22.643 24.608 21.002 25.897 21.002 25.897 22.719 27.479 22.719" fill="#fff"/>
			<polygon points="21.057 21.688 21.057 20.887 21.327 21.024 21.327 19.305 21.057 19.443 20.536 18.904 20.013 19.443 19.743 19.305 19.743 21.024 20.013 20.887 20.013 21.688" fill="#fff"/>
			<polygon points="21.057 25.562 21.057 26.365 21.327 26.227 21.327 27.947 21.057 27.809 20.536 28.346 20.013 27.809 19.743 27.947 19.743 26.227 20.013 26.365 20.013 25.562" fill="#fff"/>
			<polygon points="15.817 22.012 16.184 21.49 15.452 21.49" fill="#8A0F5E"/>
			<polygon points="15.817 25.24 16.184 25.762 15.452 25.762" fill="#8A0F5E"/>
			<polygon points="25.253 22.012 24.887 21.49 25.619 21.49" fill="#8A0F5E"/>
			<polygon points="25.253 25.24 24.887 25.762 25.619 25.762" fill="#8A0F5E"/>
			<polygon points="20.536 20.264 20.169 19.742 20.901 19.742" fill="#8A0F5E"/>
			<polygon points="20.536 26.988 20.169 27.51 20.901 27.51" fill="#8A0F5E"/>
			<polygon points="25.151 23.871 24.297 23.871 24.294 24.406 23.139 25.562 17.935 25.562 16.779 24.406 16.778 23.871 15.924 23.871 15.924 23.377 16.778 23.377 16.779 22.844 17.935 21.686 23.139 21.686 24.294 22.844 24.297 23.377 25.151 23.377" fill="#F7981D"/>
			<polygon points="23.941 24.246 22.988 25.199 18.087 25.199 17.132 24.246 17.132 23.002 18.087 22.049 22.988 22.049 23.941 23.002" fill="#8A0F5E"/>
			<polygon points="18.509 22.406 19.363 23.57 18.432 24.846 19.001 24.846 19.647 23.961 19.967 24.396 19.638 24.846 20.208 24.846 20.536 24.396 19.97 23.623 20.536 22.848 20.212 22.406 19.639 22.406 19.927 22.799 19.647 23.182 19.077 22.406" fill="#F7981D"/>
			<polygon points="22.562 22.406 21.708 23.57 22.64 24.846 22.07 24.846 21.424 23.961 21.104 24.396 21.432 24.846 20.863 24.846 20.536 24.396 21.101 23.623 20.536 22.848 20.858 22.406 21.432 22.406 21.143 22.799 21.424 23.182 21.992 22.406" fill="#F7981D"/>
			<polygon points="18.724 23.625 18.153 22.854 18.153 24.396" fill="#fff"/>
			<polygon points="22.348 23.625 22.918 22.854 22.918 24.396" fill="#fff"/>
			<polygon points="20.536 24.396 21.101 23.623 20.536 22.848 19.97 23.623" fill="#fff"/>
			<polygon points="22.559 40.891 24.971 39.744 24.971 39.434 26.867 39.434 26.867 38.012 28.392 38.012 28.392 34.223 26.867 34.223 26.867 32.799 24.971 32.799 24.971 32.49 22.559 31.344 18.513 31.344 16.101 32.49 16.101 32.799 14.204 32.799 14.204 34.223 12.679 34.223 12.679 38.012 14.204 38.012 14.204 39.434 16.101 39.434 16.101 39.744 18.513 40.891" fill="#F7981D"/>
			<polygon points="22.479 40.539 24.619 39.521 24.619 39.082 26.516 39.082 26.516 37.66 28.04 37.66 28.04 34.574 26.516 34.574 26.516 33.15 24.619 33.15 24.619 32.713 22.479 31.695 18.591 31.695 16.452 32.713 16.452 33.15 14.556 33.15 14.556 34.574 13.031 34.574 13.031 37.66 14.556 37.66 14.556 39.082 16.452 39.082 16.452 39.521 18.591 40.539"/>
			<polygon points="22.396 40.188 24.265 39.301 24.265 38.811 26.163 38.811 26.163 37.309 27.684 37.309 27.684 34.926 26.163 34.926 26.163 33.424 24.265 33.424 24.265 32.934 22.396 32.047 18.671 32.047 16.804 32.934 16.804 33.424 14.903 33.424 14.903 34.926 13.381 34.926 13.381 37.309 14.903 37.309 14.903 38.811 16.804 38.811 16.804 39.301 18.671 40.188" fill="#8A0F5E"/>
			<polygon points="20.534 39.387 23.314 38.055 25.49 38.055 25.49 34.18 23.314 34.18 20.534 32.848 17.754 34.18 15.574 34.18 15.574 38.055 17.754 38.055"/>
			<polygon points="13.381 36.115 13.381 34.926 14.903 34.926 14.903 34.18 15.574 34.18 15.574 35.941 14.249 35.941 14.556 35.742 14.556 35.32" fill="#F7981D"/>
			<polygon points="16.444 34.01 15.266 34.01 15.266 33.713 16.444 33.713" fill="#F7981D"/>
			<polygon points="20.536 33.24 20.536 36.115 24.659 36.115 24.659 34.539 23.249 34.539" fill="#F7981D"/>
			<polygon points="20.536 38.996 20.536 36.115 16.412 36.115 16.412 37.693 17.822 37.693" fill="#F7981D"/>
			<polygon points="20.536 33.24 20.536 36.115 16.412 36.115 16.412 34.539 17.822 34.539" fill="#8A0F5E"/>
			<polygon points="20.536 38.996 20.536 36.115 24.659 36.115 24.659 37.693 23.249 37.693" fill="#8A0F5E"/>
			<polygon points="22.783 36.113 23.688 36.598 22.94 36.951 22.551 36.748 22.901 36.582 22.386 36.314 20.938 37.004 21.452 37.271 21.812 37.098 22.202 37.301 21.444 37.664 20.537 37.193 19.629 37.664 18.873 37.301 19.263 37.098 19.622 37.271 20.137 37.004 18.688 36.314 18.174 36.582 18.523 36.748 18.134 36.951 17.386 36.598 18.291 36.113 17.386 35.631 18.134 35.275 18.523 35.479 18.174 35.645 18.688 35.914 20.137 35.225 19.622 34.957 19.263 35.131 18.873 34.928 19.629 34.564 20.537 35.035 21.444 34.564 22.202 34.928 21.812 35.131 21.452 34.957 20.938 35.225 22.386 35.914 22.901 35.645 22.551 35.479 22.94 35.275 23.688 35.631" fill="#fff"/>
			<polygon points="20.536 36.875 21.992 36.115 20.536 36.115" fill="#F7981D"/>
			<polygon points="20.536 35.424 19.079 36.115 20.536 36.115" fill="#F7981D"/>
			<polygon points="20.536 36.875 19.079 36.115 20.536 36.115"/>
			<polygon points="20.536 35.424 21.992 36.115 20.536 36.115"/>
			<polygon points="17.608 32.9 17.608 34.18 17.754 34.18 20.536 32.848 20.536 32.047 18.671 32.047 18.671 32.645 18.992 32.645 18.992 32.311 20.265 32.311 20.265 32.666 18.692 33.43" fill="#fff"/>
			<polygon points="17.878 33.303 17.878 33.723 18.306 33.52" fill="#F7981D"/>
			<polygon points="17.608 34.18 17.608 32.9 18.692 33.43 20.265 32.666 20.265 32.311 18.992 32.311 18.992 32.645 18.671 32.645 18.671 32.047 16.807 32.934 16.807 34.18" fill="#F7981D"/>
			<polygon points="23.462 39.336 23.462 38.055 23.315 38.055 20.534 39.387 20.534 40.188 22.398 40.188 22.398 39.59 22.077 39.59 22.077 39.924 20.805 39.924 20.805 39.568 22.376 38.805" fill="#fff"/>
			<polygon points="23.19 38.932 23.19 38.512 22.765 38.715" fill="#F7981D"/>
			<polygon points="23.462 38.055 23.462 39.336 22.376 38.805 20.805 39.568 20.805 39.924 22.077 39.924 22.077 39.59 22.398 39.59 22.398 40.188 24.263 39.301 24.263 38.055" fill="#F7981D"/>
			<polygon points="23.46 32.9 23.46 34.18 23.314 34.18 20.532 32.848 20.532 32.047 22.396 32.047 22.396 32.645 22.075 32.645 22.075 32.311 20.803 32.311 20.803 32.666 22.375 33.43" fill="#8A0F5E"/>
			<polygon points="23.189 33.303 23.189 33.723 22.763 33.52" fill="#fff"/>
			<polygon points="23.46 34.18 23.46 32.9 22.375 33.43 20.803 32.666 20.803 32.311 22.075 32.311 22.075 32.645 22.396 32.645 22.396 32.047 24.262 32.934 24.262 34.18" fill="#fff"/>
			<polygon points="17.608 39.336 17.608 38.055 17.754 38.055 20.536 39.387 20.536 40.188 18.671 40.188 18.671 39.59 18.992 39.59 18.992 39.924 20.265 39.924 20.265 39.568 18.692 38.805" fill="#8A0F5E"/>
			<polygon points="17.878 38.932 17.878 38.512 18.306 38.715" fill="#fff"/>
			<polygon points="17.608 38.055 17.608 39.336 18.692 38.805 20.265 39.568 20.265 39.924 18.992 39.924 18.992 39.59 18.671 39.59 18.671 40.188 16.807 39.301 16.807 38.055" fill="#fff"/>
			<polygon points="13.381 36.117 13.381 37.309 14.903 37.309 14.903 38.055 15.574 38.055 15.574 36.291 14.245 36.291 14.551 36.492 14.551 36.912" fill="#fff"/>
			<polygon points="16.441 38.223 15.262 38.223 15.262 38.521 16.441 38.521" fill="#fff"/>
			<polygon points="27.684 36.119 27.684 37.311 26.163 37.311 26.163 38.055 25.49 38.055 25.49 36.293 26.814 36.293 26.509 36.494 26.509 36.914" fill="#F7981D"/>
			<polygon points="24.618 38.225 25.799 38.225 25.799 38.521 24.618 38.521" fill="#F7981D"/>
			<polygon points="27.684 36.117 27.684 34.928 26.163 34.928 26.163 34.182 25.49 34.182 25.49 35.943 26.818 35.943 26.513 35.742 26.513 35.322" fill="#fff"/>
			<polygon points="24.622 34.012 25.803 34.012 25.803 33.715 24.622 33.715" fill="#fff"/>
			<polygon points="20.535 54.498 21.166 53.764 21.878 54.141 21.878 53.336 22.588 53.713 22.588 52.566 25.809 52.566 25.95 52.424 26.383 52.857 26.585 52.408 27.184 52.408 27.184 51.811 27.633 51.607 27.199 51.174 27.542 50.832 27.544 49.992 28.329 49.992 28.001 49.639 28.966 49.639 28.576 49.217 29.336 48.598 28.576 47.979 28.966 47.559 28.001 47.559 28.329 47.203 27.542 47.203 27.542 46.373 27.199 46.029 27.633 45.596 27.184 45.393 27.184 44.795 26.585 44.795 26.383 44.346 25.95 44.779 25.809 44.637 22.588 44.637 22.588 43.49 21.878 43.867 21.878 43.062 21.166 43.441 20.535 42.705 19.904 43.441 19.191 43.062 19.191 43.867 18.482 43.49 18.482 44.637 15.262 44.637 15.12 44.779 14.688 44.346 14.485 44.795 13.887 44.795 13.887 45.393 13.438 45.596 13.871 46.029 13.527 46.373 13.527 47.203 12.74 47.203 13.069 47.559 12.104 47.559 12.493 47.979 11.734 48.598 12.493 49.217 12.104 49.639 13.069 49.639 12.74 49.992 13.527 49.992 13.527 50.832 13.871 51.174 13.438 51.607 13.887 51.811 13.887 52.408 14.485 52.408 14.688 52.857 15.12 52.424 15.262 52.566 18.482 52.566 18.482 53.713 19.191 53.336 19.191 54.141 19.904 53.764" fill="#F7981D"/>
			<polygon points="20.535 43.25 21.083 43.887 21.524 43.652 21.524 44.455 22.233 44.08 22.233 44.992 25.66 44.992 27.184 46.516 27.184 50.688 25.66 52.211 22.233 52.211 22.233 53.123 21.524 52.748 21.524 53.551 21.083 53.316 20.535 53.955 19.987 53.316 19.546 53.551 19.546 52.748 18.837 53.123 18.837 52.211 15.409 52.211 13.887 50.688 13.887 46.516 15.409 44.992 18.837 44.992 18.837 44.08 19.546 44.455 19.546 43.652 19.987 43.887"/>
			<polygon points="25.516 45.346 26.825 46.656 26.825 50.557 25.516 51.865 15.555 51.865 14.245 50.557 14.245 46.656 15.555 45.346" fill="#F7981D"/>
			<polygon points="25.222 51.156 26.059 50.318 26.059 46.895 25.222 46.057 15.849 46.057 15.011 46.895 15.011 50.318 15.849 51.156"/>
			<line y1="51.156" x2="26.059" x1="25.222" y2="50.318"/>
			<line y1="46.895" x2="25.222" x1="26.059" y2="46.057"/>
			<polygon points="16.677 45.834 17.625 45.834 17.625 45.568 16.677 45.568" fill="#8A0F5E"/>
			<polygon points="20.06 45.834 21.01 45.834 21.01 45.568 20.06 45.568" fill="#8A0F5E"/>
			<polygon points="14.761 49.076 14.761 48.127 14.496 48.127 14.496 49.076" fill="#8A0F5E"/>
			<polygon points="16.677 51.379 17.625 51.379 17.625 51.645 16.677 51.645" fill="#8A0F5E"/>
			<polygon points="20.06 51.379 21.01 51.379 21.01 51.645 20.06 51.645" fill="#8A0F5E"/>
			<polygon points="24.393 45.834 23.444 45.834 23.444 45.568 24.393 45.568" fill="#8A0F5E"/>
			<polygon points="26.309 49.076 26.309 48.127 26.574 48.127 26.574 49.076" fill="#8A0F5E"/>
			<polygon points="24.393 51.379 23.444 51.379 23.444 51.645 24.393 51.645" fill="#8A0F5E"/>
			<polygon points="19.317 45.568 19.317 45.834 18.368 45.834 18.368 45.568" fill="#fff"/>
			<polygon points="14.97 46.611 15.641 45.939 15.454 45.754 14.783 46.424" fill="#fff"/>
			<polygon points="19.317 51.645 19.317 51.379 18.368 51.379 18.368 51.645" fill="#fff"/>
			<polygon points="14.97 50.6 15.641 51.271 15.454 51.459 14.783 50.787" fill="#fff"/>
			<polygon points="21.753 45.568 21.753 45.834 22.701 45.834 22.701 45.568" fill="#fff"/>
			<polygon points="26.101 46.611 25.43 45.939 25.616 45.754 26.287 46.424" fill="#fff"/>
			<polygon points="21.753 51.645 21.753 51.379 22.701 51.379 22.701 51.645" fill="#fff"/>
			<polygon points="26.101 50.6 25.43 51.271 25.616 51.459 26.287 50.787" fill="#fff"/>
			<polygon points="20.535 47.104 24.413 47.104 24.942 47.635 24.942 48.602 20.535 48.602" fill="#F7981D"/>
			<polygon points="20.535 47.104 16.657 47.104 16.126 47.635 16.126 48.602 20.535 48.602" fill="#8A0F5E"/>
			<polygon points="18.843 46.865 18.368 46.361 19.317 46.361" fill="#F7981D"/>
			<polygon points="16.124 46.424 16.146 47.115 15.453 47.096" fill="#F7981D"/>
			<polygon points="18.843 50.348 18.368 50.852 19.317 50.852" fill="#F7981D"/>
			<polygon points="16.124 50.789 16.146 50.096 15.453 50.117" fill="#F7981D"/>
			<polygon points="22.228 46.865 22.701 46.361 21.753 46.361" fill="#F7981D"/>
			<polygon points="24.946 46.424 24.925 47.115 25.617 47.096" fill="#F7981D"/>
			<polygon points="22.228 50.348 22.701 50.852 21.753 50.852" fill="#F7981D"/>
			<polygon points="24.946 50.789 24.925 50.096 25.617 50.117" fill="#F7981D"/>
			<polygon points="17.625 46.361 17.15 46.865 16.677 46.361" fill="#fff"/>
			<polygon points="21.01 46.361 20.535 46.865 20.06 46.361" fill="#fff"/>
			<polygon points="15.288 48.127 15.792 48.602 15.288 49.076" fill="#fff"/>
			<polygon points="17.625 50.852 17.15 50.348 16.677 50.852" fill="#fff"/>
			<polygon points="21.01 50.852 20.535 50.348 20.06 50.852" fill="#fff"/>
			<polygon points="23.444 46.361 23.92 46.865 24.393 46.361" fill="#fff"/>
			<polygon points="25.782 48.127 25.278 48.602 25.782 49.076" fill="#fff"/>
			<polygon points="23.444 50.852 23.92 50.348 24.393 50.852" fill="#fff"/>
			<path d="m13.887 47.559h-0.335l0.285 0.307h-0.964l0.329 0.355h-0.457s-0.452 0.373-0.458 0.377c0.006 0.004 0.458 0.379 0.458 0.379h0.457l-0.329 0.355h0.964l-0.285 0.307h0.335v-2.08z" fill="#fff"/>
			<polygon points="15.12 45.281 14.794 44.955 14.689 45.15 14.241 45.15 14.241 45.598 14.046 45.703 14.373 46.029" fill="#fff"/>
			<polygon points="15.12 51.932 14.794 52.256 14.689 52.062 14.241 52.062 14.241 51.613 14.046 51.51 14.373 51.184" fill="#fff"/>
			<path d="m27.184 47.559h0.335l-0.286 0.307h0.964l-0.328 0.355h0.457s0.451 0.373 0.458 0.377c-0.007 0.004-0.458 0.379-0.458 0.379h-0.457l0.328 0.355h-0.964l0.286 0.307h-0.335v-2.08z" fill="#fff"/>
			<polygon points="25.95 45.281 26.275 44.955 26.381 45.15 26.829 45.15 26.829 45.598 27.023 45.703 26.696 46.029" fill="#fff"/>
			<polygon points="25.95 51.932 26.275 52.256 26.381 52.062 26.829 52.062 26.829 51.613 27.023 51.51 26.696 51.184" fill="#fff"/>
			<polygon points="21.973 44.994 21.973 44.516 21.263 44.889 21.263 44.088 20.86 44.299 20.86 44.031 20.534 43.652 20.208 44.031 20.208 44.299 19.805 44.088 19.805 44.889 19.095 44.516 19.095 44.994" fill="#fff"/>
			<path d="m21.973 52.219v0.479l-0.71-0.373v0.801l-0.402-0.211s-0.004 0.268 0 0.266c0 0-0.328 0.383-0.326 0.379 0.002 0.004-0.328-0.379-0.328-0.379 0.006 0.002 0.002-0.266 0.002-0.266l-0.403 0.211v-0.801l-0.71 0.373v-0.479h2.877z" fill="#fff"/>
			<polygon points="20.535 50.102 16.657 50.102 16.126 49.572 16.126 48.602 20.535 48.602" fill="#F7981D"/>
			<polygon points="20.535 50.102 24.413 50.102 24.942 49.572 24.942 48.602 20.535 48.602" fill="#8A0F5E"/>
			<polygon points="23.671 48.6 24.184 49.148 23.545 49.703 23.161 49.703 23.834 49.121 23.513 48.783 20.717 48.783 20.717 49.152 21.159 49.404 21.44 49.139 21.799 49.139 21.189 49.727 20.537 49.354 19.885 49.727 19.275 49.139 19.634 49.139 19.915 49.404 20.358 49.152 20.358 48.783 17.562 48.783 17.24 49.121 17.911 49.703 17.53 49.703 16.89 49.148 17.402 48.6 16.89 48.055 17.53 47.498 17.911 47.498 17.24 48.08 17.562 48.42 20.358 48.42 20.358 48.051 19.915 47.797 19.634 48.062 19.275 48.062 19.885 47.477 20.537 47.848 21.189 47.477 21.799 48.062 21.44 48.062 21.159 47.797 20.717 48.051 20.717 48.42 23.513 48.42 23.834 48.08 23.161 47.498 23.545 47.498 24.184 48.055" fill="#fff"/>
			<polygon points="10.479 21.865 11.289 21.332 10.789 21.332 10.789 20.582 12.66 19.389 11.882 18.801 11.796 18.855 11.796 19.535 11.541 19.695 11.541 18.713 12.782 17.912 14.349 17.912 13.95 18.168 12.989 18.168 13.718 18.719 15.811 17.379 13.718 16.041 12.989 16.59 13.95 16.59 14.349 16.846 12.782 16.846 11.541 16.047 11.541 15.062 11.796 15.227 11.796 15.904 11.882 15.959 12.66 15.369 10.789 14.176 10.789 13.426 11.289 13.426 10.479 12.893"/>
			<polygon points="15.811 17.379 13.718 18.719 12.989 18.168 13.95 18.168 14.349 17.912 12.782 17.912 11.541 18.713 11.541 19.695 11.796 19.535 11.796 18.855 11.882 18.801 12.66 19.389 10.789 20.582 10.789 21.332 11.289 21.332 10.479 21.865 10.479 22.268 12.164 21.049 11.042 21.049 11.042 20.721 13.115 19.402 12.111 18.654 12.708 18.277 13.706 19.025 16.297 17.379 13.706 15.732 12.708 16.482 12.111 16.104 13.115 15.356 11.042 14.039 11.042 13.711 12.164 13.711 10.479 12.49 10.479 12.893 11.289 13.426 10.789 13.426 10.789 14.176 12.66 15.369 11.882 15.959 11.796 15.904 11.796 15.227 11.541 15.062 11.541 16.047 12.782 16.846 14.349 16.846 13.95 16.59 12.989 16.59 13.718 16.041" fill="#F7981D"/>
			<polygon points="10.787 15.236 10.787 14.592 11.181 14.836 11.181 15.236" fill="#F7981D"/>
			<polygon points="10.787 16.135 11.181 16.135 11.181 15.461 10.787 15.461" fill="#8A0F5E"/>
			<polygon points="10.787 19.521 10.787 20.166 11.181 19.924 11.181 19.521" fill="#F7981D"/>
			<polygon points="10.787 18.623 11.181 18.623 11.181 19.299 10.787 19.299" fill="#8A0F5E"/>
			<polygon points="10.678 18.266 11.515 18.266 12.476 17.674 12.476 17.084 11.515 16.492 10.678 16.492" fill="#F7981D"/>
			<polygon points="14.555 17.783 15.168 17.379 14.555 16.975" fill="#F7981D"/>
			<polygon points="12.783 17.652 14.306 17.652 14.306 17.105 12.783 17.105" fill="#8A0F5E"/>
			<polygon points="10.479 4.693 10.479 9.438 11.288 8.902 10.788 8.902 10.788 8.154 12.659 6.961 11.88 6.371 11.794 6.426 11.794 7.103 11.539 7.266 11.539 6.283 12.781 5.484 14.348 5.484 13.948 5.74 12.988 5.74 13.717 6.289 16.214 4.693"/>
			<polygon points="16.21 4.693 13.717 6.289 12.988 5.74 13.948 5.74 14.348 5.484 12.781 5.484 11.539 6.283 11.539 7.266 11.794 7.103 11.794 6.426 11.88 6.371 12.659 6.961 10.788 8.154 10.788 8.902 11.287 8.902 10.479 9.438 10.479 9.84 12.161 8.619 11.04 8.619 11.04 8.291 13.112 6.975 12.11 6.227 12.706 5.848 13.705 6.598 16.696 4.693" fill="#F7981D"/>
			<polygon points="10.786 7.092 10.786 7.738 11.179 7.494 11.179 7.092" fill="#F7981D"/>
			<polygon points="10.786 6.195 11.179 6.195 11.179 6.869 10.786 6.869" fill="#8A0F5E"/>
			<polygon points="10.675 4.957 10.675 5.838 11.513 5.836 12.475 5.244 12.475 4.957" fill="#F7981D"/>
			<polygon points="14.554 4.957 14.554 5.353 15.167 4.957" fill="#F7981D"/>
			<polygon points="12.782 4.957 12.782 5.223 14.305 5.223 14.305 4.957" fill="#8A0F5E"/>
			<polygon points="30.594 21.865 29.784 21.332 30.284 21.332 30.284 20.582 28.413 19.389 29.192 18.801 29.278 18.855 29.278 19.535 29.533 19.695 29.533 18.713 28.291 17.912 26.726 17.912 27.124 18.168 28.084 18.168 27.355 18.719 25.263 17.379 27.355 16.041 28.084 16.59 27.124 16.59 26.726 16.846 28.291 16.846 29.533 16.047 29.533 15.062 29.278 15.227 29.278 15.904 29.192 15.959 28.413 15.369 30.284 14.176 30.284 13.426 29.784 13.426 30.594 12.893"/>
			<polygon points="25.263 17.379 27.355 18.719 28.084 18.168 27.124 18.168 26.726 17.912 28.291 17.912 29.533 18.713 29.533 19.695 29.278 19.535 29.278 18.855 29.192 18.801 28.413 19.389 30.284 20.582 30.284 21.332 29.785 21.332 30.594 21.865 30.594 22.268 28.909 21.049 30.032 21.049 30.032 20.721 27.959 19.402 28.962 18.654 28.366 18.277 27.368 19.025 24.776 17.379 27.368 15.732 28.366 16.482 28.962 16.104 27.959 15.356 30.032 14.039 30.032 13.711 28.909 13.711 30.594 12.49 30.594 12.893 29.785 13.426 30.284 13.426 30.284 14.176 28.413 15.369 29.192 15.959 29.278 15.904 29.278 15.227 29.533 15.062 29.533 16.047 28.291 16.846 26.726 16.846 27.124 16.59 28.084 16.59 27.355 16.041" fill="#F7981D"/>
			<polygon points="30.286 15.236 30.286 14.592 29.893 14.836 29.893 15.236" fill="#F7981D"/>
			<polygon points="30.286 16.135 29.893 16.135 29.893 15.461 30.286 15.461" fill="#8A0F5E"/>
			<polygon points="30.286 19.521 30.286 20.166 29.893 19.924 29.893 19.521" fill="#F7981D"/>
			<polygon points="30.286 18.623 29.893 18.623 29.893 19.299 30.286 19.299" fill="#8A0F5E"/>
			<polygon points="30.397 18.266 29.559 18.266 28.599 17.674 28.599 17.084 29.559 16.492 30.397 16.492" fill="#F7981D"/>
			<polygon points="26.52 17.783 25.906 17.379 26.52 16.975" fill="#F7981D"/>
			<polygon points="28.29 17.652 26.768 17.652 26.768 17.105 28.29 17.105" fill="#8A0F5E"/>
			<polygon points="30.595 4.693 30.595 9.438 29.786 8.902 30.286 8.902 30.286 8.154 28.415 6.961 29.192 6.371 29.279 6.426 29.279 7.103 29.535 7.266 29.535 6.283 28.293 5.484 26.726 5.484 27.125 5.74 28.086 5.74 27.357 6.289 24.86 4.693"/>
			<polygon points="24.864 4.693 27.357 6.289 28.086 5.74 27.125 5.74 26.726 5.484 28.293 5.484 29.535 6.283 29.535 7.266 29.279 7.103 29.279 6.426 29.192 6.371 28.415 6.961 30.286 8.154 30.286 8.902 29.786 8.902 30.595 9.438 30.595 9.84 28.912 8.619 30.033 8.619 30.033 8.291 27.961 6.975 28.964 6.227 28.367 5.848 27.369 6.598 24.378 4.693" fill="#F7981D"/>
			<polygon points="30.288 7.092 30.288 7.738 29.895 7.494 29.895 7.092" fill="#F7981D"/>
			<polygon points="30.288 6.195 29.895 6.195 29.895 6.869 30.288 6.869" fill="#8A0F5E"/>
			<polygon points="30.398 4.957 30.398 5.838 29.562 5.836 28.6 5.244 28.6 4.957" fill="#F7981D"/>
			<polygon points="26.521 4.957 26.521 5.353 25.907 4.957" fill="#F7981D"/>
			<polygon points="28.292 4.957 28.292 5.223 26.77 5.223 26.77 4.957" fill="#8A0F5E"/>
			<polygon points="10.479 50.363 11.289 50.896 10.789 50.896 10.789 51.646 12.66 52.84 11.882 53.428 11.796 53.375 11.796 52.695 11.541 52.533 11.541 53.518 12.782 54.316 14.349 54.316 13.95 54.061 12.989 54.061 13.718 53.51 15.811 54.85 13.718 56.189 12.989 55.639 13.95 55.639 14.349 55.383 12.782 55.383 11.541 56.182 11.541 57.166 11.796 57.004 11.796 56.324 11.882 56.27 12.66 56.859 10.789 58.053 10.789 58.803 11.289 58.803 10.479 59.336"/>
			<polygon points="15.811 54.85 13.718 53.51 12.989 54.061 13.95 54.061 14.349 54.316 12.782 54.316 11.541 53.518 11.541 52.533 11.796 52.695 11.796 53.375 11.882 53.428 12.66 52.84 10.789 51.646 10.789 50.896 11.289 50.896 10.479 50.363 10.479 49.959 12.164 51.18 11.042 51.18 11.042 51.508 13.115 52.826 12.111 53.574 12.708 53.951 13.706 53.203 16.297 54.85 13.706 56.496 12.708 55.746 12.111 56.125 13.115 56.873 11.042 58.189 11.042 58.52 12.164 58.52 10.479 59.738 10.479 59.336 11.289 58.803 10.789 58.803 10.789 58.053 12.66 56.859 11.882 56.27 11.796 56.324 11.796 57.004 11.541 57.166 11.541 56.182 12.782 55.383 14.349 55.383 13.95 55.639 12.989 55.639 13.718 56.189" fill="#F7981D"/>
			<polygon points="10.787 56.992 10.787 57.637 11.181 57.393 11.181 56.992" fill="#F7981D"/>
			<polygon points="10.787 56.094 11.181 56.094 11.181 56.768 10.787 56.768" fill="#8A0F5E"/>
			<polygon points="10.787 52.707 10.787 52.062 11.181 52.305 11.181 52.707" fill="#F7981D"/>
			<polygon points="10.787 53.605 11.181 53.605 11.181 52.93 10.787 52.93" fill="#8A0F5E"/>
			<polygon points="10.678 53.963 11.515 53.963 12.476 54.555 12.476 55.145 11.515 55.736 10.678 55.736" fill="#F7981D"/>
			<polygon points="14.555 54.445 15.168 54.85 14.555 55.252" fill="#F7981D"/>
			<polygon points="12.783 54.576 14.306 54.576 14.306 55.123 12.783 55.123" fill="#8A0F5E"/>
			<polygon points="30.594 50.363 29.784 50.896 30.284 50.896 30.284 51.646 28.413 52.84 29.192 53.428 29.278 53.375 29.278 52.695 29.533 52.533 29.533 53.518 28.291 54.316 26.726 54.316 27.124 54.061 28.084 54.061 27.355 53.51 25.263 54.85 27.355 56.189 28.084 55.639 27.124 55.639 26.726 55.383 28.291 55.383 29.533 56.182 29.533 57.166 29.278 57.004 29.278 56.324 29.192 56.27 28.413 56.859 30.284 58.053 30.284 58.803 29.784 58.803 30.594 59.336"/>
			<polygon points="25.263 54.85 27.355 53.51 28.084 54.061 27.124 54.061 26.726 54.316 28.291 54.316 29.533 53.518 29.533 52.533 29.278 52.695 29.278 53.375 29.192 53.428 28.413 52.84 30.284 51.646 30.284 50.896 29.785 50.896 30.594 50.363 30.594 49.959 28.909 51.18 30.032 51.18 30.032 51.508 27.959 52.826 28.962 53.574 28.366 53.951 27.368 53.203 24.776 54.85 27.368 56.496 28.366 55.746 28.962 56.125 27.959 56.873 30.032 58.189 30.032 58.52 28.909 58.52 30.594 59.738 30.594 59.336 29.785 58.803 30.284 58.803 30.284 58.053 28.413 56.859 29.192 56.27 29.278 56.324 29.278 57.004 29.533 57.166 29.533 56.182 28.291 55.383 26.726 55.383 27.124 55.639 28.084 55.639 27.355 56.189" fill="#F7981D"/>
			<polygon points="30.286 56.992 30.286 57.637 29.893 57.393 29.893 56.992" fill="#F7981D"/>
			<polygon points="30.286 56.094 29.893 56.094 29.893 56.768 30.286 56.768" fill="#8A0F5E"/>
			<polygon points="30.286 52.707 30.286 52.062 29.893 52.305 29.893 52.707" fill="#F7981D"/>
			<polygon points="30.286 53.605 29.893 53.605 29.893 52.93 30.286 52.93" fill="#8A0F5E"/>
			<polygon points="30.397 53.963 29.559 53.963 28.599 54.555 28.599 55.145 29.559 55.736 30.397 55.736" fill="#F7981D"/>
			<polygon points="26.52 54.445 25.906 54.85 26.52 55.252" fill="#F7981D"/>
			<polygon points="28.29 54.576 26.768 54.576 26.768 55.123 28.29 55.123" fill="#8A0F5E"/>
			<polygon points="10.479 34.355 11.289 33.822 10.789 33.822 10.789 33.072 12.66 31.879 11.882 31.291 11.796 31.344 11.796 32.023 11.541 32.186 11.541 31.201 12.782 30.402 14.349 30.402 13.95 30.658 12.989 30.658 13.718 31.209 15.811 29.869 13.718 28.531 12.989 29.08 13.95 29.08 14.349 29.336 12.782 29.336 11.541 28.537 11.541 27.553 11.796 27.715 11.796 28.395 11.882 28.449 12.66 27.859 10.789 26.666 10.789 25.916 11.289 25.916 10.479 25.383"/>
			<polygon points="15.811 29.869 13.718 31.209 12.989 30.658 13.95 30.658 14.349 30.402 12.782 30.402 11.541 31.201 11.541 32.186 11.796 32.023 11.796 31.344 11.882 31.291 12.66 31.879 10.789 33.072 10.789 33.822 11.289 33.822 10.479 34.355 10.479 34.758 12.164 33.539 11.042 33.539 11.042 33.211 13.115 31.893 12.111 31.145 12.708 30.768 13.706 31.516 16.297 29.869 13.706 28.223 12.708 28.973 12.111 28.594 13.115 27.846 11.042 26.527 11.042 26.201 12.164 26.201 10.479 24.98 10.479 25.383 11.289 25.916 10.789 25.916 10.789 26.666 12.66 27.859 11.882 28.449 11.796 28.395 11.796 27.715 11.541 27.553 11.541 28.537 12.782 29.336 14.349 29.336 13.95 29.08 12.989 29.08 13.718 28.531" fill="#F7981D"/>
			<polygon points="10.787 27.727 10.787 27.082 11.181 27.324 11.181 27.727" fill="#F7981D"/>
			<polygon points="10.787 28.625 11.181 28.625 11.181 27.949 10.787 27.949" fill="#8A0F5E"/>
			<polygon points="10.787 32.012 10.787 32.656 11.181 32.414 11.181 32.012" fill="#F7981D"/>
			<polygon points="10.787 31.113 11.181 31.113 11.181 31.789 10.787 31.789" fill="#8A0F5E"/>
			<polygon points="10.678 30.756 11.515 30.756 12.476 30.164 12.476 29.574 11.515 28.982 10.678 28.98" fill="#F7981D"/>
			<polygon points="14.555 30.274 15.168 29.869 14.555 29.465" fill="#F7981D"/>
			<polygon points="12.783 30.143 14.306 30.143 14.306 29.596 12.783 29.596" fill="#8A0F5E"/>
			<polygon points="30.594 34.355 29.784 33.822 30.284 33.822 30.284 33.072 28.413 31.879 29.192 31.291 29.278 31.344 29.278 32.023 29.533 32.186 29.533 31.201 28.291 30.402 26.726 30.402 27.124 30.658 28.084 30.658 27.355 31.209 25.263 29.869 27.355 28.531 28.084 29.08 27.124 29.08 26.726 29.336 28.291 29.336 29.533 28.537 29.533 27.553 29.278 27.715 29.278 28.395 29.192 28.449 28.413 27.859 30.284 26.666 30.284 25.916 29.784 25.916 30.594 25.383"/>
			<polygon points="25.263 29.869 27.355 31.209 28.084 30.658 27.124 30.658 26.726 30.402 28.291 30.402 29.533 31.201 29.533 32.186 29.278 32.023 29.278 31.344 29.192 31.291 28.413 31.879 30.284 33.072 30.284 33.822 29.785 33.822 30.594 34.355 30.594 34.758 28.909 33.539 30.032 33.539 30.032 33.211 27.959 31.893 28.962 31.145 28.366 30.768 27.368 31.516 24.776 29.869 27.368 28.223 28.366 28.973 28.962 28.594 27.959 27.846 30.032 26.527 30.032 26.201 28.909 26.201 30.594 24.98 30.594 25.383 29.785 25.916 30.284 25.916 30.284 26.666 28.413 27.859 29.192 28.449 29.278 28.395 29.278 27.715 29.533 27.553 29.533 28.537 28.291 29.336 26.726 29.336 27.124 29.08 28.084 29.08 27.355 28.531" fill="#F7981D"/>
			<polygon points="30.286 27.727 30.286 27.082 29.893 27.324 29.893 27.727" fill="#F7981D"/>
			<polygon points="30.286 28.625 29.893 28.625 29.893 27.949 30.286 27.949" fill="#8A0F5E"/>
			<polygon points="30.286 32.012 30.286 32.656 29.893 32.414 29.893 32.012" fill="#F7981D"/>
			<polygon points="30.286 31.113 29.893 31.113 29.893 31.789 30.286 31.789" fill="#8A0F5E"/>
			<polygon points="30.397 30.756 29.559 30.756 28.599 30.164 28.599 29.574 29.559 28.982 30.397 28.98" fill="#F7981D"/>
			<polygon points="26.52 30.274 25.906 29.869 26.52 29.465" fill="#F7981D"/>
			<polygon points="28.29 30.143 26.768 30.143 26.768 29.596 28.29 29.596" fill="#8A0F5E"/>
			<polygon points="10.479 46.85 11.289 46.316 10.789 46.316 10.789 45.566 12.66 44.373 11.882 43.783 11.796 43.838 11.796 44.518 11.541 44.68 11.541 43.695 12.782 42.895 14.349 42.895 13.95 43.152 12.989 43.152 13.718 43.703 15.811 42.363 13.718 41.023 12.989 41.574 13.95 41.574 14.349 41.83 12.782 41.83 11.541 41.031 11.541 40.047 11.796 40.209 11.796 40.887 11.882 40.941 12.66 40.354 10.789 39.16 10.789 38.41 11.289 38.41 10.479 37.877"/>
			<polygon points="15.811 42.363 13.718 43.703 12.989 43.152 13.95 43.152 14.349 42.895 12.782 42.895 11.541 43.695 11.541 44.68 11.796 44.518 11.796 43.838 11.882 43.783 12.66 44.373 10.789 45.566 10.789 46.316 11.289 46.316 10.479 46.85 10.479 47.252 12.164 46.031 11.042 46.031 11.042 45.705 13.115 44.387 12.111 43.639 12.708 43.26 13.706 44.01 16.297 42.363 13.706 40.715 12.708 41.465 12.111 41.088 13.115 40.34 11.042 39.021 11.042 38.693 12.164 38.693 10.479 37.473 10.479 37.877 11.289 38.41 10.789 38.41 10.789 39.16 12.66 40.354 11.882 40.941 11.796 40.887 11.796 40.209 11.541 40.047 11.541 41.031 12.782 41.83 14.349 41.83 13.95 41.574 12.989 41.574 13.718 41.023" fill="#F7981D"/>
			<polygon points="10.787 40.221 10.787 39.576 11.181 39.818 11.181 40.221" fill="#F7981D"/>
			<polygon points="10.787 41.119 11.181 41.119 11.181 40.443 10.787 40.443" fill="#8A0F5E"/>
			<polygon points="10.787 44.504 10.787 45.15 11.181 44.906 11.181 44.504" fill="#F7981D"/>
			<polygon points="10.787 43.607 11.181 43.607 11.181 44.281 10.787 44.281" fill="#8A0F5E"/>
			<polygon points="10.678 43.25 11.515 43.248 12.476 42.656 12.476 42.068 11.515 41.477 10.678 41.475" fill="#F7981D"/>
			<polygon points="14.555 42.766 15.168 42.363 14.555 41.959" fill="#F7981D"/>
			<polygon points="12.783 42.637 14.306 42.637 14.306 42.09 12.783 42.09" fill="#8A0F5E"/>
			<polygon points="30.594 46.85 29.784 46.316 30.284 46.316 30.284 45.566 28.413 44.373 29.192 43.783 29.278 43.838 29.278 44.518 29.533 44.68 29.533 43.695 28.291 42.895 26.726 42.895 27.124 43.152 28.084 43.152 27.355 43.703 25.263 42.363 27.355 41.023 28.084 41.574 27.124 41.574 26.726 41.83 28.291 41.83 29.533 41.031 29.533 40.047 29.278 40.209 29.278 40.887 29.192 40.941 28.413 40.354 30.284 39.16 30.284 38.41 29.784 38.41 30.594 37.877"/>
			<polygon points="25.263 42.363 27.355 43.703 28.084 43.152 27.124 43.152 26.726 42.895 28.291 42.895 29.533 43.695 29.533 44.68 29.278 44.518 29.278 43.838 29.192 43.783 28.413 44.373 30.284 45.566 30.284 46.316 29.785 46.316 30.594 46.85 30.594 47.252 28.909 46.031 30.032 46.031 30.032 45.705 27.959 44.387 28.962 43.639 28.366 43.26 27.368 44.01 24.776 42.363 27.368 40.715 28.366 41.465 28.962 41.088 27.959 40.34 30.032 39.021 30.032 38.693 28.909 38.693 30.594 37.473 30.594 37.877 29.785 38.41 30.284 38.41 30.284 39.16 28.413 40.354 29.192 40.941 29.278 40.887 29.278 40.209 29.533 40.047 29.533 41.031 28.291 41.83 26.726 41.83 27.124 41.574 28.084 41.574 27.355 41.023" fill="#F7981D"/>
			<polygon points="30.286 40.221 30.286 39.576 29.893 39.818 29.893 40.221" fill="#F7981D"/>
			<polygon points="30.286 41.119 29.893 41.119 29.893 40.443 30.286 40.443" fill="#8A0F5E"/>
			<polygon points="30.286 44.504 30.286 45.15 29.893 44.906 29.893 44.504" fill="#F7981D"/>
			<polygon points="30.286 43.607 29.893 43.607 29.893 44.281 30.286 44.281" fill="#8A0F5E"/>
			<polygon points="30.397 43.25 29.559 43.248 28.599 42.656 28.599 42.068 29.559 41.477 30.397 41.475" fill="#F7981D"/>
			<polygon points="26.52 42.766 25.906 42.363 26.52 41.959" fill="#F7981D"/>
			<polygon points="28.29 42.637 26.768 42.637 26.768 42.09 28.29 42.09" fill="#8A0F5E"/>
			<polygon points="25.866 65.918 28.393 63.391 28.393 58.791 25.866 56.264 15.203 56.264 12.676 58.791 12.676 63.391 15.203 65.918" fill="#F7981D"/>
			<polygon points="25.719 65.561 28.036 63.242 28.036 58.939 25.719 56.621 15.351 56.621 13.032 58.939 13.032 63.242 15.351 65.561"/>
			<path d="m18.339 65.203h-2.84l-2.109-2.109v-2.002h3.097v2.088h2.602l0.872 0.641v1.025h-0.418v-0.469c-0.001 0-1.214 0.826-1.204 0.826z" fill="#fff"/>
			<path d="m22.732 56.979h2.84l2.109 2.109v2.004h-3.098v-2.09h-2.601l-0.872-0.641v-1.025h0.417v0.469c0.001 0 1.215-0.826 1.205-0.826z" fill="#fff"/>
			<path d="m18.339 56.979h-2.84l-2.109 2.109v2.004h3.097v-2.09h2.602l0.872-0.641v-1.025h-0.418v0.469c-0.001 0-1.214-0.826-1.204-0.826z" fill="#F7981D"/>
			<path d="m22.732 65.203h2.84l2.109-2.109v-2.002h-3.098v2.088h-2.601l-0.872 0.641v1.025h0.417v-0.469c0.001 0 1.215 0.826 1.205 0.826z" fill="#F7981D"/>
			<path d="m16.486 61.092v-2.09h2.602l0.872-0.641v-1.025h-0.418v0.469s-1.213-0.826-1.203-0.826h2.197v1.402l-1.331 0.976h-2.36v1.734h-0.359v0.001z" fill="#fff"/>
			<path d="m24.584 61.092v2.088h-2.603l-0.872 0.641v1.025h0.417v-0.469s1.214 0.826 1.203 0.826h-2.193v-1.402l1.327-0.979h2.364v-1.73h0.357z" fill="#fff"/>
			<polygon points="20.536 58.381 19.205 59.357 16.845 59.357 16.845 61.092 17.395 61.092 17.395 60.48 18.99 59.715 20.536 59.715" fill="#F7981D"/>
			<polygon points="20.536 63.801 21.863 62.822 24.228 62.822 24.228 61.092 23.679 61.092 23.679 61.701 22.077 62.465 20.536 62.465" fill="#F7981D"/>
			<polygon points="15.274 60.104 15.274 60.678 15.886 60.678 15.886 59.094 15.274 59.094 15.274 59.668 14.65 59.668 14.65 59.094 14.04 59.094 14.04 60.678 14.65 60.678 14.65 60.104" fill="#8A0F5E"/>
			<polygon points="17.323 58.158 17.323 58.732 17.934 58.732 17.934 57.148 17.323 57.148 17.323 57.723 16.699 57.723 16.699 57.148 16.088 57.148 16.088 58.732 16.699 58.732 16.699 58.158" fill="#8A0F5E"/>
			<polygon points="15.274 62.078 15.274 61.504 15.886 61.504 15.886 63.088 15.274 63.088 15.274 62.514 14.65 62.514 14.65 63.088 14.04 63.088 14.04 61.504 14.65 61.504 14.65 62.078" fill="#8A0F5E"/>
			<polygon points="17.323 64.023 17.323 63.449 17.934 63.449 17.934 65.033 17.323 65.033 17.323 64.459 16.699 64.459 16.699 65.033 16.088 65.033 16.088 63.449 16.699 63.449 16.699 64.023" fill="#8A0F5E"/>
			<polygon points="25.794 60.104 25.794 60.678 25.183 60.678 25.183 59.094 25.794 59.094 25.794 59.668 26.418 59.668 26.418 59.094 27.028 59.094 27.028 60.678 26.418 60.678 26.418 60.104" fill="#8A0F5E"/>
			<polygon points="23.745 58.158 23.745 58.732 23.134 58.732 23.134 57.148 23.745 57.148 23.745 57.723 24.369 57.723 24.369 57.148 24.979 57.148 24.979 58.732 24.369 58.732 24.369 58.158" fill="#8A0F5E"/>
			<polygon points="25.794 62.078 25.794 61.504 25.183 61.504 25.183 63.088 25.794 63.088 25.794 62.514 26.418 62.514 26.418 63.088 27.028 63.088 27.028 61.504 26.418 61.504 26.418 62.078" fill="#8A0F5E"/>
			<polygon points="23.745 64.023 23.745 63.449 23.134 63.449 23.134 65.033 23.745 65.033 23.745 64.459 24.369 64.459 24.369 65.033 24.979 65.033 24.979 63.449 24.369 63.449 24.369 64.023" fill="#8A0F5E"/>
			<polygon points="14.412 58.74 15.436 58.74 15.436 57.717" fill="#fff"/>
			<polygon points="26.656 63.441 25.632 63.441 25.632 64.465" fill="#fff"/>
			<polygon points="14.412 63.441 15.436 63.441 15.436 64.465" fill="#F7981D"/>
			<polygon points="26.656 58.74 25.632 58.74 25.632 57.717" fill="#F7981D"/>
			<polygon points="20.536 58.381 21.869 59.357 24.228 59.357 24.228 61.092 23.679 61.092 23.679 60.48 22.083 59.715 20.536 59.715" fill="#8A0F5E"/>
			<polygon points="20.536 63.801 19.21 62.822 16.845 62.822 16.845 61.092 17.395 61.092 17.395 61.701 18.997 62.465 20.536 62.465" fill="#8A0F5E"/>
			<polygon points="23.456 61.561 22.028 62.244 20.95 62.244 20.95 61.879 21.395 61.553 21.395 61.979 22.028 61.676 21.395 61.207 20.536 61.836 19.678 61.207 19.044 61.676 19.678 61.979 19.678 61.553 20.123 61.879 20.123 62.244 19.044 62.244 17.617 61.561 17.617 60.619 19.044 59.938 20.123 59.938 20.123 60.303 19.678 60.629 19.678 60.203 19.044 60.504 19.678 60.975 20.536 60.346 21.395 60.975 22.028 60.504 21.395 60.203 21.395 60.629 20.95 60.303 20.95 59.938 22.028 59.938 23.456 60.619" fill="#F7981D"/>
			<polygon points="21.09 61.092 20.536 60.686 19.979 61.092 20.536 61.498" fill="#fff"/>
			<polygon points="18.646 61.498 19.291 61.092 18.646 60.686" fill="#fff"/>
			<polygon points="22.426 61.498 21.781 61.092 22.426 60.686" fill="#fff"/>
			<polygon points="28.392 12.764 27.198 13.551 27.198 14.119 25.206 15.434 24.672 15.217 23.479 16.006 17.595 16.006 16.402 15.217 15.868 15.434 13.876 14.119 13.876 13.551 12.683 12.764 12.683 9.5 13.876 8.713 13.876 8.144 15.868 6.83 16.402 7.047 17.595 6.258 23.479 6.258 24.672 7.047 25.206 6.83 27.198 8.144 27.198 8.713 28.392 9.5" fill="#F7981D"/>
			<polygon points="28 12.649 26.88 13.381 26.88 13.951 25.169 15.078 24.634 14.861 23.521 15.606 17.554 15.606 16.439 14.861 15.906 15.078 14.194 13.951 14.194 13.381 13.074 12.649 13.074 9.615 14.194 8.883 14.194 8.314 15.906 7.186 16.439 7.402 17.554 6.66 23.521 6.66 24.634 7.402 25.169 7.186 26.88 8.314 26.88 8.883 28 9.615"/>
			<polygon points="27.86 12.553 26.72 13.299 26.72 13.865 25.149 14.9 24.618 14.686 23.484 15.441 17.59 15.441 16.456 14.686 15.925 14.9 14.355 13.865 14.355 13.299 13.214 12.553 13.214 9.711 14.355 8.965 14.355 8.399 15.925 7.363 16.456 7.58 17.59 6.822 23.484 6.822 24.618 7.58 25.149 7.363 26.72 8.399 26.72 8.965 27.86 9.711" fill="#8A0F5E"/>
			<polygon points="27.601 12.334 26.399 13.125 26.402 13.697 25.112 14.549 24.577 14.328 23.378 15.121 17.696 15.121 16.497 14.328 15.961 14.549 14.672 13.697 14.675 13.125 13.474 12.334 13.474 9.93 14.675 9.139 14.672 8.566 15.961 7.715 16.497 7.936 17.696 7.143 23.378 7.143 24.577 7.936 25.112 7.715 26.402 8.566 26.399 9.139 27.601 9.93"/>
			<polygon points="27.449 12.25 26.241 13.049 26.241 13.619 25.1 14.371 24.565 14.154 23.356 14.951 17.719 14.951 16.509 14.154 15.975 14.371 14.833 13.619 14.833 13.049 13.624 12.25 13.624 10.016 14.833 9.215 14.833 8.646 15.975 7.894 16.509 8.111 17.719 7.312 23.356 7.312 24.565 8.111 25.1 7.894 26.241 8.646 26.241 9.215 27.449 10.016" fill="#8A0F5E"/>
			<polygon points="20.243 10.611 19.692 11.137 17.653 11.137 18.393 10.439 18.393 9.643 19.763 9.643 20.243 9.217"/>
			<polygon points="20.537 10.467 19.843 11.137 20.537 11.137" fill="#fff"/>
			<path d="m19.794 10.723l-0.121-0.121h-0.365l0.177-0.17-0.068-0.246 0.254 0.064 0.176-0.17v0.354l0.123 0.119 0.17-0.16v-0.955l-0.332 0.289h-1.296v0.752l-0.46 0.436c0-0.008 0.929-0.004 1.55-0.002l0.192-0.19z" fill="#8A0F5E"/>
			<polygon points="20.829 10.611 21.381 11.137 23.421 11.137 22.682 10.439 22.682 9.643 21.309 9.643 20.829 9.217"/>
			<polygon points="21.105 10.553 21.229 10.434 21.229 10.08 21.404 10.25 21.658 10.186 21.59 10.432 21.767 10.602 21.401 10.602 21.279 10.723" fill="#8A0F5E"/>
			<polygon points="20.829 11.662 21.38 11.137 23.421 11.137 22.682 11.834 22.682 12.631 21.309 12.631 20.829 13.059"/>
			<polygon points="20.537 11.809 21.229 11.137 20.537 11.137" fill="#fff"/>
			<path d="m21.279 11.553l0.122 0.119h0.364l-0.176 0.172 0.067 0.246-0.253-0.066-0.177 0.172v-0.356l-0.123-0.119-0.169 0.16v0.955l0.331-0.287h1.296v-0.754l0.46-0.434c0 0.006-0.929 0.004-1.549 0l-0.193 0.192z" fill="#8A0F5E"/>
			<polygon points="20.243 11.662 19.692 11.137 17.653 11.137 18.393 11.834 18.393 12.631 19.763 12.631 20.243 13.059"/>
			<polygon points="19.969 11.721 19.846 11.84 19.846 12.195 19.669 12.024 19.416 12.09 19.484 11.844 19.308 11.672 19.672 11.672 19.794 11.553" fill="#8A0F5E"/>
			<path d="m18.767 9.076l0.683 0.434h-0.89l-1.168-0.742-0.128-0.371-0.202 0.16-0.266-0.168h-0.569l0.577 0.369-0.28 0.223h0.632l1.08 0.688v0.603l-0.524-0.334-0.128-0.371-0.203 0.16-0.264-0.168h-0.571l0.579 0.371-0.282 0.221h0.633l0.602 0.385s-0.382 0.365-0.382 0.369-2.93-0.004-2.934 0l-0.191-0.193 0.188-0.192h0.595v-0.363c0 0.006-0.951 0-0.951 0l-0.779 0.743v-0.885l1.209-0.801v-0.568l1.142-0.752 0.534 0.217 1.21-0.799 2.52 0.002-0.233 0.422h-1.441l1.003 0.855v-0.431h0.669v0.875l-0.397 0.359-0.835-0.531-0.129-0.369-0.202 0.16-0.266-0.17h-0.569l0.579 0.371-0.281 0.221h0.63z" fill="#fff"/>
			<path d="m24.847 8.389l-0.577 0.369 0.28 0.223h-0.632l-1.08 0.688v0.603l0.524-0.334 0.128-0.371 0.202 0.16 0.266-0.168h0.569l-0.578 0.371 0.28 0.221h-0.629l-0.604 0.385s0.382 0.365 0.382 0.369 2.931-0.004 2.935 0l0.191-0.193-0.19-0.192h-0.594v-0.363c0 0.006 0.951 0 0.951 0l0.777 0.744v-0.885l-1.208-0.801v-0.569l-1.14-0.752-0.534 0.217-1.209-0.799-2.521 0.002 0.233 0.422h1.44l-1.003 0.855v-0.431h-0.668v0.875l0.397 0.359 0.834-0.531 0.129-0.369 0.203 0.16 0.265-0.17h0.569l-0.579 0.371 0.281 0.221h-0.631l-0.683 0.434h0.89l1.168-0.742 0.129-0.371 0.203 0.16 0.264-0.168h0.57z" fill="#F7981D"/>
			<path d="m24.847 13.885l-0.57-0.375 0.274-0.217h-0.632l-1.08-0.695v-0.606l0.524 0.334 0.128 0.371 0.202-0.16 0.266 0.168h0.569l-0.578-0.369 0.28-0.223h-0.63l-0.604-0.385s0.382-0.365 0.382-0.369 2.931 0.004 2.935 0l0.191 0.193-0.19 0.191h-0.594v0.363c0-0.006 0.951 0 0.951 0l0.777-0.742v0.885l-1.208 0.799v0.57l-1.14 0.753-0.534-0.217-1.209 0.797-2.521-0.002 0.233-0.422h1.44l-1.003-0.854v0.43h-0.668v-0.875l0.397-0.359 0.834 0.541 0.129 0.371 0.203-0.16 0.265 0.168h0.569l-0.579-0.369 0.281-0.223-0.631-0.012-0.685-0.432h0.89l1.168 0.752 0.129 0.371 0.203-0.16 0.264 0.168h0.572v0.001z" fill="#fff"/>
			<path d="m27.502 10.951l-0.83-0.795s-0.951 0.006-0.951 0v0.363h0.594l0.19 0.192-0.191 0.193c-0.004-0.004-2.935 0.004-2.935 0s-0.54-0.525-0.54-0.525l0.002-0.867h-1.473l-0.528-0.476v-0.876h0.668v0.432l1.003-0.855h-1.44l-0.286-0.519" stroke="#fff" stroke-linecap="square" stroke-width=".1006" fill="none"/>
			<path d="m16.228 13.885l0.577-0.369-0.28-0.223h0.632l1.08-0.695v-0.606l-0.524 0.334-0.128 0.371-0.203-0.16-0.264 0.168h-0.571l0.579-0.369-0.282-0.223h0.633l0.602-0.385s-0.382-0.365-0.382-0.369-2.93 0.004-2.934 0l-0.191 0.193 0.188 0.191h0.595v0.363c0-0.006-0.951 0-0.951 0l-0.778-0.742v0.885l1.209 0.799v0.57l1.142 0.752 0.534-0.217 1.21 0.797 2.52-0.002-0.233-0.422h-1.441l1.003-0.854v0.43h0.669v-0.875l-0.397-0.359-0.835 0.541-0.129 0.371-0.202-0.16-0.266 0.168h-0.569l0.579-0.369-0.281-0.223h0.631l0.684-0.443h-0.89l-1.168 0.752-0.128 0.371-0.202-0.16-0.266 0.168h-0.572v0.001z" fill="#F7981D"/>
			<path d="m13.572 11.312l0.83 0.795s0.951-0.006 0.951 0v-0.363h-0.595l-0.188-0.191 0.191-0.193c0.004 0.004 2.934-0.004 2.934 0s0.541 0.525 0.541 0.525l-0.002 0.867h1.473l0.529 0.477v0.875h-0.669v-0.43l-1.003 0.854h1.441l0.26 0.475" stroke="#fff" stroke-linecap="square" stroke-width=".1006" fill="none"/>
			<polygon points="20.537 14.951 23.356 14.951 24.565 14.154 25.1 14.371 26.241 13.619 26.241 13.049 27.449 12.25 27.449 10.016 26.241 9.215 26.241 8.646 25.1 7.894 24.565 8.111 23.356 7.312 17.719 7.312 16.509 8.111 15.975 7.894 14.833 8.646 14.833 9.215 13.624 10.016 13.624 12.25 14.833 13.049 14.833 13.619 15.975 14.371 16.509 14.154 17.719 14.951 20.537 14.951 20.537 15.121 17.696 15.121 16.497 14.328 15.961 14.549 14.672 13.697 14.675 13.125 13.474 12.334 13.474 9.93 14.675 9.139 14.672 8.566 15.961 7.715 16.497 7.936 17.696 7.143 23.378 7.143 24.577 7.936 25.112 7.715 26.402 8.566 26.399 9.139 27.601 9.93 27.601 12.334 26.399 13.125 26.402 13.697 25.112 14.549 24.577 14.328 23.378 15.121 20.537 15.121"/>
			<path d="m24.247 72.225c0.563-0.352 0.809-0.842 0.938-1.531 0.13-0.691 0.604-1.359 1.325-1.91 0.204-0.154 0.302-0.15 0.25 0.184-0.151 0.971-0.41 2.33-1.349 2.965 0.959-0.42 2.308-0.451 3.408-1.293 0.161-0.123 0.352-0.236 0.15 0.172-0.96 1.953-3.235 2.502-4.702 1.586-0.135-0.087-0.106-0.119-0.02-0.173z" fill="#F7981D"/>
			<path stroke-width=".0268" d="m24.247 72.225c0.563-0.352 0.809-0.842 0.938-1.531 0.13-0.691 0.604-1.359 1.325-1.91 0.204-0.154 0.302-0.15 0.25 0.184-0.151 0.971-0.41 2.33-1.349 2.965 0.959-0.42 2.308-0.451 3.408-1.293 0.161-0.123 0.352-0.236 0.15 0.172-0.96 1.953-3.235 2.502-4.702 1.586-0.135-0.087-0.106-0.119-0.02-0.173z" stroke="#000" fill="none"/>
			<path d="m26.749 71.125c-0.016-1.576 0.178-3.072 1.035-4.283 0.082-0.115 0.222-0.193 0.226 0.131 0.022 1.314-0.184 2.404-0.608 3.207-0.102 0.191-0.17 0.355-0.325 0.422 0.185 0.068 0.362-0.105 0.505-0.381 0.764-1.469 2.197-2.182 2.446-2.645 0.057-0.107 0.234-0.217 0.216 0.074-0.119 1.791-1.974 3.549-3.333 3.592-0.087 0.004-0.161-0.023-0.162-0.117z" fill="#F7981D"/>
			<path stroke-width=".0268" d="m26.749 71.125c-0.016-1.576 0.178-3.072 1.035-4.283 0.082-0.115 0.222-0.193 0.226 0.131 0.022 1.314-0.184 2.404-0.608 3.207-0.102 0.191-0.17 0.355-0.325 0.422 0.185 0.068 0.362-0.105 0.505-0.381 0.764-1.469 2.197-2.182 2.446-2.645 0.057-0.107 0.234-0.217 0.216 0.074-0.119 1.791-1.974 3.549-3.333 3.592-0.087 0.004-0.161-0.023-0.162-0.117z" stroke="#000" fill="none"/>
			<path d="m28.375 68.498c0.089-0.713-0.032-1.059-0.121-1.424-0.227-0.93-0.146-1.975 0.218-2.693 0.067-0.133 0.125-0.113 0.154 0.016 0.3 1.336 0.599 2.5 0.097 3.098 0.179-0.025 0.438-0.252 0.519-0.641 0.08-0.389 0.525-1.018 0.8-1.268 0.275-0.252 0.599-0.68 0.647-0.801 0.049-0.121 0.13-0.111 0.162 0.129 0.162 1.238-1.075 3.059-2.33 3.617-0.073 0.031-0.154 0.031-0.146-0.033z" fill="#F7981D"/>
			<path stroke-width=".0268" d="m28.375 68.498c0.089-0.713-0.032-1.059-0.121-1.424-0.227-0.93-0.146-1.975 0.218-2.693 0.067-0.133 0.125-0.113 0.154 0.016 0.3 1.336 0.599 2.5 0.097 3.098 0.179-0.025 0.438-0.252 0.519-0.641 0.08-0.389 0.525-1.018 0.8-1.268 0.275-0.252 0.599-0.68 0.647-0.801 0.049-0.121 0.13-0.111 0.162 0.129 0.162 1.238-1.075 3.059-2.33 3.617-0.073 0.031-0.154 0.031-0.146-0.033z" stroke="#000" fill="none"/>
			<path d="m29.119 66.145c0.059-0.316-0.032-0.98-0.138-1.473-0.105-0.492-0.048-1.076 0.057-1.465 0.105-0.387 0.113-0.631 0.098-0.775-0.017-0.147 0.127-0.127 0.193 0.057 0.292 0.801 0.341 2.312 0.139 2.66-0.069 0.119-0.113 0.242-0.033 0.291 0.081 0.049 0.154-0.072 0.17-0.178 0.057-0.381 0.243-0.736 0.485-1.066 0.242-0.332 0.372-0.68 0.462-1.004 0.061-0.226 0.291-0.476 0.363-0.598 0.08-0.133 0.139 0.031 0.138 0.17-0.017 1.535-0.745 2.4-1.294 2.871-0.135 0.115-0.324 0.42-0.396 0.541-0.074 0.121-0.284 0.185-0.244-0.031z" fill="#F7981D"/>
			<path stroke-width=".0268" d="m29.119 66.145c0.059-0.316-0.032-0.98-0.138-1.473-0.105-0.492-0.048-1.076 0.057-1.465 0.105-0.387 0.113-0.631 0.098-0.775-0.017-0.147 0.127-0.127 0.193 0.057 0.292 0.801 0.341 2.312 0.139 2.66-0.069 0.119-0.113 0.242-0.033 0.291 0.081 0.049 0.154-0.072 0.17-0.178 0.057-0.381 0.243-0.736 0.485-1.066 0.242-0.332 0.372-0.68 0.462-1.004 0.061-0.226 0.291-0.476 0.363-0.598 0.08-0.133 0.139 0.031 0.138 0.17-0.017 1.535-0.745 2.4-1.294 2.871-0.135 0.115-0.324 0.42-0.396 0.541-0.074 0.121-0.284 0.185-0.244-0.031z" stroke="#000" fill="none"/>
			<path d="m29.805 64.053c-0.037-1.185-0.113-2.351 0.438-3.273 0.099-0.166 0.144-0.254 0.194 0.035 0.181 1.068 0.158 2.258-0.427 3.209-0.108 0.173-0.201 0.154-0.205 0.029z" fill="#F7981D"/>
			<path stroke-width=".0268" d="m29.805 64.053c-0.037-1.185-0.113-2.351 0.438-3.273 0.099-0.166 0.144-0.254 0.194 0.035 0.181 1.068 0.158 2.258-0.427 3.209-0.108 0.173-0.201 0.154-0.205 0.029z" stroke="#000" fill="none"/>
			<path d="m26.976 73.285c-0.744 0.162-1.893-0.291-2.572-0.564-1.15-0.467-2.498-0.314-3.866 0.293-1.368-0.607-2.716-0.76-3.866-0.293-0.68 0.273-1.828 0.727-2.572 0.564-0.483-0.104-0.371 0.146-0.243 0.244 1.618 1.229 3.381 0.793 4.449 0.129 0.503-0.312 0.987-0.619 1.79-0.434-0.791 0.408-1.582 0.959-2.341 1.631-0.055 0.049-0.048 0.049 0.005 0.135 0.055 0.086 0.07 0.184 0.119 0.303s0.068 0.09 0.141 0.016c0.583-0.615 1.629-1.553 2.39-1.893 0.046-0.021 0.085-0.031 0.129-0.049 0.044 0.018 0.084 0.027 0.129 0.049 0.761 0.34 1.808 1.277 2.389 1.893 0.071 0.074 0.093 0.104 0.141-0.016 0.049-0.119 0.065-0.217 0.119-0.303s0.06-0.086 0.005-0.135c-0.758-0.672-1.549-1.223-2.34-1.631 0.803-0.186 1.287 0.121 1.79 0.434 1.067 0.664 2.831 1.1 4.449-0.129 0.127-0.097 0.239-0.347-0.245-0.244z" fill="#F7981D"/>
			<path stroke-width=".0268" d="m26.976 73.285c-0.744 0.162-1.893-0.291-2.572-0.564-1.15-0.467-2.498-0.314-3.866 0.293-1.368-0.607-2.716-0.76-3.866-0.293-0.68 0.273-1.828 0.727-2.572 0.564-0.483-0.104-0.371 0.146-0.243 0.244 1.618 1.229 3.381 0.793 4.449 0.129 0.503-0.312 0.987-0.619 1.79-0.434-0.791 0.408-1.582 0.959-2.341 1.631-0.055 0.049-0.048 0.049 0.005 0.135 0.055 0.086 0.07 0.184 0.119 0.303s0.068 0.09 0.141 0.016c0.583-0.615 1.629-1.553 2.39-1.893 0.046-0.021 0.085-0.031 0.129-0.049 0.044 0.018 0.084 0.027 0.129 0.049 0.761 0.34 1.808 1.277 2.389 1.893 0.071 0.074 0.093 0.104 0.141-0.016 0.049-0.119 0.065-0.217 0.119-0.303s0.06-0.086 0.005-0.135c-0.758-0.672-1.549-1.223-2.34-1.631 0.803-0.186 1.287 0.121 1.79 0.434 1.067 0.664 2.831 1.1 4.449-0.129 0.127-0.097 0.239-0.347-0.245-0.244z" stroke="#000" fill="none"/>
			<path d="m16.827 72.225c-0.564-0.352-0.81-0.842-0.939-1.531-0.13-0.691-0.604-1.359-1.327-1.91-0.202-0.154-0.3-0.15-0.247 0.184 0.15 0.971 0.409 2.33 1.347 2.965-0.959-0.42-2.308-0.451-3.407-1.293-0.161-0.123-0.353-0.236-0.15 0.172 0.959 1.953 3.235 2.502 4.702 1.586 0.136-0.087 0.107-0.119 0.021-0.173z" fill="#F7981D"/>
			<path stroke-width=".0268" d="m16.827 72.225c-0.564-0.352-0.81-0.842-0.939-1.531-0.13-0.691-0.604-1.359-1.327-1.91-0.202-0.154-0.3-0.15-0.247 0.184 0.15 0.971 0.409 2.33 1.347 2.965-0.959-0.42-2.308-0.451-3.407-1.293-0.161-0.123-0.353-0.236-0.15 0.172 0.959 1.953 3.235 2.502 4.702 1.586 0.136-0.087 0.107-0.119 0.021-0.173z" stroke="#000" fill="none"/>
			<path d="m14.325 71.125c0.016-1.576-0.179-3.072-1.036-4.283-0.081-0.115-0.221-0.193-0.226 0.131-0.021 1.314 0.183 2.404 0.61 3.207 0.102 0.191 0.17 0.355 0.322 0.422-0.183 0.068-0.36-0.105-0.503-0.381-0.764-1.469-2.198-2.182-2.446-2.645-0.057-0.107-0.234-0.217-0.217 0.074 0.12 1.791 1.975 3.549 3.334 3.592 0.087 0.004 0.16-0.023 0.162-0.117z" fill="#F7981D"/>
			<path stroke-width=".0268" d="m14.325 71.125c0.016-1.576-0.179-3.072-1.036-4.283-0.081-0.115-0.221-0.193-0.226 0.131-0.021 1.314 0.183 2.404 0.61 3.207 0.102 0.191 0.17 0.355 0.322 0.422-0.183 0.068-0.36-0.105-0.503-0.381-0.764-1.469-2.198-2.182-2.446-2.645-0.057-0.107-0.234-0.217-0.217 0.074 0.12 1.791 1.975 3.549 3.334 3.592 0.087 0.004 0.16-0.023 0.162-0.117z" stroke="#000" fill="none"/>
			<path d="m12.698 68.498c-0.088-0.713 0.033-1.059 0.122-1.424 0.226-0.93 0.146-1.975-0.218-2.693-0.067-0.133-0.125-0.113-0.154 0.016-0.299 1.336-0.599 2.5-0.098 3.098-0.177-0.025-0.437-0.252-0.518-0.641s-0.525-1.018-0.801-1.268c-0.274-0.252-0.599-0.68-0.646-0.801-0.049-0.121-0.131-0.111-0.162 0.129-0.162 1.238 1.075 3.059 2.33 3.617 0.073 0.031 0.154 0.031 0.145-0.033z" fill="#F7981D"/>
			<path stroke-width=".0268" d="m12.698 68.498c-0.088-0.713 0.033-1.059 0.122-1.424 0.226-0.93 0.146-1.975-0.218-2.693-0.067-0.133-0.125-0.113-0.154 0.016-0.299 1.336-0.599 2.5-0.098 3.098-0.177-0.025-0.437-0.252-0.518-0.641s-0.525-1.018-0.801-1.268c-0.274-0.252-0.599-0.68-0.646-0.801-0.049-0.121-0.131-0.111-0.162 0.129-0.162 1.238 1.075 3.059 2.33 3.617 0.073 0.031 0.154 0.031 0.145-0.033z" stroke="#000" fill="none"/>
			<path d="m11.955 66.145c-0.059-0.316 0.031-0.98 0.138-1.473 0.103-0.492 0.048-1.076-0.057-1.465-0.106-0.387-0.114-0.631-0.098-0.775 0.017-0.147-0.127-0.127-0.194 0.057-0.291 0.801-0.339 2.312-0.137 2.66 0.068 0.119 0.112 0.242 0.031 0.291-0.08 0.049-0.153-0.072-0.169-0.178-0.057-0.381-0.243-0.736-0.485-1.066-0.243-0.332-0.372-0.68-0.461-1.004-0.064-0.226-0.292-0.476-0.364-0.598-0.079-0.133-0.14 0.031-0.138 0.17 0.017 1.535 0.744 2.4 1.294 2.871 0.136 0.115 0.323 0.42 0.396 0.541 0.074 0.121 0.284 0.185 0.244-0.031z" fill="#F7981D"/>
			<path stroke-width=".0268" d="m11.955 66.145c-0.059-0.316 0.031-0.98 0.138-1.473 0.103-0.492 0.048-1.076-0.057-1.465-0.106-0.387-0.114-0.631-0.098-0.775 0.017-0.147-0.127-0.127-0.194 0.057-0.291 0.801-0.339 2.312-0.137 2.66 0.068 0.119 0.112 0.242 0.031 0.291-0.08 0.049-0.153-0.072-0.169-0.178-0.057-0.381-0.243-0.736-0.485-1.066-0.243-0.332-0.372-0.68-0.461-1.004-0.064-0.226-0.292-0.476-0.364-0.598-0.079-0.133-0.14 0.031-0.138 0.17 0.017 1.535 0.744 2.4 1.294 2.871 0.136 0.115 0.323 0.42 0.396 0.541 0.074 0.121 0.284 0.185 0.244-0.031z" stroke="#000" fill="none"/>
			<path d="m11.269 64.053c0.038-1.185 0.112-2.351-0.438-3.273-0.1-0.166-0.144-0.254-0.193 0.035-0.183 1.068-0.16 2.258 0.426 3.209 0.107 0.173 0.202 0.154 0.205 0.029z" fill="#F7981D"/>
			<path stroke-width=".0268" d="m11.269 64.053c0.038-1.185 0.112-2.351-0.438-3.273-0.1-0.166-0.144-0.254-0.193 0.035-0.183 1.068-0.16 2.258 0.426 3.209 0.107 0.173 0.202 0.154 0.205 0.029z" stroke="#000" fill="none"/>
		<path d="m66.025 20.232c1.411-4.38-0.884-11.984-9.053-12.006 8.965-2.957 16.397 5.548 13.821 13.542s-13.575 10.56-19.127 2.926c6.646 4.751 12.948-0.083 14.359-4.462z" fill="#fff"/>
		<polygon points="48.546 6.729 47.926 8.658 45.885 8.658 47.542 9.858 46.905 11.785 48.546 10.588 50.188 11.785 49.559 9.842 51.208 8.667 49.175 8.667" fill="#fff"/>
		<polygon points="55.835 9.078 55.214 11.006 53.174 11.006 54.831 12.207 54.194 14.135 55.835 12.936 57.477 14.135 56.848 12.19 58.496 11.015 56.464 11.015" fill="#fff"/>
		<polygon points="43.957 20.972 44.577 19.044 42.922 17.853 44.968 17.846 45.576 15.909 46.209 17.84 48.24 17.825 46.595 19.037 47.248 20.954 45.598 19.767" fill="#fff"/>
		<polygon points="51.337 14.428 53.368 14.421 51.722 15.614 52.362 17.544 50.716 16.352 49.075 17.553 49.705 15.626 48.048 14.43 50.091 14.427 50.705 12.494" fill="#fff"/>
		<polygon points="51.245 23.32 51.867 21.393 50.21 20.201 52.256 20.195 52.864 18.259 53.497 20.188 55.528 20.175 53.885 21.386 54.536 23.303 52.887 22.115" fill="#fff"/>
</g>
</svg>
