<?xml version="1.0" encoding="UTF-8" standalone="no"?>
<!-- Generator: Adobe Illustrator 18.0.0, SVG Export Plug-In . SVG Version: 6.00 Build 0)  -->
<!DOCTYPE svg  PUBLIC '-//W3C//DTD SVG 1.1//EN'  'http://www.w3.org/Graphics/SVG/1.1/DTD/svg11.dtd'>
<svg style="enable-background:new 0 0 144 80" xmlns="http://www.w3.org/2000/svg" xml:space="preserve" version="1.1" y="0px" x="0px" xmlns:xlink="http://www.w3.org/1999/xlink" viewBox="0 0 144 80">
<g id="GEQ">
		<polygon points="144 26.667 0 26.667 0 0 144 0" fill="#3E9A00"/>
		<polygon points="0 80 144 80 144 53.334 0 53.334" fill="#E32118"/>
		<polygon points="144 53.334 0 53.334 0 26.667 144 26.667" fill="#fff"/>
		<polygon points="0 0.352 46.342 40.174 0 80" fill="#0073CE"/>
			<path d="m88.119 32.015v12.686c0 2.246-1.193 3.09-2.457 3.09h-2.248c-0.748 0-1.381 0.163-1.615 0.912-0.234-0.749-0.865-0.912-1.613-0.912h-2.248c-1.264 0-2.457-0.844-2.457-3.09v-12.686h12.638z" fill="#E2E3E4"/>
			<path stroke-width=".0839" d="m88.119 32.015v12.686c0 2.246-1.193 3.09-2.457 3.09h-2.248c-0.748 0-1.381 0.163-1.615 0.912-0.234-0.749-0.865-0.912-1.613-0.912h-2.248c-1.264 0-2.457-0.844-2.457-3.09v-12.686h12.638z" stroke="#000" fill="none"/>
			<polygon points="80.271 30.817 80.59 30.177 81.301 30.129 80.904 29.529 81.219 28.882 80.508 28.929 80.105 28.336 79.785 28.978 79.076 29.024 79.469 29.624 79.158 30.271 79.869 30.224" fill="#FFCE46"/>
			<polygon stroke-width=".0419" points="80.271 30.817 80.59 30.177 81.301 30.129 80.904 29.529 81.219 28.882 80.508 28.929 80.105 28.336 79.785 28.978 79.076 29.024 79.469 29.624 79.158 30.271 79.869 30.224" stroke="#000" fill="none"/>
			<polygon points="77.283 31.247 77.506 30.567 78.203 30.418 77.727 29.881 77.939 29.195 77.244 29.346 76.762 28.815 76.537 29.495 75.84 29.646 76.318 30.183 76.102 30.867 76.799 30.719" fill="#FFCE46"/>
			<polygon stroke-width=".0419" points="77.283 31.247 77.506 30.567 78.203 30.418 77.727 29.881 77.939 29.195 77.244 29.346 76.762 28.815 76.537 29.495 75.84 29.646 76.318 30.183 76.102 30.867 76.799 30.719" stroke="#000" fill="none"/>
			<polygon points="74.521 32.107 74.592 31.395 75.24 31.098 74.658 30.677 74.719 29.962 74.07 30.259 73.484 29.848 73.414 30.561 72.766 30.857 73.35 31.278 73.289 31.993 73.938 31.696" fill="#FFCE46"/>
			<polygon stroke-width=".0419" points="74.521 32.107 74.592 31.395 75.24 31.098 74.658 30.677 74.719 29.962 74.07 30.259 73.484 29.848 73.414 30.561 72.766 30.857 73.35 31.278 73.289 31.993 73.938 31.696" stroke="#000" fill="none"/>
			<polygon points="83.33 30.817 83.01 30.177 82.299 30.129 82.693 29.529 82.381 28.882 83.094 28.929 83.494 28.336 83.812 28.978 84.525 29.024 84.131 29.624 84.441 30.271 83.73 30.224" fill="#FFCE46"/>
			<polygon stroke-width=".0419" points="83.33 30.817 83.01 30.177 82.299 30.129 82.693 29.529 82.381 28.882 83.094 28.929 83.494 28.336 83.812 28.978 84.525 29.024 84.131 29.624 84.441 30.271 83.73 30.224" stroke="#000" fill="none"/>
			<polygon points="86.316 31.247 86.094 30.567 85.396 30.418 85.875 29.881 85.658 29.195 86.355 29.346 86.838 28.815 87.061 29.495 87.758 29.646 87.281 30.183 87.496 30.867 86.799 30.719" fill="#FFCE46"/>
			<polygon stroke-width=".0419" points="86.316 31.247 86.094 30.567 85.396 30.418 85.875 29.881 85.658 29.195 86.355 29.346 86.838 28.815 87.061 29.495 87.758 29.646 87.281 30.183 87.496 30.867 86.799 30.719" stroke="#000" fill="none"/>
			<polygon points="89.076 32.107 89.008 31.395 88.359 31.098 88.941 30.677 88.881 29.962 89.527 30.259 90.115 29.848 90.184 30.561 90.832 30.857 90.25 31.278 90.311 31.993 89.664 31.696" fill="#FFCE46"/>
			<polygon stroke-width=".0419" points="89.076 32.107 89.008 31.395 88.359 31.098 88.941 30.677 88.881 29.962 89.527 30.259 90.115 29.848 90.184 30.561 90.832 30.857 90.25 31.278 90.311 31.993 89.664 31.696" stroke="#000" fill="none"/>
			<path d="m81.799 51.665c3.207 0 3.418-0.444 3.43-0.703 0.012-0.229-0.061-0.421-0.084-0.666 2.973 0.035 4.709-1.03 5.703-2.083 0.572-0.609 0.234-1.148 0.092-1.628-0.045-0.157-0.072-0.317-0.096-0.484 1.123-0.702 0.717-1.364 0.518-2.021-0.197-0.655-0.305-1.381-0.363-2.024-0.023 1.054-2.064 2.273-1.648 2.901 0.17 0.26 0.602 0.885 0.807 1.359-1.182 1.623-3.5 2.298-5.535 1.814-0.604-0.144-0.666 0.071-0.666 0.223 0 0.632 0.18 1.089 0.162 1.376-0.688 0.107-1.576 0.146-2.318 0.146-0.74 0-1.629-0.038-2.316-0.146-0.018-0.287 0.164-0.744 0.164-1.376 0-0.151-0.064-0.366-0.668-0.223-2.033 0.484-4.352-0.19-5.535-1.814 0.205-0.475 0.639-1.1 0.809-1.359 0.414-0.628-1.629-1.848-1.652-2.901-0.057 0.644-0.164 1.369-0.361 2.024-0.199 0.656-0.605 1.318 0.52 2.021-0.027 0.167-0.051 0.327-0.1 0.484-0.139 0.479-0.479 1.019 0.096 1.628 0.992 1.053 2.73 2.118 5.701 2.083-0.023 0.245-0.094 0.438-0.084 0.666 0.008 0.259 0.219 0.703 3.424 0.703z" fill="#fff"/>
			<path stroke-width=".0839" d="m81.799 51.665c3.207 0 3.418-0.444 3.43-0.703 0.012-0.229-0.061-0.421-0.084-0.666 2.973 0.035 4.709-1.03 5.703-2.083 0.572-0.609 0.234-1.148 0.092-1.628-0.045-0.157-0.072-0.317-0.096-0.484 1.123-0.702 0.717-1.364 0.518-2.021-0.197-0.655-0.305-1.381-0.363-2.024-0.023 1.054-2.064 2.273-1.648 2.901 0.17 0.26 0.602 0.885 0.807 1.359-1.182 1.623-3.5 2.298-5.535 1.814-0.604-0.144-0.666 0.071-0.666 0.223 0 0.632 0.18 1.089 0.162 1.376-0.688 0.107-1.576 0.146-2.318 0.146-0.74 0-1.629-0.038-2.316-0.146-0.018-0.287 0.164-0.744 0.164-1.376 0-0.151-0.064-0.366-0.668-0.223-2.033 0.484-4.352-0.19-5.535-1.814 0.205-0.475 0.639-1.1 0.809-1.359 0.414-0.628-1.629-1.848-1.652-2.901-0.057 0.644-0.164 1.369-0.361 2.024-0.199 0.656-0.605 1.318 0.52 2.021-0.027 0.167-0.051 0.327-0.1 0.484-0.139 0.479-0.479 1.019 0.096 1.628 0.992 1.053 2.73 2.118 5.701 2.083-0.023 0.245-0.094 0.438-0.084 0.666 0.008 0.259 0.219 0.703 3.424 0.703zm-2.317-1.936c-0.639-0.101-1.1-0.262-1.1-0.51 0-0.68 1.264-0.305 1.264-0.866m-5.394-3.396c-0.143 0.224-0.396 0.062-0.574-0.181-0.117-0.156-0.394-0.198-0.574-0.028-0.258 0.244-0.152 0.736 0.059 1.123 0.084 0.154 0.178 0.304 0.281 0.445m-0.469-1.345c-0.133 0.428-0.166 0.792-0.217 1.131m5.625 3.117c0.012 0.469 0.094 0.689 0.082 0.982-0.002 0.032-0.004 0.064-0.008 0.095m5.66-0.567c0.639-0.101 1.1-0.262 1.1-0.51 0-0.68-1.262-0.305-1.262-0.866m5.395-3.396c0.139 0.224 0.395 0.062 0.572-0.181 0.115-0.156 0.395-0.198 0.574-0.028 0.26 0.244 0.15 0.736-0.059 1.123-0.086 0.154-0.178 0.304-0.281 0.445m0.469-1.345c0.133 0.428 0.166 0.792 0.215 1.131m-5.623 3.117c-0.01 0.469-0.094 0.689-0.082 0.982 0.002 0.032 0.004 0.064 0.008 0.095" stroke="#000" fill="none"/>
			<path d="m80.068 37.21c1.566 0.82 1.451 1.381 1.379 2.997-0.045 1.053-0.252 2.65-0.443 3.534-0.234 1.077-0.496 1.761-0.764 2.341-0.141 0.305 0.356 0.702 0.607 0.469 0.281 0.21 0.566 0.222 0.656 0.023 0.492 0.351 0.75 0.163 0.865-0.048 0.281 0.141 0.316-0.012 0.34-0.128 0.469 0.397 0.613 0.319 0.254-0.926-0.443-1.544-0.812-2.926-0.764-5.196 0.041-2.05 0.279-2.153 0.701-2.481 0.42-0.328 1.193-0.866 2.316-0.913l-0.586-0.422c-0.715 0.106-2.059 0.785-2.467 1.44 0.035-0.387-0.084-0.995 0.035-1.884h-0.635c0.07 0.491 0.096 1.614 0.096 1.825-0.258-0.328-0.938-0.819-1.266-0.937l-0.324 0.306z" fill="#7D4802"/>
			<path stroke-width=".0839" d="m80.068 37.21c1.566 0.82 1.451 1.381 1.379 2.997-0.045 1.053-0.252 2.65-0.443 3.534-0.234 1.077-0.496 1.761-0.764 2.341-0.141 0.305 0.356 0.702 0.607 0.469 0.281 0.21 0.566 0.222 0.656 0.023 0.492 0.351 0.75 0.163 0.865-0.048 0.281 0.141 0.316-0.012 0.34-0.128 0.469 0.397 0.613 0.319 0.254-0.926-0.443-1.544-0.812-2.926-0.764-5.196 0.041-2.05 0.279-2.153 0.701-2.481 0.42-0.328 1.193-0.866 2.316-0.913l-0.586-0.422c-0.715 0.106-2.059 0.785-2.467 1.44 0.035-0.387-0.084-0.995 0.035-1.884h-0.635c0.07 0.491 0.096 1.614 0.096 1.825-0.258-0.328-0.938-0.819-1.266-0.937l-0.324 0.306zm1.436 9.364c0.074-0.422 0.049-1.412 0.191-1.756 0.221-0.539 0.162-1.557 0.152-1.932m0.522 3.64c-0.16-0.059-0.383-0.783-0.336-1.38 0.047-0.598 0.023-2.518-0.07-3.066-0.092-0.551 0.164-2.857 0.023-3.84m0.723 8.158c0.037-0.188-0.068-0.96-0.184-1.276-0.117-0.315-0.268-1.135-0.281-1.545m-1.396 2.974c-0.111-0.083-0.229-0.13-0.102-0.586 0.129-0.456 0.936-2.574 0.914-3.723-0.025-1.146 0.139-3.3 0-3.814" stroke="#000" fill="none"/>
			<path d="m82.303 33.277c-0.07-0.292-0.539-0.421-0.713-0.221-0.188-0.165-0.586-0.025-0.551 0.257-0.457-0.036-0.771 0.34-0.678 0.749-0.189-0.07-0.436 0.07-0.387 0.327-0.34-0.116-0.68 0.234-0.633 0.585-0.293-0.047-0.527 0.362-0.41 0.609-0.373 0.035-0.527 0.62-0.373 0.96-0.188 0.104-0.305 0.316-0.234 0.514-0.176-0.128-0.398-0.034-0.504 0.107-0.316-0.117-0.654 0.046-0.678 0.328-0.283 0.046-0.562 0.151-0.434 0.455-0.035 0.171 0.188 0.27 0.363 0.223 0.139 0.246 0.608 0.246 0.807 0.129 0.27 0.094 0.516-0.047 0.551-0.305 0.105 0.199 0.42 0.246 0.572 0.199 0 0.281 0.336 0.444 0.551 0.381 0.246 0.093 0.504-0.076 0.557-0.229 0.158 0.018 0.275-0.176 0.215-0.311 0.082-0.046 0.129-0.221 0.041-0.28 0.24 0.029 0.465-0.135 0.486-0.311 0.223-0.023 0.246-0.211 0.223-0.304 0.269 0 0.539-0.117 0.631-0.269 0.084 0.128 0.234 0.176 0.318 0.176 0.254 0.186 0.723 0.059 0.854-0.152 0.152 0.363 0.561 0.608 1.088 0.479 0.023 0.199 0.398 0.328 0.539 0.199 0.094 0.211 0.549 0.304 0.725 0.152 0.223 0.141 0.516 0.1 0.656-0.082 0.174 0.128 0.654 0 0.748-0.234 0.258 0.041 0.445-0.141 0.434-0.38 0.141 0.006 0.35-0.182 0.281-0.381 0.117-0.14 0-0.55-0.281-0.608-0.035-0.176-0.176-0.269-0.293-0.246 0.105-0.152 0.037-0.409-0.256-0.387-0.014-0.204-0.328-0.35-0.539-0.198-0.012-0.099-0.105-0.158-0.188-0.14 0.047-0.212-0.164-0.526-0.434-0.479-0.012-0.076-0.123-0.194-0.234-0.171 0.041-0.193-0.146-0.345-0.291-0.327-0.201-0.176-0.621-0.082-0.68 0.188-0.176-0.077-0.439 0.052-0.451 0.168-0.064-0.058-0.193-0.046-0.24 0-0.023-0.139-0.205-0.192-0.279-0.121-0.029-0.152-0.211-0.264-0.334-0.212 0.047-0.104 0.035-0.292-0.076-0.339 0.094-0.151-0.041-0.428-0.234-0.392-0.036-0.116-0.136-0.153-0.235-0.106z" fill="#008256"/>
			<path stroke-width=".0839" d="m82.303 33.277c-0.07-0.292-0.539-0.421-0.713-0.221-0.188-0.165-0.586-0.025-0.551 0.257-0.457-0.036-0.771 0.34-0.678 0.749-0.189-0.07-0.436 0.07-0.387 0.327-0.34-0.116-0.68 0.234-0.633 0.585-0.293-0.047-0.527 0.362-0.41 0.609-0.373 0.035-0.527 0.62-0.373 0.96-0.188 0.104-0.305 0.316-0.234 0.514-0.176-0.128-0.398-0.034-0.504 0.107-0.316-0.117-0.654 0.046-0.678 0.328-0.283 0.046-0.562 0.151-0.434 0.455-0.035 0.171 0.188 0.27 0.363 0.223 0.139 0.246 0.608 0.246 0.807 0.129 0.27 0.094 0.516-0.047 0.551-0.305 0.105 0.199 0.42 0.246 0.572 0.199 0 0.281 0.336 0.444 0.551 0.381 0.246 0.093 0.504-0.076 0.557-0.229 0.158 0.018 0.275-0.176 0.215-0.311 0.082-0.046 0.129-0.221 0.041-0.28 0.24 0.029 0.465-0.135 0.486-0.311 0.223-0.023 0.246-0.211 0.223-0.304 0.269 0 0.539-0.117 0.631-0.269 0.084 0.128 0.234 0.176 0.318 0.176 0.254 0.186 0.723 0.059 0.854-0.152 0.152 0.363 0.561 0.608 1.088 0.479 0.023 0.199 0.398 0.328 0.539 0.199 0.094 0.211 0.549 0.304 0.725 0.152 0.223 0.141 0.516 0.1 0.656-0.082 0.174 0.128 0.654 0 0.748-0.234 0.258 0.041 0.445-0.141 0.434-0.38 0.141 0.006 0.35-0.182 0.281-0.381 0.117-0.14 0-0.55-0.281-0.608-0.035-0.176-0.176-0.269-0.293-0.246 0.105-0.152 0.037-0.409-0.256-0.387-0.014-0.204-0.328-0.35-0.539-0.198-0.012-0.099-0.105-0.158-0.188-0.14 0.047-0.212-0.164-0.526-0.434-0.479-0.012-0.076-0.123-0.194-0.234-0.171 0.041-0.193-0.146-0.345-0.291-0.327-0.201-0.176-0.621-0.082-0.68 0.188-0.176-0.077-0.439 0.052-0.451 0.168-0.064-0.058-0.193-0.046-0.24 0-0.023-0.139-0.205-0.192-0.279-0.121-0.029-0.152-0.211-0.264-0.334-0.212 0.047-0.104 0.035-0.292-0.076-0.339 0.094-0.151-0.041-0.428-0.234-0.392-0.036-0.116-0.136-0.153-0.235-0.106zm-2.703 2.577c0.176 0.047 0.469-0.095 0.516-0.234 0.07 0.022 0.27-0.024 0.315-0.107m-1.708 1.99c0.162-0.059 0.469 0.048 0.527 0.188m0.725-3.301c0.152-0.081 0.508-0.023 0.631 0.14 0.141-0.057 0.361 0.042 0.42 0.2m4.953 0.479c-0.117-0.069-0.346-0.041-0.428 0.082-0.082-0.076-0.311-0.059-0.402 0.083m1.917 1.655c-0.059 0.129-0.363 0.141-0.463 0.082-0.105 0.076-0.314-0.006-0.305-0.135-0.059-0.006-0.152-0.064-0.164-0.146m-2.169 0.544c0.092-0.011 0.316-0.07 0.41-0.152 0.064 0.036 0.279 0.024 0.352-0.034m1.158 0.456c-0.076-0.046-0.17-0.17-0.188-0.258-0.07-0.012-0.176-0.064-0.217-0.164m-2.632-3.108c-0.023 0.111-0.207 0.311-0.434 0.275-0.053 0.14-0.215 0.269-0.451 0.2m-2.961 3.604c0.123-0.024 0.381-0.111 0.439-0.176 0.094 0.006 0.199-0.047 0.221-0.1m0.703-0.162c-0.07-0.007-0.146-0.059-0.18-0.095-0.07 0.019-0.205-0.047-0.229-0.105m-2.884 0.615c0.135-0.012 0.285-0.088 0.332-0.146m1.155-1.48c0.105-0.077 0.303-0.088 0.408-0.059 0.117-0.117 0.371-0.218 0.639-0.159m3.855-1.879c0.035 0.113 0.041 0.224-0.01 0.312 0.094 0.059 0.133 0.245 0.104 0.368m-0.678 1.768c-0.117-0.223-0.152-0.386-0.152-0.562m-1.475-0.959c0.035 0.151 0.375 0.339 0.572 0.35 0.07 0.224 0.774 0.258 0.984 0.094m1.194 0.351c0.141 0.117 0.48 0.175 0.668 0.094 0.092 0.094 0.408 0.175 0.549 0.14m-5.197 0.409c0.234 0.07 0.518-0.093 0.609-0.21" stroke="#000" fill="none"/>
			<path d="m80.557 50.129v0.412h0.186v-0.222h0.191c0.084 0 0.158 0.048 0.158 0.154 0 0.107-0.062 0.195-0.158 0.195h-0.191v-0.128h-0.186v0.702h0.186v-0.399h0.246c0.178 0 0.281-0.195 0.281-0.373 0-0.199-0.111-0.342-0.281-0.342-0.245 0.001-0.432 0.001-0.432 0.001z"/>
			<polygon points="81.994 51.069 82.057 51.295 82.246 51.295 81.926 50.169 81.701 50.169 81.381 51.295 81.57 51.295 81.633 51.069 81.799 51.069 81.799 50.884 81.686 50.884 81.814 50.433 81.941 50.884 81.799 50.884 81.799 51.069"/>
			<polygon points="82.906 51.057 83.381 51.057 83.381 51.253 82.682 51.253 82.682 51.037 83.158 50.343 82.67 50.343 82.67 50.145 83.381 50.145 83.381 50.361"/>
			<path d="m72.924 47.653c0.109 0.091 0.205 0.034 0.268-0.041 0.061-0.076 0.48-0.592 0.48-0.592l0.156 0.127s-0.385 0.471-0.479 0.587c-0.115 0.144-0.318 0.251-0.545 0.066-0.229-0.186-0.166-0.404-0.049-0.548 0.096-0.117 0.479-0.588 0.479-0.588l0.154 0.126s-0.42 0.518-0.479 0.592c-0.061 0.075-0.097 0.18 0.015 0.271z"/>
			<polygon points="74.209 47.484 74.07 48.315 74.516 47.709 74.678 47.829 74.021 48.725 73.867 48.611 74.018 47.746 73.553 48.381 73.391 48.262 74.049 47.366"/>
			<polygon points="74.586 49.029 75.107 48.046 74.93 47.951 74.408 48.935"/>
			<path d="m75.42 48.186c0.092 0.04 0.23 0.102 0.344 0.151 0.113 0.05 0.342 0.211 0.148 0.652-0.121 0.276-0.357 0.488-0.57 0.395-0.211-0.093-0.377-0.165-0.377-0.165l0.236-0.537 0.168 0.075-0.154 0.356s0.09 0.04 0.146 0.064c0.057 0.025 0.23 0.067 0.373-0.255 0.131-0.295-0.018-0.386-0.072-0.411-0.031-0.015-0.154-0.067-0.154-0.067l-0.139 0.312-0.168-0.075 0.219-0.495z"/>
			<polygon points="76.635 49.526 76.639 49.762 76.822 49.809 76.799 48.637 76.58 48.58 75.984 49.589 76.168 49.638 76.287 49.435 76.449 49.477 76.494 49.297 76.385 49.268 76.623 48.864 76.631 49.334 76.494 49.297 76.449 49.477"/>
			<path d="m77.258 48.727c0.1 0.012 0.25 0.027 0.373 0.04 0.125 0.014 0.393 0.095 0.34 0.576-0.031 0.3-0.191 0.574-0.422 0.55-0.23-0.023-0.408-0.042-0.408-0.042l0.061-0.583 0.184 0.02-0.039 0.387s0.096 0.011 0.158 0.016c0.062 0.008 0.242-0.005 0.279-0.354 0.033-0.321-0.135-0.364-0.195-0.371-0.033-0.003-0.168-0.018-0.168-0.018l-0.035 0.341-0.184-0.02 0.056-0.542z"/>
			<path d="m85.164 49.816c0.045 0.07 0.129 0.134 0.264 0.128 0.209-0.009 0.295-0.172 0.289-0.298-0.008-0.127-0.039-0.842-0.039-0.842l-0.188 0.008s0.027 0.645 0.033 0.748c0.004 0.104-0.01 0.199-0.104 0.203-0.08 0.005-0.105-0.079-0.113-0.253l-0.102 0.004c-0.011 0.096-0.03 0.238-0.04 0.302z"/>
			<path d="m86.361 49.67c0.143-0.018 0.166-0.127 0.156-0.222-0.014-0.097-0.096-0.757-0.096-0.757l0.199-0.025s0.076 0.603 0.094 0.752c0.023 0.185-0.039 0.402-0.33 0.439-0.293 0.037-0.406-0.16-0.428-0.344-0.02-0.149-0.096-0.752-0.096-0.752l0.199-0.025s0.084 0.66 0.096 0.756c0.013 0.096 0.064 0.196 0.206 0.178z"/>
			<path d="m87.518 48.783c-0.059-0.184-0.211-0.311-0.48-0.221-0.268 0.088-0.27 0.316-0.227 0.441 0.041 0.125 0.121 0.244 0.461 0.192 0.137-0.021 0.225 0.015 0.25 0.093 0.025 0.077-0.01 0.163-0.127 0.201-0.119 0.039-0.229 0.01-0.266-0.104l-0.182 0.062c0.051 0.138 0.213 0.318 0.475 0.231 0.264-0.087 0.334-0.267 0.266-0.479-0.07-0.213-0.232-0.23-0.436-0.2-0.201 0.03-0.256-0.015-0.273-0.068-0.018-0.054-0.029-0.137 0.105-0.182 0.135-0.044 0.225-0.013 0.26 0.092l0.174-0.058z"/>
			<polygon points="88.379 49.352 88.037 48.493 88.309 48.385 88.24 48.213 87.525 48.498 87.596 48.67 87.867 48.562 88.211 49.42"/>
			<polygon points="89.109 49.001 88.564 48.029 88.389 48.128 88.934 49.099"/>
			<path d="m89.66 47.812c-0.096-0.16-0.328-0.279-0.555-0.146s-0.254 0.422-0.074 0.729c0.18 0.308 0.443 0.421 0.656 0.297 0.213-0.126 0.275-0.359 0.152-0.568l-0.16 0.092c0.047 0.078 0.045 0.223-0.08 0.295-0.123 0.071-0.287-0.011-0.404-0.21-0.119-0.201-0.129-0.374 0.014-0.457 0.145-0.084 0.252-0.001 0.291 0.062l0.16-0.094z"/>
			<polygon points="90.354 48.176 89.701 47.275 89.537 47.393 90.191 48.294"/>
			<polygon points="90.795 47.49 90.994 47.615 91.094 47.476 90.137 46.872 89.973 47.022 90.496 48.071 90.635 47.943 90.529 47.734 90.652 47.621 90.527 47.484 90.443 47.562 90.232 47.143 90.633 47.389 90.527 47.484 90.652 47.621"/>
			<path d="m81.789 39.973" fill="#fff"/>
			<path d="m81.789 39.973" stroke="#000" stroke-miterlimit="3" stroke-width=".0839" fill="none"/>
</g>
</svg>
