<?xml version="1.0" encoding="UTF-8" standalone="no"?>
<!-- Generator: Adobe Illustrator 18.0.0, SVG Export Plug-In . SVG Version: 6.00 Build 0)  -->
<!DOCTYPE svg  PUBLIC '-//W3C//DTD SVG 1.1//EN'  'http://www.w3.org/Graphics/SVG/1.1/DTD/svg11.dtd'>
<svg style="enable-background:new 0 0 144 80" xmlns="http://www.w3.org/2000/svg" xml:space="preserve" version="1.1" y="0px" x="0px" xmlns:xlink="http://www.w3.org/1999/xlink" viewBox="0 0 144 80">
<g id="IRQ">
			<polygon points="144 53.334 0 53.334 0 26.666 144 26.666" fill="#fff"/>
			<polygon points="144 26.666 0 26.666 0 0 144 0" fill="#CE1126"/>
			<polygon points="144 80 0 80 0 53.334 144 53.334"/>
		<g fill="#009A67">
			<polygon points="72.001 32.351 69.911 38.842 63.044 38.842 68.62 42.878 66.478 49.363 72.001 45.333 77.522 49.363 75.407 42.824 80.958 38.867 74.116 38.867"/>
			<polygon points="36.853 32.351 34.765 38.842 27.896 38.842 33.474 42.878 31.331 49.363 36.853 45.333 42.374 49.363 40.259 42.824 45.81 38.867 38.968 38.867"/>
			<polygon points="107.15 32.351 105.06 38.842 98.19 38.842 103.77 42.878 101.63 49.363 107.15 45.333 112.67 49.363 110.56 42.824 116.1 38.867 109.26 38.867"/>
			<path d="m45.048 44.752c0.846 0.328 1.432 0.44 1.945-0.33 0.516-0.773 0.736-1.139 0.699-1.433s0.146-0.698 0.734-0.771c0.588-0.074 0.918-0.295 1.211-0.515 0.293-0.221 1.064-0.257 1.064 0.478 0 0.88-0.037 1.433 0.514 1.65 0.553 0.223 1.287-0.151 1.543-1.467 0.33-1.689 0.479-2.498 1.248-2.276 0.438 0.124-0.039 0.965-0.184 1.506-0.184 0.696-0.256 1.395-0.586 2.237-0.354 0.904-0.771 1.507-1.58 1.471-0.809-0.037-1.652-0.294-1.727-1.102-0.072-0.81-0.635-0.647-1.211-0.332-0.734 0.404-0.771 0.734-0.771 1.36 0 0.623-0.182 1.357-1.285 1.321-1.102-0.036-1.531-0.348-2.057-0.698-0.659-0.438-0.217-1.357 0.443-1.099z"/>
			<path d="m49.747 46.35c0.111 0.293-0.533 0.636-0.275 1.045 0.221 0.35 0.963 0.185 0.863-0.459-0.035-0.239-0.238-0.458-0.588-0.586z"/>
			<path d="m54.376 39.317c-0.281-0.841-0.008-0.982 0.807-1.544 1.762-1.21 4.711-3.508 5.6-4.313 0.789-0.716 1.502-0.327 0.441 0.568-2.59 2.188-4.928 3.947-5.582 4.462-0.606 0.479-0.834 0.703-0.899 0.845-0.092 0.202-0.312 0.147-0.367-0.018z"/>
			<path d="m58.028 38.289c0.31-0.112 0.846-0.164 1.396-0.201 0.199-0.016 0.342-0.166 0.328-0.332-0.035-0.478-0.176-0.609 0.57-0.734 0.771-0.129 1.672-0.037 2.111-0.129s0.367 0.367-0.055 0.496c-0.422 0.128-1.268 0.128-1.561 0.128 0.037 0.699-0.111 1.249-0.754 1.177-0.641-0.074-1.469-0.008-1.816 0.072-0.476 0.111-0.623-0.33-0.219-0.477z"/>
			<path d="m58.817 46.808c0.289-1.623 0.881-4.847 0.734-6.39-0.043-0.438 0.074-0.789 0.57-0.605 0.494 0.184 0.34 0.495 0.33 0.717-0.111 2.313-0.658 5.197-1.139 6.278-0.219 0.496-0.586 0.513-0.495 0z"/>
			<path d="m84.374 41.979c-0.035-0.918-0.77-0.898-1.504-0.495s-2.352 1.285-2.977 1.726c-0.623 0.44-0.75 2.148 0.203 2.46 0.955 0.312 1.891 0.239 2.332 0.11 0.441-0.128 0.434-0.688-0.092-0.844-1.469-0.441-1.422-0.671-0.551-1.231 1.285-0.826 2.037-0.109 1.891 0.753-0.185 1.099-0.855 2.099-0.146 2.479 1.23 0.661 2.492-1.686 3.855-0.789 1.285 0.846 4.191 0.147 4.242-2.131 0.018-0.843 0.164-2.421 0.422-2.809 0.256-0.385 0.367-0.66 0.33-0.99-0.037-0.332-0.238-0.275-0.479-0.074-0.238 0.202-1.23 0.439-1.266 1.029-0.148 2.331 0.018 2.973-1.359 3.157-1.375 0.185-1.432-0.073-1.229-0.808 0.201-0.735 0.365-1.891 0.33-2.404-0.037-0.516-0.221-1.048-0.643-1.25-0.424-0.201-1.285 0.092-0.957 0.569 0.332 0.478 0.348 2.153 0.129 3.03-0.055 0.219-0.236 0.44-0.844 0.807-0.605 0.367-1.65 0.846-1.65-0.11 0.002-0.955-0.017-1.744-0.037-2.185z"/>
			<path d="m88.212 36.875c-0.152 0.255-0.305 0.953-0.293 1.304 0.02 0.569 0.371 0.761 0.732 0.367 0.223-0.239 0.252-0.227 0.441-0.064 0.598 0.514 1.947 0.119 1.965-0.522 0.02-0.644-0.221-0.45-0.357-0.277-0.322 0.414-1.119 0.314-0.955-0.403 0.16-0.692-0.164-0.541-0.377-0.228-0.322 0.475-1 0.64-0.863 0.062 0.047-0.192-0.035-0.671-0.293-0.239z"/>
			<path d="m88.028 35.187c0.336-1.221 0.643-2.626 0.734-3.69 0.064-0.735 0.111-0.699 0.422-0.816 0.312-0.121 0.42 0.01 0.367 0.458-0.166 1.387-0.697 3.223-1.101 4.14-0.265 0.601-0.568 0.44-0.422-0.092z"/>
			<path d="m94.841 45.779c0.25-1.169 0.623-3.828 0.551-5.618-0.014-0.302 0.191-0.425 0.422-0.551 0.303-0.165 0.67-0.255 0.623 0.367-0.164 2.223-0.697 4.646-1.102 5.985-0.199 0.668-0.606 0.331-0.494-0.183z"/>
			<path d="m94.913 38.398c-0.553 0.186-0.863 0.68 0.02 0.496 0.881-0.183 1.615-0.386 2.037-0.531 0.422-0.147 0.184-0.441 0.055-0.699-0.076-0.153-0.01-0.215 0.33-0.312 0.771-0.221 1.287-0.533 1.58-0.679 0.293-0.147 0.33-0.606-0.277-0.404-0.604 0.201-2.037 0.458-2.404 0.569-0.367 0.109-0.393 0.254-0.33 0.531 0.045 0.202 0.064 0.386 0.092 0.552 0.02 0.113-0.018 0.109-0.164 0.166-0.15 0.055-0.609 0.202-0.939 0.311z"/>
		</g>
</g>
</svg>
