<?xml version="1.0" encoding="UTF-8" standalone="no"?>
<!-- Generator: Adobe Illustrator 18.0.0, SVG Export Plug-In . SVG Version: 6.00 Build 0)  -->
<!DOCTYPE svg  PUBLIC '-//W3C//DTD SVG 1.1//EN'  'http://www.w3.org/Graphics/SVG/1.1/DTD/svg11.dtd'>
<svg style="enable-background:new 0 0 144 80" xmlns="http://www.w3.org/2000/svg" xml:space="preserve" version="1.1" y="0px" x="0px" xmlns:xlink="http://www.w3.org/1999/xlink" viewBox="0 0 144 80">
<g id="DMA">
			<polygon points="144 80 144 0 0 0 0 80" fill="#006B3F"/>
			<polygon points="144 36.668 144 30 0 30 0 36.668" fill="#FCD116"/>
			<polygon stroke-width=".1317" points="144 43.334 144 36.668 0 36.668 0 43.334" stroke="#000"/>
			<polygon points="144 50.002 144 43.334 0 43.334 0 50.002" fill="#fff"/>
			<polygon points="68.999 0.001 62.998 0.001 62.998 80.001 68.999 80.001" fill="#FCD116"/>
			<polygon stroke-width=".1317" points="75.001 0.001 68.999 0.001 68.999 80.001 75.001 80.001" stroke="#000"/>
			<polygon points="80.999 0.001 75.001 0.001 75.001 80.001 80.999 80.001" fill="#fff"/>
			<path d="m72 40.001" fill="#fff"/>
			<path d="m72 40.001" fill="#fff"/>
			<path d="m72 59.132c10.565 0 19.13-8.566 19.13-19.131 0-10.566-8.564-19.131-19.13-19.131-10.565 0-19.13 8.565-19.13 19.131 0 10.564 8.565 19.131 19.13 19.131z" fill="#D41C30"/>
			<polygon points="72 21.849 71.416 23.664 69.495 23.664 71.056 24.793 70.456 26.607 72 25.48 73.544 26.607 72.952 24.777 74.505 23.671 72.592 23.671" fill="#00693F"/>
			<polygon points="61.33 25.316 61.925 27.128 60.371 28.256 62.297 28.253 62.877 30.072 63.464 28.253 65.376 28.258 63.823 27.124 64.428 25.318 62.88 26.442" fill="#00693F"/>
			<polygon points="54.736 34.392 56.282 35.509 55.688 37.335 57.245 36.2 58.784 37.33 58.189 35.514 59.738 34.394 57.816 34.391 57.243 32.573 56.652 34.393" fill="#00693F"/>
			<polygon points="54.737 45.61 56.644 45.605 57.237 47.432 57.829 45.6 59.738 45.609 58.189 44.488 58.784 42.672 57.228 43.8 55.696 42.666 56.287 44.485" fill="#00693F"/>
			<polygon points="61.332 54.687 62.871 53.562 64.425 54.69 63.826 52.859 65.377 51.746 63.465 51.75 62.879 49.931 62.282 51.757 60.377 51.74 61.924 52.864" fill="#00693F"/>
			<polygon points="72.001 58.152 72.585 56.338 74.506 56.338 72.946 55.209 73.546 53.396 72.001 54.521 70.457 53.396 71.049 55.224 69.497 56.33 71.409 56.33" fill="#00693F"/>
			<polygon points="82.671 54.685 82.076 52.873 83.63 51.744 81.704 51.747 81.124 49.928 80.536 51.748 78.625 51.744 80.178 52.876 79.573 54.683 81.121 53.558" fill="#00693F"/>
			<polygon points="89.264 45.607 87.718 44.491 88.312 42.665 86.755 43.8 85.216 42.67 85.812 44.486 84.263 45.606 86.185 45.609 86.757 47.427 87.348 45.607" fill="#00693F"/>
			<polygon points="89.262 34.39 87.356 34.395 86.762 32.568 86.171 34.4 84.261 34.391 85.81 35.511 85.216 37.328 86.772 36.2 88.303 37.335 87.712 35.516" fill="#00693F"/>
			<polygon points="82.667 25.315 81.128 26.44 79.574 25.311 80.173 27.141 78.622 28.256 80.533 28.252 81.12 30.07 81.717 28.244 83.622 28.261 82.074 27.136" fill="#00693F"/>
			<path d="m68.501 30.653c0 0.334 0 0.906 0.824 1.011 0.512-0.186 0.334-1.321 0.178-1.634-0.357 0.023-0.868 0.424-1.002 0.623z" fill="#D9D9D9"/>
			<path stroke-linejoin="round" d="m68.501 30.653c0 0.334 0 0.906 0.824 1.011 0.512-0.186 0.334-1.321 0.178-1.634-0.357 0.023-0.868 0.424-1.002 0.623v0z" stroke="#000" stroke-linecap="round" stroke-width=".1107" fill="none"/>
			<path d="m69.503 30.343c-0.557 0.289-1.27 0.824-1.203 1.692-0.979-0.69-1.047-2.695 0.046-2.985 0.399-0.022 1.224 0.535 1.157 1.293z" fill="#D9D9D9"/>
			<path stroke-linejoin="round" d="m69.503 30.343c-0.557 0.289-1.27 0.824-1.203 1.692-0.979-0.69-1.047-2.695 0.046-2.985 0.399-0.022 1.224 0.535 1.157 1.293v0z" stroke="#000" stroke-linecap="round" stroke-width=".1107" fill="none"/>
			<path d="m69.043 32.317c0.512 0.445 1.485 0.364 1.952 0.097 0.847 0.489 1.76 0.557 2.939 0.178 0.224 0.067 0.825 0.155 1.048 0.067 0.134-0.134 0.267-0.224 0.4-0.312-0.267-0.223-0.534-0.624-0.668-1.024 0 0 0.223-0.267 0.312-0.401-0.223-0.223-0.668-0.578-0.891-0.713 0.134-0.133 0.268-0.534 0.268-0.534-0.445-0.133-0.891-0.446-1.068-0.624l0.044-0.268c-0.728-0.044-0.698-0.934-2.272-1.202-1.068-0.181-2.672 0.268-2.761 1.47 0.593 0.58 1.499 1.352 0.979 2.614-0.135 0.178-0.387 0.416-0.534 0.489 0.089 0.104 0.147 0.118 0.252 0.163z" fill="#7D76B6"/>
			<path stroke-linejoin="round" d="m69.043 32.317c0.512 0.445 1.485 0.364 1.952 0.097 0.847 0.489 1.76 0.557 2.939 0.178 0.224 0.067 0.825 0.155 1.048 0.067 0.134-0.134 0.267-0.224 0.4-0.312-0.267-0.223-0.534-0.624-0.668-1.024 0 0 0.223-0.267 0.312-0.401-0.223-0.223-0.668-0.578-0.891-0.713 0.134-0.133 0.268-0.534 0.268-0.534-0.445-0.133-0.891-0.446-1.068-0.624l0.044-0.268c-0.728-0.044-0.698-0.934-2.272-1.202-1.068-0.181-2.672 0.268-2.761 1.47 0.593 0.58 1.499 1.352 0.979 2.614-0.135 0.178-0.387 0.416-0.534 0.489 0.089 0.104 0.147 0.118 0.252 0.163v0z" stroke="#000" stroke-linecap="round" stroke-width=".1107" fill="none"/>
			<path d="m73.394 45.428c0.387 1.634 1.396 4.692 1.663 5.376 0.267 0.683 0.652 2.078 1.515 2.316 0.387 0.207 0.92 0.059 0.683-1.723 0.268-0.061 0.327-0.743 0.268-1.218-0.06-0.476-0.208-2.257-0.237-3.683-0.032-1.424-3.922-3.651-3.892-1.068z" fill="#00693F"/>
			<path stroke-linejoin="round" d="m73.394 45.428c0.387 1.634 1.396 4.692 1.663 5.376 0.267 0.683 0.652 2.078 1.515 2.316 0.387 0.207 0.92 0.059 0.683-1.723 0.268-0.061 0.327-0.743 0.268-1.218-0.06-0.476-0.208-2.257-0.237-3.683-0.032-1.424-3.922-3.651-3.892-1.068v0zm2.47 0.867c-0.021 0.49 0.454 2.667 0.499 2.957 0.044 0.289 0.2 2.078 0.891 2.146m-0.045 1.485c-0.153 0.227-0.578 0.266-0.846-0.269-0.268-0.534-0.824-2.449-1.047-3.608-0.223-1.158-0.713-3.274-0.908-4.181" stroke="#000" stroke-linecap="round" stroke-width=".1107" fill="none"/>
			<path d="m69.771 42.28c-0.148 1.069 0.119 3.147 0.623 3.95l2.347 0.534c0.237-0.149 0.505-0.506 0.595-0.801 0.563-0.18 1.009-0.625 1.157-1.486-0.683-1.632-3.119-3.8-4.722-2.197z" fill="#00693F"/>
			<path stroke-linejoin="round" d="m69.771 42.28c-0.148 1.069 0.119 3.147 0.623 3.95l2.347 0.534c0.237-0.149 0.505-0.506 0.595-0.801 0.563-0.18 1.009-0.625 1.157-1.486-0.683-1.632-3.119-3.8-4.722-2.197v0z" stroke="#000" stroke-linecap="round" stroke-width=".1107" fill="none"/>
			<path d="m74.982 32.659c0.044 0.356 0.267 0.712 0.534 0.935-0.178 0.134-0.268 0.312-0.312 0.446-0.979 0.846-3.252 6.725-3.296 8.017-0.156 0.691-0.468 1.781-0.735 2.249-1.515-1.358-3.074-3.898-2.813-5.04-0.09-0.016-0.223-0.03-0.371-0.075 0.029-0.104 0.089-0.623 0.104-0.935-0.089 0-0.252 0-0.386-0.045 0.029-0.193 0.089-0.758 0.089-1.01-0.148-0.045-0.326-0.193-0.461-0.342 0.104-0.268 0.372-0.786 0.506-1.099-0.224-0.03-0.387-0.252-0.461-0.386 0.193-0.119 0.445-0.461 0.549-0.668-0.163-0.134-0.356-0.327-0.386-0.416 0.208-0.193 0.817-0.861 1.084-1.232-0.163 0-0.223-0.016-0.356-0.045 0.223-0.089 0.475-0.416 0.772-0.697 0.512 0.445 1.485 0.364 1.952 0.097 0.847 0.489 1.76 0.557 2.939 0.178 0.224 0.068 0.826 0.156 1.048 0.068z" fill="#7D76B6"/>
			<path stroke-linejoin="round" d="m74.982 32.659c0.044 0.356 0.267 0.712 0.534 0.935-0.178 0.134-0.268 0.312-0.312 0.446-0.979 0.846-3.252 6.725-3.296 8.017-0.156 0.691-0.468 1.781-0.735 2.249-1.515-1.358-3.074-3.898-2.813-5.04-0.09-0.016-0.223-0.03-0.371-0.075 0.029-0.104 0.089-0.623 0.104-0.935-0.089 0-0.252 0-0.386-0.045 0.029-0.193 0.089-0.758 0.089-1.01-0.148-0.045-0.326-0.193-0.461-0.342 0.104-0.268 0.372-0.786 0.506-1.099-0.224-0.03-0.387-0.252-0.461-0.386 0.193-0.119 0.445-0.461 0.549-0.668-0.163-0.134-0.356-0.327-0.386-0.416 0.208-0.193 0.817-0.861 1.084-1.232-0.163 0-0.223-0.016-0.356-0.045 0.223-0.089 0.475-0.416 0.772-0.697 0.512 0.445 1.485 0.364 1.952 0.097 0.847 0.489 1.76 0.557 2.939 0.178 0.224 0.068 0.826 0.156 1.048 0.068v0z" stroke="#000" stroke-linecap="round" stroke-width=".1107" fill="none"/>
			<path d="m78.368 48.828c0.178-6.28-0.891-12.026-2.54-14.12-1.647-2.095-4.674-1.627-5.523 0.178-0.357 0.758-0.406 2.564-0.044 3.341 0.624 1.337 3.028 5.568 4.677 7.173 1.647 1.602 2.805 2.671 3.43 3.428z" fill="#00693F"/>
			<path stroke-linejoin="round" d="m78.368 48.828c0.178-6.28-0.891-12.026-2.54-14.12-1.647-2.095-4.674-1.627-5.523 0.178-0.357 0.758-0.406 2.564-0.044 3.341 0.624 1.337 3.028 5.568 4.677 7.173 1.647 1.602 2.805 2.671 3.43 3.428v0z" stroke="#000" stroke-linecap="round" stroke-width=".1107" fill="none"/>
			<path d="m75.888 47.328c-0.475 0.06-1.039-0.059-1.484-0.267s-0.832-0.416-1.307-0.416-3.06-0.178-3.475-0.326c-0.416-0.148-1.574-0.355-2.049-0.327-0.476 0.03-1.218 0.356-1.515 0.356s-0.445 0.237-0.445 0.475 0.06 0.684 0.415 0.922c0.624-0.031 1.515-0.09 1.633-0.209 0.862 0.237 2.021 0.476 2.732 0.505 0.713 0.03 1.99 0.09 2.465 0.06 0.477-0.029 0.564-0.178 1.188 0.03s1.455 0.653 1.841 0.772c0.387 0.118 0.624-0.268 0.713-0.684 0.09-0.415-0.206-0.919-0.712-0.891z" fill="#FFD420"/>
			<path stroke-linejoin="round" d="m75.888 47.328c-0.475 0.06-1.039-0.059-1.484-0.267s-0.832-0.416-1.307-0.416-3.06-0.178-3.475-0.326c-0.416-0.148-1.574-0.355-2.049-0.327-0.476 0.03-1.218 0.356-1.515 0.356s-0.445 0.237-0.445 0.475 0.06 0.684 0.415 0.922c0.624-0.031 1.515-0.09 1.633-0.209 0.862 0.237 2.021 0.476 2.732 0.505 0.713 0.03 1.99 0.09 2.465 0.06 0.477-0.029 0.564-0.178 1.188 0.03s1.455 0.653 1.841 0.772c0.387 0.118 0.624-0.268 0.713-0.684 0.09-0.415-0.206-0.919-0.712-0.891v0z" stroke="#000" stroke-linecap="round" stroke-width=".1107" fill="none"/>
			<path d="m75.888 48.903c0.387 0.118 0.624-0.268 0.713-0.684 0.09-0.416-0.207-0.92-0.713-0.892-0.371 0.076-0.854 1.004 0 1.576z" fill="#FFD420"/>
			<path stroke-linejoin="round" d="m75.888 48.903c0.387 0.118 0.624-0.268 0.713-0.684 0.09-0.416-0.207-0.92-0.713-0.892-0.371 0.076-0.854 1.004 0 1.576v0z" stroke="#000" stroke-linecap="round" stroke-width=".1107" fill="none"/>
			<path d="m70.869 45.992c-0.505-0.415-1.385-0.021-1.515 0.979-0.118 0.922 0.356 1.574 1.039 1.545-0.147-0.504-0.029-2.316 0.476-2.524z" fill="#D9D9D9"/>
			<path stroke-linejoin="round" d="m70.869 45.992c-0.505-0.415-1.385-0.021-1.515 0.979-0.118 0.922 0.356 1.574 1.039 1.545-0.147-0.504-0.029-2.316 0.476-2.524v0z" stroke="#000" stroke-linecap="round" stroke-width=".1107" fill="none"/>
			<path d="m71.642 45.992c-0.475-0.386-1.09-0.004-1.367 0.356-0.385 0.505-0.355 1.455-0.118 1.93 0.237 0.476 0.95 0.298 1.099 0.061-0.089-0.476-0.001-2.049 0.386-2.347z" fill="#D9D9D9"/>
			<path stroke-linejoin="round" d="m71.642 45.992c-0.475-0.386-1.09-0.004-1.367 0.356-0.385 0.505-0.355 1.455-0.118 1.93 0.237 0.476 0.95 0.298 1.099 0.061-0.089-0.476-0.001-2.049 0.386-2.347v0z" stroke="#000" stroke-linecap="round" stroke-width=".1107" fill="none"/>
			<path d="m72.577 46.355c-0.334-0.557-1.263-0.392-1.56 0.022-0.296 0.416-0.356 1.308 0 1.753s0.742 0.386 1.069 0.147c-0.089-0.414 0.046-1.475 0.491-1.922z" fill="#D9D9D9"/>
			<path stroke-linejoin="round" d="m72.577 46.355c-0.334-0.557-1.263-0.392-1.56 0.022-0.296 0.416-0.356 1.308 0 1.753s0.742 0.386 1.069 0.147c-0.089-0.414 0.046-1.475 0.491-1.922v0z" stroke="#000" stroke-linecap="round" stroke-width=".1107" fill="none"/>
			<path d="m73.126 46.616c-0.326-0.564-0.942-0.317-1.188 0.029-0.356 0.505-0.326 1.663 0.445 1.842 0.389 0.09 0.684-0.238 0.802-0.387-0.296-0.029-0.594-0.356-0.594-0.623 0.001-0.267 0.031-0.801 0.535-0.861z" fill="#D9D9D9"/>
			<path stroke-linejoin="round" d="m73.126 46.616c-0.326-0.564-0.942-0.317-1.188 0.029-0.356 0.505-0.326 1.663 0.445 1.842 0.389 0.09 0.684-0.238 0.802-0.387-0.296-0.029-0.594-0.356-0.594-0.623 0.001-0.267 0.031-0.801 0.535-0.861v0z" stroke="#000" stroke-linecap="round" stroke-width=".1107" fill="none"/>
			<path d="m70.482 28.604c-0.801 0-0.778 1.203 0 1.203 0.781 0.001 0.803-1.203 0-1.203z" fill="#FFD420"/>
			<path stroke-linejoin="round" d="m70.482 28.604c-0.801 0-0.778 1.203 0 1.203 0.781 0.001 0.803-1.203 0-1.203v0z" stroke="#000" stroke-linecap="round" stroke-width=".1107" fill="none"/>
			<path d="m70.482 29.057c-0.199 0-0.194 0.3 0 0.3 0.197 0 0.202-0.3 0-0.3z"/>
			<path d="m74.938 45.399c-1.648-1.604-4.053-5.836-4.677-7.173 0.49 1.872 0.979 4.856 4.677 7.173z" fill="#EC174C"/>
			<path stroke-linejoin="round" d="m74.938 45.399c-1.648-1.604-4.053-5.836-4.677-7.173 0.49 1.872 0.979 4.856 4.677 7.173v0zm-1.603-16.349c-0.387 0.535-0.713 0.728-0.862 0.787-0.089 0.238-0.356 0.535-0.653 0.654m-0.12-1.099c0.179 0.09 0.238-0.089 0.268-0.207m-1.514 1.544c0.207 0.06 0.355-0.09 0.445-0.208m1.485-1.366c0.089-0.061 0.268 0 0.386 0.029m-2.643 2.628c0.334 0.156 0.936-0.111 1.158-0.289 0.602 0.089 1.515-0.135 1.782-0.513 0.268-0.379 0.713-0.245 1.068-0.803m-1.447 1.917c0.38 0.044 0.802-0.089 0.98-0.312 0.178-0.224 0.534-0.535 1.047-0.49m-6.088 1.738c0.268 0 0.364 0.134 0.542 0.267 0.178 0.134 0.646 0 0.824 0.2 0.178 0.201 0.379 0.38 0.623 0.335m-2.687 0.846c0.224 0.044 0.706-0.023 0.862-0.09 0.222 0.134 0.646 0.245 0.847 0.156m-1.797 0.988c0.244 0 0.526-0.007 0.727-0.141 0.224 0.134 0.713 0.222 0.936 0.11m2.783-1.357c-0.356 0.423-0.579 1.158 0.245 1.715 0.512-0.201 0.913-0.779 0.601-1.737m-2.077-0.385c-0.066 0.489 0.36 1.059 0.939 0.97m-1.334 0.55c0.201 0.823 1.024 1.736 1.871 0.602m0.218-0.113c0.089 0.422 0.275 0.938 0.827 1.012 0.781 0.104 0.759-1.455 0.492-2.303m-0.923-0.292c0.388 0.448 1.323 0.604 1.478-0.686m-0.511 2.76c0.624 0.602 2.339-0.267 0.458-2.472m-3.13 3.073c0.556 0.4 1.132 0.691 1.644-0.333m-3.05 0.489c0.668 0.692 1.205 0.797 1.74 0.062m-0.669 0.497c0.246 0.445 0.579 0.822 0.937 1 0.355 0.179 0.601-0.066 0.645-0.378 0.046-0.312-0.032-0.711-0.121-1.045m0.077 1c0.356 0.2 1.158 0.267 1.381-0.401 0.401 0.312 0.869 0.557 1.203 0.134m0.035-3.043c0.297 0.684 0.892 2.36 0.863 2.925 0.475 0.949 0.594 1.662 0.534 2.197 0.386 0.564 0.594 1.633 0.416 2.138m-9.28-5.108c0.163-0.029 0.46-0.104 0.564-0.179 0.104-0.074 0.178-0.015 0.341 0.075 0.163 0.088 0.416 0.029 0.729-0.179m-1.337 1.338c0.178-0.016 0.594-0.149 0.757-0.238m-0.49 1.248c0.445-0.06 0.92-0.609 1.306-0.446m-0.044 1.321c0.281 0.09 0.616-0.504 1.008-0.496m4.357-3.092c0.148 0.342 0.262 1.346 0.203 1.584-0.061 0.237 0.029 0.298 0.267 0.253 0.237-0.046 0.55-0.267 0.669-0.416m-0.713 0.905c-0.164 0.742-0.06 1.456 0.089 1.738 0.148 0.281 0.757 0.118 1.158-0.446m-4.127-1.437c-0.015 0.371 0.325 1.154 0.622 1.466 0.298 0.312 0.698 0.401 0.877 0s0.163-1.231-0.218-1.91m0.327 1.211c0.223 0.134 0.849 0.149 1.19 0.075m-1.701 0.891c0.357 0.877 1.132 1.387 1.963 0.244m-3.442 0.178c0.327 0.326 1.062 0.425 1.553-0.258m-0.83-0.838c-0.072 0.238-0.696 0.772-1.35 0.772m0.994 1.627c0.654 0.327 1.589 0.294 1.389-1.234m-4.017 1.024c0.326-0.237 0.799-0.383 1.097-0.264m2.947-0.361c0.03 0.772 0.499 2.704 1.509 3.595s2.369 2.077 2.934 3.562m0.01-1.1c-0.06-1.246-1.222-2.433-1.935-3.056-0.713-0.624-1.488-2.051-1.102-3.357 0.003 0.565 0.686 1.427 1.19 1.872s1.735 1.752 1.79 2.285m-2.503-4.41c-0.06 0.355 0.417 0.997 0.951 1.383 0.535 0.386 1.447 1.277 1.476 1.81m-4.919 2.022c-0.38-0.291-0.627-1.323-0.338-2.103m-0.687-0.78c-0.355 0.601-0.298 1.067-0.312 1.382-0.021 0.49 0.362 0.847 0.874 0.111m-1.637-0.384c0.089 0.244 0.206 0.718 0.206 0.963 0.222-0.111 0.489-0.225 0.667-0.27m-0.667 0.27c0.066 0.134 0.11 0.424 0.11 0.69m-1.117-2.288c-0.134 0.445-0.225 1.076 0.428 1.465m0.426-0.669c-0.156 0.2-0.359 0.491-0.359 0.713 0.021 0.268 0 0.561 0.111 0.782m1.365-0.864c-0.156 0.312-0.234 0.71-0.212 0.978m-0.639-2.602c0.045 0.244 0.129 0.548 0.485 0.436m-2.283-0.059c0.029 0.207 0.134 0.416 0.579 0.445" stroke="#000" stroke-linecap="round" stroke-width=".1107" fill="none"/>
			<path d="m66.889 46.14c0.134-0.057 0.388-0.102 0.498-0.124-0.052 0.243 0 0.4-0.2 0.422s-0.208-0.089-0.298-0.298z"/>
			<path stroke-linejoin="round" d="m66.889 46.14c0.134-0.057 0.388-0.102 0.498-0.124-0.052 0.243 0 0.4-0.2 0.422s-0.208-0.089-0.298-0.298v0z" stroke="#000" stroke-linecap="round" stroke-width=".1107" fill="none"/>
			<path d="m67.936 47.609c0.225 0.05 0.01 0.04-0.274-0.073-0.059 0.054-0.196 0.076-0.24 0.083 0.062-0.319 0.016-0.431 0.33-0.439 0.28-0.007 0.147 0.059 0.184 0.429z"/>
			<path stroke-linejoin="round" d="m67.936 47.609c0.225 0.05 0.01 0.04-0.274-0.073-0.059 0.054-0.196 0.076-0.24 0.083 0.062-0.319 0.016-0.431 0.33-0.439 0.28-0.007 0.147 0.059 0.184 0.429v0z" stroke="#000" stroke-linecap="round" stroke-width=".1107" fill="none"/>
</g>
</svg>
