<?xml version="1.0" encoding="UTF-8" standalone="no"?>
<!-- Generator: Adobe Illustrator 18.0.0, SVG Export Plug-In . SVG Version: 6.00 Build 0)  -->
<!DOCTYPE svg  PUBLIC '-//W3C//DTD SVG 1.1//EN'  'http://www.w3.org/Graphics/SVG/1.1/DTD/svg11.dtd'>
<svg style="enable-background:new 0 0 144 80" xmlns="http://www.w3.org/2000/svg" xml:space="preserve" version="1.1" y="0px" x="0px" xmlns:xlink="http://www.w3.org/1999/xlink" viewBox="0 0 144 80">
<g id="SYR">
			<polygon points="0 53.333 144 53.333 144 26.666 0 26.666" fill="#fff"/>
			<polygon points="144 26.666 0 26.666 0 0 144 0" fill="#CE2028"/>
			<polygon points="144 80 0 80 0 53.333 144 53.333"/>
		<g fill="#009D60">
			<polygon points="40.629 28.771 37.872 37.338 28.805 37.338 36.168 42.668 33.339 51.229 40.629 45.91 47.917 51.229 45.126 42.598 52.45 37.375 43.42 37.375"/>
			<polygon points="103.37 28.771 100.62 37.338 91.549 37.338 98.912 42.668 96.083 51.229 103.37 45.91 110.66 51.229 107.87 42.598 115.2 37.375 106.16 37.375"/>
		</g>
</g>
</svg>
