<?xml version="1.0" encoding="UTF-8" standalone="no"?>
<!-- Generator: Adobe Illustrator 18.0.0, SVG Export Plug-In . SVG Version: 6.00 Build 0)  -->
<!DOCTYPE svg  PUBLIC '-//W3C//DTD SVG 1.1//EN'  'http://www.w3.org/Graphics/SVG/1.1/DTD/svg11.dtd'>
<svg style="enable-background:new 0 0 144 80" xmlns="http://www.w3.org/2000/svg" xml:space="preserve" version="1.1" y="0px" x="0px" xmlns:xlink="http://www.w3.org/1999/xlink" viewBox="0 0 144 80">
<g id="NRU">
		<polygon points="0 0 144 0 144 80 0 80" fill="#002B7F"/>
		<polygon points="144 44.4 0 44.4 0 37.954 144 37.954" fill="#FFC61E"/>
		<polygon points="36.295 71.052 38.001 64.424 42.741 69.354 40.956 62.767 47.489 64.606 42.632 59.846 49.222 58.16 42.632 56.473 47.489 51.714 40.956 53.553 42.741 46.966 38.001 51.896 36.295 45.268 34.589 51.896 29.849 46.966 31.634 53.553 25.101 51.714 29.959 56.473 23.368 58.16 29.959 59.846 25.101 64.606 31.634 62.767 29.849 69.354 34.589 64.424" fill="#fff"/>
</g>
</svg>
