<?xml version="1.0" encoding="UTF-8" standalone="no"?>
<!-- Generator: Adobe Illustrator 18.0.0, SVG Export Plug-In . SVG Version: 6.00 Build 0)  -->
<!DOCTYPE svg  PUBLIC '-//W3C//DTD SVG 1.1//EN'  'http://www.w3.org/Graphics/SVG/1.1/DTD/svg11.dtd'>
<svg style="enable-background:new 0 0 144 80" xmlns="http://www.w3.org/2000/svg" xml:space="preserve" version="1.1" y="0px" x="0px" xmlns:xlink="http://www.w3.org/1999/xlink" viewBox="0 0 144 80">
<g id="LES">
	<g id="Lesotho">
		<rect height="80" width="144" y="0" x="0" fill="#fff"/>
			<rect height="24" width="144" y="56" x="0" fill="#009448"/>
			<rect height="23.999" width="144" y="0" x="0" fill="#28388F"/>
		<g transform="matrix(1.137 0 0 1.137 -30.564 -28.26)">
			<path id="path1873" stroke-width=".269" stroke="#000" d="m90.096 47.271c-0.401 0.008-0.793 0.452-0.793 0.452l0.035 4.746-1.499 1.57h1.213l-0.01 2.722-7.175 9.661-1.06-0.368-1.855 3.955s4.586 2.871 11.242 2.792c7.303-0.087 11.273-2.926 11.273-2.926l-1.915-3.904-0.938 0.409-7.267-9.612-0.01-2.803h1.213l-1.65-1.55 0.009-4.728c-0.004 0.002-0.416-0.425-0.816-0.416z"/>
			<path id="path2760" d="m92.597 58.632h-4.961s-1.8-3.795-1.509-6.447c0.297-2.7 1.841-3.979 3.893-4.001 2.426-0.027 3.699 1.189 4.081 3.893 0.382 2.68-1.504 6.555-1.504 6.555z" stroke="#000" stroke-width="1.3451" fill="none"/>
			<path id="path3649" fill="#fff" d="m81.424 67.676c-0.081 0.108-0.677 1.298-0.677 1.298l1.028-0.216-0.351-1.082z"/>
			<path id="path3651" fill="#fff" d="m82.018 69.217l-1.082 0.351 1.299 0.514-0.217-0.865z"/>
			<path id="path3653" fill="#fff" d="m82.504 67.703l0.542 1.595 1.324-0.379-0.35-0.757-1.516-0.459z"/>
			<path id="path3655" fill="#fff" d="m83.343 69.866l0.189 0.648 1.758 0.432-0.703-1.487-1.244 0.407z"/>
			<path id="path3657" fill="#fff" d="m85.29 68.514l0.622 1.487 1.324-0.514-0.432-0.649-1.514-0.324z"/>
			<path id="path3659" fill="#fff" d="m86.155 70.541l0.216 0.568 2.055 0.298-0.864-1.352-1.407 0.486z"/>
			<path id="path3661" fill="#fff" d="m88.128 68.946l0.758 1.325 1.919-0.703-0.216-0.514-2.461-0.108z"/>
			<path id="path3663" fill="#fff" d="m89.236 70.758l0.405 0.703 2.378-0.081-0.891-1.324-1.892 0.702z"/>
			<path id="path3665" fill="#fff" d="m91.751 69l0.649 1.109 1.513-0.731-0.406-0.594-1.756 0.216z"/>
			<path id="path3667" fill="#fff" d="m94.238 69.839l-1.514 0.757 0.405 0.648 2.027-0.325-0.918-1.08z"/>
			<path id="path3669" fill="#fff" d="m94.725 68.676l0.783 0.973 1.271-0.999-0.433-0.46-1.621 0.486z"/>
			<path id="path3671" fill="#fff" d="m97.05 69.189l-1.219 0.92 0.326 0.567 1.677-0.432-0.784-1.055z"/>
			<path id="path3673" fill="#fff" d="m98.725 67.27l0.298 0.432-0.838 1.244-0.866-1.108 1.406-0.568z"/>
			<path id="path3675" fill="#fff" d="m99.294 68.352l0.514 1.026-1.028 0.352-0.082-0.487 0.596-0.891z"/>
		</g>
	</g>
</g>
</svg>
