<?xml version="1.0" encoding="UTF-8" standalone="no"?>
<!-- Generator: Adobe Illustrator 18.0.0, SVG Export Plug-In . SVG Version: 6.00 Build 0)  -->
<!DOCTYPE svg  PUBLIC '-//W3C//DTD SVG 1.1//EN'  'http://www.w3.org/Graphics/SVG/1.1/DTD/svg11.dtd'>
<svg style="enable-background:new 0 0 144 80" xmlns="http://www.w3.org/2000/svg" xml:space="preserve" version="1.1" y="0px" x="0px" xmlns:xlink="http://www.w3.org/1999/xlink" viewBox="0 0 144 80">
<g id="UZB">
		<polygon points="144 54.41 0 54.41 0 25.604 144 25.604" fill="#F05C2A"/>
		<polygon points="144 25.604 0 25.604 0 0 144 0" fill="#0093C1"/>
		<polygon points="144 52.812 0 52.812 0 27.207 144 27.207" fill="#fff"/>
		<polygon points="144 80 0 80 0 54.41 144 54.41" fill="#2FB357"/>
		<g fill="#fff">
			<path d="m14.976 12.373c0 3.621 2.936 6.558 6.557 6.558 0.518 0 1.027-0.066 1.51-0.179-1.441 1.207-3.293 1.929-5.321 1.929-4.589 0-8.309-3.72-8.309-8.308s3.72-8.309 8.309-8.309c2.028 0 3.88 0.722 5.321 1.93-0.483-0.113-0.992-0.18-1.51-0.18-3.622 0-6.557 2.938-6.557 6.559z"/>
			<polygon points="49.528 17.542 49.138 18.758 47.852 18.758 48.896 19.514 48.496 20.728 49.528 19.974 50.563 20.728 50.167 19.504 51.206 18.763 49.925 18.763"/>
			<polygon points="43.935 17.542 44.329 18.763 45.611 18.763 44.572 19.504 44.968 20.728 43.935 19.974 42.9 20.728 43.302 19.514 42.257 18.758 43.544 18.758"/>
			<polygon points="38.34 17.542 38.735 18.763 40.017 18.763 38.978 19.504 39.374 20.728 38.34 19.974 37.306 20.728 37.707 19.514 36.663 18.758 37.949 18.758"/>
			<polygon points="32.745 17.542 33.142 18.763 34.421 18.763 33.384 19.504 33.778 20.728 32.745 19.974 31.712 20.728 32.112 19.514 31.068 18.758 32.354 18.758"/>
			<polygon points="27.15 17.542 26.759 18.758 25.474 18.758 26.518 19.514 26.116 20.728 27.15 19.974 28.184 20.728 27.788 19.504 28.827 18.763 27.546 18.763"/>
			<polygon points="49.528 4.009 49.138 5.225 47.852 5.225 48.896 5.981 48.496 7.194 49.528 6.44 50.563 7.194 50.167 5.971 51.206 5.229 49.925 5.229"/>
			<polygon points="43.935 4.009 44.329 5.229 45.611 5.229 44.572 5.971 44.968 7.194 43.935 6.44 42.9 7.194 43.302 5.981 42.257 5.225 43.544 5.225"/>
			<polygon points="38.34 4.009 38.735 5.229 40.017 5.229 38.978 5.971 39.374 7.194 38.34 6.44 37.306 7.194 37.707 5.981 36.663 5.225 37.949 5.225"/>
			<polygon points="49.528 10.775 49.138 11.99 47.852 11.99 48.896 12.747 48.496 13.961 49.528 13.207 50.563 13.961 50.167 12.736 51.206 11.996 49.925 11.996"/>
			<polygon points="43.935 10.775 44.329 11.996 45.611 11.996 44.572 12.736 44.968 13.961 43.935 13.207 42.9 13.961 43.302 12.747 42.257 11.99 43.544 11.99"/>
			<polygon points="38.34 10.775 38.735 11.996 40.017 11.996 38.978 12.736 39.374 13.961 38.34 13.207 37.306 13.961 37.707 12.747 36.663 11.99 37.949 11.99"/>
			<polygon points="32.745 10.775 33.142 11.996 34.421 11.996 33.384 12.736 33.778 13.961 32.745 13.207 31.712 13.961 32.112 12.747 31.068 11.99 32.354 11.99"/>
		</g>
</g>
</svg>
