<?xml version="1.0" encoding="UTF-8" standalone="no"?>
<!-- Generator: Adobe Illustrator 18.0.0, SVG Export Plug-In . SVG Version: 6.00 Build 0)  -->
<!DOCTYPE svg  PUBLIC '-//W3C//DTD SVG 1.1//EN'  'http://www.w3.org/Graphics/SVG/1.1/DTD/svg11.dtd'>
<svg style="enable-background:new 0 0 144 80" xmlns="http://www.w3.org/2000/svg" xml:space="preserve" version="1.1" y="0px" x="0px" xmlns:xlink="http://www.w3.org/1999/xlink" viewBox="0 0 144 80">
<g id="AZE">
			<polygon points="144 26.666 0 26.666 0 0 144 0" fill="#0098C3"/>
			<polygon points="0 80 144 80 144 53.334 0 53.334" fill="#00AE65"/>
			<polygon points="144 53.334 0 53.334 0 26.666 144 26.666" fill="#E00034"/>
		<g fill="#fff">
			<polygon points="80.444 33.989 81.577 37.229 84.698 35.745 83.231 38.846 86.455 39.999 83.245 41.116 84.698 44.254 81.614 42.756 80.444 46.01 79.285 42.756 76.189 44.254 77.655 41.116 74.435 39.999 77.667 38.846 76.189 35.745 79.321 37.229"/>
			<path d="m57.545 40c0 5.982 4.851 10.833 10.833 10.833 3.505 0 6.621-1.665 8.602-4.248-1.609 1.507-3.773 2.429-6.152 2.429-4.978 0-9.013-4.036-9.013-9.014s4.035-9.013 9.013-9.013c2.379 0 4.543 0.922 6.152 2.428-1.98-2.582-5.097-4.248-8.602-4.248-5.982 0-10.833 4.852-10.833 10.833z"/>
		</g>
</g>
</svg>
