<?xml version="1.0" encoding="UTF-8" standalone="no"?>
<!-- Generator: Adobe Illustrator 18.0.0, SVG Export Plug-In . SVG Version: 6.00 Build 0)  -->
<!DOCTYPE svg  PUBLIC '-//W3C//DTD SVG 1.1//EN'  'http://www.w3.org/Graphics/SVG/1.1/DTD/svg11.dtd'>
<svg style="enable-background:new 0 0 144 80" xmlns="http://www.w3.org/2000/svg" xml:space="preserve" version="1.1" y="0px" x="0px" xmlns:xlink="http://www.w3.org/1999/xlink" viewBox="0 0 144 80">
<g id="SVK">
		<rect height="26.667" width="144" y="26.666" x="0" fill="#0060A8"/>
		<rect height="26.667" width="144" y="53.333" x="0" fill="#EC1C2E"/>
		<path d="m144 26.666v-26.666h-144v26.666h30.298c-0.177 3.056-1.08 12.777 0.92 18.265 2.782 7.632 7.862 13.159 16.247 16.298 8.387-3.139 13.465-8.665 16.246-16.298 2.001-5.487 1.098-15.209 0.922-18.265h79.367z" fill="#fff"/>
			<path d="m63.113 19.98c0.288 5.877 0.792 14.891 0.576 19.361-0.156 3.241-2.307 15.071-16.225 20.696-13.918-5.625-16.067-17.455-16.227-20.696-0.214-4.471 0.289-13.484 0.579-19.361h31.297z" fill="#EC1C2E"/>
			<path d="m47.465 21.676c0.54 0 1.803 0.018 2.27-0.109-0.432 1.408-0.792 4.075-0.792 6.059 1.623 0.432 5.552-0.362 6.743-0.901-0.145 1.37-0.253 3.894 0.215 5.01-1.55-0.575-3.75-0.936-6.958-0.936v4.11c2.668 0.323 7.32-0.469 8.617-0.902-0.325 1.442-0.325 3.786-0.108 4.905-1.947-0.832-5.806-1.119-8.509-1.119v6.562c-0.38-0.161-0.938-0.343-1.478-0.343-0.539 0-1.099 0.182-1.479 0.343v-6.562c-2.704 0-6.561 0.287-8.508 1.119 0.215-1.119 0.215-3.463-0.109-4.905 1.299 0.434 5.95 1.226 8.617 0.902v-4.11c-3.209 0-5.408 0.36-6.959 0.936 0.469-1.116 0.361-3.64 0.217-5.01 1.19 0.539 5.119 1.333 6.742 0.901 0-1.983-0.36-4.65-0.793-6.059 0.469 0.126 1.733 0.109 2.272 0.109z" fill="#fff"/>
			<path d="m47.465 60.038c6.482-2.62 10.409-6.582 12.773-10.398-0.693-1.736-2.118-3.142-4.047-3.142-1.93 0-3.049 1.426-3.715 2.272-0.919-2.759-2.885-4.74-5.012-4.74-2.128 0-4.091 1.981-5.012 4.74-0.667-0.847-1.785-2.272-3.713-2.272-1.93 0-3.355 1.405-4.049 3.142 2.366 3.816 6.294 7.778 12.775 10.398z" fill="#0060A8"/>
</g>
</svg>
