<?xml version="1.0" encoding="UTF-8" standalone="no"?>
<!-- Generator: Adobe Illustrator 18.0.0, SVG Export Plug-In . SVG Version: 6.00 Build 0)  -->
<!DOCTYPE svg  PUBLIC '-//W3C//DTD SVG 1.1//EN'  'http://www.w3.org/Graphics/SVG/1.1/DTD/svg11.dtd'>
<svg style="enable-background:new 0 0 144 80" xmlns="http://www.w3.org/2000/svg" xml:space="preserve" version="1.1" y="0px" x="0px" xmlns:xlink="http://www.w3.org/1999/xlink" viewBox="0 0 144 80">
<g id="ANG">
			<polygon points="0 40 144 40 144 0 0 0" fill="#CE1126"/>
			<polygon points="144 80 0 80 0 40 144 40"/>
			<path stroke-width=".0697" d="m88.453 57.006c-0.533 0.701-0.969 1.305-1.572 2.049-0.515 0.635 0.239 0.604 0.534 0.646 1.994 0.285 4.014 2.415 4.8 3.931s1.701 1.553 2.302 1.234c0.477-0.252 1.214-1.325-0.168-2.947-1.46-1.713-3.453-3.173-5.475-4.814-0.248-0.203-0.337-0.183-0.421-0.099z" stroke="#000" fill="none"/>
			<g fill="#F9D616">
				<path d="m86.3 54.235c0.436-0.422 0.834-0.848 1.112-1.215l-1.242-1.084c0.948-1.057 1.61-2.13 2.228-3.174l1.436 0.826c0.566-0.956 1.424-2.712 1.718-3.837l-1.562-0.525c0.473-1.341 0.672-2.585 0.844-3.784l1.642 0.213c0.157-1.101 0.278-3.052 0.119-4.203l-1.644 0.112c-0.076-1.418-0.368-2.645-0.669-3.818l1.599-0.433c-0.275-1.075-0.911-2.925-1.498-3.927l-1.477 0.733c-0.614-1.281-1.353-2.302-2.079-3.272l1.312-1.011c-0.667-0.889-1.961-2.354-2.888-3.056l-1.084 1.243c-1.057-0.95-2.129-1.61-3.173-2.228l0.826-1.436c-0.957-0.566-2.714-1.425-3.838-1.719l-0.525 1.562c-1.34-0.472-2.581-0.674-3.781-0.844l-0.42 3.867c7.809 1.002 13.843 7.674 13.843 15.755 0 4.742-2.078 9-5.375 11.91l4.576 3.345z"/>
				<path d="m79.921 58.595c-0.993 0.438-2.234 0.849-3.042 1.056l-0.433-1.6c-1.174 0.301-2.399 0.593-3.818 0.669l0.112 1.645c-1.15 0.159-3.102 0.038-4.202-0.12l0.213-1.642c-1.2-0.171-2.444-0.371-3.784-0.844l-0.526 1.562c-1.123-0.294-2.88-1.152-3.836-1.718l0.825-1.436c-0.532-0.315-1.07-0.642-1.612-1.011l2.239-3.191c2.588 1.827 5.746 2.901 9.155 2.901 1.939 0 3.797-0.348 5.516-0.984 0 0 0.96 0.597 2.21 1.382 0.181 0.114 0.49 0.211 0.533 0.478 0.224 1.417 0.45 2.853 0.45 2.853z"/>
				<path d="m64.706 36.346c-2.977 4.547-0.45 9.376 3.479 11.621 5.713 3.264 11.79 6.737 18.583 11.229l1.685-2.189c-10.218-7.525-22.457-15.89-23.747-20.661z"/>
				<path d="m88.453 57.006c-0.533 0.701-0.969 1.305-1.572 2.049-0.515 0.635 0.239 0.604 0.534 0.646 1.994 0.285 4.014 2.415 4.8 3.931s1.701 1.553 2.302 1.234c0.477-0.252 1.214-1.325-0.168-2.947-1.46-1.713-3.453-3.173-5.475-4.814-0.248-0.203-0.337-0.183-0.421-0.099z"/>
				<polygon points="72.554 24.949 70.965 29.889 65.737 29.889 69.981 32.962 68.352 37.898 72.554 34.831 76.757 37.898 75.147 32.921 79.372 29.909 74.164 29.909"/>
			</g>
			<path stroke-width=".0697" d="m89.464 58.888c0.109 0 0.198-0.088 0.198-0.198 0-0.109-0.089-0.198-0.198-0.198s-0.199 0.089-0.199 0.198c0 0.11 0.089 0.198 0.199 0.198z" stroke="#000"/>
			<path stroke-width=".0697" d="m91.485 60.57c0.109 0 0.198-0.089 0.198-0.197 0-0.111-0.089-0.199-0.198-0.199-0.11 0-0.199 0.088-0.199 0.199 0 0.108 0.089 0.197 0.199 0.197z" stroke="#000"/>
			<path stroke-width=".0697" d="m93.338 62.311c0.109 0 0.198-0.089 0.198-0.197 0-0.11-0.089-0.199-0.198-0.199-0.11 0-0.199 0.089-0.199 0.199 0 0.108 0.089 0.197 0.199 0.197z" stroke="#000"/>
			<path stroke-width=".0697" d="m87.892 57.791c-6.737-4.884-13.83-9.703-18.582-13.923" stroke="#000" fill="none"/>
</g>
</svg>
