<?xml version="1.0" encoding="UTF-8" standalone="no"?>
<!-- Generator: Adobe Illustrator 18.0.0, SVG Export Plug-In . SVG Version: 6.00 Build 0)  -->
<!DOCTYPE svg  PUBLIC '-//W3C//DTD SVG 1.1//EN'  'http://www.w3.org/Graphics/SVG/1.1/DTD/svg11.dtd'>
<svg style="enable-background:new 0 0 144 80" xmlns="http://www.w3.org/2000/svg" xml:space="preserve" version="1.1" y="0px" x="0px" xmlns:xlink="http://www.w3.org/1999/xlink" viewBox="0 0 144 80">
<g id="BRA">
		<polygon points="144 80 144 0 0 0 0 80" fill="#009B3A"/>
			<polygon points="71.9 7 123.94 40.104 72.1 73 20.058 40.104" fill="#FEDF00"/>
			<path d="m72 61.969c12.073 0 21.861-9.789 21.861-21.862s-9.788-21.862-21.861-21.862-21.862 9.789-21.862 21.862 9.789 21.862 21.862 21.862z" fill="#002776"/>
			<path d="m92.55 47.582c-10.993-10.572-25.998-15.792-41.35-14.233 0.34-1.059 0.833-2.231 1.383-3.293 14.559-1.509 30.418 4.564 40.891 14.171-0.22 1.153-0.53 2.274-0.924 3.355z" fill="#fff"/>
			<path d="m56.804 31.35s0.563 0.01 0.735 0.012c0.169 0.004 0.313-0.119 0.317-0.309 0.003-0.188-0.153-0.303-0.351-0.306-0.195-0.004-0.691-0.012-0.691-0.012l-0.01 0.615-0.006 0.412-0.015 0.895-0.544-0.009s0.039-2.31 0.038-2.308c0 0 1.11 0.019 1.488 0.025 0.376 0.005 0.595 0.338 0.589 0.666-0.005 0.332-0.309 0.543-0.455 0.541 0.188 0.003 0.384 0.177 0.379 0.463-0.002 0.145-0.01 0.646-0.01 0.646l-0.525-0.009s0.004-0.259 0.009-0.542c0.005-0.28-0.148-0.355-0.418-0.358-0.274-0.005-0.536-0.01-0.536-0.01l0.006-0.412z" fill="#009B3A"/>
			<path d="m59.603 32.339c0.168 0.01 0.651-0.021 0.699-0.75 0.042-0.668-0.414-0.752-0.583-0.763-0.09-0.006-0.449-0.029-0.449-0.029s-0.097 1.506-0.098 1.514 0.266 0.016 0.431 0.028l0.149 0.418c-0.622-0.04-1.112-0.073-1.112-0.073l0.153-2.303c0.271 0.019 0.681 0.045 1.015 0.066 0.332 0.021 1.068 0.149 1.004 1.152-0.04 0.621-0.435 1.197-1.06 1.157l-0.149-0.417z" fill="#009B3A"/>
			<polygon points="63.368 31.159 62.03 31.011 61.974 31.521 63.177 31.655 63.13 32.076 61.926 31.94 61.858 32.547 63.196 32.696 63.155 33.069 61.269 32.858 61.526 30.563 63.411 30.776" fill="#009B3A"/>
			<polygon points="64.513 33.262 64.318 31.447 64.03 33.183 63.531 33.101 63.907 30.822 64.685 30.951 64.855 32.771 65.606 31.103 66.383 31.232 66.007 33.508 65.507 33.426 65.794 31.69 65.026 33.347" fill="#009B3A"/>
			<polygon points="70.089 32.933 69.265 32.727 69.186 33.041 69.928 33.228 69.862 33.486 69.12 33.301 69.026 33.674 69.851 33.881 69.794 34.11 68.631 33.819 68.986 32.405 70.148 32.696" fill="#009B3A"/>
			<path d="m72.693 33.956s0.233-0.691 0.229-0.691c0 0 0.288 0.096 0.495 0.164 0.209 0.07 0.364 0.236 0.294 0.447-0.069 0.211-0.284 0.322-0.522 0.243-0.24-0.078-0.496-0.163-0.496-0.163l-0.113 0.343s0.331 0.109 0.608 0.201c0.456 0.15 0.865-0.121 0.981-0.471 0.13-0.393-0.083-0.788-0.518-0.932-0.622-0.206-1.083-0.357-1.083-0.357l-0.723 2.19 0.473 0.157 0.261-0.789 0.114-0.342z" fill="#009B3A"/>
			<path d="m77.444 36.606c-0.359-0.151-0.498-0.554-0.312-0.979 0.19-0.431 0.555-0.606 0.936-0.438 0.382 0.166 0.501 0.556 0.308 0.985-0.202 0.451-0.572 0.584-0.932 0.432l-0.153 0.349c0.663 0.291 1.264 0.052 1.543-0.582 0.278-0.634 0.05-1.239-0.612-1.53-0.664-0.291-1.265-0.052-1.544 0.582-0.278 0.634-0.046 1.241 0.613 1.53l0.153-0.349z" fill="#009B3A"/>
			<path d="m81.039 36.994c0.005-0.252-0.113-0.467-0.358-0.591-0.364-0.184-0.737-0.025-0.945 0.386-0.207 0.409-0.111 0.819 0.259 1 0.31 0.152 0.597 0.094 0.755-0.162l-0.477-0.24 0.163-0.322 0.877 0.443-0.528 1.048-0.281-0.142c0.035-0.07 0.07-0.175 0.077-0.252-0.223 0.107-0.493 0.094-0.771-0.03-0.576-0.258-0.82-0.956-0.512-1.566s0.914-0.812 1.551-0.491c0.502 0.253 0.773 0.74 0.582 1.119l-0.392-0.2z" fill="#009B3A"/>
			<polygon points="85.88 39.39 84.739 38.674 84.466 39.107 85.492 39.753 85.267 40.111 84.241 39.467 83.917 39.982 85.056 40.698 84.856 41.017 83.251 40.006 84.479 38.053 86.085 39.063" fill="#009B3A"/>
			<path d="m87.279 40.727c0.123-0.178 0.026-0.382-0.266-0.585-0.296-0.205-0.419-0.094-0.481-0.003-0.062 0.09-0.052 0.237 0.329 0.585 0.379 0.348 0.613 0.668 0.363 1.028-0.247 0.358-0.673 0.418-1.252 0.017-0.573-0.399-0.526-0.899-0.377-1.143l0.4 0.278c-0.134 0.194-0.001 0.43 0.258 0.609 0.259 0.181 0.462 0.156 0.553 0.026 0.09-0.132 0.007-0.332-0.25-0.567-0.646-0.584-0.569-0.864-0.423-1.076 0.145-0.208 0.538-0.452 1.129-0.042 0.586 0.406 0.616 0.828 0.4 1.139l-0.383-0.266z" fill="#009B3A"/>
			<path d="m89.247 42.173c0.132-0.173 0.045-0.38-0.238-0.596-0.287-0.219-0.414-0.113-0.48-0.025-0.066 0.087-0.062 0.235 0.301 0.6 0.364 0.364 0.582 0.696 0.317 1.044-0.265 0.347-0.692 0.387-1.253-0.041-0.554-0.423-0.484-0.922-0.323-1.158l0.388 0.296c-0.144 0.188-0.021 0.43 0.229 0.621 0.25 0.192 0.455 0.177 0.552 0.05 0.096-0.125 0.021-0.331-0.225-0.577-0.617-0.612-0.528-0.89-0.372-1.094 0.153-0.201 0.557-0.428 1.129 0.009 0.566 0.433 0.578 0.855 0.349 1.156l-0.374-0.285z" fill="#009B3A"/>
			<path d="m74.938 34.605s0.525 0.201 0.686 0.264c0.158 0.06 0.335-0.004 0.404-0.182 0.066-0.175-0.039-0.337-0.226-0.408-0.181-0.07-0.643-0.248-0.643-0.248l-0.221 0.574-0.148 0.384-0.321 0.834-0.508-0.194s0.831-2.156 0.83-2.154c0 0 1.036 0.399 1.39 0.535 0.35 0.136 0.44 0.522 0.323 0.83-0.119 0.309-0.477 0.403-0.614 0.351 0.176 0.066 0.3 0.297 0.197 0.562-0.053 0.136-0.232 0.604-0.232 0.604l-0.49-0.188s0.094-0.243 0.195-0.506c0.101-0.261-0.018-0.383-0.269-0.481-0.256-0.098-0.501-0.192-0.501-0.192l0.148-0.385z" fill="#009B3A"/>
			<path d="m82.276 37.95s0.488 0.278 0.638 0.364c0.146 0.084 0.332 0.047 0.427-0.118 0.092-0.163 0.012-0.339-0.16-0.438-0.17-0.096-0.6-0.342-0.6-0.342l-0.305 0.534-0.205 0.357-0.443 0.776-0.472-0.27s1.146-2.006 1.144-2.004c0 0 0.964 0.552 1.293 0.739 0.326 0.187 0.357 0.582 0.195 0.868-0.165 0.288-0.533 0.327-0.66 0.255 0.164 0.092 0.251 0.339 0.11 0.587-0.072 0.126-0.321 0.562-0.321 0.562l-0.455-0.26s0.129-0.227 0.269-0.472c0.139-0.243 0.041-0.381-0.193-0.516-0.238-0.136-0.466-0.267-0.466-0.267l0.204-0.355z" fill="#009B3A"/>
			<path d="m90.165 44.477c-0.302-0.247-0.321-0.672-0.021-1.026 0.303-0.359 0.703-0.426 1.021-0.157s0.322 0.677 0.016 1.032c-0.321 0.375-0.714 0.398-1.016 0.151l-0.246 0.292c0.554 0.465 1.198 0.406 1.645-0.124 0.447-0.527 0.398-1.174-0.155-1.641-0.552-0.467-1.197-0.406-1.645 0.123-0.446 0.528-0.395 1.176 0.155 1.642l0.246-0.292z" fill="#009B3A"/>
			<path d="m54.619 32.315c-0.39 0.02-0.688-0.284-0.703-0.748-0.016-0.47 0.236-0.786 0.652-0.801 0.416-0.014 0.692 0.286 0.704 0.757 0.012 0.494-0.263 0.774-0.653 0.792l0.013 0.381c0.723-0.024 1.162-0.501 1.139-1.192-0.022-0.692-0.491-1.139-1.214-1.114-0.724 0.024-1.162 0.499-1.14 1.191s0.495 1.138 1.215 1.115l-0.013-0.381z" fill="#009B3A"/>
			<polygon points="53.929 35.269 53.72 35.914 53.036 35.914 53.592 36.315 53.378 36.963 53.929 36.561 54.478 36.963 54.268 36.311 54.82 35.917 54.14 35.917" fill="#fff"/>
			<polygon points="56.054 44.15 55.847 44.796 55.163 44.796 55.718 45.198 55.505 45.843 56.054 45.442 56.604 45.843 56.394 45.192 56.945 44.799 56.265 44.799" fill="#fff"/>
			<polygon points="63.944 40.002 63.771 40.541 63.201 40.541 63.665 40.876 63.486 41.413 63.944 41.08 64.402 41.413 64.228 40.871 64.688 40.543 64.12 40.543" fill="#fff"/>
			<polygon points="72.011 42.109 71.837 42.647 71.268 42.647 71.729 42.982 71.553 43.521 72.011 43.187 72.468 43.521 72.293 42.979 72.753 42.649 72.186 42.649" fill="#fff"/>
			<polygon points="69.988 44.582 69.851 45.013 69.394 45.013 69.765 45.28 69.622 45.711 69.988 45.443 70.355 45.711 70.215 45.277 70.583 45.015 70.129 45.015" fill="#fff"/>
			<polygon points="71.629 46.643 71.529 46.95 71.204 46.95 71.468 47.142 71.367 47.449 71.629 47.258 71.891 47.449 71.79 47.139 72.054 46.951 71.729 46.951" fill="#fff"/>
			<polygon points="74.43 44.428 74.257 44.965 73.687 44.965 74.149 45.299 73.972 45.838 74.43 45.504 74.888 45.838 74.712 45.295 75.173 44.967 74.604 44.967" fill="#fff"/>
			<polygon points="72.413 48.705 72.205 49.351 71.521 49.351 72.077 49.753 71.863 50.398 72.413 49.997 72.962 50.398 72.752 49.747 73.305 49.354 72.624 49.354" fill="#fff"/>
			<polygon points="72.185 56.345 72.116 56.561 71.888 56.561 72.072 56.694 72.001 56.909 72.185 56.775 72.368 56.909 72.298 56.691 72.482 56.561 72.255 56.561" fill="#fff"/>
			<polygon points="78.79 32.155 78.582 32.803 77.898 32.803 78.453 33.203 78.24 33.85 78.79 33.448 79.339 33.85 79.129 33.199 79.681 32.805 79.001 32.805" fill="#fff"/>
			<polygon points="76.935 51.092 76.796 51.522 76.341 51.522 76.711 51.79 76.568 52.221 76.935 51.954 77.301 52.221 77.16 51.786 77.529 51.524 77.075 51.524" fill="#fff"/>
			<polygon points="78.558 54.749 78.385 55.287 77.814 55.287 78.278 55.622 78.1 56.16 78.558 55.826 79.016 56.16 78.841 55.618 79.301 55.289 78.733 55.289" fill="#fff"/>
			<polygon points="80.123 51.092 79.984 51.522 79.528 51.522 79.899 51.79 79.757 52.221 80.123 51.954 80.489 52.221 80.349 51.786 80.718 51.524 80.264 51.524" fill="#fff"/>
			<polygon points="83.312 55.268 83.173 55.697 82.717 55.697 83.087 55.966 82.945 56.396 83.312 56.129 83.678 56.396 83.537 55.962 83.905 55.699 83.452 55.699" fill="#fff"/>
			<polygon points="83.312 53.289 83.139 53.828 82.568 53.828 83.031 54.162 82.853 54.7 83.312 54.367 83.77 54.7 83.594 54.158 84.054 53.83 83.486 53.83" fill="#fff"/>
			<polygon points="83.312 51.092 83.173 51.522 82.717 51.522 83.087 51.79 82.945 52.221 83.312 51.954 83.678 52.221 83.537 51.786 83.905 51.524 83.452 51.524" fill="#fff"/>
			<polygon points="85.114 51.092 84.976 51.522 84.52 51.522 84.891 51.79 84.747 52.221 85.114 51.954 85.48 52.221 85.341 51.786 85.709 51.524 85.255 51.524" fill="#fff"/>
			<polygon points="86.804 50.253 86.631 50.791 86.061 50.791 86.523 51.126 86.345 51.664 86.804 51.33 87.261 51.664 87.086 51.122 87.546 50.793 86.979 50.793" fill="#fff"/>
			<polygon points="87.601 48.659 87.428 49.197 86.858 49.197 87.32 49.531 87.142 50.07 87.601 49.735 88.059 50.07 87.883 49.527 88.343 49.199 87.775 49.199" fill="#fff"/>
			<polygon points="87.312 46.655 87.104 47.301 86.42 47.301 86.975 47.703 86.762 48.349 87.312 47.947 87.86 48.349 87.65 47.697 88.202 47.304 87.521 47.304" fill="#fff"/>
			<polygon points="90.144 46.771 90.006 47.201 89.55 47.201 89.92 47.47 89.778 47.899 90.144 47.633 90.511 47.899 90.37 47.466 90.739 47.203 90.284 47.203" fill="#fff"/>
			<polygon points="77.694 38.433 77.555 38.863 77.1 38.863 77.47 39.132 77.328 39.562 77.694 39.295 78.06 39.562 77.92 39.128 78.288 38.866 77.835 38.866" fill="#fff"/>
			<polygon points="58.363 43.53 58.264 43.838 57.938 43.838 58.202 44.028 58.101 44.337 58.363 44.146 58.625 44.337 58.524 44.026 58.788 43.839 58.463 43.839" fill="#fff"/>
			<polygon points="53.099 46.403 52.96 46.835 52.503 46.835 52.873 47.103 52.732 47.533 53.099 47.266 53.465 47.533 53.324 47.099 53.691 46.837 53.239 46.837" fill="#fff"/>
			<polygon points="60.339 46.405 60.165 46.943 59.596 46.943 60.059 47.277 59.881 47.815 60.339 47.482 60.797 47.815 60.622 47.273 61.081 46.945 60.515 46.945" fill="#fff"/>
			<polygon points="59.542 48.758 59.368 49.296 58.799 49.296 59.262 49.631 59.083 50.169 59.542 49.835 60 50.169 59.824 49.626 60.284 49.298 59.718 49.298" fill="#fff"/>
			<polygon points="63.911 50.679 63.703 51.324 63.019 51.324 63.575 51.727 63.361 52.372 63.911 51.971 64.461 52.372 64.25 51.721 64.803 51.327 64.122 51.327" fill="#fff"/>
</g>
</svg>
