<?xml version="1.0" encoding="UTF-8" standalone="no"?>
<!-- Generator: Adobe Illustrator 18.0.0, SVG Export Plug-In . SVG Version: 6.00 Build 0)  -->
<!DOCTYPE svg  PUBLIC '-//W3C//DTD SVG 1.1//EN'  'http://www.w3.org/Graphics/SVG/1.1/DTD/svg11.dtd'>
<svg style="enable-background:new 0 0 144 80" xmlns="http://www.w3.org/2000/svg" xml:space="preserve" version="1.1" y="0px" x="0px" xmlns:xlink="http://www.w3.org/1999/xlink" viewBox="0 0 144 80">
<g id="ZAM">
		<polygon points="144 80 144 0 0 0 0 80" fill="#1D8A43"/>
		<path d="m73.965 40.435" fill="#fff"/>
			<polygon points="144 80 144 29.741 130.04 29.741 130.04 80" fill="#F69139"/>
			<polygon stroke-width=".1357" points="130.02 80 130.02 29.741 116.06 29.741 116.06 80" stroke="#000" fill="#231F20"/>
			<polygon points="116.05 80 116.05 29.741 102.09 29.741 102.09 80" fill="#EE3E33"/>
			<path d="m123.65 9.527c-0.296 0.008-0.513-0.094-0.591-0.266 0.482-0.282 0.81-0.22 1.214 0.141 0.078-0.281 0-0.595-0.171-0.782s-0.312-0.188-0.545-0.204c-0.234-0.016-0.467-0.078-0.623-0.078-0.229-0.5-0.799-0.288-1.349-0.083-0.892 0.334-1.694 0.94-2.054 1.544-0.165 0.277-0.185 0.386-0.285 0.543 0.083-0.01 0.076-0.01 0.129-0.042-0.062 0.689-0.145 1.324-0.021 1.731-0.155 0.595-0.032 0.971 0.155 1.158 0.188 0.188 0.266 0.266 0.296 0.484 0.032 0.22 0.124 0.424 0.28 0.549 0.155 0.125 0.25 0.312 0.265 0.422 0.016 0.109 0.496 0.581 0.7 0.705 0.078 0.046 0.094 0.141 0.188 0.266-0.203 1.19 0.607 2.379 0.42 3.553 0.14 0.015 0.327 0 0.514-0.048 0.155 1.002 0.249 1.487-0.623 1.784-0.871 0.298-1.348 0.59-1.105 0.923 0.172 0.236 0.527 0.031 0.748-0.172 0.171-0.156 0.373-0.297 0.529-0.344 0.155-0.047 0.187 0 0.108 0.203-0.077 0.203-0.498 0.642-0.514 0.861-0.015 0.219 0.171 0.374 0.468 0.203 0.296-0.172 0.555-0.624 0.621-0.892 0.047-0.188 0.125-0.313 0.11 0-0.017 0.312-0.203 0.875 0.218 0.97 0.419 0.093 0.545-0.407 0.404-0.861s-0.188-0.703-0.125-0.86 0.125-0.25 0.281-0.203c0.154 0.046 0.466-0.016 0.451-0.267-0.016-0.25-0.234-0.454-0.483-0.312-0.249 0.141-0.437 0.12-0.327-0.188 0.078-0.22 0.218-0.485 0.234-0.658 0.17 0.251 1.135 0.283 1.524 0.048 0.093 0.47 0.343 0.892-0.202 1.33s-0.98 0.86-0.965 1.173c0.016 0.313 0.141 0.501 0.42 0.345 0.281-0.156 0.452-0.376 0.515-0.578 0.062-0.204 0.186-0.204 0.124 0.046s-0.172 0.61-0.124 0.829c0.046 0.22 0.389 0.235 0.528 0.032 0.141-0.204 0.109-0.469 0.078-0.736-0.031-0.266 0.016-0.546 0.078-0.657 0.061-0.109 0.186-0.266 0.312 0.031 0.124 0.297 0.187 0.532 0.435 0.611 0.25 0.077 0.436-0.03 0.39-0.329-0.046-0.298-0.373-0.626-0.7-0.877-0.327-0.249-0.218-0.375-0.202-0.609 0.016-0.235-0.031-0.658-0.048-0.846 0.297 0.22 0.623 0.188 0.779 0.188 0.155 0 0.412-0.047 0.155-0.281-0.514-0.47-0.343-0.751-0.7-1.095-0.359-0.345-0.686-0.877-0.794-1.33-0.108-0.454-0.349-1.284-0.825-1.706-0.265-0.234-0.342-0.877-0.279-1.612 0.062-0.735 0.078-1.549-0.591-1.925-0.671-0.375-0.654-0.689-0.437-1.017 0.217-0.329 0.496-0.65 0.855-0.674 0.081-0.005 0.268-0.021 0.344-0.075-0.05-0.027-0.11-0.068-0.21-0.066z" fill="#F69139"/>
			<path stroke-width=".069" d="m123.65 9.527c-0.296 0.008-0.513-0.094-0.591-0.266 0.482-0.282 0.81-0.22 1.214 0.141 0.078-0.281 0-0.595-0.171-0.782s-0.312-0.188-0.545-0.204c-0.234-0.016-0.467-0.078-0.623-0.078-0.229-0.5-0.799-0.288-1.349-0.083-0.892 0.334-1.694 0.94-2.054 1.544-0.165 0.277-0.185 0.386-0.285 0.543 0.083-0.01 0.076-0.01 0.129-0.042-0.062 0.689-0.145 1.324-0.021 1.731-0.155 0.595-0.032 0.971 0.155 1.158 0.188 0.188 0.266 0.266 0.296 0.484 0.032 0.22 0.124 0.424 0.28 0.549 0.155 0.125 0.25 0.312 0.265 0.422 0.016 0.109 0.496 0.581 0.7 0.705 0.078 0.046 0.094 0.141 0.188 0.266-0.203 1.19 0.607 2.379 0.42 3.553 0.14 0.015 0.327 0 0.514-0.048 0.155 1.002 0.249 1.487-0.623 1.784-0.871 0.298-1.348 0.59-1.105 0.923 0.172 0.236 0.527 0.031 0.748-0.172 0.171-0.156 0.373-0.297 0.529-0.344 0.155-0.047 0.187 0 0.108 0.203-0.077 0.203-0.498 0.642-0.514 0.861-0.015 0.219 0.171 0.374 0.468 0.203 0.296-0.172 0.555-0.624 0.621-0.892 0.047-0.188 0.125-0.313 0.11 0-0.017 0.312-0.203 0.875 0.218 0.97 0.419 0.093 0.545-0.407 0.404-0.861s-0.188-0.703-0.125-0.86 0.125-0.25 0.281-0.203c0.154 0.046 0.466-0.016 0.451-0.267-0.016-0.25-0.234-0.454-0.483-0.312-0.249 0.141-0.437 0.12-0.327-0.188 0.078-0.22 0.218-0.485 0.234-0.658 0.17 0.251 1.135 0.283 1.524 0.048 0.093 0.47 0.343 0.892-0.202 1.33s-0.98 0.86-0.965 1.173c0.016 0.313 0.141 0.501 0.42 0.345 0.281-0.156 0.452-0.376 0.515-0.578 0.062-0.204 0.186-0.204 0.124 0.046s-0.172 0.61-0.124 0.829c0.046 0.22 0.389 0.235 0.528 0.032 0.141-0.204 0.109-0.469 0.078-0.736-0.031-0.266 0.016-0.546 0.078-0.657 0.061-0.109 0.186-0.266 0.312 0.031 0.124 0.297 0.187 0.532 0.435 0.611 0.25 0.077 0.436-0.03 0.39-0.329-0.046-0.298-0.373-0.626-0.7-0.877-0.327-0.249-0.218-0.375-0.202-0.609 0.016-0.235-0.031-0.658-0.048-0.846 0.297 0.22 0.623 0.188 0.779 0.188 0.155 0 0.412-0.047 0.155-0.281-0.514-0.47-0.343-0.751-0.7-1.095-0.359-0.345-0.686-0.877-0.794-1.33-0.108-0.454-0.349-1.284-0.825-1.706-0.265-0.234-0.342-0.877-0.279-1.612 0.062-0.735 0.078-1.549-0.591-1.925-0.671-0.375-0.654-0.689-0.437-1.017 0.217-0.329 0.496-0.65 0.855-0.674 0.081-0.005 0.268-0.021 0.344-0.075-0.05-0.027-0.11-0.068-0.21-0.066z" stroke="#000" fill="none"/>
			<path d="m119.3 11.219c-0.017 0.317-0.009 0.597 0.057 0.812-0.155 0.595-0.032 0.971 0.155 1.158 0.188 0.188 0.266 0.266 0.296 0.484 0.032 0.22 0.124 0.424 0.28 0.549 0.155 0.125 0.25 0.312 0.265 0.422 0.016 0.109 0.496 0.581 0.7 0.705 0.078 0.046 0.094 0.141 0.188 0.266-0.086 0.494 0.004 0.988 0.125 1.482-1.1 0.918-2.185 0.485-1.729-0.454-0.913 0.73-2.49 0.709-2.138 0-1.432 0.501-1.867 0.083-1.681-0.375-1.203 0.48-1.826 0.02-1.66-0.313-0.996 0.271-1.64 0.104-1.742-0.062-0.105-0.167 0.145-0.542 0.373-0.729-0.457 0.167-0.893 0.167-1.308 0.104-0.415-0.062-0.312-0.188-0.229-0.376s0.192-0.485 0.524-0.776c-0.794 0.156-1.79 0.265-2.49 0.03-0.133-0.044-0.358-0.093-0.219-0.234 0.141-0.141 0.561-0.485 1.074-0.704-1.167 0.173-3.377 0.298-3.999-0.406 0.606 0.125 1.385-0.126 1.883-0.329-1.962-0.22-4.639-1.564-4.669-2.879 0.56 0.906 1.524 1.22 2.49 1.502-1.309-0.768-1.853-1.69-1.899-2.301 0.748 0.72 1.884 1.533 3.005 1.722-0.794-0.423-1.821-1.659-2.102-2.519 0.575 0.517 2.055 1.346 3.066 1.611-0.701-0.547-1.837-1.846-1.774-2.565 0.265 0.266 0.917 0.767 2.257 1.549 1.338 0.782 2.064 0.725 3.169 0.96-0.202-0.271-0.384-0.632-0.399-0.725 0.327 0.046 0.639 0.171 1.572 0.75 0.934 0.579 2.975 0.756 4.14 1.269 0.86 0.371 2.08 0.136 2.42 0.372z" fill="#F69139"/>
			<path stroke-width=".069" d="m119.3 11.219c-0.017 0.317-0.009 0.597 0.057 0.812-0.155 0.595-0.032 0.971 0.155 1.158 0.188 0.188 0.266 0.266 0.296 0.484 0.032 0.22 0.124 0.424 0.28 0.549 0.155 0.125 0.25 0.312 0.265 0.422 0.016 0.109 0.496 0.581 0.7 0.705 0.078 0.046 0.094 0.141 0.188 0.266-0.086 0.494 0.004 0.988 0.125 1.482-1.1 0.918-2.185 0.485-1.729-0.454-0.913 0.73-2.49 0.709-2.138 0-1.432 0.501-1.867 0.083-1.681-0.375-1.203 0.48-1.826 0.02-1.66-0.313-0.996 0.271-1.64 0.104-1.742-0.062-0.105-0.167 0.145-0.542 0.373-0.729-0.457 0.167-0.893 0.167-1.308 0.104-0.415-0.062-0.312-0.188-0.229-0.376s0.192-0.485 0.524-0.776c-0.794 0.156-1.79 0.265-2.49 0.03-0.133-0.044-0.358-0.093-0.219-0.234 0.141-0.141 0.561-0.485 1.074-0.704-1.167 0.173-3.377 0.298-3.999-0.406 0.606 0.125 1.385-0.126 1.883-0.329-1.962-0.22-4.639-1.564-4.669-2.879 0.56 0.906 1.524 1.22 2.49 1.502-1.309-0.768-1.853-1.69-1.899-2.301 0.748 0.72 1.884 1.533 3.005 1.722-0.794-0.423-1.821-1.659-2.102-2.519 0.575 0.517 2.055 1.346 3.066 1.611-0.701-0.547-1.837-1.846-1.774-2.565 0.265 0.266 0.917 0.767 2.257 1.549 1.338 0.782 2.064 0.725 3.169 0.96-0.202-0.271-0.384-0.632-0.399-0.725 0.327 0.046 0.639 0.171 1.572 0.75 0.934 0.579 2.975 0.756 4.14 1.269 0.86 0.371 2.08 0.136 2.42 0.372z" stroke="#000" fill="none"/>
			<path d="m126.34 19.255c0.052-0.041 0.052-0.112-0.076-0.229-0.514-0.47-0.343-0.751-0.7-1.095-0.359-0.345-0.686-0.877-0.794-1.33-0.108-0.454-0.349-1.284-0.825-1.706-0.265-0.234-0.342-0.877-0.279-1.612 0.053-0.63 0.072-1.316-0.344-1.736 0.779-0.219 1.495-0.267 1.744-0.016 1.292-0.329 2.413-0.429 3.512-0.5 1.267-0.085 3.652-0.627 5.355-1.775-0.105 0.418-0.684 1.044-1.204 1.356 1.723-0.417 3.798-1.189 5.561-2.504-0.02 0.918-0.767 1.606-1.203 1.982 1.203-0.668 2.969-1.502 3.57-2.545 0.264 1.068-1.535 2.467-2.512 3.238 0.996-0.479 2.283-0.923 2.781-1.633-0.01 0.866-1.142 1.941-2.221 2.567 1.1-0.417 2.325-0.855 3.03-1.502 0.083 0.87-3.29 2.874-4.96 3.421 1.453-0.354 3.342-0.834 4.171-1.335-0.042 0.177-0.38 0.426-0.626 0.606-1.016 0.748-2.572 1.148-3.523 1.334 0.124 0.521-0.043 0.813-0.623 0.856-0.582 0.041-1.987-0.184-2.692-0.538-0.105 0.062-0.229 0.083-0.368 0.1 0.685 0.516 0.918 0.892 0.777 1.11-0.14 0.22-0.63 0.18-1.004 0.102 0.296 0.83-0.692 0.774-1.518 0.306 0.327 0.423 0.374 0.781-0.077 0.876-0.451 0.094-0.81 0.062-1.245-0.22-0.031 0.314-0.332 0.522-0.732 0.418 1.369 0.829 1.292 1.132 1.058 1.445-0.234 0.312-1.051 0.25-1.486-0.031-0.186 0.641-0.931 0.645-1.485 0.133 0 0.258-0.53 0.765-1.06 0.457z" fill="#F69139"/>
			<path stroke-width=".069" d="m126.34 19.255c0.052-0.041 0.052-0.112-0.076-0.229-0.514-0.47-0.343-0.751-0.7-1.095-0.359-0.345-0.686-0.877-0.794-1.33-0.108-0.454-0.349-1.284-0.825-1.706-0.265-0.234-0.342-0.877-0.279-1.612 0.053-0.63 0.072-1.316-0.344-1.736 0.779-0.219 1.495-0.267 1.744-0.016 1.292-0.329 2.413-0.429 3.512-0.5 1.267-0.085 3.652-0.627 5.355-1.775-0.105 0.418-0.684 1.044-1.204 1.356 1.723-0.417 3.798-1.189 5.561-2.504-0.02 0.918-0.767 1.606-1.203 1.982 1.203-0.668 2.969-1.502 3.57-2.545 0.264 1.068-1.535 2.467-2.512 3.238 0.996-0.479 2.283-0.923 2.781-1.633-0.01 0.866-1.142 1.941-2.221 2.567 1.1-0.417 2.325-0.855 3.03-1.502 0.083 0.87-3.29 2.874-4.96 3.421 1.453-0.354 3.342-0.834 4.171-1.335-0.042 0.177-0.38 0.426-0.626 0.606-1.016 0.748-2.572 1.148-3.523 1.334 0.124 0.521-0.043 0.813-0.623 0.856-0.582 0.041-1.987-0.184-2.692-0.538-0.105 0.062-0.229 0.083-0.368 0.1 0.685 0.516 0.918 0.892 0.777 1.11-0.14 0.22-0.63 0.18-1.004 0.102 0.296 0.83-0.692 0.774-1.518 0.306 0.327 0.423 0.374 0.781-0.077 0.876-0.451 0.094-0.81 0.062-1.245-0.22-0.031 0.314-0.332 0.522-0.732 0.418 1.369 0.829 1.292 1.132 1.058 1.445-0.234 0.312-1.051 0.25-1.486-0.031-0.186 0.641-0.931 0.645-1.485 0.133 0 0.258-0.53 0.765-1.06 0.457zm-14.78-9.718c0.186 0.273 0.777 0.795 1.172 0.898m-0.01-0.156c-0.021 0.406 0.207 1.012 0.902 1.22 0.694 0.209 1.297 0.147 1.67 0.032m-0.01 0c-0.633 0.143-1.388 0.531-1.574 0.875-0.188 0.346-0.052 0.47 0.249 0.554 1.006 0.281 2.147-0.021 2.957-0.604m-1.67-0.966c-0.021 0.433 0.876 0.934 2.37 0.694m-1.38 0.01c-0.322 0.167-0.747 0.387-1.516 0.48m2.17-0.438c-0.146 0.47 0.913 0.824 2.396 0.458m-1.78 0.095c-0.394 0.229-1.069 0.574-1.732 0.782m-0.81-0.407c-0.136 0.198-0.21 0.846 0.362 0.918 1.161 0.146 2.771-0.637 3.403-1.283m-2.33 1.179c-0.296 0.5-0.155 1.048 0.499 1.126 0.652 0.079 1.789-0.452 2.801-1.596m-0.36-0.484c-0.701 0.438-1.464 1.032-2.258 1.329m0.84 0.516c-0.264 0.376-0.325 0.595-0.155 0.814 0.171 0.219 0.515 0.062 0.981-0.188 0.467-0.25 1.104-0.766 1.463-1.048m-0.3-0.391c-0.328 0.22-1.309 0.939-1.557 1.189m1.27-0.344c-0.202 0.533 0.016 0.8 0.312 0.908 0.296 0.109 0.763 0.172 1.198-0.251m-3.63 1.175c0.653-0.251 1.728-0.971 2.069-1.253m0.33 0.313c-0.265 0.266-0.888 0.688-1.479 0.939m1.23 0.015c0.529-0.311 1.276-0.845 1.525-1.142m0.03 0.519c-0.141 0.186-0.498 0.609-0.732 0.859m-2.15-1.282c-0.513 0.265-1.151 0.561-1.618 0.749m-0.9-0.093c0.404-0.141 1.524-0.735 1.883-0.939m-2.51 0.61c0.887-0.188 1.588-0.72 1.977-0.924m-2.98 0.939c0.748-0.156 1.836-0.86 2.272-1.143m-0.19-0.485c-0.576 0.346-1.525 0.909-2.443 1.143m-1.01-0.296c0.607-0.158 1.82-0.689 2.723-1.189m-0.6-0.299c-0.67 0.299-1.821 0.689-2.568 0.908m-0.56-0.469c0.856-0.126 1.961-0.721 2.506-1.081m-6.39-3.441c0.455 0.375 1.26 0.547 1.805 0.641m-2.52-2.029c0.717 0.678 1.836 1.46 3.143 1.617m-0.57-0.115c-0.145 0.261-0.176 0.981 0.924 0.834m-0.53 0c-0.176 0.376 0.113 1.013 1.474 0.595m-0.26-0.47c0.218 0.814 1.235 0.992 1.764 0.564m-3.01-0.402c-0.654-0.125-1.37-0.234-1.619-0.125s-0.332 0.353-0.015 0.595c1.041 0.798 4.84 0.814 5.851 0.595m-5.58-0.439c-0.373 0.126-0.35 0.526 0.264 0.767 0.919 0.36 3.487 0.563 4.623 0.454m-4.93-0.626c-0.202 0.203-0.112 0.456 0.094 0.642 0.876 0.79 3.021 0.684 4.84 0.047m-5.58-0.266c0.155-0.063 0.404-0.101 0.552-0.086m-2.73-1.291c0.715 0.453 1.604 0.657 2.66 0.752m-1.56-1.331c0.544 0.156 0.855 0.219 1.307 0.392m24.47-0.272c-0.705 0.25-2.365 0.876-3.112 1.001m-5.95 1.335c0.544 0.298 1.479 0.408 1.587-0.312m-0.07 0.203c0.561 0.328 1.696 0.125 1.665-0.501m-0.08 0.25c0.575 0.22 1.415 0.234 1.556-0.531m-0.17 0.376c0.747 0.139 1.619-0.486 1.416-1.019m-4.51 0.095c-0.342 0.093-0.545 0.219-0.748 0.344m4.94 0.282c0.622 0.124 1.743 0.459 2.138 0.792 0.394 0.334 0.519 0.668-0.188 0.793-0.706 0.125-1.059 0.062-1.722-0.062m0.16-1.43c0.746-0.438 1.992-0.642 2.816-0.453 0.825 0.188 0.686 0.642 0.436 0.876-0.248 0.234-0.824 0.392-1.447 0.329m-1.06-0.532c0.468-0.078 1.479-0.188 2.023-0.188m4.67-2.191c-0.653 0.642-2.677 1.44-4.28 1.815m1.17-0.328c0.561 0.141 0.18 0.883-0.062 1.079-0.561 0.454-1.214 0.829-2.287 0.939m0.17-0.016c0.545 0.235 1.618 0.36 2.069 0.064 0.451-0.298 0.39-0.752 0.031-0.971m-0.79 1.988c-0.421-0.36-2.461-0.783-3.129-0.908m3.49 0.808c0.227-0.073 0.555-0.526 0.347-0.882m-8.23-0.677c0.7 0.626 2.163 1.408 3.098 1.55 0.934 0.14 1.664-0.032 1.183-0.564-0.483-0.532-1.728-1.032-2.366-1.252m5.38 3.137c-1.011-0.235-2.14-0.931-2.934-1.433m0.01-0.342c0.841 0.328 2.365 1.048 3.098 1.236m-1.7 0.845c-0.59-0.282-1.727-1.002-2.381-1.58m0.59-0.017c0.42 0.344 1.681 0.986 2.288 1.314m-5.43-3.004c0.748 0.424 1.821 0.94 2.6 1.222m-1.29-1.425c1.089 0.094 2.055 0.344 3.144 0.595m-6.18 3.066c0.125 0.252 0.358 0.58 0.731 0.722 0.374 0.14 0.623-0.173 0.639-0.501 0.016-0.329-0.02-0.504-0.065-0.629m-1.96-2.815c0.109 0.938 0.918 2.237 1.604 2.644 0.685 0.407 1.229 0.252 1.369 0.047 0.141-0.203 0.134-0.791-0.654-1.22-0.584-0.319-1.307-0.971-1.633-1.425m-0.35 0.016c0.124 0.376 1.089 1.627 1.587 1.941m-2.35-1.44c0.357 0.47 1.447 2.034 1.634 2.488m-0.25-3.098c0.249 0.281 1.292 1.127 1.836 1.346m0.02 0.532c0.296 0.142 0.513 0.173 0.716 0.188 0.203 0.017 0.326-0.094 0.249-0.345-0.078-0.249-0.249-0.5-0.405-0.657m-0.44 1.695c0.383 0.554 1.701 1.295 2.303 1.408m0.76-0.406c-0.571-0.28-1.868-1.388-2.232-1.773m1.06 3.599c-0.498-0.282-2.217-1.879-2.84-2.63m1.35 2.763c-0.483-0.376-1.292-1.448-1.541-1.776m1.02-2.035c0.497 0.454 1.665 1.283 2.116 1.596m-3.31 0.501c0.186 0.391 0.311 0.72 0.295 0.846-0.016 0.125-0.047 0.25-0.249 0.202m12.42-7.355c-1.307 0.668-2.428 1.482-4.191 1.857m0.31-0.688c1.244-0.46 3.175-1.169 4.835-2.483m-4.92 3.651c1.846-0.459 3.818-1.21 5.168-2.315m-0.64 0.918c-1.037 0.417-1.847 1.355-4.648 1.752m2.71 0.157c-0.746 0.345-2.193 0.328-2.879 0.266m2.9 0.345c-0.809 0.171-2.365 0.108-2.957-0.032m-14.46-3.905c0.297-0.155 0.336-0.029 0.553-0.25 0.607-0.618 1.534-1.244 2.009-1.432 0.474-0.188 0.677-0.29 1.011-0.282m-1.06 0.303c0.141-0.062 0.148 0.312 0.519 0.178 0.276-0.101 0.125-0.443 0.244-0.454m0.42 0.897c-0.203 0.101-0.335 0.25-0.436 0.423m-2.67 0.969c-0.077 0.267-0.093 0.61-0.077 0.829m0.05 0.44c-0.062 0.265 0 0.845 0.062 1.095m0.11 0.593c0.062 0.173 0.265 0.376 0.373 0.486m-0.03-1.768c-0.031 0.391 0.187 1.142 0.405 1.392 0.046 0.36 0.295 0.987 0.762 1.456m-1.28-3.959c-0.03 0.172-0.015 0.438 0.017 0.657m0.59-2.223c-0.156 0.392-0.202 1.127-0.171 1.346 0.031 0.22-0.156 0.704 0.093 1.44m0.56-2.441c-0.156 0.643-0.141 1.815 0 2.284m-0.18 0.204c-0.078 0.345-0.078 0.767 0.03 1.095m0.57-3.349c-0.016 0.485 0.202 1.175 0.639 1.659m-0.75 0.064c-0.047 0.577-0.017 1.126 0.093 1.439 0.108 0.314 0.094 0.955 0.358 1.331m0.08-1.91c0.062 0.234 0.155 0.563 0.048 0.813m0.36-1.267c0.127 0.407 0.189 0.86 0.173 1.048m0.01 1.032c0.029 0.346 0.17 0.736 0.295 0.955m-0.81-0.015c0.108 0.329 0.325 0.768 0.544 0.939m0.92-0.782c0.266 0.376 0.359 0.657 0.453 0.938m-3-0.86c0.296 0.031 0.435-0.047 0.638 0.391 0.203 0.439 0.794 1.143 1.073 1.268 0.281 0.125 0.81 0.392 0.889 0.846 0.139-0.313 0.311-0.673 0.124-1.08 0.389 0.484 0.823 0.923 0.887 1.22 0.062 0.298 0.306 0.673 0.492 0.878m-3.17-0.023c0.146-0.031 0.405-0.219 0.529-0.355 0.176 0.095 0.529 0.271 0.592 0.658m0.06 0.022c0.124-0.46-0.012-1.409-0.457-2.192m-1.13-0.563c0.113 0.345 0.218 0.792 0.228 1.063m0.54-0.364c0.136 0.375 0.26 0.907 0.27 1.105m1.2-0.135c0.105 0.251 0.167 0.637 0.146 0.865m0.54 0.136c-0.083-0.386-0.104-1.305-0.145-1.597" stroke="#000" fill="none"/>
			<path d="m119.99 22.4c0.023-0.196 0.042-0.426 0.208-0.573 0.166-0.146 0.27-0.271 0.414-0.125 0.146 0.146 0.053 0.282-0.145 0.345-0.196 0.062-0.332 0.24-0.363 0.354-0.03 0.116-0.13 0.178-0.11-0.001z"/>
			<path d="m121.12 23.361c-0.103-0.328-0.052-0.751 0.062-0.877 0.114-0.125 0.26-0.209 0.395-0.084 0.136 0.126 0.187 0.304-0.062 0.408-0.221 0.092-0.238 0.323-0.249 0.49-0.01 0.168-0.09 0.262-0.15 0.063z"/>
			<path d="m122.57 22.517c-0.08 0.134 0.021 0.678 0.29 0.813 0.191 0.096 0.28 0.072 0.166-0.105-0.113-0.177-0.072-0.343-0.01-0.438 0.062-0.094 0.051-0.261-0.084-0.344-0.14-0.084-0.3-0.031-0.37 0.074z"/>
			<path d="m123.75 22.025c-0.172-0.129-0.332 0.026-0.395 0.137-0.125 0.219-0.031 0.531 0.165 0.709 0.197 0.177 0.166-0.062 0.104-0.167-0.062-0.104-0.072-0.313 0.062-0.334 0.14-0.02 0.23-0.22 0.07-0.345z"/>
			<path d="m124.72 22.381c-0.166-0.05-0.332 0.125-0.311 0.333 0.016 0.156 0.031 0.355 0.187 0.459 0.104 0.071 0.176 0.115 0.124-0.073s0.031-0.343 0.125-0.396c0.1-0.053 0.06-0.271-0.12-0.323z"/>
			<path d="m126.1 21.494c-0.122 0.085-0.115 0.281 0 0.354 0.112 0.072 0.279 0.177 0.248 0.354-0.031 0.178 0.062 0.24 0.146 0.042 0.083-0.198 0.093-0.491 0-0.626-0.1-0.135-0.3-0.197-0.4-0.124z"/>
</g>
</svg>
