<?xml version="1.0" encoding="UTF-8" standalone="no"?>
<!-- Generator: Adobe Illustrator 18.0.0, SVG Export Plug-In . SVG Version: 6.00 Build 0)  -->
<!DOCTYPE svg  PUBLIC '-//W3C//DTD SVG 1.1//EN'  'http://www.w3.org/Graphics/SVG/1.1/DTD/svg11.dtd'>
<svg style="enable-background:new 0 0 144 80" xmlns="http://www.w3.org/2000/svg" xml:space="preserve" version="1.1" y="0px" x="0px" xmlns:xlink="http://www.w3.org/1999/xlink" viewBox="0 0 144 80">
<g id="LIB">
		<polygon points="144 0 0 0 0 80 144 80" fill="#ED1C24"/>
		<polygon points="144 20 0 20 0 60 144 60" fill="#fff"/>
		<path d="m70.771 20.917c-0.722 0.799-2.427 1.918-2.813 2.683-0.387 0.765-1.63 1.547-2.297 1.831-0.666 0.283-0.084 0.742 0.646 0.288 0.729-0.452 1.335-0.432 1.763-0.844 0.428-0.414 1.041-0.024 0.443 0.259-0.6 0.281-0.825 0.757-1.086 1.098-0.262 0.343-0.392 0.513-0.996 0.526-0.604 0.015-1.141 0.159-1.562 0.774-0.424 0.613-0.946 1.331-1.175 1.673-0.228 0.341-0.055 0.605 0.51 0.19 0.562-0.417 1.192-0.767 1.472-0.301 0.279 0.463 0.268 0.684-0.482 0.984-1.6 0.641-2.061 1.021-2.351 1.664-0.288 0.644-0.115 0.844-1.116 1.168-1.003 0.324-2.623 1.501-3.682 2.298-1.057 0.796-0.454 0.839 0.354 0.799 1.243-0.062 2.838-0.902 3.652-0.551 0.244 0.465 0.527 1.063 0.906 1.493-1.304 1.843-1.525 2.553-2.867 2.583-1.345 0.029-2.188 1.392-2.812 2.078-0.625 0.687-1.165 1.336-1.813 1.618-0.566 0.248-0.696 0.453-0.254 0.679 0.441 0.227 0.833-0.321 1.241-0.129 0.407 0.193 0.674 0.12 1.303-0.297 0.63-0.417 1.29-0.969 2.296-1.092 0.483 0.561 0.725 0.858 1.268 1.149-0.945 1.298-2.367 2.304-3.604 2.733-1.232 0.431-1.424 0.905-2.308 2.033-0.881 1.13-0.841 1.497-1.747 1.518-0.908 0.02-0.869 0.22-0.391 0.579 0.477 0.359 0.844 0.184 1.552 0.337 0.71 0.151 1.619 0.3 2.54-0.695 0.919-0.994 3.172-2.734 5.086-2.562 0.909 0.08 1.553 0.267 0.465 1.299-1.086 1.032-2.652 1.816-3.719 2.03-2.074 0.416-2.965 1.241-3.569 1.222-0.605-0.021-1.167 0.395-0.25 0.945 0.921 0.553 1.226 0.68 2.257 0.22 1.032-0.459 2.729-1.235 3.397-1.417 0.669-0.184 1.167-0.463 1.641-0.339 0.473 0.124 0.838-0.018 1.37-0.366 0.529-0.349 1.3-0.397 1.959-1.017 0.768-0.722 1.578-0.103 2.092 0.323s1.524 2.117 0.609 3.28c-0.916 1.161-1.932 2.394-2.254 3.006-0.323 0.612-0.509 0.649-0.891 0.792-1.233 0.464-2.492 1.23-2.855 1.543-0.363 0.31-0.228 0.407 0.279 0.497 0.506 0.09 0.572-0.013 1.033-0.392 0.46-0.381 1.023-0.96 2.164-0.922 0.605 0.021 1.102-0.327 1.628-0.876 0.524-0.55 1.657-1.044 2.232-0.922 0.574 0.123 0.737-0.017 1.069-0.259 0.331-0.242 0.598-0.351 1.111 0.076 0.515 0.426 0.948 0.35 1.479 0.035 0.531-0.314 1.105-0.191 1.247 0.141 0.142 0.333 0.215 0.635 0.692 0.96s2.18 1.33 2.725 1.621c0.544 0.289 0.902-0.255 0.49-0.615-0.413-0.361-0.619-0.659-0.559-0.963s0.376-0.427 1.305-0.297c1.449 0.202 3.521 1.233 4.271 1.687 0.749 0.454 1.43 0.844 2.034 0.831 0.605-0.015 0.805-0.152 0.256-0.645-0.549-0.492-1.223-0.443-1.466-0.944-0.422-0.863-1.148-0.243-1.538-1.108-0.275-0.616-0.652-0.69-1.122-0.647-0.47 0.045-1.099-0.38-1.535-1.042-1.529-2.319-1.944-4.394-1.44-5.95 0.503-1.557 1.973-2.025 2.827-1.373 0.854 0.654 1.871 1.068 2.307 1.025s0.807-0.052 1.384 0.273c0.58 0.323 1.559 0.538 2.758 0.04 1.198-0.496 1.617-0.108 2.383-0.085 0.641 0.02 1.415 0.138 1.929 0.563 0.514 0.424 1.292 0.711 2.473 0.887 1.181 0.175 1.98-0.144 1.025-0.694-0.952-0.551-1.766-0.869-2.112-1.366-0.347-0.496-0.853-0.586-1.356-0.574-0.504 0.01-1.317-0.342-2.005-1.033-0.688-0.69-1.229-0.812-1.764-0.734-0.537 0.079-1.145-0.075-1.524-0.538 0.524-0.616 1.07-1.771 1.567-2.117 0.604-0.046 1.11 0.11 1.521 0.472 0.412 0.359 0.98 0.28 1.385 0.271 0.403-0.009 0.979 0.181 1.318 0.408 0.342 0.228 0.879 0.217 1.379 0.003 0.499-0.212 0.394-0.478-0.221-0.835-0.613-0.357-0.954-0.585-1.162-0.915-0.208-0.332-0.38-0.496-1.119-0.48-0.739 0.017-1.088-0.344-1.668-0.972-1.309-1.417-2.184-1.499-3.022-1.379-0.837 0.119-1.673 0.271-2.367-0.722 0.864-0.423 1.566 0.55 2.682-0.294 0.595-0.45 0.997-0.558 1.741-0.307 0.745 0.253 1.617 0.167 1.849-0.006 0.231-0.174 0.528-0.448 0.896-0.489 0.368-0.042 0.323-0.53-0.212-0.467-1.04 0.122-1.222-0.512-2.226-0.321-1.003 0.189-1.376 0.03-2.025-0.427-0.647-0.456-1.194-0.848-3.104-0.538 0.089-0.606 0.04-1.244 0.977-1.433 0.716 0.423 1.386 0.34 1.957 0.327 0.571-0.012 2.521-0.021 3.094 0.067 0.573 0.089 0.701-0.184-0.148-0.635-0.851-0.451-2.064-0.628-2.501-0.651-0.438-0.025-0.647-0.322-0.927-0.887-0.282-0.566-1.132-1.018-2.374-1.023-1.019-0.007-1.759-0.467-2.273-0.926s-0.992-0.818-1.599-0.906-1.153-0.512-0.896-1.021c0.258-0.511 1.261-0.734 1.975-0.279 0.717 0.456 1.156 0.479 1.587 0.235 0.432-0.245 0.696-0.352 1.342-0.132 0.643 0.223 1.288 0.208 0.291-0.543-1.437-1.078-2.839-0.644-3.321-1.238-0.483-0.595-0.882-0.352-1.215-0.209-0.334 0.142-0.932-0.188-0.214-0.567 0.53-0.279 1.066-0.426 1.541-0.201 0.477 0.226 1.046 0.146 1.412-0.03 0.365-0.176 0.727-0.521-0.387-0.732-1.113-0.211-2.809-0.878-3.46-1.469-0.651-0.59-1.359-0.71-1.93-0.597-0.567 0.112-1.036 0.191-2.024-0.427-0.987-0.617-2.278-1.226-3.18-2.484-0.904-1.259-0.988-0.483-1.547 0.134z" fill="#00A651"/>
		<path d="m67.449 28.071c-0.652-0.075-1.18 0.227-0.843 0.674 0.339 0.446 0.509 0.166 0.933-0.045s0.82-0.521-0.09-0.629z" fill="#fff"/>
		<path d="m69.245 29.495c-0.599 0.29-1.171 0.63-1.36 1.239-0.188 0.608-0.163 1.145 0.4 0.999 0.853-0.221 0.906-1.229 1.534-1.344-0.209-0.298-0.268-0.699-0.574-0.894z" fill="#fff"/>
		<path d="m70.292 28.968c0.056 0.252 0.14 0.651 0.346 0.851 0.549-0.266 1.947-0.8 2.476-0.912 0.042-0.379-0.064-0.63-0.168-0.828-0.757 0.067-1.861 0.342-2.654 0.889z" fill="#fff"/>
		<path d="m74.998 31.343c0.007 0.37 0.164 1.309 0.237 1.677 0.341 0.159 0.78 0.284 1.118 0.378 0.227-0.441 0.279-1.081 0.271-1.485-0.612-0.389-1.16-0.815-1.626-0.57z" fill="#fff"/>
		<path d="m73.801 31.874c0.038 0.302 0.049 0.738 0.089 1.006-0.437 0.01-1.138 0.261-1.571 0.403-0.434 0.145-0.955-0.65-0.189-0.97 0.766-0.319 1.268-0.398 1.671-0.439z" fill="#fff"/>
		<path d="m63.045 34.897c0.797-0.421 1.207-0.159 1.94-0.378 0.344 0.329 0.755 0.723 1.033 1.12-0.423 0.715-1.71 0.238-2.14 0.551-0.343-0.361-0.585-0.726-0.833-1.293z" fill="#fff"/>
		<path d="m66.287 34.088c0.211 0.432 0.42 0.798 0.593 0.995 0.605 0.054 0.834-0.287 1.094-0.696 0.261-0.409 0.248-0.913-0.423-0.863-0.67 0.046-1.037 0.19-1.264 0.564z" fill="#fff"/>
		<path d="m61.045 41.832c0.177 0.433 0.685 0.589 0.826 0.922 0.563-0.348 0.834-0.32 1.307-0.23 0.472 0.091 1.74-0.34 2.463-1.095 0.723-0.756 0.254-0.678-0.585-0.559-0.836 0.119-1.472 0.268-2.046 0.146-0.575-0.121-1.442 0.131-1.965 0.816z" fill="#fff"/>
		<path d="m68.462 38.309c-0.397 0.244-0.595 0.416-0.284 0.779 0.31 0.363 0.474 0.191 0.839-0.019 0.366-0.209 0.526-0.516 0.319-0.78-0.207-0.265-0.476-0.225-0.874 0.02z" fill="#fff"/>
		<path d="m70.432 37.686c-0.404 0.009-0.372 0.261-0.318 0.461 0.056 0.201 0.108 0.325 0.437 0.317 0.327-0.006 0.376-0.083 0.269-0.408-0.109-0.327-0.136-0.375-0.388-0.37z" fill="#fff"/>
		<path d="m71.648 38.038c0.011 0.455-0.066 0.43 0.39 0.495 0.454 0.065 0.606 0.038 0.622-0.393 0.015-0.429 0.038-0.58-0.492-0.593-0.53-0.014-0.525 0.163-0.52 0.491z" fill="#fff"/>
		<path d="m73.521 38.399c-0.131 0.361-0.312 0.663 0.246 0.878 0.559 0.214 0.582 0.062 0.747-0.421 0.167-0.482 0.188-0.71-0.244-0.826-0.431-0.116-0.581-0.088-0.749 0.369z" fill="#fff"/>
		<path d="m75.516 38.533c-0.021 0.201-0.184 0.759-0.256 0.938 0.229 0.095 0.535 0.215 0.765 0.36 0.229 0.146 0.549-0.265 0.438-0.64-0.109-0.375-0.525-0.97-0.947-0.658z" fill="#fff"/>
		<path d="m77.88 32.507c-0.069 0.255-0.304 1.091-0.399 1.32 0.66 0.162 1.165 0.252 1.619 0.217 0.451-0.036 1.181-0.178 1.535-0.109 0.353 0.068 0.547-0.29-0.043-0.73-0.589-0.441-0.943-0.508-1.322-0.5-0.376 0.007-1.018-0.457-1.39-0.198z" fill="#fff"/>
		<path d="m80.394 35.628c-0.455-0.07-0.7 0.293-0.391 0.538 0.308 0.245 0.708 0.137 0.753-0.092 0.045-0.227 0.068-0.38-0.362-0.446z" fill="#fff"/>
		<path d="m81.398 35.505c0.031 0.227 0.089 0.628 0.095 0.805 0.333 0.32 0.679-0.015 1.04 0.306 0.359 0.319 0.629-0.014 0.697-0.343 0.068-0.33 0.116-0.507-0.188-0.501-0.653 0.014-1.095-0.556-1.644-0.267z" fill="#fff"/>
		<path d="m74.248 27.747c0.078 0.175 0.289 0.573 0.293 0.775 0.308 0.194 1.018 0.405 1.212 0.049 0.194-0.357 0.266-0.51-0.066-0.68-0.333-0.168-1.05-0.783-1.439-0.144z" fill="#fff"/>
		<path d="m76.959 28.369c-0.219 0.245-0.043 0.378 0.263 0.548 0.308 0.169 0.527-0.112 0.496-0.338-0.03-0.226-0.44-0.57-0.759-0.21z" fill="#fff"/>
		<path d="m67.008 45.531c0.232 0.206 0.413 0.496 0.354 0.832-0.061 0.339 0.144 0.469 0.383 0.564 0.236 0.095 0.855 0.681 0.974 0.046 0.121-0.642-0.405-1.639-0.776-1.697-0.37-0.058-0.538-0.055-0.709-0.254-0.175-0.197-0.672 0.116-0.226 0.509z" fill="#fff"/>
		<path d="m87.718 42.862c-0.154 0.574-0.767 1.831-1.164 2.076-0.612-0.29-1.726-0.535-1.833-0.868 0.221-0.61 0.444-1.119 0.605-1.492 0.701-0.149 1.811-0.207 2.392 0.284z" fill="#fff"/>
		<path d="m83.935 42.004c-0.024 0.438-0.271 1.417-0.397 1.756-0.705 0.082-2.393-0.251-2.958-0.036 0.022-0.472 0.009-1.076 0.138-1.381 1.074-0.024 2.067-0.717 3.217-0.339z" fill="#fff"/>
</g>
</svg>
