<?xml version="1.0" encoding="UTF-8" standalone="no"?>
<!-- Generator: Adobe Illustrator 18.0.0, SVG Export Plug-In . SVG Version: 6.00 Build 0)  -->
<!DOCTYPE svg  PUBLIC '-//W3C//DTD SVG 1.1//EN'  'http://www.w3.org/Graphics/SVG/1.1/DTD/svg11.dtd'>
<svg style="enable-background:new 0 0 144 80" xmlns="http://www.w3.org/2000/svg" xml:space="preserve" version="1.1" y="0px" x="0px" xmlns:xlink="http://www.w3.org/1999/xlink" viewBox="0 0 144 80">
<g id="ASA">
		<polygon points="144 79.645 144 0.356 0 0.356 0 79.645" fill="#006"/>
		<path d="m74.979 41.174" fill="#003876"/>
		<path stroke-width=".1337" d="m74.979 41.174" stroke="#000" fill="none"/>
		<polygon points="144 0 3.427 39.998 144 80" fill="#BD1021"/>
		<polygon points="144 4.137 17.931 39.998 144 75.873" fill="#fff"/>
			<path d="m120.94 48.052c-0.354 0.317-1.04 1.522-1.168 2.538 0.111 0.648-1.038 2.202-1.215 2.791-0.128 0.221-0.287 0.521-0.415 0.68l-5.804-0.395c-0.256-0.128-0.432-0.412-0.432-0.667 0.607 0.095 1.577-0.571 1.897-0.856-0.038-0.284-0.014-0.683 0.085-0.951 0.16-0.461 0.64-0.84 0.928-1.03 0.384-0.229 1.185-0.404 1.633-0.55 0.255-0.316 0.478-0.64 0.925-1.465 0.112 0.096 0.286 0.23 0.419 0.283 0.488-0.687 0.867-1.482 1.02-1.9 0.447 0.499 1.199 0.442 1.723 0.284 0.04 0.332 0.2 0.961 0.4 1.238z" fill="#F5BA22"/>
			<path stroke-width=".06" d="m120.94 48.052c-0.354 0.317-1.04 1.522-1.168 2.538 0.111 0.648-1.038 2.202-1.215 2.791-0.128 0.221-0.287 0.521-0.415 0.68l-5.804-0.395c-0.256-0.128-0.432-0.412-0.432-0.667 0.607 0.095 1.577-0.571 1.897-0.856-0.038-0.284-0.014-0.683 0.085-0.951 0.16-0.461 0.64-0.84 0.928-1.03 0.384-0.229 1.185-0.404 1.633-0.55 0.255-0.316 0.478-0.64 0.925-1.465 0.112 0.096 0.286 0.23 0.419 0.283 0.488-0.687 0.867-1.482 1.02-1.9 0.447 0.499 1.199 0.442 1.723 0.284 0.04 0.332 0.2 0.961 0.4 1.238z" stroke="#000" fill="none"/>
			<path d="m110.48 49.186s-6.514-1.545-7.513-1.775c-0.998-0.232-1.972-1.816-2.38-2.693-1.723 1.027-4.812 1.376-6.242 1.304 1.312 0.571 3.917 2.254 4.997 3.933 0.76-0.601 2.344-1.588 3.342-1.351 1.009 0.236 7.521 1.741 7.521 1.741" fill="#F5BA22"/>
			<path stroke-width=".06" d="m110.48 49.186s-6.514-1.545-7.513-1.775c-0.998-0.232-1.972-1.816-2.38-2.693-1.723 1.027-4.812 1.376-6.242 1.304 1.312 0.571 3.917 2.254 4.997 3.933 0.76-0.601 2.344-1.588 3.342-1.351 1.009 0.236 7.521 1.741 7.521 1.741" stroke="#000" fill="none"/>
			<path d="m102.22 50.565c-0.082 0.346 0.097 0.4 0.42 0.465 0.153 0.032 0.411 0.088 0.666 0.149 0.319 0.08 0.512 0.138 0.591-0.207l1.229-5.193c0.084-0.346-0.115-0.378-0.438-0.448-0.256-0.054-0.512-0.117-0.663-0.159-0.319-0.083-0.503-0.113-0.584 0.231l-1.23 5.162z" fill="#F5BA22"/>
			<path stroke-width=".06" d="m102.22 50.565c-0.082 0.346 0.097 0.4 0.42 0.465 0.153 0.032 0.411 0.088 0.666 0.149 0.319 0.08 0.512 0.138 0.591-0.207l1.229-5.193c0.084-0.346-0.115-0.378-0.438-0.448-0.256-0.054-0.512-0.117-0.663-0.159-0.319-0.083-0.503-0.113-0.584 0.231l-1.23 5.162z" stroke="#000" fill="none"/>
			<path d="m105.27 50.361c-0.055 0.238-0.189 0.196-0.412 0.143-0.178-0.044-0.356-0.083-0.463-0.104-0.225-0.046-0.35-0.083-0.293-0.323l0.805-3.402c0.057-0.24 0.184-0.217 0.406-0.159 0.106 0.026 0.283 0.07 0.462 0.109 0.225 0.05 0.363 0.071 0.305 0.312l-0.83 3.424z" fill="#F5BA22"/>
			<path stroke-width=".06" d="m105.27 50.361c-0.055 0.238-0.189 0.196-0.412 0.143-0.178-0.044-0.356-0.083-0.463-0.104-0.225-0.046-0.35-0.083-0.293-0.323l0.805-3.402c0.057-0.24 0.184-0.217 0.406-0.159 0.106 0.026 0.283 0.07 0.462 0.109 0.225 0.05 0.363 0.071 0.305 0.312l-0.83 3.424z" stroke="#000" fill="none"/>
			<path d="m130.09 53.66l-15.931-3.652c-0.788-0.207-2.628-1.385-2.947-2.176-0.321-0.792-0.884 0.56-1.167 1.853-0.282 1.292-0.415 2.743 0.225 2.174 0.639-0.572 2.813-0.826 3.613-0.667l15.924 3.679c0.4 0.079 0.66-1.122 0.3-1.211z" fill="#F5BA22"/>
			<path stroke-width=".06" d="m130.09 53.66l-15.931-3.652c-0.788-0.207-2.628-1.385-2.947-2.176-0.321-0.792-0.884 0.56-1.167 1.853-0.282 1.292-0.415 2.743 0.225 2.174 0.639-0.572 2.813-0.826 3.613-0.667l15.924 3.679c0.4 0.079 0.66-1.122 0.3-1.211z" stroke="#000" fill="none"/>
			<path d="m107.17 54.464l21.611 1.546c0.391 0.02 0.463-1.207 0.092-1.24l-21.614-1.516-0.09 1.21z" fill="#F5BA22"/>
			<path stroke-width=".06" d="m107.17 54.464l21.611 1.546c0.391 0.02 0.463-1.207 0.092-1.24l-21.614-1.516-0.09 1.21z" stroke="#000" fill="none"/>
			<path d="m120.18 57.914c0.512 0.445 2.559 1.395 3.391 1.586-0.897 0.444-3.263 0-4.094-0.379 0.256 0.634 1.278 1.587 2.109 1.967-1.342 0.887-2.941-0.446-3.9-1.713 0.32 0.38 0.512 1.521 0.32 1.902-0.768-1.397-3.006-2.412-4.223-2.6 1.025 0.315 1.152 1.202 1.089 1.648-1.022-1.018-2.047-0.826-2.303 0.126-0.896-1.903-3.389-2.474-4.732-2.474-1.342 0-0.958-1.078-3.325-1.205-1.544-0.083-1.727-1.713-2.813-2.285-1.088-0.57-0.64-1.076-0.191-1.648 0.447-0.569 1.342-0.762 1.726-0.253 0.384 0.507 1.279-0.762 2.176-0.064 0.426 0.333 0.638 0.826 1.087 0 0.447-0.823 1.587 0.491 2.046 1.144 0.224 0.315 0.319 0.664 0.064 0.792-0.258 0.128-0.48 0.477-0.258 0.697 0.226 0.223-0.255 0.477-0.638 0.477 2.621 0.571 6.299 0.539 7.482 0.349-0.128 0.223-0.417 0.667-0.672 0.793 1.183 0.097 3.964 0.223 5.181-0.667-0.065 0.352-0.225 0.984-0.416 1.174 0.511 0.095 2.685 0.034 3.262-0.126-0.27 0.475-0.87 0.951-2.38 0.759z" fill="#F5BA22"/>
			<path stroke-width=".06" d="m120.18 57.914c0.512 0.445 2.559 1.395 3.391 1.586-0.897 0.444-3.263 0-4.094-0.379 0.256 0.634 1.278 1.587 2.109 1.967-1.342 0.887-2.941-0.446-3.9-1.713 0.32 0.38 0.512 1.521 0.32 1.902-0.768-1.397-3.006-2.412-4.223-2.6 1.025 0.315 1.152 1.202 1.089 1.648-1.022-1.018-2.047-0.826-2.303 0.126-0.896-1.903-3.389-2.474-4.732-2.474-1.342 0-0.958-1.078-3.325-1.205-1.544-0.083-1.727-1.713-2.813-2.285-1.088-0.57-0.64-1.076-0.191-1.648 0.447-0.569 1.342-0.762 1.726-0.253 0.384 0.507 1.279-0.762 2.176-0.064 0.426 0.333 0.638 0.826 1.087 0 0.447-0.823 1.587 0.491 2.046 1.144 0.224 0.315 0.319 0.664 0.064 0.792-0.258 0.128-0.48 0.477-0.258 0.697 0.226 0.223-0.255 0.477-0.638 0.477 2.621 0.571 6.299 0.539 7.482 0.349-0.128 0.223-0.417 0.667-0.672 0.793 1.183 0.097 3.964 0.223 5.181-0.667-0.065 0.352-0.225 0.984-0.416 1.174 0.511 0.095 2.685 0.034 3.262-0.126-0.27 0.475-0.87 0.951-2.38 0.759z" stroke="#000" fill="none"/>
			<path d="m119.15 51.356c-0.143 0.623-0.083 1.087-0.965 1.005-0.099 0.431 0.179 1.104 0.703 1.112 0.719 0.011 1.237-0.8 1.393-1.466 0.103-0.444 0.14-1.312-0.337-1.404-0.43-0.087-0.63 0.116-0.78 0.753z" fill="#F5BA22"/>
			<path stroke-width=".06" d="m119.15 51.356c-0.143 0.623-0.083 1.087-0.965 1.005-0.099 0.431 0.179 1.104 0.703 1.112 0.719 0.011 1.237-0.8 1.393-1.466 0.103-0.444 0.14-1.312-0.337-1.404-0.43-0.087-0.63 0.116-0.78 0.753z" stroke="#000" fill="none"/>
			<path d="m117.97 51.221c-0.158 0.693-0.093 1.213-1.073 1.12-0.112 0.479 0.197 1.23 0.782 1.238 0.8 0.011 1.378-0.89 1.552-1.632 0.114-0.494 0.154-1.463-0.375-1.565-0.49-0.097-0.73 0.128-0.89 0.839z" fill="#F5BA22"/>
			<path stroke-width=".06" d="m117.97 51.221c-0.158 0.693-0.093 1.213-1.073 1.12-0.112 0.479 0.197 1.23 0.782 1.238 0.8 0.011 1.378-0.89 1.552-1.632 0.114-0.494 0.154-1.463-0.375-1.565-0.49-0.097-0.73 0.128-0.89 0.839z" stroke="#000" fill="none"/>
			<path d="m116.82 50.795c-0.251 0.668-0.257 1.188-1.215 0.967-0.176 0.46 0.031 1.248 0.608 1.332 0.791 0.116 1.485-0.696 1.757-1.41 0.181-0.475 0.354-1.428-0.159-1.604-0.47-0.161-0.73 0.032-0.99 0.715z" fill="#F5BA22"/>
			<path stroke-width=".06" d="m116.82 50.795c-0.251 0.668-0.257 1.188-1.215 0.967-0.176 0.46 0.031 1.248 0.608 1.332 0.791 0.116 1.485-0.696 1.757-1.41 0.181-0.475 0.354-1.428-0.159-1.604-0.47-0.161-0.73 0.032-0.99 0.715z" stroke="#000" fill="none"/>
			<path d="m115.71 50.367c-0.25 0.667-0.257 1.188-1.216 0.966-0.175 0.461 0.031 1.248 0.609 1.333 0.751 0.111 1.39-0.634 1.741-1.349 0.242-0.489 0.438-1.463-0.078-1.617-0.48-0.141-0.8-0.015-1.05 0.667z" fill="#F5BA22"/>
			<path stroke-width=".06" d="m115.71 50.367c-0.25 0.667-0.257 1.188-1.216 0.966-0.175 0.461 0.031 1.248 0.609 1.333 0.751 0.111 1.39-0.634 1.741-1.349 0.242-0.489 0.438-1.463-0.078-1.617-0.48-0.141-0.8-0.015-1.05 0.667z" stroke="#000" fill="none"/>
			<path d="m117.26 53.522c-0.719 0.364-1.335 2.247-0.4 2.442 0.99 0.207 0.95-1.922 0.4-2.442z" fill="#F5BA22"/>
			<path stroke-width=".06" d="m117.26 53.522c-0.719 0.364-1.335 2.247-0.4 2.442 0.99 0.207 0.95-1.922 0.4-2.442z" stroke="#000" fill="none"/>
			<path d="m116.23 53.381c-0.72 0.364-1.447 2.166-0.513 2.361 0.99 0.205 1.07-1.844 0.51-2.361z" fill="#F5BA22"/>
			<path stroke-width=".06" d="m116.23 53.381c-0.72 0.364-1.447 2.166-0.513 2.361 0.99 0.205 1.07-1.844 0.51-2.361z" stroke="#000" fill="none"/>
			<path d="m115.2 53.235c-0.722 0.366-1.544 2.185-0.608 2.382 0.99 0.205 1.16-1.86 0.61-2.382z" fill="#F5BA22"/>
			<path stroke-width=".06" d="m115.2 53.235c-0.722 0.366-1.544 2.185-0.608 2.382 0.99 0.205 1.16-1.86 0.61-2.382z" stroke="#000" fill="none"/>
			<path d="m114.19 53.129c-0.76 0.271-1.71 1.97-0.807 2.28 0.96 0.327 1.3-1.694 0.81-2.28z" fill="#F5BA22"/>
			<path stroke-width=".06" d="m114.19 53.129c-0.76 0.271-1.71 1.97-0.807 2.28 0.96 0.327 1.3-1.694 0.81-2.28z" stroke="#000" fill="none"/>
			<path d="m110.85 39.146c0.432-0.091 1.257-0.174 2.013-0.215 1.088 0.062 1.885 1.54 3.23 1.54 0.017 0.364 0.287 1.3 1.088 1.396-0.097 0.506-0.16 1.141 0.384 1.457-0.32 0.478-0.512 1.492-0.096 1.778-0.129 0.315-0.258 1.013 0.096 1.331-0.32 0.443-0.705 1.333-0.192 1.713 0.128 0.128 0.271 0.223 0.415 0.287 0.49-0.689 0.871-1.484 1.023-1.904 0.383 0.442 1.082 0.475 1.723 0.284 0.146 1.053 0.713 2.03 1.762 2.603-0.19-0.539-0.351-1.206 0.193-1.809 0.447 0.221 1.216 0.444 1.566 0.413-0.544-0.413-0.575-1.396-0.319-1.966 0.575 0.41 1.663 0.633 2.237 0.537-0.767-0.442-1.15-1.871-1.47-2.408 0.64 0.125 1.918 0.473 2.204 1.109 0.098-0.637-0.062-1.396-0.574-1.841 1.215 0 1.791-0.729 2.271-1.713-0.608 0.287-1.248 0.128-2.079 0.317 0.576-0.158 1.085-0.889 1.375-1.332-0.544 0.254-1.599 0.349-2.11 0.031 0.639-0.094 2.142-0.475 2.718-1.27-1.406-0.125-0.991-1.676-2.397-1.581 0.941-0.106 1.934-0.044 2.558 0.155 0.632 0.204 1.128 0.186 1.316-0.016 0.704 0.062 4.95 0.777 6.068 1.065 1.119 0.282 1.544-0.499 1.16-1.163 1.023-0.317 1.016-1.345 0.664-1.662 1.023-0.095 0.769-1.413 0.25-1.617 0.23-0.165 0.342-0.354 0.326-0.572-0.023-0.272-0.169-0.445-0.422-0.538 0.074-0.545 0.136-1.203-0.602-1.332-0.031-0.635-0.287-0.952-0.96-1.174-0.68-0.225-1.662 0.096-2.716 0.414-1.086 0.325-2.605 0.43-4.108 0.524-1.124-0.504-3.833-0.864-4.63-1.04 0.423 0.1 1.132-0.289 2.375-1.023 0.594-0.352 1.167-0.695 1.435-1.002 0.544-0.253 1.762-0.918 2.209-1.172s1.198-0.769 0.743-1.212c0.398-0.23 0.767-0.634 0.535-0.929 0.487-0.205 0.649-0.792 0.415-1.03 0.672-0.254 0.923-0.665 0.828-1.142 0.63-0.253 1.051-0.701 0.912-1.302 0.423-0.365 0.504-0.874 0.371-1.29 0.477-0.378 0.675-0.883 0.559-1.404 0.456-0.427 0.539-1.211 0.129-1.556 0.415-0.554 0.624-1.727-0.879-1.014-1.342 0.638-3.887 1.593-4.847 1.783-0.051-0.475-0.599-0.446-1.357-0.07-1.022 0.507-3.009 1.077-4.03 1.205-0.016-0.222-0.059-0.434-0.126-0.634-1.215 0.887-4.855 2.156-6.008 2.41 0.005-0.355-0.042-0.687-0.132-0.951-0.512 1.585-4.029 1.966-6.331 2.535-2.177 0.541-6.079 1.901-4.269 5.03-1.119 1.646-3.476 2.251-4.013 3.153-0.735 1.238-0.143 2.4 1.183 2.571 1.983 0.252 3.094-1.955 4.916-1.257 0.375 0.811-1.639 1.637-0.567 4.236 1.03 2.473 1.45 2.304 2 2.264z" fill="#9C3900"/>
			<path stroke-width=".06" d="m110.85 39.146c0.432-0.091 1.257-0.174 2.013-0.215 1.088 0.062 1.885 1.54 3.23 1.54 0.017 0.364 0.287 1.3 1.088 1.396-0.097 0.506-0.16 1.141 0.384 1.457-0.32 0.478-0.512 1.492-0.096 1.778-0.129 0.315-0.258 1.013 0.096 1.331-0.32 0.443-0.705 1.333-0.192 1.713 0.128 0.128 0.271 0.223 0.415 0.287 0.49-0.689 0.871-1.484 1.023-1.904 0.383 0.442 1.082 0.475 1.723 0.284 0.146 1.053 0.713 2.03 1.762 2.603-0.19-0.539-0.351-1.206 0.193-1.809 0.447 0.221 1.216 0.444 1.566 0.413-0.544-0.413-0.575-1.396-0.319-1.966 0.575 0.41 1.663 0.633 2.237 0.537-0.767-0.442-1.15-1.871-1.47-2.408 0.64 0.125 1.918 0.473 2.204 1.109 0.098-0.637-0.062-1.396-0.574-1.841 1.215 0 1.791-0.729 2.271-1.713-0.608 0.287-1.248 0.128-2.079 0.317 0.576-0.158 1.085-0.889 1.375-1.332-0.544 0.254-1.599 0.349-2.11 0.031 0.639-0.094 2.142-0.475 2.718-1.27-1.406-0.125-0.991-1.676-2.397-1.581 0.941-0.106 1.934-0.044 2.558 0.155 0.632 0.204 1.128 0.186 1.316-0.016 0.704 0.062 4.95 0.777 6.068 1.065 1.119 0.282 1.544-0.499 1.16-1.163 1.023-0.317 1.016-1.345 0.664-1.662 1.023-0.095 0.769-1.413 0.25-1.617 0.23-0.165 0.342-0.354 0.326-0.572-0.023-0.272-0.169-0.445-0.422-0.538 0.074-0.545 0.136-1.203-0.602-1.332-0.031-0.635-0.287-0.952-0.96-1.174-0.68-0.225-1.662 0.096-2.716 0.414-1.086 0.325-2.605 0.43-4.108 0.524-1.124-0.504-3.833-0.864-4.63-1.04 0.423 0.1 1.132-0.289 2.375-1.023 0.594-0.352 1.167-0.695 1.435-1.002 0.544-0.253 1.762-0.918 2.209-1.172s1.198-0.769 0.743-1.212c0.398-0.23 0.767-0.634 0.535-0.929 0.487-0.205 0.649-0.792 0.415-1.03 0.672-0.254 0.923-0.665 0.828-1.142 0.63-0.253 1.051-0.701 0.912-1.302 0.423-0.365 0.504-0.874 0.371-1.29 0.477-0.378 0.675-0.883 0.559-1.404 0.456-0.427 0.539-1.211 0.129-1.556 0.415-0.554 0.624-1.727-0.879-1.014-1.342 0.638-3.887 1.593-4.847 1.783-0.051-0.475-0.599-0.446-1.357-0.07-1.022 0.507-3.009 1.077-4.03 1.205-0.016-0.222-0.059-0.434-0.126-0.634-1.215 0.887-4.855 2.156-6.008 2.41 0.005-0.355-0.042-0.687-0.132-0.951-0.512 1.585-4.029 1.966-6.331 2.535-2.177 0.541-6.079 1.901-4.269 5.03-1.119 1.646-3.476 2.251-4.013 3.153-0.735 1.238-0.143 2.4 1.183 2.571 1.983 0.252 3.094-1.955 4.916-1.257 0.375 0.811-1.639 1.637-0.567 4.236 1.03 2.473 1.45 2.304 2 2.264z" stroke="#000" fill="none"/>
			<path d="m111.11 37.612c0.736-0.46 1.312-1.138 1.845-1.138-0.406-0.2-1.443-0.282-2.47-0.053 0.447-0.316 1.127-0.994 1.415-1.373-0.418-0.033-0.993-0.041-1.565 0.062 0.225-0.317 0.67-0.889 1.021-1.142-0.863-0.032-1.983 0.174-2.558 0.635 0.512-0.414 0.99-1.23 0.639-1.96-1.278 2.348-4.412 3.323-6.011 4.021s-2.877 1.206-2.942 1.968c-0.062 0.759-0.351 1.488-0.992 2.061-0.639 0.569 2.719 2.729 4.605 1.141 1.887-1.586 4.572-2.438 6.172-2.505 0.767-0.032 1.598-1.109 2.398-1.048-0.26-0.189-1.01-0.729-1.56-0.669z" fill="#fff"/>
			<path stroke-width=".06" d="m111.11 37.612c0.736-0.46 1.312-1.138 1.845-1.138-0.406-0.2-1.443-0.282-2.47-0.053 0.447-0.316 1.127-0.994 1.415-1.373-0.418-0.033-0.993-0.041-1.565 0.062 0.225-0.317 0.67-0.889 1.021-1.142-0.863-0.032-1.983 0.174-2.558 0.635 0.512-0.414 0.99-1.23 0.639-1.96-1.278 2.348-4.412 3.323-6.011 4.021s-2.877 1.206-2.942 1.968c-0.062 0.759-0.351 1.488-0.992 2.061-0.639 0.569 2.719 2.729 4.605 1.141 1.887-1.586 4.572-2.438 6.172-2.505 0.767-0.032 1.598-1.109 2.398-1.048-0.26-0.189-1.01-0.729-1.56-0.669z" stroke="#000" fill="none"/>
			<path d="m99.942 42.913c0.288 0.477 1.568 0.726 2.414 0.316 1.119-0.539 1.008-0.919 1.967-1.555-0.32 0.192-0.672 0.034-0.896-0.158-0.224-0.189-1.055-0.38-1.599-0.095-0.13 0.254-1.38 1.334-1.888 1.492z" fill="#F5BA22"/>
			<path stroke-width=".06" d="m99.942 42.913c0.288 0.477 1.568 0.726 2.414 0.316 1.119-0.539 1.008-0.919 1.967-1.555-0.32 0.192-0.672 0.034-0.896-0.158-0.224-0.189-1.055-0.38-1.599-0.095-0.13 0.254-1.38 1.334-1.888 1.492z" stroke="#000" fill="none"/>
			<path d="m99.91 40.217c-0.479 0.666-1.396 0.933-1.566 1.936-0.143 0.841 0.273 1.997 1.454 2.062-0.117-0.721 0.097-0.936 0.576-1.254 0.555-0.366 1.162-1.168 1.567-1.372 0.615-0.308 0.333-0.389-0.576-0.404-1.05-0.017-1.769-0.429-1.45-0.968z" fill="#F5BA22"/>
			<path stroke-width=".06" d="m99.91 40.217c-0.479 0.666-1.396 0.933-1.566 1.936-0.143 0.841 0.273 1.997 1.454 2.062-0.117-0.721 0.097-0.936 0.576-1.254 0.555-0.366 1.162-1.168 1.567-1.372 0.615-0.308 0.333-0.389-0.576-0.404-1.05-0.017-1.769-0.429-1.45-0.968z" stroke="#000" fill="none"/>
			<path d="m129.78 38.045c0.704 0.062 4.95 0.777 6.068 1.065 1.119 0.282 1.544-0.499 1.16-1.163 1.023-0.317 1.016-1.345 0.664-1.662 1.023-0.095 0.769-1.413 0.25-1.617 0.23-0.165 0.342-0.354 0.326-0.572-0.023-0.272-0.169-0.445-0.422-0.538 0.074-0.545 0.136-1.203-0.602-1.332-0.031-0.635-0.287-0.952-0.96-1.174-0.68-0.225-1.662 0.096-2.716 0.414-1.086 0.325-2.605 0.43-4.108 0.524 0.297 0.134 0.48 0.273 0.494 0.426 0.05 0.571-0.255 0.983-0.959 0.888 0.863 0.126 1.182 0.73 0.672 1.205l-0.061 0.012c0.056 0.066 0.089 0.135 0.093 0.211 0.016 0.349-0.358 0.496-0.93 0.526 1.246 0.095 0.865 1.471 0.098 1.376 0.61 0.353 1.21 0.975 0.94 1.411z" fill="#fff"/>
			<path stroke-width=".06" d="m129.78 38.045c0.704 0.062 4.95 0.777 6.068 1.065 1.119 0.282 1.544-0.499 1.16-1.163 1.023-0.317 1.016-1.345 0.664-1.662 1.023-0.095 0.769-1.413 0.25-1.617 0.23-0.165 0.342-0.354 0.326-0.572-0.023-0.272-0.169-0.445-0.422-0.538 0.074-0.545 0.136-1.203-0.602-1.332-0.031-0.635-0.287-0.952-0.96-1.174-0.68-0.225-1.662 0.096-2.716 0.414-1.086 0.325-2.605 0.43-4.108 0.524 0.297 0.134 0.48 0.273 0.494 0.426 0.05 0.571-0.255 0.983-0.959 0.888 0.863 0.126 1.182 0.73 0.672 1.205l-0.061 0.012c0.056 0.066 0.089 0.135 0.093 0.211 0.016 0.349-0.358 0.496-0.93 0.526 1.246 0.095 0.865 1.471 0.098 1.376 0.61 0.353 1.21 0.975 0.94 1.411zm-15.61 20.186c-0.481-0.348-2.047-1.269-2.654-1.361 0.384 0 2.079-0.032 2.526-0.256m4.92 2.761c-0.544-0.352-3.103-1.363-3.549-1.491 0.512-0.032 2.206-0.159 2.781-0.127m-8.25-0.032c-0.639-0.095-2.174-0.729-2.781-1.426 0.703 0.22 2.174 0.443 2.687 0.284m-4.32-0.191c-0.863-0.157-1.855-0.888-2.654-1.585 0.352 0.192 1.982 0.793 2.494 0.793m0.6-0.983c-0.959-0.031-2.366-0.636-2.941-1.428 0.639 0.254 1.662 0.477 2.494 0.349m12.26-5.108c-0.326 0.457-0.7 0.865-1.091 1.081-0.056 0.03-0.143 0.065-0.253 0.101m-2.65 2.531c0.012 0.088 0.03 0.164 0.054 0.223 0.287-0.127 0.479-0.223 0.671-0.287m-2.71-23.343c0.959-0.794 3.431-1.788 4.093-2.094 1.374-0.634 1.279-1.838 0.255-1.967m-2.72 4.76c0.895-0.698 2.589-1.524 3.581-1.872 0.991-0.349 1.119-1.648-0.161-1.713m-2.14 4.156c1.021-0.318 2.462-1.27 3.613-1.651 0.729-0.239 1.087-1.966-0.545-1.521m-2.04 3.994c0.992-0.348 2.592-1.268 3.582-1.775 0.713-0.365 0.512-1.396-0.447-1.236m-1.4 3.424c0.639-0.38 1.789-1.079 2.525-1.425 0.734-0.352 0.767-1.336-0.225-1.271m-1 3.204c0.608-0.38 1.791-1.077 2.335-1.3s0.479-1.523-0.607-1.109m-3.59-3.808c1.343-0.508 3.741-1.205 5.18-1.648 1.438-0.444 2.158-1.158 1.103-1.888m0.45 0.983c0.864-0.253 3.342-0.966 4.397-1.253 1.056-0.285 1.247-0.981 0.511-1.552m-10.78 6.532c1.375-0.571 4.476-1.427 5.501-1.682 1.022-0.254 0.991-1.728 0-1.664m0.68 1.142c1.087-0.38 3.709-1.35 4.699-1.634 0.993-0.285 1.137-1.349 0.081-1.459m-9.64 6.407c0.767-0.224 2.942-0.982 4.317-1.363 1.374-0.382 1.246-1.429 0.415-1.713m0.6 0.918c0.928-0.349 3.421-1.268 4.285-1.553 0.862-0.286 1.246-1.109 0.479-1.522m-8.76 6.185c1.278-0.475 3.263-1.269 4.381-1.617 0.83-0.259 0.447-1.396-0.447-1.364m0.9 0.888c0.576-0.189 2.654-1.048 3.838-1.522 1.141-0.459 1.142-1.325 0.247-1.42m-7.9 6.049c1.022-0.507 2.876-1.302 3.9-1.681 1.022-0.38 0.728-1.331-0.137-1.268m0.78 0.714c0.959-0.445 2.822-1.221 3.717-1.603 0.895-0.381 0.631-1.221-0.112-1.054m-9.88 7.379c0.349-0.175 1.183-0.505 1.574-0.743 0.897-0.537 0.865-1.234 0.097-1.33m0.61 0.665c1.183-0.699 2.978-1.513 3.708-1.809 0.863-0.35 0.729-1.117 0.088-1.212m0.47 0.73c0.672-0.317 2.438-1.198 3.142-1.546 0.704-0.35 0.944-0.826 0.504-1.182m-7.56 4.891c0.256 0.508 1.411 0.297 2.591-0.315 1.277-0.666 1.574-1.286 0.869-1.412m0.26 0.57c0.639-0.316 2.35-1.283 3.022-1.57 0.67-0.284 0.767-0.761 0.319-0.981m-3.83 6.975c1.662-0.125 4.062 0.033 4.094 0.73 0.031 0.697-1.632 0.54-2.91 0.413m-2.75-2.157c1.438-0.063 4.094 0.19 4.956 0.316 0.863 0.126 1.182 0.73 0.672 1.205m0.13 3.538c0.136-0.147 0.114-0.387-0.133-0.715-1.269-1.666-3.051-0.746-3.997-1.489m3.2 0.792c0.768 0.095 1.184-1.267-0.065-1.362m1.06-1.048c1.375 0 5.116-0.412 6.331-0.633 0.716-0.133 1.294-0.165 1.657-0.033m-8.21 2.381c3.877-0.289 7.264-0.531 8.308-1.271m-0.26 1.617c-1.023 0.096-4.381 0.063-8.091-0.189m7.65-3.87c-0.208-0.038-0.48-0.032-0.831 0.032-1.599 0.284-4.796 0.983-7.003 1.046m7.61 4.643c-0.383-0.666-1.383-0.837-2.757-0.901-1.375-0.063-3.741-0.38-4.861-0.602m-6.91 11.164c-0.641-0.271-1.135-2.03-0.688-2.934m1.94 1.382c-0.513-0.287-1.375-1.413-1.344-2.016m2.11 0.145c-0.196-0.469-0.495-0.762-0.864-0.842m2.49 0.11c-0.432 0.03-1.311-0.046-1.935-0.713m2.12-0.682c-0.399 0.142-1.87 0.254-2.559-0.269m1.83-1.032c-0.239 0.079-1.807 0.095-2.511-0.475m-1.17-5.01c-1.118 2.219-3.102 2.473-3.678 1.711-1.663 0.382-2.812-0.349-2.59-0.792-1.086-0.031-1.982-0.73-2.366-1.205 0.96-0.731 0.384-1.871-0.831-1.808-1.214 0.063-2.302-0.825-3.197-2.158m8.99 5.962c0.416-0.095 1.119-0.507 1.407-1.172m-4 0.38c0.384 0 1.312-0.222 1.791-0.634m2.37 1.744c0.384 0.572 1.983 0.572 3.134-0.379m-0.19-5.932c0.256 0.381-0.33 0.641-0.959 0.919-0.288 0.126-0.928 0.38-1.186 0.603m3.17-1.617c0.257 0.349-0.333 0.729-0.799 0.984-0.289 0.156-0.831 0.285-1.088 0.602m2.94-1.53c0.08 0.459-0.565 0.652-1.063 0.928-0.288 0.156-0.896 0.41-1.183 0.727m-6.55 5.964c1.152 0.064 2.622 0.508 3.134 1.458 0.512 0.952 0.832 1.206 1.473 1.333m-0.95-0.571c-0.255 0.507-1.023 2.03-0.063 2.602m-0.45-0.635c-0.64 0.635-0.672 1.68-0.159 2.188m-1.82-3.076c0.798 0.095 0.959-0.223 1.214-0.54m-0.83 1.997c0.175 0.128 0.43 0.223 0.639 0.256m-0.73 1.523c0.144 0.142 0.318 0.221 0.56 0.285m-0.47 1.046c0.143 0.144 0.287 0.238 0.414 0.285m-9.2-19.316c1.982 0.761 2.238-0.888 7.067-2.599 1.638-0.582 2.227-2.065 2.241-3.236m13.49 4.972c-0.378 0.218-1.505 0.798-1.894 0.991m2.43-1.92c-0.355 0.151-1.663 0.644-2.045 0.898m2.46-1.928c-0.671 0.254-1.757 0.666-2.27 0.89m3.1-2.031c-0.101 0.043-0.212 0.08-0.323 0.11-0.799 0.223-2.406 0.667-3.078 0.921m4.31-2.333c-0.188 0.162-0.445 0.295-0.781 0.382-0.83 0.219-3.365 0.849-4.035 1.101m5.2-2.773c-0.246 0.193-0.569 0.356-0.959 0.467-1.089 0.309-3.525 0.951-4.389 1.173m5.9-3.045c-0.126 0.115-0.28 0.207-0.463 0.254-1.639 0.414-4.564 1.213-5.907 1.625m6.5-3.434c-0.529 0.709-4.461 1.523-6.764 2.286m1.04-1.517c0.019 0.166-0.025 0.395-0.143 0.69-0.445 1.143-3.803 1.761-5.722 2.143m0.47-1.698c0.067 1.043-0.479 2.215-1.868 2.584-1.663 0.444-4.11 0.969-5.069 1.413m-9.93 4.394c1.352 1.933 2.494 3.233 2.086 4.468m19.19-3.727c0.195-0.223 0.215-0.489-0.014-0.664m-4.14 2.412c0.089 0.15 0.199 0.242 0.344 0.277m4.63 1.04c0.297 0.134 0.48 0.273 0.494 0.426 0.05 0.571-0.255 0.983-0.959 0.888m-3.93 4.758c0.275-0.068 0.567-0.119 0.864-0.155m-7.09 8.623c-0.635-0.735-0.511-1.523 0-2.029m1.72 2.313c-0.034-0.23-0.034-0.463-0.027-0.698m-4.41-5.644c0.319 0 0.607-0.159 0.863-0.35m-4.09-1.19c0.812-0.044 1.619-0.046 2.016 0.017 0.767 0.129 1.566-0.189 0.862-0.887m-14.3 2.06c0.105-1.641 2.416-1.694 3.007-2.663-0.192 0.476-0.545 0.952-0.513 1.489m-2.1 0.263c0.023 0.563 0.727 0.833 1.143 0.578 0.396-0.241 0.288-1.125-0.287-1.204m-0.45 0.276c0.303 0.087 0.591 0.249 0.688 0.77m7.41-4.519c-0.522 0.096-1.043 0.285-1.44 0.635m0.8 2.282c0.54 0.034 1.002-0.155 1.416-0.416m-0.63-1.19c-0.43 0.095-0.862 0.249-1.239 0.465" stroke="#000" fill="none"/>
</g>
</svg>
