<?xml version="1.0" encoding="UTF-8" standalone="no"?>
<!-- Generator: Adobe Illustrator 18.0.0, SVG Export Plug-In . SVG Version: 6.00 Build 0)  -->
<!DOCTYPE svg  PUBLIC '-//W3C//DTD SVG 1.1//EN'  'http://www.w3.org/Graphics/SVG/1.1/DTD/svg11.dtd'>
<svg style="enable-background:new 0 0 144 80" xmlns="http://www.w3.org/2000/svg" xml:space="preserve" version="1.1" y="0px" x="0px" xmlns:xlink="http://www.w3.org/1999/xlink" viewBox="0 0 144 80">
<g id="LBR">
		<polygon points="144 80 144 0 0 0 0 80" fill="#BF0A30"/>
		<polygon points="144 14.546 0 14.546 0 7.273 144 7.273" fill="#fff"/>
		<polygon points="144 29.091 0 29.091 0 21.817 144 21.817" fill="#fff"/>
		<polygon points="144 43.637 0 43.637 0 36.371 144 36.371" fill="#fff"/>
		<polygon points="144 58.182 0 58.182 0 50.909 144 50.909" fill="#fff"/>
		<polygon points="144 72.729 0 72.729 0 65.454 144 65.454" fill="#fff"/>
		<polygon points="36.38 36.371 36.38 0 0 0 0 36.371" fill="#002868"/>
		<polygon points="18.189 4.162 14.759 14.825 3.474 14.825 12.638 21.46 9.117 32.112 18.189 25.493 27.263 32.112 23.788 21.369 32.905 14.869 21.665 14.869" fill="#fff"/>
</g>
</svg>
