<?xml version="1.0" encoding="UTF-8" standalone="no"?>
<!-- Generator: Adobe Illustrator 18.0.0, SVG Export Plug-In . SVG Version: 6.00 Build 0)  -->
<!DOCTYPE svg  PUBLIC '-//W3C//DTD SVG 1.1//EN'  'http://www.w3.org/Graphics/SVG/1.1/DTD/svg11.dtd'>
<svg style="enable-background:new 0 0 144 80" xmlns="http://www.w3.org/2000/svg" xml:space="preserve" version="1.1" y="0px" x="0px" xmlns:xlink="http://www.w3.org/1999/xlink" viewBox="0 0 144 80">
<g id="CYP">
		<polygon points="144 80 144 0 0 0 0 80" fill="#fff"/>
			<path d="m75.073 39.311" fill="#fff"/>
			<path stroke-width=".1611" d="m75.073 39.311" stroke="#000" fill="none"/>
			<path d="m67.761 21.74c-0.565 0.99 0.362 1.385-0.436 2.541-1.164 1.684 0.185 3.101-2.007 4.256-1.577 0.832-1.776 0.387-2.214 0.012s-1.54-0.959-4.062 0.135c-1.075 0.467-1.186 0.467-1.514 0.131s-0.585-0.106-1.406 0.316c-1.41 0.719-0.575 1.799-2.277 2.26-1.703 0.459-2.181 0.233-3.501-0.449-1.32-0.68-1.58-0.533-1.844-0.096-0.264 0.441-0.306 0.883 0.426 1.445 0.731 0.562 1.096 0.898 0.791 1.707-0.305 0.807-0.389 1.127 0.167 1.479 1.136 0.713 0.051 1.463 1.105 3.223 0.579 0.967 0.683 1.559 0.746 2.445 0.062 0.885 0.235 1.43 1.051 1.598 1.325 0.275 0.12 0.887 2.27 1.541 0.882 0.268 1.543 0.572 2.166 0.949 0.622 0.375 2.392 0.58 3.648 0.375 1.257-0.207 3.327-0.703 3.868 0.525 0.898 2.041 1.45 2.195 1.921 2.9 0.472 0.707 1.338 0.109 1.862-1.453 0.383-1.139 0.809-2.779 2.875-2.77 5.092 0.023 6.447 0.227 8.614-1.373 1.229-0.908 2.758-2.254 3.78-1.357 0.2 0.188 0.358-0.523 1.043-0.854 0.186-0.092 0.014-0.428 0.194-0.811 0.605-1.285-0.227-1.631 0.305-2.34 1.369-1.828 2.105-1.746 3.212-1.695 1.106 0.049 1.548 0.203 2.312 0.986 0.767 0.785 1.113 1.008 2.102 0.209 1.081-0.871 3.633-1.041 3.986-0.062 0.106 0.297 0.81 0.158 0.744-0.545-0.065-0.701-0.281-1.184-1.124-1.674s-0.211-0.887-1.125-1.562c-0.914-0.676 0.194-0.848-1.596-2.344-1.79-1.498-0.624-4.15 0.395-5.236 0.205-0.219 0.706-0.508 1.609-0.387 0.902 0.123 1.197 0.125 1.872-0.715 0.674-0.84 1.271-1.914 2.166-2.188 1.277-0.391 1.46-1.09 2.524-1.225 1.719-0.219 2.089-1.793 3.421-2.211 1.926-0.604 1.316-2.051 3.501-2.726 2.186-0.674 2.088-1.818 2.796-2.289-2.073 0.527-2.83 0.832-3.636 1.506-1.043 0.873-1.961 0.455-3.041 1.328s-2.083 1.377-3.224 1.068-1.493-0.529-1.851 0.457c-0.954 2.646-2.656 1.574-3.46 2.357-1.269 1.24-2.33 0.377-3.259 1.031-1.34 0.943-3.958-0.277-5.139 0.789-1.978 1.785-2.469-0.289-4.624 0.94-1.749 0.998-3.329 0.662-4.505 0.205-1.175-0.457-5.099-0.324-6.521-0.854-2.976-1.101-4.387-0.381-5.111-1.498z" fill="#ED8000"/>
			<path d="m74.239 64.756c-9.03-4.219-17.547-5.494-21.916-11.176 4.133 6.092 13.408 7.613 22.069 12.002 0.197 0.084 0.135-0.66-0.153-0.826z" fill="#006651"/>
			<path d="m55.199 56.547c-3.064-2.291-3.959-0.732-5.339-0.606 2.529 1.731 3.064 1.588 5.339 0.606z" fill="#006651"/>
			<path d="m55.098 56.389c-2.677-2.732-1.252-3.828-1.309-5.211 2.051 2.275 1.98 2.824 1.309 5.211z" fill="#006651"/>
			<path d="m52.738 54.092c-0.686-3.764-2.401-3.23-3.499-4.076 0.674 2.986 1.164 3.246 3.499 4.076z" fill="#006651"/>
			<path d="m57.773 58.092c-2.678-2.732-1.252-3.826-1.31-5.211 2.053 2.275 1.98 2.826 1.31 5.211z" fill="#006651"/>
			<path d="m57.832 58.182c-2.869 2.531-3.887 1.051-5.272 1.035 2.378-1.93 2.923-1.83 5.272-1.035z" fill="#006651"/>
			<path d="m60.851 59.619c-3.004-2.367-1.731-3.635-1.964-5 2.325 1.994 2.324 2.547 1.964 5z" fill="#006651"/>
			<path d="m61.227 59.846c-2.594 2.812-3.758 1.445-5.138 1.572 2.168-2.164 2.721-2.121 5.138-1.572z" fill="#006651"/>
			<path d="m64.357 61.066c-3.197-2.101-2.038-3.475-2.388-4.814 2.489 1.787 2.536 2.34 2.388 4.814z" fill="#006651"/>
			<path d="m64.604 61.326c-2.593 2.813-3.759 1.445-5.138 1.572 2.168-2.164 2.721-2.119 5.138-1.572z" fill="#006651"/>
			<path d="m67.68 62.215c-3.197-2.102-2.037-3.473-2.388-4.815 2.488 1.789 2.535 2.34 2.388 4.815z" fill="#006651"/>
			<path d="m67.983 62.564c-2.313 3.045-3.604 1.795-4.965 2.053 1.954-2.359 2.507-2.369 4.965-2.053z" fill="#006651"/>
			<path d="m69.047 64.756c9.031-4.219 17.548-5.494 21.916-11.176-4.133 6.092-13.407 7.613-22.069 12.002-0.197 0.084-0.134-0.66 0.153-0.826z" fill="#006651"/>
			<path d="m88.087 56.547c3.064-2.291 3.959-0.732 5.339-0.606-2.529 1.731-3.064 1.588-5.339 0.606z" fill="#006651"/>
			<path d="m88.188 56.389c2.677-2.732 1.252-3.828 1.309-5.211-2.051 2.275-1.978 2.824-1.309 5.211z" fill="#006651"/>
			<path d="m90.548 54.092c0.687-3.764 2.402-3.23 3.5-4.076-0.674 2.986-1.164 3.246-3.5 4.076z" fill="#006651"/>
			<path d="m85.514 58.092c2.677-2.732 1.252-3.826 1.309-5.211-2.052 2.275-1.98 2.826-1.309 5.211z" fill="#006651"/>
			<path d="m85.455 58.182c2.868 2.531 3.886 1.051 5.271 1.035-2.378-1.93-2.923-1.83-5.271-1.035z" fill="#006651"/>
			<path d="m82.436 59.619c3.005-2.367 1.731-3.635 1.965-5-2.326 1.994-2.326 2.547-1.965 5z" fill="#006651"/>
			<path d="m82.061 59.846c2.593 2.812 3.758 1.445 5.138 1.572-2.17-2.164-2.722-2.121-5.138-1.572z" fill="#006651"/>
			<path d="m78.93 61.066c3.196-2.101 2.037-3.475 2.387-4.814-2.488 1.787-2.536 2.34-2.387 4.814z" fill="#006651"/>
			<path d="m78.684 61.326c2.593 2.813 3.758 1.445 5.138 1.572-2.17-2.164-2.722-2.119-5.138-1.572z" fill="#006651"/>
			<path d="m75.607 62.215c3.197-2.102 2.037-3.473 2.387-4.815-2.487 1.789-2.534 2.34-2.387 4.815z" fill="#006651"/>
			<path d="m75.303 62.564c2.315 3.045 3.604 1.795 4.965 2.053-1.954-2.359-2.507-2.369-4.965-2.053z" fill="#006651"/>
</g>
</svg>
