<?xml version="1.0" encoding="UTF-8" standalone="no"?>
<!-- Generator: Adobe Illustrator 18.0.0, SVG Export Plug-In . SVG Version: 6.00 Build 0)  -->
<!DOCTYPE svg  PUBLIC '-//W3C//DTD SVG 1.1//EN'  'http://www.w3.org/Graphics/SVG/1.1/DTD/svg11.dtd'>
<svg style="enable-background:new 0 0 144 80" xmlns="http://www.w3.org/2000/svg" xml:space="preserve" version="1.1" y="0px" x="0px" xmlns:xlink="http://www.w3.org/1999/xlink" viewBox="0 0 144 80">
<g id="MDA">
		<polygon points="96.001 0 96.001 80 144 80 144 0" fill="#CC092F"/>
		<polygon points="0 80 0 0 47.999 0 47.999 80" fill="#0046AE"/>
		<polygon points="47.999 0 47.999 80 96.001 80 96.001 0" fill="#FFD200"/>
			<path d="m67.379 20.115c0.355 0 0.75 0 0.919-0.244 0.268 0.352 0.339 0.762 0 1.197-0.169-0.242-0.566-0.246-0.922-0.246l-0.001 2.004c0 0.283-0.01 0.584 0.198 0.822l-0.549 0.756-0.55-0.756c0.208-0.238 0.194-0.539 0.194-0.822v-2.004c-0.354 0-0.749 0.004-0.919 0.246-0.268-0.352-0.338-0.76 0-1.197 0.17 0.244 0.564 0.244 0.919 0.244 0-0.355 0-0.75-0.243-0.92 0.437-0.338 0.845-0.266 1.196 0-0.241 0.17-0.242 0.565-0.242 0.92z" fill="#FFE152"/>
			<path stroke-width=".0671" d="m67.379 20.115c0.355 0 0.75 0 0.919-0.244 0.268 0.352 0.339 0.762 0 1.197-0.169-0.242-0.566-0.246-0.922-0.246l-0.001 2.004c0 0.283-0.01 0.584 0.198 0.822l-0.549 0.756-0.55-0.756c0.208-0.238 0.194-0.539 0.194-0.822v-2.004c-0.354 0-0.749 0.004-0.919 0.246-0.268-0.352-0.338-0.76 0-1.197 0.17 0.244 0.564 0.244 0.919 0.244 0-0.355 0-0.75-0.243-0.92 0.437-0.338 0.845-0.266 1.196 0-0.241 0.17-0.242 0.565-0.242 0.92z" stroke="#000" fill="none"/>
			<path d="m71.814 61.031c0.828-0.602 2.153-1.377 2.94-1.832-0.745-1.367-1.987-4.008-2.029-5.996 0.58 1.531 1.89 3.723 3.05 5.42 0.538-0.33 1.91-1.02 2.791-1.486-1.567-1.646-4.069-4.773-4.861-7.191-0.71 0.354-1.497 0.762-1.891 1.27-0.394-0.508-1.181-0.916-1.891-1.27-0.792 2.418-3.294 5.545-4.86 7.191 0.88 0.467 2.252 1.156 2.79 1.486 1.159-1.697 2.47-3.889 3.05-5.42-0.041 1.988-1.284 4.629-2.029 5.996 0.787 0.455 2.111 1.231 2.94 1.832z" fill="#B07E5B"/>
			<path stroke-width=".0671" d="m71.814 61.031c0.828-0.602 2.153-1.377 2.94-1.832-0.745-1.367-1.987-4.008-2.029-5.996 0.58 1.531 1.89 3.723 3.05 5.42 0.538-0.33 1.91-1.02 2.791-1.486-1.567-1.646-4.069-4.773-4.861-7.191-0.71 0.354-1.497 0.762-1.891 1.27-0.394-0.508-1.181-0.916-1.891-1.27-0.792 2.418-3.294 5.545-4.86 7.191 0.88 0.467 2.252 1.156 2.79 1.486 1.159-1.697 2.47-3.889 3.05-5.42-0.041 1.988-1.284 4.629-2.029 5.996 0.787 0.455 2.111 1.231 2.94 1.832z" stroke="#000" fill="none"/>
			<path d="m62.535 31.498v13.463c0 2.898-0.353 3.779-1.637 5.021-0.117 2.162-0.726 3.035-2.233 3.623-0.324 1.182-0.988 2.059-2.343 2.621v-27.09c0-2.402 0.488-3.008 1.13-3.771 1.031-1.225 1.199-1.076 1.715-1.037 1.078 0.08 2.471 0.959 2.874 1.268 0.823 0.631 0.894 0.688 0.492 1.652-0.357 0.857-0.465 1.303-0.26 1.965 1.943-0.338 2.168 1.275 3.775 1.662 2.337 0.562 3.624-0.688 3.889-2.789h3.754c0.264 2.101 1.55 3.351 3.888 2.789 1.607-0.387 1.831-2 3.775-1.662 0.205-0.662 0.098-1.107-0.26-1.965-0.402-0.965-0.332-1.021 0.492-1.652 0.403-0.309 1.796-1.188 2.874-1.268 0.516-0.039 0.683-0.188 1.715 1.037 0.641 0.764 1.13 1.369 1.13 3.771v27.09c-1.354-0.562-2.019-1.439-2.343-2.621-1.508-0.588-2.116-1.461-2.233-3.623-1.284-1.242-1.637-2.123-1.637-5.021v-13.463h-18.557z" fill="#B07E5B"/>
			<path stroke-width=".0671" d="m62.535 31.498v13.463c0 2.898-0.353 3.779-1.637 5.021-0.117 2.162-0.726 3.035-2.233 3.623-0.324 1.182-0.988 2.059-2.343 2.621v-27.09c0-2.402 0.488-3.008 1.13-3.771 1.031-1.225 1.199-1.076 1.715-1.037 1.078 0.08 2.471 0.959 2.874 1.268 0.823 0.631 0.894 0.688 0.492 1.652-0.357 0.857-0.465 1.303-0.26 1.965 1.943-0.338 2.168 1.275 3.775 1.662 2.337 0.562 3.624-0.688 3.889-2.789h3.754c0.264 2.101 1.55 3.351 3.888 2.789 1.607-0.387 1.831-2 3.775-1.662 0.205-0.662 0.098-1.107-0.26-1.965-0.402-0.965-0.332-1.021 0.492-1.652 0.403-0.309 1.796-1.188 2.874-1.268 0.516-0.039 0.683-0.188 1.715 1.037 0.641 0.764 1.13 1.369 1.13 3.771v27.09c-1.354-0.562-2.019-1.439-2.343-2.621-1.508-0.588-2.116-1.461-2.233-3.623-1.284-1.242-1.637-2.123-1.637-5.021v-13.463h-18.557z" stroke="#000" fill="none"/>
			<path d="m74.963 30.637c-0.414-0.105-0.946-0.182-1.341-0.43 0.094 0.203 0.207 0.389 0.347 0.553-0.635 0.014-1.041-0.234-1.306-0.631-0.218 0.227-0.59 0.744-0.849 1.148-0.342-0.383-0.714-0.809-0.901-1.088-0.155 0.564-0.962 0.611-1.418 0.611 0.042-0.068 0.084-0.137 0.122-0.207-0.3 0.309-1.044 0.445-1.448 0.455 0.766-1.014 1.472-3.217 1.553-5.309 0.058-1.432-0.289-1.947-0.683-2.34-0.207-0.209-0.372-1.504-0.311-1.574 1.229-1.402 3.086-0.973 3.562-0.807 0.477 0.164 1.139 0.682 2.028 0.414-0.04 0.205-0.227 0.434-0.434 0.537 0.477 0.27 0.373 0.602 0.787 0.85-0.084 0.123-0.354 0.166-0.518 0.145 0.352 0.207 0.207 0.746 0.662 0.994-0.166 0.062-0.311 0.145-0.559 0.021 0.379 0.428 0.196 1.822 0.365 2.217-0.112-0.014-0.366-0.197-0.366-0.52 0.017 1.34-0.081 3.58 0.708 4.961z" fill="#B07E5B"/>
			<path stroke-width=".0671" d="m74.963 30.637c-0.414-0.105-0.946-0.182-1.341-0.43 0.094 0.203 0.207 0.389 0.347 0.553-0.635 0.014-1.041-0.234-1.306-0.631-0.218 0.227-0.59 0.744-0.849 1.148-0.342-0.383-0.714-0.809-0.901-1.088-0.155 0.564-0.962 0.611-1.418 0.611 0.042-0.068 0.084-0.137 0.122-0.207-0.3 0.309-1.044 0.445-1.448 0.455 0.766-1.014 1.472-3.217 1.553-5.309 0.058-1.432-0.289-1.947-0.683-2.34-0.207-0.209-0.372-1.504-0.311-1.574 1.229-1.402 3.086-0.973 3.562-0.807 0.477 0.164 1.139 0.682 2.028 0.414-0.04 0.205-0.227 0.434-0.434 0.537 0.477 0.27 0.373 0.602 0.787 0.85-0.084 0.123-0.354 0.166-0.518 0.145 0.352 0.207 0.207 0.746 0.662 0.994-0.166 0.062-0.311 0.145-0.559 0.021 0.379 0.428 0.196 1.822 0.365 2.217-0.112-0.014-0.366-0.197-0.366-0.52 0.017 1.34-0.081 3.58 0.708 4.961z" stroke="#000" fill="none"/>
			<path d="m69.661 21.805c0.259 0.043 0.352 0.199 0.776 0.209 0.569 0.01 0.756-0.197 1.035-0.197 0.222 0 0.545 0.043 0.757 0.211" stroke="#000" stroke-linecap="round" stroke-width=".0671" fill="none"/>
			<path stroke-width=".0671" d="m70.417 26.299c-0.019 1.213-0.13 3.111-0.768 4.295m1.701-4.233c-0.104 1.16-0.167 2.967-0.403 3.828m1.21-3.744c0.056 1.098-0.004 2.871 0.537 3.684m0.478-3.332c0.066 1.055 0.093 2.553 0.482 3.41m-12.756 19.775c0.015-0.273 0.021-0.564 0.021-0.881v-17.045m-2.254 21.549c0.319-1.166 0.308-2.629 0.308-4.379v-17.459m3.595-5.72c-1.788 1.137-2.705 3.275-1.545 6.32 0.15-0.588 0.803-1.779 1.44-2.58m0.948 1.664c0.042-0.705 1.143-1.086 1.246-1.356m-0.106 0.132c0.171 0.385 0.502 0.851 0.884 1.209 0.068-0.231 0.216-0.441 0.354-0.631m-4.993-5.971c-0.746 0.91-0.621 2.832 0 3.33m-0.311-2.797c-1.326 1.346-2.077 2.777 0.015 4.289m-1.907-5.314c-0.373 0.641-0.097 2.455 0.629 2.91m-2.32-1.139c-0.125 0.85 0.103 1.49 0.601 2.07 0.248-0.496 0.683-1.16 1.263-1.449m0.469 1.319c-1.222 1.471-1.174 2.432-0.014 4.109 0.207-1.057 0.544-2.143 1.195-2.566m-2.679-1.826c-0.166 0.725 0.138 1.451 0.614 1.803m-0.973-1.512c-0.911 1.057-1.656 2.051-0.207 4.225 0.635-0.818 0.51-1.846 1.14-2.299m3.962-0.774c0.155 0.471 0.479 1.627 1.196 2.285m19.26 18.484c-0.015-0.273-0.021-0.564-0.021-0.881v-17.045m2.255 21.549c-0.319-1.166-0.309-2.629-0.309-4.379v-17.459m-3.594-5.72c1.788 1.137 2.705 3.275 1.545 6.32-0.15-0.588-0.803-1.779-1.44-2.58m-0.948 1.664c-0.042-0.705-1.143-1.086-1.247-1.356m0.107 0.132c-0.172 0.385-0.502 0.851-0.884 1.209-0.067-0.231-0.216-0.441-0.354-0.631m4.993-5.971c0.745 0.91 0.622 2.832 0 3.33m0.311-2.797c1.326 1.346 2.077 2.777-0.015 4.289m1.907-5.314c0.373 0.641 0.097 2.455-0.63 2.91m2.322-1.139c0.124 0.85-0.104 1.49-0.602 2.07-0.248-0.496-0.684-1.16-1.263-1.449m-0.47 1.319c1.223 1.471 1.175 2.432 0.014 4.109-0.206-1.057-0.543-2.143-1.194-2.566m2.679-1.826c0.165 0.725-0.138 1.451-0.614 1.803m0.972-1.512c0.912 1.057 1.656 2.051 0.208 4.225-0.638-0.818-0.51-1.846-1.14-2.299m-3.963-0.774c-0.154 0.471-0.479 1.627-1.197 2.285" stroke="#000" fill="none"/>
			<path d="m62.536 40.154v-8.656h18.557v8.656h-18.557z" fill="#CC092F"/>
			<path stroke-width=".0671" d="m62.536 40.154v-8.656h18.557v8.656h-18.557z" stroke="#000" fill="none"/>
			<path d="m81.093 40.154v3.812c0 2.236-0.456 3.52-2.485 4.184-2.029 0.662-5.882 1.863-6.793 3.065-0.911-1.201-4.764-2.402-6.793-3.065-2.029-0.664-2.485-1.947-2.485-4.184v-3.812h18.556z" fill="#0046AE"/>
			<path stroke-width=".0671" d="m81.093 40.154v3.812c0 2.236-0.456 3.52-2.485 4.184-2.029 0.662-5.882 1.863-6.793 3.065-0.911-1.201-4.764-2.402-6.793-3.065-2.029-0.664-2.485-1.947-2.485-4.184v-3.812h18.556z" stroke="#000" fill="none"/>
			<path d="m71.813 49.66c0.478 0 1.077-0.145 1.201-0.414 0.123-0.268 0.249-0.496 0.87-0.516 0.419-0.016 0.725-0.266 0.725-0.705 0-0.498-0.021-0.705-0.622-1.201-0.6-0.496-0.559-0.869-0.559-1.326v-2.277c0-2.117 1.848-2.203 3.087-2.203-0.268-0.338-0.535-0.762-0.78-1.164 3.104-1.244 4.32-5.953-0.235-7.527 1.875 2.043 1.191 4.969-0.121 5.055-0.455 0.031-0.441 0.185-0.532 0.371-0.118 0.242-0.428 0.373-0.691 0.373-0.691 0-0.56-0.477-1.108-0.477-0.549 0-0.694 0.477-1.233 0.477s-0.684-0.477-1.232-0.477c-0.549 0-0.417 0.477-1.109 0.477-0.263 0-0.572-0.131-0.691-0.373-0.091-0.186-0.077-0.34-0.532-0.371-1.312-0.086-1.996-3.012-0.121-5.055-4.557 1.574-3.34 6.283-0.236 7.527-0.244 0.402-0.512 0.826-0.779 1.164 1.24 0 3.087 0.086 3.087 2.203v2.277c0 0.457 0.041 0.83-0.56 1.326s-0.622 0.703-0.622 1.201c0 0.44 0.307 0.69 0.726 0.705 0.622 0.02 0.744 0.248 0.87 0.516 0.121 0.27 0.721 0.414 1.197 0.414z" fill="#FFE152"/>
			<path stroke-width=".0671" d="m71.813 49.66c0.478 0 1.077-0.145 1.201-0.414 0.123-0.268 0.249-0.496 0.87-0.516 0.419-0.016 0.725-0.266 0.725-0.705 0-0.498-0.021-0.705-0.622-1.201-0.6-0.496-0.559-0.869-0.559-1.326v-2.277c0-2.117 1.848-2.203 3.087-2.203-0.268-0.338-0.535-0.762-0.78-1.164 3.104-1.244 4.32-5.953-0.235-7.527 1.875 2.043 1.191 4.969-0.121 5.055-0.455 0.031-0.441 0.185-0.532 0.371-0.118 0.242-0.428 0.373-0.691 0.373-0.691 0-0.56-0.477-1.108-0.477-0.549 0-0.694 0.477-1.233 0.477s-0.684-0.477-1.232-0.477c-0.549 0-0.417 0.477-1.109 0.477-0.263 0-0.572-0.131-0.691-0.373-0.091-0.186-0.077-0.34-0.532-0.371-1.312-0.086-1.996-3.012-0.121-5.055-4.557 1.574-3.34 6.283-0.236 7.527-0.244 0.402-0.512 0.826-0.779 1.164 1.24 0 3.087 0.086 3.087 2.203v2.277c0 0.457 0.041 0.83-0.56 1.326s-0.622 0.703-0.622 1.201c0 0.44 0.307 0.69 0.726 0.705 0.622 0.02 0.744 0.248 0.87 0.516 0.121 0.27 0.721 0.414 1.197 0.414z" stroke="#000" fill="none"/>
			<path d="m64.713 45.801c-0.498 0.033-0.929-0.342-0.963-0.84-0.034-0.496 0.342-0.928 0.839-0.963-0.186-0.463 0.038-0.988 0.502-1.174 0.462-0.188 0.988 0.037 1.174 0.5 0.383-0.32 0.953-0.27 1.272 0.113 0.32 0.383 0.269 0.951-0.113 1.273 0.423 0.264 0.551 0.822 0.285 1.244-0.264 0.422-0.823 0.551-1.244 0.285-0.121 0.484-0.612 0.777-1.096 0.656-0.484-0.12-0.778-0.61-0.656-1.094z" fill="#FFE152"/>
			<path stroke-width=".0671" d="m64.713 45.801c-0.498 0.033-0.929-0.342-0.963-0.84-0.034-0.496 0.342-0.928 0.839-0.963-0.186-0.463 0.038-0.988 0.502-1.174 0.462-0.188 0.988 0.037 1.174 0.5 0.383-0.32 0.953-0.27 1.272 0.113 0.32 0.383 0.269 0.951-0.113 1.273 0.423 0.264 0.551 0.822 0.285 1.244-0.264 0.422-0.823 0.551-1.244 0.285-0.121 0.484-0.612 0.777-1.096 0.656-0.484-0.12-0.778-0.61-0.656-1.094z" stroke="#000" fill="none"/>
			<path d="m79.267 43.301c-0.97-0.939-2.502-0.846-3.311 0.307-0.593 0.85-0.579 2.461 0.891 3.164-0.684-1.418 0.249-3.542 2.42-3.471z" fill="#FFE152"/>
			<path stroke-width=".0671" d="m79.267 43.301c-0.97-0.939-2.502-0.846-3.311 0.307-0.593 0.85-0.579 2.461 0.891 3.164-0.684-1.418 0.249-3.542 2.42-3.471z" stroke="#000" fill="none"/>
			<polygon points="71.814 32.607 72.269 33.322 73.118 33.145 72.935 33.979 73.655 34.449 72.94 34.902 73.118 35.752 72.283 35.568 71.814 36.289 71.346 35.568 70.511 35.752 70.688 34.902 69.973 34.449 70.693 33.979 70.511 33.145 71.36 33.322" fill="#FFE152"/>
			<polygon stroke-width=".0671" points="71.814 32.607 72.269 33.322 73.118 33.145 72.935 33.979 73.655 34.449 72.94 34.902 73.118 35.752 72.283 35.568 71.814 36.289 71.346 35.568 70.511 35.752 70.688 34.902 69.973 34.449 70.693 33.979 70.511 33.145 71.36 33.322" stroke="#000" fill="none"/>
			<path d="m69.475 43.002v2.566c0 0.252-0.095 0.605-0.362 0.662l-0.581-3.174 0.943-0.054z" fill="#FFE152"/>
			<path stroke-width=".0671" d="m69.475 43.002v2.566c0 0.252-0.095 0.605-0.362 0.662l-0.581-3.174 0.943-0.054z" stroke="#000" fill="none"/>
			<polygon points="68.934 42.686 69.386 42.232 68.934 41.779 68.481 42.232" fill="#FFE152"/>
			<polygon stroke-width=".0671" points="68.934 42.686 69.386 42.232 68.934 41.779 68.481 42.232" stroke="#000" fill="none"/>
			<path d="m74.154 43.002v2.566c0 0.252 0.094 0.605 0.361 0.662l0.581-3.174-0.942-0.054z" fill="#FFE152"/>
			<path stroke-width=".0671" d="m74.154 43.002v2.566c0 0.252 0.094 0.605 0.361 0.662l0.581-3.174-0.942-0.054z" stroke="#000" fill="none"/>
			<polygon points="74.694 42.686 74.241 42.232 74.694 41.779 75.147 42.232" fill="#FFE152"/>
			<polygon stroke-width=".0671" points="74.694 42.686 74.241 42.232 74.694 41.779 75.147 42.232" stroke="#000" fill="none"/>
			<path d="m67.127 40.154c-0.972 0.406-1.94 1.143-1.94 1.143s-0.97-0.736-1.94-1.143c0.971-0.404 1.94-1.141 1.94-1.141s0.968 0.737 1.94 1.141z" fill="#FFE152"/>
			<path stroke-width=".0671" d="m67.127 40.154c-0.972 0.406-1.94 1.143-1.94 1.143s-0.97-0.736-1.94-1.143c0.971-0.404 1.94-1.141 1.94-1.141s0.968 0.737 1.94 1.141z" stroke="#000" fill="none"/>
			<path d="m76.501 40.154c0.971 0.406 1.94 1.143 1.94 1.143s0.969-0.736 1.939-1.143c-0.971-0.404-1.939-1.141-1.939-1.141s-0.969 0.737-1.94 1.141z" fill="#FFE152"/>
			<path stroke-width=".0671" d="m76.501 40.154c0.971 0.406 1.94 1.143 1.94 1.143s0.969-0.736 1.939-1.143c-0.971-0.404-1.939-1.141-1.939-1.141s-0.969 0.737-1.94 1.141z" stroke="#000" fill="none"/>
			<path d="m69.039 23.4c0-0.518 0.456-0.725 1.43-0.207 0.085-0.363-1.112-0.547-1.401-1.195-0.29-0.656-2.154-0.858-2.536 0.453 0.634-0.473 2.078-0.354 2.247 0.168-0.247-0.182-1.134 0.021-1.401-0.068v0.275c0.129 0.084 1.182-0.072 1.661 0.574z" fill="#EC1C2E"/>
			<path stroke-width=".0671" d="m69.039 23.4c0-0.518 0.456-0.725 1.43-0.207 0.085-0.363-1.112-0.547-1.401-1.195-0.29-0.656-2.154-0.858-2.536 0.453 0.634-0.473 2.078-0.354 2.247 0.168-0.247-0.182-1.134 0.021-1.401-0.068v0.275c0.129 0.084 1.182-0.072 1.661 0.574z" stroke="#000" fill="none"/>
			<path d="m71.386 22.307c-0.196-0.293-0.549-0.309-0.845-0.293-0.374 0.019-0.374 0.195-0.571 0.234 0.147 0.09 0.264 0.375 0.63 0.385 0.38 0.01 0.427-0.332 0.786-0.326z"/>
			<path d="m70.742 22.49c-0.046 0.055-0.114 0.088-0.191 0.088-0.138 0-0.251-0.111-0.251-0.25s0.113-0.252 0.251-0.252c0.083 0 0.157 0.041 0.201 0.104-0.094 0.002-0.141 0.154-0.222 0.154 0.096 0 0.081 0.156 0.212 0.156z" fill="#fff"/>
			<path d="m62.071 53.748c0.398 0.807 1.137 1.812 1.756 2.182 0.529 0.315-0.455 0.727-0.596 0.6-0.362-0.324-1.074-1.266-1.465-2.148-1.009-2.279-2.39-4.67-3.433-5.771-1.043-1.102-3.879-5.539-4.862-6.523-0.276-0.275-0.387-0.904 0.593 0.332 0.979 1.236 4.195 5.406 5.027 6.496 0.833 1.09 2.382 3.623 2.98 4.832z" fill="#009370"/>
			<path stroke-width=".0671" d="m62.071 53.748c0.398 0.807 1.137 1.812 1.756 2.182 0.529 0.315-0.455 0.727-0.596 0.6-0.362-0.324-1.074-1.266-1.465-2.148-1.009-2.279-2.39-4.67-3.433-5.771-1.043-1.102-3.879-5.539-4.862-6.523-0.276-0.275-0.387-0.904 0.593 0.332 0.979 1.236 4.195 5.406 5.027 6.496 0.833 1.09 2.382 3.623 2.98 4.832z" stroke="#000" fill="none"/>
			<path d="m51.687 40.51c0.163 0.457 0.719 1.588 1.924 1.734-0.21-1.047-1.451-1.795-1.924-1.734z" fill="#009370"/>
			<path stroke-width=".0671" d="m51.687 40.51c0.163 0.457 0.719 1.588 1.924 1.734-0.21-1.047-1.451-1.795-1.924-1.734z" stroke="#000" fill="none"/>
			<path d="m52.405 39.984c-0.035 0.611 0.516 1.785 1.338 2.103 0.098-0.683-0.621-2.001-1.338-2.103z" fill="#009370"/>
			<path stroke-width=".0671" d="m52.405 39.984c-0.035 0.611 0.516 1.785 1.338 2.103 0.098-0.683-0.621-2.001-1.338-2.103z" stroke="#000" fill="none"/>
			<path d="m53.875 42.131c-0.018 0.861 0.562 1.947 1.392 2.18 0.007-0.795-0.653-1.997-1.392-2.18z" fill="#009370"/>
			<path stroke-width=".0671" d="m53.875 42.131c-0.018 0.861 0.562 1.947 1.392 2.18 0.007-0.795-0.653-1.997-1.392-2.18z" stroke="#000" fill="none"/>
			<path d="m56.131 44.842c-0.099-0.947-0.71-2.312-1.542-2.564 0.057 0.952 0.332 2.451 1.542 2.564z" fill="#009370"/>
			<path stroke-width=".0671" d="m56.131 44.842c-0.099-0.947-0.71-2.312-1.542-2.564 0.057 0.952 0.332 2.451 1.542 2.564z" stroke="#000" fill="none"/>
			<path d="m53.592 43.324c0.841-0.123 1.697 0.711 2.063 1.348-1.406-0.166-1.763-0.742-2.063-1.348z" fill="#009370"/>
			<path stroke-width=".0671" d="m53.592 43.324c0.841-0.123 1.697 0.711 2.063 1.348-1.406-0.166-1.763-0.742-2.063-1.348z" stroke="#000" fill="none"/>
			<path d="m56.1 44.982c-0.903-1.289 0.043-2.246-0.072-2.605 0.553 0.629 0.765 1.918 0.072 2.605z" fill="#009370"/>
			<path stroke-width=".0671" d="m56.1 44.982c-0.903-1.289 0.043-2.246-0.072-2.605 0.553 0.629 0.765 1.918 0.072 2.605z" stroke="#000" fill="none"/>
			<path d="m56.1 44.982c-0.803-1.178-1.921-0.949-2.602-0.744 0.698 0.756 1.792 1.074 2.602 0.744z" fill="#009370"/>
			<path stroke-width=".0671" d="m56.1 44.982c-0.803-1.178-1.921-0.949-2.602-0.744 0.698 0.756 1.792 1.074 2.602 0.744z" stroke="#000" fill="none"/>
			<path d="m55.943 45.342c1.47 0.451 2.551 2.092 2.728 3.279-1.405-0.439-2.675-2.219-2.728-3.279z" fill="#009370"/>
			<path stroke-width=".0671" d="m55.943 45.342c1.47 0.451 2.551 2.092 2.728 3.279-1.405-0.439-2.675-2.219-2.728-3.279z" stroke="#000" fill="none"/>
			<path d="m58.836 48.891c-0.506-1.014-1.562-1.926-3.189-1.746 0.71 1.128 2.195 1.955 3.189 1.746z" fill="#009370"/>
			<path stroke-width=".0671" d="m58.836 48.891c-0.506-1.014-1.562-1.926-3.189-1.746 0.71 1.128 2.195 1.955 3.189 1.746z" stroke="#000" fill="none"/>
			<path d="m57.921 45.551c1.146 0.939 1.131 2.533 0.915 3.34-1.689-1.362-0.696-2.577-0.915-3.34z" fill="#009370"/>
			<path stroke-width=".0671" d="m57.921 45.551c1.146 0.939 1.131 2.533 0.915 3.34-1.689-1.362-0.696-2.577-0.915-3.34z" stroke="#000" fill="none"/>
			<path d="m59.002 49.158c0.115 1.197 0.846 2.449 1.87 2.445 0.009-1.216-0.762-2.169-1.87-2.445z" fill="#009370"/>
			<path stroke-width=".0671" d="m59.002 49.158c0.115 1.197 0.846 2.449 1.87 2.445 0.009-1.216-0.762-2.169-1.87-2.445z" stroke="#000" fill="none"/>
			<path d="m60.99 51.691c-0.945-0.865-2.341-0.68-2.837-0.355 0.989 0.879 2.334 0.639 2.837 0.355z" fill="#009370"/>
			<path stroke-width=".0671" d="m60.99 51.691c-0.945-0.865-2.341-0.68-2.837-0.355 0.989 0.879 2.334 0.639 2.837 0.355z" stroke="#000" fill="none"/>
			<path d="m60.92 51.783c-0.42-0.857-0.565-1.693-0.063-2.543 0.153 0.604 1.194 1.412 0.055 2.482" fill="#009370"/>
			<path stroke-width=".0671" d="m60.92 51.783c-0.42-0.857-0.565-1.693-0.063-2.543 0.153 0.604 1.194 1.412 0.055 2.482" stroke="#000" fill="none"/>
			<path d="m58.528 48.791c-0.625 0.094-0.494 0.971 0.13 0.879 0.624-0.094 0.493-0.971-0.13-0.879z" fill="#009370"/>
			<path stroke-width=".0671" d="m58.528 48.791c-0.625 0.094-0.494 0.971 0.13 0.879 0.624-0.094 0.493-0.971-0.13-0.879z" stroke="#000" fill="none"/>
			<path d="m59.163 48.277c-0.624 0.094-0.494 0.971 0.131 0.879 0.624-0.094 0.493-0.97-0.131-0.879z" fill="#009370"/>
			<path stroke-width=".0671" d="m59.163 48.277c-0.624 0.094-0.494 0.971 0.131 0.879 0.624-0.094 0.493-0.97-0.131-0.879z" stroke="#000" fill="none"/>
			<path d="m55.432 45.002c-0.624 0.092-0.494 0.969 0.13 0.877 0.624-0.094 0.494-0.971-0.13-0.877z" fill="#009370"/>
			<path stroke-width=".0671" d="m55.432 45.002c-0.624 0.092-0.494 0.969 0.13 0.877 0.624-0.094 0.494-0.971-0.13-0.877z" stroke="#000" fill="none"/>
			<path d="m56.268 44.709c-0.624 0.094-0.494 0.971 0.13 0.877 0.623-0.092 0.494-0.969-0.13-0.877z" fill="#009370"/>
			<path stroke-width=".0671" d="m56.268 44.709c-0.624 0.094-0.494 0.971 0.13 0.877 0.623-0.092 0.494-0.969-0.13-0.877z" stroke="#000" fill="none"/>
			<path d="m53.469 41.855c-0.524 0.078-0.415 0.814 0.108 0.736 0.524-0.077 0.414-0.814-0.108-0.736z" fill="#009370"/>
			<path stroke-width=".0671" d="m53.469 41.855c-0.524 0.078-0.415 0.814 0.108 0.736 0.524-0.077 0.414-0.814-0.108-0.736z" stroke="#000" fill="none"/>
			<path d="m53.872 41.521c-0.469 0.068-0.37 0.727 0.098 0.656 0.468-0.068 0.369-0.726-0.098-0.656z" fill="#009370"/>
			<path stroke-width=".0671" d="m53.872 41.521c-0.469 0.068-0.37 0.727 0.098 0.656 0.468-0.068 0.369-0.726-0.098-0.656z" stroke="#000" fill="none"/>
			<path d="m61.242 51.277c-0.624 0.094-0.494 0.971 0.13 0.879 0.624-0.094 0.494-0.97-0.13-0.879z" fill="#009370"/>
			<path stroke-width=".0671" d="m61.242 51.277c-0.624 0.094-0.494 0.971 0.13 0.879 0.624-0.094 0.494-0.97-0.13-0.879z" stroke="#000" fill="none"/>
			<path d="m60.582 51.627c-0.624 0.094-0.493 0.971 0.131 0.879 0.624-0.094 0.494-0.971-0.131-0.879z" fill="#009370"/>
			<path stroke-width=".0671" d="m60.582 51.627c-0.624 0.094-0.493 0.971 0.131 0.879 0.624-0.094 0.494-0.971-0.131-0.879z" stroke="#000" fill="none"/>
			<path d="m83.165 52.625c0.066 0.434-0.565 0.893-1.019 1.439-0.631 0.764-0.929 1.789-1.454 2.072 0.092 0.184 0.013 0.459-0.172 0.662-0.253 0.273-0.583 0.094-0.891 0.309 0.101-0.361-0.181-0.611-0.008-0.941 0.129-0.242 0.361-0.41 0.567-0.385 0.088-0.59 0.954-1.215 1.46-2.066 0.364-0.611 0.583-1.359 1.014-1.441" fill="#FFE152"/>
			<path stroke-width=".0671" d="m83.165 52.625c0.066 0.434-0.565 0.893-1.019 1.439-0.631 0.764-0.929 1.789-1.454 2.072 0.092 0.184 0.013 0.459-0.172 0.662-0.253 0.273-0.583 0.094-0.891 0.309 0.101-0.361-0.181-0.611-0.008-0.941 0.129-0.242 0.361-0.41 0.567-0.385 0.088-0.59 0.954-1.215 1.46-2.066 0.364-0.611 0.583-1.359 1.014-1.441" stroke="#000" fill="none"/>
			<path d="m82.877 52.5c0.319 0.227 0.761 0.148 0.986-0.17s0.148-0.76-0.171-0.986c-0.32-0.225-0.761-0.148-0.986 0.172-0.225 0.318-0.148 0.759 0.171 0.984z" fill="#FFE152"/>
			<path d="m82.877 52.5c0.319 0.227 0.761 0.148 0.986-0.17s0.148-0.76-0.171-0.986c-0.32-0.225-0.761-0.148-0.986 0.172-0.225 0.318-0.148 0.759 0.171 0.984v0z" stroke="#000" stroke-linecap="round" stroke-width=".0671" fill="none"/>
			<path d="m86.993 47.188l-1.368 1.947c-0.584 0.828-0.504 1.488-0.999 2.191-0.24 0.338-0.709 0.42-1.049 0.182-0.339-0.24-0.42-0.709-0.181-1.049 0.495-0.703 1.143-0.85 1.728-1.678l1.372-1.943" fill="#FFE152"/>
			<path d="m86.993 47.188l-1.368 1.947c-0.584 0.828-0.504 1.488-0.999 2.191-0.24 0.338-0.709 0.42-1.049 0.182-0.339-0.24-0.42-0.709-0.181-1.049 0.495-0.703 1.143-0.85 1.728-1.678l1.372-1.943" stroke="#000" stroke-linecap="round" stroke-width=".0671" fill="none"/>
			<path d="m85.725 47.48c-0.177 0.252 0.739 0.896 0.916 0.646 0.175-0.251-0.74-0.896-0.916-0.646z" fill="#FFE152"/>
			<path d="m85.725 47.48c-0.177 0.252 0.739 0.896 0.916 0.646 0.175-0.251-0.74-0.896-0.916-0.646v0z" stroke="#000" stroke-linecap="round" stroke-width=".0671" fill="none"/>
			<path d="m85.958 47.15c-0.177 0.25 0.739 0.895 0.914 0.645 0.178-0.25-0.737-0.895-0.914-0.645z" fill="#FFE152"/>
			<path d="m85.958 47.15c-0.177 0.25 0.739 0.895 0.914 0.645 0.178-0.25-0.737-0.895-0.914-0.645v0z" stroke="#000" stroke-linecap="round" stroke-width=".0671" fill="none"/>
			<path d="m86.191 46.818c-0.177 0.252 0.739 0.896 0.915 0.646 0.177-0.251-0.738-0.896-0.915-0.646z" fill="#FFE152"/>
			<path d="m86.191 46.818c-0.177 0.252 0.739 0.896 0.915 0.646 0.177-0.251-0.738-0.896-0.915-0.646v0z" stroke="#000" stroke-linecap="round" stroke-width=".0671" fill="none"/>
			<path d="m86.727 47.039c0.34 0.238 0.809 0.158 1.048-0.182 0.495-0.703 0.252-1.133 0.837-1.961 0.247-0.352 0.603-0.652 0.941-0.682-0.046-0.23-0.214-0.529-0.381-0.646s-0.506-0.176-0.737-0.141c0.087 0.328-0.077 0.764-0.325 1.115-0.584 0.83-1.069 0.746-1.564 1.447-0.241 0.341-0.16 0.81 0.181 1.05z" fill="#FFE152"/>
			<path d="m86.727 47.039c0.34 0.238 0.809 0.158 1.048-0.182 0.495-0.703 0.252-1.133 0.837-1.961 0.247-0.352 0.603-0.652 0.941-0.682-0.046-0.23-0.214-0.529-0.381-0.646s-0.506-0.176-0.737-0.141c0.087 0.328-0.077 0.764-0.325 1.115-0.584 0.83-1.069 0.746-1.564 1.447-0.241 0.341-0.16 0.81 0.181 1.05v0z" stroke="#000" stroke-linecap="round" stroke-width=".0671" fill="none"/>
			<path d="m89.091 43.684c0.259 0.182 0.721 0.164 1.014 0.004 0.087-0.893 1.344-1.771 2.111-1.662 0.054-0.566-0.383-1.305-0.82-1.611-0.438-0.309-1.28-0.471-1.794-0.23 0.361 0.686-0.046 2.164-0.855 2.545-0.053 0.329 0.085 0.77 0.344 0.954z" fill="#FFE152"/>
			<path d="m89.091 43.684c0.259 0.182 0.721 0.164 1.014 0.004 0.087-0.893 1.344-1.771 2.111-1.662 0.054-0.566-0.383-1.305-0.82-1.611-0.438-0.309-1.28-0.471-1.794-0.23 0.361 0.686-0.046 2.164-0.855 2.545-0.053 0.329 0.085 0.77 0.344 0.954v0z" stroke="#000" stroke-linecap="round" stroke-width=".0671" fill="none"/>
			<path d="m89.091 43.684c0.145 0.102 0.477-0.01 0.717-0.205 0.244-0.781 1.314-1.791 1.837-1.855 0.153-0.494-0.003-1.037-0.249-1.209-0.246-0.174-0.811-0.141-1.223 0.172 0.114 0.512-0.478 1.861-1.13 2.354-0.105 0.291-0.098 0.639 0.048 0.743z" fill="#FFE152"/>
			<path d="m89.091 43.684c0.145 0.102 0.477-0.01 0.717-0.205 0.244-0.781 1.314-1.791 1.837-1.855 0.153-0.494-0.003-1.037-0.249-1.209-0.246-0.174-0.811-0.141-1.223 0.172 0.114 0.512-0.478 1.861-1.13 2.354-0.105 0.291-0.098 0.639 0.048 0.743v0z" stroke="#000" stroke-linecap="round" stroke-width=".0671" fill="none"/>
			<path d="m91.177 40.182c-0.177 0.25 0.33 0.607 0.507 0.357 0.176-0.25-0.33-0.607-0.507-0.357z" fill="#FFE152"/>
			<path d="m91.177 40.182c-0.177 0.25 0.33 0.607 0.507 0.357 0.176-0.25-0.33-0.607-0.507-0.357v0z" stroke="#000" stroke-linecap="round" stroke-width=".0671" fill="none"/>
			<path d="m91.501 40.264c0.856 0.129 0.438-0.623 0.812-1.152-0.375 0.529-1.222 0.388-0.812 1.152z" fill="#FFE152"/>
			<path d="m91.501 40.264c0.856 0.129 0.438-0.623 0.812-1.152-0.375 0.529-1.222 0.388-0.812 1.152v0z" stroke="#000" stroke-linecap="round" stroke-width=".0671" fill="none"/>
			<path d="m61.148 54.32c-0.351 0.539-0.932 0.072-0.662-0.279 0.143-0.188 0.393-0.652 0.642-0.982 0.249-0.332 0.518-0.539 0.807-0.518 0.291 0.02 0.498 0.041 0.621-0.084 0.707-0.705 1.326-1.967 1.928-2.92 0.497-0.746 1.553 0.207 1.366 0.498-0.559 1.139-2.174 3.664-2.775 4.391-0.291 0.455-1.637-0.457-1.927-0.106z" fill="#EC1C2E"/>
			<path stroke-width=".0671" d="m61.148 54.32c-0.351 0.539-0.932 0.072-0.662-0.279 0.143-0.188 0.393-0.652 0.642-0.982 0.249-0.332 0.518-0.539 0.807-0.518 0.291 0.02 0.498 0.041 0.621-0.084 0.707-0.705 1.326-1.967 1.928-2.92 0.497-0.746 1.553 0.207 1.366 0.498-0.559 1.139-2.174 3.664-2.775 4.391-0.291 0.455-1.637-0.457-1.927-0.106z" stroke="#000" fill="none"/>
			<path d="m61.345 54.041c-0.45 0.559-0.466 0.652-0.237 0.84 0.193 0.158 0.352 0.104 0.756-0.383 0.403-0.488 0.569-0.664 0.342-0.881-0.191-0.181-0.462-0.07-0.861 0.424z" fill="#EC1C2E"/>
			<path stroke-width=".0671" d="m61.345 54.041c-0.45 0.559-0.466 0.652-0.237 0.84 0.193 0.158 0.352 0.104 0.756-0.383 0.403-0.488 0.569-0.664 0.342-0.881-0.191-0.181-0.462-0.07-0.861 0.424z" stroke="#000" fill="none"/>
			<path d="m61.837 54.533c-0.274 0.301-0.595 0.492-0.232 0.812 0.188 0.166 0.372 0.104 0.776-0.383 0.403-0.486 0.644-0.727 0.372-0.963-0.332-0.288-0.668 0.265-0.916 0.534z" fill="#EC1C2E"/>
			<path stroke-width=".0671" d="m61.837 54.533c-0.274 0.301-0.595 0.492-0.232 0.812 0.188 0.166 0.372 0.104 0.776-0.383 0.403-0.486 0.644-0.727 0.372-0.963-0.332-0.288-0.668 0.265-0.916 0.534z" stroke="#000" fill="none"/>
			<path d="m62.433 54.922c-0.438 0.438-0.667 0.506-0.281 0.797 0.126 0.094 0.273 0.025 0.695-0.445 0.466-0.518 0.519-0.828 0.342-0.984-0.259-0.228-0.498 0.372-0.756 0.632z" fill="#EC1C2E"/>
			<path stroke-width=".0671" d="m62.433 54.922c-0.438 0.438-0.667 0.506-0.281 0.797 0.126 0.094 0.273 0.025 0.695-0.445 0.466-0.518 0.519-0.828 0.342-0.984-0.259-0.228-0.498 0.372-0.756 0.632z" stroke="#000" fill="none"/>
			<path d="m82.479 54.32c0.352 0.539 0.932 0.072 0.663-0.279-0.144-0.188-0.394-0.652-0.643-0.982-0.248-0.332-0.518-0.539-0.808-0.518-0.29 0.02-0.497 0.041-0.621-0.084-0.705-0.705-1.325-1.967-1.926-2.92-0.497-0.746-1.554 0.207-1.367 0.498 0.559 1.139 2.175 3.664 2.775 4.391 0.292 0.455 1.637-0.457 1.927-0.106z" fill="#EC1C2E"/>
			<path stroke-width=".0671" d="m82.479 54.32c0.352 0.539 0.932 0.072 0.663-0.279-0.144-0.188-0.394-0.652-0.643-0.982-0.248-0.332-0.518-0.539-0.808-0.518-0.29 0.02-0.497 0.041-0.621-0.084-0.705-0.705-1.325-1.967-1.926-2.92-0.497-0.746-1.554 0.207-1.367 0.498 0.559 1.139 2.175 3.664 2.775 4.391 0.292 0.455 1.637-0.457 1.927-0.106z" stroke="#000" fill="none"/>
			<path d="m82.283 54.041c0.45 0.559 0.466 0.652 0.237 0.84-0.193 0.158-0.352 0.104-0.755-0.383-0.404-0.488-0.57-0.664-0.343-0.881 0.192-0.181 0.462-0.07 0.861 0.424z" fill="#EC1C2E"/>
			<path stroke-width=".0671" d="m82.283 54.041c0.45 0.559 0.466 0.652 0.237 0.84-0.193 0.158-0.352 0.104-0.755-0.383-0.404-0.488-0.57-0.664-0.343-0.881 0.192-0.181 0.462-0.07 0.861 0.424z" stroke="#000" fill="none"/>
			<path d="m81.791 54.533c0.274 0.301 0.595 0.492 0.232 0.812-0.188 0.166-0.372 0.104-0.776-0.383-0.403-0.486-0.643-0.727-0.373-0.963 0.332-0.288 0.67 0.265 0.917 0.534z" fill="#EC1C2E"/>
			<path stroke-width=".0671" d="m81.791 54.533c0.274 0.301 0.595 0.492 0.232 0.812-0.188 0.166-0.372 0.104-0.776-0.383-0.403-0.486-0.643-0.727-0.373-0.963 0.332-0.288 0.67 0.265 0.917 0.534z" stroke="#000" fill="none"/>
			<path d="m81.195 54.922c0.438 0.438 0.667 0.506 0.28 0.797-0.125 0.094-0.271 0.025-0.694-0.445-0.466-0.518-0.518-0.828-0.343-0.984 0.26-0.228 0.499 0.372 0.757 0.632z" fill="#EC1C2E"/>
			<path stroke-width=".0671" d="m81.195 54.922c0.438 0.438 0.667 0.506 0.28 0.797-0.125 0.094-0.271 0.025-0.694-0.445-0.466-0.518-0.518-0.828-0.343-0.984 0.26-0.228 0.499 0.372 0.757 0.632z" stroke="#000" fill="none"/>
			<path d="m67.416 48.949c-0.655 0.738-0.938 1.855-1.4 2.203 0-0.207-0.062-0.6-0.124-0.787-0.208 0.145-0.56 0.291-0.891 0.352 0.041-0.164-0.062-0.787-0.166-1.035-0.187 0.166-0.746 0.476-0.953 0.394 0.307-0.389 0.17-0.758 0.882-2.019 0.593 0.216 2.07 0.673 2.652 0.892z" fill="#B07E5B"/>
			<path stroke-width=".0671" d="m67.416 48.949c-0.655 0.738-0.938 1.855-1.4 2.203 0-0.207-0.062-0.6-0.124-0.787-0.208 0.145-0.56 0.291-0.891 0.352 0.041-0.164-0.062-0.787-0.166-1.035-0.187 0.166-0.746 0.476-0.953 0.394 0.307-0.389 0.17-0.758 0.882-2.019 0.593 0.216 2.07 0.673 2.652 0.892z" stroke="#000" fill="none"/>
			<path d="m76.213 48.949c0.655 0.738 0.938 1.855 1.4 2.203 0-0.207 0.062-0.6 0.124-0.787 0.207 0.145 0.56 0.291 0.891 0.352-0.041-0.164 0.062-0.787 0.166-1.035 0.187 0.166 0.746 0.476 0.953 0.394-0.307-0.389-0.17-0.758-0.882-2.019-0.594 0.216-2.07 0.673-2.652 0.892z" fill="#B07E5B"/>
			<path stroke-width=".0671" d="m76.213 48.949c0.655 0.738 0.938 1.855 1.4 2.203 0-0.207 0.062-0.6 0.124-0.787 0.207 0.145 0.56 0.291 0.891 0.352-0.041-0.164 0.062-0.787 0.166-1.035 0.187 0.166 0.746 0.476 0.953 0.394-0.307-0.389-0.17-0.758-0.882-2.019-0.594 0.216-2.07 0.673-2.652 0.892z" stroke="#000" fill="none"/>
			<path d="m62.089 53.947c0.263 0.061 0.53-0.607 0.141-0.818 0.044 0.344-0.327 0.318-0.355 0.477-0.036 0.179 0.065 0.306 0.214 0.341z" fill="#EC1C2E"/>
			<path stroke-width=".0671" d="m62.089 53.947c0.263 0.061 0.53-0.607 0.141-0.818 0.044 0.344-0.327 0.318-0.355 0.477-0.036 0.179 0.065 0.306 0.214 0.341z" stroke="#000" fill="none"/>
			<path d="m60.435 54.117c-0.246 0.418 0.326 1.146 0.902 0.832-0.463-0.223-0.184-0.689-0.303-0.824-0.18-0.203-0.483-0.203-0.599-0.008z" fill="#EC1C2E"/>
			<path stroke-width=".0671" d="m60.435 54.117c-0.246 0.418 0.326 1.146 0.902 0.832-0.463-0.223-0.184-0.689-0.303-0.824-0.18-0.203-0.483-0.203-0.599-0.008z" stroke="#000" fill="none"/>
			<path d="m62.625 54.328c0.261 0.061 0.529-0.609 0.139-0.818 0.046 0.344-0.325 0.316-0.355 0.475-0.034 0.181 0.068 0.308 0.216 0.343z" fill="#EC1C2E"/>
			<path stroke-width=".0671" d="m62.625 54.328c0.261 0.061 0.529-0.609 0.139-0.818 0.046 0.344-0.325 0.316-0.355 0.475-0.034 0.181 0.068 0.308 0.216 0.343z" stroke="#000" fill="none"/>
			<path d="m63.118 54.693c0.262 0.06 0.529-0.607 0.139-0.818 0.045 0.344-0.326 0.318-0.356 0.477-0.033 0.179 0.068 0.308 0.217 0.341z" fill="#EC1C2E"/>
			<path stroke-width=".0671" d="m63.118 54.693c0.262 0.06 0.529-0.607 0.139-0.818 0.045 0.344-0.326 0.318-0.356 0.477-0.033 0.179 0.068 0.308 0.217 0.341z" stroke="#000" fill="none"/>
			<path d="m81.538 53.947c-0.261 0.061-0.529-0.607-0.139-0.818-0.045 0.344 0.325 0.318 0.355 0.477 0.035 0.179-0.067 0.306-0.216 0.341z" fill="#EC1C2E"/>
			<path stroke-width=".0671" d="m81.538 53.947c-0.261 0.061-0.529-0.607-0.139-0.818-0.045 0.344 0.325 0.318 0.355 0.477 0.035 0.179-0.067 0.306-0.216 0.341z" stroke="#000" fill="none"/>
			<path d="m83.192 54.117c0.246 0.418-0.325 1.146-0.901 0.832 0.462-0.223 0.184-0.689 0.303-0.824 0.179-0.203 0.483-0.203 0.598-0.008z" fill="#EC1C2E"/>
			<path stroke-width=".0671" d="m83.192 54.117c0.246 0.418-0.325 1.146-0.901 0.832 0.462-0.223 0.184-0.689 0.303-0.824 0.179-0.203 0.483-0.203 0.598-0.008z" stroke="#000" fill="none"/>
			<path d="m81.003 54.328c-0.262 0.061-0.53-0.609-0.14-0.818-0.045 0.344 0.326 0.316 0.356 0.475 0.034 0.181-0.068 0.308-0.216 0.343z" fill="#EC1C2E"/>
			<path stroke-width=".0671" d="m81.003 54.328c-0.262 0.061-0.53-0.609-0.14-0.818-0.045 0.344 0.326 0.316 0.356 0.475 0.034 0.181-0.068 0.308-0.216 0.343z" stroke="#000" fill="none"/>
			<path d="m80.51 54.693c-0.261 0.06-0.529-0.607-0.139-0.818-0.045 0.344 0.325 0.318 0.355 0.477 0.035 0.179-0.068 0.308-0.216 0.341z" fill="#EC1C2E"/>
			<path stroke-width=".0671" d="m80.51 54.693c-0.261 0.06-0.529-0.607-0.139-0.818-0.045 0.344 0.325 0.318 0.355 0.477 0.035 0.179-0.068 0.308-0.216 0.341z" stroke="#000" fill="none"/>
			<path d="m70.085 48.033c0.437-0.1 0.845-0.199 0.852 0.041 0.008 0.254-0.25 0.233-0.739 0.227-0.536-0.008-0.614-0.155-0.113-0.268z"/>
			<path d="m73.543 48.033c-0.437-0.1-0.845-0.199-0.852 0.041-0.008 0.254 0.249 0.233 0.739 0.227 0.536-0.008 0.615-0.155 0.113-0.268z"/>
</g>
</svg>
