<?xml version="1.0" encoding="UTF-8" standalone="no"?>
<!-- Generator: Adobe Illustrator 18.0.0, SVG Export Plug-In . SVG Version: 6.00 Build 0)  -->
<!DOCTYPE svg  PUBLIC '-//W3C//DTD SVG 1.1//EN'  'http://www.w3.org/Graphics/SVG/1.1/DTD/svg11.dtd'>
<svg style="enable-background:new 0 0 144 80" xmlns="http://www.w3.org/2000/svg" xml:space="preserve" version="1.1" y="0px" x="0px" xmlns:xlink="http://www.w3.org/1999/xlink" viewBox="0 0 144 80">
<g id="KSA">
		<polygon points="144 80 144 0 0 0 0 80" fill="#006C35"/>
			<path d="m72.003 41.311" fill="#096"/>
			<path stroke-width=".16" d="m72.003 41.311" stroke="#000" fill="none"/>
			<path d="m39.745 21.152c0.477-1.33 0.504-2.477-0.03-2.051-0.456 0.365-0.73-0.005-0.382-0.43 0.457-0.565 1.077-0.75 1.182 0.271 0.08 0.774-0.475 1.735-0.77 2.21z" fill="#fff"/>
			<path d="m43.715 28.354c0.146 1.659 0.591 4.771 0.613 5.839 0.023 1.07 0.177 0.772 0.459 0.176 0.282-0.597 0.209-1.255 0.153-2.121-0.058-0.918-0.119-2.46-0.293-4.507 0.335-0.303 0.688-0.737 0.834-1.035 0.346-0.7 0.428-0.626 0.58-0.068 0.301 1.101 1.396 1.826 2.868 0.77 1.358-0.975 0.795-3.007 0.166-5.207 0.526 0.1 0.685-0.319 0.396-0.867-0.167-0.318-0.417-0.625-0.646-0.896-0.228-0.273-0.484-0.502-0.699-0.22-0.216 0.281-0.426 0.512-0.561 0.679-0.134 0.17-0.127 0.361 0.06 0.821 0.526 1.289 0.913 2.682 1.013 3.455 0.1 0.772-0.173 0.916-0.67 0.927-0.5 0.012-1.209-0.121-1.482-1.223-0.272-1.101-0.379-1.64-0.339-2.36 0.04-0.721 0.112-1.225-0.401-1.96-0.514-0.737-0.572-0.64-0.697-0.235-0.129 0.419-0.286 0.989-0.122 1.677 0.243 1.018 0.392 1.921 0.521 2.498 0.091 0.414-0.302 1.29-0.942 1.747-0.113-1.36-0.35-3.216-0.466-4.713 0.825-0.239 0.37-1.306-0.235-2.454-0.469-0.889-0.676-0.541-0.997 0.02-0.319 0.562-0.087 0.812 0.171 1.249-0.186 0.392 0.104 0.938 0.236 1.933 0.088 0.665 0.213 2.518 0.333 4.118-0.641 0-1.001-0.415-1.239-0.974-0.496-1.151-0.369-2.235-0.135-2.905 0.235-0.669 0.448-1.756 0.056-2.024-0.393-0.268-0.88 0.053-1.201 0.559-0.536 0.841-1.077 2.01-1.126 3.283-0.017 0.472-0.18 1.472-0.394 1.836-0.213 0.363-0.512 0.412-0.852-0.134-0.545-0.874-0.699-3.104-0.668-4.239 0.016-0.564-0.146-0.685-0.326-0.016-0.596 2.217 0.098 4.592 0.59 5.606 0.492 1.013 1.176 0.774 1.633-0.035 0.693-1.232 0.41-2.356 1.037-4.169 0.398-1.159 0.498-0.288 0.377 0.401-0.322 1.831-0.212 4.809 2.395 4.768z" fill="#fff"/>
			<path d="m45.689 18.683c-0.136 0.374-0.052 0.843 0.179 1.132 0.227 0.292 0.679 0.311 0.92 0.06 0.253-0.264 0.255-0.316 0.459 0.04 0.16 0.28 0.607 0.226 0.74-0.06 0.124-0.267 0.257-0.488 0.12-0.8-0.136-0.311-0.164-0.205-0.241 0.159-0.12 0.581-0.664 0.422-0.68-0.279-0.015-0.701-0.143-0.351-0.358 0.14-0.301 0.681-0.74 0.521-0.74-0.08 0-0.48-0.177-0.925-0.399-0.312z" fill="#fff"/>
			<path d="m38.188 32.535c1.32-1.585 3.055-2.427 3.899-2.687 0.577-0.18 0.851-0.403 0.862 0.122 0.011 0.526-0.009 0.543-0.488 0.677-1.074 0.3-3.264 1.404-3.999 1.973-0.363 0.281-0.815 0.563-0.274-0.085z" fill="#fff"/>
			<path d="m39.138 35.477c0.076 0.439 0.043 0.746 0.049 0.968 0.005 0.306-0.168 0.644-0.283 1.058-0.54 1.949 0.283 2.928 0.74 2.198 0.454-0.729 0.652-0.624 0.634-0.069-0.068 1.995-1.948 2.118-2.094 0.487-0.233-2.621 0.356-3.029 0.554-3.941 0.125-0.585 0.336-1.06 0.4-0.701z" fill="#fff"/>
			<path d="m48.88 31.492c-0.194 0.067-0.375 0.127-0.533 0.182-0.785 0.261-0.962-0.082-0.916-0.581 0.045-0.499 0.131-0.667 0.654-0.43 0.221 0.1 0.527 0.415 0.795 0.829l1.237-0.477c-0.21-0.502-0.541-0.912-1.077-1.425-0.828-0.795-1.48-0.834-2.174 0.157-0.681 0.974-0.639 1.194-0.583 2.079 0.056 0.884-0.122 1.183 0.548 1.428 0.669 0.244 0.955 0.144 1.365 0.008 0.312-0.104 0.756-0.255 1.244-0.431 0.088 0.483 0.039 0.958-0.256 1.323-1.672 2.056-4.333 3.525-5.49 2.165-0.623-0.734-0.897-1.891-0.707-3.279 0.156-1.13-0.207-0.632-0.336-0.214-0.414 1.338-0.539 3.277 0.016 4.244 0.781 1.357 2.036 1.949 4.009 1.058 1.975-0.891 3.897-2.444 3.813-4.621-0.014-0.396-0.033-0.742-0.062-1.05 0.22-0.088 0.532-0.335 0.739-0.425 0.04 0.738-0.021 1.654 0.007 2.421 0.087 2.325-0.807 3.031-1.646 3.697-1.159 0.921-2.722 1.521-4.08 1.72-3.14 0.462-3.897-1.558-3.843-4.254 0.008-0.448 0.169-0.688 0.155-1.331-0.024-1.144-0.168-0.947-0.512 0.203-0.335 1.119-0.758 3.704 0.321 5.822 1.077 2.118 4.816 1.516 7.703 0.125 2.886-1.391 3.197-4.018 3.069-6.635-0.036-0.693-0.077-1.428-0.124-2.214 0.091-0.064 0.166-0.128 0.22-0.187 0.398 1.318 2.322 0.975 2.928 0.212 0.306-0.387 0.314-0.442 0.62-0.02 0.418 0.579 1.824 0.799 2.176-0.058 0.351-0.855 0.291-1.681 0.204-2.343-0.089-0.663-0.23-0.608-0.665-0.268-0.437 0.342-0.09 0.424-0.035 0.888 0.201 1.72-1.32 1.6-1.5-0.206-0.109-1.096-0.286-0.68-0.439-0.174-0.654 2.146-2.52 2.56-2.331 0.065 0.052-0.699-0.398-0.491-0.671-0.208-0.193 0.202-0.401 0.389-0.617 0.562-0.135-2.019-0.305-4.346-0.509-7.098 0.542 0.68 1.077-0.106 0.702-0.873-0.29-0.591-0.707-1.95-0.971-2.692-0.266-0.741-0.4-0.518-0.967 0.103-0.568 0.621-0.455 0.785-0.219 1.418-0.059 0.811 0.07 1.584 0.253 3.204 0.13 1.152 0.494 3.545 0.688 6.558-0.285 0.158-0.687 0.42-0.968 0.543l-1.235 0.48z" fill="#fff"/>
			<path d="m55.462 34.714c0.1 0.348 0.059 1.068-0.082 1.403-0.175 0.417-0.002 0.602 0.279 0.067 0.282-0.541 0.437-1.172 0.33-1.815-0.081-0.491-0.068-0.608-0.498-0.801-0.428-0.193-0.57 0.104-0.729 0.476-0.186 0.443 0.077 0.977 0.7 0.67z" fill="#fff"/>
			<path d="m56.703 24.583c-0.529 0.712-0.97 1.691-0.199 2.33 0.423 0.352 1.298-0.084 1.615-0.783 0.317-0.697 0.188-0.823-0.363-0.185-0.756 0.874-1.549 0.088-0.744-1.119 0.559-0.838 0.255-1.002-0.309-0.243z" fill="#fff"/>
			<path d="m57.911 20.486c0.096-0.202 0.178-0.407 0.24-0.612 0.084-0.27-0.176-0.521-0.36-0.103-0.126 0.285-0.177 0.515 0.12 0.715l-0.518 0.873c-0.579-0.486-0.604-1.244-0.357-1.904 0.524-1.394 2.38-1.228 1.895 0.597-0.08 0.304-0.191 0.647-0.363 1.016 0.238 0.385 0.115 0.841-0.41 0.733-0.641 0.974-1.756 2.035-3.776 2.942-0.904 0.407-1.05 0.078-0.366-0.352 1.344-0.846 2.578-1.901 3.378-3.032l0.517-0.873z" fill="#fff"/>
			<path d="m60.03 20.675c-0.738 2.052-0.701 4.048 0.8 5.732 0.884 0.989 1.542 0.519 1.934-0.515 0.393-1.032 0.649-2.061 0.938-2.73 0.292-0.672 0.514-0.533 0.445 0.101-0.138 1.275-0.193 3.357 1.097 4.132 1.288 0.773 3.271-0.572 3.934-1.942 2.104 2.782 3.936 1.471 4.145-1.178 0.066-0.831-0.324-2.641-0.557-3.162-0.232-0.522-0.066-0.552 0.244-0.254 0.312 0.298 0.896 0.507 0.601-0.401-0.297-0.905-0.694-1.396-1.176-1.801-0.478-0.404-0.584-0.182-0.771 0.127s-0.142 0.403-0.414 0.658c-0.271 0.255-0.213 0.393-0.007 0.914 0.789 2.003 1.564 4.959 0.279 5.238-1.13 0.246-1.871-2.228-1.915-3.36-0.06-1.467-0.226-2.709-0.519-3.505-0.293-0.797-0.418-0.928-0.648-0.484-0.158 0.307-0.209 0.529-0.396 0.866-0.185 0.335-0.016 0.428 0.119 1.045 0.705 3.251 0.636 4.696-0.84 5.56-1.476 0.861-2.258 0.024-2.28-1.001-0.021-1.022-0.038-2.242 0.081-3.159 0.118-0.916 0.314-1.084 0.001-1.549-0.313-0.463-0.571-0.314-1.013 0.295-0.923 1.274-1.836 3.435-2.147 4.475-0.31 1.04-0.995 0.673-1.426-0.207-0.503-1.023-0.45-2.927-0.279-3.668 0.169-0.744 0.076-1.073-0.23-0.227z" fill="#fff"/>
			<path d="m66.269 18.87c-0.293 0.345-0.322 0.386-0.025 0.765 0.256 0.328 0.677 1.373 0.561 2.4-0.057 0.498 0.05 0.949 0.254 0.113 0.205-0.836 0.152-1.996-0.085-2.684-0.237-0.685-0.491-0.847-0.705-0.594z" fill="#fff"/>
			<path d="m72.968 30.818c0.332-0.089 0.669-0.172 1.006-0.247 0.983-0.218 0.437-0.305-0.238-0.732-0.673-0.429-0.932-0.423-0.885 0.056 0.028 0.277 0.019 0.554 0.117 0.923l-1.21 0.347c-0.778-1.142-0.272-1.983 0.321-2.841 0.753-1.086 1.941-0.743 3.328 0.225 1.385 0.967 0.827 2.492-0.486 3.258-0.35 0.205-0.776 0.385-1.242 0.556 0.104 0.347-0.061 0.438-0.49 0.172-1.179 0.399-2.776 1.011-3.852 1.578 1.33 0.12 6.853-0.008 7.957-0.104 1.105-0.098 0.924 0.09 0.613 1.021-0.312 0.929-0.676 0.838-1.64 1.004-1.47 0.252-3.6 0.885-5.171 1.546-1.575 0.661-1.032 1.787 0.567 2.381 1.263 0.342 1.098 0.475 0.892 1.198-0.205 0.725-0.189 0.887-1.702 0.646-3.714-0.593-5.075-2.649-5.655-4.257-2.341 3.278-4.563 5.056-6.684 4.521-1.06-0.268-1.583-1.21-1.681-2.435-1.462 0.713-3.176 1.301-5.36 1.976-0.514 0.158-0.932-0.071-0.267-0.4 1.479-0.73 3.802-1.991 5.687-3.283 0.178-0.87 0.576-1.988 1.01-2.839 0.248-0.484 0.364-0.303 0.373 0.103 0.007 0.336-0.097 1.155-0.072 1.765 0.367-0.276 0.812-0.592 1.041-0.801 1.288-1.171 2.725-1.882 1.738-3.753-0.422-0.803-0.73-1.387-0.887-1.789-0.818-0.315-0.568-0.762-0.216-1.545 0.351-0.782 0.501-0.975 1.251-0.101 1.061 1.231 1.183 1.783 0.442 1.688 1.171 2.964 0.889 4.463-0.899 6.256-0.85 0.854-1.723 1.529-2.701 2.109-0.1 0.795 0.206 1.568 1.704 1.345 1.903-0.284 4.084-2.825 5.008-4.768-0.41-1.618-1.334-4.489-1.896-5.965-0.293-0.77-0.005-1.07 0.241-1.667 0.246-0.595 0.422-0.968 0.735-0.163 0.313 0.806 1.313 2.777 1.806 5.13 0.493 2.35 0.391 4.382 1.595 5.5 0.538 0.5 1.239 0.79 1.965 0.988-0.529-1.582 0.603-2.748 2.156-3.326-0.938-0.859-2.393-0.737-3.978-0.806-1.226-0.054-1.057-0.177-0.746-1.254 0.309-1.077 0.704-1.213 1.582-1.563 1.17-0.468 2.377-0.921 3.612-1.304l1.211-0.349z" fill="#fff"/>
			<path d="m67.61 28.936c-0.099 0.631 0.059 1.051 0.286 1.361 0.229 0.308 0.696 0.268 0.825-0.077 0.161-0.427 0.241-0.479 0.535-0.16 0.318 0.349 1.381 0.062 0.854-1.546-0.219-0.66-0.328-0.524-0.321 0.239 0.012 1.144-0.356 1.135-0.762 0.042-0.157-0.421-0.344-0.427-0.366 0.119-0.046 1.065-0.485 1.199-0.738 0.16-0.117-0.487-0.208-0.824-0.313-0.138z" fill="#fff"/>
			<path d="m81.271 18.883c-0.196 0.344-0.322 0.643 0.057 0.922 0.365 0.269 0.917 0.985 0.687 1.849-0.175 0.648-0.016 1.131 0.399 0.194 0.423-0.95 0.086-2.111-0.336-2.844-0.375-0.647-0.593-0.495-0.807-0.121z" fill="#fff"/>
			<path d="m84.711 35.694c-0.389-2.068-2.274-5.389-5.087-9.727-0.092-1.13-0.15-2.217-0.152-3.171 0.398 0.434 0.696 0.178 0.547-0.399-0.285-1.085-0.707-1.967-1.176-3.157-0.205-0.521-0.698-0.638-0.967 0.103-0.312 0.865-0.337 1.06 0.062 1.632-0.021 0.686 0.184 1.78 0.262 2.78-0.479-0.722-1.14-1.661-1.656-2.427 0.782 0.314 1.257 0.084 0.576-0.678-0.682-0.761-1.657-1.551-2.26-2.093-0.602-0.54-0.891-0.202-0.805 0.312 0.084 0.516 0.093 0.885 0.064 1.291-0.027 0.406 0.079 0.672 0.693 0.907 1.184 1.586 2.408 3.218 3.508 4.846 0.152 1.402 0.414 2.92 0.561 4.159 0.338 2.928 0.9 6.768 0.438 8.438-0.342 1.236 0.028 1.78 0.598-0.113 0.567-1.895 0.501-3.67 0.162-6.485-0.133-1.125-0.199-2.498-0.337-3.789 1.93 3.02 3.672 5.86 4.458 7.828 0.422 1.06 0.803 1.287 0.511-0.257z" fill="#fff"/>
			<path d="m81.64 24.078c0.154 0.54 0.428 0.829 0.54 0.155 0.098-0.592 0.277-0.781 0.384-0.138 0.105 0.644 0.474 0.544 0.588-0.049 0.117-0.594 0.332-0.948 0.42-0.267 0.089 0.68 0.02 0.903-0.049 1.107-0.07 0.204-0.398 0.451-0.698 0.162-0.303-0.288-0.416-0.284-0.648-0.06-0.488 0.471-0.69 0.135-0.767-0.5-0.068-0.55 0.13-0.756 0.23-0.41z" fill="#fff"/>
			<path d="m74.215 39.738c0.481-0.281 0.709-0.486 1.065-0.658 0.355-0.175 0.635-0.131 0.375 0.683-0.287 0.892-0.168 1.185 0.434 0.96 0.551-0.206 0.879-0.406 1.373-0.611 0.403-0.167 0.861-0.195 0.228 0.327-0.517 0.427-1.249 0.953-1.666 1.061-0.936 0.24-1.386-0.137-1.208-0.86 0.178-0.724 0.326-0.967-0.237-0.743-0.659 0.262-0.61-0.016-0.364-0.159z" fill="#fff"/>
			<path d="m85.787 22.127c0.34 0.324 0.783 0.351 0.546-0.344-0.235-0.697-0.401-1.541-0.639-2.311-0.237-0.771-0.39-0.951-0.678-0.576-0.286 0.375-0.541 0.528-0.758 0.791s-0.26 0.765 0.008 1.202c0.986 6.981 1.053 10.06 1.191 12.63 0.139 2.572 0.489 3.78-1.098 5.513-1.76 1.92-2.842 2.36-3.6 2.56-0.983 0.259-1.327 0.679 0.12 0.601 2.2-0.121 2.479-0.2 4.272-2.244 0.993-1.132 1.494-2.578 1.421-6.01-0.126-5.976-0.918-8.58-0.785-11.812z" fill="#fff"/>
			<path d="m88.966 22.354c0.636 0.355 1.303 0.525 0.807-0.239s-0.892-2.011-1.206-2.926c-0.314-0.916-0.381-0.865-0.887-0.093-0.786 1.198-0.108 2.336 0.078 3.738 0.66 4.931 1.292 9.957 1.467 11.277 0.199 1.49 0.426 2.453 0.044 4.087-0.115 0.487 0.076 0.646 0.387 0.047 1.277-2.464 0.4-4.59 0.261-5.984-0.212-2.1-0.939-7.73-1.101-9.997" fill="#fff"/>
			<path d="m92.157 26.114c-0.102 0.426-0.684 0.423-0.639-0.04s0.009-0.397 0.002-0.767c-0.009-0.369 0.432-0.581 0.678-0.255 0.246 0.327 0.725 1.316 0.88 1.701s0.246 0.293 0.235-0.245c-0.014-0.608-0.115-1.152-0.066-1.533 0.033-0.241 0.155-0.519 0.465-0.749 0.309-0.227 0.475-0.286 0.61 0.116 0.138 0.404 0.409 0.442 0.275 0.771-0.187 0.463-0.637-0.483-0.88 0.16-0.175 0.465-0.036 1.777-0.048 2.202-0.008 0.424-0.189 1.05-0.526 0.324-0.213-0.455-0.57-1.252-0.986-1.685z" fill="#fff"/>
			<path d="m91.999 31.753c-0.016-0.28 0.122-0.399 0.698-0.86 0.441-0.351 1.72-1.292 2.154-1.707 0.433-0.416 0.758-0.791 0.824-0.276 0.066 0.516 0.151 0.714-0.358 0.964-0.512 0.252-1.844 1.059-2.279 1.4-0.435 0.34-1.019 0.838-1.039 0.479z" fill="#fff"/>
			<path d="m104.6 35.436c-0.052-0.682-0.253-1.289-1.087-2.542-0.806-1.203-1.575-2.32-2.309-3.365-0.244-2.779-0.548-5.74-0.567-7.294 0.395 0.352 0.664 0.013 0.485-0.592-0.18-0.604-0.546-2.23-0.81-2.889-0.262-0.659-0.536-0.515-0.884 0.074s-0.562 0.87-0.358 1.336c0.104 2.655 0.5 5.249 0.899 7.625-0.736-1.03-1.427-1.982-2.067-2.874-0.062-1.021-0.123-2.048-0.182-3.062 0.423 0.324 0.589 0.264 0.381-0.367-0.207-0.634-0.707-1.951-0.941-2.555-0.233-0.604-0.391-0.619-0.703-0.132-0.498 0.775-0.637 1.304-0.215 2.034 0.058 0.682 0.113 1.338 0.168 1.969-0.391-0.562-0.751-1.101-1.082-1.617 0.41 0.213 0.734-0.164 0.282-0.561-0.452-0.396-1.316-1.115-1.695-1.625-0.381-0.509-0.786-0.499-0.776-0.02 0.01 0.442 0.057 0.885-0.01 1.254-0.066 0.371-0.061 0.749 0.474 1.393 1.072 1.298 2.095 2.632 3.04 3.903 0.387 4.575 0.614 7.532 0.527 9.399-0.049 1.09-0.442 1.726-1.029 1.924-0.586 0.195-1.186-0.196-1.756-1.033-0.998-1.459-1.367-1.189-2.139 0.083-0.749 1.233-1.281 2.241-1.669 3.098s-1.036 1.573-1.613 0.478-0.642-2.348-0.624-3.234c0.02-0.885-0.109-1.585-0.446-0.175-0.812 3.413-0.337 4.126 0.585 4.896 1.164 0.972 1.531 1.07 2.145 0.213 1.183-1.648 1.521-3.132 2.204-3.958 0.532-0.646 0.575-0.142 0.815 0.166 0.683 0.871 1.318 1.189 2.279 1.354 0.965 0.165 2.717-0.648 2.576-3.856-0.086-1.944-0.255-4.576-0.435-7.405 0.936 1.299 1.757 2.463 2.418 3.36 0.297 1.859 0.497 3.508 0.414 4.844-0.097 1.552 0.218 1.546 0.534-0.049 0.124-0.627 0.086-1.955-0.023-3.566 1.235 1.644 1.969 2.727 2.477 3.551 0.58 0.926 0.86 1.758 0.72-0.183z" fill="#fff"/>
			<path d="m101.95 20.186c-0.267 0.421-0.237 0.531 0.078 1.051 0.316 0.519 0.615 1.536 0.604 2.34-0.011 0.802 0.264 0.685 0.414-0.036 0.15-0.724 0.094-2.079-0.314-3.067-0.41-0.988-0.57-0.625-0.78-0.288z" fill="#fff"/>
			<path d="m105.69 21.628c0.51 0.487 0.782 0.316 0.434-0.452s-0.697-1.59-1.046-2.357c-0.35-0.768-0.456-0.601-0.888-0.037-0.431 0.562-0.477 0.95-0.303 1.279 0.876 7.344 1.268 11.156 1.391 13.367 0.181 3.207-0.586 5.034-3.724 7.109-1.037 0.688-2.183 1.486 0.241 0.881 2.423-0.605 5.004-2.206 4.736-8.902-0.24-5.973-1.01-8.614-0.84-10.888z" fill="#fff"/>
			<path d="m99.226 39.177c-0.184 0.475-1.132 0.107-0.756-0.427 0.286-0.408 0.958-0.463 1.242-0.109 0.707 0.88-0.344 2.056-0.834 2.399-0.49 0.342-0.873 0.324-0.145-0.302 0.461-0.398 0.779-1.152 0.493-1.561z" fill="#fff"/>
			<path d="m46.196 60.067c15.309 0.182 33.579 0.384 49.131 0.052 1.691-0.037 2.41 0.212 2.554 1.674 0.122 1.245-0.253 2.261-1.116 2.316-0.715 0.046-1.521-0.831-1.064-2.308-19.605 0.588-34.147 0.645-38.716 0.573-4.568-0.071-9.299 0.114-10.789-2.307z" fill="#fff"/>
			<path d="m93.425 63.066c-0.005-0.258-0.364-0.416-0.525-0.412-0.158 0.003-0.512 0.176-0.506 0.434l-2.113 0.047c-0.062-0.136-0.187-0.294-0.382-0.519l-0.064-3c0.562-0.703 0.492-0.777 0.069-1.383-0.204-0.292-0.353-0.612-0.748 0.017-0.392 0.625-0.463 0.7 0.129 1.378l0.064 3c-0.562 0.703-0.489 0.775-0.07 1.383 0.423 0.611 0.558 0.284 0.748-0.016 0.076-0.122 0.141-0.223 0.191-0.31l2.188-0.047c0.006 0.257 0.365 0.422 0.524 0.419 0.158-0.003 0.513-0.184 0.505-0.442l3.163-0.067-0.013-0.549-3.16 0.067z" fill="#fff"/>
</g>
</svg>
