<?xml version="1.0" encoding="UTF-8" standalone="no"?>
<!-- Generator: Adobe Illustrator 18.0.0, SVG Export Plug-In . SVG Version: 6.00 Build 0)  -->
<!DOCTYPE svg  PUBLIC '-//W3C//DTD SVG 1.1//EN'  'http://www.w3.org/Graphics/SVG/1.1/DTD/svg11.dtd'>
<svg style="enable-background:new 0 0 144 80" xmlns="http://www.w3.org/2000/svg" xml:space="preserve" version="1.1" y="0px" x="0px" xmlns:xlink="http://www.w3.org/1999/xlink" viewBox="0 0 144 80">
<g id="POR">
			<polygon points="55.393 80 55.393 0 144 0 144 80" fill="#f00"/>
			<polygon points="0 80 0 0 55.393 0 55.393 80" fill="#060"/>
			<path d="m47.107 39.869l-7.307-5.976c0.326-0.428 0.867-1.088 1.185-1.451l7.308 5.979-1.186 1.448z" fill="#ff0"/>
			<path stroke-width=".065" d="m47.107 39.869l-7.307-5.976c0.326-0.428 0.867-1.088 1.185-1.451l7.308 5.979-1.186 1.448z" stroke="#000" fill="none"/>
			<path d="m47.356 39.566s-7.166-5.859-7.309-5.976l-0.506 0.617c0.262 0.215 7.308 5.977 7.308 5.977l0.507-0.618z" fill="#ff0"/>
			<path stroke-width=".065" d="m47.356 39.566s-7.166-5.859-7.309-5.976l-0.506 0.617c0.262 0.215 7.308 5.977 7.308 5.977l0.507-0.618z" stroke="#000" fill="none"/>
			<path d="m48.607 38.035s-7.165-5.859-7.309-5.977l-0.507 0.617c0.264 0.215 7.309 5.977 7.309 5.977l0.507-0.617z" fill="#ff0"/>
			<path stroke-width=".065" d="m48.607 38.035s-7.165-5.859-7.309-5.977l-0.507 0.617c0.264 0.215 7.309 5.977 7.309 5.977l0.507-0.617z" stroke="#000" fill="none"/>
			<path d="m71.888 33.242l-10.064 4.559c-0.208-0.412-0.509-1.08-0.663-1.465l10.065-4.559 0.662 1.465z" fill="#ff0"/>
			<path stroke-width=".065" d="m71.888 33.242l-10.064 4.559c-0.208-0.412-0.509-1.08-0.663-1.465l10.065-4.559 0.662 1.465z" stroke="#000" fill="none"/>
			<path d="m71.75 32.936s-9.866 4.469-10.063 4.559l0.283 0.627c0.36-0.166 10.063-4.561 10.063-4.561l-0.283-0.625z" fill="#ff0"/>
			<path stroke-width=".065" d="m71.75 32.936s-9.866 4.469-10.063 4.559l0.283 0.627c0.36-0.166 10.063-4.561 10.063-4.561l-0.283-0.625z" stroke="#000" fill="none"/>
			<path d="m71.049 31.389s-9.865 4.469-10.063 4.56l0.283 0.623c0.36-0.164 10.064-4.559 10.064-4.559l-0.284-0.624z" fill="#ff0"/>
			<path stroke-width=".065" d="m71.049 31.389s-9.865 4.469-10.063 4.56l0.283 0.623c0.36-0.164 10.064-4.559 10.064-4.559l-0.284-0.624z" stroke="#000" fill="none"/>
			<path d="m73.056 41.873l-10.618 3.051c-0.146-0.439-0.349-1.143-0.444-1.545l10.619-3.051 0.443 1.545z" fill="#ff0"/>
			<path stroke-width=".065" d="m73.056 41.873l-10.618 3.051c-0.146-0.439-0.349-1.143-0.444-1.545l10.619-3.051 0.443 1.545z" stroke="#000" fill="none"/>
			<path d="m72.964 41.551s-10.411 2.99-10.619 3.051l0.189 0.658c0.381-0.109 10.619-3.051 10.619-3.051l-0.189-0.658z" fill="#ff0"/>
			<path stroke-width=".065" d="m72.964 41.551s-10.411 2.99-10.619 3.051l0.189 0.658c0.381-0.109 10.619-3.051 10.619-3.051l-0.189-0.658z" stroke="#000" fill="none"/>
			<path d="m72.494 39.92s-10.409 2.99-10.618 3.049l0.19 0.66c0.38-0.111 10.618-3.053 10.618-3.053l-0.19-0.656z" fill="#ff0"/>
			<path stroke-width=".065" d="m72.494 39.92s-10.409 2.99-10.618 3.049l0.19 0.66c0.38-0.111 10.618-3.053 10.618-3.053l-0.19-0.656z" stroke="#000" fill="none"/>
			<path d="m48.618 46.287l-9.991-4.719c0.181-0.424 0.493-1.086 0.687-1.453l9.99 4.717-0.686 1.455z" fill="#ff0"/>
			<path stroke-width=".065" d="m48.618 46.287l-9.991-4.719c0.181-0.424 0.493-1.086 0.687-1.453l9.99 4.717-0.686 1.455z" stroke="#000" fill="none"/>
			<path d="m48.761 45.984s-9.794-4.627-9.99-4.719l-0.293 0.621c0.358 0.168 9.99 4.717 9.99 4.717l0.293-0.619z" fill="#ff0"/>
			<path stroke-width=".065" d="m48.761 45.984s-9.794-4.627-9.99-4.719l-0.293 0.621c0.358 0.168 9.99 4.717 9.99 4.717l0.293-0.619z" stroke="#000" fill="none"/>
			<path d="m49.487 44.447s-9.795-4.625-9.992-4.717l-0.292 0.619c0.357 0.17 9.989 4.719 9.989 4.719l0.295-0.621z" fill="#ff0"/>
			<path stroke-width=".065" d="m49.487 44.447s-9.795-4.625-9.992-4.717l-0.292 0.619c0.357 0.17 9.989 4.719 9.989 4.719l0.295-0.621z" stroke="#000" fill="none"/>
			<path d="m68.915 51.412h-26.412c-0.047-0.578-0.047-1.494 0-2.014h26.412v2.014z" fill="#ff0"/>
			<path stroke-width=".065" d="m68.915 51.412h-26.412c-0.047-0.578-0.047-1.494 0-2.014h26.412v2.014z" stroke="#000" fill="none"/>
			<path d="m68.915 51.117h-26.412v0.859h26.412v-0.859z" fill="#ff0"/>
			<path stroke-width=".065" d="m68.915 51.117h-26.412v0.859h26.412v-0.859z" stroke="#000" fill="none"/>
			<path d="m68.915 48.865h-26.412v0.859h26.412v-0.859z" fill="#ff0"/>
			<path stroke-width=".065" d="m68.915 48.865h-26.412v0.859h26.412v-0.859z" stroke="#000" fill="none"/>
			<path d="m55.89 40" fill="#ff0"/>
			<path stroke-width=".065" d="m55.89 40" stroke="#000" fill="none"/>
			<path d="m55.89 40" fill="#ff0"/>
			<path stroke-width=".065" d="m55.89 40" stroke="#000" fill="none"/>
			<path d="m55.89 55.561c-8.594 0-15.56-6.965-15.56-15.561 0-8.592 6.967-15.56 15.56-15.56 8.594 0 15.562 6.969 15.562 15.56-0.001 8.596-6.969 15.561-15.562 15.561v2.654c10.06 0 18.215-8.154 18.215-18.215 0-10.059-8.155-18.215-18.215-18.215-10.059 0-18.213 8.156-18.213 18.215 0 10.061 8.154 18.215 18.213 18.215v-2.654z" fill="#ff0"/>
			<path stroke-width=".065" d="m55.89 55.561c-8.594 0-15.56-6.965-15.56-15.561 0-8.592 6.967-15.56 15.56-15.56 8.594 0 15.562 6.969 15.562 15.56-0.001 8.596-6.969 15.561-15.562 15.561v2.654c10.06 0 18.215-8.154 18.215-18.215 0-10.059-8.155-18.215-18.215-18.215-10.059 0-18.213 8.156-18.213 18.215 0 10.061 8.154 18.215 18.213 18.215v-2.654zm0 2.052c9.729 0 17.613-7.885 17.613-17.613s-7.885-17.613-17.613-17.613c-9.727 0-17.613 7.885-17.613 17.613s7.885 17.613 17.613 17.613zm0-17.613m0 16.168c8.93 0 16.168-7.238 16.168-16.168s-7.239-16.168-16.168-16.168c-8.929 0-16.168 7.238-16.168 16.168s7.239 16.168 16.168 16.168zm0-16.168" stroke="#000" fill="none"/>
			<path d="m54.552 31.281v-9.846c0.607-0.047 1.572-0.062 2.115-0.016v9.893" fill="#ff0"/>
			<path stroke-width=".065" d="m54.552 31.281v-9.846c0.607-0.047 1.572-0.062 2.115-0.016v9.893" stroke="#000" fill="none"/>
			<path d="m53.96 31.365v-9.596c0-0.732 0.904-0.699 0.904 0v9.566" fill="#ff0"/>
			<path stroke-width=".065" d="m53.96 31.365v-9.596c0-0.732 0.904-0.699 0.904 0v9.566" stroke="#000" fill="none"/>
			<path d="m56.325 31.365v-9.596c0-0.732 0.902-0.699 0.902 0v9.566" fill="#ff0"/>
			<path stroke-width=".065" d="m56.325 31.365v-9.596c0-0.732 0.902-0.699 0.902 0v9.566" stroke="#000" fill="none"/>
			<path d="m49.55 33.57s-8.103-2.98-9.008-3.314c-0.688-0.252-0.346-1.088 0.312-0.846 0.497 0.182 8.979 3.303 8.979 3.303" fill="#ff0"/>
			<path stroke-width=".065" d="m49.55 33.57s-8.103-2.98-9.008-3.314c-0.688-0.252-0.346-1.088 0.312-0.846 0.497 0.182 8.979 3.303 8.979 3.303" stroke="#000" fill="none"/>
			<path d="m49.763 33.156l-9.335-3.361c-0.544 0.795-1.354 2.271-1.618 2.988l9.147 3.453" fill="#ff0"/>
			<path stroke-width=".065" d="m49.763 33.156l-9.335-3.361c-0.544 0.795-1.354 2.271-1.618 2.988l9.147 3.453" stroke="#000" fill="none"/>
			<path d="m47.886 36.588s-8.103-2.982-9.008-3.314c-0.685-0.252-0.346-1.088 0.311-0.846 0.497 0.182 8.979 3.303 8.979 3.303" fill="#ff0"/>
			<path stroke-width=".065" d="m47.886 36.588s-8.103-2.982-9.008-3.314c-0.685-0.252-0.346-1.088 0.311-0.846 0.497 0.182 8.979 3.303 8.979 3.303" stroke="#000" fill="none"/>
			<path d="m46.619 36.393l-9.247 3.051c-0.029 0.598-0.005 1.479 0.054 2.236l9.597-3.205" fill="#ff0"/>
			<path stroke-width=".065" d="m46.619 36.393l-9.247 3.051c-0.029 0.598-0.005 1.479 0.054 2.236l9.597-3.205" stroke="#000" fill="none"/>
			<path d="m46.678 36.727s-8.188 2.732-9.104 3.035c-0.693 0.233-0.949-0.633-0.285-0.855 0.502-0.166 9.074-3.027 9.074-3.027" fill="#ff0"/>
			<path stroke-width=".065" d="m46.678 36.727s-8.188 2.732-9.104 3.035c-0.693 0.233-0.949-0.633-0.285-0.855 0.502-0.166 9.074-3.027 9.074-3.027" stroke="#000" fill="none"/>
			<path d="m46.927 38.996s-8.191 2.734-9.104 3.037c-0.694 0.232-0.951-0.633-0.287-0.855 0.503-0.166 9.076-3.027 9.076-3.027" fill="#ff0"/>
			<path stroke-width=".065" d="m46.927 38.996s-8.191 2.734-9.104 3.037c-0.694 0.232-0.951-0.633-0.287-0.855 0.503-0.166 9.076-3.027 9.076-3.027" stroke="#000" fill="none"/>
			<path d="m54.552 48.719v9.846c0.607 0.047 1.572 0.064 2.115 0.016v-9.893" fill="#ff0"/>
			<path stroke-width=".065" d="m54.552 48.719v9.846c0.607 0.047 1.572 0.064 2.115 0.016v-9.893" stroke="#000" fill="none"/>
			<path d="m53.96 48.633v9.598c0 0.732 0.904 0.701 0.904 0v-9.566" fill="#ff0"/>
			<path stroke-width=".065" d="m53.96 48.633v9.598c0 0.732 0.904 0.701 0.904 0v-9.566" stroke="#000" fill="none"/>
			<path d="m56.325 48.633v9.598c0 0.732 0.902 0.701 0.902 0v-9.566" fill="#ff0"/>
			<path stroke-width=".065" d="m56.325 48.633v9.598c0 0.732 0.902 0.701 0.902 0v-9.566" stroke="#000" fill="none"/>
			<path d="m64.888 41.855l7.598 6.377c-0.412 0.871-1.281 2.312-1.768 2.9l-7.584-6.168" fill="#ff0"/>
			<path stroke-width=".065" d="m64.888 41.855l7.598 6.377c-0.412 0.871-1.281 2.312-1.768 2.9l-7.584-6.168" stroke="#000" fill="none"/>
			<path d="m64.638 42.246s6.649 5.504 7.393 6.119c0.562 0.467 1.115-0.248 0.575-0.693-0.407-0.338-7.37-6.102-7.37-6.102" fill="#ff0"/>
			<path stroke-width=".065" d="m64.638 42.246s6.649 5.504 7.393 6.119c0.562 0.467 1.115-0.248 0.575-0.693-0.407-0.338-7.37-6.102-7.37-6.102" stroke="#000" fill="none"/>
			<path d="m62.865 45.203s6.651 5.504 7.394 6.119c0.563 0.467 1.113-0.248 0.576-0.695-0.408-0.336-7.371-6.1-7.371-6.1" fill="#ff0"/>
			<path stroke-width=".065" d="m62.865 45.203s6.651 5.504 7.394 6.119c0.563 0.467 1.113-0.248 0.576-0.695-0.408-0.336-7.371-6.1-7.371-6.1" stroke="#000" fill="none"/>
			<path d="m65.161 36.393l9.246 3.051c0.029 0.598 0.006 1.479-0.053 2.236l-9.598-3.205" fill="#ff0"/>
			<path stroke-width=".065" d="m65.161 36.393l9.246 3.051c0.029 0.598 0.006 1.479-0.053 2.236l-9.598-3.205" stroke="#000" fill="none"/>
			<path d="m65.103 36.727s8.189 2.732 9.105 3.035c0.692 0.233 0.947-0.633 0.284-0.855-0.501-0.166-9.075-3.027-9.075-3.027" fill="#ff0"/>
			<path stroke-width=".065" d="m65.103 36.727s8.189 2.732 9.105 3.035c0.692 0.233 0.947-0.633 0.284-0.855-0.501-0.166-9.075-3.027-9.075-3.027" stroke="#000" fill="none"/>
			<path d="m64.854 38.996s8.19 2.734 9.104 3.037c0.693 0.232 0.951-0.633 0.285-0.855-0.502-0.166-9.075-3.027-9.075-3.027" fill="#ff0"/>
			<path stroke-width=".065" d="m64.854 38.996s8.19 2.734 9.104 3.037c0.693 0.232 0.951-0.633 0.285-0.855-0.502-0.166-9.075-3.027-9.075-3.027" stroke="#000" fill="none"/>
			<path d="m49.636 46.502l-9.055 3.977c-0.334-0.469-0.812-1.242-1.035-1.707l8.909-3.949" fill="#ff0"/>
			<path stroke-width=".065" d="m49.636 46.502l-9.055 3.977c-0.334-0.469-0.812-1.242-1.035-1.707l8.909-3.949" stroke="#000" fill="none"/>
			<path d="m48.722 45.229s-7.977 3.299-8.868 3.668c-0.675 0.279-0.972-0.52-0.325-0.787 0.489-0.203 8.841-3.656 8.841-3.656" fill="#ff0"/>
			<path stroke-width=".065" d="m48.722 45.229s-7.977 3.299-8.868 3.668c-0.675 0.279-0.972-0.52-0.325-0.787 0.489-0.203 8.841-3.656 8.841-3.656" stroke="#000" fill="none"/>
			<path d="m49.718 46.971s-7.979 3.299-8.869 3.668c-0.675 0.279-0.973-0.519-0.325-0.787 0.489-0.203 8.841-3.656 8.841-3.656" fill="#ff0"/>
			<path stroke-width=".065" d="m49.718 46.971s-7.979 3.299-8.869 3.668c-0.675 0.279-0.973-0.519-0.325-0.787 0.489-0.203 8.841-3.656 8.841-3.656" stroke="#000" fill="none"/>
			<path d="m65.758 28.873l6.042 1.59c0.289 0.463 0.756 1.32 0.936 1.775l-7.078-1.811" fill="#ff0"/>
			<path stroke-width=".065" d="m65.758 28.873l6.042 1.59c0.289 0.463 0.756 1.32 0.936 1.775l-7.078-1.811" stroke="#000" fill="none"/>
			<path d="m65.778 28.354c2.413 0.608 5.277 1.328 5.802 1.461 0.709 0.176 0.481 0.955-0.198 0.783-0.285-0.072-3.152-0.793-5.624-1.414" fill="#ff0"/>
			<path stroke-width=".065" d="m65.778 28.354c2.413 0.608 5.277 1.328 5.802 1.461 0.709 0.176 0.481 0.955-0.198 0.783-0.285-0.072-3.152-0.793-5.624-1.414" stroke="#000" fill="none"/>
			<path d="m65.659 30.229c2.551 0.641 6.278 1.578 6.886 1.73 0.708 0.18 0.481 0.957-0.198 0.785-0.33-0.082-4.085-1.027-6.715-1.688" fill="#ff0"/>
			<path stroke-width=".065" d="m65.659 30.229c2.551 0.641 6.278 1.578 6.886 1.73 0.708 0.18 0.481 0.957-0.198 0.785-0.33-0.082-4.085-1.027-6.715-1.688" stroke="#000" fill="none"/>
			<path d="m44.823 42.148c0 6.098 4.99 11.043 11.09 11.043s11.029-4.945 11.029-11.043v-14.281h-22.119v14.281z" fill="#EC1C2E"/>
			<path stroke-width=".3903" d="m44.823 42.148c0 6.098 4.99 11.043 11.09 11.043s11.029-4.945 11.029-11.043v-14.281h-22.119v14.281z" stroke="#000" fill="none"/>
			<path d="m55.884 40.531" fill="#EC1C2E"/>
			<path stroke-width=".3903" d="m55.884 40.531" stroke="#000" fill="none"/>
			<path d="m44.823 42.148c0 6.098 4.99 11.043 11.09 11.043s11.029-4.945 11.029-11.043v-14.281h-22.119v14.281z" fill="#f00"/>
			<path stroke-width=".1301" d="m55.884 40.531" stroke="#fff" fill="#EC1C2E"/>
			<path d="m49.945 41.512c0 3.598 2.681 6.516 5.953 6.516 3.274 0 5.921-2.918 5.921-6.516v-8.426h-11.874v8.426z" fill="#fff"/>
			<path stroke-width=".065" d="m49.945 41.512c0 3.598 2.681 6.516 5.953 6.516 3.274 0 5.921-2.918 5.921-6.516v-8.426h-11.874v8.426z" stroke="#000" fill="none"/>
			<path d="m55.884 40.557" fill="#fff"/>
			<path stroke-width=".065" d="m55.884 40.557" stroke="#000" fill="none"/>
			<polygon points="48.337 30.328 48.337 28.76 48.983 28.76 48.983 30.328" fill="#ff0"/>
			<polygon stroke-width=".0328" points="48.337 30.328 48.337 28.76 48.983 28.76 48.983 30.328" stroke="#000" fill="none"/>
			<polygon points="47.042 30.328 47.042 28.76 47.688 28.76 47.688 30.328" fill="#ff0"/>
			<polygon stroke-width=".0328" points="47.042 30.328 47.042 28.76 47.688 28.76 47.688 30.328" stroke="#000" fill="none"/>
			<polygon points="45.749 30.328 45.749 28.76 46.396 28.76 46.396 30.328" fill="#ff0"/>
			<polygon stroke-width=".0328" points="45.749 30.328 45.749 28.76 46.396 28.76 46.396 30.328" stroke="#000" fill="none"/>
			<polygon points="47.843 28.953 47.843 28.59 46.888 28.59 46.888 28.953" fill="#ff0"/>
			<polygon stroke-width=".0328" points="47.843 28.953 47.843 28.59 46.888 28.59 46.888 28.953" stroke="#000" fill="none"/>
			<polygon points="48.983 32.139 48.983 29.475 45.749 29.475 45.749 32.139" fill="#ff0"/>
			<polygon stroke-width=".0328" points="48.983 32.139 48.983 29.475 45.749 29.475 45.749 32.139" stroke="#000" fill="none"/>
			<polygon points="49.145 30.414 49.145 30.059 45.587 30.059 45.587 30.414" fill="#ff0"/>
			<polygon stroke-width=".0328" points="49.145 30.414 49.145 30.059 45.587 30.059 45.587 30.414" stroke="#000" fill="none"/>
			<polygon points="49.145 32.496 49.145 32.139 45.587 32.139 45.587 32.496" fill="#ff0"/>
			<polygon stroke-width=".0328" points="49.145 32.496 49.145 32.139 45.587 32.139 45.587 32.496" stroke="#000" fill="none"/>
			<path d="m46.536 32.139v-0.629c0-0.441 0.373-0.799 0.83-0.799s0.829 0.357 0.829 0.799v0.629h-1.659z" fill="#ff0"/>
			<path stroke-width=".0328" d="m46.536 32.139v-0.629c0-0.441 0.373-0.799 0.83-0.799s0.829 0.357 0.829 0.799v0.629h-1.659z" stroke="#000" fill="none"/>
			<path d="m46.868 32.139v-0.484c0-0.34 0.223-0.617 0.498-0.617 0.274 0 0.497 0.277 0.497 0.617v0.484h-0.995z" fill="#ff0"/>
			<path stroke-width=".0328" d="m46.868 32.139v-0.484c0-0.34 0.223-0.617 0.498-0.617 0.274 0 0.497 0.277 0.497 0.617v0.484h-0.995z" stroke="#000" fill="none"/>
			<polygon points="49.127 28.953 49.127 28.59 48.173 28.59 48.173 28.953" fill="#ff0"/>
			<polygon stroke-width=".0328" points="49.127 28.953 49.127 28.59 48.173 28.59 48.173 28.953" stroke="#000" fill="none"/>
			<polygon points="45.604 28.953 45.604 28.59 46.56 28.59 46.56 28.953" fill="#ff0"/>
			<polygon stroke-width=".0328" points="45.604 28.953 45.604 28.59 46.56 28.59 46.56 28.953" stroke="#000" fill="none"/>
			<path d="m47.366 30.543" fill="#ff0"/>
			<path stroke-width=".0328" d="m47.366 30.543" stroke="#000" fill="none"/>
			<polygon points="65.321 30.303 65.321 28.732 65.97 28.732 65.97 30.303" fill="#ff0"/>
			<polygon stroke-width=".0325" points="65.321 30.303 65.321 28.732 65.97 28.732 65.97 30.303" stroke="#000" fill="none"/>
			<polygon points="64.028 30.303 64.028 28.732 64.675 28.732 64.675 30.303" fill="#ff0"/>
			<polygon stroke-width=".0325" points="64.028 30.303 64.028 28.732 64.675 28.732 64.675 30.303" stroke="#000" fill="none"/>
			<polygon points="62.735 30.303 62.735 28.732 63.382 28.732 63.382 30.303" fill="#ff0"/>
			<polygon stroke-width=".0325" points="62.735 30.303 62.735 28.732 63.382 28.732 63.382 30.303" stroke="#000" fill="none"/>
			<polygon points="64.83 28.926 64.83 28.562 63.874 28.562 63.874 28.926" fill="#ff0"/>
			<polygon stroke-width=".0325" points="64.83 28.926 64.83 28.562 63.874 28.562 63.874 28.926" stroke="#000" fill="none"/>
			<polygon points="65.97 32.111 65.97 29.449 62.735 29.449 62.735 32.111" fill="#ff0"/>
			<polygon stroke-width=".0325" points="65.97 32.111 65.97 29.449 62.735 29.449 62.735 32.111" stroke="#000" fill="none"/>
			<polygon points="66.131 30.387 66.131 30.031 62.573 30.031 62.573 30.387" fill="#ff0"/>
			<polygon stroke-width=".0325" points="66.131 30.387 66.131 30.031 62.573 30.031 62.573 30.387" stroke="#000" fill="none"/>
			<polygon points="66.131 32.469 66.131 32.113 62.573 32.113 62.573 32.469" fill="#ff0"/>
			<polygon stroke-width=".0325" points="66.131 32.469 66.131 32.113 62.573 32.113 62.573 32.469" stroke="#000" fill="none"/>
			<path d="m63.522 32.111v-0.627c0-0.443 0.371-0.801 0.83-0.801 0.457 0 0.829 0.357 0.829 0.801v0.627h-1.659z" fill="#ff0"/>
			<path stroke-width=".0325" d="m63.522 32.111v-0.627c0-0.443 0.371-0.801 0.83-0.801 0.457 0 0.829 0.357 0.829 0.801v0.627h-1.659z" stroke="#000" fill="none"/>
			<path d="m63.854 32.111v-0.482c0-0.342 0.223-0.617 0.498-0.617 0.274 0 0.497 0.275 0.497 0.617v0.482h-0.995z" fill="#ff0"/>
			<path stroke-width=".0325" d="m63.854 32.111v-0.482c0-0.342 0.223-0.617 0.498-0.617 0.274 0 0.497 0.275 0.497 0.617v0.482h-0.995z" stroke="#000" fill="none"/>
			<polygon points="66.113 28.926 66.113 28.562 65.159 28.562 65.159 28.926" fill="#ff0"/>
			<polygon stroke-width=".0325" points="66.113 28.926 66.113 28.562 65.159 28.562 65.159 28.926" stroke="#000" fill="none"/>
			<polygon points="62.591 28.926 62.591 28.562 63.546 28.562 63.546 28.926" fill="#ff0"/>
			<polygon stroke-width=".0325" points="62.591 28.926 62.591 28.562 63.546 28.562 63.546 28.926" stroke="#000" fill="none"/>
			<path d="m64.353 30.518" fill="#ff0"/>
			<path stroke-width=".0325" d="m64.353 30.518" stroke="#000" fill="none"/>
			<polygon points="56.86 30.332 56.86 28.764 57.507 28.764 57.507 30.332" fill="#ff0"/>
			<polygon stroke-width=".0325" points="56.86 30.332 56.86 28.764 57.507 28.764 57.507 30.332" stroke="#000" fill="none"/>
			<polygon points="55.567 30.332 55.567 28.764 56.213 28.764 56.213 30.332" fill="#ff0"/>
			<polygon stroke-width=".0325" points="55.567 30.332 55.567 28.764 56.213 28.764 56.213 30.332" stroke="#000" fill="none"/>
			<polygon points="54.272 30.332 54.272 28.764 54.919 28.764 54.919 30.332" fill="#ff0"/>
			<polygon stroke-width=".0325" points="54.272 30.332 54.272 28.764 54.919 28.764 54.919 30.332" stroke="#000" fill="none"/>
			<polygon points="56.368 28.957 56.368 28.594 55.413 28.594 55.413 28.957" fill="#ff0"/>
			<polygon stroke-width=".0325" points="56.368 28.957 56.368 28.594 55.413 28.594 55.413 28.957" stroke="#000" fill="none"/>
			<polygon points="57.507 32.143 57.507 29.479 54.272 29.479 54.272 32.143" fill="#ff0"/>
			<polygon stroke-width=".0325" points="57.507 32.143 57.507 29.479 54.272 29.479 54.272 32.143" stroke="#000" fill="none"/>
			<polygon points="57.669 30.416 57.669 30.062 54.111 30.062 54.111 30.416" fill="#ff0"/>
			<polygon stroke-width=".0325" points="57.669 30.416 57.669 30.062 54.111 30.062 54.111 30.416" stroke="#000" fill="none"/>
			<polygon points="57.669 32.498 57.669 32.143 54.111 32.143 54.111 32.498" fill="#ff0"/>
			<polygon stroke-width=".0325" points="57.669 32.498 57.669 32.143 54.111 32.143 54.111 32.498" stroke="#000" fill="none"/>
			<path d="m55.061 32.143v-0.629c0-0.441 0.371-0.801 0.829-0.801 0.457 0 0.83 0.359 0.83 0.801v0.629h-1.659z" fill="#ff0"/>
			<path stroke-width=".0325" d="m55.061 32.143v-0.629c0-0.441 0.371-0.801 0.829-0.801 0.457 0 0.83 0.359 0.83 0.801v0.629h-1.659z" stroke="#000" fill="none"/>
			<path d="m55.393 32.143v-0.486c0-0.34 0.223-0.615 0.497-0.615 0.275 0 0.498 0.275 0.498 0.615v0.486h-0.995z" fill="#ff0"/>
			<path stroke-width=".0325" d="m55.393 32.143v-0.486c0-0.34 0.223-0.615 0.497-0.615 0.275 0 0.498 0.275 0.498 0.615v0.486h-0.995z" stroke="#000" fill="none"/>
			<polygon points="57.651 28.957 57.651 28.594 56.696 28.594 56.696 28.957" fill="#ff0"/>
			<polygon stroke-width=".0325" points="57.651 28.957 57.651 28.594 56.696 28.594 56.696 28.957" stroke="#000" fill="none"/>
			<polygon points="54.129 28.957 54.129 28.594 55.085 28.594 55.085 28.957" fill="#ff0"/>
			<polygon stroke-width=".0325" points="54.129 28.957 54.129 28.594 55.085 28.594 55.085 28.957" stroke="#000" fill="none"/>
			<path d="m55.89 30.545" fill="#ff0"/>
			<path stroke-width=".0325" d="m55.89 30.545" stroke="#000" fill="none"/>
			<polygon points="48.337 40.35 48.337 38.781 48.983 38.781 48.983 40.35" fill="#ff0"/>
			<polygon stroke-width=".0325" points="48.337 40.35 48.337 38.781 48.983 38.781 48.983 40.35" stroke="#000" fill="none"/>
			<polygon points="47.042 40.35 47.042 38.781 47.688 38.781 47.688 40.35" fill="#ff0"/>
			<polygon stroke-width=".0325" points="47.042 40.35 47.042 38.781 47.688 38.781 47.688 40.35" stroke="#000" fill="none"/>
			<polygon points="45.749 40.35 45.749 38.781 46.396 38.781 46.396 40.35" fill="#ff0"/>
			<polygon stroke-width=".0325" points="45.749 40.35 45.749 38.781 46.396 38.781 46.396 40.35" stroke="#000" fill="none"/>
			<polygon points="47.843 38.975 47.843 38.609 46.888 38.609 46.888 38.975" fill="#ff0"/>
			<polygon stroke-width=".0325" points="47.843 38.975 47.843 38.609 46.888 38.609 46.888 38.975" stroke="#000" fill="none"/>
			<polygon points="48.983 42.158 48.983 39.496 45.749 39.496 45.749 42.158" fill="#ff0"/>
			<polygon stroke-width=".0325" points="48.983 42.158 48.983 39.496 45.749 39.496 45.749 42.158" stroke="#000" fill="none"/>
			<polygon points="49.145 40.434 49.145 40.078 45.587 40.078 45.587 40.434" fill="#ff0"/>
			<polygon stroke-width=".0325" points="49.145 40.434 49.145 40.078 45.587 40.078 45.587 40.434" stroke="#000" fill="none"/>
			<polygon points="49.145 42.516 49.145 42.162 45.587 42.162 45.587 42.516" fill="#ff0"/>
			<polygon stroke-width=".0325" points="49.145 42.516 49.145 42.162 45.587 42.162 45.587 42.516" stroke="#000" fill="none"/>
			<path d="m46.536 42.158v-0.627c0-0.441 0.373-0.801 0.83-0.801s0.829 0.359 0.829 0.801v0.627h-1.659z" fill="#ff0"/>
			<path stroke-width=".0325" d="m46.536 42.158v-0.627c0-0.441 0.373-0.801 0.83-0.801s0.829 0.359 0.829 0.801v0.627h-1.659z" stroke="#000" fill="none"/>
			<path d="m46.868 42.158v-0.484c0-0.34 0.223-0.617 0.498-0.617 0.274 0 0.497 0.277 0.497 0.617v0.484h-0.995z" fill="#ff0"/>
			<path stroke-width=".0325" d="m46.868 42.158v-0.484c0-0.34 0.223-0.617 0.498-0.617 0.274 0 0.497 0.277 0.497 0.617v0.484h-0.995z" stroke="#000" fill="none"/>
			<polygon points="49.127 38.975 49.127 38.609 48.173 38.609 48.173 38.975" fill="#ff0"/>
			<polygon stroke-width=".0325" points="49.127 38.975 49.127 38.609 48.173 38.609 48.173 38.975" stroke="#000" fill="none"/>
			<polygon points="45.604 38.975 45.604 38.609 46.56 38.609 46.56 38.975" fill="#ff0"/>
			<polygon stroke-width=".0325" points="45.604 38.975 45.604 38.609 46.56 38.609 46.56 38.975" stroke="#000" fill="none"/>
			<path d="m47.366 40.562" fill="#ff0"/>
			<path stroke-width=".0325" d="m47.366 40.562" stroke="#000" fill="none"/>
			<polygon points="63.443 40.35 63.443 38.781 62.797 38.781 62.797 40.35" fill="#ff0"/>
			<polygon stroke-width=".0325" points="63.443 40.35 63.443 38.781 62.797 38.781 62.797 40.35" stroke="#000" fill="none"/>
			<polygon points="64.737 40.35 64.737 38.781 64.091 38.781 64.091 40.35" fill="#ff0"/>
			<polygon stroke-width=".0325" points="64.737 40.35 64.737 38.781 64.091 38.781 64.091 40.35" stroke="#000" fill="none"/>
			<polygon points="66.03 40.35 66.03 38.781 65.385 38.781 65.385 40.35" fill="#ff0"/>
			<polygon stroke-width=".0325" points="66.03 40.35 66.03 38.781 65.385 38.781 65.385 40.35" stroke="#000" fill="none"/>
			<polygon points="63.937 38.975 63.937 38.609 64.892 38.609 64.892 38.975" fill="#ff0"/>
			<polygon stroke-width=".0325" points="63.937 38.975 63.937 38.609 64.892 38.609 64.892 38.975" stroke="#000" fill="none"/>
			<polygon points="62.797 42.158 62.797 39.496 66.03 39.496 66.03 42.158" fill="#ff0"/>
			<polygon stroke-width=".0325" points="62.797 42.158 62.797 39.496 66.03 39.496 66.03 42.158" stroke="#000" fill="none"/>
			<polygon points="62.636 40.434 62.636 40.078 66.194 40.078 66.194 40.434" fill="#ff0"/>
			<polygon stroke-width=".0325" points="62.636 40.434 62.636 40.078 66.194 40.078 66.194 40.434" stroke="#000" fill="none"/>
			<polygon points="62.636 42.516 62.636 42.162 66.194 42.162 66.194 42.516" fill="#ff0"/>
			<polygon stroke-width=".0325" points="62.636 42.516 62.636 42.162 66.194 42.162 66.194 42.516" stroke="#000" fill="none"/>
			<path d="m65.243 42.158v-0.627c0-0.441-0.371-0.801-0.828-0.801-0.458 0-0.83 0.359-0.83 0.801v0.627h1.658z" fill="#ff0"/>
			<path stroke-width=".0325" d="m65.243 42.158v-0.627c0-0.441-0.371-0.801-0.828-0.801-0.458 0-0.83 0.359-0.83 0.801v0.627h1.658z" stroke="#000" fill="none"/>
			<path d="m64.911 42.158v-0.484c0-0.34-0.223-0.617-0.496-0.617-0.275 0-0.498 0.277-0.498 0.617v0.484h0.994z" fill="#ff0"/>
			<path stroke-width=".0325" d="m64.911 42.158v-0.484c0-0.34-0.223-0.617-0.496-0.617-0.275 0-0.498 0.277-0.498 0.617v0.484h0.994z" stroke="#000" fill="none"/>
			<polygon points="62.653 38.975 62.653 38.609 63.608 38.609 63.608 38.975" fill="#ff0"/>
			<polygon stroke-width=".0325" points="62.653 38.975 62.653 38.609 63.608 38.609 63.608 38.975" stroke="#000" fill="none"/>
			<polygon points="66.175 38.975 66.175 38.609 65.22 38.609 65.22 38.975" fill="#ff0"/>
			<polygon stroke-width=".0325" points="66.175 38.975 66.175 38.609 65.22 38.609 65.22 38.975" stroke="#000" fill="none"/>
			<path d="m64.415 40.562" fill="#ff0"/>
			<path stroke-width=".0325" d="m64.415 40.562" stroke="#000" fill="none"/>
			<polygon points="51.729 48.229 50.421 47.361 50.779 46.822 52.087 47.689" fill="#ff0"/>
			<polygon stroke-width=".0325" points="51.729 48.229 50.421 47.361 50.779 46.822 52.087 47.689" stroke="#000" fill="none"/>
			<polygon points="51.016 49.307 49.708 48.439 50.065 47.9 51.372 48.768" fill="#ff0"/>
			<polygon stroke-width=".0325" points="51.016 49.307 49.708 48.439 50.065 47.9 51.372 48.768" stroke="#000" fill="none"/>
			<polygon points="50.302 50.385 48.993 49.518 49.351 48.979 50.657 49.846" fill="#ff0"/>
			<polygon stroke-width=".0325" points="50.302 50.385 48.993 49.518 49.351 48.979 50.657 49.846" stroke="#000" fill="none"/>
			<polygon points="50.311 47.879 50.009 47.678 49.48 48.475 49.784 48.676" fill="#ff0"/>
			<polygon stroke-width=".0325" points="50.311 47.879 50.009 47.678 49.48 48.475 49.784 48.676" stroke="#000" fill="none"/>
			<polygon points="53.595 48.689 51.376 47.217 49.589 49.914 51.808 51.385" fill="#ff0"/>
			<polygon stroke-width=".0325" points="53.595 48.689 51.376 47.217 49.589 49.914 51.808 51.385" stroke="#000" fill="none"/>
			<polygon points="52.247 47.6 51.952 47.404 49.985 50.369 50.282 50.566" fill="#ff0"/>
			<polygon stroke-width=".0325" points="52.247 47.6 51.952 47.404 49.985 50.369 50.282 50.566" stroke="#000" fill="none"/>
			<polygon points="53.982 48.75 53.687 48.555 51.721 51.52 52.018 51.717" fill="#ff0"/>
			<polygon stroke-width=".0325" points="53.982 48.75 53.687 48.555 51.721 51.52 52.018 51.717" stroke="#000" fill="none"/>
			<path d="m52.244 50.729s-0.304-0.201-0.523-0.348c-0.368-0.244-0.462-0.752-0.21-1.133 0.254-0.383 0.758-0.494 1.127-0.25 0.234 0.158 0.521 0.348 0.521 0.348l-0.915 1.383z" fill="#ff0"/>
			<path stroke-width=".0325" d="m52.244 50.729s-0.304-0.201-0.523-0.348c-0.368-0.244-0.462-0.752-0.21-1.133 0.254-0.383 0.758-0.494 1.127-0.25 0.234 0.158 0.521 0.348 0.521 0.348l-0.915 1.383z" stroke="#000" fill="none"/>
			<path d="m52.428 50.451s-0.233-0.154-0.404-0.268c-0.283-0.188-0.392-0.525-0.239-0.756 0.152-0.229 0.506-0.262 0.79-0.074 0.181 0.121 0.401 0.268 0.401 0.268l-0.548 0.83z" fill="#ff0"/>
			<path stroke-width=".0325" d="m52.428 50.451s-0.233-0.154-0.404-0.268c-0.283-0.188-0.392-0.525-0.239-0.756 0.152-0.229 0.506-0.262 0.79-0.074 0.181 0.121 0.401 0.268 0.401 0.268l-0.548 0.83z" stroke="#000" fill="none"/>
			<polygon points="51.021 46.809 50.717 46.607 50.19 47.404 50.494 47.605" fill="#ff0"/>
			<polygon stroke-width=".0325" points="51.021 46.809 50.717 46.607 50.19 47.404 50.494 47.605" stroke="#000" fill="none"/>
			<polygon points="49.074 49.746 48.771 49.545 49.298 48.748 49.603 48.949" fill="#ff0"/>
			<polygon stroke-width=".0325" points="49.074 49.746 48.771 49.545 49.298 48.748 49.603 48.949" stroke="#000" fill="none"/>
			<path d="m51.372 49.156" fill="#ff0"/>
			<path stroke-width=".0325" d="m51.372 49.156" stroke="#000" fill="none"/>
			<polygon points="60.022 48.229 61.329 47.361 60.972 46.822 59.665 47.689" fill="#ff0"/>
			<polygon stroke-width=".0325" points="60.022 48.229 61.329 47.361 60.972 46.822 59.665 47.689" stroke="#000" fill="none"/>
			<polygon points="60.735 49.307 62.044 48.439 61.687 47.9 60.378 48.768" fill="#ff0"/>
			<polygon stroke-width=".0325" points="60.735 49.307 62.044 48.439 61.687 47.9 60.378 48.768" stroke="#000" fill="none"/>
			<polygon points="61.45 50.385 62.759 49.518 62.4 48.979 61.093 49.846" fill="#ff0"/>
			<polygon stroke-width=".0325" points="61.45 50.385 62.759 49.518 62.4 48.979 61.093 49.846" stroke="#000" fill="none"/>
			<polygon points="61.44 47.879 61.743 47.678 62.271 48.475 61.968 48.676" fill="#ff0"/>
			<polygon stroke-width=".0325" points="61.44 47.879 61.743 47.678 62.271 48.475 61.968 48.676" stroke="#000" fill="none"/>
			<polygon points="58.155 48.689 60.376 47.217 62.162 49.914 59.942 51.385" fill="#ff0"/>
			<polygon stroke-width=".0325" points="58.155 48.689 60.376 47.217 62.162 49.914 59.942 51.385" stroke="#000" fill="none"/>
			<polygon points="59.503 47.6 59.8 47.404 61.765 50.369 61.47 50.566" fill="#ff0"/>
			<polygon stroke-width=".0325" points="59.503 47.6 59.8 47.404 61.765 50.369 61.47 50.566" stroke="#000" fill="none"/>
			<polygon points="57.77 48.75 58.064 48.555 60.03 51.52 59.734 51.717" fill="#ff0"/>
			<polygon stroke-width=".0325" points="57.77 48.75 58.064 48.555 60.03 51.52 59.734 51.717" stroke="#000" fill="none"/>
			<path d="m59.507 50.729s0.304-0.201 0.524-0.348c0.367-0.244 0.461-0.752 0.21-1.133-0.254-0.383-0.758-0.494-1.127-0.25-0.236 0.158-0.521 0.348-0.521 0.348l0.914 1.383z" fill="#ff0"/>
			<path stroke-width=".0325" d="m59.507 50.729s0.304-0.201 0.524-0.348c0.367-0.244 0.461-0.752 0.21-1.133-0.254-0.383-0.758-0.494-1.127-0.25-0.236 0.158-0.521 0.348-0.521 0.348l0.914 1.383z" stroke="#000" fill="none"/>
			<path d="m59.324 50.451s0.233-0.154 0.403-0.268c0.284-0.188 0.392-0.525 0.24-0.756-0.152-0.229-0.506-0.262-0.79-0.074-0.181 0.121-0.403 0.268-0.403 0.268l0.55 0.83z" fill="#ff0"/>
			<path stroke-width=".0325" d="m59.324 50.451s0.233-0.154 0.403-0.268c0.284-0.188 0.392-0.525 0.24-0.756-0.152-0.229-0.506-0.262-0.79-0.074-0.181 0.121-0.403 0.268-0.403 0.268l0.55 0.83z" stroke="#000" fill="none"/>
			<polygon points="60.731 46.809 61.034 46.607 61.562 47.404 61.258 47.605" fill="#ff0"/>
			<polygon stroke-width=".0325" points="60.731 46.809 61.034 46.607 61.562 47.404 61.258 47.605" stroke="#000" fill="none"/>
			<polygon points="62.677 49.746 62.979 49.545 62.452 48.748 62.149 48.949" fill="#ff0"/>
			<polygon stroke-width=".0325" points="62.677 49.746 62.979 49.545 62.452 48.748 62.149 48.949" stroke="#000" fill="none"/>
			<path d="m60.38 49.156" fill="#ff0"/>
			<path stroke-width=".0325" d="m60.38 49.156" stroke="#000" fill="none"/>
			<path d="m54.446 36.125c0 0.844 0.647 1.525 1.438 1.525s1.43-0.682 1.43-1.525v-1.977h-2.867v1.977h-0.001z" fill="#007AC1"/>
			<path stroke-width=".0328" d="m54.446 36.125c0 0.844 0.647 1.525 1.438 1.525s1.43-0.682 1.43-1.525v-1.977h-2.867v1.977h-0.001z" stroke="#000" fill="none"/>
			<path d="m54.446 40.709c0 0.844 0.647 1.527 1.438 1.527s1.43-0.684 1.43-1.527v-1.975h-2.867v1.975h-0.001z" fill="#007AC1"/>
			<path stroke-width=".0328" d="m54.446 40.709c0 0.844 0.647 1.527 1.438 1.527s1.43-0.684 1.43-1.527v-1.975h-2.867v1.975h-0.001z" stroke="#000" fill="none"/>
			<path d="m54.446 45.293c0 0.844 0.647 1.527 1.438 1.527s1.43-0.684 1.43-1.527v-1.975h-2.867v1.975h-0.001z" fill="#007AC1"/>
			<path stroke-width=".0328" d="m54.446 45.293c0 0.844 0.647 1.527 1.438 1.527s1.43-0.684 1.43-1.527v-1.975h-2.867v1.975h-0.001z" stroke="#000" fill="none"/>
			<path d="m50.739 40.709c0 0.844 0.646 1.527 1.438 1.527 0.79 0 1.43-0.684 1.43-1.527v-1.975h-2.867v1.975h-0.001z" fill="#007AC1"/>
			<path stroke-width=".0328" d="m50.739 40.709c0 0.844 0.646 1.527 1.438 1.527 0.79 0 1.43-0.684 1.43-1.527v-1.975h-2.867v1.975h-0.001z" stroke="#000" fill="none"/>
			<path d="m61.021 40.709c0 0.844-0.646 1.527-1.438 1.527-0.79 0-1.428-0.684-1.428-1.527v-1.975h2.866v1.975z" fill="#007AC1"/>
			<path stroke-width=".0328" d="m61.021 40.709c0 0.844-0.646 1.527-1.438 1.527-0.79 0-1.428-0.684-1.428-1.527v-1.975h2.866v1.975z" stroke="#000" fill="none"/>
			<path d="m55.88 35.916c0.147 0 0.267-0.119 0.267-0.266 0-0.148-0.12-0.268-0.267-0.268s-0.267 0.119-0.267 0.268c0 0.147 0.12 0.266 0.267 0.266z" fill="#fff"/>
			<path d="m55.198 35.029c0.148 0 0.268-0.119 0.268-0.266 0-0.148-0.119-0.268-0.268-0.268-0.146 0-0.267 0.119-0.267 0.268 0.001 0.147 0.121 0.266 0.267 0.266z" fill="#fff"/>
			<path d="m56.561 35.029c-0.148 0-0.267-0.119-0.267-0.266 0-0.148 0.118-0.268 0.267-0.268 0.147 0 0.267 0.119 0.267 0.268-0.001 0.147-0.12 0.266-0.267 0.266z" fill="#fff"/>
			<path d="m55.198 36.27c0.148 0 0.268 0.119 0.268 0.268 0 0.148-0.119 0.268-0.268 0.268-0.146 0-0.267-0.119-0.267-0.268 0.001-0.149 0.121-0.268 0.267-0.268z" fill="#fff"/>
			<path d="m56.561 36.27c-0.148 0-0.267 0.119-0.267 0.268 0 0.148 0.118 0.268 0.267 0.268 0.147 0 0.267-0.119 0.267-0.268-0.001-0.149-0.12-0.268-0.267-0.268z" fill="#fff"/>
			<path d="m55.88 40.502c0.147 0 0.267-0.119 0.267-0.268 0-0.147-0.12-0.268-0.267-0.268s-0.267 0.121-0.267 0.268c0 0.149 0.12 0.268 0.267 0.268z" fill="#fff"/>
			<path d="m55.198 39.613c0.148 0 0.268-0.117 0.268-0.266 0-0.148-0.119-0.268-0.268-0.268-0.146 0-0.267 0.119-0.267 0.268 0.001 0.149 0.121 0.266 0.267 0.266z" fill="#fff"/>
			<path d="m56.561 39.613c-0.148 0-0.267-0.117-0.267-0.266 0-0.148 0.118-0.268 0.267-0.268 0.147 0 0.267 0.119 0.267 0.268-0.001 0.149-0.12 0.266-0.267 0.266z" fill="#fff"/>
			<path d="m55.198 40.855c0.148 0 0.268 0.119 0.268 0.268 0 0.146-0.119 0.266-0.268 0.266-0.146 0-0.267-0.119-0.267-0.266 0.001-0.148 0.121-0.268 0.267-0.268z" fill="#fff"/>
			<path d="m56.561 40.855c-0.148 0-0.267 0.119-0.267 0.268 0 0.146 0.118 0.266 0.267 0.266 0.147 0 0.267-0.119 0.267-0.266-0.001-0.148-0.12-0.268-0.267-0.268z" fill="#fff"/>
			<path d="m55.88 45.086c0.147 0 0.267-0.119 0.267-0.266 0-0.148-0.12-0.27-0.267-0.27s-0.267 0.121-0.267 0.27c0 0.147 0.12 0.266 0.267 0.266z" fill="#fff"/>
			<path d="m55.198 44.201c0.148 0 0.268-0.121 0.268-0.269 0-0.147-0.119-0.268-0.268-0.268-0.146 0-0.267 0.121-0.267 0.268 0.001 0.148 0.121 0.269 0.267 0.269z" fill="#fff"/>
			<path d="m56.561 44.201c-0.148 0-0.267-0.121-0.267-0.269 0-0.147 0.118-0.268 0.267-0.268 0.147 0 0.267 0.121 0.267 0.268-0.001 0.148-0.12 0.269-0.267 0.269z" fill="#fff"/>
			<path d="m55.198 45.439c0.148 0 0.268 0.119 0.268 0.268 0 0.148-0.119 0.268-0.268 0.268-0.146 0-0.267-0.119-0.267-0.268 0.001-0.148 0.121-0.268 0.267-0.268z" fill="#fff"/>
			<path d="m56.561 45.439c-0.148 0-0.267 0.119-0.267 0.268 0 0.148 0.118 0.268 0.267 0.268 0.147 0 0.267-0.119 0.267-0.268-0.001-0.148-0.12-0.268-0.267-0.268z" fill="#fff"/>
			<path d="m52.173 40.502c0.149 0 0.268-0.119 0.268-0.268 0-0.147-0.119-0.268-0.268-0.268-0.148 0-0.267 0.121-0.267 0.268-0.001 0.149 0.118 0.268 0.267 0.268z" fill="#fff"/>
			<path d="m51.491 39.613c0.148 0 0.269-0.117 0.269-0.266 0-0.148-0.12-0.268-0.269-0.268-0.146 0-0.267 0.119-0.267 0.268 0.001 0.149 0.121 0.266 0.267 0.266z" fill="#fff"/>
			<path d="m52.854 39.613c-0.147 0-0.269-0.117-0.269-0.266 0-0.148 0.121-0.268 0.269-0.268s0.267 0.119 0.267 0.268c-0.001 0.149-0.12 0.266-0.267 0.266z" fill="#fff"/>
			<path d="m51.491 40.855c0.148 0 0.269 0.119 0.269 0.268 0 0.146-0.12 0.266-0.269 0.266-0.146 0-0.267-0.119-0.267-0.266 0.001-0.148 0.121-0.268 0.267-0.268z" fill="#fff"/>
			<path d="m52.854 40.855c-0.147 0-0.269 0.119-0.269 0.268 0 0.146 0.121 0.266 0.269 0.266s0.267-0.119 0.267-0.266c-0.001-0.148-0.12-0.268-0.267-0.268z" fill="#fff"/>
			<path d="m59.585 40.502c-0.146 0-0.266-0.119-0.266-0.268 0-0.147 0.119-0.268 0.266-0.268 0.15 0 0.27 0.121 0.27 0.268-0.001 0.149-0.121 0.268-0.27 0.268z" fill="#fff"/>
			<path d="m60.268 39.613c-0.148 0-0.269-0.117-0.269-0.266 0-0.148 0.121-0.268 0.269-0.268 0.147 0 0.267 0.119 0.267 0.268-0.001 0.149-0.12 0.266-0.267 0.266z" fill="#fff"/>
			<path d="m58.905 39.613c0.148 0 0.267-0.117 0.267-0.266 0-0.148-0.119-0.268-0.267-0.268-0.146 0-0.268 0.119-0.268 0.268 0.001 0.149 0.122 0.266 0.268 0.266z" fill="#fff"/>
			<path d="m60.268 40.855c-0.148 0-0.269 0.119-0.269 0.268 0 0.146 0.121 0.266 0.269 0.266 0.147 0 0.267-0.119 0.267-0.266-0.001-0.148-0.12-0.268-0.267-0.268z" fill="#fff"/>
			<path d="m58.905 40.855c0.148 0 0.267 0.119 0.267 0.268 0 0.146-0.119 0.266-0.267 0.266-0.146 0-0.268-0.119-0.268-0.266 0.001-0.148 0.122-0.268 0.268-0.268z" fill="#fff"/>
</g>
</svg>
