<?xml version="1.0" encoding="UTF-8" standalone="no"?>
<!-- Generator: Adobe Illustrator 18.0.0, SVG Export Plug-In . SVG Version: 6.00 Build 0)  -->
<!DOCTYPE svg  PUBLIC '-//W3C//DTD SVG 1.1//EN'  'http://www.w3.org/Graphics/SVG/1.1/DTD/svg11.dtd'>
<svg style="enable-background:new 0 0 144 80" xmlns="http://www.w3.org/2000/svg" xml:space="preserve" version="1.1" y="0px" x="0px" xmlns:xlink="http://www.w3.org/1999/xlink" viewBox="0 0 144 80">
<g id="VEN">
		<polygon points="144 53.333 0 53.333 0 26.667 144 26.667" fill="#1F429A"/>
		<polygon stroke-width=".1521" points="144 53.333 0 53.333 0 26.667 144 26.667" stroke="#000" fill="none"/>
		<polygon points="144 26.667 0 26.667 0 0 144 0" fill="#F6D016"/>
		<polygon stroke-width=".1521" points="144 26.667 0 26.667 0 0 144 0" stroke="#000" fill="none"/>
		<polygon points="0 80 144 80 144 53.333 0 53.333" fill="#CE202C"/>
		<polygon stroke-width=".1521" points="0 80 144 80 144 53.333 0 53.333" stroke="#000" fill="none"/>
		<g fill="#fff">
			<polygon points="73.985 29.301 73.237 31.628 70.776 31.628 72.774 33.071 72.007 35.396 73.985 33.951 75.962 35.396 75.206 33.055 77.193 31.637 74.743 31.637"/>
			<polygon points="64.173 31.018 63.425 33.341 60.964 33.341 62.964 34.788 62.194 37.112 64.173 35.669 66.152 37.112 65.395 34.769 67.382 33.351 64.931 33.351"/>
			<polygon points="55.575 35.975 54.825 38.301 52.365 38.301 54.364 39.746 53.595 42.07 55.575 40.626 57.554 42.07 56.794 39.729 58.784 38.312 56.333 38.312"/>
			<polygon points="49.173 43.591 48.425 45.915 45.965 45.915 47.962 47.361 47.196 49.687 49.173 48.243 51.151 49.687 50.394 47.343 52.381 45.924 49.931 45.924"/>
			<polygon points="83.754 31.018 84.503 33.341 86.966 33.341 84.965 34.788 85.732 37.112 83.754 35.669 81.778 37.112 82.534 34.769 80.548 33.351 82.998 33.351"/>
			<polygon points="92.354 35.975 93.104 38.301 95.563 38.301 93.565 39.746 94.335 42.07 92.354 40.626 90.376 42.07 91.134 39.729 89.146 38.312 91.597 38.312"/>
			<polygon points="98.756 43.591 99.504 45.915 101.96 45.915 99.966 47.361 100.74 49.687 98.756 48.243 96.777 49.687 97.535 47.343 95.548 45.924 97.999 45.924"/>
		</g>
</g>
</svg>
