<?xml version="1.0" encoding="UTF-8" standalone="no"?>
<!-- Generator: Adobe Illustrator 18.0.0, SVG Export Plug-In . SVG Version: 6.00 Build 0)  -->
<!DOCTYPE svg  PUBLIC '-//W3C//DTD SVG 1.1//EN'  'http://www.w3.org/Graphics/SVG/1.1/DTD/svg11.dtd'>
<svg style="enable-background:new 0 0 144 80" xmlns="http://www.w3.org/2000/svg" xml:space="preserve" version="1.1" y="0px" x="0px" xmlns:xlink="http://www.w3.org/1999/xlink" viewBox="0 0 144 80">
<g id="PAR">
			<polygon points="144 26.666 0 26.666 0 0 144 0" fill="#CE1126"/>
			<polygon points="144 80 0 80 0 53.332 144 53.332" fill="#0038A8"/>
			<polygon points="144 53.332 0 53.332 0 26.666 144 26.666" fill="#fff"/>
			<path d="m72.001 48.766c4.84 0 8.766-3.925 8.766-8.767 0-4.84-3.926-8.765-8.766-8.765-4.842 0-8.768 3.925-8.768 8.765 0 4.842 3.926 8.767 8.768 8.767z" fill="#fff"/>
			<path stroke-linejoin="round" d="m72.001 48.766c4.84 0 8.766-3.925 8.766-8.767 0-4.84-3.926-8.765-8.766-8.765-4.842 0-8.768 3.925-8.768 8.765 0 4.842 3.926 8.767 8.768 8.767v0z" stroke="#000" stroke-linecap="round" stroke-width=".1389" fill="none"/>
			<path d="m72.001 47.929c4.377 0 7.93-3.55 7.93-7.93 0-4.378-3.553-7.929-7.93-7.929-4.379 0-7.932 3.551-7.932 7.929 0 4.38 3.553 7.93 7.932 7.93z" fill="#EC1C2E"/>
			<path d="m66.876 44.617s-0.178-0.224-0.234-0.293c-0.055-0.067-0.164-0.071-0.264 0.008-0.098 0.078-0.104 0.188-0.039 0.268 0.061 0.077 0.221 0.273 0.221 0.273l0.316-0.256 0.213-0.172 0.463-0.373 0.174 0.215-1.191 0.964s-0.358-0.442-0.479-0.593c-0.119-0.148-0.021-0.375 0.148-0.512 0.172-0.139 0.379-0.109 0.426-0.051-0.061-0.076-0.035-0.225 0.113-0.345 0.072-0.06 0.332-0.269 0.332-0.269l0.17 0.208s-0.135 0.108-0.281 0.227c-0.145 0.116-0.133 0.208-0.047 0.314 0.09 0.11 0.172 0.214 0.172 0.214l-0.213 0.173z" fill="#FFF100"/>
			<path d="m77.739 36.297s0.145 0.25 0.188 0.326c0.045 0.074 0.152 0.097 0.262 0.033 0.107-0.064 0.133-0.17 0.08-0.259-0.049-0.085-0.178-0.304-0.178-0.304l-0.352 0.204-0.236 0.139-0.514 0.3-0.139-0.242s1.326-0.771 1.324-0.769c0 0 0.285 0.49 0.381 0.658 0.096 0.164-0.033 0.373-0.223 0.482-0.189 0.113-0.393 0.053-0.43-0.015 0.049 0.083 0.002 0.229-0.162 0.323-0.082 0.049-0.371 0.215-0.371 0.215l-0.135-0.231s0.148-0.087 0.312-0.179c0.158-0.095 0.16-0.188 0.092-0.306-0.07-0.12-0.137-0.237-0.137-0.237l0.238-0.138z" fill="#FFF100"/>
			<polygon points="65.312 42.909 65.616 43.524 65.921 43.376 65.649 42.821 65.901 42.696 66.175 43.251 66.536 43.072 66.233 42.456 66.456 42.346 66.884 43.215 65.509 43.893 65.083 43.021" fill="#FFF100"/>
			<path d="m65.495 41.982s-0.471 0.113-0.469 0.115c0 0-0.037-0.15-0.064-0.26-0.025-0.109 0.02-0.225 0.164-0.26 0.143-0.035 0.275 0.022 0.305 0.146 0.031 0.126 0.064 0.259 0.064 0.259l0.232-0.058s-0.043-0.172-0.078-0.317c-0.059-0.239-0.344-0.328-0.582-0.27-0.266 0.065-0.426 0.276-0.369 0.503 0.078 0.325 0.139 0.565 0.139 0.565l1.486-0.365-0.06-0.247-0.535 0.131-0.233 0.058z" fill="#FFF100"/>
			<path d="m75.405 34.187s0.266-0.404 0.264-0.402c0 0 0.129 0.083 0.223 0.144 0.094 0.062 0.139 0.179 0.059 0.303-0.08 0.125-0.215 0.174-0.324 0.104-0.106-0.073-0.222-0.149-0.222-0.149l-0.133 0.202s0.15 0.098 0.275 0.178c0.205 0.134 0.475 0.005 0.609-0.2 0.148-0.229 0.123-0.491-0.072-0.618-0.281-0.186-0.488-0.321-0.488-0.321l-0.84 1.284 0.215 0.139 0.301-0.461 0.133-0.203z" fill="#FFF100"/>
			<path d="m65.767 40.295c-0.002-0.189-0.143-0.236-0.271-0.234-0.129 0.002-1.012 0.022-1.012 0.022l-0.006-0.268s0.807-0.018 1.008-0.022c0.246-0.005 0.525 0.104 0.535 0.498 0.01 0.391-0.266 0.516-0.514 0.52-0.199 0.005-1.006 0.023-1.006 0.023l-0.008-0.268s0.883-0.021 1.014-0.023c0.129-0.003 0.265-0.058 0.26-0.248z" fill="#FFF100"/>
			<path d="m64.94 39.22c0.184 0.038 0.402 0.085 0.592 0.124l0.057-0.27c-0.09-0.021-0.178-0.039-0.178-0.039s0.053-0.266 0.072-0.358c0.02-0.089 0.104-0.132 0.227-0.106s0.188 0.103 0.17 0.19c-0.02 0.09-0.076 0.358-0.076 0.358s-0.109-0.025-0.215-0.045l-0.057 0.27c0.268 0.057 0.48 0.101 0.48 0.101s0.076-0.366 0.123-0.597c0.072-0.341-0.166-0.482-0.35-0.52-0.184-0.04-0.289 0.002-0.391 0.072-0.066-0.102-0.176-0.178-0.291-0.2-0.256-0.055-0.428 0.148-0.482 0.405-0.08 0.375-0.109 0.523-0.109 0.523s0.186 0.04 0.428 0.092l0.057-0.271c-0.084-0.017-0.17-0.035-0.176-0.037 0 0 0.051-0.232 0.072-0.332 0.02-0.101 0.135-0.131 0.201-0.117 0.041 0.008 0.156 0.062 0.129 0.186-0.027 0.127-0.07 0.334-0.07 0.334s-0.078-0.017-0.156-0.033l-0.057 0.27z" fill="#FFF100"/>
			<polygon points="65.05 37.176 66.19 37.692 66.446 37.129 66.7 37.244 66.329 38.061 64.937 37.428" fill="#FFF100"/>
			<polygon points="66.853 36.987 65.573 36.146 65.726 35.914 67.007 36.755" fill="#FFF100"/>
			<path d="m67.056 35.105c-0.068-0.063-0.234-0.129-0.383 0.031-0.148 0.156-0.072 0.364 0.148 0.571 0.217 0.203 0.459 0.251 0.586 0.114 0.127-0.135 0.074-0.316-0.012-0.396l0.166-0.177c0.232 0.218 0.238 0.531 0.021 0.765-0.221 0.235-0.596 0.186-0.932-0.128-0.336-0.315-0.406-0.686-0.172-0.933 0.232-0.251 0.568-0.189 0.742-0.024l-0.164 0.177z" fill="#FFF100"/>
			<path d="m68.321 34.631c-0.068 0.044-0.129 0.085-0.129 0.085l-0.193-0.617 0.486 0.424c0-0.001-0.086 0.055-0.164 0.108l0.137 0.214c0.111-0.073 0.229-0.15 0.229-0.15l0.244 0.214 0.219-0.143-1.213-1.038-0.256 0.169 0.471 1.522 0.217-0.142-0.096-0.31s0.09-0.06 0.186-0.123l-0.138-0.213z" fill="#FFF100"/>
			<path d="m76.642 35.427c-0.057-0.057-0.105-0.109-0.105-0.109l0.568-0.306-0.328 0.557c-0.001-0.001-0.069-0.074-0.135-0.142l-0.186 0.177c0.092 0.094 0.189 0.195 0.189 0.195l-0.164 0.279 0.182 0.19 0.793-1.383-0.213-0.223-1.41 0.746 0.182 0.188 0.285-0.154s0.074 0.078 0.156 0.162l0.186-0.177z" fill="#FFF100"/>
			<path d="m78.243 38.057c-0.023-0.076-0.043-0.147-0.043-0.147l0.645-0.011-0.545 0.347s-0.029-0.098-0.057-0.189l-0.246 0.073c0.039 0.126 0.08 0.26 0.08 0.262l-0.273 0.173 0.074 0.25 1.34-0.868-0.09-0.294-1.596 0.018 0.076 0.249 0.324-0.006s0.031 0.104 0.064 0.216l0.247-0.073z" fill="#FFF100"/>
			<path d="m78.007 42.677c0.033-0.073 0.064-0.14 0.062-0.142l0.494 0.42-0.639-0.101c0.001 0 0.044-0.092 0.083-0.177l-0.23-0.108c-0.055 0.119-0.113 0.248-0.113 0.248l-0.318-0.05-0.109 0.235 1.576 0.234 0.127-0.281-1.209-1.038-0.107 0.237 0.248 0.209s-0.047 0.1-0.094 0.205l0.229 0.109z" fill="#FFF100"/>
			<path d="m70.558 33.963c0.084-0.017 0.316-0.107 0.219-0.582-0.088-0.436-0.326-0.424-0.412-0.405-0.045 0.008-0.225 0.044-0.225 0.044s0.201 0.981 0.201 0.986 0.133-0.026 0.217-0.043l0.141 0.246c-0.31 0.064-0.557 0.114-0.557 0.114l-0.305-1.501c0.137-0.027 0.342-0.07 0.51-0.104 0.166-0.035 0.549-0.058 0.682 0.596 0.082 0.406-0.016 0.831-0.33 0.895l-0.141-0.246z" fill="#FFF100"/>
			<polygon points="72.601 32.809 71.913 32.789 71.901 33.129 72.521 33.146 72.511 33.429 71.894 33.41 71.882 33.814 72.569 33.834 72.563 34.083 71.593 34.055 71.638 32.522 72.606 32.553" fill="#FFF100"/>
			<polygon points="73.522 32.687 73.229 33.905 73.831 34.049 73.767 34.322 72.894 34.112 73.253 32.623" fill="#FFF100"/>
			<path d="m79.028 39.943c0.148-0.062 0.236-0.171 0.23-0.311-0.01-0.208-0.221-0.333-0.527-0.319-0.303 0.015-0.512 0.16-0.498 0.371 0.01 0.177 0.135 0.287 0.336 0.292l-0.014-0.272 0.24-0.011 0.021 0.504-0.777 0.034-0.008-0.162c0.051-0.002 0.125-0.013 0.172-0.03-0.135-0.07-0.213-0.193-0.23-0.349-0.033-0.32 0.295-0.606 0.748-0.628 0.455-0.021 0.766 0.196 0.781 0.56 0.014 0.286-0.184 0.532-0.463 0.544l-0.011-0.223z" fill="#FFF100"/>
			<path d="m78.144 41.138c-0.037 0.187 0.09 0.263 0.217 0.287s0.992 0.191 0.992 0.191l-0.051 0.263s-0.791-0.153-0.988-0.189c-0.242-0.046-0.492-0.215-0.42-0.601 0.074-0.383 0.369-0.448 0.611-0.399 0.197 0.036 0.988 0.188 0.988 0.188l-0.049 0.265s-0.867-0.167-0.994-0.191c-0.127-0.026-0.271-0.002-0.306 0.186z" fill="#FFF100"/>
			<polygon points="76.823 43.601 77.253 43.938 78.296 44.21 78.112 44.439 77.417 44.232 77.78 44.863 77.597 45.095 77.089 44.143 76.663 43.808" fill="#FFF100"/>
			<path d="m72.001 45.634c3.109 0 5.631-2.524 5.631-5.635 0-3.11-2.521-5.633-5.631-5.633-3.111 0-5.635 2.522-5.635 5.633 0 3.11 2.524 5.635 5.635 5.635z" fill="#fff"/>
			<path d="m72.001 42.644c1.459 0 2.643-1.185 2.643-2.645 0-1.459-1.184-2.643-2.643-2.643-1.463 0-2.645 1.184-2.645 2.643 0 1.46 1.182 2.645 2.645 2.645z" fill="#007CC1"/>
			<path d="m74.44 36.52c0.24 0.195 0.227 0.399 0.369 0.592 0.084 0.062 0.162 0.104 0.225 0.117-0.195-0.244-0.277-0.479-0.367-0.848-0.092-0.366-0.369-0.254-0.48-0.53-0.113-0.274-0.135-0.102-0.17 0.006-0.029 0.092-0.016 0.265 0.039 0.411 0.125 0.063 0.257 0.148 0.384 0.252z" fill="#009266"/>
			<path stroke-linejoin="round" d="m74.44 36.52c0.24 0.195 0.227 0.399 0.369 0.592 0.084 0.062 0.162 0.104 0.225 0.117-0.195-0.244-0.277-0.479-0.367-0.848-0.092-0.366-0.369-0.254-0.48-0.53-0.113-0.274-0.135-0.102-0.17 0.006-0.029 0.092-0.016 0.265 0.039 0.411 0.125 0.063 0.257 0.148 0.384 0.252v0z" stroke="#000" stroke-linecap="round" stroke-width=".0347" fill="none"/>
			<path d="m71.976 43.914c-0.164-0.031-0.379-0.052-0.459 0.009 0.336 0.319 0.811 0.55 1.186 0.374-0.282-0.215-0.589-0.353-0.727-0.383z" fill="#009266"/>
			<path stroke-linejoin="round" d="m71.976 43.914c-0.164-0.031-0.379-0.052-0.459 0.009 0.336 0.319 0.811 0.55 1.186 0.374-0.282-0.215-0.589-0.353-0.727-0.383v0z" stroke="#000" stroke-linecap="round" stroke-width=".0347" fill="none"/>
			<path d="m71.976 43.914c0.436 0.123 0.957 0.486 1.137 0.836 0.102 0.195 0.68 0.156 0.525-0.062-0.36-0.505-1.157-1.087-1.662-0.774z" fill="#009266"/>
			<path stroke-linejoin="round" d="m71.976 43.914c0.436 0.123 0.957 0.486 1.137 0.836 0.102 0.195 0.68 0.156 0.525-0.062-0.36-0.505-1.157-1.087-1.662-0.774v0z" stroke="#000" stroke-linecap="round" stroke-width=".0347" fill="none"/>
			<path d="m73.638 44.688c0.154 0.218-0.424 0.257-0.525 0.062-0.05-0.101 0.39-0.25 0.525-0.062z" fill="#009266"/>
			<path stroke-linejoin="round" d="m73.638 44.688c0.154 0.218-0.424 0.257-0.525 0.062-0.05-0.101 0.39-0.25 0.525-0.062v0z" stroke="#000" stroke-linecap="round" stroke-width=".0347" fill="none"/>
			<path d="m71.517 43.923c-0.758-0.224-1.74-0.478-2.713-0.453-0.109 0.003-0.076 0.117-0.041 0.174 0.035 0.056 0.051 0.075 0.057 0.175 0.006 0.096 0.084 0.109 0.311 0.146 0.531 0.087 1.725 0.245 2.721 0.215v-0.002c-0.123-0.07-0.236-0.158-0.335-0.255z" fill="#009266"/>
			<path stroke-linejoin="round" d="m71.517 43.923c-0.758-0.224-1.74-0.478-2.713-0.453-0.109 0.003-0.076 0.117-0.041 0.174 0.035 0.056 0.051 0.075 0.057 0.175 0.006 0.096 0.084 0.109 0.311 0.146 0.531 0.087 1.725 0.245 2.721 0.215v-0.002c-0.123-0.07-0.236-0.158-0.335-0.255v0z" stroke="#000" stroke-linecap="round" stroke-width=".0347" fill="none"/>
			<path d="m71.243 44.177c-0.27 0.123-0.574 0.288-0.719 0.396-0.291 0.215 0.594 0.338 0.68 0.215 0.047-0.064 0.199-0.501 0.512-0.605-0.156 0.001-0.315 0-0.473-0.006z" fill="#009266"/>
			<path stroke-linejoin="round" d="m71.243 44.177c-0.27 0.123-0.574 0.288-0.719 0.396-0.291 0.215 0.594 0.338 0.68 0.215 0.047-0.064 0.199-0.501 0.512-0.605-0.156 0.001-0.315 0-0.473-0.006v0z" stroke="#000" stroke-linecap="round" stroke-width=".0347" fill="none"/>
			<path d="m71.204 44.787c-0.086 0.123-0.971 0-0.68-0.215 0.088-0.061 0.768 0.032 0.68 0.215z" fill="#009266"/>
			<path stroke-linejoin="round" d="m71.204 44.787c-0.086 0.123-0.971 0-0.68-0.215 0.088-0.061 0.768 0.032 0.68 0.215v0z" stroke="#000" stroke-linecap="round" stroke-width=".0347" fill="none"/>
			<path d="m71.517 43.923c-0.607-0.307-1.564-0.858-2.039-1.763-0.07-0.134-0.191-0.283-0.205 0.091-0.016 0.336 0.209 0.89 0.578 1.287 0.605 0.089 1.181 0.242 1.666 0.385z" fill="#009266"/>
			<path stroke-linejoin="round" d="m71.517 43.923c-0.607-0.307-1.564-0.858-2.039-1.763-0.07-0.134-0.191-0.283-0.205 0.091-0.016 0.336 0.209 0.89 0.578 1.287 0.605 0.089 1.181 0.242 1.666 0.385v0z" stroke="#000" stroke-linecap="round" stroke-width=".0347" fill="none"/>
			<path d="m69.478 42.16c0.1 0.187 0.219 0.36 0.35 0.517 0.207 0.099 0.469 0.202 0.691 0.237 0.148 0.021 0.176-0.037 0.006-0.108-0.168-0.071-0.516-0.372-0.832-0.648-0.207-0.18-0.318-0.212-0.373-0.13 0.046-0.049 0.113 0.045 0.158 0.132z" fill="#009266"/>
			<path stroke-linejoin="round" d="m69.478 42.16c0.1 0.187 0.219 0.36 0.35 0.517 0.207 0.099 0.469 0.202 0.691 0.237 0.148 0.021 0.176-0.037 0.006-0.108-0.168-0.071-0.516-0.372-0.832-0.648-0.207-0.18-0.318-0.212-0.373-0.13 0.046-0.049 0.113 0.045 0.158 0.132v0z" stroke="#000" stroke-linecap="round" stroke-width=".0347" fill="none"/>
			<path d="m69.663 44.043c-0.213-0.027-0.395-0.055-0.533-0.078-0.193-0.031-0.279-0.047-0.303-0.11 0.025 0.104 0.09 0.155 0.273 0.233 0.205 0.086 0.506 0.251 0.617 0.336 0.113 0.087 0.332 0.072 0.184-0.123-0.088-0.117-0.166-0.196-0.238-0.258z" fill="#009266"/>
			<path stroke-linejoin="round" d="m69.663 44.043c-0.213-0.027-0.395-0.055-0.533-0.078-0.193-0.031-0.279-0.047-0.303-0.11 0.025 0.104 0.09 0.155 0.273 0.233 0.205 0.086 0.506 0.251 0.617 0.336 0.113 0.087 0.332 0.072 0.184-0.123-0.088-0.117-0.166-0.196-0.238-0.258v0z" stroke="#000" stroke-linecap="round" stroke-width=".0347" fill="none"/>
			<polygon points="68.813 43.808 68.819 43.818 68.819 43.808" fill="#009266"/>
			<polygon stroke-linejoin="round" stroke-linecap="round" stroke="#000" points="68.813 43.808 68.819 43.818 68.819 43.808" stroke-width=".0347" fill="none"/>
			<path d="m69.931 43.552c0.021 0.002 0.043 0.007 0.064 0.009-0.021-0.002-0.043-0.007-0.064-0.009z" fill="#009266"/>
			<path stroke-linejoin="round" d="m69.931 43.552c0.021 0.002 0.043 0.007 0.064 0.009-0.021-0.002-0.043-0.007-0.064-0.009v0z" stroke="#000" stroke-linecap="round" stroke-width=".0347" fill="none"/>
			<path d="m69.851 43.538c-0.105-0.114-0.199-0.238-0.277-0.369-0.568-0.462-1.326-0.966-1.703-1.077-0.18-0.053-0.16-0.024-0.178 0.184-0.016 0.207-0.195 0.324 0.23 0.529 0.324 0.154 0.803 0.405 1.17 0.667 0.266 0.007 0.531 0.033 0.791 0.073-0.01-0.002-0.024-0.005-0.033-0.007z" fill="#009266"/>
			<path stroke-linejoin="round" d="m69.851 43.538c-0.105-0.114-0.199-0.238-0.277-0.369-0.568-0.462-1.326-0.966-1.703-1.077-0.18-0.053-0.16-0.024-0.178 0.184-0.016 0.207-0.195 0.324 0.23 0.529 0.324 0.154 0.803 0.405 1.17 0.667 0.266 0.007 0.531 0.033 0.791 0.073-0.01-0.002-0.024-0.005-0.033-0.007v0z" stroke="#000" stroke-linecap="round" stroke-width=".0347" fill="none"/>
			<path d="m67.923 42.805c-0.334-0.161-0.295-0.268-0.256-0.404l-0.002-0.003c-0.047 0.189-0.066 0.214 0.107 0.424 0.174 0.21 0.328 0.541 0.363 0.688 0.035 0.148 0.137 0.17 0.152-0.01 0.012-0.135 0-0.361-0.016-0.521-0.125-0.067-0.245-0.125-0.348-0.174z" fill="#009266"/>
			<path stroke-linejoin="round" d="m67.923 42.805c-0.334-0.161-0.295-0.268-0.256-0.404l-0.002-0.003c-0.047 0.189-0.066 0.214 0.107 0.424 0.174 0.21 0.328 0.541 0.363 0.688 0.035 0.148 0.137 0.17 0.152-0.01 0.012-0.135 0-0.361-0.016-0.521-0.125-0.067-0.245-0.125-0.348-0.174v0z" stroke="#000" stroke-linecap="round" stroke-width=".0347" fill="none"/>
			<polygon points="69.634 43.262 69.636 43.27" fill="#009266"/>
			<polygon stroke-linejoin="round" stroke-linecap="round" stroke="#000" points="69.634 43.262 69.636 43.27" stroke-width=".0347" fill="none"/>
			<polygon points="69.696 43.35 69.706 43.365" fill="#009266"/>
			<polygon stroke-linejoin="round" stroke-linecap="round" stroke="#000" points="69.696 43.35 69.706 43.365" stroke-width=".0347" fill="none"/>
			<path d="m69.761 43.437c0.006 0.006 0.012 0.013 0.018 0.019-0.007-0.007-0.012-0.014-0.018-0.019z" fill="#009266"/>
			<path stroke-linejoin="round" d="m69.761 43.437c0.006 0.006 0.012 0.013 0.018 0.019-0.007-0.007-0.012-0.014-0.018-0.019v0z" stroke="#000" stroke-linecap="round" stroke-width=".0347" fill="none"/>
			<path d="m69.573 43.169c-0.199-0.327-0.31-0.678-0.301-0.918 0.002-0.066 0.008-0.115 0.016-0.151-0.211-0.406-0.453-1.049-0.418-1.883 0.006-0.113-0.057-0.284-0.266 0.203-0.166 0.389-0.189 1.137-0.01 2.044 0.323 0.204 0.678 0.461 0.979 0.705z" fill="#009266"/>
			<path stroke-linejoin="round" d="m69.573 43.169c-0.199-0.327-0.31-0.678-0.301-0.918 0.002-0.066 0.008-0.115 0.016-0.151-0.211-0.406-0.453-1.049-0.418-1.883 0.006-0.113-0.057-0.284-0.266 0.203-0.166 0.389-0.189 1.137-0.01 2.044 0.323 0.204 0.678 0.461 0.979 0.705v0 0z" stroke="#000" stroke-linecap="round" stroke-width=".0347" fill="none"/>
			<path d="m68.704 42.532c0.006 0.005 0.014 0.011 0.02 0.014-0.006-0.003-0.014-0.009-0.02-0.014z" fill="#009266"/>
			<path stroke-linejoin="round" d="m68.704 42.532c0.006 0.005 0.014 0.011 0.02 0.014-0.006-0.003-0.014-0.009-0.02-0.014v0z" stroke="#000" stroke-linecap="round" stroke-width=".0347" fill="none"/>
			<path d="m68.595 42.464c-0.035-0.186-0.064-0.361-0.086-0.532-0.416-0.733-1.279-1.359-1.457-1.787-0.068-0.164-0.16-0.328-0.152 0.053 0.018 0.914 0.682 1.436 0.965 1.893 0 0 0.004 0 0.006 0.002 0.178 0.052 0.443 0.193 0.73 0.375l-0.006-0.004z" fill="#009266"/>
			<path stroke-linejoin="round" d="m68.595 42.464c-0.035-0.186-0.064-0.361-0.086-0.532-0.416-0.733-1.279-1.359-1.457-1.787-0.068-0.164-0.16-0.328-0.152 0.053 0.018 0.914 0.682 1.436 0.965 1.893 0 0 0.004 0 0.006 0.002 0.178 0.052 0.443 0.193 0.73 0.375l-0.006-0.004v0z" stroke="#000" stroke-linecap="round" stroke-width=".0347" fill="none"/>
			<path d="m67.931 41.179c0.164-1.29-0.279-2.808-0.379-3.137-0.101-0.337-0.121-0.222-0.193 0.082-0.184 0.763-0.266 1.599 0.227 2.689 0.11 0.117 0.227 0.238 0.345 0.366z" fill="#009266"/>
			<path stroke-linejoin="round" d="m67.931 41.179c0.164-1.29-0.279-2.808-0.379-3.137-0.101-0.337-0.121-0.222-0.193 0.082-0.184 0.763-0.266 1.599 0.227 2.689 0.11 0.117 0.227 0.238 0.345 0.366v0z" stroke="#000" stroke-linecap="round" stroke-width=".0347" fill="none"/>
			<polygon points="68.526 42.059 68.526 42.067" fill="#009266"/>
			<polygon stroke-linejoin="round" stroke-linecap="round" stroke="#000" points="68.526 42.059 68.526 42.067" stroke-width=".0347" fill="none"/>
			<path d="m68.544 42.172c0.002 0.013 0.002 0.026 0.004 0.037-0.002-0.011-0.002-0.024-0.004-0.037z" fill="#009266"/>
			<path stroke-linejoin="round" d="m68.544 42.172c0.002 0.013 0.002 0.026 0.004 0.037-0.002-0.011-0.002-0.024-0.004-0.037v0z" stroke="#000" stroke-linecap="round" stroke-width=".0347" fill="none"/>
			<path d="m67.931 41.179c0.041-0.321 0.045-0.666 0.025-0.993 0.225-0.791 0.908-1.1 1.033-1.405 0.143-0.347 0.129-0.068 0.104 0.052-0.174 0.771-0.67 1.486-0.607 2.134-0.021 0.271-0.027 0.599 0.023 0.966-0.172-0.305-0.426-0.59-0.578-0.754z" fill="#009266"/>
			<path stroke-linejoin="round" d="m67.931 41.179c0.041-0.321 0.045-0.666 0.025-0.993 0.225-0.791 0.908-1.1 1.033-1.405 0.143-0.347 0.129-0.068 0.104 0.052-0.174 0.771-0.67 1.486-0.607 2.134-0.021 0.271-0.027 0.599 0.023 0.966-0.172-0.305-0.426-0.59-0.578-0.754v0z" stroke="#000" stroke-linecap="round" stroke-width=".0347" fill="none"/>
			<path d="m68.3 36.689c-0.32 0.379-0.516 1.003-0.639 1.732 0.059 0.229 0.129 0.531 0.188 0.875 0.416-0.482 0.572-1.65 0.588-2.521 0.003-0.238-0.057-0.179-0.137-0.086z" fill="#009266"/>
			<path stroke-linejoin="round" d="m68.3 36.689c-0.32 0.379-0.516 1.003-0.639 1.732 0.059 0.229 0.129 0.531 0.188 0.875 0.416-0.482 0.572-1.65 0.588-2.521 0.003-0.238-0.057-0.179-0.137-0.086v0z" stroke="#000" stroke-linecap="round" stroke-width=".0347" fill="none"/>
			<path d="m67.829 39.185c-0.002-0.009-0.004-0.019-0.004-0.027 0 0.008 0.002 0.018 0.004 0.027z" fill="#009266"/>
			<path stroke-linejoin="round" d="m67.829 39.185c-0.002-0.009-0.004-0.019-0.004-0.027 0 0.008 0.002 0.018 0.004 0.027v0z" stroke="#000" stroke-linecap="round" stroke-width=".0347" fill="none"/>
			<path d="m67.946 40.078c0.152-1.029 1.137-1.549 1.51-2.132 0.145-0.228 0.045-0.268-0.115-0.129-0.148 0.124-0.771 0.372-1.123 0.686-0.09 0.328-0.211 0.609-0.369 0.793 0.033 0.202 0.072 0.445 0.097 0.782z" fill="#009266"/>
			<path stroke-linejoin="round" d="m67.946 40.078c0.152-1.029 1.137-1.549 1.51-2.132 0.145-0.228 0.045-0.268-0.115-0.129-0.148 0.124-0.771 0.372-1.123 0.686-0.09 0.328-0.211 0.609-0.369 0.793 0.033 0.202 0.072 0.445 0.097 0.782v0z" stroke="#000" stroke-linecap="round" stroke-width=".0347" fill="none"/>
			<path d="m69.562 35.618c-0.332 0.197-0.859 0.897-1.135 1.427-0.012 0.249-0.035 0.512-0.072 0.773 0.863-0.698 1.084-1.289 1.293-2.016 0.076-0.267 0.019-0.244-0.086-0.184z" fill="#009266"/>
			<path stroke-linejoin="round" d="m69.562 35.618c-0.332 0.197-0.859 0.897-1.135 1.427-0.012 0.249-0.035 0.512-0.072 0.773 0.863-0.698 1.084-1.289 1.293-2.016 0.076-0.267 0.019-0.244-0.086-0.184v0z" stroke="#000" stroke-linecap="round" stroke-width=".0347" fill="none"/>
			<path d="m68.3 36.689c-0.32 0.379-0.516 1.003-0.639 1.732 0.059 0.229 0.129 0.531 0.188 0.875 0.416-0.482 0.572-1.65 0.588-2.521 0.003-0.238-0.057-0.179-0.137-0.086z" fill="#009266"/>
			<path stroke-linejoin="round" d="m68.3 36.689c-0.32 0.379-0.516 1.003-0.639 1.732 0.059 0.229 0.129 0.531 0.188 0.875 0.416-0.482 0.572-1.65 0.588-2.521 0.003-0.238-0.057-0.179-0.137-0.086v0z" stroke="#000" stroke-linecap="round" stroke-width=".0347" fill="none"/>
			<path d="m69.562 35.618c-0.332 0.197-0.859 0.897-1.135 1.427-0.012 0.249-0.035 0.512-0.072 0.773 0.863-0.698 1.084-1.289 1.293-2.016 0.076-0.267 0.019-0.244-0.086-0.184z" fill="#009266"/>
			<path stroke-linejoin="round" d="m69.562 35.618c-0.332 0.197-0.859 0.897-1.135 1.427-0.012 0.249-0.035 0.512-0.072 0.773 0.863-0.698 1.084-1.289 1.293-2.016 0.076-0.267 0.019-0.244-0.086-0.184v0z" stroke="#000" stroke-linecap="round" stroke-width=".0347" fill="none"/>
			<path d="m68.696 38.176c0.408-0.562 1.283-0.694 1.617-1.109 0.125-0.156 0.213-0.398-0.186-0.146-0.273 0.174-0.57 0.037-1.07 0.186-0.143 0.207-0.498 0.552-0.703 0.712-0.023 0.184-0.082 0.474-0.137 0.686 0.147-0.121 0.309-0.236 0.479-0.329z" fill="#009266"/>
			<path stroke-linejoin="round" d="m68.696 38.176c0.408-0.562 1.283-0.694 1.617-1.109 0.125-0.156 0.213-0.398-0.186-0.146-0.273 0.174-0.57 0.037-1.07 0.186-0.143 0.207-0.498 0.552-0.703 0.712-0.023 0.184-0.082 0.474-0.137 0.686 0.147-0.121 0.309-0.236 0.479-0.329v0z" stroke="#000" stroke-linecap="round" stroke-width=".0347" fill="none"/>
			<path d="m69.554 37.027c0.492-0.712 0.736-0.539 1.059-0.937 0.049-0.062 0.102-0.158-0.078-0.076-0.178 0.081-0.766 0.058-1.043 0.273-0.1 0.249-0.268 0.616-0.434 0.817 0.16-0.049 0.32-0.081 0.496-0.077z" fill="#009266"/>
			<path stroke-linejoin="round" d="m69.554 37.027c0.492-0.712 0.736-0.539 1.059-0.937 0.049-0.062 0.102-0.158-0.078-0.076-0.178 0.081-0.766 0.058-1.043 0.273-0.1 0.249-0.268 0.616-0.434 0.817 0.16-0.049 0.32-0.081 0.496-0.077v0z" stroke="#000" stroke-linecap="round" stroke-width=".0347" fill="none"/>
			<path d="m73.997 43.21c0.006-0.328 0.148-0.573 0.256-0.685 0.105-0.113 0.061-0.119-0.025-0.067-0.088 0.052-0.389 0.077-0.756 0.286-0.367 0.211-0.516 0.865-0.744 1.183 0.384-0.345 0.791-0.601 1.269-0.717z" fill="#009266"/>
			<path stroke-linejoin="round" d="m73.997 43.21c0.006-0.328 0.148-0.573 0.256-0.685 0.105-0.113 0.061-0.119-0.025-0.067-0.088 0.052-0.389 0.077-0.756 0.286-0.367 0.211-0.516 0.865-0.744 1.183 0.384-0.345 0.791-0.601 1.269-0.717v0 0z" stroke="#000" stroke-linecap="round" stroke-width=".0347" fill="none"/>
			<path d="m73.362 44.373c0.314 0.061 0.727 0.047 0.949-0.106 0.223-0.153 0.451-0.229 0.559-0.215 0.107 0.016 0.115-0.022 0.029-0.146-0.082-0.123-0.412-0.262-0.697-0.276-0.27 0.238-0.605 0.487-1.123 0.503 0.109 0.083 0.229 0.181 0.283 0.24z" fill="#009266"/>
			<path stroke-linejoin="round" d="m73.362 44.373c0.314 0.061 0.727 0.047 0.949-0.106 0.223-0.153 0.451-0.229 0.559-0.215 0.107 0.016 0.115-0.022 0.029-0.146-0.082-0.123-0.412-0.262-0.697-0.276-0.27 0.238-0.605 0.487-1.123 0.503 0.109 0.083 0.229 0.181 0.283 0.24v0z" stroke="#000" stroke-linecap="round" stroke-width=".0347" fill="none"/>
			<path d="m74.61 43.155c0.098-0.26 0.061-0.527-0.008-0.719-0.068-0.192-0.008-0.399 0.092-0.552s0.107-0.291 0.137-0.398c0.033-0.107 0.102-0.198 0.199 0.029 0.102 0.232 0.137 0.544 0.016 0.874-0.121 0.329-0.221 0.566-0.375 0.758l-0.061 0.008z" fill="#009266"/>
			<path stroke-linejoin="round" d="m74.61 43.155c0.098-0.26 0.061-0.527-0.008-0.719-0.068-0.192-0.008-0.399 0.092-0.552s0.107-0.291 0.137-0.398c0.033-0.107 0.102-0.198 0.199 0.029 0.102 0.232 0.137 0.544 0.016 0.874-0.121 0.329-0.221 0.566-0.375 0.758l-0.061 0.008v0z" stroke="#000" stroke-linecap="round" stroke-width=".0347" fill="none"/>
			<path d="m74.419 43.203c0.207-0.062 0.566-0.231 0.748-0.469 0.186-0.237 0.754-0.504 1.166-0.544 0.301-0.027 0.293-0.038 0.094 0.216-0.201 0.251-0.432 0.612-0.836 0.634-0.406 0.024-0.82 0.015-1.119 0.254l-0.053-0.091z" fill="#009266"/>
			<path stroke-linejoin="round" d="m74.419 43.203c0.207-0.062 0.566-0.231 0.748-0.469 0.186-0.237 0.754-0.504 1.166-0.544 0.301-0.027 0.293-0.038 0.094 0.216-0.201 0.251-0.432 0.612-0.836 0.634-0.406 0.024-0.82 0.015-1.119 0.254l-0.053-0.091v0z" stroke="#000" stroke-linecap="round" stroke-width=".0347" fill="none"/>
			<path d="m72.728 43.928c0.488-0.438 1.008-0.732 1.668-0.78 0.129-0.009 0.277-0.009 0.1 0.185-0.398 0.436-0.816 0.797-1.416 0.801-0.124-0.085-0.216-0.154-0.352-0.206z" fill="#009266"/>
			<path stroke-linejoin="round" d="m72.728 43.928c0.488-0.438 1.008-0.732 1.668-0.78 0.129-0.009 0.277-0.009 0.1 0.185-0.398 0.436-0.816 0.797-1.416 0.801-0.124-0.085-0.216-0.154-0.352-0.206v0z" stroke="#000" stroke-linecap="round" stroke-width=".0347" fill="none"/>
			<path d="m75.124 41.944c0.123-0.112 0.314-0.2 0.398-0.235 0.098-0.041 0.123-0.037 0.074 0.071-0.053 0.106-0.053 0.268-0.084 0.319-0.188 0.124-0.451 0.373-0.562 0.537 0.104-0.239 0.16-0.327 0.174-0.692z" fill="#009266"/>
			<path stroke-linejoin="round" d="m75.124 41.944c0.123-0.112 0.314-0.2 0.398-0.235 0.098-0.041 0.123-0.037 0.074 0.071-0.053 0.106-0.053 0.268-0.084 0.319-0.188 0.124-0.451 0.373-0.562 0.537 0.104-0.239 0.16-0.327 0.174-0.692v0z" stroke="#000" stroke-linecap="round" stroke-width=".0347" fill="none"/>
			<path d="m75.683 41.248c-0.037-0.295-0.061-0.656 0.057-0.85-0.101-0.151-0.223-0.293-0.326-0.414-0.137-0.161-0.176-0.062-0.15 0.085 0.021 0.146 0 0.307-0.047 0.597-0.084 0.521 0.299 0.613 0.492 1.032 0.005-0.144-0.009-0.301-0.026-0.45z" fill="#009266"/>
			<path stroke-linejoin="round" d="m75.683 41.248c-0.037-0.295-0.061-0.656 0.057-0.85-0.101-0.151-0.223-0.293-0.326-0.414-0.137-0.161-0.176-0.062-0.15 0.085 0.021 0.146 0 0.307-0.047 0.597-0.084 0.521 0.299 0.613 0.492 1.032 0.005-0.144-0.009-0.301-0.026-0.45v0z" stroke="#000" stroke-linecap="round" stroke-width=".0347" fill="none"/>
			<path d="m76.899 40.223c-0.166 0.326-0.49 0.331-0.674 0.563-0.025 0.276-0.111 0.497-0.199 0.661-0.07 0.131-0.123 0.219-0.168 0.293 0.172-0.168 0.449-0.26 0.605-0.331 0.199-0.091 0.412-0.269 0.461-0.773 0.016-0.161 0.043-0.3 0.066-0.405 0.025-0.109-0.011-0.167-0.091-0.008z" fill="#009266"/>
			<path stroke-linejoin="round" d="m76.899 40.223c-0.166 0.326-0.49 0.331-0.674 0.563-0.025 0.276-0.111 0.497-0.199 0.661-0.07 0.131-0.123 0.219-0.168 0.293 0.172-0.168 0.449-0.26 0.605-0.331 0.199-0.091 0.412-0.269 0.461-0.773 0.016-0.161 0.043-0.3 0.066-0.405 0.025-0.109-0.011-0.167-0.091-0.008v0z" stroke="#000" stroke-linecap="round" stroke-width=".0347" fill="none"/>
			<path d="m76.222 40.436c0.055-0.154 0.213-0.393 0.309-0.448 0.096-0.057 0.178-0.153 0.143 0.005-0.035 0.159-0.004 0.398-0.049 0.515-0.135 0.077-0.324 0.173-0.398 0.279 0.01-0.142 0.001-0.293-0.005-0.351z" fill="#009266"/>
			<path stroke-linejoin="round" d="m76.222 40.436c0.055-0.154 0.213-0.393 0.309-0.448 0.096-0.057 0.178-0.153 0.143 0.005-0.035 0.159-0.004 0.398-0.049 0.515-0.135 0.077-0.324 0.173-0.398 0.279 0.01-0.142 0.001-0.293-0.005-0.351v0z" stroke="#000" stroke-linecap="round" stroke-width=".0347" fill="none"/>
			<path d="m76.659 38.936c-0.053-0.128-0.135-0.186-0.094-0.47 0.041-0.287 0.006-0.333-0.127-0.21-0.121 0.111-0.271 0.347-0.32 0.634 0.104 0.374-0.041 0.557-0.068 0.907 0.012 0.024 0.023 0.057 0.039 0.095 0.021 0.056 0.037 0.11 0.055 0.164 0.061-0.204 0.24-0.447 0.396-0.642 0.189-0.234 0.168-0.352 0.119-0.478z" fill="#009266"/>
			<path stroke-linejoin="round" d="m76.659 38.936c-0.053-0.128-0.135-0.186-0.094-0.47 0.041-0.287 0.006-0.333-0.127-0.21-0.121 0.111-0.271 0.347-0.32 0.634 0.104 0.374-0.041 0.557-0.068 0.907 0.012 0.024 0.023 0.057 0.039 0.095 0.021 0.056 0.037 0.11 0.055 0.164 0.061-0.204 0.24-0.447 0.396-0.642 0.189-0.234 0.168-0.352 0.119-0.478v0z" stroke="#000" stroke-linecap="round" stroke-width=".0347" fill="none"/>
			<path d="m75.554 38.761c-0.131-0.008-0.318-0.081-0.438-0.2-0.146-0.146-0.168-0.108-0.094 0.022 0.076 0.129 0.076 0.252 0.102 0.437 0.035 0.288 0.262 0.664 0.715 0.644-0.201-0.307-0.293-0.554-0.285-0.903z" fill="#009266"/>
			<path stroke-linejoin="round" d="m75.554 38.761c-0.131-0.008-0.318-0.081-0.438-0.2-0.146-0.146-0.168-0.108-0.094 0.022 0.076 0.129 0.076 0.252 0.102 0.437 0.035 0.288 0.262 0.664 0.715 0.644-0.201-0.307-0.293-0.554-0.285-0.903v0z" stroke="#000" stroke-linecap="round" stroke-width=".0347" fill="none"/>
			<path d="m74.962 37.261c-0.322-0.237-0.219-0.497-0.521-0.741-0.301-0.245-0.643-0.383-0.773-0.409-0.135-0.024-0.279-0.053-0.125 0.108 0.262 0.27 0.213 0.527 0.531 0.695 0.354 0.183 0.697 0.219 0.875 0.448l0.013-0.101z" fill="#009266"/>
			<path stroke-linejoin="round" d="m74.962 37.261c-0.322-0.237-0.219-0.497-0.521-0.741-0.301-0.245-0.643-0.383-0.773-0.409-0.135-0.024-0.279-0.053-0.125 0.108 0.262 0.27 0.213 0.527 0.531 0.695 0.354 0.183 0.697 0.219 0.875 0.448l0.013-0.101v0z" stroke="#000" stroke-linecap="round" stroke-width=".0347" fill="none"/>
			<path d="m75.601 38.357c0.031-0.168 0.053-0.221 0.076-0.206-0.021-0.074-0.045-0.164-0.072-0.266-0.082-0.338-0.389-0.573-0.627-0.729-0.238-0.151-0.199-0.061-0.146 0.04 0.055 0.099 0.117 0.199 0.146 0.413 0.029 0.2 0.145 0.515 0.617 0.786 0.002-0.011 0.004-0.024 0.006-0.038z" fill="#009266"/>
			<path stroke-linejoin="round" d="m75.601 38.357c0.031-0.168 0.053-0.221 0.076-0.206-0.021-0.074-0.045-0.164-0.072-0.266-0.082-0.338-0.389-0.573-0.627-0.729-0.238-0.151-0.199-0.061-0.146 0.04 0.055 0.099 0.117 0.199 0.146 0.413 0.029 0.2 0.145 0.515 0.617 0.786 0.002-0.011 0.004-0.024 0.006-0.038v0z" stroke="#000" stroke-linecap="round" stroke-width=".0347" fill="none"/>
			<path d="m75.724 38.241c0.01 0.038 0.041 0.075 0.074 0.116-0.014-0.13 0.014-0.288 0.074-0.624 0.086-0.47-0.268-0.521-0.32-0.843-0.037-0.225-0.129-0.154-0.213-0.04-0.07 0.097-0.109 0.293-0.062 0.532 0.146 0.133 0.277 0.301 0.328 0.503 0.021 0.08 0.062 0.23 0.072 0.266 0.023 0.019 0.039 0.061 0.047 0.09z" fill="#009266"/>
			<path stroke-linejoin="round" d="m75.724 38.241c0.01 0.038 0.041 0.075 0.074 0.116-0.014-0.13 0.014-0.288 0.074-0.624 0.086-0.47-0.268-0.521-0.32-0.843-0.037-0.225-0.129-0.154-0.213-0.04-0.07 0.097-0.109 0.293-0.062 0.532 0.146 0.133 0.277 0.301 0.328 0.503 0.021 0.08 0.062 0.23 0.072 0.266 0.023 0.019 0.039 0.061 0.047 0.09v0z" stroke="#000" stroke-linecap="round" stroke-width=".0347" fill="none"/>
			<path d="m76.044 39.977c-0.02-0.537 0.248-0.691 0.018-1.256-0.094-0.225-0.293-0.351-0.338-0.479-0.047-0.128-0.076-0.15-0.123 0.116-0.123 0.685-0.004 0.986 0.383 1.511l0.06 0.108z" fill="#009266"/>
			<path stroke-linejoin="round" d="m76.044 39.977c-0.02-0.537 0.248-0.691 0.018-1.256-0.094-0.225-0.293-0.351-0.338-0.479-0.047-0.128-0.076-0.15-0.123 0.116-0.123 0.685-0.004 0.986 0.383 1.511l0.06 0.108v0z" stroke="#000" stroke-linecap="round" stroke-width=".0347" fill="none"/>
			<path d="m75.62 42.075c0.115-0.198 0.102-0.527 0.062-0.827-0.037-0.299-0.062-0.667 0.061-0.856 0.123-0.193 0.191-0.407 0.207-0.523 0.016-0.113 0.025-0.274 0.139 0.023 0.268 0.714 0.107 1.241-0.062 1.556-0.168 0.314-0.244 0.385-0.305 0.59l-0.102 0.037z" fill="#009266"/>
			<path stroke-linejoin="round" d="m75.62 42.075c0.115-0.198 0.102-0.527 0.062-0.827-0.037-0.299-0.062-0.667 0.061-0.856 0.123-0.193 0.191-0.407 0.207-0.523 0.016-0.113 0.025-0.274 0.139 0.023 0.268 0.714 0.107 1.241-0.062 1.556-0.168 0.314-0.244 0.385-0.305 0.59l-0.102 0.037v0z" stroke="#000" stroke-linecap="round" stroke-width=".0347" fill="none"/>
			<path d="m75.167 42.734c0.139-0.176 0.486-0.371 0.828-0.475 0.025-0.162 0.076-0.334 0.139-0.444 0.078-0.139 0-0.114-0.107-0.032-0.105 0.085-0.26 0.18-0.367 0.23-0.408 0.205-0.789 0.678-0.992 1.092 0.179-0.084 0.378-0.212 0.499-0.371z" fill="#009266"/>
			<path stroke-linejoin="round" d="m75.167 42.734c0.139-0.176 0.486-0.371 0.828-0.475 0.025-0.162 0.076-0.334 0.139-0.444 0.078-0.139 0-0.114-0.107-0.032-0.105 0.085-0.26 0.18-0.367 0.23-0.408 0.205-0.789 0.678-0.992 1.092 0.179-0.084 0.378-0.212 0.499-0.371v0z" stroke="#000" stroke-linecap="round" stroke-width=".0347" fill="none"/>
			<path d="m74.978 37.61c-0.193-0.079-0.504-0.052-0.607-0.079-0.113-0.03-0.15 0-0.016 0.096 0.174 0.123 0.34 0.541 0.676 0.607 0.102 0.021 0.24 0.018 0.332 0.005-0.28-0.227-0.362-0.466-0.385-0.629z" fill="#009266"/>
			<path stroke-linejoin="round" d="m74.978 37.61v0c-0.193-0.079-0.504-0.052-0.607-0.079-0.113-0.03-0.15 0-0.016 0.096 0.174 0.123 0.34 0.541 0.676 0.607 0.102 0.021 0.24 0.018 0.332 0.005-0.28-0.227-0.362-0.466-0.385-0.629v0z" stroke="#000" stroke-linecap="round" stroke-width=".0347" fill="none"/>
			<path d="m74.073 36.914c-0.166-0.088-0.232-0.199-0.295-0.322-0.154-0.001-0.291 0.045-0.389 0.019-0.102-0.024-0.094 0.059-0.006 0.153 0.246 0.266 0.496 0.41 0.768 0.431 0.133 0.011 0.25-0.081 0.398-0.085-0.146-0.055-0.308-0.11-0.476-0.196z" fill="#009266"/>
			<path stroke-linejoin="round" d="m74.073 36.914c-0.166-0.088-0.232-0.199-0.295-0.322-0.154-0.001-0.291 0.045-0.389 0.019-0.102-0.024-0.094 0.059-0.006 0.153 0.246 0.266 0.496 0.41 0.768 0.431 0.133 0.011 0.25-0.081 0.398-0.085-0.146-0.055-0.308-0.11-0.476-0.196v0zm-0.82 6.61c0.355-0.255 0.416-0.714 0.785-0.929m-1.09 1.346c0.426-0.054 0.979-0.16 1.457-0.682m-0.408-0.049c0.23-0.159 0.357-0.302 0.43-0.399m0.439 0.73c-0.117-0.041-0.307-0.031-0.492 0.106m-1.148 0.533c0.471 0.173 1.324-0.361 1.66-0.184m-0.276-0.841c0.27-0.162 1.354-0.665 1.658-0.773m-0.32-0.46c-0.096 0.133-0.363 0.419-0.562 0.613m0.113-0.703c-0.113 0.172-0.4 0.606-0.531 0.76m1.5-0.844c-0.086 0.011-0.254 0.057-0.355 0.112m-1.186-0.285c0.035 0.445 0 1.093-0.275 1.548m0.55-1.241c0.061-0.107 0.174-0.266 0.092-0.435m1.594-1.047c-0.174 0.481-0.316 0.879-0.955 1.241m0.086-1.659c0.123 0.566 0.1 1.205-0.252 1.816m-0.428-1.751c0.09 0.151 0.244 0.451 0.314 0.72m-0.041-0.913c0.084 0.107 0.146 0.238 0.162 0.476m0.766-0.644c-0.123 0.107-0.285 0.336-0.344 0.621m0.313-2.024c-0.113 0.346-0.223 1.104-0.367 1.519m-0.161-0.085c-0.016-0.598-0.287-1.044-0.279-1.328m0.44-0.211c-0.023 0.174-0.023 0.312 0.016 0.543m-0.827-0.231c0.092 0.062 0.15 0.093 0.229 0.169m-0.428 0.023c0.152 0.246 0.344 0.576 0.574 0.781m-1.24-1.852c0.277 0.123 0.58 0.327 0.719 0.458m-0.248-0.84c0.406 0.423 0.562 0.863 0.676 1.018m-0.137-1.487c-0.082 0.322 0.23 0.943 0.215 1.372m-0.713-0.522c-0.152-0.161-0.199-0.199-0.322-0.262m0.421-0.543c0.039 0.139 0.1 0.231 0.176 0.338m-1.613-0.94c0.346 0.199 0.939 0.642 1.191 0.994m-1.478-0.551c0.23 0.169 0.645 0.429 1.059 0.429m-0.331-1.326c-0.016 0.151 0.139 0.491 0.244 0.681" stroke="#000" stroke-linecap="round" stroke-width=".0347" fill="none"/>
			<path d="m75.05 36.515c-0.15-0.008-0.117 0.357 0.045 0.35 0.164-0.002 0.179-0.34-0.045-0.35z" fill="#009266"/>
			<path stroke-linejoin="round" d="m75.05 36.515c-0.15-0.008-0.117 0.357 0.045 0.35 0.164-0.002 0.179-0.34-0.045-0.35v0z" stroke="#000" stroke-linecap="round" stroke-width=".0347" fill="none"/>
			<path d="m74.702 37.408c0.029-0.14-0.316-0.266-0.377-0.091-0.062 0.173 0.346 0.234 0.377 0.091z" fill="#009266"/>
			<path stroke-linejoin="round" d="m74.702 37.408c0.029-0.14-0.316-0.266-0.377-0.091-0.062 0.173 0.346 0.234 0.377 0.091v0z" stroke="#000" stroke-linecap="round" stroke-width=".0347" fill="none"/>
			<path d="m75.427 38.562c0.086-0.091-0.193-0.315-0.287-0.214-0.09 0.103 0.154 0.357 0.287 0.214z" fill="#009266"/>
			<path stroke-linejoin="round" d="m75.427 38.562c0.086-0.091-0.193-0.315-0.287-0.214-0.09 0.103 0.154 0.357 0.287 0.214v0z" stroke="#000" stroke-linecap="round" stroke-width=".0347" fill="none"/>
			<path d="m76.243 37.938c-0.143-0.091-0.264 0.237-0.121 0.327 0.143 0.092 0.295-0.212 0.121-0.327z" fill="#009266"/>
			<path stroke-linejoin="round" d="m76.243 37.938c-0.143-0.091-0.264 0.237-0.121 0.327 0.143 0.092 0.295-0.212 0.121-0.327v0z" stroke="#000" stroke-linecap="round" stroke-width=".0347" fill="none"/>
			<path d="m76.468 39.738c0.104 0.165 0.348-0.104 0.268-0.195-0.083-0.091-0.35 0.061-0.268 0.195z" fill="#009266"/>
			<path stroke-linejoin="round" d="m76.468 39.738c0.104 0.165 0.348-0.104 0.268-0.195-0.083-0.091-0.35 0.061-0.268 0.195v0z" stroke="#000" stroke-linecap="round" stroke-width=".0347" fill="none"/>
			<path d="m75.683 39.941c0.115-0.06-0.111-0.276-0.215-0.194-0.102 0.082 0.021 0.296 0.215 0.194z" fill="#009266"/>
			<path stroke-linejoin="round" d="m75.683 39.941c0.115-0.06-0.111-0.276-0.215-0.194-0.102 0.082 0.021 0.296 0.215 0.194v0z" stroke="#000" stroke-linecap="round" stroke-width=".0347" fill="none"/>
			<path d="m75.294 41.545c0.16-0.081 0.01-0.349-0.133-0.277-0.142 0.072 0.01 0.337 0.133 0.277z" fill="#009266"/>
			<path stroke-linejoin="round" d="m75.294 41.545c0.16-0.081 0.01-0.349-0.133-0.277-0.142 0.072 0.01 0.337 0.133 0.277v0z" stroke="#000" stroke-linecap="round" stroke-width=".0347" fill="none"/>
			<path d="m76.364 41.739c-0.01 0.208 0.371 0.143 0.35-0.021-0.02-0.163-0.338-0.154-0.35 0.021z" fill="#009266"/>
			<path stroke-linejoin="round" d="m76.364 41.739c-0.01 0.208 0.371 0.143 0.35-0.021-0.02-0.163-0.338-0.154-0.35 0.021v0z" stroke="#000" stroke-linecap="round" stroke-width=".0347" fill="none"/>
			<path d="m74.366 42.841c0.123 0.085 0.273-0.213 0.121-0.295s-0.275 0.194-0.121 0.295z" fill="#009266"/>
			<path stroke-linejoin="round" d="m74.366 42.841c0.123 0.085 0.273-0.213 0.121-0.295s-0.275 0.194-0.121 0.295v0z" stroke="#000" stroke-linecap="round" stroke-width=".0347" fill="none"/>
			<path d="m74.804 43.524c-0.01 0.186 0.275 0.175 0.275 0.013 0-0.164-0.267-0.164-0.275-0.013z" fill="#009266"/>
			<path stroke-linejoin="round" d="m74.804 43.524c-0.01 0.186 0.275 0.175 0.275 0.013 0-0.164-0.267-0.164-0.275-0.013v0z" stroke="#000" stroke-linecap="round" stroke-width=".0347" fill="none"/>
			<polygon points="72.005 37.848 72.521 39.328 74.089 39.361 72.839 40.309 73.292 41.811 72.005 40.916 70.718 41.811 71.171 40.309 69.923 39.361 71.491 39.328" fill="#FFF100"/>
</g>
</svg>
