<?xml version="1.0" encoding="UTF-8" standalone="no"?>
<!-- Generator: Adobe Illustrator 18.0.0, SVG Export Plug-In . SVG Version: 6.00 Build 0)  -->
<!DOCTYPE svg  PUBLIC '-//W3C//DTD SVG 1.1//EN'  'http://www.w3.org/Graphics/SVG/1.1/DTD/svg11.dtd'>
<svg style="enable-background:new 0 0 144 80" xmlns="http://www.w3.org/2000/svg" xml:space="preserve" version="1.1" y="0px" x="0px" xmlns:xlink="http://www.w3.org/1999/xlink" viewBox="0 0 144 80">
<g id="PAK">
		<polygon points="0 80 0 0 35.999 0 35.999 80" fill="#fff"/>
		<polygon points="144 80 144 0 36.081 0 36.081 80" fill="#060"/>
		<g fill="#fff">
			<path d="m115.64 50.816c-4.293 9.127-13.57 15.449-24.322 15.449-14.838 0-26.867-12.028-26.867-26.866 0-12.056 7.979-22.264 18.914-25.665-5.955 4.495-9.768 11.627-9.768 19.663 0 13.602 11.027 24.627 24.627 24.627 6.796 0 12.956-2.751 17.416-7.208z"/>
			<polygon points="111.35 21.472 105.36 24.059 101.04 19.117 101.65 25.675 95.63 28.218 102.01 29.652 102.59 36.163 105.96 30.522 112.3 32.022 107.99 27.101"/>
		</g>
</g>
</svg>
