<?xml version="1.0" encoding="UTF-8" standalone="no"?>
<!-- Generator: Adobe Illustrator 18.0.0, SVG Export Plug-In . SVG Version: 6.00 Build 0)  -->
<!DOCTYPE svg  PUBLIC '-//W3C//DTD SVG 1.1//EN'  'http://www.w3.org/Graphics/SVG/1.1/DTD/svg11.dtd'>
<svg style="enable-background:new 0 0 144 80" xmlns="http://www.w3.org/2000/svg" xml:space="preserve" version="1.1" y="0px" x="0px" xmlns:xlink="http://www.w3.org/1999/xlink" viewBox="0 0 144 80">
<g id="OMA">
	<g id="Oman">
			<rect height="80" width="144" y="0" x="0" fill="#D91F26"/>
			<rect height="26.666" width="108" y="53.334" x="35.999" fill="#0B8040"/>
			<rect height="26.666" width="108" y="0" x="35.999" fill="#fff"/>
			<g stroke="#ED3029">
				<path stroke-width=".1133" d="m24.004 12.979h4.157c0.227 0 0.414 0.175 0.414 0.39v1.957c0 0.215-0.187 0.389-0.414 0.389h-4.157c-0.228 0-0.415-0.174-0.415-0.389v-1.957c0-0.216 0.187-0.39 0.415-0.39z" fill="#fff"/>
				<path stroke-width=".1057" d="m24.112 13.094h3.94c0.218 0 0.395 0.159 0.395 0.356v1.794c0 0.196-0.177 0.355-0.395 0.355h-3.94c-0.217 0-0.395-0.159-0.395-0.355v-1.794c0.001-0.197 0.179-0.356 0.395-0.356z" fill="#fff"/>
				<path stroke-width=".0667" d="m25.917 13.777l0.238 0.009 0.013 0.106 0.196 0.102 0.151-0.126 0.185 0.099-0.174 0.109 0.043 0.15 0.217-0.01v0.2l-0.174-0.009-0.086 0.125 0.194 0.142-0.151 0.116-0.164-0.125-0.237 0.051 0.01 0.183-0.261 0.017-0.031-0.174-0.217-0.092-0.12 0.124-0.185-0.092 0.108-0.141-0.13-0.091h-0.184l-0.012-0.258 0.184 0.017 0.131-0.151-0.151-0.115 0.193-0.133 0.143 0.107 0.238-0.033 0.033-0.107z" fill="#fff"/>
				<ellipse rx=".263" ry=".225" cy="14.317" cx="25.99" stroke-width=".4" fill="#fff"/>
				<path stroke-width=".1057" d="m24.358 13.207l-0.383 0.342" fill="#fff"/>
				<path stroke-width=".1057" d="m24.614 13.207l-0.384 0.342" fill="#fff"/>
				<path stroke-width=".1057" d="m24.87 13.207l-0.385 0.342" fill="#fff"/>
				<path stroke-width=".1057" d="m25.125 13.207l-0.383 0.342" fill="#fff"/>
				<path stroke-width=".1057" d="m25.38 13.207l-0.383 0.342" fill="#fff"/>
				<path stroke-width=".1057" d="m25.636 13.207l-0.383 0.342" fill="#fff"/>
				<path stroke-width=".1057" d="m25.892 13.207l-0.383 0.342" fill="#fff"/>
				<path stroke-width=".1057" d="m26.147 13.207l-0.383 0.342" fill="#fff"/>
				<path stroke-width=".1057" d="m26.402 13.207l-0.384 0.342" fill="#fff"/>
				<path stroke-width=".1057" d="m26.659 13.207l-0.385 0.342" fill="#fff"/>
				<path stroke-width=".1057" d="m26.914 13.207l-0.383 0.342" fill="#fff"/>
				<path stroke-width=".1057" d="m27.171 13.207l-0.385 0.342" fill="#fff"/>
				<path stroke-width=".1057" d="m26.147 13.207l-0.383 0.342" fill="#fff"/>
				<path stroke-width=".1057" d="m27.426 13.207l-0.384 0.342" fill="#fff"/>
				<path stroke-width=".1057" d="m27.681 13.207l-0.383 0.342" fill="#fff"/>
				<path stroke-width=".1057" d="m27.937 13.207l-0.384 0.342" fill="#fff"/>
				<path stroke-width=".1057" d="m28.192 13.207l-0.384 0.342" fill="#fff"/>
				<path stroke-width=".1057" d="m27.809 13.207l0.384 0.342" fill="#fff"/>
				<path stroke-width=".1057" d="m27.553 13.207l0.384 0.342" fill="#fff"/>
				<path stroke-width=".1057" d="m27.298 13.207l0.383 0.342" fill="#fff"/>
				<path stroke-width=".1057" d="m27.042 13.207l0.384 0.342" fill="#fff"/>
				<path stroke-width=".1057" d="m26.786 13.207l0.385 0.342" fill="#fff"/>
				<path stroke-width=".1057" d="m26.531 13.207l0.383 0.342" fill="#fff"/>
				<path stroke-width=".1057" d="m26.274 13.207l0.385 0.342" fill="#fff"/>
				<path stroke-width=".1057" d="m26.018 13.207l0.384 0.342" fill="#fff"/>
				<path stroke-width=".1057" d="m25.765 13.207l0.383 0.342" fill="#fff"/>
				<path stroke-width=".1057" d="m25.509 13.207l0.383 0.342" fill="#fff"/>
				<path stroke-width=".1057" d="m25.253 13.207l0.383 0.342" fill="#fff"/>
				<path stroke-width=".1057" d="m24.997 13.207l0.383 0.342" fill="#fff"/>
				<path stroke-width=".1057" d="m26.018 13.207l0.384 0.342" fill="#fff"/>
				<path stroke-width=".1057" d="m24.742 13.207l0.383 0.342" fill="#fff"/>
				<path stroke-width=".1057" d="m24.485 13.207l0.385 0.342" fill="#fff"/>
				<path stroke-width=".1057" d="m24.23 13.207l0.384 0.342" fill="#fff"/>
				<path stroke-width=".1057" d="m23.976 13.207l0.383 0.342" fill="#fff"/>
				<path stroke-width=".1057" d="m24.358 15.144l-0.383 0.342" fill="#fff"/>
				<path stroke-width=".1057" d="m24.614 15.144l-0.384 0.342" fill="#fff"/>
				<path stroke-width=".1057" d="m24.87 15.144l-0.385 0.342" fill="#fff"/>
				<path stroke-width=".1057" d="m25.125 15.144l-0.383 0.342" fill="#fff"/>
				<path stroke-width=".1057" d="m25.38 15.144l-0.383 0.342" fill="#fff"/>
				<path stroke-width=".1057" d="m25.636 15.144l-0.383 0.342" fill="#fff"/>
				<path stroke-width=".1057" d="m25.892 15.144l-0.383 0.342" fill="#fff"/>
				<path stroke-width=".1057" d="m26.147 15.144l-0.383 0.342" fill="#fff"/>
				<path stroke-width=".1057" d="m26.402 15.144l-0.384 0.342" fill="#fff"/>
				<path stroke-width=".1057" d="m26.659 15.144l-0.385 0.342" fill="#fff"/>
				<path stroke-width=".1057" d="m26.914 15.144l-0.383 0.342" fill="#fff"/>
				<path stroke-width=".1057" d="m27.171 15.144l-0.385 0.342" fill="#fff"/>
				<path stroke-width=".1057" d="m26.147 15.144l-0.383 0.342" fill="#fff"/>
				<path stroke-width=".1057" d="m27.426 15.144l-0.384 0.342" fill="#fff"/>
				<path stroke-width=".1057" d="m27.681 15.144l-0.383 0.342" fill="#fff"/>
				<path stroke-width=".1057" d="m27.937 15.144l-0.384 0.342" fill="#fff"/>
				<path stroke-width=".1057" d="m28.192 15.144l-0.384 0.342" fill="#fff"/>
				<path stroke-width=".1057" d="m27.809 15.144l0.384 0.342" fill="#fff"/>
				<path stroke-width=".1057" d="m27.553 15.144l0.384 0.342" fill="#fff"/>
				<path stroke-width=".1057" d="m27.298 15.144l0.383 0.342" fill="#fff"/>
				<path stroke-width=".1057" d="m27.042 15.144l0.384 0.342" fill="#fff"/>
				<path stroke-width=".1057" d="m26.786 15.144l0.385 0.342" fill="#fff"/>
				<path stroke-width=".1057" d="m26.531 15.144l0.383 0.342" fill="#fff"/>
				<path stroke-width=".1057" d="m26.274 15.144l0.385 0.342" fill="#fff"/>
				<path stroke-width=".1057" d="m26.018 15.144l0.384 0.342" fill="#fff"/>
				<path stroke-width=".1057" d="m25.765 15.144l0.383 0.342" fill="#fff"/>
				<path stroke-width=".1057" d="m25.509 15.144l0.383 0.342" fill="#fff"/>
				<path stroke-width=".1057" d="m25.253 15.144l0.383 0.342" fill="#fff"/>
				<path stroke-width=".1057" d="m24.997 15.144l0.383 0.342" fill="#fff"/>
				<path stroke-width=".1057" d="m26.018 15.144l0.384 0.342" fill="#fff"/>
				<path stroke-width=".1057" d="m24.742 15.144l0.383 0.342" fill="#fff"/>
				<path stroke-width=".1057" d="m24.485 15.144l0.385 0.342" fill="#fff"/>
				<path stroke-width=".1057" d="m24.23 15.144l0.384 0.342" fill="#fff"/>
				<path stroke-width=".1057" d="m23.976 15.144l0.383 0.342" fill="#fff"/>
				<path stroke-width=".1133" d="m7.265 12.865h4.155c0.229 0 0.415 0.175 0.415 0.389v1.958c0 0.215-0.186 0.388-0.415 0.388h-4.155c-0.228 0-0.414-0.173-0.414-0.388v-1.958c0-0.214 0.185-0.389 0.414-0.389z" fill="#fff"/>
				<path stroke-width=".1057" d="m7.372 12.979h3.942c0.217 0 0.392 0.16 0.392 0.356v1.795c0 0.196-0.176 0.356-0.392 0.356h-3.942c-0.218 0-0.395-0.16-0.395-0.356v-1.795c0-0.196 0.177-0.356 0.395-0.356z" fill="#fff"/>
				<path stroke-width=".0667" d="m9.177 13.663l0.238 0.008 0.012 0.108 0.195 0.099 0.152-0.123 0.184 0.099-0.174 0.109 0.043 0.148 0.218-0.008v0.2l-0.173-0.009-0.088 0.126 0.195 0.142-0.152 0.116-0.162-0.125-0.238 0.051 0.011 0.183-0.261 0.017-0.032-0.176-0.218-0.091-0.119 0.125-0.186-0.092 0.109-0.142-0.13-0.092h-0.184l-0.012-0.258 0.184 0.018 0.132-0.149-0.152-0.117 0.195-0.135 0.141 0.108 0.239-0.032 0.033-0.108z" fill="#fff"/>
				<ellipse rx=".262" ry=".225" cy="14.203" cx="9.249" stroke-width=".4" fill="#fff"/>
				<path stroke-width=".1057" d="m7.616 13.094l-0.383 0.342" fill="#fff"/>
				<path stroke-width=".1057" d="m7.872 13.094l-0.383 0.342" fill="#fff"/>
				<path stroke-width=".1057" d="m8.128 13.094l-0.383 0.342" fill="#fff"/>
				<path stroke-width=".1057" d="m8.384 13.094l-0.383 0.342" fill="#fff"/>
				<path stroke-width=".1057" d="m8.64 13.094l-0.384 0.342" fill="#fff"/>
				<path stroke-width=".1057" d="m8.896 13.094l-0.384 0.342" fill="#fff"/>
				<path stroke-width=".1057" d="m9.151 13.094l-0.385 0.342" fill="#fff"/>
				<path stroke-width=".1057" d="m9.405 13.094l-0.384 0.342" fill="#fff"/>
				<path stroke-width=".1057" d="m9.662 13.094l-0.384 0.342" fill="#fff"/>
				<path stroke-width=".1057" d="m9.917 13.094l-0.383 0.342" fill="#fff"/>
				<path stroke-width=".1057" d="m10.172 13.094l-0.382 0.342" fill="#fff"/>
				<path stroke-width=".1057" d="m10.429 13.094l-0.384 0.342" fill="#fff"/>
				<path stroke-width=".1057" d="m9.405 13.094l-0.384 0.342" fill="#fff"/>
				<path stroke-width=".1057" d="m10.684 13.094l-0.384 0.342" fill="#fff"/>
				<path stroke-width=".1057" d="m10.94 13.094l-0.384 0.342" fill="#fff"/>
				<path stroke-width=".1057" d="m11.195 13.094l-0.384 0.342" fill="#fff"/>
				<path stroke-width=".1057" d="m11.451 13.094l-0.384 0.342" fill="#fff"/>
				<path stroke-width=".1057" d="m11.067 13.094l0.384 0.342" fill="#fff"/>
				<path stroke-width=".1057" d="m10.811 13.094l0.384 0.342" fill="#fff"/>
				<path stroke-width=".1057" d="m10.557 13.094l0.384 0.342" fill="#fff"/>
				<path stroke-width=".1057" d="m10.301 13.094l0.384 0.342" fill="#fff"/>
				<path stroke-width=".1057" d="m10.045 13.094l0.384 0.342" fill="#fff"/>
				<path stroke-width=".1057" d="m9.79 13.094l0.382 0.342" fill="#fff"/>
				<path stroke-width=".1057" d="m9.534 13.094l0.383 0.342" fill="#fff"/>
				<path stroke-width=".1057" d="m9.278 13.094l0.384 0.342" fill="#fff"/>
				<path stroke-width=".1057" d="m9.021 13.094l0.384 0.342" fill="#fff"/>
				<path stroke-width=".1057" d="m8.767 13.094l0.385 0.342" fill="#fff"/>
				<path stroke-width=".1057" d="m8.512 13.094l0.384 0.342" fill="#fff"/>
				<path stroke-width=".1057" d="m8.256 13.094l0.384 0.342" fill="#fff"/>
				<path stroke-width=".1057" d="m9.278 13.094l0.384 0.342" fill="#fff"/>
				<path stroke-width=".1057" d="m8.001 13.094l0.383 0.342" fill="#fff"/>
				<path stroke-width=".1057" d="m7.745 13.094l0.383 0.342" fill="#fff"/>
				<path stroke-width=".1057" d="m7.489 13.094l0.383 0.342" fill="#fff"/>
				<path stroke-width=".1057" d="m7.233 13.094l0.383 0.342" fill="#fff"/>
				<path stroke-width=".1057" d="m7.616 15.029l-0.383 0.343" fill="#fff"/>
				<path stroke-width=".1057" d="m7.872 15.029l-0.383 0.343" fill="#fff"/>
				<path stroke-width=".1057" d="m8.128 15.029l-0.383 0.343" fill="#fff"/>
				<path stroke-width=".1057" d="m8.384 15.029l-0.383 0.343" fill="#fff"/>
				<path stroke-width=".1057" d="m8.64 15.029l-0.384 0.343" fill="#fff"/>
				<path stroke-width=".1057" d="m8.896 15.029l-0.384 0.343" fill="#fff"/>
				<path stroke-width=".1057" d="m9.151 15.029l-0.385 0.343" fill="#fff"/>
				<path stroke-width=".1057" d="m9.405 15.029l-0.384 0.343" fill="#fff"/>
				<path stroke-width=".1057" d="m9.662 15.029l-0.384 0.343" fill="#fff"/>
				<path stroke-width=".1057" d="m9.917 15.029l-0.383 0.343" fill="#fff"/>
				<path stroke-width=".1057" d="m10.172 15.029l-0.382 0.343" fill="#fff"/>
				<path stroke-width=".1057" d="m10.429 15.029l-0.384 0.343" fill="#fff"/>
				<path stroke-width=".1057" d="m9.405 15.029l-0.384 0.343" fill="#fff"/>
				<path stroke-width=".1057" d="m10.684 15.029l-0.384 0.343" fill="#fff"/>
				<path stroke-width=".1057" d="m10.94 15.029l-0.384 0.343" fill="#fff"/>
				<path stroke-width=".1057" d="m11.195 15.029l-0.384 0.343" fill="#fff"/>
				<path stroke-width=".1057" d="m11.451 15.029l-0.384 0.343" fill="#fff"/>
				<path stroke-width=".1057" d="m11.067 15.029l0.384 0.343" fill="#fff"/>
				<path stroke-width=".1057" d="m10.811 15.029l0.384 0.343" fill="#fff"/>
				<path stroke-width=".1057" d="m10.557 15.029l0.384 0.343" fill="#fff"/>
				<path stroke-width=".1057" d="m10.301 15.029l0.384 0.343" fill="#fff"/>
				<path stroke-width=".1057" d="m10.045 15.029l0.384 0.343" fill="#fff"/>
				<path stroke-width=".1057" d="m9.79 15.029l0.382 0.343" fill="#fff"/>
				<path stroke-width=".1057" d="m9.534 15.029l0.383 0.343" fill="#fff"/>
				<path stroke-width=".1057" d="m9.278 15.029l0.384 0.343" fill="#fff"/>
				<path stroke-width=".1057" d="m9.021 15.029l0.384 0.343" fill="#fff"/>
				<path stroke-width=".1057" d="m8.767 15.029l0.385 0.343" fill="#fff"/>
				<path stroke-width=".1057" d="m8.512 15.029l0.384 0.343" fill="#fff"/>
				<path stroke-width=".1057" d="m8.256 15.029l0.384 0.343" fill="#fff"/>
				<path stroke-width=".1057" d="m9.278 15.029l0.384 0.343" fill="#fff"/>
				<path stroke-width=".1057" d="m8.001 15.029l0.383 0.343" fill="#fff"/>
				<path stroke-width=".1057" d="m7.745 15.029l0.383 0.343" fill="#fff"/>
				<path stroke-width=".1057" d="m7.489 15.029l0.383 0.343" fill="#fff"/>
				<path stroke-width=".1057" d="m7.233 15.029l0.383 0.343" fill="#fff"/>
				<path stroke-width=".1695" d="m14.669 18.599c-6.202 6.063-8.848 6.831-7.605 7.319 1.241 0.488 5.234-2.641 9.39-6.799 4.155-4.156 6.7-7.856 5.459-8.345-1.242-0.489-0.649 1.374-7.244 7.825z" fill="#fff"/>
				<path stroke-width=".1321" d="m9.448 23.006l2.172 0.569c-2.045 1.938-4.345 2.735-4.984 2.394-0.639-0.342 1.15-1.14 2.812-2.963z" fill="#fff"/>
				<path stroke-width=".1321" d="m9.448 23.233l1.789 0.456c-1.992 1.863-3.962 2.392-4.472 2.165-0.512-0.227 1.064-0.868 2.683-2.621z" fill="#fff"/>
				<path stroke-width=".1321" d="m16.122 18.333c-0.006 0.029-0.019 0.16-0.033 0.211 0 0.072-0.007 0.126-0.015 0.184-0.021 0.049-0.017 0.094-0.079 0.112-0.043 0.059-0.07 0.074-0.127 0.1-0.039 0.029-0.099 0.059-0.16 0.083-0.062 0.024-0.121 0.027-0.189 0.015-0.057-0.035-0.096-0.07-0.142-0.098-0.012-0.046-0.023-0.111-0.033-0.155 0.017 0.045 0.029 0.116 0.033 0.182-0.006 0.071-0.033 0.103-0.064 0.154" fill="none"/>
				<path stroke-width=".1321" d="m15.534 19.275c-0.005-0.004-0.01-0.009-0.016-0.015 0.037 0.034 0.023 0.019-0.064-0.027-0.061-0.028-0.126-0.044-0.206-0.057h-0.222c-0.086 0-0.145 0.013-0.205 0.028-0.047 0.04-0.113 0.062-0.159 0.099-0.05 0.029-0.069 0.065-0.097 0.112-0.044 0.038-0.071 0.098-0.111 0.127-0.018 0.064-0.055 0.062-0.078 0.112 0.074 0.005 0.135 0.015 0.174 0.056 0.066 0.03-0.056-0.029-0.078-0.056-0.053-0.014-0.066-0.028-0.144-0.028-0.073-0.021-0.116 0.017-0.191 0.028-0.042 0.022-0.056 0.028-0.11 0.028" fill="none"/>
				<path stroke-width=".1321" d="m14.677 19.979c-0.031 0.002-0.18 0.026-0.239 0-0.066-0.016-0.103-0.047-0.142-0.099-0.02-0.038 0 0.067 0 0.113-0.006 0.083-0.035 0.083-0.078 0.141-0.047 0.025-0.096 0.063-0.145 0.083-0.039 0.031-0.088 0.052-0.143 0.071-0.047 0.019-0.104 0.04-0.142 0.069-0.053 0.034-0.048 0.075-0.078 0.127 0.004 0.069 0.018 0.107 0.062 0.142 0.018 0.047 0.061 0.095 0.096 0.126 0.037 0.064 0.082 0.094-0.017 0.112-0.053 0.021-0.084 0.004-0.141 0" fill="none"/>
				<path stroke-width=".1321" d="m13.677 20.963c-0.04-0.008-0.178-0.05-0.239-0.07h-0.221c-0.086 0.006-0.103 0.028-0.175 0.055-0.047 0.043-0.078 0.073-0.143 0.101-0.035 0.038-0.102 0.104-0.127 0.154-0.019 0.048-0.032 0.112-0.032 0.183 0.001 0.082 0.025 0.096 0.032 0.169 0.018 0.06 0.047 0.115 0.096 0.167 0.004 0.02 0.012 0.024 0.031 0.029" fill="none"/>
				<path stroke-width=".1321" d="m12.92 21.935c-0.006 0-0.021 0.036-0.044 0.066-0.051 0.052-0.057 0.056-0.136 0.056-0.069-0.003-0.064-0.027-0.112-0.045-0.023-0.035-0.053-0.063-0.078-0.111-0.019-0.027-0.035-0.073-0.058-0.1-0.021-0.033-0.046-0.057-0.067-0.088-0.023-0.009-0.029-0.019-0.057-0.023 0.064 0.011 0.069 0.032 0.113 0.066 0.02 0.032 0.039 0.064 0.057 0.102 0.006 0.047 0.021 0.084 0.021 0.144 0 0.061 0 0.104-0.021 0.154-0.027 0.029-0.047 0.058-0.079 0.079-0.026 0.024-0.06 0.059-0.079 0.088-0.035 0.021-0.062 0.039-0.102 0.066-0.035 0.019-0.07 0.04-0.124 0.046-0.066-0.006-0.086-0.024-0.136-0.046-0.041-0.031-0.075-0.05-0.113-0.077-0.029-0.021-0.059-0.059-0.078-0.089-0.061-0.015-0.1-0.009-0.135 0.022-0.031 0.021-0.059 0.048-0.079 0.077-0.019 0.009-0.049 0.035-0.067 0.045" fill="none"/>
				<path stroke-width=".1321" d="m11.679 22.393c0.019 0.008 0.084 0.053 0.113 0.07 0.017 0.059 0.045 0.09 0.055 0.152 0.016 0.06 0.014 0.126 0.014 0.194-0.015 0.071-0.045 0.122-0.068 0.179-0.045 0.031-0.068 0.052-0.127 0.084-0.055 0.008-0.112 0.014-0.182 0.014-0.045 0.015-0.127 0.021-0.169 0-0.061-0.009-0.108-0.033-0.153-0.056-0.053-0.028-0.084-0.056-0.141-0.083-0.027-0.04-0.07-0.076-0.111-0.125-0.037-0.047-0.061-0.072-0.085-0.124 0.021 0.059 0.052 0.111 0.069 0.167 0.033 0.058 0.051 0.079 0.057 0.152 0.019 0.058 0.014 0.127 0.014 0.192-0.006 0.046-0.009 0.131-0.027 0.167v0.042" fill="none"/>
				<path stroke-width=".1321" d="m9.607 23.639v0.021c0-0.055-0.002-0.027 0.023 0.08 0.042 0.047 0.142 0.061 0.224 0.039 0.074-0.052 0.072-0.094 0.204-0.119 0.128 0.007 0.177 0.041 0.247 0.08 0.086 0.037 0.125 0.056 0.181 0.141 0.029 0.067 0.045 0.114-0.045 0.141-0.07 0.044-0.154 0.069-0.248 0.081-0.104 0-0.179-0.012-0.225 0.04-0.072 0.065-0.068 0.105-0.068 0.219-0.024 0.036-0.028 0.142-0.047 0.182-0.062 0.025-0.098 0.04-0.202 0.04-0.023-0.062-0.051-0.174-0.066-0.24-0.017-0.072-0.023-0.174-0.068-0.223-0.042-0.054-0.097-0.104-0.158-0.141-0.027-0.034-0.08-0.062-0.135-0.08 0.088 0.04 0.102 0.084 0.112 0.181-0.077 0.035-0.099 0.059-0.225 0.061-0.125-0.01-0.155-0.038-0.203-0.102-0.009 0.102-0.045 0.135-0.069 0.223-0.045 0.06-0.064 0.121-0.111 0.199 0.019 0.098 0.062 0.102 0.068 0.222 0.029 0.079 0.025 0.153 0.09 0.201 0.029 0.03 0.049 0.038 0.112 0.04-0.13 0-0.206-0.014-0.292-0.061-0.068-0.036-0.118-0.082-0.181-0.121-0.081-0.051-0.179-0.098-0.271-0.12-0.104 0-0.18-0.011-0.226 0.04-0.063 0.041-0.106 0.111-0.136 0.201-0.021 0.104-0.028 0.174 0.023 0.241 0.037 0.078 0.047 0.107 0 0.2-0.053 0.066-0.131 0.074-0.248 0.101-0.086-0.004-0.169-0.021-0.226-0.04" fill="none"/>
				<path stroke-width=".1341" d="m21.744 13.126c2.751-4.751 4.578-8.793 4.075-9.024-0.501-0.231-3.141 3.436-5.893 8.187l1.818 0.837z" fill="#fff"/>
				<path stroke-width=".1178" d="m21.562 13.042c2.653-4.583 4.483-8.452 4.081-8.637-0.4-0.185-2.879 3.385-5.535 7.967" fill="#fff"/>
				<path stroke-width=".1337" d="m21.105 10.651c-0.323 0.535-0.664 1.147-0.997 1.721l1.454 0.67c0.331-0.573 0.693-1.177 0.997-1.722l-1.454-0.669z" fill="#fff"/>
				<path stroke-width=".1337" d="m21.229 10.836c-0.323 0.536-0.548 0.946-0.879 1.518l1.088 0.502c0.333-0.573 0.579-0.974 0.882-1.519l-1.091-0.501z" fill="#fff"/>
				<polygon stroke-width=".134" points="22.018 11.457 21.292 11.122 20.647 12.236 21.372 12.57" fill="#fff"/>
				<path stroke-width=".1337" d="m22.021 11.457l-1.371 0.779" fill="#fff"/>
				<path stroke-width=".1337" d="m21.372 12.57l-0.078-1.448" fill="#fff"/>
				<path stroke-width=".1337" d="m25.304 5.787l-0.727-0.334" fill="#fff"/>
					<ellipse rx=".186" transform="matrix(-.25 -.9682 .9682 -.25 26.65 30.811)" ry=".212" cy="5.084" cx="25.258" stroke-width=".4" fill="#EC1C24"/>
				<path stroke-width=".1695" d="m20.672 18.484c6.2 6.064 8.847 6.832 7.604 7.32-1.241 0.488-5.234-2.642-9.391-6.799-4.154-4.156-6.7-7.856-5.457-8.346 1.241-0.487 0.649 1.375 7.244 7.825z" fill="#fff"/>
				<path stroke-width=".1321" d="m25.892 22.892l-2.174 0.57c2.047 1.937 4.348 2.735 4.985 2.393 0.639-0.341-1.15-1.139-2.811-2.963z" fill="#fff"/>
				<path stroke-width=".1321" d="m25.892 23.119l-1.789 0.457c1.992 1.863 3.963 2.393 4.471 2.164 0.513-0.226-1.063-0.867-2.682-2.621z" fill="#fff"/>
				<path stroke-width=".1321" d="m19.218 18.22c0.006 0.028 0.02 0.16 0.032 0.212 0 0.07 0.006 0.125 0.016 0.183 0.021 0.049 0.017 0.094 0.08 0.111 0.042 0.06 0.069 0.075 0.126 0.099 0.039 0.029 0.098 0.06 0.158 0.085 0.064 0.023 0.121 0.027 0.191 0.015 0.056-0.035 0.097-0.07 0.142-0.1 0.011-0.044 0.021-0.11 0.033-0.154-0.018 0.047-0.029 0.118-0.033 0.183 0.006 0.071 0.033 0.101 0.063 0.154" fill="none"/>
				<path stroke-width=".1321" d="m19.805 19.162c0.007-0.006 0.011-0.009 0.017-0.015-0.037 0.034-0.021 0.019 0.063-0.028 0.062-0.027 0.127-0.043 0.207-0.055h0.222c0.086 0 0.145 0.012 0.207 0.027 0.045 0.039 0.111 0.062 0.158 0.098 0.049 0.03 0.069 0.063 0.096 0.113 0.043 0.038 0.07 0.098 0.11 0.126 0.018 0.065 0.056 0.064 0.079 0.112-0.075 0.006-0.135 0.016-0.174 0.057-0.066 0.03 0.055-0.029 0.079-0.057 0.051-0.013 0.065-0.027 0.144-0.027 0.071-0.021 0.115 0.017 0.189 0.027 0.043 0.024 0.057 0.028 0.111 0.028" fill="none"/>
				<path stroke-width=".1321" d="m20.663 19.865c0.031 0.001 0.18 0.026 0.238 0 0.064-0.016 0.103-0.047 0.143-0.099 0.02-0.038 0 0.067 0 0.111 0.008 0.084 0.034 0.084 0.078 0.143 0.047 0.025 0.096 0.062 0.145 0.083 0.038 0.031 0.087 0.052 0.143 0.071 0.047 0.019 0.104 0.04 0.142 0.069 0.053 0.034 0.048 0.074 0.079 0.126-0.005 0.07-0.018 0.108-0.063 0.141-0.02 0.048-0.061 0.096-0.096 0.128-0.038 0.064-0.083 0.094 0.015 0.112 0.056 0.021 0.087 0.004 0.145 0" fill="none"/>
				<path stroke-width=".1321" d="m21.663 20.85c0.039-0.01 0.176-0.05 0.238-0.07h0.221c0.088 0.005 0.104 0.028 0.176 0.055 0.047 0.043 0.078 0.071 0.143 0.101 0.035 0.038 0.101 0.103 0.127 0.153 0.02 0.048 0.033 0.113 0.033 0.183-0.002 0.083-0.026 0.097-0.033 0.169-0.018 0.06-0.046 0.116-0.096 0.168-0.006 0.019-0.012 0.022-0.031 0.028" fill="none"/>
				<path stroke-width=".1321" d="m22.419 21.82s0.021 0.037 0.045 0.066c0.051 0.053 0.058 0.058 0.137 0.058 0.068-0.003 0.062-0.028 0.111-0.046 0.023-0.036 0.053-0.063 0.079-0.11 0.018-0.03 0.034-0.074 0.056-0.101 0.021-0.032 0.047-0.057 0.068-0.087 0.021-0.01 0.029-0.02 0.057-0.023-0.066 0.01-0.071 0.033-0.113 0.066-0.02 0.032-0.039 0.065-0.057 0.102-0.006 0.046-0.021 0.083-0.022 0.142 0 0.062 0.001 0.105 0.022 0.156 0.027 0.027 0.047 0.056 0.079 0.078 0.024 0.025 0.06 0.059 0.079 0.089 0.036 0.021 0.062 0.039 0.102 0.066 0.033 0.02 0.07 0.04 0.124 0.044 0.067-0.004 0.085-0.022 0.136-0.044 0.041-0.03 0.074-0.051 0.113-0.077 0.027-0.021 0.059-0.061 0.078-0.089 0.061-0.016 0.1-0.009 0.135 0.021 0.031 0.021 0.059 0.048 0.078 0.078 0.02 0.008 0.05 0.036 0.069 0.045" fill="none"/>
				<path stroke-width=".1321" d="m23.661 22.279c-0.019 0.008-0.084 0.054-0.112 0.07-0.018 0.058-0.046 0.09-0.056 0.152-0.016 0.059-0.014 0.125-0.014 0.194 0.016 0.069 0.045 0.122 0.069 0.179 0.044 0.029 0.067 0.052 0.126 0.084 0.057 0.007 0.111 0.013 0.182 0.013 0.043 0.015 0.127 0.022 0.169 0 0.062-0.008 0.108-0.032 0.153-0.056 0.052-0.027 0.084-0.055 0.141-0.082 0.027-0.04 0.069-0.078 0.112-0.125 0.035-0.047 0.061-0.072 0.083-0.124-0.02 0.058-0.051 0.109-0.068 0.167-0.033 0.058-0.051 0.078-0.058 0.151-0.018 0.059-0.017 0.127-0.017 0.193 0.01 0.046 0.014 0.131 0.03 0.166v0.041" fill="none"/>
				<path stroke-width=".1321" d="m25.733 23.525v0.02c0-0.055 0.002-0.025-0.024 0.082-0.043 0.046-0.142 0.059-0.225 0.039-0.072-0.054-0.072-0.094-0.203-0.121-0.128 0.01-0.177 0.042-0.249 0.082-0.083 0.037-0.124 0.056-0.18 0.141-0.027 0.067-0.043 0.113 0.046 0.14 0.069 0.045 0.153 0.069 0.248 0.082 0.104 0 0.178-0.013 0.225 0.04 0.071 0.065 0.066 0.103 0.066 0.22 0.025 0.036 0.03 0.142 0.047 0.183 0.062 0.024 0.098 0.039 0.203 0.039 0.023-0.062 0.05-0.174 0.066-0.241 0.017-0.071 0.023-0.174 0.067-0.222 0.042-0.056 0.097-0.103 0.159-0.141 0.026-0.034 0.08-0.064 0.135-0.08-0.089 0.04-0.101 0.084-0.113 0.181 0.078 0.035 0.1 0.06 0.225 0.062 0.126-0.012 0.156-0.038 0.205-0.102 0.008 0.102 0.045 0.135 0.066 0.221 0.047 0.06 0.066 0.123 0.113 0.201-0.024 0.097-0.062 0.102-0.068 0.222-0.028 0.079-0.025 0.153-0.09 0.201-0.029 0.03-0.049 0.037-0.112 0.04 0.13 0 0.206-0.014 0.292-0.06 0.068-0.036 0.117-0.083 0.181-0.12 0.081-0.052 0.18-0.099 0.271-0.121 0.104 0 0.18-0.011 0.226 0.04 0.062 0.041 0.107 0.111 0.136 0.201 0.021 0.104 0.028 0.174-0.024 0.241-0.037 0.077-0.047 0.107 0 0.2 0.053 0.066 0.131 0.074 0.249 0.102 0.084-0.005 0.167-0.022 0.226-0.041" fill="none"/>
				<path stroke-width=".1341" d="m13.597 13.011c-2.752-4.749-4.578-8.792-4.076-9.023 0.5-0.232 3.141 3.436 5.893 8.186l-1.817 0.837z" fill="#fff"/>
				<path stroke-width=".1178" d="m13.777 12.928c-2.655-4.582-4.483-8.451-4.081-8.636 0.4-0.185 2.881 3.385 5.535 7.967" fill="#fff"/>
				<path stroke-width=".1337" d="m14.233 10.537c0.322 0.536 0.666 1.149 0.998 1.722l-1.454 0.669c-0.331-0.572-0.693-1.176-0.997-1.721l1.453-0.67z" fill="#fff"/>
				<path stroke-width=".1337" d="m14.112 10.722c0.322 0.537 0.547 0.946 0.878 1.519l-1.09 0.503c-0.331-0.573-0.578-0.975-0.88-1.519l1.092-0.503z" fill="#fff"/>
				<polygon stroke-width=".134" points="13.319 11.344 14.046 11.009 14.692 12.123 13.966 12.457" fill="#fff"/>
				<path stroke-width=".1337" d="m13.319 11.343l1.372 0.78" fill="#fff"/>
				<path stroke-width=".1337" d="m13.965 12.457l0.083-1.448" fill="#fff"/>
				<path stroke-width=".1337" d="m10.036 5.674l0.727-0.335" fill="#fff"/>
					<ellipse rx=".186" transform="matrix(.2494 -.9684 .9684 .2494 2.7538 13.493)" ry=".211" cy="4.97" cx="10.082" stroke-width=".4" fill="#EC1C24"/>
				<path stroke-width=".122" d="m15.796 10.586c0 3.989 0.023 5.491-0.271 5.697-0.278 0.221-8.036 0-8.036 1.14s6.391 2.278 8.307 2.278c2.557 0 3.834-1.139 3.834-3.418v-5.697h-3.834z" fill="#fff"/>
				<path stroke-width=".1057" d="m15.796 11.726v0.57c1.278 0.189 2.557 0.189 3.834 0v-0.57c-1.277 0.19-2.556 0.19-3.834 0z" fill="#fff"/>
				<path stroke-width=".1057" d="m15.796 10.586v0.57c1.278 0.189 2.557 0.189 3.834 0v-0.57c-1.277 0.19-2.556 0.19-3.834 0z" fill="#fff"/>
				<path stroke-width=".1057" d="m15.796 11.156v0.569c1.278 0.19 2.557 0.19 3.834 0v-0.569c-1.277 0.19-2.556 0.19-3.834 0z" fill="#fff"/>
				<path stroke-width=".1057" d="m15.796 12.296v0.569c1.278 0.189 2.557 0.189 3.834 0v-0.569c-1.277 0.189-2.556 0.189-3.834 0z" fill="#fff"/>
				<ellipse rx=".176" ry=".123" cy="11.48" cx="15.969" stroke-width="1.7851" fill="#fff"/>
				<ellipse rx=".175" ry=".123" cy="11.542" cx="16.667" stroke-width="1.7851" fill="#fff"/>
				<ellipse rx=".174" ry=".123" cy="11.603" cx="17.364" stroke-width="1.7852" fill="#fff"/>
				<ellipse rx=".174" ry=".123" cy="11.603" cx="18.062" stroke-width="1.7852" fill="#fff"/>
				<ellipse rx=".174" ry=".123" cy="11.542" cx="18.759" stroke-width="1.7851" fill="#fff"/>
				<ellipse rx=".174" ry=".123" cy="11.48" cx="19.456" stroke-width="1.7851" fill="#fff"/>
				<path stroke-width=".1057" d="m15.796 13.436l3.834 3.076" fill="#fff"/>
				<path stroke-width=".1057" d="m16.179 13.436l3.451 2.733" fill="#fff"/>
				<path stroke-width=".1057" d="m16.689 13.549l2.941 2.278" fill="#fff"/>
				<path stroke-width=".1057" d="m17.074 13.549l2.556 1.938" fill="#fff"/>
				<path stroke-width=".1057" d="m17.458 13.549l2.172 1.596" fill="#fff"/>
				<path stroke-width=".1057" d="m17.839 13.549l1.791 1.254" fill="#fff"/>
				<path stroke-width=".1057" d="m18.224 13.549l1.406 0.91" fill="#fff"/>
				<path stroke-width=".1057" d="m18.605 13.549l1.024 0.684" fill="#fff"/>
				<path stroke-width=".1057" d="m18.991 13.549l0.639 0.456" fill="#fff"/>
				<path stroke-width=".1057" d="m19.372 13.549l0.258 0.229" fill="#fff"/>
				<path stroke-width=".1057" d="m15.796 13.777l3.834 3.076" fill="#fff"/>
				<path stroke-width=".1057" d="m19.63 13.436l-4.217 3.418" fill="#fff"/>
				<path stroke-width=".1057" d="m19.247 13.436l-3.706 2.961" fill="#fff"/>
				<path stroke-width=".1057" d="m18.735 13.549l-2.939 2.278" fill="#fff"/>
				<path stroke-width=".1057" d="m18.353 13.549l-2.557 1.938" fill="#fff"/>
				<path stroke-width=".1057" d="m17.969 13.549l-2.173 1.596" fill="#fff"/>
				<path stroke-width=".1057" d="m17.585 13.549l-1.789 1.254" fill="#fff"/>
				<path stroke-width=".1057" d="m17.202 13.549l-1.406 0.91" fill="#fff"/>
				<path stroke-width=".1057" d="m16.817 13.549l-1.021 0.684" fill="#fff"/>
				<path stroke-width=".1057" d="m16.434 13.549l-0.639 0.456" fill="#fff"/>
				<path stroke-width=".1057" d="m16.052 13.549l-0.256 0.229" fill="#fff"/>
				<path stroke-width=".1057" d="m19.63 13.777l-4.217 3.417" fill="#fff"/>
				<path stroke-width=".1057" d="m19.63 14.118l-4.217 3.418" fill="#fff"/>
				<path stroke-width=".1057" d="m19.63 14.459l-4.217 3.42" fill="#fff"/>
				<path stroke-width=".1057" d="m19.63 14.803l-4.217 3.418" fill="#fff"/>
				<path stroke-width=".1057" d="m19.63 15.144l-4.217 3.418" fill="#fff"/>
				<path stroke-width=".1057" d="m19.63 15.486l-4.217 3.418" fill="#fff"/>
				<path stroke-width=".1057" d="m19.63 15.827l-4.217 3.418" fill="#fff"/>
				<path stroke-width=".1057" d="m19.63 16.17l-4.217 3.418" fill="#fff"/>
				<path stroke-width=".1057" d="m19.63 16.512l-3.961 3.19" fill="#fff"/>
				<path stroke-width=".1057" d="m19.63 16.854l-3.578 2.848" fill="#fff"/>
				<path stroke-width=".1057" d="m19.501 17.311l-2.812 2.277" fill="#fff"/>
				<path stroke-width=".1057" d="m19.372 17.765l-2.298 1.823" fill="#fff"/>
				<path stroke-width=".1057" d="m19.118 18.334l-1.149 0.911" fill="#fff"/>
				<path stroke-width=".1057" d="m15.796 14.118l3.705 2.963" fill="#fff"/>
				<path stroke-width=".1057" d="m15.796 14.459l3.705 2.964" fill="#fff"/>
				<path stroke-width=".1057" d="m15.796 14.803l3.576 2.848" fill="#fff"/>
				<path stroke-width=".1057" d="m15.796 15.144l3.576 2.849" fill="#fff"/>
				<path stroke-width=".1057" d="m15.796 15.486l3.451 2.734" fill="#fff"/>
				<path stroke-width=".1057" d="m15.669 15.714l3.449 2.735" fill="#fff"/>
				<path stroke-width=".1057" d="m15.669 16.056l3.195 2.507" fill="#fff"/>
				<path stroke-width=".1057" d="m15.541 16.283l3.194 2.508" fill="#fff"/>
				<path stroke-width=".1057" d="m15.413 16.512l3.066 2.393" fill="#fff"/>
				<path stroke-width=".1057" d="m15.413 16.854l2.939 2.278" fill="#fff"/>
				<path stroke-width=".1057" d="m15.413 17.194l2.556 2.051" fill="#fff"/>
				<path stroke-width=".1057" d="m15.796 12.865v0.57c1.278 0.189 2.557 0.189 3.834 0v-0.57c-1.277 0.19-2.556 0.19-3.834 0z" fill="#fff"/>
				<path stroke-width=".1057" d="m15.413 17.536l2.299 1.824" fill="#fff"/>
				<path stroke-width=".1057" d="m15.413 17.879l2.045 1.595" fill="#fff"/>
				<path stroke-width=".1057" d="m15.413 18.221l1.789 1.367" fill="#fff"/>
				<path stroke-width=".1057" d="m15.413 18.562l1.276 1.025" fill="#fff"/>
				<path stroke-width=".1057" d="m15.413 18.904l1.021 0.797" fill="#fff"/>
				<path stroke-width=".1057" d="m15.413 19.245l0.639 0.456" fill="#fff"/>
				<ellipse rx=".176" ry=".123" cy="13.189" cx="15.969" stroke-width="1.7851" fill="#fff"/>
				<ellipse rx=".175" ry=".123" cy="13.251" cx="16.667" stroke-width="1.7851" fill="#fff"/>
				<ellipse rx=".174" ry=".123" cy="13.313" cx="17.364" stroke-width="1.7852" fill="#fff"/>
				<ellipse rx=".174" ry=".123" cy="13.313" cx="18.062" stroke-width="1.7852" fill="#fff"/>
				<ellipse rx=".174" ry=".123" cy="13.251" cx="18.759" stroke-width="1.7851" fill="#fff"/>
				<ellipse rx=".174" ry=".123" cy="13.189" cx="19.456" stroke-width="1.7851" fill="#fff"/>
				<path stroke-width=".1057" d="m10.301 18.791l4.601-2.395" fill="#fff"/>
				<path stroke-width=".1057" d="m10.045 18.676l4.344-2.279" fill="#fff"/>
				<path stroke-width=".1057" d="m9.917 18.449l3.963-2.053" fill="#fff"/>
				<path stroke-width=".1057" d="m9.79 18.221l3.45-1.824" fill="#fff"/>
				<path stroke-width=".1057" d="m9.534 17.993l3.194-1.597" fill="#fff"/>
				<path stroke-width=".1057" d="m9.662 17.65l2.172-1.139" fill="#fff"/>
				<path stroke-width=".1057" d="m9.534 17.423l1.661-0.911" fill="#fff"/>
				<path stroke-width=".1057" d="m9.534 17.081l1.15-0.569" fill="#fff"/>
				<path stroke-width=".1057" d="m10.684 18.904l4.344-2.278" fill="#fff"/>
				<path stroke-width=".1057" d="m11.067 19.019l4.088-2.165" fill="#fff"/>
				<path stroke-width=".1057" d="m11.451 19.132l3.833-2.051" fill="#fff"/>
				<path stroke-width=".1057" d="m11.834 19.245l3.194-1.709" fill="#fff"/>
				<path stroke-width=".1057" d="m12.346 19.245l2.81-1.48" fill="#fff"/>
				<path stroke-width=".1057" d="m12.729 19.36l2.427-1.254" fill="#fff"/>
				<path stroke-width=".1057" d="m13.112 19.474l1.916-1.024" fill="#fff"/>
				<path stroke-width=".1057" d="m13.622 19.474l1.533-0.798" fill="#fff"/>
				<path stroke-width=".1057" d="m14.135 19.588l1.021-0.569" fill="#fff"/>
				<path stroke-width=".1057" d="m14.646 19.588l0.638-0.343" fill="#fff"/>
				<path stroke-width=".1057" d="m15.541 16.283h-0.64c-0.213 1.14-0.213 2.279 0 3.418h0.64c-0.214-1.139-0.214-2.278 0-3.418z" fill="#fff"/>
				<path stroke-width=".1057" d="m8.001 17.879l1.533-1.139" fill="#fff"/>
				<path stroke-width=".1057" d="m8.001 17.081l1.533 1.368" fill="#fff"/>
				<path stroke-width=".0752" d="m10.301 16.512l-0.767 0.114c-0.17 0.721-0.17 1.328 0 2.05l0.767 0.229c-0.171-0.723-0.171-1.672 0-2.393z" fill="#fff"/>
				<path stroke-width=".1294" d="m19.626 10.814v-0.574c-0.574 0.004-0.959-0.337-0.959-0.684l-1.914 0.004c0 0.343-0.383 0.684-0.957 0.684v0.57h3.83z" fill="#fff"/>
				<rect height=".684" width="1.644" y="8.877" x="16.889" stroke-width=".1093" fill="#fff"/>
				<rect height=".684" width="1.369" y="8.193" x="17.026" stroke-width=".1093" fill="#fff"/>
				<rect height=".684" width="1.369" y="7.51" x="17.026" stroke-width=".1093" fill="#fff"/>
				<rect height=".911" width="1.095" y="6.599" x="17.163" stroke-width=".1093" fill="#fff"/>
				<rect height=".798" width="1.189" y="5.801" x="17.116" stroke-width=".114" fill="#fff"/>
				<ellipse rx="1.585" ry="1.082" cy="5.061" cx="17.776" stroke-width=".4" fill="#fff"/>
				<path stroke-width=".1074" d="m18.569 5.003c0 0.3 0.396 0.798 0.396 0.798-0.287 0.196-0.752 0.342-1.189 0.342s-0.981-0.081-1.188-0.342 0.397-0.498 0.397-0.798c0-0.298-0.397-0.684-0.397-0.684 0.284-0.195 0.751-0.341 1.188-0.341s0.902 0.146 1.189 0.341c0.001 0-0.396 0.386-0.396 0.684z" fill="#fff"/>
				<path stroke-width=".1074" d="m18.305 5.003c0 0.3 0.396 0.912 0.396 0.912-0.286 0.196-0.487 0.227-0.925 0.227s-0.717 0.033-0.924-0.227 0.396-0.612 0.396-0.912c0-0.298-0.396-0.798-0.396-0.798 0.287-0.195 0.486-0.227 0.924-0.227s0.639 0.031 0.925 0.227-0.396 0.5-0.396 0.798z" fill="#fff"/>
				<ellipse rx=".396" ry=".342" cy="5.117" cx="16.192" stroke-width=".4" fill="#fff"/>
				<ellipse rx=".394" ry=".342" cy="5.117" cx="19.361" stroke-width=".4" fill="#fff"/>
				<ellipse rx=".396" ry=".342" cy="5.117" cx="17.776" stroke-width=".4" fill="#fff"/>
				<ellipse rx=".396" ry=".342" cy="3.978" cx="17.776" stroke-width=".4" fill="#fff"/>
				<ellipse rx=".41" ry=".342" cy="10.473" cx="16.616" stroke-width=".4" fill="#fff"/>
				<ellipse rx=".411" ry=".342" cy="10.473" cx="18.805" stroke-width=".4" fill="#fff"/>
				<path stroke-width=".1093" d="m16.753 9.561h1.914l-0.955 1.025-0.959-1.025z" fill="#fff"/>
				<ellipse rx=".547" ry=".456" cy="10.359" cx="17.711" stroke-width=".4" fill="#fff"/>
				<path stroke-width=".1321" d="m15.764 13.777h2.62c0.088 0 0.16 0.055 0.16 0.122v0.441c0 0.067-0.072 0.121-0.16 0.121h-2.62c-0.089 0-0.161-0.054-0.161-0.121v-0.441c-0.001-0.067 0.072-0.122 0.161-0.122z" fill="#fff"/>
				<path stroke-width=".1321" d="m19.438 13.209c-0.354 0-0.638 0.265-0.638 0.595v0.519c0 0.329 0.284 0.595 0.638 0.595s0.64-0.266 0.64-0.595v-0.519c-0.001-0.33-0.286-0.595-0.64-0.595zm0 0.227c-0.212 0-0.385 0.213-0.385 0.477v0.301c0 0.265 0.173 0.476 0.385 0.476 0.214 0 0.384-0.211 0.384-0.476v-0.301c-0.001-0.264-0.171-0.477-0.384-0.477z" fill="#fff"/>
				<path stroke-width=".1321" d="m16.116 13.322c-0.214 0-0.383 0.212-0.383 0.477v0.528c0 0.265 0.169 0.477 0.383 0.477 0.213 0 0.383-0.212 0.383-0.477v-0.528c0-0.265-0.17-0.477-0.383-0.477zm0-0.226c-0.355 0-0.64 0.266-0.64 0.594v0.747c0 0.331 0.284 0.596 0.64 0.596 0.353 0 0.639-0.265 0.639-0.596v-0.747c0-0.329-0.286-0.594-0.639-0.594z" fill="#fff"/>
				<path stroke-width=".1321" d="m15.093 13.55c-0.212 0-0.383 0.213-0.383 0.477v0.124c0 0.265 0.171 0.477 0.383 0.477s0.384-0.212 0.384-0.477v-0.124c-0.001-0.264-0.172-0.477-0.384-0.477zm0-0.228c-0.354 0-0.639 0.267-0.639 0.597v0.341c0 0.33 0.284 0.596 0.639 0.596 0.353 0 0.641-0.266 0.641-0.596v-0.341c-0.001-0.33-0.288-0.597-0.641-0.597z" fill="#fff"/>
				<path stroke-width=".1321" d="m13.559 13.235c-0.383 0-0.689 0.237-0.689 0.532v0.59c0 0.296 0.307 0.533 0.689 0.533 0.383 0 0.689-0.237 0.689-0.533v-0.59c0.001-0.294-0.306-0.532-0.689-0.532zm0-0.254c-0.637 0-1.149 0.298-1.149 0.666v0.834c0 0.369 0.513 0.665 1.149 0.665 0.637 0 1.15-0.296 1.15-0.665v-0.834c0.001-0.369-0.513-0.666-1.15-0.666z" fill="#fff"/>
				<path stroke-width=".1321" d="m21.866 13.35c-0.383 0-0.69 0.238-0.69 0.533v0.59c0 0.295 0.308 0.532 0.69 0.532s0.69-0.237 0.69-0.532v-0.59c0.001-0.295-0.308-0.533-0.69-0.533zm0-0.254c-0.638 0-1.15 0.296-1.15 0.664v0.835c0 0.368 0.513 0.665 1.15 0.665s1.15-0.297 1.15-0.665v-0.835c0.001-0.368-0.513-0.664-1.15-0.664z" fill="#fff"/>
				<path stroke-width=".1321" d="m19.776 13.777h1.367c0.046 0 0.084 0.055 0.084 0.122v0.441c0 0.067-0.038 0.121-0.084 0.121h-1.367c-0.045 0-0.083-0.054-0.083-0.121v-0.441c0-0.067 0.038-0.122 0.083-0.122z" fill="#fff"/>
				<path stroke-width=".1321" d="m18.336 13.665h0.799c0.026 0 0.049 0.071 0.049 0.161v0.589c0 0.089-0.022 0.161-0.049 0.161h-0.799c-0.025 0-0.048-0.072-0.048-0.161v-0.589c0-0.09 0.022-0.161 0.048-0.161z" fill="#fff"/>
				<path stroke-width=".1321" d="m14.12 13.665h0.797c0.027 0 0.049 0.071 0.049 0.161v0.589c0 0.089-0.022 0.161-0.049 0.161h-0.797c-0.027 0-0.05-0.072-0.05-0.161v-0.589c0-0.09 0.023-0.161 0.05-0.161z" fill="#fff"/>
				<path stroke-width=".1321" d="m11.356 13.55h1.595c0.053 0 0.097 0.091 0.097 0.202v0.735c0 0.112-0.044 0.202-0.097 0.202h-1.595c-0.055 0-0.098-0.09-0.098-0.202v-0.735c0.001-0.111 0.044-0.202 0.098-0.202z" fill="#fff"/>
				<path stroke-width=".1321" d="m22.468 13.665h1.48c0.05 0 0.09 0.09 0.09 0.2v0.738c0 0.11-0.04 0.2-0.09 0.2h-1.48c-0.051 0-0.091-0.09-0.091-0.2v-0.738c0-0.11 0.04-0.2 0.091-0.2z" fill="#fff"/>
			</g>
	</g>
</g>
</svg>
