<?xml version="1.0" encoding="UTF-8" standalone="no"?>
<!-- Generator: Adobe Illustrator 18.0.0, SVG Export Plug-In . SVG Version: 6.00 Build 0)  -->
<!DOCTYPE svg  PUBLIC '-//W3C//DTD SVG 1.1//EN'  'http://www.w3.org/Graphics/SVG/1.1/DTD/svg11.dtd'>
<svg style="enable-background:new 0 0 144 80" xmlns="http://www.w3.org/2000/svg" xml:space="preserve" version="1.1" y="0px" x="0px" xmlns:xlink="http://www.w3.org/1999/xlink" viewBox="0 0 144 80">
<g id="ZIM">
		<polygon points="144 80 144 0.008 0 0.008 0 80" fill="#319245"/>
		<polygon points="144 68.57 0 68.57 0 11.436 144 11.436" fill="#FFD200"/>
		<polygon points="0 57.145 144 57.145 144 22.862 0 22.862" fill="#DC2426"/>
		<polygon stroke-width=".1317" points="144 45.717 0 45.717 0 34.29 144 34.29" stroke="#000"/>
			<polygon stroke-linejoin="bevel" points="0 0 3.823 0 55.507 39.887 3.823 79.773 0 79.773" stroke="#000" stroke-width=".1363"/>
			<polygon points="0 79.773 0 0 51.683 39.887" fill="#fff"/>
			<polygon points="0 79.773 0 0 51.683 39.887" fill="none"/>
			<polygon points="18.571 20.589 14.775 32.389 2.288 32.389 12.43 39.73 8.533 51.52 18.571 44.193 28.612 51.52 24.768 39.631 34.857 32.438 22.419 32.438" fill="#EC1C2E"/>
			<polygon points="18.571 20.589 14.775 32.389 2.288 32.389 12.43 39.73 8.533 51.52 18.571 44.193 28.612 51.52 24.768 39.631 34.857 32.438 22.419 32.438" fill="#DC2426"/>
			<path d="m14.171 48.806c3.976-0.17 8.578-0.05 12.007 0.397l2.396-9.96-10.457-3.623-8.56 7.101 1.175 5.829c1.136 0.108 1.863 0.155 3.439 0.256z" fill="#FFC619"/>
			<path stroke-width=".1793" d="m14.171 48.806c3.976-0.17 8.578-0.05 12.007 0.397l2.396-9.96-10.457-3.623-8.56 7.101 1.175 5.829c1.136 0.108 1.863 0.155 3.439 0.256z" stroke="#000" fill="none"/>
			<path stroke-width=".1196" d="m9.8 42.776c0.246-0.138 3.159-0.289 3.159-0.289 3.146 0.146 10.791 0.628 14.502 1.276m-14.045-3.492c3.146 0.147 10.79 0.628 14.503 1.277m-13.751 7.219l-0.967-6.272" stroke="#000" fill="none"/>
			<path d="m18.178 42.246c0.312 0.01 0.573-0.235 0.583-0.548 0.009-0.312-0.236-0.572-0.549-0.583-0.311-0.009-0.572 0.236-0.582 0.548-0.009 0.313 0.235 0.572 0.548 0.583z"/>
			<path d="m20.692 42.445c0.312 0.011 0.572-0.234 0.582-0.547 0.011-0.312-0.235-0.573-0.548-0.583-0.311-0.01-0.572 0.236-0.583 0.547-0.007 0.313 0.237 0.574 0.549 0.583z"/>
			<polyline stroke-linejoin="round" stroke="#000" points="13.596 42.532 14.988 44.091 16.368 42.738 17.597 44.207 19.007 42.945 20.246 44.331 21.605 43.085 22.903 44.564 24.286 43.362 25.641 44.839 26.87 43.685" stroke-width=".1196" fill="none"/>
			<path stroke-width=".1196" d="m13.675 45.552c3.75-0.006 9.793 0.391 13.145 0.907" stroke="#000" fill="none"/>
			<polyline stroke-linejoin="round" stroke="#000" points="13.417 43.976 14.811 45.533 16.202 44.288 17.419 45.648 18.83 44.388 20.068 45.773 21.429 44.558 22.728 45.98 24.11 44.768 25.47 46.247 27.319 44.538" stroke-width=".1196" fill="none"/>
			<path d="m18.759 37.666c-0.809 1.865-3.285 2.694-4.862 3.493-0.977 0.495-0.932 1.109-0.938 1.328-0.014 0.411-0.324 0.68-1.087 0.656-0.727-0.024-1.006-0.419-1.117-0.726 0.027 0.292-0.082 0.688-0.869 0.663-0.459-0.014-0.67-0.274-0.65-0.868 0.023-0.774 0.713-2.681 1.123-3.394 1.143-1.992 1.533-5.672 0.955-8.842-0.434-2.366-1.464-2.784-3.358-2.746 0.256-0.38 0.558-0.734 1.397-1.193 0.523-2.747 3.379-3.062 5.25-0.466 1.394 1.935 1.887 3.211 2.106 3.944 4.049 2.357 8.74 5.8 13.03 9.666 0.691 0.623-0.262 0.507-1.561 0.291-3.598-0.598-6.994-1.043-9.419-1.806z" fill="#FFC619"/>
			<path stroke-width=".1793" d="m18.759 37.666c-0.809 1.865-3.285 2.694-4.862 3.493-0.977 0.495-0.932 1.109-0.938 1.328-0.014 0.411-0.324 0.68-1.087 0.656-0.727-0.024-1.006-0.419-1.117-0.726 0.027 0.292-0.082 0.688-0.869 0.663-0.459-0.014-0.67-0.274-0.65-0.868 0.023-0.774 0.713-2.681 1.123-3.394 1.143-1.992 1.533-5.672 0.955-8.842-0.434-2.366-1.464-2.784-3.358-2.746 0.256-0.38 0.558-0.734 1.397-1.193 0.523-2.747 3.379-3.062 5.25-0.466 1.394 1.935 1.887 3.211 2.106 3.944 4.049 2.357 8.74 5.8 13.03 9.666 0.691 0.623-0.262 0.507-1.561 0.291-3.598-0.598-6.994-1.043-9.419-1.806zc-2.418-0.76-3.871-1.836-3.595-3.69m-1.808 1.978c-0.107 3.439-2.48 3.365-2.601 6.464" stroke="#000" fill="none"/>
			<path stroke-width=".1196" d="m17.073 39.537c1.308 0.478 2.048 0.04 3.005-1.506m-1.393 1.532c1.221 0.445 1.947 0.093 2.819-1.217m-9.99-7.005c0.052 0.68 1.649-0.021 5.194-1.825" stroke="#000" fill="none"/>
		<path d="m11.341 26.012c0.246 0.008 0.451-0.185 0.459-0.432 0.008-0.245-0.186-0.45-0.432-0.458s-0.451 0.185-0.458 0.432c-0.009 0.246 0.185 0.451 0.431 0.458z"/>
</g>
</svg>
