<?xml version="1.0" encoding="UTF-8" standalone="no"?>
<!-- Generator: Adobe Illustrator 18.0.0, SVG Export Plug-In . SVG Version: 6.00 Build 0)  -->
<!DOCTYPE svg  PUBLIC '-//W3C//DTD SVG 1.1//EN'  'http://www.w3.org/Graphics/SVG/1.1/DTD/svg11.dtd'>
<svg style="enable-background:new 0 0 144 80" xmlns="http://www.w3.org/2000/svg" xml:space="preserve" version="1.1" y="0px" x="0px" xmlns:xlink="http://www.w3.org/1999/xlink" viewBox="0 0 144 80">
<g id="CAY">
		<rect id="rect124" height="80" width="144" y="0" x=".001" fill="#22205F"/>
		<g id="g584" transform="scale(8.3333)">
			<path id="path146" fill="#fff" d="m0 0v0.524l8.325 4.163h1.048v-0.524l-8.325-4.163h-1.048zm9.373 0v0.524l-8.325 4.163h-1.048v-0.524l8.325-4.163h1.048z"/>
			<path id="path136" fill="#fff" d="m3.906 0v4.687h1.562v-4.687h-1.562zm-3.906 1.562v1.562h9.373v-1.562h-9.373z"/>
			<path id="path141" fill="#CB2026" d="m0 1.875v0.937h9.373v-0.937h-9.373zm4.218-1.875v4.687h0.937v-4.687h-0.937z"/>
			<path id="path150" fill="#CB2026" d="m0 4.687l3.124-1.562h0.699l-3.124 1.562h-0.699zm0-4.687l3.124 1.562h-0.698l-2.426-1.213v-0.349zm5.55 1.562l3.125-1.562h0.699l-3.125 1.562h-0.699zm3.823 3.125l-3.124-1.563h0.699l2.426 1.213v0.35z"/>
		</g>
		<g id="g4245">
				<path id="path852" fill="#fff" d="m107.43 28.736c-0.154 0.094-0.461 0.373-0.77 0.279-0.309-0.092-1.003-1.303-1.771-1.116-0.77 0.186-1.232 0.465-1.541 0.465-0.308 0-1.154 0.279-1.154 1.024 0 0.744 0.077 1.303 0.229 1.303 0.154 0 0.385-0.465 0.385-0.465s0.079 0.931 0.618 0.931c0.539 0 1.693 0.093 1.771 0.372 0.076 0.279-0.54 0.931-0.385 1.489 0.153 0.559 0.845 1.489 0.845 1.489s-1 0.746-1 1.211c0 0.466 0.155 0.931 0.155 0.931l-4.468 0.187s-0.309 13.219-0.153 14.243c0.153 1.023 0.539 3.537 0.539 3.537s-1.002-0.325-1.85 0.513c-0.846 0.837-3.812 2.28-3.889 2.932-0.077 0.651-0.347 1.211-0.039 1.676 0.309 0.465 1.393 1.729 1.078 1.676-1.033-0.179-1.418-1.648-2.117-2.188-0.688-0.531-2.041-0.419-2.195 0.139-0.154 0.559-0.077 1.49 0 1.676 0.075 0.187 0.924 3.166 1.155 3.817s2.657 1.628 3.735 1.535c2.041 0.047 2.964-0.884 3.041-0.791 0.078 0.094 4.392 4.542 13.248 4.562 6.895 0.016 12.092-4.468 12.092-4.375s2.85 0.931 3.851 0.652c1.001-0.28 2.465-0.932 2.773-1.583 0.309-0.651 1.156-4.003 1.232-4.562 0.077-0.559 0-1.211-0.693-1.396-0.694-0.187-1.079-0.141-1.464 0.046-0.384 0.187-0.5 0.699-1.078 1.63-0.308 0.279-1.117 1.023-0.887 0.838 0.233-0.187 0.733-1.583 0.81-2.049 0.077-0.465 0.309-1.303-0.23-1.769s-1.365-0.655-2.31-1.35c-0.898-0.615-1.618-1.629-2.156-1.629-0.539 0-1.155-0.279-1.078-0.279 0.078 0 0.695-1.352 0.54-2.748-0.154-1.398 0.075-14.753-0.001-14.753-0.077 0-3.851 0.279-3.851 0.093s0.308-1.489 0-2.327c-0.309-0.838-1.619-1.396-1.233-1.583 0.386-0.186 2.08-0.651 2.003-1.396s-1.156-0.652-1.617-0.932c-0.462-0.279-1.849-1.582-2.003-1.582-0.153 0 4.006-2.514 3.697-2.514-0.308 0-1.926-0.466-2.466-0.186 0-0.465 2.235-1.861 1.85-2.048-0.384-0.185-2.156-0.372-1.694-0.465 0.463-0.094 0.616-1.211 0.539-1.211-0.076 0-2.002 0.279-2.002 0.279s-0.463-0.651-0.616-0.651c-0.153 0-0.847 0.372-0.847 0.372l-0.385-1.024-0.848 0.559-0.386-0.466s-0.692 0.187-0.692 0c0.029-0.007-0.08-0.468-0.189-0.468s-0.871 0.593-0.899 0.56c-0.026-0.032-0.87-1.217-0.87-1.185 0 0.033-0.6 2.238-0.626 2.238-0.027 0-0.599 0.065-0.626 0.099-0.028 0.032-3.051-1.744-3.024-1.712 0.027 0.033 0.79 1.712 0.79 1.712s-0.653 0.362-0.653 0.396c0 0.032 0.109 0.756 0.109 0.756l-2.017-0.691s0.763 1.547 0.709 1.547c-0.055 0-1.497 0.066-1.47 0.066 0.026 0 0.68 1.284 0.68 1.284l-0.245 0.757c-0.01 0 2.16 1.531 2.01 1.623zm12.86 32.397c0.191 0.279 1.231 1.582 1.078 1.582-0.155 0-2.734 1.723-3.775 2.049-1.039 0.325-4.428 0.931-4.235 0.884 0.192-0.047 3.044-1.607 4.198-2.352 1.15-0.744 2.73-2.07 2.73-2.163zm-16.1-0.047c-0.154 0.186-0.886 1.629-0.886 1.629s2.117 1.49 3.696 2.049c1.58 0.558 4.275 0.744 4.12 0.698-0.153-0.048-3.388-1.49-4.312-2.234-0.92-0.746-2.58-2.142-2.62-2.142z"/>
			<g id="g820" stroke="#6D6667" fill="#FFC50A" transform="matrix(.29981 0 0 .36238 586 193.89)">
				<path id="path793" d="m-1601.4-461.61s4.501 2.697 5.524 3.339c1.029 0.642 4.371 3.468 4.622 3.339 0.26-0.127 2.058-1.541 2.058-1.541s-3.726-2.953-6.036-3.595c-2.4-0.65-6.2-1.29-6.2-1.55z" stroke-width=".5"/>
				<path id="path795" d="m-1602-464.56c0.381 0 7.449 3.595 9.635 5.392 2.182 1.8 3.082 4.112 3.339 4.112s3.596-0.515 3.466-0.515-1.541-4.624-4.752-6.036c-3.2-1.4-11.5-2.94-11.6-2.94z" stroke-width=".5"/>
				<path id="path803" d="m-1568.8-473.85c-0.124 0-1.41 3.851-1.801 5.01-0.378 1.153-1.02 3.595-1.02 3.595s-5.655 0.515-5.394-0.129c0.3-0.65 8.6-8.48 8.2-8.48z" stroke-width=".5"/>
				<path id="path796" d="m-1600.8-469.19s6.681 4.495 8.993 7.063c2.313 2.571 4.626 7.066 4.756 7.066 0.124 0 6.293-1.285 6.293-1.156 0 0.127-7.192-7.192-10.664-9.375-3.5-2.18-9.2-3.33-9.4-3.59z" stroke-width=".5"/>
				<path id="path797" d="m-1593.8-470.39s3.335 5.136 3.984 6.937c0.641 1.795 2.567 6.419 2.567 6.419h5.267s-2.567-5.778-5.394-8.605c-2.9-2.82-6.4-4.49-6.5-4.75z" stroke-width=".5"/>
				<path id="path798" d="m-1592-473.21c0.127 0.385 4.879 4.88 6.032 7.834 1.159 2.953 2.058 6.68 2.058 6.68l4.622-1.156s-4.108-7.578-6.681-9.634c-2.6-2.05-5.8-3.47-6-3.72z" stroke-width=".5"/>
				<path id="path799" d="m-1553.6-461.09s-9.632 1.027-13.098 1.924c-3.469 0.9-5.394 4.239-5.394 4.239s4.495 1.671 4.749 1.415c0.261-0.259 2.954-2.956 5.906-3.983 3-1.03 8.1-3.47 7.9-3.59z" stroke-width=".5"/>
				<path id="path800" d="m-1554-467.39c-0.26 0.129-7.964 6.422-10.407 8.478-2.44 2.054-4.749 4.236-5.006 4.366-0.254 0.129-5.01-0.641-4.756-0.897 0.258-0.256 7.069-5.78 11.563-8.222 4.5-2.45 8.2-3.47 8.6-3.73z" stroke-width=".5"/>
				<path id="path801" d="m-1555.9-471.88c-0.769 0.9-8.352 7.063-10.404 9.246-2.055 2.186-5.394 6.039-5.394 6.039s-3.984-1.8-3.726-2.571c0.257-0.768 5.655-5.266 9.505-7.834 3.8-2.58 10.3-4.64 10-4.89z" stroke-width=".5"/>
				<path id="path802" d="m-1563.6-472.4c-0.127 0.129-4.619 4.88-5.518 6.166-0.899 1.285-3.599 6.937-3.599 6.937s-3.981-3.468-3.981-3.598c0-0.127 5.01-5.395 7.961-7.449 2.9-2.06 5.2-1.67 5.1-2.06z" stroke-width=".5"/>
					<path id="path818" d="m-1574.8-465.38c0 0.903-0.733 1.636-1.635 1.636-0.906 0-1.635-0.733-1.635-1.633v-0.003c0-0.903 0.729-1.636 1.635-1.636 0.9-0.01 1.6 0.73 1.6 1.63z" stroke-width=".4"/>
					<path id="path819" d="m-1571.5-463.2c0 0.803-0.733 1.455-1.635 1.455-0.906 0-1.635-0.652-1.635-1.455s0.73-1.452 1.635-1.452c0.9 0 1.6 0.65 1.6 1.45z" stroke-width=".4"/>
					<path id="path817" d="m-1578.8-464.84c0 0.803-0.899 1.45-2 1.45-1.108 0-2-0.647-2-1.45s0.892-1.455 2-1.455c1.1 0.01 2 0.66 2 1.46z" stroke-width=".4"/>
					<path id="path815" d="m-1573.5-461.84c0 1.555-1.016 2.813-2.267 2.816-1.257 0-2.273-1.261-2.273-2.816s1.016-2.816 2.267-2.816c1.257 0 2.273 1.258 2.273 2.813v0.01z" stroke-width=".4"/>
					<path id="path805" d="m-1579.7-461.75c0 1.202-1.016 2.177-2.273 2.177-1.251 0-2.267-0.975-2.267-2.177 0-1.207 1.016-2.18 2.267-2.18 1.3 0 2.3 0.98 2.3 2.18z" stroke-width=".4"/>
					<path id="path810" d="m-1582.8-460.02c0 1.054-0.776 1.908-1.726 1.908-0.951 0-1.726-0.854-1.726-1.908s0.772-1.908 1.726-1.908c1 0 1.7 0.85 1.7 1.91z" stroke-width=".4"/>
					<path id="path813" d="m-1570.1-460.2c0 1.253-1.179 2.272-2.642 2.272-1.45 0-2.629-1.019-2.629-2.272s1.179-2.269 2.629-2.269c1.5 0 2.6 1.01 2.6 2.27z" stroke-width=".4"/>
					<path id="path806" d="m-1576.4-463.47c0 0.752-0.935 1.363-2.091 1.363-1.153 0-2.088-0.612-2.088-1.363 0-0.752 0.935-1.361 2.088-1.361 1.2-0.01 2.1 0.6 2.1 1.36z" stroke-width=".4"/>
					<path id="path807" d="m-1576-460.48c0 1.105-1.303 2-2.912 2-1.602 0-2.906-0.895-2.906-2 0-1.102 1.303-1.997 2.906-1.997 1.6 0.01 2.9 0.9 2.9 2z" stroke-width=".4"/>
					<path id="path814" d="m-1568.6-456.93c0 1.353-1.218 2.452-2.726 2.452-1.502 0-2.723-1.1-2.726-2.452 0-1.355 1.225-2.452 2.726-2.452 1.508 0 2.726 1.097 2.726 2.45z" stroke-width=".4"/>
					<path id="path809" d="m-1583.5-457.57c0 0.903-0.694 1.633-1.541 1.633-0.857 0-1.547-0.73-1.547-1.633s0.69-1.636 1.547-1.636c0.8 0.01 1.5 0.74 1.5 1.64z" stroke-width=".4"/>
					<path id="path812" d="m-1572.6-457.84c0 1.153-1.062 2.088-2.365 2.088-1.306 0-2.362-0.935-2.362-2.088 0-1.156 1.056-2.091 2.362-2.091 1.3 0 2.4 0.93 2.4 2.09z" stroke-width=".4"/>
					<path id="path808" d="m-1580-457.93c0 1.005-0.932 1.816-2.085 1.816-1.156 0-2.091-0.811-2.091-1.816 0-1.003 0.935-1.816 2.091-1.816 1.1 0 2.1 0.81 2.1 1.82z" stroke-width=".4"/>
					<path id="path811" d="m-1576.4-457.39c0 1.105-0.977 2-2.186 2-1.198 0-2.172-0.895-2.172-2 0-1.102 0.974-1.997 2.172-1.997 1.2 0 2.2 0.9 2.2 2z" stroke-width=".4"/>
				<path id="path804" d="m-1585.9-469.38c0.544 0 4.358 1.272 4.358 1.272s-4.723 1.816-3.993 1.636c0.723-0.181 5.267-0.728 4.902-0.728s-4 3.452-2.906 3.271c1.091-0.183 3.27-2.363 3.449-2.363s2.365 3.452 2.544 3.271c0.182-0.183 0-3.452 0.182-3.452 0.179 0 4.544 2.18 4.179 1.997-0.365-0.18-2.906-2.724-2.726-2.724 0.179 0 5.996 0.547 5.632 0.364-0.365-0.183-3.818-1.816-3.818-1.816s2.547-2.361 2-2.361c-0.541 0-4.72 2.361-4.358 2.18 0.365-0.183 4.541-4.905 4.541-4.905l-4.176 1.997s0.723-2.905 0.358-2.724c-0.358 0.18-3.27 3.813-3.446 3.813-0.186 0-0.912-3.633-0.912-3.633s0.179 3.999-0.909 4.18c-1 0.18-4.9 0.9-4.9 0.72z" stroke-width=".4"/>
			</g>
			<g id="g775" transform="matrix(.29981 0 0 .36238 618.89 139.61)">
				<path id="path772" fill="#214092" d="m-1707.4-290.22c0.091 0.364 2.997 6.904 7.446 6.721s6.27-1.272 6.088-1.364-2.088-1.18-3.179-3.541c-1.091-2.36-1.274-3.361-1.274-3.361l-9 1.54z"/>
				<path id="path773" fill="#214092" d="m-1691.5-292.76s3.27 6.451 4.723 7.357c1.453 0.908 4.814 1.636 6.267 1.544 1.45-0.092 3.179 0 3.179 0s-1.453-0.636-2.632-4.177c-1.186-3.544-1.547-4.724-1.547-4.724h-10.1z"/>
				<path id="path774" fill="#214092" d="m-1671.5-290.4s-0.635 4.721 0 5.902c0.638 1.183 3.817 3.36 3.817 3.36s3.811-0.453 3.903-3.36c0.091-2.908-1.271-5.63-1.271-5.63l-6.4-0.27z"/>
				<path id="path767" d="m-1710.5-298.66s0.179 0.725 0 1.269c-0.182 0.547-1.723 2-1.723 3.18s1.814 4.813 7.348 4.904c5.547 0.092 12.537-2.997 12.453-3.088-0.091-0.089-13.264-8.901-13.446-8.809-0.2 0.1-4.7 2.73-4.7 2.55z" stroke="#000" stroke-width=".4" fill="#0E5129"/>
				<path id="path768" d="m-1673.9-292.4s1.179 3.18 1.632 3.541c0.453 0.364 0.635 1.091 0.726 1.091s7.629 1.633 7.629 1.633 0.726-2.088-0.365-3.721c-1.088-1.636-5.172-5.905-5.172-5.905l-4.3 3.36z" stroke="#000" stroke-width=".4" fill="#0E5129"/>
				<path id="path769" d="m-1668.7-296.3c0.182 0 2 1.544 3.453 0.728 1.453-0.819 3.818-2.999 3.818-2.999s-2 0.636-3.456 0.547c-1.4-0.1-3.7 1.81-3.8 1.72z" stroke="#000" stroke-width=".4" fill="#0E5129"/>
				<path id="path766" d="m-1710.7-298.3s-0.551-1.544-2.003-1.633c-1.45-0.092-4.088 0.181-4.997-0.544-0.906-0.728-1.179-2.452-1.632-2.363-0.456 0.092-1.635 0-1.726 0s-0.544-1.452 0.73-2.18c1.267-0.725 2.358-0.089 3.081-0.636 0.729-0.544 1.814-0.908 3.27-0.997 1.456-0.092 3.818 1.816 4.906 2.269 1.091 0.455 3.453 1 4.358 0.547 0.909-0.455 6-2.452 7.814-2.544s5.632-0.183 7.085-0.092c1.453 0.092 7.172 0.817 8.899 1.636 1.726 0.817 10.899 3.996 12.172 4.721 1.267 0.728 4.088 1.816 4.088 1.816s-4.997 4.905-7.449 5.724c-2.456 0.816-10.264 2.088-14.895 1.816-4.632-0.275-8.267-0.728-11.805-2.544-3.544-1.816-7.358-3.541-7.54-4.452-0.182-0.905-0.091-2.088-0.091-2.088l-4.5 1.52z" stroke="#000" stroke-width=".4" fill="#0E5129"/>
				<path id="path770" d="m-1716.4-304.2c-0.182 0.092-1.091 0.453-0.912 0.636 0.182 0.181 0.547 0.725 1.638 0.636 1.091-0.092 2.27-0.728 2.27-0.728s-1.3-0.64-3-0.55z" stroke="#000" stroke-width=".4" fill="#0E5129"/>
				<path id="path771" stroke-width=".4" stroke="#000" d="m-1716.5-304.02v1s1.273 0.364 1.273 0.092c0-0.275 0.088-0.908-0.182-0.908-0.3 0-1-0.09-1.1-0.18z"/>
				<path id="path757" d="m-1703.8-303.27c0.323-0.577 0-1.347 1.863-2.247 1.863-0.897 5.101-0.641 5.101-0.641s-0.928 0.706-0.958 1.444c-0.036 0.738 0.062 1.059 0.062 1.059s-1.766-0.577-3.114-0.224c-1.4 0.36-2.9 0.71-3 0.61z" stroke="#05050A" stroke-width=".4" fill="#0B1B11"/>
				<path id="path758" d="m-1695.4-306.41c-0.192 0.094-1.602 1.668-1.443 2.15 0.16 0.482 2.055 1.638 2.661 1.541 0.612-0.097 3.404-1.445 3.57-2.118 0.156-0.676 0.284-1.574 0.062-1.768-0.4-0.19-5 0.26-5 0.2z" stroke="#05050A" stroke-width=".4" fill="#0B1B11"/>
				<path id="path760" d="m-1689.3-306.67c-0.352 0.353-0.231 2.056-0.098 2.248 0.127 0.194 2.345 2.409 2.824 2.536 0.482 0.132 4.049-0.224 4.335-0.606 0.29-0.388 1.156-2.024 0.899-2.409-0.254-0.385-1.026-0.9-3.411-1.415-2.3-0.51-3.7-0.44-4.5-0.35z" stroke="#05050A" stroke-width=".4" fill="#0B1B11"/>
				<path id="path761" d="m-1680.2-304.52c0.573 0.288 3.951 1.924 5.941 3.242s2.792 2.827 3.371 2.953c0.58 0.129 2.922-1.283 3.016-1.668 0.098-0.385-2.856-2.441-4.847-3.371-2-0.92-7.5-1.05-7.5-1.15z" stroke="#05050A" stroke-width=".4" fill="#0B1B11"/>
				<path id="path762" d="m-1680.9-303.14c-0.286 0.256 3.596 7.033 4.335 7.257 0.74 0.226 5.166-1.315 5.104-1.83-0.059-0.515-1.218-1.541-3.948-3.051-2.7-1.51-4.9-2.51-5.5-2.38z" stroke="#05050A" stroke-width=".4" fill="#0B1B11"/>
				<path id="path763" d="m-1685.7-300.66c-0.612 0.356-1.576 6.424-0.964 6.713 0.609 0.288 8.12-0.741 8.41-1.415 0.293-0.674-3.082-6.036-4.075-6.036-0.9 0-2.7 0.26-3.3 0.74z" stroke="#05050A" stroke-width=".4" fill="#0B1B11"/>
				<path id="path764" d="m-1693.5-301.95c-0.804 0.738-0.645 6.389-0.287 6.742 0.352 0.353 4.814 1.509 5.296 1.091s1.121-6.775 0.674-7.257c-0.453-0.48-1.707-1.639-2.668-1.733-0.9-0.09-2.5 0.94-3 1.16z" stroke="#05050A" stroke-width=".4" fill="#0B1B11"/>
				<path id="path765" d="m-1703.6-302.04c-0.736 0.577-0.766 2.088 0.036 2.344 0.804 0.256 2.795 1.124 4.658 1.927s2.922 1.765 3.466 1.733c0.547-0.032 1.062-5.683 0.482-6.004-0.573-0.321-2.28-0.577-3.883-0.512-1.6 0.06-4 0.22-4.8 0.51z" stroke="#05050A" stroke-width=".4" fill="#0B1B11"/>
			</g>
			<path id="path643" fill-opacity=".9961" fill="#D42027" d="m98.222 56.207c0.395-0.385 1.009-1.325 1.844-1.367 0.833-0.043 1.711 0.725 1.711 0.725s0.877 3.59 0.833 3.59c-0.043 0-1.448 1.025-1.491 1.025-0.044 0-0.615-1.41-1.142-1.282-0.526 0.128-0.484 2.051-0.57 1.923-0.087-0.128-2.325-2.777-2.237-2.862 0.086-0.086 1.094-1.625 1.051-1.752z"/>
			<path id="path642" fill-opacity=".9961" fill="#D42027" d="m121.39 55.736c0.265-0.043 1.45-0.939 2.283-0.896 0.835 0.042 1.317 0.427 1.756 0.812 0.438 0.384 0.966 1.366 0.966 1.366s-1.054 2.906-1.142 2.906c-0.087 0-0.526 0.257-0.615 0.043-0.087-0.214-0.351-0.897-0.877-0.983-0.526-0.085-0.659 0.94-0.659 0.94l-1.71-4.188z"/>
			<path id="path640" fill-opacity=".9961" fill="#FCDB59" d="m121.96 56.634c0 0.257 1.625 4.272 4.258 5.042s3.467-0.727 3.772-1.239c0.309-0.513 1.406-0.47 1.406-0.47s-0.263 3.76-0.702 4.231c-0.439 0.47-0.79 1.495-3.248 1.538-2.457 0.042-4.695-2.308-5.442-2.991-0.745-0.684-1.71-2.479-2.106-3.29-0.4-0.813 2.11-2.735 2.06-2.821z"/>
			<path id="path641" fill-opacity=".9961" fill="#FCDB59" d="m93.351 64.624c0.044 0 1.185 1.239 2.853 1.111 1.667-0.128 4.52-1.111 5.836-2.821 1.317-1.708 1.976-3.545 1.976-3.545s-1.932-3.419-1.976-3.419c-0.044 0-0.22 1.11-0.57 1.837-0.351 0.727-1.316 2.777-2.94 3.419-1.623 0.641-1.623 0.897-2.282 0.812-0.657-0.085-2.368-1.111-2.368-1.154 0-0.042-0.835 2.01-0.835 2.01s-0.178 1.323 0.306 1.75z"/>
			<path id="path637" fill-opacity=".9961" fill="#FCDB59" d="m98.19 56.088c-0.124 0-3.227 1.692-3.104 2.417 0.125 0.726 5.338 10.998 16.51 11.119 11.17 0.12 17.997-9.306 17.501-10.878-0.497-1.57-3.973-3.383-3.973-3.383s0.87 0.725 0.745 1.691c-0.124 0.967-3.972 9.306-13.652 9.065-9.683-0.242-14.275-7.614-14.275-8.46-0.013-0.846 0.483-1.329 0.235-1.571z"/>
			<path id="path639" fill-opacity=".9961" fill="#D42027" d="m128.46 63.556c0.265-0.214 1.888-4.657 2.81-4.529 0.922 0.129 0.615 1.453 0.526 1.795-0.088 0.342-1.009 3.418-1.009 3.418s0.042-0.727-0.57-0.898c-0.62-0.17-1.63 0.3-1.76 0.214z"/>
			<path id="path638" fill-opacity=".9961" fill="#D42027" d="m93.351 64.669c0-0.242-0.746-1.088 0.123-1.33 0.868-0.241 1.986 0.242 1.986 0.242s-0.621-1.813-1.365-3.263c-0.744-1.45-0.993-1.209-1.613-0.968-0.622 0.242-0.606 0.882-0.234 1.849s1.103 3.711 1.103 3.47z"/>
			<g id="g1773">
					<polygon id="polygon744" points="103.59 56.381 104.67 52.732 101.67 50.438 105.42 50.352 106.65 46.749 107.88 50.345 111.63 50.414 108.65 52.723 109.74 56.367 106.66 54.197" fill="#FAC310">
				</polygon>
				<path id="path740" fill="#fff" d="m123.8 37.386v14.041c0.028 6.862-6.969 12.872-11.615 14.042-4.647-1.17-11.645-7.18-11.617-14.042v-14.041h23.24z"/>
					<path id="path556" d="m100.56 37.386l0.02 8.785s0.111-0.18 1.638-0.07c1.53 0.109 1.661 1.937 3.32 1.937 1.66 0 1.66-1.937 3.319-1.937 1.66 0 1.66 1.937 3.32 1.937 1.658 0 1.658-1.937 3.318-1.937s1.66 1.937 3.413 2.048c1.565-0.111 1.565-2.048 3.235-2.157l1.648 0.109v-8.715h-23.23z" fill-opacity=".9961" stroke="#000" stroke-width=".4" fill="#D42027"/>
				<path id="path557" fill-opacity=".9961" fill="#2164AE" d="m100.56 49.006v2.905h1.657c1.53 0.109 1.661 1.937 3.32 1.937 1.66 0 1.66-1.937 3.319-1.937 1.66 0 1.66 1.937 3.32 1.937 1.658 0 1.658-1.937 3.318-1.937s1.565 1.826 3.319 1.937c1.565-0.11 1.649-1.827 3.318-1.937h1.659v-2.905h-1.659c-1.659 0-1.659 1.938-3.318 1.938s-1.659-1.938-3.319-1.938-1.66 1.938-3.318 1.938c-1.66 0-1.66-1.938-3.32-1.938-1.659 0-1.659 1.938-3.319 1.938-1.659 0-1.659-1.938-3.32-1.938h-1.66z"/>
				<path id="path558" fill-opacity=".9961" fill="#2164AE" d="m101.06 54.816l1.157 2.905c1.53 0.109 1.661 1.937 3.32 1.937 1.66 0 1.66-1.937 3.319-1.937 1.66 0 1.66 1.937 3.32 1.937 1.658 0 1.658-1.937 3.318-1.937s1.565 1.825 3.319 1.937c1.565-0.111 1.612-1.827 3.28-1.937l1.197-2.95-1.159 0.045c-1.659 0-1.659 1.937-3.318 1.937s-1.659-1.937-3.319-1.937-1.66 1.937-3.318 1.937c-1.66 0-1.66-1.937-3.32-1.937-1.659 0-1.659 1.937-3.319 1.937-1.659 0-1.659-1.937-3.32-1.937h-1.16z"/>
				<path id="path559" fill-opacity=".9961" fill="#2164AE" d="m112.18 65.469c1.658 0 5.462-2.905 5.423-2.905 0.039 0-0.444-1.937-2.104-1.937s-1.66 1.937-3.318 1.937c-1.66 0-1.66-1.937-3.32-1.937-1.659 0-2.082 1.937-2.082 1.937-0.08-0.001 3.74 2.905 5.4 2.905z"/>
				<g id="g611" transform="matrix(1.4653 0 0 1.2748 556.79 30.774)">
					<path id="path577" d="m-309.27 10.445c0.127 0 1.284 0.192 2.119 0.129 0.834-0.064 1.156-0.385 1.156-0.45v-0.193h1.092s0.193 0.899 0.065 0.964c-0.129 0.064-0.451 0.321-0.515 0.321-0.063 0 0-0.45-0.127-0.321-0.129 0.128-0.193 0.321-0.193 0.321s-0.129-0.193-0.193-0.193c-0.064 0-0.193 0.193-0.193 0.193s0-0.193-0.063-0.193c-0.064 0-0.385 0.321-0.385 0.321l-0.321-0.257s-0.193 0.322-0.257 0.322-0.45-0.257-0.45-0.257l-0.642 0.385s0-0.578-0.128-0.514c-0.13 0.064-0.836 0.064-0.836 0.064s-0.191 0.385-0.256 0.385c-0.064 0-0.321-0.32-0.257-0.32s0.193-0.194 0.128-0.257c-0.064-0.064-0.385 0-0.385-0.064s-0.128-0.45-0.064-0.45 0.321 0.064 0.321 0.064v-0.385h0.321l0.07 0.385z" fill-opacity=".9961" stroke="#000" stroke-width=".25" fill="#FAC310"/>
					<path id="path578" d="m-308.12 6.784c-0.064 0-0.514 0.514-0.449 1.092 0.064 0.578 1.156 1.413 1.156 1.413s0.578-0.257 0.771 0c0.193 0.257 0.193 1.027 0.129 1.027-0.065 0-0.836 0.193-0.836 0.064 0-0.128 0-0.257-0.064-0.257s-0.77 0.064-0.77 0.064l0.064-0.257-0.642-0.128 0.257-0.257s-1.028-0.45-0.963-0.45c0.064 0 0.45-0.257 0.45-0.257l-0.772-0.513h0.451s-0.642-0.514-0.579-0.514c0.064 0 0.385 0.064 0.385 0.064l-0.192-0.514h0.192l-0.192-0.385 0.321-0.129 0.193 0.322-0.064-0.771 0.449 0.064v0.642s0.193-0.385 0.193-0.45c-0.01-0.063 0.57 0.258 0.5 0.13z" fill-opacity=".9961" stroke="#000" stroke-width=".25" fill="#FAC310"/>
					<path id="path580" fill-opacity=".9961" d="m-298.16 10.766c-0.08 0.08-0.321 0.257-0.321 0.257s0.547-0.048 0.531-0.048c-0.02-0.001-0.2-0.162-0.21-0.209z"/>
					<path id="path581" fill-opacity=".9961" d="m-297.7 11.07c-0.033 0.048-0.129 0.545-0.065 0.513 0.065-0.032 0.321-0.401 0.321-0.401l-0.26-0.112z"/>
					<path id="path582" fill-opacity=".9961" d="m-296.96 11.135c0.08 0.08 0.449 0.449 0.401 0.369s-0.097-0.418-0.129-0.434c-0.03-0.016-0.24 0.097-0.27 0.065z"/>
					<path id="path583" fill-opacity=".9961" d="m-303.43 10.605c-0.049 0.016-0.451 0.321-0.451 0.321s0.675-0.129 0.643-0.129-0.21-0.145-0.19-0.192z"/>
					<path id="path584" fill-opacity=".9961" d="m-303.01 10.99c-0.064 0.064-0.273 0.514-0.193 0.498 0.081-0.016 0.433-0.306 0.433-0.306l-0.24-0.192z"/>
					<path id="path585" fill-opacity=".9961" d="m-303.27 10.364c-0.048-0.016-0.385-0.177-0.37-0.177 0.017 0 0.45-0.113 0.45-0.113l-0.08 0.29z"/>
					<path id="path586" fill-opacity=".9961" d="m-309.63 10.155l-0.482-0.385 0.61 0.192-0.13 0.193z"/>
					<path id="path587" fill-opacity=".9961" d="m-310.04 10.412c-0.065 0-0.674 0.385-0.658 0.385s0.85 0.016 0.834 0c-0.01-0.016-0.14-0.353-0.17-0.385z"/>
					<path id="path588" fill-opacity=".9961" d="m-309.66 10.974c-0.064 0.032-0.546 0.401-0.514 0.401s0.722 0.016 0.722 0-0.19-0.385-0.21-0.401z"/>
					<path id="path589" fill-opacity=".9961" d="m-309.72 6.976s-0.177-0.45-0.161-0.45 0.45 0.354 0.45 0.354l-0.29 0.096z"/>
					<path id="path590" fill-opacity=".9961" d="m-309.24 6.414c0-0.016 0.048-0.289 0.048-0.289s0.434 0.337 0.418 0.337c-0.02 0.001-0.44 0.001-0.47-0.048z"/>
					<path id="path591" fill-opacity=".9961" d="m-308.57 6.623c0-0.016 0.048-0.417 0.048-0.417s0.401 0.546 0.369 0.562c-0.03 0.016-0.39-0.081-0.42-0.145z"/>
					<path id="path599" d="m-302.13 9.433c0 0.032 0.674 0.578 0.69 0.706 0.016 0.129-1.222 0.161-1.222 0.161s-0.352-0.273-0.464-0.257c-0.113 0.016-0.161 0.29-0.161 0.29l0.289 0.16-0.546 0.032 0.161 0.305 0.417-0.032-0.097 0.29s0.257 0.192 0.305 0.16c0.047-0.032 0.209-0.321 0.337-0.369 0.129-0.048 0.403-0.048 0.403-0.048s-0.21 0.353-0.113 0.353c0.096 0 0.53-0.369 0.53-0.369s0.097 0.337 0.113 0.337c0.016 0 0.321-0.385 0.321-0.385s0 0.306 0.048 0.306 0.497-0.386 0.497-0.386 0.354 0.451 0.402 0.418c0.049-0.032 0.097-0.482 0.145-0.482s0.353-0.048 0.353-0.064-0.193-0.177-0.225-0.401c-0.033-0.224 0.032-0.755 0.015-0.755-0.01-0.003-2.16 0.078-2.19 0.03z" fill-opacity=".9961" stroke="#000" stroke-width=".25" fill="#FAC310"/>
						<path id="path598" d="m-305.55 8.454h6.295c0.642 0 1.22-0.257 1.22-0.642s-1.027-0.45-1.413-0.321c-0.386 0.128-2.055 0.899-2.761 0.835-0.706-0.065-1.349-0.514-1.413-0.964-0.065-0.45 0.321-0.835 1.028-0.835 0.706 0 1.605 0.257 1.797 0.193 0.193-0.064 0.642-0.578 0.835-0.642 0.193-0.065 0.77-0.13 0.77-0.13l-0.257 0.193 0.834-0.193s-0.642 0.707-1.284 0.899c-0.641 0.193-1.99 0.129-2.505 0.129-0.513 0-0.771-0.064-0.706 0.321 0.064 0.385 0.448 0.643 0.771 0.578 0.322-0.064 1.284-0.385 1.284-0.385l-0.257-0.193 1.156-0.064s-0.064-0.193 0-0.193 0.642 0.064 0.642 0.064-0.386-0.193-0.322-0.193c0.065 0 0.322 0 0.836 0.064 0.513 0.064 1.605 0.257 1.541 0.771-0.064 0.513-0.45 0.963-0.898 0.963-0.451 0-0.836-0.128-0.836 0.064s0.514 0.321 0.836 0.321c0.321 0 0.706-0.257 0.77-0.257s0.193 0.385 0.257 0.385 0.45-0.129 0.45-0.129l-0.257 0.707 0.449 0.128s-0.257 0.257-0.192 0.257c0.064 0 0.449 0 0.449 0.064s-0.514 0.45-0.514 0.514 0.386 0.257 0.386 0.257-0.257 0.385-0.321 0.321c-0.065-0.064-0.322-0.385-0.322-0.385s-0.064 0.257-0.192 0.257c-0.129 0-0.386-0.064-0.386-0.064s0.193-0.385 0.129-0.385c-0.065 0-0.386 0.257-0.386 0.192l-0.193-0.193s0.513-0.208 0.513-0.513c0-0.306-0.208-0.611-1.139-0.658-0.932-0.048-0.947 0.225-1.637 0.192-0.691-0.032-0.691-0.305-1.206-0.305-0.513 0-2.102 0.642-2.842 0.626-0.738-0.015-1.668-0.064-1.637-0.096 0.04-0.03 0.61-1.508 0.63-1.555z" fill-opacity=".9961" stroke="#000" stroke-width=".25" fill="#FAC310"/>
						<path id="path592" d="m-306.77 8.084c-0.064 0.032-0.626 0.112-0.659 0.706-0.031 0.594 0.049 0.594 0.113 0.561 0.064-0.032 0.193-0.546 0.193-0.546s-0.193 0.706 0.016 0.867c0.209 0.161 0.433 0.225 0.433 0.225l0.081-0.562s-0.161 0.546 0.224 0.738c0.387 0.193 0.53 0.048 0.498-0.096-0.032-0.145-0.145-0.514-0.145-0.514s0.305 0.337 0.321 0.369c0.016 0.032 0.161 0.289 0.546 0.177 0.386-0.113 0.113-0.37 0.113-0.37l-0.467-0.385s0.482 0.498 0.691 0.321c0.209-0.176-0.161-0.562-0.145-0.545 0.016 0.016 0.305 0.545 0.417 0.208 0.113-0.337-0.175-0.434-0.272-0.754-0.097-0.322-0.177-0.354-0.081-0.547 0.097-0.191 0.113-0.561 0.113-0.561s0.401 0.097 0.368-0.241c-0.032-0.338-0.432-0.417-0.514-0.434-0.081-0.016-0.064-0.353-0.096-0.337-0.033 0.016-0.289 0.208-0.289 0.208s-0.224-0.529-0.272-0.497c-0.049 0.032-0.306 0.305-0.498 0.321-0.193 0.016-0.305 0.289-0.305 0.289s-0.674-0.321-0.658 0.208c0.016 0.53 0.402 0.401 0.402 0.417s-0.07 0.742-0.13 0.774z" fill-opacity=".9961" stroke="#000" stroke-width=".25" fill="#FAC310"/>
					<path id="path600" fill-opacity=".9961" d="m-306.4 7.271c0.077-0.027 0.191-0.14 0.323-0.126s0.342 0.13 0.239 0.194c-0.105 0.063-0.182 0.09-0.3 0.058-0.12-0.033-0.21-0.1-0.26-0.126z"/>
					<path id="path601" fill-opacity=".9961" d="m-305.09 7.255c-0.077-0.028-0.191-0.141-0.323-0.127s-0.343 0.13-0.239 0.193c0.105 0.064 0.183 0.091 0.301 0.059 0.12-0.032 0.21-0.1 0.26-0.125z"/>
					<path id="path602" d="m-306.11 8.203c0.017 0.08 0.065 0.755 0.097 0.706 0.032-0.048 0.273-0.69 0.257-0.69-0.02 0-0.34 0.016-0.36-0.016z" fill-opacity=".9961" stroke="#000" stroke-width=".15" fill="#0D1137"/>
					<path id="path603" d="m-306.27 8.225c0.007-0.19 0.128-0.176 0.385-0.144s0.384 0.16 0.369 0.192c-0.016 0.032-0.225 0.113-0.401 0.096-0.21-0.063-0.36 0.015-0.36-0.144z" stroke="#000" stroke-width=".3" fill="none"/>
					<path id="path607" d="m-305.88 7.743l-0.032 0.306" stroke="#000" stroke-width=".4" fill="none"/>
					<path id="path608" d="m-304.8 6.925s0.209 0.096 0.175 0.193c-0.031 0.096-0.175 0.145-0.175 0.145" stroke="#000" stroke-width=".4" fill="none"/>
					<path id="path609" d="m-306.56 6.845c-0.048 0.016-0.113 0.048-0.145 0.176-0.032 0.129 0.145 0.209 0.145 0.209" stroke="#000" stroke-width=".4" fill="none"/>
					<path id="path610" d="m-306.05 7.517s-0.228 0.227 0.159 0.227 0.114-0.205 0.114-0.205" stroke="#000" stroke-width=".4" fill="none"/>
				</g>
					<polygon id="polygon749" points="109.57 63.004 110.54 59.791 107.83 57.771 111.23 57.695 112.34 54.524 113.46 57.689 116.87 57.751 114.16 59.783 115.15 62.991 112.36 61.082" fill="#FAC310">
				</polygon>
					<polygon id="polygon750" points="110.03 62.144 110.84 59.592 108.58 57.986 111.42 57.926 112.34 55.406 113.28 57.922 116.11 57.971 113.86 59.585 114.68 62.134 112.35 60.616" fill="#0B311C" fill-opacity=".9961">
				</polygon>
					<polygon id="polygon751" points="103.97 56.496 104.94 53.458 102.25 51.548 105.62 51.476 106.71 48.477 107.82 51.471 111.19 51.528 108.51 53.45 109.5 56.484 106.73 54.679" fill="#FAC310">
				</polygon>
					<polygon id="polygon752" points="104.43 55.683 105.23 53.27 103 51.752 105.8 51.694 106.71 49.312 107.64 51.69 110.44 51.736 108.21 53.263 109.03 55.673 106.73 54.238" fill="#0B311C" fill-opacity=".9961">
				</polygon>
					<polygon id="polygon753" points="115.25 56.496 116.23 53.458 113.5 51.548 116.91 51.476 118.02 48.477 119.15 51.471 122.56 51.528 119.85 53.45 120.84 56.484 118.04 54.679" fill="#FAC310">
				</polygon>
					<polygon id="polygon754" points="115.71 55.683 116.53 53.27 114.26 51.752 117.1 51.694 118.03 49.312 118.96 51.69 121.8 51.736 119.54 53.263 120.37 55.673 118.04 54.238" fill="#0B311C" fill-opacity=".9961">
				</polygon>
			</g>
			<path id="path3870" fill="none" d="m95.978 58.243c1.225 5.27 6.394 9.181 13.354 10.106 8.941 1.188 17.471-3.343 19.039-10.111"/>
			<path id="text3872" d="m95.953 59.061l1.68-0.948 0.156 0.346-0.657 0.372 0.217 0.476 0.66-0.372 0.158 0.346-1.68 0.948-0.158-0.345 0.761-0.431-0.218-0.476-0.76 0.43-0.159-0.346m0.703 1.468l1.566-1.16 0.538 0.896-0.26 0.192-0.344-0.572-0.363 0.269 0.32 0.532-0.247 0.184-0.32-0.532-0.432 0.318 0.352 0.586-0.266 0.196-0.544-0.909m1.093 1.687l1.383-1.422 0.236 0.284-0.544 0.558 0.328 0.393 0.542-0.558 0.236 0.284-1.383 1.422-0.236-0.284 0.627-0.645-0.326-0.393-0.627 0.645-0.236-0.284m1.806 0.841l0.224 0.219 0.408-0.769-0.635 0.55m-0.878 0.262l1.562-1.263 0.354 0.345-0.921 1.888-0.284-0.277 0.242-0.463-0.304-0.296-0.38 0.329-0.266-0.263m1.363 1.266l0.931-1.409-0.325-0.266 0.184-0.278 0.934 0.761-0.184 0.278-0.325-0.265-0.93 1.409-0.27-0.23m0.76 0.61l0.98-1.786 0.298 0.201-0.384 0.701 0.408 0.278 0.386-0.701 0.297 0.202-0.98 1.786-0.298-0.201 0.445-0.811-0.41-0.277-0.445 0.81-0.3-0.202m1.85 1.168l0.793-1.9 0.893 0.461-0.129 0.311-0.575-0.296-0.188 0.449 0.543 0.279-0.126 0.303-0.543-0.279-0.35 0.837-0.3-0.165m1.75-0.289c-0.11 0.322-0.162 0.532-0.158 0.63 0.006 0.098 0.055 0.166 0.146 0.204 0.09 0.038 0.166 0.023 0.226-0.044 0.062-0.068 0.147-0.265 0.259-0.59 0.111-0.326 0.164-0.537 0.159-0.634-0.005-0.098-0.054-0.165-0.144-0.203-0.091-0.038-0.168-0.023-0.229 0.046-0.08 0.069-0.16 0.266-0.27 0.591m-0.34-0.141c0.073-0.207 0.138-0.369 0.196-0.485 0.062-0.117 0.12-0.199 0.18-0.246 0.081-0.067 0.164-0.105 0.248-0.113s0.184 0.012 0.299 0.061c0.116 0.049 0.203 0.107 0.262 0.176 0.058 0.068 0.097 0.157 0.119 0.269 0.014 0.08 0.01 0.185-0.016 0.316-0.025 0.131-0.072 0.3-0.144 0.506-0.07 0.206-0.136 0.367-0.195 0.484-0.06 0.116-0.118 0.199-0.177 0.248-0.082 0.067-0.166 0.104-0.25 0.113-0.084 0.008-0.184-0.013-0.299-0.062-0.117-0.049-0.203-0.107-0.262-0.175-0.057-0.068-0.099-0.157-0.117-0.268-0.017-0.079-0.013-0.183 0.014-0.314 0.02-0.132 0.07-0.302 0.14-0.51m1.62-0.445l0.336 0.111-0.363 1.353c-0.041 0.154-0.052 0.265-0.033 0.331s0.072 0.114 0.16 0.143c0.086 0.029 0.152 0.021 0.2-0.024 0.048-0.044 0.094-0.146 0.136-0.302l0.361-1.348 0.332 0.11-0.371 1.385c-0.037 0.134-0.07 0.23-0.102 0.288-0.03 0.058-0.066 0.104-0.11 0.141-0.067 0.054-0.146 0.086-0.235 0.096-0.089 0.008-0.188-0.006-0.297-0.043-0.207-0.067-0.34-0.165-0.398-0.292-0.058-0.128-0.053-0.315 0.013-0.563l0.37-1.386m0.9 2.469l0.411-2.043 0.353 0.088 0.191 1.547 0.277-1.431 0.324 0.081-0.412 2.042-0.35-0.087-0.193-1.551-0.279 1.434-0.32-0.08m1.84 0.104l0.153 0.027c0.08 0.014 0.134 0.017 0.168 0.01 0.033-0.008 0.061-0.024 0.083-0.052 0.04-0.048 0.073-0.118 0.1-0.208 0.028-0.092 0.056-0.24 0.085-0.446 0.028-0.201 0.041-0.349 0.037-0.442-0.002-0.094-0.021-0.168-0.053-0.221-0.018-0.027-0.041-0.047-0.073-0.062-0.029-0.016-0.077-0.028-0.145-0.04l-0.149-0.026-0.21 1.46m-0.38 0.246l0.291-2.067 0.557 0.096c0.115 0.021 0.202 0.047 0.268 0.08 0.063 0.033 0.114 0.077 0.15 0.134 0.057 0.082 0.09 0.18 0.101 0.292 0.013 0.112 0.002 0.282-0.03 0.51-0.041 0.294-0.079 0.499-0.115 0.618-0.035 0.117-0.081 0.215-0.137 0.292-0.055 0.078-0.123 0.127-0.205 0.147-0.08 0.021-0.215 0.014-0.402-0.019l-0.48-0.083m1.46 0.239l0.182-2.083 0.962 0.104-0.031 0.346-0.614-0.066-0.042 0.482 0.573 0.062-0.029 0.33-0.572-0.062-0.052 0.573 0.632 0.067-0.031 0.352-0.98-0.105m1.59-0.169l0.154 0.007c0.08 0.003 0.135-0.001 0.167-0.013s0.059-0.032 0.078-0.062c0.034-0.053 0.06-0.126 0.077-0.22 0.017-0.095 0.028-0.246 0.035-0.454 0.006-0.203 0.004-0.352-0.011-0.443-0.014-0.094-0.038-0.164-0.075-0.213-0.02-0.024-0.046-0.042-0.078-0.052-0.031-0.012-0.082-0.019-0.15-0.021l-0.15-0.007-0.05 1.478m-0.35 0.295l0.066-2.092 0.565 0.022c0.115 0.005 0.205 0.02 0.272 0.044 0.066 0.024 0.123 0.062 0.165 0.112 0.064 0.074 0.107 0.167 0.131 0.277 0.022 0.11 0.033 0.279 0.025 0.51-0.01 0.297-0.026 0.507-0.049 0.629s-0.059 0.225-0.105 0.309c-0.045 0.085-0.107 0.143-0.188 0.174-0.077 0.03-0.211 0.041-0.4 0.034l-0.49-0.019m2.09 0.027l-0.075-2.092 0.352-0.016 0.074 2.092-0.35 0.016m0.94-0.054l-0.129-1.742-0.402 0.036-0.025-0.344 1.154-0.105 0.024 0.345-0.401 0.036 0.129 1.742-0.35 0.032m1.23-2.246l0.347-0.066 0.218 1.39c0.024 0.159 0.059 0.264 0.102 0.314 0.045 0.05 0.111 0.065 0.201 0.049 0.088-0.018 0.145-0.058 0.169-0.122 0.025-0.063 0.025-0.177 0-0.337l-0.217-1.386 0.343-0.065 0.221 1.424c0.022 0.138 0.031 0.24 0.026 0.308-0.003 0.066-0.019 0.126-0.044 0.181-0.038 0.082-0.096 0.149-0.172 0.202-0.076 0.052-0.17 0.088-0.283 0.109-0.211 0.041-0.369 0.02-0.473-0.065-0.104-0.086-0.174-0.257-0.215-0.511l-0.24-1.425m1.88 0.532l0.143-0.039c0.105-0.028 0.176-0.071 0.208-0.128 0.032-0.059 0.036-0.144 0.013-0.256-0.024-0.112-0.062-0.185-0.111-0.218s-0.127-0.035-0.237-0.005l-0.147 0.039 0.14 0.607m-0.08 1.232l-0.445-2.034 0.593-0.159c0.18-0.049 0.32-0.039 0.419 0.029s0.171 0.204 0.215 0.409c0.043 0.2 0.034 0.361-0.028 0.483-0.062 0.12-0.182 0.203-0.354 0.251l-0.249 0.066 0.188 0.863-0.34 0.092m1.35-1.474c0.092 0.328 0.169 0.529 0.228 0.603 0.059 0.072 0.136 0.093 0.228 0.06 0.092-0.032 0.144-0.096 0.152-0.19 0.012-0.096-0.032-0.31-0.126-0.642-0.095-0.332-0.172-0.533-0.229-0.606-0.059-0.072-0.134-0.093-0.227-0.06-0.092 0.032-0.143 0.097-0.153 0.193-0.01 0.097 0.03 0.311 0.13 0.642m-0.35 0.122c-0.06-0.212-0.101-0.384-0.118-0.517-0.018-0.133-0.018-0.238 0.002-0.315 0.027-0.109 0.069-0.196 0.132-0.26 0.062-0.065 0.151-0.118 0.269-0.159 0.119-0.042 0.218-0.056 0.302-0.043 0.084 0.014 0.165 0.057 0.245 0.128 0.056 0.053 0.11 0.139 0.164 0.259 0.055 0.12 0.11 0.285 0.17 0.496 0.061 0.21 0.1 0.381 0.119 0.515 0.018 0.133 0.018 0.238-0.002 0.316-0.028 0.109-0.07 0.196-0.131 0.261-0.062 0.064-0.151 0.117-0.27 0.159s-0.219 0.056-0.303 0.042c-0.083-0.013-0.164-0.057-0.242-0.128-0.056-0.051-0.111-0.137-0.165-0.256-0.04-0.121-0.1-0.288-0.16-0.498m1.73 0.478l-0.702-1.943 0.336-0.149 0.946 1.156-0.5-1.354 0.308-0.137 0.7 1.942-0.332 0.148-0.949-1.157 0.5 1.357-0.32 0.137m2.18-1.072l-0.735-1.546-0.356 0.21-0.145-0.305 1.023-0.602 0.146 0.306-0.356 0.209 0.734 1.545-0.31 0.183m0.83-0.494l-1.007-1.77 0.293-0.207 0.396 0.693 0.408-0.285-0.395-0.693 0.294-0.207 1.005 1.77-0.294 0.207-0.456-0.803-0.406 0.285 0.456 0.803-0.3 0.207m1.25-0.906l-1.134-1.67 0.771-0.647 0.189 0.277-0.495 0.414 0.263 0.386 0.46-0.386 0.18 0.265-0.46 0.386 0.312 0.46 0.506-0.425 0.19 0.283-0.78 0.657m0.97-1.796l0.25-0.273 0.085 0.096c0.081 0.092 0.147 0.144 0.198 0.155 0.049 0.01 0.1-0.013 0.15-0.067 0.053-0.059 0.08-0.117 0.08-0.176 0.002-0.061-0.023-0.12-0.074-0.178-0.039-0.045-0.082-0.072-0.131-0.084-0.047-0.011-0.125-0.007-0.234 0.013l-0.217 0.039c-0.186 0.035-0.318 0.042-0.397 0.019-0.08-0.022-0.155-0.076-0.229-0.16-0.111-0.126-0.165-0.26-0.161-0.404 0.005-0.145 0.065-0.28 0.183-0.408 0.125-0.137 0.254-0.203 0.387-0.199 0.133 0.003 0.262 0.075 0.387 0.217 0.013 0.014 0.021 0.025 0.029 0.033 0.007 0.009 0.012 0.016 0.016 0.021l-0.236 0.26-0.035-0.04c-0.072-0.081-0.135-0.126-0.189-0.135-0.055-0.009-0.109 0.018-0.165 0.077-0.039 0.043-0.06 0.092-0.06 0.144 0.001 0.051 0.021 0.099 0.062 0.146 0.056 0.062 0.169 0.076 0.34 0.04l0.002-0.001 0.231-0.047c0.163-0.035 0.291-0.039 0.383-0.013 0.09 0.026 0.18 0.089 0.269 0.188 0.12 0.135 0.179 0.278 0.173 0.428-0.005 0.15-0.071 0.296-0.201 0.438-0.135 0.147-0.27 0.219-0.405 0.213-0.134-0.005-0.271-0.088-0.411-0.247-0.016-0.017-0.039-0.046-0.07-0.087v-0.008m1.46-0.587l-1.443-1.344 0.621-0.824 0.24 0.223-0.398 0.527 0.334 0.311 0.37-0.49 0.229 0.213-0.369 0.491 0.396 0.37 0.408-0.54 0.243 0.227-0.63 0.836m0.37-1.874l0.167-0.275-0.739-0.352 0.57 0.627m0.34 0.933l-1.326-1.561 0.264-0.434 1.802 0.775-0.212 0.348-0.444-0.208-0.227 0.371 0.343 0.378-0.19 0.331m0.23-1.702l0.16-0.347 0.108 0.062c0.102 0.059 0.18 0.085 0.23 0.078 0.05-0.008 0.091-0.047 0.123-0.117 0.034-0.073 0.043-0.139 0.027-0.195-0.017-0.058-0.056-0.105-0.121-0.143-0.051-0.028-0.099-0.039-0.146-0.033-0.049 0.006-0.121 0.037-0.219 0.094l-0.195 0.113c-0.167 0.098-0.291 0.15-0.373 0.157-0.082 0.005-0.169-0.019-0.264-0.073-0.141-0.08-0.229-0.189-0.266-0.327-0.038-0.138-0.019-0.288 0.057-0.452 0.08-0.172 0.184-0.28 0.311-0.323 0.127-0.044 0.271-0.021 0.43 0.07 0.016 0.009 0.028 0.017 0.036 0.022 0.009 0.005 0.016 0.01 0.021 0.015l-0.151 0.328-0.045-0.025c-0.091-0.052-0.162-0.072-0.217-0.062-0.055 0.011-0.1 0.055-0.135 0.13-0.025 0.056-0.031 0.108-0.016 0.157 0.014 0.048 0.046 0.087 0.1 0.117 0.07 0.04 0.181 0.013 0.333-0.081 0.001-0.001 0.003-0.002 0.003-0.002l0.205-0.125c0.145-0.09 0.264-0.138 0.359-0.146 0.094-0.007 0.196 0.021 0.309 0.085 0.152 0.087 0.248 0.202 0.285 0.347 0.038 0.143 0.016 0.305-0.067 0.485-0.087 0.187-0.194 0.302-0.324 0.344-0.129 0.041-0.282 0.011-0.461-0.091-0.019-0.011-0.05-0.03-0.091-0.059v-0.003"/>
		</g>
</g>
</svg>
