<?xml version="1.0" encoding="UTF-8" standalone="no"?>
<!-- Generator: Adobe Illustrator 18.0.0, SVG Export Plug-In . SVG Version: 6.00 Build 0)  -->
<!DOCTYPE svg  PUBLIC '-//W3C//DTD SVG 1.1//EN'  'http://www.w3.org/Graphics/SVG/1.1/DTD/svg11.dtd'>
<svg style="enable-background:new 0 0 144 80" xmlns="http://www.w3.org/2000/svg" xml:space="preserve" version="1.1" y="0px" x="0px" xmlns:xlink="http://www.w3.org/1999/xlink" viewBox="0 0 144 80">
<g id="RWA">
	<g id="Rwanda">
			<rect height="39.999" width="144" y="0" x="0" fill="#17A0DA"/>
			<rect height="20.001" width="144" y="39.999" x="0" fill="#F8D209"/>
			<rect height="20" width="144" y="60" x="0" fill="#22613E"/>
			<g fill="#E3BE21">
				<path d="m125.4 24.901l2.23 11.104-3.566-10.75-0.722 11.303-0.662-11.305-3.621 10.73 2.286-11.092-6.275 9.428 5.078-10.123-8.5 7.484 7.525-8.465-10.149 5.029 9.462-6.229-11.105 2.231 10.75-3.568-11.306-0.719 11.309-0.664-10.732-3.621 11.094 2.285-9.429-6.275 10.123 5.08-7.483-8.502 8.464 7.525-5.02-10.147 6.228 9.461-2.23-11.106 3.566 10.75 0.721-11.303 0.663 11.307 3.62-10.732-2.284 11.094 6.275-9.43-5.08 10.125 8.502-7.484-7.525 8.465 10.148-5.029-9.461 6.229 11.105-2.23-10.751 3.566 11.304 0.721-11.306 0.662 10.732 3.621-11.094-2.285 9.43 6.275-10.124-5.08 7.483 8.502-8.465-7.525 5.029 10.149-6.23-9.462z"/>
				<circle r="4.892" stroke="#17A0DA" cy="19.918" cx="123.38" stroke-width="4.08"/>
			</g>
	</g>
</g>
</svg>
