<?xml version="1.0" encoding="UTF-8" standalone="no"?>
<!-- Generator: Adobe Illustrator 18.0.0, SVG Export Plug-In . SVG Version: 6.00 Build 0)  -->
<!DOCTYPE svg  PUBLIC '-//W3C//DTD SVG 1.1//EN'  'http://www.w3.org/Graphics/SVG/1.1/DTD/svg11.dtd'>
<svg style="enable-background:new 0 0 144 80" xmlns="http://www.w3.org/2000/svg" xml:space="preserve" version="1.1" y="0px" x="0px" xmlns:xlink="http://www.w3.org/1999/xlink" viewBox="0 0 144 80">
<g id="UGA">
		<polygon points="144 66.668 0 66.668 0 53.334 144 53.334" fill="#FADB00"/>
		<polygon points="144 26.666 0 26.666 0 13.332 144 13.332" fill="#FADB00"/>
		<polygon points="144 13.332 0 13.332 0 0 144 0"/>
		<polygon points="0 53.334 144 53.334 144 40 0 40"/>
		<polygon points="0 40 144 40 144 26.666 0 26.666" fill="#D81F26"/>
		<polygon points="144 80 0 80 0 66.668 144 66.668" fill="#D81F26"/>
		<polygon stroke-width=".1521" points="144 80 0 80 0 66.668 144 66.668" stroke="#000" fill="none"/>
		<path d="m72 52.432c6.866 0 12.432-5.567 12.432-12.432s-5.566-12.432-12.432-12.432c-6.865 0-12.432 5.566-12.432 12.432s5.567 12.432 12.432 12.432z" fill="#fff"/>
		<path d="m72 52.432c6.866 0 12.432-5.567 12.432-12.432s-5.566-12.432-12.432-12.432c-6.865 0-12.432 5.566-12.432 12.432s5.567 12.432 12.432 12.432z" stroke="#000" stroke-miterlimit="2" stroke-width=".0694" fill="none"/>
		<path d="m69.898 30.69l-0.85-1.636c1.528-1.062 4.565-0.552 5.116 2.081l-1.442 0.318-2.824-0.763z" fill="#D81F26"/>
		<path d="m69.898 30.69l-0.85-1.636c1.528-1.062 4.565-0.552 5.116 2.081l-1.442 0.318-2.824-0.763z" stroke="#000" stroke-miterlimit="2" stroke-width=".0347" fill="none"/>
		<path d="m72.095 31.284l-1.553-0.421 0.137-2.323c0.915-0.042 1.896 0.255 2.598 0.938l-1.182 1.806z" fill="#FADB00"/>
		<path d="m72.095 31.284l-1.553-0.421 0.137-2.323c0.915-0.042 1.896 0.255 2.598 0.938l-1.182 1.806z" stroke="#000" stroke-miterlimit="2" stroke-width=".0347" fill="none"/>
		<path d="m71.724 42.622c0.658 2.146 0.021 2.719 0.34 4.014 0.242 0.983 0.17 2.506 0.149 3.271-1.169-0.149-2.442 0.021-3.017 0.552 0.596-0.127 1.424-0.085 1.954 0.021-0.446 0.106-0.935 0.658-0.935 1.315 0.828-0.87 2.655-1.655 4.63-1.337-0.149-0.34-1.104-0.701-1.975-0.573-0.064-0.552-0.363-2.198-0.192-2.994 0.234-1.082-0.084-2.718 0.128-3.291 0.213-0.573 0.531-0.935 0.553-1.508"/>
		<path d="m71.724 42.622c0.658 2.146 0.021 2.719 0.34 4.014 0.242 0.983 0.17 2.506 0.149 3.271-1.169-0.149-2.442 0.021-3.017 0.552 0.596-0.127 1.424-0.085 1.954 0.021-0.446 0.106-0.935 0.658-0.935 1.315 0.828-0.87 2.655-1.655 4.63-1.337-0.149-0.34-1.104-0.701-1.975-0.573-0.064-0.552-0.363-2.198-0.192-2.994 0.234-1.082-0.084-2.718 0.128-3.291 0.213-0.573 0.531-0.935 0.553-1.508" stroke="#000" stroke-miterlimit="2" stroke-width=".0347" fill="none"/>
		<path d="m76.587 39.587c3.235 1.078 2.675 3.228 1.825 3.566-2.046 0.818-5.171 0.312-7.813-0.765-1.146-0.467-2.633-1.825-2.293-3.015 0.339-1.188 2.76-2.251 4.204-1.529 1.444 0.723 3.44 1.53 4.077 1.743z"/>
		<path d="m76.587 39.587c3.235 1.078 2.675 3.228 1.825 3.566-2.046 0.818-5.171 0.312-7.813-0.765-1.146-0.467-2.633-1.825-2.293-3.015 0.339-1.188 2.76-2.251 4.204-1.529 1.444 0.723 3.44 1.53 4.077 1.743z" stroke="#000" stroke-miterlimit="2" stroke-width=".0347" fill="none"/>
		<path d="m71.13 40.182c-0.553 0.742-0.383 2.633 0.615 3.142 0.863 0.44 1.316 0.807 1.699 1.444 0.381 0.637 0.509 1.063-0.403 0.977-2.23-0.213-4.778-0.44-5.521 0.275-0.552 0.531-0.552 1.211-0.382 1.954 0.297-0.382 0.085-1.104 0.51-1.359-0.128 0.298-0.085 0.914 0.212 1.274 0-0.403 0.085-1.38 0.361-1.508 0.275 0.192 0.031 0.775 0.34 1.127 0.202-0.331 0.011-0.67 0.393-1.031 0.35-0.329 0.882-0.52 1.985-0.436 1.104 0.086 1.868 0.149 2.378 0.128 0.509-0.021 0.7-0.106 0.956 0 0.254 0.106 0.488 0 0.573-0.17s0.255-0.468-0.063-0.786-0.943-1.295-0.51-2.037c0.297-0.511 0.17-1.254-0.043-1.572"/>
		<path d="m71.13 40.182c-0.553 0.742-0.383 2.633 0.615 3.142 0.863 0.44 1.316 0.807 1.699 1.444 0.381 0.637 0.509 1.063-0.403 0.977-2.23-0.213-4.778-0.44-5.521 0.275-0.552 0.531-0.552 1.211-0.382 1.954 0.297-0.382 0.085-1.104 0.51-1.359-0.128 0.298-0.085 0.914 0.212 1.274 0-0.403 0.085-1.38 0.361-1.508 0.275 0.192 0.031 0.775 0.34 1.127 0.202-0.331 0.011-0.67 0.393-1.031 0.35-0.329 0.882-0.52 1.985-0.436 1.104 0.086 1.868 0.149 2.378 0.128 0.509-0.021 0.7-0.106 0.956 0 0.254 0.106 0.488 0 0.573-0.17s0.255-0.468-0.063-0.786-0.943-1.295-0.51-2.037c0.297-0.511 0.17-1.254-0.043-1.572" stroke="#000" stroke-miterlimit="2" stroke-width=".0347" fill="none"/>
		<path d="m68.051 32.749c0.105 0.213 0.689 0.116 1.772-0.074 0.022 0.19 0.523 0.439 0.309 0.712-0.936 1.188-2.166 2.501-2.549 4.373-0.213 1.041 0.106 2.441 1.062 3.291-0.021-0.318 0-0.658-0.042-0.912 0.106 0.106 0.233 0.254 0.383 0.361 0.021-0.128 0.105-0.553 0.105-0.659 0.17 0.086 0.383 0.148 0.572 0.234 0-0.171-0.084-0.574-0.126-0.68 0.148 0.085 0.425 0.169 0.509 0.255-0.062-0.149-0.254-0.637-0.34-0.787 0.086 0.106 0.361 0.256 0.426 0.32-0.107-0.149-0.127-0.638-0.17-0.744 0.062 0.042 0.381 0.191 0.658 0.34-0.107-0.17-0.148-0.658-0.191-0.743 0.191 0.107 0.531 0.233 0.637 0.319-0.127-0.17 0-0.468-0.086-0.553 0.193 0.063 0.575-0.127 0.914 0.021-0.275-0.361-0.701-0.552-0.785-0.998-0.248-1.294 0.133-2.882 0.807-3.355 1.211-0.85 1.401-2.718-0.36-3.333-1.033-0.361-2.358 0.425-1.933 1.954-1.232 0.212-1.9 0.36-1.837 0.764 0.073-0.032 0.191-0.095 0.265-0.106z"/>
		<path d="m68.051 32.749c0.105 0.213 0.689 0.116 1.772-0.074 0.022 0.19 0.523 0.439 0.309 0.712-0.936 1.188-2.166 2.501-2.549 4.373-0.213 1.041 0.106 2.441 1.062 3.291-0.021-0.318 0-0.658-0.042-0.912 0.106 0.106 0.233 0.254 0.383 0.361 0.021-0.128 0.105-0.553 0.105-0.659 0.17 0.086 0.383 0.148 0.572 0.234 0-0.171-0.084-0.574-0.126-0.68 0.148 0.085 0.425 0.169 0.509 0.255-0.062-0.149-0.254-0.637-0.34-0.787 0.086 0.106 0.361 0.256 0.426 0.32-0.107-0.149-0.127-0.638-0.17-0.744 0.062 0.042 0.381 0.191 0.658 0.34-0.107-0.17-0.148-0.658-0.191-0.743 0.191 0.107 0.531 0.233 0.637 0.319-0.127-0.17 0-0.468-0.086-0.553 0.193 0.063 0.575-0.127 0.914 0.021-0.275-0.361-0.701-0.552-0.785-0.998-0.248-1.294 0.133-2.882 0.807-3.355 1.211-0.85 1.401-2.718-0.36-3.333-1.033-0.361-2.358 0.425-1.933 1.954-1.232 0.212-1.9 0.36-1.837 0.764 0.073-0.032 0.191-0.095 0.265-0.106z" stroke="#000" stroke-miterlimit="2" stroke-width=".0347" fill="none"/>
		<path d="m71.024 37.591c-0.284 1.131 0.211 2.845 2.377 3.651 2.166 0.808 3.78 2.463 3.313 3.822 0.339-0.127 1.104-1.125 0.637-1.953 0.679 0.977-0.075 2.509-1.02 3.1-0.34 0.213-0.043 0.383 0.255 0.276-0.255 0.106-0.467 0.382-0.234 0.382 0.234 0 0.829-0.255 1.062-0.488-0.17 0.17-0.574 0.361-0.361 0.552s0.572-0.085 0.977-0.487c-0.212 0.254-0.53 0.658-0.764 0.828-0.233 0.17-0.223 0.607 0.17 0.339 0.998-0.68 2.144-1.677 2.378-2.823 0.217-1.066 0.679-3.547-2.039-4.821-2.718-1.272-4.034-1.655-4.841-2.165-0.806-0.511-1.699-1.063-1.91-0.213z" fill="#BCC4C0"/>
		<path d="m71.024 37.591c-0.284 1.131 0.211 2.845 2.377 3.651 2.166 0.808 3.78 2.463 3.313 3.822 0.339-0.127 1.104-1.125 0.637-1.953 0.679 0.977-0.075 2.509-1.02 3.1-0.34 0.213-0.043 0.383 0.255 0.276-0.255 0.106-0.467 0.382-0.234 0.382 0.234 0 0.829-0.255 1.062-0.488-0.17 0.17-0.574 0.361-0.361 0.552s0.572-0.085 0.977-0.487c-0.212 0.254-0.53 0.658-0.764 0.828-0.233 0.17-0.223 0.607 0.17 0.339 0.998-0.68 2.144-1.677 2.378-2.823 0.217-1.066 0.679-3.547-2.039-4.821-2.718-1.272-4.034-1.655-4.841-2.165-0.806-0.511-1.699-1.063-1.91-0.213z" stroke="#000" stroke-miterlimit="2" stroke-width=".0347" fill="none"/>
		<path d="m76.459 39.862c-0.594-0.148-2.251-0.679-2.973-1.125s-1.593-0.382-1.528 0.34c0.063 0.722 1.698 0.955 2.08 1.677 0.383 0.723 1.954 0.785 2.506 0.871 0.553 0.084 2.336-0.595-0.085-1.763z" fill="#fff"/>
		<path d="m76.459 39.862c-0.594-0.148-2.251-0.679-2.973-1.125s-1.593-0.382-1.528 0.34c0.063 0.722 1.698 0.955 2.08 1.677 0.383 0.723 1.954 0.785 2.506 0.871 0.553 0.084 2.336-0.595-0.085-1.763z" stroke="#000" stroke-miterlimit="2" stroke-width=".0347" fill="none"/>
		<path d="m74.442 41.349c0.572 0.36 1.146 0.51 1.805 1.423 0.521 0.723 0.695 1.63 0.468 2.293 0.339-0.127 1.104-1.125 0.637-1.953 0.679 0.977-0.075 2.509-1.02 3.1-0.34 0.213-0.043 0.383 0.255 0.276-0.255 0.106-0.467 0.382-0.234 0.382 0.234 0 0.829-0.255 1.062-0.488-0.17 0.17-0.574 0.361-0.361 0.552s0.572-0.085 0.977-0.487c-0.212 0.254-0.53 0.658-0.764 0.828-0.233 0.17-0.223 0.607 0.17 0.339 0.998-0.68 2.144-1.677 2.378-2.823 0.217-1.066 0.722-3.441-2.039-4.821-0.468-0.232-1.763-0.509-2.06-0.572 0.595 0.233 1.317 1.231 1.529 1.443-0.383-0.212-1.657-0.828-2.018-0.892 0.276 0.254 0.552 0.425 0.807 0.955-0.446-0.233-1.4-0.382-1.656-0.402 0.34 0.127 0.595 0.487 0.765 0.68-0.425-0.28-1.241-0.173-0.701 0.167z" fill="#D81F26"/>
		<path d="m74.442 41.349c0.572 0.36 1.146 0.51 1.805 1.423 0.521 0.723 0.695 1.63 0.468 2.293 0.339-0.127 1.104-1.125 0.637-1.953 0.679 0.977-0.075 2.509-1.02 3.1-0.34 0.213-0.043 0.383 0.255 0.276-0.255 0.106-0.467 0.382-0.234 0.382 0.234 0 0.829-0.255 1.062-0.488-0.17 0.17-0.574 0.361-0.361 0.552s0.572-0.085 0.977-0.487c-0.212 0.254-0.53 0.658-0.764 0.828-0.233 0.17-0.223 0.607 0.17 0.339 0.998-0.68 2.144-1.677 2.378-2.823 0.217-1.066 0.722-3.441-2.039-4.821-0.468-0.232-1.763-0.509-2.06-0.572 0.595 0.233 1.317 1.231 1.529 1.443-0.383-0.212-1.657-0.828-2.018-0.892 0.276 0.254 0.552 0.425 0.807 0.955-0.446-0.233-1.4-0.382-1.656-0.402 0.34 0.127 0.595 0.487 0.765 0.68-0.425-0.28-1.241-0.173-0.701 0.167z" stroke="#000" stroke-miterlimit="2" stroke-width=".0347" fill="none"/>
		<path d="m69.823 32.675c-0.435 0.287-0.807 0.796-0.541 1.2 0.266 0.402 0.974-0.01 1.083-0.298 0.234-0.615-0.552-0.604-0.542-0.902z" fill="#D81F26"/>
		<path d="m69.823 32.675c-0.435 0.287-0.807 0.796-0.541 1.2 0.266 0.402 0.974-0.01 1.083-0.298 0.234-0.615-0.552-0.604-0.542-0.902z" stroke="#000" stroke-miterlimit="2" stroke-width=".0347" fill="none"/>
		<path d="m70.535 33.747c-1.339 1.55-1.847 3.419-1.891 4.629-0.021 0.594 0.256 0.935 0.511 1.188 0.041-0.148-0.021-0.572-0.086-0.721 0.105 0.105 0.361 0.19 0.468 0.297-0.021-0.148-0.17-0.553-0.213-0.616 0.085 0.107 0.372-0.011 0.415 0.053-0.043-0.126-0.138-0.35-0.182-0.414 0.064 0.044 0.553 0.075 0.638 0.117-0.063-0.128-0.297-0.488-0.297-0.488 0.063 0.022 0.509 0.053 0.637 0.096-0.255-0.255-0.956-0.998 0.126-3.801 0.186-0.48 0.168-0.682-0.126-0.34z" fill="#BCC4C0"/>
		<path d="m70.535 33.747c-1.339 1.55-1.847 3.419-1.891 4.629-0.021 0.594 0.256 0.935 0.511 1.188 0.041-0.148-0.021-0.572-0.086-0.721 0.105 0.105 0.361 0.19 0.468 0.297-0.021-0.148-0.17-0.553-0.213-0.616 0.085 0.107 0.372-0.011 0.415 0.053-0.043-0.126-0.138-0.35-0.182-0.414 0.064 0.044 0.553 0.075 0.638 0.117-0.063-0.128-0.297-0.488-0.297-0.488 0.063 0.022 0.509 0.053 0.637 0.096-0.255-0.255-0.956-0.998 0.126-3.801 0.186-0.48 0.168-0.682-0.126-0.34z" stroke="#000" stroke-miterlimit="2" stroke-width=".0347" fill="none"/>
		<path d="m71.511 40.563c-0.318 0.7-0.126 1.571 0.044 1.848-0.128-0.319 0.892-0.595 1.613 0.042-0.297-0.403-1.571-1.359-1.657-1.89z" fill="#BCC4C0"/>
		<path d="m71.511 40.563c-0.318 0.7-0.126 1.571 0.044 1.848-0.128-0.319 0.892-0.595 1.613 0.042-0.297-0.403-1.571-1.359-1.657-1.89z" stroke="#000" stroke-miterlimit="2" stroke-width=".0347" fill="none"/>
		<path d="m70.439 31.565c-0.334 0-0.34 0.511 0 0.511 0.34-0.001 0.34-0.511 0-0.511z" fill="#fff"/>
		<path d="m70.439 31.565c-0.334 0-0.34 0.511 0 0.511 0.34-0.001 0.34-0.511 0-0.511z" stroke="#000" stroke-miterlimit="2" stroke-width=".0347" fill="none"/>
		<path d="m68.051 32.749c0.616-0.244 1.263-0.128 1.699-0.393-0.081-0.08-0.096-0.144-0.128-0.265" stroke="#fff" stroke-miterlimit="2" stroke-width=".0556" fill="none"/>
		<path d="m71.661 31.114c0.19 0.722-0.128 1.083-0.511 1.211-0.442 0.146-0.411 0.749 0.213 0.637 1.062-0.192 1.125-1.167 0.595-2.038-0.134-0.22-0.387-0.144-0.297 0.19z" fill="#BCC4C0"/>
		<path d="m71.661 31.114c0.19 0.722-0.128 1.083-0.511 1.211-0.442 0.146-0.411 0.749 0.213 0.637 1.062-0.192 1.125-1.167 0.595-2.038-0.134-0.22-0.387-0.144-0.297 0.19z" stroke="#000" stroke-miterlimit="2" stroke-width=".0347" fill="none"/>
</g>
</svg>
