<?xml version="1.0" encoding="UTF-8" standalone="no"?>
<!-- Generator: Adobe Illustrator 18.0.0, SVG Export Plug-In . SVG Version: 6.00 Build 0)  -->
<!DOCTYPE svg  PUBLIC '-//W3C//DTD SVG 1.1//EN'  'http://www.w3.org/Graphics/SVG/1.1/DTD/svg11.dtd'>
<svg style="enable-background:new 0 0 144 80" xmlns="http://www.w3.org/2000/svg" xml:space="preserve" version="1.1" y="0px" x="0px" xmlns:xlink="http://www.w3.org/1999/xlink" viewBox="0 0 144 80">
<g id="ANT">
		<path d="m72.904 39.985" fill="#fff"/>
		<path stroke-width=".1388" d="m72.904 39.985" stroke="#000" fill="none"/>
		<polygon points="144 31.3 0 31.3 0 0 144 0"/>
		<polygon stroke-width=".1521" points="144 31.3 0 31.3 0 0 144 0" stroke="#000" fill="none"/>
		<polygon points="144 80 0 80 0 48.688 144 48.688" fill="#fff"/>
		<polygon stroke-width=".1521" points="144 80 0 80 0 48.688 144 48.688" stroke="#000" fill="none"/>
		<polygon points="144 48.688 0 48.688 0 31.3 144 31.3" fill="#0072C6"/>
		<polygon points="72.015 80 0 0 0 80 144 80 144 0" fill="#CE1126"/>
		<polygon points="44.182 31.3 56.492 28.235 46.303 20.7 58.855 22.546 52.356 11.692 63.211 18.191 61.367 5.636 68.898 15.827 72 3.517 75.102 15.827 82.632 5.636 80.787 18.191 91.643 11.692 85.145 22.546 97.697 20.7 87.506 28.235 99.818 31.3" fill="#FCD116"/>
</g>
</svg>
