<?xml version="1.0" encoding="UTF-8" standalone="no"?>
<!-- Generator: Adobe Illustrator 18.0.0, SVG Export Plug-In . SVG Version: 6.00 Build 0)  -->
<!DOCTYPE svg  PUBLIC '-//W3C//DTD SVG 1.1//EN'  'http://www.w3.org/Graphics/SVG/1.1/DTD/svg11.dtd'>
<svg style="enable-background:new 0 0 144 80" xmlns="http://www.w3.org/2000/svg" xml:space="preserve" version="1.1" y="0px" x="0px" xmlns:xlink="http://www.w3.org/1999/xlink" viewBox="0 0 144 80">
<g id="GUM">
		<polygon points="144 80 144 0 0 0 0 80" fill="#EC1C2E"/>
		<polygon points="137.2 73.861 137.2 6.139 6.795 6.139 6.795 73.861" fill="#003876"/>
			<path d="m72 62.67c7.184-5.965 15.133-12.887 15.133-22.67s-7.949-16.705-15.133-22.67c-7.185 5.965-15.133 12.887-15.133 22.67s7.948 16.705 15.133 22.67z" fill="#EC1C2E"/>
			<path stroke-width=".072" d="m72 62.67c7.184-5.965 15.133-12.887 15.133-22.67s-7.949-16.705-15.133-22.67c-7.185 5.965-15.133 12.887-15.133 22.67s7.948 16.705 15.133 22.67z" stroke="#000" fill="none"/>
			<path d="m59.118 43.859c1.652 6.881 7.51 12.086 12.882 16.67 5.371-4.584 11.229-9.789 12.88-16.67h-25.762z" fill="#003876"/>
			<path stroke-width=".072" d="m59.118 43.859c1.652 6.881 7.51 12.086 12.882 16.67 5.371-4.584 11.229-9.789 12.88-16.67h-25.762z" stroke="#000" fill="none"/>
			<path d="m84.88 43.859c0.297-1.231 0.457-2.516 0.457-3.859 0-8.859-7.006-15.127-13.337-20.529-6.332 5.402-13.338 11.67-13.338 20.529 0 1.344 0.16 2.629 0.456 3.859h25.762z" fill="#00AEE7"/>
			<path stroke-width=".072" d="m84.88 43.859c0.297-1.231 0.457-2.516 0.457-3.859 0-8.859-7.006-15.127-13.337-20.529-6.332 5.402-13.338 11.67-13.338 20.529 0 1.344 0.16 2.629 0.456 3.859h25.762z" stroke="#000" fill="none"/>
			<path d="m85.289 41.271c-0.068 0.889-0.208 1.75-0.409 2.588h-15.479c0.19-0.518 0.458-1.315 0.688-1.91 4.356 0.596 11.217 0.436 15.2-0.678z" fill="#D4D5D6"/>
			<path stroke-width=".072" d="m85.289 41.271c-0.068 0.889-0.208 1.75-0.409 2.588h-15.479c0.19-0.518 0.458-1.315 0.688-1.91 4.356 0.596 11.217 0.436 15.2-0.678z" stroke="#000" fill="none"/>
			<path d="m65.061 54.064c-1.186-1.289-2.279-2.643-3.216-4.074 2.436 0.113 7.192 0.619 9.084 2.26 0.46 0.398 0.46 0.598-0.114 0.518-1.147-0.161-4.212 0.486-5.754 1.296z" fill="#FFF100"/>
			<path stroke-width=".072" d="m65.061 54.064c-1.186-1.289-2.279-2.643-3.216-4.074 2.436 0.113 7.192 0.619 9.084 2.26 0.46 0.398 0.46 0.598-0.114 0.518-1.147-0.161-4.212 0.486-5.754 1.296z" stroke="#000" fill="none"/>
			<path d="m83.479 47.686c-2.506 5.053-7.149 9.15-11.479 12.844-1.346-1.148-2.724-2.338-4.057-3.58 1.84-2.91 6.96-1.119 6.96-3.705 0-1.352-1.296-2.537-3.133-2.664-0.573-0.041-0.71-0.062-0.268-0.398 2.103-1.592 4.24 0.119 7.834-1.512 2.617-1.189 3.811-1.097 4.143-0.985z" fill="#FFF100"/>
			<path stroke-width=".072" d="m83.479 47.686c-2.506 5.053-7.149 9.15-11.479 12.844-1.346-1.148-2.724-2.338-4.057-3.58 1.84-2.91 6.96-1.119 6.96-3.705 0-1.352-1.296-2.537-3.133-2.664-0.573-0.041-0.71-0.062-0.268-0.398 2.103-1.592 4.24 0.119 7.834-1.512 2.617-1.189 3.811-1.097 4.143-0.985z" stroke="#000" fill="none"/>
			<path d="m74.752 29.943c-0.048-0.059-0.105-0.225-0.125-0.264 0.115 0.1 0.611 0.228 0.793 0.258-0.076-0.051-0.211-0.248-0.258-0.289 0.143 0.06 0.677 0.25 0.793 0.189-0.094-0.098-0.363-0.379-0.478-0.457 0.199 0.068 0.678 0.338 0.801 0.338-0.026-0.109-0.066-0.277-0.132-0.418 0.172 0.119 0.486 0.26 0.648 0.318-0.019-0.129-0.057-0.338-0.114-0.457 0.173 0.119 0.478 0.357 0.688 0.438-0.058-0.08-0.039-0.338-0.135-0.457 0.135 0.1 0.535 0.418 0.707 0.477-0.095-0.119-0.114-0.358-0.191-0.457 0.114 0.1 0.497 0.279 0.67 0.399-0.04-0.08-0.115-0.26-0.191-0.379 0.115 0.119 0.631 0.418 0.783 0.537-0.038-0.119-0.114-0.379-0.173-0.477 0.23 0.078 0.823 0.438 1.014 0.516-0.687-1.375-3.777-1.836-5.544-1.277 0.282-0.141 0.434-0.412 0.962-0.541-0.133-0.041-0.462-0.209-0.5-0.27 0.171 0.041 0.803-0.08 0.937-0.1-0.115-0.1-0.325-0.258-0.421-0.357 0.249 0.02 0.841-0.039 1.013-0.1-0.096-0.039-0.307-0.119-0.42-0.18 0.171 0.02 0.572 0.061 0.745 0.02-0.114-0.098-0.306-0.336-0.459-0.436 0.249 0.059 0.745 0.059 1.069 0.02-0.153-0.1-0.362-0.199-0.496-0.279 0.152 0.02 0.803-0.158 0.974-0.199-0.095-0.098-0.343-0.158-0.496-0.217 0.268-0.022 0.707-0.279 0.84-0.398-2.132 0.031-3.897 1.064-4.823 2.584 0.03-0.492-0.136-1.098-0.159-1.447-0.083 0.104-0.219 0.277-0.268 0.336 0.08-0.273 0.079-1.004 0.036-1.225-0.049 0.145-0.179 0.359-0.239 0.471 0.02-0.264-0.05-0.99-0.133-1.277-0.059 0.15-0.209 0.355-0.27 0.467 0.047-0.33-0.163-1.178-0.266-1.504 0.003 0.154-0.14 0.539-0.185 0.635-0.008-0.293-0.248-1.246-0.359-1.449 0.047 0.158-0.039 0.58-0.043 0.727-0.073-0.209-0.361-0.76-0.462-0.916 0.037 0.111 0.005 0.326 0.003 0.443-0.168-0.24-0.607-0.688-0.808-0.828 0.176 0.262 0.322 0.678 0.414 0.857-0.05-0.027-0.181-0.086-0.248-0.098 0.152 0.182 0.437 0.68 0.542 0.859-0.096-0.031-0.289-0.047-0.387-0.049 0.198 0.156 0.592 0.602 0.726 0.783-0.085-0.039-0.35-0.021-0.419 0.012 0.171 0.092 0.572 0.459 0.693 0.625-0.092-0.062-0.321-0.121-0.411-0.113 0.201 0.211 0.495 0.584 0.626 0.729-0.113-0.072-0.489-0.174-0.618-0.16 0.152 0.152 0.618 0.648 0.741 0.814-0.118-0.041-0.392-0.002-0.489-0.002 0.175 0.162 0.629 0.682 0.739 0.814-0.107-0.064-0.411-0.113-0.516-0.121 0.2 0.226 0.488 0.678 0.614 0.867-0.103-0.01-0.329-0.039-0.417-0.076-0.998-1.649-2.796-2.664-4.048-2.758 0.172 0.08 0.765 0.457 0.955 0.656-0.134 0-0.324-0.041-0.438-0.041 0.209 0.18 0.648 0.438 0.819 0.518-0.057 0-0.305 0-0.381 0.051 0.173 0.168 0.632 0.299 0.926 0.516-0.113 0-0.304 0.022-0.42 0.022 0.259 0.098 0.708 0.416 0.86 0.646-0.076-0.01-0.286-0.031-0.392-0.041 0.248 0.139 0.593 0.389 0.745 0.547-0.096-0.029-0.314-0.029-0.401-0.029 0.153 0.119 0.621 0.328 0.765 0.508-0.077-0.01-0.344-0.031-0.42-0.031 0.161 0.131 0.615 0.479 0.863 0.748-2.914-1.41-6.459-0.773-8.335 1.818 0.229-0.08 1.031-0.557 1.3-0.637-0.115 0.139-0.076 0.316-0.153 0.457 0.229-0.141 0.593-0.438 0.86-0.617-0.058 0.1-0.097 0.318-0.192 0.498 0.192-0.119 0.784-0.518 1.07-0.756-0.037 0.18-0.114 0.338-0.171 0.457 0.305-0.178 0.878-0.576 1.069-0.715-0.095 0.178-0.171 0.377-0.267 0.496 0.267-0.1 0.878-0.496 1.241-0.695-0.059 0.139-0.095 0.338-0.191 0.457 0.287-0.16 0.746-0.299 1.052-0.277-0.058 0.1-0.153 0.277-0.268 0.357 0.287-0.1 0.696-0.174 1.154-0.113-1.971 0.648-3.939 2.773-3.887 4.17 0.182-0.318 0.545-0.746 0.773-0.955-0.048 0.148-0.019 0.389-0.011 0.527 0.096-0.299 0.298-0.656 0.479-0.975-0.029 0.18 0.028 0.408 0.066 0.527 0.096-0.289 0.44-0.875 0.593-1.113-0.048 0.168 0.009 0.486 0.047 0.656 0.144-0.299 0.44-0.756 0.679-1.025-0.057 0.18-0.047 0.488-0.039 0.598 0.154-0.27 0.536-0.746 0.766-0.994-0.067 0.209-0.067 0.527-0.076 0.676 0.182-0.289 0.696-0.826 0.993-1.084-0.086 0.19-0.115 0.498-0.144 0.627 0.22-0.238 0.859-0.637 1.099-0.705-0.382 0.268-0.783 0.953-1.013 1.281 0.115-0.019 0.307-0.06 0.373-0.07-0.211 0.141-0.621 0.646-0.717 0.826 0.114-0.068 0.323-0.139 0.429-0.18-0.161 0.17-0.524 0.717-0.631 0.965 0.125-0.07 0.346-0.119 0.449-0.16-0.218 0.199-0.553 0.916-0.668 1.205 0.087-0.109 0.401-0.289 0.487-0.328-0.162 0.209-0.535 1.014-0.572 1.223 0.057-0.141 0.354-0.379 0.439-0.479-0.067 0.189-0.182 0.746-0.201 0.916 0.039-0.1 0.182-0.229 0.248-0.309-0.021 0.268 0.029 0.846 0.086 1.064 0.029-0.289 0.162-0.668 0.201-0.846 0.019 0.049 0.076 0.168 0.115 0.219 0-0.219 0.086-0.736 0.114-0.926 0.047 0.08 0.171 0.209 0.239 0.27-0.049-0.229-0.068-0.775-0.06-0.984 0.04 0.08 0.231 0.228 0.298 0.25-0.066-0.17-0.134-0.668-0.125-0.857 0.029 0.1 0.153 0.279 0.22 0.328-0.019-0.268-0.009-0.705-0.019-0.885 0.039 0.119 0.238 0.418 0.334 0.488-0.021-0.199-0.058-0.826-0.047-1.016 0.056 0.1 0.267 0.238 0.333 0.299-0.028-0.219-0.047-0.855-0.047-1.014 0.038 0.109 0.22 0.328 0.286 0.397-0.01-0.277 0.049-0.764 0.067-0.973 0.066 0.068 0.21 0.228 0.248 0.309 0.038-0.418 0.287-0.856 0.612-1.254 0.343 0.357 0.64 1.154 0.697 1.223 0.038-0.088 0.086-0.277 0.123-0.318 0.011 0.199 0.096 0.717 0.114 0.855 0.04-0.1 0.153-0.309 0.191-0.338 0 0.238 0.03 0.637 0.059 0.814 0.038-0.098 0.134-0.258 0.189-0.297-0.046 0.199-0.027 0.734 0 0.934 0.04-0.078 0.164-0.248 0.23-0.307-0.058 0.178 0.134 0.814 0.153 1.092 0.019-0.1 0.151-0.258 0.209-0.355 0 0.217 0.077 0.853 0.096 1.172 0.039-0.129 0.173-0.318 0.239-0.396-0.048 0.287 0.096 0.834 0.199 1.082 0.021-0.139 0.078-0.367 0.136-0.457 0.095 0.189 0.353 0.727 0.363 1.023 0.113-0.287 0.095-0.875-0.04-1.242 0.087 0.07 0.173 0.119 0.23 0.139-0.068-0.258-0.268-0.756-0.372-0.844 0.096 0.049 0.237 0.119 0.295 0.168-0.066-0.299-0.286-0.795-0.41-1.004 0.115 0.029 0.277 0.061 0.382 0.119-0.104-0.219-0.469-0.727-0.63-0.865 0.096 0.029 0.334 0.109 0.419 0.139-0.106-0.178-0.591-0.605-0.889-0.795 0.154-0.02 0.421-0.02 0.546-0.02-0.182-0.228-0.611-0.537-0.88-0.676 0.087 0.01 0.315 0.059 0.43 0.09-0.075-0.219-0.496-0.637-0.696-0.816 0.171 0.09 0.727 0.367 0.898 0.547 0.038-0.139 0.01-0.467-0.048-0.605 0.171 0.109 0.583 0.496 0.659 0.646 0.037-0.141 0.037-0.379 0.028-0.467 0.44 0.307 0.717 0.674 0.831 0.873 0.02-0.139 0.029-0.467-0.011-0.635 0.135 0.119 0.45 0.486 0.516 0.644 0.01-0.129 0.03-0.338-0.01-0.447 0.097 0.119 0.354 0.637 0.394 0.746 0.028-0.109 0.096-0.457 0.066-0.557 0.105 0.148 0.459 0.676 0.507 0.856 0.038-0.16 0.105-0.408 0.094-0.498 0.116 0.17 0.327 0.775 0.345 0.945 0.049-0.08 0.145-0.488 0.125-0.637 0.095 0.18 0.372 0.904 0.43 1.055 0.039-0.111 0.096-0.438 0.086-0.527 0.066 0.109 0.383 0.895 0.393 1.023 0.047-0.119 0.076-0.418 0.066-0.516 0.039 0.178 0.277 0.656 0.581 0.992 0.266-2.581-2.48-4.212-4.669-4.548z" fill="#009370"/>
			<path stroke-width=".072" d="m74.752 29.943c-0.048-0.059-0.105-0.225-0.125-0.264 0.115 0.1 0.611 0.228 0.793 0.258-0.076-0.051-0.211-0.248-0.258-0.289 0.143 0.06 0.677 0.25 0.793 0.189-0.094-0.098-0.363-0.379-0.478-0.457 0.199 0.068 0.678 0.338 0.801 0.338-0.026-0.109-0.066-0.277-0.132-0.418 0.172 0.119 0.486 0.26 0.648 0.318-0.019-0.129-0.057-0.338-0.114-0.457 0.173 0.119 0.478 0.357 0.688 0.438-0.058-0.08-0.039-0.338-0.135-0.457 0.135 0.1 0.535 0.418 0.707 0.477-0.095-0.119-0.114-0.358-0.191-0.457 0.114 0.1 0.497 0.279 0.67 0.399-0.04-0.08-0.115-0.26-0.191-0.379 0.115 0.119 0.631 0.418 0.783 0.537-0.038-0.119-0.114-0.379-0.173-0.477 0.23 0.078 0.823 0.438 1.014 0.516-0.687-1.375-3.777-1.836-5.544-1.277 0.282-0.141 0.434-0.412 0.962-0.541-0.133-0.041-0.462-0.209-0.5-0.27 0.171 0.041 0.803-0.08 0.937-0.1-0.115-0.1-0.325-0.258-0.421-0.357 0.249 0.02 0.841-0.039 1.013-0.1-0.096-0.039-0.307-0.119-0.42-0.18 0.171 0.02 0.572 0.061 0.745 0.02-0.114-0.098-0.306-0.336-0.459-0.436 0.249 0.059 0.745 0.059 1.069 0.02-0.153-0.1-0.362-0.199-0.496-0.279 0.152 0.02 0.803-0.158 0.974-0.199-0.095-0.098-0.343-0.158-0.496-0.217 0.268-0.022 0.707-0.279 0.84-0.398-2.132 0.031-3.897 1.064-4.823 2.584 0.03-0.492-0.136-1.098-0.159-1.447-0.083 0.104-0.219 0.277-0.268 0.336 0.08-0.273 0.079-1.004 0.036-1.225-0.049 0.145-0.179 0.359-0.239 0.471 0.02-0.264-0.05-0.99-0.133-1.277-0.059 0.15-0.209 0.355-0.27 0.467 0.047-0.33-0.163-1.178-0.266-1.504 0.003 0.154-0.14 0.539-0.185 0.635-0.008-0.293-0.248-1.246-0.359-1.449 0.047 0.158-0.039 0.58-0.043 0.727-0.073-0.209-0.361-0.76-0.462-0.916 0.037 0.111 0.005 0.326 0.003 0.443-0.168-0.24-0.607-0.688-0.808-0.828 0.176 0.262 0.322 0.678 0.414 0.857-0.05-0.027-0.181-0.086-0.248-0.098 0.152 0.182 0.437 0.68 0.542 0.859-0.096-0.031-0.289-0.047-0.387-0.049 0.198 0.156 0.592 0.602 0.726 0.783-0.085-0.039-0.35-0.021-0.419 0.012 0.171 0.092 0.572 0.459 0.693 0.625-0.092-0.062-0.321-0.121-0.411-0.113 0.201 0.211 0.495 0.584 0.626 0.729-0.113-0.072-0.489-0.174-0.618-0.16 0.152 0.152 0.618 0.648 0.741 0.814-0.118-0.041-0.392-0.002-0.489-0.002 0.175 0.162 0.629 0.682 0.739 0.814-0.107-0.064-0.411-0.113-0.516-0.121 0.2 0.226 0.488 0.678 0.614 0.867-0.103-0.01-0.329-0.039-0.417-0.076-0.998-1.649-2.796-2.664-4.048-2.758 0.172 0.08 0.765 0.457 0.955 0.656-0.134 0-0.324-0.041-0.438-0.041 0.209 0.18 0.648 0.438 0.819 0.518-0.057 0-0.305 0-0.381 0.051 0.173 0.168 0.632 0.299 0.926 0.516-0.113 0-0.304 0.022-0.42 0.022 0.259 0.098 0.708 0.416 0.86 0.646-0.076-0.01-0.286-0.031-0.392-0.041 0.248 0.139 0.593 0.389 0.745 0.547-0.096-0.029-0.314-0.029-0.401-0.029 0.153 0.119 0.621 0.328 0.765 0.508-0.077-0.01-0.344-0.031-0.42-0.031 0.161 0.131 0.615 0.479 0.863 0.748-2.914-1.41-6.459-0.773-8.335 1.818 0.229-0.08 1.031-0.557 1.3-0.637-0.115 0.139-0.076 0.316-0.153 0.457 0.229-0.141 0.593-0.438 0.86-0.617-0.058 0.1-0.097 0.318-0.192 0.498 0.192-0.119 0.784-0.518 1.07-0.756-0.037 0.18-0.114 0.338-0.171 0.457 0.305-0.178 0.878-0.576 1.069-0.715-0.095 0.178-0.171 0.377-0.267 0.496 0.267-0.1 0.878-0.496 1.241-0.695-0.059 0.139-0.095 0.338-0.191 0.457 0.287-0.16 0.746-0.299 1.052-0.277-0.058 0.1-0.153 0.277-0.268 0.357 0.287-0.1 0.696-0.174 1.154-0.113-1.971 0.648-3.939 2.773-3.887 4.17 0.182-0.318 0.545-0.746 0.773-0.955-0.048 0.148-0.019 0.389-0.011 0.527 0.096-0.299 0.298-0.656 0.479-0.975-0.029 0.18 0.028 0.408 0.066 0.527 0.096-0.289 0.44-0.875 0.593-1.113-0.048 0.168 0.009 0.486 0.047 0.656 0.144-0.299 0.44-0.756 0.679-1.025-0.057 0.18-0.047 0.488-0.039 0.598 0.154-0.27 0.536-0.746 0.766-0.994-0.067 0.209-0.067 0.527-0.076 0.676 0.182-0.289 0.696-0.826 0.993-1.084-0.086 0.19-0.115 0.498-0.144 0.627 0.22-0.238 0.859-0.637 1.099-0.705-0.382 0.268-0.783 0.953-1.013 1.281 0.115-0.019 0.307-0.06 0.373-0.07-0.211 0.141-0.621 0.646-0.717 0.826 0.114-0.068 0.323-0.139 0.429-0.18-0.161 0.17-0.524 0.717-0.631 0.965 0.125-0.07 0.346-0.119 0.449-0.16-0.218 0.199-0.553 0.916-0.668 1.205 0.087-0.109 0.401-0.289 0.487-0.328-0.162 0.209-0.535 1.014-0.572 1.223 0.057-0.141 0.354-0.379 0.439-0.479-0.067 0.189-0.182 0.746-0.201 0.916 0.039-0.1 0.182-0.229 0.248-0.309-0.021 0.268 0.029 0.846 0.086 1.064 0.029-0.289 0.162-0.668 0.201-0.846 0.019 0.049 0.076 0.168 0.115 0.219 0-0.219 0.086-0.736 0.114-0.926 0.047 0.08 0.171 0.209 0.239 0.27-0.049-0.229-0.068-0.775-0.06-0.984 0.04 0.08 0.231 0.228 0.298 0.25-0.066-0.17-0.134-0.668-0.125-0.857 0.029 0.1 0.153 0.279 0.22 0.328-0.019-0.268-0.009-0.705-0.019-0.885 0.039 0.119 0.238 0.418 0.334 0.488-0.021-0.199-0.058-0.826-0.047-1.016 0.056 0.1 0.267 0.238 0.333 0.299-0.028-0.219-0.047-0.855-0.047-1.014 0.038 0.109 0.22 0.328 0.286 0.397-0.01-0.277 0.049-0.764 0.067-0.973 0.066 0.068 0.21 0.228 0.248 0.309 0.038-0.418 0.287-0.856 0.612-1.254 0.343 0.357 0.64 1.154 0.697 1.223 0.038-0.088 0.086-0.277 0.123-0.318 0.011 0.199 0.096 0.717 0.114 0.855 0.04-0.1 0.153-0.309 0.191-0.338 0 0.238 0.03 0.637 0.059 0.814 0.038-0.098 0.134-0.258 0.189-0.297-0.046 0.199-0.027 0.734 0 0.934 0.04-0.078 0.164-0.248 0.23-0.307-0.058 0.178 0.134 0.814 0.153 1.092 0.019-0.1 0.151-0.258 0.209-0.355 0 0.217 0.077 0.853 0.096 1.172 0.039-0.129 0.173-0.318 0.239-0.396-0.048 0.287 0.096 0.834 0.199 1.082 0.021-0.139 0.078-0.367 0.136-0.457 0.095 0.189 0.353 0.727 0.363 1.023 0.113-0.287 0.095-0.875-0.04-1.242 0.087 0.07 0.173 0.119 0.23 0.139-0.068-0.258-0.268-0.756-0.372-0.844 0.096 0.049 0.237 0.119 0.295 0.168-0.066-0.299-0.286-0.795-0.41-1.004 0.115 0.029 0.277 0.061 0.382 0.119-0.104-0.219-0.469-0.727-0.63-0.865 0.096 0.029 0.334 0.109 0.419 0.139-0.106-0.178-0.591-0.605-0.889-0.795 0.154-0.02 0.421-0.02 0.546-0.02-0.182-0.228-0.611-0.537-0.88-0.676 0.087 0.01 0.315 0.059 0.43 0.09-0.075-0.219-0.496-0.637-0.696-0.816 0.171 0.09 0.727 0.367 0.898 0.547 0.038-0.139 0.01-0.467-0.048-0.605 0.171 0.109 0.583 0.496 0.659 0.646 0.037-0.141 0.037-0.379 0.028-0.467 0.44 0.307 0.717 0.674 0.831 0.873 0.02-0.139 0.029-0.467-0.011-0.635 0.135 0.119 0.45 0.486 0.516 0.644 0.01-0.129 0.03-0.338-0.01-0.447 0.097 0.119 0.354 0.637 0.394 0.746 0.028-0.109 0.096-0.457 0.066-0.557 0.105 0.148 0.459 0.676 0.507 0.856 0.038-0.16 0.105-0.408 0.094-0.498 0.116 0.17 0.327 0.775 0.345 0.945 0.049-0.08 0.145-0.488 0.125-0.637 0.095 0.18 0.372 0.904 0.43 1.055 0.039-0.111 0.096-0.438 0.086-0.527 0.066 0.109 0.383 0.895 0.393 1.023 0.047-0.119 0.076-0.418 0.066-0.516 0.039 0.178 0.277 0.656 0.581 0.992 0.266-2.581-2.48-4.212-4.669-4.548zm-0.861-1.298c0.128-0.062 0.269-0.117 0.418-0.164m0.443 1.462c-0.425-0.064-0.828-0.08-1.186-0.045m-1.894-1.697c0.248 0.408 0.448 0.855 0.575 1.338m-1.142-0.027c0.172 0.084 0.344 0.168 0.512 0.268m-2.342 0.462c0.188-0.062 0.378-0.113 0.563-0.145m2.811-0.638c0.116-0.508 0.313-0.99 0.583-1.432" stroke="#000" fill="none"/>
			<path d="m67.631 47.061c-0.017-4.475 0.007-6.027-0.121-6.027-0.13 0-0.106 1.553-0.121 6.027" fill="#81683B"/>
			<path stroke-width=".072" d="m67.631 47.061c-0.017-4.475 0.007-6.027-0.121-6.027-0.13 0-0.106 1.553-0.121 6.027" stroke="#000" fill="none"/>
			<path d="m66.631 47.941c2.808 0 3.744-0.623 3.688-1.24-1.338 0-1.701 0.318-3.688 0.318-1.988 0-2.35-0.318-3.688-0.318-0.057 0.617 0.879 1.24 3.688 1.24z" fill="#81683B"/>
			<path stroke-width=".072" d="m66.631 47.941c2.808 0 3.744-0.623 3.688-1.24-1.338 0-1.701 0.318-3.688 0.318-1.988 0-2.35-0.318-3.688-0.318-0.057 0.617 0.879 1.24 3.688 1.24z" stroke="#000" fill="none"/>
			<path d="m66.631 48.711c1.308 0 2.369-0.109 2.283-0.557-0.119 0.039-0.349 0.074-0.56 0.08l-0.066-0.424c-0.023-0.115-0.339-0.084-0.319 0.029l0.057 0.426c-0.468 0.066-1.059 0.066-1.395 0.066s-0.928 0-1.396-0.066l0.057-0.426c0.021-0.113-0.297-0.145-0.318-0.029l-0.068 0.424c-0.211-0.006-0.438-0.041-0.558-0.08-0.087 0.448 0.974 0.557 2.283 0.557z" fill="#81683B"/>
			<path stroke-width=".072" d="m66.631 48.711c1.308 0 2.369-0.109 2.283-0.557-0.119 0.039-0.349 0.074-0.56 0.08l-0.066-0.424c-0.023-0.115-0.339-0.084-0.319 0.029l0.057 0.426c-0.468 0.066-1.059 0.066-1.395 0.066s-0.928 0-1.396-0.066l0.057-0.426c0.021-0.113-0.297-0.145-0.318-0.029l-0.068 0.424c-0.211-0.006-0.438-0.041-0.558-0.08-0.087 0.448 0.974 0.557 2.283 0.557z" stroke="#000" fill="none"/>
			<path d="m72.38 30.637c0.171 4.904-1.931 16.727 5.5 20.396 0.709 0.32 0.187 1.662-1.025 1.039-7.069-4.008-4.806-16.213-4.934-21.467l0.459 0.032z" fill="#81683B"/>
			<path stroke-width=".072" d="m72.38 30.637c0.171 4.904-1.931 16.727 5.5 20.396 0.709 0.32 0.187 1.662-1.025 1.039-7.069-4.008-4.806-16.213-4.934-21.467l0.459 0.032z" stroke="#000" fill="none"/>
			<path d="m71.775 29.426c-0.688 0-0.688 1.074 0 1.074 0.689 0 0.689-1.074 0-1.074z" fill="#81683B"/>
			<path stroke-width=".072" d="m71.775 29.426c-0.688 0-0.688 1.074 0 1.074 0.689 0 0.689-1.074 0-1.074z" stroke="#000" fill="none"/>
			<path d="m72.722 29.592c-0.687 0-0.687 1.076 0 1.076 0.688 0 0.688-1.076 0-1.076z" fill="#81683B"/>
			<path stroke-width=".072" d="m72.722 29.592c-0.687 0-0.687 1.076 0 1.076 0.688 0 0.688-1.076 0-1.076z" stroke="#000" fill="none"/>
			<path d="m71.812 30.279c-0.689 0-0.689 1.076 0 1.076 0.688 0 0.688-1.076 0-1.076z" fill="#81683B"/>
			<path stroke-width=".072" d="m71.812 30.279c-0.689 0-0.689 1.076 0 1.076 0.688 0 0.688-1.076 0-1.076z" stroke="#000" fill="none"/>
			<path d="m72.455 30.096c-0.688 0-0.688 1.074 0 1.074s0.688-1.074 0-1.074z" fill="#81683B"/>
			<path stroke-width=".072" d="m72.455 30.096c-0.688 0-0.688 1.074 0 1.074s0.688-1.074 0-1.074z" stroke="#000" fill="none"/>
			<path d="m64.758 41.352c0.459 1.672-0.038 3.879-0.86 5.41 1.758-0.18 4.586-0.359 5.541 0-0.84-2.229-2.77-4.953-4.681-5.41z" fill="#fff"/>
			<path stroke-width=".072" d="m64.758 41.352c0.459 1.672-0.038 3.879-0.86 5.41 1.758-0.18 4.586-0.359 5.541 0-0.84-2.229-2.77-4.953-4.681-5.41z" stroke="#000" fill="none"/>
			<path d="m64.811 38.324c-0.13-0.363-0.367-0.584-0.691-0.584-0.483 0-0.793 0.492-0.793 1.23 0 0.734 0.318 1.252 0.807 1.242 0.408-0.006 0.678-0.297 0.709-0.775h-0.63v-0.576h1.16v1.877h-0.37c0-0.125-0.019-0.301-0.056-0.416-0.176 0.314-0.468 0.49-0.827 0.514-0.744 0.047-1.376-0.775-1.376-1.869s0.534-1.818 1.376-1.818c0.664 0 1.21 0.498 1.21 1.176h-0.519v-0.001z" fill="#EC1C2E"/>
			<path d="m69.144 40.23c0.441 0 0.559-0.332 0.559-0.646v-2.436h0.62v2.428c0 0.596-0.27 1.264-1.179 1.264-0.905 0-1.18-0.668-1.18-1.264v-2.428h0.621v2.436c0 0.314 0.12 0.646 0.559 0.646z" fill="#EC1C2E"/>
			<path d="m74.761 39.467c-0.113 0-0.396 0.002-0.396 0.004l0.409-1.5 0.403 1.5s-0.274-0.002-0.416-0.002v0.615h0.588l0.2 0.752h0.603l-1.023-3.691h-0.714l-1.023 3.691h0.604l0.203-0.752h0.563v-0.617h-0.001z" fill="#EC1C2E"/>
			<polygon points="79.547 40.836 78.97 38.021 78.97 40.836 78.372 40.836 78.372 37.145 79.302 37.145 79.853 39.973 80.407 37.145 81.337 37.145 81.337 40.836 80.739 40.836 80.739 38.021 80.163 40.836" fill="#EC1C2E"/>
</g>
</svg>
