<?xml version="1.0" encoding="UTF-8" standalone="no"?>
<!-- Generator: Adobe Illustrator 18.0.0, SVG Export Plug-In . SVG Version: 6.00 Build 0)  -->
<!DOCTYPE svg  PUBLIC '-//W3C//DTD SVG 1.1//EN'  'http://www.w3.org/Graphics/SVG/1.1/DTD/svg11.dtd'>
<svg style="enable-background:new 0 0 144 80" xmlns="http://www.w3.org/2000/svg" xml:space="preserve" version="1.1" y="0px" x="0px" xmlns:xlink="http://www.w3.org/1999/xlink" viewBox="0 0 144 80">
<g id="SLO">
			<polygon points="144 26.665 0 26.665 0 0 144 0" fill="#fff"/>
			<polygon points="0 80 144 80 144 53.334 0 53.334" fill="#EC1C2E"/>
			<polygon points="144 53.334 0 53.334 0 26.665 144 26.665" fill="#006BB5"/>
			<path d="m26.571 11.635c3.202 0 7.812 0.863 11.08 2.452 0 0 0.002 0-0.636 10.444-0.362 5.948-2.815 10.898-10.444 13.26-7.628-2.361-10.079-7.312-10.443-13.26-0.638-10.444-0.636-10.444-0.636-10.444 3.27-1.589 7.879-2.452 11.079-2.452z" fill="#EC1C2E"/>
			<path stroke-width=".0568" d="m26.571 11.635c3.202 0 7.812 0.863 11.08 2.452 0 0 0.002 0-0.636 10.444-0.362 5.948-2.815 10.898-10.444 13.26-7.628-2.361-10.079-7.312-10.443-13.26-0.638-10.444-0.636-10.444-0.636-10.444 3.27-1.589 7.879-2.452 11.079-2.452z" stroke="#000" fill="none"/>
			<path d="m26.571 11.635c2.93 0 7.055 0.734 10.236 2.075 0 0 0.022-0.14-0.648 10.668-0.365 5.878-2.656 10.266-9.588 12.505-6.931-2.239-9.222-6.627-9.586-12.505-0.67-10.808-0.648-10.668-0.648-10.668 3.181-1.341 7.306-2.075 10.234-2.075z" fill="#006BB5"/>
			<path stroke-width=".0568" d="m26.571 11.635c2.93 0 7.055 0.734 10.236 2.075 0 0 0.022-0.14-0.648 10.668-0.365 5.878-2.656 10.266-9.588 12.505-6.931-2.239-9.222-6.627-9.586-12.505-0.67-10.808-0.648-10.668-0.648-10.668 3.181-1.341 7.306-2.075 10.234-2.075z" stroke="#000" fill="none"/>
			<path d="m26.571 31.686c1.374 0 1.374-0.694 2.717-0.694s1.343 0.694 2.716 0.694c0.518 0 0.841-0.096 1.114-0.22 0.236-0.336 0.451-0.681 0.642-1.036-0.521 0.205-0.817 0.529-1.756 0.529-1.373 0-1.373-0.695-2.716-0.695s-1.343 0.695-2.717 0.695c-1.373 0-1.373-0.695-2.717-0.695-1.342 0-1.342 0.695-2.715 0.695-0.938 0-1.234-0.324-1.756-0.529 0.191 0.355 0.406 0.7 0.642 1.036 0.272 0.124 0.596 0.22 1.113 0.22 1.373 0 1.373-0.694 2.715-0.694 1.345-0.001 1.345 0.694 2.718 0.694z" fill="#fff"/>
			<path d="m26.571 35.975c2.615-0.879 4.491-2.107 5.814-3.583-0.116 0.013-0.24 0.021-0.382 0.021-1.373 0-1.373-0.694-2.716-0.694s-1.343 0.694-2.717 0.694c-1.373 0-1.373-0.694-2.717-0.694-1.342 0-1.342 0.694-2.715 0.694-0.141 0-0.266-0.008-0.381-0.021 1.324 1.475 3.201 2.704 5.814 3.583z" fill="#fff"/>
			<path d="m26.571 30.232c1.374 0 1.374-0.694 2.717-0.694s1.343 0.694 2.716 0.694c0.744 0 1.466-0.313 1.882-0.73 0.623-0.622 0.809-1.192 0.956-1.977l-4.135-5.034-1.653 2.012-2.482-4.634-2.481 4.634-1.653-2.012-4.136 5.034c0.147 0.785 0.334 1.355 0.956 1.977 0.416 0.416 1.139 0.73 1.882 0.73 1.373 0 1.373-0.694 2.715-0.694 1.343 0 1.343 0.694 2.716 0.694z" fill="#fff"/>
			<polygon points="29.523 15.086 29.833 14.447 30.542 14.499 30.142 13.905 30.542 13.312 29.833 13.363 29.523 12.726 29.214 13.363 28.504 13.312 28.905 13.905 28.504 14.499 29.214 14.447" fill="#FFF100"/>
			<polygon points="23.62 15.086 23.31 14.447 22.601 14.499 23.002 13.905 22.601 13.312 23.31 13.363 23.62 12.726 23.931 13.363 24.64 13.312 24.239 13.905 24.64 14.499 23.931 14.447" fill="#FFF100"/>
			<polygon points="26.571 18.649 26.262 18.012 25.554 18.062 25.954 17.469 25.554 16.876 26.262 16.926 26.571 16.288 26.883 16.926 27.591 16.876 27.19 17.469 27.591 18.062 26.883 18.012" fill="#FFF100"/>
</g>
</svg>
