<?xml version="1.0" encoding="UTF-8" standalone="no"?>
<!-- Generator: Adobe Illustrator 18.0.0, SVG Export Plug-In . SVG Version: 6.00 Build 0)  -->
<!DOCTYPE svg  PUBLIC '-//W3C//DTD SVG 1.1//EN'  'http://www.w3.org/Graphics/SVG/1.1/DTD/svg11.dtd'>
<svg style="enable-background:new 0 0 144 80" xmlns="http://www.w3.org/2000/svg" xml:space="preserve" version="1.1" y="0px" x="0px" xmlns:xlink="http://www.w3.org/1999/xlink" viewBox="0 0 144 80">
<g id="CAM">
			<polygon points="144 80 144 0 0 0 0 80" fill="#01029C"/>
			<polygon points="0 19.999 144 19.999 144 60.001 0 60.001" fill="#CC0001"/>
			<path d="m71.981 40.019" fill="#005A9A"/>
			<path stroke-width=".1248" d="m71.981 40.019" stroke="#000" fill="none"/>
			<path stroke-linejoin="round" d="m93.079 47.879c-0.318-0.159-0.816-0.704-0.953-1.134v-3.693c0-0.884 0.43-1.428 0.93-1.655v-3.898c-0.113 0.295-0.793 0.194-0.793 0.839h-40.524c0-0.644-0.682-0.544-0.793-0.839v3.898c0.498 0.228 0.93 0.771 0.93 1.655v3.693c-0.137 0.43-0.635 0.975-0.953 1.134h42.156v0z" stroke="#EC1C24" stroke-linecap="round" stroke-width=".1248" fill="#fff"/>
			<polygon stroke-linejoin="round" stroke-linecap="round" stroke="#EC1C24" points="93.915 47.879 93.915 48.943 50.083 48.943 50.083 47.879" stroke-width=".1248" fill="#fff"/>
			<polygon stroke-linejoin="round" stroke-linecap="round" stroke="#EC1C24" points="94.823 48.943 94.823 50.474 49.177 50.474 49.177 48.943" stroke-width=".1248" fill="#fff"/>
			<polygon stroke-linejoin="round" stroke-linecap="round" stroke="#EC1C24" points="96.048 50.474 96.048 52.241 47.954 52.241 47.954 50.474" stroke-width=".1248" fill="#fff"/>
			<polygon stroke-linejoin="round" stroke-linecap="round" stroke="#EC1C24" points="97.384 52.241 97.384 54.395 46.616 54.395 46.616 52.241" stroke-width=".1248" fill="#fff"/>
			<polygon stroke-linejoin="round" stroke-linecap="round" stroke="#EC1C24" points="98.97 54.395 98.97 56.604 45.03 56.604 45.03 54.395" stroke-width=".1248" fill="#fff"/>
				<line stroke-linejoin="round" y2="46.745" fill="#fff" x2="51.876" stroke="#EC1C24" stroke-linecap="round" y1="46.745" x1="71.14" stroke-width=".1248"/>
			<path stroke-linejoin="round" d="m59.659 41.079v-5.835c0-0.262-0.053-0.353-0.26-0.284-0.271 0.091-0.477 0.386-0.635 0.681-0.158 0.294-0.521 0.17-0.521-0.034 0-0.838 0.488-0.589 0.488-1.314 0-0.249-0.217-0.159-0.455 0.012-0.236 0.17-0.248-0.136-0.248-0.42 0-0.407 0.316-0.283 0.316-0.815 0-0.307-0.271-0.148-0.441 0.022s-0.283 0.102-0.283-0.272c0-0.407 0.408-0.419 0.408-0.793 0-0.227-0.191-0.158-0.318 0.011-0.123 0.171-0.43 0.137-0.385-0.056 0.154-0.658-0.193-1.326-0.465-1.554-0.271-0.225-0.293-0.373-0.293-0.566 0-0.192-0.024-0.307-0.16-0.307-0.135 0-0.158 0.114-0.158 0.307 0 0.192-0.023 0.341-0.295 0.566-0.272 0.228-0.619 0.896-0.465 1.554 0.045 0.192-0.26 0.227-0.385 0.056-0.125-0.169-0.316-0.237-0.316-0.011 0 0.374 0.408 0.386 0.408 0.793 0 0.374-0.115 0.442-0.285 0.272s-0.441-0.329-0.441-0.022c0 0.532 0.318 0.408 0.318 0.815 0 0.284-0.012 0.59-0.25 0.42-0.238-0.171-0.453-0.261-0.453-0.012 0 0.726 0.486 0.477 0.486 1.314 0 0.204-0.361 0.328-0.52 0.034-0.16-0.295-0.363-0.59-0.635-0.681-0.209-0.068-0.262 0.022-0.262 0.284v5.835h6.505v0z" stroke="#EC1C24" stroke-linecap="round" stroke-width=".1248" fill="#fff"/>
			<polygon stroke-linejoin="round" stroke-linecap="round" stroke="#EC1C24" points="57.337 41.557 57.337 47.879 55.479 47.879 55.479 41.557" stroke-width=".1248" fill="#fff"/>
			<polygon stroke-linejoin="round" stroke-linecap="round" stroke="#EC1C24" points="58.063 56.604 58.063 47.879 54.753 47.879 54.753 56.604" stroke-width=".1248" fill="#fff"/>
			<polygon stroke-linejoin="round" stroke-linecap="round" stroke="#EC1C24" points="57.337 56.604 57.337 47.879 55.479 47.879 55.479 56.604" stroke-width=".1248" fill="#fff"/>
			<path stroke-linejoin="round" d="m54.437 41.557c0.385 0.33 0.578 0.6 0.578 1.166v4.022s-0.283 1.134-0.963 1.134m-1.031 0c0.883 0 1.064-0.692 1.064-1.134v-4.703c0-0.566-0.533-0.884-0.93-0.963h-1.416m6.641 0.478c-0.385 0.33-0.578 0.6-0.578 1.166v4.022s0.283 1.134 0.963 1.134m0.894-6.8c-0.395 0.079-0.928 0.396-0.928 0.963v4.703c0 0.441 0.18 1.134 1.064 1.134m-8.056-9.542v2.742c0.295 0 0.545 0.341 0.545 0.907v4.759c0 0.419-0.307 1.134-0.965 1.134" stroke="#EC174C" stroke-linecap="round" stroke-width=".1248" fill="none"/>
			<path stroke-linejoin="round" d="m53.155 41.079c0-0.69-0.697-1.699-1.416-1.699v-3.048h0.6v2.72c0.094 0.02 0.15 0.093 0.184 0.147v-1.564h0.633v3.444h-0.001z" stroke="#EC1C24" stroke-linecap="round" stroke-width=".1248" fill="#fff"/>
			<polygon stroke-linejoin="round" stroke-linecap="round" stroke="#EC1C24" points="53.155 36.836 52.522 36.836 52.522 37.364 53.155 37.364" stroke-width=".1248" fill="#fff"/>
			<path stroke-linejoin="round" d="m61.077 38.337v2.742h-1.418m0 0c0-1.189 0.918-1.699 1.418-1.699" stroke="#EC174C" stroke-linecap="round" stroke-width=".1248" fill="none"/>
			<path stroke-linejoin="round" d="m60.69 37.923v1.537c0.141-0.054 0.273-0.08 0.387-0.08v-1.457h-0.387v0z" stroke="#EC1C24" stroke-linecap="round" stroke-width=".1248" fill="#fff"/>
			<path stroke-linejoin="round" d="m61.077 38.678h5.258m-5.258 1.178h5.258m-5.258 0.635h3.92m1.916 1.065h-5.85c-0.35 0-0.373 0.158-0.373 0.34v4.85c0 0.407 0.352 1.134 1.055 1.134m-1.055-5.214h6.348m-14.07 4.079v-3.257c0-0.052 0.041-0.093 0.092-0.093h0.504c0.051 0 0.092 0.041 0.092 0.093v3.257m7.421-5.666h5.258m-7 5.666v-3.257c0-0.052 0.041-0.093 0.094-0.093h0.504c0.051 0 0.092 0.041 0.092 0.093v3.257m0.665-3.349h0.465c0.051 0 0.092 0.041 0.092 0.093v3.257m1.496-0.001v-3.257c0-0.052-0.041-0.093-0.092-0.093h-0.504c-0.051 0-0.092 0.041-0.092 0.093v3.257m2.186 0v-3.257c0-0.052-0.043-0.093-0.094-0.093h-0.504c-0.051 0-0.094 0.041-0.094 0.093v3.257m2.186 0v-3.257c0-0.052-0.041-0.093-0.092-0.093h-0.506c-0.049 0-0.092 0.041-0.092 0.093v3.257m1.499 0v-3.257c0-0.052 0.041-0.093 0.092-0.093h0.402" stroke="#EC174C" stroke-linecap="round" stroke-width=".1248" fill="none"/>
				<line stroke-linejoin="round" y2="46.745" fill="#fff" x2="92.126" stroke="#EC1C24" stroke-linecap="round" y1="46.745" x1="72.862" stroke-width=".1248"/>
			<path stroke-linejoin="round" d="m84.341 41.079v-5.835c0-0.262 0.053-0.353 0.26-0.284 0.273 0.091 0.477 0.386 0.635 0.681 0.16 0.294 0.523 0.17 0.523-0.034 0-0.838-0.488-0.589-0.488-1.314 0-0.249 0.215-0.159 0.453 0.012 0.238 0.17 0.248-0.136 0.248-0.42 0-0.407-0.316-0.283-0.316-0.815 0-0.307 0.273-0.148 0.443 0.022 0.168 0.17 0.281 0.102 0.281-0.272 0-0.407-0.408-0.419-0.408-0.793 0-0.227 0.193-0.158 0.318 0.011 0.125 0.171 0.432 0.137 0.385-0.056-0.154-0.658 0.193-1.326 0.465-1.554 0.271-0.225 0.295-0.373 0.295-0.566 0-0.192 0.023-0.307 0.158-0.307 0.137 0 0.158 0.114 0.158 0.307 0 0.192 0.023 0.341 0.295 0.566 0.271 0.228 0.621 0.896 0.465 1.554-0.045 0.192 0.26 0.227 0.387 0.056 0.123-0.169 0.316-0.237 0.316-0.011 0 0.374-0.408 0.386-0.408 0.793 0 0.374 0.113 0.442 0.283 0.272s0.441-0.329 0.441-0.022c0 0.532-0.316 0.408-0.316 0.815 0 0.284 0.012 0.59 0.25 0.42 0.236-0.171 0.453-0.261 0.453-0.012 0 0.726-0.488 0.477-0.488 1.314 0 0.204 0.363 0.328 0.521 0.034 0.16-0.295 0.363-0.59 0.635-0.681 0.209-0.068 0.26 0.022 0.26 0.284v5.835h-6.504v0z" stroke="#EC1C24" stroke-linecap="round" stroke-width=".1248" fill="#fff"/>
			<polygon stroke-linejoin="round" stroke-linecap="round" stroke="#EC1C24" points="86.663 41.557 86.663 47.879 88.522 47.879 88.522 41.557" stroke-width=".1248" fill="#fff"/>
			<polygon stroke-linejoin="round" stroke-linecap="round" stroke="#EC1C24" points="85.938 56.604 85.938 47.879 89.247 47.879 89.247 56.604" stroke-width=".1248" fill="#fff"/>
			<polygon stroke-linejoin="round" stroke-linecap="round" stroke="#EC1C24" points="86.663 56.604 86.663 47.879 88.522 47.879 88.522 56.604" stroke-width=".1248" fill="#fff"/>
			<path stroke-linejoin="round" d="m89.565 41.557c-0.387 0.33-0.578 0.6-0.578 1.166v4.022s0.283 1.134 0.963 1.134m1.031 0c-0.883 0-1.064-0.692-1.064-1.134v-4.703c0-0.566 0.531-0.884 0.928-0.963h1.418m-6.641 0.478c0.385 0.33 0.576 0.6 0.576 1.166v4.022s-0.283 1.134-0.963 1.134m-0.894-6.8c0.396 0.079 0.93 0.396 0.93 0.963v4.703c0 0.441-0.182 1.134-1.066 1.134m8.058-9.542v2.742c-0.295 0-0.545 0.341-0.545 0.907v4.759c0 0.419 0.307 1.134 0.963 1.134" stroke="#EC174C" stroke-linecap="round" stroke-width=".1248" fill="none"/>
			<path stroke-linejoin="round" d="m90.845 41.079c0-0.69 0.697-1.699 1.418-1.699v-3.048h-0.602v2.72c-0.092 0.02-0.15 0.093-0.182 0.147v-1.564h-0.635v3.444h0.001z" stroke="#EC1C24" stroke-linecap="round" stroke-width=".1248" fill="#fff"/>
			<polygon stroke-linejoin="round" stroke-linecap="round" stroke="#EC1C24" points="90.845 36.836 91.479 36.836 91.479 37.364 90.845 37.364" stroke-width=".1248" fill="#fff"/>
			<path stroke-linejoin="round" d="m82.925 38.337v2.742h1.416m0 0c0-1.189-0.918-1.699-1.416-1.699" stroke="#EC174C" stroke-linecap="round" stroke-width=".1248" fill="none"/>
			<path stroke-linejoin="round" d="m83.31 37.923v1.537c-0.141-0.054-0.273-0.08-0.385-0.08v-1.457h0.385v0z" stroke="#EC1C24" stroke-linecap="round" stroke-width=".1248" fill="#fff"/>
			<path stroke-linejoin="round" d="m82.925 38.678h-5.258m5.258 1.178h-5.258m3.967 0.635h-3.922m-0.623 1.065h5.846c0.354 0 0.375 0.158 0.375 0.34v4.85c0 0.407-0.352 1.134-1.055 1.134m1.055-5.214h-6.346m14.07 4.079v-3.257c0-0.052-0.041-0.093-0.092-0.093h-0.506c-0.051 0-0.092 0.041-0.092 0.093v3.257m-7.419-5.666h-5.258m6.998 5.666v-3.257c0-0.052-0.041-0.093-0.092-0.093h-0.504c-0.051 0-0.092 0.041-0.092 0.093v3.257m-0.667-3.349h-0.465c-0.051 0-0.092 0.041-0.092 0.093v3.257m-1.496-0.001v-3.257c0-0.052 0.041-0.093 0.094-0.093h0.504c0.051 0 0.092 0.041 0.092 0.093v3.257m-2.184 0v-3.257c0-0.052 0.039-0.093 0.09-0.093h0.506c0.049 0 0.092 0.041 0.092 0.093v3.257m-2.186 0v-3.257c0-0.052 0.041-0.093 0.094-0.093h0.504c0.051 0 0.092 0.041 0.092 0.093v3.257m-1.497 0v-3.257c0-0.052-0.041-0.093-0.092-0.093h-0.402" stroke="#EC174C" stroke-linecap="round" stroke-width=".1248" fill="none"/>
			<path stroke-linejoin="round" d="m77.679 41.147v-5.484c0 0.112-0.668 0.43-0.668 0.714h-0.953v-0.653c0.193 0 0.385-0.174 0.424-0.323 0.02-0.073-0.021-0.102-0.088-0.058-0.066 0.044-0.432 0.201-0.492 0.087-0.029-0.054-0.037-0.066 0.107-0.168 0.109-0.073 0.486-0.334 0.561-0.385 0.131-0.092-0.098-0.372-0.201-0.303-0.131 0.086-0.316 0.217-0.457 0.312-0.104 0.069-0.24 0.155-0.289 0.012-0.07-0.192-0.273-0.365-0.516-0.365h-6.213c-0.242 0-0.445 0.173-0.514 0.365-0.051 0.144-0.186 0.058-0.289-0.012-0.143-0.096-0.328-0.227-0.457-0.312-0.104-0.069-0.332 0.211-0.201 0.303 0.072 0.051 0.451 0.312 0.559 0.385 0.146 0.102 0.139 0.114 0.109 0.168-0.061 0.114-0.426-0.043-0.492-0.087-0.068-0.045-0.109-0.016-0.09 0.058 0.039 0.149 0.232 0.323 0.424 0.323v0.661h-0.996c0-0.282-0.623-0.609-0.623-0.722v5.484h11.355v0z" stroke="#EC1C24" stroke-linecap="round" stroke-width=".1248" fill="#fff"/>
			<path stroke-linejoin="round" d="m73.694 26.076c0 0.34-0.141 0.362-0.141 0.635 0 0.283 0.31 0.229 0.385 0.057 0.035-0.079 0.271-0.124 0.271 0.204 0 0.283-0.328 0.498-0.328 0.872 0 0.306 0.17 0.25 0.271 0.046 0.102-0.205 0.555-0.532 0.555-0.011 0 0.158 0.068 0.464-0.158 0.701-0.227 0.238-0.203 0.418-0.203 0.612 0 0.216 0.162 0.385 0.351-0.022 0.066-0.147 0.52-0.441 0.52 0.034v0.589c0 0.295-0.395 0.409-0.395 0.68v0.476c0 0.137 0.145 0.277 0.225 0.103 0.148-0.316 0.635-0.556 0.635-0.124v0.464c0 0.103 0.035 0.204-0.25 0.431-0.281 0.228-0.496 0.59-0.496 0.794v0.453s0.18 0.249 0.361-0.103c0.182-0.351 0.385-0.182 0.385 0.068 0 0.249 0.059 0.43-0.26 0.691-0.318 0.261-0.283 0.464-0.283 0.725v1.304c0 0.203 0.066 0.271-0.17 0.271h-5.938c-0.238 0-0.17-0.068-0.17-0.271v-1.304c0-0.261 0.033-0.464-0.283-0.725-0.318-0.262-0.262-0.442-0.262-0.691 0-0.25 0.205-0.419 0.385-0.068 0.182 0.352 0.363 0.216 0.363 0.103s0-0.25 0-0.453c0-0.204-0.215-0.566-0.498-0.794-0.283-0.227-0.25-0.328-0.25-0.431v-0.464c0-0.432 0.488-0.192 0.635 0.124 0.08 0.175 0.227 0.034 0.227-0.103v-0.476c0-0.271-0.396-0.385-0.396-0.68v-0.589c0-0.476 0.453-0.182 0.521-0.034 0.188 0.407 0.352 0.238 0.352 0.022 0-0.194 0.021-0.374-0.205-0.612-0.225-0.237-0.158-0.543-0.158-0.701 0-0.521 0.453-0.194 0.555 0.011 0.104 0.204 0.273 0.26 0.273-0.046 0-0.374-0.328-0.589-0.328-0.872 0-0.328 0.236-0.283 0.27-0.204 0.076 0.172 0.387 0.227 0.387-0.057 0-0.273-0.143-0.295-0.143-0.635h3.388v0z" stroke="#EC1C24" stroke-linecap="round" stroke-width=".1248" fill="#fff"/>
				<line stroke-linejoin="round" y2="27.21" fill="#fff" x2="70.255" stroke="#EC1C24" stroke-linecap="round" y1="27.21" x1="73.745" stroke-width=".1248"/>
				<line stroke-linejoin="round" y2="28.376" fill="#fff" x2="69.802" stroke="#EC1C24" stroke-linecap="round" y1="28.376" x1="74.198" stroke-width=".1248"/>
				<line stroke-linejoin="round" y2="29.725" fill="#fff" x2="69.325" stroke="#EC1C24" stroke-linecap="round" y1="29.725" x1="74.675" stroke-width=".1248"/>
				<line stroke-linejoin="round" y2="31.629" fill="#fff" x2="69.054" stroke="#EC1C24" stroke-linecap="round" y1="31.629" x1="74.946" stroke-width=".1248"/>
				<line stroke-linejoin="round" y2="33.623" fill="#fff" x2="69.167" stroke="#EC1C24" stroke-linecap="round" y1="33.623" x1="74.833" stroke-width=".1248"/>
			<polygon stroke-linejoin="round" stroke-linecap="round" stroke="#EC1C24" points="73.86 39.391 73.86 41.487 70.142 41.487 70.142 39.391" stroke-width=".1248" fill="#fff"/>
			<path stroke-linejoin="round" d="m67.433 34.877c0.129 0.091 0.305-0.234 0.201-0.303-0.106-0.069-0.332 0.211-0.201 0.303v0z" stroke="#EC1C24" stroke-linecap="round" stroke-width=".1248" fill="#fff"/>
			<path stroke-linejoin="round" d="m76.569 34.877c-0.131 0.091-0.305-0.234-0.201-0.303s0.332 0.211 0.201 0.303v0z" stroke="#EC1C24" stroke-linecap="round" stroke-width=".1248" fill="#fff"/>
			<path stroke-linejoin="round" d="m66.946 36.385v3.381m3.196 0.703h-2.844c-0.045-0.262-0.271-0.94-0.975-0.94m0.623-0.138h2.855m-2.288-3.006v2.18m0.84-3.423v3.717c0.34 0.182 0.883 0.726 0.906 1.11 0.26 0.023 0.588 0.023 0.883 0.125m-1.789-1.236h1.439m-1.439-1.019c0.373 0.112 0.873 0.374 1.008 1.019" stroke="#EC174C" stroke-linecap="round" stroke-width=".1248" fill="none"/>
			<polygon stroke-linejoin="round" stroke-linecap="round" stroke="#EC1C24" points="73.36 47.879 73.36 56.604 70.64 56.604 70.64 47.879" stroke-width=".1248" fill="#fff"/>
			<polygon stroke-linejoin="round" stroke-linecap="round" stroke="#EC1C24" points="72.862 47.879 72.862 56.604 71.14 56.604 71.14 47.879" stroke-width=".1248" fill="#fff"/>
			<polygon stroke-linejoin="round" stroke-linecap="round" stroke="#EC1C24" points="72.862 47.879 72.862 41.487 71.14 41.487 71.14 47.879" stroke-width=".1248" fill="#fff"/>
			<path stroke-linejoin="round" d="m70.142 41.487c0.283 0.17 0.375 0.396 0.375 1.021v4.236c0 0.465-0.443 1.134-0.861 1.134m-3.333-6.731c0.668 0.204 0.715 0.635 0.715 1.088v4.51c0 0.453-0.42 1.134-1.248 1.134m2.381-7.41c0.408 0 1.008 0.407 1.008 1.054v5.223c0 0.51-0.646 1.134-1.315 1.134m0.627-1.135v-3.257c0-0.052 0.041-0.093 0.092-0.093h0.596m0.662 3.35v-3.257c0-0.052 0.041-0.093 0.092-0.093h0.152m6.969-7.01v3.381m-3.194 0.703h2.844c0.045-0.262 0.271-0.94 0.975-0.94m-1.192-3.144v2.18m-0.838-3.423v3.717c-0.34 0.182-0.885 0.726-0.906 1.11-0.262 0.023-0.59 0.023-0.883 0.125m1.789-1.236h-1.439m1.439-1.019c-0.373 0.112-0.873 0.374-1.008 1.019m-0.781 2.629c-0.285 0.17-0.375 0.396-0.375 1.021v4.236c0 0.465 0.441 1.134 0.861 1.134m1.485-7.409c-0.408 0-1.008 0.407-1.008 1.054v5.223c0 0.51 0.645 1.134 1.315 1.134m-0.629-1.135v-3.257c0-0.052-0.041-0.093-0.092-0.093h-0.594m-0.662 3.35v-3.257c0-0.052-0.041-0.093-0.092-0.093h-0.154m3.764-2.248c-0.668 0.204-0.715 0.635-0.715 1.088v4.51c0 0.453 0.42 1.134 1.246 1.134" stroke="#EC174C" stroke-linecap="round" stroke-width=".1248" fill="none"/>
			<path stroke-linejoin="round" d="m73.694 26.076c0.309 0 0.297-0.711 0-0.711h-3.389c-0.295 0-0.307 0.711 0 0.711h3.389v0z" stroke="#EC1C24" stroke-linecap="round" stroke-width=".1248" fill="#fff"/>
			<path stroke-linejoin="round" d="m73.298 25.365c0.213 0 0.213-0.081 0.059-0.275-0.156-0.193-0.148-0.232-0.426-0.232h-1.859c-0.277 0-0.271 0.039-0.426 0.232-0.156 0.194-0.156 0.275 0.057 0.275h2.595v0z" stroke="#EC1C24" stroke-linecap="round" stroke-width=".1248" fill="#fff"/>
			<path stroke-linejoin="round" d="m72.931 24.857c0.213 0 0.213-0.085 0.057-0.277-0.154-0.194-0.146-0.232-0.426-0.232h-1.122c-0.279 0-0.271 0.038-0.426 0.232-0.156 0.192-0.156 0.277 0.057 0.277h1.86v0z" stroke="#EC1C24" stroke-linecap="round" stroke-width=".1248" fill="#fff"/>
			<path stroke-linejoin="round" d="m72.409 24.348c0-0.273 0.066-0.952-0.408-0.952-0.477 0-0.408 0.68-0.408 0.952h0.816v0z" stroke="#EC1C24" stroke-linecap="round" stroke-width=".1248" fill="#fff"/>
			<path stroke-linejoin="round" d="m56.669 32.49c0.096-0.16 0.277-0.3 0.453-0.341v-0.52c-0.137 0.011-0.244 0.091-0.283 0.158h-0.057c-0.041-0.112-0.232-0.379-0.375-0.464-0.141 0.085-0.334 0.352-0.373 0.464h-0.057c-0.039-0.067-0.146-0.147-0.283-0.158v0.52c0.176 0.041 0.355 0.181 0.453 0.341h0.522v0z" stroke="#EC1C24" stroke-linecap="round" stroke-width=".1248" fill="#fff"/>
			<path stroke-linejoin="round" d="m56.839 33.623c0.078-0.237 0.244-0.385 0.424-0.499v-0.646c-0.17 0.012-0.291 0.156-0.328 0.261h-0.062c-0.039-0.356-0.322-0.571-0.465-0.68-0.141 0.108-0.426 0.323-0.465 0.68h-0.063c-0.037-0.104-0.158-0.249-0.328-0.261v0.646c0.182 0.114 0.346 0.262 0.426 0.499h0.861v0z" stroke="#EC1C24" stroke-linecap="round" stroke-width=".1248" fill="#fff"/>
			<path stroke-linejoin="round" d="m57.009 34.722c0.09-0.254 0.361-0.516 0.623-0.644v-0.59c-0.158 0.012-0.369 0.198-0.447 0.306h-0.057c-0.068-0.221-0.408-0.788-0.721-0.929-0.311 0.141-0.65 0.708-0.719 0.929h-0.057c-0.08-0.107-0.289-0.294-0.447-0.306v0.59c0.26 0.129 0.531 0.391 0.623 0.644h1.202v0z" stroke="#EC1C24" stroke-linecap="round" stroke-width=".1248" fill="#fff"/>
			<path stroke-linejoin="round" d="m57.269 36.219c0.051-0.294 0.301-0.737 0.59-0.975v-0.681c-0.191 0.012-0.488 0.153-0.566 0.34h-0.068c-0.045-0.611-0.518-1.056-0.816-1.303-0.297 0.247-0.77 0.691-0.814 1.303h-0.068c-0.08-0.187-0.375-0.328-0.568-0.34v0.681c0.289 0.237 0.539 0.681 0.59 0.975h1.72v0z" stroke="#EC1C24" stroke-linecap="round" stroke-width=".1248" fill="#fff"/>
			<path stroke-linejoin="round" d="m57.688 38.802c0-0.923 0.26-1.37 0.6-1.438v-1.158c-0.283 0.035-0.566 0.307-0.656 0.557h-0.08c-0.045-0.896-0.658-1.733-1.145-2.152-0.486 0.419-1.1 1.256-1.145 2.152h-0.078c-0.092-0.25-0.375-0.521-0.658-0.557v1.158c0.34 0.067 0.6 0.515 0.6 1.438h2.562v0z" stroke="#EC1C24" stroke-linecap="round" stroke-width=".1248" fill="#fff"/>
			<path stroke-linejoin="round" d="m57.608 40.287c0.012-0.466 0.205-1.135 0.783-1.247v-1.144c-0.375 0.021-0.76 0.271-0.793 0.826h-0.104c-0.002-0.826-0.475-1.835-1.088-2.3-0.611 0.465-1.084 1.474-1.088 2.3h-0.102c-0.033-0.556-0.42-0.805-0.793-0.826v1.144c0.578 0.112 0.771 0.781 0.781 1.247h2.404v0z" stroke="#EC1C24" stroke-linecap="round" stroke-width=".1248" fill="#fff"/>
			<path stroke-linejoin="round" d="m57.948 41.079c-0.09-1.439-0.939-2.379-1.541-2.821-0.6 0.442-1.451 1.383-1.541 2.821h3.082v0z" stroke="#EC1C24" stroke-linecap="round" stroke-width=".1248" fill="#fff"/>
			<path stroke-linejoin="round" d="m58.38 41.557v-1.35c-0.613 0.091-0.852 0.487-0.963 0.793h-0.125c-0.068-0.588-0.521-1.54-0.885-1.892-0.361 0.352-0.814 1.304-0.883 1.892h-0.125c-0.113-0.306-0.352-0.702-0.963-0.793v1.35h3.944v0z" stroke="#EC1C24" stroke-linecap="round" stroke-width=".1248" fill="#fff"/>
			<path stroke-linejoin="round" d="m87.854 32.49c0.096-0.16 0.277-0.3 0.453-0.341v-0.52c-0.137 0.011-0.244 0.091-0.283 0.158h-0.059c-0.039-0.112-0.23-0.379-0.373-0.464-0.141 0.085-0.334 0.352-0.373 0.464h-0.059c-0.039-0.067-0.146-0.147-0.281-0.158v0.52c0.176 0.041 0.357 0.181 0.453 0.341h0.522v0z" stroke="#EC1C24" stroke-linecap="round" stroke-width=".1248" fill="#fff"/>
			<path stroke-linejoin="round" d="m88.024 33.623c0.078-0.237 0.242-0.385 0.426-0.499v-0.646c-0.172 0.012-0.293 0.156-0.33 0.261h-0.062c-0.039-0.356-0.322-0.571-0.465-0.68-0.141 0.108-0.424 0.323-0.465 0.68h-0.061c-0.037-0.104-0.16-0.249-0.33-0.261v0.646c0.182 0.114 0.346 0.262 0.424 0.499h0.863v0z" stroke="#EC1C24" stroke-linecap="round" stroke-width=".1248" fill="#fff"/>
			<path stroke-linejoin="round" d="m88.192 34.722c0.092-0.254 0.363-0.516 0.625-0.644v-0.59c-0.158 0.012-0.367 0.198-0.447 0.306h-0.059c-0.066-0.221-0.406-0.788-0.719-0.929-0.311 0.141-0.65 0.708-0.719 0.929h-0.057c-0.08-0.107-0.289-0.294-0.447-0.306v0.59c0.26 0.129 0.531 0.391 0.623 0.644h1.2v0z" stroke="#EC1C24" stroke-linecap="round" stroke-width=".1248" fill="#fff"/>
			<path stroke-linejoin="round" d="m88.454 36.219c0.051-0.294 0.301-0.737 0.59-0.975v-0.681c-0.193 0.012-0.488 0.153-0.566 0.34h-0.068c-0.045-0.611-0.518-1.056-0.816-1.303-0.297 0.247-0.77 0.691-0.814 1.303h-0.07c-0.08-0.187-0.375-0.328-0.566-0.34v0.681c0.289 0.237 0.537 0.681 0.59 0.975h1.72v0z" stroke="#EC1C24" stroke-linecap="round" stroke-width=".1248" fill="#fff"/>
			<path stroke-linejoin="round" d="m88.874 38.802c0-0.923 0.262-1.37 0.6-1.438v-1.158c-0.283 0.035-0.566 0.307-0.656 0.557h-0.08c-0.045-0.896-0.656-1.733-1.145-2.152-0.486 0.419-1.098 1.256-1.145 2.152h-0.078c-0.092-0.25-0.375-0.521-0.658-0.557v1.158c0.34 0.067 0.602 0.515 0.602 1.438h2.56v0z" stroke="#EC1C24" stroke-linecap="round" stroke-width=".1248" fill="#fff"/>
			<path stroke-linejoin="round" d="m88.794 40.287c0.012-0.466 0.205-1.135 0.783-1.247v-1.144c-0.375 0.021-0.76 0.271-0.793 0.826h-0.104c-0.002-0.826-0.477-1.835-1.088-2.3-0.611 0.465-1.084 1.474-1.088 2.3h-0.102c-0.033-0.556-0.418-0.805-0.793-0.826v1.144c0.578 0.112 0.77 0.781 0.783 1.247h2.402v0z" stroke="#EC1C24" stroke-linecap="round" stroke-width=".1248" fill="#fff"/>
			<path stroke-linejoin="round" d="m89.136 41.079c-0.092-1.439-0.943-2.379-1.543-2.821-0.6 0.442-1.449 1.383-1.541 2.821h3.084v0z" stroke="#EC1C24" stroke-linecap="round" stroke-width=".1248" fill="#fff"/>
			<path stroke-linejoin="round" d="m89.565 41.557v-1.35c-0.613 0.091-0.85 0.487-0.965 0.793h-0.123c-0.068-0.588-0.521-1.54-0.885-1.892-0.361 0.352-0.814 1.304-0.882 1.892h-0.125c-0.113-0.306-0.352-0.702-0.963-0.793v1.35h3.943v0z" stroke="#EC1C24" stroke-linecap="round" stroke-width=".1248" fill="#fff"/>
			<path stroke-linejoin="round" d="m72.442 27.945c0.057-0.204 0.232-0.367 0.391-0.452v-0.691c-0.152 0-0.299 0.13-0.391 0.237h-0.057c-0.029-0.187-0.111-0.589-0.385-0.691-0.273 0.102-0.357 0.504-0.387 0.691h-0.053c-0.092-0.107-0.238-0.237-0.393-0.237v0.691c0.16 0.085 0.334 0.248 0.393 0.452h0.882v0z" stroke="#EC1C24" stroke-linecap="round" stroke-width=".1248" fill="#fff"/>
			<path stroke-linejoin="round" d="m72.476 29.181c0.115-0.362 0.352-0.577 0.676-0.634v-0.743c-0.215 0.012-0.471 0.171-0.584 0.38h-0.051c0.021-0.419-0.271-0.839-0.516-0.974-0.244 0.135-0.539 0.555-0.516 0.974h-0.051c-0.113-0.209-0.369-0.368-0.584-0.38v0.743c0.322 0.057 0.561 0.271 0.674 0.634h0.952v0z" stroke="#EC1C24" stroke-linecap="round" stroke-width=".1248" fill="#fff"/>
			<path stroke-linejoin="round" d="m72.612 30.893c0.113-0.374 0.477-0.726 0.736-0.873v-1.077c-0.43 0.035-0.623 0.363-0.646 0.669h-0.066c0-0.464-0.148-1.087-0.635-1.371-0.488 0.284-0.635 0.907-0.635 1.371h-0.068c-0.023-0.306-0.215-0.634-0.646-0.669v1.077c0.262 0.147 0.623 0.499 0.738 0.873h1.222v0z" stroke="#EC1C24" stroke-linecap="round" stroke-width=".1248" fill="#fff"/>
			<path stroke-linejoin="round" d="m73.78 31.958v-1.146c-0.227 0.024-0.732 0.329-0.766 0.703h-0.068c-0.021-0.589-0.424-1.439-0.945-1.847-0.521 0.407-0.924 1.258-0.947 1.847h-0.066c-0.035-0.374-0.539-0.68-0.766-0.703v1.146h3.558v0z" stroke="#EC1C24" stroke-linecap="round" stroke-width=".1248" fill="#fff"/>
			<path stroke-linejoin="round" d="m73.78 31.958c-0.193 0-0.93 0.113-0.988 1.02h-1.584c-0.057-0.906-0.793-1.02-0.986-1.02h3.558v0z" stroke="#EC1C24" stroke-linecap="round" stroke-width=".1248" fill="#fff"/>
			<path stroke-linejoin="round" d="m73.962 33.975v-1.213c-0.262 0.022-0.619 0.397-0.697 0.771h-0.068c-0.045-0.69-0.777-1.609-1.195-1.892-0.42 0.283-1.15 1.202-1.195 1.892h-0.07c-0.078-0.373-0.436-0.748-0.695-0.771v1.213h3.92v0z" stroke="#EC1C24" stroke-linecap="round" stroke-width=".1248" fill="#fff"/>
			<path stroke-linejoin="round" d="m73.962 33.975c-0.342 0-0.67 0.453-0.727 1.155h-2.469c-0.059-0.702-0.387-1.155-0.727-1.155h3.923v0z" stroke="#EC1C24" stroke-linecap="round" stroke-width=".1248" fill="#fff"/>
			<path stroke-linejoin="round" d="m74.517 36.366v-1.36c-0.273 0.091-0.766 0.476-0.855 0.929h-0.062c-0.092-0.815-0.963-2.04-1.598-2.447-0.635 0.407-1.508 1.633-1.6 2.447h-0.061c-0.092-0.453-0.584-0.838-0.855-0.929v1.36h5.031v0z" stroke="#EC1C24" stroke-linecap="round" stroke-width=".1248" fill="#fff"/>
			<path stroke-linejoin="round" d="m74.517 36.366c-0.727 0.249-0.781 1.336-0.852 2.73h-3.33c-0.068-1.394-0.125-2.481-0.85-2.73h5.032v0z" stroke="#EC1C24" stroke-linecap="round" stroke-width=".1248" fill="#fff"/>
			<path stroke-linejoin="round" d="m74.21 39.391v-1.483c-0.486 0.067-0.76 0.748-0.805 1.189h-0.102c0-0.748-0.205-2.674-1.303-3.389-1.1 0.715-1.305 2.641-1.305 3.389h-0.1c-0.047-0.441-0.318-1.122-0.805-1.189v1.483h4.42v0z" stroke="#EC1C24" stroke-linecap="round" stroke-width=".1248" fill="#fff"/>
			<path stroke-linejoin="round" d="m73.86 41.487v-1.394c-0.33 0.022-0.602 0.465-0.762 0.771h-0.1c0.066-0.487-0.059-1.756-0.998-2.244-0.941 0.488-1.066 1.757-0.998 2.244h-0.102c-0.158-0.306-0.432-0.748-0.76-0.771v1.394h3.72v0z" stroke="#EC1C24" stroke-linecap="round" stroke-width=".1248" fill="#fff"/>
</g>
</svg>
