<?xml version="1.0" encoding="UTF-8" standalone="no"?>
<!-- Generator: Adobe Illustrator 18.0.0, SVG Export Plug-In . SVG Version: 6.00 Build 0)  -->
<!DOCTYPE svg  PUBLIC '-//W3C//DTD SVG 1.1//EN'  'http://www.w3.org/Graphics/SVG/1.1/DTD/svg11.dtd'>
<svg style="enable-background:new 0 0 144 80" xmlns="http://www.w3.org/2000/svg" xml:space="preserve" version="1.1" y="0px" x="0px" xmlns:xlink="http://www.w3.org/1999/xlink" viewBox="0 0 144 80">
<g id="TGA">
		<polygon points="144 80 144 0 0 0 0 80" fill="#C02026"/>
		<polygon points="144 80 144 0 0 0 0 80" fill="#C02026"/>
		<polygon points="59.88 39.599 59.88 0 0 0 0 39.599" fill="#C02026"/>
		<polygon points="59.88 39.599 59.88 0 0 0 0 39.599" fill="#fff"/>
		<polygon points="24.94 3.124 24.94 14.245 14.934 14.245 14.934 25.357 24.94 25.357 24.94 36.468 34.938 36.468 34.938 25.357 44.944 25.357 44.944 14.245 34.938 14.245 34.938 3.124" fill="#C02026"/>
		<polygon points="24.94 3.124 24.94 14.245 14.934 14.245 14.934 25.357 24.94 25.357 24.94 36.468 34.938 36.468 34.938 25.357 44.944 25.357 44.944 14.245 34.938 14.245 34.938 3.124" fill="#C02026"/>
</g>
</svg>
