<?xml version="1.0" encoding="UTF-8" standalone="no"?>
<!-- Generator: Adobe Illustrator 18.0.0, SVG Export Plug-In . SVG Version: 6.00 Build 0)  -->
<!DOCTYPE svg  PUBLIC '-//W3C//DTD SVG 1.1//EN'  'http://www.w3.org/Graphics/SVG/1.1/DTD/svg11.dtd'>
<svg style="enable-background:new 0 0 144 80" xmlns="http://www.w3.org/2000/svg" xml:space="preserve" version="1.1" y="0px" x="0px" xmlns:xlink="http://www.w3.org/1999/xlink" viewBox="0 0 144 80">
<g id="ARU">
		<polygon points="144.16 80 144.16 0 0.243 0 0.243 80" fill="#009BDB"/>
		<path d="m75.184 41.174" fill="#009BDB"/>
		<path stroke-width=".179" d="m75.184 41.174" stroke="#000" fill="none"/>
			<polygon points="25.396 17.019 38.419 21.088 25.396 25.149 21.331 38.176 17.266 25.149 4.243 21.088 17.266 17.019 21.331 4" fill="#fff"/>
			<polygon points="24.684 17.732 35.426 21.091 24.684 24.438 21.33 35.186 17.979 24.438 7.236 21.091 17.979 17.732 21.33 6.997" fill="#EC1C2E"/>
		<polygon points="144.4 71.685 144.4 66.322 0 66.322 0 71.685" fill="#FFF100"/>
		<polygon points="144.4 60.959 144.4 55.597 0 55.597 0 60.959" fill="#FFF100"/>
</g>
</svg>
