<?xml version="1.0" encoding="UTF-8" standalone="no"?>
<!-- Generator: Adobe Illustrator 18.0.0, SVG Export Plug-In . SVG Version: 6.00 Build 0)  -->
<!DOCTYPE svg  PUBLIC '-//W3C//DTD SVG 1.1//EN'  'http://www.w3.org/Graphics/SVG/1.1/DTD/svg11.dtd'>
<svg style="enable-background:new 0 0 144 80" xmlns="http://www.w3.org/2000/svg" xml:space="preserve" version="1.1" y="0px" x="0px" xmlns:xlink="http://www.w3.org/1999/xlink" viewBox="0 0 144 80">
<g id="MLT">
			<polygon points="72 0 72 80 0 80 0 0" fill="#fff"/>
			<polygon points="72 80 72 0 144 0 144 80" fill="#EC1C2E"/>
			<path d="m24.699 5.009v7.319c0.388 0.108 0.83 0.375 1.218 0.762 0.388 0.388 0.654 0.83 0.763 1.219h7.319v9.889h-7.319c-0.108 0.388-0.374 0.83-0.763 1.218-0.388 0.389-0.83 0.655-1.218 0.763v7.319h-9.889v-7.319c-0.39-0.107-0.831-0.374-1.219-0.763-0.389-0.388-0.655-0.83-0.762-1.218h-7.319v-9.889h7.32c0.106-0.389 0.373-0.831 0.762-1.219 0.388-0.387 0.829-0.654 1.219-0.762v-7.319h9.888z" fill="#EC1C2E"/>
			<polygon stroke-width=".1738" points="24.056 13.096 24.056 5.776 23.934 5.776 23.934 13.096" stroke="#A6B0B6" fill="#A6B0B6"/>
			<polygon stroke-width=".1738" points="24.056 25.588 24.056 32.729 23.934 32.729 23.934 25.588" stroke="#A6B0B6" fill="#A6B0B6"/>
			<polygon stroke-width=".1738" points="26.031 23.555 33.351 23.555 33.351 23.435 26.031 23.435" stroke="#A6B0B6" fill="#A6B0B6"/>
			<polygon stroke-width=".1738" points="13.5 23.555 6.277 23.555 6.277 23.435 13.5 23.435" stroke="#A6B0B6" fill="#A6B0B6"/>
			<polygon stroke-width=".1738" points="33.351 23.435 33.351 15.07 33.23 15.07 33.23 23.435" stroke="#A6B0B6" fill="#A6B0B6"/>
			<polygon stroke-width=".1738" points="15.573 32.848 24.056 32.848 24.056 32.729 15.573 32.729" stroke="#A6B0B6" fill="#A6B0B6"/>
			<path stroke-width=".1738" d="m33.23 15.07h-7.139c0.026-0.412-0.171-1.037-0.648-1.516-0.476-0.475-1.097-0.67-1.51-0.648v-7.13h-8.361v7.139c-0.413-0.026-1.033 0.176-1.512 0.655-0.474 0.474-0.676 1.088-0.653 1.5h-7.13v8.364h7.14c-0.026 0.412 0.176 1.033 0.653 1.511 0.475 0.476 1.09 0.678 1.503 0.654v7.13h8.361v-7.14c0.415 0.026 1.041-0.17 1.518-0.648 0.474-0.475 0.672-1.095 0.648-1.507h7.13v-8.364z" stroke="#A6B0B6" fill="#E2E3E4"/>
			<path d="m14.745 14.243"/>
			<path stroke-linejoin="bevel" d="m14.763 13.245c0.104 0.354 0.856 0.97 1.057 1.026-0.061 0.188-0.235 0.395-0.366 0.528-0.038-0.449-0.729-1.107-1.121-1.251 0.117 0.139 0.673 1.172 0.844 1.481-0.297-0.113-1.149-0.413-1.397-0.49-0.009-0.185 0.022-0.289 0.058-0.418 0.107 0.173 0.444 0.297 0.726 0.387-0.041-0.202-0.358-0.725-0.593-0.712 0.113-0.214 0.461-0.525 0.792-0.551z" stroke="#A6B0B6" stroke-width=".1738" fill="#E2E3E4"/>
			<path stroke-width=".1738" d="m15.208 13.261c-0.255-0.073-0.7-0.047-1.097 0.349-0.332 0.333-0.476 1.092-0.149 1.419 0.325 0.324 1.085 0.183 1.418-0.15 0.313-0.313 0.737-0.909 0.391-1.256-0.069-0.07-0.169-0.1-0.284-0.078l0.445-0.442c0.464 0.464 0.066 1.249-0.506 1.821-0.412 0.411-1.184 0.72-1.837 0.509-0.479-0.395 0.065-1.457 0.477-1.867 0.32-0.322 0.856-0.649 1.508-0.649v0.05l-0.366 0.294z" stroke="#A6B0B6" fill="#E2E3E4"/>
			<path d="m14.065 13.564c0.32-0.322 0.856-0.649 1.508-0.649v0.05l-0.365 0.296c-0.255-0.073-0.7-0.047-1.097 0.349l-0.046-0.046z" fill="#A6B0B6"/>
			<path d="m14.75 24.268"/>
			<path stroke-linejoin="bevel" d="m13.753 24.249c0.354-0.104 0.969-0.856 1.025-1.056 0.188 0.062 0.396 0.233 0.529 0.364-0.45 0.04-1.108 0.73-1.252 1.122 0.14-0.118 1.173-0.674 1.483-0.845-0.114 0.299-0.413 1.15-0.492 1.399-0.184 0.006-0.288-0.025-0.415-0.062 0.17-0.105 0.295-0.441 0.386-0.723-0.203 0.04-0.726 0.357-0.715 0.591-0.213-0.11-0.523-0.458-0.549-0.79z" stroke="#A6B0B6" stroke-width=".1738" fill="#E2E3E4"/>
			<path stroke-width=".1738" d="m13.768 23.803c-0.072 0.256-0.047 0.7 0.35 1.098 0.333 0.334 1.092 0.477 1.418 0.15 0.324-0.326 0.183-1.086-0.15-1.419-0.313-0.313-0.909-0.738-1.256-0.392-0.07 0.07-0.1 0.171-0.077 0.285l-0.443-0.444c0.463-0.464 1.249-0.066 1.821 0.506 0.411 0.411 0.721 1.184 0.509 1.835-0.394 0.481-1.457-0.064-1.867-0.477-0.321-0.319-0.648-0.853-0.648-1.507h0.05l0.293 0.365z" stroke="#A6B0B6" fill="#E2E3E4"/>
			<path d="m14.071 24.945c-0.321-0.319-0.648-0.853-0.648-1.507h0.05l0.295 0.364c-0.072 0.256-0.047 0.7 0.35 1.098l-0.047 0.045z" fill="#A6B0B6"/>
			<path d="m24.774 24.262"/>
			<path stroke-linejoin="bevel" d="m24.756 25.259c-0.104-0.354-0.855-0.969-1.056-1.026 0.062-0.187 0.234-0.394 0.364-0.528 0.038 0.451 0.731 1.108 1.122 1.252-0.117-0.14-0.674-1.172-0.844-1.483 0.298 0.114 1.149 0.414 1.397 0.491 0.008 0.185-0.023 0.29-0.06 0.417-0.106-0.172-0.441-0.296-0.723-0.386 0.04 0.203 0.357 0.725 0.592 0.712-0.114 0.216-0.461 0.526-0.792 0.551z" stroke="#A6B0B6" stroke-width=".1738" fill="#E2E3E4"/>
			<path stroke-width=".1738" d="m24.31 25.244c0.256 0.073 0.701 0.047 1.098-0.349 0.332-0.334 0.476-1.093 0.149-1.418-0.325-0.325-1.085-0.184-1.42 0.149-0.312 0.312-0.737 0.91-0.391 1.256 0.071 0.07 0.171 0.1 0.285 0.077l-0.444 0.443c-0.464-0.464-0.066-1.248 0.506-1.821 0.411-0.412 1.184-0.72 1.835-0.509 0.481 0.395-0.064 1.457-0.476 1.867-0.32 0.321-0.854 0.649-1.507 0.649v-0.051l0.365-0.293z" stroke="#A6B0B6" fill="#E2E3E4"/>
			<path d="m25.453 24.94c-0.32 0.321-0.854 0.649-1.507 0.649v-0.051l0.364-0.295c0.256 0.073 0.701 0.047 1.098-0.349l0.045 0.046z" fill="#A6B0B6"/>
			<path d="m24.77 14.238"/>
			<path stroke-linejoin="bevel" d="m25.767 14.257c-0.354 0.104-0.97 0.856-1.026 1.056-0.187-0.061-0.395-0.235-0.529-0.366 0.451-0.039 1.108-0.729 1.252-1.121-0.14 0.117-1.172 0.673-1.482 0.844 0.114-0.298 0.413-1.148 0.491-1.398 0.183-0.008 0.288 0.024 0.417 0.061-0.172 0.104-0.296 0.442-0.387 0.723 0.203-0.039 0.725-0.357 0.712-0.592 0.216 0.112 0.525 0.46 0.552 0.793z" stroke="#A6B0B6" stroke-width=".1738" fill="#E2E3E4"/>
			<path stroke-width=".1738" d="m25.752 14.701c0.072-0.255 0.047-0.7-0.35-1.096-0.334-0.334-1.092-0.478-1.418-0.151-0.325 0.326-0.185 1.086 0.149 1.419 0.313 0.312 0.91 0.737 1.257 0.392 0.07-0.071 0.1-0.172 0.077-0.287l0.443 0.445c-0.464 0.464-1.249 0.066-1.823-0.506-0.409-0.412-0.719-1.184-0.508-1.835 0.395-0.481 1.457 0.066 1.867 0.476 0.321 0.32 0.649 0.854 0.649 1.507h-0.051l-0.292-0.364z" stroke="#A6B0B6" fill="#E2E3E4"/>
			<path d="m25.447 13.559c0.321 0.32 0.649 0.854 0.649 1.507h-0.051l-0.294-0.364c0.072-0.255 0.047-0.7-0.35-1.096l0.046-0.047z" fill="#A6B0B6"/>
			<polygon stroke-width=".1738" points="23.498 15.629 23.498 6.335 23.379 6.335 23.379 15.629" stroke="#A6B0B6" fill="#A6B0B6"/>
			<polygon stroke-width=".1738" points="16.131 22.996 6.836 22.996 6.836 22.878 16.131 22.878" stroke="#A6B0B6" fill="#A6B0B6"/>
			<polygon stroke-width=".1738" points="32.793 22.878 32.793 15.629 32.674 15.629 32.674 22.878" stroke="#A6B0B6" fill="#A6B0B6"/>
			<polygon stroke-width=".1738" points="23.498 22.878 23.498 32.172 23.379 32.172 23.379 22.878" stroke="#A6B0B6" fill="#A6B0B6"/>
			<polygon stroke-width=".1738" points="23.498 22.996 32.793 22.996 32.793 22.878 23.498 22.878" stroke="#A6B0B6" fill="#A6B0B6"/>
			<polygon stroke-width=".1738" points="16.131 32.291 23.498 32.291 23.498 32.172 16.131 32.172" stroke="#A6B0B6" fill="#A6B0B6"/>
			<polygon stroke-width=".1738" points="16.131 22.878 6.836 22.878 6.836 15.629 16.131 15.629 16.131 6.335 23.379 6.335 23.379 15.629 32.674 15.629 32.674 22.878 23.379 22.878 23.379 32.172 16.131 32.172" stroke="#A6B0B6" fill="#E2E3E4"/>
			<path stroke-width=".1738" d="m19.83 25.463c3.388 0 6.135-2.746 6.135-6.135 0-3.387-2.747-6.133-6.135-6.133-3.387 0-6.135 2.746-6.135 6.133 0 3.389 2.748 6.135 6.135 6.135z" stroke="#A6B0B6" fill="#A6B0B6"/>
			<path stroke-width=".1738" d="m19.83 19.328" stroke="#A6B0B6" fill="#A6B0B6"/>
			<path stroke-width=".1738" d="m19.753 25.387c3.39 0 6.136-2.746 6.136-6.134 0-3.389-2.746-6.134-6.136-6.134-3.386 0-6.132 2.745-6.132 6.134 0 3.388 2.746 6.134 6.132 6.134z" stroke="#A6B0B6" fill="#E2E3E4"/>
			<path stroke-width=".1738" d="m19.753 19.253" stroke="#A6B0B6" fill="#E2E3E4"/>
			<path stroke-width=".1738" d="m19.753 23.528c2.363 0 4.276-1.915 4.276-4.275 0-2.361-1.913-4.275-4.276-4.275-2.358 0-4.273 1.914-4.273 4.275-0.001 2.36 1.915 4.275 4.273 4.275z" stroke="#A6B0B6" fill="#E2E3E4"/>
			<path stroke-width=".1738" d="m19.753 19.253" stroke="#A6B0B6" fill="#E2E3E4"/>
			<path d="m16.216 22.117l-0.035 0.019c-0.059-0.07-0.134-0.148-0.233-0.091l-0.84 0.491c-0.1 0.057-0.068 0.162-0.036 0.247l-0.033 0.021-0.607-1.039 0.365-0.213 0.027 0.047c-0.227 0.132-0.198 0.377-0.133 0.489 0.033 0.057 0.07 0.121 0.099 0.167 0.023 0.04 0.052 0.052 0.149-0.006 0.074-0.042 0.387-0.226 0.387-0.226-0.04-0.068-0.12-0.261-0.415-0.149l-0.019-0.035 0.577-0.338 0.025 0.043c-0.283 0.198-0.147 0.377-0.107 0.444l0.394-0.229c0.1-0.058 0.08-0.147 0.054-0.219l0.035-0.021 0.346 0.598z" fill="#A6B0B6"/>
			<path d="m15.302 20.097c-0.036-0.222-0.339-0.299-0.685-0.239-0.349 0.06-0.607 0.232-0.569 0.455s0.339 0.3 0.688 0.239c0.347-0.061 0.606-0.233 0.566-0.455l0.046-0.008c0.073 0.432-0.186 0.726-0.557 0.791-0.371 0.063-0.714-0.13-0.788-0.561-0.073-0.432 0.184-0.726 0.557-0.789 0.371-0.063 0.714 0.126 0.788 0.559l-0.046 0.008z" fill="#A6B0B6"/>
			<path d="m14.638 18.475c0.057-0.33-0.057-0.408-0.234-0.443-0.176-0.036-0.304 0.047-0.329 0.186-0.014 0.086 0 0.144 0.058 0.156l0.505 0.101 0.049 0.011 0.442 0.088c0.113 0.022 0.156-0.054 0.185-0.126l0.038 0.008-0.13 0.647-0.038-0.008c0.003-0.092-0.008-0.171-0.119-0.191l-0.955-0.193c-0.111-0.022-0.159 0.076-0.189 0.161l-0.04-0.009 0.132-0.656c0.062-0.316 0.213-0.545 0.463-0.495 0.18 0.036 0.257 0.183 0.265 0.377l0.677-0.28c0.018-0.01 0.031-0.032 0.039-0.062l0.038 0.008-0.077 0.383-0.719 0.297c-0.006 0.03-0.011 0.053-0.011 0.053l-0.05-0.013z" fill="#A6B0B6"/>
			<path d="m16.445 16.256c-0.281 0.307-0.67 0.37-1.001 0.067-0.318-0.292-0.275-0.694-0.031-0.96 0.11-0.12 0.214-0.168 0.298-0.208 0.082-0.04 0.07-0.1 0.052-0.15l0.037-0.041 0.325 0.299-0.037 0.04c-0.303-0.126-0.511-0.027-0.633 0.106-0.07 0.078-0.195 0.297 0.214 0.67 0.408 0.374 0.61 0.261 0.727 0.135 0.059-0.065 0.112-0.171 0.045-0.232-0.068-0.062-0.165-0.15-0.191-0.174-0.08-0.074-0.148-0.035-0.217 0.017l-0.028-0.026 0.434-0.473 0.028 0.024c-0.046 0.073-0.082 0.15-0.001 0.223 0.086 0.079 0.25 0.229 0.25 0.229-0.031 0.141-0.17 0.344-0.271 0.454z" fill="#A6B0B6"/>
			<path d="m17.43 14.874l0.208-0.101c-0.381-0.331-0.395-0.346-0.395-0.346s0.014 0.184 0.035 0.523l0.152-0.076 0.033 0.078-0.18 0.089c0.004 0.058 0.008 0.121 0.011 0.187 0.01 0.169 0.098 0.138 0.211 0.109l0.017 0.036-0.367 0.179-0.018-0.035c0.055-0.036 0.08-0.128 0.08-0.219-0.076-1.245-0.076-1.259-0.076-1.259l0.064-0.031s0.045 0.037 0.941 0.819c0.064 0.058 0.105 0.119 0.239 0.077l0.018 0.035-0.608 0.298-0.016-0.035c0.114-0.077 0.185-0.132 0.091-0.228-0.061-0.052-0.114-0.1-0.163-0.142l-0.244 0.119-0.033-0.077z" fill="#A6B0B6"/>
			<path d="m19.221 13.439l0.005 0.039c-0.089 0.022-0.172 0.058-0.16 0.172l0.095 0.947c0.012 0.111 0.066 0.143 0.129 0.136 0.054-0.005 0.108-0.012 0.174-0.017 0.152-0.017 0.344-0.149 0.383-0.426l0.058-0.006-0.035 0.459-1.182 0.121-0.003-0.04c0.087-0.022 0.188-0.059 0.178-0.173l-0.098-0.971c-0.012-0.113-0.1-0.133-0.188-0.137l-0.005-0.039 0.649-0.065z" fill="#A6B0B6"/>
			<path d="m21.185 13.58l-0.01 0.039c-0.091-0.009-0.182-0.002-0.209 0.109l-0.22 0.926c-0.026 0.108 0.016 0.155 0.077 0.169 0.052 0.013 0.104 0.025 0.169 0.041 0.149 0.036 0.374-0.025 0.502-0.275l0.056 0.014-0.185 0.423-1.153-0.274 0.009-0.039c0.089 0.007 0.198 0.005 0.226-0.106l0.227-0.948c0.025-0.11-0.052-0.157-0.134-0.191l0.009-0.037 0.636 0.149z" fill="#A6B0B6"/>
			<path d="m22.44 15.049l0.171 0.114c0.096-0.495 0.101-0.517 0.101-0.517s-0.151 0.105-0.434 0.294l0.162 0.109-0.046 0.071-0.193-0.13c-0.048 0.032-0.101 0.068-0.156 0.103-0.142 0.094-0.071 0.154 0.011 0.237l-0.021 0.033-0.341-0.229 0.022-0.032c0.059 0.029 0.151 0.004 0.229-0.041 1.04-0.688 1.052-0.696 1.052-0.696l0.06 0.04s-0.01 0.058-0.238 1.226c-0.017 0.085-0.05 0.152 0.053 0.245l-0.021 0.033-0.562-0.377 0.021-0.032c0.126 0.061 0.208 0.096 0.243-0.035 0.017-0.077 0.029-0.149 0.041-0.211l-0.198-0.134 0.044-0.071z" fill="#A6B0B6"/>
			<path d="m24.151 15.398c0.011-0.032-0.01-0.049-0.021-0.066l0.033-0.024 0.253 0.356-0.285 1.084 0.543-0.389c0.093-0.066 0.068-0.147 0.027-0.228l0.033-0.024 0.225 0.315-0.032 0.024c-0.058-0.068-0.121-0.1-0.214-0.032l-0.949 0.68-0.042-0.058 0.358-1.363-0.724 0.519c-0.093 0.066-0.068 0.147-0.026 0.229l-0.032 0.023-0.236-0.331 0.032-0.022c0.062 0.064 0.131 0.113 0.225 0.048l0.788-0.565 0.044-0.176z" fill="#A6B0B6"/>
			<path d="m24.027 17.709l0.037-0.01c0.035 0.066 0.084 0.144 0.195 0.112l1.054-0.301-0.019-0.07c-0.042-0.138-0.206-0.274-0.397-0.22l-0.014-0.042 0.377-0.108 0.33 1.152-0.377 0.108-0.012-0.044c0.191-0.055 0.259-0.258 0.221-0.396l-0.021-0.068-1.054 0.3c-0.112 0.033-0.114 0.121-0.107 0.198l-0.037 0.012-0.176-0.623z" fill="#A6B0B6"/>
			<path d="m24.994 19.438c-0.014 0.337 0.107 0.399 0.289 0.411 0.18 0.014 0.296-0.085 0.302-0.226 0.004-0.088-0.017-0.144-0.076-0.148l-0.449-0.037-0.049-0.003-0.517-0.032c-0.114-0.008-0.146 0.075-0.167 0.149l-0.038-0.002 0.047-0.658 0.038 0.002c0.007 0.091 0.029 0.168 0.144 0.177l0.972 0.069c0.113 0.008 0.148-0.096 0.169-0.183l0.04 0.002-0.048 0.669c-0.023 0.321-0.143 0.567-0.398 0.55-0.182-0.013-0.277-0.148-0.31-0.34l-0.637 0.365c-0.018 0.01-0.027 0.032-0.031 0.063l-0.038-0.003 0.028-0.389 0.675-0.386c0.003-0.032 0.005-0.054 0.005-0.054l0.049 0.004z" fill="#A6B0B6"/>
			<path d="m23.98 21.425c-0.104-0.05-0.174 0.032-0.225 0.106l-0.036-0.017 0.309-0.646 0.036 0.017c-0.025 0.086-0.047 0.192 0.058 0.243 0.073 0.034 0.32 0.151 0.32 0.151s0.315-0.023 0.711-0.054c0.111-0.009 0.161-0.01 0.214-0.085l0.033 0.016-0.283 0.597-0.034-0.017c0.034-0.099 0.06-0.2-0.065-0.183-0.177 0.011-0.568 0.041-0.568 0.041l0.259 0.42c0.105 0.167 0.195 0.075 0.247-0.014l0.037 0.018-0.199 0.413-0.035-0.016c0.017-0.094 0-0.169-0.078-0.28l-0.327-0.534c-0.001 0.001-0.297-0.14-0.374-0.176z" fill="#A6B0B6"/>
			<path d="m19.312 15.425c0.122-0.155 0.325-0.082 0.39-0.139 0.066-0.057 0.245 0.04 0.318 0.187 0.13 0.017 0.293-0.016 0.342-0.064 0.049-0.049 0.166-0.083 0.277 0.064 0.194 0.261 0.646 0.332 0.92 0.53 0.325 0.235 0.658 0.594-0.293 0.895 0.35 0.35 0.537 0.733 0.586 0.944 0.448-0.381 0.643-0.464 0.862-0.293 0.22 0.172 0.57 0.383 0.766 0.433 0.195 0.048 0.423 0.244 0.407 0.463-0.018 0.22-0.138 0.367-0.317 0.358-0.18-0.009-0.195-0.09-0.252-0.252-0.059-0.163-0.278-0.193-0.489-0.31-0.311-0.171-0.302-0.136-0.521 0.024-0.106 0.079-0.199 0.099-0.209 0.204-0.007 0.106 0.062 0.074 0.254 0.057 0.191-0.016 0.32-0.024 0.525 0.262 0.203 0.284 0.381 0.618 0.61 0.708 0.228 0.089 0.252 0.138 0.155 0.343-0.099 0.202-0.164 0.282 0.031 0.39 0.179 0.098 0.188 0.203 0.081 0.366-0.105 0.162-0.406 0.537-0.57 0.692-0.023 0.236 0.147 0.195 0.034 0.309-0.115 0.114-0.197 0.383-0.726 0.366-0.529-0.016-0.815-0.057-1.181 0.058-0.365 0.114-1.059 0.019-1.473 0.26-0.253 0.148-0.284-0.202-0.277-0.283 0.018-0.188-0.098-0.268-0.261-0.163-0.162 0.105-0.202 0.064-0.309-0.01-0.105-0.072-0.342-0.081-0.456 0.018-0.113 0.098-0.263 0.289 0.024 0.398 0.814 0.309 1.669 0.594 2.198 0.781 0.157 0.057 0.121 0.324-0.212 0.203-0.773-0.277-1.303-0.471-1.728-0.614-0.18-0.062-0.3 0.272-0.829 0.199-0.284-0.038-0.309-0.195 0.024-0.179 0.335 0.016 0.578-0.098 0.276-0.208-0.425-0.154-0.78-0.28-1.302-0.476-0.138-0.052-0.078-0.294 0.171-0.204 0.225 0.081 0.405 0.169 0.584 0.218 0.156 0.043 0.182-0.03 0.165-0.137-0.016-0.105 0.139-0.35 0.448-0.406-0.09-0.146-0.276-0.342-0.392-0.375-0.114-0.032-0.195-0.131-0.105-0.414 0.098-0.31 0.179-0.505-0.082-0.537-0.26-0.034-0.553-0.147-0.634-0.497-0.366-0.293-0.521-0.343-0.587-0.236-0.064 0.105-0.021 0.131 0.082 0.212 0.187 0.146 0.211 0.441 0.098 1.123-0.017 0.098 0.016 0.123 0.097 0.211 0.082 0.09 0.087 0.452-0.146 0.651-0.173 0.148-0.18-0.072-0.155-0.153 0.024-0.082-0.007-0.155-0.106-0.212-0.098-0.058-0.131-0.099-0.073-0.261 0.057-0.163 0.098-0.253-0.016-0.318-0.115-0.064-0.335-0.203-0.271-0.447 0.066-0.244 0.05-0.447-0.17-0.635s-0.089-0.439 0.089-0.619c0.179-0.178 0.489-0.432 1.011 0.294 0.098-0.163 0.309-0.457 0.479-0.603v-0.123c-0.121-0.024-0.268-0.235-0.325-0.382s-0.261-0.13-0.473 0.073c-0.211 0.203-0.325 0.375-0.456 0.342-0.13-0.033-0.276-0.261-0.163-0.432-0.057-0.163-0.113-0.35 0.082-0.496-0.032-0.229-0.04-0.416 0.293-0.546-0.018-0.212 0.049-0.513 0.367-0.619-0.009-0.04-0.035-0.138-0.038-0.231 0.282-0.305 0.99-0.742 1.257-0.852 0.181-0.023 0.234 0.253 0.434 0.131 0.145-0.089 0.317-0.139 0.585-0.073 0.162 0.037 0.234 0.047 0.275 0.032z" fill="#A6B0B6"/>
			<path d="m16.992 17.622c0.023-0.069 0.041-0.187 0.097-0.252 0.059-0.064-0.039-0.131-0.243-0.009-0.203 0.122-0.465 0.236-0.603 0.311-0.138 0.073-0.194 0.268 0.066 0.138 0.261-0.13 0.439-0.212 0.521-0.253 0.082-0.04 0.057 0.033 0.05 0.065-0.01 0.032 0.096 0.05 0.112 0z" fill="#E2E3E4"/>
			<path d="m16.87 17.76c-0.117 0.101-0.276 0.107-0.456 0.229-0.179 0.121-0.245 0.179-0.227 0.293 0.016 0.114 0.065 0.155 0.179 0.017 0.114-0.14 0.375-0.351 0.505-0.399 0.13-0.049 0.105-0.228-0.001-0.14z" fill="#E2E3E4"/>
			<path d="m16.421 17.166c0.224-0.133 0.507-0.226 0.742-0.293 0.236-0.065 0.342 0.073 0.074 0.154-0.27 0.082-0.701 0.302-0.872 0.408s-0.203-0.114 0.056-0.269z" fill="#E2E3E4"/>
			<path d="m16.56 16.954c0.024-0.104 0.052-0.504 0.538-0.504 0.187 0 0.61-0.073 0.716-0.073s0.04 0.179-0.139 0.195c-0.178 0.018-0.951 0.293-1.115 0.382z" fill="#E2E3E4"/>
			<path d="m18.141 15.987c-0.074 0.056-0.139 0.161-0.148 0.218-0.284-0.049-0.35 0.082-0.496 0.082s-0.447-0.016-0.529 0.017c0.114-0.123 0.244-0.236 0.383-0.195 0.137 0.04 0.252 0.04 0.423-0.058 0.171-0.097 0.285-0.153 0.367-0.064z" fill="#E2E3E4"/>
			<path d="m17.187 15.938c0.318-0.244 0.562-0.293 0.831-0.195s0.546 0.106 0.651 0.048c0.107-0.057 0.212-0.048 0.261 0.025 0.049 0.072 0.139 0.113-0.113 0.09-0.253-0.024-0.578-0.024-0.717-0.09-0.139-0.065-0.302-0.009-0.383 0.066-0.081 0.072-0.366 0.121-0.53 0.056z" fill="#E2E3E4"/>
			<path d="m17.969 15.481c0.196 0.098 0.562 0.114 0.7 0.065 0.14-0.049 0.456-0.082 0.562 0.064l-0.097 0.099c-0.106-0.106-0.335-0.122-0.473-0.066-0.139 0.057-0.366 0.057-0.506-0.008-0.138-0.066-0.308-0.073-0.358-0.058 0.057-0.047 0.106-0.071 0.172-0.096z" fill="#E2E3E4"/>
			<path d="m16.691 19.063c-0.211-0.302-0.474-0.195-0.595-0.017-0.122 0.18 0.065 0.082 0.049 0.188s0.081 0.073 0.098 0.147c0.017 0.072 0.138 0.072 0.155-0.051 0.016-0.121 0.098-0.268 0.179-0.194s0.171 0.009 0.114-0.073z" fill="#E2E3E4"/>
			<path d="m16.324 19.527c0 0.082-0.016 0.139-0.089 0.123-0.073-0.018-0.122 0.048-0.017 0.146 0.106 0.098 0.05 0.163 0.017 0.244-0.033 0.082-0.093 0.285 0.065 0.391 0.099 0.066 0.163-0.04 0.219 0.041 0.059 0.082 0.132 0.008 0.132-0.187s-0.041-0.254-0.114-0.172c-0.073 0.08-0.162 0.08-0.187 0-0.025-0.082-0.065-0.211 0.105-0.188 0.171 0.025 0.236-0.017 0.139-0.154-0.244-0.341-0.27-0.326-0.27-0.244z" fill="#E2E3E4"/>
			<path d="m19.393 15.538c0.066 0.09 0.09 0.343 0.09 0.465 0 0.072 0.048 0.088 0.105 0.008 0.082-0.113 0.269-0.062 0.269-0.236 0-0.028-0.068-0.024-0.089 0.021s-0.11 0.012-0.126-0.072c-0.016-0.087-0.102-0.234-0.249-0.186z" fill="#E2E3E4"/>
			<path d="m21.062 15.998c-0.113-0.004-0.146 0.024-0.155 0.069-0.007 0.045-0.053 0.06-0.108 0.054-0.057-0.009-0.09 0.103 0.016 0.106 0.146 0.004-0.016 0.064 0.221 0.069 0.158 0.002 0.309-0.017 0.353-0.036 0.046-0.021 0.069-0.033-0.02-0.111-0.091-0.077-0.181-0.145-0.307-0.151z" fill="#E2E3E4"/>
			<path d="m20.15 15.726c-0.073 0.133-0.081 0.431-0.163 0.586-0.08 0.155-0.016 0.497-0.106 0.653-0.089 0.153-0.113 0.422 0.163 0.316 0.277-0.105 0.529-0.196 0.668-0.229 0.139-0.032 0.285-0.22 0.13-0.293-0.154-0.074-0.325-0.195-0.415-0.432-0.091-0.236 0.009-0.33 0.077-0.268 0.069 0.061 0.114 0.037 0.117-0.062 0.005-0.098 0.046-0.117 0.115-0.112 0.068 0.002 0.085-0.128 0.024-0.14-0.062-0.013-0.086-0.041-0.115-0.082-0.027-0.04-0.108-0.012-0.142-0.003-0.081 0.02-0.168 0-0.216-0.017-0.047-0.015-0.096 0.009-0.137 0.083z" fill="#E2E3E4"/>
			<path d="m19.174 15.979c-0.072 0.072-0.423 0.105-0.578 0.081-0.154-0.024-0.269-0.057-0.333 0.121-0.065 0.181-0.383 0.497-0.546 0.66s-0.464 0.554-0.53 0.774c-0.065 0.221-0.026 0.285 0.058 0.403 0.086 0.117 0.139 0.109 0.204 0.032 0.065-0.078 0.073-0.126 0-0.243-0.073-0.119-0.094-0.258 0.065-0.392 0.158-0.134 0.411-0.388 0.476-0.518 0.064-0.13 0.146-0.194 0.245-0.231 0.098-0.037 0.158-0.094 0.215-0.188 0.056-0.094 0.209-0.142 0.281-0.073 0.073 0.068 0.102 0.155 0.033 0.208-0.017 0.012-0.029 0.008-0.029-0.033 0-0.04-0.218-0.037-0.207 0.115 0.004 0.057 0.028 0.04 0.065 0.012 0.037-0.029 0.069-0.041 0.099 0.036 0.027 0.078 0.073 0.101-0.05 0.143-0.122 0.041-0.118 0.049-0.069 0.138 0.049 0.091 0.098 0.131 0.139 0.045 0.041-0.084 0.126-0.048 0.146-0.104 0.021-0.059 0.13-0.077 0.175-0.019 0.061 0.081-0.02 0.139-0.02 0.2s-0.004 0.069-0.042 0.008c-0.036-0.061-0.098-0.032-0.101 0.008-0.004 0.041-0.07 0.024-0.11 0.021-0.041-0.004-0.062 0.057-0.062 0.155 0 0.064 0 0.089 0.042 0.094 0.039 0.004 0.044 0.062 0.089 0.064 0.044 0.003 0.051 0.092 0.026 0.094-0.024 0.003-0.01 0.037-0.03 0.039-0.021 0.002 0.004-0.047-0.089-0.045-0.09 0.002-0.19 0.076-0.134 0.176 0.071 0.128-0.034 0.205 0.019 0.282s0.143 0.077 0.265 0.058c0.123-0.021 0.395-0.037 0.518 0.052 0.121 0.09 0.284 0.138 0.496 0.172 0.213 0.032 0.315 0.058 0.342 0.292 0.017 0.139 0.073 0.229 0.221 0.352 0.146 0.121 0.252 0.308 0.236 0.39-0.017 0.082 0.072 0.248 0.165 0.22 0.095-0.028 0.176-0.017 0.236 0.008 0.062 0.025 0.169 0.062 0.077-0.068-0.122-0.176-0.273-0.172-0.321-0.298-0.049-0.126-0.142-0.31-0.22-0.447-0.053-0.094-0.065-0.188-0.085-0.237-0.02-0.048-0.045-0.048-0.045-0.134 0-0.085-0.041-0.167-0.154-0.212-0.115-0.044-0.33-0.17-0.488-0.198-0.16-0.029-0.143-0.061-0.163-0.119-0.021-0.057-0.049-0.068-0.073-0.032-0.024 0.037-0.049 0.032-0.066-0.012s-0.053-0.037-0.098-0.037-0.167 0-0.098-0.109 0.078-0.188-0.024-0.265-0.13-0.138-0.053-0.188c0.077-0.049 0.013-0.13 0.117-0.143 0.106-0.013 0.021-0.085 0.102-0.101 0.081-0.018 0.077-0.058 0.05-0.091-0.029-0.032 0.052-0.154 0.024-0.208-0.029-0.052-0.029-0.126 0.019-0.174 0.049-0.05 0.013-0.101-0.008-0.122-0.022-0.021-0.059-0.046-0.062-0.078-0.004-0.032-0.045-0.05-0.094 0.017-0.049 0.064-0.146 0.109-0.191 0.012-0.045-0.098-0.013-0.146 0.021-0.195 0.033-0.048 0.057-0.134 0.033-0.187-0.025-0.055-0.074-0.034-0.126 0.019z" fill="#E2E3E4"/>
			<path d="m20.989 17.765c-0.097-0.081-0.232 0.017-0.306-0.065-0.072-0.081-0.13-0.123-0.202-0.105-0.074 0.015-0.168 0.039-0.217-0.078-0.048-0.118-0.102-0.142-0.163-0.013-0.06 0.13-0.13 0.13-0.199 0.168-0.069 0.036-0.101 0.122 0.066 0.17 0.167 0.049 0.375 0.143 0.446 0.196 0.073 0.052 0.124 0.024 0.104-0.061-0.02-0.086-0.062-0.102-0.104-0.135-0.039-0.032-0.044-0.102 0.047-0.085 0.089 0.017 0.102 0.073 0.174 0.078 0.074 0.003 0.347 0.023 0.484 0.194 0.139 0.172 0.212 0.269 0 0.391-0.212 0.123-0.415 0.212-0.268 0.407 0.146 0.196 0.202 0.032 0.423 0.146 0.219 0.114 0.367 0.04 0.505-0.017s0.292-0.016 0.398-0.032c0.107-0.017 0.253-0.057 0.351 0.065 0.097 0.122 0.22 0.228 0.342 0.277s0.171 0.13 0.244 0.122c0.072-0.008-0.025-0.163-0.114-0.253-0.09-0.09-0.171-0.252-0.285-0.325-0.113-0.073-0.227-0.163-0.35-0.091-0.123 0.073-0.424 0.033-0.521-0.008s-0.202-0.049-0.284-0.049c-0.081 0-0.123-0.065 0.032-0.163 0.155-0.097 0.194-0.202 0.113-0.423-0.081-0.22-0.26-0.733-0.529-0.952-0.089-0.073-0.194-0.032-0.237 0.008-0.038 0.042-0.137 0.09-0.234 0.099-0.098 0.007-0.13 0.049-0.007 0.089 0.121 0.04 0.031 0.081 0.162 0.146 0.13 0.066 0.211 0.13 0.203 0.204-0.009 0.075-0.049 0.115-0.074 0.095z" fill="#E2E3E4"/>
			<path d="m20.655 18.054c0.143-0.046 0.126 0.062 0.248 0.053 0.123-0.007 0.155 0.135 0.046 0.114-0.11-0.019-0.119-0.09-0.188-0.094s-0.195-0.045-0.106-0.073z" fill="#E2E3E4"/>
			<path d="m21.926 18.018c0.016 0.069 0.053 0.228 0.068 0.293 0.338-0.297 0.42-0.382 0.48-0.423 0.062-0.041 0.122-0.086 0.31 0.072 0.188 0.159 0.454 0.331 0.537 0.363 0.064 0.022 0.135 0.073 0.175 0.276 0.05 0.036 0.229 0.053 0.221-0.086-0.009-0.139-0.033-0.207-0.159-0.265-0.125-0.057-0.509-0.191-0.692-0.346s-0.35-0.343-0.484-0.236c-0.134 0.108-0.379 0.294-0.456 0.352z" fill="#E2E3E4"/>
			<path d="m18.1 17.08c-0.102 0.136-0.293 0.314-0.399 0.403-0.104 0.09-0.108 0.213-0.032 0.358 0.037 0.07 0.062 0.147 0.118 0.155 0.057 0.008 0.082 0.049 0.053 0.109-0.028 0.061-0.021 0.127 0.09 0.123 0.19-0.009 0.183-0.111 0.296-0.119 0.066-0.004 0.103-0.008 0.107-0.057s0.061 0 0.061-0.176c0-0.174-0.094-0.256-0.028-0.333 0.064-0.077 0.095-0.207 0.033-0.312-0.174-0.291-0.204-0.277-0.299-0.151z" fill="#E2E3E4"/>
			<path d="m17.469 18.221c-0.058 0 0.016 0.09 0.098 0.05 0.082-0.041 0.016-0.151 0-0.111-0.017 0.041-0.074 0.061-0.098 0.061z" fill="#E2E3E4"/>
			<path d="m17.705 18.355c0.011 0.05 0.053 0.19 0.064 0.244 0.012 0.053 0.123 0.134 0.235 0.208 0.114 0.072 0.22 0.081 0.294 0.134 0.073 0.053 0.13-0.036-0.004-0.147-0.134-0.108-0.366-0.336-0.493-0.443-0.125-0.106-0.105-0.033-0.096 0.004z" fill="#E2E3E4"/>
			<path d="m18.133 18.388c0.106-0.105 0.235-0.113 0.431-0.073 0.195 0.041 0.773 0.146 1.033 0.146 0.261 0 0.456 0.049 0.488 0.195 0.033 0.146 0.099 0.301 0.172 0.367 0.073 0.064 0.065 0.097 0.024 0.146s0.032 0.099-0.244 0.09c-0.277-0.009-0.488-0.09-0.628-0.082-0.139 0.009-0.227 0-0.308-0.048-0.083-0.049-0.263-0.099-0.245 0.073 0.016 0.171 0.033 0.26 0.139 0.317s0.106 0.154 0.008 0.318c-0.098 0.161-0.432 0.495-0.577 0.65-0.148 0.153-0.196 0.375 0.023 0.504 0.22 0.131 0.562 0.366 0.619 0.521 0.09 0.016 0.153 0.024 0.22 0.098 0.064 0.073 0.09 0.098-0.018 0.13-0.104 0.032-0.161 0.024-0.202-0.032-0.04-0.058-0.122-0.064-0.188-0.058-0.064 0.009-0.122-0.024-0.163-0.105-0.04-0.081-0.423-0.415-0.553-0.505-0.131-0.089-0.311-0.163-0.18-0.391s0.155-0.341 0.139-0.432c-0.017-0.089-0.033-0.194 0.009-0.26 0.039-0.065-0.042-0.253-0.236-0.269-0.196-0.017-0.326-0.017-0.392-0.114-0.066-0.098-0.204-0.179-0.301-0.154 0-0.253 0.131-0.595 0.407-0.716 0.138 0.138 0.423 0.341 0.708 0.446 0.283 0.106 0.342 0.009 0.22-0.211-0.121-0.218-0.292-0.429-0.405-0.551z" fill="#E2E3E4"/>
			<path d="m19.018 20.815c-0.049 0-0.18 0.016-0.202 0.023-0.082-0.09-0.123-0.154-0.196-0.172-0.073-0.016-0.236 0.09-0.081 0.172 0.154 0.082 0.236 0.203 0.26 0.245 0.057-0.066 0.171-0.245 0.219-0.268z" fill="#E2E3E4"/>
			<path d="m19.256 19.894c-0.03 0.091-0.139 0.196-0.221 0.229-0.081 0.032-0.17 0.235-0.17 0.414 0 0.18 0.079 0.143 0.227 0.13 0.399-0.031 0.872-0.007 1.019 0.058 0.146 0.066 0.357 0.091 0.194-0.04-0.162-0.13-0.627-0.195-0.847-0.195s-0.276 0.048-0.276-0.09c0-0.139 0.008-0.163 0.082-0.244 0.072-0.081 0.113-0.171 0.097-0.212-0.015-0.042-0.096-0.075-0.105-0.05z" fill="#E2E3E4"/>
			<path d="m18.426 21.587c-0.312 0.052-0.457 0.228-0.375 0.447l0.202 0.074c-0.04-0.155-0.063-0.343 0.1-0.407 0.162-0.065 0.121-0.122 0.073-0.114z" fill="#E2E3E4"/>
			<path d="m22.512 19.274c-0.14-0.105-0.18-0.194-0.326-0.187-0.145 0.008-0.325 0.017-0.415 0.073-0.09 0.057-0.22 0.13-0.358 0.106-0.138-0.025-0.227 0.056-0.089 0.162 0.138 0.105 0.35 0.285 0.089 0.391 0.099 0.057 0.277 0.229 0.399 0.293 0.204-0.154 0.433-0.334 0.276-0.504-0.09-0.098-0.113-0.196-0.13-0.253s0.017-0.098 0.09-0.04c0.073 0.057 0.244 0.097 0.342 0.097 0.056-0.03 0.089-0.096 0.122-0.138z" fill="#E2E3E4"/>
			<path d="m22.724 19.382c0 0.031-0.024 0.153-0.057 0.202 0.081-0.008 0.089 0.033 0.089 0.098s0.123 0.09 0.114-0.057-0.065-0.195-0.146-0.243z" fill="#E2E3E4"/>
			<path d="m23.131 19.593c0.188 0.151 0.121 0.318 0.203 0.432 0.081 0.113-0.064 0.057-0.188 0.073-0.123 0.016-0.317 0.057-0.342 0.251-0.024 0.196-0.098 0.106-0.147 0.058-0.049-0.049-0.204 0.057-0.261-0.016s-0.18-0.058-0.171 0.057c0.008 0.113 0.074 0.188 0.163 0.171 0.089-0.016 0.098 0.081 0.171 0.065 0.073-0.018 0.147 0.016 0.13 0.113-0.017 0.1-0.057 0.244 0.017 0.311 0.073 0.064 0.105 0.081 0.13 0.008 0.024-0.074 0.147-0.188 0.221-0.229s0.057-0.163 0-0.106c-0.058 0.058-0.14-0.032-0.172 0-0.032 0.034-0.089-0.024-0.057-0.121 0.032-0.099 0.146-0.204 0.188-0.138 0.041 0.063 0.098 0.081 0.114 0.023 0.016-0.057 0.09-0.041 0.064 0.023-0.023 0.066 0.057 0.188 0.106 0.115 0.049-0.074 0.097-0.147 0.122-0.236 0.023-0.09 0.081-0.032 0.122 0.041 0.039 0.072-0.016 0.149-0.122 0.301-0.114 0.163-0.421 0.465-0.651 0.554-0.105 0.041-0.171 0.082-0.227 0.016-0.058-0.064-0.124-0.056-0.107 0.066 0.009 0.057 0.009 0.162 0.041 0.203-0.431 0.066-0.903 0.107-1.073 0.057-0.173-0.049-0.759-0.033-0.839-0.024 0.049-0.122 0-0.285-0.065-0.31-0.064-0.024-0.122 0.033-0.115 0.106 0.009 0.072 0.058 0.162-0.121 0.179-0.18 0.016-0.293 0.049-0.317 0.187-0.023 0.139 0.057 0.074 0.09 0.033 0.032-0.04 0.187-0.023 0.366-0.023s0.513 0.097 0.195 0.097-0.578 0.049-0.675 0.123c-0.099 0.072-0.237 0.088-0.213-0.042 0.024-0.131 0.058-0.211 0.14-0.26 0.081-0.049 0.088-0.139 0.063-0.196-0.023-0.057-0.063 0.011-0.154 0.041-0.097 0.033-0.423-0.049-0.325-0.398-0.057-0.032-0.155-0.024-0.227 0.017-0.073 0.04-0.286 0.016-0.155-0.115 0.131-0.13 0.511-0.396 0.855-0.227 0.43 0.212 0.463 0.031 0.675 0.146 0.213 0.114 0.692 0.286 0.904 0.286s0.411-0.168 0.081-0.351c-0.074-0.041-0.219-0.089-0.31-0.098-0.008-0.082-0.008-0.146-0.016-0.195 0.145 0.057 0.301 0.219 0.325 0.105s0.081-0.123 0.171-0.066 0.284 0.049 0.227-0.081-0.171-0.432 0.017-0.406c0.186 0.023 0.195-0.172 0.326-0.106 0.129 0.064 0.406 0.122 0.472 0.017 0.065-0.107 0.024-0.302 0.138-0.326s0.147-0.072 0.147-0.13c0-0.059 0.024-0.108 0.066-0.075z" fill="#E2E3E4"/>
			<path d="m21.584 20.187c-0.097-0.205-0.619-0.383-1.066-0.391-0.448-0.008-0.456 0.033-0.406 0.073 0.047 0.042 0.08 0.099 0.072 0.146-0.009 0.05 0.024 0.074 0.171 0.04 0.146-0.031 0.423-0.088 0.528-0.04 0.106 0.05 0.18 0.033 0.254 0.033 0.072 0 0.178 0.049 0.106 0.121-0.073 0.073-0.033 0.09 0.04 0.115 0.071 0.026 0.406 0.131 0.301-0.097z" fill="#E2E3E4"/>
			<path d="m20.742 20.191c-0.091-0.031-0.209 0.076-0.127 0.076s0.146-0.008 0.19 0c0.046 0.008 0.034-0.043-0.063-0.076z" fill="#E2E3E4"/>
			<path d="m21.038 20.395c0.07 0.023 0.311 0.073 0.411 0.13 0.102 0.058 0.061 0.123-0.041 0.065-0.057-0.033-0.228-0.086-0.325-0.089-0.098-0.004-0.122-0.041-0.122-0.086 0-0.046 0.04-0.032 0.077-0.02z" fill="#E2E3E4"/>
			<path d="m19.409 20.275c0.074-0.096 0.18-0.431 0.173-0.585 0.269-0.04 0.854-0.171 0.977-0.212 0.03 0.041 0.048 0.131 0.063 0.154-0.521 0.024-0.813 0.066-0.896 0.205-0.081 0.137-0.031 0.211 0.074 0.178 0.106-0.032 0.212 0.009 0.22 0.154 0.009 0.147 0.154 0.172 0.302 0.049 0.081 0.073 0.098 0.148 0.098 0.196s0.105 0.089 0.202 0.082c0.099-0.009 0.271 0.112 0.278 0.186 0.007 0.072 0.016 0.113 0.073 0.065 0.058-0.049 0.113-0.007 0.08 0.082-0.032 0.09-0.211 0.147-0.309-0.009-0.099-0.155-0.57-0.448-0.895-0.431-0.326 0.017-0.512-0.016-0.44-0.114z" fill="#E2E3E4"/>
			<path d="m22.946 21.546c-0.097 0-0.247 0.044-0.296 0.094-0.049 0.049-0.094 0.139-0.135 0.155s0 0.077 0.131 0.04c0.13-0.036 0.269-0.142 0.309-0.19 0.041-0.05 0.062-0.099-0.009-0.099z" fill="#E2E3E4"/>
			<path d="m16.518 20.977c0.024 0.126-0.022 0.179 0.034 0.212 0.057 0.032 0.041 0.106 0.114 0.114s0.041-0.106 0.065-0.172c0.023-0.066 0.04-0.139-0.065-0.203-0.106-0.065-0.162-0.041-0.148 0.049z" fill="#E2E3E4"/>
			<path d="m20.175 16.604c-0.024 0.091-0.024 0.293-0.008 0.384 0.017 0.089 0.13 0.08 0.155-0.074 0.024-0.154-0.025-0.243-0.065-0.293-0.04-0.049-0.057-0.105-0.082-0.017z" fill="#A6B0B6"/>
			<path d="m18.274 20.073c-0.023 0.046-0.069 0.212-0.089 0.256s0.106 0.081 0.138 0.024c0.031-0.057 0.041-0.18 0.074-0.22 0.032-0.04-0.082-0.141-0.123-0.06z" fill="#A6B0B6"/>
			<path d="m18.966 19.751c0.034-0.105-0.089-0.293-0.219-0.302-0.131-0.006-0.253 0.05-0.134 0.103 0.117 0.053 0.195 0.09 0.215 0.163s0.113 0.114 0.138 0.036z" fill="#A6B0B6"/>
			<path stroke-width=".1738" d="m19.753 24.458" stroke="#A6B0B6" fill="#E2E3E4"/>
			<path stroke-width=".1738" d="m22.449 23.332c-0.485 0-0.485 0.725 0 0.725 0.484 0 0.491-0.725 0-0.725z" stroke="#A6B0B6" fill="#E2E3E4"/>
			<path stroke-width=".1738" d="m17.057 23.332c0.484 0 0.484 0.725 0 0.725-0.486 0-0.493-0.725 0-0.725z" stroke="#A6B0B6" fill="#E2E3E4"/>
			<path stroke-width=".1738" d="m19.459 24.167c-0.229-0.592 0.808-0.586 0.595-0.008 0.591-0.227 0.584 0.809 0.007 0.596 0.227 0.591-0.808 0.584-0.596 0.006-0.59 0.227-0.584-0.808-0.006-0.594z" stroke="#A6B0B6" fill="#E2E3E4"/>
</g>
</svg>
