<?xml version="1.0" encoding="UTF-8" standalone="no"?>
<!-- Generator: Adobe Illustrator 18.0.0, SVG Export Plug-In . SVG Version: 6.00 Build 0)  -->
<!DOCTYPE svg  PUBLIC '-//W3C//DTD SVG 1.1//EN'  'http://www.w3.org/Graphics/SVG/1.1/DTD/svg11.dtd'>
<svg style="enable-background:new 0 0 144 80" xmlns="http://www.w3.org/2000/svg" xml:space="preserve" version="1.1" y="0px" x="0px" xmlns:xlink="http://www.w3.org/1999/xlink" viewBox="0 0 144 80">
<g id="USA">
		<polygon points="143.93 79.861 143.93 0 0 0 0 79.861" fill="#fff"/>
		<polygon points="143.93 6.144 57.62 6.144 57.62 0 143.93 0" fill="#BB1F40"/>
		<polygon points="143.93 18.43 57.62 18.43 57.62 12.288 143.93 12.288" fill="#BB1F40"/>
		<polygon points="143.93 30.716 57.62 30.716 57.62 24.572 143.93 24.572" fill="#BB1F40"/>
		<polygon points="143.93 43.001 57.62 43.001 57.62 36.858 143.93 36.858" fill="#BB1F40"/>
		<polygon points="143.93 55.287 0 55.287 0 49.144 143.93 49.144" fill="#BB1F40"/>
		<polygon points="143.93 67.572 0 67.572 0 61.43 143.93 61.43" fill="#BB1F40"/>
		<polygon points="143.93 79.861 0 79.861 0 73.716 143.93 73.716" fill="#BB1F40"/>
		<polygon points="61.908 43.041 61.908 0 0 0 0 43.041" fill="#202D61"/>
		<polygon points="5.129 1.876 4.574 3.567 2.749 3.567 4.231 4.62 3.662 6.311 5.129 5.26 6.597 6.311 6.035 4.606 7.509 3.575 5.691 3.575" fill="#fff"/>
		<polygon points="15.451 1.876 14.896 3.567 13.071 3.567 14.554 4.62 13.984 6.311 15.451 5.26 16.919 6.311 16.355 4.606 17.831 3.575 16.014 3.575" fill="#fff"/>
		<polygon points="25.773 1.876 25.219 3.567 23.393 3.567 24.875 4.62 24.307 6.311 25.773 5.26 27.241 6.311 26.679 4.606 28.152 3.575 26.336 3.575" fill="#fff"/>
		<polygon points="36.096 1.876 35.541 3.567 33.716 3.567 35.198 4.62 34.629 6.311 36.096 5.26 37.563 6.311 37.001 4.606 38.475 3.575 36.658 3.575" fill="#fff"/>
		<polygon points="46.418 1.876 45.863 3.567 44.038 3.567 45.521 4.62 44.95 6.311 46.418 5.26 47.886 6.311 47.323 4.606 48.797 3.575 46.979 3.575" fill="#fff"/>
		<polygon points="56.74 1.876 56.186 3.567 54.36 3.567 55.842 4.62 55.271 6.311 56.74 5.26 58.207 6.311 57.646 4.606 59.119 3.575 57.302 3.575" fill="#fff"/>
		<polygon points="5.129 10.461 4.574 12.152 2.749 12.152 4.231 13.205 3.662 14.894 5.129 13.845 6.597 14.894 6.035 13.19 7.509 12.159 5.691 12.159" fill="#fff"/>
		<polygon points="15.451 10.461 14.896 12.152 13.071 12.152 14.554 13.205 13.984 14.894 15.451 13.845 16.919 14.894 16.355 13.19 17.831 12.159 16.014 12.159" fill="#fff"/>
		<polygon points="25.773 10.461 25.219 12.152 23.393 12.152 24.875 13.205 24.307 14.894 25.773 13.845 27.241 14.894 26.679 13.19 28.152 12.159 26.336 12.159" fill="#fff"/>
		<polygon points="36.096 10.461 35.541 12.152 33.716 12.152 35.198 13.205 34.629 14.894 36.096 13.845 37.563 14.894 37.001 13.19 38.475 12.159 36.658 12.159" fill="#fff"/>
		<polygon points="46.418 10.461 45.863 12.152 44.038 12.152 45.521 13.205 44.95 14.894 46.418 13.845 47.886 14.894 47.323 13.19 48.797 12.159 46.979 12.159" fill="#fff"/>
		<polygon points="56.74 10.461 56.186 12.152 54.36 12.152 55.842 13.205 55.271 14.894 56.74 13.845 58.207 14.894 57.646 13.19 59.119 12.159 57.302 12.159" fill="#fff"/>
		<polygon points="5.129 19.045 4.574 20.737 2.749 20.737 4.231 21.789 3.662 23.48 5.129 22.43 6.597 23.48 6.035 21.775 7.509 20.744 5.691 20.744" fill="#fff"/>
		<polygon points="15.451 19.045 14.896 20.737 13.071 20.737 14.554 21.789 13.984 23.48 15.451 22.43 16.919 23.48 16.355 21.775 17.831 20.744 16.014 20.744" fill="#fff"/>
		<polygon points="25.773 19.045 25.219 20.737 23.393 20.737 24.875 21.789 24.307 23.48 25.773 22.43 27.241 23.48 26.679 21.775 28.152 20.744 26.336 20.744" fill="#fff"/>
		<polygon points="36.096 19.045 35.541 20.737 33.716 20.737 35.198 21.789 34.629 23.48 36.096 22.43 37.563 23.48 37.001 21.775 38.475 20.744 36.658 20.744" fill="#fff"/>
		<polygon points="46.418 19.045 45.863 20.737 44.038 20.737 45.521 21.789 44.95 23.48 46.418 22.43 47.886 23.48 47.323 21.775 48.797 20.744 46.979 20.744" fill="#fff"/>
		<polygon points="56.74 19.045 56.186 20.737 54.36 20.737 55.842 21.789 55.271 23.48 56.74 22.43 58.207 23.48 57.646 21.775 59.119 20.744 57.302 20.744" fill="#fff"/>
		<polygon points="5.129 27.629 4.574 29.322 2.749 29.322 4.231 30.374 3.662 32.063 5.129 31.014 6.597 32.063 6.035 30.359 7.509 29.328 5.691 29.328" fill="#fff"/>
		<polygon points="15.451 27.629 14.896 29.322 13.071 29.322 14.554 30.374 13.984 32.063 15.451 31.014 16.919 32.063 16.355 30.359 17.831 29.328 16.014 29.328" fill="#fff"/>
		<polygon points="25.773 27.629 25.219 29.322 23.393 29.322 24.875 30.374 24.307 32.063 25.773 31.014 27.241 32.063 26.679 30.359 28.152 29.328 26.336 29.328" fill="#fff"/>
		<polygon points="36.096 27.629 35.541 29.322 33.716 29.322 35.198 30.374 34.629 32.063 36.096 31.014 37.563 32.063 37.001 30.359 38.475 29.328 36.658 29.328" fill="#fff"/>
		<polygon points="46.418 27.629 45.863 29.322 44.038 29.322 45.521 30.374 44.95 32.063 46.418 31.014 47.886 32.063 47.323 30.359 48.797 29.328 46.979 29.328" fill="#fff"/>
		<polygon points="56.74 27.629 56.186 29.322 54.36 29.322 55.842 30.374 55.271 32.063 56.74 31.014 58.207 32.063 57.646 30.359 59.119 29.328 57.302 29.328" fill="#fff"/>
		<polygon points="5.129 36.214 4.574 37.906 2.749 37.906 4.231 38.958 3.662 40.648 5.129 39.599 6.597 40.648 6.035 38.944 7.509 37.913 5.691 37.913" fill="#fff"/>
		<polygon points="15.451 36.214 14.896 37.906 13.071 37.906 14.554 38.958 13.984 40.648 15.451 39.599 16.919 40.648 16.355 38.944 17.831 37.913 16.014 37.913" fill="#fff"/>
		<polygon points="25.773 36.214 25.219 37.906 23.393 37.906 24.875 38.958 24.307 40.648 25.773 39.599 27.241 40.648 26.679 38.944 28.152 37.913 26.336 37.913" fill="#fff"/>
		<polygon points="36.096 36.214 35.541 37.906 33.716 37.906 35.198 38.958 34.629 40.648 36.096 39.599 37.563 40.648 37.001 38.944 38.475 37.913 36.658 37.913" fill="#fff"/>
		<polygon points="46.418 36.214 45.863 37.906 44.038 37.906 45.521 38.958 44.95 40.648 46.418 39.599 47.886 40.648 47.323 38.944 48.797 37.913 46.979 37.913" fill="#fff"/>
		<polygon points="56.74 36.214 56.186 37.906 54.36 37.906 55.842 38.958 55.271 40.648 56.74 39.599 58.207 40.648 57.646 38.944 59.119 37.913 57.302 37.913" fill="#fff"/>
		<polygon points="10.289 31.947 9.735 33.64 7.91 33.64 9.393 34.692 8.823 36.383 10.289 35.332 11.758 36.383 11.196 34.678 12.67 33.646 10.852 33.646" fill="#fff"/>
		<polygon points="20.612 31.947 20.058 33.64 18.232 33.64 19.715 34.692 19.146 36.383 20.612 35.332 22.08 36.383 21.518 34.678 22.991 33.646 21.174 33.646" fill="#fff"/>
		<polygon points="30.934 31.947 30.38 33.64 28.555 33.64 30.037 34.692 29.468 36.383 30.934 35.332 32.402 36.383 31.84 34.678 33.313 33.646 31.497 33.646" fill="#fff"/>
		<polygon points="41.257 31.947 40.702 33.64 38.877 33.64 40.359 34.692 39.789 36.383 41.257 35.332 42.725 36.383 42.162 34.678 43.636 33.646 41.819 33.646" fill="#fff"/>
		<polygon points="51.579 31.947 51.023 33.64 49.199 33.64 50.682 34.692 50.111 36.383 51.579 35.332 53.046 36.383 52.484 34.678 53.957 33.646 52.141 33.646" fill="#fff"/>
		<polygon points="10.289 23.346 9.735 25.038 7.91 25.038 9.393 26.09 8.823 27.78 10.289 26.73 11.758 27.78 11.196 26.076 12.67 25.044 10.852 25.044" fill="#fff"/>
		<polygon points="20.612 23.346 20.058 25.038 18.232 25.038 19.715 26.09 19.146 27.78 20.612 26.73 22.08 27.78 21.518 26.076 22.991 25.044 21.174 25.044" fill="#fff"/>
		<polygon points="30.934 23.346 30.38 25.038 28.555 25.038 30.037 26.09 29.468 27.78 30.934 26.73 32.402 27.78 31.84 26.076 33.313 25.044 31.497 25.044" fill="#fff"/>
		<polygon points="41.257 23.346 40.702 25.038 38.877 25.038 40.359 26.09 39.789 27.78 41.257 26.73 42.725 27.78 42.162 26.076 43.636 25.044 41.819 25.044" fill="#fff"/>
		<polygon points="51.579 23.346 51.023 25.038 49.199 25.038 50.682 26.09 50.111 27.78 51.579 26.73 53.046 27.78 52.484 26.076 53.957 25.044 52.141 25.044" fill="#fff"/>
		<polygon points="10.289 14.744 9.735 16.436 7.91 16.436 9.393 17.488 8.823 19.178 10.289 18.128 11.758 19.178 11.196 17.475 12.67 16.442 10.852 16.442" fill="#fff"/>
		<polygon points="20.612 14.744 20.058 16.436 18.232 16.436 19.715 17.488 19.146 19.178 20.612 18.128 22.08 19.178 21.518 17.475 22.991 16.442 21.174 16.442" fill="#fff"/>
		<polygon points="30.934 14.744 30.38 16.436 28.555 16.436 30.037 17.488 29.468 19.178 30.934 18.128 32.402 19.178 31.84 17.475 33.313 16.442 31.497 16.442" fill="#fff"/>
		<polygon points="41.257 14.744 40.702 16.436 38.877 16.436 40.359 17.488 39.789 19.178 41.257 18.128 42.725 19.178 42.162 17.475 43.636 16.442 41.819 16.442" fill="#fff"/>
		<polygon points="51.579 14.744 51.023 16.436 49.199 16.436 50.682 17.488 50.111 19.178 51.579 18.128 53.046 19.178 52.484 17.475 53.957 16.442 52.141 16.442" fill="#fff"/>
		<polygon points="10.289 6.142 9.735 7.834 7.91 7.834 9.393 8.887 8.823 10.576 10.289 9.526 11.758 10.576 11.196 8.872 12.67 7.841 10.852 7.841" fill="#fff"/>
		<polygon points="20.612 6.142 20.058 7.834 18.232 7.834 19.715 8.887 19.146 10.576 20.612 9.526 22.08 10.576 21.518 8.872 22.991 7.841 21.174 7.841" fill="#fff"/>
		<polygon points="30.934 6.142 30.38 7.834 28.555 7.834 30.037 8.887 29.468 10.576 30.934 9.526 32.402 10.576 31.84 8.872 33.313 7.841 31.497 7.841" fill="#fff"/>
		<polygon points="41.257 6.142 40.702 7.834 38.877 7.834 40.359 8.887 39.789 10.576 41.257 9.526 42.725 10.576 42.162 8.872 43.636 7.841 41.819 7.841" fill="#fff"/>
		<polygon points="51.579 6.142 51.023 7.834 49.199 7.834 50.682 8.887 50.111 10.576 51.579 9.526 53.046 10.576 52.484 8.872 53.957 7.841 52.141 7.841" fill="#fff"/>
</g>
</svg>
