<?xml version="1.0" encoding="UTF-8" standalone="no"?>
<!-- Generator: Adobe Illustrator 18.0.0, SVG Export Plug-In . SVG Version: 6.00 Build 0)  -->
<!DOCTYPE svg  PUBLIC '-//W3C//DTD SVG 1.1//EN'  'http://www.w3.org/Graphics/SVG/1.1/DTD/svg11.dtd'>
<svg style="enable-background:new 0 0 144 80" xmlns="http://www.w3.org/2000/svg" xml:space="preserve" version="1.1" y="0px" x="0px" xmlns:xlink="http://www.w3.org/1999/xlink" viewBox="0 0 144 80">
<g id="ALB">
		<polygon points="144 80 144 0 0 0 0 80" fill="#EC1C2E"/>
		<path stroke-width=".1918" d="m74.979 41.174" stroke="#000" fill="#fff"/>
			<path d="m72 22.854c-0.78-0.13-0.802-0.366-0.408-0.909 0.168-0.229 0.031-0.364-0.512-0.208-0.403 0.116-0.856-0.439-1.06-0.695-0.188-0.236-0.168-0.278 0.056-0.278s0.642-0.195 0.753-0.336c0.111-0.139 0.084-0.307-0.223-0.251-0.307 0.057-1.217-0.402-1.562-0.863-0.167-0.224-0.196-0.334 0.084-0.418 0.278-0.085 0.557-0.252 0.752-0.391 0.195-0.14 0.084-0.307-0.278-0.363s-1.153-0.479-1.506-0.92c-0.111-0.14-0.223-0.307 0.111-0.391 0.335-0.083 1.143-0.641 1.366-0.947 0.224-0.307 0.251-0.642-0.391-0.362-0.641 0.278-1.923 0.362-2.676 0.195-1.589-0.753-3.903-1.729-4.796-0.307-1.506-0.084-3.317-0.168-2.982 1.7 0.299-0.028 0.464-0.199 0.557-0.39 0.133-0.271 0.58-0.319 1.004-0.168 0.369 0.133 0.67 0.328 0.397 0.656-0.14 0.167-0.684 0.249-1.018 0.167-0.335-0.083-0.956-0.183-1.317-0.224-0.243-0.027-0.725-0.334-0.948-0.767-0.224-0.432-0.794-0.947-1.157-0.642-0.362 0.308 0.07 0.823 0.433 1.143 0.363 0.321 1.101 0.725 1.491 0.725 0.517 0 1.018 0.127 1.283 0.182 0.125 0.983 1.422 1.431 2.509 1.402 1.088-0.027 2.523 0.5 3.848 1.594 1.714 1.417 2.928 6.102 0.028 6.102-1.812 0-1.533-1.813-1.479-2.845 0.057-1.031-0.502-2.147-1.728-2.593-1.227-0.446-3.736-1.31-4.433-1.701-0.278-0.195-0.573 0.495-0.613 0.894-0.028 0.277-0.342 0.302-1.226 0.026-2.51-0.78-4.796-2.118-5.883-4.183-1.088-2.061-3.138-0.034-2.12 1.701 1.228 2.092 5.326 3.792 7.919 4.127 1.204 0.155 1.194 1.596 0.056 1.756-2.369 0.335-4.688 0.289-6.134-1.589-1.115-1.45-2.213-0.146-1.728 1.004 1.03 2.453 4.531 3.487 7.945 1.841 0.808-0.392 1.676-0.325 0.976 0.641-1.757 2.426-4.095 2.8-7.026 1.003-0.864-0.529-1.533-0.445-1.728-0.11-0.343 0.587-0.499 1.119 0.502 1.839 2.202 1.59 4.753 1.478 6.802 0.419 0.81-0.419 2.287-0.752 0.977 0.977-1.311 1.729-4.656 2.62-6.021 1.643-1.367-0.976-3.068-0.084-1.98 1.423 1.088 1.505 3.346 1.114 4.377 0.558 1.032-0.558 2.621-1.311 3.29-1.618s0.981 0.217 0.224 1.089c-1.701 1.951-3.454 3.59-5.828 2.815-1.365-0.446-2.621-0.502-2.258 1.171 0.362 1.673 3.179 1.785 4.572 0.947 1.394-0.836 2.648-1.784 3.485-2.592 0.836-0.809 1.683-0.778 0.753 0.585-2.092 3.066-3.877 5.312-6.859 4.739-2.76-0.528-2.073 1.127-1.478 1.646 1.702 1.477 4.685 1.088 8.253-3.29 0.279-0.342 0.747-0.243 0.502 0.391-1.589 4.099-4.238 6.746-6.803 6.105-1.335-0.333-2.637 0.408-1.283 1.589 1.533 1.338 4.322 0.836 6.33-1.394 2.007-2.23 3.233-3.819 3.68-4.656 0.446-0.837 1.115-0.864 1.031 0.223-0.083 1.089-0.892 3.206-2.313 3.903-0.736 0.361-1.394 1.172 0 1.785s3.038-1.868 4.376-5.492c0.158-0.426 1.08-0.532 1.06 0.277-0.028 1.145-0.586 2.092-1.199 2.649-0.613 0.558-0.133 1.491 0.697 1.115 1.171-0.529 1.91-1.308 2.369-2.481 0.252-0.642 0.818-0.861 0.503 0.14-0.948 3.011-3.067 4.46-5.855 5.854 0.419 0.42 0.794 0.879 1.171 1.255-1.715 0.878-3.513 1.464-4.935 2.049-1.13-0.752-2.133-1.171-2.635-1.882-0.167-0.961-1.338-1.38-2.091-0.961-1.297-0.502-2.217-0.377-2.301 0.836 0.752-0.126 1.38-0.252 1.924 0.251 0.251 0.585 1.046 0.877 1.799 0.627 0.836 0.502 1.547 1.005 2.049 1.338-1.589-0.041-2.761-0.125-3.597-0.209-0.795-0.794-1.547-0.794-2.133-0.251-0.962-0.208-1.714 0.237-1.966 1.074 0.725-0.084 1.395-0.335 1.868-0.084 0.391 0.725 1.477 0.753 2.175 0.223 1.059-0.026 3.123-0.056 3.597-0.056-0.696 0.419-1.533 0.922-1.952 1.172-1.645-0.335-2.537 0.307-2.426 1.505-0.389 0.613-0.362 1.477 0.112 1.868 0.111-0.502 0.39-1.143 0.78-1.505 1.004 0.195 1.729-0.14 2.035-1.256 0.641-0.417 1.478-0.947 1.812-1.17 0.335-0.223 0.601-0.481 1.367-0.14 0.752 0.334 1.449 0.612 1.896 0.864 0.25 0.976 1.198 1.031 1.812 0.585 0.391 0.224 0.725 0.614 0.948 1.032 0.362-0.642 0.167-1.505-0.53-1.729-0.251-0.753-1.144-1.004-1.784-0.642-0.53-0.223-1.282-0.586-1.616-0.725 1.086-0.391 3.847-1.422 4.823-1.841 0.919 0.697 1.951 1.366 2.704 1.172 0.111-0.67 0.456-1.221 0.92-2.176 0.739-1.52 1.659-2.94 2.412-3.819 0.753-0.878 1.515-0.375 1.463 0.837-0.125 2.927-2.286 7.305-5.464 7.472-1.087 0.058-1.52 0.278-0.921 1.087 0.559 0.753 2.287 0.852 3.249 0.141 0.962-0.712 1.296-0.67 1.101 0.278-0.195 0.947-1.283 1.309-2.091 1.367-1.171 0.083-2.51 0.5-1.422 1.505 1.087 1.003 2.872 0.445 4.183-1.06 0.455-0.521 0.812-0.67 0.78 0.168-0.056 1.449-0.92 2.369-1.812 2.564s-1.783 0.431-1.533 0.949c0.419 0.864 1.812 1.002 2.593 0.585 0.78-0.419 1.617-1.199 1.785-1.674 0.167-0.474 0.509-0.203 0.417 0.446-0.194 1.395-1.171 1.366-1.171 2.511 0 1.142 0.949 2.259 2.063 3.512 1.116-1.253 2.063-2.37 2.063-3.512 0-1.145-0.976-1.116-1.171-2.511-0.091-0.649 0.251-0.92 0.419-0.446 0.166 0.475 1.003 1.255 1.783 1.674 0.781 0.417 2.174 0.279 2.594-0.585 0.25-0.519-0.642-0.754-1.533-0.949-0.894-0.195-1.758-1.115-1.814-2.564-0.031-0.838 0.326-0.689 0.782-0.168 1.31 1.506 3.095 2.063 4.181 1.06 1.088-1.005-0.25-1.422-1.421-1.505-0.806-0.059-1.896-0.42-2.091-1.367-0.195-0.948 0.139-0.99 1.102-0.278 0.961 0.711 2.689 0.612 3.248-0.141 0.598-0.809 0.166-1.029-0.92-1.087-3.179-0.167-5.34-4.545-5.465-7.472-0.053-1.212 0.711-1.715 1.464-0.837 0.752 0.879 1.673 2.3 2.412 3.819 0.464 0.955 0.808 1.506 0.919 2.176 0.752 0.194 1.785-0.475 2.705-1.172 0.976 0.419 3.736 1.45 4.824 1.841-0.336 0.139-1.088 0.502-1.618 0.725-0.641-0.362-1.533-0.111-1.784 0.642-0.697 0.224-0.892 1.087-0.53 1.729 0.224-0.418 0.558-0.809 0.948-1.032 0.613 0.446 1.562 0.391 1.812-0.585 0.446-0.252 1.143-0.53 1.896-0.864 0.765-0.341 1.032-0.083 1.366 0.14s1.172 0.753 1.812 1.17c0.307 1.116 1.031 1.451 2.035 1.256 0.391 0.362 0.669 1.003 0.78 1.505 0.475-0.391 0.501-1.255 0.112-1.868 0.111-1.198-0.781-1.84-2.426-1.505-0.419-0.25-1.255-0.753-1.952-1.172 0.475 0 2.537 0.029 3.597 0.056 0.697 0.53 1.785 0.502 2.175-0.223 0.475-0.251 1.143 0 1.868 0.084-0.252-0.837-1.004-1.282-1.966-1.074-0.585-0.543-1.338-0.543-2.133 0.251-0.836 0.084-2.008 0.168-3.597 0.209 0.502-0.333 1.213-0.836 2.049-1.338 0.754 0.25 1.548-0.042 1.799-0.627 0.544-0.503 1.171-0.377 1.924-0.251-0.084-1.213-1.004-1.338-2.301-0.836-0.752-0.419-1.923 0-2.091 0.961-0.502 0.711-1.505 1.13-2.636 1.882-1.42-0.585-3.219-1.171-4.933-2.049 0.376-0.376 0.752-0.835 1.171-1.255-2.789-1.395-4.908-2.844-5.856-5.854-0.313-1.001 0.251-0.781 0.502-0.14 0.46 1.174 1.198 1.952 2.37 2.481 0.83 0.376 1.312-0.558 0.697-1.115-0.613-0.558-1.171-1.505-1.198-2.649-0.021-0.81 0.901-0.703 1.06-0.277 1.338 3.624 2.983 6.105 4.376 5.492 1.395-0.613 0.736-1.424 0-1.785-1.422-0.697-2.229-2.814-2.313-3.903-0.084-1.087 0.585-1.06 1.031-0.223s1.674 2.426 3.682 4.656c2.006 2.229 4.794 2.731 6.327 1.394 1.352-1.181 0.053-1.922-1.282-1.589-2.564 0.641-5.213-2.007-6.802-6.105-0.247-0.634 0.224-0.732 0.501-0.391 3.568 4.378 6.553 4.767 8.253 3.29 0.596-0.518 1.282-2.174-1.479-1.646-2.981 0.573-4.767-1.673-6.858-4.739-0.93-1.363-0.083-1.394 0.752-0.585 0.838 0.808 2.093 1.756 3.486 2.592 1.394 0.838 4.21 0.726 4.572-0.947 0.363-1.673-0.893-1.617-2.258-1.171-2.374 0.774-4.127-0.864-5.828-2.815-0.758-0.872-0.445-1.396 0.225-1.089 0.668 0.308 2.258 1.061 3.289 1.618 1.032 0.557 3.289 0.947 4.377-0.558 1.088-1.507-0.613-2.399-1.979-1.423-1.366 0.977-4.712 0.085-6.022-1.643-1.311-1.729 0.167-1.396 0.976-0.977 2.049 1.059 4.6 1.171 6.803-0.419 1-0.72 0.844-1.252 0.502-1.839-0.195-0.335-0.863-0.419-1.729 0.11-2.932 1.797-5.269 1.423-7.026-1.003-0.7-0.966 0.167-1.032 0.977-0.641 3.413 1.647 6.915 0.612 7.946-1.841 0.482-1.149-0.614-2.454-1.731-1.004-1.443 1.878-3.764 1.924-6.133 1.589-1.139-0.16-1.148-1.601 0.056-1.756 2.593-0.335 6.691-2.035 7.919-4.127 1.018-1.735-1.032-3.763-2.119-1.701-1.088 2.065-3.373 3.402-5.883 4.183-0.886 0.275-1.199 0.251-1.228-0.026-0.04-0.398-0.333-1.089-0.612-0.894-0.697 0.391-3.207 1.255-4.434 1.701-1.226 0.445-1.784 1.562-1.729 2.593 0.058 1.031 0.336 2.845-1.478 2.845-2.899 0-1.686-4.685 0.029-6.102 1.323-1.094 2.76-1.621 3.848-1.594 1.087 0.028 2.383-0.419 2.508-1.402 0.266-0.055 0.767-0.182 1.283-0.182 0.39 0 1.129-0.403 1.49-0.725 0.364-0.32 0.797-0.836 0.433-1.143-0.361-0.306-0.933 0.21-1.156 0.642-0.224 0.433-0.704 0.739-0.947 0.767-0.362 0.041-0.983 0.141-1.318 0.224-0.334 0.082-0.878 0-1.018-0.167-0.272-0.328 0.028-0.523 0.397-0.656 0.424-0.151 0.871-0.104 1.004 0.168 0.093 0.191 0.258 0.361 0.558 0.39 0.335-1.868-1.478-1.784-2.982-1.7-0.893-1.422-3.207-0.446-4.797 0.307-0.753 0.167-2.035 0.083-2.676-0.195-0.642-0.279-0.614 0.056-0.391 0.362 0.222 0.307 1.031 0.864 1.366 0.947 0.334 0.084 0.223 0.251 0.112 0.391-0.354 0.441-1.144 0.864-1.507 0.92-0.362 0.057-0.474 0.224-0.277 0.363 0.194 0.139 0.473 0.306 0.752 0.391 0.279 0.084 0.251 0.194 0.083 0.418-0.345 0.461-1.255 0.92-1.562 0.863-0.306-0.056-0.334 0.112-0.223 0.251 0.112 0.141 0.529 0.336 0.753 0.336 0.223 0 0.242 0.042 0.056 0.278-0.202 0.256-0.656 0.812-1.061 0.695-0.543-0.156-0.678-0.021-0.511 0.208 0.396 0.542 0.375 0.779-0.406 0.909z"/>
		<path d="m67.219 15.517c-0.481-0.24-1.025-0.322-1.435-0.145-0.409 0.176-0.497 0.585-0.029 0.732 0.469 0.146 1.084 0.146 1.406 0.058 0.32-0.089 0.467-0.44 0.058-0.645z" fill="#EC1C2E"/>
		<path d="m82.739 15.517c0.482-0.24 1.024-0.322 1.435-0.145 0.41 0.176 0.498 0.585 0.029 0.732-0.469 0.146-1.083 0.146-1.405 0.058-0.322-0.089-0.47-0.44-0.059-0.645z" fill="#EC1C2E"/>
</g>
</svg>
