<?xml version="1.0" encoding="UTF-8" standalone="no"?>
<!-- Generator: Adobe Illustrator 18.0.0, SVG Export Plug-In . SVG Version: 6.00 Build 0)  -->
<!DOCTYPE svg  PUBLIC '-//W3C//DTD SVG 1.1//EN'  'http://www.w3.org/Graphics/SVG/1.1/DTD/svg11.dtd'>
<svg style="enable-background:new 0 0 144 80" xmlns="http://www.w3.org/2000/svg" xml:space="preserve" version="1.1" y="0px" x="0px" xmlns:xlink="http://www.w3.org/1999/xlink" viewBox="0 0 144 80">
<g id="AND">
			<polygon points="0 80 0 0 47.999 0 47.999 80" fill="#0018A8"/>
			<polygon points="95.998 80 95.998 0 144 0 144 80" fill="#D0103A"/>
			<polygon points="47.999 80 47.999 0 95.998 0 95.998 80" fill="#FEDF00"/>
			<path d="m72 21.126c1.629 0 2.908-0.854 3.713-1.204 0.804-0.353 2.535 0.08 2.161 2.211-0.224 1.272-1.519 2.16-0.537 2.88 0.689 0.505 2.748 0.358 3.787-0.618-1.105-0.274-0.57-1.71 0.536-1.676 0.367-0.721 1.239-0.699 1.573-0.163 0.426-0.312 1.139-0.134 1.34 0.18 0.66-0.57 1.832-0.111 1.832 0.849 0.312-0.135 0.805 0.18 0.871 0.625 0.67-0.268 1.228 0.424 0.826 1.408-0.648 1.584-3.551 3.326-2.68 4.532 0.491-1.025 1.754-0.664 1.34 0.425 2.121-0.871 4.355 0.781 4.355 3.483 0 2.078-1.988 3.597-3.217 3.708 1.184 0.156 1.184 1.207 0.895 1.721-0.291 0.514-1.051 0.312-1.229-0.135-1.318 1.184-0.983 2.992 0.267 4.133 0.56-0.649 1.251-0.224 1.195 0.188 0.38 0.101 0.458 0.347 0.503 0.726 0.894 0.53 0.58 2.055-1.094 1.942 1.964 1.966 1.447 5.01-0.826 6.779-3.92 3.049-9.382 0.904-11.895 3.25 1.822 0.134 1.753 2.501-0.145 2.523-0.425 0.714-1.949 0.759-2.435 0.201l-1.136 1.094-1.14-1.093c-0.486 0.558-2.01 0.513-2.434-0.201-1.898-0.022-1.967-2.39-0.144-2.523-2.514-2.346-7.975-0.201-11.895-3.25-2.275-1.77-2.793-4.814-0.826-6.779-1.674 0.112-1.987-1.412-1.094-1.942 0.045-0.38 0.122-0.626 0.502-0.726-0.057-0.412 0.637-0.838 1.195-0.188 1.251-1.141 1.585-2.948 0.268-4.133-0.178 0.447-0.939 0.648-1.228 0.135-0.291-0.514-0.291-1.564 0.893-1.721-1.229-0.111-3.216-1.63-3.216-3.708 0-2.702 2.234-4.354 4.354-3.483-0.413-1.089 0.849-1.45 1.341-0.425 0.871-1.206-2.032-2.948-2.681-4.532-0.401-0.984 0.156-1.676 0.825-1.408 0.068-0.445 0.56-0.76 0.873-0.625 0-0.96 1.172-1.419 1.83-0.849 0.201-0.313 0.916-0.491 1.342-0.18 0.334-0.536 1.205-0.558 1.573 0.163 1.106-0.034 1.642 1.401 0.536 1.676 1.039 0.977 3.097 1.123 3.785 0.618 0.982-0.72-0.312-1.608-0.535-2.88-0.375-2.131 1.357-2.563 2.16-2.211 0.807 0.349 2.084 1.203 3.716 1.203z" fill="#E48C1A"/>
			<path stroke-linejoin="round" d="m72 21.126c1.629 0 2.908-0.854 3.713-1.204 0.804-0.353 2.535 0.08 2.161 2.211-0.224 1.272-1.519 2.16-0.537 2.88 0.689 0.505 2.748 0.358 3.787-0.618-1.105-0.274-0.57-1.71 0.536-1.676 0.367-0.721 1.239-0.699 1.573-0.163 0.426-0.312 1.139-0.134 1.34 0.18 0.66-0.57 1.832-0.111 1.832 0.849 0.312-0.135 0.805 0.18 0.871 0.625 0.67-0.268 1.228 0.424 0.826 1.408-0.648 1.584-3.551 3.326-2.68 4.532 0.491-1.025 1.754-0.664 1.34 0.425 2.121-0.871 4.355 0.781 4.355 3.483 0 2.078-1.988 3.597-3.217 3.708 1.184 0.156 1.184 1.207 0.895 1.721-0.291 0.514-1.051 0.312-1.229-0.135-1.318 1.184-0.983 2.992 0.267 4.133 0.56-0.649 1.251-0.224 1.195 0.188 0.38 0.101 0.458 0.347 0.503 0.726 0.894 0.53 0.58 2.055-1.094 1.942 1.964 1.966 1.447 5.01-0.826 6.779-3.92 3.049-9.382 0.904-11.895 3.25 1.822 0.134 1.753 2.501-0.145 2.523-0.425 0.714-1.949 0.759-2.435 0.201l-1.136 1.094-1.14-1.093c-0.486 0.558-2.01 0.513-2.434-0.201-1.898-0.022-1.967-2.39-0.144-2.523-2.514-2.346-7.975-0.201-11.895-3.25-2.275-1.77-2.793-4.814-0.826-6.779-1.674 0.112-1.987-1.412-1.094-1.942 0.045-0.38 0.122-0.626 0.502-0.726-0.057-0.412 0.637-0.838 1.195-0.188 1.251-1.141 1.585-2.948 0.268-4.133-0.178 0.447-0.939 0.648-1.228 0.135-0.291-0.514-0.291-1.564 0.893-1.721-1.229-0.111-3.216-1.63-3.216-3.708 0-2.702 2.234-4.354 4.354-3.483-0.413-1.089 0.849-1.45 1.341-0.425 0.871-1.206-2.032-2.948-2.681-4.532-0.401-0.984 0.156-1.676 0.825-1.408 0.068-0.445 0.56-0.76 0.873-0.625 0-0.96 1.172-1.419 1.83-0.849 0.201-0.313 0.916-0.491 1.342-0.18 0.334-0.536 1.205-0.558 1.573 0.163 1.106-0.034 1.642 1.401 0.536 1.676 1.039 0.977 3.097 1.123 3.785 0.618 0.982-0.72-0.312-1.608-0.535-2.88-0.375-2.131 1.357-2.563 2.16-2.211 0.807 0.349 2.084 1.203 3.716 1.203v0zm-9.124 3.269c-0.436 0.104-1.083-0.521-0.524-1.012m-0.012-0.664c-0.927-0.028-1.749 1.683 0.436 2.875 1.227 0.67 4.176 0.76 5.494-0.066 1.316-0.827 1.741-0.737 1.941-0.425 0.201 0.312-0.155 0.445-0.356 0.38m-9.088-2.927c-0.358 0.548-0.594 1.888 0.496 2.742m-1.838-2.563c-0.323 0.353-0.323 1.742 0.648 2.412m-2.478-1.563c-0.089 0.781 0.514 1.697 1.05 1.964m-1.923-1.339c-0.155 0.67 0.075 1.557 1.292 2.596 1.155 0.989 1.725 2.072 1.725 2.943s-0.366 1.286-0.67 1.479c-0.446 0.286-1.452 0.33-1.832-0.652m1.34-0.426c-0.178 0.207-0.43 0.274-0.647 0.207m-0.828 1.872c0.404-0.358 0.093-1.072-0.847-1.072-1.432 0-2.525 1.14-2.525 2.881 0 1.921 1.586 3.15 2.927 3.06m-1.834-4.133c-1.184 1.229 0.492 4.244 2.234 3.351m-0.024-4.922c-0.825-0.508-1.463 0.91-0.532 1.527 0.857 0.569 2.042-0.354 1.456-1.594m28.939 0.902c-0.401-0.358-0.091-1.072 0.85-1.072 1.43 0 2.523 1.14 2.523 2.881 0 1.921-1.584 3.15-2.925 3.06m-0.377-5.704c0.827-0.508 1.462 0.91 0.532 1.527-0.859 0.569-2.042-0.354-1.456-1.594m-26.305-0.417c0 0.938-0.503 3.148-2.664 2.781m2.664-0.753c0 1.441-3.116 3.166-4.104 0.821m3.546 0.322c0.821 0.738 0.403 2.234-0.563 2.692 0.619 0.033 1.122 0.569 1.122 1.323 0 0.452-0.2 1.307-0.972 1.323m-2.669-1.652c0.804 0.201 1.987-0.29 1.765-1.494-0.223-1.209-1.932-0.912-1.496 0.205m-0.56 2.337c0.715-0.646 2.413 0.537 2.234 3.574-0.155 2.631-2.479 3.484-3.193 3.104 0.569 0.073 0.794-0.401 0.657-0.771-0.139-0.379-0.608-0.58-1.037-0.323m0.502-0.725c0.96-0.177 1.16 0.995 0.592 1.329m0.603-1.518c0.156 0.173 0.123 0.917-0.302 1.027m1.32-1.173c-0.09 0.469-0.853 1.056-1.319 1.174m2.556-6.119c-0.267 0.401 0.116 0.886 0.626 1.45 0.827 0.917 1.094 2.858-0.291 4.557m-3.193 1.942c1.43-0.021 3.151-1.608 3.193-4.398 0.045-2.971-1.653-4.289-2.837-4.155m1.608 7.525c0.604 0.045 1.285 0.431 1.442 0.922m0.367 1.324c-1.307-1.34-4.02 0.067-3.785 2.513 0.236 2.445 2.715 4.321 8.744 4.388 3.584 0.04 5.729 1.342 5.729 2.85 0 1.094-1.218 1.651-1.597 1.585m-0.144-2.525c0.586 0.502 0.811 1.188 0.4 1.474-0.385 0.269-0.988 0.017-0.854-0.553m3.032 1.804c0.973-0.85 0.703-2.926-1.641-4.049m2.156 3.133c0.356-0.29 1.319-1.612-0.225-2.837s-5.079-2.142-8.129-1.819c-3.819 0.402-6.709-1.411-6.5-3.92 0.157-1.876 1.759-1.993 2.278-1.652 0.374 0.244 0.469 0.798 0.045 1.05m-0.597-1.191c-0.982 0.604-0.16 2.081 1.106 1.676 0.837-0.268 0.92-1.29 0.631-2.16-0.338-1.011-1.788-1.922-3.729-0.403m24.869-22.529c0.435 0.104 1.082-0.521 0.523-1.012m-6.855 0.09c0.736-0.492 0-1.006-0.47-0.715-0.469 0.291-1.652 0.423-2.322 0.423s-1.854-0.132-2.323-0.423c-0.469-0.291-1.205 0.223-0.469 0.715m5.494 1.652c-0.066 1.652-2.233 1.094-1.764-0.268 0.419-1.22 1.898-1.006 3.148-0.18-0.604-1.139 1.229-2.232 0.849-3.282-0.287-0.795-0.96-0.716-1.653-0.335-0.691 0.38-2.299 0.892-3.282 0.892-0.983 0.001-2.591-0.512-3.283-0.892-0.692-0.381-1.366-0.46-1.653 0.335-0.379 1.05 1.453 2.144 0.849 3.282 1.251-0.826 2.73-1.04 3.149 0.18 0.469 1.361-1.697 1.92-1.764 0.268m12.362-2.406c0.926-0.028 1.748 1.683-0.437 2.875-1.227 0.67-4.177 0.76-5.494-0.066-1.318-0.827-1.741-0.737-1.943-0.425-0.201 0.312 0.157 0.445 0.357 0.38m9.09-2.927c0.357 0.548 0.592 1.888-0.496 2.742m1.836-2.563c0.324 0.353 0.324 1.742-0.647 2.412m2.479-1.563c0.089 0.781-0.514 1.697-1.05 1.964m1.921-1.339c0.157 0.67-0.074 1.557-1.29 2.596-1.155 0.989-1.726 2.072-1.726 2.943s0.367 1.286 0.67 1.479c0.447 0.286 1.453 0.33 1.832-0.652m-1.339-0.426c0.178 0.207 0.43 0.274 0.646 0.207m3.106 2.608c1.183 1.229-0.49 4.244-2.234 3.351m-2.68-5.406c0 0.938 0.504 3.148 2.664 2.781m-2.664-0.753c0 1.441 3.117 3.166 4.104 0.821m-3.546 0.322c-0.82 0.738-0.402 2.234 0.564 2.692-0.619 0.033-1.123 0.569-1.123 1.323 0 0.452 0.201 1.307 0.973 1.323m2.668-1.652c-0.804 0.201-1.987-0.29-1.764-1.494 0.223-1.209 1.932-0.912 1.495 0.205m0.56 2.337c-0.715-0.646-2.412 0.537-2.234 3.574 0.156 2.631 2.48 3.484 3.194 3.104-0.569 0.073-0.794-0.401-0.659-0.771 0.139-0.379 0.609-0.58 1.039-0.323m-0.503-0.725c-0.96-0.177-1.161 0.995-0.591 1.329m-0.604-1.518c-0.156 0.173-0.122 0.917 0.302 1.027m-1.321-1.173c0.092 0.469 0.855 1.056 1.32 1.174m-2.556-6.119c0.268 0.401-0.116 0.886-0.625 1.45-0.828 0.917-1.094 2.858 0.29 4.557m3.194 1.942c-1.43-0.021-3.152-1.608-3.194-4.398-0.046-2.971 1.651-4.289 2.835-4.155m-1.606 7.525c-0.604 0.045-1.284 0.431-1.44 0.922m-0.37 1.324c1.307-1.34 4.021 0.067 3.786 2.513-0.235 2.445-2.714 4.321-8.745 4.388-3.584 0.04-5.728 1.342-5.728 2.85 0 1.094 1.217 1.651 1.597 1.585m0.145-2.525c-0.586 0.502-0.812 1.188-0.402 1.474 0.386 0.269 0.989 0.017 0.854-0.553m-3.031 1.804c-0.972-0.85-0.704-2.926 1.642-4.049m-2.156 3.133c-0.358-0.29-1.321-1.612 0.224-2.837 1.543-1.225 5.08-2.142 8.129-1.819 3.82 0.402 6.709-1.411 6.5-3.92-0.156-1.876-1.758-1.993-2.279-1.652-0.372 0.244-0.468 0.798-0.043 1.05m0.597-1.191c0.982 0.604 0.158 2.081-1.106 1.676-0.837-0.268-0.921-1.29-0.631-2.16 0.337-1.011 1.786-1.922 3.729-0.403" stroke="#000" stroke-linecap="round" stroke-width=".0708" fill="none"/>
			<path d="m84.261 26.152v19.498c0 3.148-2.244 4.455-5.226 4.372-3.367-0.096-6.3 0.15-7.035 1.457-0.737-1.307-3.669-1.553-7.035-1.457-2.981 0.083-5.226-1.224-5.226-4.372v-19.498h24.522z" fill="#E48C1A"/>
			<path stroke-linejoin="round" d="m84.261 26.152v19.498c0 3.148-2.244 4.455-5.226 4.372-3.367-0.096-6.3 0.15-7.035 1.457-0.737-1.307-3.669-1.553-7.035-1.457-2.981 0.083-5.226-1.224-5.226-4.372v-19.498h24.522v0z" stroke="#000" stroke-linecap="round" stroke-width=".0708" fill="none"/>
			<path d="m71.366 49.67v-11.133h-10.494v7.141c0 1.576 0.679 3.263 3.974 3.204 2.805-0.051 5.561-0.219 6.52 0.788z" fill="#FFE01B"/>
			<path stroke-width=".0708" d="m71.366 49.67v-11.133h-10.494v7.141c0 1.576 0.679 3.263 3.974 3.204 2.805-0.051 5.561-0.219 6.52 0.788z" stroke="#000" fill="none"/>
			<polygon points="60.872 27.343 60.872 37.525 71.331 37.525 71.331 27.343" fill="#EC174C"/>
			<polygon stroke-width=".0708" points="60.872 27.343 60.872 37.525 71.331 37.525 71.331 27.343" stroke="#000" fill="none"/>
			<polygon points="72.644 27.343 72.644 37.525 83.128 37.525 83.128 27.343" fill="#FFE01B"/>
			<polygon stroke-width=".0708" points="72.644 27.343 72.644 37.525 83.128 37.525 83.128 27.343" stroke="#000" fill="none"/>
			<path d="m72.634 49.67v-11.133h10.494v7.141c0 1.576-0.68 3.263-3.974 3.204-2.805-0.051-5.563-0.219-6.52 0.788z" fill="#FFE01B"/>
			<path stroke-width=".0708" d="m72.634 49.67v-11.133h10.494v7.141c0 1.576-0.68 3.263-3.974 3.204-2.805-0.051-5.563-0.219-6.52 0.788z" stroke="#000" fill="none"/>
			<polygon points="80.171 27.343 80.171 37.525 81.784 37.525 81.784 27.343" fill="#EC174C"/>
			<polygon stroke-width=".0708" points="80.171 27.343 80.171 37.525 81.784 37.525 81.784 27.343" stroke="#000" fill="none"/>
			<polygon points="77.112 27.343 77.112 37.525 78.726 37.525 78.726 27.343" fill="#EC174C"/>
			<polygon stroke-width=".0708" points="77.112 27.343 77.112 37.525 78.726 37.525 78.726 27.343" stroke="#000" fill="none"/>
			<polygon points="74.021 27.343 74.021 37.525 75.634 37.525 75.634 27.343" fill="#EC174C"/>
			<polygon stroke-width=".0708" points="74.021 27.343 74.021 37.525 75.634 37.525 75.634 27.343" stroke="#000" fill="none"/>
			<path d="m62.947 34.985c-0.353-0.771-0.663-1.035-1.328-0.648-0.806 0.47-0.335 1.307 0.22 1.859l0.389-0.426c-0.513-0.335-0.33-0.705-0.163-0.838 0.168-0.135 0.542-0.156 0.679 0.272l0.203-0.219z" fill="#FFE01B"/>
			<path stroke-width=".0708" d="m62.947 34.985c-0.353-0.771-0.663-1.035-1.328-0.648-0.806 0.47-0.335 1.307 0.22 1.859l0.389-0.426c-0.513-0.335-0.33-0.705-0.163-0.838 0.168-0.135 0.542-0.156 0.679 0.272l0.203-0.219z" stroke="#000" fill="none"/>
			<path d="m68.34 29.088c-1.747 1.896-4.046 4.428-6.671 7.296-0.248 0.271 0.102 0.672 0.438 0.335 0.336-0.335 4.234-4.562 6.619-7.078 0.117-0.121 0.153-0.336 0.127-0.737-0.024-0.403 0.286-0.747 0.917-0.646 0.63 0.102 0.598 0.969 0.05 0.88-0.421-0.065-0.37 0.437-0.05 0.504 0.241 0.052 0.966-0.059 0.966-0.83s-0.959-0.989-1.562-0.914c-0.605 0.074-1.025 0.344-1.16 0.353 0.092 0.109 0.226 0.226 0.354 0.243-0.117 0.117-0.37 0.344-0.454 0.369 0.082 0.081 0.259 0.199 0.426 0.225z" fill="#FFE01B"/>
			<path stroke-width=".0708" d="m68.34 29.088c-1.747 1.896-4.046 4.428-6.671 7.296-0.248 0.271 0.102 0.672 0.438 0.335 0.336-0.335 4.234-4.562 6.619-7.078 0.117-0.121 0.153-0.336 0.127-0.737-0.024-0.403 0.286-0.747 0.917-0.646 0.63 0.102 0.598 0.969 0.05 0.88-0.421-0.065-0.37 0.437-0.05 0.504 0.241 0.052 0.966-0.059 0.966-0.83s-0.959-0.989-1.562-0.914c-0.605 0.074-1.025 0.344-1.16 0.353 0.092 0.109 0.226 0.226 0.354 0.243-0.117 0.117-0.37 0.344-0.454 0.369 0.082 0.081 0.259 0.199 0.426 0.225z" stroke="#000" fill="none"/>
			<polygon points="67.198 35.293 68.66 31.385 65.72 27.812 62.778 31.385 64.241 35.293" fill="#FFE01B"/>
			<polygon stroke-width=".0708" points="67.198 35.293 68.66 31.385 65.72 27.812 62.778 31.385 64.241 35.293" stroke="#000" fill="none"/>
			<polygon points="65.534 28.937 65.534 34.656 64.711 34.656 63.467 31.469" fill="#FFE01B"/>
			<polygon stroke-width=".0708" points="65.534 28.937 65.534 34.656 64.711 34.656 63.467 31.469" stroke="#000" fill="none"/>
			<polygon points="65.903 28.937 65.903 34.656 66.728 34.656 67.97 31.469" fill="#FFE01B"/>
			<polygon stroke-width=".0708" points="65.903 28.937 65.903 34.656 66.728 34.656 67.97 31.469" stroke="#000" fill="none"/>
			<path d="m66.266 35.293h0.823c-0.017 0.681 0.244 0.849 0.513 0.982 0.269 0.135 0.706 0.225 0.882-0.453 0.193-0.746 0.545-1.652 1.57-1.442s0.891 1.445 0.556 1.735c-0.388 0.337-0.941 0.379-1.202-0.15 0.504-0.158 0.697-0.544 0.436-0.831-0.26-0.284-0.896-0.078-1.049 0.806-0.228 1.301-1.118 1.418-1.739 1.015-0.623-0.402-0.774-1.148-0.79-1.662z" fill="#FFE01B"/>
			<path stroke-width=".0708" d="m66.266 35.293h0.823c-0.017 0.681 0.244 0.849 0.513 0.982 0.269 0.135 0.706 0.225 0.882-0.453 0.193-0.746 0.545-1.652 1.57-1.442s0.891 1.445 0.556 1.735c-0.388 0.337-0.941 0.379-1.202-0.15 0.504-0.158 0.697-0.544 0.436-0.831-0.26-0.284-0.896-0.078-1.049 0.806-0.228 1.301-1.118 1.418-1.739 1.015-0.623-0.402-0.774-1.148-0.79-1.662z" stroke="#000" fill="none"/>
			<path d="m62.927 35.848c0.211 0.527 0.691 1.551 1.625 1.166 0.932-0.387 1.025-1.385 1.083-1.721h-0.873c-0.101 1.175-1.103 1.464-1.573 0.273l-0.262 0.282z" fill="#FFE01B"/>
			<path stroke-width=".0708" d="m62.927 35.848c0.211 0.527 0.691 1.551 1.625 1.166 0.932-0.387 1.025-1.385 1.083-1.721h-0.873c-0.101 1.175-1.103 1.464-1.573 0.273l-0.262 0.282z" stroke="#000" fill="none"/>
			<path d="m75.858 41.696c0.008 0.118-0.01 0.313-0.083 0.437-0.107 0.178-0.137 0.281-0.141 0.385-0.005 0.105-0.009 0.153 0.063 0.21 0.09 0.067 0.161 0.139 0.203 0.214 0.042 0.076 0.059 0.092 0.176 0.085 0.117-0.009 0.244-0.009 0.356 0.011 0.164 0.029 0.21 0.034 0.263-0.178 0.045-0.191-0.006-0.191-0.207-0.18-0.164 0.01-0.273-0.027-0.361-0.095-0.089-0.066-0.096-0.126-0.047-0.188 0.051-0.063 0.123-0.29 0.148-0.398-0.07-0.044-0.335-0.26-0.37-0.303z" fill="#EC174C"/>
			<path stroke-linejoin="round" d="m75.858 41.696c0.008 0.118-0.01 0.313-0.083 0.437-0.107 0.178-0.137 0.281-0.141 0.385-0.005 0.105-0.009 0.153 0.063 0.21 0.09 0.067 0.161 0.139 0.203 0.214 0.042 0.076 0.059 0.092 0.176 0.085 0.117-0.009 0.244-0.009 0.356 0.011 0.164 0.029 0.21 0.034 0.263-0.178 0.045-0.191-0.006-0.191-0.207-0.18-0.164 0.01-0.273-0.027-0.361-0.095-0.089-0.066-0.096-0.126-0.047-0.188 0.051-0.063 0.123-0.29 0.148-0.398-0.07-0.044-0.335-0.26-0.37-0.303v0z" stroke="#000" stroke-linecap="round" stroke-width=".0425" fill="none"/>
			<path d="m80.747 42.016c0.219 0.284 0.297 0.401 0.305 0.647 0.008 0.242-0.035 0.463-0.135 0.611-0.156 0.232-0.156 0.334-0.033 0.334 0.352 0.005 0.423 0.043 0.463-0.101 0.07-0.257 0.213-0.229 0.184-0.426s-0.043-0.528-0.014-0.797c0.029-0.268-0.036-0.402-0.138-0.554-0.102-0.151-0.236-0.628-0.177-1.054 0.418-0.331 0.408-0.799-0.143-1.103-0.336-0.183-0.789-0.158-1.277-0.024-0.487 0.135-0.982 0.159-1.369 0.145-0.387-0.02-0.723-0.06-0.915-0.145-0.194-0.083-0.606-0.074-0.816 0.034-0.209 0.11-0.326 0.125-0.571 0.091-0.242-0.033-0.522-0.109-0.604-0.266-0.047-0.089-0.012-0.23 0.039-0.319 0.057-0.101 0.127-0.187 0.188-0.245 0.077-0.071 0.045-0.161-0.138-0.056-0.155 0.089-0.295 0.227-0.354 0.361-0.059 0.135-0.194 0.191-0.25 0.164-0.055-0.024-0.109-0.024-0.188-0.012-0.165 0.027-0.181 0.029-0.264-0.101-0.085-0.13-0.332-0.339-0.542-0.387-0.211-0.045-0.253 0.013-0.106 0.131 0.146 0.115 0.294 0.25 0.396 0.387s0.128 0.122 0.092 0.215c-0.039 0.093-0.096 0.225-0.104 0.312-0.021 0.23-0.13 0.369-0.214 0.469-0.084 0.102-0.056 0.173 0.037 0.253 0.093 0.079 0.173 0.062 0.219 0.125 0.047 0.063 0.109 0.189 0.252 0.105s0.318-0.159 0.366-0.222c0.045-0.062 0.23-0.101 0.339 0.029 0.283 0.33 0.199 0.629 0.375 0.862 0.176 0.236 0.419 0.753 1.201 0.702s1.428 0.149 1.975-0.019c0.219-0.065 0.554-0.192 0.748-0.209 0.194 0.13 0.399 0.216 0.604 0.229-0.072 0.283-0.31 0.626-0.482 0.756-0.173 0.13-0.361 0.428-0.361 0.57 0 0.144 0.061 0.101 0.219 0.093 0.106-0.006 0.261-0.017 0.344-0.012 0.084 0.003 0.133-0.003 0.105-0.168-0.021-0.124-0.006-0.18 0.092-0.269 0.214-0.193 0.551-0.806 0.652-1.136z" fill="#EC174C"/>
			<path stroke-linejoin="round" d="m80.747 42.016c0.219 0.284 0.297 0.401 0.305 0.647 0.008 0.242-0.035 0.463-0.135 0.611-0.156 0.232-0.156 0.334-0.033 0.334 0.352 0.005 0.423 0.043 0.463-0.101 0.07-0.257 0.213-0.229 0.184-0.426s-0.043-0.528-0.014-0.797c0.029-0.268-0.036-0.402-0.138-0.554-0.102-0.151-0.236-0.628-0.177-1.054 0.418-0.331 0.408-0.799-0.143-1.103-0.336-0.183-0.789-0.158-1.277-0.024-0.487 0.135-0.982 0.159-1.369 0.145-0.387-0.02-0.723-0.06-0.915-0.145-0.194-0.083-0.606-0.074-0.816 0.034-0.209 0.11-0.326 0.125-0.571 0.091-0.242-0.033-0.522-0.109-0.604-0.266-0.047-0.089-0.012-0.23 0.039-0.319 0.057-0.101 0.127-0.187 0.188-0.245 0.077-0.071 0.045-0.161-0.138-0.056-0.155 0.089-0.295 0.227-0.354 0.361-0.059 0.135-0.194 0.191-0.25 0.164-0.055-0.024-0.109-0.024-0.188-0.012-0.165 0.027-0.181 0.029-0.264-0.101-0.085-0.13-0.332-0.339-0.542-0.387-0.211-0.045-0.253 0.013-0.106 0.131 0.146 0.115 0.294 0.25 0.396 0.387s0.128 0.122 0.092 0.215c-0.039 0.093-0.096 0.225-0.104 0.312-0.021 0.23-0.13 0.369-0.214 0.469-0.084 0.102-0.056 0.173 0.037 0.253 0.093 0.079 0.173 0.062 0.219 0.125 0.047 0.063 0.109 0.189 0.252 0.105s0.318-0.159 0.366-0.222c0.045-0.062 0.23-0.101 0.339 0.029 0.283 0.33 0.199 0.629 0.375 0.862 0.176 0.236 0.419 0.753 1.201 0.702s1.428 0.149 1.975-0.019c0.219-0.065 0.554-0.192 0.748-0.209 0.194 0.13 0.399 0.216 0.604 0.229-0.072 0.283-0.31 0.626-0.482 0.756-0.173 0.13-0.361 0.428-0.361 0.57 0 0.144 0.061 0.101 0.219 0.093 0.106-0.006 0.261-0.017 0.344-0.012 0.084 0.003 0.133-0.003 0.105-0.168-0.021-0.124-0.006-0.18 0.092-0.269 0.214-0.193 0.551-0.806 0.652-1.136v0z" stroke="#000" stroke-linecap="round" stroke-width=".0425" fill="none"/>
			<path d="m76.389 41.168c0.042 0.31 0.556 0.662 0.622 1.165s0.099 1.011 0.057 1.159c-0.062 0.216-0.06 0.268 0.161 0.259 0.233-0.009 0.312-0.009 0.252-0.126-0.058-0.117-0.058-0.283 0.051-0.41 0.021-0.025 0.032-0.076 0.003-0.168s-0.078-0.406-0.058-0.688c0.021-0.282-0.038-0.432 0.055-0.634s0.251-0.521 0.243-0.616" fill="#EC174C"/>
			<path stroke-linejoin="round" d="m76.389 41.168c0.042 0.31 0.556 0.662 0.622 1.165s0.099 1.011 0.057 1.159c-0.062 0.216-0.06 0.268 0.161 0.259 0.233-0.009 0.312-0.009 0.252-0.126-0.058-0.117-0.058-0.283 0.051-0.41 0.021-0.025 0.032-0.076 0.003-0.168s-0.078-0.406-0.058-0.688c0.021-0.282-0.038-0.432 0.055-0.634s0.251-0.521 0.243-0.616" stroke="#000" stroke-linecap="round" stroke-width=".0425" fill="none"/>
			<path d="m74.947 39.738c-0.12-0.006-0.206 0.063-0.229 0.172-0.013 0.049-0.014 0.062 0.083 0.05 0.096-0.013 0.165-0.055 0.185-0.113 0.021-0.058 0.025-0.107-0.039-0.109z"/>
			<path d="m75.71 46.467c-0.042 0.154-0.257 0.502-0.342 0.594-0.084 0.094-0.101 0.148-0.092 0.319 0.008 0.173 0.037 0.281 0.105 0.452 0.066 0.173 0.221 0.274 0.361 0.236 0.138-0.039 0.271-0.066 0.395-0.073 0.225-0.012 0.251-0.032 0.206-0.255-0.048-0.222-0.09-0.235-0.194-0.181-0.105 0.056-0.209 0.087-0.336 0.056-0.067-0.016-0.079-0.083-0.096-0.219-0.014-0.096 0.02-0.135 0.096-0.209 0.097-0.091 0.193-0.219 0.236-0.383-0.062-0.082-0.284-0.291-0.339-0.337z" fill="#EC174C"/>
			<path stroke-linejoin="round" d="m75.71 46.467c-0.042 0.154-0.257 0.502-0.342 0.594-0.084 0.094-0.101 0.148-0.092 0.319 0.008 0.173 0.037 0.281 0.105 0.452 0.066 0.173 0.221 0.274 0.361 0.236 0.138-0.039 0.271-0.066 0.395-0.073 0.225-0.012 0.251-0.032 0.206-0.255-0.048-0.222-0.09-0.235-0.194-0.181-0.105 0.056-0.209 0.087-0.336 0.056-0.067-0.016-0.079-0.083-0.096-0.219-0.014-0.096 0.02-0.135 0.096-0.209 0.097-0.091 0.193-0.219 0.236-0.383-0.062-0.082-0.284-0.291-0.339-0.337v0z" stroke="#000" stroke-linecap="round" stroke-width=".0425" fill="none"/>
			<path d="m79.819 47.082c-0.219-0.004-0.434-0.12-0.632-0.297-0.21 0.062-0.706 0.242-1.235 0.293s-1.037-0.021-1.227-0.104c-0.156-0.068-0.37-0.071-0.483-0.055-0.113 0.017-0.188-0.032-0.257-0.126-0.066-0.092-0.21-0.227-0.439-0.398-0.232-0.171-0.471-0.452-0.635-0.784-0.029-0.058-0.197-0.055-0.24-0.051-0.041 0.005-0.1 0-0.159-0.033-0.06-0.033-0.151 0.012-0.216 0.072-0.071 0.067-0.209 0.09-0.27 0.044-0.06-0.048-0.113-0.051-0.209-0.202-0.098-0.15-0.025-0.242 0.116-0.461 0.106-0.161 0.134-0.421 0.225-0.563 0.111-0.173 0.078-0.224-0.271-0.479-0.093-0.069-0.299-0.163-0.425-0.28-0.127-0.118-0.127-0.127 0.045-0.13 0.291-0.004 0.708 0.197 0.858 0.382 0.122 0.15 0.089 0.125 0.214 0.117 0.063-0.004 0.177-0.018 0.24 0.013 0.062 0.029 0.099-0.023 0.218-0.139 0.14-0.137 0.355-0.484 0.581-0.601 0.131-0.066 0.195-0.095 0.17 0.081-0.024 0.176-0.153 0.389-0.361 0.582-0.158 0.149-0.162 0.197-0.07 0.197s0.327 0.127 0.428 0.21c0.101 0.084 0.252 0.051 0.446 0 0.192-0.05 1.101-0.101 1.521 0s1.242-0.018 1.73-0.059c0.486-0.042 1.26-0.192 1.588 0.276 0.327 0.471 0.243 0.788-0.135 1.024 0.05 0.135 0.135 0.462 0.151 0.672 0.033 0.443 0.253 0.646 0.319 1.157 0.042 0.335-0.152 0.486-0.227 0.493-0.076 0.01-0.065 0.101-0.039 0.303 0.025 0.202-0.057 0.164-0.29 0.176-0.251 0.015-0.276 0.009-0.276-0.125 0-0.135 0.115-0.274 0.276-0.671 0.179-0.439 0.033-0.591-0.245-0.765-0.041 0.144-0.145 0.299-0.283 0.416-0.139 0.118-0.234 0.332-0.234 0.495 0 0.164-0.098 0.164-0.173 0.156-0.075-0.01-0.123 0.029-0.097 0.205 0.024 0.178-0.026 0.23-0.125 0.223-0.102-0.009-0.149 0.013-0.317 0.013-0.167 0-0.071-0.168-0.05-0.279 0.021-0.104 0.156-0.321 0.299-0.531 0.144-0.21 0.186-0.358 0.195-0.467z" fill="#EC174C"/>
			<path stroke-linejoin="round" d="m79.819 47.082c-0.219-0.004-0.434-0.12-0.632-0.297-0.21 0.062-0.706 0.242-1.235 0.293s-1.037-0.021-1.227-0.104c-0.156-0.068-0.37-0.071-0.483-0.055-0.113 0.017-0.188-0.032-0.257-0.126-0.066-0.092-0.21-0.227-0.439-0.398-0.232-0.171-0.471-0.452-0.635-0.784-0.029-0.058-0.197-0.055-0.24-0.051-0.041 0.005-0.1 0-0.159-0.033-0.06-0.033-0.151 0.012-0.216 0.072-0.071 0.067-0.209 0.09-0.27 0.044-0.06-0.048-0.113-0.051-0.209-0.202-0.098-0.15-0.025-0.242 0.116-0.461 0.106-0.161 0.134-0.421 0.225-0.563 0.111-0.173 0.078-0.224-0.271-0.479-0.093-0.069-0.299-0.163-0.425-0.28-0.127-0.118-0.127-0.127 0.045-0.13 0.291-0.004 0.708 0.197 0.858 0.382 0.122 0.15 0.089 0.125 0.214 0.117 0.063-0.004 0.177-0.018 0.24 0.013 0.062 0.029 0.099-0.023 0.218-0.139 0.14-0.137 0.355-0.484 0.581-0.601 0.131-0.066 0.195-0.095 0.17 0.081-0.024 0.176-0.153 0.389-0.361 0.582-0.158 0.149-0.162 0.197-0.07 0.197s0.327 0.127 0.428 0.21c0.101 0.084 0.252 0.051 0.446 0 0.192-0.05 1.101-0.101 1.521 0s1.242-0.018 1.73-0.059c0.486-0.042 1.26-0.192 1.588 0.276 0.327 0.471 0.243 0.788-0.135 1.024 0.05 0.135 0.135 0.462 0.151 0.672 0.033 0.443 0.253 0.646 0.319 1.157 0.042 0.335-0.152 0.486-0.227 0.493-0.076 0.01-0.065 0.101-0.039 0.303 0.025 0.202-0.057 0.164-0.29 0.176-0.251 0.015-0.276 0.009-0.276-0.125 0-0.135 0.115-0.274 0.276-0.671 0.179-0.439 0.033-0.591-0.245-0.765-0.041 0.144-0.145 0.299-0.283 0.416-0.139 0.118-0.234 0.332-0.234 0.495 0 0.164-0.098 0.164-0.173 0.156-0.075-0.01-0.123 0.029-0.097 0.205 0.024 0.178-0.026 0.23-0.125 0.223-0.102-0.009-0.149 0.013-0.317 0.013-0.167 0-0.071-0.168-0.05-0.279 0.021-0.104 0.156-0.321 0.299-0.531 0.144-0.21 0.186-0.358 0.195-0.467v0z" stroke="#000" stroke-linecap="round" stroke-width=".0425" fill="none"/>
			<path d="m76.347 46.123c0.238 0.264 0.422 0.485 0.43 0.687s0.158 0.327 0.142 0.696c-0.015 0.369 0.013 0.559-0.015 0.662-0.045 0.157-0.084 0.274 0.008 0.27 0.125-0.008 0.264-0.021 0.344-0.014 0.08 0.009 0.097-0.026 0.043-0.142-0.049-0.103-0.051-0.218 0-0.277 0.049-0.06 0.054-0.176 0.023-0.322-0.029-0.147-0.049-0.517-0.032-0.649 0.017-0.135-0.051-0.4 0.054-0.56 0.104-0.158 0.16-0.406 0.152-0.526" fill="#EC174C"/>
			<path stroke-linejoin="round" d="m76.347 46.123c0.238 0.264 0.422 0.485 0.43 0.687s0.158 0.327 0.142 0.696c-0.015 0.369 0.013 0.559-0.015 0.662-0.045 0.157-0.084 0.274 0.008 0.27 0.125-0.008 0.264-0.021 0.344-0.014 0.08 0.009 0.097-0.026 0.043-0.142-0.049-0.103-0.051-0.218 0-0.277 0.049-0.06 0.054-0.176 0.023-0.322-0.029-0.147-0.049-0.517-0.032-0.649 0.017-0.135-0.051-0.4 0.054-0.56 0.104-0.158 0.16-0.406 0.152-0.526" stroke="#000" stroke-linecap="round" stroke-width=".0425" fill="none"/>
			<path d="m74.743 44.607c-0.084 0-0.207 0.102-0.231 0.156s0.021 0.097 0.114 0.075c0.092-0.021 0.146-0.097 0.163-0.168 0.017-0.07-0.009-0.063-0.046-0.063z"/>
			<path d="m63.282 48.748v-10.211h-1.158v9.761c0.309 0.195 0.691 0.348 1.158 0.45z" fill="#EC174C"/>
			<path stroke-width=".0708" d="m63.282 48.748v-10.211h-1.158v9.761c0.309 0.195 0.691 0.348 1.158 0.45z" stroke="#000" fill="none"/>
			<path d="m64.846 48.882c0.253-0.005 0.505-0.011 0.756-0.016v-10.329h-1.159v10.342c0.13 0.005 0.263 0.005 0.403 0.003z" fill="#EC174C"/>
			<path stroke-width=".0708" d="m64.846 48.882c0.253-0.005 0.505-0.011 0.756-0.016v-10.329h-1.159v10.342c0.13 0.005 0.263 0.005 0.403 0.003z" stroke="#000" fill="none"/>
			<path d="m67.921 48.844v-10.307h-1.159v10.307c0.397-0.005 0.786-0.007 1.159 0z" fill="#EC174C"/>
			<path stroke-width=".0708" d="m67.921 48.844v-10.307h-1.159v10.307c0.397-0.005 0.786-0.007 1.159 0z" stroke="#000" fill="none"/>
			<path d="m70.239 49.09v-10.553h-1.158v10.364c0.426 0.039 0.817 0.097 1.158 0.189z" fill="#EC174C"/>
			<path stroke-width=".0708" d="m70.239 49.09v-10.553h-1.158v10.364c0.426 0.039 0.817 0.097 1.158 0.189z" stroke="#000" fill="none"/>
			<path d="m59.718 49.819c-0.003-0.151-0.029-0.163-0.109-0.202l0.02-0.045 0.685 0.277-0.018 0.043c-0.091-0.029-0.235-0.08-0.233 0.104l0.004 0.93 0.627-0.656c0.154-0.169 0.012-0.21-0.086-0.251l0.018-0.047 0.442 0.179-0.019 0.045c-0.086-0.027-0.101-0.047-0.203 0.066l-1.055 1.109-0.066-0.027-0.007-1.525z"/>
			<path d="m61.157 51.656c-0.047 0.125 0.051 0.197 0.14 0.247l-0.017 0.044-0.753-0.282 0.017-0.044c0.1 0.019 0.221 0.031 0.269-0.095l0.403-1.077c0.047-0.127-0.053-0.196-0.141-0.247l0.018-0.044 0.751 0.283-0.016 0.042c-0.101-0.021-0.221-0.03-0.269 0.096l-0.402 1.077z"/>
			<path d="m63.202 52.598l0.014-0.045c0.086 0.008 0.188 0.008 0.227-0.125l0.368-1.239-0.077-0.022c-0.153-0.046-0.385 0.034-0.452 0.26l-0.048-0.014 0.132-0.443 1.288 0.382-0.133 0.444-0.047-0.016c0.066-0.225-0.083-0.418-0.236-0.463l-0.078-0.022-0.366 1.238c-0.04 0.131 0.044 0.188 0.118 0.228l-0.014 0.045-0.696-0.208z"/>
			<path d="m64.797 51.592c-0.023-0.148-0.051-0.157-0.136-0.185l0.012-0.046 0.717 0.176-0.01 0.047c-0.095-0.018-0.245-0.048-0.217 0.135l0.135 0.92 0.528-0.737c0.128-0.189-0.019-0.21-0.12-0.236l0.012-0.048 0.461 0.115-0.012 0.046c-0.088-0.016-0.105-0.032-0.191 0.093l-0.888 1.248-0.069-0.018-0.222-1.51z"/>
			<path d="m66.522 51.869c-0.093-0.011-0.213 0.01-0.248 0.181-0.033 0.169 0.057 0.271 0.299 0.426 0.178 0.115 0.329 0.298 0.275 0.571-0.081 0.398-0.452 0.379-0.604 0.349-0.098-0.021-0.243-0.069-0.327-0.128-0.048-0.031-0.057-0.04-0.108 0.025l-0.045-0.01 0.107-0.53 0.045 0.009c-0.02 0.283 0.111 0.528 0.343 0.576 0.193 0.037 0.308-0.088 0.325-0.185 0.031-0.149-0.068-0.266-0.283-0.414-0.189-0.133-0.342-0.323-0.294-0.562 0.062-0.306 0.278-0.425 0.529-0.374 0.136 0.027 0.248 0.1 0.309 0.142 0.056 0.045 0.08 0.023 0.13-0.058l0.045 0.01-0.098 0.484-0.045-0.01c-0.028-0.353-0.206-0.486-0.355-0.502z"/>
			<path d="m67.757 52.224c-0.041-0.143-0.068-0.15-0.155-0.168l0.007-0.048 0.732 0.097-0.007 0.05c-0.095-0.008-0.248-0.023-0.2 0.156l0.236 0.899 0.443-0.79c0.107-0.201-0.04-0.207-0.146-0.223l0.008-0.048 0.47 0.062-0.006 0.048c-0.089-0.006-0.108-0.021-0.181 0.113l-0.746 1.338-0.07-0.01-0.385-1.476z"/>
			<path d="m69.278 52.297c-0.021-0.033-0.05-0.027-0.072-0.029l0.004-0.049 0.487 0.035 0.726 1.07 0.057-0.784c0.01-0.134-0.078-0.171-0.178-0.194l0.006-0.049 0.432 0.031-0.004 0.047c-0.1 0.002-0.171 0.037-0.18 0.171l-0.098 1.373-0.078-0.005-0.915-1.347-0.075 1.047c-0.009 0.135 0.078 0.173 0.178 0.197l-0.004 0.045-0.452-0.032 0.003-0.046c0.102-0.01 0.191-0.034 0.201-0.169l0.08-1.141-0.118-0.171z"/>
			<path d="m71.408 53.713c-0.001 0.137 0.113 0.17 0.215 0.188l-0.001 0.046-0.804-0.015 0.001-0.046c0.1-0.015 0.219-0.044 0.221-0.179l0.021-1.149c0.003-0.136-0.116-0.169-0.215-0.188l0.001-0.046 0.805 0.016-0.001 0.045c-0.102 0.015-0.219 0.045-0.222 0.179l-0.021 1.149z"/>
			<path d="m72.116 53.945v-0.047c0.084-0.02 0.18-0.052 0.176-0.188l-0.031-1.293-0.08 0.003c-0.16 0.004-0.355 0.15-0.35 0.386l-0.05 0.001-0.012-0.461 1.343-0.033 0.012 0.462-0.051 0.001c-0.006-0.235-0.207-0.373-0.368-0.369l-0.08 0.003 0.032 1.291c0.003 0.138 0.099 0.165 0.184 0.181l0.002 0.047-0.727 0.016z"/>
			<path d="m73.511 53.321l-0.133 0.008c0.12-0.378 0.186-0.583 0.186-0.583s0.008 0.023 0.262 0.555l-0.315 0.02 0.012 0.099 0.349-0.021c0.034 0.068 0.069 0.144 0.108 0.229 0.059 0.146-0.039 0.173-0.191 0.206l0.003 0.045 0.757-0.047-0.002-0.048c-0.157-0.013-0.173-0.099-0.215-0.191-0.598-1.258-0.629-1.318-0.629-1.318l-0.08 0.005s-0.005 0.014-0.457 1.402c-0.038 0.1-0.104 0.188-0.176 0.203l0.004 0.046 0.457-0.029-0.002-0.046c-0.13-0.021-0.234-0.026-0.174-0.214 0.026-0.073 0.049-0.146 0.07-0.21l0.178-0.012-0.012-0.099z"/>
			<path d="m75.187 53.769l-0.006-0.048c0.098-0.029 0.212-0.077 0.194-0.211l-0.149-1.137c-0.016-0.134-0.138-0.15-0.24-0.154l-0.006-0.046 1.337-0.174 0.063 0.495-0.06 0.008c-0.04-0.307-0.308-0.39-0.452-0.371-0.07 0.009-0.154 0.021-0.215 0.027-0.049 0.008-0.075 0.033-0.057 0.166 0.012 0.098 0.066 0.521 0.066 0.521 0.09-0.012 0.322-0.009 0.334-0.38l0.047-0.005 0.102 0.783-0.057 0.008c-0.083-0.398-0.325-0.335-0.414-0.324l0.068 0.535c0.018 0.134 0.119 0.152 0.203 0.157l0.008 0.048-0.766 0.102z"/>
			<path d="m77.423 53.387c0.249-0.045 0.328-0.4 0.254-0.809s-0.271-0.716-0.521-0.671c-0.249 0.045-0.33 0.4-0.255 0.811 0.074 0.409 0.272 0.714 0.522 0.669l0.008 0.051c-0.482 0.088-0.817-0.217-0.896-0.652-0.079-0.438 0.129-0.842 0.613-0.929 0.481-0.088 0.817 0.218 0.895 0.655 0.08 0.438-0.127 0.842-0.611 0.926l-0.009-0.051z"/>
			<path d="m78.655 52.357l-0.138-0.594c-0.017-0.069 0.038-0.11 0.131-0.137 0.153-0.039 0.298 0.059 0.347 0.268 0.049 0.208 0.025 0.366-0.34 0.463l0.014 0.055s0.023-0.004 0.059-0.013l0.643 0.632 0.428-0.098-0.01-0.046c-0.035 0.006-0.062 0.003-0.081-0.012l-0.608-0.596c0.193-0.101 0.307-0.254 0.258-0.464-0.068-0.292-0.373-0.346-0.726-0.263l-0.729 0.169 0.01 0.047c0.101-0.006 0.224-0.002 0.254 0.129l0.26 1.118c0.031 0.132-0.045 0.182-0.139 0.221l0.01 0.045 0.721-0.167-0.012-0.046c-0.084 0.004-0.186-0.006-0.216-0.138l-0.12-0.52-0.016-0.053z"/>
			<path d="m80.159 52.833l-0.014-0.045c0.076-0.039 0.162-0.096 0.125-0.227l-0.348-1.245-0.078 0.023c-0.152 0.042-0.307 0.233-0.242 0.46l-0.048 0.014-0.125-0.446 1.292-0.36 0.125 0.445-0.048 0.013c-0.062-0.226-0.292-0.31-0.448-0.267l-0.075 0.021 0.347 1.244c0.036 0.132 0.137 0.135 0.223 0.131l0.012 0.045-0.698 0.194z"/>
			<path d="m81.854 52.09c0.042 0.129 0.162 0.124 0.263 0.109l0.015 0.043-0.766 0.246-0.015-0.045c0.09-0.045 0.192-0.112 0.152-0.24l-0.351-1.095c-0.041-0.129-0.164-0.123-0.264-0.107l-0.013-0.045 0.765-0.245 0.014 0.044c-0.091 0.048-0.192 0.112-0.151 0.241l0.351 1.094z"/>
			<path d="m82.952 51.904c0.238-0.085 0.258-0.448 0.118-0.84-0.14-0.393-0.385-0.661-0.622-0.576-0.24 0.085-0.26 0.449-0.121 0.841 0.141 0.393 0.385 0.661 0.625 0.575l0.018 0.05c-0.461 0.164-0.844-0.081-0.993-0.499-0.149-0.42-0.009-0.852 0.454-1.017 0.461-0.165 0.841 0.083 0.99 0.502 0.149 0.417 0.012 0.849-0.451 1.014l-0.018-0.05z"/>
			<path d="m84.019 50.686c0.346-0.152 0.344-0.312 0.267-0.511-0.081-0.197-0.237-0.272-0.384-0.21-0.089 0.04-0.135 0.09-0.109 0.154l0.226 0.567 0.023 0.053 0.198 0.495c0.05 0.126 0.149 0.12 0.233 0.103l0.018 0.043-0.686 0.275-0.018-0.043c0.088-0.053 0.154-0.114 0.104-0.239l-0.426-1.065c-0.051-0.126-0.174-0.11-0.271-0.088l-0.018-0.045 0.697-0.28c0.333-0.135 0.643-0.129 0.755 0.149 0.08 0.2-0.007 0.368-0.183 0.499l0.691 0.493c0.021 0.015 0.049 0.012 0.08 0l0.018 0.044-0.406 0.163-0.732-0.526c-0.033 0.014-0.055 0.021-0.055 0.021l-0.022-0.052z"/>
			<path d="m62.062 50.77c0.045-0.128-0.059-0.196-0.146-0.244l0.015-0.045 0.71 0.24c0.343 0.117 0.573 0.322 0.478 0.607-0.069 0.203-0.245 0.275-0.464 0.259l0.203 0.826c0.006 0.023 0.029 0.039 0.061 0.053l-0.015 0.045-0.413-0.141-0.216-0.878c-0.032-0.011-0.056-0.021-0.056-0.021l0.02-0.054c0.359 0.109 0.464-0.013 0.533-0.216 0.068-0.2-0.003-0.361-0.154-0.407-0.094-0.028-0.16-0.021-0.184 0.046l-0.386 1.137c-0.044 0.128 0.036 0.188 0.11 0.23l-0.014 0.044-0.699-0.239 0.014-0.042c0.102 0.018 0.191 0.015 0.234-0.113l0.369-1.087z"/>
			<path stroke-linejoin="round" d="m80.909 44.855c0.042 0.217-0.048 0.435-0.317 0.469-0.269 0.033-0.792-0.033-1.061-0.242-0.269-0.21-0.618 0.029-0.697 0.168-0.071 0.123-0.103 0.276-0.106 0.406 0.061-0.142 0.274-0.271 0.409-0.31-0.281 0.104-0.519 0.306-0.407 0.558 0.02 0.044 0.039 0.096 0.088-0.025 0.05-0.121 0.256-0.287 0.459-0.336 0.225-0.053 0.751-0.017 0.994 0.059 0.195 0.061 0.473 0.115 0.664 0.009m-0.331 1.24c-0.277-0.171-1.05-0.575-1.067-1.052m-0.349 0.986c0.146-0.053 0.61-0.242 0.768-0.359m-0.137 0.656c0.231-0.002 0.474-0.124 0.619-0.33m0.722-6.7c0.048 0.372-0.386 0.503-0.681 0.495-0.294-0.008-0.445-0.041-0.713-0.185-0.27-0.143-0.682 0.076-0.731 0.294-0.051 0.218-0.142 0.281-0.134 0.407 0.15-0.159 0.394-0.298 0.517-0.286 0.12 0.013 0.209 0.025 0.302-0.012 0.093-0.038 0.158-0.033 0.273 0.004 0.352 0.11 0.863 0.122 1.209-0.094m-1.293 0.216c0.064 0.805 0.68 0.86 0.838 1.125-0.146 0.117-0.358 0.192-0.57 0.17m-0.604-0.23c0.224-0.039 0.484-0.268 0.577-0.444m-1.249-0.449c0.029-0.088 0.15-0.276 0.213-0.331" stroke="#000" stroke-linecap="round" stroke-width=".0425" fill="none"/>
			<path d="m74.957 41.696c-0.01-0.225 0.028-0.335 0.13-0.454 0.18-0.207 0.205-0.308 0.327-0.628 0.093-0.246 0.327-0.667 0.505-0.944 0.027-0.042 0.033-0.116 0.195-0.062 0.164 0.056 0.166 0.042 0.074 0.221-0.093 0.182-0.365 0.512-0.479 0.738-0.177 0.353-0.17 0.535-0.161 0.744 0.009 0.21-0.016 0.319-0.032 0.429-0.016 0.108-0.066 0.181-0.33 0.133-0.22-0.039-0.224-0.055-0.229-0.177z" fill="#004FA2"/>
			<path stroke-linejoin="round" d="m74.957 41.696c-0.01-0.225 0.028-0.335 0.13-0.454 0.18-0.207 0.205-0.308 0.327-0.628 0.093-0.246 0.327-0.667 0.505-0.944 0.027-0.042 0.033-0.116 0.195-0.062 0.164 0.056 0.166 0.042 0.074 0.221-0.093 0.182-0.365 0.512-0.479 0.738-0.177 0.353-0.17 0.535-0.161 0.744 0.009 0.21-0.016 0.319-0.032 0.429-0.016 0.108-0.066 0.181-0.33 0.133-0.22-0.039-0.224-0.055-0.229-0.177v0z" stroke="#000" stroke-linecap="round" stroke-width=".0425" fill="none"/>
			<path d="m76.434 43.037c0.164 0.028 0.21 0.034 0.263-0.178 0.041-0.178 0.002-0.191-0.166-0.183-0.037 0.003-0.047 0.06-0.075 0.177-0.029 0.117-0.066 0.177-0.022 0.184z" fill="#004FA2"/>
			<path stroke-width=".0425" d="m76.434 43.037c0.164 0.028 0.21 0.034 0.263-0.178 0.041-0.178 0.002-0.191-0.166-0.183-0.037 0.003-0.047 0.06-0.075 0.177-0.029 0.117-0.066 0.177-0.022 0.184z" stroke="#000" fill="none"/>
			<path d="m80.001 43.425c0.012 0.168-0.021 0.171-0.105 0.168-0.083-0.005-0.238 0.006-0.344 0.012-0.158 0.008-0.219 0.051-0.219-0.093 0-0.034 0.01-0.076 0.029-0.121 0.028-0.064 0.125-0.041 0.275-0.035 0.151 0.005 0.357-0.032 0.364 0.069z" fill="#004FA2"/>
			<path stroke-width=".0425" d="m80.001 43.425c0.012 0.168-0.021 0.171-0.105 0.168-0.083-0.005-0.238 0.006-0.344 0.012-0.158 0.008-0.219 0.051-0.219-0.093 0-0.034 0.01-0.076 0.029-0.121 0.028-0.064 0.125-0.041 0.275-0.035 0.151 0.005 0.357-0.032 0.364 0.069z" stroke="#000" fill="none"/>
			<path d="m81.347 43.506c-0.04 0.144-0.111 0.106-0.463 0.101-0.103 0-0.123-0.072-0.031-0.231 0.025-0.041 0.08-0.003 0.238 0.014 0.156 0.016 0.283 0.016 0.256 0.116z" fill="#004FA2"/>
			<path stroke-width=".0425" d="m81.347 43.506c-0.04 0.144-0.111 0.106-0.463 0.101-0.103 0-0.123-0.072-0.031-0.231 0.025-0.041 0.08-0.003 0.238 0.014 0.156 0.016 0.283 0.016 0.256 0.116z" stroke="#000" fill="none"/>
			<path d="m77.452 43.545c0.008 0.027 0.016 0.056 0.028 0.08 0.06 0.117-0.019 0.117-0.252 0.126-0.2 0.008-0.224-0.034-0.177-0.203 0.013-0.049 0.085-0.013 0.197-0.013s0.194-0.024 0.204 0.01z" fill="#004FA2"/>
			<path stroke-width=".0425" d="m77.452 43.545c0.008 0.027 0.016 0.056 0.028 0.08 0.06 0.117-0.019 0.117-0.252 0.126-0.2 0.008-0.224-0.034-0.177-0.203 0.013-0.049 0.085-0.013 0.197-0.013s0.194-0.024 0.204 0.01z" stroke="#000" fill="none"/>
			<path d="m75.483 39.312c0-0.076 0.029-0.162 0.062-0.224 0.057-0.101 0.127-0.187 0.188-0.245 0.077-0.071 0.045-0.161-0.138-0.056-0.155 0.089-0.295 0.227-0.354 0.361-0.012 0.027-0.026 0.052-0.045 0.073-0.055 0.09 0.024 0.123 0.096 0.147 0.074 0.023 0.187 0.068 0.191-0.056z" fill="#004FA2"/>
			<path stroke-width=".0425" d="m75.483 39.312c0-0.076 0.029-0.162 0.062-0.224 0.057-0.101 0.127-0.187 0.188-0.245 0.077-0.071 0.045-0.161-0.138-0.056-0.155 0.089-0.295 0.227-0.354 0.361-0.012 0.027-0.026 0.052-0.045 0.073-0.055 0.09 0.024 0.123 0.096 0.147 0.074 0.023 0.187 0.068 0.191-0.056z" stroke="#000" fill="none"/>
			<path d="m74.679 39.317c-0.057-0.003-0.084-0.031-0.138-0.116-0.085-0.13-0.332-0.339-0.542-0.387-0.211-0.045-0.253 0.013-0.106 0.131 0.146 0.115 0.294 0.25 0.396 0.387 0.076 0.104 0.109 0.121 0.106 0.163 0.023-0.05 0.184-0.169 0.284-0.178z" fill="#004FA2"/>
			<path stroke-width=".0425" d="m74.679 39.317c-0.057-0.003-0.084-0.031-0.138-0.116-0.085-0.13-0.332-0.339-0.542-0.387-0.211-0.045-0.253 0.013-0.106 0.131 0.146 0.115 0.294 0.25 0.396 0.387 0.076 0.104 0.109 0.121 0.106 0.163 0.023-0.05 0.184-0.169 0.284-0.178z" stroke="#000" fill="none"/>
			<path d="m75.8 44.436c-0.104 0.266-0.347 0.719-0.529 0.959-0.355 0.467-0.511 0.619-0.553 0.854-0.042 0.234-0.042 0.365 0.088 0.365s0.248-0.005 0.34 0.004c0.092 0.008 0.139-0.105 0.113-0.281-0.025-0.175-0.066-0.367 0.023-0.475 0.395-0.469 0.715-0.848 0.867-1.325 0.06-0.183 0-0.184-0.143-0.176-0.119 0.008-0.161-0.036-0.206 0.075z" fill="#004FA2"/>
			<path stroke-linejoin="round" d="m75.8 44.436c-0.104 0.266-0.347 0.719-0.529 0.959-0.355 0.467-0.511 0.619-0.553 0.854-0.042 0.234-0.042 0.365 0.088 0.365s0.248-0.005 0.34 0.004c0.092 0.008 0.139-0.105 0.113-0.281-0.025-0.175-0.066-0.367 0.023-0.475 0.395-0.469 0.715-0.848 0.867-1.325 0.06-0.183 0-0.184-0.143-0.176-0.119 0.008-0.161-0.036-0.206 0.075v0z" stroke="#000" stroke-linecap="round" stroke-width=".0425" fill="none"/>
			<path d="m75.308 44.096c0.023-0.025 0.056-0.074 0.119-0.134 0.208-0.193 0.337-0.406 0.361-0.582 0.025-0.176-0.039-0.148-0.17-0.081-0.226 0.116-0.441 0.464-0.581 0.601-0.045 0.044-0.08 0.077-0.106 0.104-0.043 0.043 0.017 0.127 0.095 0.162 0.078 0.032 0.217 0.002 0.282-0.07z" fill="#004FA2"/>
			<path stroke-width=".0425" d="m75.308 44.096c0.023-0.025 0.056-0.074 0.119-0.134 0.208-0.193 0.337-0.406 0.361-0.582 0.025-0.176-0.039-0.148-0.17-0.081-0.226 0.116-0.441 0.464-0.581 0.601-0.045 0.044-0.08 0.077-0.106 0.104-0.043 0.043 0.017 0.127 0.095 0.162 0.078 0.032 0.217 0.002 0.282-0.07z" stroke="#000" fill="none"/>
			<path d="m76.177 47.993c0.188-0.016 0.209-0.044 0.167-0.253-0.048-0.222-0.09-0.235-0.194-0.181-0.027 0.013-0.039 0.016-0.065 0.024-0.036 0.014 0.012 0.094 0.028 0.196 0.022 0.141 0.027 0.216 0.064 0.214z" fill="#004FA2"/>
			<path stroke-width=".0425" d="m76.177 47.993c0.188-0.016 0.209-0.044 0.167-0.253-0.048-0.222-0.09-0.235-0.194-0.181-0.027 0.013-0.039 0.016-0.065 0.024-0.036 0.014 0.012 0.094 0.028 0.196 0.022 0.141 0.027 0.216 0.064 0.214z" stroke="#000" fill="none"/>
			<path d="m81.143 48.258c0.021 0.176-0.068 0.142-0.293 0.153-0.251 0.015-0.276 0.009-0.276-0.125 0-0.036-0.002-0.079 0.024-0.114 0.025-0.035 0.113 0.01 0.247 0.013 0.225 0.003 0.289-0.01 0.298 0.073z" fill="#004FA2"/>
			<path stroke-width=".0425" d="m81.143 48.258c0.021 0.176-0.068 0.142-0.293 0.153-0.251 0.015-0.276 0.009-0.276-0.125 0-0.036-0.002-0.079 0.024-0.114 0.025-0.035 0.113 0.01 0.247 0.013 0.225 0.003 0.289-0.01 0.298 0.073z" stroke="#000" fill="none"/>
			<path d="m79.823 48.185c0.006 0.128-0.044 0.168-0.131 0.161-0.102-0.009-0.149 0.013-0.317 0.013-0.138 0-0.096-0.114-0.065-0.218 0.013-0.049 0.096-0.022 0.174-0.012 0.224 0.034 0.335-0.023 0.339 0.056z" fill="#004FA2"/>
			<path stroke-width=".0425" d="m79.823 48.185c0.006 0.128-0.044 0.168-0.131 0.161-0.102-0.009-0.149 0.013-0.317 0.013-0.138 0-0.096-0.114-0.065-0.218 0.013-0.049 0.096-0.022 0.174-0.012 0.224 0.034 0.335-0.023 0.339 0.056z" stroke="#000" fill="none"/>
			<path d="m77.298 48.282c0.051 0.117 0.037 0.15-0.043 0.142s-0.219 0.006-0.344 0.014c-0.074 0.004-0.064-0.072-0.035-0.182 0.009-0.026 0.078-0.01 0.195-0.014 0.117-0.005 0.211 0.004 0.227 0.04z" fill="#004FA2"/>
			<path stroke-width=".0425" d="m77.298 48.282c0.051 0.117 0.037 0.15-0.043 0.142s-0.219 0.006-0.344 0.014c-0.074 0.004-0.064-0.072-0.035-0.182 0.009-0.026 0.078-0.01 0.195-0.014 0.117-0.005 0.211 0.004 0.227 0.04z" stroke="#000" fill="none"/>
			<path d="m74.509 44.032c-0.049 0.003-0.053-0.011-0.144-0.124-0.15-0.185-0.567-0.386-0.858-0.382-0.172 0.003-0.172 0.012-0.045 0.13 0.126 0.117 0.332 0.211 0.425 0.28 0.253 0.187 0.34 0.263 0.327 0.356 0.056-0.091 0.183-0.254 0.295-0.26z" fill="#004FA2"/>
			<path stroke-width=".0425" d="m74.509 44.032c-0.049 0.003-0.053-0.011-0.144-0.124-0.15-0.185-0.567-0.386-0.858-0.382-0.172 0.003-0.172 0.012-0.045 0.13 0.126 0.117 0.332 0.211 0.425 0.28 0.253 0.187 0.34 0.263 0.327 0.356 0.056-0.091 0.183-0.254 0.295-0.26z" stroke="#000" fill="none"/>
</g>
</svg>
