<?xml version="1.0" encoding="UTF-8" standalone="no"?>
<!-- Generator: Adobe Illustrator 18.0.0, SVG Export Plug-In . SVG Version: 6.00 Build 0)  -->

<svg
   xmlns:dc="http://purl.org/dc/elements/1.1/"
   xmlns:cc="http://creativecommons.org/ns#"
   xmlns:rdf="http://www.w3.org/1999/02/22-rdf-syntax-ns#"
   xmlns:svg="http://www.w3.org/2000/svg"
   xmlns="http://www.w3.org/2000/svg"
   xmlns:sodipodi="http://sodipodi.sourceforge.net/DTD/sodipodi-0.dtd"
   xmlns:inkscape="http://www.inkscape.org/namespaces/inkscape"
   style="enable-background:new 0 0 144 80"
   xml:space="preserve"
   version="1.1"
   y="0px"
   x="0px"
   viewBox="0 0 144 80"
   id="svg2"
   inkscape:version="0.91 r13725"
   sodipodi:docname="india.svg"><metadata
     id="metadata71"><rdf:RDF><cc:Work
         rdf:about=""><dc:format>image/svg+xml</dc:format><dc:type
           rdf:resource="http://purl.org/dc/dcmitype/StillImage" /></cc:Work></rdf:RDF></metadata><defs
     id="defs69" /><sodipodi:namedview
     pagecolor="#ffffff"
     bordercolor="#666666"
     borderopacity="1"
     objecttolerance="10"
     gridtolerance="10"
     guidetolerance="10"
     inkscape:pageopacity="0"
     inkscape:pageshadow="2"
     inkscape:window-width="1294"
     inkscape:window-height="787"
     id="namedview67"
     showgrid="false"
     inkscape:zoom="0.355"
     inkscape:cx="454.71713"
     inkscape:cy="-208.52417"
     inkscape:window-x="0"
     inkscape:window-y="0"
     inkscape:window-maximized="0"
     inkscape:current-layer="svg2" /><g
     id="IND"
     transform="matrix(0.17104169,0,0,0.17104169,2.6188705e-6,-61.810665)"><polygon
       points="0,673.2 0,517.3 841.9,517.3 841.9,673.2 "
       id="polygon5"
       style="fill:#ffffff" /><polygon
       points="0,517.3 0,361.4 841.9,361.4 841.9,517.3 "
       id="polygon7"
       style="fill:#ff9933" /><polygon
       points="841.9,829.1 841.9,673.2 0,673.2 0,829.1 "
       id="polygon9"
       style="fill:#128807" /><path
       d="m 420.9,663 c 37.4,0 67.8,-30.3 67.8,-67.7 0,-37.4 -30.3,-67.7 -67.8,-67.7 -37.5,0 -67.8,30.3 -67.8,67.7 0.1,37.4 30.4,67.7 67.8,67.7 z"
       id="path11"
       inkscape:connector-curvature="0"
       style="fill:#262699" /><path
       d="M 420.9,595.3"
       id="path13"
       inkscape:connector-curvature="0"
       style="fill:#000088" /><path
       d="m 432.7,536.3 c -0.3,2.1 -2.2,3.6 -4.4,3.3 -2.1,-0.3 -3.7,-2.2 -3.4,-4.4 -2.4,-0.2 -5.8,-0.2 -7.9,0 0.3,2.1 -1.2,4.1 -3.3,4.4 -2.1,0.3 -4.2,-1.2 -4.5,-3.3 -2.4,0.4 -5.7,1.3 -7.6,2 0.8,2 -0.1,4.3 -2.1,5.1 -2,0.8 -4.3,-0.1 -5.2,-2.1 -2.2,1 -5.1,2.7 -6.8,3.9 1.3,1.7 1,4.1 -0.7,5.4 -1.7,1.3 -4.2,1.1 -5.5,-0.6 -1.8,1.6 -4.3,3.9 -5.6,5.5 1.7,1.3 2,3.7 0.7,5.4 -1.3,1.7 -3.8,2.1 -5.5,0.8 -1.4,2 -3.1,4.9 -3.9,6.8 2,0.8 2.9,3.1 2.1,5.1 -0.8,2 -3.1,3 -5.1,2.2 -0.8,2.3 -1.7,5.5 -2.1,7.6 2.1,0.3 3.6,2.2 3.4,4.4 -0.3,2.1 -2.2,3.7 -4.4,3.5 -0.2,2.4 -0.2,5.8 0,7.9 2.1,-0.3 4.1,1.2 4.4,3.3 0.3,2.1 -1.2,4.2 -3.3,4.5 0.4,2.4 1.3,5.7 2,7.6 2,-0.8 4.3,0.1 5.1,2.1 0.8,2 -0.1,4.3 -2.1,5.2 1,2.2 2.7,5.1 3.9,6.8 1.7,-1.3 4.1,-1 5.5,0.7 1.3,1.7 1.1,4.2 -0.6,5.5 1.6,1.8 3.9,4.3 5.5,5.6 1.3,-1.7 3.7,-2 5.4,-0.7 1.7,1.3 2.1,3.8 0.8,5.5 2,1.4 4.9,3.1 6.8,3.9 0.8,-2 3.1,-2.9 5.1,-2.1 2,0.8 3,3.1 2.2,5.1 2.3,0.8 5.5,1.7 7.6,2 0.3,-2.1 2.2,-3.6 4.3,-3.3 2.1,0.3 3.7,2.2 3.4,4.4 2.4,0.2 5.8,0.2 7.9,0 -0.3,-2.1 1.2,-4.1 3.3,-4.4 2.1,-0.3 4.2,1.2 4.4,3.3 2.4,-0.4 5.7,-1.3 7.6,-2 -0.8,-2 0.1,-4.3 2.1,-5.1 2,-0.8 4.3,0.1 5.2,2.1 2.2,-1 5.1,-2.7 6.8,-3.9 -1.3,-1.7 -1,-4.1 0.7,-5.5 1.7,-1.3 4.2,-1.1 5.5,0.6 1.8,-1.6 4.3,-3.9 5.6,-5.5 -1.7,-1.3 -2,-3.7 -0.7,-5.5 1.3,-1.7 3.8,-2.1 5.5,-0.8 1.4,-2 3.1,-4.9 3.9,-6.8 -2,-0.8 -2.9,-3.1 -2.1,-5.1 0.8,-2 3.1,-3 5.1,-2.2 0.8,-2.3 1.7,-5.5 2.1,-7.6 -2.1,-0.3 -3.6,-2.2 -3.4,-4.4 0.3,-2.1 2.2,-3.7 4.4,-3.4 0.2,-2.4 0.2,-5.8 0,-7.9 -2.1,0.3 -4.1,-1.2 -4.4,-3.4 -0.3,-2.1 1.2,-4.2 3.3,-4.5 -0.4,-2.4 -1.3,-5.7 -2,-7.6 -2,0.8 -4.2,-0.1 -5.1,-2.1 -0.8,-2 0.1,-4.3 2.1,-5.2 -1,-2.2 -2.7,-5.1 -3.9,-6.8 -1.7,1.3 -4.2,1 -5.5,-0.7 -1.3,-1.7 -1.1,-4.2 0.6,-5.5 -1.6,-1.8 -3.9,-4.3 -5.5,-5.6 -1.3,1.7 -3.7,2 -5.4,0.7 -1.7,-1.3 -2.1,-3.8 -0.8,-5.5 -2,-1.3 -4.9,-3.1 -6.8,-3.9 -0.8,2 -3.1,2.9 -5.1,2.1 -2,-0.8 -3,-3.1 -2.2,-5.1 -2.1,-0.5 -5.4,-1.5 -7.4,-1.8 l 0,0 z"
       id="path15"
       inkscape:connector-curvature="0"
       style="fill:#ffffff" /><path
       d="m 420.9,595.3 c 0.8,-11.6 0.3,-17.7 2.2,-25.3 -1.2,-10.2 -1.5,-28.7 -2.2,-34.8 -0.6,6.1 -0.9,24.6 -2.2,34.8 2,7.6 1.4,13.7 2.2,25.3 z"
       id="path17"
       inkscape:connector-curvature="0"
       style="fill:#000088" /><path
       d="m 420.9,595.3 c -2.2,-11.4 -4.3,-17.1 -4.5,-25 -3.8,-9.6 -8.9,-27.3 -11.1,-33.1 1,6.1 5.5,24 6.9,34.2 3.9,6.9 4.9,12.9 8.7,23.9 l 0,0 z"
       id="path19"
       inkscape:connector-curvature="0"
       style="fill:#000088" /><path
       d="m 420.9,595.3 c -5.1,-10.5 -8.6,-15.4 -10.8,-23 -6.2,-8.2 -15.7,-24.1 -19.3,-29.1 2.5,5.6 11.5,21.8 15.5,31.2 5.6,5.7 8.1,11.2 14.6,20.9 l 0,0 z"
       id="path21"
       inkscape:connector-curvature="0"
       style="fill:#000088" /><path
       d="m 420.9,595.3 c -7.6,-8.8 -12.3,-12.7 -16.4,-19.4 -8.1,-6.4 -21.4,-19.2 -26.2,-23.1 3.9,4.8 16.7,18.1 23.1,26.2 6.9,4 10.7,8.7 19.5,16.3 l 0,0 z"
       id="path23"
       inkscape:connector-curvature="0"
       style="fill:#000088" /><path
       d="m 420.9,595.3 c -9.6,-6.5 -15.1,-9.1 -20.8,-14.5 -9.5,-4 -25.6,-13 -31.3,-15.5 5,3.6 20.8,13.1 29.1,19.3 7.6,2.1 12.6,5.6 23,10.7 l 0,0 z"
       id="path25"
       inkscape:connector-curvature="0"
       style="fill:#000088" /><path
       d="m 420.9,595.3 c -11,-3.8 -17,-4.8 -23.9,-8.6 -10.2,-1.4 -28.1,-6 -34.2,-6.9 5.7,2.2 23.5,7.3 33.1,11.1 7.9,0.1 13.6,2.2 25,4.4 z"
       id="path27"
       inkscape:connector-curvature="0"
       style="fill:#000088" /><path
       d="m 420.9,595.3 c -11.6,-0.8 -17.7,-0.3 -25.3,-2.2 -10.2,1.2 -28.7,1.5 -34.8,2.2 6.1,0.6 24.6,0.9 34.8,2.2 7.7,-1.9 13.7,-1.4 25.3,-2.2 z"
       id="path29"
       inkscape:connector-curvature="0"
       style="fill:#000088" /><path
       d="m 420.9,595.3 c -11.4,2.2 -17.1,4.3 -25,4.5 -9.5,3.8 -27.3,8.9 -33.1,11.1 6.1,-0.9 24,-5.5 34.2,-6.9 7,-3.9 13,-4.9 23.9,-8.7 l 0,0 z"
       id="path31"
       inkscape:connector-curvature="0"
       style="fill:#000088" /><path
       d="m 420.9,595.3 c -10.5,5.1 -15.4,8.6 -23,10.8 -8.2,6.2 -24.1,15.7 -29.1,19.3 5.6,-2.5 21.8,-11.5 31.3,-15.5 5.7,-5.6 11.2,-8.1 20.8,-14.6 l 0,0 z"
       id="path33"
       inkscape:connector-curvature="0"
       style="fill:#000088" /><path
       d="m 420.9,595.3 c -8.8,7.6 -12.7,12.3 -19.4,16.4 -6.3,8.1 -19.2,21.4 -23.1,26.2 4.8,-3.9 18.1,-16.7 26.2,-23.1 4.1,-6.8 8.7,-10.7 16.3,-19.5 l 0,0 z"
       id="path35"
       inkscape:connector-curvature="0"
       style="fill:#000088" /><path
       d="m 420.9,595.3 c -6.5,9.6 -9.1,15.1 -14.5,20.8 -4,9.5 -13,25.6 -15.5,31.2 3.6,-5 13.1,-20.8 19.3,-29.1 2.2,-7.5 5.7,-12.5 10.7,-22.9 l 0,0 z"
       id="path37"
       inkscape:connector-curvature="0"
       style="fill:#000088" /><path
       d="m 420.9,595.3 c -3.8,11 -4.8,17 -8.6,23.9 -1.4,10.2 -6,28.1 -6.9,34.2 2.2,-5.7 7.3,-23.5 11.1,-33.1 0.2,-7.9 2.3,-13.6 4.4,-25 l 0,0 z"
       id="path39"
       inkscape:connector-curvature="0"
       style="fill:#000088" /><path
       d="m 420.9,595.3 c -0.8,11.6 -0.3,17.7 -2.2,25.3 1.2,10.2 1.5,28.7 2.2,34.8 0.6,-6.1 0.9,-24.6 2.2,-34.8 -1.9,-7.7 -1.3,-13.7 -2.2,-25.3 z"
       id="path41"
       inkscape:connector-curvature="0"
       style="fill:#000088" /><path
       d="m 420.9,595.3 c 2.2,11.4 4.3,17.1 4.5,25 3.8,9.6 8.9,27.3 11.1,33.1 -1,-6.1 -5.5,-24 -6.9,-34.2 -3.8,-6.9 -4.8,-12.9 -8.7,-23.9 l 0,0 z"
       id="path43"
       inkscape:connector-curvature="0"
       style="fill:#000088" /><path
       d="m 420.9,595.3 c 5.1,10.5 8.6,15.4 10.8,23 6.2,8.2 15.7,24.1 19.3,29.1 -2.5,-5.6 -11.5,-21.8 -15.5,-31.2 -5.5,-5.8 -8,-11.3 -14.6,-20.9 l 0,0 z"
       id="path45"
       inkscape:connector-curvature="0"
       style="fill:#000088" /><path
       d="m 420.9,595.3 c 7.6,8.8 12.3,12.7 16.4,19.4 8.1,6.4 21.4,19.2 26.2,23.1 -3.8,-4.8 -16.7,-18.1 -23.1,-26.2 -6.8,-4 -10.7,-8.7 -19.5,-16.3 l 0,0 z"
       id="path47"
       inkscape:connector-curvature="0"
       style="fill:#000088" /><path
       d="m 420.9,595.3 c 9.6,6.5 15.1,9.1 20.8,14.5 9.5,4 25.6,13 31.2,15.5 -5,-3.6 -20.8,-13.1 -29.1,-19.3 -7.4,-2.1 -12.4,-5.7 -22.9,-10.7 l 0,0 z"
       id="path49"
       inkscape:connector-curvature="0"
       style="fill:#000088" /><path
       d="m 420.9,595.3 c 11,3.8 17,4.8 23.9,8.6 10.2,1.4 28.1,6 34.2,6.9 -5.7,-2.2 -23.5,-7.3 -33.1,-11.1 -7.8,-0.1 -13.5,-2.2 -25,-4.4 l 0,0 z"
       id="path51"
       inkscape:connector-curvature="0"
       style="fill:#000088" /><path
       d="m 420.9,595.3 c 11.6,0.8 17.7,0.3 25.3,2.2 10.2,-1.2 28.7,-1.5 34.8,-2.2 -6.1,-0.6 -24.6,-0.9 -34.8,-2.2 -7.6,1.9 -13.6,1.3 -25.3,2.2 z"
       id="path53"
       inkscape:connector-curvature="0"
       style="fill:#000088" /><path
       d="m 420.9,595.3 c 11.4,-2.2 17.1,-4.3 25,-4.5 9.6,-3.8 27.4,-8.9 33.1,-11.1 -6.1,0.9 -24,5.5 -34.2,6.9 -6.9,3.8 -12.9,4.9 -23.9,8.7 z"
       id="path55"
       inkscape:connector-curvature="0"
       style="fill:#000088" /><path
       d="m 420.9,595.3 c 10.5,-5.1 15.4,-8.6 23,-10.8 8.2,-6.2 24.1,-15.7 29.1,-19.3 -5.6,2.5 -21.8,11.5 -31.2,15.5 -5.7,5.5 -11.2,8 -20.9,14.6 l 0,0 z"
       id="path57"
       inkscape:connector-curvature="0"
       style="fill:#000088" /><path
       d="m 420.9,595.3 c 8.8,-7.6 12.7,-12.3 19.4,-16.4 6.4,-8.1 19.2,-21.4 23.1,-26.2 -4.8,3.9 -18.1,16.7 -26.2,23.1 -4,6.8 -8.6,10.7 -16.3,19.5 l 0,0 z"
       id="path59"
       inkscape:connector-curvature="0"
       style="fill:#000088" /><path
       d="m 420.9,595.3 c 6.5,-9.6 9.1,-15.1 14.5,-20.8 4,-9.5 13,-25.6 15.5,-31.2 -3.6,5 -13.1,20.8 -19.3,29.1 -2.1,7.4 -5.6,12.4 -10.7,22.9 l 0,0 z"
       id="path61"
       inkscape:connector-curvature="0"
       style="fill:#000088" /><path
       d="m 420.9,595.3 c 3.8,-11 4.8,-17 8.6,-23.9 1.4,-10.2 6,-28.1 6.9,-34.2 -2.2,5.7 -7.3,23.5 -11.1,33.1 -0.1,7.8 -2.2,13.5 -4.4,25 l 0,0 z"
       id="path63"
       inkscape:connector-curvature="0"
       style="fill:#000088" /></g><circle
     cx="72.025658"
     cy="39.976238"
     id="circle65"
     style="fill:#262699"
     r="2.5656254" /></svg>