<?xml version="1.0" encoding="UTF-8" standalone="no"?>
<!-- Generator: Adobe Illustrator 18.0.0, SVG Export Plug-In . SVG Version: 6.00 Build 0)  -->
<!DOCTYPE svg  PUBLIC '-//W3C//DTD SVG 1.1//EN'  'http://www.w3.org/Graphics/SVG/1.1/DTD/svg11.dtd'>
<svg style="enable-background:new 0 0 144 80" xmlns="http://www.w3.org/2000/svg" xml:space="preserve" version="1.1" y="0px" x="0px" xmlns:xlink="http://www.w3.org/1999/xlink" viewBox="0 0 144 80">
<g id="CUB">
		<polygon points="144 16.001 0 16.001 0 0 144 0" fill="#003876"/>
		<polygon points="144 63.999 0 63.999 0 80 144 80" fill="#003876"/>
		<polygon points="144 47.999 0 47.999 0 31.998 144 31.998" fill="#003876"/>
		<polygon points="144 31.998 0 31.998 0 16.001 144 16.001" fill="#fff"/>
		<polygon points="144 63.999 0 63.999 0 47.999 144 47.999" fill="#fff"/>
		<polygon points="61.993 40.001 0 80 0 0" fill="#EC1C2E"/>
		<polygon points="19.941 29.977 17.48 37.623 9.386 37.623 15.959 42.383 13.434 50.023 19.941 45.275 26.449 50.023 23.955 42.317 30.495 37.655 22.434 37.655" fill="#fff"/>
</g>
</svg>
