<?xml version="1.0" encoding="UTF-8" standalone="no"?>
<!-- Generator: Adobe Illustrator 18.0.0, SVG Export Plug-In . SVG Version: 6.00 Build 0)  -->
<!DOCTYPE svg  PUBLIC '-//W3C//DTD SVG 1.1//EN'  'http://www.w3.org/Graphics/SVG/1.1/DTD/svg11.dtd'>
<svg style="enable-background:new 0 0 144 80" xmlns="http://www.w3.org/2000/svg" xml:space="preserve" version="1.1" y="0px" x="0px" xmlns:xlink="http://www.w3.org/1999/xlink" viewBox="0 0 144 80">
<g id="ARG">
		<polygon points="0 53.333 144 53.333 144 80 0 80" fill="#74ACDF"/>
		<polygon points="144 26.666 0 26.666 0 0 144 0" fill="#74ACDF"/>
		<polygon points="144 53.333 0 53.333 0 26.666 144 26.666" fill="#fff"/>
			<path d="m72 43.946c2.188 0 3.96-1.772 3.96-3.96 0-2.187-1.772-3.96-3.96-3.96s-3.961 1.773-3.961 3.96c0 2.188 1.773 3.96 3.961 3.96z" fill="#FFCE46"/>
			<path stroke-linejoin="round" d="m72 43.946c2.188 0 3.96-1.772 3.96-3.96 0-2.187-1.772-3.96-3.96-3.96s-3.961 1.773-3.961 3.96c0 2.188 1.773 3.96 3.961 3.96v0z" stroke="#000" stroke-linecap="round" stroke-width=".0671" fill="none"/>
			<path d="m72 39.986" fill="#FFCE46"/>
			<path stroke-linejoin="round" d="m72 39.986" stroke="#000" stroke-linecap="round" stroke-width=".0671" fill="none"/>
			<path d="m72 30.196c0.235 0 0.282 0.502 0.299 1.154 0.03 1.205 0.117 2.074 0.188 3.597 0.037 0.786-0.385 0.678-0.486 0.678-0.103 0-0.523 0.108-0.486-0.678 0.07-1.522 0.157-2.392 0.188-3.597 0.015-0.652 0.061-1.154 0.297-1.154z" fill="#FFCE46"/>
			<path stroke-linejoin="round" d="m72 30.196c0.235 0 0.282 0.502 0.299 1.154 0.03 1.205 0.117 2.074 0.188 3.597 0.037 0.786-0.385 0.678-0.486 0.678-0.103 0-0.523 0.108-0.486-0.678 0.07-1.522 0.157-2.392 0.188-3.597 0.015-0.652 0.061-1.154 0.297-1.154v0z" stroke="#000" stroke-linecap="round" stroke-width=".0671" fill="none"/>
			<path d="m70.093 30.389c-0.379 0.016-0.352 1.246-0.05 1.849 0.301 0.603 0.557 1.114 0.501 1.781-0.083 1.021-0.05 1.815 0.603 1.69 0.191-0.037 0.557-0.229 0.31-0.712-0.176-0.343-0.215-0.735-0.226-1.438-0.017-1.087-0.678-1.162-0.803-2.04-0.103-0.714-0.134-1.139-0.335-1.13z" fill="#FFCE46"/>
			<path stroke-linejoin="round" d="m70.093 30.389c-0.379 0.016-0.352 1.246-0.05 1.849 0.301 0.603 0.557 1.114 0.501 1.781-0.083 1.021-0.05 1.815 0.603 1.69 0.191-0.037 0.557-0.229 0.31-0.712-0.176-0.343-0.215-0.735-0.226-1.438-0.017-1.087-0.678-1.162-0.803-2.04-0.103-0.714-0.134-1.139-0.335-1.13v0z" stroke="#000" stroke-linecap="round" stroke-width=".0671" fill="none"/>
			<path d="m68.248 30.942c0.217-0.09 0.453 0.355 0.718 0.952 0.489 1.102 0.903 1.872 1.55 3.251 0.335 0.712-0.095 0.773-0.189 0.812-0.095 0.039-0.442 0.3-0.709-0.439-0.518-1.434-0.77-2.271-1.202-3.396-0.236-0.608-0.386-1.09-0.168-1.18z" fill="#FFCE46"/>
			<path stroke-linejoin="round" d="m68.248 30.942c0.217-0.09 0.453 0.355 0.718 0.952 0.489 1.102 0.903 1.872 1.55 3.251 0.335 0.712-0.095 0.773-0.189 0.812-0.095 0.039-0.442 0.3-0.709-0.439-0.518-1.434-0.77-2.271-1.202-3.396-0.236-0.608-0.386-1.09-0.168-1.18v0z" stroke="#000" stroke-linecap="round" stroke-width=".0671" fill="none"/>
			<path d="m66.553 31.854c0.279-0.256 1.13 0.633 1.342 1.272 0.214 0.639 0.396 1.181 0.905 1.614 0.781 0.663 1.319 1.248 0.771 1.62-0.163 0.11-0.557 0.233-0.723-0.283-0.118-0.367-0.368-0.673-0.857-1.177-0.758-0.781-0.344-1.302-0.876-2.011-0.432-0.575-0.71-0.898-0.562-1.035z" fill="#FFCE46"/>
			<path stroke-linejoin="round" d="m66.553 31.854c0.279-0.256 1.13 0.633 1.342 1.272 0.214 0.639 0.396 1.181 0.905 1.614 0.781 0.663 1.319 1.248 0.771 1.62-0.163 0.11-0.557 0.233-0.723-0.283-0.118-0.367-0.368-0.673-0.857-1.177-0.758-0.781-0.344-1.302-0.876-2.011-0.432-0.575-0.71-0.898-0.562-1.035v0z" stroke="#000" stroke-linecap="round" stroke-width=".0671" fill="none"/>
			<path d="m65.067 33.067c0.167-0.167 0.555 0.156 1.027 0.605 0.875 0.83 1.551 1.384 2.677 2.41 0.582 0.529 0.207 0.751 0.136 0.823-0.072 0.072-0.294 0.447-0.824-0.135-1.026-1.127-1.579-1.803-2.409-2.676-0.45-0.472-0.773-0.86-0.607-1.027z" fill="#FFCE46"/>
			<path stroke-linejoin="round" d="m65.067 33.067c0.167-0.167 0.555 0.156 1.027 0.605 0.875 0.83 1.551 1.384 2.677 2.41 0.582 0.529 0.207 0.751 0.136 0.823-0.072 0.072-0.294 0.447-0.824-0.135-1.026-1.127-1.579-1.803-2.409-2.676-0.45-0.472-0.773-0.86-0.607-1.027v0z" stroke="#000" stroke-linecap="round" stroke-width=".0671" fill="none"/>
			<path d="m63.855 34.553c-0.257 0.278 0.634 1.129 1.271 1.342 0.639 0.213 1.182 0.395 1.615 0.905 0.662 0.78 1.248 1.318 1.62 0.769 0.11-0.16 0.232-0.555-0.284-0.721-0.366-0.119-0.672-0.369-1.177-0.858-0.78-0.757-1.301-0.343-2.011-0.876-0.575-0.431-0.897-0.71-1.034-0.561z" fill="#FFCE46"/>
			<path stroke-linejoin="round" d="m63.855 34.553c-0.257 0.278 0.634 1.129 1.271 1.342 0.639 0.213 1.182 0.395 1.615 0.905 0.662 0.78 1.248 1.318 1.62 0.769 0.11-0.16 0.232-0.555-0.284-0.721-0.366-0.119-0.672-0.369-1.177-0.858-0.78-0.757-1.301-0.343-2.011-0.876-0.575-0.431-0.897-0.71-1.034-0.561v0z" stroke="#000" stroke-linecap="round" stroke-width=".0671" fill="none"/>
			<path d="m62.942 36.248c0.091-0.218 0.572-0.068 1.182 0.166 1.125 0.434 1.962 0.684 3.395 1.202 0.74 0.268 0.479 0.614 0.439 0.709-0.039 0.094-0.1 0.524-0.812 0.19-1.38-0.647-2.149-1.061-3.251-1.55-0.596-0.265-1.042-0.499-0.953-0.717z" fill="#FFCE46"/>
			<path stroke-linejoin="round" d="m62.942 36.248c0.091-0.218 0.572-0.068 1.182 0.166 1.125 0.434 1.962 0.684 3.395 1.202 0.74 0.268 0.479 0.614 0.439 0.709-0.039 0.094-0.1 0.524-0.812 0.19-1.38-0.647-2.149-1.061-3.251-1.55-0.596-0.265-1.042-0.499-0.953-0.717v0z" stroke="#000" stroke-linecap="round" stroke-width=".0671" fill="none"/>
			<path d="m62.39 38.092c0.016-0.379 1.246-0.351 1.848-0.05 0.603 0.301 1.115 0.557 1.782 0.502 1.021-0.084 1.814-0.05 1.689 0.602-0.036 0.192-0.229 0.558-0.711 0.311-0.343-0.177-0.736-0.216-1.438-0.227-1.088-0.017-1.162-0.677-2.041-0.803-0.713-0.102-1.138-0.134-1.129-0.335z" fill="#FFCE46"/>
			<path stroke-linejoin="round" d="m62.39 38.092c0.016-0.379 1.246-0.351 1.848-0.05 0.603 0.301 1.115 0.557 1.782 0.502 1.021-0.084 1.814-0.05 1.689 0.602-0.036 0.192-0.229 0.558-0.711 0.311-0.343-0.177-0.736-0.216-1.438-0.227-1.088-0.017-1.162-0.677-2.041-0.803-0.713-0.102-1.138-0.134-1.129-0.335v0z" stroke="#000" stroke-linecap="round" stroke-width=".0671" fill="none"/>
			<path d="m62.196 39.999c0-0.235 0.503-0.281 1.155-0.298 1.205-0.031 2.074-0.118 3.597-0.188 0.786-0.037 0.677 0.385 0.677 0.486 0 0.103 0.109 0.523-0.677 0.486-1.522-0.07-2.392-0.157-3.597-0.188-0.652-0.016-1.155-0.062-1.155-0.298z" fill="#FFCE46"/>
			<path stroke-linejoin="round" d="m62.196 39.999c0-0.235 0.503-0.281 1.155-0.298 1.205-0.031 2.074-0.118 3.597-0.188 0.786-0.037 0.677 0.385 0.677 0.486 0 0.103 0.109 0.523-0.677 0.486-1.522-0.07-2.392-0.157-3.597-0.188-0.652-0.016-1.155-0.062-1.155-0.298v0z" stroke="#000" stroke-linecap="round" stroke-width=".0671" fill="none"/>
			<path d="m62.39 41.906c0.016 0.38 1.246 0.352 1.848 0.051 0.603-0.302 1.115-0.557 1.782-0.502 1.021 0.083 1.814 0.05 1.689-0.602-0.036-0.192-0.229-0.558-0.711-0.311-0.343 0.176-0.736 0.215-1.438 0.226-1.088 0.017-1.162 0.678-2.041 0.803-0.713 0.103-1.138 0.135-1.129 0.335z" fill="#FFCE46"/>
			<path stroke-linejoin="round" d="m62.39 41.906c0.016 0.38 1.246 0.352 1.848 0.051 0.603-0.302 1.115-0.557 1.782-0.502 1.021 0.083 1.814 0.05 1.689-0.602-0.036-0.192-0.229-0.558-0.711-0.311-0.343 0.176-0.736 0.215-1.438 0.226-1.088 0.017-1.162 0.678-2.041 0.803-0.713 0.103-1.138 0.135-1.129 0.335v0z" stroke="#000" stroke-linecap="round" stroke-width=".0671" fill="none"/>
			<path d="m62.942 43.751c-0.09-0.218 0.356-0.453 0.953-0.718 1.102-0.489 1.871-0.902 3.251-1.55 0.712-0.335 0.772 0.096 0.812 0.19s0.301 0.441-0.439 0.709c-1.433 0.517-2.27 0.769-3.395 1.202-0.609 0.235-1.091 0.384-1.182 0.167z" fill="#FFCE46"/>
			<path stroke-linejoin="round" d="m62.942 43.751c-0.09-0.218 0.356-0.453 0.953-0.718 1.102-0.489 1.871-0.902 3.251-1.55 0.712-0.335 0.772 0.096 0.812 0.19s0.301 0.441-0.439 0.709c-1.433 0.517-2.27 0.769-3.395 1.202-0.609 0.235-1.091 0.384-1.182 0.167v0z" stroke="#000" stroke-linecap="round" stroke-width=".0671" fill="none"/>
			<path d="m63.855 45.446c-0.257-0.279 0.633-1.13 1.271-1.342 0.639-0.214 1.182-0.396 1.615-0.905 0.662-0.781 1.248-1.319 1.62-0.77 0.11 0.161 0.232 0.556-0.284 0.722-0.366 0.118-0.672 0.368-1.177 0.857-0.78 0.758-1.301 0.344-2.011 0.876-0.575 0.432-0.897 0.71-1.034 0.562z" fill="#FFCE46"/>
			<path stroke-linejoin="round" d="m63.855 45.446c-0.257-0.279 0.633-1.13 1.271-1.342 0.639-0.214 1.182-0.396 1.615-0.905 0.662-0.781 1.248-1.319 1.62-0.77 0.11 0.161 0.232 0.556-0.284 0.722-0.366 0.118-0.672 0.368-1.177 0.857-0.78 0.758-1.301 0.344-2.011 0.876-0.575 0.432-0.897 0.71-1.034 0.562v0z" stroke="#000" stroke-linecap="round" stroke-width=".0671" fill="none"/>
			<path d="m65.067 46.931c-0.166-0.166 0.156-0.554 0.606-1.027 0.83-0.873 1.383-1.55 2.409-2.676 0.53-0.582 0.752-0.207 0.824-0.135 0.071 0.072 0.446 0.293-0.136 0.823-1.126 1.026-1.802 1.58-2.677 2.409-0.471 0.45-0.859 0.773-1.026 0.606z" fill="#FFCE46"/>
			<path stroke-linejoin="round" d="m65.067 46.931c-0.166-0.166 0.156-0.554 0.606-1.027 0.83-0.873 1.383-1.55 2.409-2.676 0.53-0.582 0.752-0.207 0.824-0.135 0.071 0.072 0.446 0.293-0.136 0.823-1.126 1.026-1.802 1.58-2.677 2.409-0.471 0.45-0.859 0.773-1.026 0.606v0z" stroke="#000" stroke-linecap="round" stroke-width=".0671" fill="none"/>
			<path d="m66.553 48.144c0.279 0.257 1.13-0.634 1.342-1.271 0.214-0.639 0.396-1.182 0.905-1.615 0.781-0.662 1.319-1.248 0.771-1.62-0.163-0.11-0.557-0.232-0.723 0.284-0.118 0.366-0.368 0.672-0.857 1.177-0.758 0.781-0.344 1.301-0.876 2.011-0.432 0.575-0.711 0.898-0.562 1.034z" fill="#FFCE46"/>
			<path stroke-linejoin="round" d="m66.553 48.144c0.279 0.257 1.13-0.634 1.342-1.271 0.214-0.639 0.396-1.182 0.905-1.615 0.781-0.662 1.319-1.248 0.771-1.62-0.163-0.11-0.557-0.232-0.723 0.284-0.118 0.366-0.368 0.672-0.857 1.177-0.758 0.781-0.344 1.301-0.876 2.011-0.432 0.575-0.711 0.898-0.562 1.034v0z" stroke="#000" stroke-linecap="round" stroke-width=".0671" fill="none"/>
			<path d="m68.248 49.056c-0.217-0.089-0.068-0.57 0.167-1.181 0.433-1.124 0.685-1.961 1.202-3.395 0.267-0.74 0.614-0.479 0.709-0.439 0.095 0.039 0.524 0.1 0.189 0.812-0.646 1.38-1.061 2.15-1.55 3.251-0.264 0.596-0.499 1.042-0.717 0.952z" fill="#FFCE46"/>
			<path stroke-linejoin="round" d="m68.248 49.056c-0.217-0.089-0.068-0.57 0.167-1.181 0.433-1.124 0.685-1.961 1.202-3.395 0.267-0.74 0.614-0.479 0.709-0.439 0.095 0.039 0.524 0.1 0.189 0.812-0.646 1.38-1.061 2.15-1.55 3.251-0.264 0.596-0.499 1.042-0.717 0.952v0z" stroke="#000" stroke-linecap="round" stroke-width=".0671" fill="none"/>
			<path d="m70.093 49.609c-0.379-0.016-0.352-1.245-0.05-1.848 0.301-0.603 0.557-1.115 0.501-1.782-0.083-1.021-0.05-1.815 0.603-1.689 0.191 0.036 0.557 0.229 0.31 0.711-0.176 0.343-0.215 0.736-0.226 1.438-0.017 1.088-0.678 1.163-0.803 2.041-0.103 0.713-0.134 1.138-0.335 1.129z" fill="#FFCE46"/>
			<path stroke-linejoin="round" d="m70.093 49.609c-0.379-0.016-0.352-1.245-0.05-1.848 0.301-0.603 0.557-1.115 0.501-1.782-0.083-1.021-0.05-1.815 0.603-1.689 0.191 0.036 0.557 0.229 0.31 0.711-0.176 0.343-0.215 0.736-0.226 1.438-0.017 1.088-0.678 1.163-0.803 2.041-0.103 0.713-0.134 1.138-0.335 1.129v0z" stroke="#000" stroke-linecap="round" stroke-width=".0671" fill="none"/>
			<path d="m72 49.803c-0.236 0-0.282-0.503-0.299-1.154-0.03-1.206-0.117-2.075-0.188-3.597-0.037-0.787 0.384-0.678 0.486-0.678s0.523-0.109 0.486 0.678c-0.07 1.521-0.157 2.391-0.188 3.597-0.015 0.651-0.062 1.154-0.297 1.154z" fill="#FFCE46"/>
			<path stroke-linejoin="round" d="m72 49.803c-0.236 0-0.282-0.503-0.299-1.154-0.03-1.206-0.117-2.075-0.188-3.597-0.037-0.787 0.384-0.678 0.486-0.678s0.523-0.109 0.486 0.678c-0.07 1.521-0.157 2.391-0.188 3.597-0.015 0.651-0.062 1.154-0.297 1.154v0z" stroke="#000" stroke-linecap="round" stroke-width=".0671" fill="none"/>
			<path d="m73.907 49.609c0.379-0.016 0.351-1.245 0.05-1.848s-0.557-1.115-0.502-1.782c0.084-1.021 0.051-1.815-0.602-1.689-0.192 0.036-0.558 0.229-0.31 0.711 0.176 0.343 0.215 0.736 0.226 1.438 0.017 1.088 0.678 1.163 0.803 2.041 0.102 0.713 0.134 1.138 0.335 1.129z" fill="#FFCE46"/>
			<path stroke-linejoin="round" d="m73.907 49.609c0.379-0.016 0.351-1.245 0.05-1.848s-0.557-1.115-0.502-1.782c0.084-1.021 0.051-1.815-0.602-1.689-0.192 0.036-0.558 0.229-0.31 0.711 0.176 0.343 0.215 0.736 0.226 1.438 0.017 1.088 0.678 1.163 0.803 2.041 0.102 0.713 0.134 1.138 0.335 1.129v0z" stroke="#000" stroke-linecap="round" stroke-width=".0671" fill="none"/>
			<path d="m75.752 49.056c-0.218 0.091-0.453-0.355-0.718-0.952-0.489-1.101-0.903-1.871-1.551-3.251-0.334-0.712 0.096-0.772 0.19-0.812s0.442-0.301 0.709 0.439c0.518 1.434 0.77 2.271 1.202 3.395 0.236 0.61 0.386 1.091 0.168 1.181z" fill="#FFCE46"/>
			<path stroke-linejoin="round" d="m75.752 49.056c-0.218 0.091-0.453-0.355-0.718-0.952-0.489-1.101-0.903-1.871-1.551-3.251-0.334-0.712 0.096-0.772 0.19-0.812s0.442-0.301 0.709 0.439c0.518 1.434 0.77 2.271 1.202 3.395 0.236 0.61 0.386 1.091 0.168 1.181v0z" stroke="#000" stroke-linecap="round" stroke-width=".0671" fill="none"/>
			<path d="m77.447 48.144c-0.28 0.257-1.13-0.633-1.343-1.271-0.213-0.639-0.395-1.182-0.905-1.615-0.78-0.662-1.319-1.248-0.77-1.62 0.162-0.11 0.557-0.232 0.723 0.284 0.118 0.366 0.368 0.672 0.857 1.177 0.757 0.781 0.343 1.301 0.875 2.011 0.433 0.575 0.711 0.898 0.563 1.034z" fill="#FFCE46"/>
			<path stroke-linejoin="round" d="m77.447 48.144c-0.28 0.257-1.13-0.633-1.343-1.271-0.213-0.639-0.395-1.182-0.905-1.615-0.78-0.662-1.319-1.248-0.77-1.62 0.162-0.11 0.557-0.232 0.723 0.284 0.118 0.366 0.368 0.672 0.857 1.177 0.757 0.781 0.343 1.301 0.875 2.011 0.433 0.575 0.711 0.898 0.563 1.034v0z" stroke="#000" stroke-linecap="round" stroke-width=".0671" fill="none"/>
			<path d="m78.932 46.931c-0.166 0.167-0.555-0.155-1.027-0.605-0.874-0.829-1.55-1.383-2.676-2.409-0.582-0.53-0.208-0.751-0.136-0.823s0.293-0.447 0.823 0.135c1.026 1.126 1.58 1.803 2.41 2.676 0.45 0.472 0.773 0.86 0.606 1.026z" fill="#FFCE46"/>
			<path stroke-linejoin="round" d="m78.932 46.931c-0.166 0.167-0.555-0.155-1.027-0.605-0.874-0.829-1.55-1.383-2.676-2.409-0.582-0.53-0.208-0.751-0.136-0.823s0.293-0.447 0.823 0.135c1.026 1.126 1.58 1.803 2.41 2.676 0.45 0.472 0.773 0.86 0.606 1.026v0z" stroke="#000" stroke-linecap="round" stroke-width=".0671" fill="none"/>
			<path d="m80.144 45.446c0.258-0.279-0.633-1.13-1.271-1.342-0.639-0.214-1.181-0.396-1.614-0.905-0.662-0.781-1.248-1.319-1.62-0.77-0.11 0.162-0.232 0.556 0.283 0.722 0.367 0.118 0.673 0.368 1.178 0.857 0.78 0.758 1.301 0.344 2.011 0.876 0.575 0.432 0.897 0.71 1.033 0.562z" fill="#FFCE46"/>
			<path stroke-linejoin="round" d="m80.144 45.446c0.258-0.279-0.633-1.13-1.271-1.342-0.639-0.214-1.181-0.396-1.614-0.905-0.662-0.781-1.248-1.319-1.62-0.77-0.11 0.162-0.232 0.556 0.283 0.722 0.367 0.118 0.673 0.368 1.178 0.857 0.78 0.758 1.301 0.344 2.011 0.876 0.575 0.432 0.897 0.71 1.033 0.562v0z" stroke="#000" stroke-linecap="round" stroke-width=".0671" fill="none"/>
			<path d="m81.058 43.751c-0.091 0.217-0.572 0.067-1.182-0.166-1.125-0.434-1.962-0.686-3.395-1.203-0.741-0.267-0.479-0.614-0.439-0.708 0.038-0.095 0.1-0.525 0.812-0.19 1.379 0.648 2.149 1.06 3.251 1.55 0.596 0.264 1.041 0.499 0.953 0.717z" fill="#FFCE46"/>
			<path stroke-linejoin="round" d="m81.058 43.751c-0.091 0.217-0.572 0.067-1.182-0.166-1.125-0.434-1.962-0.686-3.395-1.203-0.741-0.267-0.479-0.614-0.439-0.708 0.038-0.095 0.1-0.525 0.812-0.19 1.379 0.648 2.149 1.06 3.251 1.55 0.596 0.264 1.041 0.499 0.953 0.717v0z" stroke="#000" stroke-linecap="round" stroke-width=".0671" fill="none"/>
			<path d="m81.61 41.906c-0.016 0.38-1.246 0.352-1.849 0.051s-1.114-0.557-1.781-0.502c-1.021 0.083-1.815 0.05-1.69-0.602 0.037-0.192 0.229-0.558 0.712-0.311 0.343 0.176 0.735 0.215 1.438 0.226 1.088 0.017 1.162 0.678 2.041 0.803 0.713 0.103 1.138 0.135 1.129 0.335z" fill="#FFCE46"/>
			<path stroke-linejoin="round" d="m81.61 41.906c-0.016 0.38-1.246 0.352-1.849 0.051s-1.114-0.557-1.781-0.502c-1.021 0.083-1.815 0.05-1.69-0.602 0.037-0.192 0.229-0.558 0.712-0.311 0.343 0.176 0.735 0.215 1.438 0.226 1.088 0.017 1.162 0.678 2.041 0.803 0.713 0.103 1.138 0.135 1.129 0.335v0z" stroke="#000" stroke-linecap="round" stroke-width=".0671" fill="none"/>
			<path d="m81.804 39.999c0 0.236-0.503 0.282-1.155 0.299-1.205 0.03-2.074 0.117-3.597 0.188-0.786 0.037-0.678-0.384-0.678-0.486s-0.108-0.523 0.678-0.486c1.523 0.07 2.392 0.157 3.597 0.188 0.652 0.016 1.155 0.062 1.155 0.297z" fill="#FFCE46"/>
			<path stroke-linejoin="round" d="m81.804 39.999c0 0.236-0.503 0.282-1.155 0.299-1.205 0.03-2.074 0.117-3.597 0.188-0.786 0.037-0.678-0.384-0.678-0.486s-0.108-0.523 0.678-0.486c1.523 0.07 2.392 0.157 3.597 0.188 0.652 0.016 1.155 0.062 1.155 0.297v0z" stroke="#000" stroke-linecap="round" stroke-width=".0671" fill="none"/>
			<path d="m81.61 38.092c-0.016-0.379-1.246-0.351-1.849-0.05s-1.114 0.557-1.781 0.502c-1.021-0.084-1.815-0.05-1.69 0.602 0.037 0.192 0.229 0.558 0.712 0.311 0.343-0.177 0.735-0.216 1.438-0.227 1.088-0.017 1.162-0.677 2.041-0.803 0.713-0.102 1.138-0.134 1.129-0.335z" fill="#FFCE46"/>
			<path stroke-linejoin="round" d="m81.61 38.092c-0.016-0.379-1.246-0.351-1.849-0.05s-1.114 0.557-1.781 0.502c-1.021-0.084-1.815-0.05-1.69 0.602 0.037 0.192 0.229 0.558 0.712 0.311 0.343-0.177 0.735-0.216 1.438-0.227 1.088-0.017 1.162-0.677 2.041-0.803 0.713-0.102 1.138-0.134 1.129-0.335v0z" stroke="#000" stroke-linecap="round" stroke-width=".0671" fill="none"/>
			<path d="m81.058 36.247c0.089 0.219-0.356 0.453-0.953 0.718-1.102 0.489-1.872 0.903-3.251 1.551-0.712 0.334-0.773-0.097-0.812-0.19-0.039-0.095-0.301-0.441 0.44-0.709 1.433-0.518 2.27-0.771 3.394-1.203 0.609-0.235 1.091-0.384 1.182-0.167z" fill="#FFCE46"/>
			<path stroke-linejoin="round" d="m81.058 36.247c0.089 0.219-0.356 0.453-0.953 0.718-1.102 0.489-1.872 0.903-3.251 1.551-0.712 0.334-0.773-0.097-0.812-0.19-0.039-0.095-0.301-0.441 0.44-0.709 1.433-0.518 2.27-0.771 3.394-1.203 0.609-0.235 1.091-0.384 1.182-0.167v0z" stroke="#000" stroke-linecap="round" stroke-width=".0671" fill="none"/>
			<path d="m80.144 34.553c0.258 0.278-0.633 1.129-1.271 1.342-0.639 0.213-1.181 0.395-1.614 0.905-0.662 0.78-1.248 1.318-1.62 0.769-0.11-0.16-0.232-0.555 0.283-0.721 0.367-0.119 0.673-0.369 1.178-0.858 0.78-0.757 1.301-0.343 2.011-0.876 0.575-0.432 0.897-0.71 1.033-0.561z" fill="#FFCE46"/>
			<path stroke-linejoin="round" d="m80.144 34.553c0.258 0.278-0.633 1.129-1.271 1.342-0.639 0.213-1.181 0.395-1.614 0.905-0.662 0.78-1.248 1.318-1.62 0.769-0.11-0.16-0.232-0.555 0.283-0.721 0.367-0.119 0.673-0.369 1.178-0.858 0.78-0.757 1.301-0.343 2.011-0.876 0.575-0.432 0.897-0.71 1.033-0.561v0z" stroke="#000" stroke-linecap="round" stroke-width=".0671" fill="none"/>
			<path d="m78.932 33.067c0.167 0.167-0.155 0.555-0.605 1.028-0.83 0.873-1.384 1.549-2.41 2.676-0.53 0.582-0.751 0.207-0.823 0.135s-0.446-0.294 0.136-0.823c1.126-1.027 1.802-1.58 2.676-2.41 0.471-0.449 0.86-0.773 1.026-0.606z" fill="#FFCE46"/>
			<path stroke-linejoin="round" d="m78.932 33.067c0.167 0.167-0.155 0.555-0.605 1.028-0.83 0.873-1.384 1.549-2.41 2.676-0.53 0.582-0.751 0.207-0.823 0.135s-0.446-0.294 0.136-0.823c1.126-1.027 1.802-1.58 2.676-2.41 0.471-0.449 0.86-0.773 1.026-0.606v0z" stroke="#000" stroke-linecap="round" stroke-width=".0671" fill="none"/>
			<path d="m77.447 31.854c-0.28-0.256-1.13 0.633-1.343 1.272s-0.395 1.181-0.905 1.614c-0.78 0.663-1.319 1.248-0.77 1.62 0.162 0.11 0.557 0.233 0.723-0.283 0.118-0.367 0.368-0.673 0.857-1.177 0.757-0.781 0.343-1.302 0.876-2.011 0.432-0.575 0.71-0.898 0.562-1.035z" fill="#FFCE46"/>
			<path stroke-linejoin="round" d="m77.447 31.854c-0.28-0.256-1.13 0.633-1.343 1.272s-0.395 1.181-0.905 1.614c-0.78 0.663-1.319 1.248-0.77 1.62 0.162 0.11 0.557 0.233 0.723-0.283 0.118-0.367 0.368-0.673 0.857-1.177 0.757-0.781 0.343-1.302 0.876-2.011 0.432-0.575 0.71-0.898 0.562-1.035v0z" stroke="#000" stroke-linecap="round" stroke-width=".0671" fill="none"/>
			<path d="m75.751 30.942c0.218 0.09 0.068 0.571-0.166 1.181-0.433 1.125-0.685 1.962-1.202 3.395-0.267 0.74-0.615 0.479-0.709 0.44-0.095-0.039-0.524-0.101-0.19-0.812 0.647-1.379 1.062-2.149 1.551-3.251 0.264-0.597 0.498-1.042 0.716-0.953z" fill="#FFCE46"/>
			<path stroke-linejoin="round" d="m75.751 30.942c0.218 0.09 0.068 0.571-0.166 1.181-0.433 1.125-0.685 1.962-1.202 3.395-0.267 0.74-0.615 0.479-0.709 0.44-0.095-0.039-0.524-0.101-0.19-0.812 0.647-1.379 1.062-2.149 1.551-3.251 0.264-0.597 0.498-1.042 0.716-0.953v0z" stroke="#000" stroke-linecap="round" stroke-width=".0671" fill="none"/>
			<path d="m73.907 30.389c0.379 0.016 0.351 1.246 0.05 1.849s-0.557 1.114-0.502 1.781c0.084 1.021 0.051 1.815-0.602 1.69-0.192-0.037-0.558-0.229-0.31-0.712 0.176-0.343 0.215-0.735 0.226-1.438 0.017-1.087 0.678-1.162 0.803-2.04 0.102-0.714 0.134-1.139 0.335-1.13z" fill="#FFCE46"/>
			<path stroke-linejoin="round" d="m73.907 30.389c0.379 0.016 0.351 1.246 0.05 1.849s-0.557 1.114-0.502 1.781c0.084 1.021 0.051 1.815-0.602 1.69-0.192-0.037-0.558-0.229-0.31-0.712 0.176-0.343 0.215-0.735 0.226-1.438 0.017-1.087 0.678-1.162 0.803-2.04 0.102-0.714 0.134-1.139 0.335-1.13v0z" stroke="#000" stroke-linecap="round" stroke-width=".0671" fill="none"/>
			<path d="m71.28 41.802c0.218-0.118 0.568-0.185 0.72 0.008 0.15-0.192 0.502-0.126 0.72-0.008 0.217 0.116 0.518 0.032 0.678 0.133-0.093-0.024-0.461 0.176-0.72 0.084s-0.234 0.067-0.678 0.067c-0.443 0-0.419-0.159-0.678-0.067s-0.627-0.108-0.72-0.084c0.16-0.101 0.461-0.017 0.678-0.133z"/>
			<path d="m72 42.437c0.213 0 0.405-0.033 0.568-0.096 0.077-0.029 0.13-0.134 0.135-0.028 0.004 0.104-0.177 0.35-0.703 0.35-0.527 0-0.707-0.246-0.703-0.35 0.005-0.105 0.057-0.001 0.134 0.028 0.163 0.062 0.355 0.096 0.569 0.096z"/>
			<path d="m72 41.146c0.108 0 0.207-0.071 0.252-0.121 0.058-0.062 0.158-0.056 0.278-0.05 0.135 0.006 0.19-0.059 0.215-0.134 0.033-0.108 0.037-0.276-0.141-0.364 0.106 0.053 0.136 0.235 0.082 0.348-0.037 0.079-0.148 0.087-0.235 0.079-0.086-0.009-0.221 0.034-0.276 0.092-0.045 0.049-0.099 0.071-0.175 0.071s-0.13-0.023-0.175-0.071c-0.056-0.058-0.191-0.101-0.277-0.092-0.086 0.008-0.197 0-0.234-0.079-0.054-0.112-0.024-0.295 0.081-0.348-0.179 0.088-0.173 0.256-0.14 0.364 0.023 0.075 0.079 0.14 0.214 0.134 0.121-0.006 0.222-0.013 0.278 0.05 0.046 0.05 0.145 0.121 0.253 0.121z"/>
			<path d="m69.411 39.031c0.357-0.19 0.703-0.31 1.271-0.276 0.568 0.033 0.837 0.167 0.962 0.242 0.126 0.076 0.084 0.101-0.042 0.101-0.125 0-0.51-0.075-0.811-0.159-0.302-0.083-0.856-0.091-1.343 0.117-0.028 0.012-0.099 0.008-0.037-0.025z"/>
			<path d="m71.205 39.056c-0.062 0.251-0.351 0.531-0.627 0.531-0.423 0-0.773-0.28-0.781-0.627 0.05 0.326 0.355 0.551 0.776 0.551 0.277 0 0.532-0.2 0.632-0.455z"/>
			<path d="m70.223 39.061c0.029 0.162 0.172 0.301 0.385 0.301 0.15 0 0.393-0.042 0.481-0.364-0.122-0.084-0.494-0.125-0.599-0.121 0.092 0.166-0.053 0.27-0.267 0.184z"/>
			<path d="m71.729 38.37c-0.585-0.335-1.412-0.45-1.991-0.335-0.167 0.034-0.329 0.09-0.176 0.209 0.113 0.088 0.185 0.031 0.394 0 0.501-0.075 1.224-0.012 1.53 0.184 0.093 0.059 0.155 0.084 0.243 0.084s0.174-0.041 0-0.142z"/>
			<path d="m72 37.491c0.108 0 0.242 0.075 0.385 0.168 0.142 0.092 0.418 0.008 0.535-0.067s0.41-0.209 0.854 0.109c-0.465-0.23-0.713-0.121-0.824-0.038s-0.416 0.172-0.565 0.09c-0.147-0.081-0.276-0.148-0.385-0.142-0.108 0.008-0.237 0.061-0.385 0.142-0.148 0.082-0.453-0.007-0.564-0.09-0.112-0.083-0.359-0.192-0.824 0.038 0.443-0.318 0.736-0.185 0.854-0.109 0.116 0.075 0.393 0.159 0.535 0.067 0.141-0.093 0.275-0.168 0.384-0.168z"/>
			<path d="m72 37.104c0.552 0 0.815-0.302 1.255 0.092-0.251-0.21-0.59-0.168-0.729-0.117-0.138 0.05-0.393 0.1-0.526 0.1s-0.389-0.05-0.527-0.1c-0.138-0.051-0.477-0.093-0.728 0.117 0.439-0.394 0.703-0.092 1.255-0.092z"/>
			<path d="m74.622 39.031c-0.356-0.19-0.703-0.31-1.271-0.276-0.568 0.033-0.837 0.167-0.962 0.242-0.125 0.076-0.083 0.101 0.042 0.101s0.51-0.075 0.812-0.159c0.301-0.083 0.854-0.091 1.342 0.117 0.028 0.012 0.1 0.008 0.037-0.025z"/>
			<path d="m72.827 39.056c0.063 0.251 0.352 0.531 0.628 0.531 0.422 0 0.773-0.28 0.782-0.627-0.051 0.326-0.355 0.551-0.778 0.551-0.276 0-0.531-0.2-0.632-0.455z"/>
			<path d="m73.242 38.966c0.029 0.164 0.171 0.302 0.385 0.302 0.15 0 0.468-0.071 0.53-0.447-0.121-0.084-0.53-0.063-0.648-0.038 0.093 0.166-0.054 0.272-0.267 0.183z"/>
			<path d="m72.306 38.37c0.585-0.335 1.411-0.45 1.99-0.335 0.167 0.034 0.329 0.09 0.175 0.209-0.112 0.088-0.184 0.031-0.393 0-0.502-0.075-1.224-0.012-1.53 0.184-0.093 0.059-0.155 0.084-0.242 0.084-0.089 0.001-0.176-0.041 0-0.142z"/>
			<path stroke-linejoin="round" d="m68.791 37.966h0.218m-0.389 0.268h0.307m-0.437 0.268h0.371m-0.475 0.268h0.387m-0.461 0.267h0.488m-0.541 0.268h0.406m-0.445 0.267h0.571m-0.58 0.269h0.528m-0.519 0.267h0.653m-0.618 0.267h0.585m-0.542 0.269h0.629m-0.576 0.267h0.589m-0.502 0.268h0.452m-0.347 0.267h0.531m-0.401 0.268h0.55m-0.41 0.267h0.443m-0.26 0.268h0.546m-0.337 0.268h0.42m-0.166 0.267h0.235m0.087 0.268h0.088m5.093-5.353h0.153m-0.049 0.267h0.211m-0.064 0.268h0.21m-0.194 0.268h0.324m-0.19 0.268h0.27m-0.332 0.267h0.413m-0.333 0.268h0.39m-0.461 0.267h0.438m-0.284 0.269h0.364m-0.397 0.267h0.397m-0.481 0.267h0.456m-0.556 0.269h0.468m-0.547 0.267h0.546m-0.568 0.268h0.496m-0.685 0.267h0.604m-0.582 0.268h0.469m-0.79 0.267h0.635m-0.599 0.268h0.454m-0.846 0.268h0.644m-0.67 0.267h0.427m-1.012 0.268h0.736m-0.803 0.267h0.407m-0.876 0.269h0.414" stroke="#000" stroke-linecap="round" stroke-width=".0336" fill="none"/>
</g>
</svg>
