<?xml version="1.0" encoding="UTF-8" standalone="no"?>
<!-- Generator: Adobe Illustrator 18.0.0, SVG Export Plug-In . SVG Version: 6.00 Build 0)  -->
<!DOCTYPE svg  PUBLIC '-//W3C//DTD SVG 1.1//EN'  'http://www.w3.org/Graphics/SVG/1.1/DTD/svg11.dtd'>
<svg style="enable-background:new 0 0 144 80" xmlns="http://www.w3.org/2000/svg" xml:space="preserve" version="1.1" y="0px" x="0px" xmlns:xlink="http://www.w3.org/1999/xlink" viewBox="0 0 144 80">
<g id="GBR">
		<polygon points="144 80 144 0 0 0 0 80" fill="#273376"/>
		<polyline points="83.903 0 83.903 23.535 126.45 0 144 0 144 9.723 113.44 26.659 144 26.659 144 53.338 113.44 53.338 144 70.273 144 80 126.45 80 83.903 56.462 83.903 80 59.946 80 59.946 56.462 17.401 80 0 80 0 70.273 30.413 53.338 0 53.338 0 26.659 0 26.659 30.413 26.659 0 9.723 0 0 17.401 0 59.946 23.535 59.946 0" fill="#fff"/>
		<polygon points="132.68 0 84.616 26.678 96.122 26.678 144 0" fill="#CE202C"/>
		<polygon points="144 80 96.07 53.338 107.63 53.338 144 73.644" fill="#CE202C"/>
		<polygon points="48.156 26.678 0 0 0 6.372 36.551 26.678" fill="#CE202C"/>
		<polygon points="48.058 53.338 0 80 11.499 80 59.563 53.338" fill="#CE202C"/>
		<polygon points="0 32.194 65.05 32.194 65.05 0 79.126 0 79.126 32.194 144 32.194 144 47.817 79.126 47.817 79.126 80 65.05 80 65.05 47.817 0 47.817" fill="#CE202C"/>
</g>
</svg>
