<?xml version="1.0" encoding="UTF-8" standalone="no"?>
<!-- Generator: Adobe Illustrator 18.0.0, SVG Export Plug-In . SVG Version: 6.00 Build 0)  -->
<!DOCTYPE svg  PUBLIC '-//W3C//DTD SVG 1.1//EN'  'http://www.w3.org/Graphics/SVG/1.1/DTD/svg11.dtd'>
<svg style="enable-background:new 0 0 144 80" xmlns="http://www.w3.org/2000/svg" xml:space="preserve" version="1.1" y="0px" x="0px" xmlns:xlink="http://www.w3.org/1999/xlink" viewBox="0 0 144 80">
<g id="TJK">
			<polygon points="144 22.857 0 22.857 0 0 144 0" fill="#CA2027"/>
			<polygon points="144 80 0 80 0 57.144 144 57.144" fill="#146734"/>
			<polygon points="0 57.144 144 57.144 144 22.857 0 22.857" fill="#fff"/>
			<polygon points="74.094 27.611 73.725 28.936 72.312 28.936 73.496 29.68 72.995 30.996 74.094 30.113 75.192 30.996 74.696 29.67 75.876 28.936 74.468 28.936" fill="#F2CD1E"/>
			<polygon points="67.632 29.4 67.263 30.727 65.849 30.727 67.034 31.471 66.532 32.787 67.632 31.904 68.729 32.787 68.233 31.461 69.413 30.727 68.006 30.727" fill="#F2CD1E"/>
			<polygon points="63.015 34.264 62.646 35.59 61.233 35.59 62.418 36.334 61.916 37.65 63.015 36.768 64.114 37.65 63.618 36.324 64.799 35.59 63.39 35.59" fill="#F2CD1E"/>
			<polygon points="61.566 40.811 61.196 42.137 59.783 42.137 60.969 42.881 60.468 44.195 61.566 43.314 62.665 44.195 62.168 42.871 63.349 42.137 61.94 42.137" fill="#F2CD1E"/>
			<path d="m74.094 49.129c0.702 0 1.183-0.58 1.404-0.652 0.221-0.074 0.259-0.186-0.013-0.271-0.143-0.045-0.628-0.074-0.875 0 0.013-0.309-0.307-1.061-0.517-1.393-0.209 0.332-0.529 1.084-0.517 1.393-0.248-0.074-0.734-0.045-0.875 0-0.271 0.086-0.234 0.197-0.013 0.271 0.223 0.072 0.704 0.652 1.406 0.652z" fill="#F2CD1E"/>
			<path d="m68.62 49.793c0.694-0.104 1.085-0.746 1.293-0.852 0.209-0.105 0.229-0.221-0.053-0.268-0.145-0.023-0.631 0.02-0.863 0.129-0.033-0.307-0.461-1.002-0.716-1.301-0.158 0.361-0.364 1.15-0.308 1.453-0.254-0.037-0.731 0.062-0.865 0.127-0.255 0.125-0.202 0.23 0.028 0.27 0.231 0.042 0.791 0.545 1.484 0.442z" fill="#F2CD1E"/>
			<path d="m74.094 43.352c0.665 3.252 3.571 5.494 6.157 1.896 0.69 3.844 4.335 3.795 5.469 1.404-1.971 1.084-4.262 0.541-5.419-1.799-1.577 1.725-4.36 0.814-5.296-0.787s-0.738-4.705-0.32-5.418c0.419-0.715 1.479-0.689 1.994-0.049 0.247-1.848-0.96-3.055-2.585-3.055-1.626 0-2.833 1.207-2.587 3.055 0.518-0.641 1.577-0.666 1.996 0.049 0.419 0.713 0.615 3.816-0.32 5.418-0.938 1.602-3.721 2.512-5.296 0.787-1.157 2.34-3.448 2.883-5.419 1.799 1.135 2.391 4.777 2.439 5.469-1.404 2.585 3.598 5.492 1.356 6.157-1.896z" fill="#F2CD1E"/>
			<path d="m74.094 50.076c2.734 0 7.118 0.689 8.842 1.256l-0.246 1.057c-1.865-0.551-5.983-1.18-8.596-1.18-2.612 0-6.731 0.629-8.597 1.18l-0.245-1.057c1.724-0.566 6.108-1.256 8.842-1.256z" fill="#F2CD1E"/>
			<polygon points="80.556 29.4 80.925 30.727 82.339 30.727 81.153 31.471 81.654 32.787 80.556 31.904 79.457 32.787 79.954 31.461 78.773 30.727 80.182 30.727" fill="#F2CD1E"/>
			<polygon points="85.171 34.264 85.54 35.59 86.954 35.59 85.77 36.334 86.271 37.65 85.171 36.768 84.072 37.65 84.569 36.324 83.39 35.59 84.798 35.59" fill="#F2CD1E"/>
			<polygon points="86.62 40.811 86.991 42.137 88.403 42.137 87.219 42.881 87.72 44.195 86.62 43.314 85.521 44.195 86.019 42.871 84.839 42.137 86.245 42.137" fill="#F2CD1E"/>
			<path d="m79.566 49.793c-0.694-0.104-1.084-0.746-1.292-0.852-0.209-0.105-0.229-0.221 0.051-0.268 0.146-0.023 0.633 0.02 0.865 0.129 0.033-0.307 0.461-1.002 0.716-1.301 0.158 0.361 0.364 1.15 0.308 1.453 0.254-0.037 0.73 0.062 0.863 0.127 0.257 0.125 0.204 0.23-0.026 0.27-0.23 0.042-0.79 0.545-1.485 0.442z" fill="#F2CD1E"/>
			<path d="m74.094 38.617c0.173-0.787 1.519-1.258 2.121-0.822-0.162-0.875-0.747-1.756-2.121-1.756s-1.959 0.881-2.121 1.756c0.6-0.436 1.949 0.035 2.121 0.822z" fill="#fff"/>
</g>
</svg>
