<?xml version="1.0" encoding="UTF-8" standalone="no"?>
<!-- Generator: Adobe Illustrator 18.0.0, SVG Export Plug-In . SVG Version: 6.00 Build 0)  -->
<!DOCTYPE svg  PUBLIC '-//W3C//DTD SVG 1.1//EN'  'http://www.w3.org/Graphics/SVG/1.1/DTD/svg11.dtd'>
<svg style="enable-background:new 0 0 144 80" xmlns="http://www.w3.org/2000/svg" xml:space="preserve" version="1.1" y="0px" x="0px" xmlns:xlink="http://www.w3.org/1999/xlink" viewBox="0 0 144 80">
<g id="HON">
			<polygon points="0 53.333 144 53.333 144 26.666 0 26.666" fill="#fff"/>
			<polygon points="144 53.333 0 53.333 0 80 144 80" fill="#0073CF"/>
			<polygon points="144 26.666 0 26.666 0 0 144 0" fill="#0073CF"/>
		<g fill="#0073CF">
			<polygon points="72.001 36.192 71.065 39.098 67.991 39.098 70.487 40.905 69.528 43.808 72.001 42.004 74.472 43.808 73.525 40.881 76.009 39.109 72.947 39.109"/>
			<polygon points="82.163 29.95 81.228 32.855 78.151 32.855 80.649 34.663 79.69 37.566 82.163 35.762 84.634 37.566 83.687 34.639 86.171 32.867 83.108 32.867"/>
			<polygon points="82.163 42.435 83.096 45.34 86.171 45.34 83.675 47.146 84.635 50.05 82.163 48.245 79.69 50.05 80.636 47.123 78.151 45.352 81.215 45.352"/>
			<polygon points="61.839 29.95 62.774 32.855 65.848 32.855 63.351 34.663 64.312 37.566 61.839 35.762 59.367 37.566 60.313 34.639 57.829 32.867 60.892 32.867"/>
			<polygon points="61.839 42.435 60.903 45.34 57.829 45.34 60.326 47.146 59.367 50.05 61.839 48.245 64.312 50.05 63.364 47.123 65.848 45.352 62.786 45.352"/>
		</g>
</g>
</svg>
