<?xml version="1.0" encoding="UTF-8" standalone="no"?>
<!-- Generator: Adobe Illustrator 18.0.0, SVG Export Plug-In . SVG Version: 6.00 Build 0)  -->
<!DOCTYPE svg  PUBLIC '-//W3C//DTD SVG 1.1//EN'  'http://www.w3.org/Graphics/SVG/1.1/DTD/svg11.dtd'>
<svg style="enable-background:new 0 0 144 80" xmlns="http://www.w3.org/2000/svg" xml:space="preserve" version="1.1" y="0px" x="0px" xmlns:xlink="http://www.w3.org/1999/xlink" viewBox="0 0 144 80">
<g id="MAW">
			<polygon points="144 53.334 0 53.334 0 26.666 144 26.666" fill="#EC1C2E"/>
			<polygon points="0 26.666 144 26.666 144 0 0 0"/>
			<polygon points="144 80 0 80 0 53.334 144 53.334" fill="#009C57"/>
		<g fill="#EC1C2E">
			<path d="m71.968 10.986c0-1.41-1.471-7.812 0.004-7.812 1.472 0.001-0.004 6.402-0.004 7.812z"/>
			<path d="m70.534 11.051c-0.121-1.403-2.145-7.652-0.676-7.781 1.467-0.129 0.555 6.378 0.676 7.781z"/>
			<path d="m69.112 11.242c-0.242-1.389-2.805-7.439-1.352-7.694 1.45-0.257 1.11 6.306 1.352 7.694z"/>
			<path d="m67.714 11.555c-0.365-1.361-3.441-7.166-2.02-7.547 1.422-0.382 1.655 6.185 2.02 7.547z"/>
			<path d="m66.349 11.988c-0.482-1.325-4.055-6.838-2.672-7.343 1.385-0.502 2.189 6.018 2.672 7.343z"/>
			<path d="m65.024 12.539c-0.598-1.276-4.635-6.459-3.299-7.081 1.335-0.623 2.702 5.805 3.299 7.081z"/>
			<path d="m63.753 13.204c-0.705-1.221-5.18-6.031-3.904-6.767 1.275-0.737 3.199 5.546 3.904 6.767z"/>
			<path d="m62.544 13.978c-0.807-1.155-5.686-5.557-4.479-6.402s3.672 5.246 4.479 6.402z"/>
			<path d="m61.409 14.854c-0.906-1.081-6.148-5.041-5.02-5.988 1.128-0.948 4.114 4.907 5.02 5.988z"/>
			<path d="m60.354 15.823c-0.998-0.997-6.566-4.484-5.523-5.527 1.043-1.041 4.525 4.53 5.523 5.527z"/>
			<path d="m59.388 16.882c-1.08-0.906-6.932-3.894-5.984-5.024 0.947-1.129 4.904 4.118 5.984 5.024z"/>
			<path d="m58.517 18.022c-1.154-0.809-7.244-3.277-6.399-4.483 0.844-1.208 5.244 3.675 6.399 4.483z"/>
			<path d="m57.749 19.232c-1.223-0.704-7.502-2.633-6.766-3.908 0.737-1.277 5.543 3.204 6.766 3.908z"/>
			<path d="m57.087 20.506c-1.275-0.596-7.701-1.969-7.078-3.305 0.623-1.335 5.803 2.709 7.078 3.305z"/>
			<path d="m56.542 21.832c-1.324-0.481-7.844-1.29-7.342-2.675 0.504-1.385 6.018 2.194 7.342 2.675z"/>
			<path d="m52.521 22.695c-2.076-0.284-4.174-0.697-3.953-1.519 0.301-1.126 3.988 0.581 6.195 1.519h-2.242z"/>
			<path d="m87.438 21.768c1.326-0.482 6.842-4.057 7.346-2.671 0.504 1.385-6.019 2.188-7.346 2.671z"/>
			<path d="m86.888 20.443c1.277-0.596 6.461-4.636 7.084-3.301 0.623 1.336-5.807 2.706-7.084 3.301z"/>
			<path d="m86.224 19.173c1.221-0.706 6.031-5.181 6.77-3.906 0.735 1.276-5.55 3.2-6.77 3.906z"/>
			<path d="m85.448 17.964c1.156-0.809 5.561-5.688 6.404-4.48 0.846 1.206-5.248 3.671-6.404 4.48z"/>
			<path d="m84.573 16.827c1.08-0.905 5.041-6.15 5.988-5.021 0.948 1.13-4.908 4.116-5.988 5.021z"/>
			<path d="m83.603 15.773c0.996-0.998 4.486-6.567 5.529-5.525 1.041 1.041-4.533 4.526-5.529 5.525z"/>
			<path d="m82.542 14.805c0.908-1.08 3.898-6.933 5.025-5.985 1.131 0.948-4.117 4.905-5.025 5.985z"/>
			<path d="m81.403 13.935c0.809-1.156 3.277-7.247 4.484-6.401 1.208 0.844-3.675 5.244-4.484 6.401z"/>
			<path d="m80.19 13.166c0.707-1.221 2.635-7.504 3.91-6.768 1.278 0.737-3.203 5.547-3.91 6.768z"/>
			<path d="m78.917 12.506c0.598-1.278 1.971-7.705 3.307-7.082 1.336 0.622-2.709 5.804-3.307 7.082z"/>
			<path d="m77.591 11.96c0.482-1.325 1.291-7.848 2.676-7.345 1.386 0.505-2.194 6.02-2.676 7.345z"/>
			<path d="m76.222 11.531c0.367-1.363 0.601-7.93 2.027-7.55 1.424 0.382-1.66 6.187-2.027 7.55z"/>
			<path d="m74.821 11.223c0.244-1.389-0.092-7.952 1.359-7.695 1.452 0.255-1.115 6.306-1.359 7.695z"/>
			<path d="m73.397 11.039c0.123-1.405-0.783-7.914 0.684-7.786 1.469 0.128-0.56 6.381-0.684 7.786z"/>
			<path d="m91.479 22.695c2.074-0.284 4.174-0.697 3.953-1.519-0.301-1.126-3.99 0.581-6.195 1.519h2.242z"/>
			<path d="m87.13 22.695c-2.039-6.43-8.055-11.087-15.158-11.087-7.105 0-13.121 4.657-15.158 11.087h30.316z"/>
		</g>
</g>
</svg>
