<?xml version="1.0" encoding="UTF-8" standalone="no"?>
<!-- Generator: Adobe Illustrator 18.0.0, SVG Export Plug-In . SVG Version: 6.00 Build 0)  -->
<!DOCTYPE svg  PUBLIC '-//W3C//DTD SVG 1.1//EN'  'http://www.w3.org/Graphics/SVG/1.1/DTD/svg11.dtd'>
<svg style="enable-background:new 0 0 144 80" xmlns="http://www.w3.org/2000/svg" xml:space="preserve" version="1.1" y="0px" x="0px" xmlns:xlink="http://www.w3.org/1999/xlink" viewBox="0 0 144 80">
<g id="STP">
		<polygon points="0 0 144 0 144 80 0 80" fill="#12AD2B"/>
			<polygon points="0 57.141 144 57.141 144 22.857 0 22.857" fill="#FFCE00"/>
			<polygon points="35.996 40 0 80 0 0" fill="#D21034"/>
			<polygon points="74.979 28.021 72.038 37.162 62.366 37.162 70.22 42.848 67.203 51.979 74.979 46.305 82.755 51.979 79.777 42.77 87.591 37.199 77.958 37.199"/>
			<polygon points="113.67 28.021 110.73 37.162 101.05 37.162 108.91 42.848 105.89 51.979 113.67 46.305 121.44 51.979 118.47 42.77 126.28 37.199 116.65 37.199"/>
</g>
</svg>
