<?xml version="1.0" encoding="UTF-8" standalone="no"?>
<!-- Generator: Adobe Illustrator 18.0.0, SVG Export Plug-In . SVG Version: 6.00 Build 0)  -->
<!DOCTYPE svg  PUBLIC '-//W3C//DTD SVG 1.1//EN'  'http://www.w3.org/Graphics/SVG/1.1/DTD/svg11.dtd'>
<svg style="enable-background:new 0 0 144 80" xmlns="http://www.w3.org/2000/svg" xml:space="preserve" version="1.1" y="0px" x="0px" xmlns:xlink="http://www.w3.org/1999/xlink" viewBox="0 0 144 80">
<g id="MTN">
		<polygon points="144 80 144 0 0 0 0 80" fill="#006233"/>
		<g fill="#FFC400">
			<path d="m90.666 20.803c2.757 3.801 4.394 8.465 4.394 13.518 0 12.736-10.324 23.061-23.06 23.061-12.735 0-23.06-10.324-23.06-23.061 0-5.039 1.639-9.707 4.384-13.502-1.141 2.545-1.753 5.363-1.753 8.332 0 11.281 9.146 20.428 20.429 20.428 11.281 0 20.428-9.146 20.428-20.428 0-2.969-0.622-5.801-1.762-8.348z"/>
			<polygon points="71.898 10.619 69.946 16.682 63.53 16.682 68.741 20.453 66.739 26.51 71.898 22.746 77.056 26.51 75.081 20.402 80.265 16.705 73.874 16.705"/>
		</g>
</g>
</svg>
