<?xml version="1.0" encoding="UTF-8" standalone="no"?>
<!-- Generator: Adobe Illustrator 18.0.0, SVG Export Plug-In . SVG Version: 6.00 Build 0)  -->
<!DOCTYPE svg  PUBLIC '-//W3C//DTD SVG 1.1//EN'  'http://www.w3.org/Graphics/SVG/1.1/DTD/svg11.dtd'>
<svg style="enable-background:new 0 0 144 80" xmlns="http://www.w3.org/2000/svg" xml:space="preserve" version="1.1" y="0px" x="0px" xmlns:xlink="http://www.w3.org/1999/xlink" viewBox="0 0 144 80">
<g id="GRN">
		<polygon points="144 80 144 0 0 0 0 80" fill="#CE1126"/>
		<path d="m72 40.1" fill="#F05C2F"/>
		<path stroke-width=".1422" d="m72 40.1" stroke="#000" fill="none"/>
		<polygon points="132.77 68.324 132.77 11.875 11.231 11.875 11.231 68.324" fill="#FCD116"/>
		<path d="m72 40.1" fill="#FCD116"/>
		<path stroke-width=".1422" d="m72 40.1" stroke="#000" fill="none"/>
		<polygon points="11.231 68.324 11.231 11.875 72 40.1" fill="#007A5E"/>
		<polygon points="132.77 68.324 132.77 11.875 72 40.1" fill="#007A5E"/>
			<path d="m22.135 37.09c1.571 1.541 3.132 4.746 2.398 7.842-3.09-0.76-5.23-3.609-5.887-5.711l3.489-2.131z" fill="#F05C2F"/>
			<path d="m21.111 39.332c2.754 0.902 4.293 3.25 5.537 5.287 3.133-9.748-6.744-8.746-9.085-11.092 1.019 3.154-4.378 11.486 5.727 13.145-1.246-2.037-2.633-4.477-2.179-7.34z" fill="#FCD116"/>
		<polygon points="44.879 69.709 43.902 72.738 40.696 72.738 43.302 74.625 42.299 77.652 44.879 75.771 47.457 77.652 46.469 74.598 49.062 72.752 45.865 72.752" fill="#FCD116"/>
		<polygon points="71.965 69.709 70.991 72.738 67.783 72.738 70.387 74.625 69.387 77.652 71.965 75.771 74.545 77.652 73.557 74.598 76.148 72.752 72.953 72.752" fill="#FCD116"/>
		<polygon points="99.054 69.709 98.077 72.738 94.869 72.738 97.476 74.625 96.475 77.652 99.054 75.771 101.63 77.652 100.64 74.598 103.24 72.752 100.04 72.752" fill="#FCD116"/>
		<polygon points="44.879 2.348 43.902 5.379 40.696 5.379 43.302 7.266 42.299 10.293 44.879 8.412 47.457 10.293 46.469 7.238 49.062 5.391 45.865 5.391" fill="#FCD116"/>
		<polygon points="71.965 2.348 70.991 5.379 67.783 5.379 70.387 7.266 69.387 10.293 71.965 8.412 74.545 10.293 73.557 7.238 76.148 5.391 72.953 5.391" fill="#FCD116"/>
		<polygon points="99.054 2.348 98.077 5.379 94.869 5.379 97.476 7.266 96.475 10.293 99.054 8.412 101.63 10.293 100.64 7.238 103.24 5.391 100.04 5.391" fill="#FCD116"/>
		<path d="m72 49.141c4.993 0 9.041-4.047 9.041-9.041s-4.048-9.043-9.041-9.043c-4.994 0-9.042 4.049-9.042 9.043s4.048 9.041 9.042 9.041z" fill="#CE1126"/>
		<path d="m72 40.1" fill="#F05C2F"/>
		<path stroke-linejoin="bevel" d="m72 40.1" stroke="#000" stroke-width=".0711" fill="none"/>
		<polygon points="72 32.61 70.334 37.789 64.854 37.789 69.305 41.01 67.594 46.183 72 42.971 76.404 46.183 74.717 40.965 79.144 37.808 73.688 37.808" fill="#FCD116"/>
		<path d="m72 40.1" fill="#FCD116"/>
</g>
</svg>
