<?xml version="1.0" encoding="UTF-8" standalone="no"?>
<!-- Generator: Adobe Illustrator 18.0.0, SVG Export Plug-In . SVG Version: 6.00 Build 0)  -->
<!DOCTYPE svg  PUBLIC '-//W3C//DTD SVG 1.1//EN'  'http://www.w3.org/Graphics/SVG/1.1/DTD/svg11.dtd'>
<svg style="enable-background:new 0 0 144 80" xmlns="http://www.w3.org/2000/svg" xml:space="preserve" version="1.1" y="0px" x="0px" xmlns:xlink="http://www.w3.org/1999/xlink" viewBox="0 0 144 80">
<g id="GRE">
		<polygon points="144 80 144 0 0 0 0 80" fill="#007CC1"/>
		<path d="m72.001 40" fill="#007CC1"/>
		<path stroke-width=".1633" d="m72.001 40" stroke="#000" fill="none"/>
		<polygon points="144 17.777 44.092 17.777 44.092 8.891 144 8.891" fill="#fff"/>
		<polygon points="144 35.556 44.092 35.556 44.092 26.666 144 26.666" fill="#fff"/>
		<polygon points="144 71.114 0 71.114 0 62.226 144 62.226" fill="#fff"/>
		<polygon points="26.337 44.422 144 44.422 144 53.336 0 53.336 0 44.422 17.511 44.422 17.511 26.666 0 26.666 0 17.777 17.511 17.777 17.511 0 26.337 0 26.337 17.777 44.092 17.777 44.092 26.666 26.337 26.666" fill="#fff"/>
</g>
</svg>
