<?xml version="1.0" encoding="UTF-8" standalone="no"?>
<!-- Generator: Adobe Illustrator 18.0.0, SVG Export Plug-In . SVG Version: 6.00 Build 0)  -->
<!DOCTYPE svg  PUBLIC '-//W3C//DTD SVG 1.1//EN'  'http://www.w3.org/Graphics/SVG/1.1/DTD/svg11.dtd'>
<svg style="enable-background:new 0 0 144 80" xmlns="http://www.w3.org/2000/svg" xml:space="preserve" version="1.1" y="0px" x="0px" xmlns:xlink="http://www.w3.org/1999/xlink" viewBox="0 0 144 80">
<g id="BLR">
			<polygon points="15.88 53.342 144 53.342 144 0 15.88 0" fill="#ED3424"/>
			<polygon points="144 80 144 53.342 15.88 53.342 15.88 80" fill="#00B084"/>
			<polygon points="18.858 80 18.858 0 0 0 0 80" fill="#fff"/>
				<polygon points="4.826 13.968 4.826 14.957 5.251 14.957 5.251 16.079 5.742 16.079 5.742 17.223 5.251 17.223 5.251 18.345 4.826 18.345 4.826 19.335 4.155 19.335 4.155 18.345 3.731 18.345 3.731 17.223 3.205 17.223 3.205 16.079 3.731 16.079 3.731 14.957 4.155 14.957 4.155 13.968" fill="#ED3424"/>
				<polygon points="4.826 66.021 4.826 65.032 5.251 65.032 5.251 63.91 5.742 63.91 5.742 62.767 5.251 62.767 5.251 61.644 4.826 61.644 4.826 60.655 4.155 60.655 4.155 61.644 3.731 61.644 3.731 62.767 3.205 62.767 3.205 63.91 3.731 63.91 3.731 65.032 4.155 65.032 4.155 66.021" fill="#ED3424"/>
				<polygon points="9.819 9.774 9.819 11.269 10.479 11.269 10.479 12.873 11.238 12.873 11.238 14.049 12.087 14.049 12.087 15.545 12.714 15.545 12.714 14.049 13.561 14.049 13.561 12.873 14.321 12.873 14.321 11.269 14.979 11.269 14.979 9.774 15.653 9.774 15.653 7.742 14.979 7.742 14.979 6.033 14.321 6.033 14.321 3.975 13.561 3.975 13.561 2.704 11.238 2.704 11.238 3.975 10.479 3.975 10.479 6.033 9.819 6.033 9.819 7.742 9.038 7.742 9.038 6.033 8.379 6.033 8.379 3.975 7.619 3.975 7.619 2.704 5.295 2.704 5.295 3.975 4.535 3.975 4.535 6.033 3.876 6.033 3.876 7.742 3.205 7.742 3.205 9.774 3.876 9.774 3.876 11.269 4.535 11.269 4.535 12.873 5.295 12.873 5.295 14.049 6.144 14.049 6.144 15.545 6.769 15.545 6.769 14.049 7.619 14.049 7.619 12.873 8.379 12.873 8.379 11.269 9.038 11.269 9.038 9.774" fill="#ED3424"/>
				<polygon points="14.031 13.968 14.031 14.957 13.607 14.957 13.607 16.079 13.115 16.079 13.115 17.223 13.607 17.223 13.607 18.345 14.031 18.345 14.031 19.335 14.701 19.335 14.701 18.345 15.126 18.345 15.126 17.223 15.653 17.223 15.653 16.079 15.126 16.079 15.126 14.957 14.701 14.957 14.701 13.968" fill="#ED3424"/>
				<polygon points="9.653 17.223 9.653 18.345 10.077 18.345 10.077 19.335 10.747 19.335 10.747 18.345 11.171 18.345 11.171 17.223 11.663 17.223 11.663 16.079 11.171 16.079 11.171 14.957 10.747 14.957 10.747 13.968 10.077 13.968 10.077 14.957 9.653 14.957 9.653 16.079 9.205 16.079 9.205 14.957 8.78 14.957 8.78 13.968 8.11 13.968 8.11 14.957 7.687 14.957 7.687 16.079 7.194 16.079 7.194 17.223 7.687 17.223 7.687 18.345 8.11 18.345 8.11 19.335 8.78 19.335 8.78 18.345 9.205 18.345 9.205 17.223" fill="#ED3424"/>
				<polygon points="9.819 70.216 9.819 68.72 10.479 68.72 10.479 67.117 11.238 67.117 11.238 65.94 12.087 65.94 12.087 64.444 12.714 64.444 12.714 65.94 13.561 65.94 13.561 67.117 14.321 67.117 14.321 68.72 14.979 68.72 14.979 70.216 15.653 70.216 15.653 72.247 14.979 72.247 14.979 73.957 14.321 73.957 14.321 76.015 13.561 76.015 13.561 77.297 11.238 77.297 11.238 76.015 10.479 76.015 10.479 73.957 9.819 73.957 9.819 72.247 9.038 72.247 9.038 73.957 8.379 73.957 8.379 76.015 7.619 76.015 7.619 77.297 5.295 77.297 5.295 76.015 4.535 76.015 4.535 73.957 3.876 73.957 3.876 72.247 3.205 72.247 3.205 70.216 3.876 70.216 3.876 68.72 4.535 68.72 4.535 67.117 5.295 67.117 5.295 65.94 6.144 65.94 6.144 64.444 6.769 64.444 6.769 65.94 7.619 65.94 7.619 67.117 8.379 67.117 8.379 68.72 9.038 68.72 9.038 70.216" fill="#ED3424"/>
				<polygon points="14.031 66.021 14.031 65.032 13.607 65.032 13.607 63.91 13.115 63.91 13.115 62.767 13.607 62.767 13.607 61.644 14.031 61.644 14.031 60.655 14.701 60.655 14.701 61.644 15.126 61.644 15.126 62.767 15.653 62.767 15.653 63.91 15.126 63.91 15.126 65.032 14.701 65.032 14.701 66.021" fill="#ED3424"/>
				<polygon points="9.653 63.91 9.653 65.032 10.077 65.032 10.077 66.021 10.747 66.021 10.747 65.032 11.171 65.032 11.171 63.91 11.663 63.91 11.663 62.767 11.171 62.767 11.171 61.644 10.747 61.644 10.747 60.655 10.077 60.655 10.077 61.644 9.653 61.644 9.653 62.767 9.205 62.767 9.205 61.644 8.78 61.644 8.78 60.655 8.11 60.655 8.11 61.644 7.687 61.644 7.687 62.767 7.194 62.767 7.194 63.91 7.687 63.91 7.687 65.032 8.11 65.032 8.11 66.021 8.78 66.021 8.78 65.032 9.205 65.032 9.205 63.91" fill="#ED3424"/>
				<polygon points="9.942 55.652 9.942 57.523 10.68 57.523 10.68 59.233 11.483 59.233 11.483 60.864 11.998 60.864 11.998 61.854 12.758 61.854 12.758 60.864 13.272 60.864 13.272 59.341 14.321 59.341 14.321 57.523 15.149 57.523 15.149 55.987 15.653 55.987 15.653 53.729 15.149 53.729 15.149 52.152 14.434 52.152 14.434 49.961 13.763 49.961 13.763 48.385 13.003 48.385 13.003 49.961 12.243 49.961 12.243 52.152 11.753 52.152 11.753 53.729 12.468 53.729 12.468 55.987 11.573 55.987 11.573 54.504 10.948 54.504 10.948 51.806 10.144 51.806 10.144 49.775 10.903 49.775 10.903 48.225 11.618 48.225 11.618 46.354 12.378 46.354 12.378 44.377 13.048 44.377 13.048 42.56 13.785 42.56 13.785 44.323 14.366 44.323 14.366 45.766 14.902 45.766 14.902 47.637 15.283 47.637 15.283 49.08 15.653 49.08 15.653 43.629 15.104 43.629 15.104 41.812 14.456 41.812 14.456 40.609 13.852 40.609 13.852 39.38 14.456 39.38 14.456 38.178 15.104 38.178 15.104 36.36 15.653 36.36 15.653 30.91 15.283 30.91 15.283 32.353 14.902 32.353 14.902 34.223 14.366 34.223 14.366 35.666 13.785 35.666 13.785 37.43 13.048 37.43 13.048 35.612 12.378 35.612 12.378 33.635 11.618 33.635 11.618 31.765 10.903 31.765 10.903 30.215 10.144 30.215 10.144 28.184 10.948 28.184 10.948 25.484 11.573 25.484 11.573 24.003 12.468 24.003 12.468 26.26 11.753 26.26 11.753 27.836 12.243 27.836 12.243 30.028 13.003 30.028 13.003 31.604 13.763 31.604 13.763 30.028 14.434 30.028 14.434 27.836 15.149 27.836 15.149 26.26 15.653 26.26 15.653 24.003 15.149 24.003 15.149 22.465 14.321 22.465 14.321 20.649 13.272 20.649 13.272 19.126 12.758 19.126 12.758 18.137 11.998 18.137 11.998 19.126 11.483 19.126 11.483 20.755 10.68 20.755 10.68 22.465 9.942 22.465 9.942 24.336 8.914 24.336 8.914 22.465 8.178 22.465 8.178 20.755 7.372 20.755 7.372 19.126 6.859 19.126 6.859 18.137 6.101 18.137 6.101 19.126 5.586 19.126 5.586 20.649 4.535 20.649 4.535 22.465 3.709 22.465 3.709 24.003 3.205 24.003 3.205 26.26 3.709 26.26 3.709 27.836 4.425 27.836 4.425 30.028 5.094 30.028 5.094 31.604 5.853 31.604 5.853 30.028 6.614 30.028 6.614 27.836 7.104 27.836 7.104 26.26 6.39 26.26 6.39 24.003 7.284 24.003 7.284 25.484 7.909 25.484 7.909 28.184 8.714 28.184 8.714 30.215 7.954 30.215 7.954 31.765 7.239 31.765 7.239 33.635 6.479 33.635 6.479 35.612 5.81 35.612 5.81 37.43 5.071 37.43 5.071 35.666 4.491 35.666 4.491 34.223 3.954 34.223 3.954 32.353 3.575 32.353 3.575 30.91 3.205 30.91 3.205 36.36 3.753 36.36 3.753 38.178 4.401 38.178 4.401 39.38 5.005 39.38 5.005 40.609 4.401 40.609 4.401 41.812 3.753 41.812 3.753 43.629 3.205 43.629 3.205 49.08 3.575 49.08 3.575 47.637 3.954 47.637 3.954 45.766 4.491 45.766 4.491 44.323 5.071 44.323 5.071 42.56 5.81 42.56 5.81 44.377 6.479 44.377 6.479 46.354 7.239 46.354 7.239 48.225 7.954 48.225 7.954 49.775 8.714 49.775 8.714 51.806 7.909 51.806 7.909 54.504 7.284 54.504 7.284 55.987 6.39 55.987 6.39 53.729 7.104 53.729 7.104 52.152 6.614 52.152 6.614 49.961 5.853 49.961 5.853 48.385 5.094 48.385 5.094 49.961 4.425 49.961 4.425 52.152 3.709 52.152 3.709 53.729 3.205 53.729 3.205 55.987 3.709 55.987 3.709 57.523 4.535 57.523 4.535 59.341 5.586 59.341 5.586 60.864 6.101 60.864 6.101 61.854 6.859 61.854 6.859 60.864 7.372 60.864 7.372 59.233 8.178 59.233 8.178 57.523 8.914 57.523 8.914 55.652" fill="#ED3424"/>
				<polygon points="9.942 48.759 9.942 47.156 10.523 47.156 10.523 45.553 11.126 45.553 11.126 43.629 11.886 43.629 11.886 41.758 12.646 41.758 12.646 40.609 13.183 40.609 13.183 39.38 12.646 39.38 12.646 38.231 11.886 38.231 11.886 36.36 11.126 36.36 11.126 34.438 10.523 34.438 10.523 32.833 9.942 32.833 9.942 31.23 8.914 31.23 8.914 32.833 8.335 32.833 8.335 34.438 7.73 34.438 7.73 36.36 6.971 36.36 6.971 38.231 6.211 38.231 6.211 39.38 5.675 39.38 5.675 40.609 6.211 40.609 6.211 41.758 6.971 41.758 6.971 43.629 7.73 43.629 7.73 45.553 8.335 45.553 8.335 47.156 8.914 47.156 8.914 48.759" fill="#fff"/>
				<polygon points="9.786 41.491 9.786 42.347 10.366 42.347 10.366 43.309 10.903 43.309 10.903 41.491 10.366 41.491 10.366 40.583 9.876 40.583 9.876 39.407 10.366 39.407 10.366 38.499 10.903 38.499 10.903 36.682 10.366 36.682 10.366 37.644 9.786 37.644 9.786 38.499 9.071 38.499 9.071 37.644 8.491 37.644 8.491 36.682 7.954 36.682 7.954 38.499 8.491 38.499 8.491 39.407 8.981 39.407 8.981 40.583 8.491 40.583 8.491 41.491 7.954 41.491 7.954 43.309 8.491 43.309 8.491 42.347 9.071 42.347 9.071 41.491" fill="#ED3424"/>
				<polygon points="6.792 12.606 6.792 11.242 7.418 11.242 7.418 9.64 8.088 9.64 8.088 7.876 7.418 7.876 7.418 6.272 6.792 6.272 6.792 4.909 6.122 4.909 6.122 6.272 5.497 6.272 5.497 7.876 4.826 7.876 4.826 9.64 5.497 9.64 5.497 11.242 6.122 11.242 6.122 12.606" fill="#fff"/>
				<polygon points="6.792 67.384 6.792 68.746 7.418 68.746 7.418 70.35 8.088 70.35 8.088 72.114 7.418 72.114 7.418 73.716 6.792 73.716 6.792 75.08 6.122 75.08 6.122 73.716 5.497 73.716 5.497 72.114 4.826 72.114 4.826 70.35 5.497 70.35 5.497 68.746 6.122 68.746 6.122 67.384" fill="#fff"/>
				<polygon points="12.065 12.606 12.065 11.242 11.439 11.242 11.439 9.64 10.769 9.64 10.769 7.876 11.439 7.876 11.439 6.272 12.065 6.272 12.065 4.909 12.735 4.909 12.735 6.272 13.36 6.272 13.36 7.876 14.031 7.876 14.031 9.64 13.36 9.64 13.36 11.242 12.735 11.242 12.735 12.606" fill="#fff"/>
				<polygon points="12.065 67.384 12.065 68.746 11.439 68.746 11.439 70.35 10.769 70.35 10.769 72.114 11.439 72.114 11.439 73.716 12.065 73.716 12.065 75.08 12.735 75.08 12.735 73.716 13.36 73.716 13.36 72.114 14.031 72.114 14.031 70.35 13.36 70.35 13.36 68.746 12.735 68.746 12.735 67.384" fill="#fff"/>
				<polygon points="3.774 5.632 3.774 3.992 3.205 3.992 3.205 5.632" fill="#ED3424"/>
				<polygon points="9.675 13.499 9.675 11.868 9.183 11.868 9.183 13.499" fill="#ED3424"/>
				<polygon points="9.675 4.496 9.675 2.704 9.183 2.704 9.183 4.496" fill="#ED3424"/>
				<polygon points="9.675 36.364 9.675 34.562 9.183 34.562 9.183 36.364" fill="#ED3424"/>
				<polygon points="3.774 13.524 3.774 11.894 3.205 11.894 3.205 13.524" fill="#ED3424"/>
				<polygon points="3.774 21.52 3.774 19.912 3.205 19.912 3.205 21.52" fill="#ED3424"/>
				<polygon points="3.774 29.961 3.774 28.387 3.205 28.387 3.205 29.961" fill="#ED3424"/>
				<polygon points="3.774 74.455 3.774 75.997 3.205 75.997 3.205 74.455" fill="#ED3424"/>
				<polygon points="6.708 70.336 6.708 72.137 6.218 72.137 6.218 70.336" fill="#ED3424"/>
				<polygon points="9.675 66.472 9.675 68.149 9.183 68.149 9.183 66.472" fill="#ED3424"/>
				<polygon points="9.675 75.493 9.675 77.297 9.183 77.297 9.183 75.493" fill="#ED3424"/>
				<polygon points="9.675 43.625 9.675 45.427 9.183 45.427 9.183 43.625" fill="#ED3424"/>
				<polygon points="3.774 66.446 3.774 68.124 3.205 68.124 3.205 66.446" fill="#ED3424"/>
				<polygon points="3.774 58.365 3.774 60.166 3.205 60.166 3.205 58.365" fill="#ED3424"/>
				<polygon points="3.774 50.078 3.774 51.781 3.205 51.781 3.205 50.078" fill="#ED3424"/>
				<polygon points="3.774 40.862 3.774 39.135 3.205 39.135 3.205 40.862" fill="#ED3424"/>
				<polygon points="7.597 40.862 7.597 39.135 7.104 39.135 7.104 40.862" fill="#ED3424"/>
				<polygon points="15.082 5.632 15.082 3.992 15.653 3.992 15.653 5.632" fill="#ED3424"/>
				<polygon points="12.148 9.653 12.148 7.852 12.641 7.852 12.641 9.653" fill="#ED3424"/>
				<polygon points="15.082 13.524 15.082 11.894 15.653 11.894 15.653 13.524" fill="#ED3424"/>
				<polygon points="15.082 21.52 15.082 19.912 15.653 19.912 15.653 21.52" fill="#ED3424"/>
				<polygon points="15.082 29.961 15.082 28.387 15.653 28.387 15.653 29.961" fill="#ED3424"/>
				<polygon points="15.082 74.455 15.082 75.997 15.653 75.997 15.653 74.455" fill="#ED3424"/>
				<polygon points="12.148 70.336 12.148 72.137 12.641 72.137 12.641 70.336" fill="#ED3424"/>
				<polygon points="15.082 66.446 15.082 68.124 15.653 68.124 15.653 66.446" fill="#ED3424"/>
				<polygon points="15.082 58.365 15.082 60.166 15.653 60.166 15.653 58.365" fill="#ED3424"/>
				<polygon points="15.082 50.078 15.082 51.781 15.653 51.781 15.653 50.078" fill="#ED3424"/>
				<polygon points="15.082 40.862 15.082 39.135 15.653 39.135 15.653 40.862" fill="#ED3424"/>
				<polygon points="11.261 40.862 11.261 39.135 11.753 39.135 11.753 40.862" fill="#ED3424"/>
				<polygon points="9.675 19.802 9.675 21.409 9.183 21.409 9.183 19.802" fill="#ED3424"/>
				<polygon points="9.675 60.289 9.675 58.488 9.183 58.488 9.183 60.289" fill="#ED3424"/>
				<polygon points="4.675 17.171 4.675 16.131 4.308 16.131 4.308 17.171" fill="#fff"/>
				<polygon points="8.63 17.171 8.63 16.131 8.262 16.131 8.262 17.171" fill="#fff"/>
				<polygon points="4.675 62.817 4.675 63.858 4.308 63.858 4.308 62.817" fill="#fff"/>
				<polygon points="8.63 62.817 8.63 63.858 8.262 63.858 8.262 62.817" fill="#fff"/>
				<polygon points="14.183 17.171 14.183 16.131 14.55 16.131 14.55 17.171" fill="#fff"/>
				<polygon points="10.229 17.171 10.229 16.131 10.595 16.131 10.595 17.171" fill="#fff"/>
				<polygon points="14.183 62.817 14.183 63.858 14.55 63.858 14.55 62.817" fill="#fff"/>
				<polygon points="10.229 62.817 10.229 63.858 10.595 63.858 10.595 62.817" fill="#fff"/>
				<polygon points="6.708 9.653 6.708 7.852 6.218 7.852 6.218 9.653" fill="#fff"/>
</g>
</svg>
