<?xml version="1.0" encoding="UTF-8" standalone="no"?>
<!-- Generator: Adobe Illustrator 18.0.0, SVG Export Plug-In . SVG Version: 6.00 Build 0)  -->
<!DOCTYPE svg  PUBLIC '-//W3C//DTD SVG 1.1//EN'  'http://www.w3.org/Graphics/SVG/1.1/DTD/svg11.dtd'>
<svg style="enable-background:new 0 0 144 80" xmlns="http://www.w3.org/2000/svg" xml:space="preserve" version="1.1" y="0px" x="0px" xmlns:xlink="http://www.w3.org/1999/xlink" viewBox="0 0 144 80">
<g id="BAR">
			<polygon points="48.001 80 48.001 0 0 0 0 80" fill="#00267F"/>
			<polygon points="95.999 80 95.999 0 144 0 144 80" fill="#00267F"/>
			<polygon points="48.001 80 48.001 0 95.999 0 95.999 80" fill="#FFC726"/>
		<path d="m74.979 41.196"/>
		<path d="m74.351 61.311v-10.619c2.297 0.151 5.281 0.682 7.549 1.172 0.453-9.295 3.021-19.572 10.314-27.017-4.988 0.189-8.88 2.344-11.939 5.857 0.964-0.15 2.134-0.188 3.137-0.095-2.721 4.534-4.384 11.052-4.987 16.72-1.097-0.264-2.959-0.473-4.073-0.529v-17.417c1.076 0.095 2.373 0.415 3.477 0.907-2.088-3.438-4.165-7.33-5.828-11.601-1.66 4.27-3.74 8.162-5.825 11.601 1.104-0.492 2.397-0.812 3.474-0.907v17.418c-1.113 0.057-2.977 0.266-4.07 0.529-0.604-5.668-2.268-12.186-4.988-16.72 1.001-0.094 2.173-0.056 3.137 0.095-3.062-3.514-6.953-5.668-11.94-5.857 7.291 7.444 9.861 17.722 10.315 27.017 2.267-0.49 5.252-1.021 7.547-1.172v10.618h4.7z"/>
</g>
</svg>
