<?xml version="1.0" encoding="UTF-8" standalone="no"?>
<!-- Generator: Adobe Illustrator 18.0.0, SVG Export Plug-In . SVG Version: 6.00 Build 0)  -->
<!DOCTYPE svg  PUBLIC '-//W3C//DTD SVG 1.1//EN'  'http://www.w3.org/Graphics/SVG/1.1/DTD/svg11.dtd'>
<svg style="enable-background:new 0 0 144 80" xmlns="http://www.w3.org/2000/svg" xml:space="preserve" version="1.1" y="0px" x="0px" xmlns:xlink="http://www.w3.org/1999/xlink" viewBox="0 0 144 80">
<g id="MHL">
			<polygon points="144 80 144 0 0 0 0 80" fill="#003893"/>
			<polygon points="144 19.774 0 73.754 0 70.962 144 3.494" fill="#DD7500"/>
			<polygon points="0 76.529 144 36.097 144 19.774 0 73.754" fill="#fff"/>
		<polygon points="27.708 49.151 28.737 35.76 32.042 43.822 30.793 35.188 36.144 42.12 32.677 34.046 39.548 39.488 34.105 32.618 42.179 36.007 35.247 30.79 43.882 31.982 35.761 28.678 49.193 27.649 35.761 26.62 43.882 23.315 35.247 24.508 42.179 19.292 34.105 22.68 39.548 15.81 32.677 21.252 36.144 13.179 30.793 20.11 32.042 11.477 28.737 19.539 27.708 6.147 26.681 19.539 23.375 11.477 24.624 20.11 19.273 13.179 22.739 21.252 15.869 15.81 21.312 22.68 13.238 19.292 20.169 24.508 11.535 23.315 19.655 26.62 6.224 27.649 19.655 28.678 11.535 31.982 20.169 30.79 13.238 36.007 21.312 32.618 15.869 39.488 22.739 34.046 19.273 42.12 24.624 35.188 23.375 43.822 26.681 35.76" fill="#fff"/>
</g>
</svg>
