<?xml version="1.0" encoding="UTF-8" standalone="no"?>
<!-- Generator: Adobe Illustrator 18.0.0, SVG Export Plug-In . SVG Version: 6.00 Build 0)  -->
<!DOCTYPE svg  PUBLIC '-//W3C//DTD SVG 1.1//EN'  'http://www.w3.org/Graphics/SVG/1.1/DTD/svg11.dtd'>
<svg style="enable-background:new 0 0 144 79.932" xmlns="http://www.w3.org/2000/svg" xml:space="preserve" version="1.1" y="0px" x="0px" xmlns:xlink="http://www.w3.org/1999/xlink" viewBox="0 0 144 79.932">
<g id="VAN">
		<polygon points="0 79.862 144 79.862 144 39.931 0 39.931" fill="#009448"/>
		<polygon stroke-width=".1387" points="0 79.862 144 79.862 144 39.931 0 39.931" stroke="#000" fill="none"/>
		<polygon points="144 39.931 0 39.931 0 0 144 0" fill="#D21F36"/>
		<polygon stroke-width=".1387" points="144 39.931 0 39.931 0 0 144 0" stroke="#000" fill="none"/>
		<polygon points="0 0 63.839 34.242 144 34.242 144 45.669 63.839 45.669 0 79.862" fill="#231F20"/>
		<polygon stroke-linejoin="bevel" stroke="#000" points="0 0 63.839 34.242 144 34.242 144 45.669 63.839 45.669 0 79.862" stroke-width=".1387" fill="none"/>
		<polygon points="144 38.048 62.87 38.048 0 4.44 0 8.749 58.377 39.956 0 71.163 0 75.472 62.87 41.863 144 41.863" fill="#FCCE12"/>
		<polygon stroke-linejoin="bevel" stroke="#000" points="144 38.048 62.87 38.048 0 4.44 0 8.749 58.377 39.956 0 71.163 0 75.472 62.87 41.863 144 41.863" stroke-width=".1387" fill="none"/>
		<path d="m14.88 48.977c5.646-0.319 8.672-5.427 8.406-9.833-0.265-4.406-4.06-7.917-8.406-7.581-4.122 0.319-6.83 4.035-6.566 7.751 0.266 3.717 3.293 5.734 6.566 5.947 3.233 0.209 6.39-1.912 6.814-6.117 1.062 4.778-2.92 8.592-7.009 8.452-4.672-0.159-8.927-2.868-9.608-8.229-0.744-5.84 3.659-11.356 10.033-11.839 7.008-0.532 12.203 5.421 12.636 11.573 0.425 6.053-2.92 14.176-12.866 14.865v-4.989z" fill="#FCCE12"/>
		<path stroke-width=".0694" d="m14.88 48.977c5.646-0.319 8.672-5.427 8.406-9.833-0.265-4.406-4.06-7.917-8.406-7.581-4.122 0.319-6.83 4.035-6.566 7.751 0.266 3.717 3.293 5.734 6.566 5.947 3.233 0.209 6.39-1.912 6.814-6.117 1.062 4.778-2.92 8.592-7.009 8.452-4.672-0.159-8.927-2.868-9.608-8.229-0.744-5.84 3.659-11.356 10.033-11.839 7.008-0.532 12.203 5.421 12.636 11.573 0.425 6.053-2.92 14.176-12.866 14.865v-4.989z" stroke="#000" fill="none"/>
		<path d="m12.768 35.518c-0.37-0.697-0.966-1.236-1.624-1.311 0.142 0.715 0.965 1.237 1.624 1.311z" fill="#FCCE12"/>
		<path stroke-width=".0167" d="m12.768 35.518c-0.37-0.697-0.966-1.236-1.624-1.311 0.142 0.715 0.965 1.237 1.624 1.311z" stroke="#000" fill="none"/>
		<path d="m19.057 42.022c0.337-0.715 0.411-1.514 0.074-2.085-0.485 0.542-0.41 1.513-0.074 2.085z" fill="#FCCE12"/>
		<path stroke-width=".0167" d="m19.057 42.022c0.337-0.715 0.411-1.514 0.074-2.085-0.485 0.542-0.41 1.513-0.074 2.085z" stroke="#000" fill="none"/>
		<path d="m18.606 41.245c0.282-0.737 0.296-1.54-0.082-2.084-0.443 0.577-0.295 1.54 0.082 2.084z" fill="#FCCE12"/>
		<path stroke-width=".0167" d="m18.606 41.245c0.282-0.737 0.296-1.54-0.082-2.084-0.443 0.577-0.295 1.54 0.082 2.084z" stroke="#000" fill="none"/>
		<path d="m19.132 42.196c-0.538-0.578-1.253-0.944-1.908-0.845 0.323 0.653 1.252 0.945 1.908 0.845z" fill="#FCCE12"/>
		<path stroke-width=".0167" d="m19.132 42.196c-0.538-0.578-1.253-0.944-1.908-0.845 0.323 0.653 1.252 0.945 1.908 0.845z" stroke="#000" fill="none"/>
		<path d="m18.757 41.471c-0.545-0.571-1.263-0.931-1.917-0.824 0.33 0.648 1.263 0.93 1.917 0.824z" fill="#FCCE12"/>
		<path stroke-width=".0167" d="m18.757 41.471c-0.545-0.571-1.263-0.931-1.917-0.824 0.33 0.648 1.263 0.93 1.917 0.824z" stroke="#000" fill="none"/>
		<path d="m18.106 40.57c0.226-0.757 0.182-1.558-0.236-2.073-0.399 0.609-0.182 1.559 0.236 2.073z" fill="#FCCE12"/>
		<path stroke-width=".0167" d="m18.106 40.57c0.226-0.757 0.182-1.558-0.236-2.073-0.399 0.609-0.182 1.559 0.236 2.073z" stroke="#000" fill="none"/>
		<path d="m18.306 40.846c-0.478-0.628-1.152-1.063-1.814-1.028 0.255 0.68 1.153 1.062 1.814 1.028z" fill="#FCCE12"/>
		<path stroke-width=".0167" d="m18.306 40.846c-0.478-0.628-1.152-1.063-1.814-1.028 0.255 0.68 1.153 1.062 1.814 1.028z" stroke="#000" fill="none"/>
		<path d="m17.506 39.819c0.184-0.767 0.095-1.565-0.351-2.057-0.365 0.631-0.095 1.566 0.351 2.057z" fill="#FCCE12"/>
		<path stroke-width=".0167" d="m17.506 39.819c0.184-0.767 0.095-1.565-0.351-2.057-0.365 0.631-0.095 1.566 0.351 2.057z" stroke="#000" fill="none"/>
		<path d="m17.581 39.92c-0.508-0.604-1.203-1.007-1.863-0.94 0.291 0.668 1.203 1.006 1.863 0.94z" fill="#FCCE12"/>
		<path stroke-width=".0167" d="m17.581 39.92c-0.508-0.604-1.203-1.007-1.863-0.94 0.291 0.668 1.203 1.006 1.863 0.94z" stroke="#000" fill="none"/>
		<path d="m16.905 39.094c0.136-0.777-0.005-1.568-0.48-2.03-0.324 0.652 0.005 1.568 0.48 2.03z" fill="#FCCE12"/>
		<path stroke-width=".0167" d="m16.905 39.094c0.136-0.777-0.005-1.568-0.48-2.03-0.324 0.652 0.005 1.568 0.48 2.03z" stroke="#000" fill="none"/>
		<path d="m16.806 39.019c-0.527-0.587-1.234-0.968-1.892-0.882 0.311 0.658 1.233 0.969 1.892 0.882z" fill="#FCCE12"/>
		<path stroke-width=".0167" d="m16.806 39.019c-0.527-0.587-1.234-0.968-1.892-0.882 0.311 0.658 1.233 0.969 1.892 0.882z" stroke="#000" fill="none"/>
		<path d="m16.305 38.469c0.061-0.787-0.153-1.562-0.67-1.977-0.261 0.68 0.153 1.562 0.67 1.977z" fill="#FCCE12"/>
		<path stroke-width=".0167" d="m16.305 38.469c0.061-0.787-0.153-1.562-0.67-1.977-0.261 0.68 0.153 1.562 0.67 1.977z" stroke="#000" fill="none"/>
		<path d="m15.905 38.093c-0.564-0.552-1.295-0.887-1.945-0.758 0.352 0.638 1.295 0.888 1.945 0.758z" fill="#FCCE12"/>
		<path stroke-width=".0167" d="m15.905 38.093c-0.564-0.552-1.295-0.887-1.945-0.758 0.352 0.638 1.295 0.888 1.945 0.758z" stroke="#000" fill="none"/>
		<path d="m15.729 37.868c-0.003-0.789-0.278-1.544-0.826-1.916-0.206 0.698 0.278 1.544 0.826 1.916z" fill="#FCCE12"/>
		<path stroke-width=".0167" d="m15.729 37.868c-0.003-0.789-0.278-1.544-0.826-1.916-0.206 0.698 0.278 1.544 0.826 1.916z" stroke="#000" fill="none"/>
		<path d="m14.954 37.143c-0.003-0.789-0.278-1.543-0.827-1.916-0.205 0.699 0.278 1.544 0.827 1.916z" fill="#FCCE12"/>
		<path stroke-width=".0167" d="m14.954 37.143c-0.003-0.789-0.278-1.543-0.827-1.916-0.205 0.699 0.278 1.544 0.827 1.916z" stroke="#000" fill="none"/>
		<path d="m15.058 37.306c-0.6-0.515-1.351-0.799-1.991-0.627 0.393 0.613 1.35 0.799 1.991 0.627z" fill="#FCCE12"/>
		<path stroke-width=".0167" d="m15.058 37.306c-0.6-0.515-1.351-0.799-1.991-0.627 0.393 0.613 1.35 0.799 1.991 0.627z" stroke="#000" fill="none"/>
		<path d="m14.382 36.68c-0.6-0.514-1.351-0.798-1.991-0.626 0.394 0.612 1.35 0.799 1.991 0.626z" fill="#FCCE12"/>
		<path stroke-width=".0167" d="m14.382 36.68c-0.6-0.514-1.351-0.798-1.991-0.626 0.394 0.612 1.35 0.799 1.991 0.626z" stroke="#000" fill="none"/>
		<path d="m14.428 36.742c-0.093-0.783-0.452-1.501-1.041-1.809-0.124 0.718 0.454 1.503 1.041 1.809z" fill="#FCCE12"/>
		<path stroke-width=".0167" d="m14.428 36.742c-0.093-0.783-0.452-1.501-1.041-1.809-0.124 0.718 0.454 1.503 1.041 1.809z" stroke="#000" fill="none"/>
		<path d="m13.656 36.106c-0.6-0.514-1.351-0.8-1.991-0.627 0.396 0.612 1.351 0.797 1.991 0.627z" fill="#FCCE12"/>
		<path stroke-width=".0167" d="m13.656 36.106c-0.6-0.514-1.351-0.8-1.991-0.627 0.396 0.612 1.351 0.797 1.991 0.627z" stroke="#000" fill="none"/>
		<path d="m12.806 35.58c-0.6-0.515-1.351-0.8-1.99-0.627 0.393 0.612 1.349 0.799 1.99 0.627z" fill="#FCCE12"/>
		<path stroke-width=".0167" d="m12.806 35.58c-0.6-0.515-1.351-0.8-1.99-0.627 0.393 0.612 1.349 0.799 1.99 0.627z" stroke="#000" fill="none"/>
		<path d="m13.634 36.09c-0.148-0.775-0.559-1.466-1.166-1.73-0.074 0.724 0.557 1.465 1.166 1.73z" fill="#FCCE12"/>
		<path stroke-width=".0167" d="m13.634 36.09c-0.148-0.775-0.559-1.466-1.166-1.73-0.074 0.724 0.557 1.465 1.166 1.73z" stroke="#000" fill="none"/>
		<path d="m13.157 35.765c-0.251-0.748-0.751-1.377-1.389-1.558 0.026 0.729 0.751 1.378 1.389 1.558z" fill="#FCCE12"/>
		<path stroke-width=".0167" d="m13.157 35.765c-0.251-0.748-0.751-1.377-1.389-1.558 0.026 0.729 0.751 1.378 1.389 1.558z" stroke="#000" fill="none"/>
		<path d="m12.489 35.346c3.003 1.636 6.027 5.074 7.098 7.392l-0.209 0.069c-1.069-2.318-3.981-5.682-6.889-7.461z" fill="#FCCE12"/>
		<path stroke-width=".0167" d="m12.489 35.346c3.003 1.636 6.027 5.074 7.098 7.392l-0.209 0.069c-1.069-2.318-3.981-5.682-6.889-7.461z" stroke="#000" fill="none"/>
		<path d="m18.092 35.518c0.368-0.697 0.965-1.236 1.624-1.311-0.144 0.715-0.966 1.237-1.624 1.311z" fill="#FCCE12"/>
		<path stroke-width=".0167" d="m18.092 35.518c0.368-0.697 0.965-1.236 1.624-1.311-0.144 0.715-0.966 1.237-1.624 1.311z" stroke="#000" fill="none"/>
		<path d="m11.802 42.022c-0.336-0.715-0.41-1.514-0.074-2.085 0.484 0.542 0.41 1.513 0.074 2.085z" fill="#FCCE12"/>
		<path stroke-width=".0167" d="m11.802 42.022c-0.336-0.715-0.41-1.514-0.074-2.085 0.484 0.542 0.41 1.513 0.074 2.085z" stroke="#000" fill="none"/>
		<path d="m12.252 41.245c-0.281-0.737-0.296-1.54 0.083-2.084 0.443 0.577 0.296 1.54-0.083 2.084z" fill="#FCCE12"/>
		<path stroke-width=".0167" d="m12.252 41.245c-0.281-0.737-0.296-1.54 0.083-2.084 0.443 0.577 0.296 1.54-0.083 2.084z" stroke="#000" fill="none"/>
		<path d="m11.726 42.196c0.538-0.578 1.253-0.944 1.908-0.845-0.323 0.653-1.252 0.945-1.908 0.845z" fill="#FCCE12"/>
		<path stroke-width=".0167" d="m11.726 42.196c0.538-0.578 1.253-0.944 1.908-0.845-0.323 0.653-1.252 0.945-1.908 0.845z" stroke="#000" fill="none"/>
		<path d="m12.101 41.471c0.544-0.571 1.263-0.931 1.917-0.824-0.329 0.648-1.261 0.93-1.917 0.824z" fill="#FCCE12"/>
		<path stroke-width=".0167" d="m12.101 41.471c0.544-0.571 1.263-0.931 1.917-0.824-0.329 0.648-1.261 0.93-1.917 0.824z" stroke="#000" fill="none"/>
		<path d="m12.753 40.57c-0.227-0.757-0.182-1.558 0.235-2.073 0.4 0.609 0.182 1.559-0.235 2.073z" fill="#FCCE12"/>
		<path stroke-width=".0167" d="m12.753 40.57c-0.227-0.757-0.182-1.558 0.235-2.073 0.4 0.609 0.182 1.559-0.235 2.073z" stroke="#000" fill="none"/>
		<path d="m12.553 40.846c0.478-0.628 1.153-1.063 1.815-1.028-0.258 0.68-1.154 1.062-1.815 1.028z" fill="#FCCE12"/>
		<path stroke-width=".0167" d="m12.553 40.846c0.478-0.628 1.153-1.063 1.815-1.028-0.258 0.68-1.154 1.062-1.815 1.028z" stroke="#000" fill="none"/>
		<path d="m13.352 39.819c-0.185-0.767-0.095-1.565 0.351-2.057 0.365 0.631 0.095 1.566-0.351 2.057z" fill="#FCCE12"/>
		<path stroke-width=".0167" d="m13.352 39.819c-0.185-0.767-0.095-1.565 0.351-2.057 0.365 0.631 0.095 1.566-0.351 2.057z" stroke="#000" fill="none"/>
		<path d="m13.278 39.92c0.507-0.604 1.203-1.007 1.862-0.94-0.289 0.668-1.202 1.006-1.862 0.94z" fill="#FCCE12"/>
		<path stroke-width=".0167" d="m13.278 39.92c0.507-0.604 1.203-1.007 1.862-0.94-0.289 0.668-1.202 1.006-1.862 0.94z" stroke="#000" fill="none"/>
		<path d="m13.953 39.094c-0.135-0.777 0.005-1.568 0.481-2.03 0.324 0.652-0.006 1.568-0.481 2.03z" fill="#FCCE12"/>
		<path stroke-width=".0167" d="m13.953 39.094c-0.135-0.777 0.005-1.568 0.481-2.03 0.324 0.652-0.006 1.568-0.481 2.03z" stroke="#000" fill="none"/>
		<path d="m14.054 39.019c0.525-0.587 1.233-0.968 1.891-0.882-0.311 0.658-1.235 0.969-1.891 0.882z" fill="#FCCE12"/>
		<path stroke-width=".0167" d="m14.054 39.019c0.525-0.587 1.233-0.968 1.891-0.882-0.311 0.658-1.235 0.969-1.891 0.882z" stroke="#000" fill="none"/>
		<path d="m14.554 38.469c-0.061-0.787 0.153-1.562 0.67-1.977 0.261 0.68-0.154 1.562-0.67 1.977z" fill="#FCCE12"/>
		<path stroke-width=".0167" d="m14.554 38.469c-0.061-0.787 0.153-1.562 0.67-1.977 0.261 0.68-0.154 1.562-0.67 1.977z" stroke="#000" fill="none"/>
		<path d="m14.954 38.093c0.564-0.552 1.293-0.887 1.943-0.758-0.351 0.638-1.293 0.888-1.943 0.758z" fill="#FCCE12"/>
		<path stroke-width=".0167" d="m14.954 38.093c0.564-0.552 1.293-0.887 1.943-0.758-0.351 0.638-1.293 0.888-1.943 0.758z" stroke="#000" fill="none"/>
		<path d="m15.128 37.868c0.004-0.789 0.279-1.544 0.827-1.916 0.206 0.698-0.277 1.544-0.827 1.916z" fill="#FCCE12"/>
		<path stroke-width=".0167" d="m15.128 37.868c0.004-0.789 0.279-1.544 0.827-1.916 0.206 0.698-0.277 1.544-0.827 1.916z" stroke="#000" fill="none"/>
		<path d="m15.905 37.143c0.002-0.789 0.277-1.543 0.826-1.916 0.207 0.699-0.278 1.544-0.826 1.916z" fill="#FCCE12"/>
		<path stroke-width=".0167" d="m15.905 37.143c0.002-0.789 0.277-1.543 0.826-1.916 0.207 0.699-0.278 1.544-0.826 1.916z" stroke="#000" fill="none"/>
		<path d="m15.801 37.306c0.6-0.515 1.351-0.799 1.991-0.627-0.395 0.613-1.35 0.799-1.991 0.627z" fill="#FCCE12"/>
		<path stroke-width=".0167" d="m15.801 37.306c0.6-0.515 1.351-0.799 1.991-0.627-0.395 0.613-1.35 0.799-1.991 0.627z" stroke="#000" fill="none"/>
		<path d="m16.476 36.68c0.6-0.514 1.351-0.798 1.991-0.626-0.394 0.612-1.35 0.799-1.991 0.626z" fill="#FCCE12"/>
		<path stroke-width=".0167" d="m16.476 36.68c0.6-0.514 1.351-0.798 1.991-0.626-0.394 0.612-1.35 0.799-1.991 0.626z" stroke="#000" fill="none"/>
		<path d="m16.43 36.742c0.094-0.783 0.454-1.501 1.041-1.809 0.125 0.718-0.453 1.503-1.041 1.809z" fill="#FCCE12"/>
		<path stroke-width=".0167" d="m16.43 36.742c0.094-0.783 0.454-1.501 1.041-1.809 0.125 0.718-0.453 1.503-1.041 1.809z" stroke="#000" fill="none"/>
		<path d="m17.202 36.106c0.6-0.514 1.351-0.8 1.99-0.627-0.393 0.612-1.349 0.797-1.99 0.627z" fill="#FCCE12"/>
		<path stroke-width=".0167" d="m17.202 36.106c0.6-0.514 1.351-0.8 1.99-0.627-0.393 0.612-1.349 0.797-1.99 0.627z" stroke="#000" fill="none"/>
		<path d="m18.054 35.58c0.599-0.515 1.35-0.8 1.989-0.627-0.394 0.612-1.35 0.799-1.989 0.627z" fill="#FCCE12"/>
		<path stroke-width=".0167" d="m18.054 35.58c0.599-0.515 1.35-0.8 1.989-0.627-0.394 0.612-1.35 0.799-1.989 0.627z" stroke="#000" fill="none"/>
		<path d="m17.226 36.09c0.148-0.775 0.558-1.466 1.166-1.73 0.072 0.724-0.559 1.465-1.166 1.73z" fill="#FCCE12"/>
		<path stroke-width=".0167" d="m17.226 36.09c0.148-0.775 0.558-1.466 1.166-1.73 0.072 0.724-0.559 1.465-1.166 1.73z" stroke="#000" fill="none"/>
		<path d="m17.701 35.765c0.251-0.748 0.751-1.377 1.389-1.558-0.025 0.729-0.752 1.378-1.389 1.558z" fill="#FCCE12"/>
		<path stroke-width=".0167" d="m17.701 35.765c0.251-0.748 0.751-1.377 1.389-1.558-0.025 0.729-0.752 1.378-1.389 1.558z" stroke="#000" fill="none"/>
		<path d="m18.369 35.346c-2.946 1.636-5.992 5.005-7.063 7.322l0.174 0.139c1.071-2.318 3.98-5.682 6.889-7.461z" fill="#FCCE12"/>
		<path stroke-width=".0167" d="m18.369 35.346c-2.946 1.636-5.992 5.005-7.063 7.322l0.174 0.139c1.071-2.318 3.98-5.682 6.889-7.461z" stroke="#000" fill="none"/>
</g>
</svg>
