<?xml version="1.0" encoding="UTF-8" standalone="no"?>
<!-- Generator: Adobe Illustrator 18.0.0, SVG Export Plug-In . SVG Version: 6.00 Build 0)  -->
<!DOCTYPE svg  PUBLIC '-//W3C//DTD SVG 1.1//EN'  'http://www.w3.org/Graphics/SVG/1.1/DTD/svg11.dtd'>
<svg style="enable-background:new 0 0 144 80" xmlns="http://www.w3.org/2000/svg" xml:space="preserve" version="1.1" y="0px" x="0px" xmlns:xlink="http://www.w3.org/1999/xlink" viewBox="0 0 144 80">
<g id="RSA">
		<polygon points="144 40 144 0 0 0 0 40" fill="#DE3831"/>
		<polygon points="144 40 144 80 0 80 0 40" fill="#002395"/>
		<polygon points="144 26.667 76.849 26.667 28.849 0 17.306 0 74.909 32.004 144 32.004" fill="#fff"/>
		<polygon points="144 53.334 76.849 53.334 28.849 80 17.306 80 74.909 47.999 144 47.999" fill="#fff"/>
		<polygon points="54.696 40 0 70.385 0 80 17.306 80 74.909 47.999 144 47.999 144 32.004 74.909 32.004 17.306 0 0 0 0 9.615" fill="#007A4D"/>
		<polygon points="54.696 40 0 70.385 0 63.979 43.165 40 0 16.021 0 9.615" fill="#FFB612"/>
		<polygon stroke-width=".1521" points="0 63.979 43.165 40 0 16.021" stroke="#000" fill="#231F20"/>
</g>
</svg>
