<?xml version="1.0" encoding="UTF-8" standalone="no"?>
<!-- Generator: Adobe Illustrator 18.0.0, SVG Export Plug-In . SVG Version: 6.00 Build 0)  -->
<!DOCTYPE svg  PUBLIC '-//W3C//DTD SVG 1.1//EN'  'http://www.w3.org/Graphics/SVG/1.1/DTD/svg11.dtd'>
<svg style="enable-background:new 0 0 144 79.977" xmlns="http://www.w3.org/2000/svg" xml:space="preserve" version="1.1" y="0px" x="0px" xmlns:xlink="http://www.w3.org/1999/xlink" viewBox="0 0 144 79.977">
<g id="IRI">
		<defs>
			<rect id="SVGID_1_" y="0" x=".114" height="80" width="144"/>
		</defs>
		<clipPath id="SVGID_2_">
			<use xlink:href="#SVGID_1_"/>
		</clipPath>
		<g style="clip-path:url(#SVGID_2_)">
				<polygon points="144.11 80 144.11 0 0.114 0 0.114 80" fill="#fff"/>
					<polygon points="0.184 26.667 0.934 26.667 0.934 26.007 6.689 26.007 6.689 26.667 7.442 26.667 7.442 26.007 13.196 26.007 13.196 26.667 13.944 26.667 13.944 26.007 19.701 26.007 19.701 26.667 20.451 26.667 20.451 26.007 26.205 26.007 26.205 26.667 26.956 26.667 26.956 26.007 32.712 26.007 32.712 26.667 33.462 26.667 33.462 26.007 39.217 26.007 39.217 26.667 39.967 26.667 39.967 26.007 45.721 26.007 45.721 26.667 46.473 26.667 46.473 26.007 52.226 26.007 52.226 26.667 52.978 26.667 52.978 26.007 58.731 26.007 58.731 26.667 59.481 26.667 59.481 26.007 65.235 26.007 65.235 26.667 65.986 26.667 65.986 26.007 71.742 26.007 71.742 26.667 72.494 26.667 72.494 26.007 78.247 26.007 78.247 26.667 78.997 26.667 78.997 26.007 84.752 26.007 84.752 26.667 85.503 26.667 85.503 26.007 91.258 26.007 91.258 26.667 92.009 26.667 92.009 26.007 97.763 26.007 97.763 26.667 98.513 26.667 98.513 26.007 104.27 26.007 104.27 26.667 105.02 26.667 105.02 26.007 110.77 26.007 110.77 26.667 111.52 26.667 111.52 26.007 117.28 26.007 117.28 26.667 118.03 26.667 118.03 26.007 123.78 26.007 123.78 26.667 124.53 26.667 124.53 26.007 130.29 26.007 130.29 26.667 131.04 26.667 131.04 26.007 136.79 26.007 136.79 26.667 137.54 26.667 137.54 26.007 143.3 26.007 143.3 26.667 144.04 26.667 144.04 0 0.184 0" fill="#009C57"/>
					<polygon points="144.04 53.332 143.3 53.332 143.3 53.993 137.54 53.993 137.54 53.332 136.79 53.332 136.79 53.993 131.04 53.993 131.04 53.332 130.29 53.332 130.29 53.993 124.53 53.993 124.53 53.332 123.78 53.332 123.78 53.993 118.03 53.993 118.03 53.332 117.28 53.332 117.28 53.993 111.52 53.993 111.52 53.332 110.77 53.332 110.77 53.993 105.02 53.993 105.02 53.332 104.27 53.332 104.27 53.993 98.513 53.993 98.513 53.332 97.763 53.332 97.763 53.993 92.009 53.993 92.009 53.332 91.258 53.332 91.258 53.993 85.503 53.993 85.503 53.332 84.752 53.332 84.752 53.993 78.997 53.993 78.997 53.332 78.247 53.332 78.247 53.993 72.494 53.993 72.494 53.332 71.742 53.332 71.742 53.993 65.986 53.993 65.986 53.332 65.235 53.332 65.235 53.993 59.481 53.993 59.481 53.332 58.731 53.332 58.731 53.993 52.978 53.993 52.978 53.332 52.226 53.332 52.226 53.993 46.473 53.993 46.473 53.332 45.721 53.332 45.721 53.993 39.967 53.993 39.967 53.332 39.217 53.332 39.217 53.993 33.462 53.993 33.462 53.332 32.712 53.332 32.712 53.993 26.956 53.993 26.956 53.332 26.205 53.332 26.205 53.993 20.451 53.993 20.451 53.332 19.701 53.332 19.701 53.993 13.944 53.993 13.944 53.332 13.196 53.332 13.196 53.993 7.442 53.993 7.442 53.332 6.689 53.332 6.689 53.993 0.934 53.993 0.934 53.332 0.184 53.332 0.184 80 144.04 80" fill="#EC1C2E"/>
			<g fill="#fff">
				<polygon points="11.759 24.952 11.759 21.558 11.16 21.558 11.16 24.354 10.34 24.354 10.34 21.558 9.741 21.558 9.741 24.354 8.974 24.354 8.974 21.558 8.375 21.558 8.375 22.962 5.577 22.962 5.577 24.952 7.581 24.952 7.581 24.354 6.176 24.354 6.176 23.561 8.375 23.561 8.375 24.952"/>
				<polygon points="7.581 22.154 7.581 21.558 -1.451 21.558 -1.451 22.154"/>
				<polygon points="4.769 24.952 4.769 22.962 2.857 22.962 2.857 23.561 4.171 23.561 4.171 24.354 1.985 24.354 1.985 22.962 -1.451 22.962 -1.451 24.952 -0.853 24.952 -0.853 23.561 1.385 23.561 1.385 24.952"/>
				<polygon points="25.743 24.952 25.743 21.558 25.145 21.558 25.145 24.354 24.325 24.354 24.325 21.558 23.726 21.558 23.726 24.354 22.958 24.354 22.958 21.558 22.359 21.558 22.359 22.962 19.562 22.962 19.562 24.952 21.565 24.952 21.565 24.354 20.16 24.354 20.16 23.561 22.359 23.561 22.359 24.952"/>
				<polygon points="21.565 22.154 21.565 21.558 12.533 21.558 12.533 22.154"/>
				<polygon points="18.755 24.952 18.755 22.962 16.841 22.962 16.841 23.561 18.155 23.561 18.155 24.354 15.969 24.354 15.969 22.962 12.533 22.962 12.533 24.952 13.132 24.952 13.132 23.561 15.37 23.561 15.37 24.952"/>
				<polygon points="14.537 24.354 14.537 24.952 13.939 24.952 13.939 24.354"/>
				<polygon points="0.553 24.354 0.553 24.952 -0.045 24.952 -0.045 24.354"/>
				<polygon points="39.728 24.952 39.728 21.558 39.129 21.558 39.129 24.354 38.31 24.354 38.31 21.558 37.71 21.558 37.71 24.354 36.942 24.354 36.942 21.558 36.344 21.558 36.344 22.962 33.546 22.962 33.546 24.952 35.549 24.952 35.549 24.354 34.145 24.354 34.145 23.561 36.344 23.561 36.344 24.952"/>
				<polygon points="35.549 22.154 35.549 21.558 26.518 21.558 26.518 22.154"/>
				<polygon points="32.739 24.952 32.739 22.962 30.825 22.962 30.825 23.561 32.14 23.561 32.14 24.354 29.953 24.354 29.953 22.962 26.518 22.962 26.518 24.952 27.116 24.952 27.116 23.561 29.355 23.561 29.355 24.952"/>
				<polygon points="28.522 24.354 28.522 24.952 27.923 24.952 27.923 24.354"/>
				<polygon points="53.712 24.952 53.712 21.558 53.113 21.558 53.113 24.354 52.293 24.354 52.293 21.558 51.694 21.558 51.694 24.354 50.927 24.354 50.927 21.558 50.328 21.558 50.328 22.962 47.53 22.962 47.53 24.952 49.534 24.952 49.534 24.354 48.129 24.354 48.129 23.561 50.328 23.561 50.328 24.952"/>
				<polygon points="49.534 22.154 49.534 21.558 40.502 21.558 40.502 22.154"/>
				<polygon points="46.723 24.952 46.723 22.962 44.81 22.962 44.81 23.561 46.124 23.561 46.124 24.354 43.938 24.354 43.938 22.962 40.502 22.962 40.502 24.952 41.101 24.952 41.101 23.561 43.339 23.561 43.339 24.952"/>
				<polygon points="42.507 24.354 42.507 24.952 41.908 24.952 41.908 24.354"/>
				<polygon points="67.696 24.952 67.696 21.558 67.098 21.558 67.098 24.354 66.277 24.354 66.277 21.558 65.679 21.558 65.679 24.354 64.911 24.354 64.911 21.558 64.312 21.558 64.312 22.962 61.515 22.962 61.515 24.952 63.518 24.952 63.518 24.354 62.113 24.354 62.113 23.561 64.312 23.561 64.312 24.952"/>
				<polygon points="63.518 22.154 63.518 21.558 54.486 21.558 54.486 22.154"/>
				<polygon points="60.707 24.952 60.707 22.962 58.794 22.962 58.794 23.561 60.108 23.561 60.108 24.354 57.922 24.354 57.922 22.962 54.486 22.962 54.486 24.952 55.084 24.952 55.084 23.561 57.323 23.561 57.323 24.952"/>
				<polygon points="56.49 24.354 56.49 24.952 55.892 24.952 55.892 24.354"/>
				<polygon points="81.681 24.952 81.681 21.558 81.082 21.558 81.082 24.354 80.263 24.354 80.263 21.558 79.664 21.558 79.664 24.354 78.896 24.354 78.896 21.558 78.297 21.558 78.297 22.962 75.499 22.962 75.499 24.952 77.503 24.952 77.503 24.354 76.097 24.354 76.097 23.561 78.297 23.561 78.297 24.952"/>
				<polygon points="77.503 22.154 77.503 21.558 68.471 21.558 68.471 22.154"/>
				<polygon points="74.691 24.952 74.691 22.962 72.778 22.962 72.778 23.561 74.093 23.561 74.093 24.354 71.906 24.354 71.906 22.962 68.471 22.962 68.471 24.952 69.069 24.952 69.069 23.561 71.308 23.561 71.308 24.952"/>
				<polygon points="70.475 24.354 70.475 24.952 69.876 24.952 69.876 24.354"/>
				<polygon points="95.665 24.952 95.665 21.558 95.066 21.558 95.066 24.354 94.246 24.354 94.246 21.558 93.647 21.558 93.647 24.354 92.88 24.354 92.88 21.558 92.281 21.558 92.281 22.962 89.483 22.962 89.483 24.952 91.486 24.952 91.486 24.354 90.082 24.354 90.082 23.561 92.281 23.561 92.281 24.952"/>
				<polygon points="91.486 22.154 91.486 21.558 82.453 21.558 82.453 22.154"/>
				<polygon points="88.676 24.952 88.676 22.962 86.763 22.962 86.763 23.561 88.077 23.561 88.077 24.354 85.891 24.354 85.891 22.962 82.453 22.962 82.453 24.952 83.053 24.952 83.053 23.561 85.292 23.561 85.292 24.952"/>
				<polygon points="84.459 24.354 84.459 24.952 83.86 24.952 83.86 24.354"/>
				<polygon points="109.65 24.952 109.65 21.558 109.05 21.558 109.05 24.354 108.23 24.354 108.23 21.558 107.63 21.558 107.63 24.354 106.86 24.354 106.86 21.558 106.27 21.558 106.27 22.962 103.47 22.962 103.47 24.952 105.47 24.952 105.47 24.354 104.07 24.354 104.07 23.561 106.27 23.561 106.27 24.952"/>
				<polygon points="105.47 22.154 105.47 21.558 96.439 21.558 96.439 22.154"/>
				<polygon points="102.66 24.952 102.66 22.962 100.75 22.962 100.75 23.561 102.06 23.561 102.06 24.354 99.875 24.354 99.875 22.962 96.439 22.962 96.439 24.952 97.038 24.952 97.038 23.561 99.276 23.561 99.276 24.952"/>
				<polygon points="98.443 24.354 98.443 24.952 97.845 24.952 97.845 24.354"/>
				<polygon points="123.63 24.952 123.63 21.558 123.04 21.558 123.04 24.354 122.22 24.354 122.22 21.558 121.62 21.558 121.62 24.354 120.85 24.354 120.85 21.558 120.25 21.558 120.25 22.962 117.45 22.962 117.45 24.952 119.46 24.952 119.46 24.354 118.05 24.354 118.05 23.561 120.25 23.561 120.25 24.952"/>
				<polygon points="119.46 22.154 119.46 21.558 110.42 21.558 110.42 22.154"/>
				<polygon points="116.65 24.952 116.65 22.962 114.73 22.962 114.73 23.561 116.05 23.561 116.05 24.354 113.86 24.354 113.86 22.962 110.42 22.962 110.42 24.952 111.02 24.952 111.02 23.561 113.26 23.561 113.26 24.952"/>
				<polygon points="112.43 24.354 112.43 24.952 111.83 24.952 111.83 24.354"/>
				<polygon points="137.62 24.952 137.62 21.558 137.02 21.558 137.02 24.354 136.2 24.354 136.2 21.558 135.6 21.558 135.6 24.354 134.83 24.354 134.83 21.558 134.23 21.558 134.23 22.962 131.44 22.962 131.44 24.952 133.44 24.952 133.44 24.354 132.04 24.354 132.04 23.561 134.23 23.561 134.23 24.952"/>
				<polygon points="133.44 22.154 133.44 21.558 124.41 21.558 124.41 22.154"/>
				<polygon points="130.63 24.952 130.63 22.962 128.72 22.962 128.72 23.561 130.03 23.561 130.03 24.354 127.84 24.354 127.84 22.962 124.41 22.962 124.41 24.952 125.01 24.952 125.01 23.561 127.24 23.561 127.24 24.952"/>
				<polygon points="126.41 24.354 126.41 24.952 125.81 24.952 125.81 24.354"/>
				<polygon points="151.6 24.952 151.6 21.558 151 21.558 151 24.354 150.18 24.354 150.18 21.558 149.58 21.558 149.58 24.354 148.82 24.354 148.82 21.558 148.22 21.558 148.22 22.962 145.42 22.962 145.42 24.952 147.42 24.952 147.42 24.354 146.02 24.354 146.02 23.561 148.22 23.561 148.22 24.952"/>
				<polygon points="147.42 22.154 147.42 21.558 138.39 21.558 138.39 22.154"/>
				<polygon points="144.61 24.952 144.61 22.962 142.7 22.962 142.7 23.561 144.02 23.561 144.02 24.354 141.83 24.354 141.83 22.962 138.39 22.962 138.39 24.952 138.99 24.952 138.99 23.561 141.23 23.561 141.23 24.952"/>
				<polygon points="140.4 24.354 140.4 24.952 139.8 24.952 139.8 24.354"/>
			</g>
			<g fill="#fff">
				<polygon points="11.759 58.792 11.759 55.396 11.16 55.396 11.16 58.193 10.34 58.193 10.34 55.396 9.741 55.396 9.741 58.193 8.974 58.193 8.974 55.396 8.375 55.396 8.375 56.801 5.577 56.801 5.577 58.792 7.581 58.792 7.581 58.193 6.176 58.193 6.176 57.399 8.375 57.399 8.375 58.792"/>
				<polygon points="7.581 55.994 7.581 55.396 -1.451 55.396 -1.451 55.994"/>
				<polygon points="4.769 58.792 4.769 56.801 2.857 56.801 2.857 57.399 4.171 57.399 4.171 58.193 1.985 58.193 1.985 56.801 -1.451 56.801 -1.451 58.792 -0.853 58.792 -0.853 57.399 1.385 57.399 1.385 58.792"/>
				<polygon points="0.553 58.193 0.553 58.792 -0.045 58.792 -0.045 58.193"/>
				<polygon points="25.743 58.792 25.743 55.396 25.145 55.396 25.145 58.193 24.325 58.193 24.325 55.396 23.726 55.396 23.726 58.193 22.958 58.193 22.958 55.396 22.359 55.396 22.359 56.801 19.562 56.801 19.562 58.792 21.565 58.792 21.565 58.193 20.16 58.193 20.16 57.399 22.359 57.399 22.359 58.792"/>
				<polygon points="21.565 55.994 21.565 55.396 12.533 55.396 12.533 55.994"/>
				<polygon points="18.755 58.792 18.755 56.801 16.841 56.801 16.841 57.399 18.155 57.399 18.155 58.193 15.969 58.193 15.969 56.801 12.533 56.801 12.533 58.792 13.132 58.792 13.132 57.399 15.37 57.399 15.37 58.792"/>
				<polygon points="14.537 58.193 14.537 58.792 13.939 58.792 13.939 58.193"/>
				<polygon points="39.728 58.792 39.728 55.396 39.129 55.396 39.129 58.193 38.31 58.193 38.31 55.396 37.71 55.396 37.71 58.193 36.942 58.193 36.942 55.396 36.344 55.396 36.344 56.801 33.546 56.801 33.546 58.792 35.549 58.792 35.549 58.193 34.145 58.193 34.145 57.399 36.344 57.399 36.344 58.792"/>
				<polygon points="35.549 55.994 35.549 55.396 26.518 55.396 26.518 55.994"/>
				<polygon points="32.739 58.792 32.739 56.801 30.825 56.801 30.825 57.399 32.14 57.399 32.14 58.193 29.953 58.193 29.953 56.801 26.518 56.801 26.518 58.792 27.116 58.792 27.116 57.399 29.355 57.399 29.355 58.792"/>
				<polygon points="28.522 58.193 28.522 58.792 27.923 58.792 27.923 58.193"/>
				<polygon points="53.712 58.792 53.712 55.396 53.113 55.396 53.113 58.193 52.293 58.193 52.293 55.396 51.694 55.396 51.694 58.193 50.927 58.193 50.927 55.396 50.328 55.396 50.328 56.801 47.53 56.801 47.53 58.792 49.534 58.792 49.534 58.193 48.129 58.193 48.129 57.399 50.328 57.399 50.328 58.792"/>
				<polygon points="49.534 55.994 49.534 55.396 40.502 55.396 40.502 55.994"/>
				<polygon points="46.723 58.792 46.723 56.801 44.81 56.801 44.81 57.399 46.124 57.399 46.124 58.193 43.938 58.193 43.938 56.801 40.502 56.801 40.502 58.792 41.101 58.792 41.101 57.399 43.339 57.399 43.339 58.792"/>
				<polygon points="42.507 58.193 42.507 58.792 41.908 58.792 41.908 58.193"/>
				<polygon points="67.696 58.792 67.696 55.396 67.098 55.396 67.098 58.193 66.277 58.193 66.277 55.396 65.679 55.396 65.679 58.193 64.911 58.193 64.911 55.396 64.312 55.396 64.312 56.801 61.515 56.801 61.515 58.792 63.518 58.792 63.518 58.193 62.113 58.193 62.113 57.399 64.312 57.399 64.312 58.792"/>
				<polygon points="63.518 55.994 63.518 55.396 54.486 55.396 54.486 55.994"/>
				<polygon points="60.707 58.792 60.707 56.801 58.794 56.801 58.794 57.399 60.108 57.399 60.108 58.193 57.922 58.193 57.922 56.801 54.486 56.801 54.486 58.792 55.084 58.792 55.084 57.399 57.323 57.399 57.323 58.792"/>
				<polygon points="56.49 58.193 56.49 58.792 55.892 58.792 55.892 58.193"/>
				<polygon points="81.681 58.792 81.681 55.396 81.082 55.396 81.082 58.193 80.263 58.193 80.263 55.396 79.664 55.396 79.664 58.193 78.896 58.193 78.896 55.396 78.297 55.396 78.297 56.801 75.499 56.801 75.499 58.792 77.503 58.792 77.503 58.193 76.097 58.193 76.097 57.399 78.297 57.399 78.297 58.792"/>
				<polygon points="77.503 55.994 77.503 55.396 68.471 55.396 68.471 55.994"/>
				<polygon points="74.691 58.792 74.691 56.801 72.778 56.801 72.778 57.399 74.093 57.399 74.093 58.193 71.906 58.193 71.906 56.801 68.471 56.801 68.471 58.792 69.069 58.792 69.069 57.399 71.308 57.399 71.308 58.792"/>
				<polygon points="70.475 58.193 70.475 58.792 69.876 58.792 69.876 58.193"/>
				<polygon points="95.665 58.792 95.665 55.396 95.066 55.396 95.066 58.193 94.246 58.193 94.246 55.396 93.647 55.396 93.647 58.193 92.88 58.193 92.88 55.396 92.281 55.396 92.281 56.801 89.483 56.801 89.483 58.792 91.486 58.792 91.486 58.193 90.082 58.193 90.082 57.399 92.281 57.399 92.281 58.792"/>
				<polygon points="91.486 55.994 91.486 55.396 82.453 55.396 82.453 55.994"/>
				<polygon points="88.676 58.792 88.676 56.801 86.763 56.801 86.763 57.399 88.077 57.399 88.077 58.193 85.891 58.193 85.891 56.801 82.453 56.801 82.453 58.792 83.053 58.792 83.053 57.399 85.292 57.399 85.292 58.792"/>
				<polygon points="84.459 58.193 84.459 58.792 83.86 58.792 83.86 58.193"/>
				<polygon points="109.65 58.792 109.65 55.396 109.05 55.396 109.05 58.193 108.23 58.193 108.23 55.396 107.63 55.396 107.63 58.193 106.86 58.193 106.86 55.396 106.27 55.396 106.27 56.801 103.47 56.801 103.47 58.792 105.47 58.792 105.47 58.193 104.07 58.193 104.07 57.399 106.27 57.399 106.27 58.792"/>
				<polygon points="105.47 55.994 105.47 55.396 96.439 55.396 96.439 55.994"/>
				<polygon points="102.66 58.792 102.66 56.801 100.75 56.801 100.75 57.399 102.06 57.399 102.06 58.193 99.875 58.193 99.875 56.801 96.439 56.801 96.439 58.792 97.038 58.792 97.038 57.399 99.276 57.399 99.276 58.792"/>
				<polygon points="98.443 58.193 98.443 58.792 97.845 58.792 97.845 58.193"/>
				<polygon points="123.63 58.792 123.63 55.396 123.04 55.396 123.04 58.193 122.22 58.193 122.22 55.396 121.62 55.396 121.62 58.193 120.85 58.193 120.85 55.396 120.25 55.396 120.25 56.801 117.45 56.801 117.45 58.792 119.46 58.792 119.46 58.193 118.05 58.193 118.05 57.399 120.25 57.399 120.25 58.792"/>
				<polygon points="119.46 55.994 119.46 55.396 110.42 55.396 110.42 55.994"/>
				<polygon points="116.65 58.792 116.65 56.801 114.73 56.801 114.73 57.399 116.05 57.399 116.05 58.193 113.86 58.193 113.86 56.801 110.42 56.801 110.42 58.792 111.02 58.792 111.02 57.399 113.26 57.399 113.26 58.792"/>
				<polygon points="112.43 58.193 112.43 58.792 111.83 58.792 111.83 58.193"/>
				<polygon points="137.62 58.792 137.62 55.396 137.02 55.396 137.02 58.193 136.2 58.193 136.2 55.396 135.6 55.396 135.6 58.193 134.83 58.193 134.83 55.396 134.23 55.396 134.23 56.801 131.44 56.801 131.44 58.792 133.44 58.792 133.44 58.193 132.04 58.193 132.04 57.399 134.23 57.399 134.23 58.792"/>
				<polygon points="133.44 55.994 133.44 55.396 124.41 55.396 124.41 55.994"/>
				<polygon points="130.63 58.792 130.63 56.801 128.72 56.801 128.72 57.399 130.03 57.399 130.03 58.193 127.84 58.193 127.84 56.801 124.41 56.801 124.41 58.792 125.01 58.792 125.01 57.399 127.24 57.399 127.24 58.792"/>
				<polygon points="126.41 58.193 126.41 58.792 125.81 58.792 125.81 58.193"/>
				<polygon points="151.6 58.792 151.6 55.396 151 55.396 151 58.193 150.18 58.193 150.18 55.396 149.58 55.396 149.58 58.193 148.82 58.193 148.82 55.396 148.22 55.396 148.22 56.801 145.42 56.801 145.42 58.792 147.42 58.792 147.42 58.193 146.02 58.193 146.02 57.399 148.22 57.399 148.22 58.792"/>
				<polygon points="147.42 55.994 147.42 55.396 138.39 55.396 138.39 55.994"/>
				<polygon points="144.61 58.792 144.61 56.801 142.7 56.801 142.7 57.399 144.02 57.399 144.02 58.193 141.83 58.193 141.83 56.801 138.39 56.801 138.39 58.792 138.99 58.792 138.99 57.399 141.23 57.399 141.23 58.792"/>
				<polygon points="140.4 58.193 140.4 58.792 139.8 58.792 139.8 58.193"/>
			</g>
				<path stroke-width=".1373" d="m72.113 39.87" stroke="#000" fill="#fff"/>
				<path d="m78.158 46.436c5.768-3.044 4.752-12.503-1.938-13.979 3.507 2.906 5.86 8.165 1.938 13.979z" fill="#EC1C2E"/>
				<path d="m66.07 46.436c-5.768-3.044-4.752-12.503 1.939-13.979-3.507 2.906-5.861 8.165-1.939 13.979z" fill="#EC1C2E"/>
				<path d="m71.145 48.466l0.969 1.292 0.971-1.292v-0.046c1.303 0.183 2.754 0.085 4.336-0.369-1.252 0.014-2.424-0.177-3.498-0.534 5.197-2.811 6.396-10.891 1.285-14.922 3.221 4.835 1.828 10.502-2.086 13.447l0.193-12.986c-0.369-0.184-0.877-0.508-1.201-0.968-0.322 0.46-0.828 0.784-1.199 0.968l0.195 12.986c-3.916-2.945-5.309-8.612-2.086-13.447-5.113 4.031-3.914 12.111 1.283 14.922-1.072 0.357-2.246 0.548-3.498 0.534 1.582 0.454 3.035 0.552 4.336 0.369v0.046z" fill="#EC1C2E"/>
				<path d="m72.113 30.611c-1.061 1.292-2.041 0.553-2.398-0.369-0.898 1.384 1.27 2.791 2.398 1.614 1.133 1.177 3.301-0.23 2.4-1.614-0.357 0.922-1.337 1.661-2.4 0.369z" fill="#EC1C2E"/>
				<path stroke-width=".1373" d="m72.113 39.87" stroke="#000" fill="none"/>
		</g>
</g>
</svg>
