<?xml version="1.0" encoding="UTF-8" standalone="no"?>
<!-- Generator: Adobe Illustrator 18.0.0, SVG Export Plug-In . SVG Version: 6.00 Build 0)  -->
<!DOCTYPE svg  PUBLIC '-//W3C//DTD SVG 1.1//EN'  'http://www.w3.org/Graphics/SVG/1.1/DTD/svg11.dtd'>
<svg style="enable-background:new 0 0 144 80" xmlns="http://www.w3.org/2000/svg" xml:space="preserve" version="1.1" y="0px" x="0px" xmlns:xlink="http://www.w3.org/1999/xlink" viewBox="0 0 144 80">
<g id="SKN">
		<polygon points="144 0 0 0 0 80" fill="#009E4A"/>
		<polygon points="0 80 144 80 144 0" fill="#CE2028"/>
		<polygon points="144 16.289 29.709 80 0 80 0 63.545 114.8 0 144 0" fill="#FBD013"/>
		<polygon points="144 12.536 22.82 80 0 80 0 67.334 121.53 0 144 0"/>
		<polygon points="36.765 48.843 38.259 56.073 31.79 59.737 39.206 60.567 40.649 67.817 43.698 61.076 51.056 61.922 45.567 56.893 48.679 50.196 42.239 53.855" fill="#fff"/>
		<polygon points="97.923 15.209 99.421 22.44 92.946 26.105 100.36 26.928 101.8 34.184 104.86 27.436 112.21 28.285 106.73 23.253 109.84 16.565 103.39 20.215" fill="#fff"/>
</g>
</svg>
