<?xml version="1.0" encoding="UTF-8" standalone="no"?>
<!-- Generator: Adobe Illustrator 18.0.0, SVG Export Plug-In . SVG Version: 6.00 Build 0)  -->
<!DOCTYPE svg  PUBLIC '-//W3C//DTD SVG 1.1//EN'  'http://www.w3.org/Graphics/SVG/1.1/DTD/svg11.dtd'>
<svg style="enable-background:new 0 0 144 80" xmlns="http://www.w3.org/2000/svg" xml:space="preserve" version="1.1" y="0px" x="0px" xmlns:xlink="http://www.w3.org/1999/xlink" viewBox="0 0 144 80">
<g id="ERI">
		<path stroke-width=".1343" d="m74.979 41.175" stroke="#000" fill="#EE3E42"/>
			<polygon points="144 80 144 0 0 0 0 80" fill="#EA0437"/>
			<polygon points="0 80 144 80 144 40.001" fill="#4189DD"/>
			<polygon points="0 0 144 0 144 40.001" fill="#12AD2B"/>
		<path d="m31.767 54.349c0.132-1.608-0.019-4.139-0.441-5.955 1.02-0.32 1.767-1.261 2.277-1.984 3.134 1.268 5.277-0.737 5.784-2.466-0.529 0.483-1.498 0.991-2.396 1.175-0.229 0.047-0.322-0.062-0.069-0.207 1.384-0.783 2.143-1.981 2.259-3.18-0.737 0.668-1.222 0.668-1.798 0.668-0.277 0-1.359 0.024-1.773 0.76-0.189 0.336-0.439 0.093-0.369-0.092 0.069-0.185 0.115-0.415 0.115-0.691s-0.093-0.622 0.991-1.382c0.178-0.125 0.161-0.232-0.047-0.185-2.628 0.584-3.456 2.765-2.834 4.493-0.628 1.421-1.762 1.863-2.404 2.171-0.005-0.015-0.01-0.03-0.016-0.044-0.726-1.971-1.348-4.563-1.152-6.321 0.03-0.274 0-0.714 0.484-0.76 0.646-0.061 1.221-0.346 1.705-0.784s1.122-0.31 1.567-0.069c1.451 0.784 3.41-0.322 3.843-1.175 0.238-0.471 0.014-0.411-0.208-0.242-0.588 0.449-1.278 0.519-2.108 0.208-0.287-0.108-0.276-0.33 0.086-0.311 1.331 0.069 2.316-1.054 2.853-1.953 0.103-0.173 0.075-0.283-0.121-0.173-0.795 0.449-1.141 0.347-1.625 0.173-0.483-0.173-0.933-0.259-1.59 0.225-0.309 0.227-0.312-0.069-0.034-0.276 0.276-0.207 0.189-0.519 0.916-0.916 0.154-0.084 0.276-0.229 0.052-0.242-2.022-0.121-2.472 0.882-3.042 2.42s-0.795 1.643-2.092 2.195c-0.478 0.204-0.377-0.103-0.259-0.328 0.847-1.625 1.676-2.887 2.23-5.048 0.062-0.239 0.138-0.501 0.207-0.569 0.536-0.536 1.297-0.864 1.4-0.985 0.104-0.121 0.204-0.163 0.432-0.086 1.435 0.483 3.094-0.019 3.648-1.211 0.133-0.287 0.069-0.379-0.069-0.294-0.643 0.402-1.158 0.416-1.59 0.416-0.433 0-0.432-0.218-0.018-0.294 0.743-0.138 1.624-1.056 1.78-1.867 0.066-0.346-0.104-0.346-0.328-0.121-0.226 0.226-0.605 0.294-1.037 0.26-1.034-0.083-1.193 0.294-1.418 0.673-0.225 0.381-0.241 0.122-0.241-0.017 0-0.138-0.069-0.346 0.121-0.519 0.189-0.172 0.173-0.483 0.76-0.829 0.288-0.17 0.294-0.295 0.012-0.334-1.301-0.186-2.144 1.059-2.189 2.119-0.046 1.061-0.092 1.383-0.853 2.074-0.246 0.224-0.396 0.223-0.322-0.045 0.553-2.006 0.483-3.21-0.294-4.955-0.088-0.198-0.139-0.328-0.029-0.483 0.701-0.996 0.208-2.812-0.697-3.647-0.287-0.266-0.346-0.156-0.276 0 0.193 0.434-0.121 1.019 0.069 1.797 0.022 0.091-0.139 0.536-0.276 0.104-0.213-0.666-1.192-0.934-1.349-1.676-0.039-0.188-0.102-0.241-0.207-0.139-0.64 0.622-0.432 1.729 0.397 2.472 0.255 0.229 0.087 0.259-0.155 0.173s-0.605-0.294-1.055-0.761c-0.136-0.141-0.314-0.175-0.276 0.087 0.208 1.47 1.763 2.351 2.869 2.194 0.304-0.042 0.346-0.078 0.449 0.133 0.882 1.787 0.208 4.517-0.599 7.421-0.144 0.517-0.3 0.299-0.53 0.184-0.628-0.313-1.429-1.197-1.659-1.429-0.23-0.23-0.212-0.352-0.161-0.552 0.299-1.199-0.438-2.604-1.89-3.618-0.432-0.302-0.484-0.024-0.208 0.253 0.277 0.276 0.461 1.083 0.53 1.498 0.069 0.414-0.069 0.483-0.253 0.022-0.185-0.461-0.945-0.69-1.545-0.645-0.599 0.046-0.875-0.347-1.129-0.715-0.253-0.369-0.28-0.092-0.276 0.047 0.024 0.829 0.553 2.143 1.729 2.626 0.425 0.175 0.322 0.323 0 0.369-0.323 0.046-0.807 0-1.452-0.115-0.343-0.061-0.498-0.008-0.253 0.3 0.99 1.244 2.073 1.197 3.917 1.151 0.8-0.02 0.691-0.023 0.922 0.162 0.23 0.185 0.6 0.507 1.095 1.014 0.734 0.752 0.541 0.752 0.312 1.106-1.659 2.558-2.109 5.461-1.613 7.166 0.207 0.715 0.023 0.53-0.276 0.277-0.3-0.254-0.554-0.6-1.015-1.06-0.346-0.347-0.414-0.577-0.438-1.521-0.023-0.945-0.023-2.881-2.673-3.549-0.348-0.088-0.369 0.116-0.162 0.207 0.65 0.289 0.737 0.945 0.83 1.59 0.092 0.646-0.046 0.554-0.438-0.046-0.392-0.599-0.76-0.53-1.544-0.507-0.783 0.023-1.267-0.23-1.889-1.059-0.162 1.566 1.105 2.995 2.649 3.548 0.392 0.141 0.323 0.323 0.047 0.323-0.277 0-0.691-0.046-0.969-0.23-0.276-0.185-0.322-0.161-0.599-0.207-0.276-0.047-0.715-0.208-0.898-0.369-0.185-0.161-0.23-0.023-0.035 0.45 0.456 1.099 3.042 3.006 5.254 1.521 0.657 0.414 1.107 1.417 2.178 2.143 0.751 0.509 0.622 1.141 0.657 1.348 0.034 0.208 0.207 0.83 0.449 1.383s0.331 1.172 0.312 1.729c-0.052 1.393-0.064 3.422-0.068 4.678-0.315-0.152-0.659-0.316-1.038-0.495-4.252-2.005-3.388-5.668-7.95-8.711-0.36-0.239-0.657-0.311-0.346 0.104 0.31 0.415 0.622 1.97 0.656 2.8 0.034 0.829 0.069 1.417 0.346 1.936 0.276 0.518 0.035 0.415-0.312 0.173-0.345-0.242-0.656-0.553-1.141-1.072 0.243-2.038-0.068-6.071-1.336-8.561-0.188-0.367-0.267-0.139-0.253 0.046 0.114 1.591-0.393 2.374-0.854 3.064-0.22 0.33-0.392 0.692-0.414 1.106-0.023 0.415-0.208 0.23-0.346 0.025-0.139-0.209-0.254-0.577-0.415-0.808-0.161-0.23-0.243-0.358-0.093-0.53 1.337-1.521 2.259-4.954 1.775-7.281-0.045-0.215-0.138-0.223-0.208 0.046-0.576 2.212-1.59 1.29-2.42 2.581-0.337 0.523-0.368-0.069-0.415-0.415-0.046-0.346-0.072-0.581 0.069-0.669 2.489-1.521 3.157-3.364 3.894-5.346 0.227-0.608-0.046-1.014-0.368-0.114-0.323 0.897-1.244 0.943-1.729 0.943-0.483 0-0.761 0.093-0.968 0.3-0.207 0.208-0.346 0.23-0.369 0.023-0.018-0.161 0.047-0.3 0.276-0.83 0.231-0.529 0.162-0.576 0.737-0.576 1.684 0 3.296-1.29 4.264-3.226 0.428-0.854-0.139-0.53-0.438-0.185-0.3 0.347-0.761 0.3-1.037 0.3s-0.807-0.184-1.129-0.139c-0.323 0.046-0.23-0.3 0.023-0.645 0.254-0.347 0.277-0.431 0.554-0.254 1.59 1.014 4.562-0.185 5.093-1.682 0.166-0.471 0.161-0.508-0.23-0.37-1.191 0.421-1.867-0.046-2.259 0-0.392 0.047-0.438-0.092 0.3-0.507 0.737-0.414 0.968-0.299 2.235-0.161 1.268 0.139 2.277-0.16 3.871-1.637 0.233-0.216 0.084-0.273-0.173-0.184-0.224 0.078-0.339-0.005-0.61 0.046-0.392 0.075-1.047 0.201-1.498 0.369-0.467 0.173-0.553-0.276-0.022-0.346 1.606-0.21 2.719-0.875 3.203-1.176 0.483-0.3 0.368-0.528 0.092-0.46-0.276 0.069-0.6 0.046-1.198 0-0.6-0.047-1.723 0.677-2.213 1.29-0.276 0.346-0.38 0.276-0.241 0.052 0.312-0.508 1.089-1.279 1.572-1.608 0.132-0.09 0.053-0.134-0.086-0.139-1.901-0.052-3.682 1.003-4.494 2.853-0.241 0.086-0.57 0.277-0.916 0.449-0.017-1.313 1.106-1.987 2.178-2.766 0.214-0.155 0.071-0.229-0.068-0.225-3.872 0.115-5.318 3.042-5.203 5.6-0.093 0.092-0.207 0.23-0.322 0.346-0.646-0.575-0.023-2.581 0.576-3.364-3.318 0.622-4.056 5.807-3.181 7.098 0.158 0.233 0.162 0.392 0.162 0.576 0 0.393-0.115 0.322-0.208 0.185-0.507-0.761-0.876-2.512-0.415-4.103 0.041-0.14-0.029-0.179-0.139-0.08-3.41 3.099-2.396 7.524-0.092 9.505 0.023 0.14-0.022 0.369-0.022 0.508-1.556-1.002-2.098-2.649-2.374-4.171-2.039 4.666 0.115 8.296 3.434 10.024 0.024 0.138 0.093 0.253 0.162 0.449-2.213-0.623-3.457-2.42-4.148-3.388-0.034 6.015 4.666 8.745 7.743 8.745 0.138 0.139 0.38 0.346 0.656 0.553-2.558 0.104-5.185-0.933-6.084-1.59-0.287-0.21-0.33-0.078-0.207 0.139 3.768 6.603 11.649 6.533 15.278 6.239 0.157-0.013 0.312-0.001 0.464 0.025-1.115 0.646-2.089 1.323-2.537 1.772-0.208 0.207-0.104 0.328 0.172 0.639 0.277 0.312 0.345 0.483 0.727 0.139 0.597-0.539 1.239-1.125 1.957-1.604-0.059 0.424-0.182 0.886-0.401 1.258-0.261 0.438 0.034 0.519 0.311 0.484 0.276-0.035 0.83 0 1.176 0.103 0.346 0.104 0.241 0 0.173-0.31-0.054-0.241-0.126-0.694-0.013-1.65 0.696 0.576 1.412 1.357 2.242 2.082 0.331 0.289 0.328 0.207 0.674-0.122 0.392-0.371 0.442-0.476 0.173-0.726-0.942-0.87-1.241-1.183-2.653-1.926 0.551-0.158 1.144-0.222 1.789-0.148 3.595 0.416 11.684-0.621 13.504-6.002-0.922 1.175-2.996 1.474-4.309 1.451-0.416-0.007-0.991-0.022-1.337 0.115-0.346 0.139-0.461 0-0.185-0.207 0.248-0.185 0.484-0.277 0.726-0.3 5.374-0.511 7.26-5.322 6.787-8.365-0.507 1.244-1.729 2.235-3.227 2.973-0.351 0.173-0.461 0.185-0.438 0.023s0.109-0.253 0.368-0.438c4.943-3.525 3.837-7.846 3.077-9.886-0.087-0.231-0.155-0.154-0.173 0-0.225 1.937-0.968 2.644-1.971 4.079-0.156 0.224-0.259 0.207-0.242 0.086 0.018-0.121-0.017-0.311 0-0.501 3.215-3.18 1.752-7.328-0.438-9.472 0.322 1.452-0.069 3.434-0.23 3.918s-0.276 0.438-0.322 0.276c-0.047-0.161-0.069-0.299-0.093-0.438 0.945-3.388-0.23-6.152-3.088-7.789 0.346 0.576 0.807 2.628 0.714 3.18-0.092 0.554-0.312 0.392-0.368 0.047-0.668-4.103-2.581-5.347-5.594-5.883-0.205-0.036-0.167 0.106-0.035 0.174 1.124 0.569 2.005 1.71 2.299 2.28 0.294 0.571-0.017 0.415-0.397 0.346s-0.498-0.136-0.604-0.346c-1.228-2.402-2.8-2.747-4.684-2.99-0.367-0.047-0.23 0.024-0.087 0.104 0.777 0.432 1.296 0.934 1.971 1.729 0.264 0.311-0.018 0.363-0.242 0.104-1.401-1.616-2.229-1.556-3.561-1.435-0.293 0.026-0.259 0.225-0.069 0.259 0.19 0.035 0.346 0.259 0.484 0.363 1.034 0.775 2.091 1.089 3.474 1.296 0.232 0.035 0.19 0.19 0.018 0.19-0.812 0-1.833-0.311-2.575-0.674-0.245-0.12-0.211 0.021-0.139 0.104 2.213 2.559 3.906 2.195 4.788 2.005 0.288-0.062 0.449-0.138 0.708-0.035 0.26 0.104 0.761 0.311 1.071 0.536 0.312 0.225 0 0.328-0.276 0.294-0.276-0.035-0.95-0.035-1.262-0.035-0.31 0-0.847-0.104-1.157-0.327-0.13-0.094-0.242-0.121-0.214 0.005 0.337 1.482 2.789 3.479 5.601 2.581 0.207 0.185 0.392 0.369 0.645 0.622 0.254 0.254 0.115 0.392-0.115 0.347-0.23-0.047-0.461-0.116-0.783-0.116s-1.06-0.046-1.751-0.461c-0.198-0.118-0.447-0.166-0.393 0.012 0.657 2.108 2.835 3.457 5.001 3.883 0.092 0.254 0.231 0.622 0.346 0.853 0.341 0.684-0.046 0.461-0.185 0.323-0.369-0.369-1.59 0.185-3.041-1.59-0.145-0.178-0.225-0.146-0.185 0.022 0.519 2.213 1.797 4.425 4.193 5.899 0 0.369 0.047 0.622-0.046 0.922-0.092 0.3-0.207 0.403-0.553-0.046s-2.039-0.795-2.385-2.834c-0.484 2.246 0.241 5.357 1.485 7.12 0.368 0.521 0.484 0.761 0.381 0.934s-0.311 0.588-0.415 0.898c-0.104 0.312-0.38 0.519-0.346 0 0.035-0.519-1.797-1.798-1.452-4.598-1.417 1.521-1.59 6.188-1.244 8.677-0.311 0.414-0.656 0.829-1.141 1.278-0.645 0.6-0.691 0.312-0.312-0.241 0.381-0.554 0.277-1.556 0.242-2.281-0.034-0.727 0.312-1.867 0.554-2.454 0.241-0.588 0.207-0.691-0.242-0.415s-2.877 2.653-4.079 5.357c-0.483 1.089-0.95 2.281-2.973 2.955-0.454 0.152-0.95 0.357-1.458 0.596z" fill="#FFC726"/>
</g>
</svg>
