<?xml version="1.0" encoding="UTF-8" standalone="no"?>
<!-- Generator: Adobe Illustrator 18.0.0, SVG Export Plug-In . SVG Version: 6.00 Build 0)  -->
<!DOCTYPE svg  PUBLIC '-//W3C//DTD SVG 1.1//EN'  'http://www.w3.org/Graphics/SVG/1.1/DTD/svg11.dtd'>
<svg style="enable-background:new 0 0 144 80" xmlns="http://www.w3.org/2000/svg" xml:space="preserve" version="1.1" y="0px" x="0px" xmlns:xlink="http://www.w3.org/1999/xlink" viewBox="0 0 144 80">
<g id="PAN">
		<polygon points="144 80 144 0 0 0 0 80" fill="#fff"/>
		<polygon points="72.001 40.062 72.001 80 0 80 0 40.062" fill="#0067C6"/>
		<polygon points="36.001 9.079 33.331 17.434 24.55 17.434 31.683 22.635 28.942 30.982 36.001 25.794 43.062 30.982 40.356 22.562 47.45 17.47 38.706 17.47" fill="#0067C6"/>
		<polygon points="72.001 40.062 72.001 0 144 0 144 40.062" fill="#D21034"/>
		<polygon points="108 49.079 105.33 57.433 96.551 57.433 103.68 62.633 100.94 70.983 108 65.795 115.06 70.983 112.36 62.563 119.45 57.469 110.7 57.469" fill="#D21034"/>
</g>
</svg>
