<?xml version="1.0" encoding="UTF-8" standalone="no"?>
<!-- Generator: Adobe Illustrator 18.0.0, SVG Export Plug-In . SVG Version: 6.00 Build 0)  -->
<!DOCTYPE svg  PUBLIC '-//W3C//DTD SVG 1.1//EN'  'http://www.w3.org/Graphics/SVG/1.1/DTD/svg11.dtd'>
<svg style="enable-background:new 0 0 144 80" xmlns="http://www.w3.org/2000/svg" xml:space="preserve" version="1.1" y="0px" x="0px" xmlns:xlink="http://www.w3.org/1999/xlink" viewBox="0 0 144 80">
<g id="BER">
		<polygon points="144 80 144 0 0 0 0 80" fill="#c00"/>
			<path d="m77.329 38.656" fill="#E03A3E"/>
			<path stroke-width=".1343" d="m77.329 38.656" stroke="#000" fill="none"/>
			<polyline points="0 0 9.332 0 32.147 11.406 32.147 0 34.885 0 34.885 15.557 0 15.557 0 12.892 16.385 12.892 0 4.698 0 3.081 19.601 12.892 25.825 12.892 0 0" fill="#fff"/>
			<polyline points="0 38.664 9.332 38.664 32.147 27.258 32.147 38.664 34.885 38.664 34.885 23.107 0 23.107 0 25.772 16.385 25.772 0 33.966 0 35.583 19.601 25.772 25.825 25.772 0 38.664" fill="#fff"/>
			<polyline points="77.316 0 67.984 0 45.169 11.406 45.169 0 42.432 0 42.432 15.557 77.316 15.557 77.316 12.892 60.933 12.892 77.316 4.698 77.316 3.081 57.715 12.892 51.49 12.892 77.316 0" fill="#fff"/>
			<polyline points="77.316 38.664 67.984 38.664 45.169 27.258 45.169 38.664 42.432 38.664 42.432 23.107 77.316 23.107 77.316 25.772 60.933 25.772 77.316 33.966 77.316 35.583 57.715 25.772 51.49 25.772 77.316 38.664" fill="#fff"/>
			<polygon points="0 12.892 16.385 12.892 0 4.698" fill="#006"/>
			<polygon points="9.332 0 32.147 11.406 32.147 0" fill="#006"/>
			<polygon points="0 25.772 16.385 25.772 0 33.966" fill="#006"/>
			<polygon points="9.332 38.664 32.147 27.258 32.147 38.664" fill="#006"/>
			<polygon points="77.316 12.892 60.933 12.892 77.316 4.698" fill="#006"/>
			<polygon points="67.984 0 45.169 11.406 45.169 0" fill="#006"/>
			<polygon points="77.316 25.772 60.933 25.772 77.316 33.966" fill="#006"/>
			<polygon points="67.984 38.664 45.169 27.258 45.169 38.664" fill="#006"/>
			<path d="m130.45 27.125v28.221c0 4.258-0.442 5.859-3.649 8.138-2.892 2.054-8.216 4.526-13.16 5.78-4.945-1.254-10.27-3.727-13.159-5.78-3.208-2.278-3.651-3.88-3.651-8.138v-28.221h33.621z" fill="#fff"/>
			<path d="m130.45 27.125v28.221c0 4.258-0.442 5.859-3.649 8.138-2.892 2.054-8.216 4.526-13.16 5.78-4.945-1.254-10.27-3.727-13.159-5.78-3.208-2.278-3.651-3.88-3.651-8.138v-28.221h33.621v0z" stroke="#000" stroke-linecap="round" stroke-width=".0843" fill="none"/>
			<path d="m102.12 56.27c-0.113-0.476-0.334-0.828-0.647-0.924 0.227 0.334 0.159 0.693 0.12 1.095 0.01-0.122-0.062-0.478-0.176-0.687-0.016 0.287-0.227 0.566-0.276 0.907-0.182-0.172-0.419-0.689-0.313-1.146-0.752 0.608-0.588 1.847 0.002 2.368-1.056-0.739-1.099-2.022-0.953-3.147-0.229 0.247-0.574 0.97-0.555 1.407-0.033-0.542 0.016-1.113 0.155-1.674-0.36 0.19-0.649 0.685-0.669 1.18 0.002-0.401 0.017-0.744 0.022-0.951-0.532 0.571-0.876 1.92-0.837 2.473-0.342-0.533-0.305-1.825-0.133-2.282-0.494 0.438-0.96 1.217-0.96 2.66 0.208 2.701 0.999 4.098 3.584 5.935 2.89 2.054 8.214 4.526 13.159 5.78 4.944-1.254 10.268-3.727 13.16-5.78 2.164-1.538 3.07-2.768 3.43-4.714 0.066-0.531-0.122-1.446-0.236-1.884-0.107 0.513-0.406 0.99-0.742 1.377 0.229-0.398 0.305-1.243 0.059-1.645-0.068 0.382-0.339 0.878-0.701 1.351 0.018-0.323 0.016-1.121-0.211-1.617-0.082 1.031-0.722 1.858-1.332 2.225 0.418-0.361 0.76-1.141 0.874-1.652-0.151 0.234-0.409 0.518-0.702 0.789 0.037-0.285 0.199-0.771 0.38-1.018-0.425 0.035-0.634 0.238-0.845 0.516 0.113-0.324 0.389-0.649 0.577-0.877-0.874 0.094-1.12 1.424-2.319 1.689 0.621-0.479 0.906-1.335 1.482-1.804-0.344 0.009-0.722 0.283-1.15 0.637 0.037-0.248 0.238-0.599 0.467-0.847-0.43 0-0.818 0.368-1.283 0.797 0.227-0.247 0.409-0.967 0.504-1.385-0.095 0.151-0.4 0.322-0.646 0.456-0.514-0.096-1.142 0.151-2.13 0.608-0.989 0.455-17.306-1.312-17.856-1.045-0.553 0.265-0.742 0.53-0.885 0.787-0.01-0.113-0.047-0.257-0.123-0.389 0.096 0.226-0.59 0.456-0.323 1.236-0.533-0.515-0.229-1.179 0.228-1.627-0.53 0.047-0.97 0.384-1.19 0.822z" fill="#6DBF69"/>
			<path d="m102.12 56.27c-0.113-0.476-0.334-0.828-0.647-0.924 0.227 0.334 0.159 0.693 0.12 1.095 0.01-0.122-0.062-0.478-0.176-0.687-0.016 0.287-0.227 0.566-0.276 0.907-0.182-0.172-0.419-0.689-0.313-1.146-0.752 0.608-0.588 1.847 0.002 2.368-1.056-0.739-1.099-2.022-0.953-3.147-0.229 0.247-0.574 0.97-0.555 1.407-0.033-0.542 0.016-1.113 0.155-1.674-0.36 0.19-0.649 0.685-0.669 1.18 0.002-0.401 0.017-0.744 0.022-0.951-0.532 0.571-0.876 1.92-0.837 2.473-0.342-0.533-0.305-1.825-0.133-2.282-0.494 0.438-0.96 1.217-0.96 2.66 0.208 2.701 0.999 4.098 3.584 5.935 2.89 2.054 8.214 4.526 13.159 5.78 4.944-1.254 10.268-3.727 13.16-5.78 2.164-1.538 3.07-2.768 3.43-4.714 0.066-0.531-0.122-1.446-0.236-1.884-0.107 0.513-0.406 0.99-0.742 1.377 0.229-0.398 0.305-1.243 0.059-1.645-0.068 0.382-0.339 0.878-0.701 1.351 0.018-0.323 0.016-1.121-0.211-1.617-0.082 1.031-0.722 1.858-1.332 2.225 0.418-0.361 0.76-1.141 0.874-1.652-0.151 0.234-0.409 0.518-0.702 0.789 0.037-0.285 0.199-0.771 0.38-1.018-0.425 0.035-0.634 0.238-0.845 0.516 0.113-0.324 0.389-0.649 0.577-0.877-0.874 0.094-1.12 1.424-2.319 1.689 0.621-0.479 0.906-1.335 1.482-1.804-0.344 0.009-0.722 0.283-1.15 0.637 0.037-0.248 0.238-0.599 0.467-0.847-0.43 0-0.818 0.368-1.283 0.797 0.227-0.247 0.409-0.967 0.504-1.385-0.095 0.151-0.4 0.322-0.646 0.456-0.514-0.096-1.142 0.151-2.13 0.608-0.989 0.455-17.306-1.312-17.856-1.045-0.553 0.265-0.742 0.53-0.885 0.787-0.01-0.113-0.047-0.257-0.123-0.389 0.096 0.226-0.59 0.456-0.323 1.236-0.533-0.515-0.229-1.179 0.228-1.627-0.53 0.047-0.97 0.384-1.19 0.822v0zm19.98 1.851c1.107-0.097 1.839-0.756 2.444-1.314m-1.28 1.465c0.825-0.296 1.511-0.931 2.101-1.416m-0.78 1.416c0.174-0.061 0.322-0.145 0.457-0.249m0.28 0.497c0.871-0.406 1.165-0.928 1.457-1.309m-0.87 1.442c0.365-0.147 0.889-0.53 1.332-0.94m-0.5 1.016c0.104-0.034 0.213-0.087 0.324-0.153m-0.03 0.781c0.528-0.244 1.126-0.798 1.581-1.389m-0.14 1.009c0.232-0.166 0.518-0.412 0.779-0.714m-29.871 0.067c-0.49-0.531-0.573-1.756-0.573-2.681m2.024 2.235c0.318 0.224 0.729 0.398 1.253 0.504m-2.761-2.244c0.062 1.077 0.448 2.029 1.107 2.51m1.25-0.856c-0.502-0.46-0.59-0.824-0.542-1.137m0.67 1.013c-0.27-0.452-0.258-0.86-0.223-1.233m0.53-0.171c-0.285 0.573-0.177 1.313 0.666 1.756m0.74-1.797c0.025 0.148-0.162 0.386 0.016 0.681m-0.46 0.166c0.161 0.17 0.39 0.359 0.575 0.428" stroke="#000" stroke-linecap="round" stroke-width=".0843" fill="none"/>
			<path d="m119.31 39.6c0.172-2.073-1.227-2.148-1.292-3.633 0.499-0.716 0.425-1.584-0.302-2.284 0-0.418-0.177-0.584-0.706-1.044-0.609-0.525 0.009-1.424-0.532-1.872 0.199-0.038 0.427-0.19 0.552-0.39 0.178-0.288-0.134-0.914-0.04-1.294-0.398 0.172-0.836-0.075-1.254 0.42-0.076-0.372-0.361-0.315-0.304-0.667-0.144 0.133-0.258 0.058-0.353 0.238 0.039-0.152 0.114-0.351-0.02-0.485-0.027 0.143-0.352 0.172-0.352 0.485 0.02-0.152 0.01-0.323-0.143-0.457 0.01 0.162-0.294 0.162-0.322 0.43 0.038-0.258-0.153-0.286-0.219-0.458-0.057 0.152-0.286 0.38-0.447 0.494 0.018-0.2-0.027-0.456-0.199-0.559 0.057 0.218-0.286 0.398-0.267 0.627-0.029-0.257-0.171-0.381-0.276-0.627-0.057 0.208-0.303 0.359-0.323 0.551-0.028-0.142-0.056-0.295-0.161-0.39 0 0.151-0.181 0.258-0.189 0.456-0.021-0.152-0.123-0.285-0.238-0.332 0.057 0.256-0.238 0.379-0.238 0.646-0.209-0.666-0.723-0.305-1.121-0.6 0.114 0.332-0.381 1.369 0.703 1.607-0.912 0.522-0.381 1.93-1.045 2.328-0.666 0.4-1.084 0.562-1.162 1.16 0.137-0.16 0.323-0.289 0.521-0.403-0.456 0.692 0.032 1.259-0.349 1.887-0.379 0.628-0.484 0.827-0.484 1.114 0.285-0.458 0.83-0.54 1.066-1.082-0.002 0.168-0.107 0.344-0.164 0.576-0.285 1.179-3.155 2.111-0.646 4.355 1.06 0.837 9.25 2.644 10.3-0.797z" fill="#E03A3E"/>
			<path stroke-width=".0843" d="m119.31 39.6c0.172-2.073-1.227-2.148-1.292-3.633 0.499-0.716 0.425-1.584-0.302-2.284 0-0.418-0.177-0.584-0.706-1.044-0.609-0.525 0.009-1.424-0.532-1.872 0.199-0.038 0.427-0.19 0.552-0.39 0.178-0.288-0.134-0.914-0.04-1.294-0.398 0.172-0.836-0.075-1.254 0.42-0.076-0.372-0.361-0.315-0.304-0.667-0.144 0.133-0.258 0.058-0.353 0.238 0.039-0.152 0.114-0.351-0.02-0.485-0.027 0.143-0.352 0.172-0.352 0.485 0.02-0.152 0.01-0.323-0.143-0.457 0.01 0.162-0.294 0.162-0.322 0.43 0.038-0.258-0.153-0.286-0.219-0.458-0.057 0.152-0.286 0.38-0.447 0.494 0.018-0.2-0.027-0.456-0.199-0.559 0.057 0.218-0.286 0.398-0.267 0.627-0.029-0.257-0.171-0.381-0.276-0.627-0.057 0.208-0.303 0.359-0.323 0.551-0.028-0.142-0.056-0.295-0.161-0.39 0 0.151-0.181 0.258-0.189 0.456-0.021-0.152-0.123-0.285-0.238-0.332 0.057 0.256-0.238 0.379-0.238 0.646-0.209-0.666-0.723-0.305-1.121-0.6 0.114 0.332-0.381 1.369 0.703 1.607-0.912 0.522-0.381 1.93-1.045 2.328-0.666 0.4-1.084 0.562-1.162 1.16 0.137-0.16 0.323-0.289 0.521-0.403-0.456 0.692 0.032 1.259-0.349 1.887-0.379 0.628-0.484 0.827-0.484 1.114 0.285-0.458 0.83-0.54 1.066-1.082-0.002 0.168-0.107 0.344-0.164 0.576-0.285 1.179-3.155 2.111-0.646 4.355 1.06 0.837 9.25 2.644 10.3-0.797z" stroke="#000" fill="none"/>
			<path d="m118.02 59.262c0.323 0.124 0.482 0.058 0.578 0.096-0.001 0.146 0.059 0.278 0.164 0.351 0.021 0.23 0.178 0.408 0.387 0.408 0.062 0.1 0.144 0.153 0.232 0.173 0.246-0.779 1.025-0.476 0.588 0.075-0.189 0.24-0.113 0.609 0.134 0.819 0.585 0.494 1.54 0.058 1.216-0.514-0.323-0.572-0.165-0.711 0.306-0.306 0.419 0.361-0.058 0.877 0.798 1.218 0.483 0.193 1.206-0.325 1.083-0.818 0.68 0.24 1.295-0.16 1.275-0.656 0.661-0.778 0.057-1.568-0.665-1.625-0.723-0.057-0.988 0.285-1.73 0.304-0.229-0.284-0.686-0.646-1.256-0.836-0.095-0.286-0.266-0.552-0.57-0.762-1.19-0.113-2.3 0.533-2.54 2.073z" fill="#E03A3E"/>
			<path stroke-width=".0843" d="m118.02 59.262c0.323 0.124 0.482 0.058 0.578 0.096-0.001 0.146 0.059 0.278 0.164 0.351 0.021 0.23 0.178 0.408 0.387 0.408 0.062 0.1 0.144 0.153 0.232 0.173 0.246-0.779 1.025-0.476 0.588 0.075-0.189 0.24-0.113 0.609 0.134 0.819 0.585 0.494 1.54 0.058 1.216-0.514-0.323-0.572-0.165-0.711 0.306-0.306 0.419 0.361-0.058 0.877 0.798 1.218 0.483 0.193 1.206-0.325 1.083-0.818 0.68 0.24 1.295-0.16 1.275-0.656 0.661-0.778 0.057-1.568-0.665-1.625-0.723-0.057-0.988 0.285-1.73 0.304-0.229-0.284-0.686-0.646-1.256-0.836-0.095-0.286-0.266-0.552-0.57-0.762-1.19-0.113-2.3 0.533-2.54 2.073z" stroke="#000" fill="none"/>
			<path d="m104.97 46.979c-0.57-0.42-1.141-0.191-1.598 0.113-1.292-0.571-3.072-0.034-3.422 0.836-0.457 1.143 0.479 1.471 0.076 2.358-0.912 2.016 0.456 2.738 0.342 3.651-0.113 0.912 0.266 1.256 0.57 1.484 0.038-0.4-0.342-0.952 0.096-1.332 0.095 0.399 0.342 0.76 0.57 0.932-0.058-0.266-0.02-0.95 0.133-1.273 0.115 0.437 0.419 1.026 0.742 1.293-0.096-0.419 0.039-0.97-0.039-1.332 0.153 0.609 0.266 0.933 0.609 1.312-0.057-0.323-0.02-0.798 0.133-1.102 2.03-2.947 3.89-5.687 1.8-6.94z" fill="#E03A3E"/>
			<path stroke-width=".0843" d="m104.97 46.979c-0.57-0.42-1.141-0.191-1.598 0.113-1.292-0.571-3.072-0.034-3.422 0.836-0.457 1.143 0.479 1.471 0.076 2.358-0.912 2.016 0.456 2.738 0.342 3.651-0.113 0.912 0.266 1.256 0.57 1.484 0.038-0.4-0.342-0.952 0.096-1.332 0.095 0.399 0.342 0.76 0.57 0.932-0.058-0.266-0.02-0.95 0.133-1.273 0.115 0.437 0.419 1.026 0.742 1.293-0.096-0.419 0.039-0.97-0.039-1.332 0.153 0.609 0.266 0.933 0.609 1.312-0.057-0.323-0.02-0.798 0.133-1.102 2.03-2.947 3.89-5.687 1.8-6.94z" stroke="#000" fill="none"/>
			<path d="m122.35 47.358c0.723-0.133 1.939-0.153 2.454 0.342 1.331-0.286 2.3 0.571 2.358 1.636 0.057 1.064-0.646 1.685-0.039 3.366 0.247 0.684 0.191 1.71-0.039 2.281-0.037-0.342-0.246-0.724-0.418-0.951-0.037 0.4-0.38 0.837-0.38 1.39-0.267-0.324-0.171-1.77-0.438-2.15-0.171 0.533-0.626 1.465-0.114 2.092-0.646-0.057-1.197-1.482-1.236-1.939-0.056 0.496-0.323 0.761-0.037 1.54-0.248-0.056-0.553-0.628-0.646-1.044-0.84-0.858-5.1-5.384-1.45-6.563z" fill="#E03A3E"/>
			<path stroke-width=".0843" d="m122.35 47.358c0.723-0.133 1.939-0.153 2.454 0.342 1.331-0.286 2.3 0.571 2.358 1.636 0.057 1.064-0.646 1.685-0.039 3.366 0.247 0.684 0.191 1.71-0.039 2.281-0.037-0.342-0.246-0.724-0.418-0.951-0.037 0.4-0.38 0.837-0.38 1.39-0.267-0.324-0.171-1.77-0.438-2.15-0.171 0.533-0.626 1.465-0.114 2.092-0.646-0.057-1.197-1.482-1.236-1.939-0.056 0.496-0.323 0.761-0.037 1.54-0.248-0.056-0.553-0.628-0.646-1.044-0.84-0.858-5.1-5.384-1.45-6.563z" stroke="#000" fill="none"/>
			<path d="m109.26 59.262c-0.324 0.124-0.484 0.058-0.578 0.096 0.002 0.146-0.059 0.278-0.164 0.351-0.021 0.23-0.178 0.408-0.387 0.408-0.062 0.1-0.143 0.153-0.231 0.173-0.247-0.779-1.026-0.476-0.589 0.075 0.19 0.24 0.114 0.609-0.133 0.819-0.587 0.494-1.295 0.036-0.971-0.533 0.324-0.57-0.119-0.767-0.59-0.361-0.418 0.361-0.231 1.111-0.884 1.208-0.514 0.075-1.083-0.24-0.96-0.733-0.678 0.24-1.293-0.16-1.273-0.656-0.662-0.778-0.059-1.568 0.664-1.625s0.989 0.285 1.73 0.304c0.229-0.284 0.686-0.646 1.255-0.836 0.096-0.286 0.268-0.552 0.571-0.762 1.19-0.114 2.29 0.532 2.53 2.072z" fill="#E03A3E"/>
			<path stroke-width=".0843" d="m109.26 59.262c-0.324 0.124-0.484 0.058-0.578 0.096 0.002 0.146-0.059 0.278-0.164 0.351-0.021 0.23-0.178 0.408-0.387 0.408-0.062 0.1-0.143 0.153-0.231 0.173-0.247-0.779-1.026-0.476-0.589 0.075 0.19 0.24 0.114 0.609-0.133 0.819-0.587 0.494-1.295 0.036-0.971-0.533 0.324-0.57-0.119-0.767-0.59-0.361-0.418 0.361-0.231 1.111-0.884 1.208-0.514 0.075-1.083-0.24-0.96-0.733-0.678 0.24-1.293-0.16-1.273-0.656-0.662-0.778-0.059-1.568 0.664-1.625s0.989 0.285 1.73 0.304c0.229-0.284 0.686-0.646 1.255-0.836 0.096-0.286 0.268-0.552 0.571-0.762 1.19-0.114 2.29 0.532 2.53 2.072z" stroke="#000" fill="none"/>
			<path d="m118.24 38.99c1.008-0.475 1.408 0.419 2.701-0.359 0.703 0.304 2.319-0.725 3.327-0.553-1.1 4.411-6.6 3.137-6.03 0.912z" fill="#E03A3E"/>
			<path stroke-width=".0843" d="m118.24 38.99c1.008-0.475 1.408 0.419 2.701-0.359 0.703 0.304 2.319-0.725 3.327-0.553-1.1 4.411-6.6 3.137-6.03 0.912z" stroke="#000" fill="none"/>
			<path d="m109.04 38.99c-1.008-0.475-1.408 0.419-2.701-0.359-0.703 0.304-2.318-0.725-3.326-0.553 1.1 4.411 5.88 2.984 6.03 0.912z" fill="#E03A3E"/>
			<path stroke-width=".0843" d="m109.04 38.99c-1.008-0.475-1.408 0.419-2.701-0.359-0.703 0.304-2.318-0.725-3.326-0.553 1.1 4.411 5.88 2.984 6.03 0.912zm0.77-3.523c0.143-0.25 0.143-0.973 0.121-1.23m-0.11 1.207c0.352-0.77 0.837-1.027 0.971-1.872m-0.42 1.387c-0.172 2.035-0.609 2.663-0.972 3.139-0.36 0.475-0.854 1.141 0.153 1.806m0.74-4.183c-0.029 0.218 0.008 0.607 0.047 0.732 0.352-0.324 0.646-1.198 0.693-1.826m-1.15 4.857c-0.476-0.778 0.532-1.862 0.59-2.814m1.57-1.938c0.305 1.082-0.822 2.101-0.646 3.156 0.076 0.455 0.21 1.312-0.02 1.844m0.01-5.571c0.382 0.894-0.551 1.598-0.322 2.282s0.332 1.33 0.361 1.567m-0.56-2.557c-0.047 0.156 0.076 0.371 0.199 0.525m1.34-0.733c0.533 1.14 0.209 2.016 0.059 2.472-0.152 0.456-0.725 1.369-0.344 2.377m0.51-3.004c-0.134 0.589 0.552 2.225 0.418 3.594m0.38-0.152c0.171-0.514 0.285-1.411 0.096-1.941-0.457-1.273 0.132-2.263-0.152-2.87 0.76 0.893 0.418 2.338 0.666 2.93 0.246 0.588 0.284 1.178 0.208 1.406 0.399-0.552 0.685-1.275 0.514-1.788-0.171-0.514-0.343-0.837-0.323-1.292 0.02-0.458 0.02-1.01-0.171-1.294 0.57 0.78 0.532 1.521 0.741 1.996 0.209 0.476 0.229 1.426 0 1.978 1.047-0.836 0.477-2.13 0.686-2.758 0.209-0.626-0.049-1.245-0.115-1.407" stroke="#000" fill="none"/>
			<path d="m114.65 32.239l1.274-1.083m-1.12 1.198l1.368-0.76m-1.23 0.97l1.369-0.552m-3.22 0.627l-1.33-1.062m1.3 1.121l-1.854-0.763m1.81 0.809l-1.864-0.106" stroke="#000" stroke-linecap="round" stroke-width=".0843" fill="none"/>
			<path stroke-width=".0843" d="m111 32.316c-0.099 0.671-0.827 0.931-1.42 1.232m8.13 0.135c-0.159-0.153-0.35-0.3-0.574-0.435-0.854-0.513-0.6-0.961-0.846-1.624-0.162-0.438-0.124-0.822-0.205-1.274m0.29 1.481c0.168 1.348-0.884 1.808-0.667 2.481 0.262 0.804 0.828 1.332 0.789 1.902-0.037 0.57-0.018 1.046 0.021 1.332-0.134-0.172-0.362-0.704-0.382-1.084-0.36 1.33 0.4 2.016 0.153 2.642 0.247-0.188 0.399-0.741 0.399-0.988 0.285 0.399 0.494 0.913 0.455 1.407m-0.99-5.609c0 1.597 0.588 1.367 0.608 3.08 0.021 1.541 1.16 1.255 1.256 2.263 0.247-1.388-0.913-1.806-0.856-2.909 0.059-1.103-0.323-1.863-0.646-2.281 0.704 0.608 1.122 1.501 1.103 2.338-0.02 0.838 0.893 1.351 0.989 1.979 0.036-0.514 0-1.008-0.229-1.37m-1.98-4.83c0.01 0.569 0.37 1.179 0.75 1.693 0.382 0.512 0.838 1.576 0.876 2.09m-4.8-6.169c0.532 0.474 0.058 0.731 0.18 1.226 0.059 0.231 0.145 0.438-0.047 0.636m0.12-1.349c-0.408-0.533-1.141 0.162-1.474-0.134 0.237 0.333 0.072 0.538 0.372 0.743 0.44 0.303 1.02 0.146 1.1-0.609zm0.84-0.47c-0.19 0.498 0.017 0.67-0.078 1.002-0.066 0.239 0.005 0.477 0.067 0.656m-0.08-1.17c0.246-0.237 0.705-0.109 0.865-0.038 0.085 0.038 0.314 0.076 0.543-0.086-0.172 0.19-0.262 0.315-0.286 0.506-0.038 0.294-0.446 0.508-0.762 0.37-0.16-0.076-0.36-0.257-0.35-0.752zm1.91 0.267c0.148 0.045 0.259 0.103 0.344 0.171m-4.92 0.618c0.038 0.418-0.076 0.97-0.248 1.445m4.03-0.313c0.104 0.095 0.218 0.265 0.237 0.428m0.16-0.267c-0.01-0.104-0.104-0.237-0.189-0.295m0.25-0.18c0.067 0.047 0.134 0.132 0.172 0.237m-4.2-0.029c0.056 0.57-0.165 0.708-0.077 1.198 0.229 1.256 1.141 0.913 1.104 1.483 0.229-0.286 0.742-0.484 0.912 0.276 0.258-0.258 0.295-0.694 0.514-0.685 0.153 0.006 0.37 0.274 0.408 1.007 0.182-0.114 0.182-0.847 0.105-1.064 0.361 0.115 0.809 0.713 0.904 0.988-0.059-0.494-0.078-0.864-0.258-1.15m-3.48-1.226c-0.372 0.553-0.059 0.923 0.389 1.037 0.447 0.113 0.627-0.2 1.045 0.123 0.211 0.162 0.572 0.104 0.847-0.01 0.276-0.113 1.38-0.313 1.646 0.172m3.22 25.139c0.01 0.187 0.051 0.322 0.111 0.417m-0.55-0.759c0-0.064 0.014-0.134 0.039-0.199m0.13 0.55c-0.007-0.083 0.006-0.174 0.037-0.265m4.7 1.321c-0.284-0.884-0.96-0.484-1.491-1.141m2.76 0.484c-0.058-1.054-1.188-0.684-1.892-0.884m-2.69-0.009c-0.006-0.114-0.146-0.356-0.142-0.45 0.108 0.051 0.498 0.371 0.599 0.46-0.043-0.083-0.172-0.333-0.227-0.444 0.193 0.055 0.416 0.398 0.787 0.444-0.032-0.131-0.328-0.333-0.371-0.479 0.127 0.032 0.463 0.09 0.629 0.128-0.053-0.082-0.246-0.264-0.29-0.357 0.175 0.047 0.386 0.053 0.442 0.069-0.061-0.082-0.252-0.261-0.334-0.342m-1.15 0.981c-0.072-0.1-0.323-0.331-0.404-0.413 0.035 0.138 0.068 0.398 0.057 0.474-0.082-0.09-0.189-0.294-0.252-0.376-0.006 0.066-0.006 0.21-0.02 0.296-0.09-0.062-0.252-0.224-0.359-0.283m-19.06-9.054c0.008-0.628 0.351-1.046 0.38-1.378 0.247 0.466-0.124 1.33 0.38 2.025m0.15 3.575c-0.123-0.39-0.104-1.08-0.305-1.55-0.247-0.58 0.152-1.094-0.057-1.608m-0.29 3.139c0.095-0.665-0.076-1.788 0.086-1.949m1.28 1.626c-0.161-0.477-0.143-1.428-0.371-1.798m-0.37-2.366c0.057 0.931 0.362 1.652 0.913 2.129 0.057-0.19 0-0.494 0.017-0.704m-0.28-1.797c-0.372 1.019 0.494 2.007 0.513 2.378 0.077-0.067 0.143-0.306 0.123-0.457m-0.33-1.065c-0.047 0.57 0.58 1.216 0.59 1.672 0.418-0.37 0.322-1.435 0.2-1.824m0.06 0.256c0.181 0.553 0.315 0.98 0.238 1.274 0.532-0.39 0.438-1.645 0.248-1.901 0.133 0.191 0.399 0.466 0.428 0.646 0.095-0.352 0-0.932-0.219-1.207m-1.06 4.725c-0.113-0.419-0.36-0.847-0.332-1.615m1.26-5.002c0.694 0.305 2.292 0.181 2.378 1.123m-0.58 0.474c-0.39-0.4-1.073-0.637-1.55-0.627 0.266 0.142 1.312 0.674 1.512 1.283m-1.13 0.181c0.199 0.332 0.494 0.884 0.541 1.302 0.268-0.666 0.104-1.767-0.713-2.158m4.41 11.029c-0.009 0.187-0.052 0.322-0.11 0.417m0.55-0.759c0-0.064-0.015-0.134-0.041-0.199m-0.12 0.55c0.006-0.083-0.006-0.174-0.038-0.265m-4.71 1.321c0.285-0.884 0.96-0.484 1.493-1.141m-2.76 0.484c0.056-1.054 1.188-0.684 1.891-0.884m1.62-0.921c-0.075 0.086-0.257 0.276-0.312 0.362 0.056-0.021 0.264-0.039 0.436-0.096-0.037 0.096-0.133 0.313-0.18 0.399 0.162-0.048 0.408-0.152 0.531-0.19-0.032 0.147-0.232 0.36-0.257 0.494 0.21-0.051 0.485-0.418 0.676-0.485-0.048 0.115-0.162 0.372-0.2 0.456m0.16-0.188c0.094-0.096 0.295-0.248 0.398-0.305 0.01 0.095-0.209 0.36-0.209 0.475m0.2-0.029c0.065-0.104 0.246-0.333 0.323-0.418m-0.02 0.475c0.076-0.094 0.172-0.304 0.229-0.39 0.01 0.067 0.02 0.21 0.038 0.296 0.086-0.066 0.237-0.238 0.343-0.305m17.68-5.582c-0.142-0.313-0.38-1.035-0.343-1.539m1.16 2.3c0.066-0.332-0.438-1.426-0.294-2.024m-1.88 1.416c-0.037-0.285-0.01-0.578 0.02-0.674m0.28-0.43c0.389 0.562-0.191 1.922 0.267 2.512m1.2-6.162c0.323 0.408 0.571 1.15 0.096 1.816 0.028-0.408-0.161-1.065-0.428-1.408 0.181 0.42 0.286 0.79 0.065 1.39-0.084-0.124-0.18-0.306-0.198-0.438-0.067 0.408-0.151 0.826-0.419 1.046-0.028-0.296-0.371-0.608-0.189-1.304m-0.03 0.61c0.029 0.294-0.304 1.084-0.551 1.255-0.019-0.684-0.942-1.122-0.988-1.588m1.18-2.349c0.284 0.228 0.323 0.438 0.398 0.589-0.361-0.209-1.11-0.464-0.97-0.143 0.066 0.153 0.275 0.325 0.438 0.467-0.143-0.096-0.531-0.219-0.684-0.238 0.312 0.209 0.551 0.847 0.664 0.903-0.313-0.085-1.008-0.57-1.178-0.903-0.086 0.419 0.752 0.941 0.826 1.293-0.522-0.189-1.084-0.59-1.236-0.865 0.01 0.552 0.742 1.151 1.084 1.322-0.322 0.047-1.35-0.333-1.605-0.732" stroke="#000" fill="none"/>
			<path d="m113.64 40.987c2.13 0 1.289-2.377 5.167-0.551 2.953 1.39 4.223 0.228 5.191-1.351 0.971 0.152 0.876 1.179 1.274 1.369-0.151 0.532-0.475 0.989-0.78 1.331 0.268 0.267 0.286 0.686 0.172 0.969 0.742-0.15 1.008 0.647 1.445 0.8-0.057 0.304-0.215 1.027-0.189 1.369 0.019 0.267-0.381 0.933-1.027 0.704 0.342-0.817 0.457-2.035-1.293-1.312-1.75 0.722-2.473 5.59 0.267 7.338 1.063 3.006-1.978 5.896-4.679 5.478-0.342 1.826-2.434 2.436-3.309 2.739-0.875 0.305-0.664 1.626-0.095 1.454-0.048 0.161-0.306 0.39-0.561 0.305-0.256-0.086-0.861-0.257-1.583-0.257s-1.325 0.171-1.583 0.257c-0.256 0.085-0.514-0.144-0.562-0.305 0.571 0.172 0.78-1.149-0.095-1.454-0.875-0.304-2.966-0.913-3.309-2.739-2.701 0.418-5.742-2.472-4.678-5.478 2.737-1.748 2.016-6.616 0.266-7.338-1.75-0.724-1.635 0.494-1.293 1.312-0.646 0.229-1.045-0.438-1.025-0.704 0.023-0.342-0.135-1.065-0.191-1.369 0.438-0.152 0.703-0.95 1.445-0.8-0.113-0.283-0.094-0.702 0.172-0.969-0.305-0.342-0.628-0.799-0.779-1.331 0.398-0.19 0.303-1.217 1.273-1.369 0.97 1.578 2.238 2.74 5.191 1.351 3.88-1.826 3.04 0.551 5.17 0.551z" fill="#3697D3"/>
			<path stroke-width=".0843" d="m113.64 40.987c2.13 0 1.289-2.377 5.167-0.551 2.953 1.39 4.223 0.228 5.191-1.351 0.971 0.152 0.876 1.179 1.274 1.369-0.151 0.532-0.475 0.989-0.78 1.331 0.268 0.267 0.286 0.686 0.172 0.969 0.742-0.15 1.008 0.647 1.445 0.8-0.057 0.304-0.215 1.027-0.189 1.369 0.019 0.267-0.381 0.933-1.027 0.704 0.342-0.817 0.457-2.035-1.293-1.312-1.75 0.722-2.473 5.59 0.267 7.338 1.063 3.006-1.978 5.896-4.679 5.478-0.342 1.826-2.434 2.436-3.309 2.739-0.875 0.305-0.664 1.626-0.095 1.454-0.048 0.161-0.306 0.39-0.561 0.305-0.256-0.086-0.861-0.257-1.583-0.257s-1.325 0.171-1.583 0.257c-0.256 0.085-0.514-0.144-0.562-0.305 0.571 0.172 0.78-1.149-0.095-1.454-0.875-0.304-2.966-0.913-3.309-2.739-2.701 0.418-5.742-2.472-4.678-5.478 2.737-1.748 2.016-6.616 0.266-7.338-1.75-0.724-1.635 0.494-1.293 1.312-0.646 0.229-1.045-0.438-1.025-0.704 0.023-0.342-0.135-1.065-0.191-1.369 0.438-0.152 0.703-0.95 1.445-0.8-0.113-0.283-0.094-0.702 0.172-0.969-0.305-0.342-0.628-0.799-0.779-1.331 0.398-0.19 0.303-1.217 1.273-1.369 0.97 1.578 2.238 2.74 5.191 1.351 3.88-1.826 3.04 0.551 5.17 0.551z" stroke="#000" fill="none"/>
			<path d="m112.5 32.905c0.268 0.315 0.989 0.447 1.321-0.028 0.334 0.258 1.019 0.438 1.37 0.01-0.075 0.191-0.151 0.476 0 0.656-0.646-0.21-1.987-0.162-2.539-0.048-0.05-0.142-0.06-0.38-0.15-0.59z"/>
			<path d="m114.85 32.737c-0.088 0-0.088 0.131 0 0.131 0.09 0 0.09-0.131 0-0.131z"/>
			<path d="m114.47 32.746c-0.088 0-0.088 0.131 0 0.131 0.09 0 0.09-0.131 0-0.131z"/>
			<path d="m114.46 32.44c-0.09 0-0.09 0.133 0 0.133s0.09-0.133 0-0.133z"/>
			<path d="m113 32.15c0.247-0.195 0.547-0.144 0.622 0.065 0.076 0.21-0.033 0.329-0.108 0.253-0.076-0.076-0.252-0.043-0.323 0.038 0.023-0.053 0.143-0.2 0.237-0.205-0.07-0.113-0.27-0.209-0.43-0.151z"/>
			<path d="m113.95 32.345c0.043-0.208 0.219-0.286 0.365-0.271 0.129 0.012 0.116 0.086 0.007 0.089-0.11 0.005-0.234 0.076-0.28 0.182-0.06 0.106-0.12 0.114-0.1 0z"/>
			<path d="m113.53 32.708c-0.09 0-0.09 0.131 0 0.131s0.09-0.131 0-0.131z"/>
			<path d="m116.71 29.407c-0.304 0.075-0.294 0.322-0.521 0.438-0.301 0.151-0.109 0.342-0.09 0.579 0.152-0.371 0.488-0.236 0.518-0.552 0.02-0.209 0.04-0.379 0.09-0.465z"/>
			<path d="m111.35 29.531c-0.066-0.333-0.438-0.21-0.523-0.333-0.076 0.341 0.095 0.703 0.333 0.95 0.01-0.086 0.01-0.219 0.085-0.295-0.056-0.181-0.199-0.152-0.228-0.381 0.13 0.001 0.25-0.009 0.34 0.059z"/>
			<path d="m112.94 30.105c0.264 0.141 0.204 0.608-0.169 0.608-0.301 0-0.395-0.308-0.282-0.5 0.1-0.026 0.36-0.098 0.45-0.108z"/>
			<path d="m114.89 30.228c0.201 0.17 0.125 0.577-0.221 0.577-0.362 0-0.425-0.452-0.183-0.604 0.1-0.01 0.31-0.01 0.4 0.027z"/>
			<path d="m104.11 44.24c0.038-0.153 0.285-0.457 0.4-0.552v-0.686c0.113 0.02 0.455-0.018 0.607-0.038l0.01 0.115c0.229-0.01 0.666-0.048 0.855 0 0-0.296 0.161-0.485 0.276-0.562l0.019-0.257 0.314-0.152 0.142 0.237 0.458-0.104c0.046-0.096 0.16-0.227 0.228-0.266 0.151-0.019 0.389-0.028 0.532 0.028 0.038 0.076 0.048 0.2 0.058 0.247 0.322 0.028 0.508-0.386 0.771-0.228 1.016 0.618 0.883 0.745 1.416 1.91 0.817 1.788 2.264 5.325 3.213 6.694-2.319 1.749-6.846 4.069-9.774 3.347-0.532-1.636-0.267-2.396 1.142-3.917 1.41-1.519 0-5.018-0.67-5.816z" fill="#EEE1C4"/>
			<path d="m104.11 44.24c0.038-0.153 0.285-0.457 0.4-0.552v-0.686c0.113 0.02 0.455-0.018 0.607-0.038l0.01 0.115c0.229-0.01 0.666-0.048 0.855 0 0-0.296 0.161-0.485 0.276-0.562l0.019-0.257 0.314-0.152 0.142 0.237 0.458-0.104c0.046-0.096 0.16-0.227 0.228-0.266 0.151-0.019 0.389-0.028 0.532 0.028 0.038 0.076 0.048 0.2 0.058 0.247 0.322 0.028 0.508-0.386 0.771-0.228 1.016 0.618 0.883 0.745 1.416 1.91 0.817 1.788 2.264 5.325 3.213 6.694-2.319 1.749-6.846 4.069-9.774 3.347-0.532-1.636-0.267-2.396 1.142-3.917 1.41-1.519 0-5.018-0.67-5.816v0zm1.26 1.027c0.076 0.019 0.199 0 0.199 0 0.02-0.086 0.076-0.21 0.076-0.21l0.152 0.019c0.074 0.2 0.314 0.408 0.713 0.408 0.295 0.666 0.218 0.105 0.637 1.265m-0.19-0.475c-0.066-0.172 0.189-0.38 0.256-0.476 0.057 0.125 0.066 0.247 0.124 0.323m-1.86 1.483c0.096 1.428 1.312 0.571 1.73 2.701m-1.22-7.225c0 0.198 0.352 0.646 0.447 1.045 0.096 0.399 0.113 0.313 0.352 0.39 0.238 0.077 0.589 0.206 0.809 1.046 0.268 1.017 0.894 0.924 1.293 1.816m-1.69-5.135c-0.059 0.095-0.039 0.305 0.142 0.542 0.181 0.238 0.019 0.399 0.228 0.646 0.211 0.248 0.371 0.618 0.448 0.952 0.075 0.332 0.227 0.702 0.332 0.912" stroke="#000" stroke-linecap="round" stroke-width=".0843" fill="none"/>
			<path d="m122.08 47.205c-0.552-0.931-1.521-0.875-1.978-0.57-0.399-1.007-2.017-1.293-2.758-0.703-0.646-0.342-1.825-0.094-2.054 0.609-0.608-0.533-1.92-0.458-2.32 0.418-0.722 0.475-0.607 2.148 0.514 2.511 1.123 0.36 8.074 8.331 9.584 6.064 0.457-0.685 1.35-2.244 0.79-3.88-1.04-0.836-2.07-2.394-1.77-4.449z" fill="#fff"/>
			<path d="m122.08 47.205c-0.552-0.931-1.521-0.875-1.978-0.57-0.399-1.007-2.017-1.293-2.758-0.703-0.646-0.342-1.825-0.094-2.054 0.609-0.608-0.533-1.92-0.458-2.32 0.418-0.722 0.475-0.607 2.148 0.514 2.511 1.123 0.36 8.074 8.331 9.584 6.064 0.457-0.685 1.35-2.244 0.79-3.88-1.04-0.836-2.07-2.394-1.77-4.449v0z" stroke="#000" stroke-linecap="round" stroke-width=".0843" fill="none"/>
			<line y2="52.227" x2="109.31" y1="44.4" x1="108.54" fill="#fff"/>
			<line stroke-width=".0843" y2="52.227" x2="109.31" stroke="#000" y1="44.4" x1="108.54" fill="none"/>
			<line y2="52.15" x2="109.95" y1="44.379" x1="108.58" fill="#fff"/>
			<line stroke-width=".0843" y2="52.15" x2="109.95" stroke="#000" y1="44.379" x1="108.58" fill="none"/>
			<line y2="52.168" x2="110.66" y1="44.34" x1="108.65" fill="#fff"/>
			<line stroke-width=".0843" y2="52.168" x2="110.66" stroke="#000" y1="44.34" x1="108.65" fill="none"/>
			<line y2="51.826" x2="111.2" y1="44.301" x1="108.71" fill="#fff"/>
			<line stroke-width=".0843" y2="51.826" x2="111.2" stroke="#000" y1="44.301" x1="108.71" fill="none"/>
			<line y2="48.594" x2="112.86" y1="44.012" x1="109.2" fill="#fff"/>
			<line stroke-width=".0843" y2="48.594" x2="112.86" stroke="#000" y1="44.012" x1="109.2" fill="none"/>
			<line y2="48.86" x2="112.29" y1="44.035" x1="109.15" fill="#fff"/>
			<line stroke-width=".0843" y2="48.86" x2="112.29" stroke="#000" y1="44.035" x1="109.15" fill="none"/>
			<line y2="49.316" x2="111.93" y1="44.068" x1="109.11" fill="#fff"/>
			<line stroke-width=".0843" y2="49.316" x2="111.93" stroke="#000" y1="44.068" x1="109.11" fill="none"/>
			<line y2="51.143" x2="111.11" y1="51.504" x1="109.23" fill="#fff"/>
			<line stroke-width=".0843" y2="51.143" x2="111.11" stroke="#000" y1="51.504" x1="109.23" fill="none"/>
			<line y2="50.306" x2="111.09" y1="50.533" x1="109.14" fill="#fff"/>
			<line stroke-width=".0843" y2="50.306" x2="111.09" stroke="#000" y1="50.533" x1="109.14" fill="none"/>
			<line y2="49.545" x2="110.79" y1="49.772" x1="109.08" fill="#fff"/>
			<line stroke-width=".0843" y2="49.545" x2="110.79" stroke="#000" y1="49.772" x1="109.08" fill="none"/>
			<line y2="48.765" x2="110.5" y1="48.918" x1="108.98" fill="#fff"/>
			<line stroke-width=".0843" y2="48.765" x2="110.5" stroke="#000" y1="48.918" x1="108.98" fill="none"/>
			<line y2="48.156" x2="108.94" y1="48.004" x1="110.22" fill="#fff"/>
			<line stroke-width=".0843" y2="48.156" x2="108.94" stroke="#000" y1="48.004" x1="110.22" fill="none"/>
			<line y2="47.454" x2="110.01" y1="47.568" x1="108.87" fill="#fff"/>
			<line stroke-width=".0843" y2="47.454" x2="110.01" stroke="#000" y1="47.568" x1="108.87" fill="none"/>
			<line y2="46.9" x2="109.78" y1="46.959" x1="108.81" fill="#fff"/>
			<line stroke-width=".0843" y2="46.9" x2="109.78" stroke="#000" y1="46.959" x1="108.81" fill="none"/>
			<line y2="46.294" x2="109.57" y1="46.36" x1="108.74" fill="#fff"/>
			<line stroke-width=".0843" y2="46.294" x2="109.57" stroke="#000" y1="46.36" x1="108.74" fill="none"/>
			<line y2="45.779" x2="110.62" y1="46.122" x1="110.03" fill="#fff"/>
			<line stroke-width=".0843" y2="45.779" x2="110.62" stroke="#000" y1="46.122" x1="110.03" fill="none"/>
			<line y2="46.255" x2="110.98" y1="46.674" x1="110.29" fill="#fff"/>
			<line stroke-width=".0843" y2="46.255" x2="110.98" stroke="#000" y1="46.674" x1="110.29" fill="none"/>
			<line y2="46.73" x2="111.36" y1="47.282" x1="110.58" fill="#fff"/>
			<line stroke-width=".0843" y2="46.73" x2="111.36" stroke="#000" y1="47.282" x1="110.58" fill="none"/>
			<line y2="47.187" x2="111.72" y1="47.834" x1="110.87" fill="#fff"/>
			<line stroke-width=".0843" y2="47.187" x2="111.72" stroke="#000" y1="47.834" x1="110.87" fill="none"/>
			<line y2="47.586" x2="112.04" y1="48.442" x1="111.13" fill="#fff"/>
			<line stroke-width=".0843" y2="47.586" x2="112.04" stroke="#000" y1="48.442" x1="111.13" fill="none"/>
			<line y2="48.138" x2="112.48" y1="49.202" x1="111.51" fill="#fff"/>
			<line stroke-width=".0843" y2="48.138" x2="112.48" stroke="#000" y1="49.202" x1="111.51" fill="none"/>
			<line y2="45.637" x2="109.31" y1="45.723" x1="108.66" fill="#fff"/>
			<line stroke-width=".0843" y2="45.637" x2="109.31" stroke="#000" y1="45.723" x1="108.66" fill="none"/>
			<line y2="45.257" x2="110.19" y1="45.522" x1="109.73" fill="#fff"/>
			<line stroke-width=".0843" y2="45.257" x2="110.19" stroke="#000" y1="45.522" x1="109.73" fill="none"/>
			<line y2="44.011" x2="111.63" y1="49.716" x1="111.63" fill="#fff"/>
			<line stroke-width=".0843" y2="44.011" x2="111.63" stroke="#000" y1="49.716" x1="111.63" fill="none"/>
			<line y2="49.202" x2="112.01" y1="43.973" x1="111.68" fill="#fff"/>
			<line stroke-width=".0843" y2="49.202" x2="112.01" stroke="#000" y1="43.973" x1="111.68" fill="none"/>
			<line y2="43.898" x2="111.76" y1="48.613" x1="112.79" fill="#fff"/>
			<line stroke-width=".0843" y2="43.898" x2="111.76" stroke="#000" y1="48.613" x1="112.79" fill="none"/>
			<line y2="43.816" x2="111.76" y1="48.404" x1="113.26" fill="#fff"/>
			<line stroke-width=".0843" y2="43.816" x2="111.76" stroke="#000" y1="48.404" x1="113.26" fill="none"/>
			<line y2="48.784" x2="112.42" y1="43.868" x1="111.71" fill="#fff"/>
			<line stroke-width=".0843" y2="48.784" x2="112.42" stroke="#000" y1="43.868" x1="111.71" fill="none"/>
			<line y2="47.862" x2="114.38" y1="43.688" x1="112.08" fill="#fff"/>
			<line stroke-width=".0843" y2="47.862" x2="114.38" stroke="#000" y1="43.688" x1="112.08" fill="none"/>
			<line y2="47.52" x2="115.11" y1="43.573" x1="112.31" fill="#fff"/>
			<line stroke-width=".0843" y2="47.52" x2="115.11" stroke="#000" y1="43.573" x1="112.31" fill="none"/>
			<line y2="47.687" x2="114.75" y1="43.631" x1="112.2" fill="#fff"/>
			<line stroke-width=".0843" y2="47.687" x2="114.75" stroke="#000" y1="43.631" x1="112.2" fill="none"/>
			<line y2="47.834" x2="113.43" y1="48.613" x1="111.65" fill="#fff"/>
			<line stroke-width=".0843" y2="47.834" x2="113.43" stroke="#000" y1="48.613" x1="111.65" fill="none"/>
			<line y2="47.263" x2="113.2" y1="47.853" x1="111.63" fill="#fff"/>
			<line stroke-width=".0843" y2="47.263" x2="113.2" stroke="#000" y1="47.853" x1="111.63" fill="none"/>
			<line y2="46.692" x2="112.96" y1="47.205" x1="111.65" fill="#fff"/>
			<line stroke-width=".0843" y2="46.692" x2="112.96" stroke="#000" y1="47.205" x1="111.65" fill="none"/>
			<line y2="46.103" x2="112.71" y1="46.521" x1="111.65" fill="#fff"/>
			<line stroke-width=".0843" y2="46.103" x2="112.71" stroke="#000" y1="46.521" x1="111.65" fill="none"/>
			<line y2="45.513" x2="112.48" y1="45.779" x1="111.63" fill="#fff"/>
			<line stroke-width=".0843" y2="45.513" x2="112.48" stroke="#000" y1="45.779" x1="111.63" fill="none"/>
			<line y2="46.92" x2="114.69" y1="47.092" x1="113.74" fill="#fff"/>
			<line stroke-width=".0843" y2="46.92" x2="114.69" stroke="#000" y1="47.092" x1="113.74" fill="none"/>
			<line y2="46.294" x2="114.23" y1="46.541" x1="113.47" fill="#fff"/>
			<line stroke-width=".0843" y2="46.294" x2="114.23" stroke="#000" y1="46.541" x1="113.47" fill="none"/>
			<line y2="45.816" x2="113.91" y1="45.971" x1="113.17" fill="#fff"/>
			<line stroke-width=".0843" y2="45.816" x2="113.91" stroke="#000" y1="45.971" x1="113.17" fill="none"/>
			<line y2="45.286" x2="113.51" y1="45.381" x1="112.86" fill="#fff"/>
			<line stroke-width=".0843" y2="45.286" x2="113.51" stroke="#000" y1="45.381" x1="112.86" fill="none"/>
			<line y2="44.752" x2="113.15" y1="44.811" x1="112.58" fill="#fff"/>
			<line stroke-width=".0843" y2="44.752" x2="113.15" stroke="#000" y1="44.811" x1="112.58" fill="none"/>
			<line y2="45.133" x2="111.63" y1="44.904" x1="112.23" fill="#fff"/>
			<line stroke-width=".0843" y2="45.133" x2="111.63" stroke="#000" y1="44.904" x1="112.23" fill="none"/>
			<line y2="47.244" x2="114.9" y1="47.568" x1="113.98" fill="#fff"/>
			<line stroke-width=".0843" y2="47.244" x2="114.9" stroke="#000" y1="47.568" x1="113.98" fill="none"/>
			<path d="m111.2 51.965l-0.147-1.488 1.178-1.597 5.706-2.701 0.165 1.252 0.234-0.103 0.071 0.539-0.128 0.076 0.105 0.783c0.141-0.071 0.261-0.137 0.369-0.199l0.02 0.58c0.228 0.229 1.027 0.799 1.369 0.895l-0.152 5.268c-5.857 1.178-10.84 2.7-9.812-2.892 0.25-0.095 0.8-0.314 1.02-0.413z" fill="#D1AD7E"/>
			<path stroke-width=".0843" d="m111.2 51.965l-0.147-1.488 1.178-1.597 5.706-2.701 0.165 1.252 0.234-0.103 0.071 0.539-0.128 0.076 0.105 0.783c0.141-0.071 0.261-0.137 0.369-0.199l0.02 0.58c0.228 0.229 1.027 0.799 1.369 0.895l-0.152 5.268c-5.857 1.178-10.84 2.7-9.812-2.892 0.25-0.095 0.8-0.314 1.02-0.413z" stroke="#000" fill="none"/>
			<polygon points="113.6 48.232 111.65 43.473 111.4 43.445 111.35 42.633 111.94 43.175 111.84 43.387 114.19 47.957" fill="#D1AD7E"/>
			<polygon stroke-width=".0843" points="113.6 48.232 111.65 43.473 111.4 43.445 111.35 42.633 111.94 43.175 111.84 43.387 114.19 47.957" stroke="#000" fill="none"/>
			<polygon points="111.35 43.737 112.18 43.272 112.4 43.575 111.53 44.12" fill="#D1AD7E"/>
			<polygon stroke-width=".0843" points="111.35 43.737 112.18 43.272 112.4 43.575 111.53 44.12" stroke="#000" fill="none"/>
			<polygon points="111.12 50.396 108.58 43.707 108.29 43.669 108.25 42.709 108.94 43.364 108.81 43.611 111.7 49.598" fill="#D1AD7E"/>
			<polygon stroke-width=".0843" points="111.12 50.396 108.58 43.707 108.29 43.669 108.25 42.709 108.94 43.364 108.81 43.611 111.7 49.598" stroke="#000" fill="none"/>
			<polygon points="108.22 44.011 109.21 43.488 109.47 43.85 108.42 44.468" fill="#D1AD7E"/>
			<path stroke-width=".0843" d="m108.22 44.011l0.988-0.522 0.258 0.361-1.046 0.618-0.2-0.457zm4.81 4.487v-0.392l4.902-2.317v0.39m-0.51 1.564l0.07-0.997-4.991 2.361-1.097 1.488c1.459-0.671 5.903-2.805 6.701-3.165m-1.21-0.037l-3.921 1.855m-2.79 3.13c2.567-1.008 7.188-3.062 8.576-3.85l-0.076 4.935m-8.56-0.601c2.566-1.007 7.245-3.09 8.633-3.878m-7.24 1.968c2.206-0.97 5.61-2.51 6.898-3.085m-1.04 0.471l-0.058 0.922m-0.49-0.666l-0.058 0.922m-0.52-0.646l-0.057 0.922m-0.48-0.685l-0.057 0.923m-0.45-0.704l-0.058 0.922m-3.31 3.19c1.18-0.514 4.127-1.769 5.363-2.377m-5.24 2.692c1.133-0.494 3.897-1.672 5.208-2.303m-5.27 3.329c1.131-0.493 3.897-1.672 5.209-2.303m-5.13 2.741c1.133-0.494 3.898-1.672 5.211-2.303m-4.96 2.759c1.133-0.493 3.898-1.671 5.209-2.303m-5.14 2.739c1.133-0.493 3.898-1.672 5.209-2.303m-0.22-4.071l-0.247 3.536m-3.3-0.996c0.266-0.117 0.533-0.23 0.797-0.346l0.036-0.489c-0.263 0.115-0.53 0.233-0.794 0.349l-0.05 0.486zm1.54-0.685c0.27-0.121 0.537-0.238 0.793-0.355l0.037-0.49c-0.256 0.118-0.524 0.238-0.793 0.361l-0.04 0.484zm-1.64 2.078c0.256-0.11 0.525-0.23 0.797-0.35l0.031-0.361c-0.274 0.119-0.541 0.239-0.801 0.351l-0.03 0.36zm1.54-0.673c0.273-0.12 0.541-0.243 0.8-0.358l0.026-0.355c-0.257 0.115-0.525 0.232-0.799 0.354l-0.03 0.359zm2.08-2.709c0.447-0.132 1.208-0.522 1.512-0.788 0.285 0.332 0.895 0.732 1.389 0.846m-2.9 0.371c0.447-0.133 1.208-0.524 1.512-0.79m-1.55 1.132c0.445-0.133 1.207-0.524 1.512-0.79m-1.51 1.171c0.445-0.134 1.131-0.447 1.512-0.789m-1.58 1.273c0.504-0.162 1.207-0.484 1.588-0.828m-1.62 1.246c0.505-0.162 1.207-0.484 1.588-0.827m-1.59 1.225c0.505-0.16 1.207-0.484 1.588-0.826m0.06-1.635c0.219 0.305 0.751 0.646 1.37 0.646m-2.66-4.525v-0.386m-0.41 0.591v-0.39m-0.39 0.574v-0.389m-0.38 0.574v-0.389m-0.39 0.561v-0.389m-0.39 0.57v-0.39m-0.38 0.581v-0.391m-0.39 0.565v-0.389m-0.38 0.576v-0.392m-0.38 0.572v-0.39m-0.39 0.57v-0.389m-0.38 0.571v-0.39m5.51 2.619c0.218 0.304 0.77 0.627 1.388 0.627m-1.37-0.132c0.22 0.304 0.771 0.627 1.39 0.627m-1.37-1.835c0.257 0.275 0.715 0.59 1.36 0.647" stroke="#000" fill="none"/>
			<path d="m103.2 52.646c-0.187 2.615 2.485 4.859 4.887 4.486 0.343 1.826 2.434 2.436 3.309 2.739 0.875 0.305 0.666 1.626 0.095 1.454 0.048 0.161 0.306 0.39 0.562 0.305 0.258-0.086 0.861-0.257 1.583-0.257s1.327 0.171 1.583 0.257c0.256 0.085 0.514-0.144 0.561-0.305-0.569 0.172-0.78-1.149 0.095-1.454 0.875-0.304 2.967-0.913 3.309-2.739 2.449 0.38 5.18-1.963 4.872-4.644-0.128-0.262-1.097-0.395-1.421-0.187-0.114-0.589-0.874-0.894-1.426-0.589-1.254-0.723-2.453-0.114-2.529 1.312-0.969-0.912-1.979-0.364-2.148 0.648-0.267 1.578-3.498 2.68-4.412 0.874 0.628-0.038 0.971-1.012 0.361-1.54-0.57-0.494-1.464 0.018-1.443 0.666-0.686-0.533-0.836-1.047-0.801-1.484 0.057-0.703-1.121-1.159-1.729-0.228-0.268 0.057-0.646 0.247-0.741 0.552-0.362-0.913-1.332-1.236-1.902-1.084s-1.104 0.836-0.932 1.464c-0.438-0.494-1.198-0.532-1.73-0.285" fill="#fff"/>
			<path stroke-width=".0843" d="m103.2 52.646c-0.187 2.615 2.485 4.859 4.887 4.486 0.343 1.826 2.434 2.436 3.309 2.739 0.875 0.305 0.666 1.626 0.095 1.454 0.048 0.161 0.306 0.39 0.562 0.305 0.258-0.086 0.861-0.257 1.583-0.257s1.327 0.171 1.583 0.257c0.256 0.085 0.514-0.144 0.561-0.305-0.569 0.172-0.78-1.149 0.095-1.454 0.875-0.304 2.967-0.913 3.309-2.739 2.449 0.38 5.18-1.963 4.872-4.644-0.128-0.262-1.097-0.395-1.421-0.187-0.114-0.589-0.874-0.894-1.426-0.589-1.254-0.723-2.453-0.114-2.529 1.312-0.969-0.912-1.979-0.364-2.148 0.648-0.267 1.578-3.498 2.68-4.412 0.874 0.628-0.038 0.971-1.012 0.361-1.54-0.57-0.494-1.464 0.018-1.443 0.666-0.686-0.533-0.836-1.047-0.801-1.484 0.057-0.703-1.121-1.159-1.729-0.228-0.268 0.057-0.646 0.247-0.741 0.552-0.362-0.913-1.332-1.236-1.902-1.084s-1.104 0.836-0.932 1.464c-0.438-0.494-1.198-0.532-1.73-0.285" stroke="#000" fill="none"/>
			<path d="m108.15 54.395c-0.438-0.686-1.197-0.779-1.674-0.627-0.475 0.152-0.113 0.606-0.569 0.874-0.456 0.267-0.286 1.311 0.514 1.464m0.58-1.198c0.361-0.039 0.741 0.246 0.913 0.626m0.18-0.188c-0.133-0.533-0.533-0.951-1.045-0.934m1.22 0.382c0.132 0.779 0.932 0.589 1.025 1.292m-0.64-1.691c0.02 0.38 0.477 0.74 0.742 0.799m-0.49-1.274c0.17 0.246 0.475 0.626 0.799 0.74m-0.71-1.692c0.037 0.552 0.417 1.084 1.103 1.179m-1.12-1.997c0.856 0.037 0.382 1.388 1.047 1.522m0.04-0.648c0.058 0.266 0.551 0.817 0.95 1.008m-4.51-1.12c-0.038-0.515-0.248-1.048-0.666-1.258 0.494 0.039 1.046 0.439 1.274 1.01m0.68-0.152c-0.076 0.191-0.049 0.627 0.104 0.846m2.97 2.176c0.065 0.476 0.504 0.372 0.551 0.989m-0.12-1.093c0.018 0.258 0.342 0.372 0.342 0.723m-0.21-1.085c0.01 0.182 0.181 0.39 0.371 0.457m-0.25-0.759c0.133 0.066 0.257 0.256 0.313 0.417m-0.39-0.809c0.447 0.172 0.872 0.792 1.122 1.189 0.485 0.771 2.063 0.827 2.615 0.334 0.552-0.495 0.817-0.763 1.198-0.724m-4.54 1.218c0.933 0.951 2.473 0.267 2.871 0.686m-0.46 0.435c0.676-0.456 1.454 0.259 1.92-0.323 0.422-0.523 1.048-0.912 1.542-0.816m-4.3 1.539c0.609 0.266 1.134-0.13 1.693 0.02 0.855 0.226 1.615-0.97 2.586-0.8m-8.42 0.838c0.988-0.058 1.615 1.364 3.213 0.893 1.996-0.59 3.88 0.438 4.526 0.153m-3.67 0.152c0.665-0.114 1.71 0.056 2.167 0.436m-1.77 0.019c0.382 0.02 0.951 0.209 1.159 0.494m-0.86 0.059c0.256-0.02 0.664 0.188 0.854 0.322m-0.85 0.191c0.256-0.02 0.664 0.188 0.854 0.322m3.41-7.777c-0.362-0.285-1.066-0.4-1.332 0.037 0.284-0.056 0.703 0.076 0.894 0.362m-0.36 2.32c0.343-0.285 0.399-0.818 0.229-1.179m1.48 1.179c0.228-0.551 0.152-1.635-0.494-1.959m1.12-1.102c0.247 0.133 0.322 0.532 0.247 0.78m0.07-1.047c0.267 0.113 0.391 0.571 0.353 0.865m-0.5-1.322c0.647 0.068 0.96 0.582 0.903 1.322m-0.54 0.865c0.465 0.181 0.531 0.875 0.208 1.274m0.58-1.065c0.124 0.344 0 0.865-0.181 1.113m0.28 0.361c0.533-0.513 0.639-1.738 0.029-2.092m0.28-1.074c0.398 0.096 0.674 0.552 0.656 1.048 0.418 0.056 0.799 0.475 0.874 1.006m-0.81-2.472c0.182 0.076 0.361 0.276 0.409 0.466 0.2-0.048 0.646-0.094 0.979 0.104" stroke="#000" stroke-linecap="round" stroke-width=".0843" fill="none"/>
			<path d="m113.64 41.406c0.267 0 0.718-0.02 1.193 0.17l-0.038-1.006c-0.266-0.172-0.757-0.267-1.155-0.267s-0.889 0.095-1.155 0.267l-0.037 1.006c0.48-0.189 0.93-0.17 1.2-0.17z" fill="#FFD559"/>
			<path stroke-width=".0843" d="m113.64 41.406c0.267 0 0.718-0.02 1.193 0.17l-0.038-1.006c-0.266-0.172-0.757-0.267-1.155-0.267s-0.889 0.095-1.155 0.267l-0.037 1.006c0.48-0.189 0.93-0.17 1.2-0.17z" stroke="#000" fill="none"/>
			<path d="m103.14 39.068c0.438 1.652 1.427 2.242 2.853 2.317 0.898 0.048 2.075-0.297 2.813-0.815 1.177-0.825 2.671-0.643 3.317 0.146-0.33-0.146-0.674 0.177-0.674 0.499 0 0.324 0.248 0.552 0.705 0.552 0.361 0 0.684-0.36 0.684-0.854 0-1.407-2.322-2.106-3.917-1.16-0.909 0.539-2.011 0.973-2.929 0.904-1.179-0.086-1.939-0.638-2.207-2.006l-0.64 0.417z" fill="#FFD559"/>
			<path stroke-width=".0843" d="m103.14 39.068c0.438 1.652 1.427 2.242 2.853 2.317 0.898 0.048 2.075-0.297 2.813-0.815 1.177-0.825 2.671-0.643 3.317 0.146-0.33-0.146-0.674 0.177-0.674 0.499 0 0.324 0.248 0.552 0.705 0.552 0.361 0 0.684-0.36 0.684-0.854 0-1.407-2.322-2.106-3.917-1.16-0.909 0.539-2.011 0.973-2.929 0.904-1.179-0.086-1.939-0.638-2.207-2.006l-0.64 0.417z" stroke="#000" fill="none"/>
			<path d="m124.13 39.068c-0.438 1.652-1.427 2.242-2.854 2.317-0.898 0.048-2.075-0.297-2.814-0.815-1.176-0.825-2.67-0.643-3.315 0.146 0.329-0.146 0.673 0.177 0.673 0.499 0 0.324-0.248 0.552-0.703 0.552-0.362 0-0.685-0.36-0.685-0.854 0-1.407 2.321-2.106 3.916-1.16 0.91 0.539 2.011 0.973 2.929 0.904 1.18-0.086 1.939-0.638 2.205-2.006l0.63 0.417z" fill="#FFD559"/>
			<path stroke-width=".0843" d="m124.13 39.068c-0.438 1.652-1.427 2.242-2.854 2.317-0.898 0.048-2.075-0.297-2.814-0.815-1.176-0.825-2.67-0.643-3.315 0.146 0.329-0.146 0.673 0.177 0.673 0.499 0 0.324-0.248 0.552-0.703 0.552-0.362 0-0.685-0.36-0.685-0.854 0-1.407 2.321-2.106 3.916-1.16 0.91 0.539 2.011 0.973 2.929 0.904 1.18-0.086 1.939-0.638 2.205-2.006l0.63 0.417z" stroke="#000" fill="none"/>
			<path d="m112.63 60.689c0 0.797-0.485 0.969-0.818 0.969-0.699 0-0.735-0.991-0.105-1.092-0.218-0.867-3.317-0.562-3.888-3.055-3.574 0.172-5.21-2.775-4.905-6.046 2.662-1.503 2.092-4.45 1.331-6.046-0.54-1.137-1.502-1.142-1.882-0.879 0.739 0.273 0.33 1.354-0.4 1.087-0.285-0.105-0.456-0.342-0.456-0.608 0-0.723 0.528-1.482 1.673-1.293 1.504 0.246 2.396 1.845 2.396 4.164 0 2.016-0.723 3.156-1.94 3.955-0.036 2.929 1.18 4.716 3.978 5.046-0.607-0.119-0.562-1.09 0.13-1.09 0.427 0 0.61 0.358 0.548 0.664 0.122-0.093 0.29-0.134 0.487-0.075 0.72 0.204 0.407 1.259-0.303 1.055 0.61 2.103 4.16 1.532 4.16 3.244z" fill="#FFD559"/>
			<path stroke-width=".0843" d="m112.63 60.689c0 0.797-0.485 0.969-0.818 0.969-0.699 0-0.735-0.991-0.105-1.092-0.218-0.867-3.317-0.562-3.888-3.055-3.574 0.172-5.21-2.775-4.905-6.046 2.662-1.503 2.092-4.45 1.331-6.046-0.54-1.137-1.502-1.142-1.882-0.879 0.739 0.273 0.33 1.354-0.4 1.087-0.285-0.105-0.456-0.342-0.456-0.608 0-0.723 0.528-1.482 1.673-1.293 1.504 0.246 2.396 1.845 2.396 4.164 0 2.016-0.723 3.156-1.94 3.955-0.036 2.929 1.18 4.716 3.978 5.046-0.607-0.119-0.562-1.09 0.13-1.09 0.427 0 0.61 0.358 0.548 0.664 0.122-0.093 0.29-0.134 0.487-0.075 0.72 0.204 0.407 1.259-0.303 1.055 0.61 2.103 4.16 1.532 4.16 3.244z" stroke="#000" fill="none"/>
			<path d="m114.64 60.689c0 0.797 0.486 0.969 0.818 0.969 0.699 0 0.735-0.991 0.105-1.092 0.218-0.867 3.316-0.562 3.888-3.055 3.575 0.172 5.21-2.775 4.906-6.046-2.662-1.503-2.092-4.45-1.331-6.046 0.54-1.137 1.502-1.142 1.881-0.879-0.74 0.273-0.329 1.354 0.4 1.087 0.285-0.105 0.457-0.342 0.457-0.608 0-0.723-0.529-1.482-1.674-1.293-1.502 0.246-2.396 1.845-2.396 4.164 0 2.016 0.722 3.156 1.94 3.955 0.036 2.929-1.18 4.716-3.978 5.046 0.607-0.119 0.561-1.09-0.13-1.09-0.427 0-0.609 0.358-0.55 0.664-0.121-0.093-0.287-0.134-0.484-0.075-0.721 0.204-0.406 1.259 0.301 1.055-0.6 2.103-4.16 1.532-4.16 3.244z" fill="#FFD559"/>
			<path stroke-width=".0843" d="m114.64 60.689c0 0.797 0.486 0.969 0.818 0.969 0.699 0 0.735-0.991 0.105-1.092 0.218-0.867 3.316-0.562 3.888-3.055 3.575 0.172 5.21-2.775 4.906-6.046-2.662-1.503-2.092-4.45-1.331-6.046 0.54-1.137 1.502-1.142 1.881-0.879-0.74 0.273-0.329 1.354 0.4 1.087 0.285-0.105 0.457-0.342 0.457-0.608 0-0.723-0.529-1.482-1.674-1.293-1.502 0.246-2.396 1.845-2.396 4.164 0 2.016 0.722 3.156 1.94 3.955 0.036 2.929-1.18 4.716-3.978 5.046 0.607-0.119 0.561-1.09-0.13-1.09-0.427 0-0.609 0.358-0.55 0.664-0.121-0.093-0.287-0.134-0.484-0.075-0.721 0.204-0.406 1.259 0.301 1.055-0.6 2.103-4.16 1.532-4.16 3.244z" stroke="#000" fill="none"/>
			<path d="m124.33 37.641c0.971 0 1.484 1.541-0.132 1.541-0.92 0-1.14-1.541 0.13-1.541z" fill="#E03A3E"/>
			<path stroke-width=".0843" d="m124.33 37.641c0.971 0 1.484 1.541-0.132 1.541-0.92 0-1.14-1.541 0.13-1.541z" stroke="#000" fill="none"/>
			<path d="m122.37 36.977c0.989 0 1.235 1.674-0.039 1.674-1.12-0.001-1.02-1.674 0.04-1.674z" fill="#E03A3E"/>
			<path stroke-width=".0843" d="m122.37 36.977c0.989 0 1.235 1.674-0.039 1.674-1.12-0.001-1.02-1.674 0.04-1.674z" stroke="#000" fill="none"/>
			<path d="m123.55 38.192c-0.971 0-0.988-1.483-0.115-1.483 1.04 0 1.17 1.483 0.11 1.483z" fill="#E03A3E"/>
			<path stroke-width=".0843" d="m123.55 38.192c-0.971 0-0.988-1.483-0.115-1.483 1.04 0 1.17 1.483 0.11 1.483z" stroke="#000" fill="none"/>
			<path d="m122.2 40.475c-1.192 0.119-1.407-1.695-0.172-1.884 1.12-0.17 1.5 1.75 0.17 1.884z" fill="#E03A3E"/>
			<path stroke-width=".0843" d="m122.2 40.475c-1.192 0.119-1.407-1.695-0.172-1.884 1.12-0.17 1.5 1.75 0.17 1.884z" stroke="#000" fill="none"/>
			<path d="m102.95 37.641c-0.97 0-1.483 1.541 0.134 1.541 0.92 0 1.15-1.541-0.13-1.541z" fill="#E03A3E"/>
			<path stroke-width=".0843" d="m102.95 37.641c-0.97 0-1.483 1.541 0.134 1.541 0.92 0 1.15-1.541-0.13-1.541z" stroke="#000" fill="none"/>
			<path d="m104.91 36.977c-0.988 0-1.236 1.674 0.039 1.674 1.12-0.001 1.03-1.674-0.04-1.674z" fill="#E03A3E"/>
			<path stroke-width=".0843" d="m104.91 36.977c-0.988 0-1.236 1.674 0.039 1.674 1.12-0.001 1.03-1.674-0.04-1.674z" stroke="#000" fill="none"/>
			<path d="m103.73 38.192c0.97 0 0.989-1.483 0.114-1.483-1.04 0-1.17 1.483-0.11 1.483z" fill="#E03A3E"/>
			<path stroke-width=".0843" d="m103.73 38.192c0.97 0 0.989-1.483 0.114-1.483-1.04 0-1.17 1.483-0.11 1.483z" stroke="#000" fill="none"/>
			<path d="m105.14 40.437c1.192 0.12 1.406-1.694 0.171-1.884-1.12-0.17-1.5 1.751-0.17 1.884z" fill="#E03A3E"/>
			<path stroke-width=".0843" d="m105.14 40.437c1.192 0.12 1.406-1.694 0.171-1.884-1.12-0.17-1.5 1.751-0.17 1.884z" stroke="#000" fill="none"/>
			<path d="m123.65 37.765c0.457 0.134 0.232 0.695-0.072 0.815-0.305 0.121-0.42 0.244-0.447 0.371-0.131-0.313 0.061-0.521 0.018-0.707-0.08-0.346 0.12-0.591 0.5-0.479z" fill="#006"/>
			<path stroke-width=".0843" d="m123.65 37.765c0.457 0.134 0.232 0.695-0.072 0.815-0.305 0.121-0.42 0.244-0.447 0.371-0.131-0.313 0.061-0.521 0.018-0.707-0.08-0.346 0.12-0.591 0.5-0.479z" stroke="#000" fill="none"/>
			<path d="m124.42 38.668c0.336 0.263-0.01 1.036-0.873 0.57 0.208-0.086 0.342-0.229 0.359-0.409 0.02-0.179 0.25-0.37 0.51-0.161z" fill="#006"/>
			<path stroke-width=".0843" d="m124.42 38.668c0.336 0.263-0.01 1.036-0.873 0.57 0.208-0.086 0.342-0.229 0.359-0.409 0.02-0.179 0.25-0.37 0.51-0.161z" stroke="#000" fill="none"/>
			<path d="m122.21 39.723c0.037 0.34 0.629 0.256 0.742 0.133s0.266-0.389 0.457-0.418c-0.258-0.133-0.695-0.181-0.951-0.113-0.26 0.066-0.27 0.226-0.25 0.398z" fill="#006"/>
			<path stroke-width=".0843" d="m122.21 39.723c0.037 0.34 0.629 0.256 0.742 0.133s0.266-0.389 0.457-0.418c-0.258-0.133-0.695-0.181-0.951-0.113-0.26 0.066-0.27 0.226-0.25 0.398z" stroke="#000" fill="none"/>
			<path d="m122.71 38.789c0.067 0.002 0.142-0.02 0.228-0.074-0.333-0.143-0.02-0.656-0.484-0.676-0.467-0.019-0.447 0.506-0.285 0.543 0.18 0 0.39 0.08 0.53 0.207z" fill="#006"/>
			<path stroke-width=".0843" d="m122.71 38.789c0.067 0.002 0.142-0.02 0.228-0.074-0.333-0.143-0.02-0.656-0.484-0.676-0.467-0.019-0.447 0.506-0.285 0.543 0.18 0 0.39 0.08 0.53 0.207z" stroke="#000" fill="none"/>
			<path d="m103.66 37.823c-0.376 0.119-0.262 0.637 0.043 0.757 0.305 0.121 0.42 0.244 0.447 0.371 0.131-0.313-0.06-0.521-0.02-0.707 0.06-0.272-0.09-0.543-0.47-0.421z" fill="#006"/>
			<path stroke-width=".0843" d="m103.66 37.823c-0.376 0.119-0.262 0.637 0.043 0.757 0.305 0.121 0.42 0.244 0.447 0.371 0.131-0.313-0.06-0.521-0.02-0.707 0.06-0.272-0.09-0.543-0.47-0.421z" stroke="#000" fill="none"/>
			<path d="m102.86 38.668c-0.334 0.263 0.012 1.036 0.876 0.57-0.21-0.086-0.343-0.229-0.362-0.409-0.03-0.179-0.25-0.37-0.52-0.161z" fill="#006"/>
			<path stroke-width=".0843" d="m102.86 38.668c-0.334 0.263 0.012 1.036 0.876 0.57-0.21-0.086-0.343-0.229-0.362-0.409-0.03-0.179-0.25-0.37-0.52-0.161z" stroke="#000" fill="none"/>
			<path d="m105.13 39.685c-0.037 0.34-0.627 0.257-0.742 0.134-0.113-0.124-0.266-0.391-0.455-0.418 0.256-0.134 0.693-0.181 0.949-0.115 0.25 0.067 0.26 0.228 0.24 0.399z" fill="#006"/>
			<path stroke-width=".0843" d="m105.13 39.685c-0.037 0.34-0.627 0.257-0.742 0.134-0.113-0.124-0.266-0.391-0.455-0.418 0.256-0.134 0.693-0.181 0.949-0.115 0.25 0.067 0.26 0.228 0.24 0.399z" stroke="#000" fill="none"/>
			<path d="m105.11 38.545c0.162-0.039 0.182-0.524-0.284-0.506-0.466 0.02-0.152 0.533-0.485 0.676 0.098 0.062 0.18 0.077 0.256 0.063 0.11-0.096 0.28-0.225 0.51-0.233z" fill="#006"/>
			<path stroke-width=".0843" d="m105.11 38.545c0.162-0.039 0.182-0.524-0.284-0.506-0.466 0.02-0.152 0.533-0.485 0.676 0.098 0.062 0.18 0.077 0.256 0.063 0.11-0.096 0.28-0.225 0.51-0.233z" stroke="#000" fill="none"/>
			<path d="m124.55 59.527c0.551-0.531 1.055 0.135 0.941 0.933-0.258-0.085-0.344-0.561-0.704-0.437-0.03-0.171-0.1-0.38-0.24-0.496z" fill="#006"/>
			<path stroke-width=".0843" d="m124.55 59.527c0.551-0.531 1.055 0.135 0.941 0.933-0.258-0.085-0.344-0.561-0.704-0.437-0.03-0.171-0.1-0.38-0.24-0.496z" stroke="#000" fill="none"/>
			<path d="m124.21 60.275c0.233-0.222 0.681-0.019 0.715 0.444 0.034 0.464-0.237 0.835-0.62 0.84 0.28-0.629-0.68-0.728-0.09-1.284z" fill="#006"/>
			<path stroke-width=".0843" d="m124.21 60.275c0.233-0.222 0.681-0.019 0.715 0.444 0.034 0.464-0.237 0.835-0.62 0.84 0.28-0.629-0.68-0.728-0.09-1.284z" stroke="#000" fill="none"/>
			<path d="m122.95 60.869c0.609 0.036 0.751 0.932 0.039 1.303-0.105-0.666-0.367-0.546-0.41-0.761-0.06-0.285 0.05-0.561 0.37-0.542z" fill="#006"/>
			<path stroke-width=".0843" d="m122.95 60.869c0.609 0.036 0.751 0.932 0.039 1.303-0.105-0.666-0.367-0.546-0.41-0.761-0.06-0.285 0.05-0.561 0.37-0.542z" stroke="#000" fill="none"/>
			<path d="m120.61 61.089c-0.35 0.184-0.345 0.896 0.551 0.944-0.264-0.402-0.023-0.574-0.101-0.764-0.05-0.127-0.27-0.277-0.45-0.18z" fill="#006"/>
			<path stroke-width=".0843" d="m120.61 61.089c-0.35 0.184-0.345 0.896 0.551 0.944-0.264-0.402-0.023-0.574-0.101-0.764-0.05-0.127-0.27-0.277-0.45-0.18z" stroke="#000" fill="none"/>
			<path d="m102.74 59.527c-0.552-0.531-1.056 0.135-0.942 0.933 0.258-0.085 0.343-0.561 0.705-0.437 0.03-0.171 0.09-0.38 0.24-0.496z" fill="#006"/>
			<path stroke-width=".0843" d="m102.74 59.527c-0.552-0.531-1.056 0.135-0.942 0.933 0.258-0.085 0.343-0.561 0.705-0.437 0.03-0.171 0.09-0.38 0.24-0.496z" stroke="#000" fill="none"/>
			<path d="m103.01 60.336c-0.209-0.245-0.676-0.095-0.762 0.361-0.086 0.457 0.143 0.856 0.523 0.904-0.2-0.657 0.76-0.646 0.24-1.265z" fill="#006"/>
			<path stroke-width=".0843" d="m103.01 60.336c-0.209-0.245-0.676-0.095-0.762 0.361-0.086 0.457 0.143 0.856 0.523 0.904-0.2-0.657 0.76-0.646 0.24-1.265z" stroke="#000" fill="none"/>
			<path d="m104.18 60.831c-0.608 0.036-0.75 0.931-0.037 1.303 0.104-0.666 0.365-0.546 0.408-0.761 0.06-0.284-0.05-0.561-0.37-0.542z" fill="#006"/>
			<path stroke-width=".0843" d="m104.18 60.831c-0.608 0.036-0.75 0.931-0.037 1.303 0.104-0.666 0.365-0.546 0.408-0.761 0.06-0.284-0.05-0.561-0.37-0.542z" stroke="#000" fill="none"/>
			<path d="m106.81 61.068c0.367 0.146 0.437 0.855-0.447 0.999 0.219-0.429-0.038-0.573 0.02-0.771 0.04-0.132 0.24-0.303 0.43-0.228z" fill="#006"/>
			<path stroke-width=".0843" d="m106.81 61.068c0.367 0.146 0.437 0.855-0.447 0.999 0.219-0.429-0.038-0.573 0.02-0.771 0.04-0.132 0.24-0.303 0.43-0.228z" stroke="#000" fill="none"/>
</g>
</svg>
