<?xml version="1.0" encoding="UTF-8" standalone="no"?>
<!-- Generator: Adobe Illustrator 18.0.0, SVG Export Plug-In . SVG Version: 6.00 Build 0)  -->
<!DOCTYPE svg  PUBLIC '-//W3C//DTD SVG 1.1//EN'  'http://www.w3.org/Graphics/SVG/1.1/DTD/svg11.dtd'>
<svg style="enable-background:new 0 0 144 80" xmlns="http://www.w3.org/2000/svg" xml:space="preserve" version="1.1" y="0px" x="0px" xmlns:xlink="http://www.w3.org/1999/xlink" viewBox="0 0 144 80">
<g id="BOL">
			<polygon points="144 53.333 0 53.333 0 26.666 144 26.666" fill="#F7E214"/>
			<polygon points="144 26.666 0 26.666 0 0 144 0" fill="#D81E05"/>
			<polygon points="0 80 144 80 144 53.333 0 53.333" fill="#007A3D"/>
			<path d="m67.438 48.451c-0.488 0.541-0.859 0.886-0.516 1.083 0.271 0.154 0.439 0.4 0.529 0.67 0.084 0.249 0.322 0.334 0.465-0.064 0.117-0.323 1.33-2.373 1.715-2.748l-2.193 1.059z" fill="#5C5B3D"/>
			<path stroke-width=".0571" d="m67.438 48.451c-0.488 0.541-0.859 0.886-0.516 1.083 0.271 0.154 0.439 0.4 0.529 0.67 0.084 0.249 0.322 0.334 0.465-0.064 0.117-0.323 1.33-2.373 1.715-2.748l-2.193 1.059z" stroke="#000" fill="none"/>
			<path d="m66.505 48.361c-0.49 0.542-0.861 0.885-0.518 1.082 0.273 0.156 0.439 0.401 0.531 0.672 0.082 0.247 0.32 0.331 0.463-0.064 0.117-0.322 0.684-1.367 1.07-1.741l-1.546 0.051z" fill="#5C5B3D"/>
			<path stroke-width=".0571" d="m66.505 48.361c-0.49 0.542-0.861 0.885-0.518 1.082 0.273 0.156 0.439 0.401 0.531 0.672 0.082 0.247 0.32 0.331 0.463-0.064 0.117-0.322 0.684-1.367 1.07-1.741l-1.546 0.051z" stroke="#000" fill="none"/>
			<path d="m76.56 48.451c0.49 0.541 0.863 0.886 0.516 1.083-0.27 0.154-0.438 0.4-0.529 0.67-0.082 0.249-0.32 0.334-0.463-0.064-0.117-0.323-1.33-2.373-1.717-2.748l2.193 1.059z" fill="#5C5B3D"/>
			<path stroke-width=".0571" d="m76.56 48.451c0.49 0.541 0.863 0.886 0.516 1.083-0.27 0.154-0.438 0.4-0.529 0.67-0.082 0.249-0.32 0.334-0.463-0.064-0.117-0.323-1.33-2.373-1.717-2.748l2.193 1.059z" stroke="#000" fill="none"/>
			<path d="m77.495 48.361c0.49 0.542 0.861 0.885 0.516 1.082-0.271 0.156-0.439 0.401-0.529 0.672-0.082 0.247-0.322 0.331-0.465-0.064-0.115-0.322-0.682-1.367-1.07-1.741l1.548 0.051z" fill="#5C5B3D"/>
			<path stroke-width=".0571" d="m77.495 48.361c0.49 0.542 0.861 0.885 0.516 1.082-0.271 0.156-0.439 0.401-0.529 0.672-0.082 0.247-0.322 0.331-0.465-0.064-0.115-0.322-0.682-1.367-1.07-1.741l1.548 0.051z" stroke="#000" fill="none"/>
			<path d="m72.929 37.177c2.986-0.246 3.725-2.634 3.67-4.652 0.133 1.312-0.047 4.338-3.666 4.794" fill="#008248"/>
			<path stroke-width=".0571" d="m72.929 37.177c2.986-0.246 3.725-2.634 3.67-4.652 0.133 1.312-0.047 4.338-3.666 4.794" stroke="#000" fill="none"/>
			<path d="m76.614 32.731c0.041-0.281 0.029-0.65-0.15-0.79-0.18-0.139-0.168-0.021-0.146 0.166 0.055 0.43 0.301 0.602 0.285 0.762" fill="#008248"/>
			<path stroke-width=".0571" d="m76.614 32.731c0.041-0.281 0.029-0.65-0.15-0.79-0.18-0.139-0.168-0.021-0.146 0.166 0.055 0.43 0.301 0.602 0.285 0.762" stroke="#000" fill="none"/>
			<path d="m76.597 32.672c-0.006-0.361 0.164-0.856 0.297-0.996 0.129-0.142 0.201-0.164 0.195 0.166-0.014 0.703-0.471 0.793-0.48 0.954" fill="#008248"/>
			<path stroke-width=".0571" d="m76.597 32.672c-0.006-0.361 0.164-0.856 0.297-0.996 0.129-0.142 0.201-0.164 0.195 0.166-0.014 0.703-0.471 0.793-0.48 0.954" stroke="#000" fill="none"/>
			<path d="m76.593 33.215c0.021-0.263 0.055-0.581 0.434-0.711 0.258-0.09 0.264 0.052 0.166 0.247-0.123 0.251-0.549 0.247-0.59 0.639" fill="#008248"/>
			<path stroke-width=".0571" d="m76.593 33.215c0.021-0.263 0.055-0.581 0.434-0.711 0.258-0.09 0.264 0.052 0.166 0.247-0.123 0.251-0.549 0.247-0.59 0.639" stroke="#000" fill="none"/>
			<path d="m76.604 33.332c0.033-0.328-0.068-0.732-0.305-0.895-0.223-0.156-0.299-0.127-0.256 0.088 0.086 0.431 0.57 0.529 0.539 0.87" fill="#008248"/>
			<path stroke-width=".0571" d="m76.604 33.332c0.033-0.328-0.068-0.732-0.305-0.895-0.223-0.156-0.299-0.127-0.256 0.088 0.086 0.431 0.57 0.529 0.539 0.87" stroke="#000" fill="none"/>
			<path d="m76.556 33.665c0.027-0.27 0.223-0.536 0.455-0.543 0.234-0.007 0.33-0.032 0.211 0.187-0.158 0.287-0.609 0.127-0.643 0.403" fill="#008248"/>
			<path stroke-width=".0571" d="m76.556 33.665c0.027-0.27 0.223-0.536 0.455-0.543 0.234-0.007 0.33-0.032 0.211 0.187-0.158 0.287-0.609 0.127-0.643 0.403" stroke="#000" fill="none"/>
			<path d="m76.532 33.936c0.047-0.224-0.055-0.616-0.225-0.801-0.172-0.184-0.363-0.349-0.371-0.078-0.018 0.547 0.643 0.649 0.547 1.082" fill="#008248"/>
			<path stroke-width=".0571" d="m76.532 33.936c0.047-0.224-0.055-0.616-0.225-0.801-0.172-0.184-0.363-0.349-0.371-0.078-0.018 0.547 0.643 0.649 0.547 1.082" stroke="#000" fill="none"/>
			<path d="m76.448 34.272c0.107-0.497 0.391-0.708 0.641-0.694 0.227 0.014 0.217 0.084 0.096 0.245-0.119 0.162-0.598 0.063-0.727 0.547" fill="#008248"/>
			<path stroke-width=".0571" d="m76.448 34.272c0.107-0.497 0.391-0.708 0.641-0.694 0.227 0.014 0.217 0.084 0.096 0.245-0.119 0.162-0.598 0.063-0.727 0.547" stroke="#000" fill="none"/>
			<path d="m76.372 34.515c0.045-0.225-0.057-0.618-0.227-0.802-0.172-0.184-0.361-0.35-0.371-0.078-0.018 0.547 0.643 0.649 0.547 1.082" fill="#008248"/>
			<path stroke-width=".0571" d="m76.372 34.515c0.045-0.225-0.057-0.618-0.227-0.802-0.172-0.184-0.361-0.35-0.371-0.078-0.018 0.547 0.643 0.649 0.547 1.082" stroke="#000" fill="none"/>
			<path d="m76.38 34.584c0.088-0.211 0.393-0.48 0.637-0.536 0.244-0.058 0.496-0.087 0.352 0.142-0.293 0.466-0.896 0.178-1.061 0.591" fill="#008248"/>
			<path stroke-width=".0571" d="m76.38 34.584c0.088-0.211 0.393-0.48 0.637-0.536 0.244-0.058 0.496-0.087 0.352 0.142-0.293 0.466-0.896 0.178-1.061 0.591" stroke="#000" fill="none"/>
			<path d="m76.2 35.034c0.031-0.327-0.084-0.701-0.32-0.864-0.223-0.154-0.299-0.125-0.256 0.09 0.084 0.43 0.57 0.528 0.539 0.869" fill="#008248"/>
			<path stroke-width=".0571" d="m76.2 35.034c0.031-0.327-0.084-0.701-0.32-0.864-0.223-0.154-0.299-0.125-0.256 0.09 0.084 0.43 0.57 0.528 0.539 0.869" stroke="#000" fill="none"/>
			<path d="m76.185 35.086c0.197-0.265 0.533-0.463 0.818-0.423 0.27 0.035 0.305 0.107 0.129 0.237-0.354 0.262-0.779 0.008-0.984 0.279" fill="#008248"/>
			<path stroke-width=".0571" d="m76.185 35.086c0.197-0.265 0.533-0.463 0.818-0.423 0.27 0.035 0.305 0.107 0.129 0.237-0.354 0.262-0.779 0.008-0.984 0.279" stroke="#000" fill="none"/>
			<path d="m75.929 35.556c0.082-0.357-0.035-0.735-0.281-0.918-0.221-0.162-0.297-0.136-0.26 0.079 0.07 0.436 0.525 0.574 0.482 0.913" fill="#008248"/>
			<path stroke-width=".0571" d="m75.929 35.556c0.082-0.357-0.035-0.735-0.281-0.918-0.221-0.162-0.297-0.136-0.26 0.079 0.07 0.436 0.525 0.574 0.482 0.913" stroke="#000" fill="none"/>
			<path d="m75.862 35.636c0.199-0.307 0.596-0.458 0.924-0.4 0.268 0.046 0.303 0.118 0.121 0.242-0.361 0.25-0.844-0.014-1.059 0.252" fill="#008248"/>
			<path stroke-width=".0571" d="m75.862 35.636c0.199-0.307 0.596-0.458 0.924-0.4 0.268 0.046 0.303 0.118 0.121 0.242-0.361 0.25-0.844-0.014-1.059 0.252" stroke="#000" fill="none"/>
			<path d="m75.569 36.007c0.121-0.347 0.049-0.735-0.174-0.946-0.199-0.186-0.279-0.168-0.268 0.051 0.02 0.439 0.455 0.629 0.373 0.962" fill="#008248"/>
			<path stroke-width=".0571" d="m75.569 36.007c0.121-0.347 0.049-0.735-0.174-0.946-0.199-0.186-0.279-0.168-0.268 0.051 0.02 0.439 0.455 0.629 0.373 0.962" stroke="#000" fill="none"/>
			<path d="m75.493 36.078c0.234-0.282 0.645-0.387 0.965-0.292 0.26 0.078 0.285 0.152 0.092 0.255-0.387 0.206-0.836-0.112-1.078 0.128" fill="#008248"/>
			<path stroke-width=".0571" d="m75.493 36.078c0.234-0.282 0.645-0.387 0.965-0.292 0.26 0.078 0.285 0.152 0.092 0.255-0.387 0.206-0.836-0.112-1.078 0.128" stroke="#000" fill="none"/>
			<path d="m75.183 36.37c0.148-0.337 0.104-0.729-0.104-0.955-0.186-0.201-0.266-0.189-0.271 0.03-0.012 0.439 0.41 0.66 0.305 0.986" fill="#008248"/>
			<path stroke-width=".0571" d="m75.183 36.37c0.148-0.337 0.104-0.729-0.104-0.955-0.186-0.201-0.266-0.189-0.271 0.03-0.012 0.439 0.41 0.66 0.305 0.986" stroke="#000" fill="none"/>
			<path d="m75.103 36.437c0.256-0.265 0.67-0.339 0.982-0.222 0.254 0.097 0.275 0.174 0.074 0.263-0.402 0.177-0.826-0.175-1.084 0.049" fill="#008248"/>
			<path stroke-width=".0571" d="m75.103 36.437c0.256-0.265 0.67-0.339 0.982-0.222 0.254 0.097 0.275 0.174 0.074 0.263-0.402 0.177-0.826-0.175-1.084 0.049" stroke="#000" fill="none"/>
			<path d="m74.72 36.689c0.193-0.312 0.205-0.707 0.031-0.96-0.154-0.224-0.236-0.224-0.271-0.008-0.074 0.434 0.312 0.71 0.162 1.02" fill="#008248"/>
			<path stroke-width=".0571" d="m74.72 36.689c0.193-0.312 0.205-0.707 0.031-0.96-0.154-0.224-0.236-0.224-0.271-0.008-0.074 0.434 0.312 0.71 0.162 1.02" stroke="#000" fill="none"/>
			<path d="m74.604 36.757c0.281-0.234 0.703-0.264 1-0.112 0.242 0.124 0.254 0.202 0.045 0.269-0.42 0.132-0.803-0.263-1.084-0.07" fill="#008248"/>
			<path stroke-width=".0571" d="m74.604 36.757c0.281-0.234 0.703-0.264 1-0.112 0.242 0.124 0.254 0.202 0.045 0.269-0.42 0.132-0.803-0.263-1.084-0.07" stroke="#000" fill="none"/>
			<path d="m74.218 36.913c0.236-0.28 0.307-0.669 0.172-0.944-0.121-0.245-0.201-0.257-0.268-0.049-0.137 0.418 0.203 0.75 0.008 1.032" fill="#008248"/>
			<path stroke-width=".0571" d="m74.218 36.913c0.236-0.28 0.307-0.669 0.172-0.944-0.121-0.245-0.201-0.257-0.268-0.049-0.137 0.418 0.203 0.75 0.008 1.032" stroke="#000" fill="none"/>
			<path d="m74.091 36.963c0.314-0.19 0.734-0.156 1.006 0.038 0.223 0.157 0.223 0.237 0.006 0.271-0.434 0.068-0.754-0.379-1.062-0.23" fill="#008248"/>
			<path stroke-width=".0571" d="m74.091 36.963c0.314-0.19 0.734-0.156 1.006 0.038 0.223 0.157 0.223 0.237 0.006 0.271-0.434 0.068-0.754-0.379-1.062-0.23" stroke="#000" fill="none"/>
			<path d="m71.071 37.177c-2.984-0.246-3.727-2.634-3.672-4.652-0.131 1.312 0.049 4.338 3.666 4.794" fill="#008248"/>
			<path stroke-width=".0571" d="m71.071 37.177c-2.984-0.246-3.727-2.634-3.672-4.652-0.131 1.312 0.049 4.338 3.666 4.794" stroke="#000" fill="none"/>
			<path d="m67.386 32.731c-0.041-0.281-0.029-0.65 0.15-0.79 0.18-0.139 0.168-0.021 0.146 0.166-0.055 0.43-0.301 0.602-0.285 0.762" fill="#008248"/>
			<path stroke-width=".0571" d="m67.386 32.731c-0.041-0.281-0.029-0.65 0.15-0.79 0.18-0.139 0.168-0.021 0.146 0.166-0.055 0.43-0.301 0.602-0.285 0.762" stroke="#000" fill="none"/>
			<path d="m67.401 32.672c0.008-0.361-0.164-0.856-0.293-0.996-0.131-0.142-0.205-0.164-0.197 0.166 0.012 0.703 0.471 0.793 0.479 0.954" fill="#008248"/>
			<path stroke-width=".0571" d="m67.401 32.672c0.008-0.361-0.164-0.856-0.293-0.996-0.131-0.142-0.205-0.164-0.197 0.166 0.012 0.703 0.471 0.793 0.479 0.954" stroke="#000" fill="none"/>
			<path d="m67.407 33.215c-0.022-0.263-0.057-0.581-0.434-0.711-0.258-0.09-0.264 0.052-0.168 0.247 0.125 0.251 0.551 0.247 0.592 0.639" fill="#008248"/>
			<path stroke-width=".0571" d="m67.407 33.215c-0.022-0.263-0.057-0.581-0.434-0.711-0.258-0.09-0.264 0.052-0.168 0.247 0.125 0.251 0.551 0.247 0.592 0.639" stroke="#000" fill="none"/>
			<path d="m67.394 33.332c-0.031-0.328 0.07-0.732 0.307-0.895 0.223-0.156 0.299-0.127 0.256 0.088-0.086 0.431-0.57 0.529-0.539 0.87" fill="#008248"/>
			<path stroke-width=".0571" d="m67.394 33.332c-0.031-0.328 0.07-0.732 0.307-0.895 0.223-0.156 0.299-0.127 0.256 0.088-0.086 0.431-0.57 0.529-0.539 0.87" stroke="#000" fill="none"/>
			<path d="m67.444 33.665c-0.027-0.27-0.223-0.536-0.455-0.543-0.234-0.007-0.33-0.032-0.211 0.187 0.158 0.287 0.609 0.127 0.643 0.403" fill="#008248"/>
			<path stroke-width=".0571" d="m67.444 33.665c-0.027-0.27-0.223-0.536-0.455-0.543-0.234-0.007-0.33-0.032-0.211 0.187 0.158 0.287 0.609 0.127 0.643 0.403" stroke="#000" fill="none"/>
			<path d="m67.468 33.936c-0.047-0.224 0.055-0.616 0.225-0.801 0.172-0.184 0.363-0.349 0.371-0.078 0.018 0.547-0.643 0.649-0.547 1.082" fill="#008248"/>
			<path stroke-width=".0571" d="m67.468 33.936c-0.047-0.224 0.055-0.616 0.225-0.801 0.172-0.184 0.363-0.349 0.371-0.078 0.018 0.547-0.643 0.649-0.547 1.082" stroke="#000" fill="none"/>
			<path d="m67.55 34.272c-0.105-0.497-0.389-0.708-0.639-0.694-0.227 0.014-0.217 0.084-0.098 0.245 0.119 0.162 0.598 0.063 0.729 0.547" fill="#008248"/>
			<path stroke-width=".0571" d="m67.55 34.272c-0.105-0.497-0.389-0.708-0.639-0.694-0.227 0.014-0.217 0.084-0.098 0.245 0.119 0.162 0.598 0.063 0.729 0.547" stroke="#000" fill="none"/>
			<path d="m67.628 34.515c-0.045-0.225 0.057-0.618 0.227-0.802s0.361-0.35 0.371-0.078c0.018 0.547-0.643 0.649-0.547 1.082" fill="#008248"/>
			<path stroke-width=".0571" d="m67.628 34.515c-0.045-0.225 0.057-0.618 0.227-0.802s0.361-0.35 0.371-0.078c0.018 0.547-0.643 0.649-0.547 1.082" stroke="#000" fill="none"/>
			<path d="m67.62 34.584c-0.09-0.211-0.393-0.48-0.639-0.536-0.242-0.058-0.494-0.087-0.35 0.142 0.293 0.466 0.896 0.178 1.061 0.591" fill="#008248"/>
			<path stroke-width=".0571" d="m67.62 34.584c-0.09-0.211-0.393-0.48-0.639-0.536-0.242-0.058-0.494-0.087-0.35 0.142 0.293 0.466 0.896 0.178 1.061 0.591" stroke="#000" fill="none"/>
			<path d="m67.8 35.034c-0.031-0.327 0.084-0.701 0.32-0.864 0.223-0.154 0.299-0.125 0.256 0.09-0.086 0.43-0.572 0.528-0.539 0.869" fill="#008248"/>
			<path stroke-width=".0571" d="m67.8 35.034c-0.031-0.327 0.084-0.701 0.32-0.864 0.223-0.154 0.299-0.125 0.256 0.09-0.086 0.43-0.572 0.528-0.539 0.869" stroke="#000" fill="none"/>
			<path d="m67.815 35.086c-0.197-0.265-0.533-0.463-0.818-0.423-0.27 0.035-0.307 0.107-0.129 0.237 0.354 0.262 0.779 0.008 0.984 0.279" fill="#008248"/>
			<path stroke-width=".0571" d="m67.815 35.086c-0.197-0.265-0.533-0.463-0.818-0.423-0.27 0.035-0.307 0.107-0.129 0.237 0.354 0.262 0.779 0.008 0.984 0.279" stroke="#000" fill="none"/>
			<path d="m68.071 35.556c-0.082-0.357 0.035-0.735 0.283-0.918 0.217-0.162 0.295-0.136 0.258 0.079-0.07 0.436-0.525 0.574-0.482 0.913" fill="#008248"/>
			<path stroke-width=".0571" d="m68.071 35.556c-0.082-0.357 0.035-0.735 0.283-0.918 0.217-0.162 0.295-0.136 0.258 0.079-0.07 0.436-0.525 0.574-0.482 0.913" stroke="#000" fill="none"/>
			<path d="m68.138 35.636c-0.201-0.307-0.596-0.458-0.924-0.4-0.268 0.046-0.303 0.118-0.121 0.242 0.361 0.25 0.844-0.014 1.057 0.252" fill="#008248"/>
			<path stroke-width=".0571" d="m68.138 35.636c-0.201-0.307-0.596-0.458-0.924-0.4-0.268 0.046-0.303 0.118-0.121 0.242 0.361 0.25 0.844-0.014 1.057 0.252" stroke="#000" fill="none"/>
			<path d="m68.431 36.007c-0.123-0.347-0.049-0.735 0.176-0.946 0.197-0.186 0.277-0.168 0.266 0.051-0.021 0.439-0.457 0.629-0.373 0.962" fill="#008248"/>
			<path stroke-width=".0571" d="m68.431 36.007c-0.123-0.347-0.049-0.735 0.176-0.946 0.197-0.186 0.277-0.168 0.266 0.051-0.021 0.439-0.457 0.629-0.373 0.962" stroke="#000" fill="none"/>
			<path d="m68.507 36.078c-0.236-0.282-0.645-0.387-0.963-0.292-0.262 0.078-0.287 0.152-0.096 0.255 0.391 0.206 0.838-0.112 1.08 0.128" fill="#008248"/>
			<path stroke-width=".0571" d="m68.507 36.078c-0.236-0.282-0.645-0.387-0.963-0.292-0.262 0.078-0.287 0.152-0.096 0.255 0.391 0.206 0.838-0.112 1.08 0.128" stroke="#000" fill="none"/>
			<path d="m68.817 36.37c-0.148-0.337-0.104-0.729 0.104-0.955 0.186-0.201 0.266-0.189 0.271 0.03 0.01 0.439-0.41 0.66-0.305 0.986" fill="#008248"/>
			<path stroke-width=".0571" d="m68.817 36.37c-0.148-0.337-0.104-0.729 0.104-0.955 0.186-0.201 0.266-0.189 0.271 0.03 0.01 0.439-0.41 0.66-0.305 0.986" stroke="#000" fill="none"/>
			<path d="m68.897 36.437c-0.256-0.265-0.67-0.339-0.982-0.222-0.254 0.097-0.275 0.174-0.076 0.263 0.404 0.177 0.828-0.175 1.088 0.049" fill="#008248"/>
			<path stroke-width=".0571" d="m68.897 36.437c-0.256-0.265-0.67-0.339-0.982-0.222-0.254 0.097-0.275 0.174-0.076 0.263 0.404 0.177 0.828-0.175 1.088 0.049" stroke="#000" fill="none"/>
			<path d="m69.28 36.689c-0.195-0.312-0.205-0.707-0.031-0.96 0.156-0.224 0.236-0.224 0.271-0.008 0.072 0.434-0.312 0.71-0.162 1.02" fill="#008248"/>
			<path stroke-width=".0571" d="m69.28 36.689c-0.195-0.312-0.205-0.707-0.031-0.96 0.156-0.224 0.236-0.224 0.271-0.008 0.072 0.434-0.312 0.71-0.162 1.02" stroke="#000" fill="none"/>
			<path d="m69.397 36.757c-0.283-0.234-0.705-0.264-1.002-0.112-0.242 0.124-0.254 0.202-0.045 0.269 0.42 0.132 0.803-0.263 1.084-0.07" fill="#008248"/>
			<path stroke-width=".0571" d="m69.397 36.757c-0.283-0.234-0.705-0.264-1.002-0.112-0.242 0.124-0.254 0.202-0.045 0.269 0.42 0.132 0.803-0.263 1.084-0.07" stroke="#000" fill="none"/>
			<path d="m69.782 36.913c-0.238-0.28-0.307-0.669-0.172-0.944 0.119-0.245 0.199-0.257 0.268-0.049 0.137 0.418-0.205 0.75-0.01 1.032" fill="#008248"/>
			<path stroke-width=".0571" d="m69.782 36.913c-0.238-0.28-0.307-0.669-0.172-0.944 0.119-0.245 0.199-0.257 0.268-0.049 0.137 0.418-0.205 0.75-0.01 1.032" stroke="#000" fill="none"/>
			<path d="m69.909 36.963c-0.314-0.19-0.736-0.156-1.006 0.038-0.223 0.157-0.223 0.237-0.006 0.271 0.434 0.068 0.754-0.379 1.062-0.23" fill="#008248"/>
			<path stroke-width=".0571" d="m69.909 36.963c-0.314-0.19-0.736-0.156-1.006 0.038-0.223 0.157-0.223 0.237-0.006 0.271 0.434 0.068 0.754-0.379 1.062-0.23" stroke="#000" fill="none"/>
			<polygon points="75.657 39.256 81.501 34.799 81.331 34.629 75.55 39.033" fill="#5C5B3D"/>
			<polygon stroke-width=".0571" points="75.657 39.256 81.501 34.799 81.331 34.629 75.55 39.033" stroke="#000" fill="none"/>
			<polygon points="75.192 38.523 80.024 33.16 79.825 33.023 75.046 38.327" fill="#5C5B3D"/>
			<polygon stroke-width=".0571" points="75.192 38.523 80.024 33.16 79.825 33.023 75.046 38.327" stroke="#000" fill="none"/>
			<polygon points="75.979 40.117 82.761 36.937 82.63 36.733 75.923 39.875" fill="#5C5B3D"/>
			<polygon stroke-width=".0571" points="75.979 40.117 82.761 36.937 82.63 36.733 75.923 39.875" stroke="#000" fill="none"/>
			<polygon points="68.343 39.256 62.499 34.799 62.669 34.629 68.45 39.033" fill="#5C5B3D"/>
			<polygon stroke-width=".0571" points="68.343 39.256 62.499 34.799 62.669 34.629 68.45 39.033" stroke="#000" fill="none"/>
			<polygon points="68.808 38.523 63.976 33.16 64.175 33.023 68.954 38.327" fill="#5C5B3D"/>
			<polygon stroke-width=".0571" points="68.808 38.523 63.976 33.16 64.175 33.023 68.954 38.327" stroke="#000" fill="none"/>
			<polygon points="68.022 40.117 61.239 36.937 61.37 36.733 68.077 39.875" fill="#5C5B3D"/>
			<polygon stroke-width=".0571" points="68.022 40.117 61.239 36.937 61.37 36.733 68.077 39.875" stroke="#000" fill="none"/>
			<path d="m81.042 34.994c0.084 0.106 0.16 0.255 0.24 0.193 0.082-0.062-0.039-0.177-0.119-0.286-0.078-0.108-0.162-0.253-0.244-0.191-0.08 0.061 0.039 0.178 0.123 0.284z" fill="#fff"/>
			<path stroke-width=".0571" d="m81.042 34.994c0.084 0.106 0.16 0.255 0.24 0.193 0.082-0.062-0.039-0.177-0.119-0.286-0.078-0.108-0.162-0.253-0.244-0.191-0.08 0.061 0.039 0.178 0.123 0.284z" stroke="#000" fill="none"/>
			<path d="m79.608 33.438c0.104 0.09 0.205 0.221 0.273 0.146 0.068-0.076-0.072-0.168-0.17-0.26-0.1-0.093-0.207-0.218-0.275-0.144-0.068 0.076 0.071 0.169 0.172 0.258z" fill="#fff"/>
			<path stroke-width=".0571" d="m79.608 33.438c0.104 0.09 0.205 0.221 0.273 0.146 0.068-0.076-0.072-0.168-0.17-0.26-0.1-0.093-0.207-0.218-0.275-0.144-0.068 0.076 0.071 0.169 0.172 0.258z" stroke="#000" fill="none"/>
			<path d="m82.271 37.029c0.061 0.122 0.102 0.284 0.195 0.24 0.09-0.042-0.002-0.181-0.057-0.305-0.057-0.124-0.108-0.281-0.197-0.239-0.094 0.045 0 0.183 0.059 0.304z" fill="#fff"/>
			<path stroke-width=".0571" d="m82.271 37.029c0.061 0.122 0.102 0.284 0.195 0.24 0.09-0.042-0.002-0.181-0.057-0.305-0.057-0.124-0.108-0.281-0.197-0.239-0.094 0.045 0 0.183 0.059 0.304z" stroke="#000" fill="none"/>
			<polygon points="81.28 34.824 81.833 34.948 83.126 33.41 81.306 34.258" fill="#fff"/>
			<polygon stroke-width=".0571" points="81.28 34.824 81.833 34.948 83.126 33.41 81.306 34.258" stroke="#000" fill="none"/>
			<polygon points="79.81 33.227 80.378 33.246 81.364 31.496 79.731 32.665" fill="#fff"/>
			<polygon stroke-width=".0571" points="79.81 33.227 80.378 33.246 81.364 31.496 79.731 32.665" stroke="#000" fill="none"/>
			<polygon points="82.538 36.914 83.054 37.15 84.642 35.923 82.683 36.366" fill="#fff"/>
			<polygon stroke-width=".0571" points="82.538 36.914 83.054 37.15 84.642 35.923 82.683 36.366" stroke="#000" fill="none"/>
			<path d="m62.958 34.994c-0.084 0.106-0.16 0.255-0.242 0.193-0.078-0.062 0.039-0.177 0.121-0.286 0.08-0.108 0.162-0.253 0.242-0.191 0.082 0.061-0.037 0.178-0.121 0.284z" fill="#fff"/>
			<path stroke-width=".0571" d="m62.958 34.994c-0.084 0.106-0.16 0.255-0.242 0.193-0.078-0.062 0.039-0.177 0.121-0.286 0.08-0.108 0.162-0.253 0.242-0.191 0.082 0.061-0.037 0.178-0.121 0.284z" stroke="#000" fill="none"/>
			<path d="m64.39 33.438c-0.1 0.09-0.203 0.221-0.271 0.146-0.068-0.076 0.072-0.168 0.172-0.26 0.098-0.093 0.205-0.218 0.273-0.144 0.068 0.076-0.071 0.169-0.174 0.258z" fill="#fff"/>
			<path stroke-width=".0571" d="m64.39 33.438c-0.1 0.09-0.203 0.221-0.271 0.146-0.068-0.076 0.072-0.168 0.172-0.26 0.098-0.093 0.205-0.218 0.273-0.144 0.068 0.076-0.071 0.169-0.174 0.258z" stroke="#000" fill="none"/>
			<path d="m61.729 37.029c-0.061 0.122-0.104 0.284-0.195 0.24-0.092-0.042 0.002-0.181 0.057-0.305s0.105-0.281 0.197-0.239c0.092 0.045 0 0.183-0.059 0.304z" fill="#fff"/>
			<path stroke-width=".0571" d="m61.729 37.029c-0.061 0.122-0.104 0.284-0.195 0.24-0.092-0.042 0.002-0.181 0.057-0.305s0.105-0.281 0.197-0.239c0.092 0.045 0 0.183-0.059 0.304z" stroke="#000" fill="none"/>
			<polygon points="62.72 34.824 62.167 34.948 60.874 33.41 62.694 34.258" fill="#fff"/>
			<polygon stroke-width=".0571" points="62.72 34.824 62.167 34.948 60.874 33.41 62.694 34.258" stroke="#000" fill="none"/>
			<polygon points="64.188 33.227 63.622 33.246 62.638 31.496 64.269 32.665" fill="#fff"/>
			<polygon stroke-width=".0571" points="64.188 33.227 63.622 33.246 62.638 31.496 64.269 32.665" stroke="#000" fill="none"/>
			<polygon points="61.462 36.914 60.946 37.15 59.358 35.923 61.317 36.366" fill="#fff"/>
			<path stroke-width=".0571" d="m61.462 36.914l-0.516 0.236-1.588-1.227 1.959 0.443 0.145 0.548zm21.664-3.504l-1.846 1.414m0.084-3.328l-1.555 1.731m4.833 2.696l-2.104 0.991m-21.664-3.504l1.846 1.414m-0.082-3.328l1.551 1.731m-4.831 2.696l2.104 0.991" stroke="#000" fill="none"/>
			<polygon points="73.835 38.771 77.31 33.907 77.731 33.817 78.784 31.788 77.343 33.568 77.062 33.639 73.585 38.503" fill="#fff"/>
			<polygon stroke-width=".0571" points="73.835 38.771 77.31 33.907 77.731 33.817 78.784 31.788 77.343 33.568 77.062 33.639 73.585 38.503" stroke="#000" fill="none"/>
			<polygon points="74.259 39.366 77.733 34.502 78.155 34.412 79.206 32.383 77.765 34.163 77.485 34.232 74.009 39.099" fill="#fff"/>
			<polygon stroke-width=".0571" points="74.259 39.366 77.733 34.502 78.155 34.412 79.206 32.383 77.765 34.163 77.485 34.232 74.009 39.099" stroke="#000" fill="none"/>
			<polygon points="70.167 38.771 66.688 33.907 66.269 33.817 65.218 31.788 66.659 33.568 66.938 33.639 70.415 38.503" fill="#fff"/>
			<polygon stroke-width=".0571" points="70.167 38.771 66.688 33.907 66.269 33.817 65.218 31.788 66.659 33.568 66.938 33.639 70.415 38.503" stroke="#000" fill="none"/>
			<polygon points="69.741 39.366 66.265 34.502 65.845 34.412 64.792 32.383 66.235 34.163 66.515 34.232 69.991 39.099" fill="#fff"/>
			<polygon stroke-width=".0571" points="69.741 39.366 66.265 34.502 65.845 34.412 64.792 32.383 66.235 34.163 66.515 34.232 69.991 39.099" stroke="#000" fill="none"/>
			<path d="m70.687 47.523v1.837c0-0.212-0.691 0.033-0.904 0.161v-2.488c0.257 0.205 0.712 0.399 0.904 0.49z" fill="#008248"/>
			<path stroke-width=".0571" d="m70.687 47.523v1.837c0-0.212-0.691 0.033-0.904 0.161v-2.488c0.257 0.205 0.712 0.399 0.904 0.49z" stroke="#000" fill="none"/>
			<path d="m73.312 47.523v1.837c0-0.212 0.695 0.033 0.906 0.161v-2.488c-0.258 0.205-0.713 0.399-0.906 0.49z" fill="#008248"/>
			<path stroke-width=".0571" d="m73.312 47.523v1.837c0-0.212 0.695 0.033 0.906 0.161v-2.488c-0.258 0.205-0.713 0.399-0.906 0.49z" stroke="#000" fill="none"/>
			<path d="m71.157 47.702v2.184c0 0.068-0.045 0.142-0.201 0.21-0.139 0.061-0.162 0.115-0.162 0.237v-0.493c-0.023 0.01-0.045 0.021-0.068 0.03-0.174 0.071-0.438 0.128-0.438 0 0-0.259-0.002-0.545-0.002-0.545 0.211-0.058 0.4-0.076 0.4 0.035v-1.837c0.114 0.049 0.34 0.155 0.471 0.179z" fill="#FFE01B"/>
			<path stroke-width=".0571" d="m71.157 47.702v2.184c0 0.068-0.045 0.142-0.201 0.21-0.139 0.061-0.162 0.115-0.162 0.237v-0.493c-0.023 0.01-0.045 0.021-0.068 0.03-0.174 0.071-0.438 0.128-0.438 0 0-0.259-0.002-0.545-0.002-0.545 0.211-0.058 0.4-0.076 0.4 0.035v-1.837c0.114 0.049 0.34 0.155 0.471 0.179z" stroke="#000" fill="none"/>
			<path d="m71.761 47.754v2.677c-0.148-0.07-0.373-0.039-0.516 0.014-0.322 0.116-0.451 0.006-0.451-0.111 0-0.122 0.023-0.177 0.162-0.237 0.156-0.068 0.201-0.142 0.201-0.21v-2.337c0.133 0.062 0.508 0.191 0.604 0.204z" fill="#E03A3E"/>
			<path stroke-width=".0571" d="m71.761 47.754v2.677c-0.148-0.07-0.373-0.039-0.516 0.014-0.322 0.116-0.451 0.006-0.451-0.111 0-0.122 0.023-0.177 0.162-0.237 0.156-0.068 0.201-0.142 0.201-0.21v-2.337c0.133 0.062 0.508 0.191 0.604 0.204zm-1.074 1.606c0 0.101-0.004 0.174-0.188 0.264-0.178 0.089-0.211 0.13-0.211 0.246m0.506-0.03c0.199-0.081 0.363-0.125 0.363 0.046" stroke="#000" fill="none"/>
			<path d="m72.843 47.702v2.184c0 0.068 0.045 0.142 0.199 0.21 0.143 0.061 0.164 0.115 0.164 0.237v-0.493c0.021 0.01 0.045 0.021 0.068 0.03 0.174 0.071 0.438 0.128 0.438 0 0-0.259 0.002-0.545 0.002-0.545-0.211-0.058-0.402-0.076-0.402 0.035v-1.837c-0.114 0.049-0.338 0.155-0.469 0.179z" fill="#FFE01B"/>
			<path stroke-width=".0571" d="m72.843 47.702v2.184c0 0.068 0.045 0.142 0.199 0.21 0.143 0.061 0.164 0.115 0.164 0.237v-0.493c0.021 0.01 0.045 0.021 0.068 0.03 0.174 0.071 0.438 0.128 0.438 0 0-0.259 0.002-0.545 0.002-0.545-0.211-0.058-0.402-0.076-0.402 0.035v-1.837c-0.114 0.049-0.338 0.155-0.469 0.179z" stroke="#000" fill="none"/>
			<path d="m72.239 47.754v2.677c0.149-0.07 0.373-0.039 0.516 0.014 0.32 0.116 0.451 0.006 0.451-0.111 0-0.122-0.021-0.177-0.164-0.237-0.154-0.068-0.199-0.142-0.199-0.21v-2.337c-0.135 0.062-0.508 0.191-0.604 0.204z" fill="#E03A3E"/>
			<path stroke-width=".0571" d="m72.239 47.754v2.677c0.149-0.07 0.373-0.039 0.516 0.014 0.32 0.116 0.451 0.006 0.451-0.111 0-0.122-0.021-0.177-0.164-0.237-0.154-0.068-0.199-0.142-0.199-0.21v-2.337c-0.135 0.062-0.508 0.191-0.604 0.204zm1.073 1.606c0 0.101 0.004 0.174 0.189 0.264 0.178 0.089 0.211 0.13 0.211 0.246m-0.506-0.03c-0.201-0.081-0.363-0.125-0.363 0.046" stroke="#000" fill="none"/>
			<path d="m72.239 47.754v2.206c-0.053-0.035-0.162-0.054-0.24-0.054-0.076 0-0.188 0.019-0.238 0.054v-2.206h0.478z" fill="#fff"/>
			<path stroke-width=".0571" d="m72.239 47.754v2.206c-0.053-0.035-0.162-0.054-0.24-0.054-0.076 0-0.188 0.019-0.238 0.054v-2.206h0.478z" stroke="#000" fill="none"/>
			<path d="m73.315 45.549c1.703 1.6 5.908 2.322 5.908-2.012v-7.303l-1.729 1.316v5.316c0.001 1.805-1.159 3.587-4.179 2.683z" fill="#FFE01B"/>
			<path stroke-width=".0571" d="m73.315 45.549c1.703 1.6 5.908 2.322 5.908-2.012v-7.303l-1.729 1.316v5.316c0.001 1.805-1.159 3.587-4.179 2.683z" stroke="#000" fill="none"/>
			<path d="m79.224 36.234v7.303c0 4.334-4.205 3.611-5.908 2.012 5.107 4.85 7.637 1.031 7.637-1.909v-8.72l-1.729 1.314z" fill="#E03A3E"/>
			<path stroke-width=".0571" d="m79.224 36.234v7.303c0 4.334-4.205 3.611-5.908 2.012 5.107 4.85 7.637 1.031 7.637-1.909v-8.72l-1.729 1.314z" stroke="#000" fill="none"/>
			<path d="m73.315 45.549c3.02 0.904 4.18-0.878 4.18-2.682v-5.316l-1.787 1.363c0 2.543 0.238 7.099-2.393 6.635z" fill="#008248"/>
			<path stroke-width=".0571" d="m73.315 45.549c3.02 0.904 4.18-0.878 4.18-2.682v-5.316l-1.787 1.363c0 2.543 0.238 7.099-2.393 6.635z" stroke="#000" fill="none"/>
			<path d="m82.187 36.938v7.578c0 3.459-4.744 6.913-9.541 1.343l0.67-0.311c5.107 4.85 7.637 1.031 7.637-1.909v-6.12l1.234-0.581z" fill="#E03A3E"/>
			<path stroke-width=".0571" d="m82.187 36.938v7.578c0 3.459-4.744 6.913-9.541 1.343l0.67-0.311c5.107 4.85 7.637 1.031 7.637-1.909v-6.12l1.234-0.581z" stroke="#000" fill="none"/>
			<path d="m70.683 45.549c-1.701 1.6-5.906 2.322-5.906-2.012v-7.303l1.729 1.316v5.316c-0.001 1.805 1.159 3.587 4.177 2.683z" fill="#FFE01B"/>
			<path stroke-width=".0571" d="m70.683 45.549c-1.701 1.6-5.906 2.322-5.906-2.012v-7.303l1.729 1.316v5.316c-0.001 1.805 1.159 3.587 4.177 2.683z" stroke="#000" fill="none"/>
			<path d="m64.776 36.234v7.303c0 4.334 4.205 3.611 5.906 2.012-5.105 4.85-7.637 1.031-7.637-1.909v-8.72l1.731 1.314z" fill="#E03A3E"/>
			<path stroke-width=".0571" d="m64.776 36.234v7.303c0 4.334 4.205 3.611 5.906 2.012-5.105 4.85-7.637 1.031-7.637-1.909v-8.72l1.731 1.314z" stroke="#000" fill="none"/>
			<path d="m70.683 45.549c-3.018 0.904-4.178-0.878-4.178-2.682v-5.316l1.787 1.363c0 2.543-0.24 7.099 2.391 6.635z" fill="#008248"/>
			<path stroke-width=".0571" d="m70.683 45.549c-3.018 0.904-4.178-0.878-4.178-2.682v-5.316l1.787 1.363c0 2.543-0.24 7.099 2.391 6.635z" stroke="#000" fill="none"/>
			<path d="m61.813 36.938v7.578c0 3.459 4.742 6.913 9.541 1.343l-0.672-0.311c-5.105 4.85-7.637 1.031-7.637-1.909v-6.12l-1.232-0.581z" fill="#E03A3E"/>
			<path stroke-width=".0571" d="m61.813 36.938v7.578c0 3.459 4.742 6.913 9.541 1.343l-0.672-0.311c-5.105 4.85-7.637 1.031-7.637-1.909v-6.12l-1.232-0.581z" stroke="#000" fill="none"/>
			<polygon points="79.522 33.361 79.522 36.012 78.358 36.894 78.358 34.646" fill="#E03A3E"/>
			<polygon stroke-width=".0571" points="79.522 33.361 79.522 36.012 78.358 36.894 78.358 34.646" stroke="#000" fill="none"/>
			<polygon points="78.358 34.646 76.731 36.454 76.731 38.133 78.358 36.894" fill="#FFE01B"/>
			<polygon stroke-width=".0571" points="78.358 34.646 76.731 36.454 76.731 38.133 78.358 36.894" stroke="#000" fill="none"/>
			<polygon points="76.731 36.454 75.374 37.961 75.374 39.164 76.731 38.133" fill="#008248"/>
			<polygon stroke-width=".0571" points="76.731 36.454 75.374 37.961 75.374 39.164 76.731 38.133" stroke="#000" fill="none"/>
			<polygon points="64.478 33.361 64.478 36.012 65.64 36.894 65.64 34.646" fill="#E03A3E"/>
			<polygon stroke-width=".0571" points="64.478 33.361 64.478 36.012 65.64 36.894 65.64 34.646" stroke="#000" fill="none"/>
			<polygon points="65.64 34.646 67.269 36.454 67.269 38.133 65.64 36.894" fill="#FFE01B"/>
			<polygon stroke-width=".0571" points="65.64 34.646 67.269 36.454 67.269 38.133 65.64 36.894" stroke="#000" fill="none"/>
			<polygon points="67.269 36.454 68.628 37.961 68.628 39.164 67.269 38.133" fill="#008248"/>
			<polygon stroke-width=".0571" points="67.269 36.454 68.628 37.961 68.628 39.164 67.269 38.133" stroke="#000" fill="none"/>
			<path d="m68.319 35.1c0.09 0.109-0.094 0.411-0.414 0.674-0.318 0.265-0.637 0.382-0.738 0.282-0.365-0.362-0.443-0.931-0.352-1.329 0.088-0.4 0.359-0.658 0.643-0.58 0.285 0.077 0.299 0.335 0.271 0.49 0.233 0.09 0.456 0.283 0.59 0.463z" fill="#E03A3E"/>
			<path stroke-width=".0571" d="m68.319 35.1c0.09 0.109-0.094 0.411-0.414 0.674-0.318 0.265-0.637 0.382-0.738 0.282-0.365-0.362-0.443-0.931-0.352-1.329 0.088-0.4 0.359-0.658 0.643-0.58 0.285 0.077 0.299 0.335 0.271 0.49 0.233 0.09 0.456 0.283 0.59 0.463zm-0.22-0.233c0.096 0.252-0.336 0.607-0.646 0.802m0.276-1.032c-0.096-0.039-0.334-0.039-0.424 0.07" stroke="#000" fill="none"/>
			<path d="m75.638 35.926l1.303-1.716c0.154-0.187 0.424 0.062 0.301 0.235l-1.305 1.715" fill="#fff"/>
			<path stroke-width=".0571" d="m75.638 35.926l1.303-1.716c0.154-0.187 0.424 0.062 0.301 0.235l-1.305 1.715" stroke="#000" fill="none"/>
			<path d="m76.587 35.306c0.363 0.273 0.873 0.701 0.953 1.334 0.297-0.126 0.57-0.386 0.766-0.643 0.195-0.259 0.383-0.541 0.414-0.911-0.633 0.092-1.18-0.285-1.541-0.561l-0.592 0.781z" fill="#fff"/>
			<path stroke-width=".0571" d="m76.587 35.306c0.363 0.273 0.873 0.701 0.953 1.334 0.297-0.126 0.57-0.386 0.766-0.643 0.195-0.259 0.383-0.541 0.414-0.911-0.633 0.092-1.18-0.285-1.541-0.561l-0.592 0.781z" stroke="#000" fill="none"/>
			<path d="m67.665 47.561l8.791-10.97-1.301-1.062-9.076 10.65c0.221 0.44 0.84 1.175 1.586 1.382z" fill="#FFE01B"/>
			<path stroke-width=".0571" d="m67.665 47.561l8.791-10.97-1.301-1.062-9.076 10.65c0.221 0.44 0.84 1.175 1.586 1.382z" stroke="#000" fill="none"/>
			<path d="m74.89 37.165c0.324 0.27 0.658 0.36 0.832 0.345 0.146-0.015 0.264-0.18 0.215-0.271-0.072 0.092-0.398 0.115-0.875-0.276-0.477-0.394-0.51-0.72-0.434-0.807-0.1-0.032-0.244 0.122-0.232 0.271 0.017 0.173 0.169 0.469 0.494 0.738z" fill="#FFE01B"/>
			<path stroke-width=".0571" d="m74.89 37.165c0.324 0.27 0.658 0.36 0.832 0.345 0.146-0.015 0.264-0.18 0.215-0.271-0.072 0.092-0.398 0.115-0.875-0.276-0.477-0.394-0.51-0.72-0.434-0.807-0.1-0.032-0.244 0.122-0.232 0.271 0.017 0.173 0.169 0.469 0.494 0.738z" stroke="#000" fill="none"/>
			<path d="m67.696 45.867c0.391 0.325 0.791 0.435 1 0.415 0.178-0.017 0.32-0.217 0.26-0.327-0.086 0.11-0.48 0.141-1.055-0.333-0.574-0.476-0.615-0.868-0.521-0.974-0.123-0.038-0.297 0.148-0.281 0.327 0.019 0.211 0.205 0.566 0.597 0.892z" fill="#FFE01B"/>
			<path stroke-width=".0571" d="m67.696 45.867c0.391 0.325 0.791 0.435 1 0.415 0.178-0.017 0.32-0.217 0.26-0.327-0.086 0.11-0.48 0.141-1.055-0.333-0.574-0.476-0.615-0.868-0.521-0.974-0.123-0.038-0.297 0.148-0.281 0.327 0.019 0.211 0.205 0.566 0.597 0.892z" stroke="#000" fill="none"/>
			<path d="m66.323 47.203c-0.326-0.049-0.598 0.391-0.269 0.663 0.33 0.274 0.715-0.081 0.598-0.396" fill="#FFE01B"/>
			<path stroke-width=".0571" d="m66.323 47.203c-0.326-0.049-0.598 0.391-0.269 0.663 0.33 0.274 0.715-0.081 0.598-0.396" stroke="#000" fill="none"/>
			<polyline points="66.587 47.551 66.87 47.206 66.54 46.941 66.241 47.307" fill="#FFE01B"/>
			<polyline stroke-width=".0571" points="66.587 47.551 66.87 47.206 66.54 46.941 66.241 47.307" stroke="#000" fill="none"/>
			<path d="m66.606 47.187c0.398 0.333 0.809 0.444 1.021 0.424 0.184-0.019 0.328-0.22 0.266-0.333-0.088 0.113-0.492 0.142-1.076-0.342-0.588-0.484-0.631-0.887-0.535-0.994-0.123-0.039-0.303 0.152-0.285 0.335 0.02 0.213 0.207 0.577 0.609 0.91z" fill="#FFE01B"/>
			<path stroke-width=".0571" d="m66.606 47.187c0.398 0.333 0.809 0.444 1.021 0.424 0.184-0.019 0.328-0.22 0.266-0.333-0.088 0.113-0.492 0.142-1.076-0.342-0.588-0.484-0.631-0.887-0.535-0.994-0.123-0.039-0.303 0.152-0.285 0.335 0.02 0.213 0.207 0.577 0.609 0.91z" stroke="#000" fill="none"/>
			<path d="m75.575 36.344c0.359 0.291 0.754 0.402 0.881 0.247 0.129-0.156-0.061-0.521-0.418-0.813-0.359-0.293-0.754-0.404-0.883-0.248-0.127 0.156 0.061 0.521 0.42 0.814z" fill="#FFE01B"/>
			<path stroke-width=".0571" d="m75.575 36.344c0.359 0.291 0.754 0.402 0.881 0.247 0.129-0.156-0.061-0.521-0.418-0.813-0.359-0.293-0.754-0.404-0.883-0.248-0.127 0.156 0.061 0.521 0.42 0.814z" stroke="#000" fill="none"/>
			<path d="m75.806 36.061" fill="#FFE01B"/>
			<path stroke-width=".0571" d="m75.806 36.061" stroke="#000" fill="none"/>
			<path d="m75.659 36.225c0.217 0.188 0.463 0.271 0.551 0.183 0.088-0.087-0.018-0.311-0.236-0.499-0.219-0.189-0.465-0.271-0.553-0.183-0.088 0.086 0.019 0.31 0.238 0.499z"/>
			<path d="m75.815 36.066"/>
			<path d="m76.335 47.561l-8.791-10.97 1.299-1.062 9.078 10.65c-0.219 0.44-0.84 1.175-1.586 1.382z" fill="#FFE01B"/>
			<path stroke-width=".0571" d="m76.335 47.561l-8.791-10.97 1.299-1.062 9.078 10.65c-0.219 0.44-0.84 1.175-1.586 1.382z" stroke="#000" fill="none"/>
			<path d="m69.108 37.165c-0.324 0.27-0.656 0.36-0.83 0.345-0.148-0.015-0.266-0.18-0.215-0.271 0.07 0.092 0.398 0.115 0.875-0.276 0.477-0.394 0.512-0.72 0.434-0.807 0.1-0.032 0.244 0.122 0.232 0.271-0.017 0.173-0.169 0.469-0.496 0.738z" fill="#FFE01B"/>
			<path stroke-width=".0571" d="m69.108 37.165c-0.324 0.27-0.656 0.36-0.83 0.345-0.148-0.015-0.266-0.18-0.215-0.271 0.07 0.092 0.398 0.115 0.875-0.276 0.477-0.394 0.512-0.72 0.434-0.807 0.1-0.032 0.244 0.122 0.232 0.271-0.017 0.173-0.169 0.469-0.496 0.738z" stroke="#000" fill="none"/>
			<path d="m76.306 45.867c-0.393 0.325-0.793 0.435-1.002 0.415-0.18-0.017-0.32-0.217-0.26-0.327 0.086 0.11 0.48 0.141 1.055-0.333 0.574-0.476 0.615-0.868 0.523-0.974 0.119-0.038 0.295 0.148 0.279 0.327-0.019 0.211-0.205 0.566-0.595 0.892z" fill="#FFE01B"/>
			<path stroke-width=".0571" d="m76.306 45.867c-0.393 0.325-0.793 0.435-1.002 0.415-0.18-0.017-0.32-0.217-0.26-0.327 0.086 0.11 0.48 0.141 1.055-0.333 0.574-0.476 0.615-0.868 0.523-0.974 0.119-0.038 0.295 0.148 0.279 0.327-0.019 0.211-0.205 0.566-0.595 0.892z" stroke="#000" fill="none"/>
			<path d="m77.675 47.203c0.328-0.049 0.6 0.391 0.271 0.663-0.33 0.274-0.715-0.081-0.598-0.396" fill="#FFE01B"/>
			<path stroke-width=".0571" d="m77.675 47.203c0.328-0.049 0.6 0.391 0.271 0.663-0.33 0.274-0.715-0.081-0.598-0.396" stroke="#000" fill="none"/>
			<polyline points="77.413 47.551 77.13 47.206 77.46 46.941 77.759 47.307" fill="#FFE01B"/>
			<polyline stroke-width=".0571" points="77.413 47.551 77.13 47.206 77.46 46.941 77.759 47.307" stroke="#000" fill="none"/>
			<path d="m77.394 47.187c-0.398 0.333-0.809 0.444-1.023 0.424-0.182-0.019-0.326-0.22-0.264-0.333 0.088 0.113 0.49 0.142 1.078-0.342 0.586-0.484 0.627-0.887 0.533-0.994 0.123-0.039 0.303 0.152 0.285 0.335-0.02 0.213-0.209 0.577-0.609 0.91z" fill="#FFE01B"/>
			<path stroke-width=".0571" d="m77.394 47.187c-0.398 0.333-0.809 0.444-1.023 0.424-0.182-0.019-0.326-0.22-0.264-0.333 0.088 0.113 0.49 0.142 1.078-0.342 0.586-0.484 0.627-0.887 0.533-0.994 0.123-0.039 0.303 0.152 0.285 0.335-0.02 0.213-0.209 0.577-0.609 0.91z" stroke="#000" fill="none"/>
			<path d="m68.423 36.344c-0.357 0.291-0.752 0.402-0.879 0.247-0.129-0.156 0.061-0.521 0.42-0.813 0.357-0.293 0.752-0.404 0.879-0.248 0.129 0.156-0.061 0.521-0.42 0.814z" fill="#FFE01B"/>
			<path stroke-width=".0571" d="m68.423 36.344c-0.357 0.291-0.752 0.402-0.879 0.247-0.129-0.156 0.061-0.521 0.42-0.813 0.357-0.293 0.752-0.404 0.879-0.248 0.129 0.156-0.061 0.521-0.42 0.814z" stroke="#000" fill="none"/>
			<path d="m68.194 36.061" fill="#FFE01B"/>
			<path stroke-width=".0571" d="m68.194 36.061" stroke="#000" fill="none"/>
			<path d="m68.343 36.225c-0.219 0.188-0.465 0.271-0.553 0.183-0.088-0.087 0.018-0.311 0.236-0.499 0.219-0.189 0.465-0.271 0.553-0.183 0.088 0.086-0.019 0.31-0.236 0.499z"/>
			<path d="m68.185 36.066"/>
			<path d="m80.89 35.129c0.27-0.034 0.953 0.243 0.447 0.589-0.471 0.324-0.547-0.376-0.471-0.56-0.037 0.12 0.059 0.561 0.316 0.424 0.258-0.137-0.143-0.399-0.316-0.424 0.004-0.177-0.19-0.616-0.367-0.383-0.176 0.232 0.24 0.398 0.367 0.383-0.195 0.044-0.873-0.148-0.475-0.559 0.426-0.441 0.579 0.272 0.499 0.53z" fill="#FFE01B"/>
			<path stroke-width=".0571" d="m80.89 35.129c0.27-0.034 0.953 0.243 0.447 0.589-0.471 0.324-0.547-0.376-0.471-0.56-0.037 0.12 0.059 0.561 0.316 0.424 0.258-0.137-0.143-0.399-0.316-0.424 0.004-0.177-0.19-0.616-0.367-0.383-0.176 0.232 0.24 0.398 0.367 0.383-0.195 0.044-0.873-0.148-0.475-0.559 0.426-0.441 0.579 0.272 0.499 0.53z" stroke="#000" fill="none"/>
			<path d="m80.86 38.338c0.125-0.194 0.125-0.649-0.068-0.895 0.062-0.392 0.098-1.626 0.074-2.345-0.043 0.363-0.139 1.785-0.201 2.355-0.254 0.264-0.285 0.646-0.227 0.839 0.063 0.095 0.374 0.126 0.422 0.046z" fill="#FFE01B"/>
			<path stroke-width=".0571" d="m80.86 38.338c0.125-0.194 0.125-0.649-0.068-0.895 0.062-0.392 0.098-1.626 0.074-2.345-0.043 0.363-0.139 1.785-0.201 2.355-0.254 0.264-0.285 0.646-0.227 0.839 0.063 0.095 0.374 0.126 0.422 0.046z" stroke="#000" fill="none"/>
			<path d="m81.198 38.635c0.109-0.223 0.062-0.71-0.17-0.955 0.027-0.426-0.062-1.754-0.162-2.521-0.01 0.394 0.033 1.929 0.027 2.547-0.244 0.31-0.238 0.723-0.154 0.923 0.078 0.097 0.412 0.097 0.459 0.006z" fill="#FFE01B"/>
			<path stroke-width=".0571" d="m81.198 38.635c0.109-0.223 0.062-0.71-0.17-0.955 0.027-0.426-0.062-1.754-0.162-2.521-0.01 0.394 0.033 1.929 0.027 2.547-0.244 0.31-0.238 0.723-0.154 0.923 0.078 0.097 0.412 0.097 0.459 0.006z" stroke="#000" fill="none"/>
			<path d="m80.94 35.066c-0.148-0.161-0.328 0.002-0.176 0.164 0.151 0.163 0.327-0.004 0.176-0.164z" fill="#FFE01B"/>
			<path stroke-width=".0571" d="m80.94 35.066c-0.148-0.161-0.328 0.002-0.176 0.164 0.151 0.163 0.327-0.004 0.176-0.164z" stroke="#000" fill="none"/>
			<path d="m80.968 37.563c-0.127 0-0.127 0.181 0 0.181s0.127-0.181 0-0.181z" fill="#FFE01B"/>
			<path stroke-width=".0571" d="m80.968 37.563c-0.127 0-0.127 0.181 0 0.181s0.127-0.181 0-0.181z" stroke="#000" fill="none"/>
			<path d="m80.729 37.328c-0.125 0-0.125 0.182 0 0.182s0.125-0.182 0-0.182z" fill="#FFE01B"/>
			<path stroke-width=".0571" d="m80.729 37.328c-0.125 0-0.125 0.182 0 0.182s0.125-0.182 0-0.182z" stroke="#000" fill="none"/>
			<path d="m82.14 37.128c0.268-0.045 0.961 0.21 0.469 0.573-0.461 0.34-0.561-0.356-0.492-0.544-0.031 0.121 0.078 0.56 0.332 0.414s-0.156-0.396-0.332-0.414c0-0.177-0.207-0.61-0.379-0.37-0.17 0.238 0.254 0.391 0.379 0.37-0.193 0.051-0.875-0.118-0.492-0.544 0.409-0.453 0.587 0.254 0.515 0.515z" fill="#FFE01B"/>
			<path stroke-width=".0571" d="m82.14 37.128c0.268-0.045 0.961 0.21 0.469 0.573-0.461 0.34-0.561-0.356-0.492-0.544-0.031 0.121 0.078 0.56 0.332 0.414s-0.156-0.396-0.332-0.414c0-0.177-0.207-0.61-0.379-0.37-0.17 0.238 0.254 0.391 0.379 0.37-0.193 0.051-0.875-0.118-0.492-0.544 0.409-0.453 0.587 0.254 0.515 0.515z" stroke="#000" fill="none"/>
			<path d="m82.218 40.336c0.117-0.2 0.102-0.652-0.1-0.895 0.051-0.392 0.045-1.627-0.002-2.343-0.031 0.363-0.08 1.786-0.125 2.36-0.244 0.271-0.262 0.653-0.195 0.844 0.064 0.094 0.375 0.115 0.422 0.034z" fill="#FFE01B"/>
			<path stroke-width=".0571" d="m82.218 40.336c0.117-0.2 0.102-0.652-0.1-0.895 0.051-0.392 0.045-1.627-0.002-2.343-0.031 0.363-0.08 1.786-0.125 2.36-0.244 0.271-0.262 0.653-0.195 0.844 0.064 0.094 0.375 0.115 0.422 0.034z" stroke="#000" fill="none"/>
			<path d="m82.563 40.621c0.104-0.227 0.041-0.712-0.199-0.947 0.012-0.428-0.123-1.753-0.248-2.517 0.004 0.394 0.1 1.927 0.113 2.546-0.234 0.318-0.213 0.731-0.123 0.927 0.079 0.095 0.416 0.084 0.457-0.009z" fill="#FFE01B"/>
			<path stroke-width=".0571" d="m82.563 40.621c0.104-0.227 0.041-0.712-0.199-0.947 0.012-0.428-0.123-1.753-0.248-2.517 0.004 0.394 0.1 1.927 0.113 2.546-0.234 0.318-0.213 0.731-0.123 0.927 0.079 0.095 0.416 0.084 0.457-0.009z" stroke="#000" fill="none"/>
			<path d="m82.188 37.062c-0.154-0.155-0.328 0.014-0.172 0.17 0.159 0.159 0.329-0.014 0.172-0.17z" fill="#FFE01B"/>
			<path stroke-width=".0571" d="m82.188 37.062c-0.154-0.155-0.328 0.014-0.172 0.17 0.159 0.159 0.329-0.014 0.172-0.17z" stroke="#000" fill="none"/>
			<path d="m82.3 39.559c-0.125 0.005-0.121 0.185 0.006 0.181 0.125-0.005 0.119-0.185-0.006-0.181z" fill="#FFE01B"/>
			<path stroke-width=".0571" d="m82.3 39.559c-0.125 0.005-0.121 0.185 0.006 0.181 0.125-0.005 0.119-0.185-0.006-0.181z" stroke="#000" fill="none"/>
			<path d="m82.054 39.332c-0.127 0.004-0.121 0.184 0.006 0.18 0.125-0.004 0.119-0.185-0.006-0.18z" fill="#FFE01B"/>
			<path stroke-width=".0571" d="m82.054 39.332c-0.127 0.004-0.121 0.184 0.006 0.18 0.125-0.004 0.119-0.185-0.006-0.18z" stroke="#000" fill="none"/>
			<path d="m79.421 33.606c0.268-0.034 0.951 0.243 0.447 0.589-0.473 0.325-0.549-0.375-0.473-0.559-0.037 0.119 0.057 0.56 0.316 0.424 0.26-0.137-0.143-0.4-0.316-0.424 0.004-0.178-0.189-0.616-0.367-0.383-0.178 0.232 0.242 0.399 0.367 0.383-0.195 0.042-0.873-0.148-0.473-0.559 0.425-0.441 0.577 0.272 0.499 0.529z" fill="#FFE01B"/>
			<path stroke-width=".0571" d="m79.421 33.606c0.268-0.034 0.951 0.243 0.447 0.589-0.473 0.325-0.549-0.375-0.473-0.559-0.037 0.119 0.057 0.56 0.316 0.424 0.26-0.137-0.143-0.4-0.316-0.424 0.004-0.178-0.189-0.616-0.367-0.383-0.178 0.232 0.242 0.399 0.367 0.383-0.195 0.042-0.873-0.148-0.473-0.559 0.425-0.441 0.577 0.272 0.499 0.529z" stroke="#000" fill="none"/>
			<path d="m79.415 36.091c-0.023-0.063-0.055-0.121-0.094-0.172 0.062-0.391 0.098-1.625 0.074-2.343-0.043 0.363-0.141 1.783-0.201 2.356-0.146 0.15-0.219 0.341-0.242 0.512l0.463-0.353z" fill="#FFE01B"/>
			<path stroke-width=".0571" d="m79.415 36.091c-0.023-0.063-0.055-0.121-0.094-0.172 0.062-0.391 0.098-1.625 0.074-2.343-0.043 0.363-0.141 1.783-0.201 2.356-0.146 0.15-0.219 0.341-0.242 0.512l0.463-0.353z" stroke="#000" fill="none"/>
			<path d="m79.563 35.978c0-0.543-0.08-1.661-0.168-2.341-0.01 0.373 0.031 1.776 0.029 2.447l0.139-0.106z" fill="#FFE01B"/>
			<path stroke-width=".0571" d="m79.563 35.978c0-0.543-0.08-1.661-0.168-2.341-0.01 0.373 0.031 1.776 0.029 2.447l0.139-0.106z" stroke="#000" fill="none"/>
			<path d="m79.47 33.543c-0.148-0.16-0.328 0.003-0.178 0.165 0.152 0.162 0.328-0.005 0.178-0.165z" fill="#FFE01B"/>
			<path stroke-width=".0571" d="m79.47 33.543c-0.148-0.16-0.328 0.003-0.178 0.165 0.152 0.162 0.328-0.005 0.178-0.165z" stroke="#000" fill="none"/>
			<path d="m79.259 35.807c-0.127 0-0.127 0.181 0 0.181 0.127-0.001 0.127-0.181 0-0.181z" fill="#FFE01B"/>
			<path stroke-width=".0571" d="m79.259 35.807c-0.127 0-0.127 0.181 0 0.181 0.127-0.001 0.127-0.181 0-0.181z" stroke="#000" fill="none"/>
			<path d="m63.108 35.129c-0.268-0.034-0.951 0.243-0.447 0.589 0.473 0.324 0.549-0.376 0.473-0.56 0.037 0.12-0.059 0.561-0.316 0.424-0.258-0.137 0.142-0.399 0.316-0.424-0.006-0.177 0.188-0.616 0.367-0.383 0.178 0.232-0.24 0.398-0.367 0.383 0.195 0.044 0.871-0.148 0.475-0.559-0.426-0.441-0.579 0.272-0.501 0.53z" fill="#FFE01B"/>
			<path stroke-width=".0571" d="m63.108 35.129c-0.268-0.034-0.951 0.243-0.447 0.589 0.473 0.324 0.549-0.376 0.473-0.56 0.037 0.12-0.059 0.561-0.316 0.424-0.258-0.137 0.142-0.399 0.316-0.424-0.006-0.177 0.188-0.616 0.367-0.383 0.178 0.232-0.24 0.398-0.367 0.383 0.195 0.044 0.871-0.148 0.475-0.559-0.426-0.441-0.579 0.272-0.501 0.53z" stroke="#000" fill="none"/>
			<path d="m63.138 38.338c-0.123-0.194-0.123-0.649 0.068-0.895-0.061-0.392-0.098-1.626-0.072-2.345 0.043 0.363 0.139 1.785 0.201 2.355 0.254 0.264 0.285 0.646 0.227 0.839-0.065 0.095-0.375 0.126-0.424 0.046z" fill="#FFE01B"/>
			<path stroke-width=".0571" d="m63.138 38.338c-0.123-0.194-0.123-0.649 0.068-0.895-0.061-0.392-0.098-1.626-0.072-2.345 0.043 0.363 0.139 1.785 0.201 2.355 0.254 0.264 0.285 0.646 0.227 0.839-0.065 0.095-0.375 0.126-0.424 0.046z" stroke="#000" fill="none"/>
			<path d="m62.802 38.635c-0.109-0.223-0.064-0.71 0.168-0.955-0.023-0.426 0.064-1.754 0.164-2.521 0.01 0.394-0.035 1.929-0.027 2.547 0.244 0.31 0.238 0.723 0.154 0.923-0.078 0.097-0.412 0.097-0.459 0.006z" fill="#FFE01B"/>
			<path stroke-width=".0571" d="m62.802 38.635c-0.109-0.223-0.064-0.71 0.168-0.955-0.023-0.426 0.064-1.754 0.164-2.521 0.01 0.394-0.035 1.929-0.027 2.547 0.244 0.31 0.238 0.723 0.154 0.923-0.078 0.097-0.412 0.097-0.459 0.006z" stroke="#000" fill="none"/>
			<path d="m63.058 35.066c0.15-0.161 0.33 0.002 0.178 0.164-0.151 0.163-0.327-0.004-0.178-0.164z" fill="#FFE01B"/>
			<path stroke-width=".0571" d="m63.058 35.066c0.15-0.161 0.33 0.002 0.178 0.164-0.151 0.163-0.327-0.004-0.178-0.164z" stroke="#000" fill="none"/>
			<path d="m63.03 37.563c0.127 0 0.127 0.181 0 0.181-0.123 0-0.123-0.181 0-0.181z" fill="#FFE01B"/>
			<path stroke-width=".0571" d="m63.03 37.563c0.127 0 0.127 0.181 0 0.181-0.123 0-0.123-0.181 0-0.181z" stroke="#000" fill="none"/>
			<path d="m63.271 37.328c0.127 0 0.127 0.182 0 0.182s-0.127-0.182 0-0.182z" fill="#FFE01B"/>
			<path stroke-width=".0571" d="m63.271 37.328c0.127 0 0.127 0.182 0 0.182s-0.127-0.182 0-0.182z" stroke="#000" fill="none"/>
			<path d="m61.858 37.128c-0.266-0.045-0.959 0.21-0.467 0.573 0.461 0.34 0.56-0.356 0.492-0.544 0.033 0.121-0.078 0.56-0.33 0.414-0.256-0.146 0.154-0.396 0.33-0.414 0-0.177 0.207-0.61 0.379-0.37 0.17 0.238-0.256 0.391-0.379 0.37 0.193 0.051 0.875-0.118 0.49-0.544-0.407-0.453-0.585 0.254-0.515 0.515z" fill="#FFE01B"/>
			<path stroke-width=".0571" d="m61.858 37.128c-0.266-0.045-0.959 0.21-0.467 0.573 0.461 0.34 0.56-0.356 0.492-0.544 0.033 0.121-0.078 0.56-0.33 0.414-0.256-0.146 0.154-0.396 0.33-0.414 0-0.177 0.207-0.61 0.379-0.37 0.17 0.238-0.256 0.391-0.379 0.37 0.193 0.051 0.875-0.118 0.49-0.544-0.407-0.453-0.585 0.254-0.515 0.515z" stroke="#000" fill="none"/>
			<path d="m61.78 40.336c-0.115-0.2-0.1-0.652 0.1-0.895-0.049-0.392-0.043-1.627 0.004-2.343 0.033 0.363 0.082 1.786 0.123 2.36 0.246 0.271 0.264 0.653 0.197 0.844-0.064 0.094-0.375 0.115-0.424 0.034z" fill="#FFE01B"/>
			<path stroke-width=".0571" d="m61.78 40.336c-0.115-0.2-0.1-0.652 0.1-0.895-0.049-0.392-0.043-1.627 0.004-2.343 0.033 0.363 0.082 1.786 0.123 2.36 0.246 0.271 0.264 0.653 0.197 0.844-0.064 0.094-0.375 0.115-0.424 0.034z" stroke="#000" fill="none"/>
			<path d="m61.437 40.621c-0.104-0.227-0.041-0.712 0.199-0.947-0.012-0.428 0.123-1.753 0.248-2.517-0.004 0.394-0.1 1.927-0.113 2.546 0.234 0.318 0.215 0.731 0.123 0.927-0.081 0.095-0.415 0.084-0.457-0.009z" fill="#FFE01B"/>
			<path stroke-width=".0571" d="m61.437 40.621c-0.104-0.227-0.041-0.712 0.199-0.947-0.012-0.428 0.123-1.753 0.248-2.517-0.004 0.394-0.1 1.927-0.113 2.546 0.234 0.318 0.215 0.731 0.123 0.927-0.081 0.095-0.415 0.084-0.457-0.009z" stroke="#000" fill="none"/>
			<path d="m61.81 37.062c0.156-0.155 0.33 0.014 0.174 0.17-0.159 0.159-0.329-0.014-0.174-0.17z" fill="#FFE01B"/>
			<path stroke-width=".0571" d="m61.81 37.062c0.156-0.155 0.33 0.014 0.174 0.17-0.159 0.159-0.329-0.014-0.174-0.17z" stroke="#000" fill="none"/>
			<path d="m61.702 39.559c0.125 0.005 0.117 0.185-0.008 0.181s-0.119-0.185 0.008-0.181z" fill="#FFE01B"/>
			<path stroke-width=".0571" d="m61.702 39.559c0.125 0.005 0.117 0.185-0.008 0.181s-0.119-0.185 0.008-0.181z" stroke="#000" fill="none"/>
			<path d="m61.946 39.332c0.127 0.004 0.119 0.184-0.006 0.18s-0.119-0.185 0.006-0.18z" fill="#FFE01B"/>
			<path stroke-width=".0571" d="m61.946 39.332c0.127 0.004 0.119 0.184-0.006 0.18s-0.119-0.185 0.006-0.18z" stroke="#000" fill="none"/>
			<path d="m64.579 33.606c-0.268-0.034-0.951 0.243-0.449 0.589 0.475 0.325 0.551-0.375 0.475-0.559 0.037 0.119-0.059 0.56-0.314 0.424-0.262-0.137 0.139-0.4 0.314-0.424-0.006-0.178 0.188-0.616 0.367-0.383 0.178 0.232-0.242 0.399-0.367 0.383 0.195 0.042 0.871-0.148 0.475-0.559-0.427-0.441-0.579 0.272-0.501 0.529z" fill="#FFE01B"/>
			<path stroke-width=".0571" d="m64.579 33.606c-0.268-0.034-0.951 0.243-0.449 0.589 0.475 0.325 0.551-0.375 0.475-0.559 0.037 0.119-0.059 0.56-0.314 0.424-0.262-0.137 0.139-0.4 0.314-0.424-0.006-0.178 0.188-0.616 0.367-0.383 0.178 0.232-0.242 0.399-0.367 0.383 0.195 0.042 0.871-0.148 0.475-0.559-0.427-0.441-0.579 0.272-0.501 0.529z" stroke="#000" fill="none"/>
			<path d="m64.585 36.091c0.021-0.063 0.053-0.121 0.094-0.172-0.062-0.391-0.098-1.625-0.074-2.343 0.043 0.363 0.139 1.783 0.201 2.356 0.146 0.15 0.219 0.341 0.242 0.512l-0.463-0.353z" fill="#FFE01B"/>
			<path stroke-width=".0571" d="m64.585 36.091c0.021-0.063 0.053-0.121 0.094-0.172-0.062-0.391-0.098-1.625-0.074-2.343 0.043 0.363 0.139 1.783 0.201 2.356 0.146 0.15 0.219 0.341 0.242 0.512l-0.463-0.353z" stroke="#000" fill="none"/>
			<path d="m64.437 35.978c0-0.543 0.08-1.661 0.168-2.341 0.01 0.373-0.029 1.776-0.029 2.447l-0.139-0.106z" fill="#FFE01B"/>
			<path stroke-width=".0571" d="m64.437 35.978c0-0.543 0.08-1.661 0.168-2.341 0.01 0.373-0.029 1.776-0.029 2.447l-0.139-0.106z" stroke="#000" fill="none"/>
			<path d="m64.528 33.543c0.15-0.16 0.33 0.003 0.178 0.165-0.15 0.162-0.326-0.005-0.178-0.165z" fill="#FFE01B"/>
			<path stroke-width=".0571" d="m64.528 33.543c0.15-0.16 0.33 0.003 0.178 0.165-0.15 0.162-0.326-0.005-0.178-0.165z" stroke="#000" fill="none"/>
			<path d="m64.741 35.807c0.127 0 0.127 0.181 0 0.181-0.127-0.001-0.127-0.181 0-0.181z" fill="#FFE01B"/>
			<path stroke-width=".0571" d="m64.741 35.807c0.127 0 0.127 0.181 0 0.181-0.127-0.001-0.127-0.181 0-0.181z" stroke="#000" fill="none"/>
			<path d="m71.999 47.941c2.6 0 4.707-2.712 4.707-6.057s-2.107-6.056-4.707-6.056-4.705 2.711-4.705 6.056 2.105 6.057 4.705 6.057z" fill="#006C84"/>
			<path stroke-width=".0571" d="m71.999 47.941c2.6 0 4.707-2.712 4.707-6.057s-2.107-6.056-4.707-6.056-4.705 2.711-4.705 6.056 2.105 6.057 4.705 6.057z" stroke="#000" fill="none"/>
			<path d="m71.999 41.885" fill="#006C84"/>
			<path stroke-width=".0571" d="m71.999 41.885" stroke="#000" fill="none"/>
			<path d="m71.999 46.57c1.713 0 3.1-2.097 3.1-4.686 0-2.587-1.387-4.686-3.1-4.686-1.711 0-3.1 2.099-3.1 4.686 0 2.59 1.389 4.686 3.1 4.686z" fill="#5CC9E7"/>
			<path stroke-width=".0571" d="m71.999 46.57c1.713 0 3.1-2.097 3.1-4.686 0-2.587-1.387-4.686-3.1-4.686-1.711 0-3.1 2.099-3.1 4.686 0 2.59 1.389 4.686 3.1 4.686z" stroke="#000" fill="none"/>
			<path d="m71.999 41.885" fill="#5CC9E7"/>
			<path stroke-width=".0571" d="m71.999 41.885" stroke="#000" fill="none"/>
			<path d="m75.095 42.144c-0.672 0.154-2.656 0.103-3.275 0-0.617-0.103-2.047-0.052-2.91 0.103-0.004-0.119-0.01-0.24-0.01-0.361 0-0.264 0.016-0.522 0.043-0.774 0.787-0.181 1.869-0.928 2.359-1.392 0.49-0.465 0.725-0.309 1.19 0.051 0.463 0.361 1.959 1.522 2.592 1.626 0.012 0.161 0.016 0.323 0.016 0.489-0.001 0.086-0.001 0.172-0.005 0.258z" fill="#5C5B3D"/>
			<path stroke-width=".0571" d="m75.095 42.144c-0.672 0.154-2.656 0.103-3.275 0-0.617-0.103-2.047-0.052-2.91 0.103-0.004-0.119-0.01-0.24-0.01-0.361 0-0.264 0.016-0.522 0.043-0.774 0.787-0.181 1.869-0.928 2.359-1.392 0.49-0.465 0.725-0.309 1.19 0.051 0.463 0.361 1.959 1.522 2.592 1.626 0.012 0.161 0.016 0.323 0.016 0.489-0.001 0.086-0.001 0.172-0.005 0.258z" stroke="#000" fill="none"/>
			<path d="m69.458 44.562c-0.305-0.666-0.506-1.459-0.549-2.316 0.863-0.154 2.293-0.205 2.91-0.103 0.619 0.103 2.604 0.154 3.275 0-0.031 0.898-0.234 1.728-0.555 2.422 0.009 0.008-5.081-0.003-5.081-0.003z" fill="#008248"/>
			<path stroke-width=".0571" d="m69.458 44.562c-0.305-0.666-0.506-1.459-0.549-2.316 0.863-0.154 2.293-0.205 2.91-0.103 0.619 0.103 2.604 0.154 3.275 0-0.031 0.898-0.234 1.728-0.555 2.422 0.009 0.008-5.081-0.003-5.081-0.003z" stroke="#000" fill="none"/>
			<path d="m74.54 44.565c0.008 0.008-5.082-0.003-5.082-0.003 0.562 1.214 1.488 2.008 2.541 2.008s1.979-0.793 2.541-2.005z" fill="#0a6"/>
			<path stroke-width=".0571" d="m74.54 44.565c0.008 0.008-5.082-0.003-5.082-0.003 0.562 1.214 1.488 2.008 2.541 2.008s1.979-0.793 2.541-2.005z" stroke="#000" fill="none"/>
			<path d="m71.501 44.738c0.01 0.025 0.02 0.049 0.035 0.068 0.062 0.084 0.027 0.132-0.039 0.13-0.074-0.003-0.193-0.026-0.162-0.214 0.033-0.188-0.045-0.444-0.031-0.606 0.012-0.161-0.129-0.334-0.115-0.586-0.234 0.183-0.562 0.147-0.875-0.013-0.08 0.119-0.107 0.238-0.293 0.314-0.012 0.006-0.02 0.01-0.027 0.017 0.006 0.029 0.016 0.062 0.027 0.094 0.039 0.11 0.064 0.233 0.055 0.361-0.01 0.129-0.01 0.239 0.09 0.312 0.088 0.066 0.027 0.124-0.018 0.136 0.1 0.074 0.012 0.139-0.033 0.139s-0.158 0.003-0.182-0.112c-0.027-0.143-0.137-0.185-0.133-0.294 0.008-0.11-0.023-0.258-0.102-0.426-0.037-0.079-0.029-0.183-0.008-0.284-0.156-0.271-0.045-0.825 0.199-0.929 0.227-0.276 0.762-0.167 1.059-0.089 0.27 0.069 0.311-0.149 0.182-0.511-0.131-0.361 0.09-0.748 0.213-0.916-0.008-0.154 0.031-0.264 0.07-0.205 0.039 0.058 0.115 0.147 0.168 0.232 0.129-0.008 0.141 0.084 0.201 0.115 0.039 0.019 0.033 0.155 0.23 0.178 0.101 0.01 0.139 0.065 0.119 0.161-0.029 0.145-0.223 0.116-0.482 0.112 0.129 0.22 0.137 0.646 0.234 1.059 0.055 0.234-0.111 0.451-0.246 0.549-0.014 0.049-0.035 0.112-0.021 0.173 0.016 0.068 0.019 0.251-0.006 0.322-0.027 0.071-0.008 0.188-0.027 0.282-0.018 0.098-0.033 0.241 0.033 0.324 0.084 0.108-0.049 0.128-0.115 0.107z" fill="#5C5B3D"/>
			<path stroke-width=".0571" d="m71.501 44.738c0.01 0.025 0.02 0.049 0.035 0.068 0.062 0.084 0.027 0.132-0.039 0.13-0.074-0.003-0.193-0.026-0.162-0.214 0.033-0.188-0.045-0.444-0.031-0.606 0.012-0.161-0.129-0.334-0.115-0.586-0.234 0.183-0.562 0.147-0.875-0.013-0.08 0.119-0.107 0.238-0.293 0.314-0.012 0.006-0.02 0.01-0.027 0.017 0.006 0.029 0.016 0.062 0.027 0.094 0.039 0.11 0.064 0.233 0.055 0.361-0.01 0.129-0.01 0.239 0.09 0.312 0.088 0.066 0.027 0.124-0.018 0.136 0.1 0.074 0.012 0.139-0.033 0.139s-0.158 0.003-0.182-0.112c-0.027-0.143-0.137-0.185-0.133-0.294 0.008-0.11-0.023-0.258-0.102-0.426-0.037-0.079-0.029-0.183-0.008-0.284-0.156-0.271-0.045-0.825 0.199-0.929 0.227-0.276 0.762-0.167 1.059-0.089 0.27 0.069 0.311-0.149 0.182-0.511-0.131-0.361 0.09-0.748 0.213-0.916-0.008-0.154 0.031-0.264 0.07-0.205 0.039 0.058 0.115 0.147 0.168 0.232 0.129-0.008 0.141 0.084 0.201 0.115 0.039 0.019 0.033 0.155 0.23 0.178 0.101 0.01 0.139 0.065 0.119 0.161-0.029 0.145-0.223 0.116-0.482 0.112 0.129 0.22 0.137 0.646 0.234 1.059 0.055 0.234-0.111 0.451-0.246 0.549-0.014 0.049-0.035 0.112-0.021 0.173 0.016 0.068 0.019 0.251-0.006 0.322-0.027 0.071-0.008 0.188-0.027 0.282-0.018 0.098-0.033 0.241 0.033 0.324 0.084 0.108-0.049 0.128-0.115 0.107zm0.244-3.108c-0.02-0.041-0.08-0.035-0.1-0.019m-1.332 1.907c0.033-0.055 0.057-0.101 0.051-0.152m-0.474-0.52c-0.191 0.239 0.037 0.395-0.094 0.646-0.033 0.057-0.078 0.167-0.105 0.282m0.302 0.075c-0.051 0.045-0.027 0.133 0.008 0.231 0.039 0.108 0.064 0.229 0.055 0.36-0.01 0.129-0.008 0.238 0.092 0.312m1.396-1.171c0.027-0.006 0.059-0.024 0.094-0.05m-0.032-0.234c-0.014 0.271-0.135 0.291-0.07 0.581 0.014 0.067 0.02 0.252-0.008 0.323-0.025 0.07-0.006 0.186-0.025 0.283-0.014 0.073-0.023 0.174-0.002 0.254" stroke="#000" fill="none"/>
			<path d="m73.448 42.24v-0.267l-0.605 0.041-0.391-0.062v0.251c0.254 0.024 0.82 0.037 0.996 0.037z" fill="#fff"/>
			<path stroke-linejoin="bevel" d="m73.448 42.24v-0.267l-0.605 0.041-0.391-0.062v0.251c0.254 0.024 0.82 0.037 0.996 0.037z" stroke="#000" stroke-width=".0571" fill="none"/>
			<line y2="42.224" x2="72.843" y1="42.022" x1="72.843" fill="#fff"/>
				<line stroke-linejoin="bevel" y2="42.224" fill="none" x2="72.843" stroke="#000" y1="42.022" x1="72.843" stroke-width=".0571"/>
			<polygon points="73.265 41.582 73.483 41.984 72.851 42.031 72.634 41.598" fill="#E03A3E"/>
			<polygon stroke-linejoin="bevel" stroke="#000" points="73.265 41.582 73.483 41.984 72.851 42.031 72.634 41.598" stroke-width=".0571" fill="none"/>
			<polygon points="72.851 42.031 72.634 41.598 72.417 41.963" fill="#E03A3E"/>
			<polygon stroke-linejoin="bevel" stroke="#000" points="72.851 42.031 72.634 41.598 72.417 41.963" stroke-width=".0571" fill="none"/>
			<polygon points="73.128 41.438 73.239 41.442 73.239 41.582 73.128 41.587" fill="#E03A3E"/>
			<polygon stroke-linejoin="bevel" stroke="#000" points="73.128 41.438 73.239 41.442 73.239 41.582 73.128 41.587" stroke-width=".0571" fill="none"/>
			<polygon points="73.128 41.438 73.042 41.447 73.042 41.587 73.128 41.587" fill="#E03A3E"/>
			<polygon stroke-linejoin="bevel" stroke="#000" points="73.128 41.438 73.042 41.447 73.042 41.587 73.128 41.587" stroke-width=".0571" fill="none"/>
			<path d="m73.903 41.512c0.012 0.154 0.033 1.457-0.105 1.658 0.029-0.014 0.148-0.085 0.16-0.117 0.012 0.064 0.078 0.136 0.084 0.161 0.016-0.07 0.088-0.116 0.1-0.142 0.016 0.032 0.088 0.09 0.148 0.128-0.055-0.128-0.127-0.825-0.133-1.669" fill="#5C5B3D"/>
			<path stroke-linejoin="bevel" d="m73.903 41.512c0.012 0.154 0.033 1.457-0.105 1.658 0.029-0.014 0.148-0.085 0.16-0.117 0.012 0.064 0.078 0.136 0.084 0.161 0.016-0.07 0.088-0.116 0.1-0.142 0.016 0.032 0.088 0.09 0.148 0.128-0.055-0.128-0.127-0.825-0.133-1.669" stroke="#000" stroke-width=".0571" fill="none"/>
			<path d="m73.702 40.072c-0.115-0.006-0.232 0.078-0.238 0.176-0.07 0-0.18 0.083-0.188 0.167-0.078 0.025-0.141 0.181-0.109 0.283-0.082 0.072-0.059 0.213 0 0.284-0.07 0.096 0.027 0.271 0.135 0.304-0.006 0.115 0.168 0.199 0.254 0.181 0.045 0.128 0.264 0.154 0.354 0.09 0.045 0.097 0.277 0.09 0.336 0.007 0.115 0.069 0.252-0.046 0.256-0.162 0.111 0 0.182-0.129 0.174-0.219 0.092-0.046 0.131-0.232 0.078-0.33 0.072-0.142 0.064-0.314-0.059-0.36 0.008-0.136-0.115-0.264-0.217-0.244-0.008-0.104-0.168-0.176-0.246-0.143-0.045-0.077-0.199-0.142-0.258-0.077-0.059-0.065-0.227-0.041-0.272 0.043z" fill="#008248"/>
			<path stroke-linejoin="bevel" d="m73.702 40.072c-0.115-0.006-0.232 0.078-0.238 0.176-0.07 0-0.18 0.083-0.188 0.167-0.078 0.025-0.141 0.181-0.109 0.283-0.082 0.072-0.059 0.213 0 0.284-0.07 0.096 0.027 0.271 0.135 0.304-0.006 0.115 0.168 0.199 0.254 0.181 0.045 0.128 0.264 0.154 0.354 0.09 0.045 0.097 0.277 0.09 0.336 0.007 0.115 0.069 0.252-0.046 0.256-0.162 0.111 0 0.182-0.129 0.174-0.219 0.092-0.046 0.131-0.232 0.078-0.33 0.072-0.142 0.064-0.314-0.059-0.36 0.008-0.136-0.115-0.264-0.217-0.244-0.008-0.104-0.168-0.176-0.246-0.143-0.045-0.077-0.199-0.142-0.258-0.077-0.059-0.065-0.227-0.041-0.272 0.043z" stroke="#000" stroke-width=".0571" fill="none"/>
			<path d="m73.647 41.075c-0.17 0-0.17 0.253 0 0.253 0.168 0 0.172-0.253 0-0.253z" fill="#FFE01B"/>
			<path d="m74.138 40.856c-0.172 0-0.172 0.252 0 0.252 0.168 0 0.17-0.252 0-0.252z" fill="#FFE01B"/>
			<path d="m74.265 41.191c-0.17 0-0.17 0.253 0 0.253s0.173-0.253 0-0.253z" fill="#FFE01B"/>
			<path d="m73.569 40.7c-0.17 0-0.17 0.253 0 0.253s0.172-0.253 0-0.253z" fill="#FFE01B"/>
			<path d="m74.368 40.456c-0.17 0-0.17 0.252 0 0.252 0.172 0 0.172-0.252 0-0.252z" fill="#FFE01B"/>
			<path d="m73.827 40.287c-0.17 0-0.17 0.254 0 0.254s0.172-0.254 0-0.254z" fill="#FFE01B"/>
			<path d="m72.372 43.306c0.283-0.214 0.928-0.386 1.24-0.028-0.5-0.156-0.342 0.928-0.213 1.556-0.172 0.058-0.557 0.114-0.744-0.016 0.172-1.098 0.244-1.74-0.283-1.512z" fill="#FFE01B"/>
			<path stroke-width=".0571" d="m73.028 43.03v1.913" stroke="#000" fill="none"/>
			<path stroke-linejoin="bevel" d="m72.86 43.033c0.129 0.127 0.102 1.469 0.059 1.905m-0.231-1.836c0.262-0.049 0.205 1.266 0.119 1.819m-0.285-1.717c0.391-0.225 0.303 1.019 0.176 1.696m-0.103-0.06c0.166-0.802 0.279-1.84-0.234-1.443m0.835-0.364c-0.129 0.127-0.1 1.469-0.059 1.905m0.229-1.836c-0.262-0.049-0.205 1.266-0.119 1.819m0.289-1.717c-0.393-0.225-0.307 1.019-0.178 1.696m0.34-1.504c-0.518-0.396-0.404 0.642-0.236 1.443" stroke="#000" stroke-width=".0571" fill="none"/>
			<path d="m73.028 44.055c0.092 0 0.305-0.044 0.303-0.101 0-0.021-0.006-0.067-0.002-0.082 0.002 0.058-0.209 0.094-0.301 0.094s-0.305-0.036-0.301-0.094c0.004 0.015 0 0.062 0 0.082-0.005 0.057 0.21 0.101 0.301 0.101z" fill="#FFE01B"/>
			<path stroke-linejoin="bevel" d="m73.028 44.055c0.092 0 0.305-0.044 0.303-0.101 0-0.021-0.006-0.067-0.002-0.082 0.002 0.058-0.209 0.094-0.301 0.094s-0.305-0.036-0.301-0.094c0.004 0.015 0 0.062 0 0.082-0.005 0.057 0.21 0.101 0.301 0.101z" stroke="#000" stroke-width=".0571" fill="none"/>
			<path d="m70.683 39.112c0.26 0 0.467-0.208 0.467-0.465s-0.207-0.465-0.467-0.465c-0.256 0-0.463 0.208-0.463 0.465s0.207 0.465 0.463 0.465z" fill="#FFE01B"/>
			<path stroke-linejoin="bevel" d="m70.683 39.112c0.26 0 0.467-0.208 0.467-0.465s-0.207-0.465-0.467-0.465c-0.256 0-0.463 0.208-0.463 0.465s0.207 0.465 0.463 0.465z" stroke="#000" stroke-width=".0571" fill="none"/>
			<path d="m70.683 38.647" fill="#FFE01B"/>
			<path stroke-linejoin="bevel" d="m70.683 38.647m0-0.683v-0.303m-0.176 0.327l-0.041-0.156m-0.123 0.224l-0.041-0.071m-0.102 0.179l-0.037-0.038m-0.07 0.18l-0.057-0.032m-0.014 0.198l-0.111-0.031m0.09 0.206h-0.234m0.255 0.177l-0.334 0.09m0.405 0.076l-0.479 0.275m0.586-0.135l-0.246 0.247m0.389-0.137l-0.34 0.586m0.504-0.518l-0.09 0.337m0.266-0.313v0.551m0.177-0.575l0.092 0.337m0.074-0.405l0.275 0.479m-0.132-0.589l0.244 0.247m-0.137-0.387l0.588 0.338m-0.519-0.504l0.336 0.09m-0.313-0.267h0.553m-0.576-0.175l0.654-0.177m-0.723 0.011l0.303-0.173m-0.41 0.031l0.389-0.391m-0.532 0.283l0.174-0.302m-0.34 0.234l0.139-0.519" stroke="#000" stroke-width=".0571" fill="none"/>
			<path stroke-linejoin="bevel" d="m70.407 38.521c0.035-0.016 0.15-0.048 0.205-0.003m-0.14 0.014c0.017 0.016 0.068 0.019 0.084 0.003m0.025 0.28c0.016 0.02 0.164 0.022 0.197 0m-0.144-0.109c0.018 0.016 0.082 0.013 0.105 0m0.221-0.185c-0.033-0.016-0.15-0.048-0.205-0.003m0.142 0.014c-0.02 0.016-0.068 0.019-0.084 0.003" stroke="#000" stroke-linecap="round" stroke-width=".0571" fill="none"/>
			<polygon points="73.349 46.361 73.581 46.695 73.974 46.573 73.724 46.903 73.96 47.236 73.575 47.103 73.331 47.429 73.337 47.019 72.95 46.891 73.341 46.771" fill="#FFE01B"/>
			<polygon points="74.454 45.283 74.78 45.528 75.116 45.293 74.981 45.683 75.31 45.926 74.901 45.917 74.769 46.306 74.647 45.912 74.241 45.908 74.575 45.674" fill="#FFE01B"/>
			<polygon points="75.038 44.091 75.427 44.213 75.663 43.877 75.669 44.289 76.06 44.407 75.671 44.538 75.679 44.947 75.431 44.618 75.046 44.752 75.282 44.418" fill="#FFE01B"/>
			<polygon points="75.351 42.681 75.757 42.646 75.849 42.245 76.009 42.625 76.415 42.587 76.106 42.855 76.267 43.23 75.915 43.021 75.61 43.289 75.7 42.891" fill="#FFE01B"/>
			<polygon points="71.999 46.744 71.874 47.133 71.464 47.133 71.796 47.374 71.669 47.761 71.999 47.521 72.329 47.761 72.202 47.371 72.534 47.135 72.126 47.135" fill="#FFE01B"/>
			<polygon points="70.653 46.361 70.419 46.695 70.026 46.573 70.274 46.903 70.04 47.236 70.425 47.103 70.671 47.429 70.663 47.019 71.05 46.891 70.659 46.771" fill="#FFE01B"/>
			<polygon points="69.544 45.283 69.22 45.528 68.884 45.293 69.017 45.683 68.69 45.926 69.099 45.917 69.231 46.306 69.353 45.912 69.759 45.908 69.425 45.674" fill="#FFE01B"/>
			<polygon points="68.962 44.091 68.573 44.213 68.337 43.877 68.331 44.289 67.942 44.407 68.329 44.538 68.321 44.947 68.569 44.618 68.952 44.752 68.716 44.418" fill="#FFE01B"/>
			<polygon points="68.649 42.681 68.245 42.646 68.149 42.245 67.991 42.625 67.585 42.587 67.894 42.855 67.733 43.23 68.085 43.021 68.392 43.289 68.298 42.891" fill="#FFE01B"/>
			<path d="m67.39 33.959c-0.016-0.083 0.496-0.046 0.58-0.349 0.033-0.122 0.18-0.31 0.334-0.394 0.307-0.166 0.742-0.103 1.053 0.193 0.129 0.125 0.32 0.23 0.512 0.209 0.129 0.243 0.057 0.519-0.115 0.642-0.18-0.108-0.42-0.151-0.656-0.114-0.322 0.052-0.76 0.038-0.961-0.084-0.185-0.113-0.716 0.09-0.747-0.103z" fill="#F5A5BD"/>
			<path stroke-width=".0571" d="m67.39 33.959c-0.016-0.083 0.496-0.046 0.58-0.349 0.033-0.122 0.18-0.31 0.334-0.394 0.307-0.166 0.742-0.103 1.053 0.193 0.129 0.125 0.32 0.23 0.512 0.209 0.129 0.243 0.057 0.519-0.115 0.642-0.18-0.108-0.42-0.151-0.656-0.114-0.322 0.052-0.76 0.038-0.961-0.084-0.185-0.113-0.716 0.09-0.747-0.103z" stroke="#000" fill="none"/>
			<path d="m69.753 34.261c0.066 0.038 0.125 0.087 0.17 0.144 0.451 0.555 0.736 0.89 1.498 0.812 0.137-0.015 0.271-0.028 0.398-0.043-0.322 0.309-0.412 0.403-0.658 0.403-0.244 0-0.664 0.207-0.652 0.593 0.207-0.101 1.072-0.348 1.594-0.283 0-0.076-0.104-0.283-0.232-0.309-0.129-0.025-0.141-0.2 0.336-0.445 0.402-0.041 0.746-0.053 1.031 0.059 0.232 0.091 0.387 0.166 0.387 0.387 0 0.077-0.025 0.249-0.199 0.181-0.258-0.104-0.58-0.128-0.779 0.22 0.398-0.077 1.205 0.36 1.49 0.568 0.024-0.155 0.012-0.349-0.103-0.4-0.117-0.053-0.162-0.22-0.162-0.284 0-0.137-0.006-0.277 0.064-0.395 0.072-0.116 0.045-0.23-0.096-0.314-0.143-0.084-0.162-0.188-0.143-0.316 0.477-0.02 1.205 0.213 1.561 0.496 0.252 0.201 0.451 0.052 0.459-0.07 0.104 0.059 0.166-0.122 0.115-0.226 0.119 0.05 0.215-0.22 0.168-0.287 0.119-0.22-0.252-0.357-0.812-0.423-0.883-0.103-1.057-0.556-1.574-0.62 0.176 0.036 0.248-0.105 0.232-0.198 0.246 0.077 0.381-0.026 0.373-0.193 0.439 0.057 0.627-0.104 0.574-0.258 0.266-0.015 0.33-0.221 0.188-0.357 0.221-0.045 0.277-0.179 0.26-0.282 0.211-0.02 0.352-0.175 0.281-0.284 0.344-0.014 0.451-0.129 0.465-0.29 0.277-0.008 0.502-0.176 0.492-0.316 0.365-0.013 0.617-0.207 0.58-0.367 0.393-0.014 0.605-0.143 0.553-0.342 0.477 0 0.949-0.039 0.852-0.252 0.453 0 0.691-0.22 0.652-0.311 0.561-0.006 0.709-0.47-0.096-0.482-0.004-0.082-0.35-0.067-0.686-0.065-1.676 0.013-3.289 0.039-3.832 0.025-0.541-0.013-1.92 0.271-1.855 1.225 0.062 0.955-0.117 1.188-0.607 1.446-0.107 0.055-0.203 0.11-0.291 0.169 0-0.271-0.121-0.699-0.289-0.685-0.014-0.348-0.221-0.516-0.361-0.439-0.025-0.322-0.309-0.644-0.49-0.516-0.078-0.182-0.193-0.336-0.426-0.284-0.129-0.348-0.438-0.465-0.58-0.309-0.143-0.245-0.426-0.323-0.555-0.169-0.154-0.233-0.451-0.336-0.58-0.18-0.188-0.168-0.361-0.271-0.549-0.188-0.277-0.245-0.619-0.342-0.779-0.18-0.381-0.215-0.51-0.104-0.574 0.044-0.271-0.206-0.652-0.2-0.717-0.007-0.541-0.336-1.373-0.037-0.6 0.258 0.773 0.297 1.928 0.962 2.549 1.581 0.488 0.489 1.133 0.734 1.611 0.722 0.477-0.012 0.736 0.065 0.98 0.259 0.246 0.192 0.35 0.48 0.31 0.764-0.191 0.019-0.369 0.049-0.531 0.216-0.102 0.108-0.188 0.145-0.299 0.157 0.073 0.141 0.122 0.47-0.116 0.64z" fill="#5C5B3D"/>
			<path stroke-width=".0571" d="m69.753 34.261c0.066 0.038 0.125 0.087 0.17 0.144 0.451 0.555 0.736 0.89 1.498 0.812 0.137-0.015 0.271-0.028 0.398-0.043-0.322 0.309-0.412 0.403-0.658 0.403-0.244 0-0.664 0.207-0.652 0.593 0.207-0.101 1.072-0.348 1.594-0.283 0-0.076-0.104-0.283-0.232-0.309-0.129-0.025-0.141-0.2 0.336-0.445 0.402-0.041 0.746-0.053 1.031 0.059 0.232 0.091 0.387 0.166 0.387 0.387 0 0.077-0.025 0.249-0.199 0.181-0.258-0.104-0.58-0.128-0.779 0.22 0.398-0.077 1.205 0.36 1.49 0.568 0.024-0.155 0.012-0.349-0.103-0.4-0.117-0.053-0.162-0.22-0.162-0.284 0-0.137-0.006-0.277 0.064-0.395 0.072-0.116 0.045-0.23-0.096-0.314-0.143-0.084-0.162-0.188-0.143-0.316 0.477-0.02 1.205 0.213 1.561 0.496 0.252 0.201 0.451 0.052 0.459-0.07 0.104 0.059 0.166-0.122 0.115-0.226 0.119 0.05 0.215-0.22 0.168-0.287 0.119-0.22-0.252-0.357-0.812-0.423-0.883-0.103-1.057-0.556-1.574-0.62 0.176 0.036 0.248-0.105 0.232-0.198 0.246 0.077 0.381-0.026 0.373-0.193 0.439 0.057 0.627-0.104 0.574-0.258 0.266-0.015 0.33-0.221 0.188-0.357 0.221-0.045 0.277-0.179 0.26-0.282 0.211-0.02 0.352-0.175 0.281-0.284 0.344-0.014 0.451-0.129 0.465-0.29 0.277-0.008 0.502-0.176 0.492-0.316 0.365-0.013 0.617-0.207 0.58-0.367 0.393-0.014 0.605-0.143 0.553-0.342 0.477 0 0.949-0.039 0.852-0.252 0.453 0 0.691-0.22 0.652-0.311 0.561-0.006 0.709-0.47-0.096-0.482-0.004-0.082-0.35-0.067-0.686-0.065-1.676 0.013-3.289 0.039-3.832 0.025-0.541-0.013-1.92 0.271-1.855 1.225 0.062 0.955-0.117 1.188-0.607 1.446-0.107 0.055-0.203 0.11-0.291 0.169 0-0.271-0.121-0.699-0.289-0.685-0.014-0.348-0.221-0.516-0.361-0.439-0.025-0.322-0.309-0.644-0.49-0.516-0.078-0.182-0.193-0.336-0.426-0.284-0.129-0.348-0.438-0.465-0.58-0.309-0.143-0.245-0.426-0.323-0.555-0.169-0.154-0.233-0.451-0.336-0.58-0.18-0.188-0.168-0.361-0.271-0.549-0.188-0.277-0.245-0.619-0.342-0.779-0.18-0.381-0.215-0.51-0.104-0.574 0.044-0.271-0.206-0.652-0.2-0.717-0.007-0.541-0.336-1.373-0.037-0.6 0.258 0.773 0.297 1.928 0.962 2.549 1.581 0.488 0.489 1.133 0.734 1.611 0.722 0.477-0.012 0.736 0.065 0.98 0.259 0.246 0.192 0.35 0.48 0.31 0.764-0.191 0.019-0.369 0.049-0.531 0.216-0.102 0.108-0.188 0.145-0.299 0.157 0.073 0.141 0.122 0.47-0.116 0.64z" stroke="#000" fill="none"/>
			<path d="m69.786 33.623c0.053 0.007 0.086 0.2 0.066 0.309-0.02 0.11-0.109 0.323-0.188 0.284-0.01 0.09 0.164 0.139 0.188 0.022 0.092-0.004 0.131-0.103 0.1-0.147 0.055-0.029 0.094-0.155 0.039-0.181 0.045-0.049 0.035-0.13-0.023-0.159 0.033-0.041 0.016-0.109-0.025-0.115 0.013-0.064-0.139-0.097-0.157-0.013z" fill="#fff"/>
			<path stroke-linejoin="bevel" d="m69.786 33.623c0.053 0.007 0.086 0.2 0.066 0.309-0.02 0.11-0.109 0.323-0.188 0.284-0.01 0.09 0.164 0.139 0.188 0.022 0.092-0.004 0.131-0.103 0.1-0.147 0.055-0.029 0.094-0.155 0.039-0.181 0.045-0.049 0.035-0.13-0.023-0.159 0.033-0.041 0.016-0.109-0.025-0.115 0.013-0.064-0.139-0.097-0.157-0.013z" stroke="#000" stroke-width=".0571" fill="none"/>
			<path stroke-width=".0571" d="m73.831 30.393c0.574 0.014 1.123 0 1.277-0.039 0.166-0.041 0.342-0.187 0.244-0.374m-0.244 0.374c0.74-0.007 1.336-0.02 1.58-0.031 0.246-0.014 0.479-0.175 0.289-0.395m-3.376 0.767c0.668 0.006 1.475 0.066 1.404-0.316m-0.199 0.259c0.477-0.014 1.205-0.033 1.445-0.033 0.236 0 0.51-0.051 0.465-0.282m-3.283 0.695c0.994-0.008 1.34 0.013 1.258-0.342m-1.362 0.619c0.568 0 1.244 0.059 1.121-0.309m-1.193 0.541c0.375 0.02 1.045 0.083 0.955-0.265m-1.065 0.627c0.477 0 0.947-0.014 0.807-0.361m-0.973 0.67c0.359-0.006 0.83-0.025 0.748-0.342m0.844-0.913c0.316-0.025 0.981-0.016 1.283-0.022 0.303-0.006 0.605-0.044 0.529-0.322m-2.038 0.626c0.395-0.007 1.02-0.052 1.213-0.052 0.195 0 0.502-0.013 0.465-0.258m-1.934 0.58c0.25-0.02 0.934-0.045 1.166-0.052 0.232-0.006 0.562-0.046 0.523-0.283m-1.935 0.652c0.334-0.02 0.762-0.007 0.961-0.02 0.252-0.017 0.611-0.075 0.527-0.352m-1.713 0.661c0.25-0.006 0.535 0 0.76-0.006 0.227-0.007 0.684-0.013 0.574-0.322m-2.226 0.753c0.227 0 0.912 0.091 0.809-0.38m-0.126 0.317c0.305-0.013 0.68-0.019 0.871-0.025 0.195-0.009 0.42-0.104 0.344-0.35m-2.193 0.735c0.422 0.029 0.955 0.062 0.814-0.302m-1.195 0.599c0.193-0.018 0.375 0 0.483 0 0.111 0 0.381-0.025 0.355-0.284m0.17-0.02c0.482 0.014 1.32 0.046 1.223-0.379m4.831-2.181c-0.199 0.02-1.723-0.051-2.174 0m1.522 0.31c-0.336 0-1.393-0.026-1.896 0m1.044 0.252c-0.295 0-0.902 0-1.309 0.025m0.757 0.317c-0.195 0.013-0.705-0.059-1.209-0.02m0.629 0.387c-0.254 0.014-0.756-0.039-1.125-0.025m0.632 0.342c-0.16 0.013-0.766-0.008-1.018-0.02m0.554 0.31c-0.146 0.006-0.656 0.025-0.883 0.025m0.601 0.259c-0.209 0.025-0.601 0.032-0.957 0.051m0.697 0.231c-0.182 0.047-0.684 0.047-0.908 0.047m0.721 0.31c-0.258 0.025-0.857-0.098-1.244-0.233m0.67 0.49c-0.412-0.039-0.877-0.272-1.244-0.479m0.871 0.673c-0.283-0.059-0.697-0.259-1.006-0.478m-1.137 0.258c0.117-0.039 0.646 0.026 0.789 0.097 0.141 0.071 0.359 0.052 0.289-0.122m0.627 0.347c0.025 0.116-0.201 0.266-0.479 0.116-0.277-0.149-0.871-0.438-1.451-0.373m-0.367-0.175c-0.143 0.049-0.281 0.056-0.412 0.068m0.516-0.209c-0.117 0.09-0.318 0.069-0.387-0.221-0.168-0.709-0.582-0.839-1.162-0.825-1.031 0.026-1.58-0.47-2.18-0.98-0.129-0.109-0.336-0.244-0.238-0.348s0.482 0.22 0.734 0.419m0.368 0.315c-0.264-0.23-0.871-0.663-0.715-0.87 0.154-0.205 0.723 0.432 1.006 0.69m-0.336-0.321c-0.141-0.129-0.316-0.258-0.193-0.4 0.119-0.138 0.812 0.516 1.232 0.929m-0.619-0.575c-0.076-0.058-0.135-0.187-0.064-0.257 0.096-0.098 0.678 0.18 1.25 0.883m-0.659-0.646c0.092-0.084 0.42 0 0.646 0.207 0.227 0.206 0.418 0.434 0.568 0.612m-0.587-0.638c0.174-0.019 0.484 0.214 0.756 0.536 0.27 0.322 0.516 0.677 0.398 1.128m-5.185-3.012c0.311 0.199 0.994 0.69 1.4 1m-0.684-0.993c0.34 0.192 0.797 0.596 1.092 0.841m-0.517-0.885c0.219 0.114 0.889 0.669 1.225 0.94m-0.446-0.76c0.227 0.174 0.756 0.612 0.941 0.799m-0.392-0.612c0.182 0.146 0.605 0.618 0.795 0.818m-0.215-0.638c0.09 0.122 0.322 0.459 0.459 0.646m0.096-0.477c0.084 0.129 0.277 0.496 0.361 0.676m0.219-0.368c0.064 0.148 0.123 0.425 0.162 0.593m0.263-0.308c0.064 0.141 0.115 0.509 0.148 0.772m0.343-0.257c0.025 0.174 0.053 0.528-0.051 0.826m0.412-0.387c0 0.116-0.037 0.31-0.096 0.425m0.225 1.161c0.154 0 0.529 0.103 0.633 0.22 0.103 0.116 0.535 0.175 0.432-0.09m-1.606 0.864c0.244 0.052 0.773 0.013 0.967-0.025 0.193-0.039 0.182-0.156 0.039-0.168m-0.53-0.014c0.18 0 0.465-0.129 0.322-0.154s-0.566-0.092-0.695-0.102m4.567 1.256c-0.172-0.116-0.533-0.287-0.865-0.391m0.98 0.165c-0.148-0.064-0.539-0.245-0.756-0.297m0.924 0.01c-0.07 0.096-0.475-0.016-0.717-0.131m-6.849-0.964c0.033-0.115 0.162-0.225 0.316-0.146-0.045 0.145-0.246 0.058-0.264 0.074m3.334 1.592c0.135-0.017 0.264-0.029 0.387-0.042m-0.459-2.558c-0.312 0.204-0.502 0.416-0.637 0.604-0.26 0.361-0.697 0.117-0.98 0.582m3.482-0.054c-0.031-0.007-0.066-0.019-0.104-0.038-0.193-0.096-0.807-0.521-1.135-0.554m6.646-3.34c0.012 0.309-0.736 0.206-1.422 0.167-0.682-0.038-2.424 0-3.223 0.142-0.871 0.155-1.084 1.406-1.227 1.807-0.141 0.399-0.863 1.238-1.535 1.432" stroke="#000" fill="none"/>
			<path d="m76.702 42.13c0.002-0.08 0.004-0.162 0.004-0.245 0-3.345-2.107-6.056-4.707-6.056s-4.705 2.711-4.705 6.056c0 0.083 0 0.165 0.004 0.245l1.613-0.642c0.135-2.402 1.467-4.289 3.088-4.289 1.625 0 2.957 1.887 3.088 4.289l1.615 0.642z" fill="#FFE01B"/>
			<path stroke-width=".0571" d="m76.702 42.13c0.002-0.08 0.004-0.162 0.004-0.245 0-3.345-2.107-6.056-4.707-6.056s-4.705 2.711-4.705 6.056c0 0.083 0 0.165 0.004 0.245l1.613-0.642c0.135-2.402 1.467-4.289 3.088-4.289 1.625 0 2.957 1.887 3.088 4.289l1.615 0.642z" stroke="#000" fill="none"/>
			<path d="m68.968 40.093c0.02-0.086-0.023-0.178-0.109-0.2-0.047-0.013-0.117-0.03-0.18-0.047-0.078-0.02-0.186 0.027-0.217 0.151-0.033 0.125-0.047 0.177-0.051 0.196l-0.053-0.014c0.072-0.279 0.014-0.356-0.072-0.379-0.045-0.012-0.139-0.036-0.172-0.044-0.104-0.026-0.142 0.054-0.152 0.091-0.008 0.035-0.025 0.096-0.035 0.139-0.012 0.041-0.014 0.079 0.029 0.09l0.402 0.104 0.053 0.014 0.447 0.116c0.033 0.008 0.061-0.032 0.068-0.063 0.009-0.033 0.018-0.068 0.042-0.154l0.059-0.009c-0.066 0.253-0.205 0.788-0.205 0.788l-0.031-0.008c0.01-0.087 0.014-0.193-0.08-0.218l-0.799-0.204c-0.096-0.025-0.143 0.069-0.176 0.148l-0.033-0.008s0.119-0.458 0.186-0.711c0.068-0.271 0.213-0.493 0.396-0.446 0.18 0.046 0.176 0.248 0.166 0.398 0.07-0.172 0.201-0.376 0.391-0.328 0.174 0.046 0.252 0.33 0.186 0.588l-0.06 0.01z" fill="#E03A3E"/>
			<path d="m69.64 38.571c-0.137 0.209-0.414 0.195-0.666 0.031-0.25-0.16-0.377-0.408-0.242-0.618 0.135-0.209 0.412-0.194 0.664-0.031 0.251 0.162 0.378 0.408 0.244 0.618l0.031 0.021c0.262-0.407 0.191-0.773-0.078-0.947-0.268-0.173-0.633-0.086-0.893 0.319-0.262 0.405-0.193 0.774 0.076 0.949 0.268 0.172 0.633 0.083 0.895-0.321l-0.031-0.021z" fill="#E03A3E"/>
			<path d="m70.321 36.378l0.018 0.029c-0.082 0.06-0.152 0.127-0.104 0.21l0.398 0.7c0.049 0.084 0.111 0.082 0.172 0.047 0.051-0.028 0.102-0.059 0.166-0.095 0.148-0.084 0.295-0.278 0.246-0.514l0.055-0.032 0.111 0.379-1.135 0.647-0.016-0.028c0.078-0.059 0.168-0.137 0.121-0.22l-0.41-0.719c-0.049-0.084-0.141-0.058-0.232-0.018l-0.016-0.03 0.626-0.356z" fill="#E03A3E"/>
			<path d="m72.206 36.926c-0.004 0.098 0.111 0.124 0.211 0.139l-0.002 0.034-0.791-0.028 0.002-0.034c0.098-0.008 0.215-0.026 0.217-0.123l0.029-0.825c0.004-0.098-0.111-0.125-0.209-0.14l0.002-0.033 0.789 0.028v0.032c-0.1 0.008-0.215 0.026-0.219 0.124l-0.029 0.826z" fill="#E03A3E"/>
			<path d="m73.468 36.358c0.01-0.114-0.012-0.132-0.08-0.185l0.02-0.028 0.594 0.418-0.018 0.028c-0.08-0.051-0.205-0.133-0.221 0.007l-0.072 0.705 0.619-0.306c0.152-0.079 0.027-0.154-0.057-0.216l0.02-0.029 0.383 0.27-0.02 0.028c-0.076-0.047-0.086-0.066-0.189-0.014l-1.041 0.52-0.057-0.041 0.119-1.157z" fill="#E03A3E"/>
			<path d="m74.55 38.593c-0.08 0.051-0.039 0.161 0.004 0.25l-0.027 0.019-0.424-0.668 0.027-0.018c0.062 0.076 0.145 0.162 0.227 0.11l0.697-0.443c0.082-0.051 0.039-0.162-0.004-0.251l0.029-0.018 0.422 0.668-0.027 0.018c-0.062-0.078-0.145-0.163-0.227-0.11l-0.697 0.443z" fill="#E03A3E"/>
			<path d="m75.255 39.482l0.123 0.424c0.316-0.318 0.33-0.33 0.33-0.33s-0.158-0.032-0.453-0.094l-0.082-0.017c-0.049-0.011-0.105-0.022-0.162-0.036-0.146-0.031-0.127 0.068-0.111 0.195l-0.031 0.009-0.129-0.433 0.033-0.01c0.027 0.067 0.105 0.116 0.184 0.139 1.084 0.233 1.096 0.236 1.096 0.236l0.024 0.075s-0.035 0.038-0.785 0.787c-0.055 0.054-0.109 0.083-0.084 0.233l-0.033 0.009-0.209-0.714 0.031-0.01c0.059 0.141 0.1 0.229 0.189 0.153 0.051-0.05 0.096-0.095 0.137-0.136l-0.148-0.499 0.08 0.019z" fill="#E03A3E"/>
</g>
</svg>
