<?xml version="1.0" encoding="UTF-8" standalone="no"?>
<!-- Generator: Adobe Illustrator 18.0.0, SVG Export Plug-In . SVG Version: 6.00 Build 0)  -->
<!DOCTYPE svg  PUBLIC '-//W3C//DTD SVG 1.1//EN'  'http://www.w3.org/Graphics/SVG/1.1/DTD/svg11.dtd'>
<svg style="enable-background:new 0 0 144 80" xmlns="http://www.w3.org/2000/svg" xml:space="preserve" version="1.1" y="0px" x="0px" xmlns:xlink="http://www.w3.org/1999/xlink" viewBox="0 0 144 80">
<g id="HKG">
		<polygon points="144 80 144 0 0 0 0 80" fill="#DE2910"/>
			<path d="m71.804 41.699" fill="#fff"/>
			<path d="m79.283 17.899c-2.407-4.095-9.917-6.549-14.164 0.731-4.23 7.248 0.804 18.5 5.374 22.416-2.721-4.292-2.537-7.722-0.84-12.445 0.125-0.349 0.766-0.185 0.627 0.169-1.638 4.193-1.881 8.039 0.867 12.018-1.207-3.272-1.426-5.812 1.6-7.127 5.461-2.373 6.226-7.454 3.969-11.312-2.265-3.866-0.545-6.436 2.567-4.45z" fill="#fff"/>
			<polygon points="71.396 24.668 71.337 26.507 73.066 27.129 71.3 27.642 71.242 29.48 70.209 27.958 68.444 28.471 69.571 27.019 68.538 25.496 70.267 26.121" fill="#EC1C2E"/>
			<path d="m51.463 27.317c-4.637 1.024-9.292 7.408-3.681 13.696 5.588 6.261 17.844 4.953 22.98 1.815-4.923 1.263-8.126 0.026-12.095-3.047-0.295-0.228 0.061-0.785 0.355-0.544 3.48 2.853 7.062 4.274 11.695 2.889-3.484 0.138-5.967-0.438-6.283-3.723-0.569-5.926-5.166-8.224-9.531-7.268-4.375 0.957-6.287-1.471-3.44-3.818z" fill="#fff"/>
			<polygon points="55.466 36.91 57.195 37.534 58.323 36.082 58.263 37.92 59.993 38.543 58.228 39.057 58.169 40.894 57.136 39.372 55.37 39.886 56.498 38.432" fill="#EC1C2E"/>
			<path d="m51.825 56.688c-0.459 4.726 4.174 11.124 11.889 7.731 7.682-3.378 10.225-15.439 8.828-21.293-0.321 5.071-2.486 7.737-6.637 10.562-0.305 0.208-0.727-0.3-0.407-0.506 3.79-2.429 6.248-5.398 6.362-10.232-0.945 3.357-2.262 5.541-5.481 4.825-5.812-1.29-9.42 2.371-9.86 6.82-0.441 4.456-3.342 5.525-4.694 2.093z" fill="#fff"/>
			<polygon points="62.186 55.845 63.313 54.393 62.28 52.871 64.01 53.494 65.138 52.042 65.079 53.881 66.81 54.503 65.044 55.016 64.985 56.854 63.952 55.332" fill="#EC1C2E"/>
			<path d="m79.869 65.417c4.353 1.897 11.87-0.531 11.026-8.915-0.84-8.351-11.523-14.496-17.521-14.978 4.723 1.872 6.59 4.756 7.994 9.574 0.102 0.358-0.512 0.6-0.607 0.232-1.141-4.354-3.203-7.608-7.764-9.213 2.898 1.938 4.568 3.864 2.894 6.706-3.022 5.128-0.655 9.69 3.438 11.483 4.104 1.799 4.223 4.887 0.54 5.111z" fill="#fff"/>
			<polygon points="82.27 55.305 81.237 53.783 79.472 54.294 80.599 52.843 79.565 51.321 81.295 51.945 82.423 50.492 82.364 52.331 84.094 52.954 82.328 53.467" fill="#EC1C2E"/>
			<path d="m96.837 41.444c3.15-3.552 3.164-11.454-5.071-13.242-8.2-1.783-17.348 6.48-19.658 12.036 3.24-3.913 6.56-4.798 11.575-4.643 0.371 0.01 0.414 0.669 0.033 0.647-4.494-0.262-8.225 0.695-11.16 4.538 2.739-2.16 5.086-3.153 7.271-0.682 3.943 4.46 9.014 3.618 11.984 0.279 2.977-3.346 5.952-2.503 5.026 1.067z" fill="#fff"/>
			<polygon points="87.962 36.036 86.195 36.549 86.138 38.386 85.104 36.865 83.337 37.377 84.466 35.924 83.434 34.403 85.163 35.027 86.291 33.575 86.231 35.413" fill="#EC1C2E"/>
</g>
</svg>
