<?xml version="1.0" encoding="UTF-8" standalone="no"?>
<!-- Generator: Adobe Illustrator 18.0.0, SVG Export Plug-In . SVG Version: 6.00 Build 0)  -->
<!DOCTYPE svg  PUBLIC '-//W3C//DTD SVG 1.1//EN'  'http://www.w3.org/Graphics/SVG/1.1/DTD/svg11.dtd'>
<svg style="enable-background:new 0 0 144 80" xmlns="http://www.w3.org/2000/svg" xml:space="preserve" version="1.1" y="0px" x="0px" xmlns:xlink="http://www.w3.org/1999/xlink" viewBox="0 0 144 80">
<g id="NCA">
		<polygon points="144 80 144 0 0 0 0 80" fill="#0067C6"/>
		<polygon points="144 53.334 0 53.334 0 26.664 144 26.664" fill="#fff"/>
			<path d="m71.96 40" fill="#003876"/>
			<path stroke-width=".0347" d="m71.96 40" stroke="#000" fill="none"/>
			<polygon points="80.292 44.693 71.96 30.482 63.628 44.693" fill="#003876"/>
			<polygon points="63.894 44.524 71.96 30.824 80.028 44.524" fill="#FFCE46"/>
			<polygon points="64.161 44.357 71.96 31.162 79.759 44.357" fill="#003876"/>
			<polygon points="79.487 44.188 71.96 31.498 64.433 44.188" fill="#fff"/>
			<polygon stroke-width=".0347" points="79.487 44.188 71.96 31.498 64.433 44.188" stroke="#000" fill="none"/>
			<path d="m71.493 38.483c-0.033 0-0.061-0.009-0.105-0.009-0.037 0-0.025-0.013-0.025-0.092 0-0.293 0.016-0.556 0.125-0.657s0.24-0.119 0.332-0.119c0.096 0 0.133-0.091 0.018-0.124-0.109-0.037-0.178-0.055-0.316-0.043-0.006-0.179 0.059-0.362 0.275-0.362 0.115 0 0.18 0.011 0.354 0.011 0.18 0 0.387 0.255 0.387 0.537 0 0.339-0.01 0.668-0.01 0.777 0 0.103-0.064 0.128-0.156 0.128-0.096 0-0.172-0.003-0.234-0.003-0.053 0-0.096-0.007-0.096 0.1 0 0.11-0.014 0.217-0.014 0.316 0 0.107-0.082 0.169-0.227 0.095-0.142-0.074-0.208-0.191-0.308-0.555z" fill="#EE3E42"/>
			<polygon points="60.604 37.879 60.489 38.643 60.835 38.69 60.937 38.002 61.22 38.048 61.12 38.735 61.522 38.8 61.64 38.034 61.892 38.068 61.729 39.145 60.185 38.914 60.347 37.836" fill="#FFCE46"/>
			<path d="m61.034 36.98c0.129 0.044 0.27 0.086 0.27 0.086s0.043-0.146 0.086-0.282c0.045-0.139-0.039-0.269-0.185-0.31-0.143-0.048-0.246 0.038-0.285 0.162-0.039 0.115-0.084 0.287-0.084 0.287-0.003-0.002 0.093 0.027 0.198 0.057l-0.07 0.282-0.469-0.146s0.08-0.264 0.195-0.625c0.076-0.249 0.332-0.368 0.602-0.284 0.232 0.072 0.434 0.322 0.352 0.584-0.047 0.159-0.111 0.347-0.111 0.347l0.541 0.173-0.088 0.271-1.021-0.318 0.069-0.284z" fill="#FFCE46"/>
			<path d="m62.491 35.477c0.094-0.191-0.008-0.308-0.127-0.363-0.113-0.056-0.922-0.455-0.922-0.455l0.133-0.273s0.732 0.367 0.922 0.457c0.225 0.107 0.418 0.352 0.227 0.752-0.195 0.394-0.508 0.387-0.736 0.272-0.182-0.09-0.924-0.457-0.924-0.457l0.135-0.267s0.811 0.397 0.926 0.458c0.122 0.053 0.272 0.067 0.366-0.124z" fill="#FFCE46"/>
			<path d="m62.995 34.094c0.082 0.064 0.18 0.129 0.18 0.129s0.176-0.247 0.234-0.331c0.062-0.082 0.035-0.189-0.068-0.265-0.107-0.068-0.205-0.059-0.266 0.024-0.059 0.086-0.24 0.332-0.24 0.332 0.004 0.002 0.078 0.058 0.16 0.111l-0.184 0.256c-0.17-0.125-0.361-0.263-0.521-0.374l0.184-0.249c0.076 0.047 0.143 0.103 0.143 0.103s0.143-0.192 0.229-0.312c0.078-0.11 0-0.216-0.035-0.239-0.061-0.041-0.182-0.055-0.244 0.037-0.066 0.098-0.225 0.311-0.225 0.311 0.004 0.002 0.068 0.051 0.133 0.102l-0.184 0.249c-0.193-0.145-0.346-0.249-0.346-0.249s0.1-0.141 0.348-0.49c0.17-0.24 0.436-0.374 0.646-0.219 0.1 0.064 0.168 0.187 0.184 0.318 0.129-0.035 0.248-0.036 0.404 0.079 0.156 0.108 0.315 0.347 0.086 0.661-0.154 0.218-0.399 0.558-0.399 0.558s-0.178-0.124-0.402-0.284l0.183-0.258z" fill="#FFCE46"/>
			<polygon points="63.347 31.94 64.259 32.832 64.745 32.339 64.944 32.533 64.241 33.259 63.128 32.163" fill="#FFCE46"/>
			<polygon points="65.284 32.241 64.3 31.024 64.54 30.831 65.528 32.042" fill="#FFCE46"/>
			<path d="m66.218 30.309c-0.047-0.082-0.201-0.184-0.408-0.059-0.207 0.13-0.197 0.361-0.029 0.621 0.162 0.256 0.396 0.362 0.572 0.247 0.178-0.107 0.184-0.309 0.121-0.408l0.229-0.144c0.174 0.277 0.08 0.602-0.225 0.788-0.307 0.195-0.684 0.062-0.932-0.336-0.252-0.399-0.203-0.795 0.119-1 0.33-0.2 0.656-0.064 0.787 0.144l-0.234 0.147z" fill="#FFCE46"/>
			<path d="m70.259 29.066c0.031 0.261 0.062 0.531 0.062 0.533 0 0 0.152-0.016 0.244-0.031 0.1-0.012 0.367-0.085 0.309-0.575-0.051-0.453-0.316-0.458-0.414-0.447-0.053 0.011-0.252 0.033-0.252 0.033s0.023 0.24 0.051 0.487l-0.287 0.039c-0.043-0.378-0.082-0.753-0.082-0.753 0.156-0.017 0.383-0.049 0.578-0.066 0.191-0.02 0.621-0.016 0.697 0.655 0.043 0.425-0.113 0.848-0.467 0.893-0.353 0.038-0.635 0.073-0.635 0.073s-0.047-0.403-0.092-0.802l0.288-0.039z" fill="#FFCE46"/>
			<polygon points="72.991 28.487 72.224 28.445 72.204 28.796 72.897 28.827 72.886 29.119 72.192 29.08 72.171 29.496 72.94 29.531 72.929 29.784 71.839 29.733 71.921 28.174 73.007 28.221" fill="#FFCE46"/>
			<polygon points="75.257 28.637 75.501 29.701 75.788 28.808 76.081 28.901 75.604 30.39 75.323 30.302 75.054 29.166 74.749 30.113 74.45 30.018 74.929 28.529" fill="#FFCE46"/>
			<polygon points="76.097 30.598 76.761 29.184 77.044 29.312 76.378 30.727" fill="#FFCE46"/>
			<path d="m78.239 30.602c0.055-0.08 0.082-0.269-0.123-0.393-0.209-0.134-0.404-0.024-0.57 0.241-0.164 0.255-0.152 0.511 0.023 0.625 0.174 0.108 0.354 0.028 0.418-0.071l0.229 0.146c-0.172 0.271-0.502 0.329-0.807 0.136-0.307-0.191-0.35-0.589-0.105-0.983 0.26-0.399 0.629-0.53 0.955-0.323 0.326 0.201 0.344 0.561 0.215 0.768l-0.235-0.146z" fill="#FFCE46"/>
			<path d="m82.813 36.574c0.123-0.106 0.176-0.249 0.123-0.398-0.07-0.222-0.324-0.296-0.619-0.192-0.289 0.101-0.447 0.318-0.367 0.542 0.064 0.184 0.223 0.269 0.422 0.215l-0.1-0.283 0.232-0.082 0.182 0.529-0.75 0.264-0.061-0.17c0.051-0.022 0.113-0.054 0.158-0.09-0.154-0.035-0.268-0.143-0.338-0.309-0.135-0.334 0.098-0.733 0.537-0.886 0.436-0.151 0.809-0.006 0.943 0.382 0.104 0.305-0.01 0.623-0.283 0.715l-0.079-0.237z" fill="#FFCE46"/>
			<path d="m82.386 38.209c0.033 0.215 0.182 0.245 0.312 0.224 0.129-0.017 1.016-0.165 1.016-0.165l0.051 0.299s-0.812 0.128-1.016 0.166c-0.248 0.035-0.547-0.046-0.621-0.476-0.068-0.438 0.186-0.613 0.439-0.656 0.197-0.031 1.012-0.166 1.012-0.166l0.051 0.299s-0.891 0.146-1.021 0.165c-0.13 0.02-0.258 0.099-0.223 0.31z" fill="#FFCE46"/>
			<path d="m62.302 45.869c0.059 0.085 0.115 0.177 0.115 0.177l0.438-0.497-0.646 0.165c-0.001 0 0.05 0.075 0.093 0.155l-0.223 0.128c-0.07-0.114-0.133-0.215-0.133-0.215l-0.322 0.083-0.154-0.247 1.59-0.4 0.178 0.294-1.066 1.242-0.152-0.247 0.223-0.25s-0.09-0.139-0.162-0.26l0.221-0.128z" fill="#FFCE46"/>
			<polygon points="62.95 47.748 63.647 46.739 62.761 47.543 62.567 47.329 63.724 46.274 64.024 46.614 63.323 47.613 64.388 47.011 64.692 47.343 63.532 48.39 63.341 48.181 64.222 47.375 63.151 47.971" fill="#FFCE46"/>
			<polygon points="65.817 48.627 65.208 48.152 64.993 48.43 65.54 48.854 65.364 49.082 64.813 48.657 64.563 48.98 65.169 49.455 65.013 49.659 64.155 48.986 65.114 47.752 65.978 48.424" fill="#FFCE46"/>
			<path d="m66.388 49.498c0.092 0.045 0.217 0.116 0.266 0.146 0.086 0.046 0.199 0.016 0.264-0.101 0.059-0.108 0.02-0.222-0.084-0.273-0.094-0.057-0.34-0.196-0.34-0.196l-0.203 0.365c-0.001 0 0.04 0.022 0.097 0.059l-0.109 0.255c-0.078-0.044-0.125-0.07-0.125-0.07l-0.297 0.529-0.277-0.151s0.768-1.37 0.768-1.368c0 0 0.557 0.31 0.746 0.422 0.186 0.102 0.189 0.356 0.08 0.555-0.107 0.192-0.334 0.239-0.4 0.196 0.09 0.054 0.137 0.21 0.039 0.377-0.043 0.085-0.211 0.385-0.211 0.385l-0.266-0.148s0.086-0.154 0.178-0.32c0.098-0.164 0.045-0.25-0.094-0.324-0.053-0.027-0.098-0.059-0.141-0.081l0.109-0.257z" fill="#FFCE46"/>
			<polygon points="67.202 50.908 67.794 49.458 68.079 49.58 67.487 51.023" fill="#FFCE46"/>
			<path d="m69.345 50.556c0.029-0.091-0.002-0.272-0.231-0.338-0.24-0.065-0.402 0.099-0.48 0.397-0.086 0.297 0.006 0.538 0.205 0.587 0.197 0.059 0.348-0.073 0.383-0.186l0.256 0.072c-0.082 0.312-0.383 0.464-0.729 0.371-0.354-0.102-0.51-0.465-0.383-0.918 0.127-0.457 0.447-0.689 0.812-0.59 0.373 0.105 0.492 0.441 0.43 0.677l-0.263-0.072z" fill="#FFCE46"/>
			<path d="m73.933 50.704c-0.014-0.094-0.115-0.251-0.357-0.216-0.236 0.042-0.32 0.258-0.271 0.561 0.049 0.3 0.225 0.489 0.432 0.453 0.209-0.03 0.287-0.209 0.271-0.327l0.27-0.046c0.045 0.326-0.162 0.586-0.52 0.644-0.359 0.05-0.652-0.216-0.723-0.681-0.074-0.466 0.125-0.809 0.498-0.869 0.383-0.062 0.629 0.194 0.666 0.436l-0.266 0.045z" fill="#FFCE46"/>
			<polygon points="75.628 49.967 74.894 50.202 74.999 50.532 75.663 50.318 75.743 50.594 75.087 50.803 75.214 51.195 75.946 50.959 76.024 51.2 74.985 51.537 74.511 50.05 75.546 49.712" fill="#FFCE46"/>
			<polygon points="76.288 49.402 77.208 49.996 76.782 49.154 77.062 49.013 77.763 50.41 77.501 50.545 76.511 49.929 76.96 50.814 76.681 50.957 75.978 49.561" fill="#FFCE46"/>
			<polygon points="78.765 49.776 78.003 48.726 77.63 48.991 77.478 48.777 78.444 48.075 78.599 48.288 78.228 48.561 78.995 49.61" fill="#FFCE46"/>
			<polygon points="81.056 44.932 82.2 45.512 82.515 44.894 82.767 45.021 82.308 45.92 80.919 45.212" fill="#FFCE46"/>
			<path d="m70.687 51.251c0.102 0.01 0.207 0.021 0.207 0.021l-0.129-0.651-0.258 0.614c0-0.001 0.082 0.007 0.18 0.016l-0.041 0.256c-0.125-0.013-0.248-0.023-0.248-0.023l-0.133 0.308-0.291-0.029 0.656-1.507 0.344 0.038 0.336 1.602-0.293-0.027-0.062-0.326s-0.158-0.016-0.309-0.034l0.041-0.258z" fill="#FFCE46"/>
			<path d="m81.097 46.703c0.062-0.084 0.123-0.172 0.123-0.172l-0.633-0.213 0.406 0.533c0 0.001 0.047-0.073 0.104-0.148l0.207 0.162c-0.08 0.103-0.146 0.199-0.146 0.199l0.197 0.269-0.17 0.238-0.977-1.317 0.199-0.283 1.561 0.513-0.17 0.237-0.316-0.104s-0.096 0.125-0.178 0.249l-0.207-0.163z" fill="#FFCE46"/>
			<path d="m79.567 47.985c0.07-0.072 0.176-0.172 0.213-0.216 0.072-0.064 0.07-0.185-0.021-0.275-0.092-0.088-0.209-0.079-0.289 0.002-0.078 0.079-0.279 0.281-0.279 0.281l0.293 0.289c-0.001 0 0.035-0.03 0.083-0.081l0.215 0.177c-0.055 0.06-0.098 0.105-0.098 0.105l0.426 0.425-0.217 0.222s-1.107-1.104-1.107-1.103c0 0 0.447-0.452 0.604-0.607 0.15-0.151 0.396-0.086 0.555 0.072 0.16 0.159 0.143 0.385 0.086 0.446 0.072-0.076 0.234-0.075 0.373 0.062 0.07 0.063 0.311 0.31 0.311 0.31l-0.209 0.208s-0.127-0.119-0.264-0.255c-0.137-0.137-0.231-0.104-0.338 0.002-0.043 0.043-0.086 0.081-0.121 0.113l-0.216-0.177z" fill="#FFCE46"/>
			<path d="m82.868 39.976c0 0.102-0.002 0.207-0.002 0.207l0.637-0.189-0.635-0.203v0.185l-0.266-0.013c0-0.132 0.002-0.256 0.002-0.256l-0.318-0.098 0.002-0.294 1.561 0.506-0.002 0.345-1.564 0.488 0.002-0.288 0.318-0.097v-0.307l0.265 0.014z" fill="#FFCE46"/>
			<path d="m81.456 34.68c0.047 0.09 0.102 0.184 0.102 0.184l0.459-0.479-0.654 0.138c-0.001-0.001 0.046 0.077 0.093 0.157l-0.238 0.112c-0.059-0.11-0.119-0.215-0.119-0.215l-0.326 0.065-0.143-0.256 1.611-0.322 0.166 0.303-1.127 1.191-0.139-0.255 0.225-0.237s-0.07-0.142-0.148-0.274l0.238-0.112z" fill="#FFCE46"/>
			<path d="m79.161 31.867c0.076 0.07 0.156 0.144 0.156 0.144l0.279-0.606-0.574 0.339s0.071 0.06 0.139 0.123l-0.184 0.184c-0.098-0.086-0.182-0.166-0.182-0.166l-0.289 0.171-0.219-0.192 1.412-0.837 0.256 0.231-0.668 1.495-0.221-0.191 0.139-0.302c0-0.002-0.117-0.105-0.229-0.209l0.185-0.184z" fill="#FFCE46"/>
			<path d="m67.759 30.026c0.102-0.035 0.197-0.08 0.197-0.08l-0.42-0.508 0.057 0.659s0.082-0.032 0.166-0.071l0.092 0.251c-0.121 0.046-0.234 0.096-0.234 0.096l0.031 0.33-0.27 0.108-0.135-1.629 0.318-0.133 1.053 1.256-0.267 0.109-0.213-0.256s-0.148 0.062-0.283 0.119l-0.092-0.251z" fill="#FFCE46"/>
			<path d="m60.833 40.38c0-0.101 0-0.245-0.002-0.305 0-0.097-0.09-0.177-0.219-0.177-0.125 0-0.203 0.09-0.201 0.201 0.002 0.114 0.002 0.395 0.002 0.395l0.42-0.003v-0.111l0.277-0.034v0.145l0.608-0.002 0.002 0.311-1.564 0.008s-0.002-0.634-0.004-0.854c0-0.209 0.221-0.342 0.442-0.342 0.227-0.002 0.373 0.169 0.373 0.252 0-0.105 0.113-0.223 0.307-0.225 0.098 0 0.441-0.002 0.441-0.002l0.002 0.302s-0.176 0.001-0.371 0.002c-0.188 0.001-0.236 0.09-0.234 0.243v0.163l-0.279 0.033z" fill="#FFCE46"/>
			<path d="m80.565 32.866c0.066 0.081 0.154 0.189 0.193 0.24 0.062 0.074 0.18 0.086 0.275 0.005 0.105-0.079 0.109-0.2 0.031-0.288-0.064-0.088-0.242-0.31-0.242-0.31l-0.326 0.264c0.001 0 0.032 0.036 0.069 0.089l-0.197 0.193c-0.053-0.065-0.094-0.107-0.094-0.107l-0.473 0.38-0.193-0.244s1.227-0.981 1.225-0.979c0 0 0.395 0.494 0.529 0.669 0.135 0.167 0.043 0.407-0.133 0.541-0.178 0.142-0.395 0.102-0.447 0.036 0.066 0.084 0.049 0.244-0.102 0.368-0.082 0.056-0.346 0.27-0.346 0.27l-0.188-0.233s0.135-0.109 0.285-0.231c0.148-0.115 0.133-0.218 0.037-0.337-0.041-0.048-0.072-0.088-0.102-0.131l0.199-0.195z" fill="#FFCE46"/>
			<path d="m61.339 43.222c0.149 0 0.271-0.116 0.271-0.267 0-0.149-0.123-0.273-0.271-0.273-0.15 0-0.271 0.124-0.271 0.273-0.001 0.15 0.12 0.267 0.271 0.267z" fill="#FFCE46"/>
			<path d="m82.579 43.222c-0.146 0-0.271-0.116-0.271-0.267 0-0.149 0.125-0.273 0.271-0.273 0.15 0 0.271 0.124 0.271 0.273 0.001 0.15-0.121 0.267-0.271 0.267z" fill="#FFCE46"/>
			<path d="m68.581 37.189l-0.301 0.51 2.422 0.48c-0.004-0.055-0.006-0.11-0.006-0.159l-2.115-0.831z" fill="#B3D2EE"/>
			<path d="m69.362 35.87l-0.248 0.434 1.771 0.816c0.02-0.036 0.043-0.076 0.062-0.11l-1.585-1.14z" fill="#B3D2EE"/>
			<path d="m69.001 36.483l-0.248 0.418 1.965 0.762c0.006-0.057 0.018-0.104 0.027-0.156l-1.744-1.024z" fill="#B3D2EE"/>
			<path d="m72.978 38.952l2.768 1.954c0.266-0.017 0.986-0.045 1.133-0.051l-3.824-2.051c-0.025 0.047-0.048 0.1-0.077 0.148z" fill="#B3D2EE"/>
			<path d="m71.843 39.602l-0.125 1.338c0.072-0.001 0.221-0.002 0.244-0.003v-1.329h-0.002c-0.035-0.001-0.076-0.004-0.117-0.006z" fill="#B3D2EE"/>
			<path d="m72.034 36.363l0.326-4.188-0.4-0.678-0.17 0.292 0.145 4.571c0.008-0.003 0.016-0.003 0.025-0.003 0.023 0.001 0.049 0.004 0.074 0.006z" fill="#B3D2EE"/>
			<path d="m77.167 40.279l-0.633-1.07-3.371-0.717c-0.018 0.072-0.039 0.135-0.066 0.201l4.07 1.586z" fill="#B3D2EE"/>
			<path d="m76.071 38.428l-0.367-0.619-2.486 0.362c-0.006 0.067-0.014 0.133-0.027 0.201l2.88 0.056z" fill="#B3D2EE"/>
			<path d="m75.509 37.48l-0.275-0.467-2.02 0.743c0.006 0.065 0.008 0.128 0.01 0.195l2.285-0.471z" fill="#B3D2EE"/>
			<path d="m74.974 36.58l-0.191-0.322-1.643 1.139c0.018 0.049 0.033 0.104 0.043 0.16l1.791-0.977z" fill="#B3D2EE"/>
			<path d="m74.612 35.965l-0.242-0.407-1.371 1.495c0.027 0.052 0.051 0.105 0.072 0.154l1.541-1.242z" fill="#B3D2EE"/>
			<path d="m74.274 35.396l-0.162-0.271-1.287 1.675c0.033 0.04 0.06 0.076 0.086 0.112l1.363-1.516z" fill="#B3D2EE"/>
			<path d="m73.97 34.881l-0.16-0.27-1.219 1.965c0.033 0.023 0.068 0.056 0.102 0.082l1.277-1.777z" fill="#B3D2EE"/>
			<path d="m73.603 34.269l-0.23-0.388-0.955 2.591c0.035 0.018 0.074 0.037 0.111 0.064l1.074-2.267z" fill="#B3D2EE"/>
			<path d="m73.077 33.387l-0.312-0.522-0.617 3.519c0.039 0.006 0.07 0.013 0.105 0.021l0.824-3.018z" fill="#B3D2EE"/>
			<path d="m71.368 32.492l-0.33 0.558 0.68 3.343c0.029-0.007 0.064-0.012 0.094-0.018l-0.444-3.883z" fill="#B3D2EE"/>
			<path d="m70.753 33.528l-0.238 0.409 0.984 2.537c0.021-0.012 0.047-0.022 0.074-0.039l-0.82-2.907z" fill="#B3D2EE"/>
			<path d="m70.276 34.327l-0.189 0.329 1.244 1.918c0.021-0.015 0.043-0.029 0.066-0.041l-1.121-2.206z" fill="#B3D2EE"/>
			<path d="m69.884 34.998l-0.322 0.544 1.549 1.24c0.025-0.032 0.051-0.058 0.074-0.08l-1.301-1.704z" fill="#B3D2EE"/>
			<path d="m67.79 38.457l-0.41 0.744 3.395-0.65c-0.014-0.036-0.025-0.076-0.033-0.112l-2.952 0.018z" fill="#B3D2EE"/>
			<path d="m66.829 40.144l-0.465 0.778 4.49-2.15c-0.014-0.033-0.031-0.069-0.043-0.103l-3.982 1.475z" fill="#B3D2EE"/>
			<path d="m68.692 40.364l0.191 0.304 2.076-1.688c-0.014-0.02-0.025-0.05-0.043-0.072l-2.224 1.456z" fill="#B3D2EE"/>
			<path d="m69.062 40.942l0.004 0.009c0.174 0.001 0.428 0.004 0.475 0.004l1.58-1.758c-0.023-0.028-0.045-0.05-0.066-0.074l-1.993 1.819z" fill="#B3D2EE"/>
			<path d="m70.554 40.275c0.129-0.019 0.32-0.042 0.377-0.047l0.4-0.836c-0.031-0.024-0.068-0.051-0.104-0.085l-0.673 0.968z" fill="#B3D2EE"/>
			<path d="m71.144 40.395c0.047 0.109 0.166 0.339 0.182 0.369l0.307-1.215c-0.043-0.012-0.084-0.027-0.123-0.046l-0.366 0.892z" fill="#B3D2EE"/>
			<path d="m72.271 40.932c0.113-0.002 0.291-0.003 0.354-0.004l-0.389-1.361c-0.041 0.017-0.086 0.024-0.123 0.028l0.158 1.337z" fill="#B3D2EE"/>
			<path d="m72.987 40.922c0.078-0.002 0.316 0 0.449 0.002l-0.994-1.443c-0.035 0.026-0.08 0.045-0.121 0.059l0.666 1.382z" fill="#B3D2EE"/>
			<path d="m73.708 40.926c0.158 0.001 0.512-0.004 0.613-0.002l-1.648-1.601c-0.02 0.023-0.045 0.038-0.066 0.055l1.101 1.548z" fill="#B3D2EE"/>
			<path d="m74.579 40.926c0.182-0.004 0.551-0.006 0.658-0.008l-2.348-1.834c-0.031 0.051-0.072 0.1-0.113 0.139l1.803 1.703z" fill="#B3D2EE"/>
			<path d="m76.601 39.315c0.066 0.32 0.104 0.658 0.104 0.997 0 0.206-0.016 0.403-0.039 0.604l0.102-0.002c0.021-0.199 0.033-0.396 0.033-0.602 0-0.257-0.02-0.512-0.059-0.76l-0.141-0.237z" fill="#4E2F90"/>
			<path d="m74.917 36.479c-0.818-0.631-1.846-1.007-2.957-1.007s-2.139 0.376-2.957 1.007l-0.143 0.239c0.834-0.716 1.916-1.151 3.1-1.151s2.268 0.436 3.098 1.151l-0.141-0.239z" fill="#4E2F90"/>
			<path d="m67.315 39.317l-0.137 0.236c-0.041 0.247-0.061 0.504-0.061 0.759 0 0.234 0.016 0.465 0.051 0.691l0.098 0.001c-0.031-0.227-0.051-0.457-0.051-0.692 0.001-0.338 0.038-0.676 0.1-0.995z" fill="#4E2F90"/>
			<path d="m76.741 39.553c0.039 0.248 0.059 0.503 0.059 0.76 0 0.205-0.012 0.401-0.033 0.602h0.092c0.025-0.2 0.037-0.396 0.037-0.602 0-0.183-0.01-0.37-0.029-0.547l-0.126-0.213z" fill="#003876"/>
			<path d="m74.788 36.267c-0.801-0.561-1.773-0.889-2.828-0.889s-2.029 0.328-2.83 0.888l-0.127 0.213c0.818-0.631 1.846-1.007 2.957-1.007s2.139 0.376 2.957 1.007l-0.129-0.212z" fill="#003876"/>
			<path d="m67.179 39.554l-0.127 0.213c-0.017 0.176-0.027 0.363-0.027 0.546 0 0.234 0.018 0.466 0.049 0.692l0.096-0.001c-0.035-0.226-0.051-0.457-0.051-0.691-0.001-0.255 0.019-0.512 0.06-0.759z" fill="#003876"/>
			<path d="m76.866 39.766c0.019 0.177 0.029 0.364 0.029 0.547 0 0.205-0.012 0.402-0.037 0.602h0.098c0.021-0.199 0.031-0.396 0.031-0.602 0-0.123-0.004-0.238-0.012-0.36l-0.109-0.187z" fill="#009BDB"/>
			<path d="m74.675 36.077c-0.783-0.505-1.715-0.794-2.715-0.794-1.002 0-1.932 0.289-2.715 0.794l-0.115 0.188c0.801-0.559 1.775-0.888 2.83-0.888s2.027 0.328 2.828 0.889l-0.113-0.189z" fill="#009BDB"/>
			<path d="m67.052 39.767l-0.111 0.186c-0.006 0.123-0.012 0.237-0.012 0.36 0 0.235 0.016 0.466 0.045 0.693l0.1-0.001c-0.031-0.227-0.049-0.458-0.049-0.692-0.001-0.183 0.009-0.371 0.027-0.546z" fill="#009BDB"/>
			<path d="m76.976 39.952c0.008 0.122 0.012 0.237 0.012 0.36 0 0.205-0.01 0.402-0.031 0.602h0.096c0.027-0.2 0.037-0.396 0.037-0.602 0-0.062 0-0.123-0.002-0.179l-0.112-0.181z" fill="#00AC8D"/>
			<path d="m74.573 35.902c-0.764-0.455-1.66-0.72-2.613-0.72s-1.852 0.265-2.613 0.72l-0.102 0.175c0.783-0.505 1.713-0.794 2.715-0.794 1 0 1.932 0.289 2.715 0.794l-0.102-0.175z" fill="#00AC8D"/>
			<path d="m66.94 39.952l-0.107 0.183c-0.002 0.057-0.004 0.115-0.004 0.178 0 0.236 0.018 0.47 0.051 0.696l0.094-0.003c-0.029-0.228-0.045-0.458-0.045-0.693 0-0.124 0.006-0.238 0.011-0.361z" fill="#00AC8D"/>
			<path d="m77.087 40.135c0.002 0.055 0.002 0.114 0.002 0.178 0 0.206-0.012 0.403-0.037 0.604l0.094-0.002c0.023-0.2 0.039-0.396 0.039-0.602v-0.012l-0.098-0.166z" fill="#FFF100"/>
			<path d="m74.472 35.73c-0.748-0.408-1.598-0.643-2.512-0.643-0.912 0-1.766 0.234-2.512 0.643l-0.101 0.172c0.762-0.455 1.66-0.72 2.613-0.72s1.85 0.265 2.613 0.72l-0.101-0.172z" fill="#FFF100"/>
			<path d="m66.833 40.135l-0.096 0.166v0.012c0 0.234 0.018 0.465 0.047 0.692l0.096 0.004c-0.033-0.227-0.051-0.46-0.051-0.696 0-0.063 0.002-0.124 0.004-0.178z" fill="#FFF100"/>
			<path d="m77.185 40.301v0.012c0 0.205-0.016 0.401-0.039 0.602h0.102c0.014-0.15 0.023-0.303 0.029-0.456l-0.092-0.158z" fill="#F9AA53"/>
			<path d="m74.38 35.574c-0.725-0.368-1.549-0.581-2.42-0.581-0.869 0-1.695 0.213-2.418 0.579l-0.094 0.158c0.746-0.408 1.6-0.643 2.512-0.643 0.914 0 1.764 0.234 2.512 0.643l-0.092-0.156z" fill="#F9AA53"/>
			<path d="m66.737 40.301l-0.094 0.157c0.004 0.183 0.018 0.366 0.037 0.547h0.104c-0.029-0.228-0.047-0.458-0.047-0.692v-0.012z" fill="#F9AA53"/>
			<path d="m77.276 40.458c-0.006 0.153-0.016 0.306-0.029 0.456h0.096c0.01-0.105 0.018-0.203 0.023-0.305l-0.09-0.151z" fill="#EC1C2E"/>
			<path d="m74.29 35.421c-0.705-0.334-1.498-0.521-2.33-0.521s-1.625 0.188-2.33 0.521l-0.088 0.151c0.723-0.366 1.549-0.579 2.418-0.579 0.871 0 1.695 0.213 2.42 0.581l-0.09-0.153z" fill="#EC1C2E"/>
			<path d="m66.554 40.609c0.01 0.135 0.019 0.263 0.037 0.396h0.09c-0.02-0.181-0.033-0.364-0.037-0.547l-0.09 0.151z" fill="#EC1C2E"/>
			<path d="m69.241 41.244c0.117 0.004 0.459 0.01 0.533 0.01 0.076 0 0.158 0.081-0.006 0.081s-0.424 0.01-0.461 0.01l-0.066-0.101z" fill="#003876"/>
			<path d="m69.423 41.496c0.076 0 0.223-0.013 0.277-0.009 0.053 0.005 0.074 0.047 0 0.056-0.076 0.009-0.17 0.027-0.24 0.032l-0.037-0.079z" fill="#003876"/>
			<path d="m71.558 41.217c0.074 0.013 0.502-0.004 0.574-0.004v0.072c-0.178 0.008-0.459 0.036-0.529 0.033l-0.045-0.101z" fill="#003876"/>
			<path d="m73.69 41.127c0.121 0 0.332 0.018 0.406 0.018l-0.008 0.058c-0.127-0.006-0.318 0.023-0.359 0.023l-0.039-0.099z" fill="#003876"/>
			<path d="m75.099 41.152c0.133-0.008 0.404 0.005 0.477 0.005l-0.004 0.072c-0.154 0.007-0.34 0.011-0.416 0.011l-0.057-0.088z" fill="#003876"/>
			<path d="m77.995 41.663c-0.178 0.008-0.428 0.034-0.49 0.046-0.074 0.013-0.104 0.097 0.023 0.078 0.1-0.016 0.371-0.031 0.518-0.037l-0.051-0.087z" fill="#003876"/>
			<path d="m65.886 41.729c0.164 0.004 0.549 0.04 0.744 0.071l0.195-0.105c-0.121-0.02-0.641-0.061-0.877-0.065l-0.062 0.099z" fill="#003876"/>
			<path d="m66.052 41.449l-0.047 0.09c0.262-0.062 0.744-0.043 1 0.021l0.092-0.081c-0.194-0.094-0.789-0.073-1.045-0.03z" fill="#003876"/>
			<path d="m66.204 41.19l-0.092 0.16c0.33-0.071 0.918-0.13 1.205-0.065l0.09-0.072c-0.322-0.115-0.941-0.047-1.203-0.023z" fill="#003876"/>
			<path d="m67.722 43.879c-0.062-0.021 0.02-0.063 0.101-0.102 0.359-0.155 0.818-0.062 1.033-0.021 0.219 0.046 0.189 0.091 0.129 0.114 0.244-0.006 0.49-0.015 0.713-0.021-0.164-0.006-0.353-0.04-0.691-0.154-0.479-0.156-1.115-0.069-1.334 0-0.178 0.058-0.391 0.091-0.613 0.058 0.209 0.06 0.441 0.105 0.662 0.126z" fill="#003876"/>
			<path d="m77.505 40.841c-0.361-0.002-1.354 0.041-1.686 0.063-0.383 0.018-2.072 0.027-2.488 0.018-0.424-0.008-2.463 0.036-3.062 0.036-0.564 0-3.328-0.024-3.904-0.034l-0.08 0.146c0.328-0.005 1.887 0.019 2.404 0.01 0.559-0.009 2.002 0.009 2.498 0s1.686-0.053 1.91-0.043c0.234 0.01 1.895 0 2.201-0.017 0.295-0.018 1.4-0.048 2.273-0.066l-0.066-0.113z" fill="#003876"/>
			<path d="m77.636 41.068c-0.297 0.007-0.742 0.025-0.814 0.032-0.08 0.009-0.164 0.084 0.023 0.07 0.154-0.011 0.629-0.011 0.85-0.011l-0.059-0.091z" fill="#003876"/>
			<path d="m77.753 41.262c-0.227 0.002-0.68 0.021-0.748 0.038-0.072 0.014-0.123 0.109 0.018 0.083 0.111-0.028 0.57-0.034 0.785-0.038l-0.055-0.083z" fill="#003876"/>
			<path d="m77.886 41.484c-0.209 0.008-0.562 0.05-0.631 0.055-0.082 0.004-0.152 0.082 0 0.078 0.127-0.002 0.508-0.04 0.678-0.051l-0.047-0.082z" fill="#003876"/>
			<path d="m78.86 43.131c-0.195 0.011-0.465-0.035-0.574-0.079-0.127-0.052-0.24-0.068-0.07 0.03 0.15 0.086 0.514 0.154 0.707 0.148l-0.063-0.099z" fill="#003876"/>
			<path d="m79.005 43.369c-0.219 0.004-0.684-0.067-1.008-0.222-0.371-0.174-0.85-0.108-1.256-0.054-0.766 0.096-1.156 0.044-1.783-0.102-0.627-0.148-1.469-0.123-1.758-0.009-0.293 0.12-0.23 0.154 0.078 0.099 0.309-0.058 1.025-0.145 1.643 0.021 0.617 0.164 1.207 0.191 1.582 0.164 0.379-0.034 0.688-0.068 0.848-0.061 0.16 0.009 0.137 0.063 0 0.078-1.148 0.148-1.625 0.184-2.281 0-0.654-0.182-1.262-0.114-1.701-0.06-0.439 0.06-0.877 0.033-1.283-0.122-0.412-0.157-0.732-0.211-0.977-0.13-0.09 0.026-0.119 0.078 0.033 0.061 0.148-0.019 0.562-0.019 0.924 0.146 0.357 0.166 0.904 0.201 1.393 0.134 0.488-0.064 1.086-0.144 1.604 0.067 0.514 0.216 1.113 0.167 1.641 0.087 0.527-0.074 0.885-0.174 1.307-0.062 0.365 0.093 0.865 0.117 1.074 0.099l-0.08-0.134z" fill="#003876"/>
			<path d="m79.144 43.605c-0.234 0.044-0.836-0.004-1.098-0.067-0.289-0.069-0.758-0.009-1.422 0.12-0.668 0.125-1.393-0.087-1.773-0.175-0.379-0.089-0.848-0.102-1.184-0.059-0.336 0.035-0.877 0.104-1.641-0.121-0.953-0.276-1.457-0.156-1.695-0.088-0.238 0.069-0.744 0.069-1.285-0.078-0.535-0.146-1.021-0.104-1.35-0.018-0.332 0.087-0.83 0.157-1.287 0.018-0.42-0.123-0.967-0.123-1.299-0.102l-0.061 0.109c0.283-0.046 0.951-0.063 1.352 0.088 0.479 0.191 1.125 0.114 1.342 0.044 0.486-0.157 0.803-0.13 1.281 0.017 0.338 0.108 0.977 0.125 1.387 0.02 0.666-0.167 1.047-0.064 1.59 0.11 0.553 0.173 1.307 0.192 1.711 0.164 0.414-0.026 0.76-0.129 1.258 0.028 0.5 0.155 1.166 0.268 1.744 0.129 0.574-0.139 1.096-0.157 1.359-0.106 0.26 0.043 0.719 0.109 1.119 0.046l-0.048-0.079z" fill="#003876"/>
			<path d="m79.259 43.796c-0.178 0.023-0.584 0.032-0.963-0.023-0.621-0.084-1.076-0.033-1.484 0.061-0.617 0.147-0.965 0.097-1.461-0.018-0.5-0.121-0.959-0.148-1.516-0.087-0.557 0.055-1.387-0.044-2.023-0.208-0.635-0.166-1.15-0.096-1.617 0.018-0.469 0.12-1.197-0.009-1.426-0.113-0.23-0.11-0.568-0.121-1.025-0.019-0.459 0.095-0.863 0.062-1.334-0.06-0.434-0.122-1.012-0.168-1.418-0.102l-0.049 0.072c0.301-0.033 1.053-0.051 1.477 0.108 0.498 0.183 1.053 0.124 1.344 0.068 0.289-0.06 0.785-0.079 1.006 0.027 0.467 0.234 1.203 0.179 1.473 0.104 0.609-0.165 1.059-0.165 1.57-0.008 0.52 0.155 1.467 0.258 2.053 0.179 0.402-0.053 0.998-0.032 1.486 0.106 0.488 0.14 0.965 0.157 1.51 0.009 0.551-0.146 1.148-0.104 1.477-0.06 0.312 0.049 0.561 0.085 0.971 0.032l-0.051-0.086z" fill="#003876"/>
			<path d="m79.394 44.027c-0.193 0.015-0.812 0.021-1.076-0.01-0.289-0.028-0.756-0.098-1.275 0.051-0.521 0.147-1.254 0.129-1.662-0.01-0.41-0.139-0.936-0.184-1.422-0.119-0.49 0.067-1.105 0.119-1.846-0.098-0.738-0.217-1.023-0.253-1.799-0.046-0.332 0.087-1.916 0.065-2.363 0.089-0.445 0.017-1.002-0.148-1.338-0.287-0.322-0.131-1.16-0.185-1.762-0.123l-0.07 0.12c0.566-0.114 1.305-0.012 1.586 0.151-0.357-0.087-1.229-0.051-1.697 0.031l-0.1 0.181c0.738-0.165 1.838-0.123 2.238-0.038 0.449 0.098 1.184 0.176 1.666 0.061 0.459-0.111 1.193 0.025 1.645 0.207h2.074c-0.324-0.2-0.707-0.092-0.986-0.061-0.299 0.028-0.584-0.042-0.725-0.128-0.139-0.089 0-0.079 0.236-0.148 0.693-0.194 1.236 0.04 1.639 0.337h1.627c0.443-0.298 0.828-0.152 1.059-0.069 0.055 0.02 0.182 0.042 0.344 0.069h1.717c0.416-0.17 0.963-0.111 1.234-0.069 0.262 0.036 0.611 0.078 1.109-0.003l-0.053-0.088z" fill="#003876"/>
			<path d="m78.206 42.025c-1.059-0.015-1.502-0.638-1.891-1.292-0.201 0.015-0.486 0.041-0.678 0.033-0.029 0.096-0.16 0.427-0.238 0.683-0.229-0.146-0.469-0.639-0.611-0.909-0.105 0-0.336 0.01-0.512-0.009-0.074 0.147-0.281 0.626-0.371 0.817-0.17-0.174-0.574-0.771-0.725-1.007-0.191-0.009-0.469 0.033-0.689 0.033-0.117 0.349-0.359 0.869-0.66 1.173-0.213-0.217-0.637-0.998-0.775-1.328-0.137 0-0.416 0.06-0.574 0.06-0.139 0.271-0.539 1.094-0.775 1.521-0.398-0.409-0.896-1.251-1.232-1.815l-0.482 0.034c-0.596 1.679-1.637 1.909-2.26 1.975l-0.473 0.795c0.246 0.001 0.648 0.039 0.949 0.135 0.34 0.11 0.967 0.188 1.457 0.014 0.488-0.182 1.004-0.148 1.51-0.051 0.51 0.097 1.367 0.155 2.115-0.209 0.955 0.479 1.562 0.218 2.029 0.121 0.469-0.097 1.115-0.166 1.611-0.01 0.652 0.203 1.502 0.203 2.121 0.036 0.746-0.198 1.191 0.194 1.762 0.216l-0.608-1.016z" fill="#00AC8D"/>
			<path d="m67.991 40.02c0.041 0.895 0.547 1.824 1.82 2.939 0.084 0.004 0.205 0.002 0.287 0-0.336-0.334-1.102-1.167-1.361-1.571-0.01-0.069-0.02-0.143-0.02-0.194 0.705 0.803 1.221 1.411 1.889 1.705 0.117-0.019 0.283-0.062 0.395-0.1-1.107-0.574-1.713-1.411-2.527-2.813-0.162 0.011-0.368 0.021-0.483 0.034z" fill="#FFE01B"/>
			<path d="m72.72 40.366c-0.189 0.573-0.418 1.121-0.746 1.408 0.057 0.063 0.139 0.127 0.197 0.186 0.141-0.104 0.32-0.316 0.367-0.366 0.08 0.042 0.115 0.207-0.111 0.589 0.291 0.192 0.777 0.465 1.121 0.57-0.287 0.048-0.637 0.146-0.793 0.171-0.637-0.455-1.137-0.768-1.625-1.603-0.074 0.314-0.025 0.465 0.197 0.715 0.195 0.225 0.508 0.572 1.109 0.923-0.354 0.009-0.73-0.066-1.146-0.281-0.244-0.399-0.721-1.295-0.809-2.398 0.172-0.004 0.414-0.057 0.574-0.06 0.18 0.398 0.533 1.06 0.775 1.328 0.213-0.215 0.498-0.684 0.66-1.173 0.064-0.002 0.197-0.007 0.23-0.009z" fill="#FFE01B"/>
			<path d="m74.446 40.541c-0.059 0.292-0.26 0.729-0.398 0.97-0.039-0.041-0.105-0.109-0.143-0.162l0.371-0.817c0.041 0.003 0.139 0.011 0.17 0.009z" fill="#FFE01B"/>
			<path d="m74.101 41.718c0.053 0.026 0.154 0.101 0.193 0.124 0.115-0.181 0.141-0.316 0.109-0.584-0.131 0.111-0.148 0.355-0.302 0.46z" fill="#FFE01B"/>
			<path d="m75.399 41.449c0.053 0.047 0.121 0.094 0.166 0.126 0.105-0.271 0.219-0.626 0.25-0.809-0.072 0.002-0.125 0.004-0.178 0-0.101 0.283-0.212 0.583-0.238 0.683z" fill="#FFE01B"/>
			<polygon stroke-width=".0556" points="79.487 44.188 71.96 31.498 64.433 44.188" stroke="#000" fill="none"/>
</g>
</svg>
