<?xml version="1.0" encoding="UTF-8" standalone="no"?>
<!-- Generator: Adobe Illustrator 18.0.0, SVG Export Plug-In . SVG Version: 6.00 Build 0)  -->
<!DOCTYPE svg  PUBLIC '-//W3C//DTD SVG 1.1//EN'  'http://www.w3.org/Graphics/SVG/1.1/DTD/svg11.dtd'>
<svg style="enable-background:new 0 0 144 80" xmlns="http://www.w3.org/2000/svg" xml:space="preserve" version="1.1" y="0px" x="0px" xmlns:xlink="http://www.w3.org/1999/xlink" viewBox="0 0 144 80">
<g id="EGY">
			<polygon points="144 53.332 0 53.332 0 26.666 144 26.666" fill="#fff"/>
			<polygon points="0 26.666 144 26.666 144 0 0 0" fill="#CE1126"/>
			<polygon points="144 80 0 80 0 53.332 144 53.332"/>
			<path d="m72 52.344c2.553 0 5.012-0.208 6.487-0.624 0.539-0.152 0.605-0.397 0.567-0.832 0.586-0.227 0.283-0.908 0.775-0.965-0.492 0.076-0.529-0.681-1.021-0.605-0.075-0.661-0.718-0.795-1.399-0.586-1.18 0.361-3.328 0.529-5.409 0.454-2.081-0.076-4.229-0.093-5.409-0.454-0.682-0.209-1.324-0.075-1.399 0.586-0.492-0.075-0.53 0.682-1.021 0.605 0.491 0.057 0.188 0.738 0.775 0.965-0.038 0.435 0.028 0.68 0.567 0.832 1.475 0.416 3.933 0.624 6.487 0.624v0z" stroke="#FFCE46" stroke-linecap="round" stroke-width=".0757" fill="#fff"/>
			<path d="m66.108 49.689c-0.118 0-0.118 0.177 0 0.177 0.119 0 0.121-0.177 0-0.177z" fill="#FFCE46"/>
			<path d="m66.193 49.35c-0.118 0-0.118 0.176 0 0.176 0.119-0.001 0.12-0.176 0-0.176z" fill="#FFCE46"/>
			<path d="m66.146 50.862c-0.118 0-0.118 0.177 0 0.177 0.119 0 0.121-0.177 0-0.177z" fill="#FFCE46"/>
			<path d="m66.524 50.985c-0.117 0-0.117 0.177 0 0.177 0.119 0 0.121-0.177 0-0.177z" fill="#FFCE46"/>
			<path d="m67.017 51.109c-0.119 0-0.119 0.176 0 0.176 0.118 0 0.119-0.176 0-0.176z" fill="#FFCE46"/>
			<path d="m73.353 50.05c-0.118 0-0.118 0.176 0 0.176s0.119-0.176 0-0.176z" fill="#FFCE46"/>
			<path d="m73.399 50.409c-0.118 0-0.118 0.176 0 0.176s0.121-0.176 0-0.176z" fill="#FFCE46"/>
			<path d="m73.769 51.478c-0.118 0-0.118 0.176 0 0.176 0.118-0.001 0.12-0.176 0-0.176z" fill="#FFCE46"/>
			<path d="m74.118 51.458c-0.118 0-0.118 0.176 0 0.176 0.119 0 0.12-0.176 0-0.176z" fill="#FFCE46"/>
			<path d="m78.316 50.607c-0.118 0-0.118 0.177 0 0.177 0.12 0 0.122-0.177 0-0.177z" fill="#FFCE46"/>
			<path stroke-linejoin="round" d="m66.562 49.355c-0.114 0.416-0.227 0.813-0.274 1.031-0.038 0.175 0.038 0.227 0.199 0.278 0.265 0.085 0.273 0.057 0.406-0.288 0.071-0.187 0.028-0.236-0.043 0.023-0.069 0.255-0.217 0.321 0.198 0.458 0.313 0.104 0.459-0.027 0.507-0.392 0.032-0.255-0.128-0.138-0.071-0.024m-1.12-0.305c-0.474 0.08-0.312 0.373 0.052 0.51m1.263 0.676c0.198-0.132 0.358-0.312 0.311-0.587-0.047-0.274-0.151-0.227-0.104 0 0.048 0.227 0.096 0.312 0.379 0.322 0.284 0.01 0.461-0.064 0.643-0.179 0.256-0.162 0.246-0.445-0.019-0.54-0.26-0.092-0.447 0.301-0.188 0.519 0.123 0.104 0.273 0.246 0.463 0.304-0.028 0.094 0 0.293 0.132 0.331 0.133 0.037 0.303-0.171 0.312-0.549 0.01-0.379 0.038-0.681 0.057-0.86m0.406-0.065c-0.01 0.293-0.161 0.804-0.133 1.163m0.293 0.557c0.396-0.265 0.426-0.416 0.388-0.681s-0.227-0.236-0.151-0.038 0.218 0.283 0.388 0.274 0.237-0.103 0.208-0.521c-0.009-0.132-0.075-0.142-0.057-0.027 0.019 0.112 0.227 0.151 0.388 0.16 0.161 0.01 0.69 0.028 0.822 0 0.134-0.027 0.086 0.206 0.076 0.265-0.019 0.114-0.038 0.236-0.132 0.351-0.095 0.112-0.199 0.094-0.256-0.058-0.057-0.15-0.16-0.189-0.35-0.17-0.189 0.02-0.388-0.057-0.7 0m1.41 0.029c0.151-0.028 0.388-0.104 0.492-0.057 0.104 0.048 0.252-0.048 0.246-0.246-0.01-0.273-0.464-0.264-0.246 0.246m1.002-1.171c0.076 0.312 0.076 0.841 0 1.03-0.075 0.189-0.35 0.169-0.274 0 0.038-0.085 0.266-0.157 0.351-0.029 0.038 0.058 0.104 0.135 0.273 0.114 0.236-0.028 0.351-0.019 0.332-0.521-0.007-0.172-0.246-0.113-0.029 0.047m0.33 0.795c0.274-0.198 0.482-0.529 0.322-0.766-0.161-0.236-0.266-0.18-0.256-0.038 0.01 0.143 0.075 0.218 0.245 0.331m0.465 0.341c0.256-0.113 0.318-0.33 0.293-0.559-0.019-0.17-0.091-0.276-0.236-0.179-0.142 0.095-0.155 0.322 0.066 0.312 0.397-0.019 1.04-0.142 1.626-0.369m-1.03 0.294c-0.058-0.199 0.065-0.436 0.245-0.492 0.18-0.057 0.435 0.028 0.491 0.218 0.08 0.267-0.179 0.481-0.32 0.312-0.152-0.182-0.266-0.69-0.312-1.097m1.466 0.558c-0.161-0.284-0.648-0.075-0.54 0.208 0.11 0.283 0.691 0.059 0.54-0.208v0zm0.008 0.038c0.086-0.019 0.256-0.104 0.36-0.17m-0.851-0.928c0.208-0.17 0.558-0.192 0.577 0.228 0.028 0.633 0.397 0.975 0.728 0.671 0.081-0.073-0.009-0.17-0.075-0.038m-10.158 0.322c0.036 0.005 0.104 0.016 0.19 0.028m0.512 0.082c0.043 0.009 0.078 0.016 0.104 0.023" stroke="#FFCE46" stroke-linecap="round" stroke-width=".0757" fill="none"/>
			<path d="m80.927 48.675l-0.642-14.828c-0.122-2.229-2.043-1.778-3.48-0.908-1.438 0.871-3.065 0.934-4.804 0.291-1.741 0.643-3.366 0.58-4.804-0.291-1.438-0.87-3.358-1.321-3.48 0.908l-0.643 14.828" stroke="#FFCE46" stroke-linecap="round" stroke-width=".0757" fill="#fff"/>
			<path d="m73.474 33.791c0.491 0.303 1.004 0.245 1.307 0.207-1.078-0.624-1.344-2.594-1.248-3.442 0.188-1.684-0.209-2.591-1.192-2.742-0.235-0.037-0.378-0.104-0.746-0.152-0.311-0.039-0.568 0.219-0.709 0.483-0.284-0.199-0.492-0.19-0.813-0.303-0.376-0.133-0.805-0.028-0.852 0.624l0.151-0.066c0.123 0.16 0.312 0.057 0.558 0.217 0.246 0.161 0.676 0.401 0.757 1.145 0.161 1.476-0.028 2.988-1.466 4.237 0.303 0.038 0.814 0.096 1.307-0.207-0.147 0.209-0.313 0.395-0.493 0.547 0.662-0.13 1.123-0.338 1.413-0.767 0.113 0.123 0.459 0.502 0.554 0.72 0.095-0.218 0.442-0.591 0.557-0.714 0.29 0.422 0.752 0.631 1.41 0.761-0.181-0.153-0.348-0.339-0.495-0.548v0z" stroke="#FFCE46" stroke-linecap="round" stroke-width=".0757" fill="#fff"/>
			<path d="m72.89 31.842c-0.015 0.754 0.222 1.431 0.584 1.949m-0.92-0.209c-0.261-0.379-0.384-0.932-0.384-1.759m-1.06 0.019c0.015 0.754-0.222 1.431-0.584 1.949m0.926-0.22c0.256-0.378 0.378-0.927 0.378-1.748" stroke="#FFCE46" stroke-linecap="round" stroke-width=".0757" fill="none"/>
			<path d="m69.371 28.399c0.123 0.16 0.312 0.057 0.558 0.217 0.227 0.149 0.606 0.363 0.729 0.975-0.057-0.265 0.132-0.529 0.367-0.5-0.406-0.635-1.285-0.853-1.654-0.692z" fill="#FFCE46"/>
			<polygon stroke-linecap="round" stroke="#FFCE46" points="72.435 42.168 73.684 47.767 73.268 48.183 72.831 47.861 72.095 42.905 72.454 47.918 72 48.41 71.546 47.918 71.905 42.905 71.168 47.861 70.732 48.183 70.316 47.767 71.565 42.168" stroke-width=".0757" fill="#FFCE46"/>
			<path d="m64.696 33.346l-0.625 14.407-0.998 0.922 0.643-14.828c0.293-0.161 0.826-0.521 0.98-0.501v0z" stroke="#FFCE46" stroke-linecap="round" stroke-width=".0757" fill="#FFCE46"/>
			<path d="m65.986 34.329l-0.525 12.103-1 0.947 0.603-13.883c0.203 0.218 0.79 0.729 0.922 0.833v0z" stroke="#FFCE46" stroke-linecap="round" stroke-width=".0757" fill="#FFCE46"/>
			<path d="m67.126 35.274l-0.433 9.988-0.843 0.802 0.496-11.423c0.216 0.198 0.673 0.567 0.78 0.633v0z" stroke="#FFCE46" stroke-linecap="round" stroke-width=".0757" fill="#FFCE46"/>
			<path d="m68.275 35.813l-0.36 8.286-0.842 0.802 0.408-9.41c0.169 0.105 0.578 0.313 0.794 0.322v0z" stroke="#FFCE46" stroke-linecap="round" stroke-width=".0757" fill="#FFCE46"/>
			<path d="m69.448 35.795l-0.31 7.149-0.842 0.797 0.342-7.889c0.185 0.008 0.709-0.01 0.81-0.057v0z" stroke="#FFCE46" stroke-linecap="round" stroke-width=".0757" fill="#FFCE46"/>
			<path d="m79.304 33.346l0.625 14.407 0.998 0.922-0.642-14.828c-0.294-0.161-0.827-0.521-0.981-0.501v0z" stroke="#FFCE46" stroke-linecap="round" stroke-width=".0757" fill="#FFCE46"/>
			<path d="m78.014 34.329l0.525 12.103 1 0.947-0.603-13.883c-0.203 0.218-0.79 0.729-0.922 0.833v0z" stroke="#FFCE46" stroke-linecap="round" stroke-width=".0757" fill="#FFCE46"/>
			<path d="m76.873 35.274l0.434 9.988 0.843 0.802-0.496-11.423c-0.216 0.198-0.673 0.567-0.781 0.633v0z" stroke="#FFCE46" stroke-linecap="round" stroke-width=".0757" fill="#FFCE46"/>
			<path d="m75.725 35.813l0.359 8.286 0.843 0.802-0.408-9.41c-0.169 0.105-0.578 0.313-0.794 0.322v0z" stroke="#FFCE46" stroke-linecap="round" stroke-width=".0757" fill="#FFCE46"/>
			<path d="m74.552 35.795l0.31 7.149 0.842 0.797-0.342-7.889c-0.185 0.008-0.709-0.01-0.81-0.057v0z" stroke="#FFCE46" stroke-linecap="round" stroke-width=".0757" fill="#FFCE46"/>
			<polygon stroke-linecap="round" stroke="#FFCE46" points="69.276 39.672 66.78 48.41 70.185 48.864 71.584 42.357" stroke-width=".0757" fill="#fff"/>
			<polygon stroke-linecap="round" stroke="#FFCE46" points="74.724 39.672 77.22 48.41 73.815 48.864 72.416 42.357" stroke-width=".0757" fill="#fff"/>
			<path d="m68.426 42.66l0.34 0.681 0.87-0.945m-0.114-1.306l0.321 2.856 1.021-1.267m-0.396 0.493l0.587 1.588m-0.058 0.34l-0.889 0.794-0.416-1.551-0.604 0.928-0.416-1.098-0.909 0.833m-0.151 0.454l0.605 1.551 0.662-0.927 0.434 1.22 0.795-1.05 0.316 1.484m-2.963 0.454l0.634-0.851 0.473 1.399 0.699-1.059 0.351 1.191 0.681-0.511m5.275-5.701l-0.34 0.681-0.87-0.945m0.114-1.306l-0.321 2.856-1.021-1.267m0.396 0.493l-0.587 1.588m0.058 0.34l0.888 0.794 0.417-1.551 0.604 0.928 0.416-1.098 0.909 0.833m0.151 0.454l-0.605 1.551-0.662-0.927-0.434 1.22-0.796-1.05-0.315 1.484m2.963 0.454l-0.634-0.851-0.473 1.399-0.699-1.059-0.351 1.191-0.681-0.511" stroke="#FFCE46" stroke-linecap="round" stroke-width=".0757" fill="none"/>
			<path d="m72 34.698c1.003 0.812 2.402 1.172 3.93 1.068-0.185 3.564-1.206 6.1-3.93 7.952-2.724-1.853-3.745-4.388-3.93-7.952 1.528 0.104 2.927-0.255 3.93-1.068v0z" stroke="#FFCE46" stroke-linecap="round" stroke-width=".0757" fill="#fff"/>
			<path d="m72 43.274c2.194-1.44 3.377-3.873 3.536-7.168-1.418 0.028-2.666-0.293-3.536-1.016-0.87 0.723-2.118 1.044-3.536 1.016 0.159 3.295 1.342 5.728 3.536 7.168v0z" stroke="#FFCE46" stroke-linecap="round" stroke-width=".0757" fill="#fff"/>
			<path d="m73.167 35.752c0.694 0.258 1.5 0.372 2.369 0.354-0.128 2.651-0.919 4.744-2.366 6.211l-0.003-6.565v0z" stroke="#FFCE46" stroke-linecap="round" stroke-width=".0757" fill="#FFCE46"/>
			<path d="m70.833 35.752c-0.694 0.258-1.5 0.372-2.369 0.354 0.128 2.651 0.919 4.744 2.366 6.211l0.003-6.565v0z" stroke="#FFCE46" stroke-linecap="round" stroke-width=".0757" fill="#FFCE46"/>
			<path d="m68.558 48.41c0.825 0.112 1.737 0.163 2.388 0.128 0.445-0.024 0.732 0.712-0.043 0.796s-1.854-0.055-2.453-0.138c-0.6-0.082-1.675-0.24-2.399-0.529-0.723-0.292-0.247-0.922 0.174-0.778 0.616 0.209 1.508 0.407 2.333 0.521v0z" stroke="#FFCE46" stroke-linecap="round" stroke-width=".0757" fill="#fff"/>
			<path d="m75.442 48.41c-0.825 0.112-1.737 0.163-2.388 0.128-0.444-0.024-0.733 0.712 0.043 0.796 0.775 0.084 1.854-0.055 2.453-0.138 0.599-0.082 1.675-0.24 2.399-0.529 0.723-0.292 0.248-0.922-0.174-0.778-0.616 0.209-1.508 0.407-2.333 0.521v0z" stroke="#FFCE46" stroke-linecap="round" stroke-width=".0757" fill="#fff"/>
			<path d="m65.94 48.011c-0.576-0.14-0.929 0.616-0.665 1.026 0.015-0.238 0.52-0.244 0.578-0.45 0.072-0.257-0.152-0.336 0.087-0.576v0z" stroke="#FFCE46" stroke-linecap="round" stroke-width=".0757" fill="#fff"/>
			<path d="m68.368 49.688c0.058-0.409 0.406-0.132 0.467-0.571 0.03-0.223-0.073-0.479-0.316-0.513-0.244-0.033-0.403 0.187-0.435 0.41-0.061 0.44 0.34 0.274 0.284 0.674v0z" stroke="#FFCE46" stroke-linecap="round" stroke-width=".0757" fill="#fff"/>
			<path d="m71.186 48.731c0.593 0.022 0.728 0.846 0.362 1.17 0.052-0.234-0.434-0.376-0.434-0.592 0-0.266 0.237-0.281 0.072-0.578v0z" stroke="#FFCE46" stroke-linecap="round" stroke-width=".0757" fill="#fff"/>
			<path d="m78.06 48.011c0.576-0.14 0.929 0.616 0.665 1.026-0.015-0.238-0.52-0.244-0.578-0.45-0.072-0.257 0.152-0.336-0.087-0.576v0z" stroke="#FFCE46" stroke-linecap="round" stroke-width=".0757" fill="#fff"/>
			<path d="m75.631 49.688c-0.057-0.409-0.405-0.132-0.466-0.571-0.031-0.223 0.073-0.479 0.316-0.513 0.244-0.033 0.404 0.187 0.435 0.41 0.061 0.44-0.34 0.274-0.285 0.674v0z" stroke="#FFCE46" stroke-linecap="round" stroke-width=".0757" fill="#fff"/>
			<path d="m72.814 48.731c-0.593 0.022-0.728 0.846-0.362 1.17-0.052-0.234 0.434-0.376 0.434-0.592 0-0.266-0.237-0.281-0.072-0.578v0z" stroke="#FFCE46" stroke-linecap="round" stroke-width=".0757" fill="#fff"/>
			<path d="m66.165 48.198c0.16-0.041 0.54 0.098 0.616 0.215" stroke="#FFCE46" stroke-linecap="round" stroke-width=".0757" fill="#fff"/>
			<path d="m67.174 48.535c0.151-0.052 0.563 0.063 0.681 0.169" stroke="#FFCE46" stroke-linecap="round" stroke-width=".0757" fill="#fff"/>
			<path d="m70.831 48.96c-0.139-0.09-0.542-0.079-0.652 0.008" stroke="#FFCE46" stroke-linecap="round" stroke-width=".0757" fill="#fff"/>
			<path d="m69.769 48.958c-0.129-0.098-0.557-0.119-0.7-0.057" stroke="#FFCE46" stroke-linecap="round" stroke-width=".0757" fill="#fff"/>
			<path d="m77.835 48.198c-0.16-0.041-0.541 0.098-0.616 0.215" stroke="#FFCE46" stroke-linecap="round" stroke-width=".0757" fill="#fff"/>
			<path d="m76.826 48.535c-0.151-0.052-0.564 0.063-0.681 0.169" stroke="#FFCE46" stroke-linecap="round" stroke-width=".0757" fill="#fff"/>
			<path d="m73.169 48.96c0.139-0.09 0.542-0.079 0.652 0.008" stroke="#FFCE46" stroke-linecap="round" stroke-width=".0757" fill="#fff"/>
			<path d="m74.231 48.958c0.128-0.098 0.557-0.119 0.699-0.057" stroke="#FFCE46" stroke-linecap="round" stroke-width=".0757" fill="#fff"/>
			<path d="m73.413 28.703c-0.19-0.514-0.548-0.809-1.073-0.89-0.235-0.037-0.467-0.106-0.746-0.152-0.294-0.047-0.568 0.219-0.709 0.483 0.264 0.132 0.447 0.445 0.633 0.483 0.236 0.047 0.399-0.016 0.652-0.274 0.388-0.399 1.059-0.224 1.243 0.35z" fill="#FFCE46"/>
			<path d="m71.499 28.2c-0.18 0-0.18 0.269 0 0.269 0.181 0 0.184-0.269 0-0.269z" fill="#fff"/>
</g>
</svg>
