<?xml version="1.0" encoding="UTF-8" standalone="no"?>
<!-- Generator: Adobe Illustrator 18.0.0, SVG Export Plug-In . SVG Version: 6.00 Build 0)  -->

<svg
   xmlns:dc="http://purl.org/dc/elements/1.1/"
   xmlns:cc="http://creativecommons.org/ns#"
   xmlns:rdf="http://www.w3.org/1999/02/22-rdf-syntax-ns#"
   xmlns:svg="http://www.w3.org/2000/svg"
   xmlns="http://www.w3.org/2000/svg"
   xmlns:sodipodi="http://sodipodi.sourceforge.net/DTD/sodipodi-0.dtd"
   xmlns:inkscape="http://www.inkscape.org/namespaces/inkscape"
   style="enable-background:new 0 0 144 80"
   xml:space="preserve"
   version="1.1"
   y="0px"
   x="0px"
   viewBox="0 0 144 80"
   id="svg2"
   inkscape:version="0.91 r13725"
   sodipodi:docname="southkorea.svg"><metadata
     id="metadata83"><rdf:RDF><cc:Work
         rdf:about=""><dc:format>image/svg+xml</dc:format><dc:type
           rdf:resource="http://purl.org/dc/dcmitype/StillImage" /></cc:Work></rdf:RDF></metadata><defs
     id="defs81" /><sodipodi:namedview
     pagecolor="#ffffff"
     bordercolor="#666666"
     borderopacity="1"
     objecttolerance="10"
     gridtolerance="10"
     guidetolerance="10"
     inkscape:pageopacity="0"
     inkscape:pageshadow="2"
     inkscape:window-width="968"
     inkscape:window-height="618"
     id="namedview79"
     showgrid="false"
     inkscape:zoom="0.5"
     inkscape:cx="153.54839"
     inkscape:cy="374.55637"
     inkscape:window-x="0"
     inkscape:window-y="0"
     inkscape:window-maximized="0"
     inkscape:current-layer="svg2" /><g
     id="Layer_1_1_"
     transform="matrix(0.18542364,0,0,0.18542364,-5.5627092,-68.07932)"><g
       id="JPN"><polygon
         points="30,798.6 806.6,798.6 806.6,367.1 30,367.1 "
         id="polygon6"
         style="fill:#ffffff" /></g></g><g
     id="Layer_2"
     transform="matrix(0.18542364,0,0,0.18542364,-5.5627092,-68.07932)"><rect
       x="95.199997"
       y="367.10001"
       width="646.90002"
       height="431.29999"
       id="rect9"
       style="fill:#ffffff" /><g
       transform="matrix(0.55469922,0.83205095,-0.83205095,0.55469922,0,0)"
       id="g11"><g
         transform="translate(0,-38)"
         id="g13"><g
           id="b2"><rect
             x="663.29999"
             y="-201.89999"
             width="49.400002"
             height="18"
             id="rect16" /><rect
             x="721.59998"
             y="-201.89999"
             width="49.400002"
             height="18"
             id="rect18" /></g></g><g
         transform="translate(0,-44)"
         id="g20"><rect
           id="b1"
           x="663.29999"
           y="-228.39999"
           width="107.8"
           height="18" /></g><g
         transform="translate(0,-50)"
         id="g23"><g
           id="b2_1_"><rect
             x="663.29999"
             y="-254.89999"
             width="49.400002"
             height="18"
             id="rect26" /><rect
             x="721.59998"
             y="-254.89999"
             width="49.400002"
             height="18"
             id="rect28" /></g></g><g
         transform="translate(0,38)"
         id="g30"><rect
           id="b1_1_"
           x="663.29999"
           y="133.7"
           width="107.8"
           height="18" /></g><g
         transform="translate(0,44)"
         id="g33"><g
           id="b2_2_"><rect
             x="663.29999"
             y="160.2"
             width="49.400002"
             height="18"
             id="rect36" /><rect
             x="721.59998"
             y="160.2"
             width="49.400002"
             height="18"
             id="rect38" /></g></g><g
         transform="translate(0,50)"
         id="g40"><rect
           id="b1_2_"
           x="663.29999"
           y="186.60001"
           width="107.8"
           height="18" /></g></g><g
       transform="matrix(0.55469922,-0.83205095,0.83205095,0.55469922,0,0)"
       id="g43"><g
         transform="translate(0,-38)"
         id="g45"><rect
           id="b1_3_"
           x="-306.5"
           y="494.89999"
           width="107.8"
           height="18" /></g><g
         transform="translate(0,-44)"
         id="g48"><rect
           id="b1_4_"
           x="-306.5"
           y="468.39999"
           width="107.8"
           height="18" /></g><g
         transform="translate(0,-50)"
         id="g51"><rect
           id="b1_5_"
           x="-306.5"
           y="441.89999"
           width="107.8"
           height="18" /></g><g
         transform="translate(0,38)"
         id="g54"><g
           id="b2_3_"><rect
             x="-306.5"
             y="830.5"
             width="49.400002"
             height="18"
             id="rect57" /><rect
             x="-248.10001"
             y="830.5"
             width="49.400002"
             height="18"
             id="rect59" /></g></g><g
         transform="translate(0,44)"
         id="g61"><g
           id="b2_4_"><rect
             x="-306.5"
             y="857"
             width="49.400002"
             height="18"
             id="rect64" /><rect
             x="-248.10001"
             y="857"
             width="49.400002"
             height="18"
             id="rect66" /></g></g><g
         transform="translate(0,50)"
         id="g68"><g
           id="b2_5_"><rect
             x="-306.5"
             y="883.40002"
             width="49.400002"
             height="18"
             id="rect71" /><rect
             x="-248.10001"
             y="883.40002"
             width="49.400002"
             height="18"
             id="rect73" /></g></g><path
         d="m -252.7,779.5 c 59.5,0 107.8,-48.2 107.8,-107.8 0,-59.6 -48.2,-107.8 -107.8,-107.8 -44.6,0 -80.9,36.2 -80.9,80.9 0,44.6 36.2,80.9 80.9,80.9"
         id="path75"
         inkscape:connector-curvature="0"
         style="fill:#c60c30" /><path
         d="m -252.7,563.9 c -29.8,0 -53.9,24.2 -53.9,53.9 0,29.8 24.2,53.9 53.9,53.9 29.8,0 53.9,24.2 53.9,53.9 0,29.8 -24.2,53.9 -53.9,53.9 -59.5,0 -107.8,-48.2 -107.8,-107.8 0,-59.6 48.3,-107.8 107.8,-107.8"
         id="path77"
         inkscape:connector-curvature="0"
         style="fill:#003478" /></g></g></svg>