<?xml version="1.0" encoding="UTF-8" standalone="no"?>
<!-- Generator: Adobe Illustrator 18.0.0, SVG Export Plug-In . SVG Version: 6.00 Build 0)  -->
<!DOCTYPE svg  PUBLIC '-//W3C//DTD SVG 1.1//EN'  'http://www.w3.org/Graphics/SVG/1.1/DTD/svg11.dtd'>
<svg style="enable-background:new 0 0 144 80" xmlns="http://www.w3.org/2000/svg" xml:space="preserve" version="1.1" y="0px" x="0px" xmlns:xlink="http://www.w3.org/1999/xlink" viewBox="0 0 144 80">
<g id="KIR">
		<polygon points="144 80 144 0 0 0 0 80" fill="#CE1126"/>
		<path d="m85.877 50.421c1.171-1.583 2.796-1.572 4.726-0.566-0.259-2.566-3.329-4.189-4.719-4.407 0.565-1.891 2.384-2.835 4.54-2.559-1.113-2.321-4.824-2.396-6.206-2.118-0.104-1.976 1.284-3.491 3.403-3.981-1.828-1.795-5.342-0.578-6.545 0.163-0.766-1.821 0.029-3.728 1.854-4.921-2.323-1.054-5.214 1.309-6.096 2.422-1.333-1.443-1.229-3.513 0.085-5.266-2.539-0.185-4.458 3.045-4.91 4.396-1.744-0.89-2.346-2.859-1.711-4.965-2.445 0.714-3.152 4.41-3.119 5.837-1.937-0.232-3.172-1.881-3.284-4.081-2.059 1.519-1.476 5.238-0.964 6.566-1.898 0.454-3.615-0.667-4.463-2.694-1.421 2.139 0.379 5.433 1.311 6.504-1.632 1.084-3.624 0.628-5.104-0.984-0.614 2.504 2.189 4.974 3.426 5.658-1.168 1.584-1.871 2.75-3.807 1.749 0.268 2.565 2.42 3.005 3.812 3.221l27.771 0.026z" fill="#FCD116"/>
		<path stroke-width=".0624" d="m85.877 50.421c1.171-1.583 2.796-1.572 4.726-0.566-0.259-2.566-3.329-4.189-4.719-4.407 0.565-1.891 2.384-2.835 4.54-2.559-1.113-2.321-4.824-2.396-6.206-2.118-0.104-1.976 1.284-3.491 3.403-3.981-1.828-1.795-5.342-0.578-6.545 0.163-0.766-1.821 0.029-3.728 1.854-4.921-2.323-1.054-5.214 1.309-6.096 2.422-1.333-1.443-1.229-3.513 0.085-5.266-2.539-0.185-4.458 3.045-4.91 4.396-1.744-0.89-2.346-2.859-1.711-4.965-2.445 0.714-3.152 4.41-3.119 5.837-1.937-0.232-3.172-1.881-3.284-4.081-2.059 1.519-1.476 5.238-0.964 6.566-1.898 0.454-3.615-0.667-4.463-2.694-1.421 2.139 0.379 5.433 1.311 6.504-1.632 1.084-3.624 0.628-5.104-0.984-0.614 2.504 2.189 4.974 3.426 5.658-1.168 1.584-1.871 2.75-3.807 1.749 0.268 2.565 2.42 3.005 3.812 3.221l27.771 0.026z" stroke="#000" fill="none"/>
		<polygon points="81.852 47.922 91.398 44.461 81.268 44.512 89.06 37.944 79.556 41.507 84.664 32.633 76.935 39.276 78.741 29.166 73.72 38.088 72.008 27.963 70.295 38.088 65.273 29.166 67.08 39.276 59.352 32.633 64.458 41.507 54.956 37.944 62.748 44.512 52.617 44.461 62.163 47.922" fill="#FCD116"/>
		<polygon stroke-width=".0624" points="81.852 47.922 91.398 44.461 81.268 44.512 89.06 37.944 79.556 41.507 84.664 32.633 76.935 39.276 78.741 29.166 73.72 38.088 72.008 27.963 70.295 38.088 65.273 29.166 67.08 39.276 59.352 32.633 64.458 41.507 54.956 37.944 62.748 44.512 52.617 44.461 62.163 47.922" stroke="#000" fill="none"/>
		<path d="m72.008 57.918c5.439 0 9.851-4.473 9.851-9.989s-4.411-9.988-9.851-9.988c-5.439 0-9.851 4.473-9.851 9.988 0 5.516 4.411 9.989 9.851 9.989z" fill="#FCD116"/>
		<path stroke-width=".0624" d="m72.008 57.918c5.439 0 9.851-4.473 9.851-9.989s-4.411-9.988-9.851-9.988c-5.439 0-9.851 4.473-9.851 9.988 0 5.516 4.411 9.989 9.851 9.989z" stroke="#000" fill="none"/>
		<path d="m102.33 50.531c-4.479 0.043-9.589-2.505-14.341-2.408-5.39 0.111-10.761 4.462-16.284 4.438-5.315-0.025-10.183-5.143-15.387-5.197-5.605-0.062-11.38 4.404-16.582 4.309-4.971-0.092-10.441-4.06-14.791-4.182-12.896-0.366-9.126 6.335-24.945 0.252v32.257h144v-32.51c-14.473 4.942-16.875-0.381-26.285-0.127-4.85 0.216-9.76 3.115-15.39 3.168" fill="#003F87"/>
			<path d="m71.396 11.524c-0.788-1.064-1.77-2.197-2.953-2.729-1.18-0.532-3.295-0.859-5.577-0.266-2.559 0.665-5.603 1.694-8.005 0.998-0.459-0.134-0.786 0.333 0.132 0.864 0.917 0.533 3.248 0.667 5.577 0.366 1.638-0.211 3.806-0.134 4.658 0.2 1.018 0.398 2.855 1.764 3.643 3.16l2.525-2.593z" fill="#FCD116"/>
			<path stroke-width=".0624" d="m71.396 11.524c-0.788-1.064-1.77-2.197-2.953-2.729-1.18-0.532-3.295-0.859-5.577-0.266-2.559 0.665-5.603 1.694-8.005 0.998-0.459-0.134-0.786 0.333 0.132 0.864 0.917 0.533 3.248 0.667 5.577 0.366 1.638-0.211 3.806-0.134 4.658 0.2 1.018 0.398 2.855 1.764 3.643 3.16l2.525-2.593z" stroke="#000" fill="none"/>
			<path d="m76.582 17.313c0.715-0.285 2.323-0.42 2.979-0.309 0.855 0.143 2.042-0.282 2.435-0.457 0.714-0.317-0.039-0.853-2.792-0.699-1.802 0.1-2.506 0.896-2.622 1.465z" fill="#FCD116"/>
			<path stroke-width=".0624" d="m76.582 17.313c0.715-0.285 2.323-0.42 2.979-0.309 0.855 0.143 2.042-0.282 2.435-0.457 0.714-0.317-0.039-0.853-2.792-0.699-1.802 0.1-2.506 0.896-2.622 1.465z" stroke="#000" fill="none"/>
			<path d="m74.776 18.544c1.665-0.639 3.218-2.799 6.037-2.729 2.69 0.067 4.102-0.799 1.771-1.396-2.329-0.6-4.101-0.367-5.675-0.066-2.025 0.384-4.102-1.598-7.186-0.5-1.239 0.441-2.921-0.067-3.709-0.832-0.887-0.861-2.082-0.965-2.953-0.082-0.162 0.165-0.359 0.431-0.9 0.431-0.936 0-2.429 0.017-2.445 1.581 0.493-0.616 0.836-0.715 2.429-0.715 0.244 0 0.541 0.115 0.788 0.532 0.359 0.615 1.162 1.098 1.967 1.115 0.803 0.017 1.145 0.558 1.674 1.131 1.543 1.663 4.988 2.761 8.202 1.53z" fill="#FCD116"/>
			<path stroke-width=".0624" d="m74.776 18.544c1.665-0.639 3.218-2.799 6.037-2.729 2.69 0.067 4.102-0.799 1.771-1.396-2.329-0.6-4.101-0.367-5.675-0.066-2.025 0.384-4.102-1.598-7.186-0.5-1.239 0.441-2.921-0.067-3.709-0.832-0.887-0.861-2.082-0.965-2.953-0.082-0.162 0.165-0.359 0.431-0.9 0.431-0.936 0-2.429 0.017-2.445 1.581 0.493-0.616 0.836-0.715 2.429-0.715 0.244 0 0.541 0.115 0.788 0.532 0.359 0.615 1.162 1.098 1.967 1.115 0.803 0.017 1.145 0.558 1.674 1.131 1.543 1.663 4.988 2.761 8.202 1.53z" stroke="#000" fill="none"/>
			<path d="m67.984 14.519c-0.082 0.844 1.426 1.684 1.903 1.863 0.623 0.233 1.181 0.066 1.313-0.532 0.459 0.399 1.213 0.033 1.213-0.467 0.425 0.201 1.016-0.066 1.116-0.665 0.523 0.134 1.049-0.133 0.983-0.531 0.592 0.233 1.052 0.049 1.149-0.351 0.411 0.15 1.033-0.099 1.164-0.531 0.41 0.166 1.017-0.066 1.165-0.466 0.541 0.199 1.097 0.052 1.344-0.433 0.362 0.216 0.983-0.016 1.084-0.515 0.36 0.231 0.919 0.199 1.05-0.333 0.459 0.316 1.018 0.066 0.984-0.467 0.214 0.101 0.657 0 0.69-0.333 0.853 0.034 1.935 0 1.935-0.632 0.722 0.033 1.737-0.296 1.72-1.076 0.51-0.034 1.14-0.43 1.299-0.986 0.131-0.456-0.395-0.756-1.312-0.799-5.676-0.267-7.119 0.898-9.875 1.132-2.518 0.212-4.098 0.974-5.38 2.462-1.149 1.33-2.288 2.542-2.921 2.961-0.378 0.248-0.606 0.533-0.624 0.699z" fill="#FCD116"/>
			<path stroke-width=".0624" d="m67.984 14.519c-0.082 0.844 1.426 1.684 1.903 1.863 0.623 0.233 1.181 0.066 1.313-0.532 0.459 0.399 1.213 0.033 1.213-0.467 0.425 0.201 1.016-0.066 1.116-0.665 0.523 0.134 1.049-0.133 0.983-0.531 0.592 0.233 1.052 0.049 1.149-0.351 0.411 0.15 1.033-0.099 1.164-0.531 0.41 0.166 1.017-0.066 1.165-0.466 0.541 0.199 1.097 0.052 1.344-0.433 0.362 0.216 0.983-0.016 1.084-0.515 0.36 0.231 0.919 0.199 1.05-0.333 0.459 0.316 1.018 0.066 0.984-0.467 0.214 0.101 0.657 0 0.69-0.333 0.853 0.034 1.935 0 1.935-0.632 0.722 0.033 1.737-0.296 1.72-1.076 0.51-0.034 1.14-0.43 1.299-0.986 0.131-0.456-0.395-0.756-1.312-0.799-5.676-0.267-7.119 0.898-9.875 1.132-2.518 0.212-4.098 0.974-5.38 2.462-1.149 1.33-2.288 2.542-2.921 2.961-0.378 0.248-0.606 0.533-0.624 0.699z" stroke="#000" fill="none"/>
			<path d="m63.982 14.017c0.456 0 0.456-0.689 0-0.689-0.455-0.001-0.463 0.689 0 0.689z"/>
			<path d="m86.799 9.05c-1.1 0.133-2.1-0.019-2.788-0.201" fill="#FCD116"/>
			<path d="m86.799 9.05c-1.1 0.133-2.1-0.019-2.788-0.201" stroke="#000" stroke-linecap="round" stroke-width=".0624" fill="none"/>
			<path d="m85.079 10.126c-0.466 0-1.104-0.082-1.627-0.223" fill="#FCD116"/>
			<path d="m85.079 10.126c-0.466 0-1.104-0.082-1.627-0.223" stroke="#000" stroke-linecap="round" stroke-width=".0624" fill="none"/>
			<path d="m83.145 10.758c-0.331-0.021-0.759-0.127-1.119-0.248" fill="#FCD116"/>
			<path d="m83.145 10.758c-0.331-0.021-0.759-0.127-1.119-0.248" stroke="#000" stroke-linecap="round" stroke-width=".0624" fill="none"/>
		<path d="m144 50.788c-1.717 0.116-4.176 1.321-7.164 2.247-2.785 0.863-7.396 1.043-12.55-0.533-5.636-1.723-7.917-1.482-14.341 0.557-3.469 1.1-10.246 2.451-16.955-0.279-4.781-1.945-7.074-1.994-13.595 0.786-4.894 2.087-11.632 1.853-16.583-0.41-5.079-2.319-7.32-2.622-15.909-0.12-5.776 1.682-10.42 1.76-16.47-0.486-4.717-1.75-7.172-1.529-13.11 0.463-9.351 3.135-14.341-2.062-17.328-1.598v-5.249c2.987-0.463 7.977 4.733 17.323 1.598 5.938-1.99 8.394-2.214 13.11-0.463 6.05 2.246 10.693 2.169 16.47 0.486 8.589-2.5 10.83-2.199 15.909 0.121 4.951 2.262 11.689 2.496 16.583 0.41 6.521-2.781 8.813-2.732 13.595-0.786 6.709 2.731 13.486 1.379 16.955 0.278 6.424-2.037 8.705-2.278 14.341-0.557 5.154 1.574 9.765 1.396 12.55 0.533 2.988-0.926 5.447-2.131 7.164-2.247v5.249h0.01z" fill="#fff"/>
		<path d="m144 61.283c-1.717 0.115-4.176 1.32-7.164 2.247-2.785 0.862-7.396 1.042-12.55-0.533-5.636-1.722-7.917-1.483-14.341 0.556-3.469 1.1-10.246 2.451-16.955-0.277-4.781-1.945-7.074-1.996-13.595 0.784-4.894 2.088-11.632 1.854-16.583-0.409-5.079-2.32-7.32-2.622-15.909-0.12-5.776 1.681-10.42 1.76-16.47-0.487-4.717-1.75-7.172-1.529-13.11 0.464-9.351 3.135-14.341-2.063-17.328-1.599v-5.247c2.987-0.465 7.977 4.731 17.323 1.597 5.938-1.991 8.394-2.214 13.11-0.463 6.05 2.247 10.693 2.168 16.47 0.486 8.589-2.501 10.83-2.199 15.909 0.122 4.951 2.262 11.689 2.494 16.583 0.409 6.521-2.78 8.813-2.73 13.595-0.786 6.709 2.73 13.486 1.378 16.955 0.277 6.424-2.037 8.705-2.278 14.341-0.555 5.154 1.575 9.765 1.396 12.55 0.532 2.988-0.927 5.447-2.13 7.164-2.245v5.247h0.01z" fill="#fff"/>
		<path d="m144 71.776c-1.717 0.116-4.176 1.321-7.164 2.248-2.785 0.862-7.396 1.043-12.55-0.533-5.636-1.722-7.917-1.483-14.341 0.556-3.469 1.101-10.246 2.451-16.955-0.277-4.781-1.945-7.074-1.994-13.595 0.785-4.894 2.087-11.632 1.853-16.583-0.41-5.079-2.32-7.32-2.621-15.909-0.12-5.776 1.683-10.42 1.76-16.47-0.487-4.717-1.75-7.172-1.529-13.11 0.464-9.351 3.133-14.341-2.063-17.328-1.599v-5.249c2.987-0.462 7.977 4.735 17.323 1.6 5.938-1.992 8.394-2.213 13.11-0.464 6.05 2.247 10.693 2.168 16.47 0.486 8.589-2.5 10.83-2.199 15.909 0.122 4.951 2.262 11.689 2.496 16.583 0.409 6.521-2.78 8.813-2.73 13.595-0.786 6.709 2.73 13.486 1.379 16.955 0.279 6.424-2.039 8.705-2.279 14.341-0.556 5.154 1.574 9.765 1.395 12.55 0.531 2.988-0.925 5.447-2.13 7.164-2.245v5.246h0.01z" fill="#fff"/>
</g>
</svg>
