<?xml version="1.0" encoding="UTF-8" standalone="no"?>
<!-- Generator: Adobe Illustrator 18.0.0, SVG Export Plug-In . SVG Version: 6.00 Build 0)  -->
<!DOCTYPE svg  PUBLIC '-//W3C//DTD SVG 1.1//EN'  'http://www.w3.org/Graphics/SVG/1.1/DTD/svg11.dtd'>
<svg style="enable-background:new 0 0 144 80" xmlns="http://www.w3.org/2000/svg" xml:space="preserve" version="1.1" y="0px" x="0px" xmlns:xlink="http://www.w3.org/1999/xlink" viewBox="0 0 144 80">
<g id="BDI">
		<polygon points="143.98 79.871 143.98 -0.129 -0.015 -0.129 -0.015 79.871" fill="#1EB53A"/>
		<polygon points="143.98 -0.129 -0.015 -0.129 71.984 39.871" fill="#CE1126"/>
		<polygon points="143.98 79.871 -0.015 79.871 71.984 39.871" fill="#CE1126"/>
			<defs>
				<polygon id="SVGID_1_" points="143.98 79.871 143.98 -0.129 -0.015 -0.129 -0.015 79.871"/>
			</defs>
			<clipPath id="SVGID_2_">
				<use xlink:href="#SVGID_1_"/>
			</clipPath>
			<g style="clip-path:url(#SVGID_2_)">
					<polygon points="141.56 84.242 -2.442 4.242 2.413 -4.5 146.41 75.5" fill="#fff"/>
					<polygon points="2.23 83.954 -2.59 75.192 141.74 -4.212 146.56 4.55" fill="#fff"/>
			</g>
		<circle cx="71.984" r="21.547" cy="39.871" fill="#fff"/>
			<polygon points="72.125 36.127 73.689 33.445 76.781 33.445 75.246 30.736 76.781 28.027 73.689 28.027 72.125 25.346 70.562 28.027 67.471 28.027 69.006 30.736 67.471 33.445 70.562 33.445" fill="#1EB53A"/>
			<polygon points="63.478 51.381 65.041 48.699 68.133 48.699 66.598 45.99 68.133 43.282 65.041 43.282 63.478 40.601 61.913 43.282 58.823 43.282 60.357 45.99 58.823 48.699 61.913 48.699" fill="#1EB53A"/>
			<polygon points="80.49 51.381 82.055 48.699 85.146 48.699 83.611 45.99 85.146 43.282 82.055 43.282 80.49 40.601 78.928 43.282 75.835 43.282 77.37 45.99 75.835 48.699 78.928 48.699" fill="#1EB53A"/>
			<polygon points="72.125 35.312 73.453 33.035 76.075 33.035 74.774 30.736 76.075 28.438 73.453 28.438 72.125 26.162 70.799 28.438 68.174 28.438 69.477 30.736 68.174 33.035 70.799 33.035" fill="#EE3E42"/>
			<polygon points="63.478 50.565 64.807 48.289 67.427 48.289 66.127 45.99 67.427 43.691 64.807 43.691 63.478 41.416 62.15 43.691 59.526 43.691 60.829 45.99 59.526 48.289 62.15 48.289" fill="#EE3E42"/>
			<polygon points="80.49 50.565 81.818 48.289 84.441 48.289 83.139 45.99 84.441 43.691 81.818 43.691 80.49 41.416 79.164 43.691 76.541 43.691 77.844 45.99 76.541 48.289 79.164 48.289" fill="#EE3E42"/>
</g>
</svg>
