<?xml version="1.0" encoding="UTF-8" standalone="no"?>
<!-- Generator: Adobe Illustrator 18.0.0, SVG Export Plug-In . SVG Version: 6.00 Build 0)  -->
<!DOCTYPE svg  PUBLIC '-//W3C//DTD SVG 1.1//EN'  'http://www.w3.org/Graphics/SVG/1.1/DTD/svg11.dtd'>
<svg style="enable-background:new 0 0 144 80" xmlns="http://www.w3.org/2000/svg" xml:space="preserve" version="1.1" y="0px" x="0px" xmlns:xlink="http://www.w3.org/1999/xlink" viewBox="0 0 144 80">
<g id="ALG">
			<polygon points="144 80 144 0 71.964 0 71.964 80" fill="#fff"/>
			<polygon points="71.964 80 71.964 0 0 0 0 80" fill="#006233"/>
		<g fill="#D21034">
			<path d="m92.726 53.42c-4.084 6.533-11.35 10.869-19.623 10.869-12.766 0-23.115-10.349-23.115-23.115s10.35-23.115 23.115-23.115c8.273 0 15.539 4.337 19.623 10.869-3.215-3.342-7.727-5.43-12.73-5.43-9.762 0-17.676 7.914-17.676 17.676s7.914 17.676 17.676 17.676c5.003 0 9.515-2.088 12.73-5.43z"/>
			<polygon points="86.103 30.361 81.3 37.064 73.39 34.527 78.323 41.239 73.458 47.916 81.308 45.314 86.179 51.996 86.159 43.683 94.013 41.176 86.134 38.649"/>
		</g>
</g>
</svg>
