<?xml version="1.0" encoding="UTF-8" standalone="no"?>
<!-- Generator: Adobe Illustrator 18.0.0, SVG Export Plug-In . SVG Version: 6.00 Build 0)  -->
<!DOCTYPE svg  PUBLIC '-//W3C//DTD SVG 1.1//EN'  'http://www.w3.org/Graphics/SVG/1.1/DTD/svg11.dtd'>
<svg style="enable-background:new 0 0 144 80" xmlns="http://www.w3.org/2000/svg" xml:space="preserve" version="1.1" y="0px" x="0px" xmlns:xlink="http://www.w3.org/1999/xlink" viewBox="0 0 144 80">
<g id="NZL">
		<polygon points="144 80 144 0 0 0 0 80" fill="#00247D"/>
		<polygon points="0 11.994 15.186 11.994 0 4.374 0 0 8.689 0 29.931 10.589 29.931 0 41.893 0 41.893 10.589 63.135 0 71.898 0 71.898 4.374 56.638 11.994 71.898 11.994 71.898 23.997 56.638 23.997 71.898 31.616 71.898 35.992 63.135 35.992 41.893 25.402 41.893 35.992 29.931 35.992 29.931 25.402 8.689 35.992 0 35.992 0 31.616 15.186 23.997 0 23.997" fill="#fff"/>
		<polygon points="66.247 0 42.248 12.003 47.994 12.003 71.898 0" fill="#CC142B"/>
		<polygon points="71.898 35.992 47.969 23.997 53.738 23.997 71.898 33.133" fill="#CC142B"/>
		<polygon points="24.044 12.003 0 0 0 2.866 18.25 12.003" fill="#CC142B"/>
		<polygon points="23.995 23.997 0 35.992 5.742 35.992 29.739 23.997" fill="#CC142B"/>
		<polygon points="0 14.484 32.479 14.484 32.479 0 39.508 0 39.508 14.484 71.898 14.484 71.898 21.514 39.508 21.514 39.508 35.992 32.479 35.992 32.479 21.514 0 21.514" fill="#CC142B"/>
			<polygon points="111.2 14.452 109.9 18.479 105.64 18.479 109.1 20.984 107.77 25.008 111.2 22.509 114.62 25.008 113.31 20.951 116.76 18.496 112.51 18.496" fill="#fff"/>
			<polygon points="94.559 31.17 93.264 35.197 89.002 35.197 92.463 37.703 91.133 41.726 94.559 39.227 97.986 41.726 96.674 37.669 100.12 35.214 95.872 35.214" fill="#fff"/>
			<polygon points="125.52 27.287 124.34 30.972 120.44 30.972 123.6 33.264 122.39 36.945 125.52 34.658 128.66 36.945 127.46 33.234 130.6 30.986 126.72 30.986" fill="#fff"/>
			<polygon points="111.19 57.064 109.74 61.567 104.98 61.567 108.85 64.371 107.36 68.871 111.19 66.075 115.02 68.871 113.56 64.333 117.41 61.588 112.66 61.588" fill="#fff"/>
			<polygon points="111.2 16.422 110.36 19.022 107.61 19.022 109.84 20.643 108.99 23.24 111.2 21.626 113.41 23.24 112.56 20.619 114.79 19.033 112.05 19.033" fill="#CC142B"/>
			<polygon points="94.559 33.14 93.722 35.74 90.969 35.74 93.204 37.359 92.346 39.958 94.559 38.344 96.773 39.958 95.926 37.337 98.149 35.752 95.407 35.752" fill="#CC142B"/>
			<polygon points="125.52 29.467 124.82 31.661 122.49 31.661 124.38 33.025 123.65 35.217 125.52 33.854 127.39 35.217 126.67 33.007 128.55 31.67 126.24 31.67" fill="#CC142B"/>
			<polygon points="111.19 59.183 110.22 62.219 107 62.219 109.61 64.108 108.61 67.142 111.19 65.257 113.78 67.142 112.79 64.083 115.38 62.231 112.18 62.231" fill="#CC142B"/>
</g>
</svg>
