<?xml version="1.0" encoding="UTF-8" standalone="no"?>
<!-- Generator: Adobe Illustrator 18.0.0, SVG Export Plug-In . SVG Version: 6.00 Build 0)  -->
<!DOCTYPE svg  PUBLIC '-//W3C//DTD SVG 1.1//EN'  'http://www.w3.org/Graphics/SVG/1.1/DTD/svg11.dtd'>
<svg style="enable-background:new 0 0 144 80" xmlns="http://www.w3.org/2000/svg" xml:space="preserve" version="1.1" y="0px" x="0px" xmlns:xlink="http://www.w3.org/1999/xlink" viewBox="0 0 144 80">
<g id="SWZ">
			<polygon points="0 0 144 0 144 80 0 80" fill="#435FAB"/>
			<polygon points="0 15 144 15 144 65 0 65" fill="#FFD800"/>
			<polygon points="0 60 144 60 144 20 0 20" fill="#B01F24"/>
			<polygon points="104.53 34.409 107.45 35.799 111.9 33.65 107.45 31.503 104.53 32.893" fill="#D4DCD7"/>
			<polygon stroke-width=".0657" points="104.53 34.409 107.45 35.799 111.9 33.65 107.45 31.503 104.53 32.893" stroke="#000" fill="none"/>
			<polygon points="100.67 38.441 103.59 39.832 108.04 37.685 103.59 35.536 100.67 36.926" fill="#D4DCD7"/>
			<polygon stroke-width=".0657" points="100.67 38.441 103.59 39.832 108.04 37.685 103.59 35.536 100.67 36.926" stroke="#000" fill="none"/>
			<path d="m26.685 42.542c-0.239 0-0.514-0.36-0.508-0.948 0.008-0.6 0.311-0.979 0.508-0.979h90.634c0.195 0 0.495 0.38 0.503 0.979 0.006 0.588-0.266 0.948-0.503 0.948h-90.635z" fill="#FFD800"/>
			<path stroke-width=".0657" d="m26.685 42.542c-0.239 0-0.514-0.36-0.508-0.948 0.008-0.6 0.311-0.979 0.508-0.979h90.634c0.195 0 0.495 0.38 0.503 0.979 0.006 0.588-0.266 0.948-0.503 0.948h-90.635z" stroke="#000" fill="none"/>
			<path d="m38.595 34.409c-0.173 0-0.373-0.284-0.368-0.746 0.005-0.471 0.226-0.771 0.368-0.771h65.936c0.143 0 0.36 0.3 0.366 0.771 0.005 0.462-0.192 0.746-0.366 0.746h-65.935z" fill="#FFD800"/>
			<path stroke-width=".0657" d="m38.595 34.409c-0.173 0-0.373-0.284-0.368-0.746 0.005-0.471 0.226-0.771 0.368-0.771h65.936c0.143 0 0.36 0.3 0.366 0.771 0.005 0.462-0.192 0.746-0.366 0.746h-65.935z" stroke="#000" fill="none"/>
			<path d="m34.729 38.441c-0.172 0-0.374-0.284-0.369-0.744 0.007-0.472 0.227-0.771 0.369-0.771h65.937c0.143 0 0.359 0.3 0.366 0.771 0.005 0.46-0.193 0.744-0.366 0.744h-65.941z" fill="#FFD800"/>
			<path stroke-width=".0657" d="m34.729 38.441c-0.172 0-0.374-0.284-0.369-0.744 0.007-0.472 0.227-0.771 0.369-0.771h65.937c0.143 0 0.359 0.3 0.366 0.771 0.005 0.46-0.193 0.744-0.366 0.744h-65.941zm69.101-5.548c0.143 0 0.36 0.3 0.366 0.771 0.005 0.462-0.194 0.746-0.366 0.746m-0.81-1.517c0.142 0 0.36 0.3 0.366 0.771 0.005 0.462-0.193 0.746-0.366 0.746m-0.81-1.517c0.144 0 0.361 0.3 0.366 0.771 0.005 0.462-0.192 0.746-0.366 0.746m-2.246 2.516c0.142 0 0.359 0.3 0.365 0.771 0.005 0.46-0.192 0.744-0.365 0.744m-0.81-1.515c0.142 0 0.359 0.3 0.365 0.771 0.005 0.46-0.193 0.744-0.365 0.744m-0.809-1.515c0.143 0 0.36 0.3 0.366 0.771 0.005 0.46-0.193 0.744-0.366 0.744" stroke="#000" fill="none"/>
			<path d="m98.734 40c-1.395 1.213-2.979 3.18-5.35 5.843-5.438 6.113-12.978 11.417-21.887 11.417-8.908 0-16.451-5.304-21.888-11.417-2.369-2.663-3.955-4.63-5.349-5.843 1.394-1.213 2.979-3.181 5.349-5.843 5.436-6.113 12.979-11.417 21.888-11.417s16.449 5.304 21.888 11.417c2.37 2.662 3.955 4.63 5.349 5.843z" fill="#fff"/>
			<path stroke-width=".0657" d="m98.734 40c-1.395 1.213-2.979 3.18-5.35 5.843-5.438 6.113-12.978 11.417-21.887 11.417-8.908 0-16.451-5.304-21.888-11.417-2.369-2.663-3.955-4.63-5.349-5.843 1.394-1.213 2.979-3.181 5.349-5.843 5.436-6.113 12.979-11.417 21.888-11.417s16.449 5.304 21.888 11.417c2.37 2.662 3.955 4.63 5.349 5.843z" stroke="#000" fill="none"/>
			<path d="m74.418 57.067c-0.956 0.125-1.93 0.192-2.921 0.192-8.908 0-16.451-5.304-21.888-11.417-2.369-2.663-3.955-4.63-5.349-5.843 1.394-1.213 2.979-3.181 5.349-5.843 5.436-6.113 12.979-11.417 21.888-11.417 0.306 0 0.608 0.004 0.91 0.016-1.349 1.078-3.085 2.653-2.078 4.3 0.493 0.809 0.943 1.124 0.943 2.472 0 1.012 0.202 1.325 0.472 1.325 0.269 0 0.472 0.159 0.472 0.653 0 0.493 0.315 0.629 0.696 0.629 0.382 0 0.83 0.041 0.698 1.259-0.226 2.067-0.432 4.203 1.258 5.258 1.078 0.674 1.214 1.438 0.448 2.293-0.764 0.854-2.493 1.393-2.493 3.056 0 1.395-0.247 2.181-1.012 2.651-0.766 0.472-1.35 1.013-1.35 1.551 0 0.54 0.158 0.877 0.878 1.393 0.719 0.518 1 1.547-0.046 1.572-1.752 0.046-3.168 0.833-1.977 1.754 0.987 0.763 4.384 2.08 5.102 4.146z"/>
			<polygon points="56.002 46.98 56.002 42.277 54.781 42.277 54.781 46.98" fill="#fff"/>
			<polygon points="58.626 46.98 58.626 42.277 57.405 42.277 57.405 46.98" fill="#fff"/>
			<polygon points="61.25 46.98 61.25 42.277 60.028 42.277 60.028 46.98" fill="#fff"/>
			<polygon points="63.874 46.98 63.874 42.277 62.654 42.277 62.654 46.98" fill="#fff"/>
			<polygon points="66.498 46.98 66.498 42.277 65.276 42.277 65.276 46.98" fill="#fff"/>
			<polygon points="69.123 46.98 69.123 42.277 67.901 42.277 67.901 46.98" fill="#fff"/>
			<polygon points="56.002 33.02 56.002 37.722 54.781 37.722 54.781 33.02" fill="#fff"/>
			<polygon points="58.626 33.02 58.626 37.722 57.405 37.722 57.405 33.02" fill="#fff"/>
			<polygon points="61.25 33.02 61.25 37.722 60.028 37.722 60.028 33.02" fill="#fff"/>
			<polygon points="63.874 33.02 63.874 37.722 62.654 37.722 62.654 33.02" fill="#fff"/>
			<polygon points="66.498 33.02 66.498 37.722 65.276 37.722 65.276 33.02" fill="#fff"/>
			<polygon points="69.123 33.02 69.123 37.722 67.901 37.722 67.901 33.02" fill="#fff"/>
			<polygon points="86.992 46.98 86.992 42.277 88.213 42.277 88.213 46.98"/>
			<polygon points="84.369 46.98 84.369 42.277 85.589 42.277 85.589 46.98"/>
			<polygon points="81.744 46.98 81.744 42.277 82.965 42.277 82.965 46.98"/>
			<polygon points="79.12 46.98 79.12 42.277 80.341 42.277 80.341 46.98"/>
			<polygon points="76.496 46.98 76.496 42.277 77.717 42.277 77.717 46.98"/>
			<polygon points="73.872 46.98 73.872 42.277 75.093 42.277 75.093 46.98"/>
			<polygon points="86.992 33.02 86.992 37.722 88.213 37.722 88.213 33.02"/>
			<polygon points="84.369 33.02 84.369 37.722 85.589 37.722 85.589 33.02"/>
			<polygon points="81.744 33.02 81.744 37.722 82.965 37.722 82.965 33.02"/>
			<polygon points="79.12 33.02 79.12 37.722 80.341 37.722 80.341 33.02"/>
			<polygon points="76.496 33.02 76.496 37.722 77.717 37.722 77.717 33.02"/>
			<polygon points="73.872 33.02 73.872 37.722 75.093 37.722 75.093 33.02"/>
			<path d="m62.328 27.101c-1.739 0.95-3.438 2.518-3.506 4.696 0.27-0.135 0.607-0.471 0.832-0.696-0.337 1.528 0.538 3.416 0.314 4.001 0.428-0.248 0.696-0.899 0.764-1.349 0.136 0.989 1.506 1.191 1.664 2.224 0.201-0.156 0.336-0.673 0.292-0.988 0.157 0.832 1.438 1.483 1.73 2.247 0.089-0.247 0.201-0.785 0.157-1.101 0.336 0.876 1.55 1.348 2.786 1.662-1.057-1.393 0.112-2.809-0.383-3.573 0.314 0.54 0.765 0.854 1.304 0.922-0.382-0.157-0.202-1.865-0.786-2.629 0.404 0.135 0.629 0.606 1.462 0.696-0.429-0.786-0.136-1.91-0.767-2.765 0.226 0.136 0.652 0.023 0.899-0.044-0.562-0.495-0.24-1.516-1.82-2.585-0.764-0.517-1.999-0.808-3.033-0.83 0.157-0.091 0.54-0.316 0.854-0.271-0.785-0.246-2.022-0.022-2.763 0.383z" fill="#3E5DA6"/>
			<path stroke-width=".0657" d="m62.328 27.101c-1.739 0.95-3.438 2.518-3.506 4.696 0.27-0.135 0.607-0.471 0.832-0.696-0.337 1.528 0.538 3.416 0.314 4.001 0.428-0.248 0.696-0.899 0.764-1.349 0.136 0.989 1.506 1.191 1.664 2.224 0.201-0.156 0.336-0.673 0.292-0.988 0.157 0.832 1.438 1.483 1.73 2.247 0.089-0.247 0.201-0.785 0.157-1.101 0.336 0.876 1.55 1.348 2.786 1.662-1.057-1.393 0.112-2.809-0.383-3.573 0.314 0.54 0.765 0.854 1.304 0.922-0.382-0.157-0.202-1.865-0.786-2.629 0.404 0.135 0.629 0.606 1.462 0.696-0.429-0.786-0.136-1.91-0.767-2.765 0.226 0.136 0.652 0.023 0.899-0.044-0.562-0.495-0.24-1.516-1.82-2.585-0.764-0.517-1.999-0.808-3.033-0.83 0.157-0.091 0.54-0.316 0.854-0.271-0.785-0.246-2.022-0.022-2.763 0.383z" stroke="#000" fill="none"/>
			<path d="m34.462 40.604c1.395 0.405 0.271 1.261-0.942 0.676-0.045 0.181-0.045 0.854 0.089 1.213-0.584-0.72-2.222-0.396-3.146 1.394-1.393 2.696-0.045 4.045-0.358 4.855 0.313-0.091 0.584-0.406 0.673-0.766-0.224 0.72 0.675 1.889 0.765 2.562 0.18-0.314 0.449-0.945 0.449-1.393 0.091 1.078 1.169 1.348 1.529 2.335 0.134-0.313 0.156-1.1 0.066-1.46 0.292 1.146 1.416 2.449 2.854 2.81-0.292-0.226-0.359-0.787-0.45-1.057 0.338 0.742 1.73 0.427 1.73 0.809 1.012-0.628 0.562-1.887 1.033-2.246-0.089 0.179 0.113 0.785 0.271 0.943 0.135-1.011 1.573-2.336 1.417-3.214 0.111 0.292 0.516 0.585 0.83 0.787-0.382-1.73 0.786-2.696 0.181-4.113 0.337 0.157 0.786 0.157 1.211 0.112-0.29-1.213-1.233-1.258-1.751-2.449-0.518-1.19-2.27-1.483-3.147-1.213-1.034 0.316-1.618-0.628-3.304-0.585z" fill="#3E5DA6"/>
			<path stroke-width=".0657" d="m34.462 40.604c1.395 0.405 0.271 1.261-0.942 0.676-0.045 0.181-0.045 0.854 0.089 1.213-0.584-0.72-2.222-0.396-3.146 1.394-1.393 2.696-0.045 4.045-0.358 4.855 0.313-0.091 0.584-0.406 0.673-0.766-0.224 0.72 0.675 1.889 0.765 2.562 0.18-0.314 0.449-0.945 0.449-1.393 0.091 1.078 1.169 1.348 1.529 2.335 0.134-0.313 0.156-1.1 0.066-1.46 0.292 1.146 1.416 2.449 2.854 2.81-0.292-0.226-0.359-0.787-0.45-1.057 0.338 0.742 1.73 0.427 1.73 0.809 1.012-0.628 0.562-1.887 1.033-2.246-0.089 0.179 0.113 0.785 0.271 0.943 0.135-1.011 1.573-2.336 1.417-3.214 0.111 0.292 0.516 0.585 0.83 0.787-0.382-1.73 0.786-2.696 0.181-4.113 0.337 0.157 0.786 0.157 1.211 0.112-0.29-1.213-1.233-1.258-1.751-2.449-0.518-1.19-2.27-1.483-3.147-1.213-1.034 0.316-1.618-0.628-3.304-0.585z" stroke="#000" fill="none"/>
			<path d="m109.56 40.561c0.27 0 0.447 0.547-0.359 0.854-0.943 0.358-2.427 1.438-2.517 2.427-1.71 1.617-0.675 2.786-1.169 3.82 0.315-0.135 0.809-0.494 1.034-0.988-0.54 2.382 1.348 3.325 1.258 4.494 0.18-0.493 0.897-0.943 0.989-1.349 0.494 2.113 1.933 1.978 2.247 3.281 0.135-0.27 0.719-0.854 0.765-1.304 0.18 0.225 0.269 0.988 0.269 1.168 0.225-0.315 0.675-0.943 0.72-1.303 0.135 0.27 0.18 0.495 0.135 0.809 0.809-0.449 0.809-2.066 1.304-2.562 0 0.54 0.134 0.944 0.315 1.259 0.09-0.81 1.168-1.978 0.943-3.057 0.314 0.314 0.45 0.764 0.495 1.304 0.449-0.764 0.045-2.202 0.314-2.877 0.09 0.271 0.27 0.765 0.629 1.079-0.315-0.359 0.045-1.887-0.539-2.967 0.224 0.09 0.764 0.494 0.898 0.765-0.225-1.618-0.719-3.687-2.427-4-1.708-0.314-3.011 0.181-3.551-0.765-0.52-0.942-1.28-1.436-1.74-0.088z" fill="#3E5DA6"/>
			<path d="m61.475 29.169c-1.013 0.606-0.201 2-0.674 2.493 0.696-0.269 1.483-1.91 0.674-2.493z" fill="#B51F54"/>
			<path d="m62.439 31.627c-0.442 0.885 0.662 1.846 0.39 2.645 0.545-0.871 0.576-2.493-0.39-2.645z" fill="#B51F54"/>
			<path d="m63.294 28.293c0.54-0.474 2 0.493 3.124 0.224-0.65 0.359-2.18 0.742-3.124-0.224z" fill="#B51F54"/>
			<path d="m64.855 30.198c0.957 0.397 1.005 1.296 1.714 1.671-0.671-0.072-1.845-0.782-1.714-1.671z" fill="#B51F54"/>
			<path d="m64.733 32.898c-0.181 0.832 0.876 1.259 0.72 2.314 0.315-0.584 0.246-2.583-0.72-2.314z" fill="#B51F54"/>
			<path d="m32.936 43.932c-1.439 0.18-0.854 1.932-1.484 2.651 0.988-0.269 2.111-1.933 1.484-2.651z" fill="#B51F54"/>
			<path d="m34.552 44.517c-0.448 0.719 0 2.157-0.269 2.741 0.493-0.494 1.258-2.382 0.269-2.741z" fill="#B51F54"/>
			<path d="m34.562 48.422c-0.109 1.096 1.259 1.915 1.203 2.791 0.439-0.985-0.273-2.627-1.203-2.791z" fill="#B51F54"/>
			<path d="m37.685 50.433c-0.359-1.595 0.927-2.008 0.618-2.882 1.132 0.36-0.104 1.697-0.618 2.882z" fill="#B51F54"/>
			<path d="m36.53 42.673c1.438-0.089 2.606 1.393 3.731 1.438-1.079 0.225-4-0.584-3.731-1.438z" fill="#B51F54"/>
			<path d="m37.43 44.561c0.357 0.898 1.707 0.72 2.066 2.113-0.314-0.226-2.921-1.124-2.066-2.113z" fill="#B51F54"/>
			<path d="m109.03 42.854c-0.88-0.064-1.37 2.19-2.055 2.525 0.89-0.12 2.54-1.74 2.05-2.525z" fill="#B51F54"/>
			<path d="m110.51 46.54c-0.794 0.4-0.305 2.076-0.899 2.731 0.55-0.527 1.54-2.237 0.9-2.731z" fill="#B51F54"/>
			<path d="m112.04 47.765c-0.81 1.383 0.577 2.143 0.403 2.953 0.23-0.952 0.29-2.095-0.4-2.953z" fill="#B51F54"/>
			<path d="m112.08 42.403c1.07-0.192 1.504 1.18 2.588 1.257-1.17 0.108-2.72-0.349-2.59-1.257z" fill="#B51F54"/>
			<path d="m112.8 44.605c1.256 0.485 0.767 2.238 1.716 2.839-1.06-0.276-2.64-1.952-1.72-2.839z" fill="#B51F54"/>
			<path d="m110.55 43.977c-0.988 0.09-1.079 2.697-2.111 2.966 0.99-0.134 2.65-2.248 2.11-2.966z" fill="#B51F54"/>
</g>
</svg>
