<?xml version="1.0" encoding="UTF-8" standalone="no"?>
<!-- Generator: Adobe Illustrator 18.0.0, SVG Export Plug-In . SVG Version: 6.00 Build 0)  -->
<!DOCTYPE svg  PUBLIC '-//W3C//DTD SVG 1.1//EN'  'http://www.w3.org/Graphics/SVG/1.1/DTD/svg11.dtd'>
<svg style="enable-background:new 0 0 144 80" xmlns="http://www.w3.org/2000/svg" xml:space="preserve" version="1.1" y="0px" x="0px" xmlns:xlink="http://www.w3.org/1999/xlink" viewBox="0 0 144 80">
<g id="CRO">
			<polygon points="144 26.666 0 26.666 0 0 144 0" fill="#DE1818"/>
			<polygon points="0 80 144 80 144 53.333 0 53.333" fill="#00298C"/>
			<polygon points="144 53.333 0 53.333 0 26.666 144 26.666" fill="#fff"/>
			<path d="m72 26.432c4.749 0 9.27 0.981 13.368 2.749l2.797-6.747-2.578-4.021-3.915 1.525-2.794-3.137-3.628 2.119-3.25-2.66-3.25 2.66-3.628-2.119-2.794 3.137-3.915-1.525-2.578 4.021 2.796 6.747c4.1-1.768 8.62-2.749 13.369-2.749z" fill="#fff"/>
			<path stroke-width=".0581" d="m72 26.432c4.749 0 9.27 0.981 13.368 2.749l2.797-6.747-2.578-4.021-3.915 1.525-2.794-3.137-3.628 2.119-3.25-2.66-3.25 2.66-3.628-2.119-2.794 3.137-3.915-1.525-2.578 4.021 2.796 6.747c4.1-1.768 8.62-2.749 13.369-2.749z" stroke="#000" fill="none"/>
			<path d="m85.888 29.183v14.164c0 7.671-6.219 13.89-13.89 13.89s-13.89-6.219-13.89-13.89v-14.164h27.78z" fill="#fff"/>
			<path stroke-width=".0581" d="m85.888 29.183v14.164c0 7.671-6.219 13.89-13.89 13.89s-13.89-6.219-13.89-13.89v-14.164h27.78z" stroke="#000" fill="none"/>
			<path d="m85.219 29.853v13.494c0 7.302-5.919 13.221-13.221 13.221-7.301 0-13.22-5.919-13.22-13.221 0-2.496-0.002-13.494-0.002-13.494h26.443z" fill="#DE1818"/>
			<path stroke-width=".0581" d="m85.219 29.853v13.494c0 7.302-5.919 13.221-13.221 13.221-7.301 0-13.22-5.919-13.22-13.221 0-2.496-0.002-13.494-0.002-13.494h26.443z" stroke="#000" fill="none"/>
			<polygon points="74.646 51.012 74.646 45.722 69.483 45.722 69.483 51.012" fill="#fff"/>
			<polygon stroke-width=".0581" points="74.646 51.012 74.646 45.722 69.483 45.722 69.483 51.012" stroke="#000" fill="none"/>
			<polygon points="74.646 40.432 74.646 35.141 69.483 35.141 69.483 40.432" fill="#fff"/>
			<polygon stroke-width=".0581" points="74.646 40.432 74.646 35.141 69.483 35.141 69.483 40.432" stroke="#000" fill="none"/>
			<polygon points="79.937 45.723 79.937 40.431 74.646 40.431 74.646 45.723" fill="#fff"/>
			<polygon stroke-width=".0581" points="79.937 45.723 79.937 40.431 74.646 40.431 74.646 45.723" stroke="#000" fill="none"/>
			<polygon points="79.937 35.141 79.937 29.852 74.646 29.852 74.646 35.141" fill="#fff"/>
			<polygon stroke-width=".0581" points="79.937 35.141 79.937 29.852 74.646 29.852 74.646 35.141" stroke="#000" fill="none"/>
			<polygon points="85.228 40.432 85.228 35.141 79.937 35.141 79.937 40.432" fill="#fff"/>
			<polygon stroke-width=".0581" points="85.228 40.432 85.228 35.141 79.937 35.141 79.937 40.432" stroke="#000" fill="none"/>
			<polygon points="69.483 45.723 69.483 40.431 64.066 40.431 64.066 45.723" fill="#fff"/>
			<polygon stroke-width=".0581" points="69.483 45.723 69.483 40.431 64.066 40.431 64.066 45.723" stroke="#000" fill="none"/>
			<polygon points="69.483 35.141 69.483 29.852 64.066 29.852 64.066 35.141" fill="#fff"/>
			<polygon stroke-width=".0581" points="69.483 35.141 69.483 29.852 64.066 29.852 64.066 35.141" stroke="#000" fill="none"/>
			<polygon points="64.067 40.432 64.067 35.141 58.776 35.141 58.776 40.432" fill="#fff"/>
			<polygon stroke-width=".0581" points="64.067 40.432 64.067 35.141 58.776 35.141 58.776 40.432" stroke="#000" fill="none"/>
			<path d="m69.483 56.304v-5.292h-5.417l-0.004 2.905c1.542 1.159 3.46 1.99 5.421 2.387z" fill="#fff"/>
			<path stroke-width=".0581" d="m69.483 56.304v-5.292h-5.417l-0.004 2.905c1.542 1.159 3.46 1.99 5.421 2.387z" stroke="#000" fill="none"/>
			<path d="m58.989 45.721l5.078 0.001v5.29h-2.834c-1.104-1.549-1.89-3.346-2.244-5.291z" fill="#fff"/>
			<path stroke-width=".0581" d="m58.989 45.721l5.078 0.001v5.29h-2.834c-1.104-1.549-1.89-3.346-2.244-5.291z" stroke="#000" fill="none"/>
			<path d="m74.646 56.304v-5.292h5.291l0.005 2.905c-1.541 1.159-3.336 1.99-5.296 2.387z" fill="#fff"/>
			<path stroke-width=".0581" d="m74.646 56.304v-5.292h5.291l0.005 2.905c-1.541 1.159-3.336 1.99-5.296 2.387z" stroke="#000" fill="none"/>
			<path d="m85.014 45.721l-5.077 0.001v5.29h2.836c1.103-1.549 1.888-3.346 2.241-5.291z" fill="#fff"/>
			<path stroke-width=".0581" d="m85.014 45.721l-5.077 0.001v5.29h2.836c1.103-1.549 1.888-3.346 2.241-5.291z" stroke="#000" fill="none"/>
			<path d="m66.644 26.406c0.893-0.141 1.783-0.246 2.67-0.317l-0.521-6.622-3.58-2.093-2.759 3.097 1.552 6.46c0.865-0.207 1.745-0.382 2.638-0.525z" fill="#005A9A"/>
			<path stroke-width=".0581" d="m66.644 26.406c0.893-0.141 1.783-0.246 2.67-0.317l-0.521-6.622-3.58-2.093-2.759 3.097 1.552 6.46c0.865-0.207 1.745-0.382 2.638-0.525z" stroke="#000" fill="none"/>
			<path d="m61.419 27.661c0.859-0.279 1.724-0.522 2.587-0.73l-1.552-6.46-3.86-1.507-2.24 3.489 2.542 6.137c0.823-0.339 1.664-0.649 2.523-0.929z" fill="#007CC1"/>
			<path stroke-width=".0581" d="m61.419 27.661c0.859-0.279 1.724-0.522 2.587-0.73l-1.552-6.46-3.86-1.507-2.24 3.489 2.542 6.137c0.823-0.339 1.664-0.649 2.523-0.929z" stroke="#000" fill="none"/>
			<path d="m72 25.985c0.904 0 1.801 0.035 2.687 0.104l0.521-6.622-3.208-2.627-3.207 2.627 0.521 6.622c0.886-0.068 1.782-0.104 2.686-0.104z" fill="#007CC1"/>
			<path stroke-width=".0581" d="m72 25.985c0.904 0 1.801 0.035 2.687 0.104l0.521-6.622-3.208-2.627-3.207 2.627 0.521 6.622c0.886-0.068 1.782-0.104 2.686-0.104z" stroke="#000" fill="none"/>
			<path d="m77.356 26.406c-0.893-0.141-1.783-0.246-2.67-0.317l0.521-6.622 3.579-2.093 2.758 3.097-1.551 6.46c-0.864-0.207-1.744-0.382-2.637-0.525z" fill="#005A9A"/>
			<path stroke-width=".0581" d="m77.356 26.406c-0.893-0.141-1.783-0.246-2.67-0.317l0.521-6.622 3.579-2.093 2.758 3.097-1.551 6.46c-0.864-0.207-1.744-0.382-2.637-0.525z" stroke="#000" fill="none"/>
			<path d="m82.581 27.661c-0.859-0.279-1.723-0.522-2.587-0.73l1.551-6.46 3.861-1.507 2.241 3.489-2.543 6.137c-0.822-0.339-1.663-0.649-2.523-0.929z" fill="#007CC1"/>
			<path stroke-width=".0581" d="m82.581 27.661c-0.859-0.279-1.723-0.522-2.587-0.73l1.551-6.46 3.861-1.507 2.241 3.489-2.543 6.137c-0.822-0.339-1.663-0.649-2.523-0.929z" stroke="#000" fill="none"/>
			<path d="m86.828 24.427l-1.358 3.279c-1.713-0.709-3.469-1.277-5.252-1.704l0.828-3.45c1.963 0.469 3.897 1.094 5.782 1.875z" fill="#fff"/>
			<path stroke-width=".0581" d="m86.828 24.427l-1.358 3.279c-1.713-0.709-3.469-1.277-5.252-1.704l0.828-3.45c1.963 0.469 3.897 1.094 5.782 1.875z" stroke="#000" fill="none"/>
			<path d="m86.557 25.08c-1.848-0.765-3.75-1.375-5.678-1.836l-0.499 2.066c1.824 0.435 3.615 1.019 5.362 1.743l0.815-1.973z" fill="#EC1C2E"/>
			<path stroke-width=".0581" d="m86.557 25.08c-1.848-0.765-3.75-1.375-5.678-1.836l-0.499 2.066c1.824 0.435 3.615 1.019 5.362 1.743l0.815-1.973z" stroke="#000" fill="none"/>
			<path d="m63.245 23.762c1.915-0.459 3.859-0.762 5.814-0.914l0.131 1.675c-1.867 0.147-3.723 0.439-5.553 0.877l-0.392-1.638z" fill="#EC1C2E"/>
			<path stroke-width=".0581" d="m63.245 23.762c1.915-0.459 3.859-0.762 5.814-0.914l0.131 1.675c-1.867 0.147-3.723 0.439-5.553 0.877l-0.392-1.638z" stroke="#000" fill="none"/>
			<path d="m68.928 21.169c-2.044 0.159-4.074 0.476-6.077 0.956l-0.393-1.636c2.089-0.5 4.207-0.834 6.337-1l0.133 1.68z" fill="#EC1C2E"/>
			<path stroke-width=".0581" d="m68.928 21.169c-2.044 0.159-4.074 0.476-6.077 0.956l-0.393-1.636c2.089-0.5 4.207-0.834 6.337-1l0.133 1.68z" stroke="#000" fill="none"/>
			<polygon points="59.854 22.84 60.006 22.147 60.677 21.93 60.152 21.451 60.295 20.754 59.624 20.971 59.096 20.499 58.944 21.191 58.273 21.409 58.797 21.89 58.655 22.586 59.327 22.368" fill="#FFF100"/>
			<polygon stroke-width=".029" points="59.854 22.84 60.006 22.147 60.677 21.93 60.152 21.451 60.295 20.754 59.624 20.971 59.096 20.499 58.944 21.191 58.273 21.409 58.797 21.89 58.655 22.586 59.327 22.368" stroke="#000" fill="none"/>
			<polygon points="84.146 22.84 83.994 22.147 83.323 21.93 83.848 21.451 83.705 20.754 84.376 20.971 84.905 20.499 85.056 21.191 85.727 21.409 85.202 21.89 85.345 22.586 84.674 22.368" fill="#FFF100"/>
			<polygon stroke-width=".029" points="84.146 22.84 83.994 22.147 83.323 21.93 83.848 21.451 83.705 20.754 84.376 20.971 84.905 20.499 85.056 21.191 85.727 21.409 85.202 21.89 85.345 22.586 84.674 22.368" stroke="#000" fill="none"/>
			<path d="m61.889 23.507c0.078 0.124 0.143 0.259 0.191 0.405 0.307 0.94-0.205 1.949-1.145 2.257-0.939 0.308-1.95-0.205-2.258-1.145-0.047-0.146-0.074-0.292-0.084-0.439 0.43 0.673 1.273 0.999 2.065 0.738 0.794-0.258 1.282-1.019 1.231-1.816z" fill="#fff"/>
			<path stroke-linejoin="bevel" d="m61.889 23.507c0.078 0.124 0.143 0.259 0.191 0.405 0.307 0.94-0.205 1.949-1.145 2.257-0.939 0.308-1.95-0.205-2.258-1.145-0.047-0.146-0.074-0.292-0.084-0.439 0.43 0.673 1.273 0.999 2.065 0.738 0.794-0.258 1.282-1.019 1.231-1.816z" stroke="#000" stroke-width=".029" fill="none"/>
			<path d="m72 24.271c0.172 0 0.095-0.127 0.204-0.118-0.046-0.117 0.049-0.176 0.094-0.135 0.045 0.04 0.131 0.077 0.263 0.09-0.077-0.058 0.031-0.177-0.05-0.294 0.062 0.073 0.207 0.104 0.294 0.059-0.06-0.081-0.096-0.226-0.067-0.28 0.111 0.082 0.216 0 0.27 0.068 0.028-0.092-0.014-0.222-0.067-0.262 0.091 0.018 0.1-0.087 0.185-0.082-0.049-0.122-0.202-0.1-0.252-0.172 0.086-0.041 0.135-0.104 0.153-0.19-0.072 0.028-0.185-0.004-0.23-0.014-0.112-0.021-0.189-0.075-0.1-0.147 0.071-0.059 0.091-0.199 0.081-0.316-0.049 0.049-0.185 0.009-0.234 0.071-0.1-0.126-0.315-0.216-0.542-0.216-0.226 0-0.442 0.09-0.542 0.216-0.049-0.062-0.186-0.022-0.234-0.071-0.01 0.117 0.01 0.258 0.08 0.316 0.092 0.072 0.014 0.126-0.099 0.147-0.045 0.01-0.158 0.042-0.229 0.014 0.018 0.087 0.067 0.149 0.152 0.19-0.049 0.072-0.203 0.05-0.252 0.172 0.085-0.005 0.094 0.1 0.185 0.082-0.054 0.04-0.095 0.17-0.067 0.262 0.054-0.068 0.158 0.014 0.271-0.068 0.026 0.055-0.01 0.199-0.068 0.28 0.086 0.045 0.23 0.014 0.293-0.059-0.08 0.117 0.027 0.236-0.049 0.294 0.131-0.013 0.217-0.05 0.262-0.09 0.045-0.041 0.14 0.017 0.096 0.135 0.104-0.008 0.028 0.118 0.199 0.118z" fill="#FFF100"/>
			<path stroke-width=".029" d="m72 24.271c0.172 0 0.095-0.127 0.204-0.118-0.046-0.117 0.049-0.176 0.094-0.135 0.045 0.04 0.131 0.077 0.263 0.09-0.077-0.058 0.031-0.177-0.05-0.294 0.062 0.073 0.207 0.104 0.294 0.059-0.06-0.081-0.096-0.226-0.067-0.28 0.111 0.082 0.216 0 0.27 0.068 0.028-0.092-0.014-0.222-0.067-0.262 0.091 0.018 0.1-0.087 0.185-0.082-0.049-0.122-0.202-0.1-0.252-0.172 0.086-0.041 0.135-0.104 0.153-0.19-0.072 0.028-0.185-0.004-0.23-0.014-0.112-0.021-0.189-0.075-0.1-0.147 0.071-0.059 0.091-0.199 0.081-0.316-0.049 0.049-0.185 0.009-0.234 0.071-0.1-0.126-0.315-0.216-0.542-0.216-0.226 0-0.442 0.09-0.542 0.216-0.049-0.062-0.186-0.022-0.234-0.071-0.01 0.117 0.01 0.258 0.08 0.316 0.092 0.072 0.014 0.126-0.099 0.147-0.045 0.01-0.158 0.042-0.229 0.014 0.018 0.087 0.067 0.149 0.152 0.19-0.049 0.072-0.203 0.05-0.252 0.172 0.085-0.005 0.094 0.1 0.185 0.082-0.054 0.04-0.095 0.17-0.067 0.262 0.054-0.068 0.158 0.014 0.271-0.068 0.026 0.055-0.01 0.199-0.068 0.28 0.086 0.045 0.23 0.014 0.293-0.059-0.08 0.117 0.027 0.236-0.049 0.294 0.131-0.013 0.217-0.05 0.262-0.09 0.045-0.041 0.14 0.017 0.096 0.135 0.104-0.008 0.028 0.118 0.199 0.118z" stroke="#000" fill="none"/>
			<path d="m72 22.43c0.167 0 0.396 0.098 0.425 0.039 0.043-0.085 0.2-0.341 0.287-0.385 0.088-0.044 0.062-0.122 0.02-0.144-0.035-0.018-0.09 0.013-0.09 0.069 0 0.035-0.017 0.038-0.055 0.038-0.065 0-0.186 0.046-0.164 0.171 0.004 0.028-0.036 0.06-0.12 0.036-0.085-0.024-0.076-0.065-0.041-0.097 0.036-0.03 0.021-0.142-0.088-0.143-0.106-0.003-0.106-0.075-0.089-0.104 0.028-0.045 0.021-0.145-0.085-0.145s-0.113 0.1-0.085 0.145c0.02 0.029 0.02 0.102-0.09 0.104-0.108 0.002-0.123 0.113-0.087 0.143 0.035 0.031 0.045 0.072-0.04 0.097-0.085 0.023-0.126-0.008-0.121-0.036 0.021-0.125-0.099-0.171-0.164-0.171-0.038 0-0.055-0.003-0.055-0.038 0-0.057-0.055-0.087-0.089-0.069-0.042 0.022-0.069 0.101 0.019 0.144 0.087 0.044 0.244 0.3 0.288 0.385 0.028 0.058 0.257-0.039 0.424-0.039z" fill="#FFF100"/>
			<path stroke-width=".029" d="m72 22.43c0.167 0 0.396 0.098 0.425 0.039 0.043-0.085 0.2-0.341 0.287-0.385 0.088-0.044 0.062-0.122 0.02-0.144-0.035-0.018-0.09 0.013-0.09 0.069 0 0.035-0.017 0.038-0.055 0.038-0.065 0-0.186 0.046-0.164 0.171 0.004 0.028-0.036 0.06-0.12 0.036-0.085-0.024-0.076-0.065-0.041-0.097 0.036-0.03 0.021-0.142-0.088-0.143-0.106-0.003-0.106-0.075-0.089-0.104 0.028-0.045 0.021-0.145-0.085-0.145s-0.113 0.1-0.085 0.145c0.02 0.029 0.02 0.102-0.09 0.104-0.108 0.002-0.123 0.113-0.087 0.143 0.035 0.031 0.045 0.072-0.04 0.097-0.085 0.023-0.126-0.008-0.121-0.036 0.021-0.125-0.099-0.171-0.164-0.171-0.038 0-0.055-0.003-0.055-0.038 0-0.057-0.055-0.087-0.089-0.069-0.042 0.022-0.069 0.101 0.019 0.144 0.087 0.044 0.244 0.3 0.288 0.385 0.028 0.058 0.257-0.039 0.424-0.039z" stroke="#000" fill="none"/>
			<path d="m70.258 21.716c0.172 0 0.095-0.126 0.204-0.117-0.046-0.117 0.05-0.177 0.094-0.136 0.045 0.041 0.131 0.076 0.262 0.09-0.076-0.058 0.032-0.176-0.049-0.293 0.062 0.072 0.207 0.104 0.294 0.059-0.06-0.082-0.096-0.226-0.068-0.281 0.112 0.082 0.217 0 0.271 0.068 0.027-0.091-0.014-0.222-0.067-0.263 0.091 0.019 0.1-0.085 0.185-0.081-0.049-0.121-0.202-0.1-0.252-0.172 0.085-0.04 0.135-0.102 0.154-0.188-0.073 0.026-0.186-0.005-0.232-0.015-0.112-0.021-0.19-0.076-0.1-0.148 0.072-0.058 0.091-0.198 0.081-0.317-0.05 0.051-0.185 0.01-0.234 0.073-0.1-0.126-0.316-0.218-0.542-0.218s-0.442 0.092-0.542 0.218c-0.049-0.063-0.186-0.022-0.235-0.073-0.009 0.119 0.011 0.26 0.081 0.317 0.092 0.072 0.014 0.127-0.099 0.148-0.045 0.01-0.158 0.041-0.23 0.015 0.019 0.086 0.067 0.148 0.153 0.188-0.05 0.072-0.203 0.051-0.252 0.172 0.085-0.004 0.094 0.1 0.185 0.081-0.054 0.041-0.095 0.172-0.067 0.263 0.054-0.068 0.158 0.014 0.271-0.068 0.026 0.055-0.01 0.199-0.068 0.281 0.086 0.044 0.23 0.013 0.293-0.059-0.08 0.117 0.027 0.235-0.049 0.293 0.131-0.014 0.217-0.049 0.262-0.09s0.14 0.019 0.094 0.136c0.107-0.009 0.031 0.117 0.202 0.117z" fill="#FFF100"/>
			<path stroke-width=".029" d="m70.258 21.716c0.172 0 0.095-0.126 0.204-0.117-0.046-0.117 0.05-0.177 0.094-0.136 0.045 0.041 0.131 0.076 0.262 0.09-0.076-0.058 0.032-0.176-0.049-0.293 0.062 0.072 0.207 0.104 0.294 0.059-0.06-0.082-0.096-0.226-0.068-0.281 0.112 0.082 0.217 0 0.271 0.068 0.027-0.091-0.014-0.222-0.067-0.263 0.091 0.019 0.1-0.085 0.185-0.081-0.049-0.121-0.202-0.1-0.252-0.172 0.085-0.04 0.135-0.102 0.154-0.188-0.073 0.026-0.186-0.005-0.232-0.015-0.112-0.021-0.19-0.076-0.1-0.148 0.072-0.058 0.091-0.198 0.081-0.317-0.05 0.051-0.185 0.01-0.234 0.073-0.1-0.126-0.316-0.218-0.542-0.218s-0.442 0.092-0.542 0.218c-0.049-0.063-0.186-0.022-0.235-0.073-0.009 0.119 0.011 0.26 0.081 0.317 0.092 0.072 0.014 0.127-0.099 0.148-0.045 0.01-0.158 0.041-0.23 0.015 0.019 0.086 0.067 0.148 0.153 0.188-0.05 0.072-0.203 0.051-0.252 0.172 0.085-0.004 0.094 0.1 0.185 0.081-0.054 0.041-0.095 0.172-0.067 0.263 0.054-0.068 0.158 0.014 0.271-0.068 0.026 0.055-0.01 0.199-0.068 0.281 0.086 0.044 0.23 0.013 0.293-0.059-0.08 0.117 0.027 0.235-0.049 0.293 0.131-0.014 0.217-0.049 0.262-0.09s0.14 0.019 0.094 0.136c0.107-0.009 0.031 0.117 0.202 0.117z" stroke="#000" fill="none"/>
			<path d="m70.258 19.875c0.167 0 0.396 0.098 0.425 0.038 0.043-0.085 0.2-0.34 0.287-0.385 0.088-0.044 0.061-0.121 0.019-0.143-0.035-0.019-0.09 0.012-0.09 0.068 0 0.036-0.017 0.038-0.055 0.038-0.065 0-0.186 0.047-0.165 0.172 0.005 0.028-0.035 0.06-0.119 0.035-0.085-0.023-0.076-0.066-0.041-0.096 0.036-0.031 0.021-0.143-0.088-0.145-0.108-0.003-0.108-0.075-0.089-0.104 0.028-0.046 0.021-0.145-0.085-0.145s-0.113 0.099-0.085 0.145c0.02 0.028 0.02 0.101-0.09 0.104-0.108 0.002-0.123 0.113-0.087 0.145 0.035 0.03 0.045 0.072-0.041 0.096-0.084 0.024-0.125-0.007-0.12-0.035 0.021-0.125-0.099-0.172-0.164-0.172-0.038 0-0.055-0.002-0.055-0.038 0-0.057-0.055-0.087-0.09-0.068-0.041 0.022-0.067 0.1 0.02 0.143 0.087 0.045 0.245 0.3 0.287 0.385 0.029 0.06 0.259-0.038 0.426-0.038z" fill="#FFF100"/>
			<path stroke-width=".029" d="m70.258 19.875c0.167 0 0.396 0.098 0.425 0.038 0.043-0.085 0.2-0.34 0.287-0.385 0.088-0.044 0.061-0.121 0.019-0.143-0.035-0.019-0.09 0.012-0.09 0.068 0 0.036-0.017 0.038-0.055 0.038-0.065 0-0.186 0.047-0.165 0.172 0.005 0.028-0.035 0.06-0.119 0.035-0.085-0.023-0.076-0.066-0.041-0.096 0.036-0.031 0.021-0.143-0.088-0.145-0.108-0.003-0.108-0.075-0.089-0.104 0.028-0.046 0.021-0.145-0.085-0.145s-0.113 0.099-0.085 0.145c0.02 0.028 0.02 0.101-0.09 0.104-0.108 0.002-0.123 0.113-0.087 0.145 0.035 0.03 0.045 0.072-0.041 0.096-0.084 0.024-0.125-0.007-0.12-0.035 0.021-0.125-0.099-0.172-0.164-0.172-0.038 0-0.055-0.002-0.055-0.038 0-0.057-0.055-0.087-0.09-0.068-0.041 0.022-0.067 0.1 0.02 0.143 0.087 0.045 0.245 0.3 0.287 0.385 0.029 0.06 0.259-0.038 0.426-0.038z" stroke="#000" fill="none"/>
			<path d="m73.742 21.716c-0.172 0-0.095-0.126-0.203-0.117 0.045-0.117-0.05-0.177-0.095-0.136s-0.131 0.076-0.262 0.09c0.076-0.058-0.031-0.176 0.049-0.293-0.062 0.072-0.207 0.104-0.293 0.059 0.059-0.082 0.095-0.226 0.068-0.281-0.113 0.082-0.218 0-0.271 0.068-0.027-0.091 0.014-0.222 0.067-0.263-0.091 0.019-0.1-0.085-0.185-0.081 0.049-0.121 0.203-0.1 0.252-0.172-0.085-0.04-0.135-0.102-0.152-0.188 0.071 0.026 0.185-0.005 0.229-0.015 0.112-0.021 0.191-0.076 0.1-0.148-0.071-0.058-0.091-0.198-0.082-0.317 0.05 0.051 0.187 0.01 0.235 0.073 0.1-0.126 0.316-0.218 0.542-0.218s0.442 0.092 0.542 0.218c0.049-0.063 0.186-0.022 0.235-0.073 0.009 0.119-0.011 0.26-0.082 0.317-0.09 0.072-0.013 0.127 0.1 0.148 0.046 0.01 0.158 0.041 0.23 0.015-0.019 0.086-0.067 0.148-0.153 0.188 0.05 0.072 0.203 0.051 0.252 0.172-0.085-0.004-0.094 0.1-0.185 0.081 0.054 0.041 0.096 0.172 0.067 0.263-0.054-0.068-0.158 0.014-0.27-0.068-0.027 0.055 0.009 0.199 0.066 0.281-0.086 0.044-0.23 0.013-0.293-0.059 0.08 0.117-0.027 0.235 0.049 0.293-0.131-0.014-0.216-0.049-0.262-0.09-0.045-0.041-0.14 0.019-0.094 0.136-0.106-0.009-0.03 0.117-0.201 0.117z" fill="#FFF100"/>
			<path stroke-width=".029" d="m73.742 21.716c-0.172 0-0.095-0.126-0.203-0.117 0.045-0.117-0.05-0.177-0.095-0.136s-0.131 0.076-0.262 0.09c0.076-0.058-0.031-0.176 0.049-0.293-0.062 0.072-0.207 0.104-0.293 0.059 0.059-0.082 0.095-0.226 0.068-0.281-0.113 0.082-0.218 0-0.271 0.068-0.027-0.091 0.014-0.222 0.067-0.263-0.091 0.019-0.1-0.085-0.185-0.081 0.049-0.121 0.203-0.1 0.252-0.172-0.085-0.04-0.135-0.102-0.152-0.188 0.071 0.026 0.185-0.005 0.229-0.015 0.112-0.021 0.191-0.076 0.1-0.148-0.071-0.058-0.091-0.198-0.082-0.317 0.05 0.051 0.187 0.01 0.235 0.073 0.1-0.126 0.316-0.218 0.542-0.218s0.442 0.092 0.542 0.218c0.049-0.063 0.186-0.022 0.235-0.073 0.009 0.119-0.011 0.26-0.082 0.317-0.09 0.072-0.013 0.127 0.1 0.148 0.046 0.01 0.158 0.041 0.23 0.015-0.019 0.086-0.067 0.148-0.153 0.188 0.05 0.072 0.203 0.051 0.252 0.172-0.085-0.004-0.094 0.1-0.185 0.081 0.054 0.041 0.096 0.172 0.067 0.263-0.054-0.068-0.158 0.014-0.27-0.068-0.027 0.055 0.009 0.199 0.066 0.281-0.086 0.044-0.23 0.013-0.293-0.059 0.08 0.117-0.027 0.235 0.049 0.293-0.131-0.014-0.216-0.049-0.262-0.09-0.045-0.041-0.14 0.019-0.094 0.136-0.106-0.009-0.03 0.117-0.201 0.117z" stroke="#000" fill="none"/>
			<path d="m73.742 19.875c-0.167 0-0.396 0.098-0.424 0.038-0.044-0.085-0.201-0.34-0.288-0.385-0.088-0.044-0.061-0.121-0.019-0.143 0.034-0.019 0.089 0.012 0.089 0.068 0 0.036 0.017 0.038 0.055 0.038 0.065 0 0.186 0.047 0.164 0.172-0.004 0.028 0.036 0.06 0.121 0.035 0.085-0.023 0.075-0.066 0.04-0.096-0.036-0.031-0.021-0.143 0.087-0.145 0.109-0.003 0.109-0.075 0.09-0.104-0.028-0.046-0.021-0.145 0.085-0.145s0.113 0.099 0.085 0.145c-0.019 0.028-0.02 0.101 0.09 0.104 0.108 0.002 0.123 0.113 0.087 0.145-0.035 0.03-0.045 0.072 0.04 0.096s0.126-0.007 0.121-0.035c-0.021-0.125 0.099-0.172 0.164-0.172 0.038 0 0.055-0.002 0.055-0.038 0-0.057 0.055-0.087 0.09-0.068 0.041 0.022 0.068 0.1-0.02 0.143-0.087 0.045-0.244 0.3-0.287 0.385-0.028 0.06-0.258-0.038-0.425-0.038z" fill="#FFF100"/>
			<path stroke-width=".029" d="m73.742 19.875c-0.167 0-0.396 0.098-0.424 0.038-0.044-0.085-0.201-0.34-0.288-0.385-0.088-0.044-0.061-0.121-0.019-0.143 0.034-0.019 0.089 0.012 0.089 0.068 0 0.036 0.017 0.038 0.055 0.038 0.065 0 0.186 0.047 0.164 0.172-0.004 0.028 0.036 0.06 0.121 0.035 0.085-0.023 0.075-0.066 0.04-0.096-0.036-0.031-0.021-0.143 0.087-0.145 0.109-0.003 0.109-0.075 0.09-0.104-0.028-0.046-0.021-0.145 0.085-0.145s0.113 0.099 0.085 0.145c-0.019 0.028-0.02 0.101 0.09 0.104 0.108 0.002 0.123 0.113 0.087 0.145-0.035 0.03-0.045 0.072 0.04 0.096s0.126-0.007 0.121-0.035c-0.021-0.125 0.099-0.172 0.164-0.172 0.038 0 0.055-0.002 0.055-0.038 0-0.057 0.055-0.087 0.09-0.068 0.041 0.022 0.068 0.1-0.02 0.143-0.087 0.045-0.244 0.3-0.287 0.385-0.028 0.06-0.258-0.038-0.425-0.038z" stroke="#000" fill="none"/>
			<path d="m71.3 23.105c-0.016 0.055 0.002 0.125 0.053 0.15 0.049 0.024 0.092 0.078 0.054 0.116-0.024 0.025-0.095 0.003-0.122-0.067-0.024-0.061-0.04-0.146 0.015-0.199z"/>
			<path d="m72 22.804c0.054 0 0.106 0.071 0.136 0.078-0.048 0.079 0.009 0.213 0.127 0.213 0.143 0 0.185-0.152 0.121-0.226 0.039-0.015 0.065-0.026 0.09-0.058 0.057-0.072 0.068-0.145-0.031-0.057-0.088 0.078-0.316 0.086-0.369 0.031-0.056-0.054-0.054-0.178-0.013-0.199 0.065-0.033 0.057-0.061 0.021-0.045-0.028 0.014-0.057 0.021-0.081 0.021s-0.052-0.007-0.082-0.021c-0.035-0.016-0.045 0.012 0.021 0.045 0.041 0.021 0.043 0.146-0.012 0.199-0.055 0.055-0.282 0.047-0.37-0.031-0.099-0.088-0.088-0.016-0.032 0.057 0.025 0.031 0.052 0.043 0.091 0.058-0.065 0.074-0.023 0.226 0.122 0.226 0.117 0 0.174-0.134 0.126-0.213 0.029-0.007 0.081-0.078 0.135-0.078z"/>
			<path d="m72 23.644c0.06 0 0.192 0.05 0.275-0.034 0.064-0.063 0.043-0.117 0-0.066-0.043 0.053-0.142 0.039-0.191 0.039s-0.057-0.045-0.057-0.074c0-0.029-0.005-0.059 0.011-0.059 0.124 0 0.184-0.06 0.149-0.138-0.047-0.108-0.065-0.119-0.035 0.007 0.009 0.046-0.109 0.062-0.152 0.062-0.042 0-0.162-0.017-0.151-0.062 0.029-0.126 0.012-0.115-0.036-0.007-0.034 0.077 0.025 0.138 0.149 0.138 0.016 0 0.011 0.029 0.011 0.059 0 0.029-0.007 0.074-0.056 0.074-0.051 0-0.149 0.014-0.192-0.039-0.043-0.051-0.064 0.003 0 0.066 0.084 0.083 0.215 0.034 0.275 0.034z"/>
			<path d="m72 23.811c0.148 0 0.148-0.049 0-0.049-0.149 0-0.149 0.049 0 0.049z"/>
			<path d="m72 23.932c0.106 0 0.106-0.049 0-0.049s-0.106 0.049 0 0.049z"/>
			<path d="m72.7 23.105c0.017 0.055-0.002 0.125-0.051 0.15-0.051 0.024-0.094 0.078-0.056 0.116 0.025 0.025 0.095 0.003 0.123-0.067 0.023-0.061 0.039-0.146-0.016-0.199z"/>
			<path d="m69.558 20.551c-0.016 0.055 0.002 0.123 0.053 0.148 0.049 0.025 0.092 0.08 0.054 0.118-0.024 0.024-0.095 0.002-0.122-0.067-0.024-0.062-0.04-0.146 0.015-0.199z"/>
			<path d="m70.258 20.248c0.054 0 0.106 0.072 0.136 0.079-0.048 0.078 0.009 0.213 0.126 0.213 0.145 0 0.187-0.152 0.122-0.227 0.039-0.015 0.065-0.027 0.091-0.059 0.056-0.072 0.066-0.146-0.032-0.058-0.088 0.08-0.316 0.088-0.37 0.032-0.055-0.054-0.053-0.177-0.011-0.198 0.064-0.033 0.056-0.061 0.02-0.046-0.028 0.014-0.057 0.021-0.081 0.021s-0.052-0.007-0.082-0.021c-0.035-0.015-0.045 0.013 0.021 0.046 0.04 0.021 0.043 0.145-0.012 0.198-0.055 0.056-0.282 0.048-0.37-0.032-0.1-0.088-0.088-0.015-0.032 0.058 0.025 0.031 0.052 0.044 0.091 0.059-0.064 0.074-0.022 0.227 0.122 0.227 0.117 0 0.174-0.135 0.127-0.213 0.027-0.007 0.08-0.079 0.134-0.079z"/>
			<path d="m70.258 21.088c0.06 0 0.192 0.051 0.275-0.033 0.064-0.064 0.043-0.117 0-0.066-0.043 0.053-0.142 0.039-0.191 0.039-0.05 0-0.057-0.046-0.057-0.075 0-0.028-0.005-0.059 0.011-0.059 0.124 0 0.184-0.061 0.149-0.138-0.048-0.107-0.065-0.119-0.036 0.007 0.01 0.046-0.108 0.064-0.151 0.064-0.042 0-0.162-0.018-0.151-0.064 0.029-0.126 0.012-0.114-0.036-0.007-0.034 0.077 0.025 0.138 0.148 0.138 0.017 0 0.013 0.03 0.013 0.059s-0.008 0.075-0.057 0.075c-0.051 0-0.149 0.014-0.192-0.039-0.043-0.051-0.064 0.003 0 0.066 0.083 0.084 0.215 0.033 0.275 0.033z"/>
			<path d="m70.258 21.256c0.148 0 0.148-0.05 0-0.05-0.15 0-0.15 0.05 0 0.05z"/>
			<path d="m70.258 21.377c0.106 0 0.106-0.049 0-0.049-0.107 0-0.107 0.049 0 0.049z"/>
			<path d="m70.958 20.551c0.016 0.055-0.002 0.123-0.052 0.148s-0.093 0.08-0.055 0.118c0.025 0.024 0.095 0.002 0.122-0.067 0.024-0.062 0.039-0.146-0.015-0.199z"/>
			<path d="m74.442 20.551c0.017 0.055-0.002 0.123-0.051 0.148-0.051 0.025-0.094 0.08-0.056 0.118 0.025 0.024 0.095 0.002 0.123-0.067 0.024-0.062 0.039-0.146-0.016-0.199z"/>
			<path d="m73.742 20.248c-0.054 0-0.105 0.072-0.136 0.079 0.048 0.078-0.009 0.213-0.126 0.213-0.145 0-0.187-0.152-0.122-0.227-0.039-0.015-0.065-0.027-0.09-0.059-0.057-0.072-0.067-0.146 0.031-0.058 0.088 0.08 0.315 0.088 0.371 0.032 0.054-0.054 0.052-0.177 0.011-0.198-0.066-0.033-0.057-0.061-0.021-0.046 0.028 0.014 0.057 0.021 0.081 0.021 0.025 0 0.054-0.007 0.081-0.021 0.036-0.015 0.046 0.013-0.021 0.046-0.041 0.021-0.043 0.145 0.013 0.198 0.054 0.056 0.281 0.048 0.369-0.032 0.1-0.088 0.089-0.015 0.031 0.058-0.024 0.031-0.051 0.044-0.089 0.059 0.062 0.074 0.021 0.227-0.123 0.227-0.117 0-0.174-0.135-0.126-0.213-0.027-0.007-0.08-0.079-0.134-0.079z"/>
			<path d="m73.742 21.088c-0.06 0-0.192 0.051-0.275-0.033-0.063-0.064-0.043-0.117 0-0.066 0.043 0.053 0.142 0.039 0.191 0.039 0.05 0 0.057-0.046 0.057-0.075 0-0.028 0.005-0.059-0.011-0.059-0.125 0-0.183-0.061-0.149-0.138 0.048-0.107 0.065-0.119 0.036 0.007-0.01 0.046 0.108 0.064 0.151 0.064s0.162-0.018 0.151-0.064c-0.029-0.126-0.012-0.114 0.036-0.007 0.034 0.077-0.025 0.138-0.149 0.138-0.016 0-0.011 0.03-0.011 0.059s0.007 0.075 0.057 0.075 0.149 0.014 0.191-0.039c0.043-0.051 0.063 0.003 0 0.066-0.082 0.084-0.216 0.033-0.275 0.033z"/>
			<path d="m73.742 21.256c-0.149 0-0.149-0.05 0-0.05 0.15 0 0.15 0.05 0 0.05z"/>
			<path d="m73.742 21.377c-0.105 0-0.105-0.049 0-0.049 0.107 0 0.107 0.049 0 0.049z"/>
			<path d="m73.043 20.551c-0.017 0.055 0.001 0.123 0.052 0.148 0.049 0.025 0.092 0.08 0.054 0.118-0.024 0.024-0.095 0.002-0.122-0.067-0.025-0.062-0.04-0.146 0.016-0.199z"/>
			<path d="m76.508 20.818c0.821-0.896 1.93 0.225 2.481-0.145-0.17 0.289-0.594 0.294-1.004 0.133-0.379-0.147-1.094-0.085-1.21 0.161-0.036 0.076-0.397 0.001-0.267-0.149z" fill="#005A9A"/>
			<path d="m77.034 21.312c0.246-0.197 0.496-0.311 0.991 0.035 0.474 0.33 1.089 0.282 1.29 0.094-0.411 0.105-0.756 0.05-1.205-0.329-0.406-0.345-0.906-0.282-1.21-0.015-0.076 0.062 0.009 0.295 0.134 0.215z" fill="#005A9A"/>
			<path d="m77.194 21.201c-0.055 0.031-0.108 0.068-0.16 0.11-0.125 0.08-0.21-0.152-0.134-0.215 0.05-0.044 0.104-0.082 0.164-0.114 0.069-0.033 0.197 0.177 0.13 0.219z" fill="#EC1C2E"/>
			<path d="m78.456 21.544c0.094 0.024 0.189 0.038 0.279 0.043 0.066 0.002 0.062-0.115 0.017-0.126-0.075-0.017-0.151-0.042-0.229-0.078 0.054 0.025 0.018 0.187-0.067 0.161z" fill="#EC1C2E"/>
			<path d="m77.714 21.176c0.073 0.026 0.154 0.068 0.242 0.125 0.047 0.031 0.184-0.174 0.079-0.249-0.08-0.057-0.163-0.099-0.247-0.127 0.094 0.038 0.024 0.294-0.074 0.251z" fill="#EC1C2E"/>
			<path d="m77.558 21.132c-0.096-0.015-0.18-0.005-0.258 0.021 0.071-0.029-0.012-0.262-0.105-0.228 0.121-0.043 0.254-0.06 0.39-0.046 0.094 0.015 0.064 0.277-0.027 0.253z" fill="#EC1C2E"/>
			<path d="m78.102 21.396c0.074 0.045 0.152 0.081 0.229 0.11 0.062 0.028 0.158-0.134 0.084-0.18-0.078-0.044-0.158-0.099-0.241-0.164 0.086 0.067-0.004 0.272-0.072 0.234z" fill="#EC1C2E"/>
			<path d="m78.86 21.588c0.199-0.01 0.367-0.065 0.455-0.148-0.158 0.041-0.309 0.056-0.46 0.038 0.057 0.007 0.057 0.109 0.005 0.11z" fill="#EC1C2E"/>
			<path d="m78.461 20.912c-0.089-0.003-0.183-0.017-0.277-0.041 0.075 0.016 0.104-0.193 0.038-0.213 0.087 0.025 0.172 0.049 0.254 0.065 0.058 0.01 0.058 0.195-0.015 0.189z" fill="#EC1C2E"/>
			<path d="m77.784 20.753c0.073 0.013 0.141 0.03 0.201 0.054 0.024 0.01 0.05 0.018 0.074 0.027 0.074 0.027 0.124-0.185 0.044-0.211-0.099-0.03-0.198-0.062-0.302-0.087 0.095 0.025 0.066 0.236-0.017 0.217z" fill="#EC1C2E"/>
			<path d="m77.312 20.736c0.098-0.01 0.199-0.012 0.299-0.005 0.087 0.01 0.092-0.22 0.019-0.235-0.112-0.021-0.224-0.035-0.336-0.035 0.08 0.004 0.134 0.271 0.018 0.275z" fill="#EC1C2E"/>
			<path d="m76.972 20.812c0.055-0.021 0.116-0.039 0.182-0.053 0.096-0.02 0.068-0.295-0.043-0.282-0.094 0.015-0.188 0.045-0.279 0.091 0.097-0.049 0.228 0.213 0.14 0.244z" fill="#EC1C2E"/>
			<path d="m78.593 20.907c0.172-0.02 0.314-0.093 0.396-0.233-0.109 0.072-0.241 0.087-0.388 0.07 0.061 0.006 0.051 0.159-0.008 0.163z" fill="#EC1C2E"/>
			<path d="m76.843 20.887c-0.029 0.024-0.054 0.051-0.067 0.081-0.036 0.075-0.397 0-0.268-0.149 0.052-0.058 0.106-0.107 0.161-0.149 0.055-0.039 0.246 0.146 0.174 0.217z" fill="#EC1C2E"/>
			<path d="m76.494 20.838c-0.144 0.269-0.309 0.151-0.38 0.394-0.021 0.069-0.053 0.075-0.224-0.026-0.223-0.135-0.303-0.1-0.151 0.115 0.062 0.089 0.308 0.054 0.156 0.255-0.141 0.186-0.031 0.236-0.259 0.486-0.146 0.16 0.081 0.309 0.299 0.188 0.321-0.179 0.393-0.062 0.268 0.062-0.106 0.106-0.144 0.202-0.035 0.17 0.179-0.054-0.018 0.125 0.099 0.106 0.115-0.018 0.151 0.152-0.054 0.269-0.206 0.116-0.404 0.234-0.241 0.312 0.241 0.116-0.06 0.139 0.035 0.206 0.09 0.062 0.09 0.107 0.019 0.143-0.071 0.035 0.026 0.062 0.018 0.151-0.009 0.09 0.035 0.33-0.062 0.509-0.099 0.18-0.152 0.349-0.224 0.384-0.071 0.036-0.107 0.099-0.045 0.161s-0.106 0.125-0.125 0.205c-0.018 0.081-0.062 0.152 0.161 0.144 0.224-0.009 0.25-0.045 0.224-0.152-0.027-0.107-0.018-0.188 0.08-0.232 0.099-0.045 0.114-0.116 0.107-0.206-0.008-0.107 0.055-0.152 0.18-0.25 0.125-0.099 0.134-0.16 0.143-0.214s0.09-0.099 0.143-0.045c0.054 0.054 0.161 0.054 0.241 0.045 0.081-0.01 0.134 0.098 0.027 0.16s0.031 0.134-0.081 0.188c-0.205 0.099 0.09 0.171-0.151 0.305-0.168 0.093-0.073 0.249-0.062 0.347 0.017 0.18-0.108 0.232-0.116 0.35-0.009 0.115 0.009 0.161-0.107 0.25s-0.062 0.196 0.152 0.188c0.214-0.01 0.169-0.135 0.151-0.224-0.017-0.089 0.045-0.107 0.125-0.107 0.081 0 0.152-0.08 0.09-0.16-0.062-0.081 0.018-0.17-0.019-0.259-0.036-0.09 0.003-0.104 0.072-0.143 0.124-0.071 0.025-0.179 0.223-0.402 0.071-0.08 0.173-0.309 0.304-0.276 0.179 0.045 0.055-0.081 0.232-0.054 0.224 0.036 0.438 0.045 0.616-0.009 0.068-0.021 0.089 0.107 0.009 0.151-0.08 0.045 0.008 0.135-0.115 0.26-0.126 0.125-0.17 0.25-0.17 0.339 0 0.09-0.072 0.179-0.197 0.25-0.125 0.072-0.188 0.197 0.045 0.215 0.232 0.018 0.25-0.054 0.24-0.152-0.008-0.098 0.051-0.183 0.108-0.215 0.143-0.08 0.214-0.169 0.232-0.285 0.017-0.116 0.125-0.259 0.232-0.321s0.072-0.223 0.215-0.233c0.143-0.009 0.32 0.126 0.294 0.295-0.026 0.17-0.054 0.312-0.044 0.411 0.018 0.196-0.135 0.214-0.125 0.33 0.008 0.116-0.036 0.224-0.152 0.286-0.115 0.062-0.099 0.259 0.134 0.223 0.232-0.035 0.255-0.143 0.236-0.232-0.018-0.09-0.013-0.126 0.054-0.139 0.139-0.026 0.139-0.093 0.13-0.201-0.009-0.111 0.147-0.464 0.361-0.599 0.215-0.133 0.059-0.178 0.014-0.224-0.045-0.044-0.08-0.258 0-0.33 0.08-0.071 0.076-0.124-0.014-0.169s-0.049-0.18 0.014-0.25c0.062-0.072 0.062-0.125-0.009-0.156s-0.096-0.08 0.004-0.125c0.17-0.076 0.313-0.256 0.157-0.43 0.089-0.053 0.191-0.2 0.188-0.329-0.059 0.021-0.13 0.026-0.175 0 0.062-0.081 0.09-0.224 0.059-0.309-0.085 0.165-0.331 0.236-0.527 0.232-0.196-0.005-0.146-0.227-0.415-0.09-0.272 0.139-0.261-0.065-0.407 0.031-0.25 0.165-0.508-0.014-0.669 0.059-0.161 0.071-0.339-0.026-0.429 0.018 0.035-0.027 0.084-0.071 0.099-0.116-0.139 0.058-0.392 0.158-0.465-0.035-0.062-0.165-0.183-0.246-0.219-0.345-0.036-0.098-0.089-0.143-0.058-0.245 0.031-0.103 0.278 0.009 0.38-0.157 0.049-0.079-0.201-0.075-0.358-0.025-0.105 0.032-0.165-0.059-0.062-0.143 0.103-0.085 0.251-0.154 0.165-0.288-0.049-0.074-0.116-0.091-0.192-0.019-0.071 0.067-0.194 0.007-0.111-0.139 0.072-0.138-0.215-0.267-0.286-0.133z" fill="#FFF100"/>
			<path stroke-width=".029" d="m76.494 20.838c-0.144 0.269-0.309 0.151-0.38 0.394-0.021 0.069-0.053 0.075-0.224-0.026-0.223-0.135-0.303-0.1-0.151 0.115 0.062 0.089 0.308 0.054 0.156 0.255-0.141 0.186-0.031 0.236-0.259 0.486-0.146 0.16 0.081 0.309 0.299 0.188 0.321-0.179 0.393-0.062 0.268 0.062-0.106 0.106-0.144 0.202-0.035 0.17 0.179-0.054-0.018 0.125 0.099 0.106 0.115-0.018 0.151 0.152-0.054 0.269-0.206 0.116-0.404 0.234-0.241 0.312 0.241 0.116-0.06 0.139 0.035 0.206 0.09 0.062 0.09 0.107 0.019 0.143-0.071 0.035 0.026 0.062 0.018 0.151-0.009 0.09 0.035 0.33-0.062 0.509-0.099 0.18-0.152 0.349-0.224 0.384-0.071 0.036-0.107 0.099-0.045 0.161s-0.106 0.125-0.125 0.205c-0.018 0.081-0.062 0.152 0.161 0.144 0.224-0.009 0.25-0.045 0.224-0.152-0.027-0.107-0.018-0.188 0.08-0.232 0.099-0.045 0.114-0.116 0.107-0.206-0.008-0.107 0.055-0.152 0.18-0.25 0.125-0.099 0.134-0.16 0.143-0.214s0.09-0.099 0.143-0.045c0.054 0.054 0.161 0.054 0.241 0.045 0.081-0.01 0.134 0.098 0.027 0.16s0.031 0.134-0.081 0.188c-0.205 0.099 0.09 0.171-0.151 0.305-0.168 0.093-0.073 0.249-0.062 0.347 0.017 0.18-0.108 0.232-0.116 0.35-0.009 0.115 0.009 0.161-0.107 0.25s-0.062 0.196 0.152 0.188c0.214-0.01 0.169-0.135 0.151-0.224-0.017-0.089 0.045-0.107 0.125-0.107 0.081 0 0.152-0.08 0.09-0.16-0.062-0.081 0.018-0.17-0.019-0.259-0.036-0.09 0.003-0.104 0.072-0.143 0.124-0.071 0.025-0.179 0.223-0.402 0.071-0.08 0.173-0.309 0.304-0.276 0.179 0.045 0.055-0.081 0.232-0.054 0.224 0.036 0.438 0.045 0.616-0.009 0.068-0.021 0.089 0.107 0.009 0.151-0.08 0.045 0.008 0.135-0.115 0.26-0.126 0.125-0.17 0.25-0.17 0.339 0 0.09-0.072 0.179-0.197 0.25-0.125 0.072-0.188 0.197 0.045 0.215 0.232 0.018 0.25-0.054 0.24-0.152-0.008-0.098 0.051-0.183 0.108-0.215 0.143-0.08 0.214-0.169 0.232-0.285 0.017-0.116 0.125-0.259 0.232-0.321s0.072-0.223 0.215-0.233c0.143-0.009 0.32 0.126 0.294 0.295-0.026 0.17-0.054 0.312-0.044 0.411 0.018 0.196-0.135 0.214-0.125 0.33 0.008 0.116-0.036 0.224-0.152 0.286-0.115 0.062-0.099 0.259 0.134 0.223 0.232-0.035 0.255-0.143 0.236-0.232-0.018-0.09-0.013-0.126 0.054-0.139 0.139-0.026 0.139-0.093 0.13-0.201-0.009-0.111 0.147-0.464 0.361-0.599 0.215-0.133 0.059-0.178 0.014-0.224-0.045-0.044-0.08-0.258 0-0.33 0.08-0.071 0.076-0.124-0.014-0.169s-0.049-0.18 0.014-0.25c0.062-0.072 0.062-0.125-0.009-0.156s-0.096-0.08 0.004-0.125c0.17-0.076 0.313-0.256 0.157-0.43 0.089-0.053 0.191-0.2 0.188-0.329-0.059 0.021-0.13 0.026-0.175 0 0.062-0.081 0.09-0.224 0.059-0.309-0.085 0.165-0.331 0.236-0.527 0.232-0.196-0.005-0.146-0.227-0.415-0.09-0.272 0.139-0.261-0.065-0.407 0.031-0.25 0.165-0.508-0.014-0.669 0.059-0.161 0.071-0.339-0.026-0.429 0.018 0.035-0.027 0.084-0.071 0.099-0.116-0.139 0.058-0.392 0.158-0.465-0.035-0.062-0.165-0.183-0.246-0.219-0.345-0.036-0.098-0.089-0.143-0.058-0.245 0.031-0.103 0.278 0.009 0.38-0.157 0.049-0.079-0.201-0.075-0.358-0.025-0.105 0.032-0.165-0.059-0.062-0.143 0.103-0.085 0.251-0.154 0.165-0.288-0.049-0.074-0.116-0.091-0.192-0.019-0.071 0.067-0.194 0.007-0.111-0.139 0.072-0.138-0.215-0.267-0.286-0.133z" stroke="#000" fill="none"/>
			<path d="m76.753 22.338c0.079 0.079 0.036 0.152 0.009 0.229-0.027 0.075 0.071 0.122 0.102-0.045 0.019-0.099 0.005-0.2-0.058-0.241-0.062-0.041-0.112-0.001-0.053 0.057z"/>
			<path d="m77.173 22.816c0.008 0.129-0.139 0.17-0.071 0.371 0.066 0.2 0.12 0.049 0.094-0.067-0.027-0.115 0.089-0.232 0.071-0.309-0.018-0.075-0.099-0.066-0.094 0.005z"/>
			<path d="m76.609 23.088c-0.067 0.062-0.106 0.184-0.084 0.246 0.021 0.063 0.071-0.014 0.084-0.093 0.014-0.081 0.045-0.121 0.094-0.149 0.05-0.026-0.004-0.083-0.094-0.004z"/>
			<path d="m76.279 23.707c-0.028 0.074-0.015 0.225-0.004 0.283 0.011 0.059 0.053 0.052 0.049-0.02-0.005-0.071-0.011-0.204 0.021-0.244 0.031-0.038-0.017-0.144-0.066-0.019z"/>
			<path d="m76.69 23.525c0.014 0.146-0.064 0.104-0.061 0.209 0.005 0.104 0.101 0.062 0.094-0.046-0.007-0.106 0.045-0.101 0.035-0.157-0.007-0.058-0.072-0.052-0.068-0.006z"/>
			<path d="m77.409 23.751c-0.1 0.051-0.056 0.257 0.014 0.311 0.068 0.054 0.066 0.01 0.024-0.075-0.042-0.086-0.067-0.174-0.033-0.197 0.033-0.023 0.023-0.052-0.005-0.039z"/>
			<path d="m77.746 23.615c-0.001 0.072 0.085 0.215 0.159 0.239 0.073 0.024 0.115-0.01 0.057-0.06-0.057-0.053-0.104-0.115-0.119-0.177-0.017-0.061-0.094-0.106-0.097-0.002z"/>
			<path d="m78.166 23.473c-0.04 0.155 0.062 0.141 0.062 0.216 0 0.076 0.06 0.09 0.056-0.018-0.004-0.107-0.041-0.134-0.011-0.178 0.029-0.045-0.086-0.098-0.107-0.02z"/>
			<path d="m78.593 23.622c-0.047 0.049-0.049 0.194 0.021 0.253 0.072 0.057 0.059-0.03 0.038-0.072-0.02-0.041-0.04-0.083-0.018-0.124 0.023-0.043 0.001-0.102-0.041-0.057z"/>
			<path d="m77.695 22.977c0.104 0.08 0.155 0.174 0.169 0.237 0.014 0.062 0.076 0 0.045-0.103-0.031-0.102-0.076-0.175-0.16-0.201-0.086-0.027-0.112 0.023-0.054 0.067z"/>
			<path d="m78.24 22.865c-0.082-0.033-0.085-0.129 0.058-0.062 0.143 0.066 0.201 0.134 0.228 0.21 0.026 0.075-0.022 0.148-0.089 0.04-0.067-0.107-0.112-0.153-0.197-0.188z"/>
			<path d="m79.07 23.469c-0.044 0.132 0.04 0.42 0.263 0.356 0.031-0.009 0.006 0-0.066-0.054-0.071-0.054-0.125-0.16-0.111-0.246 0.013-0.084-0.063-0.124-0.086-0.056z"/>
			<path d="m79.222 23.049c-0.086-0.025-0.188 0.084-0.045 0.102 0.144 0.019 0.305 0.01 0.371-0.039 0.067-0.05 0.076-0.072-0.035-0.054-0.112 0.017-0.215 0.012-0.291-0.009z"/>
			<path d="m78.954 22.687c0.122-0.061 0.285-0.094 0.37-0.062 0.085 0.031 0.036 0.144-0.04 0.099s-0.174-0.005-0.236 0.022c-0.063 0.025-0.174-0.018-0.094-0.059z"/>
			<path d="m78.437 24.125c0.072-0.025 0.16-0.054 0.25-0.054s0.143 0.072 0.188 0.075c-0.062 0.041-0.143 0.076-0.206 0.054-0.062-0.022-0.124-0.049-0.179-0.036-0.053 0.014-0.13-0.013-0.053-0.039z"/>
			<path d="m79.343 24.223c0.039 0.047 0.049 0.102 0.035 0.142-0.014 0.041 0.067 0.062 0.094-0.022 0.027-0.085-0.004-0.134-0.053-0.151-0.049-0.018-0.121-0.023-0.076 0.031z"/>
			<path d="m76.239 21.638c0.024-0.036 0.049-0.002 0.085-0.029 0.035-0.026 0.185-0.033 0.243-0.007 0.059 0.026 0.052 0.067 0.003 0.067-0.05 0-0.065 0.026-0.087 0.058-0.023 0.031-0.166 0.045-0.152-0.023 0.014-0.066-0.047-0.048-0.069-0.035-0.023 0.013-0.032-0.018-0.023-0.031z"/>
			<path d="m75.972 24.919c0.026 0.107 0 0.143-0.224 0.152s-0.179-0.062-0.161-0.144c0.008-0.031 0.039-0.06 0.068-0.088-0.086 0.098 0.334 0.178 0.317 0.08z" fill="#EC1C2E"/>
			<path stroke-width=".029" d="m75.972 24.919c0.026 0.107 0 0.143-0.224 0.152s-0.179-0.062-0.161-0.144c0.008-0.031 0.039-0.06 0.068-0.088-0.086 0.098 0.334 0.178 0.317 0.08z" stroke="#000" fill="none"/>
			<path d="m76.69 25.643c0.012 0.076 0.002 0.153-0.165 0.161-0.215 0.009-0.269-0.099-0.152-0.188-0.022 0.058 0.289 0.129 0.317 0.027z" fill="#EC1C2E"/>
			<path stroke-width=".029" d="m76.69 25.643c0.012 0.076 0.002 0.153-0.165 0.161-0.215 0.009-0.269-0.099-0.152-0.188-0.022 0.058 0.289 0.129 0.317 0.027z" stroke="#000" fill="none"/>
			<path d="m78.132 25.232c0.01 0.099-0.008 0.17-0.24 0.152s-0.17-0.143-0.045-0.215c-0.049 0.072 0.255 0.152 0.285 0.063z" fill="#EC1C2E"/>
			<path stroke-width=".029" d="m78.132 25.232c0.01 0.099-0.008 0.17-0.24 0.152s-0.17-0.143-0.045-0.215c-0.049 0.072 0.255 0.152 0.285 0.063z" stroke="#000" fill="none"/>
			<path d="m79.262 25.491c0.019 0.089-0.004 0.196-0.236 0.232s-0.249-0.161-0.134-0.223c-0.041 0.071 0.343 0.161 0.37-0.009z" fill="#EC1C2E"/>
			<path stroke-width=".029" d="m79.262 25.491c0.019 0.089-0.004 0.196-0.236 0.232s-0.249-0.161-0.134-0.223c-0.041 0.071 0.343 0.161 0.37-0.009z" stroke="#000" fill="none"/>
			<path d="m84.812 25.222c-0.435-0.686-1.612-0.724-1.939-0.775-0.328-0.051-0.772-0.109-0.686-0.441-0.031-0.007-0.111-0.018-0.148 0.001 0-0.042-0.016-0.12-0.044-0.162-0.135 0.128-0.411 0.113-0.479 0.159-0.066 0.047-0.455-0.01-0.427 0.161 0.03 0.179 0.094 0.184 0.176 0.189 0.082 0.006 0.264-0.004 0.3 0.045 0.034 0.049 0.114 0.158-0.084 0.135-0.198-0.024-0.657-0.013-0.642 0.163 0.016 0.179 0.192 0.214 0.706 0.144-0.049 0.188-0.46 0.084-0.446 0.286 0.005 0.078 0.143 0.158 0.385 0.187 0.537 0.062 0.503-0.268 1.117-0.195 0.339 0.221 0.844 0.383 1.288 0.363-0.081 0.047-0.221 0.094-0.352 0.092-0.177-0.004-0.199 0.238 0.039 0.31 0.237 0.073 0.583 0.024 0.854-0.069 0.032 0.152 0.145 0.212 0.276 0.212s0.315 0.079 0.267 0.276c-0.05 0.196 0.139 0.355 0.304 0.167 0.165-0.189 0.147-0.583-0.114-0.737 0.254 0.049 0.597 0.043 0.766-0.121 0.142-0.141 0.085-0.361-0.39-0.263-0.283 0.058-0.362-0.167-0.727-0.127z"/>
			<path d="m82.718 25.061c0.312 0.202 0.729 0.35 1.139 0.332 0.039-0.113-0.1-0.229-0.359-0.232-0.26-0.001-0.624-0.076-0.686-0.102-0.061-0.027-0.155-0.038-0.094 0.002z" fill="#fff"/>
</g>
</svg>
