<?xml version="1.0" encoding="UTF-8" standalone="no"?>
<!-- Generator: Adobe Illustrator 18.0.0, SVG Export Plug-In . SVG Version: 6.00 Build 0)  -->
<!DOCTYPE svg  PUBLIC '-//W3C//DTD SVG 1.1//EN'  'http://www.w3.org/Graphics/SVG/1.1/DTD/svg11.dtd'>
<svg style="enable-background:new 0 0 144 80" xmlns="http://www.w3.org/2000/svg" xml:space="preserve" version="1.1" y="0px" x="0px" xmlns:xlink="http://www.w3.org/1999/xlink" viewBox="0 0 144 80">
<g id="CAN">
		<polygon points="108 80 108 0 144 0 144 80" fill="#f00"/>
		<polygon points="0 80 0 0 36 0 36 80" fill="#f00"/>
		<polygon points="36 80 36 0 108 0 108 80" fill="#fff"/>
		<path d="m73.329 69.326c-0.344-5.705-0.492-9.394-0.641-12.96-0.062-1.524 1.271-1.384 2.264-1.229 8.213 1.279 12.1 1.869 12.1 1.869-2.951-5.558-0.879-5.881 0.736-7.231 9.248-7.722 11.215-9.394 11.215-9.394-4.279-1.451-3.689-0.911-0.936-11.165-8.926 2.827-8.189 1.991-10.082-2.411 0 0-0.688 0.788-6.271 7.083-0.787 0.889-2.121 0.294-1.844-1.082 2.902-14.361 3.049-14.952 3.049-14.952-5.656 3.419-5.439 3.609-6.344 1.845-3.1-6.05-4.574-9.025-4.574-9.025s-1.477 2.976-4.574 9.025c-0.904 1.765-0.689 1.574-6.346-1.845 0 0 0.148 0.591 3.049 14.952 0.279 1.376-1.057 1.971-1.844 1.082-5.582-6.295-6.271-7.083-6.271-7.083-1.893 4.402-1.156 5.238-10.082 2.411 2.754 10.254 3.344 9.714-0.936 11.165 0 0 1.967 1.672 11.215 9.394 1.615 1.35 3.689 1.673 0.738 7.231 0 0 3.885-0.59 12.1-1.869 0.99-0.154 2.324-0.295 2.262 1.229-0.148 3.566-0.295 7.255-0.639 12.96h2.656z" fill="#f00"/>
		<path d="m74.979 41.174" fill="#EC174C"/>
		<path stroke-width=".0671" d="m74.979 41.174" stroke="#000" fill="none"/>
</g>
</svg>
