<?xml version="1.0" encoding="UTF-8" standalone="no"?>
<!-- Generator: Adobe Illustrator 18.0.0, SVG Export Plug-In . SVG Version: 6.00 Build 0)  -->
<!DOCTYPE svg  PUBLIC '-//W3C//DTD SVG 1.1//EN'  'http://www.w3.org/Graphics/SVG/1.1/DTD/svg11.dtd'>
<svg style="enable-background:new 0 0 144 80" xmlns="http://www.w3.org/2000/svg" xml:space="preserve" version="1.1" y="0px" x="0px" xmlns:xlink="http://www.w3.org/1999/xlink" viewBox="0 0 144 80">
<g id="TUN">
		<polygon points="144 80 144 0 0 0 0 80" fill="#E61E26"/>
		<path d="m74.086 65.804c14.25 0 25.804-11.553 25.804-25.804 0-14.25-11.554-25.804-25.804-25.804-14.251 0-25.804 11.554-25.804 25.804 0 14.251 11.553 25.804 25.804 25.804z" fill="#fff"/>
		<polygon points="77.484 29.093 77.161 37.311 69.181 39.537 76.972 42.421 76.584 50.651 81.692 44.178 89.417 47.069 84.839 40.156 90.004 33.76 82.056 35.979" fill="#E61E26"/>
		<path d="m81.671 55.373c-0.378 0.027-0.758 0.049-1.143 0.049-8.518 0-15.422-6.905-15.422-15.422s6.904-15.422 15.422-15.422c0.377 0 0.74 0.011 1.11 0.038-2.275-1.118-4.846-1.748-7.553-1.748-9.462 0-17.132 7.67-17.132 17.132 0 9.461 7.67 17.132 17.132 17.132 2.783 0 5.3-0.628 7.586-1.759z" fill="#E61E26"/>
</g>
</svg>
