<?xml version="1.0" encoding="UTF-8" standalone="no"?>
<!-- Generator: Adobe Illustrator 18.0.0, SVG Export Plug-In . SVG Version: 6.00 Build 0)  -->
<!DOCTYPE svg  PUBLIC '-//W3C//DTD SVG 1.1//EN'  'http://www.w3.org/Graphics/SVG/1.1/DTD/svg11.dtd'>
<svg style="enable-background:new 0 0 144 80" xmlns="http://www.w3.org/2000/svg" xml:space="preserve" version="1.1" y="0px" x="0px" xmlns:xlink="http://www.w3.org/1999/xlink" viewBox="0 0 144 80">
<g id="KGZ">
		<polygon points="144 80 144 0 0 0 0 80" fill="#EC1C2E"/>
			<path d="m73.155 25.328c0.033-2.549 2.292-4.303 2.388-7.698 1.621 2.033-1.058 5.848-0.106 8.06 0.431-2.512 2.936-3.891 3.562-7.231 1.283 2.264-1.959 5.611-1.366 7.944 0.819-2.414 3.51-3.384 4.65-6.584 0.913 2.436-2.813 5.235-2.592 7.633 1.186-2.257 3.994-2.793 5.622-5.776 0.521 2.549-3.598 4.731-3.754 7.134 1.524-2.043 4.382-2.134 6.456-4.825 0.116 2.599-4.294 4.11-4.824 6.458 1.826-1.778 4.663-1.421 7.133-3.756-0.292 2.585-4.883 3.389-5.775 5.624 2.082-1.471 4.828-0.674 7.633-2.593-0.694 2.507-5.354 2.582-6.584 4.651 2.285-1.128 4.874 0.088 7.943-1.368-1.075 2.368-5.69 1.713-7.229 3.563 2.435-0.756 4.8 0.851 8.06-0.107-1.434 2.171-5.889 0.802-7.699 2.39 2.523-0.366 4.609 1.59 7.979 1.153-1.756 1.92-5.942-0.129-7.979 1.156 2.549 0.032 4.303 2.292 7.699 2.388-2.034 1.621-5.849-1.058-8.061-0.107 2.513 0.433 3.891 2.937 7.23 3.563-2.263 1.283-5.61-1.96-7.944-1.366 2.415 0.819 3.384 3.509 6.584 4.649-2.435 0.913-5.235-2.813-7.632-2.592 2.256 1.187 2.793 3.994 5.775 5.623-2.549 0.521-4.731-3.598-7.134-3.755 2.044 1.524 2.135 4.382 4.825 6.458-2.599 0.114-4.11-4.295-6.458-4.825 1.779 1.825 1.422 4.662 3.755 7.133-2.584-0.293-3.387-4.884-5.623-5.775 1.471 2.082 0.675 4.828 2.594 7.632-2.508-0.692-2.582-5.353-4.651-6.584 1.128 2.287-0.089 4.875 1.367 7.944-2.368-1.076-1.712-5.691-3.564-7.23 0.757 2.435-0.85 4.8 0.108 8.061-2.171-1.434-0.802-5.89-2.389-7.699 0.364 2.522-1.591 4.608-1.154 7.977-1.919-1.756 0.129-5.942-1.155-7.977-0.034 2.549-2.292 4.303-2.388 7.698-1.622-2.034 1.058-5.849 0.106-8.06-0.432 2.513-2.937 3.891-3.563 7.23-1.282-2.264 1.96-5.61 1.367-7.944-0.819 2.414-3.51 3.383-4.65 6.584-0.913-2.436 2.812-5.235 2.592-7.633-1.187 2.257-3.994 2.793-5.622 5.776-0.521-2.549 3.598-4.731 3.755-7.133-1.525 2.042-4.383 2.133-6.458 4.824-0.115-2.6 4.294-4.11 4.825-6.458-1.826 1.778-4.663 1.422-7.133 3.756 0.292-2.585 4.883-3.388 5.775-5.624-2.083 1.471-4.829 0.674-7.633 2.593 0.693-2.508 5.354-2.582 6.584-4.651-2.287 1.128-4.874-0.088-7.944 1.368 1.077-2.368 5.691-1.712 7.23-3.564-2.436 0.756-4.8-0.85-8.06 0.108 1.434-2.171 5.889-0.802 7.699-2.39-2.523 0.366-4.61-1.59-7.978-1.154 1.756-1.918 5.942 0.131 7.978-1.155-2.549-0.032-4.303-2.291-7.699-2.388 2.034-1.621 5.849 1.058 8.061 0.106-2.513-0.432-3.892-2.937-7.23-3.562 2.263-1.283 5.61 1.959 7.943 1.367-2.415-0.82-3.384-3.51-6.583-4.65 2.434-0.913 5.234 2.812 7.632 2.592-2.256-1.187-2.792-3.995-5.775-5.623 2.549-0.521 4.729 3.598 7.133 3.756-2.043-1.526-2.134-4.384-4.824-6.458 2.599-0.115 4.109 4.293 6.457 4.824-1.777-1.826-1.421-4.663-3.755-7.133 2.584 0.293 3.388 4.884 5.624 5.775-1.472-2.082-0.675-4.827-2.594-7.632 2.508 0.692 2.582 5.354 4.651 6.584-1.128-2.287 0.089-4.875-1.367-7.945 2.368 1.078 1.712 5.692 3.563 7.23-0.756-2.435 0.85-4.8-0.107-8.06 2.17 1.435 0.801 5.89 2.39 7.699-0.367-2.522 1.588-4.607 1.153-7.977 1.92 1.755-0.13 5.942 1.155 7.978z" fill="#FFE01B"/>
			<path d="m72.004 51.969c6.61 0 11.968-5.358 11.968-11.969 0-6.61-5.358-11.969-11.968-11.969s-11.969 5.358-11.969 11.969c0 6.61 5.359 11.969 11.969 11.969z" fill="#EC1C2E"/>
			<path d="m72.002 29.562c3.054 0 5.799 1.307 7.707 3.397-2.995 0.303-5.54 1.009-7.707 2.086-2.168-1.077-4.713-1.783-7.708-2.086 1.908-2.09 4.653-3.397 7.708-3.397z" fill="#FFE01B"/>
			<path d="m71.212 35.472c-0.24 0.135-0.477 0.273-0.707 0.418-1.944-1.034-4.274-1.699-7.041-1.897 0.125-0.178 0.258-0.353 0.396-0.521 2.874 0.253 5.302 0.943 7.352 2z" fill="#FFE01B"/>
			<path d="m72.794 35.472c0.241 0.135 0.477 0.273 0.707 0.418 1.946-1.034 4.275-1.699 7.043-1.897-0.127-0.178-0.26-0.353-0.396-0.521-2.876 0.253-5.303 0.943-7.354 2z" fill="#FFE01B"/>
			<path d="m63.112 34.529c-0.111 0.18-0.217 0.362-0.317 0.549 2.577 0.06 4.74 0.653 6.515 1.633 0.186-0.14 0.375-0.274 0.568-0.406-1.857-1.011-4.098-1.644-6.766-1.776z" fill="#FFE01B"/>
			<path d="m62.979 45.248c-0.898-1.542-1.412-3.335-1.412-5.248 0-1.561 0.337-3.035 0.948-4.359 2.493-0.017 4.581 0.526 6.282 1.473-2.524 2.065-4.387 4.818-5.818 8.134z" fill="#FFE01B"/>
			<path d="m68.244 49.739c-0.469-0.181-0.922-0.394-1.355-0.639 0.248-3.92 1.53-7.657 4.087-10.368 0.19 0.184 0.373 0.371 0.548 0.567-2.379 2.78-3.411 6.601-3.28 10.44z" fill="#FFE01B"/>
			<path d="m80.895 34.529c0.11 0.18 0.217 0.362 0.317 0.549-2.578 0.06-4.74 0.653-6.515 1.633-0.185-0.14-0.375-0.274-0.567-0.406 1.854-1.011 4.097-1.644 6.765-1.776z" fill="#FFE01B"/>
			<path d="m81.028 45.248c0.898-1.542 1.413-3.335 1.413-5.248 0-1.561-0.339-3.035-0.949-4.359-2.492-0.017-4.58 0.526-6.282 1.473 2.523 2.065 4.388 4.818 5.818 8.134z" fill="#FFE01B"/>
			<path d="m72.003 39.879c2.144 2.774 2.946 6.56 2.537 10.247-0.812 0.203-1.663 0.312-2.537 0.312s-1.724-0.108-2.536-0.312c-0.411-3.688 0.392-7.473 2.536-10.247z" fill="#FFE01B"/>
			<path d="m75.763 49.739c0.469-0.181 0.922-0.394 1.355-0.639-0.248-3.92-1.53-7.657-4.087-10.368-0.189 0.184-0.373 0.371-0.547 0.567 2.379 2.78 3.41 6.601 3.279 10.44z" fill="#FFE01B"/>
			<path d="m70.352 38.176c-0.224-0.185-0.474-0.377-0.716-0.542-2.648 2.347-4.392 5.532-5.495 9.23 0.407 0.468 0.857 0.896 1.343 1.285 0.682-3.889 2.213-7.41 4.868-9.973z" fill="#FFE01B"/>
			<path d="m73.655 38.176c0.224-0.185 0.475-0.377 0.717-0.542 2.646 2.347 4.391 5.532 5.495 9.23-0.408 0.468-0.858 0.896-1.344 1.285-0.682-3.889-2.213-7.41-4.868-9.973z" fill="#FFE01B"/>
			<path d="m72.003 35.912c0.131 0.078 0.582 0.361 0.698 0.436-0.178 0.11-0.587 0.384-0.698 0.463-0.111-0.079-0.521-0.353-0.697-0.463 0.114-0.075 0.566-0.358 0.697-0.436z" fill="#FFE01B"/>
			<path d="m70.684 36.783c-0.179 0.133-0.448 0.34-0.552 0.428 0.256 0.168 0.601 0.429 0.71 0.515 0.133-0.115 0.396-0.349 0.546-0.457-0.181-0.131-0.569-0.408-0.704-0.486z" fill="#FFE01B"/>
			<path d="m73.324 36.783c0.177 0.133 0.446 0.34 0.551 0.428-0.256 0.168-0.6 0.429-0.709 0.515-0.133-0.115-0.397-0.349-0.547-0.457 0.18-0.131 0.568-0.408 0.705-0.486z" fill="#FFE01B"/>
			<path d="m72.003 37.758c0.114 0.099 0.454 0.396 0.542 0.488-0.16 0.142-0.41 0.377-0.542 0.525-0.132-0.148-0.382-0.384-0.543-0.525 0.09-0.092 0.429-0.39 0.543-0.488z" fill="#FFE01B"/>
</g>
</svg>
