<?xml version="1.0" encoding="UTF-8" standalone="no"?>
<!-- Generator: Adobe Illustrator 18.0.0, SVG Export Plug-In . SVG Version: 6.00 Build 0)  -->
<!DOCTYPE svg  PUBLIC '-//W3C//DTD SVG 1.1//EN'  'http://www.w3.org/Graphics/SVG/1.1/DTD/svg11.dtd'>
<svg style="enable-background:new 0 0 144 80" xmlns="http://www.w3.org/2000/svg" xml:space="preserve" version="1.1" y="0px" x="0px" xmlns:xlink="http://www.w3.org/1999/xlink" viewBox="0 0 144 80">
<g id="CHN">
		<polygon points="144 80 144 0 0 0 0 80" fill="#DE2910"/>
		<path d="m74.979 41.174" fill="#EC1C2E"/>
		<path stroke-width=".1789" d="m74.979 41.174" stroke="#000" fill="none"/>
		<g fill="#FFDE00">
			<polygon points="17.972 10.004 15.18 18.679 6 18.679 13.455 24.076 10.591 32.743 17.972 27.358 25.354 32.743 22.526 24.003 29.944 18.715 20.8 18.715"/>
			<polygon points="36.031 7.085 37.601 9.718 35.561 12.035 38.58 11.354 40.131 14.003 40.412 10.942 43.412 10.276 40.577 9.048 40.891 6 38.859 8.309"/>
			<polygon points="45.901 14.482 46.334 17.516 43.559 18.867 46.607 19.402 47.016 22.445 48.456 19.729 51.48 20.272 49.34 18.045 50.805 15.354 48.039 16.7"/>
			<polygon points="43.703 29.901 46.233 31.631 45.354 34.591 47.809 32.703 50.328 34.456 49.298 31.562 51.741 29.697 48.652 29.771 47.658 26.874 46.782 29.822"/>
			<polygon points="35.91 36.858 37.595 39.418 35.66 41.824 38.646 41.009 40.314 43.586 40.458 40.518 43.425 39.719 40.539 38.615 40.717 35.558 38.789 37.953"/>
		</g>
</g>
</svg>
