<?xml version="1.0" encoding="UTF-8" standalone="no"?>
<!-- Generator: Adobe Illustrator 18.0.0, SVG Export Plug-In . SVG Version: 6.00 Build 0)  -->
<!DOCTYPE svg  PUBLIC '-//W3C//DTD SVG 1.1//EN'  'http://www.w3.org/Graphics/SVG/1.1/DTD/svg11.dtd'>
<svg style="enable-background:new 0 0 144 80" xmlns="http://www.w3.org/2000/svg" xml:space="preserve" version="1.1" y="0px" x="0px" xmlns:xlink="http://www.w3.org/1999/xlink" viewBox="0 0 144 80">
<g id="CAF">
			<polygon points="144 60 0 60 0 80 144 80" fill="#FFCE00"/>
			<polygon points="144 20 0 20 0 0 144 0" fill="#003082"/>
			<polygon points="144 60 0 60 0 40 144 40" fill="#289728"/>
			<polygon points="144 40 0 40 0 20 144 20" fill="#fff"/>
		<polygon points="82 80 82 0 62 0 62 80" fill="#D21034"/>
		<path d="m74.979 41.174" fill="#EC174C"/>
		<path stroke-width=".1611" d="m74.979 41.174" stroke="#000" fill="none"/>
		<polygon points="14.38 2.842 12.867 7.54 7.897 7.54 11.934 10.464 10.383 15.158 14.38 12.241 18.377 15.158 16.847 10.423 20.863 7.56 15.911 7.56" fill="#FFCE00"/>
</g>
</svg>
