<?xml version="1.0" encoding="UTF-8" standalone="no"?>
<!-- Generator: Adobe Illustrator 18.0.0, SVG Export Plug-In . SVG Version: 6.00 Build 0)  -->
<!DOCTYPE svg  PUBLIC '-//W3C//DTD SVG 1.1//EN'  'http://www.w3.org/Graphics/SVG/1.1/DTD/svg11.dtd'>
<svg style="enable-background:new 0 0 144 80" xmlns="http://www.w3.org/2000/svg" xml:space="preserve" version="1.1" y="0px" x="0px" xmlns:xlink="http://www.w3.org/1999/xlink" viewBox="0 0 144 80">
<g id="ISV">
		<rect height="81" width="144.58" y="0" x="0" fill="#fff"/>
		<path d="m29.764 49.818c-0.901-0.8-1.431-1.466-1.034-2.834 1.635-5.635 2.034-6.901 4.269-14.404 0.171-0.576 0.367-1.168 1.434-1.968h-5.603c0.733 0.366 1.016 1.472 0.866 2.034-0.834 3.135-3.301 11.438-3.301 11.438s-2.467-8.303-3.301-11.438c-0.15-0.562 0.133-1.668 0.866-2.034h-5.601c1.067 0.8 1.263 1.392 1.434 1.968 2.234 7.503 2.635 8.77 4.268 14.404 0.398 1.368-0.132 2.034-1.033 2.834h6.736z" fill="#38C1D3"/>
		<path d="m29.764 49.818c-0.901-0.8-1.431-1.466-1.034-2.834 1.635-5.635 2.034-6.901 4.269-14.404 0.171-0.576 0.367-1.168 1.434-1.968h-5.603c0.733 0.366 1.016 1.472 0.866 2.034-0.834 3.135-3.301 11.438-3.301 11.438s-2.467-8.303-3.301-11.438c-0.15-0.562 0.133-1.668 0.866-2.034h-5.601c1.067 0.8 1.263 1.392 1.434 1.968 2.234 7.503 2.635 8.77 4.268 14.404 0.398 1.368-0.132 2.034-1.033 2.834h6.736v0z" stroke="#000" stroke-linecap="round" stroke-width=".1404" fill="none"/>
		<path d="m126.9 49.824c-0.939-0.506-1.465-1.306-1.465-2.739v-13.738c0-1.434 0.525-2.234 1.465-2.739h-6.031c0.94 0.505 1.467 1.306 1.467 2.739v13.738c0 1.434-0.526 2.233-1.467 2.739h6.03z" fill="#38C1D3"/>
		<path d="m126.9 49.824c-0.939-0.506-1.465-1.306-1.465-2.739v-13.738c0-1.434 0.525-2.234 1.465-2.739h-6.031c0.94 0.505 1.467 1.306 1.467 2.739v13.738c0 1.434-0.526 2.233-1.467 2.739h6.03v0z" stroke="#000" stroke-linecap="round" stroke-width=".1404" fill="none"/>
		<polygon points="103.59 38.075 103.68 46.688 102.17 45.841 97.374 63.976 98.646 65.195 96.63 72.825 94.934 70.81 92.464 71.724 94.481 64.094 96.188 63.662 100.98 45.526 99.248 45.515" fill="#38C1D3"/>
		<polygon stroke-linecap="round" stroke="#000" points="103.59 38.075 103.68 46.688 102.17 45.841 97.374 63.976 98.646 65.195 96.63 72.825 94.934 70.81 92.464 71.724 94.481 64.094 96.188 63.662 100.98 45.526 99.248 45.515" stroke-width=".1404" fill="none"/>
		<polygon points="110.92 35.473 108.73 44.718 107.34 43.408 97.381 61.547 98.417 63.191 94.229 70.822 92.948 68.215 90.062 68.536 94.251 60.904 96.195 60.896 106.15 42.758 104.3 42.284" fill="#38C1D3"/>
		<polygon stroke-linecap="round" stroke="#000" points="110.92 35.473 108.73 44.718 107.34 43.408 97.381 61.547 98.417 63.191 94.229 70.822 92.948 68.215 90.062 68.536 94.251 60.904 96.195 60.896 106.15 42.758 104.3 42.284" stroke-width=".1404" fill="none"/>
		<polygon points="114.48 41.479 110.37 49.904 109.31 48.341 95.78 63.641 96.42 65.449 90.729 71.887 90.064 69.097 87.215 68.779 92.905 62.342 94.78 62.757 108.31 47.456 106.63 46.598" fill="#38C1D3"/>
		<polygon stroke-linecap="round" stroke="#000" points="114.48 41.479 110.37 49.904 109.31 48.341 95.78 63.641 96.42 65.449 90.729 71.887 90.064 69.097 87.215 68.779 92.905 62.342 94.78 62.757 108.31 47.456 106.63 46.598" stroke-width=".1404" fill="none"/>
		<path d="m52.038 57.788c-1.268-1.834 0.732-2.101 1.267-2.567 0.532-0.467 1.233-1.7 0.767-3.201-0.133 0.801-1.102 1.367-1.9 1.733-0.8 0.367-1.167 2.135-0.967 2.602-0.734-1.301 0.133-2.834 0.834-3.602 0.699-0.767 0.633-2.668 0.1-3.934 0.033 0.9-0.734 1.867-1.467 2.468s-0.234 2.234-0.867 2.901c-0.967-1.435-1.4-2.534-0.467-3.135 1.925-1.236 1.601-3.701 0.834-5.135 0.133 1-0.936 1.9-1.234 2.167-0.893 0.794-0.233 2.335-0.834 3.334-1.5-2.967-0.5-4.101 0.268-4.834 0.767-0.734 0.967-2.567 0-3.969 0 0.7-0.492 1.783-1.268 2.234-1.034 0.601-0.5 2.368-0.834 3.201-1.034-1.94-0.767-3.935 0.467-4.936 0.668-0.542 0.834-2.4 0.101-3.568 0.333 1.101-1.334 1.268-1.834 2.568-0.38 0.984 0.267 2.001-0.2 3.135-0.301-0.633-0.567-1.401-0.768-1.901-0.34-0.852-0.134-1.467 0.968-3.267 1.1-1.802 0.133-3.603-0.634-4.569-0.066 0.967-1.257 2.38-1 3.468 0.267 1.134 0.233 2.034-0.167 2.769-1.034-1.969-0.767-3.936-0.801-5.002-0.033-1.067-0.9-2.501-2.534-3.568-0.366 0.867-0.933 3.401 0.1 4.269 1.035 0.867 2.002 2.401 2.435 3.802-1.233-0.167-1.9-1.435-2.467-2.335-0.7-1.113-2.268-1.768-3.468-1.567 0.533 1.767 1.441 3.279 3.234 3.834 1.4 0.434 2.749 0.625 3.268 1.835 0.199 0.466 0.533 1.601 0.767 2.066-1.533-0.366-1.467-2.301-3.201-2.334-0.601-0.012-1.767-0.134-2.4-0.699 0.499 1.5 1.431 2.921 2.734 3.133 1.434 0.234 3.067 0.367 4.101 2.734-0.766-0.833-2.601-1-3.267-0.867-0.667 0.134-1.802 0.134-2.534-0.166 0.466 1.133 2.162 2.417 3.566 2.101 1.334-0.3 2.484-0.451 3.803 2.267-0.602-1.001-2.303-1.548-3.068-1.218-0.734 0.317-2 0.483-2.901 0.25 0.733 1.301 2.435 2.034 3.769 1.768 1.461-0.292 2.566 0.267 3.4 1.901-1.133-1.134-2.934-0.768-3.533-0.567-0.601 0.2-1.701 0.366-2.734-0.033 0.866 1.334 2.467 2.434 4.801 1.834 1.686-0.434 2.135 0.399 2.533 0.833-0.666-0.166-2.133-0.466-2.9 0.135-0.458 0.359-1.333 0.866-2.233 0.799 0.833 0.901 2.9 0.802 3.868 0.435 0.967-0.367 1.667-0.967 2.268 0.1 1.066 2 4.067 7.269 5.168 8.303 0.5-0.634 1.533 0.334 2.533-0.5-1.337-1.669-4.639-6.171-5.472-7.505z" fill="#1F8441"/>
		<path d="m52.038 57.788c-1.268-1.834 0.732-2.101 1.267-2.567 0.532-0.467 1.233-1.7 0.767-3.201-0.133 0.801-1.102 1.367-1.9 1.733-0.8 0.367-1.167 2.135-0.967 2.602-0.734-1.301 0.133-2.834 0.834-3.602 0.699-0.767 0.633-2.668 0.1-3.934 0.033 0.9-0.734 1.867-1.467 2.468s-0.234 2.234-0.867 2.901c-0.967-1.435-1.4-2.534-0.467-3.135 1.925-1.236 1.601-3.701 0.834-5.135 0.133 1-0.936 1.9-1.234 2.167-0.893 0.794-0.233 2.335-0.834 3.334-1.5-2.967-0.5-4.101 0.268-4.834 0.767-0.734 0.967-2.567 0-3.969 0 0.7-0.492 1.783-1.268 2.234-1.034 0.601-0.5 2.368-0.834 3.201-1.034-1.94-0.767-3.935 0.467-4.936 0.668-0.542 0.834-2.4 0.101-3.568 0.333 1.101-1.334 1.268-1.834 2.568-0.38 0.984 0.267 2.001-0.2 3.135-0.301-0.633-0.567-1.401-0.768-1.901-0.34-0.852-0.134-1.467 0.968-3.267 1.1-1.802 0.133-3.603-0.634-4.569-0.066 0.967-1.257 2.38-1 3.468 0.267 1.134 0.233 2.034-0.167 2.769-1.034-1.969-0.767-3.936-0.801-5.002-0.033-1.067-0.9-2.501-2.534-3.568-0.366 0.867-0.933 3.401 0.1 4.269 1.035 0.867 2.002 2.401 2.435 3.802-1.233-0.167-1.9-1.435-2.467-2.335-0.7-1.113-2.268-1.768-3.468-1.567 0.533 1.767 1.441 3.279 3.234 3.834 1.4 0.434 2.749 0.625 3.268 1.835 0.199 0.466 0.533 1.601 0.767 2.066-1.533-0.366-1.467-2.301-3.201-2.334-0.601-0.012-1.767-0.134-2.4-0.699 0.499 1.5 1.431 2.921 2.734 3.133 1.434 0.234 3.067 0.367 4.101 2.734-0.766-0.833-2.601-1-3.267-0.867-0.667 0.134-1.802 0.134-2.534-0.166 0.466 1.133 2.162 2.417 3.566 2.101 1.334-0.3 2.484-0.451 3.803 2.267-0.602-1.001-2.303-1.548-3.068-1.218-0.734 0.317-2 0.483-2.901 0.25 0.733 1.301 2.435 2.034 3.769 1.768 1.461-0.292 2.566 0.267 3.4 1.901-1.133-1.134-2.934-0.768-3.533-0.567-0.601 0.2-1.701 0.366-2.734-0.033 0.866 1.334 2.467 2.434 4.801 1.834 1.686-0.434 2.135 0.399 2.533 0.833-0.666-0.166-2.133-0.466-2.9 0.135-0.458 0.359-1.333 0.866-2.233 0.799 0.833 0.901 2.9 0.802 3.868 0.435 0.967-0.367 1.667-0.967 2.268 0.1 1.066 2 4.067 7.269 5.168 8.303 0.5-0.634 1.533 0.334 2.533-0.5-1.337-1.669-4.639-6.171-5.472-7.505v0z" stroke="#000" stroke-linecap="round" stroke-width=".1404" fill="none"/>
		<path d="m93.091 53.337c1.006 0.752 1.594 1.824 2.243 2.126 0.648 0.301 1.262 0.537 2.722 0.364 0.829-0.099 1.759-0.222 2.668 0.601 0.909 0.822 1.134 1.312 1.18 2.245 0.047 0.933-0.227 1.463-0.693 1.503 0.074 0.481-0.406 0.872-1.08 0.738 0.012 0.584-1.131 0.856-2.193 0.308l0.883-1.001c0.232-0.379-0.781-1.622-1.533-1.301l-1.017 1.834c-0.398-0.297-0.698-0.933-0.743-1.43-0.074-0.832-0.521-1.744-1.193-1.844-0.674-0.1-1.156-0.455-2.017-0.935-1.374-0.766-2.583-0.906-3.45-1.564-0.831-1.242 2.61-4.574 4.224-1.644z" fill="#FDD500"/>
		<path d="m93.091 53.337c1.006 0.752 1.594 1.824 2.243 2.126 0.648 0.301 1.262 0.537 2.722 0.364 0.829-0.099 1.759-0.222 2.668 0.601 0.909 0.822 1.134 1.312 1.18 2.245 0.047 0.933-0.227 1.463-0.693 1.503 0.074 0.481-0.406 0.872-1.08 0.738 0.012 0.584-1.131 0.856-2.193 0.308l0.883-1.001c0.232-0.379-0.781-1.622-1.533-1.301l-1.017 1.834c-0.398-0.297-0.698-0.933-0.743-1.43-0.074-0.832-0.521-1.744-1.193-1.844-0.674-0.1-1.156-0.455-2.017-0.935-1.374-0.766-2.583-0.906-3.45-1.564-0.831-1.242 2.61-4.574 4.224-1.644v0z" stroke="#000" stroke-linecap="round" stroke-width=".1404" fill="none"/>
		<path d="m61.107 54.82c-0.833 0.701-2.034 0.901-3.368 1.734-0.836 0.521-1.301 0.899-1.967 1.033-0.667 0.134-1.067 1.067-1.1 1.9-0.021 0.5-0.185 1.201-0.417 1.468l-1.217-1.685c-0.801-0.333-1.768 0.817-1.533 1.251l0.649 1.135c-1.085 0.466-1.983 0.233-2.001-0.352-0.667 0.167-1.168-0.199-1.117-0.683-0.467-0.018-0.766-0.534-0.766-1.468 0-0.933 0.199-1.434 1.066-2.301 0.866-0.867 1.801-0.79 2.633-0.734 1.469 0.101 2.068-0.166 2.702-0.499s1.167-1.434 2.134-2.234c2.519-2.102 5.383-0.291 4.302 1.435z" fill="#FDD500"/>
		<path d="m61.107 54.82c-0.833 0.701-2.034 0.901-3.368 1.734-0.836 0.521-1.301 0.899-1.967 1.033-0.667 0.134-1.067 1.067-1.1 1.9-0.021 0.5-0.185 1.201-0.417 1.468l-1.217-1.685c-0.801-0.333-1.768 0.817-1.533 1.251l0.649 1.135c-1.085 0.466-1.983 0.233-2.001-0.352-0.667 0.167-1.168-0.199-1.117-0.683-0.467-0.018-0.766-0.534-0.766-1.468 0-0.933 0.199-1.434 1.066-2.301 0.866-0.867 1.801-0.79 2.633-0.734 1.469 0.101 2.068-0.166 2.702-0.499s1.167-1.434 2.134-2.234c2.519-2.102 5.383-0.291 4.302 1.435v0z" stroke="#000" stroke-linecap="round" stroke-width=".1404" fill="none"/>
		<path d="m62.132 29.521c-1.826-1.684-3.272 0.374-4.176-0.245-0.668-0.457-0.354-1.299 0.084-1.664 1.67-1.401 1.688-4.379-0.267-5.468-3.469-1.935-12.604-4.136-16.939-5.069-4.335-0.934-13.017-3.38-15.439-4.368-3.268-1.334-3.534 1.868-1.366 2.835-0.467 0.8-0.201 2.2 1.667 2.934-0.801 1.4 0.533 2.4 4.268 3.535-0.699 1.5 1.267 3.067 5.136 3.934-0.701 1.469 0.6 2.468 4.668 3.201-0.667 0.534-0.334 2.268 3.934 2.868-0.933 0.6-0.033 2.267 5.169 2.534-1.034 1.101-0.167 2.834 1.5 2.668-0.768 1 0.134 3.1 2.4 2.667 0.034 1.101 1.768 1.835 2.801 1.001 0 1.334 2.702 1.566 3.334 0.666 0.334 0.935 2.469 0.733 3.336 0.067 0 1.467-0.533 3.067-1.936 4.201-1.4 1.134-3.215 2.86-3.333 4.735-0.134 2.1-0.434 2.9-1.234 3.368 0.7 0.1 2.234-0.367 2.667-1.034-0.233 0.566-0.033 1.434-0.332 2.066 1.301-0.266 1.667-1.3 2.301-1.433-0.234 0.833-0.334 1.934-0.1 2.534 0.183-0.15 0.199-0.551 0.9-0.7 0.6-0.129 1.252-0.784 1.633-1.801 0.9-2.401 3.459-2.384 4.368-3.701l-5.044-20.331z" fill="#FDD500"/>
		<path stroke-width=".1404" d="m62.132 29.521c-1.826-1.684-3.272 0.374-4.176-0.245-0.668-0.457-0.354-1.299 0.084-1.664 1.67-1.401 1.688-4.379-0.267-5.468-3.469-1.935-12.604-4.136-16.939-5.069-4.335-0.934-13.017-3.38-15.439-4.368-3.268-1.334-3.534 1.868-1.366 2.835-0.467 0.8-0.201 2.2 1.667 2.934-0.801 1.4 0.533 2.4 4.268 3.535-0.699 1.5 1.267 3.067 5.136 3.934-0.701 1.469 0.6 2.468 4.668 3.201-0.667 0.534-0.334 2.268 3.934 2.868-0.933 0.6-0.033 2.267 5.169 2.534-1.034 1.101-0.167 2.834 1.5 2.668-0.768 1 0.134 3.1 2.4 2.667 0.034 1.101 1.768 1.835 2.801 1.001 0 1.334 2.702 1.566 3.334 0.666 0.334 0.935 2.469 0.733 3.336 0.067 0 1.467-0.533 3.067-1.936 4.201-1.4 1.134-3.215 2.86-3.333 4.735-0.134 2.1-0.434 2.9-1.234 3.368 0.7 0.1 2.234-0.367 2.667-1.034-0.233 0.566-0.033 1.434-0.332 2.066 1.301-0.266 1.667-1.3 2.301-1.433-0.234 0.833-0.334 1.934-0.1 2.534 0.183-0.15 0.199-0.551 0.9-0.7 0.6-0.129 1.252-0.784 1.633-1.801 0.9-2.401 3.459-2.384 4.368-3.701l-5.044-20.331z" stroke="#000" fill="none"/>
		<path d="m87.825 29.521c1.825-1.684 3.271 0.374 4.177-0.245 0.667-0.457 0.352-1.299-0.085-1.664-1.67-1.401-1.686-4.379 0.268-5.468 3.467-1.935 12.604-4.136 16.939-5.069 4.335-0.934 13.017-3.38 15.438-4.368 3.268-1.334 3.534 1.868 1.366 2.835 0.467 0.8 0.201 2.2-1.667 2.934 0.801 1.4-0.533 2.4-4.268 3.535 0.7 1.5-1.268 3.067-5.135 3.934 0.699 1.469-0.601 2.468-4.669 3.201 0.667 0.534 0.334 2.268-3.935 2.868 0.934 0.6 0.034 2.267-5.169 2.534 1.034 1.101 0.166 2.834-1.5 2.668 0.767 1-0.133 3.1-2.4 2.667-0.033 1.101-1.768 1.835-2.801 1.001 0 1.334-2.701 1.566-3.335 0.666-0.334 0.935-2.468 0.733-3.335 0.067 0 1.467 0.534 3.067 1.935 4.201 1.4 1.134 3.216 2.86 3.334 4.735 0.134 2.1 0.433 2.9 1.233 3.368-0.699 0.1-2.232-0.367-2.666-1.034 0.233 0.566 0.032 1.434 0.333 2.066-1.302-0.266-1.667-1.3-2.302-1.433 0.234 0.833 0.334 1.934 0.102 2.534-0.185-0.15-0.201-0.551-0.901-0.7-0.601-0.129-1.252-0.784-1.634-1.801-0.9-2.401-3.459-2.384-4.368-3.701l5.04-20.331z" fill="#FDD500"/>
		<path stroke-width=".1404" d="m87.825 29.521c1.825-1.684 3.271 0.374 4.177-0.245 0.667-0.457 0.352-1.299-0.085-1.664-1.67-1.401-1.686-4.379 0.268-5.468 3.467-1.935 12.604-4.136 16.939-5.069 4.335-0.934 13.017-3.38 15.438-4.368 3.268-1.334 3.534 1.868 1.366 2.835 0.467 0.8 0.201 2.2-1.667 2.934 0.801 1.4-0.533 2.4-4.268 3.535 0.7 1.5-1.268 3.067-5.135 3.934 0.699 1.469-0.601 2.468-4.669 3.201 0.667 0.534 0.334 2.268-3.935 2.868 0.934 0.6 0.034 2.267-5.169 2.534 1.034 1.101 0.166 2.834-1.5 2.668 0.767 1-0.133 3.1-2.4 2.667-0.033 1.101-1.768 1.835-2.801 1.001 0 1.334-2.701 1.566-3.335 0.666-0.334 0.935-2.468 0.733-3.335 0.067 0 1.467 0.534 3.067 1.935 4.201 1.4 1.134 3.216 2.86 3.334 4.735 0.134 2.1 0.433 2.9 1.233 3.368-0.699 0.1-2.232-0.367-2.666-1.034 0.233 0.566 0.032 1.434 0.333 2.066-1.302-0.266-1.667-1.3-2.302-1.433 0.234 0.833 0.334 1.934 0.102 2.534-0.185-0.15-0.201-0.551-0.901-0.7-0.601-0.129-1.252-0.784-1.634-1.801-0.9-2.401-3.459-2.384-4.368-3.701l5.04-20.331z" stroke="#000" fill="none"/>
		<path d="m66.576 27.777c0.7-0.3 1.267-1.366 1.467-1.667-0.567 0.034-1.234-0.132-1.334-0.399 0.9-0.066 1.667-1.768 2.867-2.468-0.233 0-0.767-0.167-0.899-0.301 2.334-1.2 1.066-2.8 3.067-4.334 1.292-0.99-0.066-1.901-0.601-2.234-0.533-0.333-1.391-0.358-1.2-1.399 0.134-0.734 0.7-1.002 1.2-0.968 0.401-1.001 1.368-1.301 2.968-1.301 1.935 0 4.221 0.88 4.668 3.835 0.167 1.101 0.534 3.801 1.968 4.902-0.267 0.133-1.1 0.199-1.533 0.032 0.533 1.434 2.367 2.602 3.301 3.002-0.133 0.232-1.101 0.566-1.602 0.566 0.701 0.566 1.534 1.634 1.936 2.501l-16.273 0.233z" fill="#FDD500"/>
		<path d="m66.576 27.777c0.7-0.3 1.267-1.366 1.467-1.667-0.567 0.034-1.234-0.132-1.334-0.399 0.9-0.066 1.667-1.768 2.867-2.468-0.233 0-0.767-0.167-0.899-0.301 2.334-1.2 1.066-2.8 3.067-4.334 1.292-0.99-0.066-1.901-0.601-2.234-0.533-0.333-1.391-0.358-1.2-1.399 0.134-0.734 0.7-1.002 1.2-0.968 0.401-1.001 1.368-1.301 2.968-1.301 1.935 0 4.221 0.88 4.668 3.835 0.167 1.101 0.534 3.801 1.968 4.902-0.267 0.133-1.1 0.199-1.533 0.032 0.533 1.434 2.367 2.602 3.301 3.002-0.133 0.232-1.101 0.566-1.602 0.566 0.701 0.566 1.534 1.634 1.936 2.501l-16.273 0.233v0z" stroke="#000" stroke-linecap="round" stroke-width=".1404" fill="none"/>
		<path d="m69.943 14.975c-1.9 0.1-3.101-0.001-3.101 2.8 1.099-1.206 1.49-0.572 2.309-0.767 1.244-0.296 2.703 0.947 2.227 1.934 1.399-0.267 1.911-2.035 0.666-2.4-1.134-0.334-2.267-0.901-2.101-1.567z" fill="#FDD500"/>
		<path d="m69.943 14.975c-1.9 0.1-3.101-0.001-3.101 2.8 1.099-1.206 1.49-0.572 2.309-0.767 1.244-0.296 2.703 0.947 2.227 1.934 1.399-0.267 1.911-2.035 0.666-2.4-1.134-0.334-2.267-0.901-2.101-1.567v0z" stroke="#000" stroke-linecap="round" stroke-width=".1404" fill="none"/>
		<path d="m87.983 59.986c-1.872 1.377-4.937-3.468-6.682-9.083 4.843 3.338 8.553 7.705 6.682 9.083z" fill="#FDD500"/>
		<path d="m87.983 59.986c-1.872 1.377-4.937-3.468-6.682-9.083 4.843 3.338 8.553 7.705 6.682 9.083v0z" stroke="#000" stroke-linecap="round" stroke-width=".1404" fill="none"/>
		<path d="m86.955 61.405c-1.968 1.391-5.048-3.692-6.744-9.546 4.951 3.555 8.71 8.156 6.744 9.546z" fill="#FDD500"/>
		<path d="m86.955 61.405c-1.968 1.391-5.048-3.692-6.744-9.546 4.951 3.555 8.71 8.156 6.744 9.546v0z" stroke="#000" stroke-linecap="round" stroke-width=".1404" fill="none"/>
		<path d="m85.198 63.097c-2.037 1.353-4.854-4.141-6.251-10.369 4.765 3.991 8.286 9.015 6.251 10.369z" fill="#FDD500"/>
		<path d="m85.198 63.097c-2.037 1.353-4.854-4.141-6.251-10.369 4.765 3.991 8.286 9.015 6.251 10.369v0z" stroke="#000" stroke-linecap="round" stroke-width=".1404" fill="none"/>
		<path d="m83.62 64.881c-2.251 1.283-4.834-4.729-5.86-11.418 4.75 4.564 8.11 10.134 5.86 11.418z" fill="#FDD500"/>
		<path d="m83.62 64.881c-2.251 1.283-4.834-4.729-5.86-11.418 4.75 4.564 8.11 10.134 5.86 11.418v0z" stroke="#000" stroke-linecap="round" stroke-width=".1404" fill="none"/>
		<path d="m81.806 66.544c-2.441 1.199-4.758-5.27-5.402-12.346 4.683 5.093 7.844 11.147 5.402 12.346z" fill="#FDD500"/>
		<path d="m81.806 66.544c-2.441 1.199-4.758-5.27-5.402-12.346 4.683 5.093 7.844 11.147 5.402 12.346v0z" stroke="#000" stroke-linecap="round" stroke-width=".1404" fill="none"/>
		<path d="m79.388 68.509c-2.59 0.831-3.941-5.906-3.547-13 3.89 5.719 6.138 12.169 3.547 13z" fill="#FDD500"/>
		<path d="m79.388 68.509c-2.59 0.831-3.941-5.906-3.547-13 3.89 5.719 6.138 12.169 3.547 13v0z" stroke="#000" stroke-linecap="round" stroke-width=".1404" fill="none"/>
		<path d="m61.982 59.986c1.872 1.377 4.938-3.468 6.682-9.083-4.842 3.338-8.554 7.705-6.682 9.083z" fill="#FDD500"/>
		<path d="m61.982 59.986c1.872 1.377 4.938-3.468 6.682-9.083-4.842 3.338-8.554 7.705-6.682 9.083v0z" stroke="#000" stroke-linecap="round" stroke-width=".1404" fill="none"/>
		<path d="m63.012 61.405c1.968 1.391 5.048-3.692 6.743-9.546-4.951 3.555-8.711 8.156-6.743 9.546z" fill="#FDD500"/>
		<path d="m63.012 61.405c1.968 1.391 5.048-3.692 6.743-9.546-4.951 3.555-8.711 8.156-6.743 9.546v0z" stroke="#000" stroke-linecap="round" stroke-width=".1404" fill="none"/>
		<path d="m64.77 63.097c2.035 1.353 4.853-4.141 6.249-10.369-4.764 3.991-8.286 9.015-6.249 10.369z" fill="#FDD500"/>
		<path d="m64.77 63.097c2.035 1.353 4.853-4.141 6.249-10.369-4.764 3.991-8.286 9.015-6.249 10.369v0z" stroke="#000" stroke-linecap="round" stroke-width=".1404" fill="none"/>
		<path d="m66.346 64.881c2.251 1.283 4.834-4.729 5.86-11.418-4.75 4.564-8.111 10.134-5.86 11.418z" fill="#FDD500"/>
		<path d="m66.346 64.881c2.251 1.283 4.834-4.729 5.86-11.418-4.75 4.564-8.111 10.134-5.86 11.418v0z" stroke="#000" stroke-linecap="round" stroke-width=".1404" fill="none"/>
		<path d="m68.159 66.544c2.443 1.199 4.76-5.27 5.402-12.346-4.681 5.093-7.843 11.147-5.402 12.346z" fill="#FDD500"/>
		<path d="m68.159 66.544c2.443 1.199 4.76-5.27 5.402-12.346-4.681 5.093-7.843 11.147-5.402 12.346v0z" stroke="#000" stroke-linecap="round" stroke-width=".1404" fill="none"/>
		<path d="m70.578 68.509c2.591 0.831 3.942-5.906 3.548-13-3.892 5.719-6.139 12.169-3.548 13z" fill="#FDD500"/>
		<path d="m70.578 68.509c2.591 0.831 3.942-5.906 3.548-13-3.892 5.719-6.139 12.169-3.548 13v0z" stroke="#000" stroke-linecap="round" stroke-width=".1404" fill="none"/>
		<path d="m74.944 70.567c3.258 0 2.693-8.011 0-15.797-2.692 7.787-3.255 15.797 0 15.797z" fill="#FDD500"/>
		<path d="m74.944 70.567c3.258 0 2.693-8.011 0-15.797-2.692 7.787-3.255 15.797 0 15.797v0z" stroke="#000" stroke-linecap="round" stroke-width=".1404" fill="none"/>
		<path d="m82.848 53.049c-1.391 1.023-3.214-1.955-2.062-2.803 1.151-0.847 3.452 1.78 2.062 2.803z" fill="#FDD500"/>
		<path d="m82.848 53.049c-1.391 1.023-3.214-1.955-2.062-2.803 1.151-0.847 3.452 1.78 2.062 2.803v0z" stroke="#000" stroke-linecap="round" stroke-width=".1404" fill="none"/>
		<path d="m81.77 54.114c-1.462 1.031-3.291-2.091-2.081-2.946 1.209-0.856 3.542 1.913 2.081 2.946z" fill="#FDD500"/>
		<path d="m81.77 54.114c-1.462 1.031-3.291-2.091-2.081-2.946 1.209-0.856 3.542 1.913 2.081 2.946v0z" stroke="#000" stroke-linecap="round" stroke-width=".1404" fill="none"/>
		<path d="m80.389 55.174c-1.512 1.005-3.181-2.368-1.929-3.2s3.441 2.196 1.929 3.2z" fill="#FDD500"/>
		<path d="m80.389 55.174c-1.512 1.005-3.181-2.368-1.929-3.2s3.441 2.196 1.929 3.2v0z" stroke="#000" stroke-linecap="round" stroke-width=".1404" fill="none"/>
		<path d="m79.107 56.155c-1.673 0.953-3.193-2.735-1.808-3.524 1.384-0.79 3.48 2.57 1.808 3.524z" fill="#FDD500"/>
		<path d="m79.107 56.155c-1.673 0.953-3.193-2.735-1.808-3.524 1.384-0.79 3.48 2.57 1.808 3.524v0z" stroke="#000" stroke-linecap="round" stroke-width=".1404" fill="none"/>
		<path d="m77.643 57.106c-1.813 0.891-3.169-3.072-1.667-3.81 1.502-0.736 3.481 2.92 1.667 3.81z" fill="#FDD500"/>
		<path d="m77.643 57.106c-1.813 0.891-3.169-3.072-1.667-3.81 1.502-0.736 3.481 2.92 1.667 3.81v0z" stroke="#000" stroke-linecap="round" stroke-width=".1404" fill="none"/>
		<path d="m67.119 53.049c1.39 1.023 3.214-1.955 2.062-2.803-1.152-0.847-3.452 1.78-2.062 2.803z" fill="#FDD500"/>
		<path d="m67.119 53.049c1.39 1.023 3.214-1.955 2.062-2.803-1.152-0.847-3.452 1.78-2.062 2.803v0z" stroke="#000" stroke-linecap="round" stroke-width=".1404" fill="none"/>
		<path d="m68.196 54.114c1.462 1.031 3.291-2.091 2.081-2.946-1.21-0.856-3.542 1.913-2.081 2.946z" fill="#FDD500"/>
		<path d="m68.196 54.114c1.462 1.031 3.291-2.091 2.081-2.946-1.21-0.856-3.542 1.913-2.081 2.946v0z" stroke="#000" stroke-linecap="round" stroke-width=".1404" fill="none"/>
		<path d="m69.578 55.174c1.511 1.005 3.181-2.368 1.929-3.2s-3.442 2.196-1.929 3.2z" fill="#FDD500"/>
		<path d="m69.578 55.174c1.511 1.005 3.181-2.368 1.929-3.2s-3.442 2.196-1.929 3.2v0z" stroke="#000" stroke-linecap="round" stroke-width=".1404" fill="none"/>
		<path d="m70.858 56.155c1.672 0.953 3.193-2.735 1.81-3.524-1.385-0.79-3.481 2.57-1.81 3.524z" fill="#FDD500"/>
		<path d="m70.858 56.155c1.672 0.953 3.193-2.735 1.81-3.524-1.385-0.79-3.481 2.57-1.81 3.524v0z" stroke="#000" stroke-linecap="round" stroke-width=".1404" fill="none"/>
		<path d="m72.323 57.106c1.814 0.891 3.169-3.072 1.667-3.81-1.503-0.736-3.48 2.92-1.667 3.81z" fill="#FDD500"/>
		<path d="m72.323 57.106c1.814 0.891 3.169-3.072 1.667-3.81-1.503-0.736-3.48 2.92-1.667 3.81v0z" stroke="#000" stroke-linecap="round" stroke-width=".1404" fill="none"/>
		<path d="m74.983 58.475c2.418 0 2.003-4.876 0-4.876s-2.419 4.876 0 4.876z" fill="#FDD500"/>
		<path d="m74.983 58.475c2.418 0 2.003-4.876 0-4.876s-2.419 4.876 0 4.876v0zm-3.839-44.468c-0.299 0.7-0.167 1.601 0.801 1.701 0.967 0.099 1.333 0.966 2.167 0.966 0.745 0 0.768-0.466 1.4-0.667-0.633-0.166-0.533-0.9-1.5-0.933-1.005-0.035-0.967 0.899-2.067 0.634m35.905 1.633c2.67-0.634 3.266 1.895 1.369 3.001-0.801 0.468-3.469 1.4-6.17 1.634m22.88-6.435c-3.4 1.8-10.536 3.4-16.005 4.268m14.34-1.334c-3.734 1.334-10.603 3.001-15.472 3.669m11.2-0.134c-3.335 1.066-10.405 2.734-13.339 3.2m8.21 0.733c-2.534 0.601-8.069 1.602-10.404 1.934m5.73 1.268c-2.068 0.4-5.701 1.034-7.535 1.269m3.6 1.599c-1.3 0.233-4.702 0.6-6.437 0.634m7.497-11.571c1.299-0.434 4.002 3.101-4.769 3.7m2.89-0.366c0.834-0.217 1.939 0.887 0.533 1.834-1.483 1.001-2.984 1.033-5.117 1.134m2.17-0.133c2.399-0.468 2.001 3.067-3.368 3.034m2.168-0.233c0.967-0.201 1.57 1.136-0.934 2.334-0.768 0.366-2.435 0.667-3.936 0.133m0.899 0.266c1.2 1.034 0.732 2.468-1.699 2.401m0.032 0.134c0.434 1.033-0.634 2.201-2.233 1.366m-0.001 0.068c0.333 1.134-1.068 2.2-2.435 1.734m9.573-3.935c-0.701 0.066-1.967-0.133-2.634-0.268m1.131 2.936c-0.666-0.067-1.867-0.534-2.568-0.934m0.168 3.601c-0.801-0.233-1.469-1.133-1.701-1.5m-1.1 2.501c-0.434-0.268-0.801-1.001-0.867-1.435m-2.468 2.101c0.233-0.433 0.166-1.033 0.134-1.333m0.433-2.569c0.166 1.468-1.434 1.801-2.635 1.468m8.737-17.506c-2.868 1.2-3.534 2.534-2.602 4.334 0.935 1.802 1.201 3.668-0.199 4.736" stroke="#000" stroke-linecap="round" stroke-width=".1404" fill="none"/>
		<path stroke-linejoin="round" d="m98.921 23.41c1.1 0.9 0.732 2.434-0.4 3.001 0.5 0.767 0.064 2.067-0.867 2.601m0.499 0.833c0.066 1.302-1.135 2.468-2.967 2.468 0.199 1.435-1.135 2.435-2.602 2.201-0.167 1-1.501 1.768-2.567 1.434" stroke="#000" stroke-linecap="round" stroke-width=".1404" fill="none"/>
		<path d="m88.983 46.451c0.967 0.9 0.767 2.2 1.434 2.5-1.233 0.067-1.768-0.934-2.5-0.999m-1.724 0.886c0.944 0.923 0.715 2.218 1.374 2.534-1.234 0.038-1.744-0.975-2.476-1.059m4.244-0.091c0.84 0.862 0.598 2.037 1.191 2.342-1.127 0.004-1.566-0.932-2.231-1.025m-46.194-34.198c-2.668-0.634-3.264 1.895-1.367 3.001 0.801 0.468 3.469 1.4 6.168 1.634m-22.874-6.435c3.4 1.8 10.536 3.4 16.006 4.268m-14.339-1.334c3.734 1.334 10.604 3.001 15.472 3.669m-11.204-0.134c3.335 1.066 10.404 2.734 13.338 3.2m-8.202 0.733c2.534 0.601 8.068 1.602 10.403 1.934m-5.735 1.268c2.067 0.4 5.701 1.034 7.535 1.269m-3.601 1.599c1.301 0.233 4.702 0.6 6.436 0.634m-7.503-11.571c-1.3-0.434-4.002 3.101 4.769 3.7m-2.884-0.366c-0.834-0.217-1.938 0.887-0.534 1.834 1.483 1.001 2.984 1.033 5.118 1.134m-2.166-0.133c-2.401-0.468-2.002 3.067 3.367 3.034m-2.168-0.233c-0.967-0.201-1.57 1.136 0.934 2.334 0.768 0.366 2.436 0.667 3.936 0.133m-0.902 0.266c-1.201 1.034-0.733 2.468 1.7 2.401m-0.033 0.134c-0.434 1.033 0.633 2.201 2.234 1.366m0 0.068c-0.332 1.134 1.066 2.2 2.434 1.734m-9.569-3.935c0.699 0.066 1.967-0.133 2.635-0.268m-1.135 2.936c0.667-0.067 1.867-0.534 2.567-0.934m-0.166 3.601c0.8-0.233 1.468-1.133 1.701-1.5m1.099 2.501c0.434-0.268 0.801-1.001 0.867-1.435m2.467 2.101c-0.233-0.433-0.166-1.033-0.131-1.333m-0.435-2.569c-0.166 1.468 1.435 1.801 2.635 1.468m-8.737-17.506c2.868 1.2 3.535 2.534 2.601 4.334-0.933 1.802-1.201 3.668 0.199 4.736" stroke="#000" stroke-linecap="round" stroke-width=".1404" fill="none"/>
		<path stroke-linejoin="round" d="m51.037 23.41c-1.1 0.9-0.733 2.434 0.4 3.001-0.5 0.767-0.066 2.067 0.866 2.601m-0.499 0.833c-0.066 1.302 1.134 2.468 2.969 2.468-0.201 1.435 1.133 2.435 2.6 2.201 0.168 1 1.502 1.768 2.568 1.434" stroke="#000" stroke-linecap="round" stroke-width=".1404" fill="none"/>
		<path d="m60.974 46.451c-0.967 0.9-0.767 2.2-1.434 2.5 1.233 0.067 1.768-0.934 2.501-0.999m1.723 0.886c-0.945 0.923-0.715 2.218-1.375 2.534 1.235 0.038 1.745-0.975 2.478-1.059m-4.245-0.091c-0.839 0.862-0.598 2.037-1.191 2.342 1.125 0.004 1.566-0.932 2.232-1.025m-11.51 9.767c-0.083-1.517 0-2.867 1.15-3.018m-2.267 2.335c-0.016-1.001 0.018-3.019 1.251-3.052m2.05-1.432c0.617 0.032 1.65 0.1 2.219-0.034m45.574 4.81c0.007-1.519-0.143-2.864-1.3-2.956m2.38 2.218c-0.031-0.999-0.166-3.013-1.4-2.985m-2.12-1.33c-0.614 0.063-1.644 0.182-2.217 0.077" stroke="#000" stroke-linecap="round" stroke-width=".1404" fill="none"/>
		<path d="m74.979 55.555c8.47-4.669 14.239-9.971 14.239-19.773v-10.037c-4.068 2.001-10.904 1.801-14.239-0.334-3.334 2.135-10.17 2.335-14.239 0.334v10.037c-0.001 9.802 5.769 15.104 14.239 19.773z" fill="#fff"/>
		<path stroke-width=".1404" d="m74.979 55.555c8.47-4.669 14.239-9.971 14.239-19.773v-10.037c-4.068 2.001-10.904 1.801-14.239-0.334-3.334 2.135-10.17 2.335-14.239 0.334v10.037c-0.001 9.802 5.769 15.104 14.239 19.773z" stroke="#000" fill="none"/>
		<path d="m89.218 35.781v-10.037c-4.068 2.001-10.904 1.801-14.239-0.334-3.334 2.135-10.17 2.335-14.239 0.334v10.037h28.478z" fill="#212F64"/>
		<path stroke-width=".1404" d="m89.218 35.781v-10.037c-4.068 2.001-10.904 1.801-14.239-0.334-3.334 2.135-10.17 2.335-14.239 0.334v10.037h28.478z" stroke="#000" fill="none"/>
		<path d="m65.121 48.117v-12.336h-2.191v9.187c0.462 0.849 1.537 2.483 2.191 3.149z" fill="#BE2032"/>
		<path stroke-width=".1404" d="m65.121 48.117v-12.336h-2.191v9.187c0.462 0.849 1.537 2.483 2.191 3.149z" stroke="#000" fill="none"/>
		<path d="m69.502 52.103v-16.322h-2.19v14.555c0.597 0.517 1.681 1.416 2.19 1.767z" fill="#BE2032"/>
		<path stroke-width=".1404" d="m69.502 52.103v-16.322h-2.19v14.555c0.597 0.517 1.681 1.416 2.19 1.767z" stroke="#000" fill="none"/>
		<path d="m73.883 54.938v-19.157h-2.19v17.822c0.585 0.368 1.652 1.017 2.19 1.335z" fill="#BE2032"/>
		<path stroke-width=".1404" d="m73.883 54.938v-19.157h-2.19v17.822c0.585 0.368 1.652 1.017 2.19 1.335z" stroke="#000" fill="none"/>
		<path d="m84.837 48.117v-12.336h2.189v9.187c-0.461 0.849-1.535 2.483-2.189 3.149z" fill="#BE2032"/>
		<path stroke-width=".1404" d="m84.837 48.117v-12.336h2.189v9.187c-0.461 0.849-1.535 2.483-2.189 3.149z" stroke="#000" fill="none"/>
		<path d="m80.455 52.103v-16.322h2.19v14.555c-0.597 0.517-1.681 1.416-2.19 1.767z" fill="#BE2032"/>
		<path stroke-width=".1404" d="m80.455 52.103v-16.322h2.19v14.555c-0.597 0.517-1.681 1.416-2.19 1.767z" stroke="#000" fill="none"/>
		<path d="m76.074 54.938v-19.157h2.19v17.822c-0.584 0.368-1.652 1.017-2.19 1.335z" fill="#BE2032"/>
		<path stroke-width=".1404" d="m76.074 54.938v-19.157h2.19v17.822c-0.584 0.368-1.652 1.017-2.19 1.335z" stroke="#000" fill="none"/>
</g>
</svg>
