<?xml version="1.0" encoding="UTF-8" standalone="no"?>
<!-- Generator: Adobe Illustrator 18.0.0, SVG Export Plug-In . SVG Version: 6.00 Build 0)  -->
<!DOCTYPE svg  PUBLIC '-//W3C//DTD SVG 1.1//EN'  'http://www.w3.org/Graphics/SVG/1.1/DTD/svg11.dtd'>
<svg style="enable-background:new 0 0 144 80" xmlns="http://www.w3.org/2000/svg" xml:space="preserve" version="1.1" y="0px" x="0px" xmlns:xlink="http://www.w3.org/1999/xlink" viewBox="0 0 144 80">
<g id="PHI">
			<polygon points="144 40.002 0 40.002 0 0 144 0" fill="#0038A8"/>
			<polygon points="144 80 0 80 0 40.002 144 40.002" fill="#CE1126"/>
			<polygon points="0 0 61.211 40.002 0 80" fill="#fff"/>
		<g fill="#FCD116">
			<path d="m23.106 33.565c0.629 0.157 1.24 0.415 1.811 0.758l3.432-4.377 0.992 0.197-3.891 4.539c0.09 0.067 0.301 0.233 0.41 0.327l4.718-5.048 0.819 0.157 0.158 0.819-5.047 4.718c0.092 0.108 0.258 0.321 0.326 0.41l4.537-3.89 0.199 0.99-4.373 3.43c0.334 0.555 0.596 1.16 0.756 1.806l5.522-0.67 0.56 0.842-5.959 0.459c0.016 0.11 0.048 0.379 0.061 0.521l6.903-0.232 0.468 0.69-0.468 0.691-6.903-0.233c-0.013 0.142-0.045 0.41-0.061 0.519l5.959 0.462-0.56 0.839-5.53-0.681c-0.157 0.628-0.414 1.227-0.757 1.796l4.378 3.433-0.199 0.989-4.539-3.887c-0.066 0.088-0.232 0.299-0.324 0.41l5.047 4.716-0.158 0.821-0.819 0.156-4.717-5.047c-0.11 0.091-0.322 0.259-0.411 0.326l3.889 4.537-0.99 0.198-3.43-4.37c-0.555 0.334-1.159 0.594-1.805 0.754l0.668 5.521-0.84 0.562-0.459-5.96c-0.109 0.017-0.379 0.048-0.521 0.061l0.232 6.904-0.69 0.469-0.691-0.469 0.233-6.904c-0.142-0.013-0.411-0.044-0.521-0.061l-0.459 5.96-0.84-0.562 0.665-5.529c-0.628-0.157-1.24-0.413-1.809-0.757l-3.432 4.378-0.99-0.198 3.888-4.539c-0.089-0.067-0.3-0.233-0.41-0.327l-4.718 5.048-0.819-0.157-0.157-0.819 5.047-4.718c-0.091-0.109-0.258-0.321-0.326-0.41l-4.539 3.89-0.197-0.99 4.371-3.43c-0.334-0.556-0.594-1.16-0.756-1.807l-5.521 0.671-0.56-0.842 5.958-0.458c-0.014-0.111-0.047-0.38-0.058-0.522l-6.905 0.233-0.469-0.69 0.469-0.691 6.905 0.233c0.011-0.142 0.044-0.409 0.058-0.521l-5.958-0.458 0.56-0.84 5.531 0.681c0.156-0.628 0.414-1.227 0.756-1.796l-4.377-3.433 0.199-0.991 4.538 3.89c0.067-0.09 0.233-0.3 0.327-0.411l-5.048-4.716 0.157-0.821 0.818-0.156 4.719 5.047c0.109-0.091 0.32-0.259 0.41-0.326l-3.889-4.538 0.99-0.198 3.429 4.371c0.555-0.334 1.161-0.595 1.806-0.755l-0.668-5.522 0.84-0.56 0.459 5.959c0.11-0.015 0.379-0.047 0.52-0.06l-0.232-6.903 0.691-0.47 0.691 0.47-0.234 6.903c0.143 0.013 0.41 0.045 0.521 0.06l0.459-5.959 0.842 0.56-0.668 5.528z"/>
			<polygon points="50.698 40.002 48.159 39.185 48.159 36.495 46.58 38.679 44.041 37.84 45.618 40.002 44.041 42.162 46.601 41.335 48.148 43.507 48.148 40.829"/>
			<polygon points="4.198 12.526 4.768 15.132 2.445 16.483 5.127 16.753 5.676 19.367 6.753 16.92 9.413 17.196 7.412 15.399 8.513 12.969 6.197 14.316"/>
			<polygon points="4.198 67.474 4.768 64.867 2.445 63.517 5.127 63.247 5.676 60.633 6.753 63.08 9.413 62.803 7.412 64.602 8.513 67.03 6.197 65.686"/>
		</g>
</g>
</svg>
