<?xml version="1.0" encoding="UTF-8" standalone="no"?>
<!-- Generator: Adobe Illustrator 18.0.0, SVG Export Plug-In . SVG Version: 6.00 Build 0)  -->
<!DOCTYPE svg  PUBLIC '-//W3C//DTD SVG 1.1//EN'  'http://www.w3.org/Graphics/SVG/1.1/DTD/svg11.dtd'>
<svg style="enable-background:new 0 0 144 80" xmlns="http://www.w3.org/2000/svg" xml:space="preserve" version="1.1" y="0px" x="0px" xmlns:xlink="http://www.w3.org/1999/xlink" viewBox="0 0 144 80">
<g id="ESA">
			<polygon points="0 53.334 144 53.334 144 80 0 80" fill="#0F47AF"/>
			<polygon points="144 0 0 0 0 26.667 144 26.667" fill="#0F47AF"/>
			<polygon points="144 26.667 0 26.667 0 53.334 144 53.334" fill="#fff"/>
			<path stroke-width=".031" d="m72.019 32.42c-0.613 0.293-0.246 1.08-0.693 1.682-0.24 0.318-0.268 1.6-0.24 2.188l2.562 0.641c-0.08-1.174-0.668-2.029-0.828-2.935-0.161-0.91-0.641-1.15-0.801-1.576z" stroke="#000" fill="#00678E"/>
			<path stroke-width=".031" d="m73.073 38.438l4.258-4.471c0.105 1.734-0.135 3.924-0.721 4.965l2.588-1.549c-0.508 2.643-1.312 4.619-2.643 5.791-0.453 0.402-2.479 1.473-3.443 1.016-0.506-0.24-0.906-0.613-1.094-1.041-0.188 0.428-0.588 0.801-1.094 1.041-0.965 0.457-3.004-0.613-3.457-1.016-1.33-1.172-2.148-3.148-2.656-5.791l2.59 1.549c-0.588-1.041-0.828-3.231-0.721-4.965l4.258 4.471h2.135z" stroke="#000" fill="#00678E"/>
			<path stroke-width=".031" d="m72.005 42.641c-0.039 0.387-0.35 1.307-0.574 1.682-0.252 0.428 0.209 0.51 0.268 0.787 0.053 0.254 0.199 0.414 0.52 0.482-0.039-0.281 0.094-0.562 0.268-0.643 0.174-0.078 0.387-0.119 0.375-0.332-0.014-0.215 0.252-0.361-0.068-0.695-0.322-0.332-0.789-0.774-0.789-1.281z" stroke="#000" fill="#00678E"/>
			<path stroke-width=".031" d="m72.272 34.994c-0.174-0.641 0.561-1.381 0.129-1.994 0.166 0.23 0.334 0.523 0.418 0.994 0.041 0.226 0.107 0.449 0.186 0.676 0.148 0.404-0.225 0.926-0.064 1.66-0.229-0.24-0.602-1.002-0.669-1.336z" stroke="#000" fill="#fff"/>
			<path stroke-width=".031" d="m74.233 39.131c0.48-0.666 0.682-2.121 0.604-2.545l1.25-1.314c0.309 1.537-0.371 3.686-0.984 4.74l0.461 0.529c0.305-0.332 0.48-0.736 0.439-1.246l1.484-0.889c0.016 1.418-0.451 2.688-1.438 3.34l-1.816-2.615z" stroke="#000" fill="#fff"/>
			<path stroke-width=".031" d="m69.776 39.131c-0.48-0.666-0.68-2.121-0.602-2.545l-1.252-1.314c-0.309 1.537 0.373 3.686 0.986 4.74l-0.461 0.529c-0.307-0.332-0.48-0.736-0.439-1.246l-1.486-0.889c-0.016 1.418 0.451 2.688 1.439 3.34l1.815-2.615z" stroke="#000" fill="#fff"/>
			<path stroke-width=".031" d="m74.942 42.814c-1.029 1.254-1.629 1.4-2.938 0.24-1.309 1.16-1.908 1.014-2.936-0.24h5.874z" stroke="#000" fill="#fff"/>
			<path stroke-width=".031" d="m72.218 45.592c-0.279-0.061-0.416-0.172-0.447-0.721-0.039-0.709 0.287-0.834 0.355-1.068 0.146 0.105 0.072 0.18 0.246 0.387s0.234 0.561 0.014 0.84c-0.221 0.281-0.16 0.38-0.168 0.562z" stroke="#000" fill="#fff"/>
			<path stroke-width=".031" d="m65.198 35.262c0.174-0.295 0.348-0.574 0.533-0.721-0.119 0.174-0.412 0.654-0.492 0.773" stroke="#000" fill="#00693F"/>
			<path stroke-width=".031" d="m64.304 36.875c0.066-0.385 0.027-0.879 0-1.146 0.055 0.201 0.146 0.842 0.08 1.121" stroke="#000" fill="#00693F"/>
			<path stroke-width=".031" d="m63.517 39.598c0.088-0.547 0.174-0.953 0.508-1.24-0.188 0.279-0.334 0.533-0.441 1.348" stroke="#000" fill="#00693F"/>
			<path stroke-width=".031" d="m63.491 39.332c-0.027-0.389-0.201-1.055-0.334-1.309 0.227 0.4 0.359 0.707 0.359 1.188" stroke="#000" fill="#00693F"/>
			<path stroke-width=".031" d="m63.888 41.979c0.029-0.553 0.074-0.967 0.377-1.287-0.156 0.299-0.277 0.566-0.301 1.387" stroke="#000" fill="#00693F"/>
			<path stroke-width=".031" d="m63.812 41.666c-0.135-0.266-0.334-0.52-0.508-0.68 0.174 0.107 0.467 0.414 0.547 0.588" stroke="#000" fill="#00693F"/>
			<path stroke-width=".031" d="m66.187 46.098c-0.354-0.039-0.881-0.047-1.174 0.1 0.219-0.08 1.014-0.08 1.26-0.02" stroke="#000" fill="#00693F"/>
			<path stroke-width=".031" d="m66.78 46.551c-0.066-0.34-0.273-0.754-0.439-0.914 0.18 0.108 0.393 0.521 0.5 0.889" stroke="#000" fill="#00693F"/>
			<path stroke-width=".031" d="m65.091 44.871c-0.133-0.562-0.213-0.975-0.119-1.43 0 0.334 0.053 1.107 0.226 1.416" stroke="#000" fill="#00693F"/>
			<path stroke-width=".031" d="m64.958 44.617c-0.227-0.402-0.588-0.709-0.84-0.828 0.293 0.094 0.6 0.334 0.812 0.641" stroke="#000" fill="#00693F"/>
			<path stroke-width=".031" d="m64.29 36.922c0.129-0.133 0.389-0.387 0.516-0.473-0.102 0.108-0.4 0.426-0.48 0.533" stroke="#000" fill="#00693F"/>
			<path stroke-width=".031" d="m64.224 37.184c0.211-0.592 0.801-0.387 1.029-0.773 0.105 0.453-0.668 1.307-1.27 1.613 0.069-0.147 0.174-0.655 0.241-0.84z" stroke="#000" fill="#00693F"/>
			<path stroke-width=".031" d="m64.718 36.021c0.24-0.494 0.588-1.014 1.229-1.215-0.147 0.403-0.415 1.215-1.229 1.215z" stroke="#000" fill="#00693F"/>
			<path stroke-width=".031" d="m65.466 34.354c-0.48 0.348-0.801 0.961-0.787 1.629-0.055 0.119-0.24 0.494-0.4 0.641 0.307-0.201 0.414-0.387 0.506-0.494 0.521 0.053 1.215-0.16 1.416-0.961-0.469 0-0.748 0.814-1.441 0.84 0.786-0.64 0.466-1.509 0.706-1.655z" stroke="#000" fill="#00693F"/>
			<path stroke-width=".031" d="m63.69 38.225c-0.254-0.389-0.494-1.055-0.387-1.35 0.107-0.293 0.334-0.666 0.279-0.854 0.201 0.107 0.107 0.508 0.361 0.947 0.158 0.272 0.081 0.696-0.253 1.257z" stroke="#000" fill="#00693F"/>
			<path stroke-width=".031" d="m63.903 42.121c-0.32-1.176-0.627-2.443-0.373-3.258 0.15-0.479 0.146-0.572 0.08-0.812s-0.027-0.641 0.133-0.881 0.309-0.814 0.268-1.014c0.387 0.199 0.641 1.08 0.348 1.453-0.295 0.375-0.561 0.627-0.707 1.269-0.148 0.639-0.014 1.947 0.453 3.322" stroke="#000" fill="#00693F"/>
			<path stroke-width=".031" d="m63.61 40.719c-1.387-0.707-1.055-1.654-1.254-2.041-0.15-0.293 0.008-0.191 0.146-0.094 0.534 0.373 1.042 1.48 1.108 2.135z" stroke="#000" fill="#00693F"/>
			<path stroke-width=".031" d="m63.743 41.025c0.149-0.719 1.096-0.625 1.135-2.375-0.533 0.373-1.494 1.455-1.135 2.375z" stroke="#000" fill="#00693F"/>
			<path stroke-width=".031" d="m63.743 41.025c-0.066-0.6 0.215-0.826 0.389-1.053 0.172-0.228 0.332-0.707 0.332-1.348 0-0.24-0.129-0.223-0.213-0.055-0.119 0.24-0.316 0.443-0.533 0.682-0.281 0.307-0.268 0.934-0.055 1.721" stroke="#000" fill="#00693F"/>
			<path stroke-width=".031" d="m63.597 40.678c-0.146-0.492-0.359-0.506-0.561-0.746-0.199-0.24-0.453-0.654-0.359-0.947s0.146-0.547 0.119-0.76c-0.025-0.215 0.107-0.215 0.229 0.08 0.119 0.293 0.572 1.213 0.613 2.254" stroke="#000" fill="#00693F"/>
			<path stroke-width=".031" d="m64.425 43.068c-0.24-0.574-0.453-1.174-0.135-1.789 0.32-0.613 0.334-0.641 0.455-0.24 0.119 0.4 0.106 1.535-0.32 2.029z" stroke="#000" fill="#00693F"/>
			<path stroke-width=".031" d="m64.624 43.723c-0.293-0.467-0.867-0.48-1.16-0.695-0.293-0.213-0.84-0.774-0.961-1.387-0.119-0.615 0.096-0.471 0.508-0.226 0.52 0.307 1.187 0.893 1.547 2.082" stroke="#000" fill="#00693F"/>
			<path stroke-width=".031" d="m64.704 43.922c-0.16-0.666 0.059-0.861 0.174-1 0.213-0.254 0.16-0.641 0.32-0.869 0.16-0.227 0.188-0.531 0.174-0.746-0.014-0.213-0.188-0.133-0.387 0.146-0.201 0.279-0.307 0.508-0.4 0.84-0.094 0.336-0.094 0.963 0.014 1.297" stroke="#000" fill="#00693F"/>
			<path stroke-width=".031" d="m65.278 44.949c-0.307-0.547-0.734-1.508-0.76-1.922-0.027-0.412-0.295-0.975-0.574-1.188-0.281-0.213-0.654-0.426-0.773-0.693-0.121-0.268-0.201-0.135-0.146 0.201 0.053 0.332 0.035 0.697 0.412 1.066 1.121 1.094 1.295 1.828 1.654 2.643" stroke="#000" fill="#00693F"/>
			<path stroke-width=".031" d="m67.534 47.045c-0.32-0.494-1.096-1.014-1.709-0.748 0.227 0.215 0.428 0.709 1.709 0.748z" stroke="#000" fill="#00693F"/>
			<path stroke-width=".031" d="m66.854 46.564c-0.494-0.387-1.082-0.895-0.855-1.188s0.467-0.533 0.521-0.908c0.053-0.373 0.227-0.879 0.08-1.295-0.15-0.42-0.229-0.387-0.307 0.068-0.186 1.043-1.109 1.428-0.682 2.389 0.207 0.465 0.613 0.547 0.867 0.746" stroke="#000" fill="#00693F"/>
			<path stroke-width=".031" d="m66.065 45.979c-0.279-0.4-0.404-0.686-0.279-1.068 0.186-0.574 0.186-1.228 0.039-1.803-0.146-0.572-0.355-0.307-0.373 0.027-0.027 0.494-0.361 0.574-0.334 0.867 0.027 0.295-0.279 0.842 0.041 1.281 0.32 0.442 0.694 0.547 0.906 0.696z" stroke="#000" fill="#00693F"/>
			<path stroke-width=".031" d="m65.866 45.885c-0.268-0.201-0.402-0.377-0.467-0.668-0.08-0.359-0.277-0.66-0.828-0.881-0.201-0.08-0.773-0.254-0.908-0.52 0.08 0.801 0.842 1.694 2.203 2.069z" stroke="#000" fill="#00693F"/>
			<path stroke-width=".031" d="m66.987 46.592c-0.549-0.613-1.896-1.014-2.27-1.588-0.244-0.377-0.746-0.48-1.32-0.414 0.346 0.213 0.279 0.56 0.693 0.881 0.414 0.32 1.08 0.414 1.455 0.469 0.373 0.053 1.088 0.506 1.508 0.953" stroke="#000" fill="#00693F"/>
			<path stroke-width=".031" d="m70.812 48.287c-0.375-0.334-1.93-0.961-2.93-0.215 0.414 0.282 2.275 0.657 2.93 0.215z" stroke="#000" fill="#00693F"/>
			<path stroke-width=".031" d="m68.548 47.619c-0.266-0.174-0.32-0.293-0.32-0.707s-0.119-0.947-0.359-1.174c-0.24-0.229-0.602-0.721-0.668-0.988-0.066-0.268-0.074-0.18-0.146 0.107-0.189 0.735 0.346 2.243 1.493 2.762z" stroke="#000" fill="#00693F"/>
			<path stroke-width=".031" d="m67.974 47.512c-0.547-0.492-0.961-0.76-1.32-0.732-0.359 0.025-0.693 0.025-0.988-0.041-0.293-0.066-0.174 0.119 0.148 0.295 0.32 0.172 1.268 0.719 2.16 0.574" stroke="#000" fill="#00693F"/>
			<path stroke-width=".031" d="m68.589 47.633c-0.4-0.199-0.551-0.492-0.588-0.707-0.066-0.387-0.439-0.521-0.533-0.828s-0.508-0.748-0.787-1.002c-0.281-0.252-0.16 0.094-0.135 0.402 0.027 0.307 0.205 0.533 0.215 0.84 0.012 0.467 0.801 1.135 1.373 1.254" stroke="#000" fill="#00693F"/>
			<path stroke-width=".031" d="m70.083 48.26c-0.68-0.762-2.068-0.467-2.51-0.268-0.439 0.201-1.014 0.08-1.201-0.053-0.186-0.133-0.439-0.254-0.732-0.348-0.377-0.119-0.121-0.227 0.119-0.186 0.24 0.039 0.654 0.105 0.988 0.066s0.613-0.094 0.814-0.014c0.199 0.08 0.52 0.148 1.014 0.121s1.107 0.213 1.494 0.533" stroke="#000" fill="#00693F"/>
			<path stroke-width=".031" d="m70.229 47.779c-0.426-0.867-1.146-1.682-1.881-1.961 0.147 0.746 0.948 1.854 1.881 1.961z" stroke="#000" fill="#00693F"/>
			<path stroke-width=".031" d="m71.03 48.312c-0.572-0.172-0.68-0.76-1.146-1.014-0.691-0.375-0.908-1.16-0.881-1.629 0.24 0.068 0.666 0.174 0.773 0.455 0.107 0.279 0.32 0.4 0.574 0.613s0.377 0.615 0.426 1.055c0.014 0.119 0 0.334 0.348 0.428" stroke="#000" fill="#00693F"/>
			<path stroke-width=".031" d="m71.19 48.34c-0.387 0-0.639 0.082-0.893 0.307-0.535 0.467-0.889 0.277-1.256 0.48-0.48 0.268-0.787-0.174-1.014-0.053 0.4-0.334 1.135-0.641 1.842-0.707s0.826-0.121 1.32-0.08" stroke="#000" fill="#00693F"/>
			<path stroke-width=".031" d="m71.444 48.273c-0.547-0.08-0.787-0.094-1.027-0.467s-0.76-0.481-0.961-0.801-0.801-0.24-0.961-0.535c-0.16-0.293-0.254-0.16-0.121 0.135 0.135 0.293 0.549 1.055 1.121 1.32 0.574 0.268 0.775 0.08 1.016 0.254 0.24 0.174 0.707 0.213 0.934 0.213" stroke="#000" fill="#00693F"/>
			<path stroke-width=".031" d="m71.685 48.273c-0.588-0.129-1.4 0.053-1.762-0.08-0.359-0.133-1.174-0.281-1.414-0.107s-0.494 0.295-0.654 0.334c-0.16 0.041-0.201 0.174 0.199 0.16 0.402-0.014 0.748 0.027 0.935 0.08 0.186 0.053 0.746 0.068 0.973-0.094 0.229-0.16 1.068-0.283 1.443-0.105 0.426 0.199 0.936 0.039 1.4 0.412 0.682 0.549 1.682 0.404 1.908 0.762 0.047 0.072 0.309 0.174 0.486 0.094 0.182-0.08 0.156-0.264-0.152-0.387-0.648-0.262-1.959-0.578-2.389-0.803-0.346-0.18-0.606-0.185-0.973-0.266z" stroke="#000" fill="#00693F"/>
			<path stroke-width=".031" d="m65.743 34.328c-0.213 0-0.213 0.318 0 0.318 0.215 0 0.217-0.318 0-0.318z" stroke="#000" fill="#E03A3E"/>
			<path stroke-width=".031" d="m64.29 35.541c-0.215 0-0.215 0.318 0 0.318 0.213 0 0.215-0.318 0-0.318z" stroke="#000" fill="#E03A3E"/>
			<path stroke-width=".031" d="m64.038 38.199c-0.215 0-0.215 0.318 0 0.318 0.213 0.001 0.217-0.318 0-0.318z" stroke="#000" fill="#E03A3E"/>
			<path stroke-width=".031" d="m63.157 37.799c-0.213 0-0.213 0.318 0 0.318s0.217-0.318 0-0.318z" stroke="#000" fill="#E03A3E"/>
			<path stroke-width=".031" d="m64.261 40.533c-0.211 0.024-0.18 0.34 0.033 0.318 0.213-0.023 0.184-0.339-0.033-0.318z" stroke="#000" fill="#E03A3E"/>
			<path stroke-width=".031" d="m63.325 40.803c-0.213 0.023-0.182 0.338 0.031 0.318 0.213-0.023 0.184-0.34-0.031-0.318z" stroke="#000" fill="#E03A3E"/>
			<path stroke-width=".031" d="m64.993 46.035c-0.213 0.022-0.18 0.338 0.031 0.316 0.213-0.021 0.184-0.339-0.031-0.316z" stroke="#000" fill="#E03A3E"/>
			<path stroke-width=".031" d="m66.302 45.5c-0.215 0.021-0.182 0.34 0.031 0.318 0.213-0.023 0.184-0.339-0.031-0.318z" stroke="#000" fill="#E03A3E"/>
			<path stroke-width=".031" d="m64.956 43.244c-0.213 0.021-0.18 0.338 0.033 0.316 0.211-0.021 0.182-0.339-0.033-0.316z" stroke="#000" fill="#E03A3E"/>
			<path stroke-width=".031" d="m64.114 43.617c-0.211 0.021-0.18 0.34 0.033 0.316 0.213-0.021 0.184-0.339-0.033-0.316z" stroke="#000" fill="#E03A3E"/>
			<path stroke-width=".031" d="m64.851 36.242c-0.215 0-0.215 0.318 0 0.318 0.212 0.001 0.216-0.318 0-0.318z" stroke="#000" fill="#E03A3E"/>
			<path stroke-width=".031" d="m78.837 35.262c-0.172-0.295-0.346-0.574-0.533-0.721 0.121 0.174 0.414 0.654 0.494 0.773" stroke="#000" fill="#00693F"/>
			<path stroke-width=".031" d="m79.731 36.875c-0.066-0.385-0.025-0.879 0-1.146-0.053 0.201-0.146 0.842-0.08 1.121" stroke="#000" fill="#00693F"/>
			<path stroke-width=".031" d="m80.519 39.598c-0.086-0.547-0.172-0.953-0.506-1.24 0.188 0.279 0.334 0.533 0.439 1.348" stroke="#000" fill="#00693F"/>
			<path stroke-width=".031" d="m80.546 39.332c0.027-0.389 0.201-1.055 0.334-1.309-0.227 0.4-0.361 0.707-0.361 1.188" stroke="#000" fill="#00693F"/>
			<path stroke-width=".031" d="m80.149 41.979c-0.031-0.553-0.076-0.967-0.377-1.287 0.156 0.299 0.277 0.566 0.299 1.387" stroke="#000" fill="#00693F"/>
			<path stroke-width=".031" d="m80.226 41.666c0.135-0.266 0.334-0.52 0.508-0.68-0.174 0.107-0.467 0.414-0.547 0.588" stroke="#000" fill="#00693F"/>
			<path stroke-width=".031" d="m77.851 46.098c0.354-0.039 0.881-0.047 1.174 0.1-0.219-0.08-1.014-0.08-1.26-0.02" stroke="#000" fill="#00693F"/>
			<path stroke-width=".031" d="m77.257 46.551c0.066-0.34 0.273-0.754 0.439-0.914-0.18 0.108-0.393 0.521-0.5 0.889" stroke="#000" fill="#00693F"/>
			<path stroke-width=".031" d="m78.944 44.871c0.133-0.562 0.215-0.975 0.121-1.43 0 0.334-0.055 1.107-0.229 1.416" stroke="#000" fill="#00693F"/>
			<path stroke-width=".031" d="m79.077 44.617c0.229-0.402 0.588-0.709 0.842-0.828-0.295 0.094-0.602 0.334-0.814 0.641" stroke="#000" fill="#00693F"/>
			<path stroke-width=".031" d="m79.745 36.922c-0.127-0.133-0.387-0.387-0.514-0.473 0.1 0.108 0.4 0.426 0.48 0.533" stroke="#000" fill="#00693F"/>
			<path stroke-width=".031" d="m79.812 37.184c-0.209-0.592-0.801-0.387-1.027-0.773-0.108 0.453 0.668 1.307 1.267 1.613-0.067-0.147-0.174-0.655-0.24-0.84z" stroke="#000" fill="#00693F"/>
			<path stroke-width=".031" d="m79.317 36.021c-0.24-0.494-0.586-1.014-1.227-1.215 0.147 0.403 0.415 1.215 1.227 1.215z" stroke="#000" fill="#00693F"/>
			<path stroke-width=".031" d="m78.571 34.354c0.48 0.348 0.801 0.961 0.787 1.629 0.053 0.119 0.24 0.494 0.4 0.641-0.307-0.201-0.414-0.387-0.508-0.494-0.52 0.053-1.213-0.16-1.414-0.961 0.467 0 0.748 0.814 1.441 0.84-0.786-0.64-0.465-1.509-0.706-1.655z" stroke="#000" fill="#00693F"/>
			<path stroke-width=".031" d="m80.347 38.225c0.252-0.389 0.492-1.055 0.387-1.35-0.107-0.293-0.334-0.666-0.281-0.854-0.199 0.107-0.105 0.508-0.359 0.947-0.157 0.272-0.081 0.696 0.253 1.257z" stroke="#000" fill="#00693F"/>
			<path stroke-width=".031" d="m80.132 42.121c0.32-1.176 0.627-2.443 0.375-3.258-0.15-0.479-0.146-0.572-0.08-0.812s0.025-0.641-0.135-0.881-0.307-0.814-0.266-1.014c-0.389 0.199-0.641 1.08-0.348 1.453 0.293 0.375 0.56 0.627 0.707 1.269 0.147 0.639 0.014 1.947-0.453 3.322" stroke="#000" fill="#00693F"/>
			<path stroke-width=".031" d="m80.427 40.719c1.387-0.707 1.053-1.654 1.254-2.041 0.15-0.293-0.008-0.191-0.146-0.094-0.536 0.373-1.042 1.48-1.108 2.135z" stroke="#000" fill="#00693F"/>
			<path stroke-width=".031" d="m80.292 41.025c-0.146-0.719-1.094-0.625-1.133-2.375 0.533 0.373 1.494 1.455 1.133 2.375z" stroke="#000" fill="#00693F"/>
			<path stroke-width=".031" d="m80.292 41.025c0.068-0.6-0.213-0.826-0.387-1.053-0.174-0.228-0.334-0.707-0.334-1.348 0-0.24 0.129-0.223 0.215-0.055 0.119 0.24 0.316 0.443 0.533 0.682 0.279 0.307 0.266 0.934 0.053 1.721" stroke="#000" fill="#00693F"/>
			<path stroke-width=".031" d="m80.44 40.678c0.145-0.492 0.359-0.506 0.559-0.746 0.201-0.24 0.455-0.654 0.361-0.947s-0.146-0.547-0.121-0.76c0.027-0.215-0.105-0.215-0.226 0.08-0.119 0.293-0.572 1.213-0.613 2.254" stroke="#000" fill="#00693F"/>
			<path stroke-width=".031" d="m79.612 43.068c0.24-0.574 0.453-1.174 0.133-1.789-0.32-0.613-0.334-0.641-0.453-0.24-0.121 0.4-0.107 1.535 0.32 2.029z" stroke="#000" fill="#00693F"/>
			<path stroke-width=".031" d="m79.411 43.723c0.295-0.467 0.867-0.48 1.162-0.695 0.293-0.213 0.84-0.774 0.961-1.387 0.119-0.615-0.096-0.471-0.508-0.226-0.52 0.307-1.188 0.893-1.549 2.082" stroke="#000" fill="#00693F"/>
			<path stroke-width=".031" d="m79.331 43.922c0.16-0.666-0.055-0.861-0.172-1-0.215-0.254-0.162-0.641-0.322-0.869-0.16-0.227-0.186-0.531-0.172-0.746 0.012-0.213 0.186-0.133 0.387 0.146 0.199 0.279 0.307 0.508 0.4 0.84 0.092 0.336 0.092 0.963-0.014 1.297" stroke="#000" fill="#00693F"/>
			<path stroke-width=".031" d="m78.757 44.949c0.309-0.547 0.734-1.508 0.762-1.922 0.025-0.412 0.293-0.975 0.574-1.188 0.279-0.213 0.654-0.426 0.773-0.693 0.121-0.268 0.199-0.135 0.146 0.201-0.053 0.332-0.035 0.697-0.414 1.066-1.121 1.094-1.293 1.828-1.654 2.643" stroke="#000" fill="#00693F"/>
			<path stroke-width=".031" d="m76.503 47.045c0.32-0.494 1.094-1.014 1.707-0.748-0.227 0.215-0.426 0.709-1.707 0.748z" stroke="#000" fill="#00693F"/>
			<path stroke-width=".031" d="m77.183 46.564c0.494-0.387 1.082-0.895 0.855-1.188-0.229-0.293-0.467-0.533-0.521-0.908-0.053-0.373-0.227-0.879-0.08-1.295 0.15-0.42 0.227-0.387 0.307 0.068 0.186 1.043 1.107 1.428 0.682 2.389-0.205 0.465-0.615 0.547-0.867 0.746" stroke="#000" fill="#00693F"/>
			<path stroke-width=".031" d="m77.97 45.979c0.281-0.4 0.406-0.686 0.281-1.068-0.188-0.574-0.188-1.228-0.041-1.803 0.148-0.572 0.357-0.307 0.375 0.027 0.025 0.494 0.359 0.574 0.332 0.867-0.025 0.295 0.281 0.842-0.039 1.281-0.32 0.442-0.693 0.547-0.908 0.696z" stroke="#000" fill="#00693F"/>
			<path stroke-width=".031" d="m78.171 45.885c0.268-0.201 0.402-0.377 0.467-0.668 0.08-0.359 0.277-0.66 0.828-0.881 0.199-0.08 0.773-0.254 0.906-0.52-0.08 0.801-0.84 1.694-2.201 2.069z" stroke="#000" fill="#00693F"/>
			<path stroke-width=".031" d="m77.05 46.592c0.547-0.613 1.895-1.014 2.268-1.588 0.246-0.377 0.748-0.48 1.322-0.414-0.348 0.213-0.279 0.56-0.693 0.881-0.414 0.32-1.082 0.414-1.455 0.469-0.373 0.053-1.088 0.506-1.508 0.953" stroke="#000" fill="#00693F"/>
			<path stroke-width=".031" d="m73.226 48.287c0.375-0.334 1.93-0.961 2.93-0.215-0.415 0.282-2.276 0.657-2.93 0.215z" stroke="#000" fill="#00693F"/>
			<path stroke-width=".031" d="m75.489 47.619c0.266-0.174 0.32-0.293 0.32-0.707s0.119-0.947 0.359-1.174c0.24-0.229 0.602-0.721 0.668-0.988s0.074-0.18 0.146 0.107c0.189 0.735-0.346 2.243-1.493 2.762z" stroke="#000" fill="#00693F"/>
			<path stroke-width=".031" d="m76.063 47.512c0.547-0.492 0.959-0.76 1.32-0.732 0.359 0.025 0.693 0.025 0.986-0.041 0.295-0.066 0.174 0.119-0.146 0.295-0.32 0.172-1.268 0.719-2.16 0.574" stroke="#000" fill="#00693F"/>
			<path stroke-width=".031" d="m75.448 47.633c0.4-0.199 0.551-0.492 0.588-0.707 0.066-0.387 0.439-0.521 0.533-0.828s0.508-0.748 0.787-1.002c0.281-0.252 0.16 0.094 0.135 0.402-0.027 0.307-0.205 0.533-0.215 0.84-0.014 0.467-0.801 1.135-1.373 1.254" stroke="#000" fill="#00693F"/>
			<path stroke-width=".031" d="m73.954 48.26c0.68-0.762 2.068-0.467 2.51-0.268 0.439 0.201 1.014 0.08 1.199-0.053 0.188-0.133 0.441-0.254 0.734-0.348 0.377-0.119 0.121-0.227-0.119-0.186-0.24 0.039-0.654 0.105-0.988 0.066s-0.613-0.094-0.814-0.014c-0.199 0.08-0.52 0.148-1.014 0.121s-1.107 0.213-1.496 0.533" stroke="#000" fill="#00693F"/>
			<path stroke-width=".031" d="m73.808 47.779c0.426-0.867 1.146-1.682 1.881-1.961-0.147 0.746-0.948 1.854-1.881 1.961z" stroke="#000" fill="#00693F"/>
			<path stroke-width=".031" d="m73.007 48.312c0.572-0.172 0.68-0.76 1.146-1.014 0.691-0.375 0.908-1.16 0.881-1.629-0.24 0.068-0.666 0.174-0.774 0.455-0.107 0.279-0.32 0.4-0.574 0.613s-0.377 0.615-0.428 1.055c-0.014 0.119 0 0.334-0.346 0.428" stroke="#000" fill="#00693F"/>
			<path stroke-width=".031" d="m72.847 48.34c0.387 0 0.639 0.082 0.892 0.307 0.535 0.467 0.889 0.277 1.256 0.48 0.48 0.268 0.787-0.174 1.014-0.053-0.4-0.334-1.135-0.641-1.842-0.707s-0.828-0.121-1.32-0.08" stroke="#000" fill="#00693F"/>
			<path stroke-width=".031" d="m72.593 48.273c0.547-0.08 0.787-0.094 1.027-0.467s0.76-0.481 0.961-0.801 0.801-0.24 0.961-0.535c0.16-0.293 0.254-0.16 0.119 0.135-0.133 0.293-0.547 1.055-1.119 1.32-0.576 0.268-0.775 0.08-1.016 0.254-0.24 0.174-0.707 0.213-0.934 0.213" stroke="#000" fill="#00693F"/>
			<path stroke-width=".031" d="m72.353 48.273c0.588-0.129 1.4 0.053 1.762-0.08 0.359-0.133 1.174-0.281 1.414-0.107s0.494 0.295 0.654 0.334c0.16 0.041 0.201 0.174-0.199 0.16-0.402-0.014-0.748 0.027-0.936 0.08s-0.748 0.068-0.975-0.094c-0.226-0.16-1.066-0.283-1.441-0.105-0.426 0.199-0.936 0.039-1.4 0.412-0.682 0.549-1.682 0.404-1.908 0.762-0.047 0.072-0.307 0.174-0.488 0.094-0.18-0.08-0.154-0.264 0.154-0.387 0.646-0.262 1.959-0.578 2.389-0.803 0.347-0.18 0.606-0.185 0.974-0.266z" stroke="#000" fill="#00693F"/>
			<path stroke-width=".031" d="m78.294 34.328c0.213 0 0.213 0.318 0 0.318-0.215 0-0.217-0.318 0-0.318z" stroke="#000" fill="#E03A3E"/>
			<path stroke-width=".031" d="m79.749 35.541c0.213 0 0.213 0.318 0 0.318-0.215 0-0.217-0.318 0-0.318z" stroke="#000" fill="#E03A3E"/>
			<path stroke-width=".031" d="m79.999 38.199c0.213 0 0.213 0.318 0 0.318s-0.217-0.318 0-0.318z" stroke="#000" fill="#E03A3E"/>
			<path stroke-width=".031" d="m80.88 37.799c0.213 0 0.213 0.318 0 0.318-0.215 0-0.217-0.318 0-0.318z" stroke="#000" fill="#E03A3E"/>
			<path stroke-width=".031" d="m79.776 40.533c0.211 0.024 0.178 0.34-0.033 0.318-0.213-0.023-0.183-0.339 0.033-0.318z" stroke="#000" fill="#E03A3E"/>
			<path stroke-width=".031" d="m80.712 40.803c0.213 0.023 0.18 0.338-0.033 0.318-0.211-0.023-0.182-0.34 0.033-0.318z" stroke="#000" fill="#E03A3E"/>
			<path stroke-width=".031" d="m79.044 46.035c0.213 0.022 0.18 0.338-0.033 0.316-0.211-0.021-0.182-0.339 0.033-0.316z" stroke="#000" fill="#E03A3E"/>
			<path stroke-width=".031" d="m77.735 45.5c0.213 0.021 0.182 0.34-0.031 0.318-0.213-0.023-0.183-0.339 0.031-0.318z" stroke="#000" fill="#E03A3E"/>
			<path stroke-width=".031" d="m79.081 43.244c0.213 0.021 0.18 0.338-0.033 0.316-0.211-0.021-0.182-0.339 0.033-0.316z" stroke="#000" fill="#E03A3E"/>
			<path stroke-width=".031" d="m79.923 43.617c0.211 0.021 0.18 0.34-0.033 0.316-0.213-0.021-0.184-0.339 0.033-0.316z" stroke="#000" fill="#E03A3E"/>
			<path stroke-width=".031" d="m79.187 36.242c0.215 0 0.215 0.318 0 0.318-0.213 0.001-0.215-0.318 0-0.318z" stroke="#000" fill="#E03A3E"/>
			<path stroke-width=".031" d="m72.005 45.498c0.855 0 1.715-0.469 2.217-0.682 0.326-0.141 0.586-0.086 0.846 0.041 0.262 0.127 0.775 0.039 1.035 0.246 0.207 0.164-0.006 0.387-0.221 0.293-0.1-0.043-0.246-0.156-0.445-0.17-0.176 0.098-0.406 0.225-0.709 0.371-0.488 0.232-1.588 0.768-2.723 0.768s-2.234-0.535-2.723-0.768c-0.303-0.146-0.531-0.273-0.709-0.371-0.199 0.014-0.346 0.127-0.445 0.17-0.213 0.094-0.426-0.129-0.221-0.293 0.26-0.207 0.775-0.119 1.035-0.246s0.521-0.182 0.848-0.041c0.5 0.213 1.361 0.682 2.215 0.682z" stroke="#000" fill="#FFD300"/>
			<path stroke-width=".031" d="m68.573 45.227c-0.336-0.188-0.49-0.264-0.666-0.123m0.358-0.038c-0.104 0.033-0.236 0.098-0.297 0.131 0.215-0.133 0.234 0.168 0.16 0.199m7.309-0.169c0.336-0.188 0.49-0.264 0.666-0.123m-0.358-0.038c0.104 0.033 0.238 0.098 0.297 0.131-0.213-0.133-0.234 0.168-0.16 0.199" stroke="#000" fill="none"/>
			<polygon stroke-width=".031" points="71.304 40.459 77.56 33.881 77.405 33.736 71.149 40.314" stroke="#000" fill="#AD6119"/>
			<polygon stroke-width=".031" points="71.462 42.148 79.245 37.477 79.136 37.295 71.353 41.969" stroke="#000" fill="#AD6119"/>
			<polygon stroke-width=".031" points="72.708 40.459 66.452 33.881 66.604 33.736 72.86 40.314" stroke="#000" fill="#AD6119"/>
			<polygon stroke-width=".031" points="72.548 42.148 64.765 37.477 64.874 37.295 72.655 41.969" stroke="#000" fill="#AD6119"/>
			<path stroke-width=".031" d="m72.116 32.609v-0.293c0-0.123 0.115-0.299 0.318-0.375-0.35-0.471-0.338-0.965-0.424-1.117-0.082 0.152-0.072 0.646-0.422 1.117 0.203 0.076 0.316 0.252 0.316 0.375v0.172c0.039-0.027 0.084-0.057 0.113-0.068 0.031 0.064 0.06 0.142 0.099 0.189z" stroke="#000" fill="#fff"/>
			<path stroke-width=".031" d="m77.56 33.881c0.086-0.09 0.289-0.137 0.488-0.053 0.07-0.582 0.42-0.934 0.465-1.101-0.166 0.053-0.5 0.418-1.078 0.52 0.096 0.193 0.057 0.4-0.029 0.49l0.154 0.144z" stroke="#000" fill="#fff"/>
			<path stroke-width=".031" d="m79.245 37.477c0.105-0.062 0.316-0.055 0.486 0.08 0.223-0.543 0.652-0.789 0.74-0.94-0.174 0.008-0.594 0.271-1.178 0.213 0.041 0.215-0.051 0.402-0.158 0.465l0.11 0.182z" stroke="#000" fill="#fff"/>
			<path stroke-width=".031" d="m66.452 33.881c-0.086-0.09-0.291-0.137-0.49-0.053-0.07-0.582-0.42-0.934-0.463-1.101 0.164 0.053 0.498 0.418 1.076 0.52-0.094 0.193-0.057 0.4 0.029 0.49l-0.152 0.144z" stroke="#000" fill="#fff"/>
			<path stroke-width=".031" d="m64.765 37.477c-0.105-0.062-0.314-0.055-0.484 0.08-0.225-0.543-0.654-0.789-0.74-0.94 0.172 0.008 0.592 0.271 1.176 0.213-0.039 0.215 0.051 0.402 0.158 0.465l-0.11 0.182z" stroke="#000" fill="#fff"/>
			<path stroke-width=".031" d="m72.011 32.342c0.193 0.193 0.625 0.275 0.625-0.023 0-0.301-0.432-0.219-0.625-0.024v0.006c0.174-0.129 0.561-0.188 0.561 0.018 0 0.203-0.387 0.135-0.561 0.004-0.172 0.131-0.559 0.199-0.559-0.004 0-0.205 0.387-0.146 0.559-0.018v-0.006c-0.191-0.195-0.623-0.277-0.623 0.024 0 0.298 0.431 0.216 0.623 0.023z" stroke="#000" fill="#FFD300"/>
			<path stroke-width=".031" d="m71.784 33.162c0.078 0.021 0.164-0.012 0.174-0.055 0.059-0.221-0.018-0.348-0.004-0.398 0.07-0.268 0.143-0.426 0.068-0.445-0.076-0.019-0.09 0.152-0.162 0.422-0.012 0.051-0.141 0.123-0.199 0.344-0.012 0.042 0.047 0.113 0.123 0.132z" stroke="#000" fill="#FFD300"/>
			<path stroke-width=".031" d="m71.917 32.66c-0.084-0.023-0.113 0.084-0.027 0.107 0.086 0.022 0.115-0.085 0.027-0.107z" stroke="#000" fill="#FFD300"/>
			<path stroke-width=".031" d="m72.222 33.168c0.078-0.02 0.135-0.09 0.123-0.133-0.055-0.223-0.184-0.295-0.195-0.346-0.07-0.27-0.082-0.441-0.158-0.422-0.074 0.02-0.004 0.176 0.064 0.445 0.014 0.051-0.064 0.176-0.008 0.397 0.01 0.045 0.096 0.08 0.174 0.059z" stroke="#000" fill="#FFD300"/>
			<path stroke-width=".031" d="m72.093 32.664c-0.086 0.021-0.059 0.129 0.027 0.107s0.061-0.13-0.027-0.107z" stroke="#000" fill="#FFD300"/>
			<path stroke-width=".031" d="m77.376 33.928c0.008 0.271 0.264 0.631 0.471 0.412 0.205-0.217-0.164-0.453-0.436-0.445l-0.006 0.004c0.215 0.025 0.533 0.25 0.393 0.398-0.139 0.146-0.373-0.17-0.408-0.383-0.215-0.025-0.541-0.24-0.402-0.389 0.141-0.146 0.383 0.16 0.418 0.373l0.006-0.004c-0.008-0.273-0.264-0.631-0.471-0.414s0.163 0.456 0.435 0.448z" stroke="#000" fill="#FFD300"/>
			<path stroke-width=".031" d="m77.438 34.783c0.08-0.004 0.15-0.062 0.148-0.107-0.014-0.227-0.125-0.324-0.127-0.375-0.016-0.279 0.004-0.449-0.072-0.445-0.078 0.004-0.039 0.172-0.024 0.449 0.002 0.053-0.098 0.162-0.086 0.389 0.005 0.044 0.081 0.093 0.161 0.089z" stroke="#000" fill="#FFD300"/>
			<path stroke-width=".031" d="m77.409 34.264c-0.088 0.004-0.082 0.115 0.006 0.111 0.088-0.006 0.084-0.117-0.006-0.111z" stroke="#000" fill="#FFD300"/>
			<path stroke-width=".031" d="m77.169 34.648c0.076 0.023 0.162-0.006 0.174-0.049 0.068-0.219-0.004-0.348 0.01-0.398 0.082-0.266 0.129-0.322 0.055-0.344-0.072-0.023-0.064 0.051-0.145 0.316-0.016 0.051-0.146 0.117-0.213 0.336-0.014 0.044 0.041 0.118 0.119 0.139z" stroke="#000" fill="#FFD300"/>
			<path stroke-width=".031" d="m77.319 34.15c-0.084-0.025-0.117 0.08-0.031 0.107 0.084 0.026 0.117-0.081 0.031-0.107z" stroke="#000" fill="#FFD300"/>
			<path stroke-width=".031" d="m79.056 37.475c-0.064 0.264 0.086 0.676 0.342 0.521 0.258-0.154-0.035-0.482-0.299-0.547l-0.008 0.004c0.201 0.08 0.449 0.383 0.275 0.486-0.176 0.107-0.316-0.262-0.293-0.477-0.199-0.08-0.457-0.377-0.285-0.48 0.176-0.105 0.326 0.254 0.303 0.471l0.008-0.004c0.066-0.266-0.086-0.678-0.342-0.523-0.258 0.154 0.035 0.482 0.299 0.549z" stroke="#000" fill="#FFD300"/>
			<path stroke-width=".031" d="m79.042 38.338c0.08 0.002 0.156-0.047 0.156-0.092 0.01-0.229-0.092-0.336-0.09-0.387 0.012-0.279 0.049-0.447-0.029-0.451-0.076-0.002-0.055 0.168-0.066 0.447-0.002 0.053-0.111 0.15-0.121 0.377 0 0.045 0.07 0.102 0.15 0.106z" stroke="#000" fill="#FFD300"/>
			<path stroke-width=".031" d="m79.063 37.816c-0.09-0.004-0.094 0.109-0.006 0.111 0.09 0.005 0.096-0.107 0.006-0.111z" stroke="#000" fill="#FFD300"/>
			<path stroke-width=".031" d="m78.786 38.178c0.074 0.031 0.162 0.008 0.18-0.033 0.086-0.211 0.027-0.346 0.047-0.395 0.105-0.258 0.158-0.309 0.086-0.336-0.07-0.031-0.068 0.043-0.174 0.301-0.02 0.047-0.158 0.104-0.244 0.312-0.016 0.043 0.031 0.121 0.105 0.151z" stroke="#000" fill="#FFD300"/>
			<path stroke-width=".031" d="m78.985 37.695c-0.082-0.033-0.125 0.07-0.043 0.104 0.082 0.033 0.125-0.069 0.043-0.104z" stroke="#000" fill="#FFD300"/>
			<path stroke-width=".031" d="m66.634 33.928c-0.008 0.271-0.262 0.631-0.469 0.412-0.207-0.217 0.162-0.453 0.436-0.445l0.004 0.004c-0.215 0.025-0.533 0.25-0.393 0.398 0.141 0.146 0.373-0.17 0.408-0.383 0.215-0.025 0.543-0.24 0.402-0.389-0.141-0.146-0.383 0.16-0.418 0.373l-0.004-0.004c0.006-0.273 0.262-0.631 0.469-0.414 0.205 0.217-0.164 0.456-0.435 0.448z" stroke="#000" fill="#FFD300"/>
			<path stroke-width=".031" d="m66.573 34.783c-0.08-0.004-0.152-0.062-0.148-0.107 0.012-0.227 0.123-0.324 0.127-0.375 0.016-0.279-0.006-0.449 0.07-0.445 0.078 0.004 0.039 0.172 0.025 0.449-0.004 0.053 0.096 0.162 0.084 0.389-0.002 0.044-0.078 0.093-0.158 0.089z" stroke="#000" fill="#FFD300"/>
			<path stroke-width=".031" d="m66.601 34.264c0.088 0.004 0.082 0.115-0.006 0.111-0.09-0.006-0.084-0.117 0.006-0.111z" stroke="#000" fill="#FFD300"/>
			<path stroke-width=".031" d="m66.841 34.648c-0.076 0.023-0.162-0.006-0.176-0.049-0.066-0.219 0.006-0.348-0.008-0.398-0.082-0.266-0.129-0.322-0.055-0.344 0.074-0.023 0.064 0.051 0.145 0.316 0.016 0.051 0.146 0.117 0.213 0.336 0.014 0.044-0.041 0.118-0.119 0.139z" stroke="#000" fill="#FFD300"/>
			<path stroke-width=".031" d="m66.69 34.15c0.084-0.025 0.117 0.08 0.031 0.107-0.083 0.026-0.117-0.081-0.031-0.107z" stroke="#000" fill="#FFD300"/>
			<path stroke-width=".031" d="m64.954 37.475c0.066 0.264-0.086 0.676-0.344 0.521-0.256-0.154 0.037-0.482 0.301-0.547l0.008 0.004c-0.201 0.08-0.449 0.383-0.273 0.486 0.174 0.107 0.314-0.262 0.291-0.477 0.201-0.08 0.459-0.377 0.283-0.48-0.174-0.105-0.324 0.254-0.301 0.471l-0.008-0.004c-0.064-0.266 0.086-0.678 0.344-0.523 0.256 0.154-0.037 0.482-0.301 0.549z" stroke="#000" fill="#FFD300"/>
			<path stroke-width=".031" d="m64.968 38.338c-0.08 0.002-0.156-0.047-0.156-0.092-0.01-0.229 0.092-0.336 0.09-0.387-0.01-0.279-0.047-0.447 0.029-0.451 0.078-0.002 0.055 0.168 0.066 0.447 0.002 0.053 0.111 0.15 0.121 0.377 0.002 0.045-0.07 0.102-0.15 0.106z" stroke="#000" fill="#FFD300"/>
			<path stroke-width=".031" d="m64.948 37.816c0.088-0.004 0.092 0.109 0.004 0.111-0.088 0.005-0.096-0.107-0.004-0.111z" stroke="#000" fill="#FFD300"/>
			<path stroke-width=".031" d="m65.224 38.178c-0.074 0.031-0.162 0.008-0.18-0.033-0.086-0.211-0.027-0.346-0.047-0.395-0.105-0.258-0.158-0.309-0.086-0.336 0.072-0.031 0.068 0.043 0.174 0.301 0.02 0.047 0.158 0.104 0.244 0.312 0.016 0.043-0.031 0.121-0.105 0.151z" stroke="#000" fill="#FFD300"/>
			<path stroke-width=".031" d="m65.026 37.695c0.082-0.033 0.123 0.07 0.043 0.104-0.084 0.033-0.127-0.069-0.043-0.104z" stroke="#000" fill="#FFD300"/>
			<path d="m72.005 39.914c0.418 0 0.754-0.338 0.754-0.756s-0.336-0.756-0.754-0.756c-0.416 0-0.754 0.338-0.754 0.756s0.338 0.756 0.754 0.756z" fill="#fff"/>
			<path d="m72.005 39.158" fill="#fff"/>
			<path d="m69.218 45.348c-0.021-0.01-0.057-0.027-0.057-0.027l0.125-0.252s0.045 0.021 0.057 0.027c0.021 0.012 0.076 0.049 0.021 0.16-0.058 0.121-0.125 0.103-0.146 0.092l-0.012 0.078c0.08 0.041 0.176-0.037 0.227-0.141 0.08-0.168-0.008-0.227-0.051-0.248-0.043-0.022-0.096-0.047-0.129-0.062l-0.189 0.383s0.064 0.031 0.143 0.068l0.011-0.078z"/>
			<polygon points="69.435 45.535 69.61 45.146 69.681 45.178 69.505 45.566"/>
			<path d="m69.78 45.611c-0.051-0.02-0.068-0.09-0.033-0.17 0.031-0.08 0.09-0.119 0.143-0.096 0.057 0.024 0.068 0.09 0.035 0.17-0.035 0.085-0.092 0.116-0.145 0.096l-0.027 0.064c0.096 0.039 0.188-0.014 0.238-0.133 0.049-0.119 0.021-0.223-0.074-0.262-0.094-0.039-0.188 0.014-0.236 0.133-0.049 0.119-0.021 0.223 0.072 0.262l0.027-0.064z"/>
			<path d="m70.294 45.57c0.016-0.037-0.004-0.066-0.053-0.084-0.047-0.018-0.062 0.008-0.068 0.027-0.008 0.02-0.002 0.043 0.061 0.08 0.064 0.037 0.105 0.078 0.078 0.154s-0.088 0.111-0.182 0.076-0.1-0.123-0.084-0.174l0.066 0.025c-0.016 0.041 0.01 0.072 0.053 0.09 0.041 0.014 0.07-0.002 0.08-0.029s-0.006-0.059-0.049-0.082c-0.109-0.062-0.105-0.115-0.088-0.16 0.016-0.043 0.066-0.108 0.164-0.072 0.094 0.035 0.109 0.105 0.086 0.172l-0.064-0.023z"/>
			<path d="m70.685 45.938c0.051 0.016 0.076-0.018 0.086-0.053 0.01-0.033 0.08-0.27 0.08-0.27l0.07 0.02s-0.062 0.217-0.078 0.27c-0.02 0.066-0.072 0.131-0.178 0.102-0.104-0.031-0.113-0.115-0.094-0.182 0.016-0.053 0.078-0.27 0.078-0.27l0.072 0.021s-0.07 0.236-0.08 0.27c-0.009 0.037-0.007 0.076 0.044 0.092z"/>
			<polygon points="71.077 45.676 71.153 45.957 71.21 45.707 71.286 45.725 71.188 46.141 71.118 46.123 71.032 45.824 70.97 46.09 70.896 46.072 70.993 45.656"/>
			<polygon points="71.288 46.16 71.362 45.74 71.438 45.754 71.364 46.174"/>
			<polygon points="72.005 45.812 72.149 46.066 72.144 45.809 72.22 45.807 72.231 46.234 72.157 46.236 72.001 45.969 72.007 46.24 71.931 46.242 71.919 45.814"/>
			<polygon points="72.536 45.768 72.597 46.111 72.767 46.082 72.78 46.16 72.534 46.201 72.46 45.781"/>
			<polygon points="72.856 46.145 72.765 45.727 72.839 45.709 72.933 46.127"/>
			<polygon points="73.567 45.578 73.386 45.637 73.415 45.729 73.577 45.674 73.603 45.748 73.438 45.803 73.474 45.91 73.655 45.852 73.677 45.916 73.421 46 73.288 45.594 73.546 45.51"/>
			<path d="m73.753 45.633l-0.039-0.105s0.064-0.024 0.092-0.035c0.025-0.01 0.055 0.002 0.066 0.035 0.012 0.033 0.002 0.06-0.021 0.07-0.024 0.007-0.098 0.035-0.098 0.035l0.025 0.072s0.035-0.014 0.072-0.027c0.037-0.012 0.061-0.008 0.08 0.041 0.018 0.049 0.033 0.094 0.033 0.094l0.07-0.025s-0.031-0.088-0.041-0.111c-0.018-0.051-0.057-0.07-0.08-0.061 0.02-0.008 0.045-0.061 0.023-0.117-0.021-0.057-0.072-0.102-0.123-0.084-0.051 0.02-0.197 0.074-0.197 0.074 0-0.002 0.146 0.4 0.146 0.4l0.074-0.029-0.059-0.154-0.023-0.073z"/>
			<polygon points="74.224 45.713 74.089 45.385 73.983 45.426 73.956 45.361 74.229 45.246 74.257 45.312 74.153 45.357 74.288 45.686"/>
			<polygon points="74.513 45.416 74.483 45.236 74.601 45.375 74.513 45.416 74.524 45.488 74.649 45.43 74.708 45.5 74.772 45.469 74.483 45.133 74.403 45.17 74.472 45.609 74.538 45.578 74.524 45.488"/>
			<path d="m71.647 46.145c-0.055-0.006-0.09-0.066-0.082-0.152 0.01-0.086 0.053-0.139 0.111-0.133 0.059 0.006 0.092 0.066 0.082 0.154-0.009 0.09-0.056 0.134-0.111 0.131l-0.008 0.07c0.104 0.01 0.176-0.068 0.189-0.195 0.014-0.127-0.043-0.219-0.145-0.23-0.102-0.01-0.176 0.068-0.189 0.195-0.014 0.127 0.043 0.219 0.145 0.23l0.008-0.07z"/>
			<path d="m73.091 46.012s0.072-0.02 0.098-0.027c0.025-0.006 0.035-0.031 0.027-0.065-0.01-0.033-0.031-0.051-0.057-0.043-0.025 0.006-0.098 0.027-0.098 0.027l-0.02-0.072s0.059-0.014 0.092-0.023c0.033-0.01 0.033-0.045 0.029-0.057-0.004-0.018-0.027-0.043-0.053-0.035-0.027 0.008-0.094 0.025-0.094 0.025 0.002 0.002 0.025 0.09 0.025 0.09l0.02 0.072 0.031 0.108 0.02 0.074c-0.041 0.01-0.076 0.02-0.076 0.02 0.002 0.002-0.111-0.414-0.111-0.414s0.041-0.01 0.145-0.039c0.072-0.02 0.145-0.002 0.162 0.07 0.01 0.031 0.004 0.066-0.012 0.098 0.029 0.016 0.055 0.037 0.066 0.088 0.016 0.049 0.01 0.127-0.084 0.152-0.027 0.008-0.061 0.017-0.09 0.025l-0.02-0.074z"/>
			<path d="m74.933 45.305c-0.02 0.012-0.055 0.027-0.055 0.027l-0.129-0.248s0.047-0.025 0.059-0.029c0.021-0.012 0.084-0.033 0.141 0.076 0.062 0.121 0.007 0.162-0.016 0.174l0.059 0.055c0.078-0.039 0.072-0.162 0.019-0.264-0.086-0.166-0.185-0.131-0.228-0.109-0.043 0.021-0.094 0.049-0.129 0.066l0.195 0.381s0.062-0.033 0.143-0.074l-0.059-0.055z"/>
			<polygon points="72.425 46.027 72.411 45.959 72.315 45.98 72.331 46.049"/>
			<polygon points="70.493 45.768 70.515 45.699 70.421 45.674 70.401 45.74"/>
			<path d="m67.521 50.613s-0.217-0.102-0.283-0.133c-0.064-0.029-0.148 0.008-0.193 0.102-0.045 0.096-0.01 0.178 0.066 0.215 0.076 0.035 0.268 0.123 0.268 0.123l0.142-0.307 0.096-0.207 0.209-0.447 0.209 0.096s-0.537 1.158-0.537 1.156c0 0-0.428-0.197-0.574-0.266-0.145-0.068-0.154-0.273-0.078-0.438 0.078-0.166 0.244-0.221 0.301-0.195-0.074-0.033-0.111-0.154-0.043-0.297 0.033-0.072 0.15-0.322 0.15-0.322l0.201 0.094s-0.059 0.129-0.125 0.271c-0.066 0.139-0.023 0.203 0.08 0.252 0.105 0.049 0.207 0.096 0.207 0.096l-0.096 0.207z" fill="#FFD300"/>
			<polygon points="65.54 49.914 66.024 50.221 66.177 49.98 65.741 49.705 65.866 49.506 66.302 49.783 66.481 49.498 65.999 49.193 66.11 49.018 66.79 49.449 66.108 50.525 65.427 50.094" fill="#FFD300"/>
			<path d="m65.097 49.09s-0.09-0.072-0.17-0.141c-0.084-0.068-0.199-0.041-0.277 0.055-0.078 0.094-0.053 0.195 0.02 0.254 0.072 0.059 0.172 0.143 0.172 0.143l0.255-0.311 0.127-0.154 0.293-0.354 0.162 0.135-0.812 0.984s-0.158-0.131-0.373-0.311c-0.15-0.123-0.148-0.342-0.002-0.517 0.129-0.158 0.365-0.24 0.521-0.109 0.096 0.078 0.211 0.172 0.211 0.172l-0.127 0.154z" fill="#FFD300"/>
			<path d="m64.241 47.701c-0.107-0.115-0.221-0.068-0.299 0.006s-0.615 0.576-0.615 0.576l-0.152-0.164s0.49-0.459 0.611-0.574c0.15-0.139 0.387-0.226 0.609 0.014 0.223 0.236 0.121 0.467-0.029 0.607-0.121 0.113-0.613 0.572-0.613 0.572l-0.15-0.162s0.535-0.502 0.613-0.576c0.08-0.074 0.133-0.184 0.025-0.299z" fill="#FFD300"/>
			<path d="m63.444 46.791s-0.131-0.186-0.176-0.248c-0.045-0.061-0.127-0.064-0.213-0.004-0.084 0.061-0.105 0.137-0.062 0.199 0.047 0.064 0.178 0.248 0.178 0.248l-0.178 0.127s-0.104-0.145-0.164-0.232c-0.061-0.086-0.158-0.047-0.188-0.025-0.045 0.033-0.09 0.119-0.041 0.188 0.049 0.07 0.164 0.232 0.164 0.232 0.006-0.004 0.229-0.162 0.229-0.162l0.178-0.127c0.004-0.005 0.273-0.196 0.273-0.196l0.184-0.129c0.072 0.102 0.133 0.186 0.133 0.186 0.006-0.002-1.039 0.74-1.039 0.74s-0.074-0.103-0.258-0.363c-0.127-0.178-0.154-0.4 0.024-0.525 0.078-0.057 0.188-0.08 0.287-0.062 0.016-0.102 0.049-0.191 0.176-0.283 0.127-0.09 0.35-0.154 0.516 0.08 0.049 0.068 0.109 0.152 0.162 0.229l-0.185 0.127z" fill="#FFD300"/>
			<polygon points="61.722 46.061 62.642 45.57 62.399 45.117 62.604 45.006 62.956 45.666 61.831 46.266" fill="#FFD300"/>
			<polygon points="62.401 44.564 61.222 45.051 61.134 44.836 62.313 44.352" fill="#FFD300"/>
			<path d="m61.099 43.381c-0.074 0.021-0.191 0.113-0.143 0.287 0.051 0.172 0.232 0.207 0.475 0.135 0.238-0.068 0.373-0.221 0.33-0.369-0.045-0.148-0.195-0.189-0.289-0.162l-0.055-0.193c0.254-0.074 0.48 0.055 0.557 0.309 0.074 0.258-0.119 0.508-0.486 0.613-0.371 0.109-0.664 0.002-0.744-0.271-0.078-0.273 0.108-0.484 0.299-0.541l0.056 0.192z" fill="#FFD300"/>
			<path d="m61.329 39.938c-0.004 0.07-0.01 0.184-0.01 0.184-0.006 0-0.838-0.051-0.838-0.051s0.01-0.154 0.012-0.191c0.004-0.072 0.047-0.266 0.416-0.244 0.403 0.024 0.426 0.231 0.42 0.302l0.23-0.061c0.016-0.266-0.307-0.438-0.648-0.459-0.555-0.033-0.619 0.277-0.627 0.42-0.01 0.143-0.021 0.316-0.027 0.432l1.273 0.08s0.012-0.209 0.029-0.473l-0.23 0.061z" fill="#FFD300"/>
			<polygon points="60.769 37.875 60.655 38.436 60.935 38.492 61.036 37.988 61.265 38.033 61.165 38.537 61.493 38.604 61.606 38.043 61.81 38.084 61.651 38.875 60.399 38.625 60.56 37.832" fill="#FFD300"/>
			<polygon points="61.468 35.795 61.247 36.324 61.511 36.434 61.708 35.957 61.923 36.047 61.726 36.523 62.036 36.652 62.257 36.123 62.448 36.201 62.138 36.947 60.96 36.459 61.269 35.715" fill="#FFD300"/>
			<polygon points="61.677 34.896 62.583 35.412 62.837 34.965 63.04 35.08 62.671 35.729 61.562 35.1" fill="#FFD300"/>
			<path d="m63.401 33.096c-0.092-0.076-0.191-0.055-0.291 0.062-0.098 0.115-0.041 0.186 0.006 0.225 0.045 0.041 0.121 0.051 0.289-0.09 0.17-0.141 0.328-0.215 0.514-0.059 0.184 0.156 0.219 0.361 0.025 0.592-0.193 0.227-0.445 0.148-0.57 0.051l0.135-0.158c0.1 0.084 0.217 0.049 0.303-0.053 0.088-0.104 0.072-0.201 0.006-0.258s-0.168-0.041-0.283 0.055c-0.283 0.24-0.426 0.174-0.535 0.082-0.105-0.092-0.234-0.303-0.035-0.537 0.195-0.23 0.408-0.199 0.567-0.062l-0.131 0.15z" fill="#FFD300"/>
			<polygon points="64.524 32.523 64.741 32.33 64.288 32.041 64.524 32.523 64.62 32.723 64.739 32.965 64.577 33.109 64.001 31.914 64.192 31.742 65.317 32.447 65.157 32.592 64.931 32.445 64.62 32.723" fill="#FFD300"/>
			<polygon points="65.179 30.957 65.769 31.816 66.194 31.525 66.325 31.719 65.71 32.141 64.989 31.088" fill="#FFD300"/>
			<polygon points="67.06 31.291 66.147 30.324 66.349 30.223 67.005 30.969 66.784 30 66.985 29.896 67.233 31.201" fill="#FFD300"/>
			<path d="m71.405 29.867c-0.166 0.012-0.297-0.156-0.309-0.412-0.012-0.26 0.092-0.436 0.27-0.443 0.176-0.008 0.297 0.158 0.307 0.416 0.012 0.273-0.102 0.427-0.268 0.439l0.01 0.211c0.307-0.016 0.488-0.277 0.471-0.66-0.018-0.383-0.223-0.629-0.529-0.613-0.309 0.014-0.488 0.275-0.471 0.658 0.018 0.383 0.223 0.629 0.529 0.615l-0.01-0.211z" fill="#FFD300"/>
			<polygon points="75.554 29.547 75.005 29.389 74.925 29.66 75.421 29.805 75.354 30.029 74.86 29.885 74.767 30.209 75.315 30.369 75.257 30.568 74.483 30.342 74.839 29.117 75.614 29.342" fill="#FFD300"/>
			<polygon points="76.503 29.668 76.571 30.539 76.882 29.836 77.091 29.928 76.577 31.096 76.376 31.006 76.294 30.082 75.966 30.826 75.755 30.732 76.269 29.565" fill="#FFD300"/>
			<polygon points="78.546 30.758 77.952 31.617 78.376 31.908 78.243 32.1 77.63 31.676 78.356 30.627" fill="#FFD300"/>
			<polygon points="81.206 35.486 81.974 34.855 81.11 35.303 81.013 35.111 82.146 34.525 82.298 34.822 81.521 35.447 82.481 35.176 82.636 35.471 81.503 36.059 81.403 35.867 82.267 35.42 81.308 35.684" fill="#FFD300"/>
			<polygon points="83.021 37.049 82.835 36.508 82.565 36.6 82.733 37.086 82.513 37.162 82.345 36.676 82.026 36.785 82.214 37.326 82.017 37.393 81.755 36.631 82.96 36.217 83.224 36.98" fill="#FFD300"/>
			<polygon points="82.405 39.264 83.675 39.145 83.694 39.375 82.427 39.492" fill="#FFD300"/>
			<path d="m83.302 40.781c0.078 0 0.219-0.053 0.221-0.234 0.002-0.18-0.162-0.264-0.412-0.268s-0.424 0.104-0.426 0.258 0.131 0.236 0.229 0.24l-0.002 0.199c-0.266-0.004-0.445-0.191-0.443-0.459 0.004-0.268 0.262-0.449 0.645-0.443 0.387 0.004 0.635 0.193 0.631 0.477-0.004 0.285-0.244 0.434-0.443 0.43v-0.2z" fill="#FFD300"/>
			<path d="m82.54 44.508c0.074 0.027 0.223 0.023 0.287-0.146 0.062-0.168-0.062-0.303-0.299-0.393-0.232-0.086-0.432-0.045-0.486 0.1-0.055 0.146 0.043 0.269 0.135 0.303l-0.07 0.189c-0.248-0.094-0.355-0.332-0.262-0.582 0.094-0.25 0.396-0.334 0.756-0.201 0.361 0.135 0.533 0.396 0.434 0.662-0.1 0.268-0.377 0.326-0.564 0.256l0.069-0.188z" fill="#FFD300"/>
			<polygon points="82.054 46.055 82.321 45.551 82.071 45.418 81.829 45.873 81.622 45.762 81.864 45.307 81.567 45.148 81.298 45.654 81.114 45.557 81.493 44.846 82.62 45.443 82.241 46.156" fill="#FFD300"/>
			<polygon points="81.739 46.961 80.874 46.848 81.497 47.297 81.364 47.482 80.327 46.74 80.456 46.561 81.378 46.67 80.718 46.197 80.853 46.008 81.888 46.752" fill="#FFD300"/>
			<polygon points="79.761 47.408 80.532 48.139 80.763 47.895 80.919 48.039 80.31 48.684 80.155 48.537 80.388 48.291 79.616 47.561" fill="#FFD300"/>
			<polygon points="76.944 51.014 76.524 50.061 76.054 50.268 75.96 50.055 76.644 49.754 77.157 50.92" fill="#FFD300"/>
			<polygon points="61.214 42.209 61.173 41.92 60.681 42.137 61.214 42.209 61.435 42.238 61.702 42.273 61.733 42.488 60.417 42.307 60.38 42.051 61.591 41.504 61.62 41.719 61.374 41.826 61.435 42.238" fill="#FFD300"/>
			<polygon points="68.222 30.254 68.497 30.158 68.192 29.717 68.222 30.254 68.233 30.475 68.249 30.744 68.044 30.815 67.978 29.49 68.22 29.406 68.983 30.49 68.778 30.561 68.626 30.34 68.233 30.475" fill="#FFD300"/>
			<path d="m69.81 30.061c-0.07 0.012-0.182 0.033-0.182 0.033 0-0.004-0.156-0.822-0.156-0.822s0.15-0.029 0.188-0.037c0.07-0.014 0.267-0.02 0.338 0.344 0.075 0.396-0.118 0.468-0.188 0.482l0.115 0.207c0.262-0.051 0.348-0.404 0.283-0.742-0.105-0.547-0.424-0.529-0.562-0.504-0.139 0.027-0.311 0.059-0.424 0.082l0.238 1.252s0.205-0.039 0.465-0.088l-0.115-0.207z" fill="#FFD300"/>
			<path d="m72.755 29.361s0.238 0.021 0.311 0.027c0.072 0.008 0.139-0.057 0.148-0.16 0.01-0.104-0.051-0.172-0.135-0.18s-0.293-0.025-0.293-0.025l-0.031 0.338-0.02 0.227-0.045 0.492-0.23-0.021s0.115-1.271 0.115-1.269c0 0 0.471 0.043 0.631 0.057 0.158 0.016 0.236 0.205 0.221 0.387-0.017 0.182-0.154 0.289-0.217 0.283 0.08 0.008 0.156 0.109 0.141 0.266-0.006 0.08-0.031 0.357-0.031 0.357l-0.223-0.021s0.014-0.143 0.027-0.299c0.014-0.154-0.049-0.199-0.162-0.209-0.115-0.012-0.227-0.021-0.227-0.021l0.02-0.229z" fill="#FFD300"/>
			<polygon points="79.202 32.271 79.421 32.465 79.657 31.982 79.202 32.271 79.017 32.389 78.788 32.533 78.626 32.389 79.753 31.684 79.944 31.855 79.366 33.051 79.204 32.906 79.325 32.664 79.017 32.389" fill="#FFD300"/>
			<polygon points="80.737 33.906 80.911 34.141 81.243 33.719 80.737 33.906 80.532 33.98 80.278 34.076 80.149 33.9 81.397 33.445 81.55 33.652 80.737 34.703 80.608 34.527 80.776 34.316 80.532 33.98" fill="#FFD300"/>
			<path d="m82.919 37.979s0.047 0.234 0.062 0.305c0.014 0.07 0.092 0.117 0.195 0.096 0.102-0.021 0.15-0.098 0.133-0.182-0.016-0.08-0.059-0.287-0.059-0.287l-0.331 0.068-0.225 0.045-0.484 0.098-0.045-0.227s1.252-0.254 1.25-0.254c0 0 0.092 0.463 0.125 0.621 0.033 0.156-0.127 0.287-0.305 0.322-0.18 0.035-0.322-0.064-0.336-0.125 0.016 0.076-0.059 0.178-0.213 0.209-0.078 0.016-0.35 0.072-0.35 0.072l-0.045-0.219s0.139-0.029 0.295-0.061c0.15-0.029 0.176-0.102 0.154-0.215-0.023-0.115-0.047-0.223-0.047-0.223l0.226-0.043z" fill="#FFD300"/>
			<polygon points="82.849 41.869 82.804 42.156 83.339 42.092 82.849 41.869 82.647 41.777 82.401 41.666 82.435 41.451 83.64 42.008 83.601 42.262 82.284 42.434 82.317 42.219 82.585 42.186 82.647 41.777" fill="#FFD300"/>
			<path d="m79.294 48.863s-0.186 0.15-0.242 0.195c-0.057 0.047-0.06 0.137 0.006 0.219 0.064 0.082 0.156 0.088 0.221 0.033 0.066-0.051 0.229-0.184 0.229-0.184l-0.214-0.263-0.145-0.178-0.311-0.385 0.182-0.145s0.803 0.992 0.801 0.99c0 0-0.365 0.297-0.492 0.4-0.123 0.1-0.312 0.018-0.426-0.123-0.115-0.143-0.092-0.316-0.043-0.355-0.062 0.051-0.188 0.031-0.287-0.092-0.049-0.062-0.225-0.277-0.225-0.277l0.174-0.141s0.09 0.111 0.188 0.232 0.174 0.111 0.264 0.039c0.09-0.074 0.176-0.145 0.176-0.145l0.144 0.18z" fill="#FFD300"/>
			<polygon points="77.878 49.594 77.628 49.746 78.021 50.113 77.878 49.594 77.819 49.381 77.747 49.121 77.933 49.008 78.28 50.289 78.06 50.424 77.083 49.523 77.269 49.412 77.464 49.596 77.819 49.381" fill="#FFD300"/>
			<polygon stroke-width=".031" points="66.495 43.307 72.003 33.766 77.513 43.307" stroke="#000" fill="#FFD300"/>
			<polygon stroke-width=".031" points="67.044 43.008 72.003 34.416 76.966 43.008" stroke="#000" fill="#fff"/>
			<path d="m76.966 43.008l-1.234-2.137c-0.66-0.045-4.123 0.055-4.766 0.078-0.641 0.023-2.152-0.115-2.668-0.117l-1.254 2.176h9.922z" fill="#00678E"/>
			<path d="m68.298 40.832c0.516 0.002 2.027 0.141 2.668 0.117 0.643-0.023 4.105-0.123 4.766-0.078l-3.729-6.455-3.705 6.416z" fill="#fff"/>
			<path d="m70.601 37.6s0.824 0.83 0.893 0.904c0.068 0.074 0.105 0.065 0.037-0.029-0.07-0.092-0.1-0.166-0.148-0.242 0.088 0.094 0.127 0.121 0.166 0.176 0.037 0.057 0.115 0.092 0.045-0.012-0.068-0.102-0.543-0.932-0.543-0.932 0.326 0.484 0.541 0.82 0.582 0.904 0.039 0.084 0.125 0.09 0.055-0.022-0.068-0.111-0.158-0.316-0.209-0.42 0.129 0.195 0.219 0.354 0.248 0.42 0.029 0.064 0.086 0.062 0.045-0.059s-0.199-0.799-0.24-0.977c0.121 0.336 0.256 0.816 0.287 0.93 0.031 0.111 0.088 0.129 0.086 0.006-0.004-0.123 0.02-0.709 0.025-0.861 0.01 0.396 0.057 0.746 0.049 0.832s0.041 0.121 0.074-0.039c0.035-0.162 0.17-0.791 0.205-0.934-0.082 0.523-0.139 0.912-0.156 0.969-0.018 0.059-0.002 0.09 0.029 0.017 0.037-0.088 0.086-0.197 0.098-0.229-0.039 0.178-0.051 0.242-0.062 0.279-0.012 0.039 0.016 0.088 0.045 0.012s0.408-1.082 0.408-1.082c-0.188 0.584-0.314 1.061-0.332 1.1-0.018 0.037-0.023 0.102 0.031 0.023 0.055-0.076 0.463-0.717 0.463-0.717s-0.387 0.721-0.412 0.766c-0.023 0.045 0.018 0.102 0.066 0.043 0.049-0.058 0.67-0.875 0.67-0.875s-0.564 0.828-0.602 0.881c-0.037 0.051-0.029 0.094 0.031 0.023 0.062-0.07 0.467-0.535 0.467-0.535s-0.377 0.547-0.414 0.584c-0.037 0.039-0.006 0.068 0.045 0.025 0.049-0.047 1.057-0.896 1.057-0.896s-0.889 0.848-0.943 0.893c-0.057 0.047-0.029 0.076 0.039 0.023 0.066-0.051 0.607-0.381 0.607-0.381s-0.488 0.385-0.551 0.418c-0.062 0.033-0.049 0.09 0.033 0.049 0.08-0.039 0.885-0.392 0.885-0.392s-0.809 0.435-0.895 0.482c-0.088 0.045-0.092 0.109 0.031 0.068 0.125-0.041 0.957-0.357 0.957-0.357s-0.811 0.379-0.885 0.406c-0.076 0.027-0.08 0.078-0.012 0.062 0.068-0.014 1.268-0.264 1.268-0.264s-1.135 0.31-1.209 0.332c-0.074 0.021-0.092 0.086 0.027 0.068 0.119-0.014 0.471-0.037 0.471-0.037s-0.369 0.08-0.451 0.088-0.074 0.047 0.02 0.043c0.096-0.002 1.029 0 1.029 0s-0.977 0.062-1.027 0.062c-0.051 0.002-0.1 0.029-0.023 0.039 0.074 0.012 0.777 0.107 0.777 0.107s-0.771-0.037-0.865-0.041c-0.094-0.004-0.156 0.053-0.01 0.082 0.145 0.027 1.785 0.322 1.785 0.322s-1.732-0.236-1.803-0.246c-0.07-0.012-0.119 0.053 0.002 0.082 0.121 0.027 1.385 0.432 1.385 0.432s-1.453-0.355-1.527-0.371c-0.076-0.018-0.102 0.033-0.012 0.068s2.393 1.121 2.393 1.121-2.363-0.996-2.436-1.031c-0.07-0.037-0.094 0.018-0.029 0.07 0.103 0.084 0.373 0.33 0.373 0.33s-0.48-0.328-0.557-0.396c-0.078-0.066-0.098 0.002-0.023 0.102 0.184 0.242 0.365 0.529 0.365 0.529s-0.389-0.445-0.439-0.508c-0.053-0.06-0.146-0.047-0.094 0.041 0.053 0.086 0.197 0.342 0.197 0.342s-0.215-0.223-0.26-0.285c-0.045-0.061-0.057-0.012-0.057 0.027 0.012 0.297-0.021 0.553-0.074 0.002-0.008-0.07-0.096-0.057-0.109-0.016-0.133 0.412-0.191 0.424-0.082-0.031 0.018-0.07-0.09-0.084-0.107-0.039-0.02 0.043-0.152 0.262-0.152 0.262s0.039-0.186 0.062-0.274c0.023-0.09-0.084-0.142-0.127-0.086-0.043 0.059-0.264 0.336-0.264 0.336s0.182-0.309 0.213-0.354c0.029-0.045-0.014-0.094-0.064-0.035-0.098 0.109-0.506 0.504-0.506 0.504s0.412-0.465 0.461-0.523c0.049-0.057 0.012-0.094-0.057-0.049-0.07 0.047-0.416 0.289-0.416 0.289s0.32-0.279 0.377-0.332c0.055-0.051 0.016-0.107-0.047-0.062-0.061 0.047-0.492 0.26-0.492 0.26s0.379-0.273 0.447-0.326c0.068-0.053 0.053-0.16-0.053-0.105-0.107 0.051-2.35 1.135-2.35 1.135s2.135-1.123 2.223-1.17c0.086-0.047 0.01-0.064-0.064-0.031-0.074 0.035-0.596 0.18-0.596 0.18s0.488-0.176 0.576-0.209c0.088-0.035 0.111-0.092-0.008-0.065-0.119 0.029-1.32 0.184-1.32 0.184s1.205-0.236 1.312-0.258c0.105-0.021 0.154-0.092-0.016-0.088s-1.035-0.051-1.035-0.051 0.877 0.004 0.945 0.002c0.07-0.002 0.076-0.027 0.006-0.037-0.07-0.012-0.971-0.256-0.971-0.256s0.943 0.16 1.057 0.184c0.115 0.021 0.189-0.023 0.068-0.078-0.121-0.053-0.74-0.365-0.74-0.365s0.82 0.332 0.924 0.387c0.102 0.055 0.162-0.055-0.004-0.15-0.166-0.098-0.988-0.701-0.988-0.701s0.953 0.568 1.031 0.617c0.076 0.049 0.094 0.021 0.029-0.039-0.064-0.061-0.611-0.547-0.611-0.547s0.584 0.434 0.654 0.496c0.07 0.061 0.166 0.064 0.068-0.033-0.095-0.099-0.825-0.94-0.825-0.94z" fill="#FFF100"/>
			<path stroke-width=".031" d="m71.897 39.455c-0.062-0.061-0.119-0.154-0.082-0.217 0.053-0.094 0.152-0.152 0.287-0.146 0.039-0.088-0.102-0.16-0.188-0.088-0.066-0.133 0.125-0.273 0.273-0.189 0.188 0.104 0.18 0.303 0.156 0.434-0.012 0.064-0.07 0.186-0.188 0.287-0.058 0.056-0.187-0.015-0.258-0.081z" stroke="#000" fill="#E03A3E"/>
			<path stroke-width=".031" d="m72.157 39.535c-0.062 0.055-0.189-0.014-0.26-0.08-0.062-0.061-0.121-0.154-0.082-0.217 0.033-0.055 0.164 0.027 0.213 0.076 0.061 0.061 0.18 0.178 0.129 0.221z" stroke="#000" fill="#E03A3E"/>
			<path stroke-width=".031" d="m71.966 40.318v-0.902c0-0.041 0.08-0.045 0.08 0v0.902" stroke="#000" fill="#FFD300"/>
			<path stroke-width=".031" d="m76.161 42.008c-0.102-0.051-0.252-0.139-0.354-0.139s-0.365-0.391-0.58-0.492c-0.215-0.1-0.543-0.479-0.756-0.543-0.215-0.062-0.455-0.252-0.555-0.391-0.09-0.123-0.211-0.137-0.404 0.014 0.078 0.074 0.145 0.105 0.189 0.145 0.066 0.057 0.293 0.51 0.463 0.586 0.172 0.076 0.342 0.482 0.539 0.568 0.199 0.084 0.359 0.32 0.445 0.35 0.045 0.014 0.08 0.053 0.074 0.094 0.283 0.113 0.641 0.047 0.723 0.023 0.088-0.027 0.189-0.064 0.266-0.064 0.075-0.001 0.052-0.102-0.05-0.151z" stroke="#000" fill="#00693F"/>
			<path stroke-width=".031" d="m75.149 42.105c-0.086-0.029-0.246-0.266-0.445-0.35-0.197-0.086-0.367-0.492-0.539-0.568-0.17-0.076-0.396-0.529-0.463-0.586-0.045-0.039-0.111-0.07-0.189-0.145-0.035-0.033-0.072-0.074-0.113-0.129-0.133-0.18-0.256-0.103-0.312-0.039-0.043 0.053-0.105 0.133-0.168 0.207 0.045 0.107 0.182 0.324 0.273 0.398 0.104 0.086 0.359 0.322 0.396 0.406 0.037 0.086 0.236 0.236 0.322 0.418 0.084 0.178 0.301 0.414 0.396 0.51 0.031 0.031 0.062 0.066 0.08 0.096 0.279 0.055 0.523 0.021 0.685-0.021 0.106-0.027 0.145-0.066 0.15-0.104 0.007-0.04-0.028-0.079-0.073-0.093z" stroke="#000" fill="#00693F"/>
			<path stroke-width=".031" d="m73.911 41.719c-0.086-0.182-0.285-0.332-0.322-0.418-0.037-0.084-0.293-0.32-0.396-0.406-0.092-0.074-0.229-0.291-0.273-0.398-0.004-0.014-0.01-0.027-0.012-0.035-0.018-0.086-0.217-0.172-0.32-0.229-0.104-0.057-0.113-0.057-0.238 0.01-0.07 0.039-0.158 0.072-0.234 0.098 0.059 0.1 0.094 0.199 0.17 0.252 0.16 0.113 0.236 0.256 0.256 0.332 0.018 0.074 0.057 0.18 0.188 0.273 0.133 0.096 0.379 0.312 0.436 0.455 0.057 0.141 0.133 0.236 0.227 0.31 0.096 0.076 0.123 0.18 0.219 0.256 0.047 0.037 0.086 0.084 0.088 0.121 0.035 0 0.07 0.006 0.109 0.02 0.152 0.059 0.189-0.037 0.436 0.019 0.162 0.037 0.18 0.002 0.146-0.055-0.018-0.029-0.049-0.064-0.08-0.096-0.099-0.095-0.316-0.332-0.4-0.509z" stroke="#000" fill="#00693F"/>
			<path stroke-width=".031" d="m73.608 42.219c-0.096-0.076-0.123-0.18-0.219-0.256-0.094-0.074-0.17-0.17-0.227-0.31-0.057-0.143-0.303-0.359-0.436-0.455-0.131-0.094-0.17-0.199-0.188-0.273-0.02-0.076-0.096-0.219-0.256-0.332-0.076-0.053-0.111-0.152-0.17-0.252-0.041-0.066-0.09-0.133-0.17-0.182-0.1-0.062-0.256-0.105-0.369-0.115-0.115-0.008-0.285 0.105-0.322 0.16-0.033 0.049-0.086 0.111-0.172 0.211 0.031 0.041 0.059 0.08 0.086 0.117 0.164 0.227 0.467 0.607 0.619 0.695 0.15 0.088 0.529 0.566 0.654 0.643 0.117 0.07 0.369 0.406 0.494 0.541 0.07 0.004 0.131-0.006 0.172-0.021 0.074-0.029 0.246 0 0.453 0.01 0.105 0.004 0.141-0.021 0.137-0.059 0-0.038-0.039-0.085-0.086-0.122z" stroke="#000" fill="#00693F"/>
			<path stroke-width=".031" d="m76.114 42.174c0.035-0.01 0.068-0.016 0.098-0.016 0.074 0 0.051-0.101-0.051-0.15-0.102-0.051-0.252-0.139-0.354-0.139s-0.365-0.391-0.58-0.492c-0.215-0.1-0.543-0.479-0.756-0.543-0.215-0.062-0.455-0.252-0.555-0.391-0.061-0.08-0.133-0.115-0.232-0.084 0.092-0.023 0.178 0.232 0.301 0.309 0.123 0.076 0.236 0.18 0.275 0.273 0.037 0.096 0.104 0.17 0.17 0.217 0.066 0.049 0.189 0.172 0.236 0.295s0.133 0.199 0.227 0.199c0.096 0 0.217 0.017 0.236 0.111 0.02 0.096 0.113 0.199 0.227 0.191 0.115-0.01 0.182 0.008 0.256 0.008 0.076 0 0.18 0.076 0.133 0.106-0.047 0.027 0 0.104 0.123 0.094s0.17-0.111 0.246 0.012z" stroke="#000" fill="#CDD31F"/>
			<path stroke-width=".031" d="m75.224 42.199c0.006-0.041-0.029-0.08-0.074-0.094-0.086-0.029-0.246-0.266-0.445-0.35-0.197-0.086-0.367-0.492-0.539-0.568-0.17-0.076-0.396-0.529-0.463-0.586-0.045-0.039-0.111-0.07-0.189-0.145-0.035-0.033-0.072-0.074-0.113-0.129-0.133-0.18-0.256-0.103-0.312-0.039-0.043 0.053-0.105 0.133-0.168 0.207 0.01 0.021 0.021 0.047 0.037 0.076 0.113-0.094 0.094-0.074 0.17-0.141 0.074-0.067 0.15-0.236 0.236-0.057 0.084 0.18 0.273 0.293 0.303 0.416 0.027 0.123 0.111 0.18 0.16 0.283 0.047 0.104 0.047 0.143 0.16 0.16 0.113 0.019 0.303 0.293 0.236 0.352-0.066 0.057-0.15 0.121 0 0.16 0.152 0.037 0.16 0.066 0.16 0.123s0.066 0.123 0.143 0.123 0.227 0.037 0.227 0.104c0 0.066 0.086 0.096 0.152 0.086s-0.01 0.057 0.086 0.037c0.092-0.018 0.156-0.049 0.233-0.018z" stroke="#000" fill="#CDD31F"/>
			<path stroke-width=".031" d="m73.608 42.219c-0.096-0.076-0.123-0.18-0.219-0.256-0.094-0.074-0.17-0.17-0.227-0.31-0.057-0.143-0.303-0.359-0.436-0.455-0.131-0.094-0.17-0.199-0.188-0.273-0.02-0.076-0.096-0.219-0.256-0.332-0.076-0.053-0.111-0.152-0.17-0.252-0.041-0.066-0.09-0.133-0.17-0.182-0.1-0.062-0.256-0.105-0.369-0.115-0.086-0.006-0.201 0.055-0.271 0.109 0.166-0.033 0.232 0.127 0.289 0.107 0.057-0.018 0.199 0.086 0.246 0.209s0.057 0.236 0.209 0.275c0.15 0.037 0.406 0.367 0.406 0.433 0.094-0.084 0.312 0.096 0.379 0.17 0.064 0.076 0.064 0.172-0.076 0.125-0.143-0.049-0.18 0.027-0.029 0.084 0.15 0.057 0.189 0.17 0.312 0.207 0.123 0.039 0.189 0.086 0.133 0.125-0.057 0.037 0.094 0.057 0.066 0.111-0.029 0.057 0.084 0.029 0.133 0.068 0.049 0.038 0.143 0.152 0.238 0.152z" stroke="#000" fill="#CDD31F"/>
			<path stroke-width=".031" d="m74.362 42.287c-0.016-0.02-0.035-0.039-0.055-0.059-0.096-0.096-0.312-0.332-0.396-0.51-0.086-0.182-0.285-0.332-0.322-0.418-0.037-0.084-0.293-0.32-0.396-0.406-0.092-0.074-0.229-0.291-0.273-0.398-0.004-0.014-0.01-0.027-0.012-0.035-0.018-0.086-0.217-0.172-0.32-0.229-0.104-0.057-0.113-0.057-0.238 0.01-0.059 0.031-0.129 0.061-0.195 0.084 0.139-0.018 0.234 0.002 0.254 0.039 0.018 0.037 0.084 0.057 0.15 0.029 0.066-0.029 0.18 0.074 0.18 0.244s0.113 0.275 0.199 0.312c0.084 0.039 0.16 0.113 0.16 0.189s0.047 0.086 0.123 0.113c0.076 0.029 0.123 0.076 0.17 0.086 0.049 0.008 0.162 0.246 0.086 0.207-0.076-0.037-0.094 0.16 0.066 0.236s0.33 0.133 0.369 0.236c0.037 0.104 0.084 0.143 0.131 0.113 0.049-0.027 0.18 0.029 0.133 0.059-0.048 0.03-0.044 0.1 0.186 0.098z" stroke="#000" fill="#CDD31F"/>
			<path stroke-width=".031" d="m67.661 42.6c0.102-0.037 0.189-0.088 0.316-0.051 0.127 0.039 0.227 0.025 0.289-0.012 0.064-0.039 0.24-0.039 0.342 0.025 0.1 0.062 0.303 0.051 0.441-0.025 0.139-0.076 0.391-0.062 0.58 0s0.391-0.102 0.629-0.012c0.24 0.088 0.279-0.076 0.48-0.027 0.201 0.051 0.467-0.111 0.77-0.012 0.303 0.102 0.252 0.012 0.428 0 0.178-0.012 0.707-0.037 1.021-0.051-0.008-0.006-0.016-0.016-0.023-0.025-0.125-0.135-0.377-0.471-0.494-0.541-0.125-0.076-0.504-0.555-0.654-0.643-0.152-0.088-0.455-0.469-0.619-0.695-0.027-0.037-0.055-0.076-0.086-0.117-0.146-0.197-0.311-0.414-0.404-0.551-0.115-0.164-0.254-0.125-0.342-0.164-0.088-0.037-0.164 0-0.264 0.062-0.164 0.104-0.682 0.43-0.832 0.695-0.139 0.242-0.943 0.982-1.562 1.453l-0.375 0.65c0.094 0.043 0.275 0.072 0.359 0.041z" stroke="#000" fill="#00693F"/>
			<path stroke-width=".031" d="m72.868 42.334c-0.135-0.156-0.328-0.406-0.428-0.465-0.125-0.076-0.504-0.555-0.654-0.643-0.152-0.088-0.455-0.469-0.619-0.695-0.027-0.037-0.055-0.076-0.086-0.117-0.146-0.197-0.311-0.414-0.404-0.551-0.115-0.164-0.254-0.125-0.342-0.164-0.088-0.037-0.164 0-0.264 0.062 0.104-0.031 0.188 0.027 0.303 0.027 0.113 0 0.16 0.057 0.254 0.123 0.096 0.064 0.293 0.312 0.303 0.416s0.152 0.303 0.236 0.359c0.086 0.057 0.266 0.254 0.303 0.35 0.039 0.096 0.123 0.207 0.236 0.256 0.113 0.047 0.209 0.244 0.303 0.293 0.096 0.047 0.293 0.217 0.369 0.34 0.076 0.124 0.363 0.241 0.49 0.409z" stroke="#000" fill="#CDD31F"/>
			<path d="m70.726 42.689c0.254 0.062 0.455-0.039 0.619 0 0.164 0.037 0.391-0.025 0.492-0.064 0.277 0.064 0.654 0.025 0.781-0.037 0.289 0.037 0.795 0.113 1.135-0.014 0.264 0.039 0.402-0.049 0.555 0.014 0.15 0.062 0.354-0.025 0.465-0.039 0.33 0.064 0.908 0.014 1.137-0.074 0.139 0.051 0.139 0.074 0.289 0.051 0.152-0.027 0.391 0 0.467 0.062-0.227-0.039-0.504 0.102-0.744-0.051-0.377 0.139-0.631 0.252-1.084 0.076-0.428 0.088-0.643 0-0.883 0.062s-0.982 0-1.262-0.037c-0.377 0.1-0.717 0.113-0.844 0.062-0.215 0.051-0.379 0.062-0.504 0.025-0.178 0.027-0.481 0.013-0.619-0.036z"/>
			<path d="m73.083 42.838c0.102 0.025 0.49 0.111 0.666 0.074 0.139 0.037 0.316 0.025 0.441 0 0.189 0.051 0.543-0.014 0.732-0.014 0.227 0.064 0.389 0.025 0.58 0 0.137 0.039 0.289-0.012 0.453-0.062 0.102 0.051 0.303 0.076 0.43 0 0.125 0.039 0.303 0.027 0.416 0.039-0.113-0.012-0.312-0.049-0.439-0.086-0.127 0.076-0.328 0.051-0.428 0-0.166 0.051-0.316 0.101-0.455 0.062-0.189 0.025-0.301 0.051-0.529-0.012-0.19 0-0.592 0.076-0.781 0.025-0.127 0.025-0.303 0.037-0.441 0-0.176 0.038-0.543-0.001-0.645-0.026z"/>
			<path d="m67.952 42.809c0.143-0.01 0.217-0.016 0.312-0.045 0.094 0.059 0.236 0.039 0.379 0.029 0.264 0.066 0.49 0.104 0.699 0.057 0.16 0.039 0.359 0 0.453-0.018 0.123 0.027 0.361 0.027 0.473-0.01 0.123 0.057 0.275 0.047 0.379 0.018 0.143 0.057 0.246 0.066 0.359 0.02 0.275 0.019 0.729 0.019 0.861-0.02 0.18 0.049 0.33 0.006 0.396-0.021-0.066 0.027-0.256 0.025-0.436-0.024-0.133 0.039-0.586 0.039-0.859 0.02-0.115 0.047-0.219 0.037-0.359-0.02-0.105 0.029-0.256 0.039-0.379-0.017-0.113 0.037-0.35 0.037-0.473 0.01-0.096 0.018-0.293 0.057-0.453 0.018-0.209 0.047-0.436 0.01-0.701-0.057-0.143 0.01-0.283 0.029-0.377-0.027-0.094 0.026-0.131 0.077-0.274 0.087z"/>
			<path d="m76.423 42.369c-0.102 0.057-0.344 0.088-0.488 0.035-0.121 0.076-0.436 0.066-0.492 0.021-0.055-0.043-0.057-0.012-0.139 0.023-0.082 0.039-0.152 0.031-0.19 0.012-0.037-0.018-0.074-0.031-0.176-0.002-0.102 0.031-0.189 0.051-0.221 0.018-0.031-0.031-0.225-0.014-0.369 0.01 0.145-0.025 0.344-0.068 0.375-0.037s0.119 0.012 0.221-0.02c0.1-0.031 0.139-0.02 0.176 0 0.039 0.02 0.107 0.025 0.189-0.012 0.082-0.039 0.082-0.07 0.139-0.025 0.057 0.043 0.371 0.051 0.492-0.025 0.145 0.051 0.381 0.059 0.483 0.002z"/>
			<path d="m73.403 36.838c-0.699-0.309-1.859-0.455-2.824 0.045l0.125-0.219c0.85-0.354 1.891-0.283 2.576-0.039l0.123 0.213z" fill="#FCC247"/>
			<path d="m73.647 37.26c-0.725-0.436-2.123-0.73-3.322 0.061l0.127-0.219c1.084-0.646 2.361-0.426 3.072-0.053l0.123 0.211z" fill="#00693F"/>
			<path d="m73.892 37.682c-0.752-0.561-2.387-1.008-3.818 0.076l0.127-0.219c1.314-0.938 2.832-0.566 3.568-0.068l0.123 0.211z" fill="#590058"/>
			<path d="m73.28 36.625c-0.686-0.244-1.727-0.314-2.576 0.039l0.127-0.219c0.734-0.207 1.656-0.213 2.328-0.031l0.121 0.211z" fill="#E03A3E"/>
			<path d="m73.524 37.049c-0.711-0.373-1.988-0.594-3.072 0.053l0.127-0.219c0.965-0.5 2.125-0.354 2.824-0.045l0.121 0.211z" fill="#FFF100"/>
			<path d="m73.769 37.471c-0.736-0.498-2.254-0.869-3.568 0.068l0.125-0.219c1.199-0.791 2.598-0.496 3.322-0.061l0.121 0.212z" fill="#00678E"/>
			<path d="m70.323 39.197l0.397 0.014-0.002 0.068-0.271-0.01-0.004 0.076-0.055-0.002c0-0.023-0.006-0.092-0.065-0.102v-0.044z" fill="#E03A3E"/>
			<path d="m70.45 38.873l-0.029 0.129c0.021 0.008 0.049 0.018 0.07 0.027-0.041-0.072 0.031-0.152 0.139-0.129 0.096 0.02 0.123 0.086 0.109 0.148-0.01 0.053-0.066 0.088-0.131 0.074l0.014-0.059c0.023 0.004 0.053-0.008 0.059-0.033 0.006-0.035-0.025-0.061-0.061-0.068-0.086-0.018-0.1 0.055-0.066 0.08l-0.012 0.058c-0.062-0.023-0.15-0.059-0.201-0.074l0.037-0.17 0.072 0.017z" fill="#E03A3E"/>
			<path d="m70.837 38.598c-0.014 0.02-0.031 0.049-0.031 0.049l-0.219-0.141s0.025-0.039 0.031-0.049c0.012-0.02 0.053-0.064 0.148-0.004 0.106 0.068 0.083 0.127 0.071 0.145l0.07 0.018c0.045-0.068-0.018-0.164-0.107-0.221-0.145-0.094-0.209-0.018-0.232 0.02-0.023 0.037-0.053 0.082-0.072 0.113l0.334 0.213s0.033-0.055 0.078-0.125l-0.071-0.018z" fill="#E03A3E"/>
			<polygon points="70.976 38.035 70.847 38.158 70.905 38.221 71.022 38.113 71.073 38.166 70.956 38.275 71.028 38.35 71.157 38.229 71.2 38.275 71.019 38.447 70.747 38.16 70.929 37.988" fill="#E03A3E"/>
			<path d="m71.438 37.824c-0.016-0.035-0.047-0.043-0.09-0.023-0.045 0.018-0.037 0.045-0.031 0.062 0.008 0.018 0.027 0.031 0.094 0.016 0.066-0.016 0.121-0.016 0.15 0.055 0.029 0.068 0.012 0.131-0.074 0.168-0.084 0.037-0.145-0.02-0.166-0.064l0.059-0.025c0.018 0.037 0.055 0.043 0.094 0.025 0.037-0.016 0.047-0.045 0.035-0.07-0.01-0.023-0.039-0.033-0.084-0.023-0.113 0.027-0.143-0.01-0.16-0.051s-0.023-0.117 0.062-0.154c0.086-0.035 0.143 0 0.166 0.061l-0.055 0.023z" fill="#E03A3E"/>
			<polygon points="71.853 37.662 71.677 37.691 71.69 37.777 71.849 37.75 71.862 37.822 71.704 37.85 71.722 37.953 71.896 37.922 71.907 37.984 71.661 38.027 71.595 37.637 71.841 37.596" fill="#E03A3E"/>
			<path d="m72.046 37.777l0.006-0.125s0.041 0.004 0.07 0.006c0.027 0 0.053 0.021 0.051 0.061-0.002 0.037-0.027 0.064-0.059 0.062-0.033-0.002-0.068-0.004-0.068-0.004l-0.004 0.062s0.045 0.002 0.084 0.004c0.062 0.004 0.107-0.059 0.111-0.123 0.004-0.07-0.035-0.125-0.096-0.129-0.086-0.004-0.15-0.008-0.15-0.008l-0.023 0.393 0.064 0.006 0.01-0.142 0.004-0.063z" fill="#E03A3E"/>
			<polygon points="73.136 38.076 72.997 37.965 72.942 38.035 73.065 38.133 73.021 38.189 72.896 38.09 72.831 38.172 72.97 38.283 72.931 38.332 72.735 38.178 72.981 37.867 73.177 38.023" fill="#E03A3E"/>
			<path d="m73.483 38.395l-0.33 0.217-0.037-0.059 0.227-0.148-0.041-0.064 0.045-0.031c0.014 0.021 0.059 0.072 0.111 0.047l0.025 0.038z" fill="#E03A3E"/>
			<path d="m73.546 38.633c-0.012-0.027-0.035-0.031-0.061-0.021-0.031 0.014-0.041 0.037-0.029 0.061 0.01 0.023 0.031 0.035 0.062 0.023 0.028-0.014 0.04-0.036 0.028-0.063l0.053-0.021c0.018 0.041 0.014 0.105-0.055 0.135-0.039 0.016-0.068 0.002-0.086-0.008-0.008 0.041-0.027 0.066-0.07 0.084-0.047 0.021-0.121 0.02-0.154-0.057l0.059-0.025c0.014 0.031 0.045 0.035 0.074 0.023 0.027-0.012 0.053-0.043 0.039-0.068-0.012-0.029-0.049-0.033-0.078-0.021-0.027 0.012-0.047 0.037-0.035 0.066l-0.059 0.025c-0.031-0.076 0.02-0.129 0.066-0.15 0.041-0.018 0.076-0.014 0.111 0.01 0.004-0.021 0.014-0.051 0.053-0.068 0.068-0.027 0.117 0.014 0.135 0.055l-0.053 0.02z" fill="#E03A3E"/>
			<path d="m73.542 38.871c0.068-0.014 0.148-0.002 0.164 0.074 0.014 0.076-0.041 0.125-0.096 0.135-0.125 0.025-0.166-0.092-0.238-0.096l0.027 0.135-0.061 0.012-0.043-0.217c0.09-0.018 0.129 0.023 0.17 0.053 0.041 0.031 0.072 0.062 0.133 0.049 0.027-0.008 0.047-0.027 0.041-0.055-0.006-0.031-0.041-0.039-0.086-0.029l-0.011-0.061z" fill="#E03A3E"/>
			<path d="m73.741 39.312l-0.395 0.008-0.002-0.07 0.273-0.004-0.002-0.076h0.055c0.002 0.024 0.012 0.092 0.07 0.098v0.044h0.001z" fill="#E03A3E"/>
			<path d="m72.558 38.018c-0.018-0.01-0.051-0.023-0.051-0.023 0.002-0.002 0.109-0.236 0.109-0.236s0.043 0.02 0.053 0.023c0.021 0.01 0.072 0.043 0.023 0.148-0.05 0.113-0.113 0.095-0.134 0.088l-0.006 0.072c0.074 0.035 0.16-0.039 0.205-0.137 0.07-0.156-0.012-0.209-0.053-0.226-0.039-0.02-0.088-0.041-0.121-0.057 0-0.002-0.166 0.359-0.166 0.359s0.059 0.027 0.135 0.061l0.006-0.072z" fill="#E03A3E"/>
			<path stroke-width=".031" d="m72.159 48.701c-0.033 0.021-0.072 0.031-0.113 0.031 0.152 0.158 0.203 0.412 0.229 0.58 0.031 0.232-0.078 0.395-0.072 0.904 0.035-0.109 0.119-0.225 0.211-0.322-0.002 0.004-0.004 0.004-0.006 0.006-0.003-0.451-0.032-0.941-0.249-1.199z" stroke="#000" fill="#00678E"/>
			<path stroke-width=".031" d="m71.108 49.9c-0.002-0.002-0.004-0.002-0.004-0.004 0.037 0.043 0.076 0.088 0.119 0.145 0.029-0.199 0.145-0.666 0.215-0.998 0.039-0.182 0.117-0.303 0.199-0.371-0.016-0.02-0.027-0.041-0.039-0.066-0.228 0.201-0.402 0.728-0.49 1.294z" stroke="#000" fill="#00678E"/>
			<path stroke-width=".031" d="m71.108 49.9c0.088-0.566 0.262-1.094 0.49-1.295-0.01-0.021-0.02-0.045-0.027-0.068-0.381 0.211-0.578 0.816-0.713 1.357 0.012-0.008 0.031-0.021 0.035-0.025 0.033-0.025 0.047-0.035 0.066-0.051 0.006-0.006 0.021-0.018 0.047-0.037 0.062 0.076 0.082 0.098 0.096 0.113h0.002c0 0.002 0.002 0.004 0.004 0.006z" stroke="#000" fill="#fff"/>
			<path stroke-width=".031" d="m70.745 47.217c-0.057-0.066-0.107-0.107-0.148-0.102-0.098 0.18-0.061 0.645-0.039 0.836 0.006 0.045 0.027 0.129 0.025 0.123 0.023 0.055 0.102 0.066 0.211 0.066-0.088-0.193-0.106-0.736-0.049-0.923z" stroke="#000" fill="#00678E"/>
			<path stroke-width=".031" d="m71.149 48.131c-0.082-0.09-0.117-0.209-0.094-0.441-0.006-0.006-0.01-0.014-0.014-0.021-0.053-0.082-0.113-0.184-0.174-0.277-0.031 0.182-0.029 0.572 0.037 0.748 0.075-0.005 0.159-0.009 0.245-0.009z" stroke="#000" fill="#00678E"/>
			<path stroke-width=".031" d="m70.905 48.139c-0.066-0.176-0.068-0.566-0.037-0.748-0.041-0.064-0.084-0.125-0.123-0.174-0.057 0.188-0.039 0.73 0.049 0.924 0.035 0 0.072-0.002 0.111-0.002z" stroke="#000" fill="#fff"/>
			<path stroke-width=".031" d="m71.56 48.316c0.006-0.021 0.012-0.041 0.023-0.06-0.223-0.186-0.391-0.676-0.477-0.881-0.098-0.234-0.191-0.457-0.342-0.393 0.021-0.012 0.043-0.02 0.064-0.027-0.098 0.035-0.184 0.08-0.229 0.154 0 0.002-0.002 0.004-0.004 0.006 0.113-0.021 0.307 0.338 0.445 0.553 0.123 0.193 0.229 0.475 0.52 0.648z" stroke="#000" fill="#00678E"/>
			<path stroke-width=".031" d="m71.245 47.066c0.094 0.141 0.193 0.604 0.391 1.123 0.012-0.008 0.024-0.018 0.037-0.025-0.037-0.473-0.08-0.885-0.111-1.092-0.031-0.211-0.271-0.277-0.461-0.207-0.023 0.01-0.049 0.018-0.074 0.025 0.077-0.015 0.122 0.04 0.218 0.176z" stroke="#000" fill="#00678E"/>
			<path stroke-width=".031" d="m71.106 47.375c0.086 0.205 0.254 0.695 0.477 0.881 0.014-0.025 0.031-0.047 0.053-0.066-0.197-0.52-0.297-0.982-0.391-1.123-0.104-0.148-0.148-0.199-0.238-0.17-0.064 0.02-0.148 0.043-0.242 0.086 0.15-0.065 0.244 0.158 0.341 0.392z" stroke="#000" fill="#fff"/>
			<path stroke-width=".031" d="m72.735 48.207c-0.02-0.016-0.037-0.031-0.055-0.043-0.111 0.078-0.293 0.129-0.412 0.139-0.006 0.01-0.012 0.018-0.018 0.027 0.006 0.053 0.006 0.109 0.002 0.16 0.182-0.037 0.422-0.133 0.547-0.238-0.015-0.012-0.038-0.027-0.064-0.045z" stroke="#000" fill="#00678E"/>
			<path stroke-width=".031" d="m72.759 48.355c0.084-0.055 0.08-0.076 0.041-0.104-0.125 0.105-0.365 0.201-0.547 0.238 0 0.021-0.002 0.043-0.002 0.061 0.258 0.003 0.432-0.146 0.508-0.195z" stroke="#000" fill="#fff"/>
			<path stroke-width=".031" d="m72.247 47.727c0.102-0.291 0.148-0.242 0.16-0.172 0.012 0.068 0.027 0.258 0.062 0.352 0.1 0.176 0.16 0.217 0.266 0.301 0.082 0.062 0.143 0.07 0.023 0.148-0.076 0.049-0.25 0.197-0.508 0.195-0.004 0.035-0.016 0.068-0.035 0.096 0.193 0.008 0.504-0.049 0.715-0.246 0.064-0.062 0.066-0.072-0.029-0.158-0.098-0.088-0.375-0.438-0.418-0.785-0.027-0.225-0.156-0.174-0.297 0.207 0.004-0.033 0.01-0.062 0.016-0.09-0.043 0.189-0.074 0.387-0.088 0.543 0.016 0.002 0.031 0.006 0.047 0.016 0.012-0.13 0.037-0.267 0.086-0.407z" stroke="#000" fill="#00678E"/>
			<path stroke-width=".031" d="m71.562 48.504c-0.045 0.002-0.09 0.004-0.133 0.006-0.41 0.285-0.619 0.936-0.807 1.525 0.09-0.045 0.156-0.084 0.236-0.141 0.135-0.541 0.332-1.146 0.713-1.357-0.004-0.012-0.008-0.025-0.01-0.037 0.001 0 0.001 0.002 0.001 0.004z" stroke="#000" fill="#00678E"/>
			<path stroke-width=".031" d="m72.712 49.961c0.078 0.057 0.162 0.111 0.23 0.156 0.107-0.518-0.199-1.033-0.518-1.371-0.045-0.004-0.09-0.01-0.135-0.018 0.259 0.329 0.411 0.891 0.423 1.233z" stroke="#000" fill="#00678E"/>
			<path stroke-width=".031" d="m72.165 48.697l0.004-0.004c-0.002 0.002-0.006 0.004-0.01 0.008 0.217 0.258 0.246 0.748 0.248 1.199 0.012-0.01 0.025-0.025 0.031-0.031 0.012-0.012 0.02-0.02 0.027-0.025 0.01-0.01 0.02-0.018 0.025-0.023 0.008-0.008 0.018-0.016 0.025-0.023 0.045 0.049 0.117 0.107 0.195 0.164-0.012-0.342-0.164-0.904-0.422-1.232-0.039-0.011-0.082-0.021-0.123-0.033z" stroke="#000" fill="#fff"/>
			<path stroke-width=".031" d="m71.562 48.5c-0.002-0.008-0.002-0.012-0.004-0.018v-0.008c-0.002-0.008-0.004-0.016-0.004-0.023-0.006-0.051-0.004-0.096 0.006-0.135-0.082-0.051-0.15-0.107-0.209-0.17-0.35-0.053-0.713 0.059-0.768-0.072 0.068 0.215 0.1 0.457 0.846 0.436 0.043-0.002 0.088-0.004 0.133-0.006v-0.004z" stroke="#000" fill="#00678E"/>
			<path stroke-width=".031" d="m73.257 48.145c-0.145-0.186-0.328-0.607-0.441-0.898-0.109-0.289-0.424-0.332-0.533 0.023-0.018 0.053-0.035 0.111-0.049 0.168 0.037-0.125 0.082-0.199 0.125-0.266 0.062-0.096 0.246-0.16 0.285 0.107 0.055 0.371 0.211 0.701 0.461 0.957 0.078 0.082 0.088 0.146-0.068 0.27-0.125 0.1-0.393 0.213-0.664 0.188-0.045-0.006-0.09-0.014-0.133-0.027-0.01-0.002-0.021-0.006-0.031-0.01l-0.002 0.002c-0.004 0.006-0.01 0.012-0.016 0.018-0.002 0.004-0.006 0.004-0.008 0.008-0.004 0.002-0.008 0.006-0.012 0.01 0 0-0.004 0.002-0.006 0.004 0.041 0.012 0.084 0.021 0.125 0.031 0.045 0.008 0.09 0.014 0.135 0.018 0.268 0.025 0.512-0.031 0.658-0.127 0.217-0.141 0.316-0.293 0.174-0.476z" stroke="#000" fill="#00678E"/>
			<path stroke-width=".031" d="m72.325 48.205c0.021-0.039 0.041-0.072 0.055-0.1 0.021-0.039 0.037-0.072 0.049-0.098 0.01-0.021 0.016-0.039 0.021-0.051 0.008-0.018 0.014-0.035 0.02-0.051-0.035-0.094-0.051-0.283-0.062-0.352-0.012-0.07-0.059-0.119-0.16 0.172-0.049 0.141-0.074 0.277-0.086 0.406 0.01 0.004 0.021 0.012 0.031 0.021 0.037 0.035 0.053 0.102 0.059 0.176 0.02-0.031 0.05-0.082 0.073-0.123z" stroke="#000" fill="#00678E"/>
			<path stroke-width=".031" d="m72.483 47.457c0.043 0.348 0.32 0.697 0.418 0.785 0.096 0.086 0.094 0.096 0.029 0.158-0.211 0.197-0.521 0.254-0.715 0.246-0.002 0.002-0.004 0.006-0.008 0.01 0.322 0.111 0.68-0.031 0.828-0.15 0.156-0.123 0.146-0.188 0.068-0.27-0.25-0.256-0.406-0.586-0.461-0.957-0.039-0.268-0.223-0.203-0.285-0.107-0.062 0.098-0.133 0.217-0.172 0.492 0.142-0.381 0.271-0.432 0.298-0.207z" stroke="#000" fill="#fff"/>
			<path stroke-width=".031" d="m72.159 48.701c0.051-0.033 0.088-0.088 0.092-0.156 0.006-0.125 0.016-0.32-0.059-0.391-0.074-0.072-0.18-0.02-0.213 0-0.055 0.035-0.098-0.051-0.166-0.039-0.186 0.031-0.277 0.137-0.26 0.324v0.012c0.021 0.193 0.182 0.445 0.443 0.277 0.06 0.014 0.116 0.002 0.163-0.027z" stroke="#000" fill="#00678E"/>
			<path stroke-width=".031" d="m72.192 48.154c-0.074-0.072-0.18-0.02-0.213 0-0.045 0.029-0.08-0.021-0.129-0.035-0.146-0.014-0.262 0.242-0.18 0.42 0.064 0.139 0.15 0.213 0.279 0.186 0.045-0.008 0.006-0.029-0.037-0.045s-0.154-0.102-0.131-0.195c0.025-0.094 0.059-0.068 0.07 0.008 0.012 0.076 0.062 0.141 0.109 0.164 0.051 0.023 0.131 0.049 0.07-0.025-0.062-0.076-0.102-0.232-0.072-0.32 0.033-0.095 0.174-0.191 0.234-0.158z" stroke="#000" fill="#fff"/>
			<polygon stroke-width=".031" points="67.044 43.008 72.003 34.416 76.966 43.008" stroke="#000" fill="none"/>
</g>
</svg>
