<?xml version="1.0" encoding="UTF-8" standalone="no"?>
<!-- Generator: Adobe Illustrator 18.0.0, SVG Export Plug-In . SVG Version: 6.00 Build 0)  -->
<!DOCTYPE svg  PUBLIC '-//W3C//DTD SVG 1.1//EN'  'http://www.w3.org/Graphics/SVG/1.1/DTD/svg11.dtd'>
<svg style="enable-background:new 0 0 144 80" xmlns="http://www.w3.org/2000/svg" xml:space="preserve" version="1.1" y="0px" x="0px" xmlns:xlink="http://www.w3.org/1999/xlink" viewBox="0 0 144 80">
<g id="MAR">
		<polygon points="144 80 144 0 0 0 0 80" fill="#C1272D"/>
			<path d="m72 41.777" fill="#C1272D"/>
			<path stroke-width=".0895" d="m72 41.777" stroke="#000" fill="none"/>
			<polygon points="72.003 23.215 67.839 36.043 54.352 36.043 65.269 43.959 61.088 56.785 71.997 48.85 82.902 56.785 78.729 43.961 89.648 36.043 76.159 36.043" fill="#008256"/>
			<polygon points="72.003 23.215 67.839 36.043 54.352 36.043 65.269 43.959 61.088 56.785 71.997 48.85 82.902 56.785 78.729 43.961 89.648 36.043 76.159 36.043" fill="#006233"/>
			<polygon points="70.479 36.043 73.519 36.043 71.996 31.377" fill="#C1272D"/>
			<polygon stroke-width=".0895" points="70.479 36.043 73.519 36.043 71.996 31.377" stroke="#000" fill="none"/>
			<polygon points="67.028 38.559 62.111 38.559 66.079 41.445" fill="#C1272D"/>
			<polygon stroke-width=".0895" points="67.028 38.559 62.111 38.559 66.079 41.445" stroke="#000" fill="none"/>
			<polygon points="67.405 45.508 65.892 50.182 69.859 47.301" fill="#C1272D"/>
			<polygon stroke-width=".0895" points="67.405 45.508 65.892 50.182 69.859 47.301" stroke="#000" fill="none"/>
			<polygon points="74.131 47.295 78.111 50.182 76.596 45.518" fill="#C1272D"/>
			<polygon stroke-width=".0895" points="74.131 47.295 78.111 50.182 76.596 45.518" stroke="#000" fill="none"/>
			<polygon points="71.998 45.746 75.778 43 74.335 38.559 69.663 38.559 68.218 43" fill="#C1272D"/>
			<polygon stroke-width=".0895" points="71.998 45.746 75.778 43 74.335 38.559 69.663 38.559 68.218 43" stroke="#000" fill="none"/>
			<polygon points="76.979 38.559 81.884 38.559 77.909 41.451" fill="#C1272D"/>
			<polygon stroke-width=".0895" points="76.979 38.559 81.884 38.559 77.909 41.451" stroke="#000" fill="none"/>
</g>
</svg>
