<?xml version="1.0" encoding="UTF-8" standalone="no"?>
<!-- Generator: Adobe Illustrator 18.0.0, SVG Export Plug-In . SVG Version: 6.00 Build 0)  -->

<svg
   xmlns:dc="http://purl.org/dc/elements/1.1/"
   xmlns:cc="http://creativecommons.org/ns#"
   xmlns:rdf="http://www.w3.org/1999/02/22-rdf-syntax-ns#"
   xmlns:svg="http://www.w3.org/2000/svg"
   xmlns="http://www.w3.org/2000/svg"
   xmlns:sodipodi="http://sodipodi.sourceforge.net/DTD/sodipodi-0.dtd"
   xmlns:inkscape="http://www.inkscape.org/namespaces/inkscape"
   style="enable-background:new 0 0 144 80"
   xml:space="preserve"
   version="1.1"
   y="0px"
   x="0px"
   viewBox="0 0 144 80"
   id="svg2"
   inkscape:version="0.91 r13725"
   sodipodi:docname="mongolia.svg"><metadata
     id="metadata68"><rdf:RDF><cc:Work
         rdf:about=""><dc:format>image/svg+xml</dc:format><dc:type
           rdf:resource="http://purl.org/dc/dcmitype/StillImage" /></cc:Work></rdf:RDF></metadata><defs
     id="defs66" /><sodipodi:namedview
     pagecolor="#ffffff"
     bordercolor="#666666"
     borderopacity="1"
     objecttolerance="10"
     gridtolerance="10"
     guidetolerance="10"
     inkscape:pageopacity="0"
     inkscape:pageshadow="2"
     inkscape:window-width="1444"
     inkscape:window-height="836"
     id="namedview64"
     showgrid="false"
     inkscape:zoom="0.10228969"
     inkscape:cx="109.16129"
     inkscape:cy="-220.12903"
     inkscape:window-x="0"
     inkscape:window-y="0"
     inkscape:window-maximized="0"
     inkscape:current-layer="svg2" /><rect
     x="0"
     y="-0.14062153"
     width="143.98291"
     height="79.234207"
     id="rect4"
     style="fill:#ce1126" /><rect
     x="0"
     y="19.680756"
     width="143.98291"
     height="39.625652"
     id="rect6"
     style="fill:#002868" /><circle
     cx="72.290741"
     cy="39.690258"
     r="15.802376"
     id="circle8"
     style="fill:#ffffff" /><g
     id="g10"
     transform="matrix(0.17102138,0,0,0.17102138,0,-61.947749)"><g
       transform="scale(5,5)"
       id="g12"><g
         id="g14"><rect
           x="0"
           y="72.300003"
           width="168.39999"
           height="93.699997"
           id="rect16"
           style="fill:#c4272f" /></g><g
         id="g18"><rect
           x="56.099998"
           y="72.300003"
           width="56.099998"
           height="93.699997"
           id="rect20"
           style="fill:#015197" /></g><g
         id="g22"><circle
           cx="28.1"
           cy="105"
           r="7.6999998"
           id="circle24"
           style="fill:#f9cf02" /></g><g
         id="g26"><circle
           cx="28.1"
           cy="101.5"
           r="8.3999996"
           id="circle28"
           style="fill:#c4272f" /></g><g
         id="g30"><circle
           cx="28.1"
           cy="102.9"
           r="5.5999999"
           id="circle32"
           style="fill:#f9cf02" /></g><g
         id="g34"><path
           d="m 24.6,92.4 c 0,1.9 1.6,3.5 3.5,3.5 1.9,0 3.5,-1.6 3.5,-3.5 0,-1.4 -0.9,-1.6 -0.9,-2.1 0,-0.5 0.5,-1.2 -0.5,-2.1 0.5,0.9 -0.4,1.1 -0.4,1.9 0,0.8 0.4,0.9 0.4,1.6 0,0.4 -0.3,0.7 -0.7,0.7 -0.4,0 -0.7,-0.3 -0.7,-0.7 0,-0.7 0.7,-1.4 0.7,-2.5 0,-1.1 -0.2,-1.4 -0.7,-2.3 -0.5,-0.9 -1.4,-1.6 -0.7,-2.3 -1.1,0.4 -0.5,1.8 -0.5,2.6 0,0.8 -0.7,1.4 -0.7,2.5 0,1.1 0.5,1.2 0.5,1.9 0,0.4 -0.3,0.7 -0.7,0.7 -0.4,0 -0.7,-0.3 -0.7,-0.7 0,-0.7 0.4,-0.7 0.4,-1.6 0,-0.9 -0.9,-1.1 -0.4,-1.9 -1.1,0.9 -0.5,1.6 -0.5,2.1 -0.1,0.6 -0.9,0.8 -0.9,2.2 z"
           id="path36"
           inkscape:connector-curvature="0"
           style="fill:#f9cf02" /></g><g
         id="g38"><path
           d="m 12.6,114.2 0,33.7 7,0 0,-33.7 -7,0 z m 23.9,0 0,33.7 7,0 0,-33.7 -7,0 z m -15.5,5.6 0,2.8 14,0 0,-2.8 -14,0 z m 0,19.6 0,2.8 14,0 0,-2.8 -14,0 z m 0,-25.2 14,0 -7,4.2 -7,-4.2 z m 0,29.4 14,0 -7,4.2 -7,-4.2 z"
           id="path40"
           inkscape:connector-curvature="0"
           style="fill:#f9cf02" /></g></g><g
       id="g42"><g
         id="g44"><circle
           cx="140.3"
           cy="655"
           r="37.200001"
           id="circle46"
           style="fill:#f9cf02" /><path
           d="m 140.3,694.3 c -10.5,0 -20.4,-4.1 -27.8,-11.5 -7.4,-7.4 -11.5,-17.3 -11.5,-27.8 0,-10.5 4.1,-20.4 11.5,-27.8 7.4,-7.4 17.3,-11.5 27.8,-11.5 10.5,0 20.4,4.1 27.8,11.5 7.4,7.4 11.5,17.3 11.5,27.8 0,10.5 -4.1,20.4 -11.5,27.8 -7.4,7.4 -17.3,11.5 -27.8,11.5 z m 0,-74.3 c -19.3,0 -35.1,15.7 -35.1,35.1 0,19.4 15.7,35.1 35.1,35.1 19.4,0 35.1,-15.7 35.1,-35.1 0,-19.4 -15.7,-35.1 -35.1,-35.1 z"
           id="path48"
           inkscape:connector-curvature="0"
           style="fill:#c4272f" /></g><g
         id="g50"><path
           d="m 140.3,694.3 c -11.4,0 -20.7,-9.3 -20.7,-20.7 0,-11.4 9.3,-20.7 20.7,-20.7 9.1,0 16.5,-7.4 16.5,-16.5 0,-9.1 -7.4,-16.5 -16.5,-16.5 l 0,-4.2 c 11.4,0 20.7,9.3 20.7,20.7 0,11.4 -9.3,20.7 -20.7,20.7 -9.1,0 -16.5,7.4 -16.5,16.5 0,9.1 7.4,16.5 16.5,16.5 l 0,4.2 z"
           id="path52"
           inkscape:connector-curvature="0"
           style="fill:#c4272f" /></g></g></g><g
     id="g54"
     transform="matrix(0.17102138,0,0,0.17102138,0,-61.947749)"><g
       id="g56"><circle
         cx="143"
         cy="636"
         r="6.9000001"
         id="circle58"
         style="fill:#c4272f" /></g><g
       id="g60"><circle
         cx="143"
         cy="672.79999"
         r="6.9000001"
         id="circle62"
         style="fill:#c4272f" /></g></g></svg>