<?xml version="1.0" encoding="UTF-8" standalone="no"?>
<!-- Generator: Adobe Illustrator 18.0.0, SVG Export Plug-In . SVG Version: 6.00 Build 0)  -->
<!DOCTYPE svg  PUBLIC '-//W3C//DTD SVG 1.1//EN'  'http://www.w3.org/Graphics/SVG/1.1/DTD/svg11.dtd'>
<svg style="enable-background:new 0 0 144 80" xmlns="http://www.w3.org/2000/svg" xml:space="preserve" version="1.1" y="0px" x="0px" xmlns:xlink="http://www.w3.org/1999/xlink" viewBox="0 0 144 80">
<g id="NAM">
		<polygon points="0 80 144 80 144 0" fill="#009543"/>
		<polygon points="144 0 0 0 0 80" fill="#003580"/>
		<polygon stroke-width=".0396" points="22.191 36.394 24.621 30.232 29.893 34.315 29.033 27.802 35.548 28.661 31.509 23.436 37.625 20.959 31.509 18.484 35.548 13.257 29.033 14.116 29.893 7.603 24.621 11.686 22.191 5.525 19.761 11.686 14.487 7.603 15.349 14.116 8.835 13.257 12.872 18.484 6.757 20.959 12.872 23.436 8.835 28.661 15.349 27.802 14.487 34.315 19.761 30.232" stroke="#006BB5" fill="#FCB727"/>
		<path stroke-width="1.5838" d="m22.191 29.485c4.708 0 8.526-3.817 8.526-8.526s-3.818-8.526-8.526-8.526c-4.709 0-8.526 3.817-8.526 8.526s3.817 8.526 8.526 8.526z" stroke="#003580" fill="none"/>
		<polygon points="144 15.943 28.745 80 0 80 0 64.058 115.28 0 144 0" fill="#fff"/>
		<polygon points="144 10.705 19.268 80 0 80 0 69.298 124.71 0 144 0" fill="#D21034"/>
</g>
</svg>
