<?xml version="1.0" encoding="UTF-8" standalone="no"?>
<!-- Generator: Adobe Illustrator 18.0.0, SVG Export Plug-In . SVG Version: 6.00 Build 0)  -->
<!DOCTYPE svg  PUBLIC '-//W3C//DTD SVG 1.1//EN'  'http://www.w3.org/Graphics/SVG/1.1/DTD/svg11.dtd'>
<svg style="enable-background:new 0 0 144 80" xmlns="http://www.w3.org/2000/svg" xml:space="preserve" version="1.1" y="0px" x="0px" xmlns:xlink="http://www.w3.org/1999/xlink" viewBox="0 0 144 80">
<g id="CPV">
		<polygon points="144 80 144 0 0 0 0 80" fill="#003893"/>
			<polygon points="144 59.363 0 59.363 0 41.25 144 41.25" fill="#fff"/>
			<polygon points="144 53.326 144 47.288 0 47.288 0 53.326" fill="#CE1126"/>
		<g fill="#FFD420">
			<polygon points="54.17 27.199 53.249 30.062 50.221 30.062 52.681 31.842 51.735 34.701 54.17 32.925 56.605 34.701 55.673 31.817 58.121 30.072 55.104 30.072"/>
			<polygon points="42.793 30.9 41.872 33.763 38.844 33.763 41.303 35.543 40.357 38.403 42.793 36.625 45.229 38.403 44.296 35.52 46.743 33.774 43.726 33.774"/>
			<polygon points="35.751 40.581 34.83 43.441 31.801 43.441 34.26 45.223 33.315 48.083 35.751 46.306 38.186 48.083 37.254 45.199 39.7 43.454 36.684 43.454"/>
			<polygon points="35.759 52.54 34.838 55.402 31.809 55.402 34.27 57.184 33.324 60.042 35.759 58.266 38.194 60.042 37.262 57.158 39.709 55.414 36.693 55.414"/>
			<polygon points="42.793 62.209 41.871 65.072 38.843 65.072 41.302 66.854 40.357 69.713 42.793 67.937 45.228 69.713 44.295 66.829 46.743 65.084 43.726 65.084"/>
			<polygon points="54.17 65.912 53.249 68.773 50.221 68.773 52.681 70.555 51.735 73.414 54.17 71.637 56.605 73.414 55.673 70.53 58.121 68.786 55.104 68.786"/>
			<polygon points="65.537 30.9 66.458 33.763 69.487 33.763 67.027 35.543 67.973 38.403 65.537 36.625 63.102 38.403 64.035 35.52 61.587 33.774 64.604 33.774"/>
			<polygon points="72.579 40.581 73.501 43.441 76.529 43.441 74.069 45.223 75.015 48.083 72.579 46.306 70.145 48.083 71.076 45.199 68.63 43.454 71.647 43.454"/>
			<polygon points="72.571 52.54 73.492 55.402 76.521 55.402 74.062 57.184 75.007 60.042 72.571 58.266 70.136 60.042 71.068 57.158 68.621 55.414 71.638 55.414"/>
			<polygon points="65.538 62.209 66.459 65.072 69.487 65.072 67.027 66.854 67.973 69.713 65.538 67.937 63.103 69.713 64.035 66.829 61.588 65.084 64.604 65.084"/>
		</g>
</g>
</svg>
