<?xml version="1.0" encoding="UTF-8" standalone="no"?>
<!-- Generator: Adobe Illustrator 18.0.0, SVG Export Plug-In . SVG Version: 6.00 Build 0)  -->

<svg
   xmlns:dc="http://purl.org/dc/elements/1.1/"
   xmlns:cc="http://creativecommons.org/ns#"
   xmlns:rdf="http://www.w3.org/1999/02/22-rdf-syntax-ns#"
   xmlns:svg="http://www.w3.org/2000/svg"
   xmlns="http://www.w3.org/2000/svg"
   xmlns:sodipodi="http://sodipodi.sourceforge.net/DTD/sodipodi-0.dtd"
   xmlns:inkscape="http://www.inkscape.org/namespaces/inkscape"
   style="enable-background:new 0 0 144 80"
   xml:space="preserve"
   version="1.1"
   y="0px"
   x="0px"
   viewBox="0 0 144 80"
   id="svg3404"
   inkscape:version="0.91 r13725"
   sodipodi:docname="nepal.svg"><metadata
     id="metadata3478"><rdf:RDF><cc:Work
         rdf:about=""><dc:format>image/svg+xml</dc:format><dc:type
           rdf:resource="http://purl.org/dc/dcmitype/StillImage" /></cc:Work></rdf:RDF></metadata><defs
     id="defs3476" /><sodipodi:namedview
     pagecolor="#ffffff"
     bordercolor="#666666"
     borderopacity="1"
     objecttolerance="10"
     gridtolerance="10"
     guidetolerance="10"
     inkscape:pageopacity="0"
     inkscape:pageshadow="2"
     inkscape:window-width="1277"
     inkscape:window-height="737"
     id="namedview3474"
     showgrid="false"
     inkscape:zoom="0.5"
     inkscape:cx="264.21477"
     inkscape:cy="-67.38255"
     inkscape:window-x="0"
     inkscape:window-y="0"
     inkscape:window-maximized="0"
     inkscape:current-layer="svg3404" /><g
     id="Layer_1"
     transform="matrix(0.17083877,0,0,0.17083877,0.08541938,-61.779092)"><g
       id="Layer_2"><rect
         x="0"
         y="361.39999"
         stroke-miterlimit="10"
         width="841.90002"
         height="234"
         id="rect3408"
         style="fill:#ffffff;stroke:#ffffff;stroke-miterlimit:10" /><rect
         x="0"
         y="595.40002"
         stroke-miterlimit="10"
         width="841.90002"
         height="234"
         id="rect3410"
         style="fill:#ffffff;stroke:#ffffff;stroke-miterlimit:10" /></g></g><g
     id="Layer_2_1_"
     transform="matrix(0.17083877,0,0,0.17083877,0.08541938,-61.779092)"><g
       id="g3413"><path
         id="b"
         d="m 292.1,583.3 297.8,0 -297.8,-186.4 0,397 297.8,0 -297.8,-297.8 0,87.2 z"
         inkscape:connector-curvature="0"
         style="fill:#dc143c;stroke:#003893;stroke-width:5.16470003" /></g><path
       id="b_1_"
       d="m 292.1,583.3 297.8,0 -297.8,-186.4 0,397 297.8,0 -297.8,-297.8 0,87.2 z"
       inkscape:connector-curvature="0"
       style="fill:#dc143c" /></g><g
     id="Layer_3"
     transform="matrix(0.17083877,0,0,0.17083877,0.08541938,-61.779092)"><g
       id="g3418"><path
         d="m 309,510.6 c 9,23.1 33,39.4 57.8,39.4 24.8,0 48.8,-16.4 57.8,-39.4 0,15.1 -6.2,30.2 -16.9,40.9 -10.7,10.7 -25.8,16.9 -40.9,16.9 -15.1,0 -30.2,-6.2 -40.9,-16.9 C 315.2,540.8 309,525.8 309,510.6"
         id="path3420"
         inkscape:connector-curvature="0"
         style="fill:#ffffff" /><path
         d="m 393.7,537.5 c 0,14.9 -12.1,26.9 -26.9,26.9 -14.9,0 -26.9,-12.1 -26.9,-26.9 0,-14.9 12.1,-26.9 26.9,-26.9 14.9,0 26.9,12.1 26.9,26.9 l 0,0 z"
         id="path3422"
         inkscape:connector-curvature="0"
         style="fill:#ffffff" /><polyline
         points="377.1,512.7 374.1,500.9 366.8,510.6   "
         id="polyline3424"
         style="fill:#ffffff" /><polyline
         points="385.8,518.5 387.6,506.5 377.1,512.7   "
         id="polyline3426"
         style="fill:#ffffff" /><polyline
         points="391.7,527.2 397.9,516.8 385.8,518.5   "
         id="polyline3428"
         style="fill:#ffffff" /><polyline
         points="393.7,537.5 403.5,530.3 391.7,527.2   "
         id="polyline3430"
         style="fill:#ffffff" /><polyline
         points="391.7,547.8 403.5,544.8 393.7,537.5   "
         id="polyline3432"
         style="fill:#ffffff" /><polyline
         points="385.8,556.6 397.9,558.3 391.7,547.8   "
         id="polyline3434"
         style="fill:#ffffff" /><polyline
         points="356.5,512.7 359.5,500.9 366.8,510.6   "
         id="polyline3436"
         style="fill:#ffffff" /><polyline
         points="347.8,518.5 346,506.5 356.5,512.7   "
         id="polyline3438"
         style="fill:#ffffff" /><polyline
         points="341.9,527.2 335.7,516.8 347.8,518.5   "
         id="polyline3440"
         style="fill:#ffffff" /><polyline
         points="339.9,537.5 330.1,530.3 341.9,527.2   "
         id="polyline3442"
         style="fill:#ffffff" /><polyline
         points="341.9,547.8 330.1,544.8 339.9,537.5   "
         id="polyline3444"
         style="fill:#ffffff" /><polyline
         points="347.8,556.6 335.7,558.3 341.9,547.8   "
         id="polyline3446"
         style="fill:#ffffff" /><path
         d="m 406.2,686.5 c 0,21.8 -17.6,39.4 -39.4,39.4 -21.8,0 -39.4,-17.6 -39.4,-39.4 0,-21.8 17.6,-39.4 39.4,-39.4 21.8,0 39.4,17.6 39.4,39.4 l 0,0 z"
         id="path3448"
         inkscape:connector-curvature="0"
         style="fill:#ffffff" /><polyline
         points="377,724.6 366.8,748.7 356.6,724.6   "
         id="polyline3450"
         style="fill:#ffffff" /><polyline
         points="356.6,648.4 366.8,624.4 377,648.4   "
         id="polyline3452"
         style="fill:#ffffff" /><polyline
         points="328.7,696.7 304.6,686.5 328.7,676.3   "
         id="polyline3454"
         style="fill:#ffffff" /><polyline
         points="404.9,676.3 429,686.5 404.9,696.7   "
         id="polyline3456"
         style="fill:#ffffff" /><polyline
         points="356.6,724.6 335.7,740.3 338.9,714.4   "
         id="polyline3458"
         style="fill:#ffffff" /><polyline
         points="377,648.4 397.9,632.7 394.7,658.6   "
         id="polyline3460"
         style="fill:#ffffff" /><polyline
         points="328.7,676.3 313,655.4 338.9,658.6   "
         id="polyline3462"
         style="fill:#ffffff" /><polyline
         points="404.9,696.7 420.6,717.6 394.7,714.4   "
         id="polyline3464"
         style="fill:#ffffff" /><polyline
         points="338.9,714.4 313,717.6 328.7,696.7   "
         id="polyline3466"
         style="fill:#ffffff" /><polyline
         points="394.7,658.6 420.6,655.4 404.9,676.3   "
         id="polyline3468"
         style="fill:#ffffff" /><polyline
         points="338.9,658.6 335.7,632.7 356.6,648.4   "
         id="polyline3470"
         style="fill:#ffffff" /><polyline
         points="394.7,714.4 397.9,740.3 377,724.6   "
         id="polyline3472"
         style="fill:#ffffff" /></g></g></svg>