<?xml version="1.0" encoding="UTF-8" standalone="no"?>
<!-- Generator: Adobe Illustrator 18.0.0, SVG Export Plug-In . SVG Version: 6.00 Build 0)  -->
<!DOCTYPE svg  PUBLIC '-//W3C//DTD SVG 1.1//EN'  'http://www.w3.org/Graphics/SVG/1.1/DTD/svg11.dtd'>
<svg style="enable-background:new 0 0 144 80" xmlns="http://www.w3.org/2000/svg" xml:space="preserve" version="1.1" y="0px" x="0px" xmlns:xlink="http://www.w3.org/1999/xlink" viewBox="0 0 144 80">
<g id="JOR">
		<polygon points="144 53.227 0 53.227 0 26.613 144 26.613" fill="#fff"/>
		<polygon points="144 26.613 0 26.613 0 0 144 0"/>
		<polygon points="144 79.842 0 79.842 0 53.227 144 53.227" fill="#008248"/>
			<polygon points="76.973 40.02 0 80.039 0 0" fill="#EC1C2E"/>
			<polygon points="30.47 37.198 33.546 36.548 32.231 39.391 34.665 41.395 31.612 42.14 31.559 45.284 29.085 43.352 26.585 45.284 26.55 42.129 23.479 41.395 25.931 39.399 24.585 36.548 27.663 37.212 29.069 34.381" fill="#fff"/>
</g>
</svg>
