<?xml version="1.0" encoding="UTF-8" standalone="no"?>
<!-- Generator: Adobe Illustrator 18.0.0, SVG Export Plug-In . SVG Version: 6.00 Build 0)  -->
<!DOCTYPE svg  PUBLIC '-//W3C//DTD SVG 1.1//EN'  'http://www.w3.org/Graphics/SVG/1.1/DTD/svg11.dtd'>
<svg style="enable-background:new 0 0 144 80" xmlns="http://www.w3.org/2000/svg" xml:space="preserve" version="1.1" y="0px" x="0px" xmlns:xlink="http://www.w3.org/1999/xlink" viewBox="0 0 144 80">
<g id="FIJ">
		<polygon points="144 80 144 0 0 0 0 80" fill="#68BFE5"/>
			<path d="m77.329 38.656" fill="#5CC9E7"/>
			<polygon points="0 0 0 38.658 77.225 38.658 77.225 0" fill="#171F69"/>
			<polygon points="0 12.882 16.31 12.882 0 4.698 0 0 9.332 0 32.147 11.373 32.147 0 44.996 0 44.996 11.373 67.812 0 77.225 0 77.225 4.698 60.834 12.882 77.225 12.882 77.225 25.774 60.834 25.774 77.225 33.958 77.225 38.658 67.812 38.658 44.996 27.284 44.996 38.658 32.147 38.658 32.147 27.284 9.332 38.658 0 38.658 0 33.958 16.31 25.774 0 25.774" fill="#fff"/>
			<polygon points="71.154 0 45.378 12.892 51.549 12.892 77.225 0" fill="#EC1C2E"/>
			<polygon points="77.225 38.658 51.521 25.774 57.718 25.774 77.225 35.587" fill="#EC1C2E"/>
			<polygon points="25.825 12.892 0 0 0 3.078 19.601 12.892" fill="#EC1C2E"/>
			<polygon points="25.772 25.774 0 38.658 6.167 38.658 31.943 25.774" fill="#EC1C2E"/>
			<polygon points="0 15.557 34.885 15.557 34.885 0 42.435 0 42.435 15.557 77.225 15.557 77.225 23.107 42.435 23.107 42.435 38.658 34.885 38.658 34.885 23.107 0 23.107" fill="#EC1C2E"/>
			<path d="m123.94 23.769v22.112c0 4.889-6.337 9.777-13.297 12.687-6.96-2.909-13.296-7.798-13.296-12.687v-22.112h26.596z" fill="#EC1C2E"/>
			<path stroke-width=".0338" d="m123.94 23.769v22.112c0 4.889-6.337 9.777-13.297 12.687-6.96-2.909-13.296-7.798-13.296-12.687v-22.112h26.596z" stroke="#000" fill="none"/>
			<path d="m108.15 57.422c-5.912-2.952-10.805-7.243-10.805-11.541h10.805v11.541z" fill="#fff"/>
			<path stroke-width=".0338" d="m108.15 57.422c-5.912-2.952-10.805-7.243-10.805-11.541h10.805v11.541z" stroke="#000" fill="none"/>
			<path d="m97.349 40.901v-8.096h10.805v8.096h-10.801z" fill="#fff"/>
			<path stroke-width=".0338" d="m97.349 40.901v-8.096h10.805v8.096h-10.801z" stroke="#000" fill="none"/>
			<path d="m113.14 57.422c5.912-2.952 10.805-7.243 10.805-11.541h-10.805v11.541z" fill="#fff"/>
			<path stroke-width=".0338" d="m113.14 57.422c5.912-2.952 10.805-7.243 10.805-11.541h-10.805v11.541z" stroke="#000" fill="none"/>
			<path d="m123.94 40.901v-8.096h-10.805v8.096h10.8z" fill="#fff"/>
			<path stroke-width=".0338" d="m123.94 40.901v-8.096h-10.805v8.096h10.8z" stroke="#000" fill="none"/>
			<path d="m119.68 47.614c0.57-0.497 1.877-0.553 2.332-0.221 0.103 0.075 0.295 0.011 0.316-0.354 0.02-0.365-0.132-0.569-0.655-0.561s-1.786-0.063-2.616 0.797c-0.43 0.447 0.2 0.63 0.62 0.339z" fill="#B03427"/>
			<path stroke-width=".0338" d="m119.68 47.614c0.57-0.497 1.877-0.553 2.332-0.221 0.103 0.075 0.295 0.011 0.316-0.354 0.02-0.365-0.132-0.569-0.655-0.561s-1.786-0.063-2.616 0.797c-0.43 0.447 0.2 0.63 0.62 0.339z" stroke="#000" fill="none"/>
			<path d="m115.85 52.553c-0.186 0.165-0.482 0.716-0.607 0.936-0.126 0.22-0.295 0.369-0.709 0.502-0.668 0.214-0.228 0.44-0.737 1.231 0.315-0.019 0.727-0.174 0.875-0.329 0.118 0.146 0.263 0.255 0.362 0.285 0.024-0.213 0.345-0.295 0.339-0.422 0.044 0.116 0.186 0.263 0.283 0.331 0.046-0.136 0.264-0.426 0.434-0.53-0.01-0.157-0.168-0.148-0.173-0.501-0.007-0.353-0.226-0.491 0.229-0.951 0.37-0.358 0.3-1.125-0.28-0.552z" fill="#B03427"/>
			<path stroke-width=".0338" d="m115.85 52.553c-0.186 0.165-0.482 0.716-0.607 0.936-0.126 0.22-0.295 0.369-0.709 0.502-0.668 0.214-0.228 0.44-0.737 1.231 0.315-0.019 0.727-0.174 0.875-0.329 0.118 0.146 0.263 0.255 0.362 0.285 0.024-0.213 0.345-0.295 0.339-0.422 0.044 0.116 0.186 0.263 0.283 0.331 0.046-0.136 0.264-0.426 0.434-0.53-0.01-0.157-0.168-0.148-0.173-0.501-0.007-0.353-0.226-0.491 0.229-0.951 0.37-0.358 0.3-1.125-0.28-0.552zm6.16-5.159c-0.158-0.104-0.108-0.422-0.09-0.541 0.02-0.118 0.12-0.333 0.224-0.271m-7.47 8.311c0.046-0.042 0.059-0.148 0.059-0.375m0.64 0.238c0.007-0.119 0.085-0.278 0.089-0.454" stroke="#000" fill="none"/>
			<path d="m121.13 49.127c-0.338-0.262-0.7 0.35-1.021 0.762-0.32 0.412-0.7 1.012-0.488 1.177 0.214 0.165 0.809-0.242 1.13-0.654 0.32-0.414 0.72-1.021 0.38-1.285z" fill="#FFE152"/>
			<path stroke-width=".0338" d="m121.13 49.127c-0.338-0.262-0.7 0.35-1.021 0.762-0.32 0.412-0.7 1.012-0.488 1.177 0.214 0.165 0.809-0.242 1.13-0.654 0.32-0.414 0.72-1.021 0.38-1.285z" stroke="#000" fill="none"/>
			<path d="m120.94 48.751c-0.305-0.302-0.736 0.264-1.104 0.635-0.368 0.372-0.814 0.922-0.623 1.111 0.191 0.19 0.83-0.145 1.197-0.517 0.36-0.371 0.82-0.927 0.52-1.229z" fill="#FFE152"/>
			<path stroke-width=".0338" d="m120.94 48.751c-0.305-0.302-0.736 0.264-1.104 0.635-0.368 0.372-0.814 0.922-0.623 1.111 0.191 0.19 0.83-0.145 1.197-0.517 0.36-0.371 0.82-0.927 0.52-1.229z" stroke="#000" fill="none"/>
			<path d="m120.62 48.329c-0.305-0.301-0.736 0.264-1.104 0.636-0.367 0.371-0.835 1.059-0.644 1.248 0.191 0.19 0.851-0.282 1.219-0.653 0.36-0.372 0.83-0.929 0.52-1.231z" fill="#FFE152"/>
			<path stroke-width=".0338" d="m120.62 48.329c-0.305-0.301-0.736 0.264-1.104 0.636-0.367 0.371-0.835 1.059-0.644 1.248 0.191 0.19 0.851-0.282 1.219-0.653 0.36-0.372 0.83-0.929 0.52-1.231z" stroke="#000" fill="none"/>
			<path d="m120.15 47.837c-0.305-0.302-0.736 0.264-1.104 0.635-0.367 0.372-0.71 1.078-0.519 1.268s0.749-0.263 1.116-0.634c0.36-0.373 0.8-0.968 0.5-1.269z" fill="#FFE152"/>
			<path stroke-width=".0338" d="m120.15 47.837c-0.305-0.302-0.736 0.264-1.104 0.635-0.367 0.372-0.71 1.078-0.519 1.268s0.749-0.263 1.116-0.634c0.36-0.373 0.8-0.968 0.5-1.269z" stroke="#000" fill="none"/>
			<path d="m118.55 46.64c-0.338-0.262-0.698 0.35-1.018 0.765-0.319 0.413-0.526 1.197-0.313 1.361 0.213 0.166 0.59-0.422 0.909-0.835 0.32-0.413 0.76-1.03 0.42-1.291z" fill="#FFE152"/>
			<path stroke-width=".0338" d="m118.55 46.64c-0.338-0.262-0.698 0.35-1.018 0.765-0.319 0.413-0.526 1.197-0.313 1.361 0.213 0.166 0.59-0.422 0.909-0.835 0.32-0.413 0.76-1.03 0.42-1.291z" stroke="#000" fill="none"/>
			<path d="m119.19 46.928c-0.326-0.277-0.714 0.32-1.052 0.719-0.337 0.398-0.577 1.173-0.372 1.347 0.206 0.174 0.607-0.395 0.945-0.794 0.33-0.399 0.8-0.995 0.47-1.272z" fill="#FFE152"/>
			<path stroke-width=".0338" d="m119.19 46.928c-0.326-0.277-0.714 0.32-1.052 0.719-0.337 0.398-0.577 1.173-0.372 1.347 0.206 0.174 0.607-0.395 0.945-0.794 0.33-0.399 0.8-0.995 0.47-1.272z" stroke="#000" fill="none"/>
			<path d="m119.64 47.38c-0.335-0.268-0.704 0.34-1.03 0.749-0.325 0.407-0.712 1.002-0.501 1.171 0.21 0.167 0.704-0.341 1.029-0.75 0.33-0.407 0.84-0.904 0.5-1.17z" fill="#FFE152"/>
			<path stroke-width=".0338" d="m119.64 47.38c-0.335-0.268-0.704 0.34-1.03 0.749-0.325 0.407-0.712 1.002-0.501 1.171 0.21 0.167 0.704-0.341 1.029-0.75 0.33-0.407 0.84-0.904 0.5-1.17z" stroke="#000" fill="none"/>
			<path d="m117.19 48.172c-0.424-0.187-0.801 0.496-1.028 1.012-0.228 0.517-0.308 1.297-0.042 1.414 0.266 0.118 0.641-0.549 0.869-1.065 0.23-0.517 0.62-1.175 0.2-1.361z" fill="#FFE152"/>
			<path stroke-width=".0338" d="m117.19 48.172c-0.424-0.187-0.801 0.496-1.028 1.012-0.228 0.517-0.308 1.297-0.042 1.414 0.266 0.118 0.641-0.549 0.869-1.065 0.23-0.517 0.62-1.175 0.2-1.361z" stroke="#000" fill="none"/>
			<path d="m117.76 48.405c-0.421-0.191-0.807 0.486-1.04 1s-0.508 1.459-0.243 1.579c0.265 0.121 0.833-0.708 1.066-1.222 0.23-0.512 0.63-1.165 0.21-1.357z" fill="#FFE152"/>
			<path stroke-width=".0338" d="m117.76 48.405c-0.421-0.191-0.807 0.486-1.04 1s-0.508 1.459-0.243 1.579c0.265 0.121 0.833-0.708 1.066-1.222 0.23-0.512 0.63-1.165 0.21-1.357z" stroke="#000" fill="none"/>
			<path d="m118.15 48.769c-0.379-0.198-0.626 0.468-0.868 0.932-0.242 0.463-0.726 1.305-0.398 1.477 0.331 0.172 0.754-0.701 0.997-1.164 0.24-0.464 0.65-1.047 0.27-1.245z" fill="#FFE152"/>
			<path stroke-width=".0338" d="m118.15 48.769c-0.379-0.198-0.626 0.468-0.868 0.932-0.242 0.463-0.726 1.305-0.398 1.477 0.331 0.172 0.754-0.701 0.997-1.164 0.24-0.464 0.65-1.047 0.27-1.245z" stroke="#000" fill="none"/>
			<path d="m120 50.87c-0.26-0.341-0.734 0.274-1.149 0.592-0.415 0.317-1.052 0.544-0.826 0.84s0.798-0.024 1.212-0.342c0.42-0.317 1.03-0.75 0.77-1.09z" fill="#FFE152"/>
			<path stroke-width=".0338" d="m120 50.87c-0.26-0.341-0.734 0.274-1.149 0.592-0.415 0.317-1.052 0.544-0.826 0.84s0.798-0.024 1.212-0.342c0.42-0.317 1.03-0.75 0.77-1.09z" stroke="#000" fill="none"/>
			<path d="m119.85 50.24c-0.431-0.435-0.843 0.492-1.23 0.843-0.387 0.352-1.002 0.632-0.752 0.907s0.794-0.092 1.181-0.443c0.38-0.351 1.1-1.002 0.8-1.307z" fill="#FFE152"/>
			<path stroke-width=".0338" d="m119.85 50.24c-0.431-0.435-0.843 0.492-1.23 0.843-0.387 0.352-1.002 0.632-0.752 0.907s0.794-0.092 1.181-0.443c0.38-0.351 1.1-1.002 0.8-1.307z" stroke="#000" fill="none"/>
			<path d="m119.4 49.658c-0.494-0.399-0.778 0.295-1.106 0.703-0.327 0.406-1.09 1.363-0.8 1.596 0.289 0.233 1.072-0.724 1.4-1.13 0.33-0.407 0.84-0.9 0.51-1.169z" fill="#FFE152"/>
			<path stroke-width=".0338" d="m119.4 49.658c-0.494-0.399-0.778 0.295-1.106 0.703-0.327 0.406-1.09 1.363-0.8 1.596 0.289 0.233 1.072-0.724 1.4-1.13 0.33-0.407 0.84-0.9 0.51-1.169z" stroke="#000" fill="none"/>
			<path d="m118.79 49.107c-0.451-0.283-0.662 0.416-0.94 0.858-0.279 0.442-1.004 1.447-0.689 1.645 0.314 0.199 0.982-0.842 1.261-1.283 0.28-0.443 0.73-0.992 0.37-1.22z" fill="#FFE152"/>
			<path stroke-width=".0338" d="m118.79 49.107c-0.451-0.283-0.662 0.416-0.94 0.858-0.279 0.442-1.004 1.447-0.689 1.645 0.314 0.199 0.982-0.842 1.261-1.283 0.28-0.443 0.73-0.992 0.37-1.22z" stroke="#000" fill="none"/>
			<path d="m116.02 50.179c-0.366-0.119-0.484 0.51-0.629 0.957-0.145 0.446-0.28 1.068-0.051 1.144 0.231 0.074 0.485-0.51 0.629-0.957 0.15-0.448 0.42-1.025 0.05-1.144z" fill="#FFE152"/>
			<path stroke-width=".0338" d="m116.02 50.179c-0.366-0.119-0.484 0.51-0.629 0.957-0.145 0.446-0.28 1.068-0.051 1.144 0.231 0.074 0.485-0.51 0.629-0.957 0.15-0.448 0.42-1.025 0.05-1.144z" stroke="#000" fill="none"/>
			<path d="m116.42 50.486c-0.393-0.146-0.552 0.529-0.731 1.008-0.18 0.477-0.359 1.146-0.113 1.239 0.247 0.093 0.552-0.529 0.731-1.007 0.17-0.478 0.5-1.092 0.11-1.24z" fill="#FFE152"/>
			<path stroke-width=".0338" d="m116.42 50.486c-0.393-0.146-0.552 0.529-0.731 1.008-0.18 0.477-0.359 1.146-0.113 1.239 0.247 0.093 0.552-0.529 0.731-1.007 0.17-0.478 0.5-1.092 0.11-1.24z" stroke="#000" fill="none"/>
			<path d="m118.38 52.345c-0.178-0.251-0.557 0.051-0.862 0.269-0.306 0.218-0.689 0.552-0.577 0.709 0.188 0.265 0.605 0.013 0.909-0.203 0.31-0.219 0.71-0.525 0.53-0.775z" fill="#FFE152"/>
			<path stroke-width=".0338" d="m118.38 52.345c-0.178-0.251-0.557 0.051-0.862 0.269-0.306 0.218-0.689 0.552-0.577 0.709 0.188 0.265 0.605 0.013 0.909-0.203 0.31-0.219 0.71-0.525 0.53-0.775z" stroke="#000" fill="none"/>
			<path d="m118.01 51.89c-0.367-0.395-0.566 0.228-0.873 0.497s-0.686 0.67-0.548 0.829c0.139 0.157 0.588-0.164 0.895-0.433 0.31-0.268 0.83-0.57 0.53-0.893z" fill="#FFE152"/>
			<path stroke-width=".0338" d="m118.01 51.89c-0.367-0.395-0.566 0.228-0.873 0.497s-0.686 0.67-0.548 0.829c0.139 0.157 0.588-0.164 0.895-0.433 0.31-0.268 0.83-0.57 0.53-0.893z" stroke="#000" fill="none"/>
			<path d="m117.69 51.22c-0.324-0.297-0.674 0.368-1.034 0.764-0.362 0.396-0.799 0.978-0.595 1.164s0.745-0.3 1.105-0.696c0.37-0.396 0.86-0.935 0.53-1.232z" fill="#FFE152"/>
			<path stroke-width=".0338" d="m117.69 51.22c-0.324-0.297-0.674 0.368-1.034 0.764-0.362 0.396-0.799 0.978-0.595 1.164s0.745-0.3 1.105-0.696c0.37-0.396 0.86-0.935 0.53-1.232z" stroke="#000" fill="none"/>
			<path d="m117.04 50.823c-0.461-0.259-0.694 0.43-0.939 0.896s-0.454 1.169-0.215 1.296c0.24 0.126 0.634-0.472 0.879-0.938 0.25-0.466 0.65-1.043 0.28-1.254z" fill="#FFE152"/>
			<path stroke-width=".0338" d="m117.04 50.823c-0.461-0.259-0.694 0.43-0.939 0.896s-0.454 1.169-0.215 1.296c0.24 0.126 0.634-0.472 0.879-0.938 0.25-0.466 0.65-1.043 0.28-1.254z" stroke="#000" fill="none"/>
			<path d="m99.697 27.254c1.021 1.19 1.214 2.556 0 3.869h-0.954c-1.215-1.313-1.021-2.679 0-3.869h0.954z" fill="#fff"/>
			<path stroke-width=".0336" d="m99.697 27.254c1.021 1.19 1.214 2.556 0 3.869h-0.954c-1.215-1.313-1.021-2.679 0-3.869h0.954zm-0.243 0c0.503 1.19 0.598 2.556 0 3.869h-0.469c-0.598-1.313-0.503-2.679 0-3.869h0.469z" stroke="#000" fill="none"/>
			<path d="m103.35 27.072c-0.633 0.03-1.26-0.363-1.675-0.61-0.415-0.246-1.065-0.416-1.351-0.233-0.578 0.37-0.668 0.518-0.876 0.455-0.364-0.111-0.475-0.124-0.779 0.091-0.323 0.227-0.349 0.577-0.257 0.76 0.033 0.064 0.104 0.158 0.191 0.148 0.046 0.066 0.144 0.173 0.261 0.156-0.046-0.039-0.111-0.124-0.124-0.183 0.066-0.006 0.11-0.071 0.136-0.116 0.033 0.045 0.079 0.104 0.137 0.123 0 0.085 0.085 0.24 0.215 0.279-0.052-0.091-0.04-0.233 0.006-0.279 0.04 0.004 0.092-0.025 0.104-0.058 0.029 0.013 0.127 0.022 0.162 0 0.032 0.071 0.059 0.201 0.039 0.298 0.091-0.046 0.201-0.182 0.207-0.285 0.209 0.038 0.409-0.078 0.357-0.331-0.052-0.254-0.032-0.37 0.098-0.429s0.701 0.026 0.929 0.162c0.228 0.137 0.883 0.714 1.182 0.792 1.18 0.221 1.7-0.655 1.03-0.74z" fill="#FFE152"/>
			<path stroke-width=".0336" d="m103.35 27.072c-0.633 0.03-1.26-0.363-1.675-0.61-0.415-0.246-1.065-0.416-1.351-0.233-0.578 0.37-0.668 0.518-0.876 0.455-0.364-0.111-0.475-0.124-0.779 0.091-0.323 0.227-0.349 0.577-0.257 0.76 0.033 0.064 0.104 0.158 0.191 0.148 0.046 0.066 0.144 0.173 0.261 0.156-0.046-0.039-0.111-0.124-0.124-0.183 0.066-0.006 0.11-0.071 0.136-0.116 0.033 0.045 0.079 0.104 0.137 0.123 0 0.085 0.085 0.24 0.215 0.279-0.052-0.091-0.04-0.233 0.006-0.279 0.04 0.004 0.092-0.025 0.104-0.058 0.029 0.013 0.127 0.022 0.162 0 0.032 0.071 0.059 0.201 0.039 0.298 0.091-0.046 0.201-0.182 0.207-0.285 0.209 0.038 0.409-0.078 0.357-0.331-0.052-0.254-0.032-0.37 0.098-0.429s0.701 0.026 0.929 0.162c0.228 0.137 0.883 0.714 1.182 0.792 1.18 0.221 1.7-0.655 1.03-0.74z" stroke="#000" fill="none"/>
			<path d="m103.44 30.904c-0.307 0.202-0.896 0.565-1.217 0.793-0.35 0.25-0.756 0.459-1.745 0.046-0.186-0.078-0.399-0.142-0.619-0.124-0.221 0.018-0.482-0.054-0.588-0.155-0.272-0.261-0.255-0.04-0.626-0.123-0.373-0.083-0.515-0.372-0.479-0.522-0.04-0.058-0.07-0.225-0.038-0.291 0.014 0.071 0.107 0.179 0.173 0.211 0.084-0.028 0.227-0.006 0.286 0.026-0.169-0.309-0.062-0.453 0.065-0.566-0.035-0.117 0.046-0.307 0.128-0.394-0.05 0.092 0.013 0.292 0.027 0.364 0.065-0.009 0.158 0.08 0.173 0.158 0.025-0.033 0.063-0.034 0.097-0.035-0.004-0.148 0.136-0.288 0.239-0.316-0.068 0.104 0.007 0.273 0.001 0.338 0.156 0.016 0.309 0.161 0.356 0.265-0.083-0.187 0.071-0.313 0.142-0.354 0.031-0.052 0.072-0.287 0.018-0.383 0.182-0.011 0.286 0.312 0.296 0.454 0.278 0.015 0.3 0.332 0.233 0.562 0.093 0.101 0.224 0.15 0.409 0.302s0.585 0.053 0.921-0.046c0.29-0.085 0.82-0.524 1.177-0.844 0.66-0.614 1.19 0.001 0.57 0.634z" fill="#FFE152"/>
			<path stroke-width=".0336" d="m103.44 30.904c-0.307 0.202-0.896 0.565-1.217 0.793-0.35 0.25-0.756 0.459-1.745 0.046-0.186-0.078-0.399-0.142-0.619-0.124-0.221 0.018-0.482-0.054-0.588-0.155-0.272-0.261-0.255-0.04-0.626-0.123-0.373-0.083-0.515-0.372-0.479-0.522-0.04-0.058-0.07-0.225-0.038-0.291 0.014 0.071 0.107 0.179 0.173 0.211 0.084-0.028 0.227-0.006 0.286 0.026-0.169-0.309-0.062-0.453 0.065-0.566-0.035-0.117 0.046-0.307 0.128-0.394-0.05 0.092 0.013 0.292 0.027 0.364 0.065-0.009 0.158 0.08 0.173 0.158 0.025-0.033 0.063-0.034 0.097-0.035-0.004-0.148 0.136-0.288 0.239-0.316-0.068 0.104 0.007 0.273 0.001 0.338 0.156 0.016 0.309 0.161 0.356 0.265-0.083-0.187 0.071-0.313 0.142-0.354 0.031-0.052 0.072-0.287 0.018-0.383 0.182-0.011 0.286 0.312 0.296 0.454 0.278 0.015 0.3 0.332 0.233 0.562 0.093 0.101 0.224 0.15 0.409 0.302s0.585 0.053 0.921-0.046c0.29-0.085 0.82-0.524 1.177-0.844 0.66-0.614 1.19 0.001 0.57 0.634z" stroke="#000" fill="none"/>
			<path d="m112.01 31.489c-0.039 0.067-0.057 0.142-0.053 0.213-0.299 0.116-0.318 0.272-0.318 0.499 0.098-0.136 0.306-0.272 0.48-0.272 0.195 0.233 0.478 0.296 0.766-0.013 0.098-0.104 0.263-0.28 0.604-0.163 0.545 0.19 1.87 0.085 2.922-0.85-0.793-0.598-0.416-1.182-0.014-1.325 0.346-0.121 0.707-0.24 0.812-0.525 0.224 0.179 0.396 0.436 0.396 0.863 0.208-0.233 0.351-0.519 0.337-0.739 0.429 0.675 1.039 0.401 1.222 0.622 0.025-0.09 0-0.285-0.027-0.389 1.039 0.688 2.026-0.095 2.533 0.182 0.285 0.155 0.506 0.324 0.662 0.61 0.154 0.285 0.271 0.52 0.052 0.779-0.282 0.333-0.583-0.007-0.701 0.298-0.104-0.324-0.532-0.376-0.662-0.052-0.221-0.402-0.545-0.312-0.702-0.104-0.126 0.169-0.168 0.545 0.104 0.675-0.208 0.208-0.13 0.507 0.13 0.636-0.025-0.155-0.013-0.454 0.168-0.545 0.04 0.065 0.124 0.11 0.209 0.104-0.065 0.241 0.045 0.515 0.344 0.656-0.032-0.169-0.039-0.513 0.078-0.636 0.039 0.064 0.26 0.123 0.338 0.052-0.065 0.253 0.221 0.545 0.461 0.591-0.111-0.098-0.149-0.487-0.085-0.669 0.214 0.124 0.345 0.071 0.436-0.318 0.112-0.484 1.025-0.454 1.038-1.104 0.007-0.337-0.441-0.194-0.778-1.519-0.201-0.788-1.04-0.493-2.026-0.272-1.885 0.422-1.922-1.052-2.636-1.273 1.324 0.299 1.844-0.935 2.143-1.441s1.116-0.129 1.194 0.338c0.39-0.662-0.428-1.311-1.091-0.922 0.142-0.156 0.014-0.403-0.208-0.507-0.22-0.104-0.194-0.351-0.065-0.609-0.376 0.077-0.584 0.35-0.376 0.869-1.975-1.869-5.298 1.351-7.999 0.182-0.13-1.739-3.428 1.065-3.116-0.857-0.688 0.571 0.013 1.116 0.455 1.298-0.572 0.429-0.235 0.948 0.285 1.143-0.273-0.468-0.069-1.089 0.61-0.961 1.246 0.233 1.688 0.324 1.675-0.156 3.104 0.779 6.073-1.675 7.544-0.519 1.091 0.857-0.13 2-1.402 1.817-2.856-1.973-5.531 1.793-9.895 1.014-1.246-0.338-3.35 1.74-1.402 2.597 2.441 1.064 7.558-3.506 8.83-2.778 0.326 0.186 0.465 0.381 0.503 0.567-0.26 0.468-1.057-0.021-1.27 0.613-0.052 0.156-0.285 0.416-0.441 0.455 0.233 0.052 0.533 0 0.727-0.155-0.299 0.493-0.169 1.025 0.35 1.376-0.688 0.402-1.44 0.441-1.791-0.039s-0.844-0.448-1.006-0.267c-0.117 0.02-0.312 0.039-0.371 0.117 0.078 0.007 0.215 0.046 0.286 0.084-0.233-0.006-0.429 0.098-0.461 0.247-0.169 0.059-0.318 0.201-0.357 0.384 0.078-0.065 0.26-0.176 0.39-0.183 0.06 0.104 0.12 0.223 0.2 0.281z" fill="#FFE152"/>
			<path stroke-width=".0336" d="m112.01 31.489c-0.039 0.067-0.057 0.142-0.053 0.213-0.299 0.116-0.318 0.272-0.318 0.499 0.098-0.136 0.306-0.272 0.48-0.272 0.195 0.233 0.478 0.296 0.766-0.013 0.098-0.104 0.263-0.28 0.604-0.163 0.545 0.19 1.87 0.085 2.922-0.85-0.793-0.598-0.416-1.182-0.014-1.325 0.346-0.121 0.707-0.24 0.812-0.525 0.224 0.179 0.396 0.436 0.396 0.863 0.208-0.233 0.351-0.519 0.337-0.739 0.429 0.675 1.039 0.401 1.222 0.622 0.025-0.09 0-0.285-0.027-0.389 1.039 0.688 2.026-0.095 2.533 0.182 0.285 0.155 0.506 0.324 0.662 0.61 0.154 0.285 0.271 0.52 0.052 0.779-0.282 0.333-0.583-0.007-0.701 0.298-0.104-0.324-0.532-0.376-0.662-0.052-0.221-0.402-0.545-0.312-0.702-0.104-0.126 0.169-0.168 0.545 0.104 0.675-0.208 0.208-0.13 0.507 0.13 0.636-0.025-0.155-0.013-0.454 0.168-0.545 0.04 0.065 0.124 0.11 0.209 0.104-0.065 0.241 0.045 0.515 0.344 0.656-0.032-0.169-0.039-0.513 0.078-0.636 0.039 0.064 0.26 0.123 0.338 0.052-0.065 0.253 0.221 0.545 0.461 0.591-0.111-0.098-0.149-0.487-0.085-0.669 0.214 0.124 0.345 0.071 0.436-0.318 0.112-0.484 1.025-0.454 1.038-1.104 0.007-0.337-0.441-0.194-0.778-1.519-0.201-0.788-1.04-0.493-2.026-0.272-1.885 0.422-1.922-1.052-2.636-1.273 1.324 0.299 1.844-0.935 2.143-1.441s1.116-0.129 1.194 0.338c0.39-0.662-0.428-1.311-1.091-0.922 0.142-0.156 0.014-0.403-0.208-0.507-0.22-0.104-0.194-0.351-0.065-0.609-0.376 0.077-0.584 0.35-0.376 0.869-1.975-1.869-5.298 1.351-7.999 0.182-0.13-1.739-3.428 1.065-3.116-0.857-0.688 0.571 0.013 1.116 0.455 1.298-0.572 0.429-0.235 0.948 0.285 1.143-0.273-0.468-0.069-1.089 0.61-0.961 1.246 0.233 1.688 0.324 1.675-0.156 3.104 0.779 6.073-1.675 7.544-0.519 1.091 0.857-0.13 2-1.402 1.817-2.856-1.973-5.531 1.793-9.895 1.014-1.246-0.338-3.35 1.74-1.402 2.597 2.441 1.064 7.558-3.506 8.83-2.778 0.326 0.186 0.465 0.381 0.503 0.567-0.26 0.468-1.057-0.021-1.27 0.613-0.052 0.156-0.285 0.416-0.441 0.455 0.233 0.052 0.533 0 0.727-0.155-0.299 0.493-0.169 1.025 0.35 1.376-0.688 0.402-1.44 0.441-1.791-0.039s-0.844-0.448-1.006-0.267c-0.117 0.02-0.312 0.039-0.371 0.117 0.078 0.007 0.215 0.046 0.286 0.084-0.233-0.006-0.429 0.098-0.461 0.247-0.169 0.059-0.318 0.201-0.357 0.384 0.078-0.065 0.26-0.176 0.39-0.183 0.06 0.104 0.12 0.223 0.2 0.281z" stroke="#000" fill="none"/>
			<path d="m106.04 26.826c0.272 0.74 1.104 1.143 2.038 1.052-0.052 0.273-0.454 0.506-0.753 0.52 0.818 0.116 0.728 0.805 1.454 0.688-0.376 0.624-1.116 0.584-1.662 0.338 0.352 0.169 0.715 0.533 1.039 1.064-0.532 0.117-1.415 0.103-1.74-0.26 0.039 0.221 0.104 0.61 0.078 1-0.299-0.48-1.285-0.701-1.285-1.221-0.078 0.338-0.506 0.728-0.494 1.091-0.285-0.363-0.479-0.571-0.428-0.999-0.078 0.791-1.039 0.844-1.092 1.168 0-0.429 0-0.883 0.078-1.143-0.389 0.233-0.844 0.493-1.337 0.233 0.622-0.247 0.48-1.169 1.104-1.389-0.559 0.298-1.064 0.142-1.312-0.13 0.286 0 0.676-0.234 0.818-0.403-0.377 0.053-0.883-0.116-1.169-0.506 0.442 0.052 1.056-0.26 1.483-0.676 0.23-0.22 2.83-1.271 3.17-0.427z" fill="#FFE152"/>
			<path stroke-width=".0336" d="m106.04 26.826c0.272 0.74 1.104 1.143 2.038 1.052-0.052 0.273-0.454 0.506-0.753 0.52 0.818 0.116 0.728 0.805 1.454 0.688-0.376 0.624-1.116 0.584-1.662 0.338 0.352 0.169 0.715 0.533 1.039 1.064-0.532 0.117-1.415 0.103-1.74-0.26 0.039 0.221 0.104 0.61 0.078 1-0.299-0.48-1.285-0.701-1.285-1.221-0.078 0.338-0.506 0.728-0.494 1.091-0.285-0.363-0.479-0.571-0.428-0.999-0.078 0.791-1.039 0.844-1.092 1.168 0-0.429 0-0.883 0.078-1.143-0.389 0.233-0.844 0.493-1.337 0.233 0.622-0.247 0.48-1.169 1.104-1.389-0.559 0.298-1.064 0.142-1.312-0.13 0.286 0 0.676-0.234 0.818-0.403-0.377 0.053-0.883-0.116-1.169-0.506 0.442 0.052 1.056-0.26 1.483-0.676 0.23-0.22 2.83-1.271 3.17-0.427z" stroke="#000" fill="none"/>
			<path d="m104.14 26.229c-0.312-0.071-0.559 0.299-0.845 0.039-0.006 0.176 0.091 0.402 0.37 0.467-0.39 0.04-0.39 0.325-0.993 0.254 0.097 0.324 0.344 0.525 0.669 0.422-0.306 0.136-0.526 0.584-0.812 0.525 0.111 0.227 0.637 0.435 0.929 0.312-0.207 0.312-0.013 0.806-0.259 0.941 0.486 0.065 0.928-0.278 1.084-0.604 0 0.48 0.194 0.825 0.714 0.955-0.098-0.37 0.169-0.695 0.156-1.007 0.084 0.279 0.525 0.24 0.72 0.559 0.078-0.273-0.143-0.396-0.006-1 0.155 0.188 0.402 0.246 0.61 0.201-0.279-0.299-0.552-0.87-0.507-1.467 0.01-0.35-0.93-0.623-1.83-0.597z" fill="#FFE152"/>
			<path stroke-width=".0336" d="m104.14 26.229c-0.312-0.071-0.559 0.299-0.845 0.039-0.006 0.176 0.091 0.402 0.37 0.467-0.39 0.04-0.39 0.325-0.993 0.254 0.097 0.324 0.344 0.525 0.669 0.422-0.306 0.136-0.526 0.584-0.812 0.525 0.111 0.227 0.637 0.435 0.929 0.312-0.207 0.312-0.013 0.806-0.259 0.941 0.486 0.065 0.928-0.278 1.084-0.604 0 0.48 0.194 0.825 0.714 0.955-0.098-0.37 0.169-0.695 0.156-1.007 0.084 0.279 0.525 0.24 0.72 0.559 0.078-0.273-0.143-0.396-0.006-1 0.155 0.188 0.402 0.246 0.61 0.201-0.279-0.299-0.552-0.87-0.507-1.467 0.01-0.35-0.93-0.623-1.83-0.597z" stroke="#000" fill="none"/>
			<path d="m104.11 27.99c-0.354-0.022-0.453-0.282-0.33-0.473 0.121-0.189 0.127-0.394 0.105-0.644-0.021-0.249 0.035-0.566 0.453-0.916-0.205-0.188-0.134-0.39 0.012-0.532 0.176-0.17 0.389-0.066 0.445 0.058 0.43 0.02 0.957 0.324 1.219 0.738 0.137-0.008 0.328 0.134 0.258 0.368-0.058 0.195-0.205 0.353-0.466 0.258-0.116 0.531-0.371 0.728-0.603 0.825-0.23 0.097-0.411 0.195-0.522 0.393-0.1 0.196-0.37 0.23-0.56-0.075z" fill="#FFE152"/>
			<path stroke-width=".0336" d="m104.11 27.99c-0.354-0.022-0.453-0.282-0.33-0.473 0.121-0.189 0.127-0.394 0.105-0.644-0.021-0.249 0.035-0.566 0.453-0.916-0.205-0.188-0.134-0.39 0.012-0.532 0.176-0.17 0.389-0.066 0.445 0.058 0.43 0.02 0.957 0.324 1.219 0.738 0.137-0.008 0.328 0.134 0.258 0.368-0.058 0.195-0.205 0.353-0.466 0.258-0.116 0.531-0.371 0.728-0.603 0.825-0.23 0.097-0.411 0.195-0.522 0.393-0.1 0.196-0.37 0.23-0.56-0.075z" stroke="#000" fill="none"/>
			<path d="m105.4 25.857c0.203 0.124 0.448 0.354 0.551 0.491 0.049 0.066 0.062 0.06 0.127-0.001 0.28-0.278 0.639-0.523 1.032-0.638 0.203-0.059 0.125-0.132 0.061-0.151-0.064-0.02-0.189-0.052-0.4 0.051 0.038-0.187-0.153-0.272-0.263-0.2-0.101 0.066-0.074 0.234-0.018 0.283-0.228 0.004-0.552-0.195-0.486-0.599 0.079 0.158 0.297 0.109 0.324-0.021 0.03-0.144-0.067-0.233-0.174-0.222 0.124-0.033 0.198-0.229 0.049-0.318-0.149-0.092-0.288 0.064-0.26 0.19-0.04-0.1-0.164-0.145-0.277-0.052-0.104 0.086-0.046 0.301 0.131 0.298-0.327 0.244-0.653 0.051-0.756-0.154 0.069 0.027 0.23-0.026 0.243-0.147 0.013-0.13-0.151-0.259-0.3-0.14-0.006-0.234-0.093-0.33-0.14-0.378-0.048-0.049-0.148-0.083-0.106 0.123 0.081 0.402 0.029 0.833-0.088 1.211-0.024 0.085-0.023 0.1 0.059 0.113 0.19 0.027 0.51 0.137 0.71 0.261z" fill="#FFE152"/>
			<path stroke-width=".0336" d="m105.4 25.857c0.203 0.124 0.448 0.354 0.551 0.491 0.049 0.066 0.062 0.06 0.127-0.001 0.28-0.278 0.639-0.523 1.032-0.638 0.203-0.059 0.125-0.132 0.061-0.151-0.064-0.02-0.189-0.052-0.4 0.051 0.038-0.187-0.153-0.272-0.263-0.2-0.101 0.066-0.074 0.234-0.018 0.283-0.228 0.004-0.552-0.195-0.486-0.599 0.079 0.158 0.297 0.109 0.324-0.021 0.03-0.144-0.067-0.233-0.174-0.222 0.124-0.033 0.198-0.229 0.049-0.318-0.149-0.092-0.288 0.064-0.26 0.19-0.04-0.1-0.164-0.145-0.277-0.052-0.104 0.086-0.046 0.301 0.131 0.298-0.327 0.244-0.653 0.051-0.756-0.154 0.069 0.027 0.23-0.026 0.243-0.147 0.013-0.13-0.151-0.259-0.3-0.14-0.006-0.234-0.093-0.33-0.14-0.378-0.048-0.049-0.148-0.083-0.106 0.123 0.081 0.402 0.029 0.833-0.088 1.211-0.024 0.085-0.023 0.1 0.059 0.113 0.19 0.027 0.51 0.137 0.71 0.261z" stroke="#000" fill="none"/>
			<path d="m104.6 27.44c-0.035-0.103-0.009-0.249 0.098-0.425-0.108 0.18-0.226 0.271-0.334 0.285-0.211 0.26-0.532 0.66-0.317 0.79 0.22 0.13 0.42-0.344 0.55-0.65z" fill="#FFE152"/>
			<path stroke-width=".0336" d="m104.6 27.44c-0.035-0.103-0.009-0.249 0.098-0.425-0.108 0.18-0.226 0.271-0.334 0.285-0.211 0.26-0.532 0.66-0.317 0.79 0.22 0.13 0.42-0.344 0.55-0.65zm12.08 1.307c0.175 0.083 0.362 0.175 0.525 0.306m-4.48 2.246c-0.368-0.112-0.607 0.017-0.707 0.191m3.77-2.915c0.064 0.31-0.159 0.587-0.321 0.691 0.688 0.117 1.415-0.247 1.182-0.883m-4.37 2.377c0.085 0.007 0.228 0.026 0.306 0.071m5.36-1.654c0-0.117-0.104-0.325-0.208-0.403m1.41 0.636c-0.104-0.066-0.193-0.156-0.253-0.222m2.13 2.04c-0.052 0.104-0.065 0.325-0.013 0.396m0.67-0.345c-0.039 0.085-0.039 0.273 0.032 0.338m-22.373-4.012c-0.095-0.039-0.188-0.39 0.097-0.48m-0.559 0.415c-0.104-0.162-0.091-0.487 0.092-0.604m0.012 3.391c-0.077 0.054-0.168 0.342 0.114 0.504m-0.508-0.066c0.039 0.082 0.159 0.168 0.28 0.223m6.135-4.028c-0.06 0.1-0.141 0.132-0.29 0.042-0.149-0.091-0.157-0.178-0.096-0.277m-0.06-0.672c0.092 0.087 0.358 0.037 0.452 0.186m-0.32-0.137c-0.042 0.043-0.067 0.11-0.039 0.164m0.27-0.098c0.002 0.085-0.046 0.156-0.114 0.17m0.09 1.263c-0.292 0.007-0.408-0.227-0.19-0.586-0.218 0.359-0.478 0.364-0.607 0.103m1.54-0.413c-0.119-0.04-0.198-0.3-0.374-0.314m0.26 0.225c-0.019 0.057-0.067 0.111-0.127 0.11m-0.03-0.288c-0.074 0.039-0.116 0.113-0.098 0.182m0.88-0.485c-0.153-0.182-0.414-0.399-0.592-0.508-0.179-0.108-0.499-0.24-0.731-0.29" stroke="#000" fill="none"/>
			<path d="m118.4 36.521c0.362 2.06 0.041 3.084-0.351 3.888 0.17-0.019 0.441-0.16 0.542-0.251 0.01 0.141 0.05 0.322 0.09 0.422 0.091-0.08 0.252-0.321 0.302-0.452 0.081 0.181 0.292 0.322 0.513 0.372-0.432-0.844-0.432-3.215-0.372-4.049 0.01-0.15-0.78-0.301-0.72 0.07z" fill="#B03427"/>
			<path stroke-width=".0336" d="m118.4 36.521c0.362 2.06 0.041 3.084-0.351 3.888 0.17-0.019 0.441-0.16 0.542-0.251 0.01 0.141 0.05 0.322 0.09 0.422 0.091-0.08 0.252-0.321 0.302-0.452 0.081 0.181 0.292 0.322 0.513 0.372-0.432-0.844-0.432-3.215-0.372-4.049 0.01-0.15-0.78-0.301-0.72 0.07z" stroke="#000" fill="none"/>
			<path d="m119.23 33.889c0.151-0.101 0.353-0.171 0.503-0.19-0.221 0.212-0.412 0.643-0.482 0.884 0.543-0.724 1.749-0.994 1.919-1.387 0.016 0.106-0.015 0.277-0.029 0.332 0.195-0.181 0.427-0.327 0.673-0.307-0.085 0.101-0.201 0.281-0.227 0.432 0.227-0.176 0.639-0.346 1.08-0.306-0.141 0.11-0.312 0.271-0.392 0.421 0.241-0.149 0.543-0.2 0.924-0.079-0.18 0.05-0.341 0.141-0.462 0.301 0.241-0.02 0.583 0.061 0.823 0.433-0.23-0.04-0.622-0.061-0.793-0.011 0.241 0.182 0.291 0.402 0.321 0.644-0.23-0.171-0.572-0.361-0.834-0.402 0.121 0.1 0.201 0.322 0.212 0.443-0.201-0.223-0.684-0.483-1.057-0.493 0.102 0.061 0.283 0.231 0.333 0.401-0.393-0.211-0.835-0.382-1.146-0.261 0.12 0.05 0.302 0.171 0.361 0.272-0.13 0-0.582 0.04-0.724 0.14 1.146 0.262 2.401 0.935 1.89 2.543-0.05-0.271-0.131-0.824-0.281-1.056 0.01 0.201-0.041 0.633-0.283 0.724 0.031-0.211-0.009-0.633-0.069-0.743-0.05 0.141-0.13 0.341-0.24 0.432-0.021-0.24-0.121-0.592-0.372-0.804 0.029 0.212 0.021 0.543-0.181 0.653 0-0.191-0.081-0.572-0.272-0.593-0.039 0.11-0.09 0.281-0.21 0.362-0.101-0.402-0.562-0.744-1.005-0.654 0.714 0.372 1.567 1.146 1.628 1.93 0.061 0.783-0.03 1.146-0.292 1.396 0.021-0.191-0.02-0.482-0.04-0.663-0.069 0.121-0.171 0.361-0.392 0.462 0.07-0.161 0.171-0.502 0.181-0.813-0.101 0.271-0.23 0.462-0.432 0.602 0.079-0.472 0.15-0.853 0.141-1.135-0.101 0.2-0.211 0.361-0.402 0.481 0.071-0.301 0.161-0.703 0.051-1.034-0.021 0.15-0.08 0.352-0.252 0.492 0.041-0.292-0.02-0.663-0.21-0.864-0.051 0.131-0.171 0.251-0.262 0.312 0.051-0.211 0.04-0.522-0.04-0.673 0 0.11-0.01 0.422-0.15 0.593 0-0.16-0.07-0.503-0.182-0.634 0.021 0.644-0.221 1.046-0.2 1.246-0.141-0.321-0.201-0.562-0.212-0.754-0.02 0.362-0.15 0.955-0.302 1.167-0.08-0.222-0.18-0.514-0.201-0.784 0.062 0.733-0.25 1.336-0.22 1.537-0.121-0.151-0.263-0.433-0.302-0.633-0.111 0.382-0.221 0.714-0.251 0.924-0.091-0.16-0.171-0.301-0.191-0.401-0.071 0.14-0.221 0.362-0.28 0.572-0.201-1.457 0.481-2.723 1.808-3.346-0.16-0.11-0.563-0.051-0.754 0.261-0.02-0.109-0.039-0.331-0.039-0.452-0.142 0.182-0.362 0.524-0.403 0.674-0.029-0.171-0.09-0.393-0.07-0.593-0.149 0.221-0.351 0.652-0.381 0.834-0.061-0.191-0.141-0.503-0.131-0.653-0.1 0.16-0.211 0.512-0.211 0.703-0.15-0.181-0.19-0.382-0.211-0.522-0.12 0.262-0.23 0.663-0.251 0.895-0.171-0.121-0.241-0.482-0.251-0.653-0.231 0.241-0.443 0.553-0.553 0.794-0.271-1.438 1.146-2.552 3.566-1.999-0.593-0.161-1.186-0.734-1.638-0.182-0.021-0.12-0.07-0.301 0.021-0.452-0.231 0.1-0.502 0.392-0.594 0.573-0.049-0.171-0.039-0.453 0.041-0.604-0.302 0.241-0.613 0.513-0.764 0.874-0.05-0.2-0.05-0.502 0.021-0.673-0.191 0.11-0.473 0.362-0.553 0.572-0.05-0.312 0.04-0.702 0.19-0.903-0.422 0.171-0.824 0.703-0.914 1.004-0.08-0.361 0.08-1.024 0.272-1.226-0.282 0.011-0.513 0.031-0.613 0.151 0.131-0.382 0.813-0.674 1.055-0.593-0.07-0.121-0.221-0.402-0.441-0.463 0.221-0.02 0.663 0.161 0.864 0.413 0.03-0.151 0.01-0.493-0.102-0.634 0.222 0.07 0.563 0.291 0.684 0.492 0.021-0.131 0.03-0.371-0.01-0.492 0.251 0.161 0.472 0.372 0.593 0.643-0.021-0.16-0.05-0.411-0.11-0.542 0.191 0.12 0.392 0.342 0.513 0.612 0-0.16 0.01-0.392-0.041-0.542 0.252 0.201 0.502 0.523 0.644 0.844 0.021-0.141 0.021-0.432-0.04-0.562 0.25 0.141 0.562 0.793 0.764 1.155-0.03-0.181-0.131-0.492-0.231-0.633 0.085 0.025 0.246 0.075 0.292 0.141-0.116-0.281-0.258-0.553-0.372-0.658 0.19 0.065 0.401 0.211 0.462 0.337 0.021-0.196 0.045-0.503 0-0.638 0.146 0.095 0.307 0.275 0.382 0.486 0.045-0.194 0.232-0.521 0.392-0.622-0.1 0.295-0.1 0.556-0.07 0.722z" fill="#009C57"/>
			<path stroke-width=".0336" d="m119.23 33.889c0.151-0.101 0.353-0.171 0.503-0.19-0.221 0.212-0.412 0.643-0.482 0.884 0.543-0.724 1.749-0.994 1.919-1.387 0.016 0.106-0.015 0.277-0.029 0.332 0.195-0.181 0.427-0.327 0.673-0.307-0.085 0.101-0.201 0.281-0.227 0.432 0.227-0.176 0.639-0.346 1.08-0.306-0.141 0.11-0.312 0.271-0.392 0.421 0.241-0.149 0.543-0.2 0.924-0.079-0.18 0.05-0.341 0.141-0.462 0.301 0.241-0.02 0.583 0.061 0.823 0.433-0.23-0.04-0.622-0.061-0.793-0.011 0.241 0.182 0.291 0.402 0.321 0.644-0.23-0.171-0.572-0.361-0.834-0.402 0.121 0.1 0.201 0.322 0.212 0.443-0.201-0.223-0.684-0.483-1.057-0.493 0.102 0.061 0.283 0.231 0.333 0.401-0.393-0.211-0.835-0.382-1.146-0.261 0.12 0.05 0.302 0.171 0.361 0.272-0.13 0-0.582 0.04-0.724 0.14 1.146 0.262 2.401 0.935 1.89 2.543-0.05-0.271-0.131-0.824-0.281-1.056 0.01 0.201-0.041 0.633-0.283 0.724 0.031-0.211-0.009-0.633-0.069-0.743-0.05 0.141-0.13 0.341-0.24 0.432-0.021-0.24-0.121-0.592-0.372-0.804 0.029 0.212 0.021 0.543-0.181 0.653 0-0.191-0.081-0.572-0.272-0.593-0.039 0.11-0.09 0.281-0.21 0.362-0.101-0.402-0.562-0.744-1.005-0.654 0.714 0.372 1.567 1.146 1.628 1.93 0.061 0.783-0.03 1.146-0.292 1.396 0.021-0.191-0.02-0.482-0.04-0.663-0.069 0.121-0.171 0.361-0.392 0.462 0.07-0.161 0.171-0.502 0.181-0.813-0.101 0.271-0.23 0.462-0.432 0.602 0.079-0.472 0.15-0.853 0.141-1.135-0.101 0.2-0.211 0.361-0.402 0.481 0.071-0.301 0.161-0.703 0.051-1.034-0.021 0.15-0.08 0.352-0.252 0.492 0.041-0.292-0.02-0.663-0.21-0.864-0.051 0.131-0.171 0.251-0.262 0.312 0.051-0.211 0.04-0.522-0.04-0.673 0 0.11-0.01 0.422-0.15 0.593 0-0.16-0.07-0.503-0.182-0.634 0.021 0.644-0.221 1.046-0.2 1.246-0.141-0.321-0.201-0.562-0.212-0.754-0.02 0.362-0.15 0.955-0.302 1.167-0.08-0.222-0.18-0.514-0.201-0.784 0.062 0.733-0.25 1.336-0.22 1.537-0.121-0.151-0.263-0.433-0.302-0.633-0.111 0.382-0.221 0.714-0.251 0.924-0.091-0.16-0.171-0.301-0.191-0.401-0.071 0.14-0.221 0.362-0.28 0.572-0.201-1.457 0.481-2.723 1.808-3.346-0.16-0.11-0.563-0.051-0.754 0.261-0.02-0.109-0.039-0.331-0.039-0.452-0.142 0.182-0.362 0.524-0.403 0.674-0.029-0.171-0.09-0.393-0.07-0.593-0.149 0.221-0.351 0.652-0.381 0.834-0.061-0.191-0.141-0.503-0.131-0.653-0.1 0.16-0.211 0.512-0.211 0.703-0.15-0.181-0.19-0.382-0.211-0.522-0.12 0.262-0.23 0.663-0.251 0.895-0.171-0.121-0.241-0.482-0.251-0.653-0.231 0.241-0.443 0.553-0.553 0.794-0.271-1.438 1.146-2.552 3.566-1.999-0.593-0.161-1.186-0.734-1.638-0.182-0.021-0.12-0.07-0.301 0.021-0.452-0.231 0.1-0.502 0.392-0.594 0.573-0.049-0.171-0.039-0.453 0.041-0.604-0.302 0.241-0.613 0.513-0.764 0.874-0.05-0.2-0.05-0.502 0.021-0.673-0.191 0.11-0.473 0.362-0.553 0.572-0.05-0.312 0.04-0.702 0.19-0.903-0.422 0.171-0.824 0.703-0.914 1.004-0.08-0.361 0.08-1.024 0.272-1.226-0.282 0.011-0.513 0.031-0.613 0.151 0.131-0.382 0.813-0.674 1.055-0.593-0.07-0.121-0.221-0.402-0.441-0.463 0.221-0.02 0.663 0.161 0.864 0.413 0.03-0.151 0.01-0.493-0.102-0.634 0.222 0.07 0.563 0.291 0.684 0.492 0.021-0.131 0.03-0.371-0.01-0.492 0.251 0.161 0.472 0.372 0.593 0.643-0.021-0.16-0.05-0.411-0.11-0.542 0.191 0.12 0.392 0.342 0.513 0.612 0-0.16 0.01-0.392-0.041-0.542 0.252 0.201 0.502 0.523 0.644 0.844 0.021-0.141 0.021-0.432-0.04-0.562 0.25 0.141 0.562 0.793 0.764 1.155-0.03-0.181-0.131-0.492-0.231-0.633 0.085 0.025 0.246 0.075 0.292 0.141-0.116-0.281-0.258-0.553-0.372-0.658 0.19 0.065 0.401 0.211 0.462 0.337 0.021-0.196 0.045-0.503 0-0.638 0.146 0.095 0.307 0.275 0.382 0.486 0.045-0.194 0.232-0.521 0.392-0.622-0.1 0.295-0.1 0.556-0.07 0.722zm1.91-0.362c-0.041 0.035-0.096 0.1-0.141 0.195m-0.77 1.432c-0.221-0.05-0.673 0-0.873 0.132m1.06 1.025c0.012-0.07-0.039-0.292-0.17-0.362m0.04 2.381c0.051-0.131 0.101-0.422 0.091-0.553m0.12 0.905c0.04-0.111 0.061-0.322 0.061-0.432m-0.91-1.005c-0.03-0.101-0.04-0.231-0.091-0.322m0.44 0.875c0-0.191 0.01-0.442-0.01-0.553m-0.8-0.372c0.03-0.069 0.075-0.231 0.075-0.321m-2.14 1.698c-0.051-0.141-0.02-0.482 0.039-0.664m-0.49 1.186c0.061-0.121 0.151-0.563 0.141-0.744m-0.81-1.778c0.04-0.095 0.05-0.221 0.186-0.382m-0.69 0.623c-0.01-0.091 0.035-0.336 0.146-0.437m0.77 0.015c0-0.075 0.061-0.211 0.156-0.271m0.36 0.091c0.041-0.065 0.131-0.227 0.177-0.276m0.29 0.195c0.045-0.064 0.1-0.16 0.155-0.216m0.79-0.839c0.02 0.11 0.075 0.543 0.291 0.663m-3.11-1.275c0.964-0.131 2.31 0.382 2.934 1.025m3.76-0.996c-1.187-0.312-2.282 0.182-3.034 1.056m0.06-0.644c-0.06 0.171-0.08 0.352-0.091 0.533m-0.57 5.043c-0.01-0.07-0.01-0.185 0-0.271" stroke="#000" fill="none"/>
			<path d="m119.19 36.853c-0.514 0-0.514 0.754 0 0.754 0.51-0.001 0.51-0.754 0-0.754z" fill="#B03427"/>
			<path stroke-width=".0336" d="m119.19 36.853c-0.514 0-0.514 0.754 0 0.754 0.51-0.001 0.51-0.754 0-0.754z" stroke="#000" fill="none"/>
			<path d="m101.81 47.156c-0.079 0.012-0.411 0.024-0.52 0.012-0.024 0.14-0.17 0.393-0.277 0.514-0.084-0.314-0.441-0.761-0.641-0.863 0.043 0.163-0.012 0.514-0.06 0.64-0.188-0.604-0.761-0.658-0.791-0.826-0.108 0.205-0.163 0.44-0.097 0.603-0.266-0.266-0.863-0.482-1.129-0.386 0.103 0.483 0.495 0.797 0.779 0.936-0.309 0.012-0.58 0.145-0.791 0.356 0.35 0.199 0.754 0.344 1.099 0.199-0.157 0.139-0.296 0.326-0.35 0.537 0.218 0.078 0.743 0.042 0.953-0.072-0.071 0.09-0.138 0.253-0.156 0.404 0.146 0.042 0.447-0.007 0.568-0.072-0.248 0.355-0.346 1.141-0.236 1.437 0.368-0.229 0.706-0.658 0.846-0.96 0.132 0.175 0.35 0.338 0.591 0.362-0.253-0.495 0.267-0.803 0.043-1.208-0.224-0.404-0.429-0.543-0.531-0.615 0.15-0.225 0.64-0.853 0.7-0.998z" fill="#009C57"/>
			<path stroke-width=".0338" d="m101.81 47.156c-0.079 0.012-0.411 0.024-0.52 0.012-0.024 0.14-0.17 0.393-0.277 0.514-0.084-0.314-0.441-0.761-0.641-0.863 0.043 0.163-0.012 0.514-0.06 0.64-0.188-0.604-0.761-0.658-0.791-0.826-0.108 0.205-0.163 0.44-0.097 0.603-0.266-0.266-0.863-0.482-1.129-0.386 0.103 0.483 0.495 0.797 0.779 0.936-0.309 0.012-0.58 0.145-0.791 0.356 0.35 0.199 0.754 0.344 1.099 0.199-0.157 0.139-0.296 0.326-0.35 0.537 0.218 0.078 0.743 0.042 0.953-0.072-0.071 0.09-0.138 0.253-0.156 0.404 0.146 0.042 0.447-0.007 0.568-0.072-0.248 0.355-0.346 1.141-0.236 1.437 0.368-0.229 0.706-0.658 0.846-0.96 0.132 0.175 0.35 0.338 0.591 0.362-0.253-0.495 0.267-0.803 0.043-1.208-0.224-0.404-0.429-0.543-0.531-0.615 0.15-0.225 0.64-0.853 0.7-0.998z" stroke="#000" fill="none"/>
			<path d="m102.6 50.835c-0.235-0.012-0.438 0.167-0.431 0.451 0.061-0.109 0.175-0.073 0.265-0.073-0.012 0.103 0.013 0.235 0.049 0.338 0.049-0.114 0.193-0.211 0.309-0.276-0.007 0.084 0.059 0.313 0.102 0.385 0.049-0.169 0.183-0.29 0.303-0.356 0.113 0.103 0.244 0.19 0.381 0.248-0.181 0.169-0.248 0.368-0.236 0.525 0.133-0.218 0.229-0.084 0.266 0.145 0.217-0.338 0.398-0.229 0.398 0.085 0.157-0.482 0.495-0.375 0.869-0.229 0.374 0.145 0.941 0.398 1.184 1.22 0.112 0.382 0.313 0.338 0.556 0.289 0.067 0.071 0.136 0.102 0.205 0.061 0.075-0.045 0.114-0.09 0.127-0.139 0.088 0.066 0.186 0.174 0.38 0.006 0.081-0.07 0.104-0.141 0.081-0.211 0.423-0.309 0.196-0.417-0.045-0.501-0.241-0.085-0.46-0.205-0.688-0.435-0.736-0.737-0.736-1.871-1.231-2.21 0.278-0.12 0.445-0.369 0.318-0.345 0.35-0.063 0.436-0.317 0.315-0.307-0.05 0.004-0.109-0.023-0.17-0.046 0.277-0.017 0.421-0.202 0.635-0.401 0.156-0.144 0.092-0.17-0.003-0.171 0.417-0.338 0.818-0.867 0.45-0.759 0.663-0.628 0.326-0.592 0.096-0.518 0.798-1.039 0.399-1.015 0.314-0.906-0.394 0.506-1.309 0.848-2.017 0.918 0.133-0.127 0.235-0.265 0.302-0.435 0.103-0.262-0.009-0.214-0.098-0.145-0.047 0.037-0.111 0.054-0.18 0.067 0.151-0.114 0.387-0.369 0.41-0.575 0.024-0.205-0.023-0.277-0.145-0.144-0.121 0.133-0.471 0.338-1.243 0.579-0.772 0.242-0.664 0.894-0.326 1.172 0.306 0.251 0.344 0.411 0.269 0.584-0.23-0.242-0.659-0.261-0.789-0.753-0.105-0.407-0.18-0.628-0.512-0.743 0.175-0.055 0.312-0.247 0.326-0.514-0.164 0.14-0.375 0.14-0.839-0.024-0.466-0.162-0.857 0.133-0.846 0.531-0.29 0.146-0.465 0.345-0.447 0.489 0.127 0.006 0.212-0.102 0.309-0.079 0.096 0.024 0.319-0.023 0.393 0.024 0.546 0.364 0.458 0.966 0.337 1.643-0.09 0.573 0.04 1.096 0.31 1.535z" fill="#fff"/>
			<path stroke-width=".0338" d="m102.6 50.835c-0.235-0.012-0.438 0.167-0.431 0.451 0.061-0.109 0.175-0.073 0.265-0.073-0.012 0.103 0.013 0.235 0.049 0.338 0.049-0.114 0.193-0.211 0.309-0.276-0.007 0.084 0.059 0.313 0.102 0.385 0.049-0.169 0.183-0.29 0.303-0.356 0.113 0.103 0.244 0.19 0.381 0.248-0.181 0.169-0.248 0.368-0.236 0.525 0.133-0.218 0.229-0.084 0.266 0.145 0.217-0.338 0.398-0.229 0.398 0.085 0.157-0.482 0.495-0.375 0.869-0.229 0.374 0.145 0.941 0.398 1.184 1.22 0.112 0.382 0.313 0.338 0.556 0.289 0.067 0.071 0.136 0.102 0.205 0.061 0.075-0.045 0.114-0.09 0.127-0.139 0.088 0.066 0.186 0.174 0.38 0.006 0.081-0.07 0.104-0.141 0.081-0.211 0.423-0.309 0.196-0.417-0.045-0.501-0.241-0.085-0.46-0.205-0.688-0.435-0.736-0.737-0.736-1.871-1.231-2.21 0.278-0.12 0.445-0.369 0.318-0.345 0.35-0.063 0.436-0.317 0.315-0.307-0.05 0.004-0.109-0.023-0.17-0.046 0.277-0.017 0.421-0.202 0.635-0.401 0.156-0.144 0.092-0.17-0.003-0.171 0.417-0.338 0.818-0.867 0.45-0.759 0.663-0.628 0.326-0.592 0.096-0.518 0.798-1.039 0.399-1.015 0.314-0.906-0.394 0.506-1.309 0.848-2.017 0.918 0.133-0.127 0.235-0.265 0.302-0.435 0.103-0.262-0.009-0.214-0.098-0.145-0.047 0.037-0.111 0.054-0.18 0.067 0.151-0.114 0.387-0.369 0.41-0.575 0.024-0.205-0.023-0.277-0.145-0.144-0.121 0.133-0.471 0.338-1.243 0.579-0.772 0.242-0.664 0.894-0.326 1.172 0.306 0.251 0.344 0.411 0.269 0.584-0.23-0.242-0.659-0.261-0.789-0.753-0.105-0.407-0.18-0.628-0.512-0.743 0.175-0.055 0.312-0.247 0.326-0.514-0.164 0.14-0.375 0.14-0.839-0.024-0.466-0.162-0.857 0.133-0.846 0.531-0.29 0.146-0.465 0.345-0.447 0.489 0.127 0.006 0.212-0.102 0.309-0.079 0.096 0.024 0.319-0.023 0.393 0.024 0.546 0.364 0.458 0.966 0.337 1.643-0.09 0.573 0.04 1.096 0.31 1.535z" stroke="#000" fill="none"/>
			<path d="m102.17 47.053c0.105-0.05 0.169 0.088 0.064 0.137-0.1 0.049-0.17-0.088-0.06-0.137z"/>
			<path stroke-width=".0338" d="m104.37 48.725c0.028 0.03 0.054 0.064 0.075 0.103m-0.34 0.338c0.41-0.265 0.435-0.519 0.422-0.771-0.012-0.254 0.044-0.74 0.677-0.762 0.059-0.001 0.119-0.006 0.181-0.012m-0.32-0.362c0.071-0.11 0.219-0.123 0.351-0.149m0.58 1.864c0.117 0 0.316-0.072 0.44-0.082 0.034-0.002 0.072-0.005 0.108-0.005m-0.77 0.539c0.043-0.005 0.094 0.013 0.144 0.033m-0.27 0.365c0.042-0.002 0.083-0.006 0.119-0.013m1.12 3.05c0.278 0.166 0.485 0.306 0.528 0.44m-0.94-0.416c0.275 0.285 0.516 0.469 0.478 0.622m-0.68-0.477c0.115 0.191 0.231 0.433 0.351 0.555m-2.63-1.968c-0.136 0.019-0.274-0.01-0.409-0.066m-0.98-0.716c0.049 0.078 0.103 0.154 0.16 0.228m0.44 0.24c-0.043-0.04-0.084-0.083-0.121-0.126m1.51-1.871c0.229 0.139 0.494 0.012 0.561-0.267m-0.11-0.048c0.465 0.235 0.7-0.344 0.386-0.579m-0.12 0.067c0.296-0.175 0.362-0.507 0.133-0.64m1.65-0.23c-0.132 0.036-0.531 0.284-0.735 0.163m0.63 0.356c-0.14 0.121-0.34 0.278-0.719 0.278" stroke="#000" fill="none"/>
			<path d="m104.8 37.619c-0.234 0.517-0.908 1.785-1.22 2.345-0.116 0.21 0.578 0.629 0.727 0.305 0.423-0.914 0.915-2.11 1.103-2.414 0.19-0.306-0.45-0.551-0.61-0.236z" fill="#B03427"/>
			<path stroke-width=".0338" d="m104.8 37.619c-0.234 0.517-0.908 1.785-1.22 2.345-0.116 0.21 0.578 0.629 0.727 0.305 0.423-0.914 0.915-2.11 1.103-2.414 0.19-0.306-0.45-0.551-0.61-0.236z" stroke="#000" fill="none"/>
			<path d="m100.21 36.82c0.224 0.701 0.599 1.872 0.902 3.049 0.099 0.381 0.873 0.151 0.745-0.338-0.256-0.975-0.758-2.427-0.973-3.053-0.09-0.239-0.81-0.04-0.68 0.342z" fill="#B03427"/>
			<path stroke-width=".0338" d="m100.21 36.82c0.224 0.701 0.599 1.872 0.902 3.049 0.099 0.381 0.873 0.151 0.745-0.338-0.256-0.975-0.758-2.427-0.973-3.053-0.09-0.239-0.81-0.04-0.68 0.342z" stroke="#000" fill="none"/>
			<path d="m102.46 36.462c0.02 0.639-0.021 2.259-0.052 2.981-0.012 0.272 0.796 0.348 0.786-0.056-0.027-1.136-0.117-2.592-0.084-2.993 0.03-0.403-0.66-0.329-0.66 0.068z" fill="#B03427"/>
			<path stroke-width=".0338" d="m102.46 36.462c0.02 0.639-0.021 2.259-0.052 2.981-0.012 0.272 0.796 0.348 0.786-0.056-0.027-1.136-0.117-2.592-0.084-2.993 0.03-0.403-0.66-0.329-0.66 0.068z" stroke="#000" fill="none"/>
			<path d="m100.93 36.623c-0.059-0.645 0.409-1.745 0.761-1.956 0.353-0.211 1.009-0.704 1.313-1.126-0.282 0.141-1.289 0.445-1.5 0.517-1.036 0.345-1.031 1.336-1.055 2.274 0.023-0.61-0.07-1.195-0.703-1.945s-1.102-0.211-1.337 0.352c-0.233 0.562 0 0.797 0.259 1.194 0.164-0.538 0.233-0.96 0.562-0.913 0.327 0.046 0.797 0.75 0.891 1.664-0.328-0.445-0.962-0.892-1.57-0.258-0.609 0.633-0.234 0.891 0.094 1.5 0.094-0.657 0.1-0.812 0.352-0.985 0.374-0.257 0.984-0.047 1.289 0.398 0.3 0.445 0.63-0.071 0.65-0.716z" fill="#009C57"/>
			<path stroke-width=".0338" d="m100.93 36.623c-0.059-0.645 0.409-1.745 0.761-1.956 0.353-0.211 1.009-0.704 1.313-1.126-0.282 0.141-1.289 0.445-1.5 0.517-1.036 0.345-1.031 1.336-1.055 2.274 0.023-0.61-0.07-1.195-0.703-1.945s-1.102-0.211-1.337 0.352c-0.233 0.562 0 0.797 0.259 1.194 0.164-0.538 0.233-0.96 0.562-0.913 0.327 0.046 0.797 0.75 0.891 1.664-0.328-0.445-0.962-0.892-1.57-0.258-0.609 0.633-0.234 0.891 0.094 1.5 0.094-0.657 0.1-0.812 0.352-0.985 0.374-0.257 0.984-0.047 1.289 0.398 0.3 0.445 0.63-0.071 0.65-0.716z" stroke="#000" fill="none"/>
			<path d="m101.08 37.572c-1.078-0.914-2.086-0.257-2.297 0.609-0.211 0.868 0.14 1.313 0.422 1.618 0.116-1.359 0.808-2.512 1.406-2.062 0.28 0.21 0.68 0.21 0.47-0.165z" fill="#009C57"/>
			<path stroke-width=".0338" d="m101.08 37.572c-1.078-0.914-2.086-0.257-2.297 0.609-0.211 0.868 0.14 1.313 0.422 1.618 0.116-1.359 0.808-2.512 1.406-2.062 0.28 0.21 0.68 0.21 0.47-0.165z" stroke="#000" fill="none"/>
			<path d="m103.02 37.151c0.281-0.445 0.74-0.868 0.773-0.305 0.047 0.797 0.539 0.773 0.82 0.75-0.422-0.259-0.212-0.517-0.212-1.148 0-0.606-0.063-1.556-1.283-0.299 0.697-1.482 0.792-1.659 1.753-2.074 0.961-0.416 1.266-0.792 0.07-0.416-1.195 0.374-1.898 0.633-1.992 1.875 0.07-0.727 0.224-1.023-0.188-1.359-0.773-0.634-0.938-0.727-2.345-0.539 0.423 0.187 0.841 0.571 1.431 0.82 0.445 0.187 0.702 0.187 0.727 1.57-0.141-0.492-0.493-1.102-1.008-0.235-0.672 1.13-0.188 1.172 0.188 2.391 0.234-0.234 0.258-0.937 0.163-1.335-0.093-0.398-0.046-0.398 0.118-0.68 0.164-0.281 0.284-0.269 0.425 0.295 0.14 0.561 0.33 0.924 0.56 0.689z" fill="#009C57"/>
			<path stroke-width=".0338" d="m103.02 37.151c0.281-0.445 0.74-0.868 0.773-0.305 0.047 0.797 0.539 0.773 0.82 0.75-0.422-0.259-0.212-0.517-0.212-1.148 0-0.606-0.063-1.556-1.283-0.299 0.697-1.482 0.792-1.659 1.753-2.074 0.961-0.416 1.266-0.792 0.07-0.416-1.195 0.374-1.898 0.633-1.992 1.875 0.07-0.727 0.224-1.023-0.188-1.359-0.773-0.634-0.938-0.727-2.345-0.539 0.423 0.187 0.841 0.571 1.431 0.82 0.445 0.187 0.702 0.187 0.727 1.57-0.141-0.492-0.493-1.102-1.008-0.235-0.672 1.13-0.188 1.172 0.188 2.391 0.234-0.234 0.258-0.937 0.163-1.335-0.093-0.398-0.046-0.398 0.118-0.68 0.164-0.281 0.284-0.269 0.425 0.295 0.14 0.561 0.33 0.924 0.56 0.689z" stroke="#000" fill="none"/>
			<path d="m105.74 35.205c0.094-0.633-0.328-1.054-0.68-1.102-0.352-0.046-1.031-0.163-1.312-0.492 0 0.681 0.468 1.173 0.914 1.313 0.445 0.14 0.491 0.513 0.491 0.866 0.01 2.135 0.52 2.955 0.59-0.585z" fill="#009C57"/>
			<path stroke-width=".0338" d="m105.74 35.205c0.094-0.633-0.328-1.054-0.68-1.102-0.352-0.046-1.031-0.163-1.312-0.492 0 0.681 0.468 1.173 0.914 1.313 0.445 0.14 0.491 0.513 0.491 0.866 0.01 2.135 0.52 2.955 0.59-0.585z" stroke="#000" fill="none"/>
			<path d="m104.76 37.76c0.094-1.452-0.258-2.062 0.891-2.741 1.148-0.68 1.711-0.774 1.781 0.843-0.352-0.093-0.68-0.352-0.82-0.539-0.328 0.329-0.773 0.727-1.125 1.103-0.117 0.797-0.165 1.194-0.234 1.522-0.07 0.328-0.52 0.305-0.49-0.188z" fill="#009C57"/>
			<path stroke-width=".0338" d="m104.76 37.76c0.094-1.452-0.258-2.062 0.891-2.741 1.148-0.68 1.711-0.774 1.781 0.843-0.352-0.093-0.68-0.352-0.82-0.539-0.328 0.329-0.773 0.727-1.125 1.103-0.117 0.797-0.165 1.194-0.234 1.522-0.07 0.328-0.52 0.305-0.49-0.188z" stroke="#000" fill="none"/>
			<path d="m105.04 37.854c0.445-0.844 0.492-1.148 0.914-1.477s1.101-0.609 1.383 1.453c-0.328-0.259-0.727-0.633-0.915-0.774-0.187-0.141-0.28 0.047-0.538 0.375-0.26 0.329-1.05 0.939-0.84 0.423z" fill="#009C57"/>
			<path stroke-width=".0338" d="m105.04 37.854c0.445-0.844 0.492-1.148 0.914-1.477s1.101-0.609 1.383 1.453c-0.328-0.259-0.727-0.633-0.915-0.774-0.187-0.141-0.28 0.047-0.538 0.375-0.26 0.329-1.05 0.939-0.84 0.423z" stroke="#000" fill="none"/>
			<path d="m104.73 37.877c0.516-0.89 1.107-0.638 1.5-0.21 0.539 0.586-0.211 1.336-0.094 1.897-0.516-0.022-0.398-0.656-0.352-0.983 0.047-0.328-0.248-0.848-0.609-0.305-0.05 0.07-0.56-0.258-0.45-0.399z" fill="#009C57"/>
			<path stroke-width=".0338" d="m104.73 37.877c0.516-0.89 1.107-0.638 1.5-0.21 0.539 0.586-0.211 1.336-0.094 1.897-0.516-0.022-0.398-0.656-0.352-0.983 0.047-0.328-0.248-0.848-0.609-0.305-0.05 0.07-0.56-0.258-0.45-0.399z" stroke="#000" fill="none"/>
</g>
</svg>
