<?xml version="1.0" encoding="UTF-8" standalone="no"?>
<!-- Generator: Adobe Illustrator 18.0.0, SVG Export Plug-In . SVG Version: 6.00 Build 0)  -->
<!DOCTYPE svg  PUBLIC '-//W3C//DTD SVG 1.1//EN'  'http://www.w3.org/Graphics/SVG/1.1/DTD/svg11.dtd'>
<svg style="enable-background:new 0 0 144 80" xmlns="http://www.w3.org/2000/svg" xml:space="preserve" version="1.1" y="0px" x="0px" xmlns:xlink="http://www.w3.org/1999/xlink" viewBox="0 0 144 80">
<g id="ECU">
			<polygon points="144 80 0 80 0 60 144 60" fill="#ED1C24"/>
			<polygon points="144 60 0 60 0 40 144 40" fill="#034EA2"/>
			<polygon points="0 40 144 40 144 0 0 0" fill="#fd0"/>
			<polygon points="85.148 27.873 57.036 52.396 57.358 52.768 85.493 28.275" fill="#5C5B3D"/>
			<polygon stroke-width=".0671" points="85.148 27.873 57.036 52.396 57.358 52.768 85.493 28.275" stroke="#000" fill="none"/>
			<polygon points="86.945 32.807 60.357 55.418 60.675 55.791 87.281 33.213" fill="#5C5B3D"/>
			<polygon stroke-width=".0671" points="86.945 32.807 60.357 55.418 60.675 55.791 87.281 33.213" stroke="#000" fill="none"/>
			<polygon points="58.838 27.873 86.949 52.396 86.627 52.768 58.492 28.275" fill="#5C5B3D"/>
			<polygon stroke-width=".0671" points="58.838 27.873 86.949 52.396 86.627 52.768 58.492 28.275" stroke="#000" fill="none"/>
			<polygon points="57.041 32.807 83.628 55.418 83.311 55.791 56.705 33.213" fill="#5C5B3D"/>
			<polygon stroke-width=".0671" points="57.041 32.807 83.628 55.418 83.311 55.791 56.705 33.213" stroke="#000" fill="none"/>
			<polygon points="60.357 55.418 60.281 55.654 60.079 55.627 59.209 56.715 60.424 56.031 60.429 55.828 60.675 55.791" fill="#EEEFEF"/>
			<polygon stroke-width=".0671" points="60.357 55.418 60.281 55.654 60.079 55.627 59.209 56.715 60.424 56.031 60.429 55.828 60.675 55.791" stroke="#000" fill="none"/>
			<polygon points="57.036 52.396 56.963 52.635 56.761 52.609 55.904 53.709 57.11 53.01 57.112 52.807 57.358 52.768" fill="#EEEFEF"/>
			<polygon stroke-width=".0671" points="57.036 52.396 56.963 52.635 56.761 52.609 55.904 53.709 57.11 53.01 57.112 52.807 57.358 52.768" stroke="#000" fill="none"/>
			<path d="m87.281 33.213l0.414-0.115 0.15-0.361c0.126 0.166 0.023 0.729-0.193 0.896 0.32 0.086 0.856 0.014 1.114-0.213 0.26-0.226 0.428-0.734 0.396-1.064-0.201 0.186-0.773 0.193-0.915 0.041 0.179-0.094 0.779-0.334 1.039-0.373 0.093-0.426 0.456-1.102 0.73-1.482-0.419 0.211-1.145 0.461-1.58 0.484-0.081 0.25-0.419 0.799-0.54 0.959l-0.193-0.225-0.37-0.033-0.009 0.363 0.201 0.225-0.402 0.098-0.178 0.395 0.336 0.405z" fill="#EEEFEF"/>
			<path stroke-width=".0671" d="m87.281 33.213l0.414-0.115 0.15-0.361c0.126 0.166 0.023 0.729-0.193 0.896 0.32 0.086 0.856 0.014 1.114-0.213 0.26-0.226 0.428-0.734 0.396-1.064-0.201 0.186-0.773 0.193-0.915 0.041 0.179-0.094 0.779-0.334 1.039-0.373 0.093-0.426 0.456-1.102 0.73-1.482-0.419 0.211-1.145 0.461-1.58 0.484-0.081 0.25-0.419 0.799-0.54 0.959l-0.193-0.225-0.37-0.033-0.009 0.363 0.201 0.225-0.402 0.098-0.178 0.395 0.336 0.405z" stroke="#000" fill="none"/>
			<path d="m85.493 28.275c0.32-0.266 1.037-0.568 1.296-0.611 0.089-0.428 0.443-1.107 0.713-1.49-0.417 0.215-1.14 0.473-1.574 0.502-0.077 0.252-0.477 0.924-0.779 1.197l0.344 0.402z" fill="#EEEFEF"/>
			<path stroke-width=".0671" d="m85.493 28.275c0.32-0.266 1.037-0.568 1.296-0.611 0.089-0.428 0.443-1.107 0.713-1.49-0.417 0.215-1.14 0.473-1.574 0.502-0.077 0.252-0.477 0.924-0.779 1.197l0.344 0.402z" stroke="#000" fill="none"/>
			<path d="m85.177 28.191c0.326 0.383 0.913 0.377 1.213-0.127-0.252 0.18-0.646 0.217-0.934-0.115-0.287-0.334-0.199-0.717 0.015-0.941-0.54 0.228-0.621 0.803-0.294 1.183z" fill="#EEEFEF"/>
			<path stroke-width=".0671" d="m85.177 28.191c0.326 0.383 0.913 0.377 1.213-0.127-0.252 0.18-0.646 0.217-0.934-0.115-0.287-0.334-0.199-0.717 0.015-0.941-0.54 0.228-0.621 0.803-0.294 1.183z" stroke="#000" fill="none"/>
			<polygon points="83.628 55.418 83.705 55.654 83.907 55.627 84.777 56.715 83.562 56.031 83.558 55.828 83.311 55.791" fill="#EEEFEF"/>
			<polygon stroke-width=".0671" points="83.628 55.418 83.705 55.654 83.907 55.627 84.777 56.715 83.562 56.031 83.558 55.828 83.311 55.791" stroke="#000" fill="none"/>
			<polygon points="86.949 52.396 87.023 52.635 87.226 52.609 88.082 53.709 86.876 53.01 86.873 52.807 86.627 52.768" fill="#EEEFEF"/>
			<polygon stroke-width=".0671" points="86.949 52.396 87.023 52.635 87.226 52.609 88.082 53.709 86.876 53.01 86.873 52.807 86.627 52.768" stroke="#000" fill="none"/>
			<path d="m56.705 33.213l-0.414-0.115-0.15-0.361c-0.126 0.166-0.023 0.729 0.193 0.896-0.32 0.086-0.856 0.014-1.115-0.213-0.259-0.226-0.428-0.734-0.395-1.064 0.201 0.186 0.773 0.193 0.915 0.041-0.179-0.094-0.779-0.334-1.039-0.373-0.094-0.426-0.456-1.102-0.731-1.482 0.42 0.211 1.146 0.461 1.581 0.484 0.08 0.25 0.418 0.799 0.539 0.959l0.194-0.225 0.37-0.033 0.008 0.363-0.201 0.225 0.402 0.098 0.179 0.395-0.336 0.405z" fill="#EEEFEF"/>
			<path stroke-width=".0671" d="m56.705 33.213l-0.414-0.115-0.15-0.361c-0.126 0.166-0.023 0.729 0.193 0.896-0.32 0.086-0.856 0.014-1.115-0.213-0.259-0.226-0.428-0.734-0.395-1.064 0.201 0.186 0.773 0.193 0.915 0.041-0.179-0.094-0.779-0.334-1.039-0.373-0.094-0.426-0.456-1.102-0.731-1.482 0.42 0.211 1.146 0.461 1.581 0.484 0.08 0.25 0.418 0.799 0.539 0.959l0.194-0.225 0.37-0.033 0.008 0.363-0.201 0.225 0.402 0.098 0.179 0.395-0.336 0.405z" stroke="#000" fill="none"/>
			<path d="m58.492 28.275c-0.319-0.266-1.036-0.568-1.295-0.611-0.089-0.428-0.443-1.107-0.713-1.49 0.416 0.215 1.139 0.473 1.574 0.502 0.077 0.252 0.477 0.924 0.779 1.197l-0.345 0.402z" fill="#EEEFEF"/>
			<path stroke-width=".0671" d="m58.492 28.275c-0.319-0.266-1.036-0.568-1.295-0.611-0.089-0.428-0.443-1.107-0.713-1.49 0.416 0.215 1.139 0.473 1.574 0.502 0.077 0.252 0.477 0.924 0.779 1.197l-0.345 0.402z" stroke="#000" fill="none"/>
			<path d="m58.81 28.191c-0.326 0.383-0.914 0.377-1.213-0.127 0.252 0.18 0.646 0.217 0.934-0.115 0.287-0.334 0.199-0.717-0.015-0.941 0.54 0.228 0.621 0.803 0.294 1.183z" fill="#EEEFEF"/>
			<path stroke-width=".0671" d="m58.81 28.191c-0.326 0.383-0.914 0.377-1.213-0.127 0.252 0.18 0.646 0.217 0.934-0.115 0.287-0.334 0.199-0.717-0.015-0.941 0.54 0.228 0.621 0.803 0.294 1.183z" stroke="#000" fill="none"/>
			<path d="m67.641 52.547c-0.065 0.904-0.678 3-1 3.547-0.322 0.549-0.396 0.838 1.185 0.773-0.326 0.748-0.292 1.457 0.05 1.676-0.451-0.338 0.136-0.805 0.846-1.271 0.709-0.469 0.692-2.24 0.692-3.578l-1.773-1.147z" fill="#FFE666"/>
			<path stroke-width=".0671" d="m67.641 52.547c-0.065 0.904-0.678 3-1 3.547-0.322 0.549-0.396 0.838 1.185 0.773-0.326 0.748-0.292 1.457 0.05 1.676-0.451-0.338 0.136-0.805 0.846-1.271 0.709-0.469 0.692-2.24 0.692-3.578l-1.773-1.147z" stroke="#000" fill="none"/>
			<path d="m76.346 52.547c0.064 0.904 0.677 3 1 3.547 0.322 0.549 0.394 0.838-1.186 0.773 0.327 0.748 0.293 1.457-0.05 1.676 0.452-0.338-0.136-0.805-0.845-1.271-0.709-0.469-0.693-2.24-0.693-3.578l1.774-1.147z" fill="#FFE666"/>
			<path stroke-width=".0671" d="m76.346 52.547c0.064 0.904 0.677 3 1 3.547 0.322 0.549 0.394 0.838-1.186 0.773 0.327 0.748 0.293 1.457-0.05 1.676 0.452-0.338-0.136-0.805-0.845-1.271-0.709-0.469-0.693-2.24-0.693-3.578l1.774-1.147z" stroke="#000" fill="none"/>
			<path d="m84.277 36.297l-5.385 4.256-1.321-6.068 6.932-6.051c0 2.902 0.064 6.412-0.226 7.863z" fill="#FFE666"/>
			<path stroke-width=".0671" d="m84.277 36.297l-5.385 4.256-1.321-6.068 6.932-6.051c0 2.902 0.064 6.412-0.226 7.863z" stroke="#000" fill="none"/>
			<path d="m59.708 36.297l5.385 4.256 1.322-6.068-6.933-6.051c0 2.902-0.063 6.412 0.226 7.863z" fill="#FFE666"/>
			<path stroke-width=".0671" d="m59.708 36.297l5.385 4.256 1.322-6.068-6.933-6.051c0 2.902-0.063 6.412 0.226 7.863z" stroke="#000" fill="none"/>
			<path d="m71.993 49.871c-0.87 1.902-3.788 3.43-7.223 4.514-1.226 0.387-2.935 0.162-3.966-0.676-4.568-3.713-3.659-13.914-3.659-20.812l14.848 12.627 14.848-12.627c0 6.898 0.909 17.1-3.659 20.812-1.032 0.838-2.741 1.062-3.966 0.676-3.435-1.084-6.353-2.612-7.223-4.514z" fill="#FFE666"/>
			<path stroke-width=".0671" d="m71.993 49.871c-0.87 1.902-3.788 3.43-7.223 4.514-1.226 0.387-2.935 0.162-3.966-0.676-4.568-3.713-3.659-13.914-3.659-20.812l14.848 12.627 14.848-12.627c0 6.898 0.909 17.1-3.659 20.812-1.032 0.838-2.741 1.062-3.966 0.676-3.435-1.084-6.353-2.612-7.223-4.514z" stroke="#000" fill="none"/>
			<path d="m69.413 53.693c0 1.338 0.017 3.109-0.692 3.578-0.71 0.467-1.297 0.934-0.846 1.271 0.182 0.117 0.45 0.096 0.797-0.127 0.245-0.158 0.474-0.303 0.684-0.432 0.007 0.633-0.375 1.322 0.607 1.439-0.738-0.074-0.581-0.459-0.033-0.814 0.264-0.172 0.506-0.324 0.659-0.471 0.294-0.242 0.372-0.643 0.324-1.4-0.049-0.758-0.21-2.256-0.097-3.191l-1.403 0.147z" fill="#007AC1"/>
			<path stroke-width=".0671" d="m69.413 53.693c0 1.338 0.017 3.109-0.692 3.578-0.71 0.467-1.297 0.934-0.846 1.271 0.182 0.117 0.45 0.096 0.797-0.127 0.245-0.158 0.474-0.303 0.684-0.432 0.007 0.633-0.375 1.322 0.607 1.439-0.738-0.074-0.581-0.459-0.033-0.814 0.264-0.172 0.506-0.324 0.659-0.471 0.294-0.242 0.372-0.643 0.324-1.4-0.049-0.758-0.21-2.256-0.097-3.191l-1.403 0.147z" stroke="#000" fill="none"/>
			<path d="m74.572 53.693c0 1.338-0.016 3.109 0.693 3.578 0.709 0.467 1.297 0.934 0.845 1.271-0.181 0.117-0.449 0.096-0.796-0.127-0.245-0.158-0.474-0.303-0.684-0.432-0.008 0.633 0.375 1.322-0.607 1.439 0.738-0.074 0.581-0.459 0.033-0.814-0.265-0.172-0.507-0.324-0.659-0.471-0.294-0.242-0.373-0.643-0.324-1.4 0.049-0.758 0.209-2.256 0.097-3.191l1.402 0.147z" fill="#007AC1"/>
			<path stroke-width=".0671" d="m74.572 53.693c0 1.338-0.016 3.109 0.693 3.578 0.709 0.467 1.297 0.934 0.845 1.271-0.181 0.117-0.449 0.096-0.796-0.127-0.245-0.158-0.474-0.303-0.684-0.432-0.008 0.633 0.375 1.322-0.607 1.439 0.738-0.074 0.581-0.459 0.033-0.814-0.265-0.172-0.507-0.324-0.659-0.471-0.294-0.242-0.373-0.643-0.324-1.4 0.049-0.758 0.209-2.256 0.097-3.191l1.402 0.147z" stroke="#000" fill="none"/>
			<path d="m82.311 37.615c0.322-1.322-0.193-5.934-0.193-7.094l-4.449 3.881 1.289 5.892 3.353-2.679z" fill="#007AC1"/>
			<path stroke-width=".0671" d="m82.311 37.615c0.322-1.322-0.193-5.934-0.193-7.094l-4.449 3.881 1.289 5.892 3.353-2.679z" stroke="#000" fill="none"/>
			<path d="m61.676 37.615c-0.323-1.322 0.193-5.934 0.193-7.094l4.449 3.881-1.289 5.892-3.353-2.679z" fill="#007AC1"/>
			<path stroke-width=".0671" d="m61.676 37.615c-0.323-1.322 0.193-5.934 0.193-7.094l4.449 3.881-1.289 5.892-3.353-2.679z" stroke="#000" fill="none"/>
			<path d="m75.277 52.789c2.483 0.838 5.841-0.338 6.26-1.854 0.364-1.318 1.58-1.418 1.45-2.547-0.128-1.129 0.42-1.354 0.259-2.869-0.141-1.322 0.58-1.871 0.258-3.062-0.322-1.193 0.691-2.066 0.258-3.645-0.354-1.291 0.637-1.867 0.024-3.318l-5.345 4.543c-0.161 2.258-5.014 9.299-6.206 10.266 0.645 1.019 1.837 1.842 3.042 2.486z" fill="#007AC1"/>
			<path stroke-width=".0671" d="m75.277 52.789c2.483 0.838 5.841-0.338 6.26-1.854 0.364-1.318 1.58-1.418 1.45-2.547-0.128-1.129 0.42-1.354 0.259-2.869-0.141-1.322 0.58-1.871 0.258-3.062-0.322-1.193 0.691-2.066 0.258-3.645-0.354-1.291 0.637-1.867 0.024-3.318l-5.345 4.543c-0.161 2.258-5.014 9.299-6.206 10.266 0.645 1.019 1.837 1.842 3.042 2.486z" stroke="#000" fill="none"/>
			<path d="m68.708 52.789c-2.482 0.838-5.84-0.338-6.259-1.854-0.364-1.318-1.58-1.418-1.451-2.547s-0.419-1.354-0.258-2.869c0.141-1.322-0.58-1.871-0.258-3.062 0.322-1.193-0.692-2.066-0.259-3.645 0.356-1.291-0.636-1.867-0.023-3.318l5.345 4.543c0.16 2.258 5.014 9.299 6.206 10.266-0.645 1.019-1.838 1.842-3.043 2.486z" fill="#007AC1"/>
			<path stroke-width=".0671" d="m68.708 52.789c-2.482 0.838-5.84-0.338-6.259-1.854-0.364-1.318-1.58-1.418-1.451-2.547s-0.419-1.354-0.258-2.869c0.141-1.322-0.58-1.871-0.258-3.062 0.322-1.193-0.692-2.066-0.259-3.645 0.356-1.291-0.636-1.867-0.023-3.318l5.345 4.543c0.16 2.258 5.014 9.299 6.206 10.266-0.645 1.019-1.838 1.842-3.043 2.486z" stroke="#000" fill="none"/>
			<path d="m73.17 53.547c0.112 0.935-0.048 2.434-0.097 3.191-0.049 0.758 0.03 1.158 0.324 1.4 0.152 0.146 0.395 0.299 0.659 0.471 0.548 0.355 0.705 0.74-0.033 0.814-0.322 0.031-2.03 0.25-2.03-0.332 0 0.582-1.708 0.363-2.03 0.332-0.738-0.074-0.581-0.459-0.033-0.814 0.264-0.172 0.506-0.324 0.659-0.471 0.294-0.242 0.372-0.643 0.324-1.4-0.049-0.758-0.21-2.256-0.097-3.191h2.354z" fill="#EC174C"/>
			<path stroke-width=".0671" d="m73.17 53.547c0.112 0.935-0.048 2.434-0.097 3.191-0.049 0.758 0.03 1.158 0.324 1.4 0.152 0.146 0.395 0.299 0.659 0.471 0.548 0.355 0.705 0.74-0.033 0.814-0.322 0.031-2.03 0.25-2.03-0.332 0 0.582-1.708 0.363-2.03 0.332-0.738-0.074-0.581-0.459-0.033-0.814 0.264-0.172 0.506-0.324 0.659-0.471 0.294-0.242 0.372-0.643 0.324-1.4-0.049-0.758-0.21-2.256-0.097-3.191h2.354z" stroke="#000" fill="none"/>
			<path d="m80.533 39.162c0.322-1.32-0.193-5.932-0.193-7.092l-2.632 2.297 1.33 5.719 1.495-0.924z" fill="#EC174C"/>
			<path stroke-width=".0671" d="m80.533 39.162c0.322-1.32-0.193-5.932-0.193-7.092l-2.632 2.297 1.33 5.719 1.495-0.924z" stroke="#000" fill="none"/>
			<path d="m63.452 39.162c-0.321-1.32 0.194-5.932 0.194-7.092l2.632 2.297-1.33 5.719-1.496-0.924z" fill="#EC174C"/>
			<path stroke-width=".0671" d="m63.452 39.162c-0.321-1.32 0.194-5.932 0.194-7.092l2.632 2.297-1.33 5.719-1.496-0.924z" stroke="#000" fill="none"/>
			<path d="m73.29 51.48c3.16 1.387 6.15-0.674 6.345-1.77 0.174-0.988 1.547-1.291 1.29-2.193-0.259-0.902 0.709-1.289 0.45-2.16-0.257-0.869 0.774-1.838 0.484-2.9-0.291-1.066 0.58-1.775 0.193-2.613s0.387-1.611-0.193-2.707l-3.225 2.756c-0.129 2.854-3.47 9.922-6.34 10.502 0.223 0.359 0.727 0.878 0.996 1.085z" fill="#EC174C"/>
			<path stroke-width=".0671" d="m73.29 51.48c3.16 1.387 6.15-0.674 6.345-1.77 0.174-0.988 1.547-1.291 1.29-2.193-0.259-0.902 0.709-1.289 0.45-2.16-0.257-0.869 0.774-1.838 0.484-2.9-0.291-1.066 0.58-1.775 0.193-2.613s0.387-1.611-0.193-2.707l-3.225 2.756c-0.129 2.854-3.47 9.922-6.34 10.502 0.223 0.359 0.727 0.878 0.996 1.085z" stroke="#000" fill="none"/>
			<path d="m70.695 51.48c-3.159 1.387-6.15-0.674-6.344-1.77-0.174-0.988-1.548-1.291-1.29-2.193 0.259-0.902-0.709-1.289-0.451-2.16 0.258-0.869-0.774-1.838-0.483-2.9 0.29-1.066-0.58-1.775-0.193-2.613s-0.387-1.611 0.193-2.707l3.224 2.756c0.129 2.854 3.471 9.922 6.341 10.502-0.223 0.359-0.727 0.878-0.997 1.085z" fill="#EC174C"/>
			<path stroke-width=".0671" d="m70.695 51.48c-3.159 1.387-6.15-0.674-6.344-1.77-0.174-0.988-1.548-1.291-1.29-2.193 0.259-0.902-0.709-1.289-0.451-2.16 0.258-0.869-0.774-1.838-0.483-2.9 0.29-1.066-0.58-1.775-0.193-2.613s-0.387-1.611 0.193-2.707l3.224 2.756c0.129 2.854 3.471 9.922 6.341 10.502-0.223 0.359-0.727 0.878-0.997 1.085zm-1.34 6.504c0.646-0.4 1.115-0.615 1.332-0.326 0.125 0.166 0.064 0.32-0.099 0.48m-2.763-1.271c0.323-0.008 1.354-0.023 1.04 0.275m5.766 0.842c-0.646-0.4-1.115-0.615-1.332-0.326-0.125 0.166-0.065 0.32 0.099 0.48m2.762-1.271c-0.322-0.008-1.354-0.023-1.039 0.275m-3.128 1.95v-5.383" stroke="#000" fill="none"/>
			<path d="m71.993 49.625c-3.155 0-7.002-2.424-7.002-9.629s3.847-9.629 7.002-9.629c3.155 0 7.001 2.424 7.001 9.629s-3.846 9.629-7.001 9.629z" fill="#A0D0F0"/>
			<path stroke-width=".0671" d="m71.993 49.625c-3.155 0-7.002-2.424-7.002-9.629s3.847-9.629 7.002-9.629c3.155 0 7.001 2.424 7.001 9.629s-3.846 9.629-7.001 9.629z" stroke="#000" fill="none"/>
			<path d="m78.923 41.65c0.031-0.338 0.052-0.689 0.062-1.053-0.451-0.355-1.382-0.463-2.446-0.367-1.063 0.098-2.579-1.096-3.24-1.709l-0.226-0.064c-0.29-0.289-0.822-0.951-1.016-1.176-0.193-0.227-0.419-0.242-0.645-0.113-0.161-0.225-0.597-0.645-0.758-0.773-0.138 0.088-0.693-0.064-1.242 0.289-0.435-0.242-1.499-0.611-2.047-0.773-0.565 0.693-1.741 1.402-2.225 1.758-0.098 0.713-0.15 1.488-0.15 2.328 0 0.559 0.024 1.088 0.068 1.59 0.306-0.146 0.646-0.211 0.984-0.131 0.339 0.082 1.29 0.098 1.548 0.066 0.258-0.033 0.516 0.047 0.742 0.113 0.226 0.062 0.547 0.062 0.79 0.016 0.241-0.049 0.872-0.139 1.241-0.064 0.644 0.129 2.434-0.322 3.143-0.195 0.712 0.129 3.901 0.258 5.417 0.258" fill="#fff"/>
			<path stroke-width=".0671" d="m78.923 41.65c0.031-0.338 0.052-0.689 0.062-1.053-0.451-0.355-1.382-0.463-2.446-0.367-1.063 0.098-2.579-1.096-3.24-1.709l-0.226-0.064c-0.29-0.289-0.822-0.951-1.016-1.176-0.193-0.227-0.419-0.242-0.645-0.113-0.161-0.225-0.597-0.645-0.758-0.773-0.138 0.088-0.693-0.064-1.242 0.289-0.435-0.242-1.499-0.611-2.047-0.773-0.565 0.693-1.741 1.402-2.225 1.758-0.098 0.713-0.15 1.488-0.15 2.328 0 0.559 0.024 1.088 0.068 1.59 0.306-0.146 0.646-0.211 0.984-0.131 0.339 0.082 1.29 0.098 1.548 0.066 0.258-0.033 0.516 0.047 0.742 0.113 0.226 0.062 0.547 0.062 0.79 0.016 0.241-0.049 0.872-0.139 1.241-0.064 0.644 0.129 2.434-0.322 3.143-0.195 0.712 0.129 3.901 0.258 5.417 0.258" stroke="#000" fill="none"/>
			<path d="m78.923 41.65c-0.129 1.402-0.423 2.586-0.834 3.578-0.138-0.064-0.332-0.098-0.582-0.072-0.25 0.023-0.347-0.072-0.25-0.152 0.097-0.082 0.032-0.154-0.024-0.242-0.101-0.16-0.516-0.146-0.903-0.082-0.387 0.065-0.822-0.031-0.999-0.145-0.178-0.111-0.645-0.08-0.87-0.016-0.315 0.09-0.42-0.008-0.299-0.129s0.226-0.162 0.146-0.258-0.46-0.016-0.734 0.145c-0.273 0.16-1.24 0.225-1.821 0.225-0.58 0-0.919-0.225-0.258-0.24 0.661-0.017 0.371-0.371 1.402-0.387 0.646-0.01 1.435-0.113 1.419-0.371-0.017-0.258-1.773-0.242-2.306-0.258-0.531-0.016-1.41-0.072-1.467-0.379-0.056-0.307-0.484-0.314-0.588-0.598-0.048-0.129-0.178-0.25-0.492-0.354-0.314-0.105-0.395-0.234-0.338-0.266 0.241-0.049 0.872-0.139 1.241-0.064 0.644 0.129 2.434-0.322 3.143-0.195 0.709 0.131 3.898 0.26 5.414 0.26" fill="#DFF0E9"/>
			<path stroke-width=".0671" d="m78.923 41.65c-0.129 1.402-0.423 2.586-0.834 3.578-0.138-0.064-0.332-0.098-0.582-0.072-0.25 0.023-0.347-0.072-0.25-0.152 0.097-0.082 0.032-0.154-0.024-0.242-0.101-0.16-0.516-0.146-0.903-0.082-0.387 0.065-0.822-0.031-0.999-0.145-0.178-0.111-0.645-0.08-0.87-0.016-0.315 0.09-0.42-0.008-0.299-0.129s0.226-0.162 0.146-0.258-0.46-0.016-0.734 0.145c-0.273 0.16-1.24 0.225-1.821 0.225-0.58 0-0.919-0.225-0.258-0.24 0.661-0.017 0.371-0.371 1.402-0.387 0.646-0.01 1.435-0.113 1.419-0.371-0.017-0.258-1.773-0.242-2.306-0.258-0.531-0.016-1.41-0.072-1.467-0.379-0.056-0.307-0.484-0.314-0.588-0.598-0.048-0.129-0.178-0.25-0.492-0.354-0.314-0.105-0.395-0.234-0.338-0.266 0.241-0.049 0.872-0.139 1.241-0.064 0.644 0.129 2.434-0.322 3.143-0.195 0.709 0.131 3.898 0.26 5.414 0.26" stroke="#000" fill="none"/>
			<path d="m65.06 41.586c0.233 2.662 1.058 4.547 2.156 5.82 0.629-0.098 0.827-0.631 1.689-0.92 0.383-0.129 0.153-0.291-0.12-0.299-0.274-0.008-0.322-0.023-0.597-0.234-0.274-0.209-0.968 0.018-1.79-0.127-0.285-0.051-0.306-0.291-0.129-0.389 0.178-0.096 1.049-0.16 1.5-0.178 0.451-0.016 0.451-0.562 1.08-0.596 0.322-0.016 0.758-0.098 0.677-0.274-0.081-0.178-0.951-0.098-1.354-0.064-0.402 0.031-0.225-0.209-0.483-0.258s-0.354-0.178-0.177-0.322c0.177-0.146 0.693-0.146 1.225-0.162s0.758-0.129 0.742-0.371c-0.017-0.242 0.193-0.402 0.129-0.58-0.171-0.471-0.774-0.822-1.273-0.998-0.227-0.066-0.484-0.146-0.742-0.113-0.258 0.031-1.209 0.016-1.548-0.066-0.34-0.08-0.68-0.016-0.985 0.131" fill="#DFF0E9"/>
			<path stroke-width=".0671" d="m65.06 41.586c0.233 2.662 1.058 4.547 2.156 5.82 0.629-0.098 0.827-0.631 1.689-0.92 0.383-0.129 0.153-0.291-0.12-0.299-0.274-0.008-0.322-0.023-0.597-0.234-0.274-0.209-0.968 0.018-1.79-0.127-0.285-0.051-0.306-0.291-0.129-0.389 0.178-0.096 1.049-0.16 1.5-0.178 0.451-0.016 0.451-0.562 1.08-0.596 0.322-0.016 0.758-0.098 0.677-0.274-0.081-0.178-0.951-0.098-1.354-0.064-0.402 0.031-0.225-0.209-0.483-0.258s-0.354-0.178-0.177-0.322c0.177-0.146 0.693-0.146 1.225-0.162s0.758-0.129 0.742-0.371c-0.017-0.242 0.193-0.402 0.129-0.58-0.171-0.471-0.774-0.822-1.273-0.998-0.227-0.066-0.484-0.146-0.742-0.113-0.258 0.031-1.209 0.016-1.548-0.066-0.34-0.08-0.68-0.016-0.985 0.131" stroke="#000" fill="none"/>
			<path d="m67.648 38.957s0.024 0.436-0.008 0.582l-0.71 0.828c0.041 0.025 0.726-0.75 0.726-0.75l0.113 0.412-0.436 0.492-0.129 0.41 0.629-0.781 0.097 0.008-0.057 0.637 0.226-0.113-0.08-0.119 0.057-0.396-0.299-0.539-0.081-0.678-0.048 0.007z" fill="#9EDCF8"/>
			<polygon points="68.115 38.764 68.406 39.361 68.261 39.602 69.195 40.488 68.164 39.635 68.317 39.369" fill="#9EDCF8"/>
			<path d="m67.931 36.402l0.612 0.541c0.017 0.176 0.121 0.369 0.121 0.369l0.476 0.348 0.403 0.266-0.38-0.16-0.596-0.017-0.008 0.227 0.258 0.24-0.129 0.211 0.436 0.113 0.016 0.16 0.838 1.08-0.516-0.482h-0.322l-0.112-0.211-0.194-0.016-0.063 0.242-0.178-0.758-0.146-0.162-0.161-0.709 0.129 0.193 0.097-0.145-0.064-0.145-0.308-0.017-0.032-0.16-0.226 0.178 0.194-0.469-0.145-0.717z" fill="#9EDCF8"/>
			<polygon points="69.816 38.377 70.365 38.99 70.671 39.908 70.783 39.715 71.025 39.684 70.43 38.957" fill="#9EDCF8"/>
			<polygon points="69.72 36.975 70.203 36.684 71.074 37.393 71.09 37.168 71.751 37.717 72.009 37.717 72.154 37.975 72.46 38.021 72.573 38.232 72.912 39.57 72.815 40.07 72.815 39.617 72.477 38.279 72.074 38.184 72.09 37.975 71.961 37.812 71.671 37.91 71.315 37.539 71.3 37.861 71.525 38.684 70.769 37.217 70.591 37.346 70.461 37.039 70.139 37.781 70.058 37.766 70.316 37.006 70.026 36.926" fill="#9EDCF8"/>
			<polygon points="74.024 39.232 74.686 39.699 75.362 40.295 75.75 40.408 75.298 40.408 74.621 39.893 74.621 40.037 74.33 39.812 74.218 39.555 74.04 39.65" fill="#9EDCF8"/>
			<polygon points="72.928 39.053 72.96 38.812 73.122 38.957 73.234 38.65 73.202 39.104 73.024 38.941" fill="#9EDCF8"/>
			<polygon points="65.125 38.361 65.834 37.635 65.932 37.732 66.093 37.604 66.077 37.506 66.561 37.201 66.722 37.168 67.35 36.523 67.414 36.201 67.495 36.523 67.398 36.637 67.398 37.312 66.947 38.393 67.108 38.717 67.092 39.441 67.044 39.053 66.673 38.539 65.754 39.506 66.173 38.732 66.157 38.441 65.803 38.635 66.705 37.635 66.447 37.652 66.722 37.346 66.544 37.328 65.738 38.086 65.674 38.006 65.174 38.377" fill="#9EDCF8"/>
			<polygon points="65.271 40.875 65.609 40.506 65.593 40.344 65.851 40.344 65.222 41.053" fill="#9EDCF8"/>
			<path stroke-width=".2685" d="m71.993 49.625c-3.155 0-7.002-2.424-7.002-9.629s3.847-9.629 7.002-9.629c3.155 0 7.001 2.424 7.001 9.629s-3.846 9.629-7.001 9.629v1.018c3.658 0 8.116-2.682 8.116-10.646 0-7.967-4.458-10.647-8.116-10.647s-8.117 2.68-8.117 10.647c0 7.965 4.459 10.646 8.117 10.646v-1.018zm0-9.629" stroke="#000" fill="none"/>
			<path stroke-width=".537" d="m71.993 49.625c-3.155 0-7.002-2.424-7.002-9.629s3.847-9.629 7.002-9.629c3.155 0 7.001 2.424 7.001 9.629s-3.846 9.629-7.001 9.629v1.018c3.658 0 8.116-2.682 8.116-10.646 0-7.967-4.458-10.647-8.116-10.647s-8.117 2.68-8.117 10.647c0 7.965 4.459 10.646 8.117 10.646v-1.018z" stroke="#FFE666" fill="#C3DCE8"/>
			<path stroke-width=".537" d="m71.993 39.996" stroke="#FFE666" fill="#C3DCE8"/>
			<path d="m87.074 33.209c-0.106 0.037-0.516-0.146-0.611-0.412-0.097-0.266 0.008-0.547 0.232-0.629 0.226-0.082 0.486 0.066 0.583 0.332s-0.097 0.67-0.204 0.709l-0.095-0.262c0.052-0.02 0.14-0.238 0.093-0.369-0.048-0.131-0.176-0.203-0.286-0.164-0.111 0.041-0.162 0.18-0.115 0.311 0.048 0.131 0.256 0.24 0.309 0.223l0.094 0.261z" fill="#EC174C"/>
			<path stroke-width=".0671" d="m87.074 33.209c-0.106 0.037-0.516-0.146-0.611-0.412-0.097-0.266 0.008-0.547 0.232-0.629 0.226-0.082 0.486 0.066 0.583 0.332s-0.097 0.67-0.204 0.709l-0.095-0.262c0.052-0.02 0.14-0.238 0.093-0.369-0.048-0.131-0.176-0.203-0.286-0.164-0.111 0.041-0.162 0.18-0.115 0.311 0.048 0.131 0.256 0.24 0.309 0.223l0.094 0.261z" stroke="#000" fill="none"/>
			<path d="m86.463 38.17c0.153 0.016 0.193-0.174 0.23-0.517l0.448-4.158c0.037-0.346 0.039-0.539-0.114-0.557-0.153-0.016-0.192 0.174-0.229 0.52l-0.449 4.158c-0.037 0.345-0.038 0.538 0.114 0.554z" fill="#EC174C"/>
			<path stroke-width=".0671" d="m86.463 38.17c0.153 0.016 0.193-0.174 0.23-0.517l0.448-4.158c0.037-0.346 0.039-0.539-0.114-0.557-0.153-0.016-0.192 0.174-0.229 0.52l-0.449 4.158c-0.037 0.345-0.038 0.538 0.114 0.554z" stroke="#000" fill="none"/>
			<path d="m86.667 39.09c0.044-0.402-0.024-0.9-0.204-0.92-0.179-0.02-0.352 0.453-0.396 0.855-0.017 0.166 0.581 0.235 0.6 0.065z" fill="#EC174C"/>
			<path stroke-width=".0671" d="m86.667 39.09c0.044-0.402-0.024-0.9-0.204-0.92-0.179-0.02-0.352 0.453-0.396 0.855-0.017 0.166 0.581 0.235 0.6 0.065z" stroke="#000" fill="none"/>
			<path d="m86.496 37.869c-0.276-0.029-0.332 0.48-0.056 0.51 0.277 0.029 0.335-0.481 0.056-0.51z" fill="#EC174C"/>
			<path stroke-width=".0671" d="m86.496 37.869c-0.276-0.029-0.332 0.48-0.056 0.51 0.277 0.029 0.335-0.481 0.056-0.51z" stroke="#000" fill="none"/>
			<path d="m84.825 28.447c-0.098 0.035-0.474-0.135-0.562-0.381-0.089-0.242 0.007-0.502 0.214-0.578s0.447 0.062 0.537 0.307c0.089 0.242-0.091 0.615-0.189 0.652l-0.087-0.242c0.048-0.018 0.129-0.219 0.085-0.338-0.044-0.121-0.162-0.19-0.264-0.15-0.103 0.035-0.149 0.164-0.105 0.283 0.044 0.121 0.235 0.223 0.284 0.205l0.087 0.242z" fill="#EC174C"/>
			<path stroke-width=".0671" d="m84.825 28.447c-0.098 0.035-0.474-0.135-0.562-0.381-0.089-0.242 0.007-0.502 0.214-0.578s0.447 0.062 0.537 0.307c0.089 0.242-0.091 0.615-0.189 0.652l-0.087-0.242c0.048-0.018 0.129-0.219 0.085-0.338-0.044-0.121-0.162-0.19-0.264-0.15-0.103 0.035-0.149 0.164-0.105 0.283 0.044 0.121 0.235 0.223 0.284 0.205l0.087 0.242z" stroke="#000" fill="none"/>
			<path d="m84.263 33.016c0.142 0.016 0.178-0.16 0.212-0.476l0.413-3.83c0.034-0.318 0.036-0.496-0.105-0.512-0.142-0.016-0.178 0.16-0.212 0.476l-0.413 3.83c-0.035 0.318-0.037 0.496 0.105 0.512z" fill="#EC174C"/>
			<path stroke-width=".0671" d="m84.263 33.016c0.142 0.016 0.178-0.16 0.212-0.476l0.413-3.83c0.034-0.318 0.036-0.496-0.105-0.512-0.142-0.016-0.178 0.16-0.212 0.476l-0.413 3.83c-0.035 0.318-0.037 0.496 0.105 0.512z" stroke="#000" fill="none"/>
			<path d="m84.45 33.863c0.04-0.371-0.023-0.83-0.188-0.848-0.165-0.017-0.324 0.418-0.364 0.787-0.016 0.153 0.536 0.218 0.552 0.061z" fill="#EC174C"/>
			<path stroke-width=".0671" d="m84.45 33.863c0.04-0.371-0.023-0.83-0.188-0.848-0.165-0.017-0.324 0.418-0.364 0.787-0.016 0.153 0.536 0.218 0.552 0.061z" stroke="#000" fill="none"/>
			<path d="m84.293 32.738c-0.255-0.027-0.306 0.441-0.051 0.471 0.254 0.025 0.309-0.443 0.051-0.471z" fill="#EC174C"/>
			<path stroke-width=".0671" d="m84.293 32.738c-0.255-0.027-0.306 0.441-0.051 0.471 0.254 0.025 0.309-0.443 0.051-0.471z" stroke="#000" fill="none"/>
			<path d="m56.911 33.209c0.107 0.037 0.515-0.146 0.612-0.412s-0.008-0.547-0.232-0.629c-0.226-0.082-0.487 0.066-0.583 0.332-0.097 0.266 0.098 0.67 0.203 0.709l0.096-0.262c-0.052-0.02-0.141-0.238-0.093-0.369 0.047-0.131 0.176-0.203 0.286-0.164 0.111 0.041 0.162 0.18 0.114 0.311-0.047 0.131-0.256 0.24-0.308 0.223l-0.095 0.261z" fill="#EC174C"/>
			<path stroke-width=".0671" d="m56.911 33.209c0.107 0.037 0.515-0.146 0.612-0.412s-0.008-0.547-0.232-0.629c-0.226-0.082-0.487 0.066-0.583 0.332-0.097 0.266 0.098 0.67 0.203 0.709l0.096-0.262c-0.052-0.02-0.141-0.238-0.093-0.369 0.047-0.131 0.176-0.203 0.286-0.164 0.111 0.041 0.162 0.18 0.114 0.311-0.047 0.131-0.256 0.24-0.308 0.223l-0.095 0.261z" stroke="#000" fill="none"/>
			<path d="m57.522 38.17c-0.153 0.016-0.193-0.174-0.229-0.517l-0.449-4.158c-0.037-0.346-0.039-0.539 0.114-0.557 0.154-0.016 0.193 0.174 0.23 0.52l0.449 4.158c0.038 0.345 0.039 0.538-0.115 0.554z" fill="#EC174C"/>
			<path stroke-width=".0671" d="m57.522 38.17c-0.153 0.016-0.193-0.174-0.229-0.517l-0.449-4.158c-0.037-0.346-0.039-0.539 0.114-0.557 0.154-0.016 0.193 0.174 0.23 0.52l0.449 4.158c0.038 0.345 0.039 0.538-0.115 0.554z" stroke="#000" fill="none"/>
			<path d="m57.319 39.09c-0.044-0.402 0.024-0.9 0.203-0.92 0.18-0.02 0.353 0.453 0.396 0.855 0.019 0.166-0.581 0.235-0.599 0.065z" fill="#EC174C"/>
			<path stroke-width=".0671" d="m57.319 39.09c-0.044-0.402 0.024-0.9 0.203-0.92 0.18-0.02 0.353 0.453 0.396 0.855 0.019 0.166-0.581 0.235-0.599 0.065z" stroke="#000" fill="none"/>
			<path d="m57.49 37.869c0.276-0.029 0.331 0.48 0.056 0.51-0.276 0.029-0.336-0.481-0.056-0.51z" fill="#EC174C"/>
			<path stroke-width=".0671" d="m57.49 37.869c0.276-0.029 0.331 0.48 0.056 0.51-0.276 0.029-0.336-0.481-0.056-0.51z" stroke="#000" fill="none"/>
			<path d="m59.161 28.447c0.098 0.035 0.474-0.135 0.562-0.381 0.089-0.242-0.007-0.502-0.215-0.578-0.207-0.076-0.447 0.062-0.536 0.307-0.088 0.242 0.091 0.615 0.189 0.652l0.087-0.242c-0.048-0.018-0.129-0.219-0.085-0.338 0.043-0.121 0.161-0.19 0.264-0.15 0.103 0.035 0.149 0.164 0.105 0.283-0.044 0.121-0.236 0.223-0.284 0.205l-0.087 0.242z" fill="#EC174C"/>
			<path stroke-width=".0671" d="m59.161 28.447c0.098 0.035 0.474-0.135 0.562-0.381 0.089-0.242-0.007-0.502-0.215-0.578-0.207-0.076-0.447 0.062-0.536 0.307-0.088 0.242 0.091 0.615 0.189 0.652l0.087-0.242c-0.048-0.018-0.129-0.219-0.085-0.338 0.043-0.121 0.161-0.19 0.264-0.15 0.103 0.035 0.149 0.164 0.105 0.283-0.044 0.121-0.236 0.223-0.284 0.205l-0.087 0.242z" stroke="#000" fill="none"/>
			<path d="m59.724 33.016c-0.142 0.016-0.178-0.16-0.213-0.476l-0.413-3.83c-0.033-0.318-0.035-0.496 0.107-0.512 0.141-0.016 0.178 0.16 0.212 0.476l0.413 3.83c0.033 0.318 0.034 0.496-0.106 0.512z" fill="#EC174C"/>
			<path stroke-width=".0671" d="m59.724 33.016c-0.142 0.016-0.178-0.16-0.213-0.476l-0.413-3.83c-0.033-0.318-0.035-0.496 0.107-0.512 0.141-0.016 0.178 0.16 0.212 0.476l0.413 3.83c0.033 0.318 0.034 0.496-0.106 0.512z" stroke="#000" fill="none"/>
			<path d="m59.535 33.863c-0.04-0.371 0.024-0.83 0.188-0.848 0.164-0.017 0.324 0.418 0.364 0.787 0.017 0.153-0.535 0.218-0.552 0.061z" fill="#EC174C"/>
			<path stroke-width=".0671" d="m59.535 33.863c-0.04-0.371 0.024-0.83 0.188-0.848 0.164-0.017 0.324 0.418 0.364 0.787 0.017 0.153-0.535 0.218-0.552 0.061z" stroke="#000" fill="none"/>
			<path d="m59.693 32.738c0.254-0.027 0.306 0.441 0.051 0.471-0.254 0.025-0.308-0.443-0.051-0.471z" fill="#EC174C"/>
			<path stroke-width=".0671" d="m59.693 32.738c0.254-0.027 0.306 0.441 0.051 0.471-0.254 0.025-0.308-0.443-0.051-0.471z" stroke="#000" fill="none"/>
			<path d="m87.257 33.135c0.035 0.107-0.166 0.51-0.436 0.594-0.269 0.086-0.546-0.029-0.618-0.26-0.073-0.227 0.086-0.482 0.355-0.566 0.269-0.087 0.666 0.124 0.699 0.232l-0.265 0.084c-0.017-0.053-0.233-0.15-0.364-0.107-0.132 0.043-0.211 0.168-0.175 0.279 0.035 0.111 0.172 0.17 0.304 0.127 0.133-0.041 0.252-0.244 0.235-0.299l0.265-0.084z" fill="#007AC1"/>
			<path stroke-width=".0671" d="m87.257 33.135c0.035 0.107-0.166 0.51-0.436 0.594-0.269 0.086-0.546-0.029-0.618-0.26-0.073-0.227 0.086-0.482 0.355-0.566 0.269-0.087 0.666 0.124 0.699 0.232l-0.265 0.084c-0.017-0.053-0.233-0.15-0.364-0.107-0.132 0.043-0.211 0.168-0.175 0.279 0.035 0.111 0.172 0.17 0.304 0.127 0.133-0.041 0.252-0.244 0.235-0.299l0.265-0.084z" stroke="#000" fill="none"/>
			<path d="m87.305 38.266c0.154-0.004 0.167-0.199 0.153-0.545l-0.157-4.18c-0.013-0.348-0.04-0.539-0.194-0.533s-0.166 0.199-0.152 0.545l0.157 4.182c0.013 0.345 0.038 0.536 0.193 0.531z" fill="#007AC1"/>
			<path stroke-width=".0671" d="m87.305 38.266c0.154-0.004 0.167-0.199 0.153-0.545l-0.157-4.18c-0.013-0.348-0.04-0.539-0.194-0.533s-0.166 0.199-0.152 0.545l0.157 4.182c0.013 0.345 0.038 0.536 0.193 0.531z" stroke="#000" fill="none"/>
			<path d="m87.64 39.148c-0.015-0.404-0.155-0.889-0.335-0.883-0.18 0.008-0.282 0.5-0.268 0.904 0.007 0.167 0.609 0.149 0.603-0.021z" fill="#007AC1"/>
			<path stroke-width=".0671" d="m87.64 39.148c-0.015-0.404-0.155-0.889-0.335-0.883-0.18 0.008-0.282 0.5-0.268 0.904 0.007 0.167 0.609 0.149 0.603-0.021z" stroke="#000" fill="none"/>
			<path d="m87.294 37.963c-0.278 0.012-0.259 0.525 0.019 0.514 0.278-0.01 0.262-0.524-0.019-0.514z" fill="#007AC1"/>
			<path stroke-width=".0671" d="m87.294 37.963c-0.278 0.012-0.259 0.525 0.019 0.514 0.278-0.01 0.262-0.524-0.019-0.514z" stroke="#000" fill="none"/>
			<path d="m87.049 32.877c-0.285 0-0.285 0.426 0 0.426 0.284 0 0.289-0.426 0-0.426z" fill="#007AC1"/>
			<path stroke-width=".0671" d="m87.049 32.877c-0.285 0-0.285 0.426 0 0.426 0.284 0 0.289-0.426 0-0.426z" stroke="#000" fill="none"/>
			<path d="m84.994 28.379c0.031 0.1-0.154 0.469-0.402 0.547-0.247 0.08-0.502-0.027-0.568-0.238-0.067-0.211 0.079-0.445 0.327-0.523 0.248-0.079 0.612 0.114 0.643 0.214l-0.244 0.078c-0.016-0.049-0.214-0.139-0.336-0.1-0.121 0.037-0.193 0.154-0.16 0.256 0.032 0.104 0.157 0.156 0.279 0.119 0.122-0.039 0.232-0.227 0.217-0.275l0.244-0.078z" fill="#007AC1"/>
			<path stroke-width=".0671" d="m84.994 28.379c0.031 0.1-0.154 0.469-0.402 0.547-0.247 0.08-0.502-0.027-0.568-0.238-0.067-0.211 0.079-0.445 0.327-0.523 0.248-0.079 0.612 0.114 0.643 0.214l-0.244 0.078c-0.016-0.049-0.214-0.139-0.336-0.1-0.121 0.037-0.193 0.154-0.16 0.256 0.032 0.104 0.157 0.156 0.279 0.119 0.122-0.039 0.232-0.227 0.217-0.275l0.244-0.078z" stroke="#000" fill="none"/>
			<path d="m85.038 33.105c0.142-0.006 0.153-0.184 0.141-0.504l-0.145-3.85c-0.013-0.318-0.037-0.496-0.179-0.49-0.143 0.006-0.153 0.184-0.141 0.502l0.145 3.85c0.013 0.321 0.037 0.496 0.179 0.492z" fill="#007AC1"/>
			<path stroke-width=".0671" d="m85.038 33.105c0.142-0.006 0.153-0.184 0.141-0.504l-0.145-3.85c-0.013-0.318-0.037-0.496-0.179-0.49-0.143 0.006-0.153 0.184-0.141 0.502l0.145 3.85c0.013 0.321 0.037 0.496 0.179 0.492z" stroke="#000" fill="none"/>
			<path d="m85.347 33.916c-0.014-0.373-0.143-0.816-0.309-0.811-0.166 0.006-0.261 0.459-0.247 0.832 0.006 0.153 0.562 0.137 0.556-0.021z" fill="#007AC1"/>
			<path stroke-width=".0671" d="m85.347 33.916c-0.014-0.373-0.143-0.816-0.309-0.811-0.166 0.006-0.261 0.459-0.247 0.832 0.006 0.153 0.562 0.137 0.556-0.021z" stroke="#000" fill="none"/>
			<path d="m85.027 32.826c-0.255 0.01-0.237 0.482 0.018 0.473 0.256-0.01 0.241-0.485-0.018-0.473z" fill="#007AC1"/>
			<path stroke-width=".0671" d="m85.027 32.826c-0.255 0.01-0.237 0.482 0.018 0.473 0.256-0.01 0.241-0.485-0.018-0.473z" stroke="#000" fill="none"/>
			<path d="m84.802 28.143c-0.262 0-0.262 0.391 0 0.391 0.262-0.001 0.266-0.391 0-0.391z" fill="#007AC1"/>
			<path stroke-width=".0671" d="m84.802 28.143c-0.262 0-0.262 0.391 0 0.391 0.262-0.001 0.266-0.391 0-0.391z" stroke="#000" fill="none"/>
			<path d="m56.729 33.135c-0.034 0.107 0.167 0.51 0.437 0.594 0.269 0.086 0.546-0.029 0.618-0.26 0.073-0.227-0.087-0.482-0.356-0.566-0.27-0.087-0.665 0.124-0.699 0.232l0.266 0.084c0.017-0.053 0.232-0.15 0.363-0.107 0.133 0.043 0.211 0.168 0.176 0.279-0.036 0.111-0.173 0.17-0.305 0.127-0.132-0.041-0.251-0.244-0.234-0.299l-0.266-0.084z" fill="#007AC1"/>
			<path stroke-width=".0671" d="m56.729 33.135c-0.034 0.107 0.167 0.51 0.437 0.594 0.269 0.086 0.546-0.029 0.618-0.26 0.073-0.227-0.087-0.482-0.356-0.566-0.27-0.087-0.665 0.124-0.699 0.232l0.266 0.084c0.017-0.053 0.232-0.15 0.363-0.107 0.133 0.043 0.211 0.168 0.176 0.279-0.036 0.111-0.173 0.17-0.305 0.127-0.132-0.041-0.251-0.244-0.234-0.299l-0.266-0.084z" stroke="#000" fill="none"/>
			<path d="m56.681 38.266c-0.153-0.004-0.166-0.199-0.152-0.545l0.157-4.18c0.013-0.348 0.04-0.539 0.194-0.533s0.165 0.199 0.152 0.545l-0.158 4.182c-0.013 0.345-0.039 0.536-0.193 0.531z" fill="#007AC1"/>
			<path stroke-width=".0671" d="m56.681 38.266c-0.153-0.004-0.166-0.199-0.152-0.545l0.157-4.18c0.013-0.348 0.04-0.539 0.194-0.533s0.165 0.199 0.152 0.545l-0.158 4.182c-0.013 0.345-0.039 0.536-0.193 0.531z" stroke="#000" fill="none"/>
			<path d="m56.346 39.148c0.016-0.404 0.155-0.889 0.335-0.883 0.18 0.008 0.283 0.5 0.269 0.904-0.008 0.167-0.61 0.149-0.604-0.021z" fill="#007AC1"/>
			<path stroke-width=".0671" d="m56.346 39.148c0.016-0.404 0.155-0.889 0.335-0.883 0.18 0.008 0.283 0.5 0.269 0.904-0.008 0.167-0.61 0.149-0.604-0.021z" stroke="#000" fill="none"/>
			<path d="m56.692 37.963c0.277 0.012 0.259 0.525-0.02 0.514-0.276-0.01-0.261-0.524 0.02-0.514z" fill="#007AC1"/>
			<path stroke-width=".0671" d="m56.692 37.963c0.277 0.012 0.259 0.525-0.02 0.514-0.276-0.01-0.261-0.524 0.02-0.514z" stroke="#000" fill="none"/>
			<path d="m56.938 32.877c0.284 0 0.284 0.426 0 0.426-0.286 0-0.29-0.426 0-0.426z" fill="#007AC1"/>
			<path stroke-width=".0671" d="m56.938 32.877c0.284 0 0.284 0.426 0 0.426-0.286 0-0.29-0.426 0-0.426z" stroke="#000" fill="none"/>
			<path d="m58.992 28.379c-0.032 0.1 0.154 0.469 0.401 0.547 0.247 0.08 0.503-0.027 0.569-0.238 0.067-0.211-0.079-0.445-0.327-0.523-0.247-0.079-0.612 0.114-0.643 0.214l0.244 0.078c0.016-0.049 0.214-0.139 0.336-0.1 0.121 0.037 0.193 0.154 0.16 0.256-0.032 0.104-0.158 0.156-0.28 0.119-0.121-0.039-0.231-0.227-0.216-0.275l-0.244-0.078z" fill="#007AC1"/>
			<path stroke-width=".0671" d="m58.992 28.379c-0.032 0.1 0.154 0.469 0.401 0.547 0.247 0.08 0.503-0.027 0.569-0.238 0.067-0.211-0.079-0.445-0.327-0.523-0.247-0.079-0.612 0.114-0.643 0.214l0.244 0.078c0.016-0.049 0.214-0.139 0.336-0.1 0.121 0.037 0.193 0.154 0.16 0.256-0.032 0.104-0.158 0.156-0.28 0.119-0.121-0.039-0.231-0.227-0.216-0.275l-0.244-0.078z" stroke="#000" fill="none"/>
			<path d="m58.947 33.105c-0.141-0.006-0.152-0.184-0.14-0.504l0.145-3.85c0.013-0.318 0.036-0.496 0.178-0.49 0.143 0.006 0.153 0.184 0.142 0.502l-0.146 3.85c-0.012 0.321-0.036 0.496-0.179 0.492z" fill="#007AC1"/>
			<path stroke-width=".0671" d="m58.947 33.105c-0.141-0.006-0.152-0.184-0.14-0.504l0.145-3.85c0.013-0.318 0.036-0.496 0.178-0.49 0.143 0.006 0.153 0.184 0.142 0.502l-0.146 3.85c-0.012 0.321-0.036 0.496-0.179 0.492z" stroke="#000" fill="none"/>
			<path d="m58.64 33.916c0.014-0.373 0.143-0.816 0.308-0.811 0.166 0.006 0.262 0.459 0.247 0.832-0.006 0.153-0.561 0.137-0.555-0.021z" fill="#007AC1"/>
			<path stroke-width=".0671" d="m58.64 33.916c0.014-0.373 0.143-0.816 0.308-0.811 0.166 0.006 0.262 0.459 0.247 0.832-0.006 0.153-0.561 0.137-0.555-0.021z" stroke="#000" fill="none"/>
			<path d="m58.958 32.826c0.256 0.01 0.238 0.482-0.018 0.473-0.254-0.01-0.241-0.485 0.018-0.473z" fill="#007AC1"/>
			<path stroke-width=".0671" d="m58.958 32.826c0.256 0.01 0.238 0.482-0.018 0.473-0.254-0.01-0.241-0.485 0.018-0.473z" stroke="#000" fill="none"/>
			<path d="m59.185 28.143c0.262 0 0.262 0.391 0 0.391-0.263-0.001-0.267-0.391 0-0.391z" fill="#007AC1"/>
			<path stroke-width=".0671" d="m59.185 28.143c0.262 0 0.262 0.391 0 0.391-0.263-0.001-0.267-0.391 0-0.391z" stroke="#000" fill="none"/>
			<path d="m81.021 52.467h-15.928v-0.42h15.928c0.073 0 0.069 0.42 0 0.42z" fill="#5C5B3D"/>
			<path stroke-width=".0671" d="m81.021 52.467h-15.928v-0.42h15.928c0.073 0 0.069 0.42 0 0.42z" stroke="#000" fill="none"/>
			<path d="m65.093 52.047v0.42l-0.62 0.838-0.62-0.91-0.743 0.346-1.064-0.482 1.064-0.484 0.743 0.348c0-0.17 0.209-0.348 0.313-0.428 0-0.846-0.75-1.178-1.41-0.838 0.112-0.629 1.079-0.84 1.725-0.84 0.645 0 1.612 0.211 1.726 0.84-0.661-0.34-1.411-0.008-1.411 0.838 0.103 0.039 0.297 0.168 0.297 0.352z" fill="#EEEFEF"/>
			<path stroke-width=".0671" d="m65.093 52.047v0.42l-0.62 0.838-0.62-0.91-0.743 0.346-1.064-0.482 1.064-0.484 0.743 0.348c0-0.17 0.209-0.348 0.313-0.428 0-0.846-0.75-1.178-1.41-0.838 0.112-0.629 1.079-0.84 1.725-0.84 0.645 0 1.612 0.211 1.726 0.84-0.661-0.34-1.411-0.008-1.411 0.838 0.103 0.039 0.297 0.168 0.297 0.352z" stroke="#000" fill="none"/>
			<path d="m65.164 52.273c0 0.367-0.2 0.51-0.695 0.51s-0.695-0.143-0.695-0.51 0.2-0.51 0.695-0.51c0.495 0.001 0.695 0.143 0.695 0.51z" fill="#EEEFEF"/>
			<path stroke-width=".0671" d="m65.164 52.273c0 0.367-0.2 0.51-0.695 0.51s-0.695-0.143-0.695-0.51 0.2-0.51 0.695-0.51c0.495 0.001 0.695 0.143 0.695 0.51z" stroke="#000" fill="none"/>
			<path d="m66.709 53.967h10.508c0.226 0 0.419-0.951 0.419-1.58s-0.193-1.58-0.419-1.58h-10.512c-0.226 0-0.419 0.951-0.419 1.58s0.197 1.58 0.423 1.58z" fill="#5C5B3D"/>
			<path stroke-width=".0671" d="m66.709 53.967h10.508c0.226 0 0.419-0.951 0.419-1.58s-0.193-1.58-0.419-1.58h-10.512c-0.226 0-0.419 0.951-0.419 1.58s0.197 1.58 0.423 1.58zm-0.199-0.336h10.9m-11.03-0.498h11.158m-11.22-0.498h11.28m-11.29-0.496h11.302m-11.232-0.498h11.161m-11.036-0.498h10.913" stroke="#000" fill="none"/>
			<polygon points="71.582 54.055 71.582 50.727 70.889 50.727 70.889 54.055" fill="#D0CE12"/>
			<polygon stroke-width=".0671" points="71.582 54.055 71.582 50.727 70.889 50.727 70.889 54.055" stroke="#000" fill="none"/>
			<path d="m66.689 52.387c0-0.66 0.204-1.66 0.441-1.66h0.694c0.032 0 0.065 0.043 0.081 0.08l-0.195-0.002c-0.186 0.244-0.328 1.031-0.328 1.582s0.143 1.338 0.328 1.582l0.195-0.002c-0.016 0.035-0.049 0.088-0.081 0.088h-0.694c-0.236 0-0.441-1.008-0.441-1.668z" fill="#D0CE12"/>
			<path stroke-width=".0671" d="m66.689 52.387c0-0.66 0.204-1.66 0.441-1.66h0.694c0.032 0 0.065 0.043 0.081 0.08l-0.195-0.002c-0.186 0.244-0.328 1.031-0.328 1.582s0.143 1.338 0.328 1.582l0.195-0.002c-0.016 0.035-0.049 0.088-0.081 0.088h-0.694c-0.236 0-0.441-1.008-0.441-1.668z" stroke="#000" fill="none"/>
			<path d="m67.757 50.727h0.383c0.605 0.936 1.726 2.354 2.749 2.967v0.361h-0.267c-1.273-0.662-2.208-1.959-2.957-3.168 0.035-0.065 0.064-0.123 0.092-0.16z" fill="#D0CE12"/>
			<path stroke-width=".0671" d="m67.757 50.727h0.383c0.605 0.936 1.726 2.354 2.749 2.967v0.361h-0.267c-1.273-0.662-2.208-1.959-2.957-3.168 0.035-0.065 0.064-0.123 0.092-0.16z" stroke="#000" fill="none"/>
			<path d="m67.757 54.055h0.383c0.605-0.935 1.726-2.361 2.749-2.975v-0.354h-0.267c-1.273 0.662-2.208 1.949-2.957 3.158 0.035 0.067 0.064 0.134 0.092 0.171z" fill="#D0CE12"/>
			<path stroke-width=".0671" d="m67.757 54.055h0.383c0.605-0.935 1.726-2.361 2.749-2.975v-0.354h-0.267c-1.273 0.662-2.208 1.949-2.957 3.158 0.035 0.067 0.064 0.134 0.092 0.171z" stroke="#000" fill="none"/>
			<polygon points="72.404 54.055 72.404 50.727 73.098 50.727 73.098 54.055" fill="#D0CE12"/>
			<polygon stroke-width=".0671" points="72.404 54.055 72.404 50.727 73.098 50.727 73.098 54.055" stroke="#000" fill="none"/>
			<path d="m77.297 52.387c0-0.66-0.205-1.66-0.441-1.66h-0.696c-0.032 0-0.064 0.043-0.08 0.08l0.195-0.002c0.186 0.244 0.328 1.031 0.328 1.582s-0.143 1.338-0.328 1.582l-0.195-0.002c0.016 0.035 0.048 0.088 0.08 0.088h0.695c0.237 0 0.442-1.008 0.442-1.668z" fill="#D0CE12"/>
			<path stroke-width=".0671" d="m77.297 52.387c0-0.66-0.205-1.66-0.441-1.66h-0.696c-0.032 0-0.064 0.043-0.08 0.08l0.195-0.002c0.186 0.244 0.328 1.031 0.328 1.582s-0.143 1.338-0.328 1.582l-0.195-0.002c0.016 0.035 0.048 0.088 0.08 0.088h0.695c0.237 0 0.442-1.008 0.442-1.668z" stroke="#000" fill="none"/>
			<path d="m76.229 50.727h-0.383c-0.604 0.936-1.725 2.354-2.748 2.967v0.361h0.266c1.273-0.662 2.208-1.959 2.958-3.168-0.037-0.065-0.065-0.123-0.093-0.16z" fill="#D0CE12"/>
			<path stroke-width=".0671" d="m76.229 50.727h-0.383c-0.604 0.936-1.725 2.354-2.748 2.967v0.361h0.266c1.273-0.662 2.208-1.959 2.958-3.168-0.037-0.065-0.065-0.123-0.093-0.16z" stroke="#000" fill="none"/>
			<path d="m76.229 54.055h-0.383c-0.604-0.935-1.725-2.361-2.748-2.975v-0.354h0.266c1.273 0.662 2.208 1.949 2.958 3.158-0.037 0.067-0.065 0.134-0.093 0.171z" fill="#D0CE12"/>
			<path stroke-width=".0671" d="m76.229 54.055h-0.383c-0.604-0.935-1.725-2.361-2.748-2.975v-0.354h0.266c1.273 0.662 2.208 1.949 2.958 3.158-0.037 0.067-0.065 0.134-0.093 0.171z" stroke="#000" fill="none"/>
			<path d="m83.452 35.781c-0.064-2.547-0.218-5.055-1.121-7.473 0.467 2.596 0.835 6.863 0.737 7.799l0.384-0.326z" fill="#008256"/>
			<path stroke-width=".0671" d="m83.452 35.781c-0.064-2.547-0.218-5.055-1.121-7.473 0.467 2.596 0.835 6.863 0.737 7.799l0.384-0.326z" stroke="#000" fill="none"/>
			<path d="m83.068 36.107c-0.241-3.271-0.673-5.881-1.511-7.51 0.628 2.434 1.168 5.717 1.231 7.748l0.28-0.238z" fill="#008256"/>
			<path stroke-width=".0671" d="m83.068 36.107c-0.241-3.271-0.673-5.881-1.511-7.51 0.628 2.434 1.168 5.717 1.231 7.748l0.28-0.238z" stroke="#000" fill="none"/>
			<path d="m83.068 36.107c-0.547-2.982-1.382-6.09-2.769-8.025 1 2.258 2.377 6.523 2.376 8.359l0.393-0.334z" fill="#008256"/>
			<path stroke-width=".0671" d="m83.068 36.107c-0.547-2.982-1.382-6.09-2.769-8.025 1 2.258 2.377 6.523 2.376 8.359l0.393-0.334z" stroke="#000" fill="none"/>
			<path d="m82.789 36.346c-0.451-2.967-1.989-6.41-3.811-8.393 1.289 1.902 3.219 6.268 3.524 8.637l0.287-0.244z" fill="#008256"/>
			<path stroke-width=".0671" d="m82.789 36.346c-0.451-2.967-1.989-6.41-3.811-8.393 1.289 1.902 3.219 6.268 3.524 8.637l0.287-0.244z" stroke="#000" fill="none"/>
			<path d="m81.91 37.094c-0.611-1.514-2.32-4.336-3.675-5.562 2.031 1.613 3.427 3.848 3.91 5.363l-0.235 0.199z" fill="#008256"/>
			<path stroke-width=".0671" d="m81.91 37.094c-0.611-1.514-2.32-4.336-3.675-5.562 2.031 1.613 3.427 3.848 3.91 5.363l-0.235 0.199z" stroke="#000" fill="none"/>
			<path d="m82.146 36.895c-0.807-1.934-2.362-4.621-3.845-6.105 1.999 1.742 3.415 3.965 4.124 5.867l-0.279 0.238z" fill="#008256"/>
			<path stroke-width=".0671" d="m82.146 36.895c-0.807-1.934-2.362-4.621-3.845-6.105 1.999 1.742 3.415 3.965 4.124 5.867l-0.279 0.238z" stroke="#000" fill="none"/>
			<path d="m82.321 36.744c-0.807-2.16-2.57-5.406-3.827-6.76 2.096 1.871 3.352 4.281 4.125 6.506l-0.298 0.254z" fill="#008256"/>
			<path stroke-width=".0671" d="m82.321 36.744c-0.807-2.16-2.57-5.406-3.827-6.76 2.096 1.871 3.352 4.281 4.125 6.506l-0.298 0.254z" stroke="#000" fill="none"/>
			<path d="m82.425 36.656c-1.321-3.771-2.995-6.736-4.124-7.994 2.096 1.484 3.94 6.168 4.375 7.779l-0.251 0.215z" fill="#008256"/>
			<path stroke-width=".0671" d="m82.425 36.656c-1.321-3.771-2.995-6.736-4.124-7.994 2.096 1.484 3.94 6.168 4.375 7.779l-0.251 0.215z" stroke="#000" fill="none"/>
			<path d="m62.031 33.914c0.092-0.678-0.113-1.123-0.851-1.678 0.533-0.15 1.111 0.295 0.967 1.322" fill="#008256"/>
			<path stroke-width=".0671" d="m62.031 33.914c0.092-0.678-0.113-1.123-0.851-1.678 0.533-0.15 1.111 0.295 0.967 1.322" stroke="#000" fill="none"/>
			<path d="m62.853 34.734c0.628-0.422 0.869-0.941 1.22-1.377 0.351-0.435 0.691-0.82 1.597-0.857-0.418 0.674-0.71 1.145-1.516 1.482-0.509 0.211-1.242 0.826-1.492 1.037l0.191-0.285z" fill="#008256"/>
			<path stroke-width=".0671" d="m62.853 34.734c0.628-0.422 0.869-0.941 1.22-1.377 0.351-0.435 0.691-0.82 1.597-0.857-0.418 0.674-0.71 1.145-1.516 1.482-0.509 0.211-1.242 0.826-1.492 1.037l0.191-0.285z" stroke="#000" fill="none"/>
			<path d="m61.814 36.008c1.007-0.766 1.354-0.973 1.584-1.328 0.23-0.354 0.623-0.715 1.603-0.809-0.473 0.875-1.241 1.219-1.771 1.383-0.532 0.168-1.136 0.652-1.447 1.131" fill="#008256"/>
			<path stroke-width=".0671" d="m61.814 36.008c1.007-0.766 1.354-0.973 1.584-1.328 0.23-0.354 0.623-0.715 1.603-0.809-0.473 0.875-1.241 1.219-1.771 1.383-0.532 0.168-1.136 0.652-1.447 1.131" stroke="#000" fill="none"/>
			<path d="m62.597 34.768c0.657-1.076 1.597-0.727 2.059 0.205-0.575-0.039-0.997-1.041-2.059-0.205z" fill="#008256"/>
			<path stroke-width=".0671" d="m62.597 34.768c0.657-1.076 1.597-0.727 2.059 0.205-0.575-0.039-0.997-1.041-2.059-0.205z" stroke="#000" fill="none"/>
			<path d="m61.867 34.781c-0.013-1.104 0.465-2.434 0.812-3.016 0.277-0.465 0.378-0.601 0.354-0.906-0.071-0.932 0.513-1.693 0.632-2.521 0.188 0.951 0.097 1.873-0.44 2.627 1.092-1.49 2.033-1.125 2.445-1.586-0.229 1.494-1.961 0.871-2.591 1.961-0.518 0.896-1.124 2.242-1.125 4.242-0.068-0.152-0.126-0.602-0.087-0.801z" fill="#008256"/>
			<path stroke-width=".0671" d="m61.867 34.781c-0.013-1.104 0.465-2.434 0.812-3.016 0.277-0.465 0.378-0.601 0.354-0.906-0.071-0.932 0.513-1.693 0.632-2.521 0.188 0.951 0.097 1.873-0.44 2.627 1.092-1.49 2.033-1.125 2.445-1.586-0.229 1.494-1.961 0.871-2.591 1.961-0.518 0.896-1.124 2.242-1.125 4.242-0.068-0.152-0.126-0.602-0.087-0.801z" stroke="#000" fill="none"/>
			<path d="m62.971 33.387c0.622-1.219 1.643-2.002 2.175-2.41 0.532-0.41 0.877-0.764 1.099-1.184 0.223-0.418 0.693-1.049 1.135-1.154-0.146 0.377-0.526 0.832-0.892 1.139-0.367 0.309-0.601 0.891-1.422 1.451-0.765 0.524-1.375 1.188-1.889 2.115l-0.206 0.043z" fill="#008256"/>
			<path stroke-width=".0671" d="m62.971 33.387c0.622-1.219 1.643-2.002 2.175-2.41 0.532-0.41 0.877-0.764 1.099-1.184 0.223-0.418 0.693-1.049 1.135-1.154-0.146 0.377-0.526 0.832-0.892 1.139-0.367 0.309-0.601 0.891-1.422 1.451-0.765 0.524-1.375 1.188-1.889 2.115l-0.206 0.043z" stroke="#000" fill="none"/>
			<path d="m66.063 30.158c0.028-0.541 0.101-0.988 0.452-1.539-0.01 0.424-0.199 1.1-0.328 1.359 0.552-0.381 1.325-0.561 1.87-0.371-0.615 0.273-1.707 0.254-2.015 0.635" fill="#008256"/>
			<path stroke-width=".0671" d="m66.063 30.158c0.028-0.541 0.101-0.988 0.452-1.539-0.01 0.424-0.199 1.1-0.328 1.359 0.552-0.381 1.325-0.561 1.87-0.371-0.615 0.273-1.707 0.254-2.015 0.635" stroke="#000" fill="none"/>
			<path d="m61.903 34.939c0.235-1.201 0.828-1.896 1.109-2.355 0.282-0.459 1.171-1.127 2.187-0.949-0.521 0.506-2.14 0.928-2.67 1.988-0.528 1.059-0.513 1.432-0.646 2.033l0.02-0.717z" fill="#008256"/>
			<path stroke-width=".0671" d="m61.903 34.939c0.235-1.201 0.828-1.896 1.109-2.355 0.282-0.459 1.171-1.127 2.187-0.949-0.521 0.506-2.14 0.928-2.67 1.988-0.528 1.059-0.513 1.432-0.646 2.033l0.02-0.717z" stroke="#000" fill="none"/>
			<path d="m62.021 31.949c-0.053-0.789-0.325-2.006-1.117-2.359 0.022 0.68 0.292 1.765 1.117 2.359z" fill="#008256"/>
			<path stroke-width=".0671" d="m62.021 31.949c-0.053-0.789-0.325-2.006-1.117-2.359 0.022 0.68 0.292 1.765 1.117 2.359z" stroke="#000" fill="none"/>
			<path d="m62.104 33.352c-0.039-0.807-0.249-1.215-0.341-1.629-0.313-1.424 0.287-2.055 0.073-2.578 0.709 0.834 0.692 2.088 0.533 2.742-0.159 0.656-0.177 0.771-0.148 1.109" fill="#008256"/>
			<path stroke-width=".0671" d="m62.104 33.352c-0.039-0.807-0.249-1.215-0.341-1.629-0.313-1.424 0.287-2.055 0.073-2.578 0.709 0.834 0.692 2.088 0.533 2.742-0.159 0.656-0.177 0.771-0.148 1.109" stroke="#000" fill="none"/>
			<path d="m63.176 30.953c0.272-0.408 0.626-0.941 0.791-1.305 0.164-0.363 0.769-1.334 1.864-1.541-0.758 1.17-1.872 2.111-2.242 2.518-0.37 0.404-0.555 0.738-0.413 0.328z" fill="#008256"/>
			<path stroke-width=".0671" d="m63.176 30.953c0.272-0.408 0.626-0.941 0.791-1.305 0.164-0.363 0.769-1.334 1.864-1.541-0.758 1.17-1.872 2.111-2.242 2.518-0.37 0.404-0.555 0.738-0.413 0.328z" stroke="#000" fill="none"/>
			<path d="m61.854 36.068c0.553-1.15 0.219-2.524 1.827-3.369-0.464 0.912 0.514 0.963-1.827 3.369z" fill="#008256"/>
			<path stroke-width=".0671" d="m61.854 36.068c0.553-1.15 0.219-2.524 1.827-3.369-0.464 0.912 0.514 0.963-1.827 3.369z" stroke="#000" fill="none"/>
			<path d="m61.752 36.812c0.729-0.775 1.691-0.285 2.415-0.965 0.349-0.326 0.333-0.318-0.182-0.398-0.731-0.111-1.565 0.334-2.165 0.98 0.363-0.959 0.052-2.363-0.426-3.164-0.374-0.627-0.351-0.572-0.483 0.031-0.134 0.602 0.023 1.557 0.322 1.988 0.288 0.416 0.4 0.869 0.356 1.387l0.163 0.141z" fill="#008256"/>
			<path stroke-width=".0671" d="m61.752 36.812c0.729-0.775 1.691-0.285 2.415-0.965 0.349-0.326 0.333-0.318-0.182-0.398-0.731-0.111-1.565 0.334-2.165 0.98 0.363-0.959 0.052-2.363-0.426-3.164-0.374-0.627-0.351-0.572-0.483 0.031-0.134 0.602 0.023 1.557 0.322 1.988 0.288 0.416 0.4 0.869 0.356 1.387l0.163 0.141z" stroke="#000" fill="none"/>
			<path d="m62.834 32.482c-0.08 0.102-0.226 0.068-0.243-0.07-0.019-0.139 0.114-0.209 0.217-0.131-0.102-0.078-0.067-0.225 0.07-0.242s0.209 0.115 0.13 0.217c0.079-0.102 0.225-0.068 0.242 0.07 0.018 0.139-0.114 0.209-0.217 0.129 0.103 0.08 0.068 0.227-0.07 0.244-0.138 0.018-0.209-0.115-0.129-0.217z" fill="#FFE666"/>
			<path stroke-width=".0671" d="m62.834 32.482c-0.08 0.102-0.226 0.068-0.243-0.07-0.019-0.139 0.114-0.209 0.217-0.131-0.102-0.078-0.067-0.225 0.07-0.242s0.209 0.115 0.13 0.217c0.079-0.102 0.225-0.068 0.242 0.07 0.018 0.139-0.114 0.209-0.217 0.129 0.103 0.08 0.068 0.227-0.07 0.244-0.138 0.018-0.209-0.115-0.129-0.217z" stroke="#000" fill="none"/>
			<path d="m63.086 31.668c-0.079 0.104-0.225 0.068-0.243-0.07-0.018-0.137 0.114-0.207 0.218-0.129-0.104-0.078-0.068-0.225 0.069-0.242 0.138-0.018 0.209 0.113 0.13 0.217 0.079-0.104 0.226-0.068 0.243 0.07 0.018 0.137-0.114 0.209-0.217 0.129 0.103 0.08 0.067 0.227-0.07 0.244-0.139 0.017-0.209-0.116-0.13-0.219z" fill="#FFE666"/>
			<path stroke-width=".0671" d="m63.086 31.668c-0.079 0.104-0.225 0.068-0.243-0.07-0.018-0.137 0.114-0.207 0.218-0.129-0.104-0.078-0.068-0.225 0.069-0.242 0.138-0.018 0.209 0.113 0.13 0.217 0.079-0.104 0.226-0.068 0.243 0.07 0.018 0.137-0.114 0.209-0.217 0.129 0.103 0.08 0.067 0.227-0.07 0.244-0.139 0.017-0.209-0.116-0.13-0.219z" stroke="#000" fill="none"/>
			<path d="m62.486 31.682c-0.079 0.104-0.226 0.068-0.243-0.07-0.017-0.139 0.114-0.209 0.217-0.131-0.103-0.078-0.067-0.225 0.07-0.242 0.138-0.018 0.209 0.115 0.13 0.217 0.079-0.102 0.225-0.066 0.243 0.07 0.018 0.139-0.114 0.209-0.218 0.129 0.104 0.08 0.068 0.227-0.07 0.244-0.137 0.017-0.208-0.114-0.129-0.217z" fill="#FFE666"/>
			<path stroke-width=".0671" d="m62.486 31.682c-0.079 0.104-0.226 0.068-0.243-0.07-0.017-0.139 0.114-0.209 0.217-0.131-0.103-0.078-0.067-0.225 0.07-0.242 0.138-0.018 0.209 0.115 0.13 0.217 0.079-0.102 0.225-0.066 0.243 0.07 0.018 0.139-0.114 0.209-0.218 0.129 0.104 0.08 0.068 0.227-0.07 0.244-0.137 0.017-0.208-0.114-0.129-0.217z" stroke="#000" fill="none"/>
			<path d="m63.759 31.094c-0.079 0.104-0.225 0.068-0.242-0.07-0.018-0.137 0.114-0.209 0.217-0.129-0.103-0.08-0.068-0.225 0.07-0.242 0.138-0.02 0.209 0.113 0.129 0.217 0.08-0.104 0.226-0.068 0.244 0.07 0.018 0.137-0.115 0.209-0.218 0.129 0.103 0.08 0.067 0.225-0.07 0.244-0.138 0.015-0.209-0.116-0.13-0.219z" fill="#FFE666"/>
			<path stroke-width=".0671" d="m63.759 31.094c-0.079 0.104-0.225 0.068-0.242-0.07-0.018-0.137 0.114-0.209 0.217-0.129-0.103-0.08-0.068-0.225 0.07-0.242 0.138-0.02 0.209 0.113 0.129 0.217 0.08-0.104 0.226-0.068 0.244 0.07 0.018 0.137-0.115 0.209-0.218 0.129 0.103 0.08 0.067 0.225-0.07 0.244-0.138 0.015-0.209-0.116-0.13-0.219z" stroke="#000" fill="none"/>
			<path d="m66.094 30.289c-0.08 0.101-0.226 0.066-0.243-0.07-0.018-0.139 0.114-0.209 0.217-0.131-0.103-0.078-0.067-0.225 0.07-0.242 0.138-0.018 0.209 0.113 0.13 0.217 0.079-0.104 0.225-0.066 0.242 0.07 0.018 0.137-0.114 0.209-0.217 0.129 0.103 0.08 0.068 0.225-0.07 0.242-0.138 0.02-0.209-0.113-0.129-0.215z" fill="#FFE666"/>
			<path stroke-width=".0671" d="m66.094 30.289c-0.08 0.101-0.226 0.066-0.243-0.07-0.018-0.139 0.114-0.209 0.217-0.131-0.103-0.078-0.067-0.225 0.07-0.242 0.138-0.018 0.209 0.113 0.13 0.217 0.079-0.104 0.225-0.066 0.242 0.07 0.018 0.137-0.114 0.209-0.217 0.129 0.103 0.08 0.068 0.225-0.07 0.242-0.138 0.02-0.209-0.113-0.129-0.215z" stroke="#000" fill="none"/>
			<path d="m65.257 30.477c-0.08 0.103-0.226 0.068-0.244-0.07-0.018-0.137 0.115-0.207 0.218-0.129-0.103-0.078-0.067-0.225 0.07-0.242 0.138-0.018 0.209 0.113 0.13 0.217 0.079-0.104 0.225-0.068 0.242 0.07 0.018 0.139-0.114 0.209-0.217 0.129 0.103 0.08 0.068 0.225-0.07 0.244-0.138 0.017-0.209-0.116-0.129-0.219z" fill="#FFE666"/>
			<path stroke-width=".0671" d="m65.257 30.477c-0.08 0.103-0.226 0.068-0.244-0.07-0.018-0.137 0.115-0.207 0.218-0.129-0.103-0.078-0.067-0.225 0.07-0.242 0.138-0.018 0.209 0.113 0.13 0.217 0.079-0.104 0.225-0.068 0.242 0.07 0.018 0.139-0.114 0.209-0.217 0.129 0.103 0.08 0.068 0.225-0.07 0.244-0.138 0.017-0.209-0.116-0.129-0.219z" stroke="#000" fill="none"/>
			<path d="m65.047 31.496c-0.079 0.104-0.225 0.068-0.243-0.07-0.018-0.137 0.114-0.209 0.217-0.129-0.103-0.08-0.067-0.225 0.07-0.242 0.139-0.018 0.209 0.113 0.13 0.215 0.079-0.102 0.225-0.066 0.242 0.07 0.018 0.139-0.113 0.209-0.217 0.131 0.104 0.078 0.068 0.225-0.069 0.242-0.139 0.017-0.209-0.113-0.13-0.217z" fill="#FFE666"/>
			<path stroke-width=".0671" d="m65.047 31.496c-0.079 0.104-0.225 0.068-0.243-0.07-0.018-0.137 0.114-0.209 0.217-0.129-0.103-0.08-0.067-0.225 0.07-0.242 0.139-0.018 0.209 0.113 0.13 0.215 0.079-0.102 0.225-0.066 0.242 0.07 0.018 0.139-0.113 0.209-0.217 0.131 0.104 0.078 0.068 0.225-0.069 0.242-0.139 0.017-0.209-0.113-0.13-0.217z" stroke="#000" fill="none"/>
			<path d="m63.724 33.455c-0.079 0.104-0.225 0.068-0.243-0.068-0.018-0.139 0.114-0.209 0.217-0.131-0.103-0.078-0.067-0.225 0.07-0.242 0.138-0.018 0.209 0.113 0.13 0.217 0.079-0.104 0.225-0.068 0.242 0.07 0.019 0.139-0.113 0.209-0.216 0.129 0.102 0.08 0.066 0.225-0.07 0.242-0.139 0.019-0.209-0.113-0.13-0.217z" fill="#FFE666"/>
			<path stroke-width=".0671" d="m63.724 33.455c-0.079 0.104-0.225 0.068-0.243-0.068-0.018-0.139 0.114-0.209 0.217-0.131-0.103-0.078-0.067-0.225 0.07-0.242 0.138-0.018 0.209 0.113 0.13 0.217 0.079-0.104 0.225-0.068 0.242 0.07 0.019 0.139-0.113 0.209-0.216 0.129 0.102 0.08 0.066 0.225-0.07 0.242-0.139 0.019-0.209-0.113-0.13-0.217z" stroke="#000" fill="none"/>
			<path d="m65.567 32.129c-0.079 0.104-0.225 0.066-0.243-0.07-0.018-0.139 0.115-0.209 0.218-0.131-0.103-0.078-0.068-0.225 0.07-0.242 0.137-0.018 0.209 0.113 0.129 0.217 0.08-0.104 0.226-0.068 0.243 0.07 0.018 0.139-0.114 0.209-0.217 0.129 0.103 0.08 0.067 0.225-0.07 0.244-0.137 0.017-0.209-0.114-0.13-0.217z" fill="#FFE666"/>
			<path stroke-width=".0671" d="m65.567 32.129c-0.079 0.104-0.225 0.066-0.243-0.07-0.018-0.139 0.115-0.209 0.218-0.131-0.103-0.078-0.068-0.225 0.07-0.242 0.137-0.018 0.209 0.113 0.129 0.217 0.08-0.104 0.226-0.068 0.243 0.07 0.018 0.139-0.114 0.209-0.217 0.129 0.103 0.08 0.067 0.225-0.07 0.244-0.137 0.017-0.209-0.114-0.13-0.217z" stroke="#000" fill="none"/>
			<path d="m64.408 33.092c-0.08 0.102-0.226 0.066-0.243-0.07-0.019-0.139 0.114-0.209 0.217-0.131-0.103-0.078-0.067-0.225 0.07-0.242 0.138-0.018 0.209 0.113 0.13 0.217 0.079-0.104 0.225-0.068 0.242 0.07 0.018 0.139-0.114 0.209-0.217 0.129 0.103 0.08 0.067 0.225-0.07 0.244-0.138 0.017-0.209-0.116-0.129-0.217z" fill="#FFE666"/>
			<path stroke-width=".0671" d="m64.408 33.092c-0.08 0.102-0.226 0.066-0.243-0.07-0.019-0.139 0.114-0.209 0.217-0.131-0.103-0.078-0.067-0.225 0.07-0.242 0.138-0.018 0.209 0.113 0.13 0.217 0.079-0.104 0.225-0.068 0.242 0.07 0.018 0.139-0.114 0.209-0.217 0.129 0.103 0.08 0.067 0.225-0.07 0.244-0.138 0.017-0.209-0.116-0.129-0.217z" stroke="#000" fill="none"/>
			<path d="m62.633 35.58c-0.079 0.104-0.225 0.068-0.243-0.07-0.018-0.137 0.115-0.209 0.218-0.129-0.102-0.08-0.068-0.227 0.07-0.244 0.137-0.017 0.208 0.115 0.129 0.217 0.079-0.102 0.226-0.066 0.243 0.07 0.018 0.139-0.114 0.209-0.217 0.131 0.103 0.078 0.067 0.225-0.07 0.242-0.139 0.017-0.209-0.113-0.13-0.217z" fill="#FFE666"/>
			<path stroke-width=".0671" d="m62.633 35.58c-0.079 0.104-0.225 0.068-0.243-0.07-0.018-0.137 0.115-0.209 0.218-0.129-0.102-0.08-0.068-0.227 0.07-0.244 0.137-0.017 0.208 0.115 0.129 0.217 0.079-0.102 0.226-0.066 0.243 0.07 0.018 0.139-0.114 0.209-0.217 0.131 0.103 0.078 0.067 0.225-0.07 0.242-0.139 0.017-0.209-0.113-0.13-0.217z" stroke="#000" fill="none"/>
			<path d="m63.409 35.301c-0.079 0.104-0.225 0.066-0.242-0.07-0.018-0.139 0.113-0.209 0.217-0.129-0.104-0.08-0.067-0.225 0.07-0.244 0.138-0.017 0.208 0.115 0.13 0.217 0.078-0.102 0.224-0.066 0.241 0.07 0.019 0.139-0.113 0.209-0.216 0.131 0.102 0.078 0.067 0.225-0.07 0.242-0.138 0.017-0.209-0.114-0.13-0.217z" fill="#FFE666"/>
			<path stroke-width=".0671" d="m63.409 35.301c-0.079 0.104-0.225 0.066-0.242-0.07-0.018-0.139 0.113-0.209 0.217-0.129-0.104-0.08-0.067-0.225 0.07-0.244 0.138-0.017 0.208 0.115 0.13 0.217 0.078-0.102 0.224-0.066 0.241 0.07 0.019 0.139-0.113 0.209-0.216 0.131 0.102 0.078 0.067 0.225-0.07 0.242-0.138 0.017-0.209-0.114-0.13-0.217z" stroke="#000" fill="none"/>
			<path d="m64.27 32.523c-0.08 0.104-0.226 0.068-0.243-0.07-0.018-0.137 0.114-0.209 0.217-0.129-0.103-0.08-0.067-0.225 0.07-0.242 0.138-0.02 0.209 0.113 0.13 0.217 0.079-0.104 0.225-0.068 0.242 0.068 0.019 0.139-0.114 0.211-0.217 0.131 0.103 0.08 0.068 0.225-0.069 0.242-0.139 0.02-0.211-0.113-0.13-0.217z" fill="#FFE666"/>
			<path stroke-width=".0671" d="m64.27 32.523c-0.08 0.104-0.226 0.068-0.243-0.07-0.018-0.137 0.114-0.209 0.217-0.129-0.103-0.08-0.067-0.225 0.07-0.242 0.138-0.02 0.209 0.113 0.13 0.217 0.079-0.104 0.225-0.068 0.242 0.068 0.019 0.139-0.114 0.211-0.217 0.131 0.103 0.08 0.068 0.225-0.069 0.242-0.139 0.02-0.211-0.113-0.13-0.217z" stroke="#000" fill="none"/>
			<path d="m62.935 32.479c0.061-0.008 0.103-0.062 0.096-0.123-0.009-0.061-0.063-0.104-0.124-0.096-0.06 0.008-0.103 0.062-0.095 0.123 0.006 0.06 0.063 0.103 0.123 0.096z" fill="#EC174C"/>
			<path d="m63.188 31.666c0.06-0.008 0.103-0.064 0.095-0.123-0.008-0.061-0.063-0.103-0.123-0.096-0.061 0.008-0.104 0.062-0.096 0.123s0.062 0.104 0.124 0.096z" fill="#EC174C"/>
			<path d="m62.587 31.678c0.061-0.008 0.104-0.062 0.096-0.123s-0.064-0.102-0.124-0.096c-0.06 0.008-0.103 0.062-0.095 0.123s0.063 0.104 0.123 0.096z" fill="#EC174C"/>
			<path d="m63.86 31.09c0.06-0.008 0.103-0.062 0.095-0.123s-0.063-0.102-0.123-0.096c-0.061 0.01-0.103 0.065-0.096 0.125 0.009 0.059 0.064 0.102 0.124 0.094z" fill="#EC174C"/>
			<path d="m66.194 30.285c0.061-0.008 0.103-0.065 0.096-0.123-0.009-0.06-0.063-0.104-0.124-0.096-0.06 0.008-0.104 0.062-0.095 0.123 0.008 0.061 0.064 0.102 0.123 0.096z" fill="#EC174C"/>
			<path d="m65.357 30.475c0.061-0.008 0.103-0.062 0.096-0.125-0.009-0.059-0.063-0.101-0.124-0.094-0.06 0.008-0.103 0.062-0.095 0.123s0.064 0.103 0.123 0.096z" fill="#EC174C"/>
			<path d="m65.148 31.492c0.06-0.008 0.103-0.062 0.095-0.123-0.009-0.059-0.063-0.102-0.123-0.094-0.061 0.006-0.104 0.062-0.096 0.121 0.008 0.063 0.064 0.104 0.124 0.096z" fill="#EC174C"/>
			<path d="m63.825 33.451c0.06-0.008 0.103-0.062 0.094-0.121-0.007-0.062-0.062-0.104-0.122-0.096-0.062 0.008-0.104 0.062-0.096 0.123s0.063 0.102 0.124 0.094z" fill="#EC174C"/>
			<path d="m65.669 32.125c0.06-0.008 0.103-0.064 0.095-0.125-0.008-0.059-0.063-0.101-0.123-0.094-0.061 0.008-0.103 0.062-0.096 0.123 0.009 0.061 0.063 0.104 0.124 0.096z" fill="#EC174C"/>
			<path d="m64.509 33.086c0.061-0.006 0.103-0.062 0.096-0.121-0.009-0.061-0.063-0.104-0.124-0.096-0.06 0.008-0.103 0.062-0.096 0.123 0.009 0.061 0.064 0.104 0.124 0.094z" fill="#EC174C"/>
			<path d="m62.734 35.576c0.059-0.008 0.102-0.062 0.095-0.123-0.008-0.06-0.064-0.103-0.123-0.094-0.061 0.006-0.104 0.062-0.095 0.121 0.007 0.061 0.063 0.104 0.123 0.096z" fill="#EC174C"/>
			<path d="m63.511 35.297c0.061-0.008 0.103-0.062 0.095-0.123s-0.062-0.104-0.123-0.096c-0.06 0.008-0.102 0.065-0.095 0.123 0.007 0.061 0.062 0.104 0.123 0.096z" fill="#EC174C"/>
			<path d="m64.37 32.52c0.061-0.008 0.103-0.062 0.096-0.123-0.009-0.061-0.063-0.102-0.124-0.096-0.06 0.01-0.103 0.064-0.094 0.125 0.007 0.058 0.063 0.103 0.122 0.094z" fill="#EC174C"/>
			<path stroke-width=".537" d="m71.993 29.207c0.976 0 1.721 0.166 2.313 0.359 0.257 0.084 0.753 0.227 0.669 0.395-0.146-0.055-0.379 0.033-0.492 0.336-0.112 0.301-0.108 0.539 0.041 0.607-0.041 0.09-0.11 0.15-0.492-0.008-0.524-0.217-1.459-0.363-2.039-0.363s-1.516 0.147-2.039 0.363c-0.382 0.158-0.452 0.098-0.492 0.008 0.149-0.068 0.153-0.307 0.04-0.607-0.112-0.303-0.347-0.391-0.491-0.336-0.084-0.168 0.412-0.311 0.669-0.395 0.592-0.193 1.338-0.359 2.313-0.359z" stroke="#FFE666" fill="#C3DCE8"/>
			<path stroke-width=".537" d="m71.993 51.904c0.436-0.666 1.088-1.049 1.709-1.26 0.266-0.088 0.322-0.176 0.29-0.273-0.138 0.033-0.339-0.096-0.42-0.443-0.058-0.25 0-0.504 0.194-0.561-0.024-0.096-0.057-0.168-0.242-0.107-0.395 0.129-0.963 0.225-1.531 0.225s-1.137-0.096-1.532-0.225c-0.185-0.061-0.217 0.012-0.241 0.107 0.193 0.057 0.251 0.311 0.193 0.561-0.08 0.348-0.282 0.477-0.419 0.443-0.032 0.098 0.024 0.186 0.29 0.273 0.621 0.211 1.274 0.594 1.709 1.26z" stroke="#FFE666" fill="#C3DCE8"/>
			<path d="m55.323 23.496c2.126-0.461 1.451-0.676 3.45-1.029 1.999-0.356 3.418-1.033 4.32-1.291 0.903-0.258 2.482-0.775 3.192-0.645 0.709 0.129 2.195-0.149 2.757 0.225 0.29 0.193 0.273 0.5 0.258 0.678-0.017 0.178 0.096 0.225 0.291 0.225 0.402 0 0.414 0.578 0.821 0.549 0.226-0.016 0.274 0.113 0.29 0.322 0.71-0.676 1.87-0.66 3.547 0.098 0.338-0.242 0.887-0.469 1.37-0.258 0.13-0.162 0.484-0.227 0.678-0.178 0.193 0.049 0.367-0.08 0.29-0.338-0.242-0.807 0.693-1.146 1.273-0.936 0.58 0.209 0.983 0.193 1.773 0.209s1.243 0.109 2.015 0.322c1.468 0.404 2.139 1.145 3.692 1.645 2.305 0.742 3.417 1.387 4.207 1.564 0.79 0.176 0.549 0.629-0.273 0.338 0.064 0.096-0.629 0.291-1.339 0 0.693 0.451-0.612 0.389-1.144 0.193 0.241 0.162-0.871 0.242-1.822-0.193 0.339 0.242-0.258 0.565-1.08 0.065 0.146 0.129-0.322 0.387-0.693 0.064 0.161 0.178-0.177 0.34-0.402 0.193 0.209 0.178 0.483 0.436 0.354 0.516s-0.79-0.144-1.322-0.547c0.129 0.16-0.259 0.258-0.597-0.064 0.113 0.176-0.435 0.08-0.709-0.178 0.032 0.193-0.274 0.273-0.564 0.047 0.129 0.227-0.129 0.598-0.436 0.404 0.081 0.227-0.354 0.338-0.596 0.178 0.177 0.176-0.242 0.418-0.646 0.111 0.146 0.146-0.21 0.711-0.629 0.435 0.274 0.162-0.161 0.533-0.531 0.275 0.241 0.16-0.291 0.436-0.678 0.16 0.242 0.178-0.307 0.371-0.677 0.033 0.145 0.113-0.081 0.289-0.226 0.178 0.548 0.725 1.063 1.434 1.257 1.676s0.21 0.307-0.048 0.549c-0.158 0.148-0.955 0.762-1.391 1.051-0.121-0.055-0.234-0.113-0.383-0.178 0.141-0.217-0.959-0.535-1.77-0.664 0.048-0.469 0.012-1.242 0.061-1.645-0.186-0.258-0.282-0.338-0.354-0.041-0.072 0.299-0.29 0.387-0.33 0.621-0.041 0.234-0.105 0.484-0.46 0.565-0.354 0.08-0.403-0.258-0.387-0.982-0.057 0.168-0.354-0.162-0.322-0.564-0.032 0.176-0.5-0.113-0.468-0.902-0.129 0.385-0.436 0.644-0.549-0.113-0.321 0.402-0.645 0.58-0.805-0.018-0.259 0.275-0.581 0.291-0.678-0.144-0.322 0.242-0.597 0.338-0.661-0.129-0.242 0.242-0.661 0.371-0.822-0.113-0.322 0.34-0.935 0.041-0.87-0.354-0.242 0.209-0.767 0.008-0.678-0.404-0.209 0.162-0.54 0.008-0.419-0.289-0.403 0.258-0.661 0.225-0.677-0.193-0.629 0.322-1.322 0.436-1.451 0.273-0.322 0.209-0.983 0.469-1.145 0.42-0.161-0.049 0.112-0.404 0.419-0.693-0.193 0.049-0.468-0.049-0.5-0.193-0.274 0.145-0.902 0.354-0.95 0.258-0.049-0.098 0.063-0.291 0.499-0.518-0.419 0.242-1 0.291-1.096 0.211-0.097-0.082 0.129-0.242 0.402-0.402-1.209 0.498-1.467 0.242-1.031 0-0.951 0.434-1.37 0.305-1.017-0.033-0.499 0.178-1.45 0.209-1.837 0.162-0.387-0.049-0.629-0.178-0.21-0.42-0.242 0.065-1.258 0.049-1.467 0.049-0.205-0.002-0.446-0.131-0.076-0.213z" fill="#5C5B3D"/>
			<path stroke-width=".0671" d="m55.323 23.496c2.126-0.461 1.451-0.676 3.45-1.029 1.999-0.356 3.418-1.033 4.32-1.291 0.903-0.258 2.482-0.775 3.192-0.645 0.709 0.129 2.195-0.149 2.757 0.225 0.29 0.193 0.273 0.5 0.258 0.678-0.017 0.178 0.096 0.225 0.291 0.225 0.402 0 0.414 0.578 0.821 0.549 0.226-0.016 0.274 0.113 0.29 0.322 0.71-0.676 1.87-0.66 3.547 0.098 0.338-0.242 0.887-0.469 1.37-0.258 0.13-0.162 0.484-0.227 0.678-0.178 0.193 0.049 0.367-0.08 0.29-0.338-0.242-0.807 0.693-1.146 1.273-0.936 0.58 0.209 0.983 0.193 1.773 0.209s1.243 0.109 2.015 0.322c1.468 0.404 2.139 1.145 3.692 1.645 2.305 0.742 3.417 1.387 4.207 1.564 0.79 0.176 0.549 0.629-0.273 0.338 0.064 0.096-0.629 0.291-1.339 0 0.693 0.451-0.612 0.389-1.144 0.193 0.241 0.162-0.871 0.242-1.822-0.193 0.339 0.242-0.258 0.565-1.08 0.065 0.146 0.129-0.322 0.387-0.693 0.064 0.161 0.178-0.177 0.34-0.402 0.193 0.209 0.178 0.483 0.436 0.354 0.516s-0.79-0.144-1.322-0.547c0.129 0.16-0.259 0.258-0.597-0.064 0.113 0.176-0.435 0.08-0.709-0.178 0.032 0.193-0.274 0.273-0.564 0.047 0.129 0.227-0.129 0.598-0.436 0.404 0.081 0.227-0.354 0.338-0.596 0.178 0.177 0.176-0.242 0.418-0.646 0.111 0.146 0.146-0.21 0.711-0.629 0.435 0.274 0.162-0.161 0.533-0.531 0.275 0.241 0.16-0.291 0.436-0.678 0.16 0.242 0.178-0.307 0.371-0.677 0.033 0.145 0.113-0.081 0.289-0.226 0.178 0.548 0.725 1.063 1.434 1.257 1.676s0.21 0.307-0.048 0.549c-0.158 0.148-0.955 0.762-1.391 1.051-0.121-0.055-0.234-0.113-0.383-0.178 0.141-0.217-0.959-0.535-1.77-0.664 0.048-0.469 0.012-1.242 0.061-1.645-0.186-0.258-0.282-0.338-0.354-0.041-0.072 0.299-0.29 0.387-0.33 0.621-0.041 0.234-0.105 0.484-0.46 0.565-0.354 0.08-0.403-0.258-0.387-0.982-0.057 0.168-0.354-0.162-0.322-0.564-0.032 0.176-0.5-0.113-0.468-0.902-0.129 0.385-0.436 0.644-0.549-0.113-0.321 0.402-0.645 0.58-0.805-0.018-0.259 0.275-0.581 0.291-0.678-0.144-0.322 0.242-0.597 0.338-0.661-0.129-0.242 0.242-0.661 0.371-0.822-0.113-0.322 0.34-0.935 0.041-0.87-0.354-0.242 0.209-0.767 0.008-0.678-0.404-0.209 0.162-0.54 0.008-0.419-0.289-0.403 0.258-0.661 0.225-0.677-0.193-0.629 0.322-1.322 0.436-1.451 0.273-0.322 0.209-0.983 0.469-1.145 0.42-0.161-0.049 0.112-0.404 0.419-0.693-0.193 0.049-0.468-0.049-0.5-0.193-0.274 0.145-0.902 0.354-0.95 0.258-0.049-0.098 0.063-0.291 0.499-0.518-0.419 0.242-1 0.291-1.096 0.211-0.097-0.082 0.129-0.242 0.402-0.402-1.209 0.498-1.467 0.242-1.031 0-0.951 0.434-1.37 0.305-1.017-0.033-0.499 0.178-1.45 0.209-1.837 0.162-0.387-0.049-0.629-0.178-0.21-0.42-0.242 0.065-1.258 0.049-1.467 0.049-0.205-0.002-0.446-0.131-0.076-0.213z" stroke="#000" fill="none"/>
			<path d="m70.929 23.352c-0.104-0.106-0.032-0.322 0.17-0.387-0.04-0.098 0.12-0.299 0.233-0.283 0.024-0.168 0.233-0.248 0.339-0.168 0.064-0.106 0.313-0.152 0.395-0.008 0.146-0.098 0.354-0.105 0.419 0.08 0.146-0.008 0.339 0.08 0.347 0.226 0.162 0.024 0.33 0.176 0.282 0.361 0.161 0.065 0.177 0.371 0.073 0.5 0.112 0.146-0.033 0.467-0.202 0.533 0 0.193-0.121 0.363-0.29 0.346-0.032 0.186-0.347 0.315-0.5 0.219-0.169 0.111-0.516 0.047-0.531-0.113-0.162 0.049-0.396-0.049-0.372-0.211-0.145-0.008-0.298-0.184-0.282-0.338-0.16-0.121-0.201-0.338-0.112-0.418-0.098-0.066-0.066-0.226 0.031-0.339z" fill="#fff"/>
			<path stroke-width=".0671" d="m70.929 23.352c-0.104-0.106-0.032-0.322 0.17-0.387-0.04-0.098 0.12-0.299 0.233-0.283 0.024-0.168 0.233-0.248 0.339-0.168 0.064-0.106 0.313-0.152 0.395-0.008 0.146-0.098 0.354-0.105 0.419 0.08 0.146-0.008 0.339 0.08 0.347 0.226 0.162 0.024 0.33 0.176 0.282 0.361 0.161 0.065 0.177 0.371 0.073 0.5 0.112 0.146-0.033 0.467-0.202 0.533 0 0.193-0.121 0.363-0.29 0.346-0.032 0.186-0.347 0.315-0.5 0.219-0.169 0.111-0.516 0.047-0.531-0.113-0.162 0.049-0.396-0.049-0.372-0.211-0.145-0.008-0.298-0.184-0.282-0.338-0.16-0.121-0.201-0.338-0.112-0.418-0.098-0.066-0.066-0.226 0.031-0.339z" stroke="#000" fill="none"/>
			<path d="m68.148 23.852c-0.089-0.436 0.12-0.621 0.58-0.66 0.177-0.275 0.417-0.41 0.588-0.371 0.258 0.057 0.448-0.09 0.798 0.113 0.21 0.121 0.589 0.273 1.186 0.273s1.209 0 1.209 0.484c0 0.354-0.435 0.338-0.838 0.338s-0.742 0-0.959-0.104c-0.219-0.106-0.509-0.146-0.758-0.041-0.251 0.104-0.92 0.145-1.201-0.211-0.428-0.015-0.524-0.023-0.605 0.179z" fill="#FFE7BE"/>
			<path stroke-width=".0671" d="m68.148 23.852c-0.089-0.436 0.12-0.621 0.58-0.66 0.177-0.275 0.417-0.41 0.588-0.371 0.258 0.057 0.448-0.09 0.798 0.113 0.21 0.121 0.589 0.273 1.186 0.273s1.209 0 1.209 0.484c0 0.354-0.435 0.338-0.838 0.338s-0.742 0-0.959-0.104c-0.219-0.106-0.509-0.146-0.758-0.041-0.251 0.104-0.92 0.145-1.201-0.211-0.428-0.015-0.524-0.023-0.605 0.179z" stroke="#000" fill="none"/>
			<path d="m71.889 28.44c-0.156 0.344-0.56 0.84-0.976 0.773-0.5-0.082-0.653 0.152-0.604 0.338 0.049 0.185 0.403 0.209 0.628 0.113-0.266 0.25-0.225 0.402-0.12 0.508 0.104 0.104 0.37 0.096 0.436-0.154 0.063-0.25 0.306-0.506 0.499-0.539 0.194-0.033 0.314 0.096 0.299 0.297-0.017 0.203 0.201 0.291 0.346 0.242 0.146-0.047 0.278-0.426-0.032-0.549-0.266-0.104-0.408-0.233-0.338-0.516 0.049-0.193 0.08-0.385 0.137-0.611 0.055-0.227-0.123-0.242-0.275 0.098z" fill="#FFE7BE"/>
			<path stroke-width=".0671" d="m71.889 28.44c-0.156 0.344-0.56 0.84-0.976 0.773-0.5-0.082-0.653 0.152-0.604 0.338 0.049 0.185 0.403 0.209 0.628 0.113-0.266 0.25-0.225 0.402-0.12 0.508 0.104 0.104 0.37 0.096 0.436-0.154 0.063-0.25 0.306-0.506 0.499-0.539 0.194-0.033 0.314 0.096 0.299 0.297-0.017 0.203 0.201 0.291 0.346 0.242 0.146-0.047 0.278-0.426-0.032-0.549-0.266-0.104-0.408-0.233-0.338-0.516 0.049-0.193 0.08-0.385 0.137-0.611 0.055-0.227-0.123-0.242-0.275 0.098z" stroke="#000" fill="none"/>
			<path d="m73.799 28.27c-0.009 0.307 0.013 0.811-0.291 0.895-0.442 0.121-0.338 0.226-0.604 0.338-0.213 0.09-0.17 0.379-0.089 0.42 0.08 0.039 0.29 0.096 0.379-0.17 0.04-0.121 0.129-0.217 0.25-0.266 0.12-0.049 0.145 0.049 0.145 0.121s-0.008 0.25-0.072 0.33 0.048 0.25 0.201 0.274c0.153 0.025 0.201-0.094 0.234-0.201 0.064-0.209-0.064-0.307-0.032-0.428 0.032-0.119 0.135-0.082 0.186 0.033 0.056 0.129 0.225 0.16 0.289 0.322 0.065 0.162 0.218 0.186 0.323 0.105 0.104-0.082 0.193-0.34-0.17-0.477-0.362-0.137-0.482-0.25-0.491-0.564-0.008-0.289-0.129-0.33-0.137-0.5-0.009-0.168-0.113-0.516-0.121-0.232z" fill="#FFE7BE"/>
			<path stroke-width=".0671" d="m73.799 28.27c-0.009 0.307 0.013 0.811-0.291 0.895-0.442 0.121-0.338 0.226-0.604 0.338-0.213 0.09-0.17 0.379-0.089 0.42 0.08 0.039 0.29 0.096 0.379-0.17 0.04-0.121 0.129-0.217 0.25-0.266 0.12-0.049 0.145 0.049 0.145 0.121s-0.008 0.25-0.072 0.33 0.048 0.25 0.201 0.274c0.153 0.025 0.201-0.094 0.234-0.201 0.064-0.209-0.064-0.307-0.032-0.428 0.032-0.119 0.135-0.082 0.186 0.033 0.056 0.129 0.225 0.16 0.289 0.322 0.065 0.162 0.218 0.186 0.323 0.105 0.104-0.082 0.193-0.34-0.17-0.477-0.362-0.137-0.482-0.25-0.491-0.564-0.008-0.289-0.129-0.33-0.137-0.5-0.009-0.168-0.113-0.516-0.121-0.232z" stroke="#000" fill="none"/>
			<path d="m70.18 29.857c-0.09-0.211 0.068-0.416 0.209-0.42 0.086-0.002 0.142 0.068 0.098 0.178-0.033 0.078-0.243 0.008-0.307 0.242z"/>
			<path d="m70.852 30.465c-0.166-0.156-0.104-0.406 0.022-0.469 0.078-0.035 0.157 0.008 0.16 0.125 0.003 0.084-0.218 0.106-0.182 0.344z"/>
			<path d="m72.281 30.295c0.21-0.088 0.24-0.346 0.142-0.445-0.06-0.062-0.148-0.049-0.192 0.059-0.032 0.077 0.167 0.175 0.05 0.386z"/>
			<path d="m72.808 30.236c-0.175-0.144-0.131-0.4-0.008-0.469 0.075-0.041 0.156-0.004 0.168 0.113 0.008 0.083-0.211 0.12-0.16 0.356z"/>
			<path d="m74.603 30.359c0.21-0.088 0.241-0.344 0.142-0.445-0.06-0.061-0.148-0.051-0.192 0.059-0.032 0.078 0.167 0.176 0.05 0.386z"/>
			<path d="m73.706 30.49c-0.149-0.166-0.187-0.35-0.089-0.451 0.059-0.062 0.161-0.055 0.193 0.059 0.037 0.131-0.112 0.064-0.104 0.392z"/>
			<path stroke-width=".0671" d="m56.871 23.658c0.549-0.098 1.833-0.447 2.386-0.742 0.967-0.516 2.225-0.016 3.515-0.902 0.773-0.531 1.773-0.307 2.548-0.596 0.773-0.291 1.467-0.064 1.901-0.258 0.435-0.195 0.65-0.293 0.678 0.047 0.049 0.613 1.225 1.291 2.063 1.355m-11.044 1.354c0.339-0.096 1.387-0.645 1.839-1.08m-0.822 1.113c0.532-0.258 1.467-0.678 2.257-1.258m-1.226 1.258c0.484-0.211 1.354-0.613 1.902-1m-1.209 1.192c0.403-0.16 1.112-0.531 1.483-0.756m-1.032 1.015c0.436-0.162 1.08-0.516 1.5-0.822m-1 1.016c0.193-0.211 1.129-0.807 1.612-1.08m-0.886 1.353c0.419-0.242 0.871-0.565 1.338-0.887m0.113 0.614c0.322-0.178 0.758-0.58 0.951-0.774m-0.274 0.967c0.274-0.145 0.693-0.549 1.048-1m-0.629 1.289c0.17-0.113 0.492-0.443 0.75-0.74m-0.072 1.144c0.186-0.137 0.339-0.363 0.491-0.588m0.379 0.942c0.161-0.121 0.427-0.482 0.718-0.854m0.104 0.967c0.178-0.145 0.508-0.629 0.646-0.863m1.497 1.154c0.113-0.137 0.251-0.34 0.315-0.467m0.234 0.581c0-0.178 0.024-0.34 0.057-0.477m-1.41 0.346c0.096-0.096 0.185-0.232 0.281-0.387m-0.959 0.242c0.113-0.08 0.153-0.186 0.226-0.274m2.273 1.452c0-0.105 0.012-0.348 0.016-0.463m0.306 1.027c0-0.139 0.012-0.355 0.051-0.516m1.481 0.354c0.097 0.154 0.178 0.371 0.282 0.443s0.08 0.348 0.241 0.492m0.219 0.145c0.04 0.096 0.12 0 0.128-0.209 0.009-0.211 0.211-0.41 0.057-0.717-0.048-0.098 0.072-0.396 0.008-0.541s0.017-0.451-0.088-0.637m1.426 0.235c-0.129-0.065-0.517-0.316-0.71-0.516m0.936 0.339c-0.113-0.082-0.226-0.186-0.307-0.258m0.983 0.224c-0.186-0.096-0.508-0.322-0.637-0.459m1.315 0.299c-0.21-0.105-0.541-0.291-0.678-0.394m1.838-0.317c-0.21-0.129-0.508-0.32-0.637-0.41m0.008 0.846c-0.185-0.096-0.516-0.314-0.677-0.443m1.952-0.104c-0.282-0.154-0.581-0.348-0.75-0.492m1.345 0.314c-0.137-0.064-0.402-0.242-0.572-0.371m1.008-0.033c-0.161-0.096-0.363-0.264-0.492-0.369m1.056 0.322c-0.017-0.258-0.354-0.605-0.557-0.807m1.266 0.985c-0.258-0.234-0.621-0.652-0.847-0.992m1.444 1.056c-0.201-0.146-0.814-0.848-0.983-1.162m1.951 1.193c-0.227-0.201-0.863-0.732-1.379-1.168m1.781 0.975c-0.274-0.178-1.04-0.846-1.563-1.199m2.257 1.135c-0.347-0.178-1.507-0.99-2.169-1.539m3.249 1.474c-0.468-0.178-2.225-1.08-2.789-1.611m4.611 1.805c-1.436-0.418-3.031-1.402-3.806-1.983m4.95 1.789c-0.483-0.144-2.208-0.871-2.805-1.289m4.143 1.289c-0.951-0.258-1.773-0.789-3.031-1.016-1.257-0.225-2.063-0.387-2.87-0.902-0.806-0.516-1.611-0.387-2.063-0.773-0.45-0.389-0.886-0.451-1.337-0.389-0.452 0.066-1.693 0.211-1.983-0.369-0.113 0.934-0.758 0.725-0.968 1.031-0.209 0.307-0.631 0.387-0.918 0.289-0.629-0.209-1 0.242-1.419 0.033" stroke="#000" fill="none"/>
			<path d="m69.577 23.17c-0.053 0.023-0.124 0.01-0.17 0.098-0.051 0.092-0.191 0.08-0.248 0.008-0.061-0.078-0.033-0.104-0.107-0.092 0.206-0.198 0.359 0.017 0.525-0.014z"/>
			<path stroke-width=".0671" d="m68.729 23.191c0.049-0.006 0.189-0.008 0.299 0.047m-0.828 0.518c0.04-0.07 0.085-0.178 0.569-0.17" stroke="#000" fill="none"/>
			<polygon points="74.508 46.713 74.612 44.424 74.621 46.535" fill="#996B38"/>
			<polygon stroke-width=".0338" points="74.508 46.713 74.612 44.424 74.621 46.535" stroke="#000" fill="none"/>
			<polyline points="75.435 46.531 76.063 45.543 75.463 46.596" fill="#996B38"/>
			<polyline stroke-width=".0338" points="75.435 46.531 76.063 45.543 75.463 46.596" stroke="#000" fill="none"/>
			<path stroke-width=".0166" d="m72.179 46.664l0.669-1.984 0.781 2.008m0.331-0.034l0.637-1.402 0.532 1.227m-0.532-1.307l0.589 0.83" stroke="#000" fill="none"/>
			<path d="m70.058 46.6c0.429 0.105 0.951 0.387 1.146 1.014 0.331-0.096 0.773 0.234 1.072 0.057 0.298-0.176 0.531 0.105 0.758 0.01 0.226-0.098 0.644 0.121 0.846 0.008s0.854-0.129 1.032 0.008c0.322-0.201 0.725-0.848 0.531-1.232-0.023-0.049-0.023-0.113-0.701-0.113l-0.233 0.363h-1.895v0.201h-1.192c-0.542-0.002-0.759-0.262-1.364-0.316z" fill="#996B38"/>
			<path stroke-width=".0338" d="m70.058 46.6c0.429 0.105 0.951 0.387 1.146 1.014 0.331-0.096 0.773 0.234 1.072 0.057 0.298-0.176 0.531 0.105 0.758 0.01 0.226-0.098 0.644 0.121 0.846 0.008s0.854-0.129 1.032 0.008c0.322-0.201 0.725-0.848 0.531-1.232-0.023-0.049-0.023-0.113-0.701-0.113l-0.233 0.363h-1.895v0.201h-1.192c-0.542-0.002-0.759-0.262-1.364-0.316z" stroke="#000" fill="none"/>
			<path d="m74.371 46.713c0-0.289-0.234-0.518-0.524-0.518-0.289 0-0.525 0.229-0.525 0.518h1.049z" fill="#996B38"/>
			<path stroke-width=".0338" d="m74.371 46.713c0-0.289-0.234-0.518-0.524-0.518-0.289 0-0.525 0.229-0.525 0.518h1.049z" stroke="#000" fill="none"/>
			<polygon points="72.187 46.914 72.138 45.252 71.848 45.252 71.8 46.914" fill="#996B38"/>
			<polygon stroke-width=".0338" points="72.187 46.914 72.138 45.252 71.848 45.252 71.8 46.914" stroke="#000" fill="none"/>
			<polygon points="72.807 46.713 72.848 43.613 72.892 46.713" fill="#996B38"/>
			<polygon stroke-width=".0338" points="72.807 46.713 72.848 43.613 72.892 46.713" stroke="#000" fill="none"/>
			<path d="m72.849 43.871c0.053 0 0.122-0.029 0.158-0.146 0.021-0.064 0.157-0.064 0.209-0.027 0.053 0.035 0.157-0.012 0.186-0.094 0 0.271-0.194 0.332-0.553 0.332-0.358 0-0.554-0.061-0.554-0.332 0.028 0.082 0.134 0.129 0.186 0.094 0.053-0.037 0.189-0.037 0.21 0.027 0.036 0.117 0.105 0.146 0.158 0.146z"/>
			<path d="m72.65 44.072c-0.212 0.117-0.191 0.332 0.01 0.533 0.288 0.289 0.4 0.346 0.106 0.639-0.133 0.133-0.27 0.279-0.112 0.435 0.157 0.158 0.423 0.424 0.241 0.605 0.238-0.045 0.037-0.475-0.072-0.586-0.109-0.107-0.148-0.176 0.008-0.334 0.309-0.308 0.395-0.414-0.053-0.863-0.092-0.092-0.152-0.232-0.067-0.252 0.084-0.021 0.141-0.078 0.108-0.15-0.028-0.062-0.096-0.068-0.169-0.027z"/>
			<path d="m73.045 44.072c0.211 0.117 0.191 0.332-0.01 0.533-0.288 0.289-0.401 0.346-0.107 0.639 0.133 0.133 0.271 0.279 0.113 0.435-0.157 0.158-0.423 0.424-0.242 0.605-0.237-0.045-0.037-0.475 0.072-0.586 0.109-0.107 0.15-0.176-0.008-0.334-0.308-0.308-0.395-0.414 0.053-0.863 0.093-0.092 0.153-0.232 0.068-0.252-0.085-0.021-0.141-0.078-0.108-0.15 0.028-0.062 0.097-0.068 0.169-0.027z"/>
			<path d="m72.848 43.592c-0.165 0-0.161 0.076 0 0.076s0.165-0.076 0-0.076z"/>
			<path d="m75.2 46.369l-0.007-1.945-0.089 1.938c0.044 0.003 0.072 0.007 0.096 0.007z" fill="#996B38"/>
			<path stroke-width=".0338" d="m75.2 46.369l-0.007-1.945-0.089 1.938c0.044 0.003 0.072 0.007 0.096 0.007z" stroke="#000" fill="none"/>
			<polygon points="75.181 44.652 74.617 45.115 74.617 45.16" fill="#996B38"/>
			<polygon stroke-width=".0338" points="75.181 44.652 74.617 45.115 74.617 45.16" stroke="#000" fill="none"/>
			<path stroke-width=".0333" d="m72.613 46.914h1.935c0.388 0 0.932 0.012 0.939-0.143" stroke="#000" fill="none"/>
			<path d="m74.508 46.713h0.867c0.06 0 0.116 0.004 0.116-0.045" fill="#996B38"/>
			<path stroke-width=".0168" d="m74.508 46.713h0.867c0.06 0 0.116 0.004 0.116-0.045" stroke="#000" fill="none"/>
			<path stroke-width=".0333" d="m70.913 47.1c0.104 0.129 0.226 0.152 0.351 0.16 0.851 0.057 2.793 0.064 3.357 0.033 0.564-0.033 0.701-0.064 0.749-0.162" stroke="#000" fill="none"/>
			<polygon points="76.112 46.756 76.499 46.119 76.063 45.543 75.677 46.18" fill="#FFE666"/>
			<polygon stroke-width=".0338" points="76.112 46.756 76.499 46.119 76.063 45.543 75.677 46.18" stroke="#000" fill="none"/>
			<polygon points="76.112 46.756 75.677 46.18 75.773 46.021 76.209 46.598" fill="#EC174C"/>
			<polygon stroke-width=".0338" points="76.112 46.756 75.677 46.18 75.773 46.021 76.209 46.598" stroke="#000" fill="none"/>
			<polygon points="76.209 46.598 75.773 46.021 75.87 45.861 76.306 46.438" fill="#007AC1"/>
			<polygon stroke-width=".0338" points="76.209 46.598 75.773 46.021 75.87 45.861 76.306 46.438" stroke="#000" fill="none"/>
			<path stroke-width=".0671" d="m71.993 34.008c2.398 0 4.714 0.787 6.424 1.686-0.145-0.477-0.383-1.117-0.56-1.443-1.564-0.822-3.672-1.467-5.864-1.467s-4.3 0.645-5.864 1.467c-0.177 0.326-0.415 0.967-0.561 1.443 1.711-0.899 4.027-1.686 6.425-1.686z" stroke="#FFE666" fill="#9EDCF8"/>
			<path stroke-width=".0671" d="m66.824 34.156c0.224-0.041 0.322-0.025 0.364 0.109 0.043 0.135 0.077 0.326 0.104 0.453m-0.104-0.452c-0.026-0.086-0.009-0.221 0.127-0.293m1.398-0.395c-0.146 0.037-0.204 0.145-0.12 0.328 0.076 0.166 0.134 0.215 0.239 0.195 0.091-0.018 0.136-0.141 0.125-0.287-0.015-0.222-0.097-0.275-0.244-0.236zm-0.253-0.006c0.104 0.092 0.418 0.014 0.492-0.102m-0.328 0.733c0.049-0.078 0.277-0.156 0.405-0.088m6.011 0.045c0.089 0.01 0.226-0.047 0.299-0.264 0.064-0.197 0.031-0.316-0.049-0.396m0.39 0.832c-0.071-0.053-0.135-0.186-0.043-0.396 0.082-0.189 0.186-0.254 0.301-0.262m-0.657 0.174c0.106 0.008 0.307 0.055 0.42 0.104m1.596 0.298c-0.072-0.201-0.395-0.273-0.491-0.17-0.097 0.105 0.057 0.283 0.217 0.314 0.161 0.033 0.444 0.193 0.371 0.34-0.072 0.144-0.548 0.088-0.709-0.193m0.386-0.461l0.016 0.711" stroke="#000" fill="none"/>
			<polygon points="72.025 36.029 71.768 34.812 71.084 35.846 71.309 34.619 70.274 35.307 70.95 34.262 69.737 34.498 70.767 33.803 69.552 33.557 70.767 33.301 69.737 32.615 70.96 32.842 70.274 31.807 71.317 32.484 71.084 31.268 71.777 32.301 72.025 31.084 72.279 32.301 72.967 31.268 72.738 32.494 73.776 31.807 73.096 32.852 74.313 32.615 73.279 33.311 74.499 33.557 73.279 33.812 74.313 34.498 73.086 34.273 73.776 35.307 72.729 34.629 72.967 35.846 72.27 34.812" fill="#FFE666"/>
			<polygon stroke-width=".0671" points="72.025 36.029 71.768 34.812 71.084 35.846 71.309 34.619 70.274 35.307 70.95 34.262 69.737 34.498 70.767 33.803 69.552 33.557 70.767 33.301 69.737 32.615 70.96 32.842 70.274 31.807 71.317 32.484 71.084 31.268 71.777 32.301 72.025 31.084 72.279 32.301 72.967 31.268 72.738 32.494 73.776 31.807 73.096 32.852 74.313 32.615 73.279 33.311 74.499 33.557 73.279 33.812 74.313 34.498 73.086 34.273 73.776 35.307 72.729 34.629 72.967 35.846 72.27 34.812" stroke="#000" fill="none"/>
			<path d="m72.025 34.867c0.724 0 1.311-0.586 1.311-1.31 0-0.725-0.587-1.311-1.311-1.311s-1.311 0.586-1.311 1.311c0.001 0.724 0.588 1.31 1.311 1.31z" fill="#FFE666"/>
			<path stroke-width=".0671" d="m72.025 34.867c0.724 0 1.311-0.586 1.311-1.31 0-0.725-0.587-1.311-1.311-1.311s-1.311 0.586-1.311 1.311c0.001 0.724 0.588 1.31 1.311 1.31z" stroke="#000" fill="none"/>
			<path d="m72.025 33.557" fill="#FFE666"/>
			<path stroke-width=".0671" d="m72.025 33.557" stroke="#000" fill="none"/>
			<path d="m71.792 34.145c0.07-0.037 0.185-0.059 0.233 0.002 0.049-0.061 0.163-0.039 0.233-0.002 0.069 0.039 0.168 0.012 0.219 0.043-0.029-0.008-0.149 0.059-0.232 0.027-0.084-0.029-0.076 0.023-0.22 0.023-0.145 0-0.136-0.053-0.22-0.023-0.084 0.031-0.204-0.035-0.233-0.027 0.052-0.032 0.15-0.004 0.22-0.043z"/>
			<path d="m72.025 34.352c0.069 0 0.132-0.012 0.185-0.031 0.024-0.01 0.042-0.045 0.043-0.01 0.001 0.033-0.057 0.113-0.228 0.113s-0.229-0.08-0.228-0.113c0.001-0.035 0.018 0 0.043 0.01 0.054 0.019 0.116 0.031 0.185 0.031z"/>
			<path d="m72.025 33.934c0.034 0 0.066-0.023 0.082-0.041 0.018-0.02 0.051-0.018 0.09-0.016 0.043 0.002 0.062-0.02 0.069-0.043 0.011-0.035 0.013-0.09-0.045-0.117 0.034 0.016 0.043 0.074 0.026 0.111-0.012 0.027-0.048 0.029-0.077 0.027-0.027-0.004-0.07 0.01-0.089 0.029-0.015 0.016-0.031 0.021-0.057 0.021-0.024 0-0.042-0.006-0.057-0.021-0.018-0.02-0.061-0.033-0.09-0.029-0.028 0.002-0.064 0-0.076-0.027-0.018-0.037-0.008-0.096 0.026-0.111-0.058 0.027-0.057 0.082-0.045 0.117 0.007 0.023 0.025 0.045 0.069 0.043 0.039-0.002 0.071-0.004 0.091 0.016 0.017 0.017 0.048 0.041 0.083 0.041z"/>
			<path d="m71.187 33.309c0.115-0.062 0.228-0.102 0.412-0.09 0.184 0.01 0.271 0.053 0.312 0.078 0.041 0.023 0.027 0.033-0.014 0.033s-0.165-0.025-0.263-0.053c-0.098-0.025-0.277-0.029-0.436 0.039-0.01 0.004-0.033 0.002-0.011-0.007z"/>
			<path d="m71.768 33.316c-0.021 0.08-0.113 0.172-0.203 0.172-0.137 0-0.251-0.092-0.254-0.205 0.017 0.107 0.115 0.18 0.253 0.18 0.088 0 0.171-0.065 0.204-0.147z"/>
			<path d="m71.449 33.316c0.01 0.053 0.056 0.098 0.124 0.098 0.05 0 0.128-0.014 0.156-0.117-0.039-0.027-0.159-0.041-0.193-0.041 0.029 0.055-0.018 0.09-0.087 0.06z"/>
			<path d="m71.938 33.127c-0.19-0.107-0.459-0.145-0.646-0.107-0.054 0.01-0.107 0.029-0.058 0.066 0.037 0.029 0.061 0.012 0.128 0 0.163-0.023 0.396-0.002 0.497 0.061 0.029 0.02 0.05 0.027 0.078 0.027s0.057-0.014 0.001-0.047z"/>
			<path d="m72.875 33.309c-0.115-0.062-0.228-0.102-0.412-0.09-0.185 0.01-0.271 0.053-0.312 0.078-0.041 0.023-0.027 0.033 0.014 0.033 0.04 0 0.165-0.025 0.263-0.053 0.098-0.025 0.277-0.029 0.436 0.039 0.009 0.004 0.032 0.002 0.011-0.007z"/>
			<path d="m72.294 33.316c0.021 0.08 0.113 0.172 0.203 0.172 0.137 0 0.251-0.092 0.253-0.205-0.016 0.107-0.115 0.18-0.252 0.18-0.09 0-0.172-0.065-0.204-0.147z"/>
			<path d="m72.428 33.287c0.01 0.053 0.056 0.096 0.125 0.096 0.049 0 0.151-0.021 0.172-0.145-0.039-0.027-0.172-0.02-0.21-0.012 0.029 0.055-0.018 0.088-0.087 0.061z"/>
			<path d="m72.124 33.127c0.19-0.107 0.458-0.145 0.646-0.107 0.055 0.01 0.106 0.029 0.057 0.066-0.036 0.029-0.06 0.012-0.127 0-0.163-0.023-0.397-0.002-0.496 0.061-0.031 0.02-0.051 0.027-0.079 0.027s-0.058-0.014-0.001-0.047z"/>
</g>
</svg>
