<?xml version="1.0" encoding="UTF-8" standalone="no"?>
<!-- Generator: Adobe Illustrator 18.0.0, SVG Export Plug-In . SVG Version: 6.00 Build 0)  -->
<!DOCTYPE svg  PUBLIC '-//W3C//DTD SVG 1.1//EN'  'http://www.w3.org/Graphics/SVG/1.1/DTD/svg11.dtd'>
<svg style="enable-background:new 0 0 144 80" xmlns="http://www.w3.org/2000/svg" xml:space="preserve" version="1.1" y="0px" x="0px" xmlns:xlink="http://www.w3.org/1999/xlink" viewBox="0 0 144 80">
<g id="KEN">
			<polygon points="144 52.003 0 52.003 0 28.002 144 28.002" fill="#b00"/>
			<polygon points="144 24.001 0 24.001 0 0 144 0"/>
			<polygon points="144 80 0 80 0 56.004 144 56.004" fill="#060"/>
			<polygon points="144 28.002 0 28.002 0 24.001 144 24.001" fill="#fff"/>
			<polygon points="144 56.004 0 56.004 0 52.003 144 52.003" fill="#fff"/>
			<path d="m56.669 68.813l26.45-44.457c1.968 0.552 3.396-1.928 4.689-5.781 1.515-4.514 2.755-7.578 2.497-7.731-0.258-0.152-2.357 2.4-5.602 5.884-2.807 3.016-4.311 5.479-2.785 6.938l-26.439 44.439c-0.197 0.332 0.99 1.043 1.19 0.708z" fill="#fff"/>
			<path stroke-width=".0714" d="m56.669 68.813l26.45-44.457c1.968 0.552 3.396-1.928 4.689-5.781 1.515-4.514 2.755-7.578 2.497-7.731-0.258-0.152-2.357 2.4-5.602 5.884-2.807 3.016-4.311 5.479-2.785 6.938l-26.439 44.439c-0.197 0.332 0.99 1.043 1.19 0.708z" stroke="#000" fill="none"/>
			<path d="m87.332 68.813l-26.45-44.457c-1.97 0.552-3.398-1.928-4.69-5.781-1.515-4.514-2.755-7.578-2.497-7.731 0.258-0.152 2.357 2.4 5.602 5.884 2.806 3.016 4.311 5.479 2.785 6.938l26.439 44.439c0.197 0.332-0.99 1.043-1.189 0.708z" fill="#fff"/>
			<path stroke-width=".0714" d="m87.332 68.813l-26.45-44.457c-1.97 0.552-3.398-1.928-4.69-5.781-1.515-4.514-2.755-7.578-2.497-7.731 0.258-0.152 2.357 2.4 5.602 5.884 2.806 3.016 4.311 5.479 2.785 6.938l26.439 44.439c0.197 0.332-0.99 1.043-1.189 0.708z" stroke="#000" fill="none"/>
			<path d="m72 69.162c9.054-6.791 13.414-15.844 13.414-27.247 0-11.4-4.36-20.455-13.414-27.247-9.054 6.792-13.415 15.847-13.415 27.247 0 11.403 4.361 20.456 13.415 27.247z" fill="#b00"/>
			<path stroke-width=".0714" d="m72 69.162c9.054-6.791 13.414-15.844 13.414-27.247 0-11.4-4.36-20.455-13.414-27.247-9.054 6.792-13.415 15.847-13.415 27.247 0 11.403 4.361 20.456 13.415 27.247z" stroke="#000" fill="none"/>
			<path stroke-width=".0714" d="m61.47 56.357c1.936-4.309 2.885-9.087 2.885-14.411 0-5.323-0.949-10.102-2.885-14.41-1.934 4.309-2.885 9.087-2.885 14.41 0 5.325 0.951 10.103 2.885 14.411z" stroke="#000"/>
			<path stroke-width=".0714" d="m82.55 56.357c-1.934-4.309-2.883-9.087-2.883-14.411 0-5.323 0.949-10.102 2.883-14.41 1.935 4.309 2.885 9.087 2.885 14.41 0 5.325-0.951 10.103-2.885 14.411z" stroke="#000"/>
			<path d="m72 45.354c1.113 0 2.016-1.539 2.016-3.438 0-1.898-0.902-3.438-2.016-3.438s-2.016 1.539-2.016 3.438c0 1.898 0.902 3.438 2.016 3.438z" fill="#fff"/>
			<path d="m71.16 36.281c-1.824-2.685-2.707-6.095-2.707-10.253 0-4.16 0.883-7.57 2.707-10.254v20.507z" fill="#fff"/>
			<path d="m72.839 36.281c1.826-2.685 2.708-6.095 2.708-10.253 0-4.16-0.882-7.57-2.708-10.254v20.507z" fill="#fff"/>
			<path d="m71.16 47.545c-1.824 2.684-2.707 6.094-2.707 10.253s0.883 7.568 2.707 10.254v-20.507z" fill="#fff"/>
			<path d="m72.839 47.545c1.826 2.684 2.708 6.094 2.708 10.253s-0.882 7.568-2.708 10.254v-20.507z" fill="#fff"/>
</g>
</svg>
