<?xml version="1.0" encoding="UTF-8" standalone="no"?>
<!-- Generator: Adobe Illustrator 18.0.0, SVG Export Plug-In . SVG Version: 6.00 Build 0)  -->
<!DOCTYPE svg  PUBLIC '-//W3C//DTD SVG 1.1//EN'  'http://www.w3.org/Graphics/SVG/1.1/DTD/svg11.dtd'>
<svg style="enable-background:new 0 0 144 80" xmlns="http://www.w3.org/2000/svg" xml:space="preserve" version="1.1" y="0px" x="0px" xmlns:xlink="http://www.w3.org/1999/xlink" viewBox="0 0 144 80">
<g id="ETH">
			<polygon points="144 26.666 0 26.666 0 0 144 0" fill="#078930"/>
			<polygon points="0 80 144 80 144 53.333 0 53.333" fill="#DA121A"/>
			<polygon points="144 53.333 0 53.333 0 26.666 144 26.666" fill="#FCDD09"/>
			<path d="m72 59.332c10.677 0 19.332-8.655 19.332-19.332s-8.655-19.332-19.332-19.332-19.332 8.655-19.332 19.332 8.655 19.332 19.332 19.332z" fill="#0F47AF"/>
			<polygon points="72.264 47.339 72.145 55.444 71.852 55.444 71.731 47.339" fill="#FFF100"/>
			<polygon points="79.103 41.983 86.773 44.602 86.684 44.881 78.938 42.489" fill="#FFF100"/>
			<polygon points="76.122 33.825 80.983 27.338 81.221 27.511 76.553 34.139" fill="#FFF100"/>
			<polygon points="67.442 34.139 62.775 27.511 63.012 27.338 67.873 33.825" fill="#FFF100"/>
			<polygon points="65.059 42.489 57.312 44.881 57.223 44.604 64.894 41.983" fill="#FFF100"/>
			<polygon points="70.944 27.914 68.555 35.258 57.405 35.258 59.542 36.813 68.046 36.813 67.077 39.797 68.397 40.76 71.756 30.421" fill="#FCDD09"/>
			<polygon points="60.174 37.269 66.42 41.809 62.975 52.413 65.114 50.862 67.742 42.773 70.281 44.617 71.604 43.659 62.809 37.271" fill="#FCDD09"/>
			<polygon points="65.741 50.403 71.991 45.865 81.011 52.418 80.197 49.905 73.316 44.906 75.854 43.062 75.353 41.507 66.559 47.897" fill="#FCDD09"/>
			<polygon points="79.955 49.163 77.571 41.818 86.59 35.265 83.948 35.261 77.068 40.261 76.098 37.276 74.464 37.273 77.824 47.611" fill="#FCDD09"/>
			<polygon points="83.171 35.267 75.447 35.264 72.002 24.661 71.183 27.173 73.812 35.261 70.674 35.261 70.166 36.814 81.037 36.812" fill="#FCDD09"/>
</g>
</svg>
