<?xml version="1.0" encoding="UTF-8" standalone="no"?>
<!-- Generator: Adobe Illustrator 18.0.0, SVG Export Plug-In . SVG Version: 6.00 Build 0)  -->
<!DOCTYPE svg  PUBLIC '-//W3C//DTD SVG 1.1//EN'  'http://www.w3.org/Graphics/SVG/1.1/DTD/svg11.dtd'>
<svg style="enable-background:new 0 0 144 80" xmlns="http://www.w3.org/2000/svg" xml:space="preserve" version="1.1" y="0px" x="0px" xmlns:xlink="http://www.w3.org/1999/xlink" viewBox="0 0 144 80">
<g id="SRI">
		<polygon stroke-width=".1342" points="23.86 73.156 23.86 8.136 2.944 8.136 2.944 73.156" stroke="#000" fill="none"/>
			<polygon points="144 80 144 0 0 0 0 80" fill="#FFE01B"/>
			<polygon points="25.134 73.521 25.134 6.427 46.562 6.427 46.562 73.521" fill="#F4812A"/>
			<polygon points="26.341 73.521 26.341 6.427 7.325 6.427 7.325 73.521" fill="#006A53"/>
			<polygon points="51.008 73.521 51.008 6.427 136.64 6.427 136.64 73.521" fill="#A9273D"/>
		<path d="m74.341 40.276" fill="#FFE01B"/>
		<path stroke-width=".1247" d="m74.341 40.276" stroke="#000" fill="none"/>
		<path d="m97.61 37.116c2.131-0.395 5.668 0.503 8.428-0.246 2.469-0.67 5.205 0.395 7.334-0.394 1.029-0.381 3.234-0.473 3.352-2.799 0.088-1.734-1.617-2.879-5.207-2.091-3.586 0.789-7.016 0.789-9.105-0.434-2.09-1.222-2.326 0.789-2.09 1.499-1.852-1.46-1.301-2.8-0.592-3.628-4.1-4.534 0.75-8.201 5.047-8.201 4.221 0 6.15 1.381 9.463 3.825 0.969 0.716 3.055 2.977 3.746 2.562-0.709-1.558 1.568-2.44 2.109-0.61 0.414 1.399-0.729 2.582-2.346 2.266-2.527-0.492-2.248-1.773-5.047-3.548 0.631 0.493-0.197 1.716 1.42 2.307-1.381 0.178-2.918-0.828-3.352-2.148-0.199 1.499-1.223 2.169-2.445 1.972 1.734-2.051 0.709-3.628-1.145-4.219 1.539 2.089-0.117 4.18-2.285 4.18 1.734-1.814 0.945-3.55-0.672-4.338-0.559-0.273-1.301-0.315-0.945 0.079 0.354 0.395 0.039 1.655-0.709 1.892 0.039-1.458-2.068-1.076-2.484 0-0.336 0.868-0.275 1.676 0.904 2.406 0.83-1.854 3.275-1.459 3.234-0.553-2.049 0.355-1.693 2.011-0.826 2.8 0.039-0.789 0.984-1.498 1.537-1.223-0.395 2.05 2.523 1.973 4.652 1.735 2.129-0.237 4.73-1.104 7.098 0.078 2.365 1.184 3.152 5.126-0.158 7.018 3.311 3.864 1.893 7.965 0.473 11.986-1.395 3.952 0.08 6.466 0.945 6.466 0.594 0 0.908 0.197 0.711 0.828-0.439 1.406-2.129 1.302-2.207 2.996-0.08 1.696 1.852 2.484 1.024 3.312-1.42 0-1.586-0.207-1.99-0.769-0.297 0.492-0.355 0.769-1.045 0.769-0.68 0-1.006-0.236-1.242-0.769-0.344 0.592-0.65 0.769-1.203 0.769-0.629 0-0.77-0.266-0.945-0.769-0.355 0.512-0.809 0.769-1.498 0.769 0-2.089 2.365-2.483 3.193-2.642 0.828-0.157 1.025-0.631 1.025-1.144 0-0.512-0.041-1.576-0.117-2.602-0.113-1.463-1.887-2.329-3.604-3.44-0.441 0.82-1.365 1.272-0.656 2.338 0.529 0.793 1.617 0.551 1.734 0.117 0.711 1.893-2.641 2.484-1.576 5.027 0.371 0.887 0.299 1.335-0.191 2.321-1.09 0-1.445-0.074-1.938-0.666-0.316 0.533-0.336 0.765-1.18 0.765-0.752 0-0.812-0.488-0.971-0.862-0.275 0.454-0.295 0.764-1.078 0.764-0.695 0-0.754-0.212-1.031-0.764-0.473 0.611-1.024 0.784-1.635 0.764 0-1.498 1.123-2.36 2.385-2.202 1.262 0.156 1.854-0.218 2.09-0.967 0.238-0.749-0.197-1.459 0-2.8 0.4-2.72-3.969-4.732-3.156-8.044-4.533 0-7.82 3.033-10.619 3.625-0.541 0.999-1.07 1.842-1.365 2.369-0.947 1.695 1.104 2.129 2.168 1.853-0.314 1.359-1.4 2.168-2.404 2.365-1.006 0.196-1.027 0.709-0.67 1.42 0.354 0.709 0.236 1.183-0.611 2.396-1.695 0-1.715-0.346-1.893-0.642-0.275 0.218-0.394 0.642-1.184 0.642-0.955 0-0.977-0.148-1.34-0.642-0.375 0.434-0.414 0.642-1.164 0.642-0.748 0-0.799-0.158-1.025-0.642-0.314 0.394-0.512 0.642-1.418 0.642 0.846-5.077 3.824-0.7 5.52-3.854 0.721-1.342-0.223-3.223-0.887-5.423-1.174-0.509-2.268-1.152-3.098-1.794-2.959 4.062-4.459 0.621-5.4-0.195-1.043-0.907-1.439 0.058-1.262 0.61-0.611-0.671-0.887-1.124-0.67-2.582 0.217-1.46-0.553-1.735-2.129-1.933-1.576-0.196-1.617-2.247-1.695-4.141-0.08-1.893 2.879-1.34 3.154-1.063 1.494 1.494 3.508 3.429 4.859 4.909-1.146-3.933 1.09-8.216 4.742-10.212 1.262-0.691 1.477-1.497 0.867-1.914-0.434-0.295-1.281 0.592-1.084 1.124-1.223-0.61-0.809-1.478-1.322-1.891 0.1 0.413-0.275 1.062-0.137 1.457-0.197-0.492-0.809-0.335-1.047-1.42-0.668 0.534-1.359 0.652-2.029 0.553 0.848-0.354 0.453-0.947 0.789-1.124-1.006 0.611-2.131 0.218-2.642 0.552 0.767-0.552 0.375-2.168 1.344-2.979-0.375-0.235-0.635-0.512-0.752-0.824-0.248-0.662-0.02-1.184 1.34-0.375 1.422 0.845 3.471 1.538 5.6 1.617-0.713-1.108-1.648-1.584-1.832-2.78-0.277 0.571-0.277 1.006-0.08 1.518-0.256-0.551-1.045-0.394-1.578-1.459 0.178 0.434 0 0.868 0.238 1.242-1.637-0.571-1.223-1.222-2.486-2.247-1.549-1.259-0.924-1.755-1.301-2.386-0.344-0.576-0.414-2.07 1.066-2.325 1.203-0.21 1.871 1.34 1.182 1.971 0.514-0.434 1.605-0.108 2.385-0.532 1.125-0.611 1.914 0.473 3.135-1.184 0.436-0.589-0.256-1.005-0.059-1.398 0.119 0.552 2.266-0.562 3.195 0.689 0.846 1.144 1.357-0.591 0.709-1.519 0.609 0.612 1.893-0.059 3.035 1.991-0.039-0.532 0.809-1.024 0.434-1.833 1.184 0.336 2.068 0.837 2.387 1.36 0.453 0.749 1.893 0.493 2.463-0.966 0.199 1.36-0.314 2.326-1.418 3.509 1.143 1.105 1.006 2.847 0.809 3.872 0.02 0.053-0.018-0.062 0 0 0.217 0.848-0.219 2.477-0.08 3.088-0.029-0.177-0.191-0.348-0.414-0.545-0.178 1.479 0.828 2.042 0.453 3.127 0.076-0.293-0.352-0.635-0.906-1.025-0.178 1.084 0.453 2.306 0.986 2.386-0.125 0.044-0.252 0.076-0.375 0.098 0.127 0.176 0.223 0.335 0.336 0.484z" fill="#FFE01B"/>
		<path stroke-width=".0624" d="m97.61 37.116c2.131-0.395 5.668 0.503 8.428-0.246 2.469-0.67 5.205 0.395 7.334-0.394 1.029-0.381 3.234-0.473 3.352-2.799 0.088-1.734-1.617-2.879-5.207-2.091-3.586 0.789-7.016 0.789-9.105-0.434-2.09-1.222-2.326 0.789-2.09 1.499-1.852-1.46-1.301-2.8-0.592-3.628-4.1-4.534 0.75-8.201 5.047-8.201 4.221 0 6.15 1.381 9.463 3.825 0.969 0.716 3.055 2.977 3.746 2.562-0.709-1.558 1.568-2.44 2.109-0.61 0.414 1.399-0.729 2.582-2.346 2.266-2.527-0.492-2.248-1.773-5.047-3.548 0.631 0.493-0.197 1.716 1.42 2.307-1.381 0.178-2.918-0.828-3.352-2.148-0.199 1.499-1.223 2.169-2.445 1.972 1.734-2.051 0.709-3.628-1.145-4.219 1.539 2.089-0.117 4.18-2.285 4.18 1.734-1.814 0.945-3.55-0.672-4.338-0.559-0.273-1.301-0.315-0.945 0.079 0.354 0.395 0.039 1.655-0.709 1.892 0.039-1.458-2.068-1.076-2.484 0-0.336 0.868-0.275 1.676 0.904 2.406 0.83-1.854 3.275-1.459 3.234-0.553-2.049 0.355-1.693 2.011-0.826 2.8 0.039-0.789 0.984-1.498 1.537-1.223-0.395 2.05 2.523 1.973 4.652 1.735 2.129-0.237 4.73-1.104 7.098 0.078 2.365 1.184 3.152 5.126-0.158 7.018 3.311 3.864 1.893 7.965 0.473 11.986-1.395 3.952 0.08 6.466 0.945 6.466 0.594 0 0.908 0.197 0.711 0.828-0.439 1.406-2.129 1.302-2.207 2.996-0.08 1.696 1.852 2.484 1.024 3.312-1.42 0-1.586-0.207-1.99-0.769-0.297 0.492-0.355 0.769-1.045 0.769-0.68 0-1.006-0.236-1.242-0.769-0.344 0.592-0.65 0.769-1.203 0.769-0.629 0-0.77-0.266-0.945-0.769-0.355 0.512-0.809 0.769-1.498 0.769 0-2.089 2.365-2.483 3.193-2.642 0.828-0.157 1.025-0.631 1.025-1.144 0-0.512-0.041-1.576-0.117-2.602-0.113-1.463-1.887-2.329-3.604-3.44-0.441 0.82-1.365 1.272-0.656 2.338 0.529 0.793 1.617 0.551 1.734 0.117 0.711 1.893-2.641 2.484-1.576 5.027 0.371 0.887 0.299 1.335-0.191 2.321-1.09 0-1.445-0.074-1.938-0.666-0.316 0.533-0.336 0.765-1.18 0.765-0.752 0-0.812-0.488-0.971-0.862-0.275 0.454-0.295 0.764-1.078 0.764-0.695 0-0.754-0.212-1.031-0.764-0.473 0.611-1.024 0.784-1.635 0.764 0-1.498 1.123-2.36 2.385-2.202 1.262 0.156 1.854-0.218 2.09-0.967 0.238-0.749-0.197-1.459 0-2.8 0.4-2.72-3.969-4.732-3.156-8.044-4.533 0-7.82 3.033-10.619 3.625-0.541 0.999-1.07 1.842-1.365 2.369-0.947 1.695 1.104 2.129 2.168 1.853-0.314 1.359-1.4 2.168-2.404 2.365-1.006 0.196-1.027 0.709-0.67 1.42 0.354 0.709 0.236 1.183-0.611 2.396-1.695 0-1.715-0.346-1.893-0.642-0.275 0.218-0.394 0.642-1.184 0.642-0.955 0-0.977-0.148-1.34-0.642-0.375 0.434-0.414 0.642-1.164 0.642-0.748 0-0.799-0.158-1.025-0.642-0.314 0.394-0.512 0.642-1.418 0.642 0.846-5.077 3.824-0.7 5.52-3.854 0.721-1.342-0.223-3.223-0.887-5.423-1.174-0.509-2.268-1.152-3.098-1.794-2.959 4.062-4.459 0.621-5.4-0.195-1.043-0.907-1.439 0.058-1.262 0.61-0.611-0.671-0.887-1.124-0.67-2.582 0.217-1.46-0.553-1.735-2.129-1.933-1.576-0.196-1.617-2.247-1.695-4.141-0.08-1.893 2.879-1.34 3.154-1.063 1.494 1.494 3.508 3.429 4.859 4.909-1.146-3.933 1.09-8.216 4.742-10.212 1.262-0.691 1.477-1.497 0.867-1.914-0.434-0.295-1.281 0.592-1.084 1.124-1.223-0.61-0.809-1.478-1.322-1.891 0.1 0.413-0.275 1.062-0.137 1.457-0.197-0.492-0.809-0.335-1.047-1.42-0.668 0.534-1.359 0.652-2.029 0.553 0.848-0.354 0.453-0.947 0.789-1.124-1.006 0.611-2.131 0.218-2.642 0.552 0.767-0.552 0.375-2.168 1.344-2.979-0.375-0.235-0.635-0.512-0.752-0.824-0.248-0.662-0.02-1.184 1.34-0.375 1.422 0.845 3.471 1.538 5.6 1.617-0.713-1.108-1.648-1.584-1.832-2.78-0.277 0.571-0.277 1.006-0.08 1.518-0.256-0.551-1.045-0.394-1.578-1.459 0.178 0.434 0 0.868 0.238 1.242-1.637-0.571-1.223-1.222-2.486-2.247-1.549-1.259-0.924-1.755-1.301-2.386-0.344-0.576-0.414-2.07 1.066-2.325 1.203-0.21 1.871 1.34 1.182 1.971 0.514-0.434 1.605-0.108 2.385-0.532 1.125-0.611 1.914 0.473 3.135-1.184 0.436-0.589-0.256-1.005-0.059-1.398 0.119 0.552 2.266-0.562 3.195 0.689 0.846 1.144 1.357-0.591 0.709-1.519 0.609 0.612 1.893-0.059 3.035 1.991-0.039-0.532 0.809-1.024 0.434-1.833 1.184 0.336 2.068 0.837 2.387 1.36 0.453 0.749 1.893 0.493 2.463-0.966 0.199 1.36-0.314 2.326-1.418 3.509 1.143 1.105 1.006 2.847 0.809 3.872 0.02 0.053-0.018-0.062 0 0 0.217 0.848-0.219 2.477-0.08 3.088-0.029-0.177-0.191-0.348-0.414-0.545-0.178 1.479 0.828 2.042 0.453 3.127 0.076-0.293-0.352-0.635-0.906-1.025-0.178 1.084 0.453 2.306 0.986 2.386-0.125 0.044-0.252 0.076-0.375 0.098 0.127 0.176 0.223 0.335 0.336 0.484z" stroke="#000" fill="none"/>
		<path d="m74.417 41.799c0-13.248 0.59-22.947 2.129-24.051-6.15 3.193-5.441 10.882-5.441 24.051l0.779 0.67v6.229c-0.494 0.237-0.947-0.808-1.479 0.079-0.369 0.613 0.709 1.242 1.479 0.749-0.02 0.592-0.453 1.203-0.887 1.38 0.945 0.729 1.084 2.445-0.041 2.859 0.217-0.316-0.689-0.985-1.104-0.316-0.414 0.671 0.611 1.598 1.637 1.559-0.019 0.315-0.514 0.729-1.025 0.945 0.256 0.158 0.945 0.316 1.42 0.277 0.039 0.59 0.117 1.064 0.648 1.458 0.535-0.394 0.613-0.868 0.652-1.458 0.473 0.039 1.162-0.119 1.418-0.277-0.512-0.217-1.004-0.63-1.023-0.945 1.023 0.039 2.049-0.888 1.637-1.559-0.414-0.669-1.322 0-1.105 0.316-1.123-0.414-0.984-2.13-0.039-2.859-0.434-0.177-0.867-0.793-0.887-1.385 0.492-0.236 0.945 0.804 1.479-0.084 0.367-0.612-0.709-1.236-1.479-0.743v-6.226l1.232-0.669z" fill="#FFE01B"/>
		<path stroke-width=".0624" d="m74.417 41.799c0-13.248 0.59-22.947 2.129-24.051-6.15 3.193-5.441 10.882-5.441 24.051l0.779 0.67v6.229c-0.494 0.237-0.947-0.808-1.479 0.079-0.369 0.613 0.709 1.242 1.479 0.749-0.02 0.592-0.453 1.203-0.887 1.38 0.945 0.729 1.084 2.445-0.041 2.859 0.217-0.316-0.689-0.985-1.104-0.316-0.414 0.671 0.611 1.598 1.637 1.559-0.019 0.315-0.514 0.729-1.025 0.945 0.256 0.158 0.945 0.316 1.42 0.277 0.039 0.59 0.117 1.064 0.648 1.458 0.535-0.394 0.613-0.868 0.652-1.458 0.473 0.039 1.162-0.119 1.418-0.277-0.512-0.217-1.004-0.63-1.023-0.945 1.023 0.039 2.049-0.888 1.637-1.559-0.414-0.669-1.322 0-1.105 0.316-1.123-0.414-0.984-2.13-0.039-2.859-0.434-0.177-0.867-0.793-0.887-1.385 0.492-0.236 0.945 0.804 1.479-0.084 0.367-0.612-0.709-1.236-1.479-0.743v-6.226l1.232-0.669z" stroke="#000" fill="none"/>
		<path d="m72.729 43.1c4.379 0 3.975-2.917 2.477-3.351s-1.598 1.34-0.848 1.379c-0.178 0.592-1.094 0.631-1.629 0.631-0.529 0-1.447-0.039-1.625-0.631 0.75-0.039 0.65-1.812-0.846-1.379-1.499 0.434-1.904 3.351 2.471 3.351z" fill="#FFE01B"/>
		<path stroke-width=".0624" d="m72.729 43.1c4.379 0 3.975-2.917 2.477-3.351s-1.598 1.34-0.848 1.379c-0.178 0.592-1.094 0.631-1.629 0.631-0.529 0-1.447-0.039-1.625-0.631 0.75-0.039 0.65-1.812-0.846-1.379-1.499 0.434-1.904 3.351 2.471 3.351z" stroke="#000" fill="none"/>
		<path d="m74.003 44.085c0.174-0.347 0.965-0.474 1.143-0.847 0.275 0.788-0.217 0.827-0.434 1.241-0.078 0.151-0.65 0.631-1.082 0.197-0.09-0.088 0.234-0.315 0.373-0.591z" fill="#FFE01B"/>
		<path stroke-width=".0624" d="m74.003 44.085c0.174-0.347 0.965-0.474 1.143-0.847 0.275 0.788-0.217 0.827-0.434 1.241-0.078 0.151-0.65 0.631-1.082 0.197-0.09-0.088 0.234-0.315 0.373-0.591z" stroke="#000" fill="none"/>
		<path d="m72.642 43.297c1.045 0.354 1.52 0.474 1.381 1.064-0.152 0.65-1.025 0.355-1.557 0.178-0.533-0.178-1.459-0.276-1.4-1.045 0.037-0.484 0.892-0.431 1.576-0.197z" fill="#FFE01B"/>
		<path stroke-width=".0624" d="m72.642 43.297c1.045 0.354 1.52 0.474 1.381 1.064-0.152 0.65-1.025 0.355-1.557 0.178-0.533-0.178-1.459-0.276-1.4-1.045 0.037-0.484 0.892-0.431 1.576-0.197z" stroke="#000" fill="none"/>
		<path d="m74.003 45.248c0.174-0.347 0.965-0.474 1.143-0.848 0.275 0.789-0.217 0.828-0.434 1.242-0.078 0.151-0.65 0.631-1.082 0.197-0.09-0.088 0.234-0.314 0.373-0.591z" fill="#FFE01B"/>
		<path stroke-width=".0624" d="m74.003 45.248c0.174-0.347 0.965-0.474 1.143-0.848 0.275 0.789-0.217 0.828-0.434 1.242-0.078 0.151-0.65 0.631-1.082 0.197-0.09-0.088 0.234-0.314 0.373-0.591z" stroke="#000" fill="none"/>
		<path d="m72.642 44.46c1.045 0.354 1.52 0.474 1.381 1.065-0.152 0.649-1.025 0.355-1.557 0.177-0.533-0.177-1.805-0.154-1.717-1.242 0.061-0.73 1.209-0.232 1.893 0z" fill="#FFE01B"/>
		<path stroke-width=".0624" d="m72.642 44.46c1.045 0.354 1.52 0.474 1.381 1.065-0.152 0.649-1.025 0.355-1.557 0.177-0.533-0.177-1.805-0.154-1.717-1.242 0.061-0.73 1.209-0.232 1.893 0z" stroke="#000" fill="none"/>
		<path d="m74.003 46.411c0.174-0.347 0.965-0.474 1.143-0.847 0.275 0.788-0.217 0.827-0.434 1.242-0.078 0.149-0.65 0.63-1.082 0.196-0.09-0.088 0.234-0.314 0.373-0.591z" fill="#FFE01B"/>
		<path stroke-width=".0624" d="m74.003 46.411c0.174-0.347 0.965-0.474 1.143-0.847 0.275 0.788-0.217 0.827-0.434 1.242-0.078 0.149-0.65 0.63-1.082 0.196-0.09-0.088 0.234-0.314 0.373-0.591z" stroke="#000" fill="none"/>
		<path d="m72.642 45.623c1.045 0.354 1.52 0.474 1.381 1.064-0.152 0.651-1.025 0.355-1.557 0.178-0.533-0.178-1.361-0.04-1.32-1.045 0.017-0.486 0.812-0.429 1.496-0.197z" fill="#FFE01B"/>
		<path stroke-width=".0624" d="m72.642 45.623c1.045 0.354 1.52 0.474 1.381 1.064-0.152 0.651-1.025 0.355-1.557 0.178-0.533-0.178-1.361-0.04-1.32-1.045 0.017-0.486 0.812-0.429 1.496-0.197z" stroke="#000" fill="none"/>
		<path d="m74.003 47.477c0.174-0.348 0.965-0.474 1.143-0.848 0.275 0.787-0.217 0.827-0.434 1.241-0.078 0.15-0.65 0.632-1.082 0.198-0.09-0.089 0.234-0.316 0.373-0.591z" fill="#FFE01B"/>
		<path stroke-width=".0624" d="m74.003 47.477c0.174-0.348 0.965-0.474 1.143-0.848 0.275 0.787-0.217 0.827-0.434 1.241-0.078 0.15-0.65 0.632-1.082 0.198-0.09-0.089 0.234-0.316 0.373-0.591z" stroke="#000" fill="none"/>
		<path d="m72.642 46.787c1.045 0.353 1.52 0.473 1.381 1.063-0.152 0.651-1.025 0.355-1.557 0.178-0.533-0.178-1.105-0.256-1.105-0.966-0.001-0.487 0.597-0.508 1.281-0.275z" fill="#FFE01B"/>
		<path stroke-width=".0624" d="m72.642 46.787c1.045 0.353 1.52 0.473 1.381 1.063-0.152 0.651-1.025 0.355-1.557 0.178-0.533-0.178-1.105-0.256-1.105-0.966-0.001-0.487 0.597-0.508 1.281-0.275z" stroke="#000" fill="none"/>
		<path d="m56.802 17.043c0.146-0.644 0.332-1.305-0.287-1.518-0.541-0.185-0.734-0.661-0.226-1.168 0.506-0.509 0.984-0.314 1.168 0.227 0.213 0.619 0.891 0.491 1.52 0.287 3.113-1.015 5.314 4.057 4.809 7.58-0.002-2.314-8.228 0.026-6.984-5.408z" fill="#FFE01B"/>
		<path stroke-width=".0624" d="m56.802 17.043c0.146-0.644 0.332-1.305-0.287-1.518-0.541-0.185-0.734-0.661-0.226-1.168 0.506-0.509 0.984-0.314 1.168 0.227 0.213 0.619 0.891 0.491 1.52 0.287 3.113-1.015 5.314 4.057 4.809 7.58-0.002-2.314-8.228 0.026-6.984-5.408z" stroke="#000" fill="none"/>
		<path d="m130.85 17.043c-0.146-0.644-0.332-1.305 0.287-1.518 0.541-0.185 0.734-0.661 0.227-1.168-0.508-0.509-0.982-0.314-1.168 0.227-0.213 0.619-0.889 0.491-1.518 0.287-3.115-1.015-5.316 4.057-4.81 7.58 0-2.314 8.22 0.026 6.98-5.408z" fill="#FFE01B"/>
		<path stroke-width=".0624" d="m130.85 17.043c-0.146-0.644-0.332-1.305 0.287-1.518 0.541-0.185 0.734-0.661 0.227-1.168-0.508-0.509-0.982-0.314-1.168 0.227-0.213 0.619-0.889 0.491-1.518 0.287-3.115-1.015-5.316 4.057-4.81 7.58 0-2.314 8.22 0.026 6.98-5.408z" stroke="#000" fill="none"/>
		<path d="m56.802 63.543c0.146 0.645 0.332 1.305-0.287 1.519-0.541 0.185-0.734 0.661-0.226 1.169 0.506 0.508 0.984 0.313 1.168-0.227 0.213-0.62 0.891-0.492 1.52-0.288 3.113 1.016 5.314-4.058 4.809-7.58-0.002 2.314-8.228-0.025-6.984 5.407z" fill="#FFE01B"/>
		<path stroke-width=".0624" d="m56.802 63.543c0.146 0.645 0.332 1.305-0.287 1.519-0.541 0.185-0.734 0.661-0.226 1.169 0.506 0.508 0.984 0.313 1.168-0.227 0.213-0.62 0.891-0.492 1.52-0.288 3.113 1.016 5.314-4.058 4.809-7.58-0.002 2.314-8.228-0.025-6.984 5.407z" stroke="#000" fill="none"/>
		<path d="m130.85 63.543c-0.146 0.645-0.332 1.305 0.287 1.519 0.541 0.185 0.734 0.661 0.227 1.169s-0.982 0.313-1.168-0.227c-0.213-0.62-0.889-0.492-1.518-0.288-3.115 1.016-5.316-4.058-4.81-7.58 0 2.314 8.22-0.025 6.98 5.407z" fill="#FFE01B"/>
		<path stroke-width=".0624" d="m130.85 63.543c-0.146 0.645-0.332 1.305 0.287 1.519 0.541 0.185 0.734 0.661 0.227 1.169s-0.982 0.313-1.168-0.227c-0.213-0.62-0.889-0.492-1.518-0.288-3.115 1.016-5.316-4.058-4.81-7.58 0 2.314 8.22-0.025 6.98 5.407zm-51.66-31.98c0.947 0.599 2.641 0.955 4.688 1.067-0.314 0.14-0.314 0.671-0.689 0.888 1.225-0.374 1.893 0.315 2.859 0.099-0.152-0.69-0.395-1.21-0.67-1.636m-5.668 15.437c0.459 1.577 1.463 3.099 3.139 4.394m3.002-3.863c-0.762 2.012-0.414 3.932 0.104 5.656m24.085-0.548c-0.875-0.567-1.732-1.193-2.346-1.993-1.219-1.589-2.525-2.208-4.852-2.208m-10.632 3.622c1.199-2.214 2.523-5.177 1.844-7.052m2.681-21.233c-0.854 1.005-2.836 1.47-4.328 1.197 0.744 0.234 0.725 1.043 1.506 1.26-0.951 0.252-3.088 0.555-4.084-0.731 0.695 0.668 0.391 1.016 1.152 1.389-1.443 0.083-2.361-0.313-2.959-0.841-0.598-0.527-2.08-0.91-2.262 0.254-0.092 0.593 0.367 0.959 0.768 0.969 0.398 0.012 0.668-0.317 0.674-0.571 0.008-0.323-0.09-0.606-0.52-0.618m-0.355 8.142c-0.061 0.75 0.531 1.518 0.314 1.951 0.512-0.196 0.906-1.045 0.986-1.518 0.295 0.808 0.393 1.34 0.156 1.676 0.65-0.236 1.125-1.104 1.342-1.519 0.492 0.553 1.162 1.36 1.123 2.031 0.434-0.415 0.256-1.577 0.395-1.854 0.275 0.749 1.854 0.69 1.912 2.03 0.275-0.592 0.375-1.537 0.236-2.208m3.472-7.39c0.547 0.948 1.129 0.934 1.383 1.601m-10.059 0.488c-0.098 1.438 1.322 1.281 1.225 1.852 0.018-0.61 0.748-0.926 0.748-1.458 0.059 0.788 1.025 0.591 1.26 1.498-0.176-0.691 0.357-1.104-0.234-2.168 0.078 0.413 0.809 0.847 0.867 1.438 0-0.395 0.689-0.926 0.314-1.734-0.02 0.65 1.025 0.61 0.848 1.597 0.119-0.395 0.65-0.828 0.475-2.109 0 1.064 1.715 1.143 1.635 2.109 0.375-0.71 0.375-1.873-0.059-2.879 0.629 0.474 0.809 1.145 0.945 2.169 0.1 0.732 1.012 1.303 1.561 1.791m0.44 5.079c0.303 0.39 0.74 0.699 1.311 0.957-0.553 0.217-1.832 0.513-2.385 0.039 0.395 0.531-0.178 1.459 0.197 1.97-0.236-0.294-2.207-0.333-2.523-1.103-0.355 1.124-1.459 1.321-1.656 1.794 0.355-0.907-1.104-2.621-0.789-3.391-0.768 0.059-0.414 1.933-1.34 2.522 0.314-0.491-0.848-1.182-0.709-1.813-0.178 0.927-0.611 1.813-1.42 2.248 0.453-1.104-0.455-1.479-0.178-2.05-0.316 2.562-1.479 1.792-1.773 2.562 0.295-1.301-0.553-1.833-0.158-2.365-0.258 0.316-1.262 0.809-1.912 0.769 1.045-0.413 0.67-1.872 1.34-2.148m11.71-0.474c-1.436 0.259-2.764-0.867-3.252-1.793 0.039 0.375-0.08 1.084-0.199 1.281-0.137-0.65-1.715-0.829-1.971-2.031-0.039 0.453-0.334 0.849-0.473 1.007-0.061-0.929-0.75-1.479-1.301-1.952 0.117 0.473-0.475 1.045-0.592 1.381-0.08-0.514-1.143-0.869-1.223-1.755m8.4 1.378c-0.904-0.636-2.156-1.403-2.168-2.307 0.078 0.395-0.533 1.144-0.553 1.538 0.02-0.395-1.223-0.868-1.242-1.558 0.553 1.203-0.236 1.36-0.275 1.952 0.039-0.474-0.75-1.223-1.225-1.439" stroke="#000" fill="none"/>
</g>
</svg>
