<?xml version="1.0" encoding="UTF-8" standalone="no"?>
<!-- Generator: Adobe Illustrator 18.0.0, SVG Export Plug-In . SVG Version: 6.00 Build 0)  -->
<!DOCTYPE svg  PUBLIC '-//W3C//DTD SVG 1.1//EN'  'http://www.w3.org/Graphics/SVG/1.1/DTD/svg11.dtd'>
<svg style="enable-background:new 0 0 144 80" xmlns="http://www.w3.org/2000/svg" xml:space="preserve" version="1.1" y="0px" x="0px" xmlns:xlink="http://www.w3.org/1999/xlink" viewBox="0 0 144 80">
<g id="KAZ">
		<polygon points="144 80 144 0 0 0 0 80" fill="#00AFCA"/>
		<g fill="#FEC50C">
			<path d="m72.031 16.702c-0.219 1.024-0.799 3.481-0.799 3.957 0 0.44 0.356 0.797 0.799 0.797 0.441 0 0.801-0.357 0.801-0.797s-0.592-2.951-0.801-3.957z"/>
			<path d="m68.492 17.049c-0.015 1.047-0.104 3.569-0.011 4.037 0.086 0.43 0.506 0.711 0.939 0.625 0.434-0.085 0.716-0.507 0.629-0.937-0.085-0.433-1.155-2.781-1.557-3.725z"/>
			<path d="m65.088 18.077c0.19 1.029 0.597 3.521 0.779 3.959 0.169 0.407 0.637 0.601 1.045 0.434 0.407-0.171 0.602-0.636 0.434-1.043-0.17-0.407-1.68-2.5-2.258-3.35z"/>
			<path d="m61.951 19.747c0.388 0.974 1.272 3.337 1.538 3.732 0.245 0.369 0.742 0.467 1.11 0.221 0.365-0.243 0.465-0.74 0.219-1.106-0.244-0.366-2.134-2.126-2.867-2.847z"/>
			<path d="m59.199 21.997c0.571 0.88 1.903 3.026 2.239 3.361 0.313 0.312 0.819 0.312 1.132 0s0.312-0.816 0-1.126c-0.312-0.313-2.509-1.671-3.371-2.235z"/>
			<path d="m56.942 24.739c0.732 0.75 2.458 2.598 2.853 2.861 0.366 0.244 0.864 0.147 1.107-0.22 0.247-0.368 0.149-0.863-0.22-1.108-0.366-0.243-2.786-1.15-3.74-1.533z"/>
			<path d="m55.265 27.866c0.864 0.594 2.917 2.071 3.357 2.252 0.408 0.17 0.876-0.025 1.046-0.432 0.168-0.407-0.025-0.873-0.433-1.042-0.408-0.168-2.96-0.585-3.97-0.778z"/>
			<path d="m54.229 31.263c0.966 0.412 3.269 1.461 3.735 1.553 0.433 0.087 0.853-0.193 0.938-0.626 0.088-0.433-0.194-0.853-0.628-0.938-0.431-0.087-3.014 0.003-4.045 0.011z"/>
			<path d="m53.879 34.793c1.026 0.218 3.49 0.796 3.967 0.796 0.441 0 0.8-0.356 0.8-0.796s-0.358-0.797-0.8-0.797c-0.443 0-2.958 0.589-3.967 0.797z"/>
			<path d="m54.226 38.323c1.052 0.016 3.579 0.105 4.045 0.011 0.435-0.085 0.716-0.506 0.63-0.936-0.086-0.436-0.506-0.716-0.939-0.628-0.435 0.086-2.788 1.152-3.736 1.553z"/>
			<path d="m55.256 41.72c1.033-0.191 3.531-0.595 3.973-0.775 0.408-0.17 0.602-0.636 0.432-1.044-0.169-0.407-0.637-0.599-1.044-0.432-0.41 0.168-2.508 1.675-3.361 2.251z"/>
			<path d="m56.932 44.851c0.977-0.39 3.346-1.271 3.743-1.536 0.366-0.245 0.465-0.739 0.222-1.106-0.246-0.365-0.745-0.466-1.11-0.22-0.369 0.244-2.133 2.129-2.855 2.862z"/>
			<path d="m59.187 47.594c0.882-0.568 3.034-1.897 3.371-2.232 0.312-0.312 0.312-0.818 0-1.129-0.311-0.313-0.819-0.313-1.132 0-0.311 0.31-1.674 2.501-2.239 3.361z"/>
			<path d="m61.935 49.847c0.752-0.73 2.604-2.451 2.87-2.848 0.244-0.365 0.146-0.861-0.221-1.106-0.367-0.243-0.866-0.146-1.109 0.223-0.246 0.363-1.153 2.778-1.54 3.731z"/>
			<path d="m65.07 51.52c0.596-0.863 2.075-2.911 2.258-3.349 0.169-0.407-0.024-0.875-0.433-1.043-0.408-0.169-0.877 0.025-1.045 0.432-0.169 0.406-0.586 2.951-0.78 3.96z"/>
			<path d="m68.473 52.553c0.417-0.963 1.466-3.258 1.561-3.725 0.086-0.433-0.196-0.852-0.63-0.937-0.434-0.088-0.853 0.192-0.938 0.625-0.089 0.432 0.001 3.01 0.007 4.037z"/>
			<path d="m72.014 52.903c0.219-1.026 0.8-3.482 0.8-3.957 0-0.442-0.358-0.799-0.8-0.799s-0.799 0.356-0.801 0.796c0 0.444 0.592 2.953 0.801 3.96z"/>
			<path d="m75.554 52.557c0.015-1.049 0.102-3.569 0.011-4.035-0.086-0.433-0.507-0.713-0.94-0.627-0.434 0.085-0.715 0.505-0.629 0.937 0.085 0.431 1.155 2.78 1.558 3.725z"/>
			<path d="m78.957 51.53c-0.19-1.031-0.596-3.523-0.777-3.964-0.17-0.406-0.639-0.6-1.045-0.431-0.41 0.167-0.604 0.635-0.434 1.043 0.169 0.408 1.678 2.501 2.256 3.352z"/>
			<path d="m82.096 49.858c-0.389-0.975-1.274-3.341-1.54-3.734-0.243-0.365-0.741-0.465-1.108-0.219-0.367 0.243-0.466 0.739-0.22 1.106 0.245 0.366 2.133 2.126 2.868 2.847z"/>
			<path d="m84.847 47.609c-0.572-0.881-1.901-3.025-2.239-3.363-0.312-0.312-0.818-0.312-1.131 0-0.312 0.311-0.312 0.817 0 1.129s2.509 1.669 3.37 2.234z"/>
			<path d="m87.103 44.868c-0.731-0.752-2.456-2.6-2.852-2.864-0.368-0.243-0.865-0.146-1.11 0.22-0.244 0.368-0.146 0.863 0.221 1.108 0.367 0.246 2.788 1.15 3.741 1.536z"/>
			<path d="m88.783 41.739c-0.865-0.595-2.918-2.069-3.358-2.253-0.408-0.168-0.876 0.026-1.045 0.431-0.169 0.407 0.023 0.875 0.433 1.044 0.408 0.168 2.958 0.587 3.97 0.778z"/>
			<path d="m89.817 38.345c-0.965-0.414-3.267-1.463-3.734-1.557-0.433-0.086-0.854 0.194-0.94 0.628-0.087 0.432 0.194 0.853 0.628 0.938 0.434 0.086 3.016-0.001 4.046-0.009z"/>
			<path d="m90.169 34.812c-1.028-0.217-3.491-0.798-3.968-0.798-0.441 0-0.8 0.358-0.8 0.798s0.357 0.8 0.8 0.8c0.442-0.001 2.958-0.591 3.968-0.8z"/>
			<path d="m89.822 31.281c-1.052-0.015-3.579-0.103-4.047-0.012-0.433 0.086-0.715 0.506-0.629 0.939 0.087 0.431 0.508 0.713 0.94 0.626 0.435-0.083 2.788-1.153 3.736-1.553z"/>
			<path d="m88.792 27.886c-1.033 0.188-3.531 0.594-3.973 0.777-0.407 0.168-0.602 0.634-0.432 1.042 0.168 0.407 0.638 0.601 1.046 0.432 0.408-0.171 2.505-1.675 3.359-2.251z"/>
			<path d="m87.117 24.755c-0.976 0.388-3.348 1.271-3.743 1.535-0.367 0.244-0.466 0.738-0.221 1.105s0.742 0.466 1.108 0.219c0.369-0.243 2.134-2.127 2.856-2.859z"/>
			<path d="m84.863 22.01c-0.883 0.57-3.034 1.897-3.371 2.234-0.313 0.312-0.313 0.816 0 1.129 0.312 0.312 0.818 0.312 1.13 0 0.313-0.311 1.675-2.504 2.241-3.363z"/>
			<path d="m82.114 19.757c-0.753 0.731-2.604 2.453-2.87 2.847-0.244 0.366-0.146 0.863 0.221 1.108 0.367 0.244 0.864 0.146 1.109-0.222 0.245-0.364 1.154-2.78 1.54-3.733z"/>
			<path d="m78.979 18.083c-0.596 0.863-2.075 2.911-2.258 3.35-0.168 0.408 0.025 0.875 0.434 1.043 0.407 0.169 0.875-0.024 1.045-0.432 0.167-0.407 0.586-2.952 0.779-3.961z"/>
			<path d="m75.576 17.051c-0.416 0.962-1.467 3.26-1.56 3.726-0.087 0.432 0.194 0.851 0.628 0.938 0.434 0.086 0.854-0.195 0.94-0.627 0.087-0.433-0.001-3.009-0.008-4.037z"/>
			<path d="m72.023 46.812c6.648 0 12.039-5.378 12.039-12.012 0-6.63-5.391-12.008-12.039-12.008s-12.039 5.378-12.039 12.008c0 6.635 5.391 12.012 12.039 12.012z"/>
			<path d="m71.468 54.81c-0.81 0.099-3.281-0.127-4.631-0.671-2.229-0.894-4.525-1.502-5.749-2.561-1.551-1.34-6.649-4.135-8.541-11.898-0.367-1.511-0.33-2.136-0.755-2.118-0.216 0.008-0.387 1.188-0.168 2.538 0.204 1.267-0.179 1.129-0.894-0.524-0.686-1.585-1.129-2.895-1.301-4.211-0.129-1-0.916-0.086-0.743 1.383 0.149 1.253 1.054 3.718 1.94 5.092 0.758 1.174 0.191 1.204-0.604 0.192-0.795-1.014-1.917-2.562-2.521-4.257-0.603-1.697-0.638 0.674-0.354 1.584 0.741 2.381 2.547 4.561 3.534 5.545 0.986 0.983 0.575 1.229-0.356 0.548-0.933-0.685-1.281-0.804-2.35-1.926-1.07-1.122-1.481-0.602-0.521 0.574 0.959 1.177 1.942 2.131 3.116 3.046 0.632 0.493 1.149 1.004 0.22 0.876-0.604-0.082-1.535-0.739-1.947-1.148-0.41-0.411-1.102-0.418-0.492 0.382 0.686 0.903 2.309 2.385 3.62 2.845 0.466 0.165 0.082 0.466-0.905 0.247-0.988-0.22-0.303 0.491 0.191 0.739 0.494 0.245 1.289 0.521 1.864 0.629s0.385 0.354-0.11 0.382c-0.493 0.027-0.876-0.013-1.165-0.109-0.288-0.096-0.067 0.315 0.247 0.466 0.314 0.15 0.863 0.314 1.276 0.342 0.411 0.028 0.288 0.532-0.165 0.424s-0.945-0.204-0.713 0.15c0.232 0.356 1.549 0.534 2.44 0.574 0.892 0.041 0.575 0.342 0.121 0.452-0.451 0.109-0.861 0.123-1.178 0.123-0.314 0-0.521 0.478 0.178 0.52s1.673 0.095 3.1 0.808c1.88 0.939 4.378 1.821 6.148 1.574 1.563-0.221 0.713-0.661-0.055-0.574-1.233 0.136-2.281-0.755-3.132-0.755s-2.125-0.979-2.989-1.095c-0.411-0.055-0.74-0.409-0.191-0.546 0.549-0.139 0.739-0.433 0.686-0.656-0.083-0.342-1.042-0.014-1.645-0.286-0.471-0.215-0.407-0.382-0.014-0.659 0.531-0.37 0.15-0.652-0.631-0.666s-0.932-0.399-0.549-0.688c0.385-0.286 0.179-0.477-0.205-0.45-0.384 0.028-0.332-0.342-0.084-0.424 0.246-0.082 0.176-0.279-0.124-0.313-0.699-0.082-1.171-0.765-1.699-0.984-0.438-0.186-0.409-0.379-0.206-0.356 0.206 0.021 0.442-0.107 0.111-0.37-0.493-0.39 0.034-0.567-0.666-0.97-0.532-0.309-0.704-0.612-0.603-0.843 0.129-0.294 0.965-0.087 1.028-0.521 0.052-0.361-1.065-0.86-1.035-1.414 0.014-0.253 0.213-0.259 0.426-0.144 0.21 0.117 0.457 0.131 0.39-0.155-0.075-0.329 0.036-0.468 0.507-0.206 1.269 0.697 2.751 2.785 4.176 4.937 0.96 1.449 1.949 2.046 2.769 2.271 1.098 0.302 3.223 1.739 4.141 2.571 0.604 0.548 1.069 0.902 2.167 0.685 1.096-0.219 2.275 0.027 3.208 0.465 0.933 0.437 1.821 0.963 2.66-0.109 0.343-0.444 0.278-0.426-0.273-0.357z"/>
			<path d="m77.994 55.271c-2.442 0.045-3.949 0.304-4.524 0.794-1.125 0.958-1.344 0.466-1.865 0.819-0.521 0.357-0.959 0.397-1.206 0.247-0.247-0.149-0.302-0.316 0.204-0.438 0.509-0.123 0.905-0.562 1.153-0.82 0.809-0.85 2.199-1.062 3.331-1.286 3.729-0.739 9.226-2.741 12.969-7.59 2.578-3.337 3.459-6.863 3.922-10.097 0.164-1.148 0.729-0.861 0.812-0.095 0.082 0.766-0.109 2.627-0.246 3.229-0.138 0.6-0.016 1.081 0.549 0.191 0.85-1.341 1.672-4.104 1.92-5.472 0.246-1.368 0.717-1.231 0.738 0.056 0.034 1.906-0.87 4.892-2.564 7.467-0.674 1.025-0.344 1.401 0.576 0.357 1.326-1.509 1.918-2.308 2.572-3.81 0.557-1.28 0.994-1.03 0.521 0.574-0.686 2.325-2.023 4.001-3.148 5.26-1.124 1.257-0.686 1.257-0.027 1.038 0.658-0.219 1.752-1.171 2.574-2.266 0.822-1.094 1.098-0.604 0.54 0.42-0.517 0.955-1.913 2.586-2.867 3.514-0.75 0.73-0.082 0.768 0.411 0.302 0.494-0.466 0.878-1.04 1.398-1.177 0.521-0.137 1.163-0.125-0.137 1.231-0.603 0.629-2.413 1.942-3.29 2.352-0.878 0.411-0.549 0.74 0.137 0.574 0.686-0.163 1.755-0.729 1.755-0.408 0 0.354-0.795 0.682-1.453 0.956-0.706 0.294-1.112 0.943-0.261 0.943 0.397 0 0.288 0.33-0.069 0.397-0.355 0.068-1.032 0.109-1.083 0.411-0.028 0.164 0.233 0.286 0.453 0.301 0.22 0.014 0.244 0.188-0.055 0.41-0.96 0.712-2.249 0.301-2.77 0.684-0.521 0.382 0 0.354 0.645 0.342 0.754-0.014 1.413 0.57 0.355 0.588-1.493 0.027-3.398 0.444-4.977 1.178-1.179 0.547-2.107-0.045-0.521-0.631 0.892-0.328 2.172-0.796 2.604-1.012 0.987-0.494-0.641-0.312 0.398-0.944 0.315-0.19 1.014-0.204 1.014-0.451 0-0.245-0.654-0.378-0.123-0.657 0.26-0.137 0.768-0.177 1.055-0.149 0.289 0.027 0.563-0.368 0.111-0.491-0.454-0.125-0.44-0.37 0.082-0.493 0.521-0.125 1.068-0.275 1.357-0.411 0.287-0.136 0.246-0.381-0.289-0.409-0.534-0.026-0.602-0.235-0.109-0.411 0.576-0.205 1.316-0.629 1.77-0.916 0.451-0.287 0.369-0.452-0.083-0.588-0.452-0.137-0.509-0.22-0.098-0.452 0.44-0.247 0.788-0.521 0.88-0.779 0.096-0.274 0.162-0.559-0.343-0.521-0.549 0.041-0.823 0.041-0.768-0.534 0.055-0.572 0.185-0.757 0.521-1.146 0.342-0.397 0.064-0.709-0.781-0.384-1.426 0.547-1.852 0.684-2.51 1.667-0.658 0.986-1.48 2.079-1.919 2.983-0.438 0.902-1.482 1.889-2.495 2.161-1.015 0.273-3.303 1.312-4.278 2.079-1.289 1.013-0.987 1.285-2.468 1.313z"/>
			<path d="m66.339 59.333c-0.479-0.246-0.52-0.644 0.248-0.779 0.71-0.126 0.7-0.109 1.056-0.288 0.355-0.177 1.645-0.793 2.221-0.808 0.575-0.013 0.508 0.426-0.027 0.439-0.534 0.013-1.782 0.615-2.221 0.929-0.439 0.316-0.658 0.371-0.892 0.316s-0.329 0.039-0.385 0.191z"/>
			<path d="m65.146 61.222c-0.52-0.575 0-1.205 0.755-1.521 0.21-0.088 0.479 0.329 1.233 0.261 0.754-0.069 1.543-0.171 1.139-0.601-0.22-0.232-0.316-0.452 0.027-0.452 0.137 0 0.26-0.014 0.37-0.082 0.109-0.067 0.288-0.095 0.425-0.019 0.137 0.074 0.268 0.095 0.458 0.068 0.193-0.028 0.349 0.12 0.132 0.293-0.48 0.382-0.123 0.685 0.218 0.63 0.345-0.055 0.934-0.082 1.263 0.027s0.645 0.122 0.904 0.066c0.262-0.053 0.775-0.013 1.317 0.22 0.671 0.286 0.567 0.711 0 0.615-1.372-0.231-2.441-0.287-3.209-0.15s-2.051 0.02-2.906-0.109c-0.727-0.108-1.44-0.178-2.126 0.754z"/>
			<path d="m70.261 61.467c-0.397 0.61-1.014 1.024-1.7 1.218-0.685 0.191-1.015 0.437-0.164 0.547s1.179-0.084 1.618-0.274c0.438-0.191 0.581-0.611 0.877-0.081 0.274 0.492 0.616 0.439 1.138-0.055 0.289-0.275 0.494-0.466 0.81-0.453 0.315 0.014 0.396 0.082 0.165 0.384-0.234 0.301-0.028 0.821 0.451 0.369 0.479-0.45 0.713-0.739 1.098-0.723 0.385 0.012 0.301 0.175 0.027 0.436-0.274 0.262-0.425 0.493 0.15 0.438s0.851-0.125 1.057-0.492c0.205-0.37 0.355-0.549 0.85-0.15 0.494 0.397 0.754 0.738 0.988 0.314 0.231-0.424 0.355-0.548 0.628-0.314 0.372 0.314 1.605 0.055 1.688-0.521 0.037-0.257 0.068-0.589 0.493-0.218 0.425 0.368 1.262 0.245 1.274-0.221 0.015-0.464 0.275-0.531 0.7-0.367 0.425 0.163 0.945 0.231 1.22-0.014 0.274-0.248 0.357-0.398 0.179-0.753-0.179-0.356-0.122-0.703 0.425-0.493 0.892 0.342 1.905 0.671 2.564-0.122 0.657-0.793 0.877-0.986-0.22-0.959-1.098 0.027-3.072-0.137-3.977-0.245-0.904-0.109-2.111-0.342-2.372-0.342-0.26 0-0.328 0.082-0.301 0.26s-0.33 0.178-0.37 0.437c-0.042 0.261-0.233 0.397-0.521 0.261s-0.356-0.041-0.247 0.231c0.11 0.275 0.086 0.532-0.302 0.452-1.001-0.205-1.585 0.164-2.345 0.494-1.576 0.683-2.578 0.779-3.811 0.641-1.233-0.137-1.685-0.274-2.07 0.315z"/>
		</g>
		<path d="m9.47 58.394c0-1.014-1.692-3.656-4.003-2.345-2.946 1.672 1.531 8.138 2.838 11.604 0.703 1.868-0.131 2.9-1.034 2.979-0.99 0.088-1.339-0.447-1.472-1.113-0.098-0.49 0.383-0.991 0.867-1.052 0.483-0.059 0.813 0.339 0.636 0.617-1.011-0.338-1.23 0.962-0.339 1.012 1.164 0.065 1.43-1.312 0.902-1.827-0.528-0.518-1.596-0.477-1.893-0.02 0.156-0.455 0.3-1.114 0.287-1.788-0.007-0.239 0.109-1.144 0.385-1.352-0.221-0.1-0.623 0.101-0.568 0.269-0.195-0.549-0.565-1.035-1.204-1.342 0.793 1.511 0.793 2.909 0.286 4.015-0.638 1.39-0.22 3.614 2.244 3.317 2.338-0.283 2.729-2.463 1.232-5.465-1.487-2.983-4.598-8.245-2.466-9.219 0.747-0.341 1.806 0.298 2.357 1.33 0.195 0.369 0.032 0.498-0.331 0.498h-0.737v-0.159c0-0.606-0.606-0.606-0.606 0v0.159c-0.22 0-0.374 0.209-0.374 0.318 0 0.108 0.154 0.317 0.374 0.317v0.158c0 0.607 0.606 0.607 0.606 0v-0.158h1.134c0.164 0 0.307 0.089 0.307 0.337v2.524c0 0.238-0.803 0.14-0.748-0.387 0.023-0.22-0.132-0.279-0.219-0.181-0.789 0.891 0.671 1.452 0.967 1.163v1.53c0 1.052 1.144 1.052 1.144 0v-1.53c0.296 0.289 1.756-0.272 0.969-1.163-0.088-0.099-0.243-0.039-0.22 0.181 0.055 0.526-0.749 0.625-0.749 0.387v-2.524c0-0.248 0.143-0.337 0.309-0.337h1.133v0.158c0 0.607 0.604 0.607 0.604 0v-0.158c0.221 0 0.375-0.209 0.375-0.317 0-0.109-0.154-0.318-0.375-0.318v-0.159c0-0.606-0.604-0.606-0.604 0v0.159h-0.737c-0.362 0-0.527-0.129-0.331-0.498 0.551-1.032 1.61-1.671 2.354-1.33 2.135 0.974-0.976 6.235-2.463 9.219-1.497 3.002-1.106 5.182 1.231 5.465 2.465 0.297 2.882-1.928 2.245-3.317-0.507-1.105-0.507-2.504 0.286-4.015-0.64 0.307-1.01 0.793-1.205 1.342 0.055-0.168-0.348-0.368-0.566-0.269 0.275 0.208 0.39 1.112 0.385 1.352-0.015 0.674 0.131 1.333 0.286 1.788-0.296-0.457-1.364-0.498-1.893 0.02-0.527 0.516-0.263 1.893 0.902 1.827 0.892-0.05 0.671-1.35-0.342-1.012-0.176-0.278 0.155-0.676 0.639-0.617 0.485 0.061 0.964 0.562 0.866 1.052-0.133 0.666-0.481 1.201-1.471 1.113-0.902-0.078-1.738-1.11-1.034-2.979 1.308-3.467 5.783-9.933 2.839-11.604-2.309-1.312-4.005 1.331-4.005 2.345z" fill="#FEC50C"/>
		<path d="m9.47 78.726c0.552 0.615 1.384 0.672 1.982 0.218 1.232-0.933-0.286-2.204-0.768-3.694-0.613-1.894-0.18-2.961 0.987-3.1 0.986-0.117 1.338 0.447 1.471 1.115 0.098 0.49-0.381 0.99-0.866 1.051-0.483 0.059-0.814-0.338-0.639-0.616 1.013 0.338 1.233-0.964 0.342-1.014-1.165-0.065-1.43 1.312-0.902 1.828s1.597 0.478 1.893 0.021c-0.155 0.455-0.301 1.113-0.286 1.787 0.005 0.24-0.109 1.143-0.385 1.353 0.219 0.099 0.621-0.1 0.566-0.27 0.195 0.549 0.565 1.035 1.205 1.342-0.793-1.51-0.793-2.908-0.286-4.015 0.637-1.389 0.22-3.615-2.245-3.317-2.337 0.282-2.795 2.602-0.981 5.953 0.608 1.125-0.866 1.22-1.088 0.286-0.218 0.934-1.693 0.839-1.085-0.286 1.812-3.352 1.356-5.671-0.982-5.953-2.464-0.298-2.882 1.929-2.244 3.317 0.507 1.106 0.507 2.505-0.286 4.015 0.639-0.307 1.009-0.793 1.204-1.342-0.055 0.169 0.348 0.368 0.568 0.27-0.275-0.21-0.392-1.112-0.385-1.353 0.013-0.674-0.131-1.332-0.287-1.787 0.297 0.457 1.364 0.495 1.893-0.021 0.527-0.517 0.262-1.894-0.902-1.828-0.892 0.05-0.672 1.352 0.339 1.014 0.178 0.278-0.152 0.675-0.636 0.616-0.484-0.061-0.965-0.561-0.867-1.051 0.133-0.668 0.486-1.232 1.472-1.115 1.167 0.139 1.599 1.206 0.987 3.1-0.481 1.49-2 2.762-0.768 3.694 0.598 0.453 1.43 0.397 1.979-0.218z" fill="#FEC50C"/>
		<path d="m9.47 52.988c0 1.013-1.692 3.656-4.003 2.345-2.946-1.672 1.531-8.136 2.838-11.604 0.703-1.866-0.131-2.902-1.034-2.98-0.99-0.087-1.339 0.448-1.472 1.115-0.098 0.49 0.383 0.99 0.867 1.05 0.483 0.061 0.813-0.336 0.636-0.616-1.011 0.339-1.23-0.963-0.339-1.014 1.164-0.063 1.43 1.312 0.902 1.828-0.528 0.518-1.596 0.478-1.893 0.021 0.156 0.455 0.3 1.113 0.287 1.79-0.007 0.237 0.109 1.141 0.385 1.35-0.221 0.1-0.623-0.1-0.568-0.269-0.195 0.55-0.565 1.036-1.204 1.342 0.793-1.51 0.793-2.909 0.286-4.014-0.638-1.391-0.22-3.616 2.244-3.318 2.338 0.282 2.729 2.464 1.232 5.464-1.487 2.984-4.598 8.246-2.466 9.219 0.747 0.34 1.806-0.298 2.357-1.33 0.195-0.367 0.032-0.497-0.331-0.497h-0.737v0.16c0 0.604-0.606 0.604-0.606 0v-0.16c-0.22 0-0.374-0.209-0.374-0.317 0-0.11 0.154-0.318 0.374-0.318v-0.158c0-0.606 0.606-0.606 0.606 0v0.158h1.134c0.164 0 0.307-0.091 0.307-0.339v-2.522c0-0.239-0.803-0.139-0.748 0.388 0.023 0.219-0.132 0.277-0.219 0.178-0.789-0.889 0.671-1.449 0.967-1.162v-1.53c0-1.052 1.144-1.052 1.144 0v1.53c0.296-0.287 1.756 0.273 0.969 1.162-0.088 0.1-0.243 0.041-0.22-0.178 0.055-0.526-0.749-0.627-0.749-0.388v2.522c0 0.248 0.143 0.339 0.309 0.339h1.133v-0.158c0-0.606 0.604-0.606 0.604 0v0.158c0.221 0 0.375 0.208 0.375 0.318 0 0.108-0.154 0.317-0.375 0.317v0.16c0 0.604-0.604 0.604-0.604 0v-0.16h-0.737c-0.362 0-0.527 0.13-0.331 0.497 0.551 1.032 1.61 1.67 2.354 1.33 2.135-0.973-0.976-6.234-2.463-9.219-1.497-3-1.106-5.182 1.231-5.464 2.465-0.298 2.882 1.928 2.245 3.318-0.507 1.104-0.507 2.504 0.286 4.014-0.64-0.306-1.01-0.792-1.205-1.342 0.055 0.169-0.348 0.368-0.566 0.269 0.275-0.209 0.39-1.112 0.385-1.35-0.015-0.677 0.131-1.335 0.286-1.79-0.296 0.457-1.364 0.497-1.893-0.021-0.527-0.517-0.263-1.892 0.902-1.828 0.892 0.051 0.671 1.353-0.342 1.014-0.176 0.28 0.155 0.677 0.639 0.616 0.485-0.06 0.964-0.56 0.866-1.05-0.133-0.667-0.481-1.202-1.471-1.115-0.902 0.078-1.738 1.114-1.034 2.98 1.308 3.468 5.783 9.932 2.839 11.604-2.309 1.312-4.005-1.332-4.005-2.345z" fill="#FEC50C"/>
		<path d="m9.47 21.615c0 1.013-1.692 3.655-4.003 2.344-2.946-1.671 1.531-8.136 2.838-11.603 0.703-1.867-0.131-2.9-1.034-2.979-0.991-0.089-1.339 0.446-1.472 1.113-0.098 0.491 0.383 0.992 0.867 1.052 0.483 0.059 0.813-0.339 0.636-0.617-1.011 0.338-1.23-0.963-0.339-1.013 1.164-0.065 1.43 1.312 0.902 1.828-0.528 0.517-1.596 0.476-1.893 0.019 0.156 0.455 0.3 1.114 0.287 1.788-0.007 0.24 0.109 1.144 0.385 1.354-0.221 0.098-0.623-0.102-0.568-0.271-0.195 0.549-0.565 1.037-1.204 1.342 0.793-1.51 0.793-2.909 0.286-4.015-0.638-1.39-0.22-3.614 2.244-3.315 2.338 0.281 2.729 2.462 1.232 5.463-1.487 2.983-4.598 8.245-2.466 9.219 0.747 0.341 1.806-0.298 2.357-1.33 0.195-0.367 0.032-0.497-0.331-0.497h-0.737v0.158c0 0.606-0.606 0.606-0.606 0v-0.158c-0.22 0-0.374-0.21-0.374-0.318 0-0.109 0.154-0.317 0.374-0.317v-0.159c0-0.607 0.606-0.607 0.606 0v0.159h1.134c0.164 0 0.307-0.091 0.307-0.337v-2.525c0-0.238-0.803-0.138-0.748 0.388 0.023 0.219-0.132 0.278-0.219 0.18-0.789-0.89 0.671-1.45 0.967-1.163v-1.53c0-1.051 1.144-1.051 1.144 0v1.53c0.296-0.287 1.756 0.273 0.969 1.163-0.088 0.099-0.243 0.039-0.22-0.18 0.055-0.525-0.749-0.626-0.749-0.388v2.525c0 0.246 0.143 0.337 0.309 0.337h1.133v-0.159c0-0.607 0.604-0.607 0.604 0v0.159c0.221 0 0.375 0.208 0.375 0.317 0 0.108-0.154 0.318-0.375 0.318v0.158c0 0.606-0.604 0.606-0.604 0v-0.158h-0.737c-0.362 0-0.527 0.13-0.331 0.497 0.551 1.032 1.61 1.671 2.354 1.33 2.135-0.974-0.976-6.235-2.463-9.219-1.497-3.001-1.106-5.182 1.231-5.463 2.465-0.299 2.882 1.926 2.245 3.315-0.507 1.106-0.507 2.505 0.286 4.015-0.64-0.305-1.01-0.793-1.205-1.342 0.055 0.168-0.348 0.368-0.566 0.271 0.275-0.21 0.39-1.113 0.385-1.354-0.015-0.674 0.131-1.333 0.286-1.788-0.296 0.457-1.364 0.498-1.893-0.019-0.527-0.516-0.263-1.894 0.902-1.828 0.892 0.05 0.671 1.351-0.342 1.013-0.176 0.278 0.155 0.676 0.639 0.617 0.485-0.06 0.964-0.561 0.866-1.052-0.133-0.667-0.481-1.202-1.471-1.114-0.902 0.079-1.738 1.112-1.034 2.979 1.308 3.468 5.783 9.933 2.839 11.603-2.309 1.313-4.005-1.33-4.005-2.343z" fill="#FEC50C"/>
		<path d="m9.47 1.282c0.552-0.615 1.384-0.672 1.982-0.218 1.232 0.934-0.286 2.205-0.768 3.694-0.613 1.894-0.18 2.961 0.987 3.1 0.986 0.118 1.338-0.447 1.471-1.114 0.098-0.491-0.381-0.991-0.866-1.051-0.483-0.06-0.814 0.337-0.639 0.617 1.013-0.34 1.233 0.963 0.342 1.013-1.165 0.064-1.43-1.312-0.902-1.829 0.528-0.516 1.597-0.478 1.893-0.02-0.155-0.454-0.301-1.114-0.286-1.788 0.005-0.24-0.109-1.143-0.385-1.351 0.219-0.1 0.621 0.1 0.566 0.267 0.195-0.549 0.565-1.035 1.205-1.341-0.793 1.51-0.793 2.908-0.286 4.014 0.637 1.39 0.22 3.615-2.245 3.317-2.337-0.282-2.795-2.602-0.981-5.953 0.608-1.125-0.866-1.22-1.088-0.286-0.218-0.932-1.694-0.837-1.085 0.288 1.812 3.352 1.356 5.671-0.982 5.953-2.465 0.298-2.882-1.928-2.245-3.318 0.507-1.106 0.507-2.504-0.286-4.014 0.639 0.306 1.009 0.792 1.204 1.341-0.054-0.167 0.348-0.367 0.568-0.267-0.275 0.208-0.391 1.11-0.384 1.351 0.012 0.673-0.131 1.334-0.287 1.788 0.297-0.458 1.364-0.496 1.893 0.02 0.527 0.517 0.262 1.893-0.902 1.829-0.892-0.05-0.672-1.353 0.339-1.013 0.178-0.28-0.152-0.677-0.636-0.617s-0.965 0.56-0.867 1.051c0.133 0.667 0.486 1.232 1.472 1.114 1.167-0.139 1.599-1.205 0.987-3.1-0.481-1.489-2-2.76-0.768-3.694 0.598-0.455 1.43-0.398 1.979 0.217z" fill="#FEC50C"/>
		<path d="m9.47 27.021c0-1.013-1.692-3.657-4.003-2.345-2.946 1.672 1.531 8.136 2.838 11.603 0.703 1.868-0.131 2.902-1.034 2.98-0.99 0.088-1.339-0.447-1.472-1.115-0.098-0.489 0.383-0.99 0.867-1.05 0.483-0.06 0.813 0.338 0.636 0.616-1.011-0.339-1.23 0.964-0.339 1.014 1.164 0.064 1.43-1.31 0.902-1.828-0.528-0.517-1.596-0.478-1.893-0.021 0.156-0.454 0.3-1.113 0.287-1.788-0.007-0.239 0.109-1.143 0.385-1.35-0.221-0.102-0.623 0.099-0.568 0.268-0.195-0.55-0.565-1.037-1.204-1.342 0.793 1.509 0.793 2.91 0.286 4.013-0.638 1.392-0.22 3.617 2.244 3.318 2.338-0.282 2.729-2.463 1.232-5.464-1.487-2.984-4.598-8.246-2.466-9.22 0.747-0.339 1.806 0.299 2.357 1.331 0.195 0.371 0.032 0.497-0.331 0.497h-0.737v-0.159c0-0.605-0.606-0.605-0.606 0v0.159c-0.22 0-0.374 0.209-0.374 0.318 0 0.11 0.154 0.317 0.374 0.317v0.158c0 0.608 0.606 0.608 0.606 0v-0.158h1.134c0.164 0 0.307 0.09 0.307 0.339v2.522c0 0.238-0.803 0.14-0.748-0.387 0.023-0.22-0.132-0.278-0.219-0.179-0.789 0.888 0.671 1.451 0.967 1.162v1.529c0 1.053 1.144 1.053 1.144 0v-1.529c0.296 0.289 1.756-0.274 0.969-1.162-0.088-0.1-0.243-0.041-0.22 0.179 0.055 0.526-0.749 0.625-0.749 0.387v-2.522c0-0.249 0.143-0.339 0.309-0.339h1.133v0.158c0 0.608 0.604 0.608 0.604 0v-0.158c0.221 0 0.375-0.207 0.375-0.317 0-0.109-0.154-0.318-0.375-0.318v-0.159c0-0.605-0.604-0.605-0.604 0v0.159h-0.737c-0.362 0-0.527-0.126-0.331-0.497 0.551-1.032 1.61-1.67 2.354-1.331 2.135 0.974-0.976 6.235-2.463 9.22-1.497 3.001-1.106 5.182 1.231 5.464 2.465 0.299 2.882-1.927 2.245-3.318-0.507-1.103-0.507-2.504 0.286-4.013-0.64 0.305-1.01 0.792-1.205 1.342 0.055-0.169-0.348-0.369-0.566-0.268 0.275 0.207 0.39 1.11 0.385 1.35-0.015 0.675 0.131 1.334 0.286 1.788-0.296-0.457-1.364-0.496-1.893 0.021-0.527 0.518-0.263 1.892 0.902 1.828 0.892-0.05 0.671-1.352-0.342-1.014-0.176-0.278 0.155-0.676 0.639-0.616 0.485 0.06 0.964 0.561 0.866 1.05-0.133 0.668-0.481 1.203-1.471 1.115-0.902-0.078-1.738-1.112-1.034-2.98 1.308-3.467 5.783-9.931 2.839-11.603-2.309-1.313-4.005 1.332-4.005 2.345z" fill="#FEC50C"/>
</g>
</svg>
