<?xml version="1.0" encoding="UTF-8" standalone="no"?>
<!-- Generator: Adobe Illustrator 18.0.0, SVG Export Plug-In . SVG Version: 6.00 Build 0)  -->
<!DOCTYPE svg  PUBLIC '-//W3C//DTD SVG 1.1//EN'  'http://www.w3.org/Graphics/SVG/1.1/DTD/svg11.dtd'>
<svg style="enable-background:new 0 0 144 80" xmlns="http://www.w3.org/2000/svg" xml:space="preserve" version="1.1" y="0px" x="0px" xmlns:xlink="http://www.w3.org/1999/xlink" viewBox="0 0 144 80">
<g id="MOZ">
		<polygon points="144 28.498 0 28.498 0 22.8 144 22.8" fill="#fff"/>
		<polygon points="0 56.998 144 56.998 144 51.299 0 51.299" fill="#fff"/>
		<polygon points="144 22.8 0 22.8 0 0 144 0" fill="#00807A"/>
		<polygon points="0 51.299 144 51.299 144 28.498 0 28.498"/>
		<polygon points="0 79.802 144 79.802 144 56.998 0 56.998" fill="#FFF100"/>
		<polygon points="57.503 40 0 0 0 80" fill="#EC1C2E"/>
		<polygon points="21.184 25.605 17.694 36.394 6.22 36.394 15.538 43.108 11.958 53.887 21.184 47.189 30.407 53.887 26.876 43.018 36.146 36.44 24.716 36.44" fill="#FFF100"/>
		<polygon stroke-width=".0696" points="21.184 25.605 17.694 36.394 6.22 36.394 15.538 43.108 11.958 53.887 21.184 47.189 30.407 53.887 26.876 43.018 36.146 36.44 24.716 36.44" stroke="#000" fill="none"/>
		<path d="m21.226 38.064c-1.791-0.394-3.623-0.441-5.596 0.295l-0.736 0.787-2.23 7.174h7.108c0.22 0.417 0.959 0.638 1.453 0.638 0.492 0 1.244-0.221 1.467-0.638h7.108l-2.232-7.174-0.736-0.787c-1.973-0.736-3.815-0.688-5.606-0.295z" fill="#fff"/>
		<path stroke-width=".0696" d="m21.226 38.064c-1.791-0.394-3.623-0.441-5.596 0.295l-0.736 0.787-2.23 7.174h7.108c0.22 0.417 0.959 0.638 1.453 0.638 0.492 0 1.244-0.221 1.467-0.638h7.108l-2.232-7.174-0.736-0.787c-1.973-0.736-3.815-0.688-5.606-0.295zm0 7.334c1.137-0.711 4.879-1.183 7.026-0.594m-7.026 0.594c0.506 0.013 1.218 0.479 1.467 0.922m5.559-1.515c0.099 0.344 0.931 1.32 1.549 1.516m-1.549-1.516l-1.419-6.445m-5.607 7.038c-1.138-0.711-4.865-1.183-7.013-0.594m7.013 0.594c-0.506 0.013-1.205 0.479-1.453 0.922m-5.56-1.515c-0.101 0.344-0.933 1.32-1.549 1.516m1.549-1.516l1.417-6.445m5.596 7.038v-7.334" stroke="#000" fill="none"/>
		<path d="m25.183 35.984l-0.654-0.716-1.159 1.044c0.093 0.305-0.314 0.6-0.696 0.946-0.383 0.346-2.516 2.27-2.516 2.27-0.352-0.386-0.713-0.826-0.672-0.983l-0.198 0.176c-0.039 0.159 0.142 0.4 0.493 0.786l-1.004 0.908c0.799 0.787 2.456 1.339 4.176 1.337l-0.08 1.645c-2.398 0.002-4.18-0.739-5.323-1.88l-0.313 0.281c-0.082 0.191 0.316 0.554 0.529 0.787l-1.242 1.124c0.014 0.322 0.179 0.831 0.416 1.379 0.213 0.493 0.183 0.551-0.186 0.88-0.364 0.329-0.479 0.189-0.644-0.182-0.116-0.261-0.203-0.503-0.254-0.986-0.053-0.483-0.613-0.471-0.788-0.809l0.945-0.858 0.638 0.031 0.654-0.589-0.418-0.459-0.514 0.461c0.102 0.112 0.275 0.324 0.404 0.309-0.24 0.052-0.484-0.053-0.576-0.153l-1.754 1.584c0.047 0.081-0.202 0.416-0.385 0.643-0.636 0.787-2.066 2.651-3.184 3.955-0.164 0.191-0.291 0.113-0.398-0.008-0.434-0.493-0.93-0.981-1.43-1.557-0.103-0.121-0.189-0.287-0.1-0.37 1.308-1.221 1.678-1.546 2.114-1.887 0.407-0.318 0.62-0.378 1.22-0.519 0.779-0.744 0.881-0.837 1.344-1.273 0.055-0.062 0.206-0.055 0.246-0.02l2.623-2.369 0.268 0.24 0.394-0.561 1.819-1.641-0.146-0.156-1.95 1.763-0.383-0.238-0.186 0.168 0.238 0.103-2.598 2.344c-0.106 0.097-0.144-0.134-0.132-0.37 0.011-0.235 0.038-0.565 0.032-0.673 0.111 0.059 0.24-0.024 0.396-0.146l4.139-3.426c-0.018-0.065-0.008-0.156 0.114-0.267 0.123-0.111 1.209-1.092 1.311-1.184-0.061 0.055-0.061 0.383 0.214 0.685 0.206 0.225 0.476 0.369 0.579 0.275l2.024-1.828-0.116-0.13-1.905 1.722c-0.066 0.05-0.291-0.024-0.443-0.193-0.122-0.134-0.2-0.298-0.121-0.368l2.16-1.951c-0.08 0.103 0.139 0.345 0.395 0.623l0.09-0.08c-0.216-0.238-0.33-0.396-0.251-0.468l1.637-1.376 0.955 0.047 1.317-1.178c-0.014-0.194-0.043-0.473-0.035-0.624 0.01-0.213 0.055-0.436 0.249-0.222 0.194 0.212 0.376 0.414 0.376 0.414l0.09-0.083 0.215 0.236s0.293-0.264 0.449-0.406c0.098-0.085 0.435 0.278 0.34 0.367-0.133 0.126-0.217 0.197-0.217 0.197l0.186 0.2 4.973-3.613c0.291-0.198 0.594-0.291 0.144 0.157l-4.549 4.147c-0.237 0.233-0.277 0.167-0.493-0.045l-2.893 2.611z"/>
		<path d="m17.153 33.92c0.141 0.141 0.409 0.226 0.838 0 1.549 1.722 4.921 5.526 12.828 14.529 0.268 0.321 0.908-0.305 0.628-0.626-7.905-9.001-11.278-12.807-12.825-14.528 0.117-0.139 0.188-0.465 0.08-0.635-0.292-0.333-0.58-0.652-0.893-0.984-0.344-0.365-0.344-0.556-0.828-0.705-0.441-0.139-0.708 0.031-0.912 0.202s-0.363 0.503-0.377 0.631c-0.021 0.204-0.117 0.269-0.234 0.384-0.211 0.209-0.388 0.119-0.926-0.031-0.537-0.148-0.621-0.32-1.311 0.664-1.331 1.901-1.932 2.757-3.244 4.617l2.127 2.395c1.784-2.33 2.408-3.163 3.89-5.089 0.198-0.256 0.226-0.501 0.226-0.714 0-0.143-0.012-0.396-0.012-0.547 0-0.257-0.041-0.386 0.086-0.535 0.378-0.021 0.968-0.287 1.021-0.65 0.031 0.352-0.451 0.8-0.967 0.779 0.247 0.224 0.586 0.625 0.805 0.843z"/>
</g>
</svg>
