<?xml version="1.0" encoding="UTF-8" standalone="no"?>
<!-- Generator: Adobe Illustrator 18.0.0, SVG Export Plug-In . SVG Version: 6.00 Build 0)  -->
<!DOCTYPE svg  PUBLIC '-//W3C//DTD SVG 1.1//EN'  'http://www.w3.org/Graphics/SVG/1.1/DTD/svg11.dtd'>
<svg style="enable-background:new 0 0 144 80" xmlns="http://www.w3.org/2000/svg" xml:space="preserve" version="1.1" y="0px" x="0px" xmlns:xlink="http://www.w3.org/1999/xlink" viewBox="0 0 144 80">
<g id="ISR">
		<polygon points="144 80 144 0 0 0 0 80" fill="#fff"/>
		<path d="m82.134 40c0.039 0 5.141 8.877 5.141 8.877h-10.284l-4.99 8.614-4.992-8.614h-10.283s5.104-8.877 5.141-8.877c-0.037 0-5.141-8.877-5.141-8.877h10.283l4.992-8.614 4.99 8.614h10.283s-5.101 8.877-5.14 8.877z" fill="#0038B8"/>
		<polygon points="61.556 33.906 65.396 33.906 63.476 37.226" fill="#fff"/>
		<polygon points="82.442 33.906 78.603 33.906 80.526 37.226" fill="#fff"/>
		<polygon points="73.771 31.123 72.001 28.067 70.229 31.123" fill="#fff"/>
		<polygon points="61.556 46.094 65.396 46.094 63.476 42.774" fill="#fff"/>
		<polygon points="82.442 46.094 78.603 46.094 80.526 42.774" fill="#fff"/>
		<polygon points="78.907 40 75.399 46.094 68.601 46.094 65.093 40 68.601 33.906 75.399 33.906" fill="#fff"/>
		<polygon points="73.771 48.877 72.001 51.934 70.229 48.877" fill="#fff"/>
		<polygon points="144 19.069 0 19.069 0 7.001 144 7.001" fill="#0038B8"/>
		<polygon points="144 72.999 0 72.999 0 60.931 144 60.931" fill="#0038B8"/>
</g>
</svg>
