<?xml version="1.0" encoding="UTF-8" standalone="no"?>
<!-- Generator: Adobe Illustrator 18.0.0, SVG Export Plug-In . SVG Version: 6.00 Build 0)  -->
<!DOCTYPE svg  PUBLIC '-//W3C//DTD SVG 1.1//EN'  'http://www.w3.org/Graphics/SVG/1.1/DTD/svg11.dtd'>
<svg id="Layer_1" style="enable-background:new 0 0 144 80" xmlns="http://www.w3.org/2000/svg" xml:space="preserve" viewBox="0 0 144 80" version="1.1" y="0px" x="0px" xmlns:xlink="http://www.w3.org/1999/xlink">
<rect height="80" width="144" y="-.5" x="-.1" fill="#fff"/>
<path d="m63.8-0.2v32h-63.8v16h63.8v32h16v-32h64.2v-16h-64.3v-32h-15.9z" fill="#EC2224"/>
	<g transform="">
		<path d="m104.9 63.6c0 0.9-0.1 1.8-0.2 2.7 2.5-0.5 5.1-0.7 7.8-0.7s5.3 0.3 7.8 0.7c-0.1-0.9-0.2-1.8-0.2-2.7s0.1-1.8 0.2-2.7c-2.5 0.5-5.1 0.7-7.8 0.7s-5.3-0.3-7.8-0.7c0.2 0.8 0.2 1.8 0.2 2.7z" fill="#EC2224"/>
	</g>
	<g transform="">
		<path d="m112.5 56c-0.9 0-1.8-0.1-2.7-0.2 0.5 2.5 0.7 5.1 0.7 7.8s-0.3 5.3-0.7 7.8c0.9-0.1 1.8-0.2 2.7-0.2s1.8 0.1 2.7 0.2c-0.5-2.5-0.7-5.1-0.7-7.8s0.3-5.3 0.7-7.8c-0.8 0.1-1.7 0.2-2.7 0.2z" fill="#EC2224"/>
	</g>
	<g transform="">
		<path d="m104.9 15.1c0 0.9-0.1 1.8-0.2 2.7 2.5-0.5 5.1-0.7 7.8-0.7s5.3 0.3 7.8 0.7c-0.1-0.9-0.2-1.8-0.2-2.7s0.1-1.8 0.2-2.7c-2.5 0.5-5.1 0.7-7.8 0.7s-5.3-0.3-7.8-0.7c0.2 0.9 0.2 1.8 0.2 2.7z" fill="#EC2224"/>
	</g>
	<g transform="">
		<path d="m112.5 7.5c-0.9 0-1.8-0.1-2.7-0.2 0.5 2.5 0.7 5.1 0.7 7.8s-0.3 5.3-0.7 7.8c0.9-0.1 1.8-0.2 2.7-0.2s1.8 0.1 2.7 0.2c-0.5-2.5-0.7-5.1-0.7-7.8s0.3-5.3 0.7-7.8c-0.8 0.1-1.7 0.2-2.7 0.2z" fill="#EC2224"/>
	</g>
	<g transform="">
		<path d="m25.6 15.1c0 0.9-0.1 1.8-0.2 2.7 2.5-0.5 5.1-0.7 7.8-0.7s5.3 0.3 7.8 0.7c-0.1-0.9-0.2-1.8-0.2-2.7s0.1-1.8 0.2-2.7c-2.5 0.5-5.1 0.7-7.8 0.7s-5.3-0.3-7.8-0.7c0.1 0.9 0.2 1.8 0.2 2.7z" fill="#EC2224"/>
	</g>
	<g transform="">
		<path d="m33.2 7.5c-0.9 0-1.8-0.1-2.7-0.2 0.5 2.5 0.7 5.1 0.7 7.8s-0.3 5.3-0.7 7.8c0.9-0.1 1.8-0.2 2.7-0.2s1.8 0.1 2.7 0.2c-0.5-2.5-0.7-5.1-0.7-7.8s0.3-5.3 0.7-7.8c-0.8 0.1-1.8 0.2-2.7 0.2z" fill="#EC2224"/>
	</g>
	<g transform="">
		<path d="m25.6 63.6c0 0.9-0.1 1.8-0.2 2.7 2.5-0.5 5.1-0.7 7.8-0.7s5.3 0.3 7.8 0.7c-0.1-0.9-0.2-1.8-0.2-2.7s0.1-1.8 0.2-2.7c-2.5 0.5-5.1 0.7-7.8 0.7s-5.3-0.3-7.8-0.7c0.1 0.8 0.2 1.8 0.2 2.7z" fill="#EC2224"/>
	</g>
	<g transform="">
		<path d="m33.2 56c-0.9 0-1.8-0.1-2.7-0.2 0.5 2.5 0.7 5.1 0.7 7.8s-0.3 5.3-0.7 7.8c0.9-0.1 1.8-0.2 2.7-0.2s1.8 0.1 2.7 0.2c-0.5-2.5-0.7-5.1-0.7-7.8s0.3-5.3 0.7-7.8c-0.8 0.1-1.8 0.2-2.7 0.2z" fill="#EC2224"/>
	</g>
</svg>
