<?xml version="1.0" encoding="UTF-8" standalone="no"?>
<!-- Generator: Adobe Illustrator 18.0.0, SVG Export Plug-In . SVG Version: 6.00 Build 0)  -->
<!DOCTYPE svg  PUBLIC '-//W3C//DTD SVG 1.1//EN'  'http://www.w3.org/Graphics/SVG/1.1/DTD/svg11.dtd'>
<svg style="enable-background:new 0 0 144 80" xmlns="http://www.w3.org/2000/svg" xml:space="preserve" version="1.1" y="0px" x="0px" xmlns:xlink="http://www.w3.org/1999/xlink" viewBox="0 0 144 80">
<g id="BRU">
			<polygon points="144 80 144 0 0 0 0 80" fill="#F7E017"/>
			<polygon points="144 57.42 0 25.008 0 5.651 144 37.809" fill="#fff"/>
			<polygon points="144 57.42 0 25.008 0 42 144 74.384"/>
			<path d="m72.004 40.007" fill="#FFF100"/>
			<path d="m72.004 40.007" stroke="#000" stroke-linecap="round" stroke-width=".1343" fill="none"/>
			<polygon points="72.796 40.45 72.52 25.771 71.503 25.771 71.27 40.449" fill="#EE3E42"/>
			<polygon stroke-width=".0671" points="72.796 40.45 72.52 25.771 71.503 25.771 71.27 40.449" stroke="#000" fill="none"/>
			<path d="m72 36.5c0.606 0.551 1.102 1.77 1.02 2.64 0.138-0.929 0.964-2.03 1.982-1.973-2.313 3.075 1.267 5.831-3.002 8.557-4.269-2.725-0.688-5.481-3.002-8.557 1.02-0.058 1.846 1.044 1.983 1.973-0.083-0.87 0.414-2.089 1.019-2.64z" fill="#EE3E42"/>
			<path stroke-width=".0671" d="m72 36.5c0.606 0.551 1.102 1.77 1.02 2.64 0.138-0.929 0.964-2.03 1.982-1.973-2.313 3.075 1.267 5.831-3.002 8.557-4.269-2.725-0.688-5.481-3.002-8.557 1.02-0.058 1.846 1.044 1.983 1.973-0.083-0.87 0.414-2.089 1.019-2.64z" stroke="#000" fill="none"/>
			<path d="m72 51.766c4.872-2.955 0.786-5.941 3.426-9.273-1.162-0.062-2.105 1.132-2.263 2.138 0.095-0.942-0.471-2.263-1.163-2.86-0.691 0.598-1.257 1.918-1.162 2.86-0.157-1.006-1.101-2.2-2.264-2.138 2.641 3.331-1.445 6.318 3.426 9.273z" fill="#EE3E42"/>
			<path stroke-width=".0671" d="m72 51.766c4.872-2.955 0.786-5.941 3.426-9.273-1.162-0.062-2.105 1.132-2.263 2.138 0.095-0.942-0.471-2.263-1.163-2.86-0.691 0.598-1.257 1.918-1.162 2.86-0.157-1.006-1.101-2.2-2.264-2.138 2.641 3.331-1.445 6.318 3.426 9.273z" stroke="#000" fill="none"/>
			<path d="m72 55.978c5.029-0.755 1.745-3.033 4.023-6.759-0.833 0.299-2.074-0.534-2.609 1.509 0.252-1.304-1.178-1.948-1.414-2.797-0.235 0.849-1.666 1.493-1.414 2.797-0.534-2.043-1.775-1.21-2.608-1.509 2.278 3.725-1.006 6.004 4.022 6.759z" fill="#EE3E42"/>
			<path stroke-width=".0671" d="m72 55.978c5.029-0.755 1.745-3.033 4.023-6.759-0.833 0.299-2.074-0.534-2.609 1.509 0.252-1.304-1.178-1.948-1.414-2.797-0.235 0.849-1.666 1.493-1.414 2.797-0.534-2.043-1.775-1.21-2.608-1.509 2.278 3.725-1.006 6.004 4.022 6.759z" stroke="#000" fill="none"/>
			<path d="m72 28.207c0.534-0.314 0.991-0.896 0.991-1.745 0 0.881 0.472 1.384 0.942 1.729 0.425-0.425 0.724-0.786 0.724-1.839 0 1.053 0.392 1.682 1.178 2.012 0.55-1.241-0.065-3.805-1.132-4.346-0.526-0.267-1.642-0.353-2.703-0.353s-2.177 0.086-2.703 0.353c-1.065 0.541-1.682 3.104-1.131 4.346 0.786-0.33 1.178-0.959 1.178-2.012 0 1.053 0.299 1.414 0.723 1.839 0.472-0.346 0.943-0.849 0.943-1.729 0 0.85 0.456 1.431 0.99 1.745z" fill="#EE3E42"/>
			<path stroke-width=".0671" d="m72 28.207c0.534-0.314 0.991-0.896 0.991-1.745 0 0.881 0.472 1.384 0.942 1.729 0.425-0.425 0.724-0.786 0.724-1.839 0 1.053 0.392 1.682 1.178 2.012 0.55-1.241-0.065-3.805-1.132-4.346-0.526-0.267-1.642-0.353-2.703-0.353s-2.177 0.086-2.703 0.353c-1.065 0.541-1.682 3.104-1.131 4.346 0.786-0.33 1.178-0.959 1.178-2.012 0 1.053 0.299 1.414 0.723 1.839 0.472-0.346 0.943-0.849 0.943-1.729 0 0.85 0.456 1.431 0.99 1.745z" stroke="#000" fill="none"/>
			<path d="m72 24.732c1.596 0 2.89-0.238 2.89-0.533 0-0.294-1.294-0.533-2.89-0.533s-2.889 0.239-2.889 0.533c0 0.295 1.293 0.533 2.889 0.533z" fill="#EE3E42"/>
			<path stroke-width=".0671" d="m72 24.732c1.596 0 2.89-0.238 2.89-0.533 0-0.294-1.294-0.533-2.89-0.533s-2.889 0.239-2.889 0.533c0 0.295 1.293 0.533 2.889 0.533z" stroke="#000" fill="none"/>
			<path d="m58.548 56.731c-0.566-0.22-1.509-0.534-1.792-1.226-0.392 0.55-0.252 1.666 0.031 2.263-1.319-0.094-2.499 0.551-3.018 1.917 1.635-0.439 3.406-0.705 4.715 0.283 1.54 1.163 3.394 2.515 7.136 1.949-0.912-1.257-5.815-4.651-7.072-5.186z" fill="#EE3E42"/>
			<path stroke-width=".0671" d="m58.548 56.731c-0.566-0.22-1.509-0.534-1.792-1.226-0.392 0.55-0.252 1.666 0.031 2.263-1.319-0.094-2.499 0.551-3.018 1.917 1.635-0.439 3.406-0.705 4.715 0.283 1.54 1.163 3.394 2.515 7.136 1.949-0.912-1.257-5.815-4.651-7.072-5.186z" stroke="#000" fill="none"/>
			<path d="m85.453 56.731c0.565-0.22 1.509-0.534 1.792-1.226 0.393 0.55 0.251 1.666-0.031 2.263 1.319-0.094 2.498 0.551 3.018 1.917-1.635-0.439-3.406-0.705-4.716 0.283-1.54 1.163-3.395 2.515-7.135 1.949 0.912-1.257 5.815-4.651 7.072-5.186z" fill="#EE3E42"/>
			<path stroke-width=".0671" d="m85.453 56.731c0.565-0.22 1.509-0.534 1.792-1.226 0.393 0.55 0.251 1.666-0.031 2.263 1.319-0.094 2.498 0.551 3.018 1.917-1.635-0.439-3.406-0.705-4.716 0.283-1.54 1.163-3.395 2.515-7.135 1.949 0.912-1.257 5.815-4.651 7.072-5.186z" stroke="#000" fill="none"/>
			<path d="m72 63.489c4.338 0 7.4-1.474 8.896-3.057 1.32-0.534 2.965-1.529 4.008-2.13 1.665-0.958 0.943-1.43 0.486-1.979-0.461-0.558-0.439-1.132-0.565-1.886-0.109-0.658-0.942-2.044-2.798 0.125-2.26 2.643-7.386 4.118-10.027 4.118s-7.767-1.475-10.026-4.117c-1.854-2.169-2.688-0.783-2.798-0.125-0.125 0.754-0.104 1.328-0.566 1.886-0.456 0.55-1.179 1.021 0.487 1.979 1.043 0.601 2.688 1.596 4.008 2.13 1.496 1.583 4.557 3.056 8.895 3.056z" fill="#EE3E42"/>
			<path stroke-width=".0671" d="m72 63.489c4.338 0 7.4-1.474 8.896-3.057 1.32-0.534 2.965-1.529 4.008-2.13 1.665-0.958 0.943-1.43 0.486-1.979-0.461-0.558-0.439-1.132-0.565-1.886-0.109-0.658-0.942-2.044-2.798 0.125-2.26 2.643-7.386 4.118-10.027 4.118s-7.767-1.475-10.026-4.117c-1.854-2.169-2.688-0.783-2.798-0.125-0.125 0.754-0.104 1.328-0.566 1.886-0.456 0.55-1.179 1.021 0.487 1.979 1.043 0.601 2.688 1.596 4.008 2.13 1.496 1.583 4.557 3.056 8.895 3.056z" stroke="#000" fill="none"/>
			<path d="m63.581 32.722c-1.933 2.062-3.115 4.835-3.115 7.884 0 6.371 5.164 11.536 11.534 11.536 6.371 0 11.535-5.165 11.535-11.536 0-3.417-1.486-6.487-3.848-8.599l0.474-0.528c4.13 2.677 6.863 7.328 6.863 12.617 0 8.298-6.727 15.025-15.024 15.025s-15.024-6.728-15.024-15.025c0-4.874 2.321-9.206 5.919-11.951l0.686 0.577z" fill="#EE3E42"/>
			<path stroke-width=".0671" d="m63.581 32.722c-1.933 2.062-3.115 4.835-3.115 7.884 0 6.371 5.164 11.536 11.534 11.536 6.371 0 11.535-5.165 11.535-11.536 0-3.417-1.486-6.487-3.848-8.599l0.474-0.528c4.13 2.677 6.863 7.328 6.863 12.617 0 8.298-6.727 15.025-15.024 15.025s-15.024-6.728-15.024-15.025c0-4.874 2.321-9.206 5.919-11.951l0.686 0.577z" stroke="#000" fill="none"/>
			<path d="m72 34.416c0.547 1.109 2.194 1.556 3.081 1.225 1.54 0.645 2.766 0.629 3.544-0.069 1.191 0.179 3.011 0.4 3.093-0.668 0.974 0.081 2.265-0.053 2.374-0.916 1.354-0.085 1.659-0.458 1.843-1.083 1.237-0.622 1.258-1.417 0.148-1.285-3.465 0.408-5.054-0.374-7.492-1.172-2.438-0.799-4.676-2.222-6.591-0.621-1.914-1.601-4.152-0.178-6.591 0.621-2.438 0.798-4.026 1.58-7.492 1.172-1.108-0.132-1.088 0.663 0.149 1.285 0.184 0.625 0.489 0.998 1.843 1.083 0.109 0.863 1.4 0.997 2.374 0.916 0.081 1.068 1.9 0.847 3.093 0.668 0.778 0.698 2.004 0.714 3.544 0.069 0.886 0.331 2.534-0.116 3.08-1.225z" fill="#EE3E42"/>
			<path stroke-width=".0671" d="m72 34.416c0.547 1.109 2.194 1.556 3.081 1.225 1.54 0.645 2.766 0.629 3.544-0.069 1.191 0.179 3.011 0.4 3.093-0.668 0.974 0.081 2.265-0.053 2.374-0.916 1.354-0.085 1.659-0.458 1.843-1.083 1.237-0.622 1.258-1.417 0.148-1.285-3.465 0.408-5.054-0.374-7.492-1.172-2.438-0.799-4.676-2.222-6.591-0.621-1.914-1.601-4.152-0.178-6.591 0.621-2.438 0.798-4.026 1.58-7.492 1.172-1.108-0.132-1.088 0.663 0.149 1.285 0.184 0.625 0.489 0.998 1.843 1.083 0.109 0.863 1.4 0.997 2.374 0.916 0.081 1.068 1.9 0.847 3.093 0.668 0.778 0.698 2.004 0.714 3.544 0.069 0.886 0.331 2.534-0.116 3.08-1.225z" stroke="#000" fill="none"/>
			<path d="m58.066 32.904c0.575 0.316 2.115 0.458 4.395-0.171" fill="#E03A3E"/>
			<path stroke-width=".0671" d="m58.066 32.904c0.575 0.316 2.115 0.458 4.395-0.171" stroke="#000" fill="none"/>
			<path d="m59.909 33.987c1.766 0.113 3.855 0.02 5.428-0.562" fill="#E03A3E"/>
			<path stroke-width=".0671" d="m59.909 33.987c1.766 0.113 3.855 0.02 5.428-0.562" stroke="#000" fill="none"/>
			<path d="m62.283 34.903c1.796-0.017 3.337-0.269 4.72-0.803" fill="#E03A3E"/>
			<path stroke-width=".0671" d="m62.283 34.903c1.796-0.017 3.337-0.269 4.72-0.803" stroke="#000" fill="none"/>
			<path d="m65.376 35.571c1.155-0.151 2.931-0.669 3.921-1.58" fill="#E03A3E"/>
			<path stroke-width=".0671" d="m65.376 35.571c1.155-0.151 2.931-0.669 3.921-1.58" stroke="#000" fill="none"/>
			<path d="m68.92 35.641c0.645-0.236 1.509-0.864 1.934-1.477" fill="#E03A3E"/>
			<path stroke-width=".0671" d="m68.92 35.641c0.645-0.236 1.509-0.864 1.934-1.477" stroke="#000" fill="none"/>
			<path d="m85.935 32.904c-0.576 0.316-2.116 0.458-4.395-0.171" fill="#E03A3E"/>
			<path stroke-width=".0671" d="m85.935 32.904c-0.576 0.316-2.116 0.458-4.395-0.171" stroke="#000" fill="none"/>
			<path d="m84.092 33.987c-1.767 0.113-3.856 0.02-5.428-0.562" fill="#E03A3E"/>
			<path stroke-width=".0671" d="m84.092 33.987c-1.767 0.113-3.856 0.02-5.428-0.562" stroke="#000" fill="none"/>
			<path d="m81.718 34.903c-1.797-0.017-3.337-0.269-4.72-0.803" fill="#E03A3E"/>
			<path stroke-width=".0671" d="m81.718 34.903c-1.797-0.017-3.337-0.269-4.72-0.803" stroke="#000" fill="none"/>
			<path d="m78.625 35.571c-1.155-0.151-2.932-0.669-3.922-1.58" fill="#E03A3E"/>
			<path stroke-width=".0671" d="m78.625 35.571c-1.155-0.151-2.932-0.669-3.922-1.58" stroke="#000" fill="none"/>
			<path d="m75.081 35.641c-0.645-0.236-1.509-0.864-1.934-1.477" fill="#E03A3E"/>
			<path stroke-width=".0671" d="m75.081 35.641c-0.645-0.236-1.509-0.864-1.934-1.477" stroke="#000" fill="none"/>
			<path d="m72.377 18.196l0.11 5.917c0 0.056-0.215 0.1-0.479 0.1s-0.478-0.044-0.478-0.1l0.093-5.917h0.754z" fill="#EE3E42"/>
			<path stroke-width=".0671" d="m72.377 18.196l0.11 5.917c0 0.056-0.215 0.1-0.479 0.1s-0.478-0.044-0.478-0.1l0.093-5.917h0.754z" stroke="#000" fill="none"/>
			<path d="m72 18.844c0.645 0 1.167-0.521 1.167-1.166s-0.522-1.167-1.167-1.167-1.167 0.522-1.167 1.167c0 0.644 0.522 1.166 1.167 1.166z" fill="#EE3E42"/>
			<path stroke-width=".0671" d="m72 18.844c0.645 0 1.167-0.521 1.167-1.166s-0.522-1.167-1.167-1.167-1.167 0.522-1.167 1.167c0 0.644 0.522 1.166 1.167 1.166z" stroke="#000" fill="none"/>
			<path d="m72 19.128c2.181-0.16 2.433 1.783 4.881 1.786-0.453 0.487-0.906 1.04-1.493 1.084 0.654 0.538 0.252 1.54 1.141 1.844-2.448-0.004-2.365-1.485-4.528-1.326v-3.388h-0.001z" fill="#EE3E42"/>
			<path stroke-width=".0671" d="m72 19.128c2.181-0.16 2.433 1.783 4.881 1.786-0.453 0.487-0.906 1.04-1.493 1.084 0.654 0.538 0.252 1.54 1.141 1.844-2.448-0.004-2.365-1.485-4.528-1.326v-3.388h-0.001z" stroke="#000" fill="none"/>
			<path d="m94.998 35.641c-0.162-0.413-0.727-0.309-0.911 0.142-0.185 0.451-0.268 1.132-0.265 1.604-0.166 0.342-0.556 0.856-0.634 1.432-0.107 0.782 1.648 0.419 1.81-1.229 0.079-0.802 0.205-1.588 0-1.949z" fill="#EE3E42"/>
			<path stroke-width=".0671" d="m94.998 35.641c-0.162-0.413-0.727-0.309-0.911 0.142-0.185 0.451-0.268 1.132-0.265 1.604-0.166 0.342-0.556 0.856-0.634 1.432-0.107 0.782 1.648 0.419 1.81-1.229 0.079-0.802 0.205-1.588 0-1.949z" stroke="#000" fill="none"/>
			<path d="m96.067 35.546c-0.204-0.393-0.99-0.313-1.211 0.205-0.22 0.519-0.22 1.084-0.235 1.649-0.282 0.362-0.687 1.134-0.864 1.667-0.188 0.565-1.226 2.026 0.864 0.785 0.733-0.435 1.981-3.489 1.446-4.306z" fill="#EE3E42"/>
			<path stroke-width=".0671" d="m96.067 35.546c-0.204-0.393-0.99-0.313-1.211 0.205-0.22 0.519-0.22 1.084-0.235 1.649-0.282 0.362-0.687 1.134-0.864 1.667-0.188 0.565-1.226 2.026 0.864 0.785 0.733-0.435 1.981-3.489 1.446-4.306z" stroke="#000" fill="none"/>
			<path d="m97.089 35.153c-0.425-0.487-1.226-0.156-1.367 0.393-0.134 0.518-0.188 1.337-0.126 1.965-0.519 0.394-1.148 1.493-1.336 2.247-1.068 0.724-2.515 1.98-1.823 2.672 0.691 0.691 5.72-3.049 4.652-7.277z" fill="#EE3E42"/>
			<path stroke-width=".0671" d="m97.089 35.153c-0.425-0.487-1.226-0.156-1.367 0.393-0.134 0.518-0.188 1.337-0.126 1.965-0.519 0.394-1.148 1.493-1.336 2.247-1.068 0.724-2.515 1.98-1.823 2.672 0.691 0.691 5.72-3.049 4.652-7.277z" stroke="#000" fill="none"/>
			<path d="m91.72 55.568c1.181 0.01 2.359-0.243 2.352-0.597-0.04-1.792-0.314-8.896-0.282-10.938 0.659-0.52 1.791-1.587 2.325-2.185s0.817-0.959 0.959-1.666c0.142-0.708 0.361-1.194 0.455-1.524 0.206-0.719 0.3-1.241 0.394-2.719 0.056-0.88-0.11-1.115-0.409-1.101-0.833 0.045-1.021 1.697-1.021 2.798-0.644 0.566-0.942 1.571-1.1 2.421-0.88 0.486-1.914 1.117-2.357 1.681-0.346 0.44-0.518 0.526 0.051-0.345 0.439-0.673 0.349-1.298 0.819-1.909 0.288-0.374 0.921-1.234 0.24-1.543-0.681-0.307-1.069 0.2-1.488 0.946-0.399 0.711-1.125 1.209-2.105 1.876-1.478 1.006-0.975 2.641-0.975 4.056 0 1.576-0.22 7.511-0.22 10.152-0.002 0.314 1.181 0.588 2.362 0.597z" fill="#EE3E42"/>
			<path stroke-width=".0671" d="m91.72 55.568c1.181 0.01 2.359-0.243 2.352-0.597-0.04-1.792-0.314-8.896-0.282-10.938 0.659-0.52 1.791-1.587 2.325-2.185s0.817-0.959 0.959-1.666c0.142-0.708 0.361-1.194 0.455-1.524 0.206-0.719 0.3-1.241 0.394-2.719 0.056-0.88-0.11-1.115-0.409-1.101-0.833 0.045-1.021 1.697-1.021 2.798-0.644 0.566-0.942 1.571-1.1 2.421-0.88 0.486-1.914 1.117-2.357 1.681-0.346 0.44-0.518 0.526 0.051-0.345 0.439-0.673 0.349-1.298 0.819-1.909 0.288-0.374 0.921-1.234 0.24-1.543-0.681-0.307-1.069 0.2-1.488 0.946-0.399 0.711-1.125 1.209-2.105 1.876-1.478 1.006-0.975 2.641-0.975 4.056 0 1.576-0.22 7.511-0.22 10.152-0.002 0.314 1.181 0.588 2.362 0.597z" stroke="#000" fill="none"/>
			<path d="m91.701 54.7c-0.753 0-1.803-0.147-2.376-0.507-1.084-0.683-0.193-1.342 0.05-1.342 0 0.573 1.934 0.671 2.326 0.671s2.318-0.098 2.318-0.671c0.267 0 1.097 0.643 0.049 1.342-0.54 0.36-1.615 0.507-2.367 0.507z" fill="#EE3E42"/>
			<path stroke-width=".0671" d="m91.701 54.7c-0.753 0-1.803-0.147-2.376-0.507-1.084-0.683-0.193-1.342 0.05-1.342 0 0.573 1.934 0.671 2.326 0.671s2.318-0.098 2.318-0.671c0.267 0 1.097 0.643 0.049 1.342-0.54 0.36-1.615 0.507-2.367 0.507z" stroke="#000" fill="none"/>
			<path d="m91.701 53.548c-0.745 0-1.785-0.145-2.353-0.502-1.074-0.675-0.191-1.327 0.049-1.327 0 0.567 1.915 0.664 2.304 0.664s2.295-0.097 2.295-0.664c0.264 0 1.087 0.636 0.049 1.327-0.535 0.357-1.6 0.502-2.344 0.502z" fill="#EE3E42"/>
			<path stroke-width=".0671" d="m91.701 53.548c-0.745 0-1.785-0.145-2.353-0.502-1.074-0.675-0.191-1.327 0.049-1.327 0 0.567 1.915 0.664 2.304 0.664s2.295-0.097 2.295-0.664c0.264 0 1.087 0.636 0.049 1.327-0.535 0.357-1.6 0.502-2.344 0.502z" stroke="#000" fill="none"/>
			<path d="m91.701 52.381c-0.73 0-1.75-0.144-2.306-0.493-1.053-0.661-0.188-1.302 0.047-1.302 0 0.557 1.878 0.651 2.259 0.651s2.249-0.095 2.249-0.651c0.26 0 1.066 0.623 0.048 1.302-0.523 0.349-1.567 0.493-2.297 0.493z" fill="#EE3E42"/>
			<path stroke-width=".0671" d="m91.701 52.381c-0.73 0-1.75-0.144-2.306-0.493-1.053-0.661-0.188-1.302 0.047-1.302 0 0.557 1.878 0.651 2.259 0.651s2.249-0.095 2.249-0.651c0.26 0 1.066 0.623 0.048 1.302-0.523 0.349-1.567 0.493-2.297 0.493z" stroke="#000" fill="none"/>
			<path d="m72 40.007" fill="#E03A3E"/>
			<path d="m72 40.007" stroke="#000" stroke-linecap="round" stroke-width=".0671" fill="none"/>
			<path d="m49.002 35.641c0.163-0.413 0.728-0.309 0.912 0.142s0.267 1.132 0.265 1.604c0.166 0.342 0.555 0.856 0.634 1.432 0.107 0.782-1.648 0.419-1.811-1.229-0.078-0.802-0.204-1.588 0-1.949z" fill="#EE3E42"/>
			<path stroke-width=".0671" d="m49.002 35.641c0.163-0.413 0.728-0.309 0.912 0.142s0.267 1.132 0.265 1.604c0.166 0.342 0.555 0.856 0.634 1.432 0.107 0.782-1.648 0.419-1.811-1.229-0.078-0.802-0.204-1.588 0-1.949z" stroke="#000" fill="none"/>
			<path d="m47.934 35.546c0.204-0.393 0.99-0.313 1.21 0.205 0.22 0.519 0.22 1.084 0.236 1.649 0.282 0.362 0.686 1.134 0.864 1.667 0.188 0.565 1.226 2.026-0.864 0.785-0.734-0.435-1.981-3.489-1.446-4.306z" fill="#EE3E42"/>
			<path stroke-width=".0671" d="m47.934 35.546c0.204-0.393 0.99-0.313 1.21 0.205 0.22 0.519 0.22 1.084 0.236 1.649 0.282 0.362 0.686 1.134 0.864 1.667 0.188 0.565 1.226 2.026-0.864 0.785-0.734-0.435-1.981-3.489-1.446-4.306z" stroke="#000" fill="none"/>
			<path d="m46.912 35.153c0.424-0.487 1.226-0.156 1.367 0.393 0.133 0.518 0.188 1.337 0.126 1.965 0.519 0.394 1.146 1.493 1.335 2.247 1.069 0.724 2.516 1.98 1.823 2.672-0.691 0.691-5.72-3.049-4.651-7.277z" fill="#EE3E42"/>
			<path stroke-width=".0671" d="m46.912 35.153c0.424-0.487 1.226-0.156 1.367 0.393 0.133 0.518 0.188 1.337 0.126 1.965 0.519 0.394 1.146 1.493 1.335 2.247 1.069 0.724 2.516 1.98 1.823 2.672-0.691 0.691-5.72-3.049-4.651-7.277z" stroke="#000" fill="none"/>
			<path d="m52.28 55.568c-1.18 0.01-2.358-0.243-2.351-0.597 0.04-1.792 0.314-8.896 0.282-10.938-0.66-0.52-1.791-1.587-2.325-2.185-0.535-0.598-0.817-0.959-0.959-1.666-0.142-0.708-0.361-1.194-0.456-1.524-0.205-0.719-0.298-1.241-0.393-2.719-0.057-0.88 0.11-1.115 0.408-1.101 0.834 0.045 1.021 1.697 1.021 2.798 0.645 0.566 0.943 1.571 1.101 2.421 0.88 0.486 1.914 1.117 2.357 1.681 0.346 0.44 0.518 0.526-0.051-0.345-0.439-0.673-0.349-1.298-0.819-1.909-0.288-0.374-0.922-1.234-0.241-1.543 0.682-0.307 1.07 0.2 1.489 0.946 0.399 0.711 1.125 1.209 2.105 1.876 1.477 1.006 0.974 2.641 0.974 4.056 0 1.576 0.221 7.511 0.221 10.152 0.002 0.314-1.181 0.588-2.363 0.597z" fill="#EE3E42"/>
			<path stroke-width=".0671" d="m52.28 55.568c-1.18 0.01-2.358-0.243-2.351-0.597 0.04-1.792 0.314-8.896 0.282-10.938-0.66-0.52-1.791-1.587-2.325-2.185-0.535-0.598-0.817-0.959-0.959-1.666-0.142-0.708-0.361-1.194-0.456-1.524-0.205-0.719-0.298-1.241-0.393-2.719-0.057-0.88 0.11-1.115 0.408-1.101 0.834 0.045 1.021 1.697 1.021 2.798 0.645 0.566 0.943 1.571 1.101 2.421 0.88 0.486 1.914 1.117 2.357 1.681 0.346 0.44 0.518 0.526-0.051-0.345-0.439-0.673-0.349-1.298-0.819-1.909-0.288-0.374-0.922-1.234-0.241-1.543 0.682-0.307 1.07 0.2 1.489 0.946 0.399 0.711 1.125 1.209 2.105 1.876 1.477 1.006 0.974 2.641 0.974 4.056 0 1.576 0.221 7.511 0.221 10.152 0.002 0.314-1.181 0.588-2.363 0.597z" stroke="#000" fill="none"/>
			<path d="m52.3 54.7c0.752 0 1.803-0.147 2.375-0.507 1.085-0.683 0.194-1.342-0.049-1.342 0 0.573-1.934 0.671-2.326 0.671s-2.318-0.098-2.318-0.671c-0.267 0-1.098 0.643-0.049 1.342 0.54 0.36 1.615 0.507 2.367 0.507z" fill="#EE3E42"/>
			<path stroke-width=".0671" d="m52.3 54.7c0.752 0 1.803-0.147 2.375-0.507 1.085-0.683 0.194-1.342-0.049-1.342 0 0.573-1.934 0.671-2.326 0.671s-2.318-0.098-2.318-0.671c-0.267 0-1.098 0.643-0.049 1.342 0.54 0.36 1.615 0.507 2.367 0.507z" stroke="#000" fill="none"/>
			<path d="m52.3 53.548c0.745 0 1.785-0.145 2.351-0.502 1.074-0.675 0.192-1.327-0.048-1.327 0 0.567-1.915 0.664-2.304 0.664s-2.295-0.097-2.295-0.664c-0.265 0-1.087 0.636-0.049 1.327 0.535 0.357 1.6 0.502 2.345 0.502z" fill="#EE3E42"/>
			<path stroke-width=".0671" d="m52.3 53.548c0.745 0 1.785-0.145 2.351-0.502 1.074-0.675 0.192-1.327-0.048-1.327 0 0.567-1.915 0.664-2.304 0.664s-2.295-0.097-2.295-0.664c-0.265 0-1.087 0.636-0.049 1.327 0.535 0.357 1.6 0.502 2.345 0.502z" stroke="#000" fill="none"/>
			<path d="m52.3 52.381c0.73 0 1.75-0.144 2.306-0.493 1.053-0.661 0.188-1.302-0.048-1.302 0 0.557-1.877 0.651-2.258 0.651s-2.25-0.095-2.25-0.651c-0.259 0-1.065 0.623-0.048 1.302 0.524 0.349 1.567 0.493 2.298 0.493z" fill="#EE3E42"/>
			<path stroke-width=".0671" d="m52.3 52.381c0.73 0 1.75-0.144 2.306-0.493 1.053-0.661 0.188-1.302-0.048-1.302 0 0.557-1.877 0.651-2.258 0.651s-2.25-0.095-2.25-0.651c-0.259 0-1.065 0.623-0.048 1.302 0.524 0.349 1.567 0.493 2.298 0.493zm6.169 5.498c-0.487-0.33-0.44-0.99 0.582-0.66 1.028 0.333 2.719 1.8 4.055 3.214m22.425-2.554c0.487-0.33 0.441-0.99-0.581-0.66-1.029 0.333-2.719 1.8-4.055 3.214" stroke="#000" fill="none"/>
			<path d="m59.968 45.955c-0.178 1.802-0.749 3.605 0.847 4.687-0.351-0.296-0.082-1.591 0.826-1.494s1.002 1.391 0.338 1.9m0.197 0.62c-0.09 0.704-0.445 1.38 0.128 1.806 0.536 0.398 0.988-0.735 0.555-0.946-0.386-0.188-0.943 0.632-0.587 0.969 0.365 0.345 0.66 0.851 0.397 1.147-0.263 0.297-0.674-0.072-0.614-0.604m0.851-0.048c1.104 0.732 1.471 0.181 1.803-2.794m0.84 0.251c-0.246 1.106-0.523 2.367-0.698 3.104-0.336 1.419 0.833 2.106 1.278 0.724m0.902-0.156c-0.243 0.604-0.091 1.177 0.326 1.366 0.512 0.23 0.998-0.199 1.202-0.601m-0.949-1.741l-0.041 0.038m-2.548 2.122l-0.04 0.038m3.017 1.095c1.048 0.149 2.411-0.555 2.977-1.383 0.382-0.559 0.294-1.105 0.093-1.207-0.2-0.102-0.635 0.165-0.83 0.755-0.171 0.516-0.304 1.797 1.201 0.674-0.273 0.588-0.17 1.129 0.253 1.221 0.437 0.096 0.759-0.521 0.829-1.557 0.014 0.896 0.032 1.228 0.409 1.257 0.33 0.026 0.452-0.328 0.582-1.267-0.051 0.501 0.03 1.137 0.426 1.21 0.422 0.08 0.696-0.508 0.81-1.007m0.575-1.534c0.551-0.026 1.35-0.358 1.981-0.807-1.203 0.632-1.065 3.2-1.923 3.451 0.725-0.021 1.089-1.359 1.808-1.238-0.516-0.082-0.893 1.051-0.423 1.226 0.604 0.228 1.168-0.538 0.84-1.021 0.233 0.071 0.552-0.452 0.622-1.062 0.07-0.611 0.137-1.537-0.012-2.203m0.398-0.975c0.316 1.647 0.471 3.383-0.006 4.34m0.787-1.668c0.133 0.665 0.512 0.787 0.885 0.726 0.459-0.078 0.92-1.036 0.209-2.195m-0.723-0.028l-0.041 0.038m3.513-2.046c-0.479 0.187-0.66 0.604-0.799 0.961-0.206 0.527-0.077 0.711 0.087 0.797 0.179 0.094 0.475-0.053 0.6-0.244 0.146-0.225 0.197-0.564-0.021-0.7-0.238-0.151-0.656-0.12-0.942 1.002-0.087 0.34-0.401 0.433-0.602 0.323-0.173-0.095-0.203-0.464-0.068-0.702 0.11-0.195 0.388-0.422 0.594-0.324 0.217 0.103 0.197 0.53 0.131 0.729-0.15 0.443-0.502 0.995-0.842 1.251m1.873-2.983c0.081-0.044 0.284-0.021 0.19-0.874s-0.34-1.853-0.857-2.705m-0.328 0.55c-0.332 0.13-0.424 0.591-0.327 0.822 0.098 0.231 0.401 0.416 0.75 0.282-0.295 0.159-0.122 0.795 0.312 0.732m1.053 1.034c0.135-0.262 0.269-0.87 0.097-1.317 0.145 0.336 0.636 0.669 0.849 0.426 0.214-0.244 0.045-0.785-0.171-1.312-0.217-0.526-0.697-1.535-1.187-2.341m1.769 2.314c0.007-1.037-0.729-2.354-1.188-3.143m-24.375 10.796c0.283 0.188 1.147 0.408 1.761 0.251 0.612-0.157 0.645 0.268 0.565 0.519-0.078 0.252-0.645 0.479-0.927 0.252-0.295-0.237-0.157-0.581 0.189-0.739m1.713 0.11c-0.126 0.298-0.503 0.879-0.802 1.084m-0.314-0.048c0.031 0.425 0.425 0.691 0.802 0.676 0.377-0.016 0.817-0.439 1.241-1.179-0.487 0.771-1.006 1.792-0.754 2.074 0.251 0.283 0.66 0.048 0.849-0.172-0.252 0.361-0.204 0.723 0 0.896s0.518 0.062 0.771-0.283c-0.19 0.299-0.161 0.694 0.109 0.849 0.221 0.126 0.613-0.062 0.755-0.393-0.079 0.251 0 0.771 0.533 0.849 0.535 0.078 1.038-0.629 1.321-2.153m2.121 0.298c-0.062 0.565-0.251 1.478-0.44 1.886m-1.383 0.66c0.597 0.188 1.729-0.031 2.168-0.503m1.352-1.885c-0.031 0.534-0.361 1.697-0.486 2.169 0.266-0.55 1.019-0.374 1.1 0 0.11 0.503-0.503 0.896-1.115 0.519m2.764-1.242c-0.142 0.518-0.11 1.335 0.645 1.414 0.625 0.065 1.257-0.267 1.618-0.707 0.191-0.233 0.361-0.582 0.095-0.817-0.268-0.236-0.347-0.472-0.079-0.66 0.268-0.189 0.46-0.229 0.786-0.078 0.612 0.282 1.115 0.047 1.084-0.85m-1.147 0.141l-0.032 0.094m0.095 2.248l-0.031 0.095m-0.708 0.408l-0.031 0.095m1.634-1.101c0.801 0.33 1.842-0.518 2.2-1.509 0.204-0.565 0.106-1.031-0.173-1.147-0.229-0.094-0.59 0.126-0.731 0.472-0.124 0.304-0.086 0.802 0.174 0.927 0.228 0.111 0.652 0 0.73-0.251m0.472 0.533c1.146-1.163 1.21-1.697 1.21-2.263 0-0.697-0.173-1.194 0.268-1.383 0.452-0.194 0.974-0.707 1.319-1.21 0.366-0.532 1.179-0.456 0.959 0.455m-0.55 0.756l-0.032 0.094" stroke="#FFF100" stroke-linecap="round" stroke-width=".1343" fill="none"/>
</g>
</svg>
