<?xml version="1.0" encoding="UTF-8" standalone="no"?>
<!-- Generator: Adobe Illustrator 18.0.0, SVG Export Plug-In . SVG Version: 6.00 Build 0)  -->
<!DOCTYPE svg  PUBLIC '-//W3C//DTD SVG 1.1//EN'  'http://www.w3.org/Graphics/SVG/1.1/DTD/svg11.dtd'>
<svg style="enable-background:new 0 0 144 80" xmlns="http://www.w3.org/2000/svg" xml:space="preserve" version="1.1" y="0px" x="0px" xmlns:xlink="http://www.w3.org/1999/xlink" viewBox="0 0 144 80">
<g id="SOL">
		<polygon points="144 80 144 0 0 0 0 80" fill="#007AC1"/>
		<polygon points="144 0 0 0 0 80" fill="#0051BA"/>
		<polygon points="0 80 144 80 144 0" fill="#215B33"/>
		<polygon points="144 4.018 7.341 80 0 80 0 75.955 136.61 0 144 0" fill="#FCD116"/>
		<g fill="#fff">
			<polygon points="26.944 17.707 25.44 22.378 20.497 22.378 24.512 25.284 22.97 29.952 26.944 27.052 30.919 29.952 29.396 25.245 33.391 22.397 28.466 22.397"/>
			<polygon points="12.649 28.078 11.146 32.75 6.201 32.75 10.216 35.657 8.674 40.324 12.649 37.425 16.624 40.324 15.101 35.617 19.095 32.77 14.172 32.77"/>
			<polygon points="12.649 7.186 11.146 11.856 6.201 11.856 10.216 14.765 8.674 19.432 12.649 16.531 16.624 19.432 15.101 14.725 19.095 11.877 14.172 11.877"/>
			<polygon points="41.239 28.078 42.742 32.75 47.687 32.75 43.671 35.657 45.214 40.324 41.239 37.425 37.265 40.324 38.786 35.617 34.792 32.77 39.716 32.77"/>
			<polygon points="41.239 7.186 42.742 11.856 47.687 11.856 43.671 14.765 45.214 19.432 41.239 16.531 37.265 19.432 38.786 14.725 34.792 11.877 39.716 11.877"/>
		</g>
</g>
</svg>
