<?xml version="1.0" encoding="UTF-8" standalone="no"?>
<!-- Generator: Adobe Illustrator 18.0.0, SVG Export Plug-In . SVG Version: 6.00 Build 0)  -->
<!DOCTYPE svg  PUBLIC '-//W3C//DTD SVG 1.1//EN'  'http://www.w3.org/Graphics/SVG/1.1/DTD/svg11.dtd'>
<svg style="enable-background:new 0 0 144 80" xmlns="http://www.w3.org/2000/svg" xml:space="preserve" version="1.1" y="0px" x="0px" xmlns:xlink="http://www.w3.org/1999/xlink" viewBox="0 0 144 80">
<g id="LIE">
			<polygon points="144 40 0 40 0 0 144 0" fill="#002B7F"/>
			<polygon points="0 40 144 40 144 80 0 80" fill="#CE1126"/>
			<path d="m14.875 22.725c-0.413 0.205-1.107 0.504-1.348 0.779 1.516 0.793 2.446 5.453 3.789 6.865 5.064 0.137 12.507 0.24 20.328 0.344 0.93 0.014 1.253-0.89 1.585-1.585 0.758-1.585 2.01-4.343 3.066-4.721 0.482-0.171 0.241-0.447-0.172-0.723-0.414-0.275-0.828-0.552-1.379-0.654 0.551-0.413 0.551-0.965 0.173-1.447 0.837-0.597 0.7-1.309 0.126-1.632 0.85-0.712 0.46-1.561-0.161-1.584 0.574-0.826 0.321-1.723-0.69-1.678 0.3-0.871-0.459-1.469-1.171-1.193-0.115-0.734-0.735-1.356-1.47-0.689-0.413-0.964-1.217-1.148-1.653-0.413-0.482-0.667-1.286-0.781-1.631-0.115-0.529-0.391-1.287-0.252-1.494 0.276-0.436-0.436-1.217-0.506-1.561 0.115-0.575-0.346-1.217-0.276-1.447 0.252-0.11-0.191-0.39-0.252-0.597-0.184 0.624-0.804 0.287-2.045-0.62-2.297 0.122-0.237 0.168-0.36 0.229-0.482s0.016-0.214-0.061-0.352c-0.058-0.104-0.244-0.405-0.352-0.581l0.29-0.3c0.268 0.154 0.574 0.329 0.698 0.392 0.121 0.061 0.229 0.114 0.429-0.023 0.198-0.138 0.589-0.421 0.765-0.536 0.177-0.114 0.085-0.207-0.054-0.314s-0.559-0.397-0.711-0.497c-0.153-0.1-0.262-0.075-0.445 0.016-0.184 0.092-0.459 0.23-0.689 0.345-0.084-0.093-0.206-0.2-0.337-0.246 0.321-0.612 0.443-0.864 0.521-1.002 0.076-0.139 0.106-0.253 0.022-0.421-0.084-0.17-0.451-0.889-0.551-1.049-0.1-0.162-0.195-0.124-0.33 0.061-0.222 0.307-0.497 0.72-0.604 0.88-0.107 0.161-0.148 0.23-0.047 0.445 0.131 0.275 0.337 0.773 0.444 0.987-0.067 0.036-0.219 0.166-0.274 0.266-0.298-0.147-0.611-0.292-0.749-0.359-0.138-0.07-0.232-0.05-0.375 0.029-0.284 0.153-0.805 0.489-0.942 0.566-0.138 0.076-0.008 0.147 0.153 0.268 0.161 0.123 0.612 0.414 0.734 0.499 0.122 0.084 0.208 0.084 0.374 0 0.17-0.085 0.553-0.238 0.66-0.292 0.068 0.115 0.207 0.245 0.307 0.292-0.131 0.205-0.261 0.436-0.36 0.611-0.1 0.176-0.092 0.222-0.022 0.353 0.068 0.13 0.106 0.245 0.199 0.421-1.244 0.337-1.184 1.711-0.805 2.447-0.161-0.035-0.414 0.023-0.528 0.172-0.401-0.506-1.091-0.643-1.413-0.241-0.356-0.556-1.09-0.74-1.58-0.31-0.414-0.705-1.102-0.768-1.547-0.23-0.261-0.505-1.179-0.674-1.547-0.046-0.521-0.551-1.209-0.352-1.562 0.229-0.597-0.46-1.393-0.321-1.576 0.704-0.873-0.153-1.531 0.368-1.272 1.286-1.086 0.061-1.178 0.903-0.581 1.562-1.103 0.244-1.042 1.18-0.353 1.715-0.889 0.367-0.612 1.302 0.015 1.593-0.444 0.368-0.448 1.051 0.154 1.426z"/>
			<path stroke-width="0" d="m15.016 19.951c-0.761 0-0.761 1.135 0 1.135s0.761-1.135 0-1.135z" fill="#FFD559"/>
			<path stroke-width="0" d="m15.292 21.39c-0.762 0-0.762 1.136 0 1.136 0.761-0.001 0.761-1.136 0-1.136z" fill="#FFD559"/>
			<path stroke-width="0" d="m15.031 18.312c-0.762 0-0.762 1.135 0 1.135s0.762-1.135 0-1.135z" fill="#FFD559"/>
			<path stroke-width="0" d="m15.507 16.721c-0.762 0-0.762 1.134 0 1.134 0.761-0.001 0.761-1.134 0-1.134z" fill="#FFD559"/>
			<path stroke-width="0" d="m16.409 15.403c-0.762 0-0.762 1.134 0 1.134s0.762-1.134 0-1.134z" fill="#FFD559"/>
			<path stroke-width="0" d="m17.788 14.461c-0.793 0-0.793 1.182 0 1.182 0.792 0 0.792-1.182 0-1.182z" fill="#FFD559"/>
			<path stroke-width="0" d="m19.258 14.149c-0.792 0-0.792 1.179 0 1.179 0.792-0.001 0.792-1.179 0-1.179z" fill="#FFD559"/>
			<path stroke-width="0" d="m20.759 14.055c-0.793 0-0.793 1.181 0 1.181 0.792-0.001 0.792-1.181 0-1.181z" fill="#FFD559"/>
			<path stroke-width="0" d="m22.289 14.255c-0.792 0-0.792 1.18 0 1.18s0.792-1.18 0-1.18z" fill="#FFD559"/>
			<path stroke-width="0" d="m23.819 14.515c-0.791 0-0.791 1.181 0 1.181 0.793-0.001 0.793-1.181 0-1.181z" fill="#FFD559"/>
			<path stroke-width="0" d="m25.275 14.836c-0.792 0-0.792 1.182 0 1.182s0.792-1.182 0-1.182z" fill="#FFD559"/>
			<path stroke-width="0" d="m26.684 15.097c-0.793 0-0.793 1.181 0 1.181 0.792-0.001 0.792-1.181 0-1.181z" fill="#FFD559"/>
			<path stroke-width="0" d="m29.226 14.982c-0.792 0-0.792 1.18 0 1.18s0.792-1.18 0-1.18z" fill="#FFD559"/>
			<path stroke-width="0" d="m30.581 14.706c-0.791 0-0.791 1.181 0 1.181s0.791-1.181 0-1.181z" fill="#FFD559"/>
			<path stroke-width="0" d="m32.005 14.454c-0.792 0-0.792 1.181 0 1.181 0.793 0 0.793-1.181 0-1.181z" fill="#FFD559"/>
			<path stroke-width="0" d="m28.018 10.002c-0.593 0-0.593 0.883 0 0.883 0.592 0 0.592-0.883 0-0.883z" fill="#FFD559"/>
			<path stroke-width="0" d="m33.544 14.293c-0.792 0-0.792 1.181 0 1.181 0.793 0 0.793-1.181 0-1.181z" fill="#FFD559"/>
			<path stroke-width="0" d="m35.037 14.132c-0.792 0-0.792 1.181 0 1.181 0.793-0.001 0.793-1.181 0-1.181z" fill="#FFD559"/>
			<path stroke-width="0" d="m36.622 14.271c-0.792 0-0.792 1.18 0 1.18 0.793-0.001 0.793-1.18 0-1.18z" fill="#FFD559"/>
			<path stroke-width="0" d="m38.161 14.775c-0.792 0-0.792 1.18 0 1.18 0.793 0 0.793-1.18 0-1.18z" fill="#FFD559"/>
			<path stroke-width="0" d="m39.425 15.717c-0.793 0-0.793 1.181 0 1.181s0.793-1.181 0-1.181z" fill="#FFD559"/>
			<path stroke-width="0" d="m40.366 16.957c-0.793 0-0.793 1.18 0 1.18 0.792 0 0.792-1.18 0-1.18z" fill="#FFD559"/>
			<path stroke-width="0" d="m40.734 18.632c-0.748 0-0.748 1.113 0 1.113 0.747 0 0.747-1.113 0-1.113z" fill="#FFD559"/>
			<path stroke-width="0" d="m40.687 20.149c-0.746 0-0.746 1.113 0 1.113 0.748 0 0.748-1.113 0-1.113z" fill="#FFD559"/>
			<path stroke-width="0" d="m40.343 21.688c-0.747 0-0.747 1.113 0 1.113 0.748 0 0.748-1.113 0-1.113z" fill="#FFD559"/>
			<path stroke-width="0" d="m27.879 16.611c-0.525 0-0.525 0.783 0 0.783 0.524 0.001 0.524-0.783 0-0.783z" fill="#FFD559"/>
			<path stroke-width="0" d="m27.94 15.493c-0.484 0-0.484 0.784 0 0.784s0.484-0.784 0-0.784z" fill="#FFD559"/>
			<path stroke-width="0" d="m27.849 17.729c-0.619 0-0.619 0.921 0 0.921s0.619-0.921 0-0.921z" fill="#FFD559"/>
			<path stroke-width="0" d="m27.879 18.946c-0.706 0-0.706 1.052 0 1.052s0.706-1.052 0-1.052z" fill="#FFD559"/>
			<path stroke-width="0" d="m27.863 20.264c-0.706 0-0.706 1.052 0 1.052 0.706-0.001 0.706-1.052 0-1.052z" fill="#FFD559"/>
			<path stroke-width="0" d="m17.683 30.183c0.166-0.048 0.277 0.013 0.193-0.323-0.085-0.337 0.031-0.501 0.184-0.046 0.1 0.298 0.09 0.238 0.246 0.2 0.157-0.037 0.198 0.014 0.16-0.246-0.039-0.26 0.065-0.397 0.168-0.068 0.076 0.244 0.084 0.214 0.221 0.183 0.139-0.031 0.246 0.04 0.178-0.252-0.069-0.291 0.043-0.306 0.13-0.038 0.076 0.236 0.076 0.206 0.229 0.174 0.152-0.032 0.229 0.018 0.191-0.251-0.039-0.267 0.036-0.343 0.146-0.039 0.099 0.276 0.131 0.2 0.305 0.166 0.174-0.035 0.276-0.005 0.23-0.266-0.047-0.26 0.033-0.452 0.184-0.029 0.084 0.237 0.097 0.212 0.328 0.169 0.233-0.041 0.307-0.001 0.269-0.23s0.087-0.315 0.161-0.037c0.053 0.196 0.078 0.201 0.292 0.163 0.214-0.037 0.282 0.02 0.268-0.303-0.016-0.321 0.095-0.507 0.153-0.007 0.037 0.329 0.053 0.247 0.274 0.224 0.222-0.023 0.307-0.009 0.284-0.261-0.023-0.254 0.093-0.375 0.137-0.024 0.039 0.299 0.066 0.225 0.245 0.216 0.181-0.008 0.268 0.052 0.253-0.261-0.015-0.314 0.153-0.431 0.185-0.017 0.022 0.307 0.075 0.229 0.244 0.219 0.214-0.017 0.237 0.051 0.237-0.219 0-0.397 0.168-0.406 0.185-0.067 0.015 0.313 0.068 0.248 0.244 0.238 0.245-0.014 0.313 0.043 0.298-0.262-0.012-0.261 0.14-0.266 0.184-0.016 0.046 0.248-0.022 0.256 0.237 0.239 0.26-0.016 0.215 0.013 0.223-0.269 0.008-0.283 0.184-0.307 0.191-0.008 0.008 0.298-0.023 0.259 0.252 0.253 0.275-0.005 0.283 0.054 0.268-0.245-0.016-0.299 0.191-0.422 0.214-0.023 0.016 0.257-0.061 0.254 0.291 0.254s0.338 0.059 0.354-0.262c0.015-0.322 0.198-0.406 0.205-0.029 0.008 0.374 0.101 0.288 0.244 0.291 0.146 0.001 0.301-0.004 0.422 0.005 0.123 0.008 0.107 0.017 0.107-0.259 0-0.275 0.177-0.383 0.177 0.007-0.001 0.257-0.077 0.242 0.237 0.265 0.312 0.021 0.245 0.042 0.253-0.241 0.007-0.284 0.167-0.337 0.176 0.008 0.008 0.299 0.015 0.245 0.176 0.255 0.16 0.01 0.227 0.044 0.215-0.2-0.016-0.3 0.253-0.515 0.237 0.008-0.008 0.26-0.047 0.213 0.206 0.226 0.253 0.014 0.195 0.04 0.214-0.226 0.024-0.308 0.248-0.445 0.216 0.006-0.017 0.207-0.048 0.224 0.204 0.262 0.253 0.038 0.275 0.032 0.285-0.238 0.016-0.428 0.207-0.345 0.199-0.016-0.008 0.33-0.053 0.282 0.215 0.311 0.268 0.03 0.32 0.089 0.344-0.234 0.031-0.398 0.208-0.367 0.191 0.008-0.016 0.375 0.031 0.283 0.176 0.298 0.146 0.013 0.216 0.101 0.238-0.206 0.023-0.305 0.25-0.433 0.191-0.007-0.035 0.256 0.008 0.253 0.191 0.282 0.184 0.032 0.26 0.108 0.299-0.191 0.038-0.298 0.236-0.351 0.192 0-0.039 0.291-0.016 0.244 0.155 0.276 0.172 0.032 0.237 0.123 0.272-0.177 0.047-0.381 0.26-0.375 0.216 0.016-0.023 0.2 0 0.227 0.121 0.251 0.123 0.024 0.246 0.043 0.322 0.051 0.076 0.007 0.107 0.027 0.138-0.24 0.031-0.268 0.229-0.345 0.207 0.022-0.023 0.368 0.01 0.278 0.168 0.304 0.158 0.025 0.184 0.057 0.23-0.212 0.045-0.267 0.222-0.328 0.176 0.009-0.046 0.336-0.016 0.258 0.145 0.305 0.161 0.045 0.178 0.062 0.238-0.19 0.061-0.252 0.312-0.333 0.215 0.03-0.086 0.315-0.07 0.218 0.106 0.271s0.253 0.111 0.313-0.141c0.062-0.253 0.242-0.349 0.161 0.016-0.062 0.275 0.007 0.229 0.176 0.266 0.168 0.035 0.207 0.14 0.276-0.159 0.068-0.298 0.275-0.283 0.184 0.016-0.092 0.298-0.092 0.229 0.129 0.282 0.223 0.053 0.216 0.123 0.3-0.176 0.085-0.298 0.306-0.275 0.215 0.047-0.092 0.32-0.058 0.237 0.112 0.287 0.17 0.049 0.186 0.11 0.285-0.188 0.1-0.299 0.225-0.275 0.146 0.037-0.054 0.215-0.107 0.261 0.198 0.261 0.307 0 0.488-0.119 0.897-0.788 1.011-1.653 1.631-4.31 3.377-5.367 0.316-0.192 0.125-0.437-0.46-0.644-2.036-0.719-4.042-0.612-5.084 2.082-0.157 0.409-0.327 0.3-0.23-0.061 0.399-1.485 0.215-3.267-1.057-3.629-1.668-0.475-3.599 1.026-4.18 2.802-0.096 0.288-0.22 0.166-0.275-0.214-0.353-2.373-1.486-3.077-2.842-3.055-1.354 0.022-2.893 0.507-3.076 2.894-0.024 0.299-0.155 0.058-0.322-0.138-1.895-2.205-2.791-2.894-3.895-2.595-1.03 0.279-1.712 1.888-1.526 3.101 0.028 0.183-0.1 0.364-0.208 0.023-0.657-2.097-3.016-2.786-4.761-1.515-0.15 0.107-0.276 0.062 0.122 0.443 1.172 1.117 1.621 3.986 3.123 6.239 0.11 0.156 0.153 0.197 0.347 0.144z" fill="#FFD559"/>
			<path stroke-width="0" d="m17.386 17.874c-0.559 0.724-0.455 2.697 0 3.658v-3.658z" fill="#FFD559"/>
			<path stroke-width="0" d="m17.604 21.859c0.14 0.225 0.312 0.41 0.494 0.529v-5.166c-0.191 0.129-0.369 0.277-0.494 0.458v4.179z" fill="#FFD559"/>
			<path stroke-width="0" d="m18.308 22.508c0.207 0.047 0.381 0.041 0.571-0.028v-5.662c-0.184 0.071-0.36 0.153-0.571 0.248v5.442z" fill="#FFD559"/>
			<path stroke-width="0" d="m19.085 22.383c0.15-0.084 0.311-0.204 0.483-0.363 0.015-0.015 0.03-0.028 0.045-0.042v-5.374c-0.18 0.037-0.357 0.084-0.528 0.141v5.638z" fill="#FFD559"/>
			<path stroke-width="0" d="m19.821 21.807c0.153-0.116 0.313-0.213 0.48-0.286v-5.016c-0.162 0.014-0.322 0.032-0.48 0.059v5.243z" fill="#FFD559"/>
			<path stroke-width="0" d="m20.51 21.444c0.133-0.041 0.271-0.066 0.413-0.075v-4.883c-0.139-0.003-0.276-0.001-0.413 0.006v4.952z" fill="#FFD559"/>
			<path stroke-width="0" d="m21.13 21.369c0.14 0.01 0.285 0.034 0.437 0.076v-4.918c-0.146-0.017-0.292-0.027-0.437-0.035v4.877z" fill="#FFD559"/>
			<path stroke-width="0" d="m21.75 21.508c0.176 0.067 0.359 0.157 0.552 0.278v-5.141c-0.184-0.04-0.367-0.071-0.552-0.097v4.96z" fill="#FFD559"/>
			<path stroke-width="0" d="m22.508 21.924c0.163 0.115 0.331 0.249 0.471 0.406v-5.497c-0.132-0.053-0.301-0.1-0.471-0.141v5.232z" fill="#FFD559"/>
			<path stroke-width="0" d="m23.2 22.502c0.161 0.148 0.327 0.267 0.479 0.34v-5.764c-0.164-0.07-0.333-0.134-0.479-0.167v5.591z" fill="#FFD559"/>
			<path stroke-width="0" d="m23.886 22.913c0.181 0.038 0.344 0.008 0.505-0.073v-5.411c-0.163-0.093-0.331-0.179-0.505-0.259v5.743z" fill="#FFD559"/>
			<path stroke-width="0" d="m24.587 22.674c0.215-0.124 0.379-0.287 0.562-0.471v-4.267c-0.16-0.126-0.328-0.244-0.562-0.356v5.094z" fill="#FFD559"/>
			<path stroke-width="0" d="m25.333 21.968c0.387-0.729 1.105-2.704 0-3.874v3.874z" fill="#FFD559"/>
			<path stroke-width="0" d="m30.237 17.938v4.331c0.164 0.239 0.358 0.424 0.573 0.555v-5.264c-0.225 0.108-0.414 0.231-0.573 0.378z" fill="#FFD559"/>
			<path stroke-width="0" d="m34.578 21.567c0.131 0.008 0.283 0.034 0.46 0.105v-4.967c-0.174-0.023-0.326-0.017-0.46-0.005v4.867z" fill="#FFD559"/>
			<path stroke-width="0" d="m35.267 21.749c0.168 0.08 0.336 0.186 0.506 0.32v-5.345c-0.164-0.02-0.331-0.033-0.506-0.038v5.063z" fill="#FFD559"/>
			<path stroke-width="0" d="m36.484 16.875c-0.17-0.053-0.347-0.092-0.505-0.122v5.474c0.164 0.17 0.339 0.332 0.505 0.463v-5.815z" fill="#FFD559"/>
			<path stroke-width="0" d="m36.714 22.847c0.176 0.101 0.349 0.147 0.528 0.108v-5.753c-0.169-0.097-0.345-0.181-0.528-0.249v5.894z" fill="#FFD559"/>
			<path stroke-width="0" d="m31.018 22.927c0.184 0.073 0.358 0.085 0.527 0.026v-5.667c-0.191 0.057-0.367 0.117-0.527 0.184v5.457z" fill="#FFD559"/>
			<path stroke-width="0" d="m32.235 17.104c-0.17 0.041-0.33 0.081-0.482 0.124v5.618c0.166-0.116 0.326-0.228 0.482-0.332v-5.41z" fill="#FFD559"/>
			<path stroke-width="0" d="m32.441 22.375c0.175-0.111 0.343-0.217 0.506-0.31v-5.122c-0.177 0.037-0.345 0.074-0.506 0.111v5.321z" fill="#FFD559"/>
			<path stroke-width="0" d="m33.146 21.94c0.173-0.09 0.341-0.165 0.505-0.225v-4.911c-0.164 0.025-0.332 0.057-0.505 0.091v5.045z" fill="#FFD559"/>
			<path stroke-width="0" d="m33.866 21.657c0.17-0.051 0.338-0.08 0.506-0.089v-4.852c-0.165 0.014-0.334 0.034-0.506 0.059v4.882z" fill="#FFD559"/>
			<path stroke-width="0" d="m30.054 18.137c-0.256 0.327-0.391 0.758-0.414 1.357-0.041 1.047 0.117 1.873 0.414 2.464v-3.821z" fill="#FFD559"/>
			<path stroke-width="0" d="m37.448 17.332v5.541c0.166-0.095 0.339-0.264 0.529-0.532v-4.571c-0.166-0.166-0.342-0.312-0.529-0.438z" fill="#FFD559"/>
			<path stroke-width="0" d="m38.185 21.914c0.588-1.083 0.791-2.764 0-3.839v3.839z" fill="#FFD559"/>
			<path stroke-width="0" d="m29.388 16.506c5.926-1.309 8.142-1.297 9.624 0.529 1.481 1.826 0.825 4.237 0.275 5.926-0.3 0.046-0.942 0.207-1.241 0.367 1.275-2.986 1.379-4.467-0.103-6.017-1.481-1.551-5.201-1.149-8.486-0.069-0.047-0.245-0.097-0.502-0.069-0.736z" fill="#FFD559"/>
			<path stroke-width="0" d="m29.157 16.484c0.023 1.699 0.047 3.857 0.506 5.282-0.268-0.176-0.514-0.253-0.76-0.299-0.274-2.74-0.435-4.548-0.412-4.962 0.23-0.044 0.436-0.044 0.666-0.021z" fill="#FFD559"/>
			<path stroke-width="0" d="m26.607 16.529c-0.068 1.654-0.321 4.065-0.812 5.244 0.391-0.16 0.651-0.374 0.949-0.42 0.299-1.057 0.483-3.812 0.598-4.754-0.253-0.07-0.39-0.093-0.735-0.07z" fill="#FFD559"/>
			<path stroke-width="0" d="m26.264 16.621c-5.409-1.688-8.234-1.274-9.268-0.067-1.033 1.204-1.653 2.686-0.654 5.821 0.436 0.082 0.919 0.126 1.286 0.401-1.653-3.445-1.094-4.979 0.413-5.948 1.93-1.239 5.443-0.367 8.119 0.379 0.104-0.219 0.104-0.447 0.104-0.586z" fill="#FFD559"/>
			<path stroke-width="0" d="m27.47 12.66c-0.278 0.074-0.529 0.355-0.609 0.596-0.023 0.07-0.029 0.075 0.167 0.081 0.194 0.006 0.274-0.006 0.385-0.006 0.114 0 0.092-0.051 0.092-0.149s0.022-0.391 0.028-0.465c0.005-0.075-0.001-0.075-0.063-0.057z" fill="#FFD559"/>
			<path stroke-width="0" d="m27.762 12.625c0 0.275-0.04 0.672-0.046 0.793-0.006 0.12 0 0.125-0.184 0.132-0.184 0.005-0.684 0.058-0.775 0.062-0.092 0.006-0.086 0.047-0.092 0.121-0.005 0.075 0 0.229 0.012 0.321 0.01 0.092 0.076 0.074 0.258 0.046 0.632-0.097 1.448-0.08 2.079 0.046 0.124 0.024 0.173-0.04 0.179-0.149 0.005-0.109 0.027-0.212 0.012-0.311-0.018-0.097-0.035-0.097-0.162-0.114-0.126-0.018-0.511-0.045-0.637-0.04-0.127 0.006-0.184-0.04-0.19-0.178s0.006-0.46-0.006-0.614c-0.012-0.156 0.006-0.168-0.092-0.184-0.098-0.018-0.189-0.029-0.287-0.018-0.098 0.012-0.069 0.041-0.069 0.087z" fill="#FFD559"/>
			<path stroke-width="0" d="m28.428 12.838c0 0.086 0.007 0.292 0.007 0.356 0 0.062 0.016 0.126 0.114 0.12 0.098-0.005 0.345 0.023 0.437 0.029 0.092 0.007 0.186 0.035 0.086-0.126-0.127-0.208-0.316-0.379-0.483-0.454-0.166-0.074-0.161-0.017-0.161 0.075z" fill="#FFD559"/>
			<path stroke-width="0" d="m26.866 14.33c-0.091 0.021-0.136 0.021-0.058 0.196 0.149 0.332 0.437 0.786 1.045 0.786 0.609 0 1.01-0.387 1.183-0.799 0.047-0.109-0.025-0.15-0.264-0.189-0.384-0.062-1.413-0.109-1.906 0.006z" fill="#FFD559"/>
			<path stroke-width="0" d="m27.703 12.349c-0.101-0.129-0.177-0.274-0.222-0.367-0.047-0.092-0.024-0.168 0.067-0.352 0.093-0.184 0.161-0.36 0.208-0.436 0.045-0.076 0.062-0.113 0.12-0.107 0.057 0.007 0.126 0.012 0.177 0.007 0.053-0.007 0.088 0 0.162 0.131 0.075 0.132 0.247 0.438 0.311 0.552 0.062 0.114 0.058 0.144-0.008 0.235-0.061 0.092-0.176 0.247-0.257 0.355-0.196-0.035-0.36-0.035-0.558-0.018z" fill="#FFD559"/>
			<path stroke-width="0" d="m27.251 10.543c-0.162 0.084-0.514 0.222-0.629 0.26-0.113 0.039-0.168 0.084-0.358-0.046-0.192-0.13-0.345-0.237-0.444-0.307-0.1-0.068-0.168-0.114 0.046-0.229s0.36-0.208 0.497-0.276c0.139-0.068 0.238-0.099 0.43-0.016 0.191 0.084 0.337 0.146 0.498 0.216-0.032 0.107-0.07 0.283-0.04 0.398z" fill="#FFD559"/>
			<path stroke-width="0" d="m28.032 9.731c-0.153-0.337-0.398-0.82-0.467-0.989-0.069-0.167-0.092-0.198 0.045-0.375 0.139-0.176 0.307-0.505 0.391-0.619 0.084-0.115 0.113-0.202 0.215-0.023 0.16 0.283 0.268 0.498 0.359 0.689 0.093 0.191 0.12 0.263 0.038 0.405-0.176 0.308-0.413 0.774-0.482 0.912h-0.099z" fill="#FFD559"/>
			<path stroke-width="0" d="m28.729 10.281c0.015 0.078-0.008 0.231-0.038 0.308 0.213 0.099 0.544 0.245 0.666 0.291 0.123 0.046 0.223 0.099 0.399-0.017 0.176-0.113 0.451-0.297 0.543-0.351 0.093-0.056 0.053-0.111-0.083-0.215-0.131-0.101-0.276-0.208-0.445-0.329-0.111-0.081-0.16-0.1-0.329-0.023-0.17 0.078-0.508 0.261-0.713 0.336z" fill="#FFD559"/>
			<path d="m15.388 24.385c-0.148-0.117-0.299-0.218-0.426-0.31-0.125-0.093-0.068-0.253 0.16-0.138 0.232 0.115 0.323 0.229 0.415 0.344s0.022 0.243-0.149 0.104z"/>
			<path d="m15.962 24.362c-0.146-0.131-0.231-0.218-0.356-0.38-0.127-0.16-0.007-0.438 0.194-0.137 0.114 0.172 0.195 0.275 0.253 0.378 0.057 0.105 0.023 0.243-0.091 0.139z"/>
			<path d="m16.271 24.033c0.083 0.181 0.192 0.383 0.262 0.52 0.068 0.139 0.275 0.184 0.191-0.029-0.084-0.215-0.1-0.322-0.176-0.521-0.078-0.199-0.391-0.224-0.277 0.03z"/>
			<path d="m16.976 24.224c0.055 0.185 0.169 0.384 0.206 0.499 0.038 0.114 0.161 0.06 0.139-0.1-0.024-0.161-0.031-0.254-0.062-0.43-0.03-0.175-0.352-0.198-0.283 0.031z"/>
			<path d="m17.597 24.516c0.032 0.154 0.076 0.283 0.115 0.429 0.037 0.146 0.137 0.122 0.137-0.016s-0.023-0.291-0.045-0.436c-0.024-0.145-0.253-0.2-0.207 0.023z"/>
			<path d="m19.938 25.418c-0.102-0.163-0.252-0.359-0.321-0.481-0.068-0.123-0.352-0.038-0.191 0.168 0.16 0.207 0.336 0.353 0.397 0.43 0.063 0.075 0.215 0.044 0.115-0.117z"/>
			<path d="m20.031 24.875c-0.139-0.167-0.276-0.314-0.376-0.435-0.1-0.123-0.045-0.483 0.139-0.192 0.184 0.292 0.283 0.413 0.352 0.528s0 0.237-0.115 0.099z"/>
			<path d="m19.97 23.826c0.088 0.16 0.237 0.359 0.307 0.475 0.068 0.115 0.191 0.038 0.106-0.107-0.084-0.146-0.114-0.314-0.214-0.521s-0.33-0.085-0.199 0.153z"/>
			<path d="m20.605 23.779c-0.075-0.161-0.123-0.214-0.2-0.367-0.075-0.152 0.148-0.383 0.223-0.084 0.039 0.153 0.077 0.275 0.107 0.384 0.032 0.106-0.054 0.236-0.13 0.067z"/>
			<path d="m21.155 23.657c-0.085-0.197-0.175-0.313-0.259-0.497-0.085-0.184 0.106-0.336 0.222-0.076 0.115 0.26 0.152 0.398 0.191 0.52 0.039 0.124-0.076 0.23-0.154 0.053z"/>
			<path d="m21.708 23.65c-0.07-0.183-0.169-0.353-0.238-0.521-0.068-0.169 0.146-0.292 0.238-0.016s0.106 0.359 0.152 0.506c0.045 0.146-0.092 0.192-0.152 0.031z"/>
			<path d="m22.145 23.344c-0.087-0.236 0.144-0.391 0.236-0.084 0.092 0.306 0.131 0.513 0.161 0.636 0.031 0.122-0.099 0.16-0.176-0.031-0.077-0.192-0.161-0.353-0.221-0.521z"/>
			<path d="m22.856 23.65c0.025 0.139 0.122 0.413 0.16 0.543 0.039 0.13 0.199 0.1 0.161-0.076s-0.038-0.23-0.084-0.429-0.276-0.245-0.237-0.038z"/>
			<path d="m25.505 24.66c-0.031-0.166-0.084-0.337-0.131-0.497-0.045-0.161 0.162-0.26 0.215-0.038 0.054 0.223 0.07 0.406 0.1 0.551 0.031 0.145-0.153 0.145-0.184-0.016z"/>
			<path d="m25.872 23.972c-0.053-0.208-0.121-0.352-0.168-0.513-0.045-0.161 0.199-0.329 0.253-0.068 0.054 0.26 0.077 0.428 0.085 0.551 0.007 0.121-0.123 0.213-0.17 0.03z"/>
			<path d="m26.401 23.336c0-0.179-0.039-0.375-0.077-0.551s0.237-0.309 0.237 0c0 0.207-0.016 0.435-0.023 0.543s-0.137 0.161-0.137 0.008z"/>
			<path d="m26.952 23.03c-0.014-0.208-0.054-0.376-0.062-0.515-0.007-0.136 0.246-0.259 0.261-0.021 0.015 0.237 0 0.421-0.015 0.543-0.016 0.123-0.168 0.207-0.184-0.007z"/>
			<path d="m27.481 23.068c-0.027-0.183-0.055-0.452-0.078-0.598-0.038-0.244 0.292-0.268 0.283 0.03-0.007 0.3 0.009 0.399-0.021 0.56-0.031 0.161-0.153 0.215-0.184 0.008z"/>
			<path d="m28.024 23.092c-0.009-0.199-0.031-0.452-0.008-0.606 0.023-0.153 0.307-0.198 0.26 0.055-0.046 0.252-0.1 0.428-0.114 0.566-0.016 0.137-0.13 0.153-0.138-0.015z"/>
			<path d="m28.575 23.114c0.01-0.214 0.023-0.299 0.031-0.46 0.007-0.16 0.191-0.253 0.184 0.008-0.008 0.26-0.016 0.353-0.022 0.475-0.008 0.123-0.201 0.161-0.193-0.023z"/>
			<path d="m28.981 23.635c0.034-0.169 0.084-0.452 0.123-0.62 0.038-0.169 0.26-0.177 0.229 0.054-0.03 0.229-0.116 0.513-0.154 0.644-0.036 0.128-0.258 0.228-0.198-0.078z"/>
			<path d="m29.418 23.941c0.038-0.115 0.076-0.229 0.1-0.299 0.022-0.068 0.198-0.106 0.176 0.023-0.022 0.131-0.092 0.268-0.138 0.352-0.046 0.085-0.184 0.062-0.138-0.076z"/>
			<path d="m31.737 24.967c-0.018-0.16-0.016-0.244-0.03-0.398-0.016-0.152 0.261-0.352 0.245-0.045-0.016 0.306-0.031 0.359-0.047 0.459-0.014 0.099-0.152 0.121-0.168-0.016z"/>
			<path d="m32.366 24.44c0.025-0.215 0.037-0.376 0.067-0.561 0.032-0.184 0.33-0.198 0.261 0.009s-0.145 0.436-0.176 0.566-0.176 0.169-0.152-0.014z"/>
			<path d="m32.978 24.14c0.027-0.174 0.031-0.313 0.039-0.536 0.008-0.222 0.397-0.421 0.336-0.16-0.061 0.26-0.152 0.544-0.206 0.674s-0.192 0.167-0.169 0.022z"/>
			<path d="m33.521 23.903c0.037-0.194 0.062-0.375 0.122-0.575 0.062-0.198 0.384-0.26 0.284 0.038-0.101 0.299-0.2 0.452-0.253 0.575-0.053 0.122-0.191 0.161-0.153-0.038z"/>
			<path d="m34.211 23.712c0.034-0.222 0.045-0.368 0.091-0.498 0.047-0.13 0.354-0.169 0.262 0.068s-0.139 0.391-0.199 0.505c-0.063 0.116-0.184 0.116-0.154-0.075z"/>
			<path d="m34.686 24.056c0.052-0.192 0.114-0.468 0.153-0.636 0.038-0.168 0.336-0.26 0.236 0.1-0.1 0.359-0.16 0.46-0.206 0.582s-0.229 0.122-0.183-0.046z"/>
			<path d="m35.045 24.446c0.075-0.199 0.153-0.398 0.229-0.574 0.076-0.177 0.292-0.152 0.192 0.076-0.101 0.23-0.215 0.437-0.276 0.567-0.06 0.131-0.214 0.115-0.145-0.069z"/>
			<path d="m35.229 24.959c0.137-0.184 0.177-0.275 0.261-0.375s0.322-0.031 0.199 0.123c-0.122 0.152-0.254 0.306-0.338 0.391-0.084 0.084-0.229 0.006-0.122-0.139z"/>
			<path d="m37.839 25.059c0.007-0.154 0.085-0.314 0.177-0.421 0.093-0.106 0.269-0.085 0.177 0.077-0.092 0.16-0.161 0.268-0.184 0.375-0.024 0.106-0.177 0.152-0.17-0.031z"/>
			<path d="m38.398 24.906c0.069-0.207 0.153-0.521 0.253-0.659s0.353-0.076 0.229 0.122c-0.122 0.199-0.292 0.468-0.345 0.575s-0.19 0.122-0.137-0.038z"/>
			<path d="m39.026 24.707c0.098-0.232 0.184-0.476 0.291-0.612 0.107-0.139 0.421-0.107 0.245 0.091-0.177 0.199-0.298 0.452-0.353 0.575-0.052 0.122-0.244 0.091-0.183-0.054z"/>
			<path d="m39.677 24.607c0.09-0.178 0.177-0.337 0.261-0.482s0.437-0.138 0.261 0.122c-0.177 0.261-0.314 0.398-0.383 0.482-0.07 0.084-0.239 0.078-0.139-0.122z"/>
			<path d="m40.243 24.492c0.102-0.127 0.177-0.245 0.33-0.353 0.152-0.107 0.367-0.038 0.245 0.115-0.123 0.152-0.352 0.298-0.46 0.391-0.107 0.091-0.229-0.007-0.115-0.153z"/>
			<path d="m37.189 28.895c0.538-0.885 1.087-1.725 1.822-2.159 0.337-0.198 0.413-0.432-0.035-0.19-0.448 0.241-0.747 0.113-0.54-0.254s0.334-0.689 0.426-0.826c0.092-0.139 0.015-0.343-0.161-0.069-0.287 0.448-0.7 0.861-0.85 1.034-0.149 0.173-0.366 0.249-0.425 0.045-0.045-0.16-0.13-0.275-0.184-0.374-0.053-0.101-0.165-0.097-0.145 0.146 0.083 1.019 0.048 1.962-0.108 2.56-0.08 0.308 0.146 0.174 0.2 0.087z"/>
			<path d="m33.188 28.025c0.324-1.055 0.691-1.636 1.113-2.09 0.15-0.16 0.426-0.38 0.483-0.471 0.057-0.093 0.034-0.184-0.138-0.114-0.173 0.067-0.299 0.194-0.494 0.263s-0.287 0.035-0.242-0.287c0.047-0.321 0.231-0.723 0.253-0.895 0.022-0.173 0.001-0.196-0.114-0.081-0.172 0.173-0.378 0.909-0.598 1.159-0.16 0.184-0.287 0.082-0.344-0.092-0.059-0.172-0.161-0.39-0.254-0.527-0.091-0.139-0.234-0.084-0.113 0.311 0.206 0.678 0.275 1.698 0.275 2.021 0 0.321-0.035 0.643 0 0.793 0.035 0.148 0.127 0.161 0.173 0.01z"/>
			<path d="m27.849 27.732c0.248-1.491 0.537-2.111 1.147-3.308 0.208-0.406 0.015-0.381-0.167-0.139-0.33 0.438-0.477 0.517-0.66 0.238-0.199-0.307-0.226-0.606-0.236-0.881-0.012-0.276-0.223-0.337-0.234 0.02-0.012 0.355-0.16 0.7-0.286 0.872-0.127 0.173-0.311 0.126-0.483 0.034s-0.275-0.161-0.459-0.298c-0.184-0.138-0.322-0.059-0.102 0.253 0.638 0.911 1.298 1.722 1.298 3.208-0.002 0.23 0.12 0.368 0.182 0.001z"/>
			<path d="m22.542 28.015c-0.189-1.204-0.229-2.193 0.058-2.813 0.107-0.234 0-0.459-0.172-0.081-0.114 0.252-0.3 0.357-0.448 0.138-0.149-0.218-0.461-0.804-0.552-1.068-0.092-0.265-0.236-0.15-0.172 0.081 0.196 0.7 0.253 1.068 0.219 1.239-0.034 0.173-0.127 0.196-0.253 0.139-0.127-0.057-0.275-0.139-0.391-0.219-0.115-0.079-0.233 0.014-0.068 0.149 0.838 0.69 1.418 1.481 1.643 2.436 0.044 0.193 0.171 0.216 0.136-0.001z"/>
			<path d="m18.454 28.359c-0.316-0.74-0.391-1.368-0.322-1.746 0.069-0.379 0.161-0.633 0.15-0.85-0.013-0.219-0.133-0.204-0.184 0-0.035 0.138-0.104 0.321-0.15 0.39-0.046 0.068-0.23 0.108-0.405-0.13-0.177-0.237-0.62-0.697-0.767-0.812-0.145-0.114-0.298-0.1-0.152 0.1 0.207 0.282 0.435 0.712 0.452 0.896 0.015 0.184-0.076 0.184-0.161 0.184-0.253 0-0.375-0.184-0.606-0.237-0.229-0.053-0.263 0.066-0.099 0.185 0.843 0.612 1.687 1.297 2.024 1.917 0.14 0.252 0.324 0.344 0.22 0.103z"/>
</g>
</svg>
