<?xml version="1.0" encoding="UTF-8" standalone="no"?>
<!-- Generator: Adobe Illustrator 18.0.0, SVG Export Plug-In . SVG Version: 6.00 Build 0)  -->
<!DOCTYPE svg  PUBLIC '-//W3C//DTD SVG 1.1//EN'  'http://www.w3.org/Graphics/SVG/1.1/DTD/svg11.dtd'>
<svg style="enable-background:new 0 0 144 80" xmlns="http://www.w3.org/2000/svg" xml:space="preserve" version="1.1" y="0px" x="0px" xmlns:xlink="http://www.w3.org/1999/xlink" viewBox="0 0 144 80">
<g id="TOG">
		<polygon points="0 0 144 0 144 80 0 80" fill="#006B4F"/>
		<polygon points="0 0 144 0 144 80 0 80" fill="#006B4F"/>
		<polygon points="144 32 48 32 48 15.999 144 15.999" fill="#FDCD08"/>
		<polygon points="144 63.999 0 63.999 0 48 144 48" fill="#FDCD08"/>
		<polygon points="48 48 48 0 0 0 0 48" fill="#D21F36"/>
		<polygon points="24 9.246 20.717 19.446 9.922 19.446 18.688 25.793 15.321 35.984 24 29.652 32.679 35.984 29.354 25.707 38.077 19.488 27.325 19.488" fill="#fff"/>
</g>
</svg>
