<?xml version="1.0" encoding="UTF-8" standalone="no"?>
<!-- Generator: Adobe Illustrator 18.0.0, SVG Export Plug-In . SVG Version: 6.00 Build 0)  -->
<!DOCTYPE svg  PUBLIC '-//W3C//DTD SVG 1.1//EN'  'http://www.w3.org/Graphics/SVG/1.1/DTD/svg11.dtd'>
<svg style="enable-background:new 0 0 144 80" xmlns="http://www.w3.org/2000/svg" xml:space="preserve" version="1.1" y="0px" x="0px" xmlns:xlink="http://www.w3.org/1999/xlink" viewBox="0 0 144 80">
<g id="BIZ">
		<polygon points="144 80 0 80 0 72.006 144 72.006" fill="#E03A3E"/>
			<polygon points="144 72.006 0 72.006 0 8 144 8" fill="#003876"/>
			<polygon points="144 8 0 8 0 0 144 0" fill="#E03A3E"/>
				<path d="m72 66.783c14.688 0 26.595-11.992 26.595-26.785 0-14.794-11.906-26.786-26.595-26.786-14.687 0-26.594 11.992-26.594 26.786 0 14.793 11.907 26.785 26.594 26.785z" fill="#fff"/>
				<path d="m72 39.998" fill="#fff"/>
				<path d="m67.257 27.928c0.078 0.224-0.035 0.545-0.275 0.701-0.238 0.158 0.121 0.103 0.207 0.109-0.1 0.158-0.17 0.349 0.023 0.363 0.096 0.007 0.197 0.089 0.195 0.243-0.004 0.153 0.168 0.043 0.254-0.075 0.084-0.116 0.359-0.043 0.217 0.111-0.143 0.154-0.286 0.318-0.145 0.433 0.142 0.114 0.129 0.381-0.014 0.526 0.188 0.199-0.306 0.563-0.16 0.875 0.08-0.047 0.143-0.108 0.188-0.191 0.089-0.158 0.005 0.207 0.163 0.375 0.119-0.126 0.263-0.055 0.268 0.153 0.125-0.084 0.209-0.067 0.291 0.126 0.262-0.165 0.452-0.119 0.57 0.139 0.361-0.314 0.67-0.27 0.828 0.021 0.176-0.294 0.329-0.314 0.553-0.152-0.071-0.182 0.117-0.611 0.462-0.108 0.345 0.502 1.257 0.066 1.622 0.065 0.508-0.004 0.539 0.506 0.895 0.4-0.057-0.108 0.257-0.362 0.125-0.476 0.512 0.329 0.624 0.027 0.816 0.166 0.029-0.192-0.082-0.409 0.035-0.534 0.035 0.106 0.203 0.161 0.338 0.224-0.061-0.294 0.264-0.443 0.389-0.528-0.063 0.119 0.131 0.247 0.286 0.322-0.041-0.147-0.013-0.352 0.017-0.443 0.117 0.143 0.242 0.184 0.358 0.215-0.038-0.312-0.019-0.529 0.206-0.501 0.018-0.236-0.252-0.349-0.352-0.43-0.103-0.081-0.035-0.251 0.404-0.103-0.061-0.541-1.221-0.436-1.271-0.76-0.046-0.324 0.33-0.314 0.535-0.186-0.004-0.227-0.885-0.502-0.949-0.755-0.066-0.252 0.182-0.233 0.408-0.121 0.057-0.256-0.179-0.562 0.069-0.688-0.187-0.076 0.081-0.324 0.269-0.226 0.184 0.097 0.402-0.176 0.162-0.369-0.244-0.195-0.64-0.351-0.398-0.547-0.056-0.089-0.063-0.635 0.428-0.577-0.289-0.394-0.98-0.251-1.136-0.346-0.153-0.095 0.138-0.352 0.329-0.316-0.127-0.534-0.627-0.356-0.811-0.742-0.183-0.388-0.791-0.455-1.111-0.367 0.008-0.041 0.004-0.114 0.049-0.142-0.195-0.112-0.434 0.024-0.559 0.194-0.129 0.171-0.272 0.134-0.362 0.122-0.069 0.186 0.187 0.22 0.128 0.334-0.059 0.115-0.244 0.138-0.071 0.393 0.173 0.257-0.1 0.225-0.212 0.2-0.111-0.024-0.188-0.195-0.117-0.313-0.127-0.04-0.169-0.172-0.139-0.346-0.361-0.115-0.449-0.166-0.461-0.289-0.011-0.126-0.217-0.177-0.275-0.126-0.062-0.154-0.235-0.147-0.31-0.091-0.075 0.057-0.274 0.123-0.386 0.027-0.02 0.049-0.053 0.181 0.014 0.219-0.133 0.051-0.331-0.537-0.531-0.208-0.097 0.241-0.436 0.43-0.565 0.441 0.15 0.125 0.046 0.46-0.151 0.495 0.189 0.065 0.195 0.231 0.047 0.323 0.443-0.121 0.495 0.162 0.352 0.316s-0.967 0.089-1.047 0.517c-0.08 0.429-0.243 0.704-0.417 0.846 0.084 0.026 0.237 0.019 0.292 0.002-0.074 0.087-0.119 0.261-0.078 0.418 0.102-0.064 0.316-0.203 0.367-0.292-0.033 0.09-0.16 0.385-0.064 0.449 0.258 0.025 0.516-0.419 0.582-0.562 0.141 0.196 0.156 0.483 0.031 0.658-0.214 0.292-0.617-0.235-0.836 0.046-0.219 0.282-0.407 0.093-0.569 0.343z" fill="#008065"/>
				<path d="m67.257 27.928c0.078 0.224-0.035 0.545-0.275 0.701-0.238 0.158 0.121 0.103 0.207 0.109-0.1 0.158-0.17 0.349 0.023 0.363 0.096 0.007 0.197 0.089 0.195 0.243-0.004 0.153 0.168 0.043 0.254-0.075 0.084-0.116 0.359-0.043 0.217 0.111-0.143 0.154-0.286 0.318-0.145 0.433 0.142 0.114 0.129 0.381-0.014 0.526 0.188 0.199-0.306 0.563-0.16 0.875 0.08-0.047 0.143-0.108 0.188-0.191 0.089-0.158 0.005 0.207 0.163 0.375 0.119-0.126 0.263-0.055 0.268 0.153 0.125-0.084 0.209-0.067 0.291 0.126 0.262-0.165 0.452-0.119 0.57 0.139 0.361-0.314 0.67-0.27 0.828 0.021 0.176-0.294 0.329-0.314 0.553-0.152-0.071-0.182 0.117-0.611 0.462-0.108 0.345 0.502 1.257 0.066 1.622 0.065 0.508-0.004 0.539 0.506 0.895 0.4-0.057-0.108 0.257-0.362 0.125-0.476 0.512 0.329 0.624 0.027 0.816 0.166 0.029-0.192-0.082-0.409 0.035-0.534 0.035 0.106 0.203 0.161 0.338 0.224-0.061-0.294 0.264-0.443 0.389-0.528-0.063 0.119 0.131 0.247 0.286 0.322-0.041-0.147-0.013-0.352 0.017-0.443 0.117 0.143 0.242 0.184 0.358 0.215-0.038-0.312-0.019-0.529 0.206-0.501 0.018-0.236-0.252-0.349-0.352-0.43-0.103-0.081-0.035-0.251 0.404-0.103-0.061-0.541-1.221-0.436-1.271-0.76-0.046-0.324 0.33-0.314 0.535-0.186-0.004-0.227-0.885-0.502-0.949-0.755-0.066-0.252 0.182-0.233 0.408-0.121 0.057-0.256-0.179-0.562 0.069-0.688-0.187-0.076 0.081-0.324 0.269-0.226 0.184 0.097 0.402-0.176 0.162-0.369-0.244-0.195-0.64-0.351-0.398-0.547-0.056-0.089-0.063-0.635 0.428-0.577-0.289-0.394-0.98-0.251-1.136-0.346-0.153-0.095 0.138-0.352 0.329-0.316-0.127-0.534-0.627-0.356-0.811-0.742-0.183-0.388-0.791-0.455-1.111-0.367 0.008-0.041 0.004-0.114 0.049-0.142-0.195-0.112-0.434 0.024-0.559 0.194-0.129 0.171-0.272 0.134-0.362 0.122-0.069 0.186 0.187 0.22 0.128 0.334-0.059 0.115-0.244 0.138-0.071 0.393 0.173 0.257-0.1 0.225-0.212 0.2-0.111-0.024-0.188-0.195-0.117-0.313-0.127-0.04-0.169-0.172-0.139-0.346-0.361-0.115-0.449-0.166-0.461-0.289-0.011-0.126-0.217-0.177-0.275-0.126-0.062-0.154-0.235-0.147-0.31-0.091-0.075 0.057-0.274 0.123-0.386 0.027-0.02 0.049-0.053 0.181 0.014 0.219-0.133 0.051-0.331-0.537-0.531-0.208-0.097 0.241-0.436 0.43-0.565 0.441 0.15 0.125 0.046 0.46-0.151 0.495 0.189 0.065 0.195 0.231 0.047 0.323 0.443-0.121 0.495 0.162 0.352 0.316s-0.967 0.089-1.047 0.517c-0.08 0.429-0.243 0.704-0.417 0.846 0.084 0.026 0.237 0.019 0.292 0.002-0.074 0.087-0.119 0.261-0.078 0.418 0.102-0.064 0.316-0.203 0.367-0.292-0.033 0.09-0.16 0.385-0.064 0.449 0.258 0.025 0.516-0.419 0.582-0.562 0.141 0.196 0.156 0.483 0.031 0.658-0.214 0.292-0.617-0.235-0.836 0.046-0.219 0.282-0.407 0.093-0.569 0.343z" stroke="#000" stroke-miterlimit="2.5" stroke-width=".0816" fill="none"/>
				<path d="m70.876 35.98c0.285-0.658 0.389-0.886 0.43-1.668 0.049-0.924 0.11-2.375-0.318-2.886-0.432-0.511 0.047-0.214 0.212-0.105 0.166 0.105 0.227-0.148 0.234-0.352 0.006-0.209 0.067-1.607-0.378-2.159 0.053-0.161 0.266-0.133 0.363-0.083-0.023-0.22 0.293-0.183 0.273-0.577 0.162 1.148 0.195 1.75 0.229 2.248 0.141-0.101 0.516-0.412 0.612-0.61 0.099-0.198 0.157-0.173 0.227-0.021 0.069 0.149-0.033 0.162-0.238 0.393-0.203 0.231-0.582 0.499-0.635 0.784-0.056 0.284-0.025 0.432 0.218 0.462s0.698-0.074 1.276-0.845c0.08-0.108 0.267 0.011 0.402 0.094 0.138 0.084 0.347 0.164 0.67 0.088-0.074 0.168-0.201 0.322-0.451 0.252-0.25-0.073-0.38-0.104-0.479-0.153-0.098-0.051-0.148 0.051-0.194 0.232-0.044 0.183-0.271 0.468-0.655 0.586-0.107 0.033 0.004 0.271-0.042 0.659-0.132 1.124 0.184 3.025 0.675 3.684l-2.431-0.023z" fill="#996B38"/>
				<path d="m70.876 35.98c0.285-0.658 0.389-0.886 0.43-1.668 0.049-0.924 0.11-2.375-0.318-2.886-0.432-0.511 0.047-0.214 0.212-0.105 0.166 0.105 0.227-0.148 0.234-0.352 0.006-0.209 0.067-1.607-0.378-2.159 0.053-0.161 0.266-0.133 0.363-0.083-0.023-0.22 0.293-0.183 0.273-0.577 0.162 1.148 0.195 1.75 0.229 2.248 0.141-0.101 0.516-0.412 0.612-0.61 0.099-0.198 0.157-0.173 0.227-0.021 0.069 0.149-0.033 0.162-0.238 0.393-0.203 0.231-0.582 0.499-0.635 0.784-0.056 0.284-0.025 0.432 0.218 0.462s0.698-0.074 1.276-0.845c0.08-0.108 0.267 0.011 0.402 0.094 0.138 0.084 0.347 0.164 0.67 0.088-0.074 0.168-0.201 0.322-0.451 0.252-0.25-0.073-0.38-0.104-0.479-0.153-0.098-0.051-0.148 0.051-0.194 0.232-0.044 0.183-0.271 0.468-0.655 0.586-0.107 0.033 0.004 0.271-0.042 0.659-0.132 1.124 0.184 3.025 0.675 3.684l-2.431-0.023z" stroke="#000" stroke-miterlimit="2.5" stroke-width=".0816" fill="none"/>
				<path d="m69.593 24.447c0.082 0.108 0.277 0.094 0.421-0.004 0.143-0.099 0.143 0.022 0.173 0.055 0.029 0.033 0.261 0.087 0.426 0.051 0.166-0.041 0.237 0.067 0.169 0.125-0.069 0.055-0.104 0.172-0.095 0.229 0.018 0.105-0.145 0.094-0.288-0.047-0.144-0.141-0.261-0.053-0.341 0.021-0.082 0.069-0.294-0.158-0.425-0.023-0.128 0.135-0.261-0.036-0.183-0.128 0.078-0.093 0.006-0.455 0.143-0.279z" fill="#fff"/>
				<path d="m69.593 24.447c0.082 0.108 0.277 0.094 0.421-0.004 0.143-0.099 0.143 0.022 0.173 0.055 0.029 0.033 0.261 0.087 0.426 0.051 0.166-0.041 0.237 0.067 0.169 0.125-0.069 0.055-0.104 0.172-0.095 0.229 0.018 0.105-0.145 0.094-0.288-0.047-0.144-0.141-0.261-0.053-0.341 0.021-0.082 0.069-0.294-0.158-0.425-0.023-0.128 0.135-0.261-0.036-0.183-0.128 0.078-0.093 0.006-0.455 0.143-0.279z" stroke="#000" stroke-miterlimit="2.5" stroke-width=".0408" fill="none"/>
				<path d="m69.378 25.266c0.111-0.126 0.297-0.142 0.355-0.014 0.061 0.129-0.115 0.094-0.148 0.035-0.031-0.06-0.268 0.045-0.207-0.021z" fill="#fff"/>
				<path d="m69.378 25.266c0.111-0.126 0.297-0.142 0.355-0.014 0.061 0.129-0.115 0.094-0.148 0.035-0.031-0.06-0.268 0.045-0.207-0.021z" stroke="#000" stroke-miterlimit="2.5" stroke-width=".0408" fill="none"/>
				<path d="m69.144 25.902c0.082 0.176 0.371 0.02 0.439-0.09 0.119 0.21 0.308-0.001 0.39 0.125 0.081 0.124 0.508 0.059 0.546 0.232 0.039 0.175-0.161 0.372-0.346 0.201-0.315-0.293-0.445 0.109-0.611-0.032-0.168-0.143-0.41 0.101-0.494-0.111-0.057-0.149-0.283-0.09-0.162-0.308 0.062-0.109 0.206-0.086 0.238-0.017z" fill="#fff"/>
				<path d="m69.144 25.902c0.082 0.176 0.371 0.02 0.439-0.09 0.119 0.21 0.308-0.001 0.39 0.125 0.081 0.124 0.508 0.059 0.546 0.232 0.039 0.175-0.161 0.372-0.346 0.201-0.315-0.293-0.445 0.109-0.611-0.032-0.168-0.143-0.41 0.101-0.494-0.111-0.057-0.149-0.283-0.09-0.162-0.308 0.062-0.109 0.206-0.086 0.238-0.017z" stroke="#000" stroke-miterlimit="2.5" stroke-width=".0408" fill="none"/>
				<path d="m67.87 27.955c0.327-0.133 0.426-0.203 0.603-0.106 0.173 0.095 0.399-0.01 0.515 0.029 0.115 0.039-0.127 0.213 0.131 0.248 0.255 0.035 0.336 0.217 0.015 0.196-0.323-0.02-0.416 0.139-0.636-0.002-0.221-0.142-0.387-0.025-0.512 0.17-0.123 0.197-0.316 0.441-0.307 0.193 0.01-0.246 0.229-0.291 0.264-0.444 0.035-0.151-0.241-0.214-0.073-0.284z" fill="#fff"/>
				<path d="m67.87 27.955c0.327-0.133 0.426-0.203 0.603-0.106 0.173 0.095 0.399-0.01 0.515 0.029 0.115 0.039-0.127 0.213 0.131 0.248 0.255 0.035 0.336 0.217 0.015 0.196-0.323-0.02-0.416 0.139-0.636-0.002-0.221-0.142-0.387-0.025-0.512 0.17-0.123 0.197-0.316 0.441-0.307 0.193 0.01-0.246 0.229-0.291 0.264-0.444 0.035-0.151-0.241-0.214-0.073-0.284z" stroke="#000" stroke-miterlimit="2.5" stroke-width=".0408" fill="none"/>
				<path d="m70.665 26.976c0.109 0.026 0.416-0.014 0.599-0.056 0.04 0.034 0.146 0.114 0.214 0.146-0.405 0.334-0.438 0.465-0.309 0.574-0.153-0.032-0.34-0.027-0.371 0.184-0.012 0.091-0.143 0.107-0.093-0.121 0.053-0.229 0.065-0.312 0.165-0.355 0.102-0.043 0.053-0.16-0.112-0.193-0.163-0.036-0.251-0.217-0.093-0.179z" fill="#fff"/>
				<path d="m70.665 26.976c0.109 0.026 0.416-0.014 0.599-0.056 0.04 0.034 0.146 0.114 0.214 0.146-0.405 0.334-0.438 0.465-0.309 0.574-0.153-0.032-0.34-0.027-0.371 0.184-0.012 0.091-0.143 0.107-0.093-0.121 0.053-0.229 0.065-0.312 0.165-0.355 0.102-0.043 0.053-0.16-0.112-0.193-0.163-0.036-0.251-0.217-0.093-0.179z" stroke="#000" stroke-miterlimit="2.5" stroke-width=".0408" fill="none"/>
				<path d="m71.407 25.733c0.093 0.026 0.223 0.06 0.423 0.044 0.201-0.018 0.301 0.069 0.198 0.129-0.102 0.059-0.24 0.127-0.198 0.253-0.118-0.021-0.064-0.206-0.278-0.222-0.213-0.017-0.348-0.266-0.145-0.204z" fill="#fff"/>
				<path d="m71.407 25.733c0.093 0.026 0.223 0.06 0.423 0.044 0.201-0.018 0.301 0.069 0.198 0.129-0.102 0.059-0.24 0.127-0.198 0.253-0.118-0.021-0.064-0.206-0.278-0.222-0.213-0.017-0.348-0.266-0.145-0.204z" stroke="#000" stroke-miterlimit="2.5" stroke-width=".0408" fill="none"/>
				<path d="m72.411 25.896c0.062 0.149 0.079 0.475-0.053 0.573-0.31 0.229 0.097 0.193 0.056 0.309 0.153-0.102 0.167-0.323 0.35-0.247 0.181 0.076 0.17-0.11 0.151-0.2-0.02-0.09 0.118-0.237 0.25-0.212-0.241-0.133-0.438-0.113-0.559-0.292-0.117-0.178-0.248-0.067-0.195 0.069z" fill="#fff"/>
				<path d="m72.411 25.896c0.062 0.149 0.079 0.475-0.053 0.573-0.31 0.229 0.097 0.193 0.056 0.309 0.153-0.102 0.167-0.323 0.35-0.247 0.181 0.076 0.17-0.11 0.151-0.2-0.02-0.09 0.118-0.237 0.25-0.212-0.241-0.133-0.438-0.113-0.559-0.292-0.117-0.178-0.248-0.067-0.195 0.069z" stroke="#000" stroke-miterlimit="2.5" stroke-width=".0408" fill="none"/>
				<path d="m73.548 25.869c0.033 0.241 0.262 0.177 0.254 0.33-0.016 0.154-0.238 0.126-0.07 0.418 0.162-0.132 0.371-0.301 0.529-0.259 0.158 0.045 0.186-0.036 0.158-0.215-0.027-0.177-0.235-0.028-0.348-0.223-0.111-0.195-0.223-0.296-0.287-0.178-0.062 0.12-0.08 0.201-0.236 0.127z" fill="#fff"/>
				<path d="m73.548 25.869c0.033 0.241 0.262 0.177 0.254 0.33-0.016 0.154-0.238 0.126-0.07 0.418 0.162-0.132 0.371-0.301 0.529-0.259 0.158 0.045 0.186-0.036 0.158-0.215-0.027-0.177-0.235-0.028-0.348-0.223-0.111-0.195-0.223-0.296-0.287-0.178-0.062 0.12-0.08 0.201-0.236 0.127z" stroke="#000" stroke-miterlimit="2.5" stroke-width=".0408" fill="none"/>
				<path d="m74.362 27.585c-0.186-0.004-0.349-0.11-0.41-0.27-0.062-0.16-0.191-0.148-0.258-0.01-0.066 0.14-0.329 0.315-0.437 0.317 0.271 0.113 0.481-0.086 0.647-0.011 0.169 0.075 0.362 0.071 0.458-0.026z" fill="#fff"/>
				<path d="m74.362 27.585c-0.186-0.004-0.349-0.11-0.41-0.27-0.062-0.16-0.191-0.148-0.258-0.01-0.066 0.14-0.329 0.315-0.437 0.317 0.271 0.113 0.481-0.086 0.647-0.011 0.169 0.075 0.362 0.071 0.458-0.026z" stroke="#000" stroke-miterlimit="2.5" stroke-width=".0408" fill="none"/>
				<path d="m72.261 27.803c0.26 0.123 0.699 0.149 0.93 0.104 0.23-0.046 0.547 0.177 0.846 0.086-0.239 0.136-0.322 0.346-0.113 0.426-0.037 0.183 0.118 0.267 0.354 0.275-0.11 0.042-0.209 0.169-0.196 0.305-0.064-0.15-0.245-0.3-0.358-0.235-0.025-0.209-0.308-0.447-0.474-0.408 0.168-0.06 0.128-0.218-0.033-0.229-0.161-0.014-0.392 0.041-0.374 0.218 0.017 0.178-0.294 0.152-0.383-0.061-0.09-0.214-0.58 0.089-0.378-0.246 0.097-0.171 0.245-0.147 0.179-0.235z" fill="#fff"/>
				<path d="m72.261 27.803c0.26 0.123 0.699 0.149 0.93 0.104 0.23-0.046 0.547 0.177 0.846 0.086-0.239 0.136-0.322 0.346-0.113 0.426-0.037 0.183 0.118 0.267 0.354 0.275-0.11 0.042-0.209 0.169-0.196 0.305-0.064-0.15-0.245-0.3-0.358-0.235-0.025-0.209-0.308-0.447-0.474-0.408 0.168-0.06 0.128-0.218-0.033-0.229-0.161-0.014-0.392 0.041-0.374 0.218 0.017 0.178-0.294 0.152-0.383-0.061-0.09-0.214-0.58 0.089-0.378-0.246 0.097-0.171 0.245-0.147 0.179-0.235z" stroke="#000" stroke-miterlimit="2.5" stroke-width=".0408" fill="none"/>
				<path d="m70.86 28.923c-0.434-0.354-0.85 0.243-1.025 0.032 0.068 0.449-0.482 0.531-0.337 0.77 0.066 0.107-0.011 0.266-0.104 0.343-0.196 0.16 0.59 0.354 0.512 0.071-0.148-0.539 0.192-0.471 0.144-0.671s0.454-0.12 0.457-0.306c0.042 0.139-0.245 0.219-0.212 0.441 0.226-0.233 0.696-0.197 0.565-0.68z" fill="#fff"/>
				<path d="m70.86 28.923c-0.434-0.354-0.85 0.243-1.025 0.032 0.068 0.449-0.482 0.531-0.337 0.77 0.066 0.107-0.011 0.266-0.104 0.343-0.196 0.16 0.59 0.354 0.512 0.071-0.148-0.539 0.192-0.471 0.144-0.671s0.454-0.12 0.457-0.306c0.042 0.139-0.245 0.219-0.212 0.441 0.226-0.233 0.696-0.197 0.565-0.68z" stroke="#000" stroke-miterlimit="2.5" stroke-width=".0408" fill="none"/>
				<path d="m68.48 30.409c-0.099 0.137-0.302 0.1-0.276-0.053 0.046-0.275-0.318-0.159-0.18-0.293 0.141-0.133 0.393-0.185 0.428-0.317 0.018 0.28 0.188 0.323 0.352 0.286 0.166-0.04 0.204 0.075 0.127 0.175-0.134 0.163 0.017 0.31 0.238 0.234 0.222-0.075 0.289 0.012 0.337 0.078-0.138-0.021-0.581 0.119-0.667-0.011-0.089-0.13-0.297-0.177-0.359-0.099z" fill="#fff"/>
				<path d="m68.48 30.409c-0.099 0.137-0.302 0.1-0.276-0.053 0.046-0.275-0.318-0.159-0.18-0.293 0.141-0.133 0.393-0.185 0.428-0.317 0.018 0.28 0.188 0.323 0.352 0.286 0.166-0.04 0.204 0.075 0.127 0.175-0.134 0.163 0.017 0.31 0.238 0.234 0.222-0.075 0.289 0.012 0.337 0.078-0.138-0.021-0.581 0.119-0.667-0.011-0.089-0.13-0.297-0.177-0.359-0.099z" stroke="#000" stroke-miterlimit="2.5" stroke-width=".0408" fill="none"/>
				<path d="m68.682 30.829c-0.056 0.073-0.117 0.235-0.198 0.303-0.08 0.066 0.086 0.132 0.238-0.012s0.047-0.41-0.04-0.291z" fill="#fff"/>
				<path d="m68.682 30.829c-0.056 0.073-0.117 0.235-0.198 0.303-0.08 0.066 0.086 0.132 0.238-0.012s0.047-0.41-0.04-0.291z" stroke="#000" stroke-miterlimit="2.5" stroke-width=".0408" fill="none"/>
				<path d="m72.14 24.44c0.09 0.131 0.354 0.12 0.48 0.042 0.119 0.128 0.275-0.111 0.436 0.194 0.191 0.36 0.523 0.129 0.613 0.275-0.028-0.111 0.232-0.195 0.47-0.058-0.172-0.143-0.47-0.131-0.563-0.101-0.389 0.125-0.346-0.45-0.65-0.359-0.303 0.09-0.297-0.174-0.379-0.035-0.085 0.137-0.317-0.226-0.407 0.042z" fill="#fff"/>
				<path d="m72.14 24.44c0.09 0.131 0.354 0.12 0.48 0.042 0.119 0.128 0.275-0.111 0.436 0.194 0.191 0.36 0.523 0.129 0.613 0.275-0.028-0.111 0.232-0.195 0.47-0.058-0.172-0.143-0.47-0.131-0.563-0.101-0.389 0.125-0.346-0.45-0.65-0.359-0.303 0.09-0.297-0.174-0.379-0.035-0.085 0.137-0.317-0.226-0.407 0.042z" stroke="#000" stroke-miterlimit="2.5" stroke-width=".0408" fill="none"/>
				<path d="m72.881 30.155c0.079-0.038 0.185-0.141 0.199-0.192 0.247-0.013 0.521-0.167 0.638-0.271 0.117-0.103 0.438 0.181 0.606 0.089 0.169-0.09 0.189 0.214 0.333 0.151 0.258-0.115 0.433 0.229 0.759 0.069-0.257 0.124-0.35 0.18-0.369 0.291-0.113-0.062-0.216 0.003-0.241 0.178-0.264 0.05-0.287-0.292-0.532-0.208s-0.366-0.497-0.714-0.23c-0.416 0.318-0.613 0.23-0.648 0.404 0.048-0.091-0.015-0.229-0.031-0.281z" fill="#fff"/>
				<path d="m72.881 30.155c0.079-0.038 0.185-0.141 0.199-0.192 0.247-0.013 0.521-0.167 0.638-0.271 0.117-0.103 0.438 0.181 0.606 0.089 0.169-0.09 0.189 0.214 0.333 0.151 0.258-0.115 0.433 0.229 0.759 0.069-0.257 0.124-0.35 0.18-0.369 0.291-0.113-0.062-0.216 0.003-0.241 0.178-0.264 0.05-0.287-0.292-0.532-0.208s-0.366-0.497-0.714-0.23c-0.416 0.318-0.613 0.23-0.648 0.404 0.048-0.091-0.015-0.229-0.031-0.281z" stroke="#000" stroke-miterlimit="2.5" stroke-width=".0408" fill="none"/>
				<path d="m69.71 26.994c-0.055 0.512 0.344 0.545 0.209 0.832-0.095 0.208 0 0.452 0.28 0.508 0.255 0.051 0.424-0.164 0.232-0.334 0.008-0.463-0.329-0.057-0.317-0.312 0.011-0.258-0.483-0.512-0.404-0.694z" fill="#fff"/>
				<path d="m69.71 26.994c-0.055 0.512 0.344 0.545 0.209 0.832-0.095 0.208 0 0.452 0.28 0.508 0.255 0.051 0.424-0.164 0.232-0.334 0.008-0.463-0.329-0.057-0.317-0.312 0.011-0.258-0.483-0.512-0.404-0.694z" stroke="#000" stroke-miterlimit="2.5" stroke-width=".0408" fill="none"/>
				<path d="m70.781 30.506c-0.255-0.061-0.378 0.105-0.171 0.349-0.002-0.094-0.033-0.365 0.171-0.349z" fill="#fff"/>
				<path d="m70.781 30.506c-0.255-0.061-0.378 0.105-0.171 0.349-0.002-0.094-0.033-0.365 0.171-0.349z" stroke="#000" stroke-miterlimit="2.5" stroke-width=".0408" fill="none"/>
				<path d="m69.55 30.895c0.091-0.312 0.303-0.256 0.32 0.035 0-0.113-0.209-0.201-0.32-0.035z" fill="#fff"/>
				<path d="m69.55 30.895c0.091-0.312 0.303-0.256 0.32 0.035 0-0.113-0.209-0.201-0.32-0.035z" stroke="#000" stroke-miterlimit="2.5" stroke-width=".0408" fill="none"/>
				<path d="m71.122 36.042c0.162-0.433 0.49-1.318 0.469-1.976m0.042-1.009c0-0.391-0.083-1.173-0.144-1.419m0.777 4.321c-0.081-0.268-0.286-0.885-0.347-1.255m0.51 0.946c-0.163-0.433-0.347-2.325-0.326-3.005m0.306-0.698c-0.024 0.471-0.024 1.708 0.04 2.14" stroke="#000" stroke-miterlimit="2.5" stroke-width=".0816" fill="none"/>
				<path d="m77.815 35.918v7.532c0 3.086-2.908 6.255-5.815 7.161-2.908-0.906-5.815-4.075-5.815-7.161v-7.532h11.63z" fill="#fff"/>
				<path d="m77.815 35.918v7.532c0 3.086-2.908 6.255-5.815 7.161-2.908-0.906-5.815-4.075-5.815-7.161v-7.532h11.63z" stroke="#000" stroke-miterlimit="2.5" stroke-width=".0816" fill="none"/>
				<path d="m77.815 35.918v7.532c0 0.834-0.213 1.675-0.578 2.473v-0.001l-5.237-4.531v-5.473h5.815z" fill="#FFE26D"/>
				<path d="m77.815 35.918v7.532c0 0.834-0.213 1.675-0.578 2.473v-0.001l-5.237-4.531v-5.473h5.815z" stroke="#000" stroke-miterlimit="2.5" stroke-width=".0816" fill="none"/>
				<path d="m72 50.611c2.122-0.661 4.245-2.527 5.237-4.689l-5.237-4.531-5.236 4.531c0.991 2.162 3.112 4.028 5.236 4.689z" fill="#003876"/>
				<path d="m72 50.611c2.122-0.661 4.245-2.527 5.237-4.689l-5.237-4.531-5.236 4.531c0.991 2.162 3.112 4.028 5.236 4.689z" stroke="#000" stroke-miterlimit="2.5" stroke-width=".0816" fill="none"/>
				<line y2="45.117" x2="74.872" y1="45.471" x1="73.914" fill="#fff"/>
					<line stroke-width=".0816" y2="45.117" x2="74.872" stroke="#000" stroke-linecap="round" stroke-miterlimit="2.5" y1="45.471" x1="73.914" fill="none"/>
				<line y2="42.75" x2="72.008" y1="43.573" x1="72.008" fill="#fff"/>
					<line stroke-width=".0816" y2="42.75" x2="72.008" stroke="#000" stroke-linecap="round" stroke-miterlimit="2.5" y1="43.573" x1="72.008" fill="none"/>
				<line y2="43.183" x2="70.751" y1="43.891" x1="70.751" fill="#fff"/>
					<line stroke-width=".0816" y2="43.183" x2="70.751" stroke="#000" stroke-linecap="round" stroke-miterlimit="2.5" y1="43.891" x1="70.751" fill="none"/>
				<line y2="42.816" x2="73.46" y1="43.527" x1="73.46" fill="#fff"/>
					<line stroke-width=".0816" y2="42.816" x2="73.46" stroke="#000" stroke-linecap="round" stroke-miterlimit="2.5" y1="43.527" x1="73.46" fill="none"/>
				<line y2="43.943" x2="72.342" y1="43.543" x1="72.927" fill="#fff"/>
					<line stroke-width=".0816" y2="43.943" x2="72.342" stroke="#000" stroke-linecap="round" stroke-miterlimit="2.5" y1="43.543" x1="72.927" fill="none"/>
				<line y2="44.757" x2="72.342" y1="44.171" x1="72.812" fill="#fff"/>
					<line stroke-width=".0816" y2="44.757" x2="72.342" stroke="#000" stroke-linecap="round" stroke-miterlimit="2.5" y1="44.171" x1="72.812" fill="none"/>
				<line y2="45.6" x2="72.217" y1="44.931" x1="72.698" fill="#fff"/>
					<line stroke-width=".0816" y2="45.6" x2="72.217" stroke="#000" stroke-linecap="round" stroke-miterlimit="2.5" y1="44.931" x1="72.698" fill="none"/>
				<path d="m74.827 45.132c0.071 0.165-0.136 0.496 0.014 0.813-0.183 0.112-0.151 0.277-0.297 0.369-0.252-0.392-0.152-0.774-0.293-0.972l0.576-0.21z" fill="#fff"/>
				<path d="m74.827 45.132c0.071 0.165-0.136 0.496 0.014 0.813-0.183 0.112-0.151 0.277-0.297 0.369-0.252-0.392-0.152-0.774-0.293-0.972l0.576-0.21z" stroke="#000" stroke-miterlimit="2.5" stroke-width=".0816" fill="none"/>
				<path d="m71.257 43.714c-0.287 0.05-0.718 0.171-0.924 0.248-0.064 0.14-0.141 0.376-0.118 0.513 0.245-0.086 0.734-0.227 0.992-0.29-0.003-0.082 0.007-0.34 0.05-0.471z" fill="#fff"/>
				<path d="m71.257 43.714c-0.287 0.05-0.718 0.171-0.924 0.248-0.064 0.14-0.141 0.376-0.118 0.513 0.245-0.086 0.734-0.227 0.992-0.29-0.003-0.082 0.007-0.34 0.05-0.471z" stroke="#000" stroke-miterlimit="2.5" stroke-width=".0816" fill="none"/>
				<path d="m71.207 44.185c-0.288 0.05-0.845 0.203-1.021 0.292-0.089 0.178-0.121 0.571-0.098 0.8 0.254-0.053 0.775-0.24 1.019-0.271-0.017-0.168 0.013-0.662 0.1-0.821z" fill="#fff"/>
				<path d="m71.207 44.185c-0.288 0.05-0.845 0.203-1.021 0.292-0.089 0.178-0.121 0.571-0.098 0.8 0.254-0.053 0.775-0.24 1.019-0.271-0.017-0.168 0.013-0.662 0.1-0.821z" stroke="#000" stroke-miterlimit="2.5" stroke-width=".0816" fill="none"/>
				<path d="m71.107 45.005c-0.277 0.05-0.857 0.179-1.046 0.245-0.125 0.226-0.197 0.638-0.156 0.864 0.251-0.071 0.92-0.163 1.161-0.217-0.032-0.164-0.073-0.658 0.041-0.892z" fill="#fff"/>
				<path d="m71.107 45.005c-0.277 0.05-0.857 0.179-1.046 0.245-0.125 0.226-0.197 0.638-0.156 0.864 0.251-0.071 0.92-0.163 1.161-0.217-0.032-0.164-0.073-0.658 0.041-0.892z" stroke="#000" stroke-miterlimit="2.5" stroke-width=".0816" fill="none"/>
				<path d="m71.077 45.884c-0.377 0.056-0.885 0.128-1.172 0.23-0.125 0.228-0.135 0.566-0.094 0.792 0.365-0.041 0.837 0.053 1.16-0.009-0.031-0.165-0.009-0.777 0.106-1.013z" fill="#fff"/>
				<path d="m71.077 45.884c-0.377 0.056-0.885 0.128-1.172 0.23-0.125 0.228-0.135 0.566-0.094 0.792 0.365-0.041 0.837 0.053 1.16-0.009-0.031-0.165-0.009-0.777 0.106-1.013z" stroke="#000" stroke-miterlimit="2.5" stroke-width=".0816" fill="none"/>
				<path d="m72.572 43.45c-0.284 0.021-0.829 0.128-1.112 0.183-0.096 0.135-0.117 0.351-0.125 0.557 0.281-0.033 0.915-0.039 1.133-0.051-0.001-0.216 0.029-0.484 0.104-0.689z" fill="#fff"/>
				<path d="m72.572 43.45c-0.284 0.021-0.829 0.128-1.112 0.183-0.096 0.135-0.117 0.351-0.125 0.557 0.281-0.033 0.915-0.039 1.133-0.051-0.001-0.216 0.029-0.484 0.104-0.689z" stroke="#000" stroke-miterlimit="2.5" stroke-width=".0816" fill="none"/>
				<path d="m72.478 44.117c-0.281 0.023-0.861 0.018-1.143 0.072-0.118 0.195-0.137 0.536-0.136 0.815 0.283-0.035 1.015-0.123 1.232-0.135-0.045-0.246 0.006-0.504 0.047-0.752z" fill="#fff"/>
				<path d="m72.478 44.117c-0.281 0.023-0.861 0.018-1.143 0.072-0.118 0.195-0.137 0.536-0.136 0.815 0.283-0.035 1.015-0.123 1.232-0.135-0.045-0.246 0.006-0.504 0.047-0.752z" stroke="#000" stroke-miterlimit="2.5" stroke-width=".0816" fill="none"/>
				<path d="m72.442 44.85c-0.271 0.022-0.97 0.1-1.243 0.155-0.112 0.194-0.099 0.605-0.097 0.884 0.322-0.084 0.911-0.142 1.296-0.227-0.044-0.245 0.005-0.565 0.044-0.812z" fill="#fff"/>
				<path d="m72.442 44.85c-0.271 0.022-0.97 0.1-1.243 0.155-0.112 0.194-0.099 0.605-0.097 0.884 0.322-0.084 0.911-0.142 1.296-0.227-0.044-0.245 0.005-0.565 0.044-0.812z" stroke="#000" stroke-miterlimit="2.5" stroke-width=".0816" fill="none"/>
				<path d="m72.414 45.662c-0.272 0.023-0.989 0.143-1.259 0.196-0.113 0.195-0.113 0.709-0.1 1.048 0.366-0.062 1.082 0.075 1.467-0.01-0.095-0.338-0.148-0.987-0.108-1.234z" fill="#fff"/>
				<path d="m72.414 45.662c-0.272 0.023-0.989 0.143-1.259 0.196-0.113 0.195-0.113 0.709-0.1 1.048 0.366-0.062 1.082 0.075 1.467-0.01-0.095-0.338-0.148-0.987-0.108-1.234z" stroke="#000" stroke-miterlimit="2.5" stroke-width=".0816" fill="none"/>
				<path d="m74.024 43.45c-0.285 0.02-0.792-0.012-1.144 0.03-0.1 0.133-0.144 0.31-0.153 0.515 0.285-0.031 0.967 0 1.187-0.01 0-0.215 0.034-0.33 0.11-0.535z" fill="#fff"/>
				<path d="m74.024 43.45c-0.285 0.02-0.792-0.012-1.144 0.03-0.1 0.133-0.144 0.31-0.153 0.515 0.285-0.031 0.967 0 1.187-0.01 0-0.215 0.034-0.33 0.11-0.535z" stroke="#000" stroke-miterlimit="2.5" stroke-width=".0816" fill="none"/>
				<path d="m73.938 43.964c-0.287 0.021-0.861-0.01-1.211 0.031-0.1 0.247-0.145 0.546-0.145 0.833 0.285-0.031 1.166-0.031 1.387-0.041-0.066-0.308-0.109-0.616-0.031-0.823z" fill="#fff"/>
				<path d="m73.938 43.964c-0.287 0.021-0.861-0.01-1.211 0.031-0.1 0.247-0.145 0.546-0.145 0.833 0.285-0.031 1.166-0.031 1.387-0.041-0.066-0.308-0.109-0.616-0.031-0.823z" stroke="#000" stroke-miterlimit="2.5" stroke-width=".0816" fill="none"/>
				<path d="m73.979 44.777c-0.285 0.02-1.012 0-1.364 0.041-0.108 0.309-0.153 0.657-0.076 1.019 0.286-0.031 1.255-0.053 1.475-0.064-0.066-0.307-0.12-0.677-0.035-0.996z" fill="#fff"/>
				<path d="m73.979 44.777c-0.285 0.02-1.012 0-1.364 0.041-0.108 0.309-0.153 0.657-0.076 1.019 0.286-0.031 1.255-0.053 1.475-0.064-0.066-0.307-0.12-0.677-0.035-0.996z" stroke="#000" stroke-miterlimit="2.5" stroke-width=".0816" fill="none"/>
				<path d="m74.024 45.773c-0.285 0.023-1.133 0.023-1.485 0.064-0.077 0.38-0.023 0.698 0.054 1.06 0.527-0.021 1.381 0.021 1.6 0.009-0.131-0.308-0.19-0.741-0.169-1.133z" fill="#fff"/>
				<path d="m74.024 45.773c-0.285 0.023-1.133 0.023-1.485 0.064-0.077 0.38-0.023 0.698 0.054 1.06 0.527-0.021 1.381 0.021 1.6 0.009-0.131-0.308-0.19-0.741-0.169-1.133z" stroke="#000" stroke-miterlimit="2.5" stroke-width=".0816" fill="none"/>
				<path d="m70.751 43.225c-0.266 0.185-0.426 0.004-0.631 0.127-0.147 0.087-0.309 0.205-0.283 0.33 0.21-0.104 0.184 0.016 0.361-0.084 0.178-0.096 0.281 0.13 0.553-0.029v-0.344z" fill="#fff"/>
				<path d="m70.751 43.225c-0.266 0.185-0.426 0.004-0.631 0.127-0.147 0.087-0.309 0.205-0.283 0.33 0.21-0.104 0.184 0.016 0.361-0.084 0.178-0.096 0.281 0.13 0.553-0.029v-0.344z" stroke="#000" stroke-miterlimit="2.5" stroke-width=".0816" fill="none"/>
				<path d="m72.008 42.785c-0.114 0.191-0.681-0.076-0.911 0.176-0.005 0.068 0.014 0.299-0.007 0.375 0.231-0.252 0.804 0.083 0.918-0.107v-0.444z" fill="#fff"/>
				<path d="m72.008 42.785c-0.114 0.191-0.681-0.076-0.911 0.176-0.005 0.068 0.014 0.299-0.007 0.375 0.231-0.252 0.804 0.083 0.918-0.107v-0.444z" stroke="#000" stroke-miterlimit="2.5" stroke-width=".0816" fill="none"/>
				<path d="m73.46 42.998c-0.203-0.264-0.778 0.144-0.998-0.1-0.047 0.135 0.258 0.498 0.434 0.422 0.195-0.082 0.429-0.113 0.564 0.031v-0.353z" fill="#fff"/>
				<path d="m73.46 42.998c-0.203-0.264-0.778 0.144-0.998-0.1-0.047 0.135 0.258 0.498 0.434 0.422 0.195-0.082 0.429-0.113 0.564 0.031v-0.353z" stroke="#000" stroke-miterlimit="2.5" stroke-width=".0816" fill="none"/>
				<path d="m70.304 44.088c-0.807 0.967-1.77 1.893-2.562 2.407 0.764-0.153 1.777 0.135 2.07 0.411-0.356-0.388-0.231-2.056 0.492-2.818z" fill="#fff"/>
				<path d="m70.304 44.088c-0.807 0.967-1.77 1.893-2.562 2.407 0.764-0.153 1.777 0.135 2.07 0.411-0.356-0.388-0.231-2.056 0.492-2.818z" stroke="#000" stroke-miterlimit="2.5" stroke-width=".0816" fill="none"/>
				<path stroke-width=".0816" stroke-miterlimit="2.5" d="m74.932 47.564c0.21-0.123 0.112-0.421 0.49-0.699-0.123 0.041-0.315 0.062-0.847 0.062h-4.495c-0.797 0-1.757-0.247-2.35-0.433 0.326 0.206 1.153 0.583 1.429 1.091 0.36 0.659 2.189 2.1 5.773-0.021z" stroke="#000"/>
				<path d="m67.763 47.55c1.111 1.433 2.674 2.574 4.237 3.062 1.569-0.488 3.125-1.629 4.239-3.067-0.312 0.229-1.176 0.188-1.423 0.006-0.312 0.23-1.165 0.182-1.411 0-0.311 0.23-1.164 0.182-1.41 0-0.313 0.23-1.165 0.182-1.412 0-0.312 0.23-1.164 0.182-1.411 0-0.312 0.229-1.165 0.182-1.409-0.001z" fill="#078FC7"/>
				<path d="m67.763 47.55c1.111 1.433 2.674 2.574 4.237 3.062 1.569-0.488 3.125-1.629 4.239-3.067-0.312 0.229-1.176 0.188-1.423 0.006-0.312 0.23-1.165 0.182-1.411 0-0.311 0.23-1.164 0.182-1.41 0-0.313 0.23-1.165 0.182-1.412 0-0.312 0.23-1.164 0.182-1.411 0-0.312 0.229-1.165 0.182-1.409-0.001z" stroke="#000" stroke-miterlimit="2.5" stroke-width=".0816" fill="none"/>
				<path d="m75.447 48.315c-0.35 0.045-0.768-0.014-0.927-0.137-0.298 0.231-1.107 0.182-1.342 0-0.296 0.231-1.106 0.182-1.339 0-0.298 0.231-1.107 0.182-1.342 0-0.296 0.231-1.104 0.182-1.339 0-0.129 0.1-0.355 0.149-0.59 0.154m5.484 1.108c-0.316 0.016-0.656-0.044-0.795-0.152-0.297 0.229-1.105 0.183-1.341 0-0.296 0.229-1.106 0.183-1.339 0-0.138 0.106-0.383 0.152-0.629 0.155" stroke="#FFE26D" stroke-miterlimit="2.5" stroke-width=".0816" fill="none"/>
				<path d="m75.671 47.988c-0.329 0.025-0.696-0.033-0.84-0.145-0.299 0.229-1.107 0.182-1.341 0-0.296 0.229-1.106 0.182-1.341 0-0.297 0.229-1.105 0.182-1.341 0-0.296 0.229-1.106 0.182-1.339 0-0.258 0.196-0.895 0.19-1.214 0.067m6.852 0.754c-0.152-0.025-0.283-0.068-0.356-0.124-0.296 0.228-1.105 0.181-1.34 0-0.296 0.228-1.105 0.181-1.339 0-0.298 0.228-1.107 0.181-1.341 0-0.297 0.228-1.106 0.181-1.34 0-0.111 0.085-0.294 0.133-0.492 0.148m4.745 1.037c-0.062-0.021-0.117-0.048-0.153-0.076-0.296 0.229-1.106 0.182-1.341 0-0.297 0.229-1.105 0.182-1.341 0-0.087 0.067-0.22 0.111-0.37 0.135" stroke="#008065" stroke-miterlimit="2.5" stroke-width=".0816" fill="none"/>
				<path d="m77.491 41.359c-0.735-0.623-0.748-1.533-2.093-2.998-0.479-0.522-1.041-1.324-1.658-2.074-0.095-0.115-0.558 0.167-0.458 0.308 0.637 0.798 1.072 1.184 1.812 2.318 0.742 1.135 0.717 1.938 1.742 3.144 0.149 0.171 0.895-0.495 0.655-0.698z" fill="#996B38"/>
				<path d="m77.491 41.359c-0.735-0.623-0.748-1.533-2.093-2.998-0.479-0.522-1.041-1.324-1.658-2.074-0.095-0.115-0.558 0.167-0.458 0.308 0.637 0.798 1.072 1.184 1.812 2.318 0.742 1.135 0.717 1.938 1.742 3.144 0.149 0.171 0.895-0.495 0.655-0.698z" stroke="#000" stroke-miterlimit="2.5" stroke-width=".0816" fill="none"/>
				<path d="m74.046 37.726c-0.123 0.193-0.424 0.792-0.488 1.114-0.529-0.262-1.185-0.748-1.414-1.369 0.312-0.079 0.883-0.299 1.174-0.604 0.172 0.157 0.613 0.678 0.728 0.859z" fill="#fff"/>
				<path d="m74.046 37.726c-0.123 0.193-0.424 0.792-0.488 1.114-0.529-0.262-1.185-0.748-1.414-1.369 0.312-0.079 0.883-0.299 1.174-0.604 0.172 0.157 0.613 0.678 0.728 0.859z" stroke="#000" stroke-miterlimit="2.5" stroke-width=".0816" fill="none"/>
				<path d="m74.04 37.754c0.07 0.067 0.162 0 0.205-0.028-0.028-0.03-0.057-0.057-0.073-0.08-0.09-0.109 0.296-0.431 0.351-0.363 0.024 0.032 0.061 0.083 0.092 0.114 0.088-0.085 0.121-0.148 0.006-0.287-0.105-0.126-0.441-0.539-0.559-0.682-0.063-0.075-0.109-0.083-0.213-0.062-0.143 0.026-0.385 0.223-0.477 0.333-0.068 0.084-0.108 0.142-0.051 0.206 0.149 0.161 0.481 0.575 0.719 0.849z" fill="#fff"/>
				<path d="m74.04 37.754c0.07 0.067 0.162 0 0.205-0.028-0.028-0.03-0.057-0.057-0.073-0.08-0.09-0.109 0.296-0.431 0.351-0.363 0.024 0.032 0.061 0.083 0.092 0.114 0.088-0.085 0.121-0.148 0.006-0.287-0.105-0.126-0.441-0.539-0.559-0.682-0.063-0.075-0.109-0.083-0.213-0.062-0.143 0.026-0.385 0.223-0.477 0.333-0.068 0.084-0.108 0.142-0.051 0.206 0.149 0.161 0.481 0.575 0.719 0.849z" stroke="#000" stroke-miterlimit="2.5" stroke-width=".0816" fill="none"/>
				<path d="m72.913 40.521c-0.295-0.295-0.466-0.521-0.615-0.37-0.148 0.151 0.075 0.32 0.368 0.617l0.247-0.247z" fill="#996B38"/>
				<path d="m72.913 40.521c-0.295-0.295-0.466-0.521-0.615-0.37-0.148 0.151 0.075 0.32 0.368 0.617l0.247-0.247z" stroke="#000" stroke-miterlimit="2.5" stroke-width=".0816" fill="none"/>
				<path d="m76.794 36.611c-0.294-0.296-0.464-0.521-0.613-0.371s0.072 0.322 0.367 0.617l0.246-0.246z" fill="#996B38"/>
				<path d="m76.794 36.611c-0.294-0.296-0.464-0.521-0.613-0.371s0.072 0.322 0.367 0.617l0.246-0.246z" stroke="#000" stroke-miterlimit="2.5" stroke-width=".0816" fill="none"/>
				<path d="m73.206 41.35l-0.613-0.617 4.178-4.207 0.613 0.617c-0.726 1.348-2.748 3.405-4.178 4.207z" fill="#fff"/>
				<path d="m73.206 41.35l-0.613-0.617 4.178-4.207 0.613 0.617c-0.726 1.348-2.748 3.405-4.178 4.207z" stroke="#000" stroke-miterlimit="2.5" stroke-width=".0816" fill="none"/>
				<path d="m70.848 41.243c0.157 0.047 0.321 0.212 0.374 0.089 0.039-0.089 0-0.204-0.285-0.366-0.378-0.216-0.971-1.018-1.559-1.708-0.444-0.521-1.158-1.443-1.826-2.293-0.508-0.646-0.804-0.412-0.939-0.297-0.14 0.115-0.387 0.406 0.21 0.972 0.782 0.743 1.633 1.54 2.108 2.03 0.631 0.649 1.335 1.304 1.517 1.701 0.135 0.3 0.25 0.384 0.329 0.33 0.141-0.093 0.014-0.182-0.046-0.36-0.016-0.046 0.036-0.125 0.117-0.098z" fill="#996B38"/>
				<path d="m70.848 41.243c0.157 0.047 0.321 0.212 0.374 0.089 0.039-0.089 0-0.204-0.285-0.366-0.378-0.216-0.971-1.018-1.559-1.708-0.444-0.521-1.158-1.443-1.826-2.293-0.508-0.646-0.804-0.412-0.939-0.297-0.14 0.115-0.387 0.406 0.21 0.972 0.782 0.743 1.633 1.54 2.108 2.03 0.631 0.649 1.335 1.304 1.517 1.701 0.135 0.3 0.25 0.384 0.329 0.33 0.141-0.093 0.014-0.182-0.046-0.36-0.016-0.046 0.036-0.125 0.117-0.098z" stroke="#000" stroke-miterlimit="2.5" stroke-width=".0816" fill="none"/>
				<path d="m69.72 37.705c-0.162-0.163-0.1-0.49 0.138-0.73 0.237-0.239 0.563-0.303 0.726-0.138l1.107 1.116c0.164 0.163 0.102 0.49-0.137 0.732-0.237 0.238-0.562 0.302-0.725 0.138l-1.109-1.118z" fill="#fff"/>
				<path d="m69.72 37.705c-0.162-0.163-0.1-0.49 0.138-0.73 0.237-0.239 0.563-0.303 0.726-0.138l1.107 1.116c0.164 0.163 0.102 0.49-0.137 0.732-0.237 0.238-0.562 0.302-0.725 0.138l-1.109-1.118z" stroke="#000" stroke-miterlimit="2.5" stroke-width=".0816" fill="none"/>
				<path d="m70.829 38.822c0.162 0.164 0.487 0.101 0.725-0.138 0.238-0.241 0.301-0.568 0.137-0.732-0.162-0.164-0.486-0.101-0.726 0.138-0.237 0.241-0.298 0.569-0.136 0.732z" fill="#fff"/>
				<path d="m70.829 38.822c0.162 0.164 0.487 0.101 0.725-0.138 0.238-0.241 0.301-0.568 0.137-0.732-0.162-0.164-0.486-0.101-0.726 0.138-0.237 0.241-0.298 0.569-0.136 0.732z" stroke="#000" stroke-miterlimit="2.5" stroke-width=".0816" fill="none"/>
				<path d="m70.455 38.377c-1.033 1.04-1.644 1.844-2.516 2.724-0.509 0.513-0.934 0.717-1.133 0.517-0.198-0.198 0.005-0.626 0.516-1.141 0.872-0.879 1.669-1.49 2.702-2.532 0.088-0.091 0.514 0.347 0.431 0.432z" fill="#996B38"/>
				<path d="m70.455 38.377c-1.033 1.04-1.644 1.844-2.516 2.724-0.509 0.513-0.934 0.717-1.133 0.517-0.198-0.198 0.005-0.626 0.516-1.141 0.872-0.879 1.669-1.49 2.702-2.532 0.088-0.091 0.514 0.347 0.431 0.432z" stroke="#000" stroke-miterlimit="2.5" stroke-width=".0816" fill="none"/>
				<path d="m74.391 25.893c-0.391 0.628 0.459 1.208 1.718 1.992 1.262 0.784 9.219 5.154 9.744 5.489s0.989 0.562 1.104 0.785c0.115 0.222 0.064 0.34 0.519 0.501 0.253 0.09 0.312-0.22 0.141-0.286-0.24-0.096-0.331-0.195-0.258-0.335 0.074-0.139 0.22-0.089 0.413 0.087 0.133 0.123 0.383-0.064 0.191-0.255-0.344-0.34-0.426-0.243-0.674-0.248-0.249-0.005-0.657-0.325-1.186-0.652-0.528-0.329-7.928-5.605-9.179-6.399-1.255-0.795-2.153-1.295-2.533-0.679z" fill="#CD7418"/>
				<path d="m74.391 25.893c-0.391 0.628 0.459 1.208 1.718 1.992 1.262 0.784 9.219 5.154 9.744 5.489s0.989 0.562 1.104 0.785c0.115 0.222 0.064 0.34 0.519 0.501 0.253 0.09 0.312-0.22 0.141-0.286-0.24-0.096-0.331-0.195-0.258-0.335 0.074-0.139 0.22-0.089 0.413 0.087 0.133 0.123 0.383-0.064 0.191-0.255-0.344-0.34-0.426-0.243-0.674-0.248-0.249-0.005-0.657-0.325-1.186-0.652-0.528-0.329-7.928-5.605-9.179-6.399-1.255-0.795-2.153-1.295-2.533-0.679zm1.198 1.45c1.26 0.783 9.178 5.229 9.703 5.562m-9.56-5.805c1.237 0.817 9.076 5.405 9.592 5.752" stroke="#000" stroke-miterlimit="2.5" stroke-width=".0816" fill="none"/>
				<path d="m82.349 49.099c0.02 0.319-0.143 0.442-0.102 0.659 0.041 0.215 0.162 0.287 0.234 0.535 0.07 0.245 0.349 0.213 0.459 0.133 0.026-0.02 0.047-0.04 0.065-0.063 0.278 0.141 0.423 0.017 0.426-0.137 0.041 0.052 0.143 0.097 0.245 0.055 0.054-0.021 0.071-0.08 0.087-0.126 0.151 0 0.188-0.037 0.22-0.139 0.008-0.03 0.012-0.071 0.006-0.115 0.326 0.031 0.229-0.351 0.085-0.463-0.143-0.112-0.265-0.194-0.296-0.349-0.322-0.253-1.058-0.176-1.429 0.01z" fill="#996B38"/>
				<path d="m82.349 49.099c0.02 0.319-0.143 0.442-0.102 0.659 0.041 0.215 0.162 0.287 0.234 0.535 0.07 0.245 0.349 0.213 0.459 0.133 0.026-0.02 0.047-0.04 0.065-0.063 0.278 0.141 0.423 0.017 0.426-0.137 0.041 0.052 0.143 0.097 0.245 0.055 0.054-0.021 0.071-0.08 0.087-0.126 0.151 0 0.188-0.037 0.22-0.139 0.008-0.03 0.012-0.071 0.006-0.115 0.326 0.031 0.229-0.351 0.085-0.463-0.143-0.112-0.265-0.194-0.296-0.349-0.322-0.253-1.058-0.176-1.429 0.01z" stroke="#000" stroke-miterlimit="2.5" stroke-width=".0816" fill="none"/>
				<path d="m78.343 48.07c-0.254 0.061-0.303 0.457-0.848 0.405-0.214-0.021-0.424 0.111-0.709 0.144-0.133 0.015-0.138 0.179-0.025 0.262 0.048 0.236 0.184 0.247 0.645 0.237 0.152 0.082 0.48 0.102 0.715 0 0.234-0.103 0.867-0.083 1.234 0.052 0.369 0.133 0.512-0.164 0.48-0.329-0.029-0.165-0.086-0.324 0.006-0.499-0.317-0.163-1.278-0.34-1.498-0.272z" fill="#996B38"/>
				<path d="m78.343 48.07c-0.254 0.061-0.303 0.457-0.848 0.405-0.214-0.021-0.424 0.111-0.709 0.144-0.133 0.015-0.138 0.179-0.025 0.262 0.048 0.236 0.184 0.247 0.645 0.237 0.152 0.082 0.48 0.102 0.715 0 0.234-0.103 0.867-0.083 1.234 0.052 0.369 0.133 0.512-0.164 0.48-0.329-0.029-0.165-0.086-0.324 0.006-0.499-0.317-0.163-1.278-0.34-1.498-0.272z" stroke="#000" stroke-miterlimit="2.5" stroke-width=".0816" fill="none"/>
				<path d="m74.916 35.919c-0.03-0.14 0.378-0.212 0.435-0.223 0.219-0.04 0.436-0.158 0.541-0.216 0.262-0.137 0.51-0.149 0.717-0.045 0.203 0.103 0.504 0.127 0.724 0.174 0.245 0.052 0.675 0.124 0.985 0.273-0.098-0.98 0.105-1.395 0.252-1.631 0.152-0.249 0.184-0.535 0.174-1.133-0.012-0.596 0.5-0.854 0.775-1.029 0.137-0.086 0.239-0.137 0.362-0.167 0.063-0.139 0.229-0.296 0.546-0.481 0.318-0.184 0.215-0.452 0.205-0.832-1.572-1.359 1.094-3.036 1.828-1.771 0.012 0.186 0.195 0.391 0.184 0.505-0.01 0.114-0.051 0.226-0.111 0.299-0.061 0.072-0.01 0.205 0.042 0.381 0.05 0.174-0.023 0.492-0.134 0.668-0.113 0.175-0.175 0.288-0.215 0.452-0.041 0.165-0.153 0.257-0.266 0.298-0.028 0.011-0.066 0.019-0.117 0.019 0 0.066 0 0.125-0.001 0.175-0.01 0.185 0.241 0.448 0.478 0.459 0.188-0.003 0.362 0.034 0.467 0.11 0.318 0.226 0.525 0.129 0.696 0.339 0.398 0.494 0.541 0.752 0.531 1.398 0.356 0.35 0.706 0.712 0.694 1.482 0.174-0.422 0.367-0.391 0.502-0.71 0.039-0.097 0.122-0.175 0.224-0.216-0.024-0.062-0.03-0.132-0.021-0.207-0.234-0.204-0.092-0.38-0.193-0.564-0.105-0.185-0.041-0.36 0.008-0.452 0.051-0.094 0.094-0.132 0.176-0.227 0.112-0.129 0.296-0.035 0.301 0.114 0.003 0.073 0.001 0.077-0.02 0.123 0.055 0.023 0.265 0.158 0.352 0.195 0.051 0.046 0.449 0.267 0.653 0.426 0.041 0.3-0.101 0.87-0.255 1.005-0.154 0.134-0.357 0.462-0.388 0.658-0.031 0.195-0.103 0.412-0.256 0.637-0.152 0.227-0.378 0.475-0.552 0.628-0.173 0.155-0.203 0.196-0.398 0.196-0.192 0-0.358-0.051-0.531-0.236-0.174-0.185-0.184-0.371-0.336-0.492-0.152-0.125-0.609-0.512-0.757-0.948-0.019 0.045-0.035 0.087-0.075 0.123-0.011 0.163 0.033 0.359-0.159 0.442 0 0.154 0.021 0.69-0.005 0.993-0.506 0.118-2.641 0.058-3.254-0.149-0.021-0.371-0.042-0.823-0.104-1.028-0.081 0.289-0.367 0.513-0.469 0.822-0.103 0.31-0.204 0.557-0.47 0.557-0.248 0-0.601-0.308-0.865-0.418v-0.775h-1.184c-0.167 0.082-0.38 0.014-0.46 0.049-0.104 0.049-0.297 0.074-0.408 0.022-0.042-0.02-0.061-0.047-0.061-0.071h-0.787v-0.001z" fill="#996B38"/>
				<path d="m74.916 35.919c-0.03-0.14 0.378-0.212 0.435-0.223 0.219-0.04 0.436-0.158 0.541-0.216 0.262-0.137 0.51-0.149 0.717-0.045 0.203 0.103 0.504 0.127 0.724 0.174 0.245 0.052 0.675 0.124 0.985 0.273-0.098-0.98 0.105-1.395 0.252-1.631 0.152-0.249 0.184-0.535 0.174-1.133-0.012-0.596 0.5-0.854 0.775-1.029 0.137-0.086 0.239-0.137 0.362-0.167 0.063-0.139 0.229-0.296 0.546-0.481 0.318-0.184 0.215-0.452 0.205-0.832-1.572-1.359 1.094-3.036 1.828-1.771 0.012 0.186 0.195 0.391 0.184 0.505-0.01 0.114-0.051 0.226-0.111 0.299-0.061 0.072-0.01 0.205 0.042 0.381 0.05 0.174-0.023 0.492-0.134 0.668-0.113 0.175-0.175 0.288-0.215 0.452-0.041 0.165-0.153 0.257-0.266 0.298-0.028 0.011-0.066 0.019-0.117 0.019 0 0.066 0 0.125-0.001 0.175-0.01 0.185 0.241 0.448 0.478 0.459 0.188-0.003 0.362 0.034 0.467 0.11 0.318 0.226 0.525 0.129 0.696 0.339 0.398 0.494 0.541 0.752 0.531 1.398 0.356 0.35 0.706 0.712 0.694 1.482 0.174-0.422 0.367-0.391 0.502-0.71 0.039-0.097 0.122-0.175 0.224-0.216-0.024-0.062-0.03-0.132-0.021-0.207-0.234-0.204-0.092-0.38-0.193-0.564-0.105-0.185-0.041-0.36 0.008-0.452 0.051-0.094 0.094-0.132 0.176-0.227 0.112-0.129 0.296-0.035 0.301 0.114 0.003 0.073 0.001 0.077-0.02 0.123 0.055 0.023 0.265 0.158 0.352 0.195 0.051 0.046 0.449 0.267 0.653 0.426 0.041 0.3-0.101 0.87-0.255 1.005-0.154 0.134-0.357 0.462-0.388 0.658-0.031 0.195-0.103 0.412-0.256 0.637-0.152 0.227-0.378 0.475-0.552 0.628-0.173 0.155-0.203 0.196-0.398 0.196-0.192 0-0.358-0.051-0.531-0.236-0.174-0.185-0.184-0.371-0.336-0.492-0.152-0.125-0.609-0.512-0.757-0.948-0.019 0.045-0.035 0.087-0.075 0.123-0.011 0.163 0.033 0.359-0.159 0.442 0 0.154 0.021 0.69-0.005 0.993-0.506 0.118-2.641 0.058-3.254-0.149-0.021-0.371-0.042-0.823-0.104-1.028-0.081 0.289-0.367 0.513-0.469 0.822-0.103 0.31-0.204 0.557-0.47 0.557-0.248 0-0.601-0.308-0.865-0.418v-0.775h-1.184c-0.167 0.082-0.38 0.014-0.46 0.049-0.104 0.049-0.297 0.074-0.408 0.022-0.042-0.02-0.061-0.047-0.061-0.071h-0.787v-0.001z" stroke="#000" stroke-miterlimit="2.5" stroke-width=".0816" fill="none"/>
				<path d="m81.188 41.147c-0.062 0.515-0.562 1.408-0.648 1.582-0.276 0.556 0.055 0.491-0.121 0.639-0.174 0.144 0.133 0.092-0.186 0.431 0.053 0.834 0.082 2.058 0.122 2.719 0.042 0.656-0.122 1.479-0.122 1.953-0.756-0.185-1.451-0.492-2.186-0.369-0.02-0.989 0.346-0.702 0.408-1.873 0.061-1.174 0.205-2.778 0.082-3.869 0.144-1.606 0.49-3.551 1.104-4.929 0.622 0.062 3.188 0.206 3.514 0.092 0.47 1.38 0.736 3.17 0.613 4.733-0.107 1.376-0.104 2.212-0.047 2.684 0.35 0.804 0.383 1.527 0.414 3.839-0.285 0.31-0.571 0.453-0.878 0.598-0.472-0.084-0.96-0.288-1.206-0.412 0-0.822-0.064-1.214-0.019-1.566 0.092-0.726-0.218-1.743-0.096-2.983 0.036-0.529-0.562-1.407-0.748-3.269z" fill="#fff"/>
				<path d="m81.188 41.147c-0.062 0.515-0.562 1.408-0.648 1.582-0.276 0.556 0.055 0.491-0.121 0.639-0.174 0.144 0.133 0.092-0.186 0.431 0.053 0.834 0.082 2.058 0.122 2.719 0.042 0.656-0.122 1.479-0.122 1.953-0.756-0.185-1.451-0.492-2.186-0.369-0.02-0.989 0.346-0.702 0.408-1.873 0.061-1.174 0.205-2.778 0.082-3.869 0.144-1.606 0.49-3.551 1.104-4.929 0.622 0.062 3.188 0.206 3.514 0.092 0.47 1.38 0.736 3.17 0.613 4.733-0.107 1.376-0.104 2.212-0.047 2.684 0.35 0.804 0.383 1.527 0.414 3.839-0.285 0.31-0.571 0.453-0.878 0.598-0.472-0.084-0.96-0.288-1.206-0.412 0-0.822-0.064-1.214-0.019-1.566 0.092-0.726-0.218-1.743-0.096-2.983 0.036-0.529-0.562-1.407-0.748-3.269z" stroke="#000" stroke-miterlimit="2.5" stroke-width=".0816" fill="none"/>
				<path stroke-width=".0816" d="m80.642 29.324c-0.009 0.18 0 0.381 0.092 0.58-0.137-0.214-0.357-0.146-0.408 0.025-0.047 0.155 0.082 0.473 0.307 0.68 0.032 0.112 0.041 0.123 0.032 0.338-0.226-0.02-0.224-0.235-0.46-0.369-0.094-0.053-0.071-0.422-0.215-0.524-0.144-0.104-0.082-0.339-0.041-0.442 0.041-0.104 0.041-0.258-0.032-0.371-0.071-0.114 0.009-0.692 0.308-0.793 0.275-0.092 0.458-0.379 0.726-0.349 0.184 0.02 0.734-0.226 0.919-0.082 0.184 0.143 0.347 0.06 0.5 0.216 0.154 0.154 0.26 0.245 0.329 0.432 0.04 0.113 0.126 0.417-0.087 0.54-0.094-0.129-0.107-0.047-0.139 0.006-0.031 0.051-0.094 0.123-0.308 0.01-0.215-0.112-0.327-0.184-0.47-0.072-0.143 0.113-0.398 0.177-0.53 0.062-0.133-0.114-0.245 0.03-0.327-0.011-0.082-0.043-0.185 0.061-0.196 0.124z" stroke="#000"/>
				<path d="m82.473 29.556c-0.298-0.09-0.353 0.039-0.492-0.002-0.106-0.029-0.011 0.207 0.022 0.353 0.025 0.122 0.033 0.14 0.13 0.192 0.069 0.037 0.072 0.024 0.016-0.029-0.116-0.11-0.132-0.319-0.056-0.26 0.068 0.053 0.209 0.056 0.244 0.019 0.033-0.038 0.072-0.049 0.104-0.05 0.031-0.001 0.055-0.085-0.035-0.098-0.092-0.011-0.199-0.011-0.231-0.016-0.03-0.003-0.062-0.019 0.005-0.023 0.068-0.008 0.182 0.023 0.246 0.015 0.061-0.006 0.126-0.077 0.047-0.101z"/>
				<path d="m81.646 29.548c-0.125-0.14-0.355-0.01-0.484-0.028-0.13-0.021-0.203 0.017-0.062 0.057 0.144 0.039 0.314 0 0.396 0.026 0.079 0.021 0.201 0.004 0.15-0.055z"/>
				<path d="m81.585 29.767c-0.066 0.029-0.059 0.112-0.059 0.173 0 0.049-0.066 0.067-0.103 0.031-0.036-0.035-0.116-0.047-0.167-0.092-0.031-0.029-0.058-0.114-0.135-0.114-0.075 0-0.117 0.021-0.102-0.031 0.016-0.052 0.087-0.067 0.163-0.077 0.077-0.01 0.21-0.036 0.286-0.01 0.077 0.026 0.107 0.018 0.158-0.004 0.058-0.028 0.02 0.1-0.041 0.124z"/>
				<path d="m81.506 30.469c-0.075-0.004-0.1-0.041-0.028-0.042 0.064-0.002 0.171-0.028 0.176-0.11 0.005-0.068 0.033-0.082 0.039-0.021 0.008 0.062 0.068 0.092 0.102 0.1 0.059 0.017 0.184 0.032 0.253-0.073 0.035 0.037 0.069 0.045 0.11 0.019 0.049-0.031 0.058 0.009 0.019 0.039-0.037 0.03-0.078 0.039-0.125 0.02-0.035 0.066-0.107 0.094-0.184 0.097-0.098 0.004-0.185-0.024-0.22-0.087-0.026 0.047-0.079 0.062-0.142 0.058z"/>
				<path d="m81.491 30.861c0.091 0 0.175 0.06 0.234 0.098 0.098 0.061 0.201 0.046 0.26-0.012 0.059-0.054 0.127-0.091 0.17-0.112 0.041-0.02-0.053-0.056-0.131-0.013-0.076 0.042-0.186 0.044-0.242 0.023-0.059-0.021-0.164-0.043-0.221-0.016 0.064-0.037 0.148-0.059 0.199-0.052 0.051 0.006 0.104 0.019 0.15-0.002 0.045-0.022 0.166 0.024 0.217 0.03 0.053 0.008 0.104-0.02 0.033-0.038-0.076-0.021-0.15-0.05-0.18-0.066-0.029-0.018-0.08-0.01-0.104 0.005-0.021 0.015-0.038 0.002-0.066-0.011s-0.092-0.012-0.146 0.013c-0.071 0.031-0.108 0.061-0.15 0.084-0.046 0.027-0.048-0.04-0.066 0.018-0.024 0.082 0.018 0.051 0.043 0.051z"/>
				<path d="m86.776 33.382c0.111-0.036 0.209-0.015 0.209 0.206 0.002 0.219-0.229 0.371-0.35 0.426-0.061 0.028-0.197 0.043-0.204-0.186 0.105-0.067 0.322-0.278 0.345-0.446z" fill="#996B38"/>
				<path d="m86.776 33.382c0.111-0.036 0.209-0.015 0.209 0.206 0.002 0.219-0.229 0.371-0.35 0.426-0.061 0.028-0.197 0.043-0.204-0.186 0.105-0.067 0.322-0.278 0.345-0.446z" stroke="#000" stroke-miterlimit="2.5" stroke-width=".0816" fill="none"/>
				<path d="m86.562 33.135c0.121-0.02 0.217-0.021 0.24 0.198 0.02 0.219-0.232 0.409-0.332 0.496-0.086 0.076-0.316 0.021-0.212-0.222 0.098-0.072 0.294-0.302 0.304-0.472z" fill="#996B38"/>
				<path d="m86.562 33.135c0.121-0.02 0.217-0.021 0.24 0.198 0.02 0.219-0.232 0.409-0.332 0.496-0.086 0.076-0.316 0.021-0.212-0.222 0.098-0.072 0.294-0.302 0.304-0.472z" stroke="#000" stroke-miterlimit="2.5" stroke-width=".0816" fill="none"/>
				<path d="m86.339 32.929c0.117-0.031 0.213-0.04 0.256 0.175 0.041 0.217-0.172 0.396-0.252 0.499-0.057 0.071-0.285 0.139-0.266-0.174 0.092-0.083 0.266-0.331 0.262-0.5z" fill="#996B38"/>
				<path d="m86.339 32.929c0.117-0.031 0.213-0.04 0.256 0.175 0.041 0.217-0.172 0.396-0.252 0.499-0.057 0.071-0.285 0.139-0.266-0.174 0.092-0.083 0.266-0.331 0.262-0.5z" stroke="#000" stroke-miterlimit="2.5" stroke-width=".0816" fill="none"/>
				<path d="m86.308 32.795c0.105 0.103 0.096 0.248-0.016 0.427-0.111 0.181-0.245 0.366-0.419 0.313-0.174-0.052-0.05-0.251 0.017-0.318 0.065-0.066 0.152-0.236 0.157-0.288l-0.108-0.071c0.072-0.073 0.22-0.206 0.369-0.063z" fill="#996B38"/>
				<path d="m86.308 32.795c0.105 0.103 0.096 0.248-0.016 0.427-0.111 0.181-0.245 0.366-0.419 0.313-0.174-0.052-0.05-0.251 0.017-0.318 0.065-0.066 0.152-0.236 0.157-0.288l-0.108-0.071c0.072-0.073 0.22-0.206 0.369-0.063z" stroke="#000" stroke-miterlimit="2.5" stroke-width=".0816" fill="none"/>
				<path d="m79.591 33.87c0.07 0.309 0.091 0.576 0.008 0.762-0.08 0.186-0.131 0.494-0.131 0.679 0 0.187-0.082 0.823-0.5 1.039 0.102-0.04 0.438-0.216 0.347-0.081 0.184-0.288 0.296-0.421 0.306-0.535 0.021 0.155 0.071 0.328 0.062 0.411 0.042-0.494 0.082-0.792 0.082-1.133 0-0.338-0.009-0.688 0.011-0.791-0.062-0.083-0.185-0.267-0.185-0.351z"/>
				<path d="m81.807 37.219c0 0.572 0.071 0.535-0.511 0.535-0.572 0-0.515 0.043-0.515-0.549 0-0.562-0.052-0.506 0.566-0.506 0.521 0 0.46-0.052 0.46 0.52z" fill="#FFE26D"/>
				<path d="m81.807 37.219c0 0.572 0.071 0.535-0.511 0.535-0.572 0-0.515 0.043-0.515-0.549 0-0.562-0.052-0.506 0.566-0.506 0.521 0 0.46-0.052 0.46 0.52z" stroke="#000" stroke-miterlimit="2.5" stroke-width=".0816" fill="none"/>
				<path d="m81.81 36.905c0.428 0.042 0.916 0.028 1.15-0.02 0.227-0.047 0.238 0.072 0.257 0.365 0.016 0.235 0.047 0.328-0.214 0.354-0.328 0.032-0.959 0.005-1.193 0.016v-0.715z" fill="#996B38"/>
				<path d="m81.81 36.905c0.428 0.042 0.916 0.028 1.15-0.02 0.227-0.047 0.238 0.072 0.257 0.365 0.016 0.235 0.047 0.328-0.214 0.354-0.328 0.032-0.959 0.005-1.193 0.016v-0.715z" stroke="#000" stroke-miterlimit="2.5" stroke-width=".0816" fill="none"/>
				<path d="m80.781 36.875c-0.306 0-0.874-0.113-1.026-0.154-0.156-0.041-0.149 0.045-0.19 0.355-0.04 0.309 0.026 0.385 0.241 0.416 0.213 0.03 0.762 0.082 0.976 0.062v-0.679h-0.001z" fill="#996B38"/>
				<path d="m80.781 36.875c-0.306 0-0.874-0.113-1.026-0.154-0.156-0.041-0.149 0.045-0.19 0.355-0.04 0.309 0.026 0.385 0.241 0.416 0.213 0.03 0.762 0.082 0.976 0.062v-0.679h-0.001z" stroke="#000" stroke-miterlimit="2.5" stroke-width=".0816" fill="none"/>
				<path d="m81.658 37.223c0 0.414 0.044 0.366-0.362 0.366-0.402 0-0.352 0.048-0.352-0.366 0-0.394-0.076-0.362 0.357-0.362 0.365-0.001 0.357-0.04 0.357 0.362z" fill="#996B38"/>
				<path d="m81.658 37.223c0 0.414 0.044 0.366-0.362 0.366-0.402 0-0.352 0.048-0.352-0.366 0-0.394-0.076-0.362 0.357-0.362 0.365-0.001 0.357-0.04 0.357 0.362z" stroke="#000" stroke-miterlimit="2.5" stroke-width=".0816" fill="none"/>
				<path d="m83.146 37.24c0.019 0.145 0.025 0.159-0.188 0.16-0.179 0-0.216 0.03-0.216-0.113 0-0.145 0.041-0.13 0.175-0.13 0.131 0 0.213-0.041 0.229 0.083z" fill="#FFE26D"/>
				<path d="m83.146 37.24c0.019 0.145 0.025 0.159-0.188 0.16-0.179 0-0.216 0.03-0.216-0.113 0-0.145 0.041-0.13 0.175-0.13 0.131 0 0.213-0.041 0.229 0.083z" stroke="#000" stroke-miterlimit="2.5" stroke-width=".0816" fill="none"/>
				<path d="m82.517 37.276c0 0.154-0.064 0.128-0.193 0.128-0.127 0-0.246 0.021-0.246-0.106 0-0.129 0-0.146 0.242-0.146 0.187 0 0.197 0.005 0.197 0.124z" fill="#FFE26D"/>
				<path d="m82.517 37.276c0 0.154-0.064 0.128-0.193 0.128-0.127 0-0.246 0.021-0.246-0.106 0-0.129 0-0.146 0.242-0.146 0.187 0 0.197 0.005 0.197 0.124z" stroke="#000" stroke-miterlimit="2.5" stroke-width=".0816" fill="none"/>
				<path d="m80.128 37.188c0 0.129-0.15 0.113-0.252 0.099-0.102-0.017-0.189-0.036-0.174-0.171 0.018-0.133 0.107-0.07 0.205-0.052 0.092 0.021 0.221-0.024 0.221 0.124z" fill="#FFE26D"/>
				<path d="m80.128 37.188c0 0.129-0.15 0.113-0.252 0.099-0.102-0.017-0.189-0.036-0.174-0.171 0.018-0.133 0.107-0.07 0.205-0.052 0.092 0.021 0.221-0.024 0.221 0.124z" stroke="#000" stroke-miterlimit="2.5" stroke-width=".0816" fill="none"/>
				<path d="m80.704 37.225c0 0.153-0.066 0.129-0.193 0.129-0.13 0-0.225 0.021-0.225-0.108s0.029-0.144 0.219-0.144c0.189-0.001 0.199 0.004 0.199 0.123z" fill="#FFE26D"/>
				<path d="m80.704 37.225c0 0.153-0.066 0.129-0.193 0.129-0.13 0-0.225 0.021-0.225-0.108s0.029-0.144 0.219-0.144c0.189-0.001 0.199 0.004 0.199 0.123z" stroke="#000" stroke-miterlimit="2.5" stroke-width=".0816" fill="none"/>
				<path stroke-width=".3266" d="m72 61.933c12.026 0 21.778-9.819 21.778-21.934 0-12.113-9.752-21.935-21.778-21.935-12.027 0-21.776 9.821-21.776 21.935s9.749 21.934 21.776 21.934zm0-21.935" stroke="#008065" fill="none"/>
				<path d="m74.757 18.238c-1.26-0.387-0.947-3.854-5.496-3.596 2.4 0.727 1.773 3.35 5.496 3.596z" fill="#008065"/>
				<path stroke-width=".0816" d="m74.757 18.238c-1.26-0.387-0.947-3.854-5.496-3.596 2.4 0.727 1.773 3.35 5.496 3.596z" stroke="#000" fill="none"/>
				<path d="m74.757 18.238c-1.31 0.14-1.646 3.604-6.066 2.491 2.491-0.259 2.365-2.955 6.066-2.491z" fill="#008065"/>
				<path stroke-width=".0816" d="m74.757 18.238c-1.31 0.14-1.646 3.604-6.066 2.491 2.491-0.259 2.365-2.955 6.066-2.491z" stroke="#000" fill="none"/>
				<path d="m69.297 18.229c-1.314-0.056-1.866-3.494-6.21-2.102 2.504 0.102 2.546 2.799 6.21 2.102z" fill="#008065"/>
				<path stroke-width=".0816" d="m69.297 18.229c-1.314-0.056-1.866-3.494-6.21-2.102 2.504 0.102 2.546 2.799 6.21 2.102z" stroke="#000" fill="none"/>
				<path d="m69.297 18.229c-1.232 0.465-0.705 3.906-5.261 3.936 2.35-0.877 1.561-3.455 5.261-3.936z" fill="#008065"/>
				<path stroke-width=".0816" d="m69.297 18.229c-1.232 0.465-0.705 3.906-5.261 3.936 2.35-0.877 1.561-3.455 5.261-3.936z" stroke="#000" fill="none"/>
				<path d="m64.008 19.591c-1.288 0.274-2.673-2.916-6.535-0.481 2.45-0.529 3.155 2.073 6.535 0.481z" fill="#008065"/>
				<path stroke-width=".0816" d="m64.008 19.591c-1.288 0.274-2.673-2.916-6.535-0.481 2.45-0.529 3.155 2.073 6.535 0.481z" stroke="#000" fill="none"/>
				<path d="m64.008 19.591c-1.081 0.759 0.281 3.96-4.126 5.129 2.062-1.438 0.66-3.738 4.126-5.129z" fill="#008065"/>
				<path stroke-width=".0816" d="m64.008 19.591c-1.081 0.759 0.281 3.96-4.126 5.129 2.062-1.438 0.66-3.738 4.126-5.129z" stroke="#000" fill="none"/>
				<path d="m59.222 22.234c-1.182 0.588-3.311-2.156-6.449 1.169 2.243-1.126 3.568 1.219 6.449-1.169z" fill="#008065"/>
				<path stroke-width=".0816" d="m59.222 22.234c-1.182 0.588-3.311-2.156-6.449 1.169 2.243-1.126 3.568 1.219 6.449-1.169z" stroke="#000" fill="none"/>
				<path d="m59.222 22.234c-0.861 1.005 1.25 3.765-2.73 6.001 1.641-1.909-0.284-3.787 2.73-6.001z" fill="#008065"/>
				<path stroke-width=".0816" d="m59.222 22.234c-0.861 1.005 1.25 3.765-2.73 6.001 1.641-1.909-0.284-3.787 2.73-6.001z" stroke="#000" fill="none"/>
				<path d="m55.235 25.993c-0.996 0.866-3.735-1.26-5.957 2.748 1.896-1.653 3.758 0.286 5.957-2.748z" fill="#008065"/>
				<path stroke-width=".0816" d="m55.235 25.993c-0.996 0.866-3.735-1.26-5.957 2.748 1.896-1.653 3.758 0.286 5.957-2.748z" stroke="#000" fill="none"/>
				<path d="m55.235 25.993c-0.582 1.19 2.141 3.334-1.161 6.496 1.118-2.261-1.209-3.596 1.161-6.496z" fill="#008065"/>
				<path stroke-width=".0816" d="m55.235 25.993c-0.582 1.19 2.141 3.334-1.161 6.496 1.118-2.261-1.209-3.596 1.161-6.496z" stroke="#000" fill="none"/>
				<path d="m52.306 30.634c-0.754 1.087-3.932-0.285-5.092 4.153 1.427-2.076 3.711-0.666 5.092-4.153z" fill="#008065"/>
				<path stroke-width=".0816" d="m52.306 30.634c-0.754 1.087-3.932-0.285-5.092 4.153 1.427-2.076 3.711-0.666 5.092-4.153z" stroke="#000" fill="none"/>
				<path d="m52.306 30.634c-0.273 1.296 2.896 2.69 0.477 6.581 0.526-2.469-2.058-3.18-0.477-6.581z" fill="#008065"/>
				<path stroke-width=".0816" d="m52.306 30.634c-0.273 1.296 2.896 2.69 0.477 6.581 0.526-2.469-2.058-3.18-0.477-6.581z" stroke="#000" fill="none"/>
				<path d="m50.612 35.86c-0.461 1.242-3.877 0.709-3.907 5.298 0.87-2.368 3.431-1.572 3.907-5.298z" fill="#008065"/>
				<path stroke-width=".0816" d="m50.612 35.86c-0.461 1.242-3.877 0.709-3.907 5.298 0.87-2.368 3.431-1.572 3.907-5.298z" stroke="#000" fill="none"/>
				<path d="m50.612 35.86c0.057 1.324 3.47 1.882 2.087 6.255-0.1-2.522-2.778-2.563-2.087-6.255z" fill="#008065"/>
				<path stroke-width=".0816" d="m50.612 35.86c0.057 1.324 3.47 1.882 2.087 6.255-0.1-2.522-2.778-2.563-2.087-6.255z" stroke="#000" fill="none"/>
				<path d="m50.263 41.348c-0.141 1.318-3.58 1.658-2.477 6.111 0.26-2.512 2.934-2.384 2.477-6.111z" fill="#008065"/>
				<path stroke-width=".0816" d="m50.263 41.348c-0.141 1.318-3.58 1.658-2.477 6.111 0.26-2.512 2.934-2.384 2.477-6.111z" stroke="#000" fill="none"/>
				<path d="m50.263 41.348c0.381 1.271 3.824 0.954 3.567 5.535-0.722-2.417-3.325-1.787-3.567-5.535z" fill="#008065"/>
				<path stroke-width=".0816" d="m50.263 41.348c0.381 1.271 3.824 0.954 3.567 5.535-0.722-2.417-3.325-1.787-3.567-5.535z" stroke="#000" fill="none"/>
				<path d="m51.278 46.75c0.189 1.312-3.059 2.503-0.889 6.539-0.368-2.498 2.255-3.042 0.889-6.539z" fill="#008065"/>
				<path stroke-width=".0816" d="m51.278 46.75c0.189 1.312-3.059 2.503-0.889 6.539-0.368-2.498 2.255-3.042 0.889-6.539z" stroke="#000" fill="none"/>
				<path d="m51.278 46.75c0.684 1.135 3.941-0.034 4.821 4.468-1.293-2.161-3.66-0.897-4.821-4.468z" fill="#008065"/>
				<path stroke-width=".0816" d="m51.278 46.75c0.684 1.135 3.941-0.034 4.821 4.468-1.293-2.161-3.66-0.897-4.821-4.468z" stroke="#000" fill="none"/>
				<path d="m53.597 51.729c0.508 1.224-2.344 3.189 0.753 6.557-0.975-2.327 1.431-3.513-0.753-6.557z" fill="#008065"/>
				<path stroke-width=".0816" d="m53.597 51.729c0.508 1.224-2.344 3.189 0.753 6.557-0.975-2.327 1.431-3.513-0.753-6.557z" stroke="#000" fill="none"/>
				<path d="m53.597 51.729c0.942 0.926 3.809-1.02 5.773 3.121-1.787-1.77-3.77 0.046-5.773-3.121z" fill="#008065"/>
				<path stroke-width=".0816" d="m53.597 51.729c0.942 0.926 3.809-1.02 5.773 3.121-1.787-1.77-3.77 0.046-5.773-3.121z" stroke="#000" fill="none"/>
				<path d="m57.071 55.97c0.794 1.058-1.483 3.677 2.348 6.161-1.518-2.009 0.521-3.76-2.348-6.161z" fill="#008065"/>
				<path stroke-width=".0816" d="m57.071 55.97c0.794 1.058-1.483 3.677 2.348 6.161-1.518-2.009 0.521-3.76-2.348-6.161z" stroke="#000" fill="none"/>
				<path d="m57.071 55.97c1.141 0.661 3.437-1.941 6.362 1.576-2.168-1.267-3.636 0.99-6.362-1.576z" fill="#008065"/>
				<path stroke-width=".0816" d="m57.071 55.97c1.141 0.661 3.437-1.941 6.362 1.576-2.168-1.267-3.636 0.99-6.362-1.576z" stroke="#000" fill="none"/>
				<path d="m61.483 59.207c1.031 0.825-0.527 3.934 3.795 5.38-1.965-1.566-0.424-3.773-3.795-5.38z" fill="#008065"/>
				<path stroke-width=".0816" d="m61.483 59.207c1.031 0.825-0.527 3.934 3.795 5.38-1.965-1.566-0.424-3.773-3.795-5.38z" stroke="#000" fill="none"/>
				<path d="m61.483 59.207c1.27 0.355 2.85-2.741 6.553-0.067-2.413-0.684-3.28 1.87-6.553 0.067z" fill="#008065"/>
				<path stroke-width=".0816" d="m61.483 59.207c1.27 0.355 2.85-2.741 6.553-0.067-2.413-0.684-3.28 1.87-6.553 0.067z" stroke="#000" fill="none"/>
				<path d="m66.558 61.237c1.201 0.542 0.459 3.943 5.004 4.262-2.291-1.026-1.342-3.548-5.004-4.262z" fill="#008065"/>
				<path stroke-width=".0816" d="m66.558 61.237c1.201 0.542 0.459 3.943 5.004 4.262-2.291-1.026-1.342-3.548-5.004-4.262z" stroke="#000" fill="none"/>
				<path d="m66.558 61.237c1.315 0.026 2.082-3.369 6.328-1.705-2.505-0.057-2.714 2.632-6.328 1.705z" fill="#008065"/>
				<path stroke-width=".0816" d="m66.558 61.237c1.315 0.026 2.082-3.369 6.328-1.705-2.505-0.057-2.714 2.632-6.328 1.705z" stroke="#000" fill="none"/>
				<path d="m71.974 61.934c1.297 0.223 1.417 3.703 5.898 2.873-2.474-0.419-2.178-3.1-5.898-2.873z" fill="#008065"/>
				<path stroke-width=".0816" d="m71.974 61.934c1.297 0.223 1.417 3.703 5.898 2.873-2.474-0.419-2.178-3.1-5.898-2.873z" stroke="#000" fill="none"/>
				<path d="m71.974 61.934c1.281-0.304 1.185-3.785 5.708-3.238-2.441 0.572-1.98 3.23-5.708 3.238z" fill="#008065"/>
				<path stroke-width=".0816" d="m71.974 61.934c1.281-0.304 1.185-3.785 5.708-3.238-2.441 0.572-1.98 3.23-5.708 3.238z" stroke="#000" fill="none"/>
				<path d="m77.389 61.252c1.313-0.11 2.29 3.23 6.425 1.305-2.499 0.214-2.874-2.457-6.425-1.305z" fill="#008065"/>
				<path stroke-width=".0816" d="m77.389 61.252c1.313-0.11 2.29 3.23 6.425 1.305-2.499 0.214-2.874-2.457-6.425-1.305z" stroke="#000" fill="none"/>
				<path d="m77.389 61.252c1.167-0.617 0.214-3.964 4.731-4.568-2.223 1.167-1.12 3.625-4.731 4.568z" fill="#008065"/>
				<path stroke-width=".0816" d="m77.389 61.252c1.167-0.617 0.214-3.964 4.731-4.568-2.223 1.167-1.12 3.625-4.731 4.568z" stroke="#000" fill="none"/>
				<path d="m82.468 59.234c1.244-0.436 3.015 2.557 6.545-0.345-2.367 0.833-3.391-1.661-6.545 0.345z" fill="#008065"/>
				<path stroke-width=".0816" d="m82.468 59.234c1.244-0.436 3.015 2.557 6.545-0.345-2.367 0.833-3.391-1.661-6.545 0.345z" stroke="#000" fill="none"/>
				<path d="m82.468 59.234c0.979-0.889-0.771-3.893 3.455-5.608-1.865 1.686-0.191 3.792-3.455 5.608z" fill="#008065"/>
				<path stroke-width=".0816" d="m82.468 59.234c0.979-0.889-0.771-3.893 3.455-5.608-1.865 1.686-0.191 3.792-3.455 5.608z" stroke="#000" fill="none"/>
				<path d="m86.888 56.008c1.1-0.733 3.552 1.722 6.254-1.974-2.086 1.4-3.693-0.76-6.254 1.974z" fill="#008065"/>
				<path stroke-width=".0816" d="m86.888 56.008c1.1-0.733 3.552 1.722 6.254-1.974-2.086 1.4-3.693-0.76-6.254 1.974z" stroke="#000" fill="none"/>
				<path d="m86.888 56.008c0.727-1.106-1.707-3.576 1.963-6.299-1.391 2.103 0.752 3.723-1.963 6.299z" fill="#008065"/>
				<path stroke-width=".0816" d="m86.888 56.008c0.727-1.106-1.707-3.576 1.963-6.299-1.391 2.103 0.752 3.723-1.963 6.299z" stroke="#000" fill="none"/>
				<path d="m90.374 51.775c0.883-0.984 3.863 0.778 5.568-3.477-1.673 1.879-3.763 0.189-5.568 3.477z" fill="#008065"/>
				<path stroke-width=".0816" d="m90.374 51.775c0.883-0.984 3.863 0.778 5.568-3.477-1.673 1.879-3.763 0.189-5.568 3.477z" stroke="#000" fill="none"/>
				<path d="m90.374 51.775c0.432-1.254-2.537-3.036 0.344-6.591-0.827 2.382 1.648 3.416-0.344 6.591z" fill="#008065"/>
				<path stroke-width=".0816" d="m90.374 51.775c0.432-1.254-2.537-3.036 0.344-6.591-0.827 2.382 1.648 3.416-0.344 6.591z" stroke="#000" fill="none"/>
				<path d="m92.705 46.803c0.611-1.175 3.935-0.215 4.535-4.765-1.158 2.239-3.599 1.128-4.535 4.765z" fill="#008065"/>
				<path stroke-width=".0816" d="m92.705 46.803c0.611-1.175 3.935-0.215 4.535-4.765-1.158 2.239-3.599 1.128-4.535 4.765z" stroke="#000" fill="none"/>
				<path d="m92.705 46.803c0.106-1.321-3.208-2.306-1.294-6.471-0.213 2.517 2.439 2.897 1.294 6.471z" fill="#008065"/>
				<path stroke-width=".0816" d="m92.705 46.803c0.106-1.321-3.208-2.306-1.294-6.471-0.213 2.517 2.439 2.897 1.294 6.471z" stroke="#000" fill="none"/>
				<path d="m93.735 41.403c0.301-1.29 3.758-1.192 3.215-5.751-0.567 2.46-3.207 1.994-3.215 5.751z" fill="#008065"/>
				<path stroke-width=".0816" d="m93.735 41.403c0.301-1.29 3.758-1.192 3.215-5.751-0.567 2.46-3.207 1.994-3.215 5.751z" stroke="#000" fill="none"/>
				<path d="m93.735 41.403c-0.222-1.307-3.678-1.431-2.85-5.942 0.412 2.489 3.075 2.192 2.85 5.942z" fill="#008065"/>
				<path stroke-width=".0816" d="m93.735 41.403c-0.222-1.307-3.678-1.431-2.85-5.942 0.412 2.489 3.075 2.192 2.85 5.942z" stroke="#000" fill="none"/>
				<path d="m93.398 35.915c-0.026-1.327 3.345-2.097 1.694-6.376 0.059 2.524-2.613 2.734-1.694 6.376z" fill="#008065"/>
				<path stroke-width=".0816" d="m93.398 35.915c-0.026-1.327 3.345-2.097 1.694-6.376 0.059 2.524-2.613 2.734-1.694 6.376z" stroke="#000" fill="none"/>
				<path d="m93.398 35.915c-0.536-1.211-3.913-0.463-4.228-5.043 1.017 2.309 3.522 1.354 4.228 5.043z" fill="#008065"/>
				<path stroke-width=".0816" d="m93.398 35.915c-0.536-1.211-3.913-0.463-4.228-5.043 1.017 2.309 3.522 1.354 4.228 5.043z" stroke="#000" fill="none"/>
				<path d="m91.718 30.684c-0.352-1.278 2.723-2.869 0.07-6.601 0.674 2.431-1.859 3.304-0.07 6.601z" fill="#008065"/>
				<path stroke-width=".0816" d="m91.718 30.684c-0.352-1.278 2.723-2.869 0.07-6.601 0.674 2.431-1.859 3.304-0.07 6.601z" stroke="#000" fill="none"/>
				<path d="m91.718 30.684c-0.818-1.039-3.906 0.531-5.34-3.824 1.554 1.98 3.744 0.428 5.34 3.824z" fill="#008065"/>
				<path stroke-width=".0816" d="m91.718 30.684c-0.818-1.039-3.906 0.531-5.34-3.824 1.554 1.98 3.744 0.428 5.34 3.824z" stroke="#000" fill="none"/>
				<path d="m88.799 26.037c-0.657-1.15 1.929-3.461-1.562-6.41 1.254 2.185-0.986 3.665 1.562 6.41z" fill="#008065"/>
				<path stroke-width=".0816" d="m88.799 26.037c-0.657-1.15 1.929-3.461-1.562-6.41 1.254 2.185-0.986 3.665 1.562 6.41z" stroke="#000" fill="none"/>
				<path d="m88.799 26.037c-1.051-0.801-3.651 1.492-6.117-2.367 1.993 1.528 3.733-0.523 6.117 2.367z" fill="#008065"/>
				<path stroke-width=".0816" d="m88.799 26.037c-1.051-0.801-3.651 1.492-6.117-2.367 1.993 1.528 3.733-0.523 6.117 2.367z" stroke="#000" fill="none"/>
				<path d="m84.823 22.269c-0.92-0.95 1.014-3.836-3.096-5.817 1.758 1.801-0.048 3.796 3.096 5.817z" fill="#008065"/>
				<path stroke-width=".0816" d="m84.823 22.269c-0.92-0.95 1.014-3.836-3.096-5.817 1.758 1.801-0.048 3.796 3.096 5.817z" stroke="#000" fill="none"/>
				<path d="m84.823 22.269c-1.215-0.513-3.167 2.359-6.508-0.761 2.309 0.98 3.487-1.441 6.508 0.761z" fill="#008065"/>
				<path stroke-width=".0816" d="m84.823 22.269c-1.215-0.513-3.167 2.359-6.508-0.761 2.309 0.98 3.487-1.441 6.508 0.761z" stroke="#000" fill="none"/>
				<path d="m80.044 19.612c-1.125-0.689 0.036-3.969-4.436-4.857 2.147 1.304 0.892 3.687 4.436 4.857z" fill="#008065"/>
				<path stroke-width=".0816" d="m80.044 19.612c-1.125-0.689 0.036-3.969-4.436-4.857 2.147 1.304 0.892 3.687 4.436 4.857z" stroke="#000" fill="none"/>
				<path d="m80.044 19.612c-1.304-0.191-2.486 3.08-6.492 0.894 2.478 0.372 3.021-2.269 6.492-0.894z" fill="#008065"/>
				<path stroke-width=".0816" d="m80.044 19.612c-1.304-0.191-2.486 3.08-6.492 0.894 2.478 0.372 3.021-2.269 6.492-0.894z" stroke="#000" fill="none"/>
				<path d="m61.651 49.099c-0.021 0.319 0.143 0.442 0.102 0.659-0.041 0.215-0.162 0.287-0.234 0.535-0.071 0.245-0.348 0.213-0.459 0.133-0.026-0.02-0.047-0.04-0.064-0.063-0.278 0.141-0.426 0.017-0.426-0.137-0.041 0.052-0.143 0.097-0.245 0.055-0.054-0.021-0.071-0.08-0.087-0.126-0.152 0-0.188-0.037-0.219-0.139-0.01-0.03-0.014-0.071-0.008-0.115-0.327 0.031-0.228-0.351-0.084-0.463 0.143-0.112 0.264-0.194 0.295-0.349 0.32-0.253 1.056-0.176 1.429 0.01z" fill="#FFCE46"/>
				<path d="m61.651 49.099c-0.021 0.319 0.143 0.442 0.102 0.659-0.041 0.215-0.162 0.287-0.234 0.535-0.071 0.245-0.348 0.213-0.459 0.133-0.026-0.02-0.047-0.04-0.064-0.063-0.278 0.141-0.426 0.017-0.426-0.137-0.041 0.052-0.143 0.097-0.245 0.055-0.054-0.021-0.071-0.08-0.087-0.126-0.152 0-0.188-0.037-0.219-0.139-0.01-0.03-0.014-0.071-0.008-0.115-0.327 0.031-0.228-0.351-0.084-0.463 0.143-0.112 0.264-0.194 0.295-0.349 0.32-0.253 1.056-0.176 1.429 0.01zm-1.445 0.514c-0.102 0.046-0.182 0.174-0.195 0.287m0.411-0.112c-0.177 0.052-0.22 0.249-0.185 0.366m0.5-0.187c-0.109 0.059-0.17 0.172-0.17 0.255m0.584-0.404c-0.225 0.108-0.289 0.377-0.156 0.544" stroke="#000" stroke-miterlimit="2.5" stroke-width=".0816" fill="none"/>
				<path d="m65.656 48.07c0.255 0.061 0.304 0.457 0.847 0.405 0.215-0.021 0.424 0.111 0.711 0.144 0.133 0.015 0.139 0.179 0.026 0.262-0.051 0.236-0.184 0.247-0.645 0.237-0.152 0.082-0.48 0.102-0.713 0-0.236-0.103-0.871-0.083-1.238 0.052-0.367 0.133-0.508-0.164-0.479-0.329 0.031-0.165 0.088-0.324-0.006-0.499 0.319-0.163 1.278-0.34 1.497-0.272z" fill="#FFCE46"/>
				<path d="m65.656 48.07c0.255 0.061 0.304 0.457 0.847 0.405 0.215-0.021 0.424 0.111 0.711 0.144 0.133 0.015 0.139 0.179 0.026 0.262-0.051 0.236-0.184 0.247-0.645 0.237-0.152 0.082-0.48 0.102-0.713 0-0.236-0.103-0.871-0.083-1.238 0.052-0.367 0.133-0.508-0.164-0.479-0.329 0.031-0.165 0.088-0.324-0.006-0.499 0.319-0.163 1.278-0.34 1.497-0.272z" stroke="#000" stroke-miterlimit="2.5" stroke-width=".0816" fill="none"/>
				<path d="m56.003 34.539c0.613-0.659 1.186-1.214 1.47-1.502 2.718-1.132 6.663-3.189 8.501-4.549 0.162-0.102 0.617 0.435 0.439 0.567-2.708 1.697-5.691 3.262-8.407 4.476-0.94 0.822-1.267 1.09-1.452 1.563-0.184 0.474-0.489 0.432-0.531 0.165s-0.102-0.627-0.02-0.72z" fill="#996B38"/>
				<path d="m56.003 34.539c0.613-0.659 1.186-1.214 1.47-1.502 2.718-1.132 6.663-3.189 8.501-4.549 0.162-0.102 0.617 0.435 0.439 0.567-2.708 1.697-5.691 3.262-8.407 4.476-0.94 0.822-1.267 1.09-1.452 1.563-0.184 0.474-0.489 0.432-0.531 0.165s-0.102-0.627-0.02-0.72z" stroke="#000" stroke-miterlimit="2.5" stroke-width=".0816" fill="none"/>
				<path d="m65.017 30.131c0.073 0.287 0.201 1.146 0.149 1.568 0.755-0.104 1.758-0.432 2.289-1.101-0.349-0.226-0.962-0.729-1.194-1.225-0.279 0.124-1.029 0.582-1.244 0.758z" fill="#fff"/>
				<path d="m65.017 30.131c0.073 0.287 0.201 1.146 0.149 1.568 0.755-0.104 1.758-0.432 2.289-1.101-0.349-0.226-0.962-0.729-1.194-1.225-0.279 0.124-1.029 0.582-1.244 0.758z" stroke="#000" stroke-miterlimit="2.5" stroke-width=".0816" fill="none"/>
				<path d="m65.011 30.167c-0.111 0.056-0.199-0.068-0.238-0.119 0.047-0.024 0.092-0.046 0.123-0.065 0.153-0.1-0.189-0.654-0.285-0.594-0.044 0.031-0.107 0.077-0.16 0.104-0.07-0.14-0.088-0.232 0.113-0.357 0.178-0.109 0.758-0.48 0.96-0.606 0.108-0.067 0.168-0.057 0.285 0.011 0.165 0.092 0.383 0.432 0.452 0.606 0.048 0.131 0.076 0.218-0.021 0.272-0.247 0.141-0.824 0.511-1.229 0.748z" fill="#fff"/>
				<path d="m65.011 30.167c-0.111 0.056-0.199-0.068-0.238-0.119 0.047-0.024 0.092-0.046 0.123-0.065 0.153-0.1-0.189-0.654-0.285-0.594-0.044 0.031-0.107 0.077-0.16 0.104-0.07-0.14-0.088-0.232 0.113-0.357 0.178-0.109 0.758-0.48 0.96-0.606 0.108-0.067 0.168-0.057 0.285 0.011 0.165 0.092 0.383 0.432 0.452 0.606 0.048 0.131 0.076 0.218-0.021 0.272-0.247 0.141-0.824 0.511-1.229 0.748z" stroke="#000" stroke-miterlimit="2.5" stroke-width=".0816" fill="none"/>
				<path d="m69.085 35.919c0.027-0.14-0.379-0.212-0.436-0.223-0.219-0.04-0.435-0.158-0.541-0.216-0.261-0.137-0.511-0.149-0.715-0.045-0.205 0.103-0.506 0.127-0.727 0.174-0.245 0.052-0.674 0.124-0.985 0.273 0.1-0.98-0.104-1.395-0.25-1.631-0.153-0.249-0.184-0.535-0.174-1.133 0.011-0.596-0.5-0.854-0.777-1.029-0.134-0.086-0.237-0.137-0.362-0.167-0.062-0.139-0.23-0.296-0.545-0.481-0.317-0.184-0.216-0.452-0.205-0.832 1.573-1.359-1.094-3.036-1.83-1.771-0.008 0.186-0.193 0.391-0.182 0.505 0.01 0.114 0.05 0.226 0.111 0.299 0.062 0.072 0.01 0.205-0.041 0.381-0.049 0.174 0.021 0.492 0.133 0.668 0.112 0.175 0.174 0.288 0.215 0.452 0.041 0.165 0.152 0.257 0.266 0.298 0.026 0.011 0.066 0.019 0.117 0.019v0.175c0.012 0.185-0.241 0.448-0.475 0.459-0.189-0.003-0.363 0.034-0.471 0.11-0.316 0.226-0.525 0.129-0.693 0.339-0.398 0.494-0.543 0.752-0.533 1.398-0.354 0.35-0.704 0.712-0.693 1.482-0.174-0.422-0.368-0.391-0.5-0.71-0.042-0.097-0.123-0.175-0.226-0.216 0.023-0.062 0.031-0.132 0.021-0.207 0.235-0.204 0.092-0.38 0.194-0.564 0.102-0.185 0.041-0.36-0.011-0.452-0.051-0.094-0.092-0.132-0.173-0.227-0.112-0.129-0.302 0.006-0.296 0.155 0.002 0.073 0.018 0.131 0.04 0.177-0.056 0.021-0.25 0.117-0.336 0.152-0.052 0.046-0.501 0.437-0.681 0.597-0.039 0.297 0.086 0.647 0.24 0.782 0.154 0.134 0.358 0.462 0.389 0.658 0.031 0.195 0.101 0.412 0.256 0.637 0.152 0.227 0.377 0.475 0.551 0.628 0.173 0.155 0.205 0.196 0.398 0.196s0.357-0.051 0.531-0.236 0.185-0.371 0.338-0.492c0.152-0.125 0.609-0.512 0.756-0.948 0.02 0.045 0.035 0.087 0.073 0.123 0.013 0.163-0.033 0.359 0.161 0.442 0 0.154-0.021 0.69 0.004 0.993 0.508 0.118 2.643 0.058 3.254-0.149 0.021-0.371 0.041-0.823 0.104-1.028 0.082 0.289 0.367 0.513 0.47 0.822 0.103 0.31 0.204 0.557 0.47 0.557 0.245 0 0.602-0.308 0.862-0.418v-0.775h1.185c0.17 0.082 0.382 0.014 0.461 0.049 0.102 0.049 0.297 0.074 0.408 0.022 0.041-0.02 0.059-0.047 0.061-0.071h0.789v-0.001z" fill="#FFCE46"/>
				<path d="m69.085 35.919c0.027-0.14-0.379-0.212-0.436-0.223-0.219-0.04-0.435-0.158-0.541-0.216-0.261-0.137-0.511-0.149-0.715-0.045-0.205 0.103-0.506 0.127-0.727 0.174-0.245 0.052-0.674 0.124-0.985 0.273 0.1-0.98-0.104-1.395-0.25-1.631-0.153-0.249-0.184-0.535-0.174-1.133 0.011-0.596-0.5-0.854-0.777-1.029-0.134-0.086-0.237-0.137-0.362-0.167-0.062-0.139-0.23-0.296-0.545-0.481-0.317-0.184-0.216-0.452-0.205-0.832 1.573-1.359-1.094-3.036-1.83-1.771-0.008 0.186-0.193 0.391-0.182 0.505 0.01 0.114 0.05 0.226 0.111 0.299 0.062 0.072 0.01 0.205-0.041 0.381-0.049 0.174 0.021 0.492 0.133 0.668 0.112 0.175 0.174 0.288 0.215 0.452 0.041 0.165 0.152 0.257 0.266 0.298 0.026 0.011 0.066 0.019 0.117 0.019v0.175c0.012 0.185-0.241 0.448-0.475 0.459-0.189-0.003-0.363 0.034-0.471 0.11-0.316 0.226-0.525 0.129-0.693 0.339-0.398 0.494-0.543 0.752-0.533 1.398-0.354 0.35-0.704 0.712-0.693 1.482-0.174-0.422-0.368-0.391-0.5-0.71-0.042-0.097-0.123-0.175-0.226-0.216 0.023-0.062 0.031-0.132 0.021-0.207 0.235-0.204 0.092-0.38 0.194-0.564 0.102-0.185 0.041-0.36-0.011-0.452-0.051-0.094-0.092-0.132-0.173-0.227-0.112-0.129-0.302 0.006-0.296 0.155 0.002 0.073 0.018 0.131 0.04 0.177-0.056 0.021-0.25 0.117-0.336 0.152-0.052 0.046-0.501 0.437-0.681 0.597-0.039 0.297 0.086 0.647 0.24 0.782 0.154 0.134 0.358 0.462 0.389 0.658 0.031 0.195 0.101 0.412 0.256 0.637 0.152 0.227 0.377 0.475 0.551 0.628 0.173 0.155 0.205 0.196 0.398 0.196s0.357-0.051 0.531-0.236 0.185-0.371 0.338-0.492c0.152-0.125 0.609-0.512 0.756-0.948 0.02 0.045 0.035 0.087 0.073 0.123 0.013 0.163-0.033 0.359 0.161 0.442 0 0.154-0.021 0.69 0.004 0.993 0.508 0.118 2.643 0.058 3.254-0.149 0.021-0.371 0.041-0.823 0.104-1.028 0.082 0.289 0.367 0.513 0.47 0.822 0.103 0.31 0.204 0.557 0.47 0.557 0.245 0 0.602-0.308 0.862-0.418v-0.775h1.185c0.17 0.082 0.382 0.014 0.461 0.049 0.102 0.049 0.297 0.074 0.408 0.022 0.041-0.02 0.059-0.047 0.061-0.071h0.789v-0.001zm-1.719 0c-0.014-0.007-0.029-0.017-0.045-0.026m-6.802-2.764c-0.012 0.34-0.186 0.67-0.164 0.968 0.021 0.299 0.245 0.638 0.745 0.268m-0.428 0.174c0.01 0.381 0.05 0.576 0.419 0.629m3.105-2.316c0.019 0.288 0.245 0.347 0.245 0.658 0 0.236-0.048 0.519-0.165 0.647-0.174 0.196-0.457 0.125-0.582 0.104m-0.654-2.726c0.012 0.112-0.04 0.504-0.102 0.639m0.604 0.041c-0.297-0.094-0.511 0.257-0.787 0.257 0.184-0.042 0.348-0.054 0.562-0.011m-1.828-0.031c0.355-0.021 0.469 0.186 0.623 0.186m-0.44 1.636c0.459 0.02 0.532-0.443 0.747-0.443 0.214 0 0.336 0.278 0.725 0.329m1.541-1.677c0.174 0.175 0.277 0.37 0.246 0.648m0.164 0.988c0.286 0.504 0.378 0.947 0.316 1.307m-2.801 0.842c0.062-0.028 0.246-0.01 0.307 0.012m-1.172-0.257c0.447 0.03 0.662-0.371 0.908-0.361 0.244 0.011 0.367 0.185 0.704 0.258m-1.715-0.309c0.285 0.021 0.601-0.153 0.744-0.329m-0.489-0.011c0.143-0.04 0.377-0.195 0.479-0.36m-0.449-0.041c0.135-0.02 0.257-0.174 0.307-0.247m0.521 0.042c0.052 0.051 0.113 0.113 0.162 0.145m-0.213 0.039c0.051 0.123 0.296 0.247 0.439 0.267m1.104-0.906c0.021 0.176-0.012 0.319-0.152 0.423m0.14-0.205c0.057 0.215-0.01 0.441-0.275 0.586m0.255-0.258c0.073 0.143 0.124 0.392-0.091 0.597m0.111-0.153c0.041 0.268-0.141 0.597-0.438 0.67m-5.781-0.733c0.44 0.453 0.255 0.793 1.062 1.42" stroke="#000" stroke-miterlimit="2.5" stroke-width=".0816" fill="none"/>
				<path d="m62.812 41.147c0.062 0.515 0.562 1.408 0.648 1.582 0.275 0.556-0.053 0.491 0.122 0.639 0.175 0.144-0.132 0.092 0.184 0.431-0.05 0.834-0.081 2.058-0.122 2.719-0.039 0.656 0.122 1.479 0.122 1.953 0.757-0.185 1.452-0.492 2.187-0.369 0.021-0.989-0.346-0.702-0.408-1.873-0.062-1.174-0.205-2.778-0.082-3.869-0.143-1.606-0.49-3.551-1.104-4.929-0.622 0.062-3.187 0.206-3.513 0.092-0.47 1.38-0.734 3.17-0.612 4.733 0.106 1.376 0.103 2.212 0.046 2.684-0.35 0.804-0.383 1.527-0.414 3.839 0.287 0.31 0.572 0.453 0.879 0.598 0.469-0.084 0.959-0.288 1.204-0.412 0-0.822 0.066-1.214 0.021-1.566-0.092-0.726 0.219-1.743 0.094-2.983-0.036-0.529 0.564-1.407 0.748-3.269z" fill="#fff"/>
				<path d="m62.812 41.147c0.062 0.515 0.562 1.408 0.648 1.582 0.275 0.556-0.053 0.491 0.122 0.639 0.175 0.144-0.132 0.092 0.184 0.431-0.05 0.834-0.081 2.058-0.122 2.719-0.039 0.656 0.122 1.479 0.122 1.953 0.757-0.185 1.452-0.492 2.187-0.369 0.021-0.989-0.346-0.702-0.408-1.873-0.062-1.174-0.205-2.778-0.082-3.869-0.143-1.606-0.49-3.551-1.104-4.929-0.622 0.062-3.187 0.206-3.513 0.092-0.47 1.38-0.734 3.17-0.612 4.733 0.106 1.376 0.103 2.212 0.046 2.684-0.35 0.804-0.383 1.527-0.414 3.839 0.287 0.31 0.572 0.453 0.879 0.598 0.469-0.084 0.959-0.288 1.204-0.412 0-0.822 0.066-1.214 0.021-1.566-0.092-0.726 0.219-1.743 0.094-2.983-0.036-0.529 0.564-1.407 0.748-3.269zm-0.946-3.089c-0.205 2.223-0.286 4.075-0.488 5.021-0.207 0.947-0.287 1.525-0.287 2.307 0 0.78-0.327 2.551-0.348 3.992m4.719-7.019c-0.143 0.947-0.408 2.695-0.49 3.99m0.306-0.799c-0.041 0.534-0.102 1.254-0.123 1.646m-1.328-9.693c0.43 1.151 0.816 2.365 0.839 3.354m-0.461-2.974c0.042 0.134 0.071 0.504 0.071 0.629m0.153-0.382c0.033 0.144 0.074 0.298 0.094 0.421m-1.655-0.803c0 0.453 0.021 1.071 0.021 1.359m-2.402-0.173c0.06-0.258 0.398-0.588 0.776-0.928l0.143 0.217c-0.367 0.361-0.99 1.05-1.031 1.297m0.072-4.539c-0.011 0.278-0.319 0.43-0.378 0.731-0.021 0.102-0.225 0.318-0.348 0.349" stroke="#000" stroke-miterlimit="2.5" stroke-width=".0816" fill="none"/>
				<path d="m61.866 29.056c-0.068-0.179-0.266-0.155-0.336-0.175-0.624-0.412 0.017-1.195 0.479-1.059 0.461 0.132 0.613-0.198 1.115 0.05 0.262 0.129 0.924 0.586 0.907 1.318-0.011 0.512-0.204 0.997-0.234 1.388-0.031 0.392-0.317 0.494-0.46 0.504-0.01-0.216 0-0.36 0.031-0.473 0.225-0.207 0.354-0.524 0.306-0.68-0.062-0.205-0.306-0.185-0.449 0.206l-0.101-0.072c0.142-0.277 0.244-0.504 0.233-0.739-0.01-0.237-0.153-0.557-0.357-0.455-0.204 0.104-0.347 0.083-0.448 0.031-0.103-0.051-0.268 0.052-0.389 0.135-0.123 0.081-0.247 0.155-0.297 0.021z" fill="#996B38"/>
				<path stroke-width=".0816" d="m61.866 29.056c-0.068-0.179-0.266-0.155-0.336-0.175-0.624-0.412 0.017-1.195 0.479-1.059 0.461 0.132 0.613-0.198 1.115 0.05 0.262 0.129 0.924 0.586 0.907 1.318-0.011 0.512-0.204 0.997-0.234 1.388-0.031 0.392-0.317 0.494-0.46 0.504-0.01-0.216 0-0.36 0.031-0.473 0.225-0.207 0.354-0.524 0.306-0.68-0.062-0.205-0.306-0.185-0.449 0.206l-0.101-0.072c0.142-0.277 0.244-0.504 0.233-0.739-0.01-0.237-0.153-0.557-0.357-0.455-0.204 0.104-0.347 0.083-0.448 0.031-0.103-0.051-0.268 0.052-0.389 0.135-0.123 0.081-0.247 0.155-0.297 0.021z" stroke="#000" fill="none"/>
				<path d="m61.526 29.556c0.298-0.09 0.354 0.039 0.494-0.002 0.105-0.029 0.011 0.207-0.022 0.353-0.026 0.122-0.034 0.14-0.132 0.192-0.066 0.037-0.07 0.024-0.014-0.029 0.115-0.11 0.133-0.319 0.056-0.26-0.068 0.053-0.21 0.056-0.243 0.019-0.037-0.038-0.074-0.049-0.105-0.05-0.029-0.001-0.055-0.085 0.035-0.098 0.092-0.011 0.199-0.011 0.229-0.016 0.032-0.003 0.063-0.019-0.005-0.023-0.066-0.008-0.181 0.023-0.244 0.015-0.061-0.006-0.128-0.077-0.049-0.101z"/>
				<path d="m62.354 29.548c0.125-0.14 0.355-0.01 0.486-0.028 0.129-0.021 0.201 0.017 0.06 0.057-0.142 0.039-0.316 0-0.396 0.026-0.079 0.021-0.2 0.004-0.15-0.055z"/>
				<path d="m62.415 29.767c0.065 0.029 0.06 0.112 0.06 0.173 0 0.049 0.067 0.067 0.101 0.031 0.035-0.035 0.119-0.047 0.17-0.092 0.029-0.029 0.057-0.114 0.133-0.114s0.115 0.021 0.103-0.031c-0.017-0.052-0.087-0.067-0.164-0.077-0.075-0.01-0.209-0.036-0.288-0.01-0.074 0.026-0.106 0.018-0.156-0.004-0.059-0.028-0.02 0.1 0.041 0.124z"/>
				<path d="m62.493 30.469c0.078-0.004 0.1-0.041 0.027-0.042-0.062-0.002-0.168-0.028-0.174-0.11-0.006-0.068-0.032-0.082-0.039-0.021-0.006 0.062-0.067 0.092-0.101 0.1-0.062 0.017-0.184 0.032-0.255-0.073-0.036 0.037-0.069 0.045-0.11 0.019-0.048-0.031-0.056 0.009-0.019 0.039s0.078 0.039 0.125 0.02c0.035 0.066 0.107 0.094 0.183 0.097 0.099 0.004 0.185-0.024 0.222-0.087 0.024 0.047 0.081 0.062 0.141 0.058z"/>
				<path d="m62.511 30.861c-0.092 0-0.176 0.06-0.236 0.098-0.096 0.061-0.201 0.046-0.261-0.012-0.058-0.054-0.126-0.091-0.169-0.112-0.041-0.02 0.053-0.056 0.129-0.013 0.08 0.042 0.188 0.044 0.244 0.023 0.058-0.021 0.164-0.043 0.222-0.016-0.064-0.037-0.147-0.059-0.199-0.052-0.054 0.006-0.104 0.019-0.15-0.002-0.046-0.022-0.166 0.024-0.218 0.03-0.053 0.008-0.102-0.02-0.032-0.038 0.074-0.021 0.149-0.05 0.179-0.066 0.03-0.018 0.08-0.01 0.102 0.005 0.023 0.015 0.037 0.002 0.068-0.011 0.028-0.013 0.09-0.012 0.146 0.013 0.072 0.031 0.108 0.061 0.15 0.084 0.043 0.027 0.048-0.04 0.066 0.018 0.023 0.082-0.018 0.051-0.041 0.051z"/>
				<path d="m58.566 34.498c-0.044 0.114-0.133 0.207-0.214 0.271m-0.54-0.457c0.112-0.328 0.326-0.401 0.479-0.371 0-0.143 0.03-0.309 0.183-0.41-0.037-0.032-0.093-0.075-0.132-0.152" stroke="#000" stroke-miterlimit="2.5" stroke-width=".0816" fill="none"/>
				<path d="m57.208 33.3c-0.113-0.036-0.208-0.014-0.21 0.205-0.001 0.22 0.229 0.371 0.354 0.427 0.059 0.027 0.196 0.043 0.201-0.19-0.106-0.062-0.321-0.275-0.345-0.442z" fill="#FFCE46"/>
				<path d="m57.208 33.3c-0.113-0.036-0.208-0.014-0.21 0.205-0.001 0.22 0.229 0.371 0.354 0.427 0.059 0.027 0.196 0.043 0.201-0.19-0.106-0.062-0.321-0.275-0.345-0.442z" stroke="#000" stroke-miterlimit="2.5" stroke-width=".0816" fill="none"/>
				<path d="m57.423 33.053c-0.121-0.021-0.218-0.021-0.239 0.199-0.02 0.217 0.232 0.408 0.331 0.494 0.088 0.079 0.317 0.021 0.213-0.223-0.1-0.072-0.295-0.301-0.305-0.47z" fill="#FFCE46"/>
				<path d="m57.423 33.053c-0.121-0.021-0.218-0.021-0.239 0.199-0.02 0.217 0.232 0.408 0.331 0.494 0.088 0.079 0.317 0.021 0.213-0.223-0.1-0.072-0.295-0.301-0.305-0.47z" stroke="#000" stroke-miterlimit="2.5" stroke-width=".0816" fill="none"/>
				<path d="m57.648 32.846c-0.12-0.029-0.216-0.041-0.257 0.176-0.039 0.217 0.17 0.396 0.25 0.499 0.057 0.071 0.287 0.14 0.266-0.175-0.091-0.082-0.265-0.329-0.259-0.5z" fill="#FFCE46"/>
				<path d="m57.648 32.846c-0.12-0.029-0.216-0.041-0.257 0.176-0.039 0.217 0.17 0.396 0.25 0.499 0.057 0.071 0.287 0.14 0.266-0.175-0.091-0.082-0.265-0.329-0.259-0.5z" stroke="#000" stroke-miterlimit="2.5" stroke-width=".0816" fill="none"/>
				<path d="m57.677 32.713c-0.104 0.103-0.096 0.247 0.018 0.427 0.111 0.181 0.244 0.365 0.418 0.315 0.174-0.053 0.052-0.253-0.016-0.32-0.066-0.066-0.173-0.231-0.18-0.283l0.113-0.051c-0.072-0.073-0.205-0.233-0.353-0.088z" fill="#FFCE46"/>
				<path d="m57.677 32.713c-0.104 0.103-0.096 0.247 0.018 0.427 0.111 0.181 0.244 0.365 0.418 0.315 0.174-0.053 0.052-0.253-0.016-0.32-0.066-0.066-0.173-0.231-0.18-0.283l0.113-0.051c-0.072-0.073-0.205-0.233-0.353-0.088z" stroke="#000" stroke-miterlimit="2.5" stroke-width=".0816" fill="none"/>
				<path d="m64.409 33.87c-0.07 0.309-0.092 0.576-0.008 0.762 0.079 0.186 0.131 0.494 0.131 0.679 0 0.187 0.083 0.823 0.501 1.039-0.103-0.04-0.438-0.216-0.349-0.081-0.182-0.288-0.296-0.421-0.305-0.535-0.022 0.155-0.072 0.328-0.062 0.411-0.041-0.494-0.082-0.792-0.082-1.133 0-0.338 0.012-0.688-0.01-0.791 0.063-0.083 0.184-0.267 0.184-0.351z"/>
				<path d="m60.764 35.023c-0.011 0.134-0.014 0.243 0.022 0.328m1.551-3.086c-0.18-0.11-0.429-0.169-0.654-0.171m-0.821 3.38c0.037 0.034 0.098 0.065 0.197 0.083m1.098-3.922c0.021 0.459 0.092 0.3 0.24 0.662m0.481-1.113c-0.31 0.22-0.564 0.278-0.721 0.276m1.455 0.424c0.229 0 0.379 0.007 0.506 0.039m1.549 4.099c0.006-0.05 0.01-0.095 0.015-0.14" stroke="#000" stroke-miterlimit="2.5" stroke-width=".0816" fill="none"/>
				<path d="m62.192 37.219c0 0.572-0.072 0.535 0.512 0.535 0.572 0 0.516 0.043 0.516-0.549 0-0.562 0.051-0.506-0.566-0.506-0.523 0-0.462-0.052-0.462 0.52z" fill="#FFE26D"/>
				<path d="m62.192 37.219c0 0.572-0.072 0.535 0.512 0.535 0.572 0 0.516 0.043 0.516-0.549 0-0.562 0.051-0.506-0.566-0.506-0.523 0-0.462-0.052-0.462 0.52z" stroke="#000" stroke-miterlimit="2.5" stroke-width=".0816" fill="none"/>
				<path d="m62.189 36.905c-0.427 0.042-0.915 0.028-1.15-0.02-0.225-0.047-0.235 0.072-0.258 0.365-0.013 0.235-0.044 0.328 0.217 0.354 0.327 0.032 0.958 0.005 1.191 0.016v-0.715z" fill="#996B38"/>
				<path d="m62.189 36.905c-0.427 0.042-0.915 0.028-1.15-0.02-0.225-0.047-0.235 0.072-0.258 0.365-0.013 0.235-0.044 0.328 0.217 0.354 0.327 0.032 0.958 0.005 1.191 0.016v-0.715z" stroke="#000" stroke-miterlimit="2.5" stroke-width=".0816" fill="none"/>
				<path d="m63.217 36.875c0.308 0 0.878-0.113 1.03-0.154 0.154-0.041 0.146 0.045 0.189 0.355 0.039 0.309-0.027 0.385-0.24 0.416-0.215 0.03-0.765 0.082-0.979 0.062v-0.679z" fill="#996B38"/>
				<path d="m63.217 36.875c0.308 0 0.878-0.113 1.03-0.154 0.154-0.041 0.146 0.045 0.189 0.355 0.039 0.309-0.027 0.385-0.24 0.416-0.215 0.03-0.765 0.082-0.979 0.062v-0.679z" stroke="#000" stroke-miterlimit="2.5" stroke-width=".0816" fill="none"/>
				<path d="m62.341 37.223c0 0.414-0.044 0.366 0.364 0.366 0.401 0 0.351 0.048 0.351-0.366 0-0.394 0.076-0.362-0.357-0.362-0.364-0.001-0.358-0.04-0.358 0.362z" fill="#996B38"/>
				<path d="m62.341 37.223c0 0.414-0.044 0.366 0.364 0.366 0.401 0 0.351 0.048 0.351-0.366 0-0.394 0.076-0.362-0.357-0.362-0.364-0.001-0.358-0.04-0.358 0.362z" stroke="#000" stroke-miterlimit="2.5" stroke-width=".0816" fill="none"/>
				<path d="m60.854 37.24c-0.018 0.145-0.024 0.159 0.189 0.16 0.178 0 0.214 0.03 0.214-0.113 0-0.145-0.041-0.13-0.175-0.13-0.13 0-0.212-0.041-0.228 0.083z" fill="#FFE26D"/>
				<path d="m60.854 37.24c-0.018 0.145-0.024 0.159 0.189 0.16 0.178 0 0.214 0.03 0.214-0.113 0-0.145-0.041-0.13-0.175-0.13-0.13 0-0.212-0.041-0.228 0.083z" stroke="#000" stroke-miterlimit="2.5" stroke-width=".0816" fill="none"/>
				<path d="m61.483 37.276c0 0.154 0.065 0.128 0.193 0.128 0.129 0 0.246 0.021 0.246-0.106 0-0.129 0-0.146-0.24-0.146-0.189 0-0.199 0.005-0.199 0.124z" fill="#FFE26D"/>
				<path d="m61.483 37.276c0 0.154 0.065 0.128 0.193 0.128 0.129 0 0.246 0.021 0.246-0.106 0-0.129 0-0.146-0.24-0.146-0.189 0-0.199 0.005-0.199 0.124z" stroke="#000" stroke-miterlimit="2.5" stroke-width=".0816" fill="none"/>
				<path d="m63.874 37.188c0 0.129 0.146 0.113 0.25 0.099 0.102-0.017 0.189-0.036 0.173-0.171-0.014-0.133-0.106-0.07-0.202-0.052-0.094 0.021-0.221-0.024-0.221 0.124z" fill="#FFE26D"/>
				<path d="m63.874 37.188c0 0.129 0.146 0.113 0.25 0.099 0.102-0.017 0.189-0.036 0.173-0.171-0.014-0.133-0.106-0.07-0.202-0.052-0.094 0.021-0.221-0.024-0.221 0.124z" stroke="#000" stroke-miterlimit="2.5" stroke-width=".0816" fill="none"/>
				<path d="m63.296 37.225c0 0.153 0.066 0.129 0.195 0.129 0.127 0 0.225 0.021 0.225-0.108s-0.031-0.144-0.221-0.144c-0.187-0.001-0.199 0.004-0.199 0.123z" fill="#FFE26D"/>
				<path d="m63.296 37.225c0 0.153 0.066 0.129 0.195 0.129 0.127 0 0.225 0.021 0.225-0.108s-0.031-0.144-0.221-0.144c-0.187-0.001-0.199 0.004-0.199 0.123zm-2.655 7.006c-0.149 0.265-0.267 0.491-0.362 0.709m1.73-0.915c0.023 0.135 0.041 0.264 0.053 0.391m0.75-3.269c0.031-0.312 0.054-0.663 0.057-1.032m4.371 8.767c0.062-0.298-0.378-0.174-0.552-0.185m1.608-12.778c0.004-0.045-0.037-0.092-0.086-0.104-0.077-0.021-0.207-0.066-0.276-0.134-0.065-0.065-0.311-0.041-0.418-0.071m16.278 14.003c0.102 0.046 0.182 0.174 0.195 0.287m-0.409-0.112c0.173 0.052 0.22 0.249 0.184 0.366m-0.5-0.187c0.106 0.059 0.169 0.172 0.169 0.255m-0.583-0.404c0.224 0.108 0.29 0.377 0.156 0.544m-6.373-14.443c0.016-0.007 0.032-0.017 0.046-0.026m6.803-2.764c0.011 0.34 0.184 0.67 0.163 0.968-0.021 0.299-0.244 0.638-0.744 0.268m0.426 0.174c-0.01 0.381-0.049 0.576-0.416 0.629m-3.105-2.316c-0.021 0.288-0.247 0.347-0.247 0.658 0 0.236 0.048 0.519 0.165 0.647 0.172 0.196 0.46 0.125 0.58 0.104m0.656-2.726c-0.011 0.112 0.039 0.504 0.102 0.639m-0.602 0.041c0.296-0.094 0.51 0.257 0.785 0.257-0.184-0.042-0.347-0.054-0.562-0.011m1.828-0.031c-0.355-0.021-0.47 0.186-0.623 0.186m0.439 1.636c-0.459 0.02-0.531-0.443-0.745-0.443s-0.337 0.278-0.726 0.329m-1.542-1.677c-0.175 0.175-0.275 0.37-0.245 0.648m-0.164 0.988c-0.285 0.504-0.379 0.947-0.315 1.307m2.798 0.842c-0.061-0.028-0.244-0.01-0.306 0.012m1.174-0.257c-0.449 0.03-0.664-0.371-0.908-0.361-0.245 0.011-0.367 0.185-0.706 0.258m1.716-0.309c-0.286 0.021-0.602-0.153-0.746-0.329m0.491-0.011c-0.143-0.04-0.377-0.195-0.48-0.36m0.449-0.041c-0.132-0.02-0.255-0.174-0.307-0.247m-0.52 0.042c-0.051 0.051-0.112 0.113-0.163 0.145m0.214 0.039c-0.051 0.123-0.297 0.247-0.439 0.267m-1.102-0.906c-0.022 0.176 0.009 0.319 0.152 0.423m-0.143-0.205c-0.056 0.215 0.011 0.441 0.276 0.586m-0.256-0.258c-0.07 0.143-0.123 0.392 0.092 0.597m-0.112-0.153c-0.04 0.268 0.144 0.597 0.44 0.67m5.781-0.733c-0.438 0.453-0.255 0.793-1.062 1.42m-2.79 1.523c0.204 2.223 0.286 4.075 0.491 5.021 0.205 0.947 0.287 1.525 0.287 2.307 0 0.78 0.326 2.551 0.347 3.992m-4.72-7.019c0.144 0.947 0.409 2.695 0.49 3.99m-0.306-0.799c0.042 0.534 0.103 1.254 0.123 1.646m1.328-9.693c-0.43 1.151-0.818 2.365-0.838 3.354m0.459-2.974c-0.039 0.134-0.07 0.504-0.07 0.629m-0.155-0.382c-0.03 0.144-0.071 0.298-0.092 0.421m1.656-0.803c0 0.453-0.021 1.071-0.021 1.359m2.401-0.173c-0.061-0.258-0.398-0.588-0.775-0.928l-0.145 0.217c0.367 0.361 0.992 1.05 1.032 1.297m-0.071-4.539c0.011 0.278 0.318 0.43 0.378 0.731 0.021 0.102 0.225 0.318 0.347 0.349m1.155-1.563c0.042 0.114 0.132 0.207 0.214 0.271m0.542-0.457c-0.113-0.328-0.328-0.401-0.48-0.371 0-0.143 0-0.309-0.153-0.41 0.038-0.032 0.116-0.139 0.128-0.247m-2.448 1.739c0.01 0.134 0.013 0.243-0.022 0.328m-1.551-3.086c0.178-0.11 0.427-0.169 0.655-0.171m0.821 3.38c-0.04 0.034-0.1 0.065-0.199 0.083m-1.099-3.922c-0.021 0.459-0.092 0.3-0.239 0.662m-0.481-1.113c0.309 0.22 0.566 0.278 0.721 0.276m-1.455 0.424c-0.23 0-0.38 0.007-0.507 0.039m-1.546 4.099c-0.008-0.05-0.012-0.095-0.018-0.14m5.043 8.349c0.147 0.265 0.268 0.491 0.361 0.709m-1.73-0.915c-0.023 0.135-0.042 0.264-0.055 0.391m-0.748-3.269c-0.031-0.312-0.053-0.663-0.056-1.032m-4.371 8.767c-0.062-0.298 0.375-0.174 0.553-0.185m-1.61-12.778c-0.005-0.045 0.039-0.092 0.086-0.104 0.076-0.021 0.21-0.066 0.276-0.134 0.065-0.065 0.312-0.041 0.419-0.071" stroke="#000" stroke-miterlimit="2.5" stroke-width=".0816" fill="none"/>
				<path d="m72.052 55.057c1 0 1.816-0.079 2.576-0.262 0.008 0.145 0.003 0.278-0.002 0.4-0.229 0.036-0.473 0.066-0.725 0.086-0.041 1.008 0.734 1.071 1.061 0.968 0.328-0.104 0.961-0.226 1.328-0.288 0.936-0.156 1.023-1.09 0.634-1.666-0.063-0.092-0.122-0.197-0.179-0.309 0.37-0.19 0.758-0.407 1.18-0.658 2.881 1.316 3.045 0.185 3.27-0.225 0.166-0.309 0.531-0.825 0.674-0.988 0.221-0.254 0.451-0.597 0-0.928-1.045-0.766-2.598-0.782-3.967-0.04-0.531-0.062-0.816-0.095-1.123-0.186-0.203-0.062-0.652-0.146-0.979 0.104-0.366 0.277-0.828 0.455-1.328 0.616-0.465 0.151-0.436 0.754-0.283 1.272-0.63 0.157-1.326 0.253-2.137 0.253-0.812 0-1.508-0.096-2.141-0.253 0.154-0.518 0.187-1.12-0.28-1.272-0.5-0.161-0.962-0.339-1.329-0.616-0.326-0.249-0.777-0.165-0.98-0.104-0.303 0.091-0.59 0.123-1.122 0.186-1.366-0.742-2.919-0.726-3.966 0.04-0.447 0.331-0.22 0.674 0 0.928 0.143 0.163 0.508 0.68 0.675 0.988 0.225 0.41 0.388 1.541 3.268 0.225 0.422 0.251 0.809 0.469 1.181 0.658-0.056 0.112-0.116 0.218-0.179 0.309-0.389 0.576-0.301 1.51 0.633 1.666 0.367 0.062 1.002 0.185 1.328 0.288 0.327 0.104 1.104 0.04 1.062-0.968-0.254-0.02-0.497-0.05-0.725-0.086-0.006-0.122-0.01-0.256-0.003-0.4 0.759 0.183 1.578 0.262 2.578 0.262z" stroke="#996B38" stroke-miterlimit="2.5" stroke-width=".0816" fill="#fff"/>
				<path d="m66.177 53.327c-0.838-0.483-1.549-0.727-2.104-0.668-0.593 0.062-1.226 0.338-0.981 0.813m4.163-2.49c0.71-0.161 1.001 0.334 0.802 1.007-0.021 0.069-0.041 0.143-0.063 0.216m-0.637 1.78c0.734 0.377 1.403 0.639 2.114 0.809m0.44-1.842c-1.405-0.354-2.439-1.017-3.428-1.642-0.092-0.059-0.187-0.113-0.279-0.164m3.274 4.049c-0.672-0.108-1.205-0.286-1.462-0.519 0.531 0.554 0.184 1.387-0.449 1.212m10.358-2.561c0.839-0.483 1.549-0.727 2.104-0.668 0.594 0.062 1.229 0.338 0.98 0.813m-4.161-2.49c-0.71-0.161-1 0.334-0.802 1.007 0.021 0.069 0.041 0.143 0.062 0.216m0.637 1.78c-0.736 0.377-1.402 0.639-2.114 0.809m-0.44-1.842c1.405-0.354 2.439-1.017 3.427-1.642 0.092-0.059 0.186-0.113 0.28-0.164m-3.272 4.049c0.668-0.108 1.204-0.286 1.461-0.519-0.531 0.554-0.184 1.387 0.449 1.212" stroke="#996B38" stroke-miterlimit="2.5" stroke-width=".0816" fill="none"/>
				<path d="m62.909 51.335c-0.066 0.036-0.139 0.109-0.082 0.234s0.166 0.146 0.4 0.129c0.174-0.013 0.359 0.031 0.451 0.233 0.131 0.292-0.127 0.456-0.245 0.51-0.073 0.035-0.194 0.071-0.278 0.076-0.047 0.001-0.057 0.001-0.062 0.065l-0.034 0.016-0.173-0.39 0.031-0.014c0.122 0.188 0.324 0.283 0.5 0.203 0.149-0.07 0.166-0.203 0.135-0.274-0.049-0.109-0.171-0.137-0.385-0.128-0.189 0.005-0.381-0.042-0.461-0.219-0.102-0.224-0.009-0.405 0.184-0.492 0.104-0.049 0.213-0.057 0.274-0.058 0.057 0.001 0.066-0.022 0.06-0.099l0.034-0.016 0.161 0.355-0.036 0.016c-0.184-0.208-0.366-0.208-0.474-0.147z"/>
				<path d="m64.87 51.871l0.066-0.623c0.013-0.102-0.056-0.135-0.135-0.157l0.004-0.035 0.346 0.038-0.003 0.038c-0.079-0.004-0.14 0.021-0.15 0.122l-0.067 0.608c-0.025 0.235-0.121 0.472-0.504 0.43-0.293-0.032-0.496-0.199-0.465-0.485l0.074-0.659c0.01-0.102-0.063-0.134-0.135-0.155l0.004-0.037 0.598 0.067-0.005 0.036c-0.076 0.005-0.157 0.018-0.166 0.122l-0.071 0.639c-0.023 0.218 0.041 0.372 0.246 0.396 0.203 0.02 0.334-0.096 0.363-0.345z"/>
				<path d="m65.229 52.061l0.194-0.481 0.298 0.081-0.094 0.231c0.225 0.092 0.303 0.032 0.338-0.054 0.02-0.049 0.057-0.147 0.073-0.182 0.044-0.11-0.017-0.156-0.048-0.169-0.029-0.012-0.075-0.029-0.109-0.045-0.034-0.014-0.065-0.018-0.085 0.027l-0.075 0.19-0.298-0.081 0.069-0.176c0.04-0.101-0.029-0.157-0.094-0.196l0.016-0.034s0.366 0.15 0.572 0.233c0.217 0.089 0.378 0.256 0.301 0.446-0.076 0.19-0.246 0.175-0.374 0.157 0.133 0.083 0.28 0.234 0.2 0.435-0.072 0.183-0.333 0.25-0.54 0.165-0.204-0.083-0.634-0.258-0.634-0.258l0.015-0.035c0.069 0.016 0.16 0.025 0.2-0.072l0.075-0.182 0.285 0.112-0.1 0.247c-0.016 0.033 0.014 0.066 0.041 0.075 0.024 0.011 0.052 0.024 0.121 0.052 0.07 0.027 0.158-0.015 0.195-0.104 0.019-0.051 0.049-0.125 0.075-0.19 0.034-0.081 0.015-0.198-0.084-0.238-0.103-0.042-0.144-0.058-0.159-0.065l-0.09 0.225-0.284-0.114z"/>
				<path d="m67.462 53.143l0.319-0.537c0.052-0.088 0.005-0.146-0.058-0.197l0.018-0.031 0.298 0.178-0.019 0.031c-0.071-0.033-0.135-0.037-0.188 0.051l-0.312 0.523c-0.121 0.205-0.306 0.38-0.635 0.181-0.255-0.153-0.37-0.389-0.223-0.638l0.34-0.568c0.051-0.089 0-0.146-0.059-0.197l0.018-0.032 0.516 0.313-0.018 0.03c-0.071-0.027-0.15-0.048-0.203 0.042l-0.326 0.548c-0.113 0.19-0.119 0.358 0.059 0.466 0.175 0.103 0.344 0.052 0.473-0.163z"/>
				<path d="m69.091 54.156c-0.039 0.101 0.014 0.149 0.086 0.191l-0.016 0.035-0.549-0.222 0.014-0.034c0.084 0.02 0.152 0.02 0.19-0.081l0.337-0.84-0.846 0.829-0.064-0.026-0.006-1.229-0.352 0.888c-0.043 0.101 0.016 0.151 0.09 0.194l-0.014 0.035-0.35-0.144 0.013-0.033c0.085 0.021 0.161 0.024 0.199-0.076l0.337-0.841c0.038-0.1-0.025-0.157-0.109-0.202l0.013-0.034 0.456 0.185 0.004 0.947 0.682-0.669 0.438 0.178-0.013 0.034c-0.082-0.021-0.164-0.026-0.204 0.072l-0.336 0.843z"/>
				<path d="m71.235 53.854l-0.019 0.271c0.312 0.011 0.368-0.103 0.378-0.271 0.014-0.168-0.078-0.275-0.209-0.281-0.08-0.002-0.133 0.016-0.135 0.072l-0.015 0.209-0.309-0.012 0.012-0.178c0.008-0.105-0.089-0.138-0.168-0.156l0.002-0.039 0.616 0.043c0.3 0.021 0.526 0.132 0.513 0.368-0.014 0.169-0.138 0.259-0.316 0.291l0.342 0.591c0.007 0.017 0.029 0.025 0.059 0.029l-0.003 0.036-0.36-0.025-0.359-0.63c-0.027-0.002-0.049-0.002-0.049-0.002l-0.027 0.42c-0.008 0.104 0.068 0.136 0.138 0.153l-0.003 0.037-0.609-0.042 0.003-0.036c0.084-0.008 0.155-0.027 0.163-0.135l0.049-0.727 0.306 0.014z"/>
				<path d="m72.603 54.34l0.196-0.016c-0.214-0.416-0.218-0.436-0.218-0.436s-0.053 0.164-0.152 0.464l0.174-0.012 0.004 0.08-0.205 0.014c-0.016 0.051-0.033 0.108-0.057 0.165-0.048 0.15 0.037 0.154 0.144 0.169l0.002 0.036-0.379 0.028-0.002-0.037c0.061-0.013 0.113-0.083 0.145-0.162 0.369-1.101 0.373-1.114 0.373-1.114l0.066-0.003s0.025 0.047 0.522 1.036c0.034 0.072 0.05 0.14 0.179 0.149l0.003 0.035-0.625 0.046-0.003-0.036c0.127-0.026 0.205-0.048 0.158-0.164-0.033-0.066-0.064-0.126-0.09-0.181l-0.232 0.018-0.003-0.079z"/>
				<path d="m74.005 54.642l-0.01-0.036c0.078-0.033 0.166-0.084 0.139-0.186l-0.23-0.879c-0.028-0.102-0.129-0.101-0.212-0.092l-0.01-0.036 1.076-0.288 0.101 0.382-0.049 0.014c-0.062-0.238-0.287-0.272-0.406-0.241-0.056 0.016-0.123 0.034-0.173 0.047-0.039 0.012-0.057 0.033-0.028 0.138 0.018 0.074 0.104 0.4 0.104 0.4 0.071-0.019 0.263-0.044 0.237-0.336l0.036-0.01 0.157 0.604-0.046 0.012c-0.104-0.305-0.298-0.227-0.368-0.207l0.107 0.411c0.027 0.102 0.113 0.107 0.184 0.101l0.009 0.037-0.618 0.165z"/>
				<path d="m75.38 52.86l0.014 0.034c-0.072 0.044-0.138 0.099-0.1 0.196l0.342 0.819c0.037 0.097 0.095 0.108 0.15 0.087 0.044-0.021 0.09-0.04 0.147-0.062 0.131-0.056 0.266-0.226 0.226-0.482l0.049-0.021 0.094 0.42-1.016 0.423-0.013-0.032c0.069-0.044 0.151-0.104 0.112-0.203l-0.347-0.839c-0.041-0.098-0.124-0.092-0.203-0.071l-0.016-0.034 0.561-0.235z"/>
				<path d="m77.017 53.424c-0.182 0.104-0.414-0.067-0.577-0.352s-0.194-0.572-0.013-0.679c0.18-0.104 0.412 0.065 0.576 0.351 0.163 0.285 0.194 0.573 0.014 0.68l0.02 0.034c0.35-0.204 0.406-0.564 0.232-0.868-0.174-0.305-0.512-0.436-0.863-0.232-0.35 0.203-0.406 0.565-0.232 0.869 0.175 0.305 0.514 0.435 0.863 0.23l-0.02-0.033z"/>
				<path d="m78.687 51.393c-0.025-0.104-0.123-0.107-0.207-0.099l-0.01-0.038 1.082-0.257 0.09 0.384-0.047 0.012c-0.056-0.24-0.283-0.279-0.398-0.252-0.058 0.015-0.126 0.03-0.175 0.042-0.043 0.01-0.059 0.032-0.035 0.135 0.018 0.076 0.098 0.405 0.098 0.405 0.071-0.018 0.26-0.035 0.242-0.329l0.035-0.009 0.145 0.608-0.045 0.01c-0.1-0.307-0.291-0.234-0.362-0.216l0.098 0.412c0.023 0.104 0.05 0.116 0.091 0.107 0.049-0.014 0.115-0.027 0.174-0.042 0.137-0.034 0.287-0.14 0.33-0.424l0.053-0.014-0.002 0.404-1.082 0.259-0.008-0.035c0.079-0.032 0.166-0.079 0.143-0.183l-0.21-0.88z"/>
				<path d="m80.457 52.284c-0.204-0.056-0.247-0.342-0.163-0.66 0.086-0.315 0.268-0.543 0.47-0.487 0.201 0.055 0.245 0.341 0.16 0.66-0.085 0.317-0.266 0.543-0.467 0.487l-0.01 0.04c0.39 0.108 0.684-0.108 0.775-0.448 0.09-0.339-0.056-0.673-0.448-0.779-0.391-0.105-0.685 0.109-0.775 0.448-0.091 0.338 0.056 0.674 0.449 0.779l0.009-0.04z"/>
				<path d="m69.715 54.146l0.109-0.509 0.309 0.029-0.053 0.245c0.236 0.051 0.303-0.02 0.323-0.112 0.012-0.053 0.033-0.155 0.041-0.191 0.025-0.116-0.043-0.15-0.074-0.157-0.03-0.008-0.081-0.019-0.117-0.027-0.035-0.007-0.066-0.006-0.079 0.043l-0.041 0.2-0.309-0.029 0.04-0.185c0.024-0.106-0.057-0.148-0.124-0.178l0.008-0.034s0.388 0.085 0.603 0.132c0.229 0.05 0.418 0.185 0.373 0.387s-0.213 0.214-0.343 0.22c0.146 0.06 0.316 0.183 0.272 0.394-0.043 0.193-0.287 0.305-0.505 0.255-0.216-0.046-0.668-0.146-0.668-0.146l0.007-0.035c0.074 0.002 0.164-0.005 0.187-0.107l0.041-0.195 0.301 0.061-0.058 0.26c-0.008 0.039 0.025 0.064 0.053 0.069 0.027 0.006 0.059 0.013 0.131 0.028 0.073 0.017 0.152-0.041 0.174-0.137 0.01-0.053 0.026-0.13 0.043-0.199 0.018-0.086-0.021-0.198-0.126-0.222-0.104-0.021-0.149-0.032-0.166-0.036l-0.051 0.236-0.301-0.06z"/>
				<path d="m77.538 52.079l0.118 0.244c0.276-0.145 0.269-0.272 0.196-0.424-0.072-0.15-0.204-0.2-0.321-0.139-0.069 0.036-0.106 0.079-0.084 0.13l0.091 0.189-0.273 0.144-0.078-0.161c-0.045-0.096-0.143-0.075-0.223-0.051l-0.017-0.035 0.559-0.271c0.269-0.13 0.521-0.147 0.624 0.064 0.072 0.153 0.009 0.294-0.131 0.41l0.586 0.346c0.015 0.01 0.04 0.006 0.064-0.006l0.017 0.033-0.325 0.158-0.621-0.368c-0.025 0.014-0.045 0.021-0.045 0.021l0.183 0.379c0.046 0.098 0.128 0.086 0.196 0.067l0.016 0.032-0.551 0.268-0.016-0.033c0.071-0.049 0.121-0.101 0.077-0.199l-0.315-0.655 0.273-0.143z"/>
</g>
</svg>
