<?xml version="1.0" encoding="UTF-8" standalone="no"?>
<!-- Generator: Adobe Illustrator 18.0.0, SVG Export Plug-In . SVG Version: 6.00 Build 0)  -->
<!DOCTYPE svg  PUBLIC '-//W3C//DTD SVG 1.1//EN'  'http://www.w3.org/Graphics/SVG/1.1/DTD/svg11.dtd'>
<svg style="enable-background:new 0 0 144 80" xmlns="http://www.w3.org/2000/svg" xml:space="preserve" version="1.1" y="0px" x="0px" xmlns:xlink="http://www.w3.org/1999/xlink" viewBox="0 0 144 80">
<g id="PYF">
		<polygon points="144 59.999 0 59.999 0 20.001 144 20.001" fill="#fff"/>
		<polygon points="144 20.001 0 20.001 0 0 144 0" fill="#EC1C2E"/>
		<polygon points="0 80 144 80 144 59.999 0 59.999" fill="#EC1C2E"/>
			<path d="m67.552 43.947l-1.552 1.423c1.403 0.388 3.349-0.063 4.122-1.423h-2.57z" fill="#00539E"/>
			<path d="m54.749 44.862c1.051 1.033 2.789 0.913 3.84 0.259 1.049-0.654 1.821-0.696 2.476-0.627 0.07 0.583 0.225 1.331 0.489 2.068h-6.228c-0.155-0.377-0.456-1.26-0.577-1.7z" fill="#00539E"/>
			<path d="m55.8 47.635c1.222-0.568 2.471-0.117 3.013 0.292 0.999 0.757 2.648 0.553 3.458 0.122 0.308 0.496 0.684 0.984 1.135 1.356h-6.663c-0.271-0.429-0.857-1.486-0.943-1.77z" fill="#00539E"/>
			<path d="m85.151 52.146c0.294-0.294 0.69-0.775 0.949-1.12-0.432-0.051-0.932-0.357-1.464-0.619-0.981-0.482-1.92-0.482-2.755 0.087-1.24 0.843-2.789 1.05-3.994 0.206-1.322-0.926-2.549-0.724-3.58-0.138-1.034 0.585-1.688 0.62-2.308 0.62s-1.274-0.035-2.308-0.62c-1.032-0.586-2.258-0.788-3.58 0.138-1.207 0.844-2.755 0.637-3.994-0.206-0.836-0.569-1.773-0.569-2.756-0.087-0.531 0.262-1.031 0.568-1.463 0.619 0.259 0.345 0.654 0.826 0.947 1.12h26.306z" fill="#00539E"/>
			<path d="m81.864 54.951c0.275-0.172 1.033-0.74 1.412-1.032-0.413 0.085-1.355-0.217-1.842-0.466-1.412-0.723-2.342-0.654-3.392-0.102-1.05 0.55-2.531 0.843-3.615 0.258-1.085-0.585-1.859-0.74-2.428-0.74-0.568 0-1.343 0.155-2.429 0.74-1.084 0.585-2.563 0.292-3.614-0.258-1.052-0.552-1.979-0.62-3.392 0.102-0.487 0.249-1.43 0.551-1.842 0.466 0.379 0.292 1.137 0.86 1.411 1.032h19.731z" fill="#00539E"/>
			<path d="m75.426 49.405c-0.293-0.155-0.634-0.516-0.947-0.979-0.499-0.74-1.29-1.153-2.479-1.153s-1.979 0.413-2.479 1.153c-0.312 0.463-0.654 0.823-0.947 0.979h6.852z" fill="#00539E"/>
			<path d="m73.583 46.636c-0.12-0.206-0.379-0.86-0.464-1.204-0.275 0.085-0.81 0.121-1.119 0.121-0.311 0-0.845-0.036-1.12-0.121-0.085 0.344-0.344 0.998-0.464 1.204h3.167z" fill="#00539E"/>
			<path d="m76.447 43.947l1.552 1.423c-1.402 0.388-3.348-0.063-4.123-1.423h2.571z" fill="#00539E"/>
			<path d="m89.25 44.862c-1.05 1.033-2.788 0.913-3.839 0.259s-1.822-0.696-2.477-0.627c-0.069 0.583-0.224 1.331-0.489 2.068h6.228c0.156-0.377 0.457-1.26 0.577-1.7z" fill="#00539E"/>
			<path d="m88.2 47.635c-1.223-0.568-2.472-0.117-3.014 0.292-0.998 0.757-2.647 0.553-3.456 0.122-0.31 0.496-0.685 0.984-1.138 1.356h6.665c0.271-0.429 0.857-1.486 0.943-1.77z" fill="#00539E"/>
			<path d="m78.766 56.588c-2.087 0.851-4.371 1.322-6.766 1.322-2.397 0-4.681-0.47-6.77-1.324 0.448-0.051 1.04-0.268 1.519-0.533 0.774-0.431 2.186-0.517 2.857-0.086 0.672 0.432 1.48 0.861 2.394 0.861s1.722-0.43 2.394-0.861c0.671-0.431 2.082-0.345 2.857 0.086 0.478 0.265 1.067 0.483 1.515 0.535" fill="#00539E"/>
			<path d="m75.512 22.413c-3.771-0.774-7.161-0.327-7.161 3.219v9.711c0 1.067 0.021 1.202 1.291 1.497 2.754 0.641 3.013 0.707 6.008 1.395v-9.985c-2.342-0.26-3.236-1.573-3.236-3.1-0.001-1.48 1.032-2.445 3.098-2.737z" fill="#5F4C3B"/>
			<path d="m66.181 49.631c-2.1 0-4.304-1.824-4.304-5.302v-8.643c0-0.784 0.088-0.894-0.095-1.076-0.107-0.108 0.12-0.267 0.275-0.422 0.232-0.232 0.392-0.426 0.077-0.74-0.315-0.313-0.181-0.396 0.017-0.594 0.199-0.198 0.276-0.396 0.088-0.585-0.19-0.189-0.232-0.25-0.026-0.457 0.206-0.206 0.12-0.293-0.052-0.464-0.172-0.172-0.254-0.297-0.035-0.517 0.216-0.215 0.233-0.25 0.482-0.25h1.033c0.241 0 0.244 0.073 0.043 0.275-0.264 0.263-0.34 0.365-0.043 0.662 0.297 0.298 0.283 0.396 0.094 0.586-0.283 0.284-0.408 0.479-0.119 0.766 0.287 0.289 0.314 0.418 0.094 0.637-0.219 0.221-0.24 0.415 0 0.655 0.186 0.185 0.198 0.292 0.198 0.619v8.824c0 1.48 1.067 2.375 3.1 2.375 2.031 0 2.72-0.826 3.306-1.376-0.379 2.652-1.482 5.027-4.133 5.027z" fill="#5F4C3B"/>
			<path d="m72 41.145c0.284 0.086 0.56 0.499 0.56 0.946h0.56c0-0.379-0.164-0.964-0.461-1.325-0.004-0.096-0.017-0.178-0.038-0.259 0.206-0.258 0.508-0.671 0.499-1.067-0.006-0.25-0.302-0.241-0.336-0.043-0.028 0.163-0.138 0.414-0.345 0.5 0-0.319-0.18-0.698-0.438-0.698s-0.439 0.379-0.439 0.698c-0.206-0.086-0.315-0.337-0.345-0.5-0.034-0.198-0.33-0.207-0.336 0.043-0.008 0.396 0.294 0.81 0.5 1.067-0.021 0.081-0.034 0.163-0.038 0.259-0.297 0.361-0.462 0.946-0.462 1.325h0.561c-0.002-0.447 0.274-0.861 0.558-0.946z" fill="#5F4C3B"/>
			<path d="m69.107 41.145c0.284 0.086 0.56 0.499 0.56 0.946h0.56c0-0.379-0.163-0.964-0.461-1.325-0.004-0.096-0.017-0.178-0.038-0.259 0.207-0.258 0.508-0.671 0.499-1.067-0.006-0.25-0.302-0.241-0.335-0.043-0.029 0.163-0.139 0.414-0.346 0.5 0-0.319-0.18-0.698-0.438-0.698s-0.438 0.379-0.438 0.698c-0.207-0.086-0.316-0.337-0.345-0.5-0.034-0.198-0.33-0.207-0.337 0.043-0.008 0.396 0.294 0.81 0.5 1.067-0.021 0.081-0.034 0.163-0.038 0.259-0.298 0.361-0.462 0.946-0.462 1.325h0.561c-0.001-0.447 0.274-0.861 0.558-0.946z" fill="#5F4C3B"/>
			<path d="m66.216 41.145c0.283 0.086 0.56 0.499 0.56 0.946h0.559c0-0.379-0.163-0.964-0.46-1.325-0.004-0.096-0.018-0.178-0.039-0.259 0.206-0.258 0.508-0.671 0.499-1.067-0.005-0.25-0.302-0.241-0.336-0.043-0.028 0.163-0.137 0.414-0.345 0.5 0-0.319-0.18-0.698-0.438-0.698-0.259 0-0.439 0.379-0.439 0.698-0.207-0.086-0.316-0.337-0.345-0.5-0.034-0.198-0.33-0.207-0.335 0.043-0.009 0.396 0.293 0.81 0.499 1.067-0.021 0.081-0.034 0.163-0.04 0.259-0.297 0.361-0.459 0.946-0.459 1.325h0.559c-0.001-0.447 0.275-0.861 0.56-0.946z" fill="#5F4C3B"/>
			<path d="m74.892 41.145c-0.283 0.086-0.56 0.499-0.56 0.946h-0.559c0-0.379 0.163-0.964 0.46-1.325 0.004-0.096 0.018-0.178 0.039-0.259-0.207-0.258-0.508-0.671-0.499-1.067 0.005-0.25 0.301-0.241 0.336-0.043 0.027 0.163 0.138 0.414 0.344 0.5 0-0.319 0.181-0.698 0.438-0.698 0.258 0 0.439 0.379 0.439 0.698 0.207-0.086 0.316-0.337 0.345-0.5 0.034-0.198 0.329-0.207 0.335 0.043 0.008 0.396-0.293 0.81-0.499 1.067 0.021 0.081 0.035 0.163 0.04 0.259 0.296 0.361 0.459 0.946 0.459 1.325h-0.559c0.001-0.447-0.274-0.861-0.559-0.946z" fill="#5F4C3B"/>
			<path d="m77.784 41.145c-0.284 0.086-0.56 0.499-0.56 0.946h-0.56c0-0.379 0.164-0.964 0.461-1.325 0.004-0.096 0.018-0.178 0.039-0.259-0.207-0.258-0.508-0.671-0.5-1.067 0.006-0.25 0.302-0.241 0.336-0.043 0.028 0.163 0.137 0.414 0.345 0.5 0-0.319 0.181-0.698 0.438-0.698 0.259 0 0.439 0.379 0.439 0.698 0.207-0.086 0.316-0.337 0.344-0.5 0.034-0.198 0.33-0.207 0.336 0.043 0.009 0.396-0.292 0.81-0.5 1.067 0.022 0.081 0.035 0.163 0.039 0.259 0.298 0.361 0.461 0.946 0.461 1.325h-0.56c0.002-0.447-0.274-0.861-0.558-0.946z" fill="#5F4C3B"/>
			<polygon points="79.574 43.468 79.574 42.779 64.425 42.779 64.425 43.468" fill="#5F4C3B"/>
			<path d="m77.819 49.631c2.1 0 4.303-1.824 4.303-5.302v-8.643c0-0.784-0.088-0.894 0.095-1.076 0.108-0.108-0.119-0.267-0.274-0.422-0.233-0.232-0.392-0.426-0.078-0.74 0.315-0.313 0.182-0.396-0.017-0.594-0.197-0.198-0.276-0.396-0.087-0.585 0.19-0.189 0.232-0.25 0.026-0.457-0.207-0.206-0.12-0.293 0.052-0.464 0.172-0.172 0.254-0.297 0.035-0.517-0.216-0.215-0.233-0.25-0.482-0.25h-1.033c-0.241 0-0.245 0.073-0.043 0.275 0.262 0.263 0.34 0.365 0.043 0.662-0.297 0.298-0.284 0.396-0.095 0.586 0.284 0.284 0.408 0.479 0.121 0.766-0.289 0.289-0.315 0.418-0.096 0.637 0.22 0.221 0.241 0.415 0 0.655-0.187 0.185-0.198 0.292-0.198 0.619v8.824c0 1.48-1.066 2.375-3.098 2.375-2.031 0-2.721-0.826-3.307-1.376 0.379 2.652 1.482 5.027 4.133 5.027z" fill="#5F4C3B"/>
			<path d="m72 39.99" fill="#FAA929"/>
			<path stroke-width=".0721" d="m72 39.99" stroke="#000" fill="none"/>
			<path d="m64.528 38.165v-1.137l3.029 1.139-3.029-0.002" fill="#FAA929"/>
			<path stroke-width=".0721" d="m64.528 38.165v-1.137l3.029 1.139-3.029-0.002" stroke="#000" fill="none"/>
			<path d="m61.016 38.51l-6.776-0.914c0.195-1.452 0.569-2.867 1.104-4.214l5.672 2.251v2.877z" fill="#FAA929"/>
			<path stroke-width=".0721" d="m61.016 38.51l-6.776-0.914c0.195-1.452 0.569-2.867 1.104-4.214l5.672 2.251v2.877z" stroke="#000" fill="none"/>
			<path d="m75.03 27.527l1.205-4.949c1.41 0.343 2.78 0.858 4.078 1.536l-3.885 7.437 0.014-3.734c-0.448 0.002-1.136-0.067-1.412-0.29z" fill="#FAA929"/>
			<path stroke-width=".0721" d="m75.03 27.527l1.205-4.949c1.41 0.343 2.78 0.858 4.078 1.536l-3.885 7.437 0.014-3.734c-0.448 0.002-1.136-0.067-1.412-0.29z" stroke="#000" fill="none"/>
			<path d="m61.016 39.323l-6.902-0.419c-0.089 1.448-0.001 2.909 0.265 4.35 0 0 6.638 0.042 6.638 0v-3.931h-0.001z" fill="#FAA929"/>
			<path stroke-width=".0721" d="m61.016 39.323l-6.902-0.419c-0.089 1.448-0.001 2.909 0.265 4.35 0 0 6.638 0.042 6.638 0v-3.931h-0.001z" stroke="#000" fill="none"/>
			<path d="m61.016 34.654c-0.224-0.292-0.086-0.448 0.155-0.604 0.241-0.154 0.206-0.274 0.087-0.499-0.122-0.224-0.241-0.465-0.018-0.706 0.224-0.24 0.137-0.344-0.034-0.517-0.173-0.171-0.189-0.361-0.035-0.499 0.155-0.138 0.12-0.241 0.018-0.379-0.104-0.138-0.306-0.416-0.125-0.598l-2.816-2.351c-0.931 1.113-1.727 2.342-2.368 3.658l5.136 2.495z" fill="#FAA929"/>
			<path stroke-width=".0721" d="m61.016 34.654c-0.224-0.292-0.086-0.448 0.155-0.604 0.241-0.154 0.206-0.274 0.087-0.499-0.122-0.224-0.241-0.465-0.018-0.706 0.224-0.24 0.137-0.344-0.034-0.517-0.173-0.171-0.189-0.361-0.035-0.499 0.155-0.138 0.12-0.241 0.018-0.379-0.104-0.138-0.306-0.416-0.125-0.598l-2.816-2.351c-0.931 1.113-1.727 2.342-2.368 3.658l5.136 2.495z" stroke="#000" fill="none"/>
			<path d="m67.558 35.674l-3.356-3.254c0.474-0.474 0.521-0.551 0.185-0.886-0.367-0.367-0.379-0.405 0.366-1.149 0.253-0.255 0.112-0.431-0.249-0.431s-2.023 0-2.213 0c-0.189 0-0.339 0.009-0.478 0.148l-2.676-2.59c1.021-1.051 2.163-1.969 3.394-2.734l5.027 8.083v2.813z" fill="#FAA929"/>
			<path stroke-width=".0721" d="m67.558 35.674l-3.356-3.254c0.474-0.474 0.521-0.551 0.185-0.886-0.367-0.367-0.379-0.405 0.366-1.149 0.253-0.255 0.112-0.431-0.249-0.431s-2.023 0-2.213 0c-0.189 0-0.339 0.009-0.478 0.148l-2.676-2.59c1.021-1.051 2.163-1.969 3.394-2.734l5.027 8.083v2.813z" stroke="#000" fill="none"/>
			<path d="m64.528 36.359v-1.723c0-0.241-0.018-0.336-0.207-0.525-0.188-0.188-0.094-0.28 0.053-0.486l3.184 2.652v1.558l-3.03-1.476z" fill="#FAA929"/>
			<path stroke-width=".0721" d="m64.528 36.359v-1.723c0-0.241-0.018-0.336-0.207-0.525-0.188-0.188-0.094-0.28 0.053-0.486l3.184 2.652v1.558l-3.03-1.476z" stroke="#000" fill="none"/>
			<path d="m67.558 31.516v-3.817c0-2.479 0.139-3.719 0.5-3.968l-0.289-1.19c-1.414 0.381-2.784 0.896-4.082 1.574l3.871 7.401z" fill="#FAA929"/>
			<path stroke-width=".0721" d="m67.558 31.516v-3.817c0-2.479 0.139-3.719 0.5-3.968l-0.289-1.19c-1.414 0.381-2.784 0.896-4.082 1.574l3.871 7.401z" stroke="#000" fill="none"/>
			<path d="m79.472 38.165v-1.137l-3.029 1.139 3.029-0.002" fill="#FAA929"/>
			<path stroke-width=".0721" d="m79.472 38.165v-1.137l-3.029 1.139 3.029-0.002" stroke="#000" fill="none"/>
			<path d="m82.984 38.51l6.776-0.914c-0.197-1.452-0.569-2.867-1.105-4.214l-5.671 2.251v2.877z" fill="#FAA929"/>
			<path stroke-width=".0721" d="m82.984 38.51l6.776-0.914c-0.197-1.452-0.569-2.867-1.105-4.214l-5.671 2.251v2.877z" stroke="#000" fill="none"/>
			<path d="m82.984 39.323l6.901-0.419c0.09 1.448 0.002 2.909-0.264 4.35 0 0-6.638 0.042-6.638 0v-3.931h0.001z" fill="#FAA929"/>
			<path stroke-width=".0721" d="m82.984 39.323l6.901-0.419c0.09 1.448 0.002 2.909-0.264 4.35 0 0-6.638 0.042-6.638 0v-3.931h0.001z" stroke="#000" fill="none"/>
			<path d="m82.984 34.654c0.224-0.292 0.085-0.448-0.155-0.604-0.241-0.154-0.207-0.274-0.087-0.499 0.121-0.224 0.242-0.465 0.018-0.706-0.225-0.24-0.139-0.344 0.033-0.517 0.173-0.171 0.19-0.361 0.035-0.499s-0.121-0.241-0.018-0.379c0.104-0.138 0.306-0.416 0.125-0.598l2.816-2.351c0.93 1.113 1.726 2.342 2.367 3.658l-5.134 2.495z" fill="#FAA929"/>
			<path stroke-width=".0721" d="m82.984 34.654c0.224-0.292 0.085-0.448-0.155-0.604-0.241-0.154-0.207-0.274-0.087-0.499 0.121-0.224 0.242-0.465 0.018-0.706-0.225-0.24-0.139-0.344 0.033-0.517 0.173-0.171 0.19-0.361 0.035-0.499s-0.121-0.241-0.018-0.379c0.104-0.138 0.306-0.416 0.125-0.598l2.816-2.351c0.93 1.113 1.726 2.342 2.367 3.658l-5.134 2.495z" stroke="#000" fill="none"/>
			<path d="m76.442 35.674l3.356-3.254c-0.474-0.474-0.521-0.551-0.185-0.886 0.365-0.367 0.378-0.405-0.367-1.149-0.253-0.255-0.111-0.431 0.251-0.431h2.211c0.19 0 0.34 0.009 0.478 0.148l2.676-2.59c-1.021-1.051-2.162-1.969-3.394-2.734l-5.026 8.083v2.813z" fill="#FAA929"/>
			<path stroke-width=".0721" d="m76.442 35.674l3.356-3.254c-0.474-0.474-0.521-0.551-0.185-0.886 0.365-0.367 0.378-0.405-0.367-1.149-0.253-0.255-0.111-0.431 0.251-0.431h2.211c0.19 0 0.34 0.009 0.478 0.148l2.676-2.59c-1.021-1.051-2.162-1.969-3.394-2.734l-5.026 8.083v2.813z" stroke="#000" fill="none"/>
			<path d="m79.472 36.359v-1.723c0-0.241 0.016-0.336 0.207-0.525 0.188-0.188 0.094-0.28-0.053-0.486l-3.184 2.652v1.558l3.03-1.476z" fill="#FAA929"/>
			<path stroke-width=".0721" d="m79.472 36.359v-1.723c0-0.241 0.016-0.336 0.207-0.525 0.188-0.188 0.094-0.28-0.053-0.486l-3.184 2.652v1.558l3.03-1.476z" stroke="#000" fill="none"/>
			<path d="m62.29 34.637c0.12 0.12 0.172 0.24 0.172 0.533v9.211c0 3.063 1.859 4.768 3.771 4.768 1.755 0 2.91-1.601 3.513-3.46-0.775 0.603-1.912 0.791-2.996 0.791-1.257 0-3.288-0.843-3.288-2.667v-8.937c-0.001-0.239-0.242-0.239-1.172-0.239z" fill="#EC1C2E"/>
			<path d="m73.47 22.553c-2.4-0.243-4.626 0.257-4.626 3.531v8.701c0 1.452-0.115 1.28 1.116 1.586 2.234 0.553 2.487 0.624 5.195 1.242v-8.853c-2.312-0.253-3.314-1.768-3.314-3.446 0-1.335 0.59-2.591 1.629-2.761z" fill="#EC1C2E"/>
			<path d="m81.709 34.637c-0.12 0.12-0.171 0.24-0.171 0.533v9.211c0 3.063-1.859 4.768-3.771 4.768-1.756 0-2.909-1.601-3.512-3.46 0.775 0.603 1.91 0.791 2.996 0.791 1.256 0 3.288-0.843 3.288-2.667v-8.937c0-0.239 0.241-0.239 1.17-0.239z" fill="#EC1C2E"/>
</g>
</svg>
