<?xml version="1.0" encoding="UTF-8" standalone="no"?>
<!-- Generator: Adobe Illustrator 18.0.0, SVG Export Plug-In . SVG Version: 6.00 Build 0)  -->
<!DOCTYPE svg  PUBLIC '-//W3C//DTD SVG 1.1//EN'  'http://www.w3.org/Graphics/SVG/1.1/DTD/svg11.dtd'>
<svg style="enable-background:new 0 0 144 80" xmlns="http://www.w3.org/2000/svg" xml:space="preserve" version="1.1" y="0px" x="0px" xmlns:xlink="http://www.w3.org/1999/xlink" viewBox="0 0 144 80">
<g id="SIN">
		<polygon points="144 40 0 40 0 0 144 0" fill="#EE3E42"/>
		<polygon points="144 40 0 40 0 80 144 80" fill="#fff"/>
		<g fill="#fff">
			<polygon points="30.486 8.182 29.666 10.731 26.968 10.731 29.159 12.318 28.316 14.865 30.486 13.282 32.655 14.865 31.825 12.296 34.005 10.742 31.316 10.742"/>
			<polygon points="38.267 13.836 37.447 16.386 34.749 16.386 36.941 17.972 36.099 20.52 38.267 18.936 40.438 20.52 39.608 17.95 41.787 16.396 39.099 16.396"/>
			<polygon points="25.677 22.983 24.854 25.533 22.157 25.533 24.349 27.12 23.505 29.668 25.677 28.086 27.845 29.668 27.015 27.099 29.196 25.544 26.508 25.544"/>
			<polygon points="22.704 13.836 21.884 16.385 19.184 16.385 21.376 17.972 20.534 20.52 22.704 18.936 24.872 20.52 24.042 17.95 26.222 16.396 23.535 16.396"/>
			<path d="m8.328 20.053c0-7.877 6.386-14.26 14.263-14.26 0.478 0 0.947 0.017 1.414 0.062-5.386 2.462-9.131 7.935-9.131 14.197 0 6.263 3.745 11.736 9.131 14.197-0.467 0.046-0.937 0.063-1.414 0.063-7.877 0.001-14.263-6.382-14.263-14.259z"/>
			<polygon points="35.296 22.983 34.475 25.533 31.775 25.533 33.968 27.12 33.125 29.668 35.296 28.086 37.465 29.668 36.634 27.099 38.815 25.544 36.126 25.544"/>
		</g>
</g>
</svg>
