<?xml version="1.0" encoding="iso-8859-1"?>
<!-- Generator: Adobe Illustrator 18.0.0, SVG Export Plug-In . SVG Version: 6.00 Build 0)  -->
<!DOCTYPE svg PUBLIC "-//W3C//DTD SVG 1.1//EN" "http://www.w3.org/Graphics/SVG/1.1/DTD/svg11.dtd">
<svg version="1.1" id="Layer_1" xmlns="http://www.w3.org/2000/svg" xmlns:xlink="http://www.w3.org/1999/xlink" x="0px" y="0px"
	 viewBox="0 0 544.7 291" style="enable-background:new 0 0 544.7 291;" xml:space="preserve">
<rect x="-0.6" y="224.5" style="fill:#ADAFB2;" width="549.3" height="65.9"/>
<g>
	<g>
		<g>
			<polygon style="fill:#E8BA8F;" points="454.1,110.4 453.2,125 459.4,131.2 463.2,132.4 463.2,130.6 458.7,128.1 459.4,123.5 
				461.6,124.2 462,127.1 464.5,128.4 464.5,123.6 458.9,110.4 			"/>
			<polygon style="fill:#E8BA8F;" points="506.6,110.4 507.5,125 501.5,131.2 497.8,132.4 497.8,130.6 502.1,128.1 501.3,123.5 
				499.1,124.2 498.9,127.1 496.5,128.4 496.5,123.6 501.8,110.4 			"/>
			<polygon style="fill:#EAC19A;" points="473.5,28.2 473.5,35 481,42.4 487.5,36.2 487.5,26.2 			"/>
			<path style="fill:#E9BE94;" d="M471.3,19.5c0,0-2.6-13.4,8.6-13.4c11.2,0,9.4,13.4,9.4,13.4s1.4-1,2.1-0.3c0.7,0.6,0.9,6.3-2.9,7
				c0,0-1,3.4-1.6,3.9c-0.6,0.6-2.7,4.4-6.7,4.4c-2.1,0-4.6-2-6.2-4.4c-1.5-2.2-2.1-4.8-2.1-4.8s-3.8-1-2.6-6.3
				C469.4,19.1,470.6,18.3,471.3,19.5z"/>
			<path style="fill:#D6D5D6;" d="M473.7,34c0,0,0.4,2.1,5.7,6h3.7c0,0,4.2-4.3,4.3-4.6c0.2-0.2,0.1-1.8,0.1-1.8s2,2,1.6,5.6
				c-0.4,3.6-7.5,29.1-7.5,29.1s-14.2-30.8-8.1-34.2"/>
			<path style="fill:#493C34;" d="M469.4,207.1c0,0-0.7,6.6-1.3,8.2c-0.6,1.7-2.1,4.3-2.1,5.7c0,1.3,1.2,3,6.3,3c5.1,0,6-0.4,6-3.8
				c0-3.4,0-13.1,0-13.1H469.4z"/>
			<path style="fill:#493C34;" d="M493.1,207.1c0,0,0.7,6.6,1.3,8.2c0.6,1.7,2.1,4.3,2.1,5.7c0,1.3-1.1,3-6.3,3
				c-5.1,0-5.9-0.4-5.9-3.8c0-3.4,0-13.1,0-13.1H493.1z"/>
			<polygon style="fill:#B24D4B;" points="483.7,42.8 482.1,40.1 479.2,40.1 477.3,42.8 477.3,44.1 478.6,44.9 476.6,63 480.6,63 
				481,63 485,63 482.7,44.9 483.7,44.1 			"/>
			<path style="fill:#1B2A35;" d="M504.9,45.9c-2-2-12.5-6-12.5-6l-3.9-5c0.1,9.3-5.7,23.1-7.8,27.8c-2.1-4.7-7.8-18.6-7.8-27.9
				l-3.9,5c0,0-10.4,4.1-12.5,6.2c-2,2-8.6,15.9-4.8,73.5c0,0,4.5,0,7.8,0l1.5,5.9c0,0,9.5,0.5,19.7,0.4c10.2,0.1,19.7-0.3,19.7-0.3
				l1.5-6c3.2,0,7.8,0,7.8,0C513.5,61.7,506.9,47.9,504.9,45.9z"/>
			<circle style="fill:#4F4C4D;" cx="481.3" cy="76.8" r="1.1"/>
			<circle style="fill:#4F4C4D;" cx="481.3" cy="88.4" r="1.1"/>
			<path style="fill:#243742;" d="M481,122.7h-12h-7.4c0,0,0.3,29.1,1.2,41.2c0.9,12,2.1,25,2.3,26.6c0.2,1.6,2.1,18.6,2.1,18.6
				s3.8,1,6.1,1c2.3,0,6-1,6-1s0.3-15.4,0-20.9c-0.3-5.5,0-26.7,0.2-33.2c0.2-6.4,0.1-19.6,1.5-19.6s1.7,13.2,1.9,19.6
				c0.2,6.5,0.5,27.7,0.2,33.2c-0.3,5.5,0,20.9,0,20.9s4,1,6.2,1c2.2,0,5.9-1,5.9-1s1.9-17.1,2.1-18.7c0.2-1.6,1.4-14.5,2.3-26.5
				c0.9-12,1.2-41.2,1.2-41.2H481z"/>
		</g>
		<g>
			<path style="fill:#BAA99D;" d="M470.2,18.8c0,0-0.2-6.3,0.4-8.4c0.7-2.1,2.4-6.2,9.3-6.3c6.9-0.1,10.1,4.3,10.6,6.2
				c0.5,1.9,0.2,8.4,0.2,8.4l-1.7,1.8c0,0,0.7-7-1.9-9.1c0,0-4.2,1.3-6.6,1.3c-2.4,0-6.2-1.4-6.2-1.4s-2.6,0.2-2.5,9.1L470.2,18.8z"
				/>
		</g>
	</g>
	<g>
		<g>
			<g>
				<g>
					<path style="fill:none;stroke:#C8C8C8;stroke-width:3.4726;stroke-miterlimit:10;" d="M453.8,107V86.9c0-1.9,1.1-4.6,2.5-5.9
						l9.1-9.1"/>
				</g>
				<path style="fill:#C8C8C8;" d="M464.9,77c-1.3,1.3-3.4,1.3-4.7,0l0,0c-1.3-1.3-1.3-3.4,0-4.7l5.7-5.7c1.3-1.3,3.4-1.3,4.7,0l0,0
					c1.3,1.3,1.3,3.4,0,4.7L464.9,77z"/>
				<g>
					<path style="fill:none;stroke:#C8C8C8;stroke-width:3.4726;stroke-miterlimit:10;" d="M507.5,107V86.9c0-1.9-1.1-4.6-2.5-5.9
						l-9.1-9.1"/>
				</g>
				<path style="fill:#C8C8C8;" d="M496.4,77c1.3,1.3,3.4,1.3,4.7,0l0,0c1.3-1.3,1.3-3.4,0-4.7l-5.7-5.7c-1.3-1.3-3.4-1.3-4.7,0l0,0
					c-1.3,1.3-1.3,3.4,0,4.7L496.4,77z"/>
			</g>
			<g>
				<rect x="453.9" y="121" style="fill:#F3D6AD;" width="27.2" height="119"/>
				<rect x="479.7" y="121" style="fill:#E0C5A4;" width="27.2" height="119"/>
				<rect x="432.4" y="238.5" style="fill:#FFFFFF;" width="96.6" height="3"/>
				<rect x="432.4" y="107" style="fill:#CCB296;" width="96.6" height="13.9"/>
			</g>
		</g>
	</g>
</g>
<g>
	<g>
		<polygon style="fill:#805931;" points="348.5,118.1 347.5,133.7 354.1,140.3 358.2,141.6 358.2,139.7 353.4,137 354.2,132.1 
			356.5,132.8 356.9,136 359.6,137.4 359.6,132.2 353.6,118.1 		"/>
		<polygon style="fill:#805931;" points="404.5,118.1 405.5,133.7 399.1,140.3 395.1,141.6 395.1,139.7 399.8,137 398.9,132.1 
			396.5,132.8 396.3,136 393.8,137.4 393.8,132.2 399.5,118.1 		"/>
		<path style="fill:#423E3F;" d="M383,224.5c0,0,0.4,1.2,0.4,2.1c0,0.9,0.3,4.4,0.3,4.4l3.9,3.4h8c0,0,2.3-1.2,2.3-4.8
			s-5.5-11.3-5.5-11.3S382.7,220.6,383,224.5z"/>
		<path style="fill:#423E3F;" d="M358.9,219.7c0,0-4.2,9.1-4.2,9.9c0,0.8,0.3,4,0.3,4s1.7,1.8,7,1.8s7.8-5.4,7.8-5.4l-0.1-2.6
			l3.6-4.3v-5L358.9,219.7z"/>
		<polygon style="fill:#805931;" points="369.1,30.2 369.1,37.5 377.2,45.5 384.2,38.8 384.2,28.1 		"/>
		<path style="fill:#86613B;" d="M366.8,21c0,0-2.7-14.4,9.2-14.4S386.1,21,386.1,21s1.5-1,2.3-0.3s0.9,6.7-3.1,7.5
			c0,0-1.1,3.6-1.7,4.2c-0.6,0.6-2.9,4.7-7.2,4.7c-2.3,0-4.9-2.1-6.6-4.7c-1.6-2.3-2.3-5.1-2.3-5.1s-4.1-1-2.7-6.7
			C364.8,20.6,366.1,19.6,366.8,21z"/>
		<path style="fill:#D6D5D6;" d="M369.4,36.5c0,0,0.5,2.3,6.1,6.4h3.9c0,0,4.4-4.6,4.6-4.9c0.2-0.3,0.1-1.9,0.1-1.9s2.1,2.1,1.7,5.9
			c-0.4,3.8-8,31.1-8,31.1s-15.1-32.9-8.6-36.6"/>
		<path style="fill:#231F20;" d="M356.5,133.6c0,0,3.7,68.5,4.2,76.3l-2.4,10.9c0,0,4.6,0.5,6.7,0.7c2.1,0.2,9.1,2.1,9.1,2.1
			c0,0,1.5-5,1.5-5.8c0.2-1.7-2.2-14.7-2.1-19.3c0.2-4.6,3.2-61.7,3.2-61.7s0.8,8.7,1.2,16.1c0.4,7.3-0.7,65-0.7,65s2.2,6,5.1,7.5
			c0,0,4.8-6.3,11.3-5c0,0,0.9-10.1-0.2-12.3c-1-2.2,0.7-8.2,0.7-8.2l3.8-67.5L356.5,133.6z"/>
		<path style="fill:#3F2A14;" d="M367.1,22.6l-1.4-2.2l0-10.7c0,0,3.4-6.3,12-7.9c0,0,7.9,2.9,9.3,9.7v9l-1.8,2c0,0,2-13.5-8.9-13.5
			C365.5,8.9,367.1,22.6,367.1,22.6z"/>
		<polygon style="fill:#668C9E;" points="380.1,45.8 378.4,42.9 375.3,42.9 373.2,45.8 373.2,47.3 374.6,48.1 372.5,67.5 
			376.8,67.5 377.2,67.5 381.5,67.5 379,48.1 380.1,47.3 		"/>
		<path style="fill:#393536;" d="M402.7,49.1c-2.2-2.2-13.3-6.5-13.3-6.5l-4.2-5.4c0.1,10-6.1,24.7-8.3,29.7
			c-2.2-5-8.4-19.8-8.3-29.8l-4.2,5.3c0,0-11.2,4.4-13.3,6.6c-2.2,2.2-9.2,17-5.1,78.5c0,0,4.8,0,8.3,0l1.6,6.3c0,0,10.2,0.5,21,0.4
			c10.9,0.1,21-0.3,21-0.3l1.6-6.4c3.5,0,8.3,0,8.3,0C412,66.1,404.9,51.3,402.7,49.1z"/>
		<circle style="fill:#4F4C4D;" cx="377.6" cy="82.2" r="1.1"/>
		<circle style="fill:#4F4C4D;" cx="377.6" cy="94.5" r="1.1"/>
	</g>
	<g>
		<g>
			<g>
				<path style="fill:none;stroke:#C8C8C8;stroke-width:3.4726;stroke-miterlimit:10;" d="M349.8,107V86.9c0-1.9,1.1-4.6,2.5-5.9
					l9.1-9.1"/>
			</g>
			<path style="fill:#C8C8C8;" d="M360.9,77c-1.3,1.3-3.4,1.3-4.7,0l0,0c-1.3-1.3-1.3-3.4,0-4.7l5.7-5.7c1.3-1.3,3.4-1.3,4.7,0l0,0
				c1.3,1.3,1.3,3.4,0,4.7L360.9,77z"/>
			<g>
				<path style="fill:none;stroke:#C8C8C8;stroke-width:3.4726;stroke-miterlimit:10;" d="M403.5,107V86.9c0-1.9-1.1-4.6-2.5-5.9
					l-9.1-9.1"/>
			</g>
			<path style="fill:#C8C8C8;" d="M392.4,77c1.3,1.3,3.4,1.3,4.7,0l0,0c1.3-1.3,1.3-3.4,0-4.7l-5.7-5.7c-1.3-1.3-3.4-1.3-4.7,0l0,0
				c-1.3,1.3-1.3,3.4,0,4.7L392.4,77z"/>
		</g>
		<g>
			<rect x="349.9" y="121" style="fill:#F3D6AD;" width="27.2" height="119"/>
			<rect x="375.7" y="121" style="fill:#E0C5A4;" width="27.2" height="119"/>
			<rect x="328.4" y="238.5" style="fill:#FFFFFF;" width="96.6" height="3"/>
			<rect x="328.4" y="107" style="fill:#CCB296;" width="96.6" height="13.9"/>
		</g>
	</g>
</g>
<g>
	<g>
		<g>
			<path style="fill:#1A1C1C;" d="M259.2,219.5c0,0-0.8,7.6-1.6,9.5c-0.7,1.9-2.4,5-2.4,6.5c0,1.6,1.4,3.5,7.3,3.5
				c5.9,0,6.9-0.5,6.9-4.4c0-3.9,0-15.1,0-15.1H259.2z"/>
			<path style="fill:#1A1C1C;" d="M286.6,219.5c0,0,0.8,7.6,1.6,9.5c0.7,1.9,2.4,5,2.4,6.5c0,1.6-1.3,3.5-7.3,3.5
				c-5.9,0-6.8-0.5-6.8-4.4c0-3.9,0-15.1,0-15.1H286.6z"/>
			<path style="fill:#343638;" d="M272.8,122.1h-12.9h-8c0,0,0.4,33.6,1.3,47.5c0.9,13.9,2.2,28.9,2.4,30.7
				c0.2,1.8,2.2,21.4,2.2,21.4s4.1,1.2,6.6,1.2c2.5,0,6.5-1.2,6.5-1.2s0.4-17.7,0-24.1c-0.4-6.4,0-30.8,0.2-38.3
				c0.2-7.4,0.2-22.6,1.7-22.6c1.5,0,1.9,15.2,2.1,22.6c0.2,7.5,0.5,32,0.2,38.3c-0.4,6.4,0,24.1,0,24.1s4.3,1.2,6.7,1.2
				c2.4,0,6.4-1.2,6.4-1.2s2.1-19.7,2.2-21.6c0.2-1.8,1.5-16.7,2.4-30.6c0.9-13.9,1.3-47.5,1.3-47.5H272.8z"/>
			<path style="fill:#5F839B;" d="M304,74.8c0,0,0.2-8.3-0.9-13.4c-1.1-5.2-2.2-11.1-4.9-13.1c-2.6-1.9-9.1-3.7-12-4.7
				c-2.9-1-4.3-2.3-5.4-4.1c-0.8-1.4-6.7-1.8-9-1.9v0c0,0,0,0-0.4,0c-0.4,0-0.5,0-0.5,0l0,0.1c-2.2,0.1-6.7,0.6-7.5,1.9
				c-1.1,1.8-2.2,3-5.2,4.1c-2.9,1-9.9,2.6-12,4.7c-2.2,2.2-3.8,7.9-4.9,13.1c-1.1,5.2-0.9,13.4-0.9,13.4s3.3,1.9,3.9,2.1
				c0.5,0.1,9,1.1,9,1.1l-3.4,46.4c0,0,14.3,1.2,22.7,1.2c8.4,0,21.8-1.2,21.8-1.2L291.1,78c0,0,8.5-1.2,9-1.3
				C300.6,76.6,304,74.8,304,74.8z"/>
			<path style="fill:#D3A56F;" d="M264.9,30.2V39c0,0-0.6,2.6,2.5,4.3c3.1,1.6,4.2,2,5.3,2c1.1,0,6.2-3.4,6.6-4.7
				c0.4-1.3-0.1-11.1-0.1-11.1L264.9,30.2z"/>
			<g>
				<path style="fill:#D3A56F;" d="M249.7,133.2c0-0.1,0-0.2,0.1-0.4c0.1-0.4,0.3-0.6,0.5-0.7c0.1,0,0.2,0,0.3,0
					c0.1,0,0.1,0,0.2,0.1c0.1,0.1,0.2,0.1,0.3,0.2c0.3,0.3,0.5,0.7,0.5,1.2c0,0.4,0.2,1.1,0.5,1.8c0.3,0.6,0.6,1.1,1,1.5
					c0.1,0.1,0.2,0.1,0.2,0.2c0.1,0.1,0.2,0.1,0.3,0.2c0.2,0.1,0.4,0.1,0.6,0c0.4-0.1,0.5-0.8,0.5-1.8c0-0.4,0-0.8,0-1.2
					c0-0.4-0.1-0.8-0.1-1.3c0-0.2-0.1-0.5-0.1-0.7c0-0.2-0.1-0.4-0.1-0.7c-0.2-1.1-0.3-2-0.4-2.5v0c0-0.2-0.1-0.4-0.2-0.6
					c0-0.1,0-0.1-0.1-0.2c-0.1-0.2-0.2-0.5-0.3-0.7c0,0,0,0,0,0c-0.1-0.3-0.3-0.6-0.5-0.9c0,0,0,0,0-0.1c-0.4-0.7-0.9-1.5-1.3-2.2
					c-0.4-0.7-0.8-1.3-0.9-1.7c0-0.2-0.2-0.9-0.5-2.1l3.1-42.6c0,0-9.1-1.2-9.2-1.2l-0.4,10.1v0v0c0,0-0.3,1.4-0.6,3.5
					c-0.4,2.7-0.8,6.6-0.9,10.3c0,1.6,0.1,3.7,0.2,5.8c0.1,1.1,0.2,2.2,0.3,3.3c0.2,1.7,0.3,3.3,0.5,4.9c0.1,1,0.2,1.9,0.3,2.7
					c0,0.1,0,0.2,0,0.3c0.2,1.3,0.3,2.4,0.4,3.3c0.1,0.6,0.1,1,0.1,1.3c0,0.4,0,1.1,0,1.9c0,0.8,0,1.7,0,2.6c0,0.6,0,1.3,0,1.9
					c0,0.6,0,1.3,0,1.9c0,0.3,0,0.6,0,0.9c0.1,1.4,0.2,2.5,0.5,2.9c0.2,0.3,0.5,0.8,0.9,1.4c1.1,1.6,2.5,3.8,3.8,4.6
					c0.8,0.5,1.9,1.3,3,1.8c1,0.5,1.9,0.8,2.3,0.3c0.1-0.1,0.1-0.1,0.1-0.2C254.8,140.7,249.5,135.1,249.7,133.2z"/>
				<path style="fill:#D3A56F;" d="M302.5,94.6c-0.4-4.3-1.1-7.7-1.1-7.7L301,76.3c-0.4,0.2-9.9,1.7-9.9,1.7l3.1,41.7l0.2,3.2l0,0
					c-0.1,0.4-0.4,0.9-0.8,1.5c-0.4,0.7-0.9,1.4-1.3,2.2c0,0,0,0,0,0.1c-0.2,0.3-0.3,0.6-0.5,0.9c0,0,0,0,0,0
					c-0.1,0.2-0.2,0.5-0.3,0.7c0,0.1,0,0.1-0.1,0.2c-0.1,0.2-0.2,0.4-0.2,0.6c-0.1,0.3-0.1,0.8-0.2,1.3c-0.1,0.4-0.1,0.8-0.2,1.2
					c0,0.2-0.1,0.4-0.1,0.7c-0.1,0.7-0.2,1.4-0.2,2c0,0.2,0,0.4,0,0.6c0,0.6,0,1.1,0.1,1.5c0,0.1,0,0.1,0,0.2c0,0.2,0.1,0.3,0.1,0.4
					c0.1,0.1,0.2,0.2,0.3,0.3c0.2,0.1,0.4,0,0.6,0c0.1,0,0.2-0.1,0.3-0.2c0.1-0.1,0.2-0.1,0.2-0.2c0.1-0.1,0.2-0.3,0.3-0.4
					c0.1-0.1,0.1-0.2,0.2-0.2c0.1-0.2,0.2-0.3,0.3-0.5c0.2-0.3,0.3-0.7,0.4-1c0.1-0.2,0.1-0.4,0.2-0.6c0-0.2,0.1-0.4,0.1-0.5
					c0-0.3,0.1-0.6,0.2-0.8c0.1-0.1,0.2-0.2,0.3-0.3c0,0,0.1-0.1,0.1-0.1c0.2-0.1,0.4-0.2,0.6-0.2c0.2,0.1,0.4,0.3,0.5,0.7
					c0,0.1,0,0.2,0.1,0.4c0,0.1,0,0.3,0,0.4c-0.1,0.4-0.3,0.9-0.6,1.4c-0.1,0.2-0.2,0.4-0.3,0.6c-0.4,0.6-0.8,1.2-1.2,1.9
					c-0.9,1.4-1.9,2.7-2.5,3.6c-0.1,0.2-0.2,0.3-0.2,0.5c-0.1,0.2-0.1,0.4-0.1,0.5c0,0.1,0,0.2,0.1,0.2c0.3,0.3,0.8,0.3,1.5,0
					c0.1,0,0.2-0.1,0.3-0.1c0.1-0.1,0.3-0.1,0.4-0.2c0.8-0.4,1.7-1,2.5-1.4c0.2-0.1,0.5-0.3,0.7-0.4c0.8-0.5,1.8-1.6,2.6-2.8
					c0.8-1.2,1.6-2.4,2.1-3.1c0.5-0.7,0.5-3.1,0.5-5.6c0-0.3,0-0.6,0-1c0-0.6,0-1.3,0-1.9c0-0.3,0-0.6,0-0.9c0-0.6,0-1.1,0-1.5
					c0-0.5,0-0.8,0-1.1c0-0.3,0.1-0.8,0.1-1.3c0.2-1.5,0.5-3.7,0.7-6.3c0.5-4.6,1.1-10.3,1-14C302.8,98.6,302.7,96.5,302.5,94.6z"/>
			</g>
			<g>
				<path style="fill:#C49669;" d="M271.9,40.1c3.2,0,6.7-5.8,6.7-6.6c0.3-0.5,0.5-0.9,0.7-1.4h-15c0.2,0.5,0.5,0.9,0.7,1.4
					C265.1,34.3,268.6,40.1,271.9,40.1z"/>
			</g>
			<path style="fill:#406C84;" d="M253.4,78c0,0-0.2-0.7-0.3-1.7c-0.1-1-0.2-2.4-0.2-3.8c0-1.4,0.1-2.8,0.2-3.8
				c0.1-1,0.3-1.7,0.3-1.7s0.2,0.7,0.3,1.7c0.1,1,0.2,2.4,0.2,3.8c0,1.4-0.1,2.8-0.2,3.8C253.6,77.3,253.4,78,253.4,78z"/>
			<path style="fill:#406C84;" d="M291.1,78c0,0-0.2-0.7-0.3-1.7c-0.1-1-0.2-2.4-0.2-3.8c0-1.4,0.1-2.8,0.2-3.8
				c0.1-1,0.3-1.7,0.3-1.7s0.2,0.7,0.3,1.7c0.1,1,0.2,2.4,0.2,3.8c0,1.4-0.1,2.8-0.2,3.8C291.3,77.3,291.1,78,291.1,78z"/>
			<path style="fill:#D3A56F;" d="M262.2,22.4c0,0-2.7-14.1,9-14.1c11.7,0,9.9,14.1,9.9,14.1s1.4-1,2.2-0.3c0.8,0.7,0.9,6.6-3,7.4
				c0,0-1.1,3.5-1.7,4.1c-0.6,0.6-2.8,4.6-7,4.6c-2.2,0-4.8-2.1-6.5-4.6c-1.5-2.3-2.2-5-2.2-5s-4-1-2.7-6.6
				C260.2,21.9,261.4,21,262.2,22.4z"/>
			<path style="fill:#3F2A14;" d="M275.7,10.6c0,0-1.8,0.9-3.5,3.3c0-1.4,1-3.3,1-3.3s-2.9,1.2-5.1,5c0,0-0.2-3.4,0.9-6.3
				c0,0-5.8,5.2-6.6,11.5l-0.8-4.8l3-6.1l6.9-2.9L275.7,10.6z"/>
			<path style="fill:#3F2A14;" d="M275.7,10.5c0,0,1.4,2.1,1.3,4c0,0,1.6-1.3,1.2-2.7L275.7,10.5z"/>
			<path style="fill:#3F2A14;" d="M262.4,10c4.1-5.8,9.2-5.5,14.2-3.9c5.4,1.8,6.5,8.1,6.6,10.7c0.1,2.6-0.8,5-0.8,5l-1.3,0.5l0,0.2
				l-0.7,1.3c0,0,0-2.1,0.2-4.7c0.2-2.5-0.7-5.7-0.7-5.7c0.1,0.9-0.6,1.4-0.6,1.4c0-2-1-2.8-1-2.8l-1.6-0.8l-1.3-0.8l-3.9-1.3
				l-2.3-0.7l-3.5,2.3l-2.6,7.4l-0.3,3.1l0.3,2.5l-0.6-0.7l-0.3-0.8c-0.7-0.9-1.4-0.7-1.4-0.7S259.8,13.6,262.4,10z"/>
		</g>
		<polygon style="fill:#393536;" points="275.3,48.3 273.9,45.8 271.2,45.8 269.5,48.3 269.5,49.5 270.7,50.2 266.6,101.4 
			272.5,113 272.9,113 278.9,101.4 274.4,50.2 275.3,49.5 		"/>
		<path style="fill:#4D7287;" d="M264.3,38.6c0,0-1-0.4-3.7,3.5l8.3,8.3l2.4-5.1L264.3,38.6z"/>
		<path style="fill:#4D7287;" d="M278.8,38.6c0,0,1.4-0.4,4.1,3.5l-8.3,8.3l-2.4-5.1L278.8,38.6z"/>
	</g>
	<g>
		<g>
			<g>
				<g>
					<path style="fill:none;stroke:#C8C8C8;stroke-width:3.4726;stroke-miterlimit:10;" d="M247.2,107V86.9c0-1.9,1.1-4.6,2.5-5.9
						l9.1-9.1"/>
				</g>
				<path style="fill:#C8C8C8;" d="M258.3,77c-1.3,1.3-3.4,1.3-4.7,0l0,0c-1.3-1.3-1.3-3.4,0-4.7l5.7-5.7c1.3-1.3,3.4-1.3,4.7,0l0,0
					c1.3,1.3,1.3,3.4,0,4.7L258.3,77z"/>
				<g>
					<path style="fill:none;stroke:#C8C8C8;stroke-width:3.4726;stroke-miterlimit:10;" d="M300.9,107V86.9c0-1.9-1.1-4.6-2.5-5.9
						l-9.1-9.1"/>
				</g>
				<path style="fill:#C8C8C8;" d="M289.8,77c1.3,1.3,3.4,1.3,4.7,0l0,0c1.3-1.3,1.3-3.4,0-4.7l-5.7-5.7c-1.3-1.3-3.4-1.3-4.7,0l0,0
					c-1.3,1.3-1.3,3.4,0,4.7L289.8,77z"/>
			</g>
			<g>
				<rect x="245.9" y="121" style="fill:#F3D6AD;" width="27.2" height="119"/>
				<rect x="271.7" y="121" style="fill:#E0C5A4;" width="27.2" height="119"/>
				<rect x="224.4" y="238.5" style="fill:#FFFFFF;" width="96.6" height="3"/>
				<rect x="224.4" y="107" style="fill:#CCB296;" width="96.6" height="13.9"/>
			</g>
		</g>
	</g>
</g>
<g>
	<g>
		<polygon style="fill:#E8BA8F;" points="139.7,118.1 138.7,133.7 145.3,140.3 149.4,141.6 149.4,139.7 144.6,137 145.3,132.1 
			147.7,132.8 148,136 150.7,137.4 150.7,132.2 144.7,118.1 		"/>
		<polygon style="fill:#E8BA8F;" points="195.7,118.1 196.7,133.7 190.2,140.3 186.3,141.6 186.3,139.7 190.9,137 190.1,132.1 
			187.7,132.8 187.5,136 184.9,137.4 184.9,132.2 190.6,118.1 		"/>
		<path style="fill:#423E3F;" d="M174.2,224.5c0,0,0.4,1.2,0.4,2.1c0,0.9,0.3,4.4,0.3,4.4l3.9,3.4h8c0,0,2.3-1.2,2.3-4.8
			s-5.5-11.3-5.5-11.3S173.9,220.6,174.2,224.5z"/>
		<path style="fill:#423E3F;" d="M150,219.7c0,0-4.2,9.1-4.2,9.9c0,0.8,0.3,4,0.3,4s1.7,1.8,7,1.8c5.3,0,7.8-5.4,7.8-5.4l-0.1-2.6
			l3.6-4.3v-5L150,219.7z"/>
		<polygon style="fill:#EAC19A;" points="160.3,30.2 160.3,37.5 168.3,45.5 175.4,38.8 175.4,28.1 		"/>
		<path style="fill:#E9BE94;" d="M158,21c0,0-2.7-14.4,9.2-14.4c12,0,10.1,14.4,10.1,14.4s1.5-1,2.3-0.3s0.9,6.7-3.1,7.5
			c0,0-1.1,3.6-1.7,4.2c-0.6,0.6-2.9,4.7-7.2,4.7c-2.3,0-4.9-2.1-6.6-4.7c-1.6-2.3-2.3-5.1-2.3-5.1s-4.1-1-2.7-6.7
			C156,20.6,157.2,19.6,158,21z"/>
		<path style="fill:#D6D5D6;" d="M160.6,36.5c0,0,0.5,2.3,6.1,6.4h3.9c0,0,4.4-4.6,4.6-4.9c0.2-0.3,0.1-1.9,0.1-1.9s2.1,2.1,1.7,5.9
			c-0.4,3.8-8,31.1-8,31.1s-15.1-32.9-8.6-36.6"/>
		<path style="fill:#1C1F26;" d="M147.6,133.6c0,0,3.7,68.5,4.2,76.3l-2.4,10.9c0,0,4.6,0.5,6.7,0.7c2.1,0.2,9.1,2.1,9.1,2.1
			c0,0,1.5-5,1.5-5.8c0.2-1.7-2.2-14.7-2.1-19.3c0.2-4.6,3.2-61.7,3.2-61.7s0.8,8.7,1.2,16.1c0.4,7.3-0.7,65-0.7,65s2.2,6,5.1,7.5
			c0,0,4.8-6.3,11.3-5c0,0,0.9-10.1-0.2-12.3c-1-2.2,0.7-8.2,0.7-8.2l3.8-67.5L147.6,133.6z"/>
		<path style="fill:#595755;" d="M158.3,22.6l-1.4-2.2l0-10.7c0,0,3.4-6.3,12-7.9c0,0,7.9,2.9,9.3,9.7v9l-1.8,2c0,0,2-13.5-8.9-13.5
			C156.6,8.9,158.3,22.6,158.3,22.6z"/>
		<polygon style="fill:#E8B536;" points="171.2,45.8 169.5,42.9 166.4,42.9 164.4,45.8 164.4,47.3 165.8,48.1 163.6,67.5 168,67.5 
			168.4,67.5 172.7,67.5 170.2,48.1 171.2,47.3 		"/>
		<path style="fill:#2C313D;" d="M193.9,49.1c-2.2-2.2-13.3-6.5-13.3-6.5l-4.2-5.4c0.1,10-6.1,24.7-8.3,29.7
			c-2.2-5-8.4-19.8-8.3-29.8l-4.2,5.3c0,0-11.2,4.4-13.3,6.6c-2.2,2.2-9.2,17-5.1,78.5c0,0,4.8,0,8.3,0l1.6,6.3c0,0,10.2,0.5,21,0.4
			c10.9,0.1,21-0.3,21-0.3l1.6-6.4c3.5,0,8.3,0,8.3,0C203.1,66.1,196.1,51.3,193.9,49.1z"/>
		<circle style="fill:#4F4C4D;" cx="168.7" cy="82.2" r="1.1"/>
		<circle style="fill:#4F4C4D;" cx="168.7" cy="94.5" r="1.1"/>
	</g>
	<g>
		<g>
			<g>
				<path style="fill:none;stroke:#C8C8C8;stroke-width:3.4726;stroke-miterlimit:10;" d="M143.2,107V86.9c0-1.9,1.1-4.6,2.5-5.9
					l9.1-9.1"/>
			</g>
			<path style="fill:#C8C8C8;" d="M154.3,77c-1.3,1.3-3.4,1.3-4.7,0l0,0c-1.3-1.3-1.3-3.4,0-4.7l5.7-5.7c1.3-1.3,3.4-1.3,4.7,0l0,0
				c1.3,1.3,1.3,3.4,0,4.7L154.3,77z"/>
			<g>
				<path style="fill:none;stroke:#C8C8C8;stroke-width:3.4726;stroke-miterlimit:10;" d="M196.9,107V86.9c0-1.9-1.1-4.6-2.5-5.9
					l-9.1-9.1"/>
			</g>
			<path style="fill:#C8C8C8;" d="M185.8,77c1.3,1.3,3.4,1.3,4.7,0l0,0c1.3-1.3,1.3-3.4,0-4.7l-5.7-5.7c-1.3-1.3-3.4-1.3-4.7,0l0,0
				c-1.3,1.3-1.3,3.4,0,4.7L185.8,77z"/>
		</g>
		<g>
			<rect x="141.9" y="121" style="fill:#F3D6AD;" width="27.2" height="119"/>
			<rect x="167.7" y="121" style="fill:#E0C5A4;" width="27.2" height="119"/>
			<rect x="120.4" y="238.5" style="fill:#FFFFFF;" width="96.6" height="3"/>
			<rect x="120.4" y="107" style="fill:#CCB296;" width="96.6" height="13.9"/>
		</g>
	</g>
</g>
<g>
	<g>
		<g>
			<g>
				<path style="fill:#1A1C1C;" d="M51.7,216.2c0,0-0.8,7.7-1.6,9.7c-0.7,1.9-2.4,5.1-2.4,6.6c0,1.6,1.4,3.5,7.4,3.5
					c6,0,7-0.5,7-4.5c0-4,0-15.3,0-15.3H51.7z"/>
				<path style="fill:#1A1C1C;" d="M79.4,216.2c0,0,0.8,7.7,1.6,9.7c0.7,1.9,2.4,5.1,2.4,6.6c0,1.6-1.3,3.5-7.4,3.5
					c-6,0-6.9-0.5-6.9-4.5c0-4,0-15.3,0-15.3H79.4z"/>
				<path style="fill:#4F4F4F;" d="M65.4,117.5H52.3h-8.1c0,0,0.4,34.1,1.3,48.1c0.9,14.1,2.3,29.3,2.5,31.2
					c0.2,1.8,2.3,21.7,2.3,21.7s4.2,1.2,6.7,1.2c2.5,0,6.6-1.2,6.6-1.2s0.4-18,0-24.4c-0.4-6.5,0-31.3,0.2-38.8
					c0.2-7.5,0.2-22.9,1.7-22.9s1.9,15.4,2.1,22.9c0.2,7.6,0.5,32.4,0.2,38.9c-0.4,6.5,0,24.4,0,24.4s4.4,1.2,6.8,1.2
					c2.4,0,6.5-1.2,6.5-1.2s2.1-20,2.3-21.8c0.2-1.8,1.5-17,2.5-31c1-14.1,1.3-48.2,1.3-48.2H65.4z"/>
				<path style="fill:#D19574;" d="M97,69.6c0,0,0.2-8.4-0.9-13.6c-1.1-5.2-2.2-11.2-4.9-13.3C88.6,40.8,82,39,79,38
					c-3-1-4.3-2.3-5.4-4.1c-0.9-1.4-6.8-1.8-9.1-1.9v0c0,0,0,0-0.4,0c-0.4,0-0.5,0-0.5,0l0,0.1c-2.2,0.1-6.8,0.6-7.6,1.9
					c-1.1,1.8-2.3,3.1-5.2,4.1c-3,1-10,2.6-12.2,4.7c-2.2,2.2-3.8,8-4.9,13.3c-1.1,5.2-0.9,13.6-0.9,13.6s3.4,2,3.9,2.1
					c0.6,0.1,9.1,1.2,9.1,1.2l-3.4,47.1c0,0,14.5,1.2,23,1.2s22.1-1.2,22.1-1.2l-3.5-47.1c0,0,8.6-1.2,9.1-1.3
					C93.6,71.4,97,69.6,97,69.6z"/>
				<path style="fill:#EDCAAB;" d="M57.4,24.3v9c0,0-0.6,2.7,2.5,4.3c3.1,1.7,4.2,2,5.3,2c1.1,0,6.3-3.4,6.7-4.7
					c0.4-1.3-0.1-11.3-0.1-11.3L57.4,24.3z"/>
				<g>
					<path style="fill:#EDCAAB;" d="M42.1,128.7c0-0.1,0-0.3,0.1-0.4c0.1-0.4,0.3-0.6,0.5-0.7c0.1,0,0.2,0,0.3,0
						c0.1,0,0.1,0,0.2,0.1c0.1,0.1,0.2,0.1,0.3,0.2c0.3,0.3,0.5,0.7,0.5,1.2c0,0.4,0.2,1.1,0.5,1.8c0.3,0.6,0.6,1.1,1,1.5
						c0.1,0.1,0.2,0.1,0.2,0.2c0.1,0.1,0.2,0.2,0.3,0.2c0.2,0.1,0.4,0.1,0.6,0c0.4-0.1,0.5-0.8,0.5-1.8c0-0.4,0-0.8,0-1.2
						c0-0.4-0.1-0.9-0.1-1.3c0-0.3-0.1-0.5-0.1-0.8c0-0.2-0.1-0.4-0.1-0.7c-0.2-1.1-0.3-2.1-0.4-2.6v0c0-0.2-0.1-0.4-0.2-0.6
						c0-0.1,0-0.1-0.1-0.2c-0.1-0.2-0.2-0.5-0.3-0.7c0,0,0,0,0,0c-0.1-0.3-0.3-0.6-0.5-0.9c0,0,0,0,0-0.1c-0.4-0.7-0.9-1.5-1.3-2.2
						c-0.4-0.7-0.8-1.3-0.9-1.7c0-0.2-0.2-0.9-0.5-2.1l3.2-43.2c0,0-9.3-1.2-9.4-1.2L36,81.8v0v0c0,0-0.3,1.4-0.6,3.5
						c-0.4,2.7-0.9,6.7-0.9,10.4c0,1.7,0.1,3.7,0.2,5.9c0.1,1.1,0.2,2.2,0.3,3.3c0.2,1.7,0.3,3.4,0.5,4.9c0.1,1,0.2,1.9,0.3,2.8
						c0,0.1,0,0.2,0,0.3c0.2,1.3,0.3,2.4,0.4,3.3c0.1,0.6,0.1,1.1,0.1,1.4c0,0.5,0,1.1,0,1.9c0,0.8,0,1.7,0,2.7c0,0.6,0,1.3,0,1.9
						c0,0.6,0,1.3,0,1.9c0,0.3,0,0.6,0,0.9c0.1,1.4,0.2,2.5,0.5,3c0.2,0.3,0.5,0.8,0.9,1.4c1.1,1.6,2.6,3.9,3.8,4.6
						c0.8,0.5,2,1.3,3,1.8c1,0.5,2,0.8,2.4,0.3c0.1-0.1,0.1-0.1,0.1-0.2C47.1,136.4,41.8,130.7,42.1,128.7z"/>
					<path style="fill:#EDCAAB;" d="M95.5,89.6c-0.4-4.3-1.1-7.8-1.1-7.8L94,71.2c-0.4,0.2-10.1,1.7-10.1,1.7l3.1,42.3l0.2,3.3l0,0
						c-0.2,0.4-0.4,0.9-0.8,1.5c-0.4,0.7-0.9,1.4-1.3,2.2c0,0,0,0,0,0.1c-0.2,0.3-0.3,0.6-0.5,0.9c0,0,0,0,0,0
						c-0.1,0.2-0.2,0.5-0.3,0.7c0,0.1,0,0.1-0.1,0.2c-0.1,0.2-0.2,0.4-0.2,0.6c-0.1,0.3-0.1,0.8-0.2,1.3c-0.1,0.4-0.1,0.8-0.2,1.2
						c0,0.2-0.1,0.4-0.1,0.7c-0.1,0.7-0.2,1.4-0.2,2c0,0.2,0,0.4,0,0.6c0,0.6,0,1.1,0.1,1.5c0,0.1,0,0.1,0,0.2
						c0,0.2,0.1,0.3,0.1,0.4c0.1,0.1,0.2,0.3,0.3,0.3c0.2,0.1,0.4,0,0.6,0c0.1,0,0.2-0.1,0.3-0.2c0.1-0.1,0.2-0.1,0.2-0.2
						c0.1-0.1,0.2-0.3,0.3-0.4c0.1-0.1,0.1-0.2,0.2-0.2c0.1-0.2,0.2-0.3,0.3-0.5c0.2-0.3,0.3-0.7,0.5-1c0.1-0.2,0.1-0.4,0.2-0.6
						c0-0.2,0.1-0.4,0.1-0.5c0-0.3,0.1-0.6,0.2-0.8c0.1-0.1,0.2-0.2,0.3-0.3c0,0,0.1-0.1,0.2-0.1c0.2-0.2,0.4-0.2,0.6-0.2
						c0.2,0.1,0.4,0.3,0.5,0.7c0,0.1,0,0.2,0.1,0.4c0,0.1,0,0.3,0,0.4c-0.1,0.4-0.3,0.9-0.6,1.4c-0.1,0.2-0.2,0.4-0.3,0.6
						c-0.4,0.6-0.8,1.2-1.2,1.9c-1,1.4-2,2.7-2.5,3.7c-0.1,0.2-0.2,0.3-0.2,0.5c-0.1,0.2-0.1,0.4-0.1,0.5c0,0.1,0,0.2,0.1,0.2
						c0.3,0.3,0.8,0.3,1.5,0c0.1,0,0.2-0.1,0.3-0.1c0.1-0.1,0.3-0.1,0.4-0.2c0.8-0.4,1.7-1,2.5-1.5c0.2-0.2,0.5-0.3,0.7-0.4
						c0.8-0.5,1.8-1.7,2.6-2.9c0.9-1.2,1.6-2.5,2.1-3.1c0.5-0.7,0.5-3.1,0.5-5.7c0-0.3,0-0.6,0-1c0-0.6,0-1.3,0-1.9
						c0-0.3,0-0.6,0-0.9c0-0.6,0-1.1,0-1.6c0-0.5,0-0.9,0-1.2c0-0.3,0.1-0.8,0.1-1.4c0.2-1.5,0.5-3.8,0.8-6.4
						c0.5-4.7,1.1-10.4,1-14.2C95.8,93.7,95.7,91.6,95.5,89.6z"/>
				</g>
				<g>
					<path style="fill:#DDBA9B;" d="M64.5,34.4c3.2,0,6.8-5.9,6.8-6.7c0.3-0.5,0.5-0.9,0.7-1.4H56.8c0.2,0.5,0.5,0.9,0.7,1.4
						C57.6,28.5,61.2,34.4,64.5,34.4z"/>
				</g>
				<g>
					<path style="fill:#EDCAAB;" d="M76.9,15.3c-0.7-1.2-1.8,0-1.8,0C77.2,3.6,71.3,0.8,65.8,0h-2.6C57.7,0.8,51.8,3.6,54,15.3
						c0,0-1.1-1.2-1.8,0c-0.7,1.2,1.4,6.6,3.3,6.1c0,0,0.7,10.7,9.1,10.7s9.1-10.7,9.1-10.7C75.4,21.9,77.6,16.5,76.9,15.3z"/>
				</g>
				<g>
					<path style="fill:#BD9A7B;" d="M53.3,15.1c0,0-0.3-6.9,0.5-9.2c0.7-2.3,2.6-6.7,10.1-6.8c7.5-0.1,11,4.6,11.5,6.7
						c0.5,2.1,0.3,9.1,0.3,9.1l-1.8,2c0,0,0.7-7.6-2.1-9.9c0,0-4.5,1.4-7.2,1.4c-2.6,0-6.7-1.5-6.7-1.5s-2.9,0.2-2.7,9.9L53.3,15.1z
						"/>
				</g>
				<path style="fill:#BA7D60;" d="M45.8,72.8c0,0-0.2-0.7-0.3-1.7c-0.1-1-0.2-2.4-0.3-3.8c0-1.4,0.1-2.8,0.3-3.8
					c0.1-1,0.3-1.7,0.3-1.7s0.2,0.7,0.3,1.7c0.1,1,0.2,2.4,0.3,3.8c0,1.4-0.1,2.8-0.3,3.8C46,72.1,45.8,72.8,45.8,72.8z"/>
				<path style="fill:#BA7D60;" d="M84,72.8c0,0-0.2-0.7-0.3-1.7c-0.1-1-0.2-2.4-0.3-3.8c0-1.4,0.1-2.8,0.3-3.8
					c0.1-1,0.3-1.7,0.3-1.7s0.2,0.7,0.3,1.7c0.1,1,0.2,2.4,0.3,3.8c0,1.4-0.1,2.8-0.3,3.8C84.2,72.1,84,72.8,84,72.8z"/>
			</g>
			<path style="fill:#EAEAEA;" d="M57.3,32.9c0,0-1-0.4-3.7,3.6l8.4,8.4l2.5-5.2L57.3,32.9z"/>
			<path style="fill:#EAEAEA;" d="M72,32.9c0,0,1.4-0.4,4.2,3.6l-8.4,8.4l-2.5-5.2L72,32.9z"/>
		</g>
		<polygon style="fill:#B24D4B;" points="67.3,43.9 65.9,41.4 63.2,41.4 61.5,43.9 61.5,45.1 62.7,45.9 58.5,97.7 64.5,109.5 
			64.9,109.5 70.9,97.7 66.4,45.9 67.3,45.1 		"/>
	</g>
	<g>
		<g>
			<g>
				<g>
					<path style="fill:none;stroke:#C8C8C8;stroke-width:3.4726;stroke-miterlimit:10;" d="M39.2,106V85.9c0-1.9,1.1-4.6,2.5-5.9
						l9.1-9.1"/>
				</g>
				<path style="fill:#C8C8C8;" d="M50.3,76c-1.3,1.3-3.4,1.3-4.7,0l0,0c-1.3-1.3-1.3-3.4,0-4.7l5.7-5.7c1.3-1.3,3.4-1.3,4.7,0l0,0
					c1.3,1.3,1.3,3.4,0,4.7L50.3,76z"/>
				<g>
					<path style="fill:none;stroke:#C8C8C8;stroke-width:3.4726;stroke-miterlimit:10;" d="M92.9,106V85.9c0-1.9-1.1-4.6-2.5-5.9
						l-9.1-9.1"/>
				</g>
				<path style="fill:#C8C8C8;" d="M81.8,76c1.3,1.3,3.4,1.3,4.7,0l0,0c1.3-1.3,1.3-3.4,0-4.7l-5.7-5.7c-1.3-1.3-3.4-1.3-4.7,0l0,0
					c-1.3,1.3-1.3,3.4,0,4.7L81.8,76z"/>
			</g>
			<g>
				<rect x="37.9" y="120" style="fill:#F3D6AD;" width="27.2" height="119"/>
				<rect x="63.7" y="120" style="fill:#E0C5A4;" width="27.2" height="119"/>
				<rect x="16.4" y="237.5" style="fill:#FFFFFF;" width="96.6" height="3"/>
				<rect x="16.4" y="106" style="fill:#CCB296;" width="96.6" height="13.9"/>
			</g>
		</g>
	</g>
</g>
</svg>
