<?xml version="1.0" encoding="UTF-8" standalone="no"?>
<svg
   xmlns:dc="http://purl.org/dc/elements/1.1/"
   xmlns:cc="http://creativecommons.org/ns#"
   xmlns:rdf="http://www.w3.org/1999/02/22-rdf-syntax-ns#"
   xmlns:svg="http://www.w3.org/2000/svg"
   xmlns="http://www.w3.org/2000/svg"
   xml:space="preserve"
   style="enable-background:new 0 0 544.7 291;"
   viewBox="0 0 544.7 291"
   y="0px"
   x="0px"
   id="Layer_1"
   version="1.1"><metadata
     id="metadata329"><rdf:RDF><cc:Work
         rdf:about=""><dc:format>image/svg+xml</dc:format><dc:type
           rdf:resource="http://purl.org/dc/dcmitype/StillImage" /><dc:title></dc:title></cc:Work></rdf:RDF></metadata><defs
     id="defs327" /><rect
     id="rect3"
     height="65.9"
     width="549.3"
     style="fill:#f2f2f2"
     y="224.5"
     x="-0.6" /><path
     id="path47"
     d="M 53.650391 64.625 C 52.800391 64.625 51.950781 64.949609 51.300781 65.599609 L 45.599609 71.300781 C 44.731427 72.168963 44.456629 73.390877 44.748047 74.496094 L 40.517578 78.728516 C 38.571456 80.535629 37.462891 83.33024 37.462891 85.900391 L 37.462891 106 L 16.400391 106 L 16.400391 119.90039 L 37.900391 119.90039 L 37.900391 237.5 L 16.400391 237.5 L 16.400391 240.5 L 113 240.5 L 113 237.5 L 90.900391 237.5 L 90.900391 119.90039 L 113 119.90039 L 113 106 L 94.636719 106 L 94.636719 85.900391 C 94.636719 83.33024 93.528154 80.535629 91.582031 78.728516 L 87.351562 74.496094 C 87.64298 73.390877 87.368182 72.168963 86.5 71.300781 L 80.800781 65.599609 C 79.500781 64.299609 77.399609 64.299609 76.099609 65.599609 C 74.799609 66.899609 74.799609 69.000781 76.099609 70.300781 L 81.800781 76 C 82.62829 76.827509 83.778659 77.12247 84.841797 76.896484 L 89.195312 81.25 L 89.21875 81.271484 C 90.072627 82.064371 91.164063 84.670541 91.164062 85.900391 L 91.164062 106 L 40.935547 106 L 40.935547 85.900391 C 40.935547 84.670541 42.026982 82.064371 42.880859 81.271484 L 42.904297 81.25 L 47.257812 76.896484 C 48.32141 77.123133 49.472843 76.827938 50.300781 76 L 56 70.300781 C 57.3 69.000781 57.3 66.899609 56 65.599609 C 55.35 64.949609 54.500391 64.625 53.650391 64.625 z M 157.65039 65.625 C 156.80039 65.625 155.95078 65.949609 155.30078 66.599609 L 149.59961 72.300781 C 148.73143 73.168963 148.45663 74.390877 148.74805 75.496094 L 144.51758 79.728516 C 142.57146 81.535629 141.46289 84.33024 141.46289 86.900391 L 141.46289 107 L 120.40039 107 L 120.40039 120.90039 L 141.90039 120.90039 L 141.90039 238.5 L 120.40039 238.5 L 120.40039 241.5 L 217 241.5 L 217 238.5 L 194.90039 238.5 L 194.90039 120.90039 L 217 120.90039 L 217 107 L 198.63672 107 L 198.63672 86.900391 C 198.63672 84.33024 197.52815 81.535629 195.58203 79.728516 L 191.35156 75.496094 C 191.64298 74.390877 191.36818 73.168963 190.5 72.300781 L 184.80078 66.599609 C 183.50078 65.299609 181.39961 65.299609 180.09961 66.599609 C 178.79961 67.899609 178.79961 70.000781 180.09961 71.300781 L 185.80078 77 C 186.62829 77.827509 187.77866 78.12247 188.8418 77.896484 L 193.19531 82.25 L 193.21875 82.271484 C 194.07263 83.064371 195.16406 85.670541 195.16406 86.900391 L 195.16406 107 L 144.93555 107 L 144.93555 86.900391 C 144.93555 85.670541 146.02698 83.064371 146.88086 82.271484 L 146.9043 82.25 L 151.25781 77.896484 C 152.32141 78.123133 153.47284 77.827938 154.30078 77 L 160 71.300781 C 161.3 70.000781 161.3 67.899609 160 66.599609 C 159.35 65.949609 158.50039 65.625 157.65039 65.625 z M 261.65039 65.625 C 260.80039 65.625 259.95078 65.949609 259.30078 66.599609 L 253.59961 72.300781 C 252.73143 73.168963 252.45663 74.390877 252.74805 75.496094 L 248.51758 79.728516 C 246.57146 81.535629 245.46289 84.33024 245.46289 86.900391 L 245.46289 107 L 224.40039 107 L 224.40039 120.90039 L 245.90039 120.90039 L 245.90039 238.5 L 224.40039 238.5 L 224.40039 241.5 L 321 241.5 L 321 238.5 L 298.90039 238.5 L 298.90039 120.90039 L 321 120.90039 L 321 107 L 302.63672 107 L 302.63672 86.900391 C 302.63672 84.33024 301.52815 81.535629 299.58203 79.728516 L 295.35156 75.496094 C 295.64298 74.390877 295.36818 73.168963 294.5 72.300781 L 288.80078 66.599609 C 287.50078 65.299609 285.39961 65.299609 284.09961 66.599609 C 282.79961 67.899609 282.79961 70.000781 284.09961 71.300781 L 289.80078 77 C 290.62829 77.827509 291.77866 78.12247 292.8418 77.896484 L 297.19531 82.25 L 297.21875 82.271484 C 298.07263 83.064371 299.16406 85.670541 299.16406 86.900391 L 299.16406 107 L 248.93555 107 L 248.93555 86.900391 C 248.93555 85.670541 250.02698 83.064371 250.88086 82.271484 L 250.9043 82.25 L 255.25781 77.896484 C 256.32141 78.123133 257.47284 77.827938 258.30078 77 L 264 71.300781 C 265.3 70.000781 265.3 67.899609 264 66.599609 C 263.35 65.949609 262.50039 65.625 261.65039 65.625 z M 364.25 65.625 C 363.4 65.625 362.55039 65.949609 361.90039 66.599609 L 356.19922 72.300781 C 355.33104 73.168963 355.05624 74.390877 355.34766 75.496094 L 351.07227 79.771484 L 351.11914 79.728516 C 349.17302 81.535629 348.06445 84.33024 348.06445 86.900391 L 348.06445 107 L 328.40039 107 L 328.40039 120.90039 L 349.90039 120.90039 L 349.90039 238.5 L 328.40039 238.5 L 328.40039 241.5 L 425 241.5 L 425 238.5 L 402.90039 238.5 L 402.90039 120.90039 L 425 120.90039 L 425 107 L 405.23633 107 L 405.23633 86.900391 C 405.23633 84.33024 404.12776 81.535629 402.18164 79.728516 L 402.22852 79.771484 L 397.95117 75.496094 C 398.24267 74.390829 397.96784 73.169012 397.09961 72.300781 L 391.40039 66.599609 C 390.10039 65.299609 387.99922 65.299609 386.69922 66.599609 C 385.39922 67.899609 385.39922 70.000781 386.69922 71.300781 L 392.40039 77 C 393.2279 77.827509 394.37827 78.12247 395.44141 77.896484 L 399.79492 82.25 L 399.81836 82.271484 C 400.67224 83.064371 401.76367 85.670541 401.76367 86.900391 L 401.76367 107 L 351.53711 107 L 351.53711 86.900391 C 351.53711 85.670541 352.62854 83.064371 353.48242 82.271484 L 353.50586 82.25 L 357.85742 77.896484 C 358.92107 78.123203 360.07241 77.827983 360.90039 77 L 366.59961 71.300781 C 367.89961 70.000781 367.89961 67.899609 366.59961 66.599609 C 365.94961 65.949609 365.1 65.625 364.25 65.625 z M 468.25 65.625 C 467.4 65.625 466.55039 65.949609 465.90039 66.599609 L 460.19922 72.300781 C 459.33104 73.168963 459.05624 74.390877 459.34766 75.496094 L 455.07227 79.771484 L 455.11914 79.728516 C 453.17302 81.535629 452.06445 84.33024 452.06445 86.900391 L 452.06445 107 L 432.40039 107 L 432.40039 120.90039 L 453.90039 120.90039 L 453.90039 238.5 L 432.40039 238.5 L 432.40039 241.5 L 529 241.5 L 529 238.5 L 506.90039 238.5 L 506.90039 120.90039 L 529 120.90039 L 529 107 L 509.23633 107 L 509.23633 86.900391 C 509.23633 84.33024 508.12776 81.535629 506.18164 79.728516 L 506.22852 79.771484 L 501.95117 75.496094 C 502.24267 74.390829 501.96784 73.169012 501.09961 72.300781 L 495.40039 66.599609 C 494.10039 65.299609 491.99922 65.299609 490.69922 66.599609 C 489.39922 67.899609 489.39922 70.000781 490.69922 71.300781 L 496.40039 77 C 497.2279 77.827509 498.37827 78.12247 499.44141 77.896484 L 503.79492 82.25 L 503.81836 82.271484 C 504.67224 83.064371 505.76367 85.670541 505.76367 86.900391 L 505.76367 107 L 455.53711 107 L 455.53711 86.900391 C 455.53711 85.670541 456.62854 83.064371 457.48242 82.271484 L 457.50586 82.25 L 461.85742 77.896484 C 462.92107 78.123203 464.07241 77.827983 464.90039 77 L 470.59961 71.300781 C 471.89961 70.000781 471.89961 67.899609 470.59961 66.599609 C 469.94961 65.949609 469.1 65.625 468.25 65.625 z "
     style="color:#000000;font-style:normal;font-variant:normal;font-weight:normal;font-stretch:normal;font-size:medium;line-height:normal;font-family:sans-serif;text-indent:0;text-align:start;text-decoration:none;text-decoration-line:none;text-decoration-style:solid;text-decoration-color:#000000;letter-spacing:normal;word-spacing:normal;text-transform:none;direction:ltr;block-progression:tb;writing-mode:lr-tb;baseline-shift:baseline;text-anchor:start;white-space:normal;clip-rule:nonzero;display:inline;overflow:visible;visibility:visible;opacity:1;isolation:auto;mix-blend-mode:normal;color-interpolation:sRGB;color-interpolation-filters:linearRGB;solid-color:#000000;solid-opacity:1;fill:#e6e6e6;fill-opacity:1;fill-rule:nonzero;stroke:none;stroke-width:3.47259998;stroke-linecap:butt;stroke-linejoin:miter;stroke-miterlimit:10;stroke-dasharray:none;stroke-dashoffset:0;stroke-opacity:1;color-rendering:auto;image-rendering:auto;shape-rendering:auto;text-rendering:auto;enable-background:accumulate" /></svg>