<?xml version="1.0" encoding="iso-8859-1"?>
<!-- Generator: Adobe Illustrator 18.0.0, SVG Export Plug-In . SVG Version: 6.00 Build 0)  -->
<!DOCTYPE svg PUBLIC "-//W3C//DTD SVG 1.1//EN" "http://www.w3.org/Graphics/SVG/1.1/DTD/svg11.dtd">
<svg version="1.1" id="Layer_1" xmlns="http://www.w3.org/2000/svg" xmlns:xlink="http://www.w3.org/1999/xlink" x="0px" y="0px"
	 viewBox="0 0 544.7 291" style="enable-background:new 0 0 544.7 291;" xml:space="preserve">
<rect y="224.8" style="fill:#ADAFB2;" width="544.7" height="65.9"/>
<g>
	<g>
		<g>
			<polygon style="fill:#E8BA8F;" points="454.4,110.7 453.5,125.3 459.7,131.5 463.5,132.7 463.5,131 459,128.4 459.7,123.8 
				462,124.5 462.3,127.4 464.8,128.7 464.8,123.9 459.2,110.7 			"/>
			<polygon style="fill:#E8BA8F;" points="506.9,110.7 507.8,125.3 501.8,131.5 498.1,132.7 498.1,131 502.4,128.4 501.6,123.8 
				499.4,124.5 499.2,127.4 496.8,128.7 496.8,123.9 502.1,110.7 			"/>
			<polygon style="fill:#EDCAAB;" points="473.8,28.5 473.8,35.3 481.3,42.7 487.8,36.5 487.8,26.5 			"/>
			<path style="fill:#DDBA9B;" d="M474.1,29.9c0,0,3.4,6.6,7,6.6s6.3-6.5,6.3-6.5L474.1,29.9z"/>
			<path style="fill:#EDCAAB;" d="M471.6,19.8c0,0-2.6-13.4,8.6-13.4s9.4,13.4,9.4,13.4s1.4-1,2.1-0.3s0.9,6.3-2.9,7
				c0,0-1,3.4-1.6,3.9c-0.6,0.6-2.7,4.4-6.7,4.4c-2.1,0-4.6-2-6.2-4.4c-1.5-2.2-2.1-4.8-2.1-4.8s-3.8-1-2.6-6.3
				C469.7,19.4,470.9,18.6,471.6,19.8z"/>
			<path style="fill:#D6D5D6;" d="M474,34.3c0,0,0.4,2.1,5.7,6h3.7c0,0,4.2-4.3,4.3-4.6c0.2-0.2,0.1-1.8,0.1-1.8s2,2,1.6,5.6
				c-0.4,3.6-7.5,29.1-7.5,29.1s-14.2-30.8-8.1-34.2"/>
			<path style="fill:#493C34;" d="M469.7,207.4c0,0-0.7,6.6-1.3,8.2c-0.6,1.7-2.1,4.3-2.1,5.7c0,1.3,1.2,3,6.3,3c5.1,0,6-0.4,6-3.8
				c0-3.4,0-13.1,0-13.1H469.7z"/>
			<path style="fill:#493C34;" d="M493.4,207.4c0,0,0.7,6.6,1.3,8.2c0.6,1.7,2.1,4.3,2.1,5.7c0,1.3-1.1,3-6.3,3
				c-5.1,0-5.9-0.4-5.9-3.8c0-3.4,0-13.1,0-13.1H493.4z"/>
			<polygon style="fill:#B24D4B;" points="484,43.1 482.4,40.4 479.5,40.4 477.6,43.1 477.6,44.4 478.9,45.2 476.9,63.3 480.9,63.3 
				481.3,63.3 485.3,63.3 483,45.2 484,44.4 			"/>
			<path style="fill:#1B2A35;" d="M505.2,46.2c-2-2-12.5-6-12.5-6l-3.9-5c0.1,9.3-5.7,23.1-7.8,27.8c-2.1-4.7-7.8-18.6-7.8-27.9
				l-3.9,5c0,0-10.4,4.1-12.5,6.2c-2,2-8.6,15.9-4.8,73.5c0,0,4.5,0,7.8,0l1.5,5.9c0,0,9.5,0.5,19.7,0.4c10.2,0.1,19.7-0.3,19.7-0.3
				l1.5-6c3.2,0,7.8,0,7.8,0C513.8,62,507.2,48.2,505.2,46.2z"/>
			<circle style="fill:#4F4C4D;" cx="481.6" cy="77.1" r="1.1"/>
			<circle style="fill:#4F4C4D;" cx="481.6" cy="88.7" r="1.1"/>
			<path style="fill:#243742;" d="M481.3,123h-12h-7.4c0,0,0.3,29.1,1.2,41.2c0.9,12,2.1,25,2.3,26.6c0.2,1.6,2.1,18.6,2.1,18.6
				s3.8,1,6.1,1c2.3,0,6-1,6-1s0.3-15.4,0-20.9c-0.3-5.5,0-26.7,0.2-33.2c0.2-6.4,0.1-19.6,1.5-19.6s1.7,13.2,1.9,19.6
				c0.2,6.5,0.5,27.7,0.2,33.2c-0.3,5.5,0,20.9,0,20.9s4,1,6.2,1c2.2,0,5.9-1,5.9-1s1.9-17.1,2.1-18.7c0.2-1.6,1.4-14.5,2.3-26.5
				c0.9-12,1.2-41.2,1.2-41.2H481.3z"/>
		</g>
		<g>
			<path style="fill:#BAA99D;" d="M470.5,19.1c0,0-0.2-6.3,0.4-8.4c0.7-2.1,2.4-6.2,9.3-6.3c6.9-0.1,10.1,4.3,10.6,6.2
				c0.5,1.9,0.2,8.4,0.2,8.4l-1.7,1.8c0,0,0.7-7-1.9-9.1c0,0-4.2,1.3-6.6,1.3c-2.4,0-6.2-1.4-6.2-1.4s-2.6,0.2-2.5,9.1L470.5,19.1z"
				/>
		</g>
	</g>
	<g>
		<g>
			<g>
				<g>
					<path style="fill:none;stroke:#C8C8C8;stroke-width:3.4726;stroke-miterlimit:10;" d="M455.1,107.3V87.2c0-1.9,1.1-4.6,2.5-5.9
						l9.1-9.1"/>
				</g>
				<path style="fill:#C8C8C8;" d="M466.3,77.3c-1.3,1.3-3.4,1.3-4.7,0l0,0c-1.3-1.3-1.3-3.4,0-4.7l5.7-5.7c1.3-1.3,3.4-1.3,4.7,0
					l0,0c1.3,1.3,1.3,3.4,0,4.7L466.3,77.3z"/>
				<g>
					<path style="fill:none;stroke:#C8C8C8;stroke-width:3.4726;stroke-miterlimit:10;" d="M508.8,107.3V87.2c0-1.9-1.1-4.6-2.5-5.9
						l-9.1-9.1"/>
				</g>
				<path style="fill:#C8C8C8;" d="M497.7,77.3c1.3,1.3,3.4,1.3,4.7,0l0,0c1.3-1.3,1.3-3.4,0-4.7l-5.7-5.7c-1.3-1.3-3.4-1.3-4.7,0
					l0,0c-1.3,1.3-1.3,3.4,0,4.7L497.7,77.3z"/>
			</g>
			<g>
				<rect x="455.2" y="121.3" style="fill:#F3D6AD;" width="27.2" height="119"/>
				<rect x="481" y="121.3" style="fill:#E0C5A4;" width="27.2" height="119"/>
				<rect x="433.7" y="238.8" style="fill:#FFFFFF;" width="96.6" height="3"/>
				<rect x="433.7" y="107.3" style="fill:#CCB296;" width="96.6" height="13.9"/>
			</g>
		</g>
	</g>
</g>
<g>
	<g>
		<polygon style="fill:#805931;" points="350.4,118.4 349.4,134 356,140.6 360.1,141.9 360.1,140 355.3,137.3 356,132.4 
			358.4,133.1 358.7,136.3 361.4,137.7 361.4,132.5 355.4,118.4 		"/>
		<polygon style="fill:#805931;" points="406.4,118.4 407.4,134 400.9,140.6 397,141.9 397,140 401.6,137.3 400.8,132.4 
			398.4,133.1 398.2,136.3 395.6,137.7 395.6,132.5 401.3,118.4 		"/>
		<path style="fill:#423E3F;" d="M384.9,224.8c0,0,0.4,1.2,0.4,2.1c0,0.9,0.3,4.4,0.3,4.4l3.9,3.4h8c0,0,2.3-1.2,2.3-4.8
			s-5.5-11.3-5.5-11.3S384.6,220.9,384.9,224.8z"/>
		<path style="fill:#423E3F;" d="M360.7,220c0,0-4.2,9.1-4.2,9.9s0.3,4,0.3,4s1.7,1.8,7,1.8s7.8-5.4,7.8-5.4l-0.1-2.6l3.6-4.3v-5
			L360.7,220z"/>
		<polygon style="fill:#805931;" points="371,30.6 371,37.8 379,45.8 386,39.1 386,28.4 		"/>
		<path style="fill:#86613B;" d="M368.7,21.3c0,0-2.7-14.4,9.2-14.4S388,21.3,388,21.3s1.5-1,2.3-0.3s0.9,6.7-3.1,7.5
			c0,0-1.1,3.6-1.7,4.2c-0.6,0.6-2.9,4.7-7.2,4.7c-2.3,0-4.9-2.1-6.6-4.7c-1.6-2.3-2.3-5.1-2.3-5.1s-4.1-1-2.7-6.7
			C366.7,20.9,367.9,20,368.7,21.3z"/>
		<path style="fill:#D6D5D6;" d="M371.3,36.8c0,0,0.5,2.3,6.1,6.4h3.9c0,0,4.4-4.6,4.6-4.9c0.2-0.3,0.1-1.9,0.1-1.9s2.1,2.1,1.7,5.9
			c-0.4,3.8-8,31.1-8,31.1s-15.1-32.9-8.6-36.6"/>
		<path style="fill:#231F20;" d="M358.3,133.9c0,0,3.7,68.5,4.2,76.3l-2.4,10.9c0,0,4.6,0.5,6.7,0.7c2.1,0.2,9.1,2.1,9.1,2.1
			c0,0,1.5-5,1.5-5.8c0.2-1.7-2.2-14.7-2.1-19.3c0.2-4.6,3.2-61.7,3.2-61.7s0.8,8.7,1.2,16.1c0.4,7.3-0.7,65-0.7,65s2.2,6,5.1,7.5
			c0,0,4.8-6.3,11.3-5c0,0,0.9-10.1-0.2-12.3c-1-2.2,0.7-8.2,0.7-8.2l3.8-67.5L358.3,133.9z"/>
		<path style="fill:#3F2A14;" d="M369,22.9l-1.4-2.2l0-10.7c0,0,3.4-6.3,12-7.9c0,0,7.9,2.9,9.3,9.7v9l-1.8,2c0,0,2-13.5-8.9-13.5
			C367.3,9.2,369,22.9,369,22.9z"/>
		<polygon style="fill:#668C9E;" points="381.9,46.1 380.2,43.2 377.1,43.2 375.1,46.1 375.1,47.6 376.5,48.4 374.3,67.8 
			378.6,67.8 379.1,67.8 383.4,67.8 380.9,48.4 381.9,47.6 		"/>
		<path style="fill:#393536;" d="M404.6,49.4c-2.2-2.2-13.3-6.5-13.3-6.5l-4.2-5.4c0.1,10-6.1,24.7-8.3,29.7
			c-2.2-5-8.4-19.8-8.3-29.8l-4.2,5.3c0,0-11.2,4.4-13.3,6.6c-2.2,2.2-9.2,17-5.1,78.5c0,0,4.8,0,8.3,0l1.6,6.3c0,0,10.2,0.5,21,0.4
			c10.9,0.1,21-0.3,21-0.3l1.6-6.4c3.5,0,8.3,0,8.3,0C413.8,66.4,406.8,51.6,404.6,49.4z"/>
		<circle style="fill:#4F4C4D;" cx="379.4" cy="82.5" r="1.1"/>
		<circle style="fill:#4F4C4D;" cx="379.4" cy="94.8" r="1.1"/>
	</g>
	<g>
		<g>
			<g>
				<path style="fill:none;stroke:#C8C8C8;stroke-width:3.4726;stroke-miterlimit:10;" d="M351.7,107.3V87.2c0-1.9,1.1-4.6,2.5-5.9
					l9.1-9.1"/>
			</g>
			<path style="fill:#C8C8C8;" d="M362.8,77.3c-1.3,1.3-3.4,1.3-4.7,0l0,0c-1.3-1.3-1.3-3.4,0-4.7l5.7-5.7c1.3-1.3,3.4-1.3,4.7,0
				l0,0c1.3,1.3,1.3,3.4,0,4.7L362.8,77.3z"/>
			<g>
				<path style="fill:none;stroke:#C8C8C8;stroke-width:3.4726;stroke-miterlimit:10;" d="M405.4,107.3V87.2c0-1.9-1.1-4.6-2.5-5.9
					l-9.1-9.1"/>
			</g>
			<path style="fill:#C8C8C8;" d="M394.3,77.3c1.3,1.3,3.4,1.3,4.7,0l0,0c1.3-1.3,1.3-3.4,0-4.7l-5.7-5.7c-1.3-1.3-3.4-1.3-4.7,0
				l0,0c-1.3,1.3-1.3,3.4,0,4.7L394.3,77.3z"/>
		</g>
		<g>
			<rect x="351.8" y="121.3" style="fill:#F3D6AD;" width="27.2" height="119"/>
			<rect x="377.6" y="121.3" style="fill:#E0C5A4;" width="27.2" height="119"/>
			<rect x="330.2" y="238.8" style="fill:#FFFFFF;" width="96.6" height="3"/>
			<rect x="330.2" y="107.3" style="fill:#CCB296;" width="96.6" height="13.9"/>
		</g>
	</g>
</g>
<g>
	<g>
		<polygon style="fill:#EDCAAB;" points="246.7,122.5 245.8,138.2 252.3,144.8 256.4,146.1 256.4,144.2 251.6,141.5 252.4,136.6 
			254.8,137.3 255.1,140.4 257.8,141.8 257.8,136.7 251.8,122.5 		"/>
		<polygon style="fill:#EDCAAB;" points="302.8,122.5 303.7,138.2 297.3,144.8 293.4,146.1 293.4,144.2 298,141.5 297.2,136.6 
			294.8,137.3 294.5,140.4 292,141.8 292,136.7 297.7,122.5 		"/>
		<path style="fill:#423E3F;" d="M281.2,228.9c0,0,0.4,1.2,0.4,2.1c0,0.9,0.3,4.4,0.3,4.4l3.9,3.4h8c0,0,2.3-1.2,2.3-4.8
			s-5.5-11.3-5.5-11.3S280.9,225.1,281.2,228.9z"/>
		<path style="fill:#423E3F;" d="M257.1,224.1c0,0-4.2,9.1-4.2,9.9s0.3,4,0.3,4s1.7,1.8,7,1.8c5.3,0,7.8-5.4,7.8-5.4l-0.1-2.6
			l3.6-4.3v-5L257.1,224.1z"/>
		<polygon style="fill:#EDCAAB;" points="267.4,34.7 267.4,42 275.4,49.9 282.4,43.3 282.4,32.6 		"/>
		<path style="fill:#DDBA9B;" d="M268.3,37.5c0,0,3.4,6,7,6s6.3-6,6.3-6L268.3,37.5z"/>
		<path style="fill:#EDCAAB;" d="M265,25.5c0,0-2.7-14.4,9.2-14.4c12,0,10.1,14.4,10.1,14.4s1.5-1,2.3-0.3s0.9,6.7-3.1,7.5
			c0,0-1.1,3.6-1.7,4.2c-0.6,0.6-2.9,4.7-7.2,4.7c-2.3,0-4.9-2.1-6.6-4.7c-1.6-2.3-2.3-5.1-2.3-5.1s-4.1-1-2.7-6.7
			C263,25,264.3,24.1,265,25.5z"/>
		<path style="fill:#D6D5D6;" d="M267.7,41c0,0,0.5,2.3,6.1,6.4h3.9c0,0,4.4-4.6,4.6-4.9c0.2-0.3,0.1-1.9,0.1-1.9s2.1,2.1,1.7,5.9
			c-0.4,3.8-8,31.1-8,31.1s-15.1-32.9-8.6-36.6"/>
		<path style="fill:#1C1F26;" d="M254.7,138.1c0,0,3.7,68.5,4.2,76.3l-2.4,10.9c0,0,4.6,0.5,6.7,0.7c2.1,0.2,9.1,2.1,9.1,2.1
			c0,0,1.5-5,1.5-5.8c0.2-1.7-2.2-14.7-2.1-19.3c0.2-4.6,3.2-61.7,3.2-61.7s0.8,8.7,1.2,16.1c0.4,7.3-0.7,65-0.7,65s2.2,6,5.1,7.5
			c0,0,4.8-6.3,11.3-5c0,0,0.9-10.1-0.2-12.3c-1-2.2,0.7-8.2,0.7-8.2l3.8-67.5L254.7,138.1z"/>
		<path style="fill:#595755;" d="M265.3,27l-1.4-2.2l0-10.7c0,0,3.4-6.3,12-7.9c0,0,7.9,2.9,9.3,9.7v9l-1.8,2c0,0,2-13.5-8.9-13.5
			C263.7,13.3,265.3,27,265.3,27z"/>
		<polygon style="fill:#E8B536;" points="278.3,50.3 276.6,47.4 273.5,47.4 271.5,50.3 271.5,51.7 272.9,52.6 270.7,71.9 275,71.9 
			275.4,71.9 279.8,71.9 277.3,52.6 278.3,51.7 		"/>
		<path style="fill:#2C313D;" d="M301,53.6c-2.2-2.2-13.3-6.5-13.3-6.5l-4.2-5.4c0.1,10-6.1,24.7-8.3,29.7c-2.2-5-8.4-19.8-8.3-29.8
			l-4.2,5.3c0,0-11.2,4.4-13.3,6.6c-2.2,2.2-9.2,17-5.1,78.5c0,0,4.8,0,8.3,0l1.6,6.3c0,0,10.2,0.5,21,0.4c10.9,0.1,21-0.3,21-0.3
			l1.6-6.4c3.5,0,8.3,0,8.3,0C310.2,70.6,303.1,55.8,301,53.6z"/>
		<circle style="fill:#4F4C4D;" cx="275.8" cy="86.7" r="1.1"/>
		<circle style="fill:#4F4C4D;" cx="275.8" cy="99" r="1.1"/>
	</g>
	<g>
		<g>
			<g>
				<g>
					<path style="fill:none;stroke:#C8C8C8;stroke-width:3.4726;stroke-miterlimit:10;" d="M249.6,107.3V87.2c0-1.9,1.1-4.6,2.5-5.9
						l9.1-9.1"/>
				</g>
				<path style="fill:#C8C8C8;" d="M260.7,77.3c-1.3,1.3-3.4,1.3-4.7,0l0,0c-1.3-1.3-1.3-3.4,0-4.7l5.7-5.7c1.3-1.3,3.4-1.3,4.7,0
					l0,0c1.3,1.3,1.3,3.4,0,4.7L260.7,77.3z"/>
				<g>
					<path style="fill:none;stroke:#C8C8C8;stroke-width:3.4726;stroke-miterlimit:10;" d="M303.3,107.3V87.2c0-1.9-1.1-4.6-2.5-5.9
						l-9.1-9.1"/>
				</g>
				<path style="fill:#C8C8C8;" d="M292.2,77.3c1.3,1.3,3.4,1.3,4.7,0l0,0c1.3-1.3,1.3-3.4,0-4.7l-5.7-5.7c-1.3-1.3-3.4-1.3-4.7,0
					l0,0c-1.3,1.3-1.3,3.4,0,4.7L292.2,77.3z"/>
			</g>
			<g>
				<rect x="248.3" y="121.3" style="fill:#F3D6AD;" width="27.2" height="119"/>
				<rect x="274.1" y="121.3" style="fill:#E0C5A4;" width="27.2" height="119"/>
				<rect x="226.8" y="238.8" style="fill:#FFFFFF;" width="96.6" height="3"/>
				<rect x="226.8" y="107.3" style="fill:#CCB296;" width="96.6" height="13.9"/>
			</g>
		</g>
	</g>
</g>
<g>
	<g>
		<g>
			<polygon style="fill:#EDCAAB;" points="154.5,56.3 165.2,52 165.2,42.8 177.3,42.8 177.3,51.4 186.2,57.9 169.6,67.3 			"/>
			<path d="M159.1,219.2l-1.4,15.8c-0.1,0.7,0.4,1.6,1.1,2l5.5,2.9c0.7,0.3,1.6,0.2,2.2-0.3l1.8-1.7c0.5-0.5,1-1.5,0.9-2.3l-0.1-4.9
				c0-0.7-0.1-2-0.1-2.7l-0.6-7.5c-0.1-0.7-0.6-1.7-1.2-2.2l-0.6-0.5c-0.6-0.5-1.6-0.6-2.3-0.4l-5.5,1.8"/>
			<path style="fill:#EDCAAB;" d="M159.8,219.9c0.1,0.3-0.4,10.5-0.4,10.5c0,0.7,0.5,1.6,1.2,1.9l2.5,1.2c0.7,0.3,1.8,0.3,2.4,0l2-1
				c0.7-0.3,1.1-1.2,1.1-1.9l-1.2-10.7c-0.1-0.7-0.7-1.2-1.5-1.1L159.8,219.9z"/>
			<path d="M181.4,219.2l1.4,15.8c0.1,0.7-0.4,1.6-1.1,2l-5.5,2.9c-0.7,0.3-1.6,0.2-2.2-0.3l-1.8-1.7c-0.5-0.5-1-1.5-0.9-2.3
				l0.1-4.9c0-0.7,0.1-2,0.1-2.7l0.6-7.5c0.1-0.7,0.6-1.7,1.2-2.2l0.6-0.5c0.6-0.5,1.6-0.6,2.3-0.4l5.5,1.8"/>
			<path style="fill:#EDCAAB;" d="M180.7,219.9c-0.1,0.3,0.4,10.5,0.4,10.5c0,0.7-0.5,1.6-1.2,1.9l-2.5,1.2c-0.7,0.3-1.8,0.3-2.4,0
				l-2-1c-0.7-0.3-1.1-1.2-1.1-1.9l1.2-10.7c0.1-0.7,0.7-1.2,1.5-1.1L180.7,219.9z"/>
			<path style="fill:#262C35;" d="M191.5,116.4c-0.9-0.9-8.2-1.5-17.2-2.8l0.2-1.1c-1.4,0.2-2.8,0.3-4.3,0.5
				c-1.5-0.2-2.9-0.4-4.3-0.5l0.2,1.1c-9,1.2-16.2,1.6-17.2,2.6c-1,1,3.9,43,5.4,49.7c0,0-0.5,34.7,4.4,54.4c0,0,4.7,1.5,9.8,0
				c0,0-1-14-0.8-20.9c0.2-6.9,2.6-63,2.6-63s2.4,56.1,2.6,63c0.2,6.9-0.8,20.9-0.8,20.9c5.1,1.5,9.8,0,9.8,0
				c4.9-19.7,4.4-54.4,4.4-54.4C187.6,159.2,192.4,117.3,191.5,116.4z"/>
			<path style="fill:#DDBA9B;" d="M164.3,45.7c0,0,3.4,6,7,6s6.3-6,6.3-6L164.3,45.7z"/>
			<path style="fill:#EDCAAB;" d="M189.1,65.8c0,0,5,0.3,8,0c0,0-0.2,23,0.1,24.3c0.3,1.3,1.1,5.8,1,8.5c-0.1,2.6-0.7,13.9-1,17.7
				c-0.4,3.7-0.3,5.9-0.5,8.6c-0.2,2.7-0.6,4.5-0.6,5.8c0,1.4,0.3,4.5,0.5,5.6c0.3,1.1,0.6,2.6,0.1,4.2c-0.5,1.6-1.3,3.9-1.6,4.8
				c-0.3,0.8-0.4,1.4-1.9,2.3c-1.5,0.9-5.6,3.8-6.2,3c-0.7-0.8,0.9-2.1,0.9-2.1s2.6-2.3,3.2-3.2c0.5-0.9,2.3-7.1,0.3-7.3
				c0,0-0.5,0.6-0.5,1.6c0,1-0.2,4.9-2,4.9c-1.8,0-0.7-6.8-0.6-8c0.1-1.2,0.1-4.3,0.9-5.9c0.8-1.7,1.5-2.8,1.9-4.2
				c0.4-1.4,0.3-6.6,0-10c-0.3-3.3-2.4-19-2.4-20.6C188.7,94,189.1,65.8,189.1,65.8z"/>
			<path style="fill:#EDCAAB;" d="M151.1,65.8c0,0-5,0.3-8,0c0,0,0.2,23-0.1,24.3c-0.3,1.3-1.1,5.8-1,8.5c0.1,2.6,0.7,13.9,1,17.7
				c0.4,3.7,0.3,5.9,0.5,8.6c0.2,2.7,0.6,4.5,0.6,5.8c0,1.4-0.3,4.5-0.5,5.6c-0.3,1.1-0.6,2.6-0.1,4.2c0.5,1.6,1.3,3.9,1.6,4.8
				c0.3,0.8,0.4,1.4,1.9,2.3c1.5,0.9,5.6,3.8,6.2,3c0.7-0.8-0.9-2.1-0.9-2.1s-2.6-2.3-3.2-3.2c-0.5-0.9-2.3-7.1-0.3-7.3
				c0,0,0.5,0.6,0.5,1.6c0,1,0.2,4.9,2,4.9c1.8,0,0.7-6.8,0.6-8c-0.1-1.2-0.1-4.3-0.9-5.9c-0.8-1.7-1.5-2.8-1.9-4.2
				c-0.4-1.4-0.3-6.6,0-10c0.3-3.3,2.4-19,2.4-20.6C151.5,94,151.1,65.8,151.1,65.8z"/>
			<path style="fill:#5F839B;" d="M193.3,58.2c-2.1-1.7-5.2-3.2-9.8-3.2l-3.7-1.8l-9.2,10.9l-8.4-10.9l-5.3,1.8
				c-4.6,0-7.7,1.5-9.8,3.2c-5.2,4.2-4.3,11.6-4.3,11.6c0.3,0.2,0.5,0.4,0.8,0.6c1.5,0.9,3.2,1.8,3.2,1.8s3.4,7.5,5.2,11.5
				c0.6,1.4,1.1,2.4,1.1,2.4l-5.4,39.5c7.7,1.4,16.2,1.7,23,1.4c6.7,0.3,14.9,0,22.6-1.4l-5.8-39.5c0,0,0.4-1,1.1-2.4
				c1.8-4,5.2-11.5,5.2-11.5c0,0,1.7-0.9,3.2-1.8c0.3-0.2,0.6-0.4,0.8-0.6C197.6,69.9,198.4,62.5,193.3,58.2z"/>
			<g>
				<path style="fill:#EDCAAB;" d="M171.2,17.9c-5.4,0-9.9,5.6-10.9,12.9c-0.3-0.1-0.6-0.1-1-0.1c-1.4,0.1-0.1,6.3,1.2,7.2
					c1.2,6.9,5.6,12,10.8,12h-0.5c5.2,0,9.5-5.1,10.8-12c1.3-0.9,2.5-7.1,1.2-7.2c-0.4,0-0.7,0-1,0.1c-1-7.4-5.5-12.9-10.9-12.9
					H171.2z"/>
			</g>
			<path style="fill:#CEA357;" d="M184,31.4c0,0-0.1-5.4-2.9-10c-2.7-4.5-9.7-7.4-15.8-4.1c-3.9-0.8-8.7,11.5-5.1,13.6l0.7,3.1
				l0.2-4.2L162,27l0.9-1.8l1.4-1.7l3.2-1.7c0,0,4.7,1.6,7.6,4.7c2.1,2.2,5,3.6,5,3.6s-0.6-0.3,0.9,0.4c0,0,0.7,2.6,0.7,4.9
				c0.1,2.4-2.4,10.2-2.4,10.2s3-3.5,4.2-6.8C184.6,35.9,184,31.4,184,31.4z"/>
		</g>
		<path style="fill:#345668;" d="M192,73c0,0,0-0.1-0.1-0.2c0-0.1-0.1-0.3-0.1-0.5c0-0.1,0-0.2-0.1-0.4c0-0.1,0-0.3-0.1-0.4
			c0-0.1,0-0.3-0.1-0.4c0-0.1,0-0.3-0.1-0.4c0-0.1,0-0.3-0.1-0.4c0-0.1,0-0.1,0-0.2c0-0.1,0-0.1,0-0.2c0-0.1-0.1-0.3-0.1-0.4
			c0-0.1-0.1-0.2-0.1-0.4c0-0.1-0.1-0.2-0.1-0.3c0,0,0-0.1-0.1-0.1c0,0,0-0.1-0.1-0.1c-0.1-0.1-0.1-0.2-0.1-0.2s0.1,0.1,0.3,0.2
			c0,0,0.1,0.1,0.1,0.1c0,0,0.1,0.1,0.1,0.1c0,0,0.1,0.1,0.1,0.1c0.1,0,0.1,0.1,0.1,0.2c0.1,0.1,0.2,0.2,0.2,0.4
			c0.1,0.1,0.1,0.3,0.2,0.4c0.1,0.1,0.1,0.3,0.1,0.4c0,0.1,0.1,0.3,0.1,0.4c0,0.2,0,0.3,0,0.4c0,0.1,0,0.3,0,0.4c0,0.1,0,0.3,0,0.4
			c0,0.1,0,0.3-0.1,0.4c0,0.2-0.1,0.4-0.2,0.5C192,72.9,192,73,192,73z"/>
		<path style="fill:#345668;" d="M147.9,73c0,0,0-0.1,0.1-0.2c0-0.1,0.1-0.3,0.1-0.5c0-0.1,0-0.2,0.1-0.4c0-0.1,0-0.3,0.1-0.4
			c0-0.1,0-0.3,0.1-0.4c0-0.1,0-0.3,0.1-0.4c0-0.1,0-0.3,0.1-0.4c0-0.1,0-0.1,0-0.2c0-0.1,0-0.1,0-0.2c0-0.1,0.1-0.3,0.1-0.4
			c0-0.1,0.1-0.2,0.1-0.4c0-0.1,0.1-0.2,0.1-0.3c0,0,0-0.1,0.1-0.1c0,0,0-0.1,0.1-0.1c0.1-0.1,0.1-0.2,0.1-0.2s-0.1,0.1-0.3,0.2
			c0,0-0.1,0.1-0.1,0.1c0,0-0.1,0.1-0.1,0.1c0,0-0.1,0.1-0.1,0.1c-0.1,0-0.1,0.1-0.1,0.2c-0.1,0.1-0.2,0.2-0.2,0.4
			c-0.1,0.1-0.1,0.3-0.2,0.4c-0.1,0.1-0.1,0.3-0.1,0.4c0,0.1-0.1,0.3-0.1,0.4c0,0.2,0,0.3,0,0.4c0,0.1,0,0.3,0,0.4
			c0,0.1,0,0.3,0,0.4c0,0.1,0,0.3,0.1,0.4c0,0.2,0.1,0.4,0.2,0.5C147.8,72.9,147.9,73,147.9,73z"/>
	</g>
	<g>
		<g>
			<g>
				<g>
					<path style="fill:none;stroke:#C8C8C8;stroke-width:3.4726;stroke-miterlimit:10;" d="M145.7,107.3V87.2c0-1.9,1.1-4.6,2.5-5.9
						l9.1-9.1"/>
				</g>
				<path style="fill:#C8C8C8;" d="M156.8,77.3c-1.3,1.3-3.4,1.3-4.7,0l0,0c-1.3-1.3-1.3-3.4,0-4.7l5.7-5.7c1.3-1.3,3.4-1.3,4.7,0
					l0,0c1.3,1.3,1.3,3.4,0,4.7L156.8,77.3z"/>
				<g>
					<path style="fill:none;stroke:#C8C8C8;stroke-width:3.4726;stroke-miterlimit:10;" d="M199.4,107.3V87.2c0-1.9-1.1-4.6-2.5-5.9
						l-9.1-9.1"/>
				</g>
				<path style="fill:#C8C8C8;" d="M188.3,77.3c1.3,1.3,3.4,1.3,4.7,0l0,0c1.3-1.3,1.3-3.4,0-4.7l-5.7-5.7c-1.3-1.3-3.4-1.3-4.7,0
					l0,0c-1.3,1.3-1.3,3.4,0,4.7L188.3,77.3z"/>
			</g>
			<g>
				<rect x="144.4" y="121.3" style="fill:#F3D6AD;" width="27.2" height="119"/>
				<rect x="170.2" y="121.3" style="fill:#E0C5A4;" width="27.2" height="119"/>
				<rect x="122.8" y="238.8" style="fill:#FFFFFF;" width="96.6" height="3"/>
				<rect x="122.8" y="107.3" style="fill:#CCB296;" width="96.6" height="13.9"/>
			</g>
		</g>
	</g>
</g>
<g>
	<g>
		<g>
			<path style="fill:#363946;" d="M59.4,223.1c0,0-2.2-0.4-3.2,6.6c-1.1,7-3.3,11.4,3.7,12.6c0,0,5.2-0.4,5.3-3.7
				c0.1-3.2,0.1-6.5,0.4-9C65.8,227.2,66.7,219,59.4,223.1z"/>
			<path style="fill:#D3A56F;" d="M51.8,151c0,0,0.9,5.9,0.7,7.7c-0.2,1.8-0.2,9.6-0.4,10.6c-0.2,1-2.1,9.8-0.4,19.2
				c1.7,9.4,5.9,22.1,5.9,23.9c0,0,0.2,3.8,0,4.8c-0.2,1.1-0.4,2.3-0.2,3.1c0.2,0.8,0.7,1.8,0.6,2.9c-0.1,1.1-2.2,8.3-1.9,12.6h6.6
				c0,0,1.9,0.1,2.1-2.5c0.2-2.7,0.7-8.5,0.7-9.4c0-0.8-0.5-2.3-0.5-2.9c0-0.6,0.1-3.6-0.3-4.4c-0.4-0.8-1.3-2.9-1.4-5.3
				c-0.1-2.5-0.1-10.9,0.6-15.5c0.6-4.6,0.7-8.6,0.5-10.6c-0.3-2-1.1-8.6-0.7-10.8c0.4-2.2,1.3-5.7,1.6-7.6c0.2-1.9,0-16.5,0-16.5
				L51.8,151z"/>
		</g>
		<g>
			<path style="fill:#363946;" d="M76.4,223.1c0,0,2.2-0.4,3.2,6.6c1.1,7,3.3,11.4-3.8,12.6c0,0-5.2-0.4-5.3-3.7
				c-0.1-3.2-0.1-6.5-0.4-9C70,227.2,69.1,219,76.4,223.1z"/>
			<path style="fill:#D3A56F;" d="M84,151c0,0-0.9,5.9-0.7,7.7c0.2,1.8,0.2,9.6,0.4,10.6c0.2,1,2.1,9.8,0.4,19.2
				c-1.7,9.4-5.9,22.1-5.9,23.9c0,0-0.2,3.8,0,4.8c0.2,1.1,0.4,2.3,0.2,3.1c-0.2,0.8-0.7,1.8-0.6,2.9c0.1,1.1,2.2,8.3,2,12.6h-6.6
				c0,0-1.9,0.1-2.1-2.5c-0.2-2.7-0.7-8.5-0.7-9.4c0-0.8,0.5-2.3,0.5-2.9c0-0.6-0.1-3.6,0.3-4.4c0.4-0.8,1.3-2.9,1.4-5.3
				c0.1-2.5,0.1-10.9-0.6-15.5c-0.6-4.6-0.7-8.6-0.5-10.6c0.3-2,1.1-8.6,0.7-10.8c-0.4-2.2-1.3-5.7-1.6-7.6c-0.2-1.9,0-16.5,0-16.5
				L84,151z"/>
		</g>
		<g>
			<path style="fill:#B24D4B;" d="M93,86.6c2.4-0.5,5.4-1.6,5.4-1.6s-2.7-15.2-4.2-22.5c-1.5-7.2-3.1-9.6-4.1-10.5
				c-1.1-0.9-4.3-1.3-6.7-2c-2.4-0.7-6.6-2.1-6.6-2.1s-0.8-1.6-1.1-2.8c-0.4-1.3-2.2-0.8-2.2-0.8s-2.6-0.2-5-0.4v0c0,0,0,0,0,0
				c0,0,0,0,0,0v0c-3.1,0.2-5.2,0.4-5.2,0.4s-1.9-0.5-2.3,0.8c-0.4,1.3-1.2,2.8-1.2,2.8s-4.3,1.4-6.6,2.1c-2.4,0.7-5.6,1.1-6.7,2
				c-1.1,0.9-2.6,3.2-4.1,10.5C40.9,69.8,38.3,85,38.3,85s3,1.1,5.4,1.6c2.4,0.5,6.5,0.3,6.5,0.3s-2.9,11.4-3.2,17.4
				c-0.4,5.9-1.2,21.6-0.3,33.8c0.9,12.3,1.1,13.4,1.1,13.4s11.1,0.5,20,0.5c0.2,0,0.4,0,0.5,0c0.2,0,0.4,0,0.5,0
				c9,0.1,20-0.5,20-0.5s0.2-1.2,1.1-13.4c0.9-12.3,0.1-27.9-0.3-33.8c-0.4-5.9-3.2-17.4-3.2-17.4S90.6,87,93,86.6z"/>
		</g>
		<path style="fill:#D3A56F;" d="M86.5,86.5c0,0,4.4,0.3,7.1,0c0,0-0.2,1.3,0.1,2.5c0.3,1.1,1,5.1,0.9,7.5c0,2.3-0.6,12.3-0.9,15.5
			c-0.3,3.3-0.3,5.2-0.4,7.6c-0.1,2.4-0.5,3.9-0.5,5.1c0,1.2,0.2,3.9,0.5,4.9c0.2,1,0.6,2.3,0.1,3.7c-0.5,1.4-1.1,3.5-1.4,4.2
			c-0.3,0.7-0.4,1.2-1.7,2c-1.3,0.8-4.9,3.4-5.5,2.7c-0.6-0.7,0.8-1.9,0.8-1.9s2.3-2,2.8-2.8c0.5-0.8,2.1-6.2,0.3-6.4
			c0,0-0.5,0.5-0.5,1.4s-0.1,4.3-1.7,4.3c-1.6,0-0.6-6-0.5-7.1c0-1.1,0.1-3.8,0.8-5.2c0.7-1.5,1.3-2.5,1.6-3.7
			c0.3-1.2,0.3-5.9,0-8.8c-0.3-2.9-2.1-16.7-2.1-18.1C86.2,92.5,86.5,86.5,86.5,86.5z"/>
		<path style="fill:#D3A56F;" d="M50.3,86.5c0,0-4.4,0.3-7.1,0c0,0,0.2,1.3-0.1,2.5c-0.3,1.1-1,5.1-0.9,7.5c0,2.3,0.6,12.3,0.9,15.5
			c0.3,3.3,0.3,5.2,0.4,7.6c0.1,2.4,0.5,3.9,0.5,5.1c0,1.2-0.2,3.9-0.5,4.9c-0.2,1-0.6,2.3-0.1,3.7c0.5,1.4,1.1,3.5,1.4,4.2
			c0.3,0.7,0.4,1.2,1.7,2c1.3,0.8,4.9,3.4,5.5,2.7c0.6-0.7-0.8-1.9-0.8-1.9s-2.3-2-2.8-2.8c-0.5-0.8-2.1-6.2-0.3-6.4
			c0,0,0.5,0.5,0.5,1.4s0.1,4.3,1.7,4.3c1.6,0,0.6-6,0.5-7.1c0-1.1-0.1-3.8-0.8-5.2c-0.7-1.5-1.3-2.5-1.6-3.7
			c-0.3-1.2-0.3-5.9,0-8.8c0.3-2.9,2.1-16.7,2.1-18.1C50.6,92.5,50.3,86.5,50.3,86.5z"/>
		<path style="fill:#D3A56F;" d="M74.4,43.2c-0.4-1.8-0.5-5.5-0.5-5.5l-5.5-2.6v0l0,0l0,0v0l-5.6,2.6c0,0-0.2,3.8-0.6,5.5
			c-0.4,1.8-0.6,3.3-0.6,3.3s1.1,1.3,2.8,2.1c1.7,0.8,2.8,1.3,4,1.3v0c0,0,0,0,0,0c0,0,0,0,0,0v0c1.2,0,2.2-0.5,3.8-1.3
			c1.7-0.9,2.7-2.1,2.7-2.1S74.8,45,74.4,43.2z"/>
		<path style="fill:#DEB079;" d="M68.5,50L68.5,50L68.5,50z"/>
		<path style="fill:#DEB079;" d="M68.5,50L68.5,50L68.5,50C68.5,50,68.5,50,68.5,50z"/>
		<path style="fill:#C49669;" d="M62.4,40.9c0,0,3,5.3,6.2,5.3c3.1,0,5.5-5.3,5.5-5.3L62.4,40.9z"/>
		<path style="fill:#C49669;" d="M74.2,164.3c0,0-0.9,3.5-0.4,5.3c0.5,1.8,1.7,5,3.2,7.4c-2.2-2.4-3.7-5.7-3.9-7.6
			C72.9,167.4,73,165.1,74.2,164.3z"/>
		<path style="fill:#C49669;" d="M61.7,164.3c0,0,0.9,3.5,0.4,5.3c-0.5,1.8-1.7,5-3.2,7.4c2.2-2.4,3.7-5.7,3.9-7.6
			C63,167.4,62.9,165.1,61.7,164.3z"/>
		<path style="fill:#994141;" d="M50.3,86.5c0,0,0-0.4-0.1-1.2c-0.1-0.8-0.1-1.8-0.2-3.1c0-0.6-0.1-1.3-0.1-2.1
			c0-0.7-0.1-1.5-0.1-2.3c0-0.8-0.1-1.6-0.1-2.5c0-0.8-0.1-1.7-0.1-2.5c0-0.9-0.1-1.7-0.1-2.5c0-0.4,0-0.8-0.1-1.2
			c0-0.4-0.1-0.8-0.1-1.2c0-0.8-0.1-1.6-0.2-2.3c0-0.7-0.1-1.4-0.2-2.1c-0.1-0.6-0.1-1.2-0.2-1.7c0-0.3-0.1-0.5-0.1-0.7
			c0-0.2-0.1-0.4-0.1-0.6c-0.1-0.7-0.2-1.2-0.2-1.2s0.2,0.4,0.4,1.1c0.1,0.2,0.1,0.4,0.2,0.6c0.1,0.2,0.1,0.5,0.2,0.7
			c0.1,0.3,0.1,0.5,0.2,0.8c0.1,0.3,0.1,0.6,0.2,0.9c0.1,0.6,0.3,1.3,0.4,2.1c0.1,0.7,0.3,1.5,0.3,2.3c0.1,0.8,0.2,1.6,0.3,2.5
			c0.1,0.8,0.1,1.7,0.2,2.6c0,0.9,0.1,1.7,0.1,2.6c0,0.8,0,1.7,0,2.5c0,0.8,0,1.6-0.1,2.3c0,0.7-0.1,1.4-0.1,2.1
			c-0.1,1.3-0.2,2.4-0.3,3.1C50.4,86.1,50.3,86.5,50.3,86.5z"/>
		<path style="fill:#994141;" d="M86.2,86.5c0,0-0.1-0.4-0.1-1.2c-0.1-0.7-0.2-1.8-0.3-3.1c0-0.6-0.1-1.3-0.1-2.1
			c0-0.7-0.1-1.5-0.1-2.3c0-0.8,0-1.6,0-2.5c0-0.8,0-1.7,0.1-2.6c0-0.9,0.1-1.7,0.2-2.6c0.1-0.8,0.2-1.7,0.3-2.5
			c0.1-0.8,0.2-1.6,0.3-2.3c0.1-0.7,0.3-1.4,0.4-2.1c0.1-0.3,0.1-0.6,0.2-0.9c0.1-0.3,0.2-0.6,0.2-0.8c0.1-0.3,0.1-0.5,0.2-0.7
			c0.1-0.2,0.2-0.4,0.2-0.6c0.3-0.7,0.4-1.1,0.4-1.1s-0.1,0.4-0.2,1.2c0,0.2-0.1,0.4-0.1,0.6c0,0.2-0.1,0.5-0.1,0.7
			c-0.1,0.5-0.1,1.1-0.2,1.7c-0.1,0.6-0.1,1.3-0.2,2.1c-0.1,0.7-0.1,1.5-0.2,2.3c0,0.4-0.1,0.8-0.1,1.2c0,0.4,0,0.8-0.1,1.2
			c-0.1,0.8-0.1,1.7-0.1,2.5c-0.1,0.9-0.1,1.7-0.1,2.5c0,0.8-0.1,1.7-0.1,2.5c0,0.8-0.1,1.6-0.1,2.3c0,0.7-0.1,1.4-0.1,2.1
			c-0.1,1.3-0.1,2.4-0.2,3.1C86.2,86.1,86.2,86.5,86.2,86.5z"/>
		<path style="fill:#3F2A14;" d="M77.8,34.4c0.5,4.1,3.2,12.9,3.2,12.9s-0.8,3.9-5,2.2c-4.2-1.6-4-0.7-4-0.7s0.7-3.9,0-10.6
			c-0.7-6.7-3.7-14.5-3.7-14.5l8.1,0.6L77.8,34.4z"/>
		<g>
			<path style="fill:#D3A56F;" d="M68.4,16.1c-4.8,0-8.7,4.9-9.6,11.4c-0.3,0-0.6-0.1-0.9,0c-1.2,0.1-0.1,5.5,1,6.3
				c1.1,6.1,4.9,10.6,9.5,10.6H68c4.6,0,8.4-4.5,9.5-10.6c1.1-0.8,2.2-6.2,1-6.3c-0.3,0-0.6,0-0.9,0c-0.9-6.5-4.8-11.4-9.6-11.4
				H68.4z"/>
		</g>
		<path style="fill:#3F2A14;" d="M57.9,27c0,0-1.1-4.2,1.3-8.3c2.4-4,8.6-6.5,13.9-3.6c3.4-0.7,7.7,10.1,4.5,11.9L77,29.8l-0.1-3.7
			l-0.7-2.4l-0.8-1.6l-1.2-1.5l-2.8-1.5c0,0-4.1,1.4-6.7,4.2c-1.8,1.9-4.4,3.2-4.4,3.2s0.5-0.2-0.8,0.4c0,0,0.3,1.4,0.2,3.5
			s0.2,7.1,0.6,9.6c0.3,2.5,0.8,4.4,0.8,4.4s-2.5-7.6-2.7-9.4C57.9,33.2,57.9,27,57.9,27z"/>
	</g>
	<g>
		<g>
			<g>
				<g>
					<path style="fill:none;stroke:#C8C8C8;stroke-width:3.4726;stroke-miterlimit:10;" d="M42.7,107.3V87.2c0-1.9,1.1-4.6,2.5-5.9
						l9.1-9.1"/>
				</g>
				<path style="fill:#C8C8C8;" d="M53.8,77.3c-1.3,1.3-3.4,1.3-4.7,0l0,0c-1.3-1.3-1.3-3.4,0-4.7l5.7-5.7c1.3-1.3,3.4-1.3,4.7,0
					l0,0c1.3,1.3,1.3,3.4,0,4.7L53.8,77.3z"/>
				<g>
					<path style="fill:none;stroke:#C8C8C8;stroke-width:3.4726;stroke-miterlimit:10;" d="M96.4,107.3V87.2c0-1.9-1.1-4.6-2.5-5.9
						l-9.1-9.1"/>
				</g>
				<path style="fill:#C8C8C8;" d="M85.3,77.3c1.3,1.3,3.4,1.3,4.7,0l0,0c1.3-1.3,1.3-3.4,0-4.7L84.4,67c-1.3-1.3-3.4-1.3-4.7,0l0,0
					c-1.3,1.3-1.3,3.4,0,4.7L85.3,77.3z"/>
			</g>
			<g>
				<rect x="41.5" y="121.3" style="fill:#F3D6AD;" width="27.2" height="119"/>
				<rect x="67.2" y="121.3" style="fill:#E0C5A4;" width="27.2" height="119"/>
				<rect x="19.9" y="238.8" style="fill:#FFFFFF;" width="96.6" height="3"/>
				<rect x="19.9" y="107.3" style="fill:#CCB296;" width="96.6" height="13.9"/>
			</g>
		</g>
	</g>
</g>
</svg>
