<?xml version="1.0" encoding="iso-8859-1"?>
<!-- Generator: Adobe Illustrator 18.0.0, SVG Export Plug-In . SVG Version: 6.00 Build 0)  -->
<!DOCTYPE svg PUBLIC "-//W3C//DTD SVG 1.1//EN" "http://www.w3.org/Graphics/SVG/1.1/DTD/svg11.dtd">
<svg version="1.1" id="Layer_1" xmlns="http://www.w3.org/2000/svg" xmlns:xlink="http://www.w3.org/1999/xlink" x="0px" y="0px"
	 viewBox="0 0 544.7 291" style="enable-background:new 0 0 544.7 291;" xml:space="preserve">
<rect x="1.1" y="224.1" style="fill:#ADAFB2;" width="546.5" height="65.9"/>
<g>
	<g>
		<g>
			<polygon style="fill:#E8BA8F;" points="453.1,110.1 452.1,124.7 458.3,130.9 462.1,132.1 462.1,130.3 457.7,127.8 458.4,123.2 
				460.6,123.9 460.9,126.8 463.4,128.1 463.4,123.3 457.8,110.1 			"/>
			<polygon style="fill:#E8BA8F;" points="505.5,110.1 506.4,124.7 500.4,130.9 496.7,132.1 496.7,130.3 501,127.8 500.3,123.2 
				498,123.9 497.8,126.8 495.4,128.1 495.4,123.3 500.8,110.1 			"/>
			<polygon style="fill:#EAC19A;" points="472.4,27.9 472.4,34.7 479.9,42.1 486.5,35.9 486.5,25.9 			"/>
			<path style="fill:#E9BE94;" d="M470.2,19.2c0,0-2.6-13.4,8.6-13.4c11.2,0,9.4,13.4,9.4,13.4s1.4-1,2.1-0.3c0.7,0.6,0.9,6.3-2.9,7
				c0,0-1,3.4-1.6,3.9c-0.6,0.6-2.7,4.4-6.7,4.4c-2.1,0-4.6-2-6.2-4.4c-1.5-2.2-2.1-4.8-2.1-4.8s-3.8-1-2.6-6.3
				C468.3,18.8,469.5,17.9,470.2,19.2z"/>
			<path style="fill:#D6D5D6;" d="M472.6,33.7c0,0,0.4,2.1,5.7,6h3.7c0,0,4.2-4.3,4.3-4.6c0.2-0.2,0.1-1.8,0.1-1.8s2,2,1.6,5.6
				c-0.4,3.6-7.5,29.1-7.5,29.1s-14.2-30.8-8.1-34.2"/>
			<path style="fill:#493C34;" d="M468.4,206.7c0,0-0.7,6.6-1.3,8.2c-0.6,1.7-2.1,4.3-2.1,5.7c0,1.3,1.2,3,6.3,3s6-0.4,6-3.8
				c0-3.4,0-13.1,0-13.1H468.4z"/>
			<path style="fill:#493C34;" d="M492.1,206.7c0,0,0.7,6.6,1.3,8.2c0.6,1.7,2.1,4.3,2.1,5.7c0,1.3-1.1,3-6.3,3
				c-5.1,0-5.9-0.4-5.9-3.8c0-3.4,0-13.1,0-13.1H492.1z"/>
			<polygon style="fill:#B24D4B;" points="482.6,42.5 481,39.7 478.1,39.8 476.2,42.5 476.2,43.8 477.5,44.6 475.5,62.7 479.5,62.7 
				479.9,62.7 484,62.7 481.6,44.6 482.6,43.8 			"/>
			<path style="fill:#1B2A35;" d="M503.8,45.6c-2-2-12.5-6-12.5-6l-3.9-5c0.1,9.3-5.7,23.1-7.8,27.8c-2.1-4.7-7.8-18.6-7.8-27.9
				l-3.9,5c0,0-10.4,4.1-12.5,6.2c-2,2-8.6,15.9-4.8,73.5c0,0,4.5,0,7.8,0l1.5,5.9c0,0,9.5,0.5,19.7,0.4c10.2,0.1,19.7-0.3,19.7-0.3
				l1.5-6c3.2,0,7.8,0,7.8,0C512.4,61.4,505.8,47.6,503.8,45.6z"/>
			<circle style="fill:#4F4C4D;" cx="480.3" cy="76.5" r="1.1"/>
			<circle style="fill:#4F4C4D;" cx="480.3" cy="88" r="1.1"/>
			<path style="fill:#243742;" d="M480,122.4h-12h-7.4c0,0,0.3,29.1,1.2,41.2c0.9,12,2.1,25,2.3,26.6c0.2,1.6,2.1,18.6,2.1,18.6
				s3.8,1,6.1,1c2.3,0,6-1,6-1s0.3-15.4,0-20.9c-0.3-5.5,0-26.7,0.2-33.2c0.2-6.4,0.1-19.6,1.5-19.6c1.4,0,1.7,13.2,1.9,19.6
				c0.2,6.5,0.5,27.7,0.2,33.2c-0.3,5.5,0,20.9,0,20.9s4,1,6.2,1c2.2,0,5.9-1,5.9-1s1.9-17.1,2.1-18.7c0.2-1.6,1.4-14.5,2.3-26.5
				c0.9-12,1.2-41.2,1.2-41.2H480z"/>
		</g>
		<g>
			<path style="fill:#BAA99D;" d="M469.2,18.5c0,0-0.2-6.3,0.4-8.4c0.7-2.1,2.4-6.2,9.3-6.3c6.9-0.1,10.1,4.3,10.6,6.2
				c0.5,1.9,0.2,8.4,0.2,8.4l-1.7,1.8c0,0,0.7-7-1.9-9.1c0,0-4.2,1.3-6.6,1.3c-2.4,0-6.2-1.4-6.2-1.4s-2.6,0.2-2.5,9.1L469.2,18.5z"
				/>
		</g>
	</g>
	<g>
		<g>
			<g>
				<g>
					<path style="fill:none;stroke:#C8C8C8;stroke-width:3.4726;stroke-miterlimit:10;" d="M453.8,106.7V86.6c0-1.9,1.1-4.6,2.5-5.9
						l9.1-9.1"/>
				</g>
				<path style="fill:#C8C8C8;" d="M464.9,76.7c-1.3,1.3-3.4,1.3-4.7,0l0,0c-1.3-1.3-1.3-3.4,0-4.7l5.7-5.7c1.3-1.3,3.4-1.3,4.7,0
					l0,0c1.3,1.3,1.3,3.4,0,4.7L464.9,76.7z"/>
				<g>
					<path style="fill:none;stroke:#C8C8C8;stroke-width:3.4726;stroke-miterlimit:10;" d="M507.4,106.7V86.6c0-1.9-1.1-4.6-2.5-5.9
						l-9.1-9.1"/>
				</g>
				<path style="fill:#C8C8C8;" d="M496.3,76.7c1.3,1.3,3.4,1.3,4.7,0l0,0c1.3-1.3,1.3-3.4,0-4.7l-5.7-5.7c-1.3-1.3-3.4-1.3-4.7,0
					l0,0c-1.3,1.3-1.3,3.4,0,4.7L496.3,76.7z"/>
			</g>
			<g>
				<rect x="453.8" y="120.7" style="fill:#F3D6AD;" width="27.2" height="119"/>
				<rect x="479.6" y="120.7" style="fill:#E0C5A4;" width="27.2" height="119"/>
				<rect x="432.3" y="238.1" style="fill:#FFFFFF;" width="96.6" height="3"/>
				<rect x="432.3" y="106.7" style="fill:#CCB296;" width="96.6" height="13.9"/>
			</g>
		</g>
	</g>
</g>
<g>
	<g>
		<polygon style="fill:#805931;" points="349.8,117.8 348.8,133.4 355.4,140 359.5,141.3 359.5,139.4 354.7,136.7 355.5,131.8 
			357.8,132.5 358.2,135.6 360.9,137 360.9,131.9 354.8,117.8 		"/>
		<polygon style="fill:#805931;" points="405.8,117.8 406.8,133.4 400.4,140 396.4,141.3 396.4,139.4 401.1,136.7 400.2,131.8 
			397.8,132.5 397.6,135.6 395.1,137 395.1,131.9 400.8,117.8 		"/>
		<path style="fill:#423E3F;" d="M384.3,224.1c0,0,0.4,1.2,0.4,2.1c0,0.9,0.3,4.4,0.3,4.4l3.9,3.4h8c0,0,2.3-1.2,2.3-4.8
			c0-3.6-5.5-11.3-5.5-11.3S384,220.3,384.3,224.1z"/>
		<path style="fill:#423E3F;" d="M360.2,219.4c0,0-4.2,9.1-4.2,9.9s0.3,4,0.3,4s1.7,1.8,7,1.8c5.3,0,7.8-5.4,7.8-5.4l-0.1-2.6
			l3.6-4.3v-5L360.2,219.4z"/>
		<polygon style="fill:#805931;" points="370.4,29.9 370.4,37.2 378.5,45.1 385.5,38.5 385.5,27.8 		"/>
		<path style="fill:#86613B;" d="M368.1,20.7c0,0-2.7-14.4,9.2-14.4s10.1,14.4,10.1,14.4s1.5-1,2.3-0.3s0.9,6.7-3.1,7.5
			c0,0-1.1,3.6-1.7,4.2c-0.6,0.6-2.9,4.7-7.2,4.7c-2.3,0-4.9-2.1-6.6-4.7c-1.6-2.3-2.3-5.1-2.3-5.1s-4.1-1-2.7-6.7
			C366.1,20.2,367.4,19.3,368.1,20.7z"/>
		<path style="fill:#D6D5D6;" d="M370.7,36.2c0,0,0.5,2.3,6.1,6.4h3.9c0,0,4.4-4.6,4.6-4.9c0.2-0.3,0.1-1.9,0.1-1.9s2.1,2.1,1.7,5.9
			c-0.4,3.8-8,31.1-8,31.1s-15.1-32.9-8.6-36.6"/>
		<path style="fill:#231F20;" d="M357.8,133.3c0,0,3.7,68.5,4.2,76.3l-2.4,10.9c0,0,4.6,0.5,6.7,0.7c2.1,0.2,9.1,2.1,9.1,2.1
			c0,0,1.5-5,1.5-5.8c0.2-1.7-2.2-14.7-2.1-19.3c0.2-4.6,3.2-61.7,3.2-61.7s0.8,8.7,1.2,16.1c0.4,7.3-0.7,65-0.7,65s2.2,6,5.1,7.5
			c0,0,4.8-6.3,11.3-5c0,0,0.9-10.1-0.2-12.3c-1-2.2,0.7-8.2,0.7-8.2l3.8-67.5L357.8,133.3z"/>
		<path style="fill:#3F2A14;" d="M368.4,22.2L367,20l0-10.7c0,0,3.4-6.3,12-7.9c0,0,7.9,2.9,9.3,9.7v9l-1.8,2c0,0,2-13.5-8.9-13.5
			C366.8,8.6,368.4,22.2,368.4,22.2z"/>
		<polygon style="fill:#668C9E;" points="381.4,45.5 379.7,42.6 376.6,42.6 374.5,45.5 374.5,47 375.9,47.8 373.8,67.2 378.1,67.2 
			378.5,67.2 382.8,67.2 380.3,47.8 381.4,47 		"/>
		<path style="fill:#393536;" d="M404,48.8c-2.2-2.2-13.3-6.5-13.3-6.5l-4.2-5.4c0.1,10-6.1,24.7-8.3,29.7c-2.2-5-8.4-19.8-8.3-29.8
			l-4.2,5.3c0,0-11.2,4.4-13.3,6.6c-2.2,2.2-9.2,17-5.1,78.5c0,0,4.8,0,8.3,0l1.6,6.3c0,0,10.2,0.5,21,0.4c10.9,0.1,21-0.3,21-0.3
			l1.6-6.4c3.5,0,8.3,0,8.3,0C413.3,65.8,406.2,51,404,48.8z"/>
		<circle style="fill:#4F4C4D;" cx="378.9" cy="81.9" r="1.1"/>
		<circle style="fill:#4F4C4D;" cx="378.9" cy="94.2" r="1.1"/>
	</g>
	<g>
		<g>
			<g>
				<path style="fill:none;stroke:#C8C8C8;stroke-width:3.4726;stroke-miterlimit:10;" d="M350.1,106.7V86.6c0-1.9,1.1-4.6,2.5-5.9
					l9.1-9.1"/>
			</g>
			<path style="fill:#C8C8C8;" d="M361.2,76.7c-1.3,1.3-3.4,1.3-4.7,0l0,0c-1.3-1.3-1.3-3.4,0-4.7l5.7-5.7c1.3-1.3,3.4-1.3,4.7,0
				l0,0c1.3,1.3,1.3,3.4,0,4.7L361.2,76.7z"/>
			<g>
				<path style="fill:none;stroke:#C8C8C8;stroke-width:3.4726;stroke-miterlimit:10;" d="M403.8,106.7V86.6c0-1.9-1.1-4.6-2.5-5.9
					l-9.1-9.1"/>
			</g>
			<path style="fill:#C8C8C8;" d="M392.7,76.7c1.3,1.3,3.4,1.3,4.7,0l0,0c1.3-1.3,1.3-3.4,0-4.7l-5.7-5.7c-1.3-1.3-3.4-1.3-4.7,0
				l0,0c-1.3,1.3-1.3,3.4,0,4.7L392.7,76.7z"/>
		</g>
		<g>
			<rect x="350.2" y="120.7" style="fill:#F3D6AD;" width="27.2" height="119"/>
			<rect x="376" y="120.7" style="fill:#E0C5A4;" width="27.2" height="119"/>
			<rect x="328.7" y="238.1" style="fill:#FFFFFF;" width="96.6" height="3"/>
			<rect x="328.7" y="106.7" style="fill:#CCB296;" width="96.6" height="13.9"/>
		</g>
	</g>
</g>
<g>
	<g>
		<g>
			<path style="fill:#1A1C1C;" d="M259.9,219.2c0,0-0.8,7.6-1.6,9.5c-0.7,1.9-2.4,5-2.4,6.5c0,1.6,1.4,3.5,7.3,3.5
				c5.9,0,6.9-0.5,6.9-4.4c0-3.9,0-15.1,0-15.1H259.9z"/>
			<path style="fill:#1A1C1C;" d="M287.3,219.2c0,0,0.8,7.6,1.6,9.5c0.7,1.9,2.4,5,2.4,6.5c0,1.6-1.3,3.5-7.3,3.5
				c-5.9,0-6.8-0.5-6.8-4.4c0-3.9,0-15.1,0-15.1H287.3z"/>
			<path style="fill:#343638;" d="M273.5,121.8h-12.9h-8c0,0,0.4,33.6,1.3,47.5c0.9,13.9,2.2,28.9,2.4,30.7
				c0.2,1.8,2.2,21.4,2.2,21.4s4.1,1.2,6.6,1.2c2.5,0,6.5-1.2,6.5-1.2s0.4-17.7,0-24.1c-0.4-6.4,0-30.8,0.2-38.3
				c0.2-7.4,0.2-22.6,1.7-22.6s1.9,15.2,2.1,22.6c0.2,7.5,0.5,32,0.2,38.3c-0.4,6.4,0,24.1,0,24.1s4.3,1.2,6.7,1.2
				c2.4,0,6.4-1.2,6.4-1.2s2.1-19.7,2.2-21.6c0.2-1.8,1.5-16.7,2.4-30.6c0.9-13.9,1.3-47.5,1.3-47.5H273.5z"/>
			<path style="fill:#5F839B;" d="M304.6,74.5c0,0,0.2-8.3-0.9-13.4c-1.1-5.2-2.2-11.1-4.9-13.1c-2.6-1.9-9.1-3.7-12-4.7
				c-2.9-1-4.3-2.3-5.4-4.1c-0.8-1.4-6.7-1.8-9-1.9v0c0,0,0,0-0.4,0c-0.4,0-0.5,0-0.5,0l0,0.1c-2.2,0.1-6.7,0.6-7.5,1.9
				c-1.1,1.8-2.2,3-5.2,4.1c-2.9,1-9.9,2.6-12,4.7c-2.2,2.2-3.8,7.9-4.9,13.1c-1.1,5.2-0.9,13.4-0.9,13.4s3.3,1.9,3.9,2.1
				c0.5,0.1,9,1.1,9,1.1l-3.4,46.4c0,0,14.3,1.2,22.7,1.2s21.8-1.2,21.8-1.2l-3.4-46.4c0,0,8.5-1.2,9-1.3
				C301.3,76.3,304.6,74.5,304.6,74.5z"/>
			<path style="fill:#D3A56F;" d="M265.5,29.8v8.8c0,0-0.6,2.6,2.5,4.3c3.1,1.6,4.2,2,5.3,2c1.1,0,6.2-3.4,6.6-4.7
				c0.4-1.3-0.1-11.1-0.1-11.1L265.5,29.8z"/>
			<g>
				<path style="fill:#D3A56F;" d="M250.4,132.8c0-0.1,0-0.2,0.1-0.4c0.1-0.4,0.3-0.6,0.5-0.7c0.1,0,0.2,0,0.3,0
					c0.1,0,0.1,0,0.2,0.1c0.1,0.1,0.2,0.1,0.3,0.2c0.3,0.3,0.5,0.7,0.5,1.2c0,0.4,0.2,1.1,0.5,1.8c0.3,0.6,0.6,1.1,1,1.5
					c0.1,0.1,0.2,0.1,0.2,0.2c0.1,0.1,0.2,0.1,0.3,0.2c0.2,0.1,0.4,0.1,0.6,0c0.4-0.1,0.5-0.8,0.5-1.8c0-0.4,0-0.8,0-1.2
					c0-0.4-0.1-0.8-0.1-1.3c0-0.2-0.1-0.5-0.1-0.7c0-0.2-0.1-0.4-0.1-0.7c-0.2-1.1-0.3-2-0.4-2.5v0c0-0.2-0.1-0.4-0.2-0.6
					c0-0.1,0-0.1-0.1-0.2c-0.1-0.2-0.2-0.5-0.3-0.7c0,0,0,0,0,0c-0.1-0.3-0.3-0.6-0.5-0.9c0,0,0,0,0-0.1c-0.4-0.7-0.9-1.5-1.3-2.2
					c-0.4-0.7-0.8-1.3-0.9-1.7c0-0.2-0.2-0.9-0.5-2.1l3.1-42.6c0,0-9.1-1.2-9.2-1.2l-0.4,10.1v0v0c0,0-0.3,1.4-0.6,3.5
					c-0.4,2.7-0.8,6.6-0.9,10.3c0,1.6,0.1,3.7,0.2,5.8c0.1,1.1,0.2,2.2,0.3,3.3c0.2,1.7,0.3,3.3,0.5,4.9c0.1,1,0.2,1.9,0.3,2.7
					c0,0.1,0,0.2,0,0.3c0.2,1.3,0.3,2.4,0.4,3.3c0.1,0.6,0.1,1,0.1,1.3c0,0.4,0,1.1,0,1.9c0,0.8,0,1.7,0,2.6c0,0.6,0,1.3,0,1.9
					c0,0.6,0,1.3,0,1.9c0,0.3,0,0.6,0,0.9c0.1,1.4,0.2,2.5,0.5,2.9c0.2,0.3,0.5,0.8,0.9,1.4c1.1,1.6,2.5,3.8,3.8,4.6
					c0.8,0.5,1.9,1.3,3,1.8c1,0.5,1.9,0.8,2.3,0.3c0.1-0.1,0.1-0.1,0.1-0.2C255.4,140.4,250.2,134.8,250.4,132.8z"/>
				<path style="fill:#D3A56F;" d="M303.1,94.3c-0.4-4.3-1.1-7.7-1.1-7.7L301.7,76c-0.4,0.2-9.9,1.7-9.9,1.7l3.1,41.7l0.2,3.2l0,0
					c-0.1,0.4-0.4,0.9-0.8,1.5c-0.4,0.7-0.9,1.4-1.3,2.2c0,0,0,0,0,0.1c-0.2,0.3-0.3,0.6-0.5,0.9c0,0,0,0,0,0
					c-0.1,0.2-0.2,0.5-0.3,0.7c0,0.1,0,0.1-0.1,0.2c-0.1,0.2-0.2,0.4-0.2,0.6c-0.1,0.3-0.1,0.8-0.2,1.3c-0.1,0.4-0.1,0.8-0.2,1.2
					c0,0.2-0.1,0.4-0.1,0.7c-0.1,0.7-0.2,1.4-0.2,2c0,0.2,0,0.4,0,0.6c0,0.6,0,1.1,0.1,1.5c0,0.1,0,0.1,0,0.2c0,0.2,0.1,0.3,0.1,0.4
					c0.1,0.1,0.2,0.2,0.3,0.3c0.2,0.1,0.4,0,0.6,0c0.1,0,0.2-0.1,0.3-0.2c0.1-0.1,0.2-0.1,0.2-0.2c0.1-0.1,0.2-0.3,0.3-0.4
					c0.1-0.1,0.1-0.2,0.2-0.2c0.1-0.2,0.2-0.3,0.3-0.5c0.2-0.3,0.3-0.7,0.4-1c0.1-0.2,0.1-0.4,0.2-0.6c0-0.2,0.1-0.4,0.1-0.5
					c0-0.3,0.1-0.6,0.2-0.8c0.1-0.1,0.2-0.2,0.3-0.3c0,0,0.1-0.1,0.1-0.1c0.2-0.1,0.4-0.2,0.6-0.2c0.2,0.1,0.4,0.3,0.5,0.7
					c0,0.1,0,0.2,0.1,0.4c0,0.1,0,0.3,0,0.4c-0.1,0.4-0.3,0.9-0.6,1.4c-0.1,0.2-0.2,0.4-0.3,0.6c-0.4,0.6-0.8,1.2-1.2,1.9
					c-0.9,1.4-1.9,2.7-2.5,3.6c-0.1,0.2-0.2,0.3-0.2,0.5c-0.1,0.2-0.1,0.4-0.1,0.5c0,0.1,0,0.2,0.1,0.2c0.3,0.3,0.8,0.3,1.5,0
					c0.1,0,0.2-0.1,0.3-0.1c0.1-0.1,0.3-0.1,0.4-0.2c0.8-0.4,1.7-1,2.5-1.4c0.2-0.1,0.5-0.3,0.7-0.4c0.8-0.5,1.8-1.6,2.6-2.8
					c0.8-1.2,1.6-2.4,2.1-3.1c0.5-0.7,0.5-3.1,0.5-5.6c0-0.3,0-0.6,0-1c0-0.6,0-1.3,0-1.9c0-0.3,0-0.6,0-0.9c0-0.6,0-1.1,0-1.5
					c0-0.5,0-0.8,0-1.1c0-0.3,0.1-0.8,0.1-1.3c0.2-1.5,0.5-3.7,0.7-6.3c0.5-4.6,1.1-10.3,1-14C303.5,98.3,303.3,96.2,303.1,94.3z"/>
			</g>
			<g>
				<path style="fill:#C49669;" d="M272.6,39.8c3.2,0,6.7-5.8,6.7-6.6c0.3-0.5,0.5-0.9,0.7-1.4h-15c0.2,0.5,0.5,0.9,0.7,1.4
					C265.8,34,269.3,39.8,272.6,39.8z"/>
			</g>
			<path style="fill:#406C84;" d="M254.1,77.7c0,0-0.2-0.7-0.3-1.7c-0.1-1-0.2-2.4-0.2-3.8c0-1.4,0.1-2.8,0.2-3.8
				c0.1-1,0.3-1.7,0.3-1.7s0.2,0.7,0.3,1.7c0.1,1,0.2,2.4,0.2,3.8c0,1.4-0.1,2.8-0.2,3.8C254.3,77,254.1,77.7,254.1,77.7z"/>
			<path style="fill:#406C84;" d="M291.8,77.7c0,0-0.2-0.7-0.3-1.7c-0.1-1-0.2-2.4-0.2-3.8c0-1.4,0.1-2.8,0.2-3.8
				c0.1-1,0.3-1.7,0.3-1.7s0.2,0.7,0.3,1.7c0.1,1,0.2,2.4,0.2,3.8c0,1.4-0.1,2.8-0.2,3.8C292,77,291.8,77.7,291.8,77.7z"/>
			<path style="fill:#D3A56F;" d="M262.8,22c0,0-2.7-14.1,9-14.1c11.7,0,9.9,14.1,9.9,14.1s1.4-1,2.2-0.3c0.8,0.7,0.9,6.6-3,7.4
				c0,0-1.1,3.5-1.7,4.1c-0.6,0.6-2.8,4.6-7,4.6c-2.2,0-4.8-2.1-6.5-4.6c-1.5-2.3-2.2-5-2.2-5s-4-1-2.7-6.6
				C260.9,21.6,262.1,20.7,262.8,22z"/>
			<path style="fill:#3F2A14;" d="M276.4,10.3c0,0-1.8,0.9-3.5,3.3c0-1.4,1-3.3,1-3.3s-2.9,1.2-5.1,5c0,0-0.2-3.4,0.9-6.3
				c0,0-5.8,5.2-6.6,11.5l-0.8-4.8l3-6.1l6.9-2.9L276.4,10.3z"/>
			<path style="fill:#3F2A14;" d="M276.4,10.2c0,0,1.4,2.1,1.3,4c0,0,1.6-1.3,1.2-2.7L276.4,10.2z"/>
			<path style="fill:#3F2A14;" d="M263,9.7c4.1-5.8,9.2-5.5,14.2-3.9c5.4,1.8,6.5,8.1,6.6,10.7s-0.8,5-0.8,5l-1.3,0.5l0,0.2
				l-0.7,1.3c0,0,0-2.1,0.2-4.7c0.2-2.5-0.7-5.7-0.7-5.7c0.1,0.9-0.6,1.4-0.6,1.4c0-2-1-2.8-1-2.8l-1.6-0.8l-1.3-0.8L272.1,9
				l-2.3-0.7l-3.5,2.3l-2.6,7.4l-0.3,3.1l0.3,2.5l-0.6-0.7l-0.3-0.8c-0.7-0.9-1.4-0.7-1.4-0.7S260.5,13.3,263,9.7z"/>
		</g>
		<polygon style="fill:#393536;" points="276,48 274.5,45.5 271.9,45.5 270.2,48 270.2,49.2 271.4,49.9 267.2,101.1 273.2,112.7 
			273.6,112.7 279.5,101.1 275.1,49.9 276,49.2 		"/>
		<path style="fill:#4D7287;" d="M265.5,38.3c0,0-1-0.4-3.7,3.5l8.3,8.3l2.4-5.1L265.5,38.3z"/>
		<path style="fill:#4D7287;" d="M280,38.3c0,0,1.4-0.4,4.1,3.5l-8.3,8.3l-2.4-5.1L280,38.3z"/>
	</g>
	<g>
		<g>
			<g>
				<g>
					<path style="fill:none;stroke:#C8C8C8;stroke-width:3.4726;stroke-miterlimit:10;" d="M247.9,106.7V86.6c0-1.9,1.1-4.6,2.5-5.9
						l9.1-9.1"/>
				</g>
				<path style="fill:#C8C8C8;" d="M259,76.7c-1.3,1.3-3.4,1.3-4.7,0l0,0c-1.3-1.3-1.3-3.4,0-4.7l5.7-5.7c1.3-1.3,3.4-1.3,4.7,0l0,0
					c1.3,1.3,1.3,3.4,0,4.7L259,76.7z"/>
				<g>
					<path style="fill:none;stroke:#C8C8C8;stroke-width:3.4726;stroke-miterlimit:10;" d="M301.6,106.7V86.6c0-1.9-1.1-4.6-2.5-5.9
						l-9.1-9.1"/>
				</g>
				<path style="fill:#C8C8C8;" d="M290.4,76.7c1.3,1.3,3.4,1.3,4.7,0l0,0c1.3-1.3,1.3-3.4,0-4.7l-5.7-5.7c-1.3-1.3-3.4-1.3-4.7,0
					l0,0c-1.3,1.3-1.3,3.4,0,4.7L290.4,76.7z"/>
			</g>
			<g>
				<rect x="246.6" y="120.7" style="fill:#F3D6AD;" width="27.2" height="119"/>
				<rect x="272.4" y="120.7" style="fill:#E0C5A4;" width="27.2" height="119"/>
				<rect x="225" y="238.1" style="fill:#FFFFFF;" width="96.6" height="3"/>
				<rect x="225" y="106.7" style="fill:#CCB296;" width="96.6" height="13.9"/>
			</g>
		</g>
	</g>
</g>
<g>
	<g>
		<polygon style="fill:#E8BA8F;" points="141.7,117.8 140.7,133.4 147.3,140 151.4,141.3 151.4,139.4 146.6,136.7 147.4,131.8 
			149.7,132.5 150.1,135.6 152.8,137 152.8,131.9 146.8,117.8 		"/>
		<polygon style="fill:#E8BA8F;" points="197.7,117.8 198.7,133.4 192.3,140 188.3,141.3 188.3,139.4 193,136.7 192.1,131.8 
			189.7,132.5 189.5,135.6 187,137 187,131.9 192.7,117.8 		"/>
		<path style="fill:#423E3F;" d="M176.2,224.1c0,0,0.4,1.2,0.4,2.1c0,0.9,0.3,4.4,0.3,4.4l3.9,3.4h8c0,0,2.3-1.2,2.3-4.8
			c0-3.6-5.5-11.3-5.5-11.3S175.9,220.3,176.2,224.1z"/>
		<path style="fill:#423E3F;" d="M152.1,219.4c0,0-4.2,9.1-4.2,9.9s0.3,4,0.3,4s1.7,1.8,7,1.8s7.8-5.4,7.8-5.4l-0.1-2.6l3.6-4.3v-5
			L152.1,219.4z"/>
		<polygon style="fill:#EAC19A;" points="162.3,29.9 162.3,37.2 170.4,45.1 177.4,38.5 177.4,27.8 		"/>
		<path style="fill:#E9BE94;" d="M160,20.7c0,0-2.7-14.4,9.2-14.4c12,0,10.1,14.4,10.1,14.4s1.5-1,2.3-0.3s0.9,6.7-3.1,7.5
			c0,0-1.1,3.6-1.7,4.2c-0.6,0.6-2.9,4.7-7.2,4.7c-2.3,0-4.9-2.1-6.6-4.7c-1.6-2.3-2.3-5.1-2.3-5.1s-4.1-1-2.7-6.7
			C158,20.2,159.3,19.3,160,20.7z"/>
		<path style="fill:#D6D5D6;" d="M162.6,36.2c0,0,0.5,2.3,6.1,6.4h3.9c0,0,4.4-4.6,4.6-4.9c0.2-0.3,0.1-1.9,0.1-1.9s2.1,2.1,1.7,5.9
			c-0.4,3.8-8,31.1-8,31.1s-15.1-32.9-8.6-36.6"/>
		<path style="fill:#1C1F26;" d="M149.7,133.3c0,0,3.7,68.5,4.2,76.3l-2.4,10.9c0,0,4.6,0.5,6.7,0.7c2.1,0.2,9.1,2.1,9.1,2.1
			c0,0,1.5-5,1.5-5.8c0.2-1.7-2.2-14.7-2.1-19.3c0.2-4.6,3.2-61.7,3.2-61.7s0.8,8.7,1.2,16.1c0.4,7.3-0.7,65-0.7,65s2.2,6,5.1,7.5
			c0,0,4.8-6.3,11.3-5c0,0,0.9-10.1-0.2-12.3c-1-2.2,0.7-8.2,0.7-8.2l3.8-67.5L149.7,133.3z"/>
		<path style="fill:#595755;" d="M160.3,22.2l-1.4-2.2l0-10.7c0,0,3.4-6.3,12-7.9c0,0,7.9,2.9,9.3,9.7v9l-1.8,2c0,0,2-13.5-8.9-13.5
			C158.7,8.6,160.3,22.2,160.3,22.2z"/>
		<polygon style="fill:#E8B536;" points="173.3,45.5 171.6,42.6 168.5,42.6 166.5,45.5 166.5,47 167.8,47.8 165.7,67.2 170,67.2 
			170.4,67.2 174.7,67.2 172.2,47.8 173.3,47 		"/>
		<path style="fill:#2C313D;" d="M195.9,48.8c-2.2-2.2-13.3-6.5-13.3-6.5l-4.2-5.4c0.1,10-6.1,24.7-8.3,29.7
			c-2.2-5-8.4-19.8-8.3-29.8l-4.2,5.3c0,0-11.2,4.4-13.3,6.6c-2.2,2.2-9.2,17-5.1,78.5c0,0,4.8,0,8.3,0l1.6,6.3c0,0,10.2,0.5,21,0.4
			c10.9,0.1,21-0.3,21-0.3l1.6-6.4c3.5,0,8.3,0,8.3,0C205.2,65.8,198.1,51,195.9,48.8z"/>
		<circle style="fill:#4F4C4D;" cx="170.8" cy="81.9" r="1.1"/>
		<circle style="fill:#4F4C4D;" cx="170.8" cy="94.2" r="1.1"/>
	</g>
	<g>
		<g>
			<g>
				<path style="fill:none;stroke:#C8C8C8;stroke-width:3.4726;stroke-miterlimit:10;" d="M145.2,106.7V86.6c0-1.9,1.1-4.6,2.5-5.9
					l9.1-9.1"/>
			</g>
			<path style="fill:#C8C8C8;" d="M156.4,76.7c-1.3,1.3-3.4,1.3-4.7,0l0,0c-1.3-1.3-1.3-3.4,0-4.7l5.7-5.7c1.3-1.3,3.4-1.3,4.7,0
				l0,0c1.3,1.3,1.3,3.4,0,4.7L156.4,76.7z"/>
			<g>
				<path style="fill:none;stroke:#C8C8C8;stroke-width:3.4726;stroke-miterlimit:10;" d="M198.9,106.7V86.6c0-1.9-1.1-4.6-2.5-5.9
					l-9.1-9.1"/>
			</g>
			<path style="fill:#C8C8C8;" d="M187.8,76.7c1.3,1.3,3.4,1.3,4.7,0l0,0c1.3-1.3,1.3-3.4,0-4.7l-5.7-5.7c-1.3-1.3-3.4-1.3-4.7,0
				l0,0c-1.3,1.3-1.3,3.4,0,4.7L187.8,76.7z"/>
		</g>
		<g>
			<rect x="144" y="120.7" style="fill:#F3D6AD;" width="27.2" height="119"/>
			<rect x="169.7" y="120.7" style="fill:#E0C5A4;" width="27.2" height="119"/>
			<rect x="122.4" y="238.1" style="fill:#FFFFFF;" width="96.6" height="3"/>
			<rect x="122.4" y="106.7" style="fill:#CCB296;" width="96.6" height="13.9"/>
		</g>
	</g>
</g>
<g>
	<g>
		<g>
			<path style="fill:#363946;" d="M57.2,222.5c0,0-2.2-0.4-3.2,6.6c-1.1,7-3.3,11.4,3.7,12.6c0,0,5.2-0.4,5.3-3.7
				c0.1-3.2,0.1-6.5,0.4-9C63.6,226.5,64.6,218.4,57.2,222.5z"/>
			<path style="fill:#D3A56F;" d="M49.7,150.4c0,0,0.9,5.9,0.7,7.7c-0.2,1.8-0.2,9.6-0.4,10.6c-0.2,1-2.1,9.8-0.4,19.2
				c1.7,9.4,5.9,22.1,5.9,23.9c0,0,0.2,3.8,0,4.8c-0.2,1.1-0.4,2.3-0.2,3.1c0.2,0.8,0.7,1.8,0.6,2.9c-0.1,1.1-2.2,8.3-1.9,12.6h6.6
				c0,0,1.9,0.1,2.1-2.5c0.2-2.7,0.7-8.5,0.7-9.4c0-0.8-0.5-2.3-0.5-2.9c0-0.6,0.1-3.6-0.3-4.4c-0.4-0.8-1.3-2.9-1.4-5.3
				c-0.1-2.5-0.1-10.9,0.6-15.5c0.6-4.6,0.7-8.6,0.5-10.6c-0.3-2-1.1-8.6-0.7-10.8c0.4-2.2,1.3-5.7,1.6-7.6c0.2-1.9,0-16.5,0-16.5
				L49.7,150.4z"/>
		</g>
		<g>
			<path style="fill:#363946;" d="M74.3,222.5c0,0,2.2-0.4,3.2,6.6c1.1,7,3.3,11.4-3.8,12.6c0,0-5.2-0.4-5.3-3.7
				c-0.1-3.2-0.1-6.5-0.4-9C67.9,226.5,66.9,218.4,74.3,222.5z"/>
			<path style="fill:#D3A56F;" d="M81.9,150.4c0,0-0.9,5.9-0.7,7.7c0.2,1.8,0.2,9.6,0.4,10.6c0.2,1,2.1,9.8,0.4,19.2
				c-1.7,9.4-5.9,22.1-5.9,23.9c0,0-0.2,3.8,0,4.8c0.2,1.1,0.4,2.3,0.2,3.1c-0.2,0.8-0.7,1.8-0.6,2.9c0.1,1.1,2.2,8.3,2,12.6H71
				c0,0-1.9,0.1-2.1-2.5c-0.2-2.7-0.7-8.5-0.7-9.4c0-0.8,0.5-2.3,0.5-2.9c0-0.6-0.1-3.6,0.3-4.4c0.4-0.8,1.3-2.9,1.4-5.3
				c0.1-2.5,0.1-10.9-0.6-15.5c-0.6-4.6-0.7-8.6-0.5-10.6c0.3-2,1.1-8.6,0.7-10.8c-0.4-2.2-1.3-5.7-1.6-7.6c-0.2-1.9,0-16.5,0-16.5
				L81.9,150.4z"/>
		</g>
		<g>
			<path style="fill:#B24D4B;" d="M90.9,86c2.4-0.5,5.4-1.6,5.4-1.6S93.7,69.2,92.1,62c-1.5-7.2-3.1-9.6-4.1-10.5
				c-1.1-0.9-4.3-1.3-6.7-2c-2.4-0.7-6.6-2.1-6.6-2.1s-0.8-1.6-1.1-2.8c-0.4-1.3-2.2-0.8-2.2-0.8s-2.6-0.2-5-0.4v0c0,0,0,0,0,0
				c0,0,0,0,0,0v0c-3.1,0.2-5.2,0.4-5.2,0.4s-1.9-0.5-2.3,0.8c-0.4,1.3-1.2,2.8-1.2,2.8s-4.3,1.4-6.6,2.1c-2.4,0.7-5.6,1.1-6.7,2
				c-1.1,0.9-2.6,3.2-4.1,10.5c-1.5,7.2-4.2,22.5-4.2,22.5s3,1.1,5.4,1.6c2.4,0.5,6.5,0.3,6.5,0.3s-2.9,11.4-3.2,17.4
				c-0.4,5.9-1.2,21.6-0.3,33.8c0.9,12.3,1.1,13.4,1.1,13.4s11.1,0.5,20,0.5c0.2,0,0.4,0,0.5,0c0.2,0,0.4,0,0.5,0
				c9,0.1,20-0.5,20-0.5s0.2-1.2,1.1-13.4c0.9-12.3,0.1-27.9-0.3-33.8c-0.4-5.9-3.2-17.4-3.2-17.4S88.5,86.4,90.9,86z"/>
		</g>
		<path style="fill:#D3A56F;" d="M84.4,85.9c0,0,4.4,0.3,7.1,0c0,0-0.2,1.3,0.1,2.5c0.3,1.1,1,5.1,0.9,7.5c0,2.3-0.6,12.3-0.9,15.5
			c-0.3,3.3-0.3,5.2-0.4,7.6c-0.1,2.4-0.5,3.9-0.5,5.1c0,1.2,0.2,3.9,0.5,4.9c0.2,1,0.6,2.3,0.1,3.7c-0.5,1.4-1.1,3.5-1.4,4.2
			c-0.3,0.7-0.4,1.2-1.7,2c-1.3,0.8-4.9,3.4-5.5,2.7c-0.6-0.7,0.8-1.9,0.8-1.9s2.3-2,2.8-2.8c0.5-0.8,2.1-6.2,0.3-6.4
			c0,0-0.5,0.5-0.5,1.4c0,0.9-0.1,4.3-1.7,4.3c-1.6,0-0.6-6-0.5-7.1c0-1.1,0.1-3.8,0.8-5.2c0.7-1.5,1.3-2.5,1.6-3.7
			c0.3-1.2,0.3-5.9,0-8.8c-0.3-2.9-2.1-16.7-2.1-18.1C84,91.9,84.4,85.9,84.4,85.9z"/>
		<path style="fill:#D3A56F;" d="M48.2,85.9c0,0-4.4,0.3-7.1,0c0,0,0.2,1.3-0.1,2.5c-0.3,1.1-1,5.1-0.9,7.5c0,2.3,0.6,12.3,0.9,15.5
			c0.3,3.3,0.3,5.2,0.4,7.6c0.1,2.4,0.5,3.9,0.5,5.1c0,1.2-0.2,3.9-0.5,4.9c-0.2,1-0.6,2.3-0.1,3.7c0.5,1.4,1.1,3.5,1.4,4.2
			c0.3,0.7,0.4,1.2,1.7,2c1.3,0.8,4.9,3.4,5.5,2.7c0.6-0.7-0.8-1.9-0.8-1.9s-2.3-2-2.8-2.8c-0.5-0.8-2.1-6.2-0.3-6.4
			c0,0,0.5,0.5,0.5,1.4c0,0.9,0.1,4.3,1.7,4.3c1.6,0,0.6-6,0.5-7.1c0-1.1-0.1-3.8-0.8-5.2c-0.7-1.5-1.3-2.5-1.6-3.7
			c-0.3-1.2-0.3-5.9,0-8.8c0.3-2.9,2.1-16.7,2.1-18.1C48.5,91.9,48.2,85.9,48.2,85.9z"/>
		<path style="fill:#D3A56F;" d="M72.3,42.6c-0.4-1.8-0.5-5.5-0.5-5.5l-5.5-2.6v0l0,0l0,0v0l-5.6,2.6c0,0-0.2,3.8-0.6,5.5
			c-0.4,1.8-0.6,3.3-0.6,3.3s1.1,1.3,2.8,2.1c1.7,0.8,2.8,1.3,4,1.3v0c0,0,0,0,0,0c0,0,0,0,0,0v0c1.2,0,2.2-0.5,3.8-1.3
			c1.7-0.9,2.7-2.1,2.7-2.1S72.7,44.3,72.3,42.6z"/>
		<path style="fill:#DEB079;" d="M66.4,49.3L66.4,49.3L66.4,49.3z"/>
		<path style="fill:#DEB079;" d="M66.4,49.3L66.4,49.3L66.4,49.3C66.4,49.3,66.4,49.3,66.4,49.3z"/>
		<path style="fill:#C49669;" d="M60.3,40.3c0,0,3,5.3,6.2,5.3c3.1,0,5.5-5.3,5.5-5.3L60.3,40.3z"/>
		<path style="fill:#C49669;" d="M72,163.7c0,0-0.9,3.5-0.4,5.3c0.5,1.8,1.7,5,3.2,7.4c-2.2-2.4-3.7-5.7-3.9-7.6
			C70.7,166.8,70.9,164.4,72,163.7z"/>
		<path style="fill:#C49669;" d="M59.6,163.7c0,0,0.9,3.5,0.4,5.3c-0.5,1.8-1.7,5-3.2,7.4c2.2-2.4,3.7-5.7,3.9-7.6
			C60.9,166.8,60.7,164.4,59.6,163.7z"/>
		<path style="fill:#994141;" d="M48.2,85.9c0,0,0-0.4-0.1-1.2c-0.1-0.8-0.1-1.8-0.2-3.1c0-0.6-0.1-1.3-0.1-2.1
			c0-0.7-0.1-1.5-0.1-2.3c0-0.8-0.1-1.6-0.1-2.5c0-0.8-0.1-1.7-0.1-2.5c0-0.9-0.1-1.7-0.1-2.5c0-0.4,0-0.8-0.1-1.2
			c0-0.4-0.1-0.8-0.1-1.2c0-0.8-0.1-1.6-0.2-2.3c0-0.7-0.1-1.4-0.2-2.1c-0.1-0.6-0.1-1.2-0.2-1.7c0-0.3-0.1-0.5-0.1-0.7
			c0-0.2-0.1-0.4-0.1-0.6c-0.1-0.7-0.2-1.2-0.2-1.2s0.2,0.4,0.4,1.1c0.1,0.2,0.1,0.4,0.2,0.6c0.1,0.2,0.1,0.5,0.2,0.7
			c0.1,0.3,0.1,0.5,0.2,0.8c0.1,0.3,0.1,0.6,0.2,0.9c0.1,0.6,0.3,1.3,0.4,2.1c0.1,0.7,0.3,1.5,0.3,2.3c0.1,0.8,0.2,1.6,0.3,2.5
			c0.1,0.8,0.1,1.7,0.2,2.6c0,0.9,0.1,1.7,0.1,2.6c0,0.8,0,1.7,0,2.5c0,0.8,0,1.6-0.1,2.3c0,0.7-0.1,1.4-0.1,2.1
			c-0.1,1.3-0.2,2.4-0.3,3.1C48.2,85.4,48.2,85.9,48.2,85.9z"/>
		<path style="fill:#994141;" d="M84.1,85.9c0,0-0.1-0.4-0.1-1.2c-0.1-0.7-0.2-1.8-0.3-3.1c0-0.6-0.1-1.3-0.1-2.1
			c0-0.7-0.1-1.5-0.1-2.3c0-0.8,0-1.6,0-2.5c0-0.8,0-1.7,0.1-2.6c0-0.9,0.1-1.7,0.2-2.6c0.1-0.8,0.2-1.7,0.3-2.5
			c0.1-0.8,0.2-1.6,0.3-2.3c0.1-0.7,0.3-1.4,0.4-2.1c0.1-0.3,0.1-0.6,0.2-0.9c0.1-0.3,0.2-0.6,0.2-0.8c0.1-0.3,0.1-0.5,0.2-0.7
			c0.1-0.2,0.2-0.4,0.2-0.6c0.3-0.7,0.4-1.1,0.4-1.1S86,59,85.8,59.8c0,0.2-0.1,0.4-0.1,0.6c0,0.2-0.1,0.5-0.1,0.7
			c-0.1,0.5-0.1,1.1-0.2,1.7c-0.1,0.6-0.1,1.3-0.2,2.1c-0.1,0.7-0.1,1.5-0.2,2.3c0,0.4-0.1,0.8-0.1,1.2c0,0.4,0,0.8-0.1,1.2
			c-0.1,0.8-0.1,1.7-0.1,2.5c-0.1,0.9-0.1,1.7-0.1,2.5c0,0.8-0.1,1.7-0.1,2.5c0,0.8-0.1,1.6-0.1,2.3c0,0.7-0.1,1.4-0.1,2.1
			c-0.1,1.3-0.1,2.4-0.2,3.1C84.1,85.4,84.1,85.9,84.1,85.9z"/>
		<path style="fill:#3F2A14;" d="M75.7,33.8c0.5,4.1,3.2,12.9,3.2,12.9s-0.8,3.9-5,2.2c-4.2-1.6-4-0.7-4-0.7s0.7-3.9,0-10.6
			s-3.7-14.5-3.7-14.5l8.1,0.6L75.7,33.8z"/>
		<g>
			<path style="fill:#D3A56F;" d="M66.3,15.5c-4.8,0-8.7,4.9-9.6,11.4c-0.3,0-0.6-0.1-0.9,0c-1.2,0.1-0.1,5.5,1,6.3
				c1.1,6.1,4.9,10.6,9.5,10.6h-0.4c4.6,0,8.4-4.5,9.5-10.6c1.1-0.8,2.2-6.2,1-6.3c-0.3,0-0.6,0-0.9,0c-0.9-6.5-4.8-11.4-9.6-11.4
				H66.3z"/>
		</g>
		<path style="fill:#3F2A14;" d="M55.8,26.4c0,0-1.1-4.2,1.3-8.3c2.4-4,8.6-6.5,13.9-3.6c3.4-0.7,7.7,10.1,4.5,11.9l-0.6,2.7
			l-0.1-3.7L74,23.1l-0.8-1.6L72,20l-2.8-1.5c0,0-4.1,1.4-6.7,4.2c-1.8,1.9-4.4,3.2-4.4,3.2s0.5-0.2-0.8,0.4c0,0,0.3,1.4,0.2,3.5
			s0.2,7.1,0.6,9.6c0.3,2.5,0.8,4.4,0.8,4.4s-2.5-7.6-2.7-9.4C55.8,32.5,55.8,26.4,55.8,26.4z"/>
	</g>
	<g>
		<g>
			<g>
				<g>
					<path style="fill:none;stroke:#C8C8C8;stroke-width:3.4726;stroke-miterlimit:10;" d="M40.6,106.7V86.6c0-1.9,1.1-4.6,2.5-5.9
						l9.1-9.1"/>
				</g>
				<path style="fill:#C8C8C8;" d="M51.7,76.7c-1.3,1.3-3.4,1.3-4.7,0l0,0c-1.3-1.3-1.3-3.4,0-4.7l5.7-5.7c1.3-1.3,3.4-1.3,4.7,0
					l0,0c1.3,1.3,1.3,3.4,0,4.7L51.7,76.7z"/>
				<g>
					<path style="fill:none;stroke:#C8C8C8;stroke-width:3.4726;stroke-miterlimit:10;" d="M94.3,106.7V86.6c0-1.9-1.1-4.6-2.5-5.9
						l-9.1-9.1"/>
				</g>
				<path style="fill:#C8C8C8;" d="M83.2,76.7c1.3,1.3,3.4,1.3,4.7,0l0,0c1.3-1.3,1.3-3.4,0-4.7l-5.7-5.7c-1.3-1.3-3.4-1.3-4.7,0
					l0,0c-1.3,1.3-1.3,3.4,0,4.7L83.2,76.7z"/>
			</g>
			<g>
				<rect x="39.3" y="120.7" style="fill:#F3D6AD;" width="27.2" height="119"/>
				<rect x="65.1" y="120.7" style="fill:#E0C5A4;" width="27.2" height="119"/>
				<rect x="17.8" y="238.1" style="fill:#FFFFFF;" width="96.6" height="3"/>
				<rect x="17.8" y="106.7" style="fill:#CCB296;" width="96.6" height="13.9"/>
			</g>
		</g>
	</g>
</g>
</svg>
