<?xml version="1.0" encoding="iso-8859-1"?>
<!-- Generator: Adobe Illustrator 18.0.0, SVG Export Plug-In . SVG Version: 6.00 Build 0)  -->
<!DOCTYPE svg PUBLIC "-//W3C//DTD SVG 1.1//EN" "http://www.w3.org/Graphics/SVG/1.1/DTD/svg11.dtd">
<svg version="1.1" id="Layer_1" xmlns="http://www.w3.org/2000/svg" xmlns:xlink="http://www.w3.org/1999/xlink" x="0px" y="0px"
	 viewBox="0 0 544.7 291" style="enable-background:new 0 0 544.7 291;" xml:space="preserve">
<rect x="1.4" y="225.1" style="fill:#ADAFB2;" width="542.8" height="65.9"/>
<g>
	<g>
		<g>
			<polygon style="fill:#E8BA8F;" points="453.1,111 452.2,125.7 458.4,131.8 462.2,133 462.2,131.3 457.7,128.8 458.4,124.2 
				460.6,124.8 461,127.8 463.5,129.1 463.5,124.3 457.9,111 			"/>
			<polygon style="fill:#E8BA8F;" points="505.6,111 506.5,125.7 500.5,131.8 496.8,133 496.8,131.3 501.1,128.8 500.3,124.2 
				498.1,124.8 497.9,127.8 495.5,129.1 495.5,124.3 500.8,111 			"/>
			<polygon style="fill:#EAC19A;" points="472.4,28.8 472.4,35.6 480,43.1 486.5,36.8 486.5,26.8 			"/>
			<path style="fill:#E9BE94;" d="M470.3,20.2c0,0-2.6-13.4,8.6-13.4s9.4,13.4,9.4,13.4s1.4-1,2.1-0.3c0.7,0.6,0.9,6.3-2.9,7
				c0,0-1,3.4-1.6,3.9c-0.6,0.6-2.7,4.4-6.7,4.4c-2.1,0-4.6-2-6.2-4.4c-1.5-2.2-2.1-4.8-2.1-4.8s-3.8-1-2.6-6.3
				C468.4,19.8,469.6,18.9,470.3,20.2z"/>
			<path style="fill:#D6D5D6;" d="M472.7,34.7c0,0,0.4,2.1,5.7,6h3.7c0,0,4.2-4.3,4.3-4.6c0.2-0.2,0.1-1.8,0.1-1.8s2,2,1.6,5.6
				c-0.4,3.6-7.5,29.1-7.5,29.1s-14.2-30.8-8.1-34.2"/>
			<path style="fill:#493C34;" d="M468.4,207.7c0,0-0.7,6.6-1.3,8.2c-0.6,1.7-2.1,4.3-2.1,5.7c0,1.3,1.2,3,6.3,3c5.1,0,6-0.4,6-3.8
				c0-3.4,0-13.1,0-13.1H468.4z"/>
			<path style="fill:#493C34;" d="M492.1,207.7c0,0,0.7,6.6,1.3,8.2c0.6,1.7,2.1,4.3,2.1,5.7c0,1.3-1.1,3-6.3,3
				c-5.1,0-5.9-0.4-5.9-3.8c0-3.4,0-13.1,0-13.1H492.1z"/>
			<polygon style="fill:#B24D4B;" points="482.7,43.4 481.1,40.7 478.2,40.7 476.3,43.4 476.3,44.8 477.6,45.6 475.6,63.7 
				479.6,63.7 480,63.7 484,63.7 481.7,45.6 482.7,44.8 			"/>
			<path style="fill:#1B2A35;" d="M503.9,46.5c-2-2-12.5-6-12.5-6l-3.9-5c0.1,9.3-5.7,23.1-7.8,27.8c-2.1-4.7-7.8-18.6-7.8-27.9
				l-3.9,5c0,0-10.4,4.1-12.5,6.2c-2,2-8.6,15.9-4.8,73.5c0,0,4.5,0,7.8,0l1.5,5.9c0,0,9.5,0.5,19.7,0.4c10.2,0.1,19.7-0.3,19.7-0.3
				l1.5-6c3.2,0,7.8,0,7.8,0C512.5,62.4,505.9,48.6,503.9,46.5z"/>
			<circle style="fill:#4F4C4D;" cx="480.3" cy="77.5" r="1.1"/>
			<circle style="fill:#4F4C4D;" cx="480.3" cy="89" r="1.1"/>
			<path style="fill:#243742;" d="M480,123.4h-12h-7.4c0,0,0.3,29.1,1.2,41.2c0.9,12,2.1,25,2.3,26.6c0.2,1.6,2.1,18.6,2.1,18.6
				s3.8,1,6.1,1c2.3,0,6-1,6-1s0.3-15.4,0-20.9c-0.3-5.5,0-26.7,0.2-33.2c0.2-6.4,0.1-19.6,1.5-19.6s1.7,13.2,1.9,19.6
				c0.2,6.5,0.5,27.7,0.2,33.2c-0.3,5.5,0,20.9,0,20.9s4,1,6.2,1c2.2,0,5.9-1,5.9-1s1.9-17.1,2.1-18.7c0.2-1.6,1.4-14.5,2.3-26.5
				c0.9-12,1.2-41.2,1.2-41.2H480z"/>
		</g>
		<g>
			<path style="fill:#BAA99D;" d="M469.2,19.4c0,0-0.2-6.3,0.4-8.4c0.7-2.1,2.4-6.2,9.3-6.3c6.9-0.1,10.1,4.3,10.6,6.2
				c0.5,1.9,0.2,8.4,0.2,8.4l-1.7,1.8c0,0,0.7-7-1.9-9.1c0,0-4.2,1.3-6.6,1.3c-2.4,0-6.2-1.4-6.2-1.4s-2.6,0.2-2.5,9.1L469.2,19.4z"
				/>
		</g>
	</g>
	<g>
		<g>
			<g>
				<g>
					<path style="fill:none;stroke:#C8C8C8;stroke-width:3.4726;stroke-miterlimit:10;" d="M453.8,107.7V87.6c0-1.9,1.1-4.6,2.5-5.9
						l9.1-9.1"/>
				</g>
				<path style="fill:#C8C8C8;" d="M464.9,77.7c-1.3,1.3-3.4,1.3-4.7,0l0,0c-1.3-1.3-1.3-3.4,0-4.7l5.7-5.7c1.3-1.3,3.4-1.3,4.7,0
					l0,0c1.3,1.3,1.3,3.4,0,4.7L464.9,77.7z"/>
				<g>
					<path style="fill:none;stroke:#C8C8C8;stroke-width:3.4726;stroke-miterlimit:10;" d="M507.5,107.7V87.6c0-1.9-1.1-4.6-2.5-5.9
						l-9.1-9.1"/>
				</g>
				<path style="fill:#C8C8C8;" d="M496.4,77.7c1.3,1.3,3.4,1.3,4.7,0l0,0c1.3-1.3,1.3-3.4,0-4.7l-5.7-5.7c-1.3-1.3-3.4-1.3-4.7,0
					l0,0c-1.3,1.3-1.3,3.4,0,4.7L496.4,77.7z"/>
			</g>
			<g>
				<rect x="453.9" y="121.6" style="fill:#F3D6AD;" width="27.2" height="119"/>
				<rect x="479.7" y="121.6" style="fill:#E0C5A4;" width="27.2" height="119"/>
				<rect x="432.4" y="239.1" style="fill:#FFFFFF;" width="96.6" height="3"/>
				<rect x="432.4" y="107.7" style="fill:#CCB296;" width="96.6" height="13.9"/>
			</g>
		</g>
	</g>
</g>
<g>
	<g>
		<polygon style="fill:#805931;" points="349.1,118.7 348.1,134.4 354.7,140.9 358.8,142.2 358.8,140.4 354,137.7 354.7,132.8 
			357.1,133.5 357.4,136.6 360.1,138 360.1,132.9 354.1,118.7 		"/>
		<polygon style="fill:#805931;" points="405.1,118.7 406.1,134.4 399.6,140.9 395.7,142.2 395.7,140.4 400.3,137.7 399.5,132.8 
			397.1,133.5 396.9,136.6 394.3,138 394.3,132.9 400,118.7 		"/>
		<path style="fill:#423E3F;" d="M383.5,225.1c0,0,0.4,1.2,0.4,2.1c0,0.9,0.3,4.4,0.3,4.4l3.9,3.4h8c0,0,2.3-1.2,2.3-4.8
			c0-3.6-5.5-11.3-5.5-11.3S383.3,221.2,383.5,225.1z"/>
		<path style="fill:#423E3F;" d="M359.4,220.3c0,0-4.2,9.1-4.2,9.9s0.3,4,0.3,4s1.7,1.8,7,1.8c5.3,0,7.8-5.4,7.8-5.4l-0.1-2.6
			l3.6-4.3v-5L359.4,220.3z"/>
		<polygon style="fill:#805931;" points="369.7,30.9 369.7,38.2 377.7,46.1 384.7,39.5 384.7,28.8 		"/>
		<path style="fill:#86613B;" d="M367.4,21.7c0,0-2.7-14.4,9.2-14.4s10.1,14.4,10.1,14.4s1.5-1,2.3-0.3s0.9,6.7-3.1,7.5
			c0,0-1.1,3.6-1.7,4.2c-0.6,0.6-2.9,4.7-7.2,4.7c-2.3,0-4.9-2.1-6.6-4.7c-1.6-2.3-2.3-5.1-2.3-5.1s-4.1-1-2.7-6.7
			C365.4,21.2,366.6,20.3,367.4,21.7z"/>
		<path style="fill:#D6D5D6;" d="M370,37.1c0,0,0.5,2.3,6.1,6.4h3.9c0,0,4.4-4.6,4.6-4.9c0.2-0.3,0.1-1.9,0.1-1.9s2.1,2.1,1.7,5.9
			c-0.4,3.8-8,31.1-8,31.1s-15.1-32.9-8.6-36.6"/>
		<path style="fill:#231F20;" d="M357,134.2c0,0,3.7,68.5,4.2,76.3l-2.4,10.9c0,0,4.6,0.5,6.7,0.7c2.1,0.2,9.1,2.1,9.1,2.1
			c0,0,1.5-5,1.5-5.8c0.2-1.7-2.2-14.7-2.1-19.3c0.2-4.6,3.2-61.7,3.2-61.7s0.8,8.7,1.2,16.1c0.4,7.3-0.7,65-0.7,65s2.2,6,5.1,7.5
			c0,0,4.8-6.3,11.3-5c0,0,0.9-10.1-0.2-12.3c-1-2.2,0.7-8.2,0.7-8.2l3.8-67.5L357,134.2z"/>
		<path style="fill:#3F2A14;" d="M367.6,23.2l-1.4-2.2l0-10.7c0,0,3.4-6.3,12-7.9c0,0,7.9,2.9,9.3,9.7v9l-1.8,2c0,0,2-13.5-8.9-13.5
			C366,9.5,367.6,23.2,367.6,23.2z"/>
		<polygon style="fill:#668C9E;" points="380.6,46.5 378.9,43.6 375.8,43.6 373.8,46.5 373.8,47.9 375.2,48.8 373,68.1 377.3,68.1 
			377.8,68.1 382.1,68.1 379.6,48.8 380.6,47.9 		"/>
		<path style="fill:#393536;" d="M403.3,49.8c-2.2-2.2-13.3-6.5-13.3-6.5l-4.2-5.4c0.1,10-6.1,24.7-8.3,29.7
			c-2.2-5-8.4-19.8-8.3-29.8l-4.2,5.3c0,0-11.2,4.4-13.3,6.6c-2.2,2.2-9.2,17-5.1,78.5c0,0,4.8,0,8.3,0l1.6,6.3c0,0,10.2,0.5,21,0.4
			c10.9,0.1,21-0.3,21-0.3l1.6-6.4c3.5,0,8.3,0,8.3,0C412.5,66.8,405.5,52,403.3,49.8z"/>
		<circle style="fill:#4F4C4D;" cx="378.1" cy="82.9" r="1.1"/>
		<circle style="fill:#4F4C4D;" cx="378.1" cy="95.2" r="1.1"/>
	</g>
	<g>
		<g>
			<g>
				<path style="fill:none;stroke:#C8C8C8;stroke-width:3.4726;stroke-miterlimit:10;" d="M350.4,107.7V87.6c0-1.9,1.1-4.6,2.5-5.9
					l9.1-9.1"/>
			</g>
			<path style="fill:#C8C8C8;" d="M361.5,77.7c-1.3,1.3-3.4,1.3-4.7,0l0,0c-1.3-1.3-1.3-3.4,0-4.7l5.7-5.7c1.3-1.3,3.4-1.3,4.7,0
				l0,0c1.3,1.3,1.3,3.4,0,4.7L361.5,77.7z"/>
			<g>
				<path style="fill:none;stroke:#C8C8C8;stroke-width:3.4726;stroke-miterlimit:10;" d="M404.1,107.7V87.6c0-1.9-1.1-4.6-2.5-5.9
					l-9.1-9.1"/>
			</g>
			<path style="fill:#C8C8C8;" d="M393,77.7c1.3,1.3,3.4,1.3,4.7,0l0,0c1.3-1.3,1.3-3.4,0-4.7l-5.7-5.7c-1.3-1.3-3.4-1.3-4.7,0l0,0
				c-1.3,1.3-1.3,3.4,0,4.7L393,77.7z"/>
		</g>
		<g>
			<rect x="350.5" y="121.6" style="fill:#F3D6AD;" width="27.2" height="119"/>
			<rect x="376.3" y="121.6" style="fill:#E0C5A4;" width="27.2" height="119"/>
			<rect x="328.9" y="239.1" style="fill:#FFFFFF;" width="96.6" height="3"/>
			<rect x="328.9" y="107.7" style="fill:#CCB296;" width="96.6" height="13.9"/>
		</g>
	</g>
</g>
<g>
	<g>
		<g>
			<path style="fill:#363946;" d="M264.8,219.7c0,0-2.3-0.4-3.3,6.8c-1.1,7.2-3.4,11.7,3.9,13c0,0,5.4-0.4,5.5-3.8
				c0.1-3.3,0.2-6.7,0.4-9.3C271.4,223.9,272.4,215.5,264.8,219.7z"/>
			<path style="fill:#DEB079;" d="M257,145.3c0,0,0.9,6.1,0.8,8c-0.2,1.9-0.2,9.9-0.4,10.9c-0.2,1-2.2,10.1-0.4,19.8
				c1.8,9.7,6,22.8,6.1,24.6c0,0,0.2,3.9,0,5c-0.2,1.1-0.4,2.4-0.3,3.2c0.2,0.8,0.8,1.8,0.6,3c-0.1,1.1-2.3,8.5-2,13h6.8
				c0,0,1.9,0.1,2.2-2.6c0.2-2.7,0.7-8.8,0.7-9.7c0-0.8-0.5-2.3-0.5-2.9c0-0.6,0.1-3.7-0.3-4.5c-0.4-0.8-1.4-3-1.4-5.5
				c-0.1-2.5-0.1-11.3,0.6-16c0.7-4.7,0.8-8.9,0.5-10.9c-0.3-2-1.2-8.9-0.8-11.1c0.4-2.3,1.4-5.9,1.6-7.8c0.2-1.9,0-17,0-17
				L257,145.3z"/>
		</g>
		<g>
			<path style="fill:#363946;" d="M282.4,219.7c0,0,2.3-0.4,3.3,6.8c1.1,7.2,3.4,11.7-3.9,13c0,0-5.4-0.4-5.5-3.8
				c-0.1-3.3-0.2-6.7-0.4-9.3C275.8,223.9,274.8,215.5,282.4,219.7z"/>
			<path style="fill:#DEB079;" d="M290.2,145.3c0,0-0.9,6.1-0.8,8c0.2,1.9,0.2,9.9,0.4,10.9c0.2,1,2.2,10.1,0.4,19.8
				c-1.8,9.7-6,22.8-6.1,24.6c0,0-0.2,3.9,0,5c0.2,1.1,0.4,2.4,0.3,3.2c-0.2,0.8-0.8,1.8-0.6,3c0.1,1.1,2.3,8.5,2,13h-6.8
				c0,0-1.9,0.1-2.2-2.6c-0.2-2.7-0.8-8.8-0.8-9.7c0-0.8,0.5-2.3,0.5-2.9c0-0.6-0.1-3.7,0.3-4.5c0.4-0.8,1.4-3,1.4-5.5
				c0.1-2.5,0.1-11.3-0.6-16c-0.7-4.7-0.8-8.9-0.5-10.9c0.3-2,1.2-8.9,0.8-11.1c-0.4-2.3-1.4-5.9-1.6-7.8c-0.2-1.9,0-17,0-17
				L290.2,145.3z"/>
		</g>
		<g>
			<path style="fill:#363946;" d="M299.5,78.9c2.5-0.5,5.6-1.6,5.6-1.6s-2.7-15.7-4.3-23.2c-1.6-7.5-3.2-9.9-4.2-10.8
				c-1.1-0.9-4.4-1.4-6.9-2.1c-2.5-0.7-6.8-2.2-6.8-2.2s-0.8-1.6-1.2-2.9c-0.4-1.3-2.3-0.8-2.3-0.8s-2.6-0.2-5.2-0.4v0c0,0,0,0,0,0
				c0,0,0,0,0,0v0c-3.2,0.2-5.3,0.4-5.3,0.4s-2-0.5-2.4,0.8c-0.4,1.3-1.2,2.9-1.2,2.9s-4.4,1.5-6.9,2.2c-2.5,0.7-5.8,1.2-6.9,2.1
				c-1.1,0.9-2.7,3.3-4.2,10.8c-1.6,7.5-4.3,23.2-4.3,23.2s3.1,1.1,5.6,1.6c2.5,0.5,6.7,0.3,6.7,0.3s-3,11.8-3.3,17.9
				c-0.4,6.1-1.2,22.3-0.3,34.9c0.9,12.6,1.1,13.9,1.1,13.9s11.4,0.6,20.7,0.5c0.2,0,0.4,0,0.6,0c0.2,0,0.4,0,0.6,0
				c9.2,0.1,20.7-0.5,20.7-0.5s0.2-1.2,1.1-13.9c0.9-12.6,0.1-28.8-0.3-34.9c-0.4-6.1-3.3-17.9-3.3-17.9S297,79.4,299.5,78.9z"/>
		</g>
		<path style="fill:#DEB079;" d="M292.8,78.8c0,0,4.5,0.3,7.3,0c0,0-0.2,1.4,0.1,2.6c0.3,1.2,1,5.3,0.9,7.7c0,2.4-0.6,12.6-0.9,16
			c-0.3,3.4-0.3,5.4-0.4,7.8c-0.1,2.5-0.5,4.1-0.5,5.3c0,1.2,0.2,4.1,0.5,5.1c0.2,1,0.6,2.4,0.1,3.8c-0.5,1.5-1.2,3.6-1.5,4.3
			c-0.3,0.8-0.4,1.3-1.7,2.1c-1.4,0.8-5,3.5-5.7,2.7c-0.6-0.8,0.8-1.9,0.8-1.9s2.4-2.1,2.9-2.9c0.5-0.8,2.1-6.4,0.3-6.6
			c0,0-0.5,0.5-0.5,1.4c0,0.9-0.1,4.5-1.8,4.5c-1.7,0-0.6-6.2-0.6-7.3c0-1.1,0.1-3.9,0.8-5.4c0.7-1.5,1.4-2.5,1.7-3.8
			c0.3-1.3,0.3-6,0-9.1c-0.3-3-2.2-17.2-2.2-18.7C292.4,85,292.8,78.8,292.8,78.8z"/>
		<path style="fill:#DEB079;" d="M255.4,78.8c0,0-4.5,0.3-7.3,0c0,0,0.2,1.4-0.1,2.5c-0.3,1.2-1,5.3-0.9,7.7c0,2.4,0.6,12.6,0.9,16
			c0.3,3.4,0.3,5.4,0.4,7.8c0.1,2.5,0.5,4.1,0.5,5.3c0,1.2-0.2,4.1-0.5,5.1c-0.2,1-0.6,2.4-0.1,3.8c0.5,1.5,1.2,3.6,1.5,4.3
			c0.3,0.8,0.4,1.3,1.7,2.1c1.4,0.8,5,3.5,5.7,2.7c0.6-0.8-0.9-1.9-0.9-1.9s-2.4-2.1-2.9-2.9c-0.5-0.8-2.1-6.4-0.3-6.6
			c0,0,0.5,0.5,0.5,1.4c0,0.9,0.1,4.5,1.8,4.5c1.6,0,0.6-6.2,0.6-7.3c0-1.1-0.1-3.9-0.8-5.4c-0.7-1.5-1.4-2.5-1.7-3.8
			c-0.3-1.3-0.3-6,0-9.1c0.3-3,2.2-17.2,2.2-18.7C255.8,85,255.4,78.8,255.4,78.8z"/>
		<path style="fill:#DEB079;" d="M280.3,34.2c-0.4-1.8-0.5-5.7-0.5-5.7l-5.6-2.7v0l0,0l0,0v0l-5.8,2.7c0,0-0.2,3.9-0.6,5.7
			c-0.4,1.8-0.6,3.4-0.6,3.4s1.1,1.3,2.9,2.2c1.7,0.9,2.9,1.4,4.1,1.4v0c0,0,0,0,0,0c0,0,0,0,0,0v0c1.3,0,2.3-0.5,4-1.4
			c1.8-0.9,2.7-2.2,2.7-2.2S280.7,36,280.3,34.2z"/>
		<path style="fill:#DEB079;" d="M274.2,41.1L274.2,41.1L274.2,41.1z"/>
		<path style="fill:#DEB079;" d="M274.2,41.1L274.2,41.1L274.2,41.1C274.2,41.1,274.2,41.1,274.2,41.1z"/>
		<path style="fill:#CE9F68;" d="M268,31.8c0,0,3.1,5.4,6.4,5.4c3.2,0,5.7-5.4,5.7-5.4L268,31.8z"/>
		<path style="fill:#DEB079;" d="M285.5,19.9c-0.7-1.2-1.8,0-1.8,0c3-11.1-3.8-15.9-9.4-15.9c-5.6,0-13.2,3.2-10.8,15.9
			c0,0-1.1-1.2-1.8,0c-0.7,1.2,1.1,6.3,2.9,5.9c0,0,4,10.2,9.6,10.3v0c0,0,0,0,0.1,0c0,0,0,0,0,0l0,0c5.8,0,8.3-10.3,8.3-10.3
			C284.3,26.2,286.2,21.1,285.5,19.9z"/>
		<g>
			<path style="fill:#121623;" d="M267.5,13.5c2.3-2.6,9.8-4.1,9.4-6.3c0,0,3.9,6.4,4.9,7.9c1,1.6,1.6,5.3,1.6,5.3l0.7-0.7
				c2.9-11.2-3.9-16-9.7-16c-5.7,0-13.4,3.2-11,16.2l0.7,1.5C264,21.3,265.1,16.1,267.5,13.5z"/>
		</g>
		<path style="fill:#CE9F68;" d="M280.1,159c0,0-1,3.7-0.4,5.5c0.6,1.8,1.7,5.2,3.3,7.6c-2.3-2.5-3.8-5.9-4.1-7.9
			C278.7,162.3,278.9,159.8,280.1,159z"/>
		<path style="fill:#CE9F68;" d="M267.2,159c0,0,1,3.7,0.4,5.5c-0.6,1.8-1.7,5.2-3.3,7.6c2.3-2.5,3.8-5.9,4.1-7.9
			C268.6,162.3,268.4,159.8,267.2,159z"/>
		<path style="fill:#252834;" d="M255.4,78.8c0,0,0-0.4-0.1-1.2c-0.1-0.8-0.1-1.9-0.2-3.2c0-0.7-0.1-1.4-0.1-2.1
			c0-0.8-0.1-1.6-0.1-2.4c0-0.8-0.1-1.7-0.1-2.5c0-0.9-0.1-1.7-0.1-2.6c0-0.9-0.1-1.8-0.1-2.6c0-0.4,0-0.9-0.1-1.3
			c0-0.4-0.1-0.8-0.1-1.3c-0.1-0.8-0.1-1.6-0.2-2.4c-0.1-0.8-0.1-1.5-0.2-2.1c-0.1-0.7-0.1-1.3-0.2-1.8c0-0.3-0.1-0.5-0.1-0.7
			c0-0.2-0.1-0.4-0.1-0.6c-0.1-0.8-0.2-1.2-0.2-1.2s0.2,0.4,0.4,1.1c0.1,0.2,0.2,0.4,0.2,0.6c0.1,0.2,0.1,0.5,0.2,0.7
			c0.1,0.3,0.2,0.5,0.2,0.8c0.1,0.3,0.1,0.6,0.2,0.9c0.1,0.7,0.3,1.4,0.4,2.1c0.1,0.8,0.3,1.6,0.3,2.4c0.1,0.8,0.2,1.7,0.3,2.6
			c0.1,0.9,0.1,1.8,0.2,2.6c0,0.9,0.1,1.8,0.1,2.6c0,0.9,0,1.7,0,2.6c0,0.8,0,1.6-0.1,2.4c0,0.8-0.1,1.5-0.1,2.1
			c-0.1,1.3-0.2,2.4-0.3,3.2C255.5,78.4,255.4,78.8,255.4,78.8z"/>
		<path style="fill:#252834;" d="M292.4,78.8c0,0-0.1-0.4-0.2-1.2c-0.1-0.8-0.2-1.9-0.3-3.2c0-0.7-0.1-1.4-0.1-2.1
			c0-0.8-0.1-1.6-0.1-2.4c0-0.8,0-1.7,0-2.6c0-0.9,0-1.8,0.1-2.6c0-0.9,0.1-1.8,0.2-2.6c0.1-0.9,0.2-1.7,0.3-2.6
			c0.1-0.8,0.2-1.6,0.3-2.4c0.1-0.8,0.3-1.5,0.4-2.1c0.1-0.3,0.1-0.6,0.2-0.9c0.1-0.3,0.2-0.6,0.2-0.8c0.1-0.3,0.1-0.5,0.2-0.7
			c0.1-0.2,0.2-0.4,0.2-0.6c0.3-0.7,0.4-1.1,0.4-1.1s-0.1,0.4-0.2,1.2c0,0.2-0.1,0.4-0.1,0.6c0,0.2-0.1,0.5-0.1,0.7
			c-0.1,0.5-0.2,1.1-0.2,1.8c-0.1,0.7-0.1,1.4-0.2,2.1c-0.1,0.8-0.1,1.5-0.2,2.4c0,0.4-0.1,0.8-0.1,1.3c0,0.4,0,0.9-0.1,1.3
			c-0.1,0.9-0.1,1.7-0.1,2.6c-0.1,0.9-0.1,1.8-0.1,2.6c0,0.9-0.1,1.7-0.1,2.5c0,0.8-0.1,1.6-0.1,2.4c0,0.8-0.1,1.5-0.1,2.1
			c-0.1,1.3-0.1,2.4-0.2,3.2C292.5,78.4,292.4,78.8,292.4,78.8z"/>
	</g>
	<g>
		<g>
			<g>
				<g>
					<path style="fill:none;stroke:#C8C8C8;stroke-width:3.4726;stroke-miterlimit:10;" d="M248.3,107.7V87.6c0-1.9,1.1-4.6,2.5-5.9
						l9.1-9.1"/>
				</g>
				<path style="fill:#C8C8C8;" d="M259.4,77.7c-1.3,1.3-3.4,1.3-4.7,0l0,0c-1.3-1.3-1.3-3.4,0-4.7l5.7-5.7c1.3-1.3,3.4-1.3,4.7,0
					l0,0c1.3,1.3,1.3,3.4,0,4.7L259.4,77.7z"/>
				<g>
					<path style="fill:none;stroke:#C8C8C8;stroke-width:3.4726;stroke-miterlimit:10;" d="M302,107.7V87.6c0-1.9-1.1-4.6-2.5-5.9
						l-9.1-9.1"/>
				</g>
				<path style="fill:#C8C8C8;" d="M290.9,77.7c1.3,1.3,3.4,1.3,4.7,0l0,0c1.3-1.3,1.3-3.4,0-4.7l-5.7-5.7c-1.3-1.3-3.4-1.3-4.7,0
					l0,0c-1.3,1.3-1.3,3.4,0,4.7L290.9,77.7z"/>
			</g>
			<g>
				<rect x="247" y="121.6" style="fill:#F3D6AD;" width="27.2" height="119"/>
				<rect x="272.8" y="121.6" style="fill:#E0C5A4;" width="27.2" height="119"/>
				<rect x="225.5" y="239.1" style="fill:#FFFFFF;" width="96.6" height="3"/>
				<rect x="225.5" y="107.7" style="fill:#CCB296;" width="96.6" height="13.9"/>
			</g>
		</g>
	</g>
</g>
<g>
	<g>
		<g>
			<polygon style="fill:#EDCAAB;" points="153.2,56.7 163.9,52.3 163.9,43.2 176,43.2 176,51.8 184.9,58.3 168.3,67.7 			"/>
			<path d="M157.8,219.6l-1.4,15.8c-0.1,0.7,0.4,1.6,1.1,2l5.5,2.9c0.7,0.3,1.6,0.2,2.2-0.3l1.8-1.7c0.5-0.5,1-1.5,0.9-2.3l-0.1-4.9
				c0-0.7-0.1-2-0.1-2.7l-0.6-7.5c-0.1-0.7-0.6-1.7-1.2-2.2l-0.6-0.5c-0.6-0.5-1.6-0.6-2.3-0.4l-5.5,1.8"/>
			<path style="fill:#EDCAAB;" d="M158.5,220.3c0.1,0.3-0.4,10.5-0.4,10.5c0,0.7,0.5,1.6,1.2,1.9l2.5,1.2c0.7,0.3,1.8,0.3,2.4,0l2-1
				c0.7-0.3,1.1-1.2,1.1-1.9l-1.2-10.7c-0.1-0.7-0.7-1.2-1.5-1.1L158.5,220.3z"/>
			<path d="M180.1,219.6l1.4,15.8c0.1,0.7-0.4,1.6-1.1,2l-5.5,2.9c-0.7,0.3-1.6,0.2-2.2-0.3l-1.8-1.7c-0.5-0.5-1-1.5-0.9-2.3
				l0.1-4.9c0-0.7,0.1-2,0.1-2.7l0.6-7.5c0.1-0.7,0.6-1.7,1.2-2.2l0.6-0.5c0.6-0.5,1.6-0.6,2.3-0.4l5.5,1.8"/>
			<path style="fill:#EDCAAB;" d="M179.4,220.3c-0.1,0.3,0.4,10.5,0.4,10.5c0,0.7-0.5,1.6-1.2,1.9l-2.5,1.2c-0.7,0.3-1.8,0.3-2.4,0
				l-2-1c-0.7-0.3-1.1-1.2-1.1-1.9l1.2-10.7c0.1-0.7,0.7-1.2,1.5-1.1L179.4,220.3z"/>
			<path style="fill:#262C35;" d="M190.2,116.8c-0.9-0.9-8.2-1.5-17.2-2.8l0.2-1.1c-1.4,0.2-2.8,0.3-4.3,0.5
				c-1.5-0.2-2.9-0.4-4.3-0.5l0.2,1.1c-9,1.2-16.2,1.6-17.2,2.6c-1,1,3.9,43,5.4,49.7c0,0-0.5,34.7,4.4,54.4c0,0,4.7,1.5,9.8,0
				c0,0-1-14-0.8-20.9c0.2-6.9,2.6-63,2.6-63s2.4,56.1,2.6,63c0.2,6.9-0.8,20.9-0.8,20.9c5.1,1.5,9.8,0,9.8,0
				c4.9-19.7,4.4-54.4,4.4-54.4C186.3,159.6,191.1,117.7,190.2,116.8z"/>
			<path style="fill:#DDBA9B;" d="M163,46.1c0,0,3.4,6,7,6c3.6,0,6.3-6,6.3-6L163,46.1z"/>
			<path style="fill:#EDCAAB;" d="M187.8,66.1c0,0,5,0.3,8,0c0,0-0.2,23,0.1,24.3c0.3,1.3,1.1,5.8,1,8.5c-0.1,2.6-0.7,13.9-1,17.7
				c-0.4,3.7-0.3,5.9-0.5,8.6c-0.2,2.7-0.6,4.5-0.6,5.8c0,1.4,0.3,4.5,0.5,5.6c0.3,1.1,0.6,2.6,0.1,4.2c-0.5,1.6-1.3,3.9-1.6,4.8
				c-0.3,0.8-0.4,1.4-1.9,2.3c-1.5,0.9-5.6,3.8-6.2,3c-0.7-0.8,0.9-2.1,0.9-2.1s2.6-2.3,3.2-3.2c0.5-0.9,2.3-7.1,0.3-7.3
				c0,0-0.5,0.6-0.5,1.6c0,1-0.2,4.9-2,4.9c-1.8,0-0.7-6.8-0.6-8c0.1-1.2,0.1-4.3,0.9-5.9c0.8-1.7,1.5-2.8,1.9-4.2
				c0.4-1.4,0.3-6.6,0-10c-0.3-3.3-2.4-19-2.4-20.6C187.4,94.4,187.8,66.1,187.8,66.1z"/>
			<path style="fill:#EDCAAB;" d="M149.8,66.1c0,0-5,0.3-8,0c0,0,0.2,23-0.1,24.3c-0.3,1.3-1.1,5.8-1,8.5c0.1,2.6,0.7,13.9,1,17.7
				c0.4,3.7,0.3,5.9,0.5,8.6c0.2,2.7,0.6,4.5,0.6,5.8c0,1.4-0.3,4.5-0.5,5.6c-0.3,1.1-0.6,2.6-0.1,4.2c0.5,1.6,1.3,3.9,1.6,4.8
				c0.3,0.8,0.4,1.4,1.9,2.3c1.5,0.9,5.6,3.8,6.2,3c0.7-0.8-0.9-2.1-0.9-2.1s-2.6-2.3-3.2-3.2c-0.5-0.9-2.3-7.1-0.3-7.3
				c0,0,0.5,0.6,0.5,1.6c0,1,0.2,4.9,2,4.9c1.8,0,0.7-6.8,0.6-8c-0.1-1.2-0.1-4.3-0.9-5.9c-0.8-1.7-1.5-2.8-1.9-4.2
				c-0.4-1.4-0.3-6.6,0-10c0.3-3.3,2.4-19,2.4-20.6C150.2,94.4,149.8,66.1,149.8,66.1z"/>
			<path style="fill:#5F839B;" d="M192,58.6c-2.1-1.7-5.2-3.2-9.8-3.2l-3.7-1.8l-9.2,10.9l-8.4-10.9l-5.3,1.8
				c-4.6,0-7.7,1.5-9.8,3.2c-5.2,4.2-4.3,11.6-4.3,11.6c0.3,0.2,0.5,0.4,0.8,0.6c1.5,0.9,3.2,1.8,3.2,1.8s3.4,7.5,5.2,11.5
				c0.6,1.4,1.1,2.4,1.1,2.4l-5.4,39.5c7.7,1.4,16.2,1.7,23,1.4c6.7,0.3,14.9,0,22.6-1.4L186,86.4c0,0,0.4-1,1.1-2.4
				c1.8-4,5.2-11.5,5.2-11.5c0,0,1.7-0.9,3.2-1.8c0.3-0.2,0.6-0.4,0.8-0.6C196.3,70.2,197.1,62.8,192,58.6z"/>
			<g>
				<path style="fill:#EDCAAB;" d="M169.9,18.2c-5.4,0-9.9,5.6-10.9,12.9c-0.3-0.1-0.6-0.1-1-0.1c-1.4,0.1-0.1,6.3,1.2,7.2
					c1.2,6.9,5.6,12,10.8,12h-0.5c5.2,0,9.5-5.1,10.8-12c1.3-0.9,2.5-7.1,1.2-7.2c-0.4,0-0.7,0-1,0.1c-1-7.4-5.5-12.9-10.9-12.9
					H169.9z"/>
			</g>
			<path style="fill:#CEA357;" d="M182.7,31.7c0,0-0.1-5.4-2.9-10c-2.7-4.5-9.7-7.4-15.8-4.1c-3.9-0.8-8.7,11.5-5.1,13.6l0.7,3.1
				l0.2-4.2l0.8-2.8l0.9-1.8l1.4-1.7l3.2-1.7c0,0,4.7,1.6,7.6,4.7c2.1,2.2,5,3.6,5,3.6s-0.6-0.3,0.9,0.4c0,0,0.7,2.6,0.7,4.9
				c0.1,2.4-2.4,10.2-2.4,10.2s3-3.5,4.2-6.8C183.3,36.3,182.7,31.7,182.7,31.7z"/>
		</g>
		<path style="fill:#345668;" d="M190.7,73.4c0,0,0-0.1-0.1-0.2c0-0.1-0.1-0.3-0.1-0.5c0-0.1,0-0.2-0.1-0.4c0-0.1,0-0.3-0.1-0.4
			c0-0.1,0-0.3-0.1-0.4c0-0.1,0-0.3-0.1-0.4c0-0.1,0-0.3-0.1-0.4c0-0.1,0-0.1,0-0.2c0-0.1,0-0.1,0-0.2c0-0.1-0.1-0.3-0.1-0.4
			c0-0.1-0.1-0.2-0.1-0.4c0-0.1-0.1-0.2-0.1-0.3c0,0,0-0.1-0.1-0.1c0,0,0-0.1-0.1-0.1c-0.1-0.1-0.1-0.2-0.1-0.2s0.1,0.1,0.3,0.2
			c0,0,0.1,0.1,0.1,0.1c0,0,0.1,0.1,0.1,0.1c0,0,0.1,0.1,0.1,0.1c0.1,0,0.1,0.1,0.1,0.2c0.1,0.1,0.2,0.2,0.2,0.4
			c0.1,0.1,0.1,0.3,0.2,0.4c0.1,0.1,0.1,0.3,0.1,0.4c0,0.1,0.1,0.3,0.1,0.4c0,0.2,0,0.3,0,0.4c0,0.1,0,0.3,0,0.4c0,0.1,0,0.3,0,0.4
			c0,0.1,0,0.3-0.1,0.4c0,0.2-0.1,0.4-0.2,0.5C190.7,73.3,190.7,73.4,190.7,73.4z"/>
		<path style="fill:#345668;" d="M146.6,73.4c0,0,0-0.1,0.1-0.2c0-0.1,0.1-0.3,0.1-0.5c0-0.1,0-0.2,0.1-0.4c0-0.1,0-0.3,0.1-0.4
			c0-0.1,0-0.3,0.1-0.4c0-0.1,0-0.3,0.1-0.4c0-0.1,0-0.3,0.1-0.4c0-0.1,0-0.1,0-0.2c0-0.1,0-0.1,0-0.2c0-0.1,0.1-0.3,0.1-0.4
			c0-0.1,0.1-0.2,0.1-0.4c0-0.1,0.1-0.2,0.1-0.3c0,0,0-0.1,0.1-0.1c0,0,0-0.1,0.1-0.1c0.1-0.1,0.1-0.2,0.1-0.2s-0.1,0.1-0.3,0.2
			c0,0-0.1,0.1-0.1,0.1c0,0-0.1,0.1-0.1,0.1c0,0-0.1,0.1-0.1,0.1c-0.1,0-0.1,0.1-0.1,0.2c-0.1,0.1-0.2,0.2-0.2,0.4
			c-0.1,0.1-0.1,0.3-0.2,0.4c-0.1,0.1-0.1,0.3-0.1,0.4c0,0.1-0.1,0.3-0.1,0.4c0,0.2,0,0.3,0,0.4c0,0.1,0,0.3,0,0.4
			c0,0.1,0,0.3,0,0.4c0,0.1,0,0.3,0.1,0.4c0,0.2,0.1,0.4,0.2,0.5C146.5,73.3,146.6,73.4,146.6,73.4z"/>
	</g>
	<g>
		<g>
			<g>
				<g>
					<path style="fill:none;stroke:#C8C8C8;stroke-width:3.4726;stroke-miterlimit:10;" d="M144.4,107.7V87.6c0-1.9,1.1-4.6,2.5-5.9
						l9.1-9.1"/>
				</g>
				<path style="fill:#C8C8C8;" d="M155.5,77.7c-1.3,1.3-3.4,1.3-4.7,0l0,0c-1.3-1.3-1.3-3.4,0-4.7l5.7-5.7c1.3-1.3,3.4-1.3,4.7,0
					l0,0c1.3,1.3,1.3,3.4,0,4.7L155.5,77.7z"/>
				<g>
					<path style="fill:none;stroke:#C8C8C8;stroke-width:3.4726;stroke-miterlimit:10;" d="M198.1,107.7V87.6c0-1.9-1.1-4.6-2.5-5.9
						l-9.1-9.1"/>
				</g>
				<path style="fill:#C8C8C8;" d="M187,77.7c1.3,1.3,3.4,1.3,4.7,0l0,0c1.3-1.3,1.3-3.4,0-4.7l-5.7-5.7c-1.3-1.3-3.4-1.3-4.7,0l0,0
					c-1.3,1.3-1.3,3.4,0,4.7L187,77.7z"/>
			</g>
			<g>
				<rect x="143.1" y="121.6" style="fill:#F3D6AD;" width="27.2" height="119"/>
				<rect x="168.9" y="121.6" style="fill:#E0C5A4;" width="27.2" height="119"/>
				<rect x="121.5" y="239.1" style="fill:#FFFFFF;" width="96.6" height="3"/>
				<rect x="121.5" y="107.7" style="fill:#CCB296;" width="96.6" height="13.9"/>
			</g>
		</g>
	</g>
</g>
<g>
	<g>
		<g>
			<path style="fill:#363946;" d="M58.1,223.5c0,0-2.2-0.4-3.2,6.6c-1.1,7-3.3,11.4,3.7,12.6c0,0,5.2-0.4,5.3-3.7
				c0.1-3.2,0.1-6.5,0.4-9C64.5,227.5,65.4,219.4,58.1,223.5z"/>
			<path style="fill:#D3A56F;" d="M50.5,151.4c0,0,0.9,5.9,0.7,7.7c-0.2,1.8-0.2,9.6-0.4,10.6c-0.2,1-2.1,9.8-0.4,19.2
				c1.7,9.4,5.9,22.1,5.9,23.9c0,0,0.2,3.8,0,4.8c-0.2,1.1-0.4,2.3-0.2,3.1c0.2,0.8,0.7,1.8,0.6,2.9c-0.1,1.1-2.2,8.3-1.9,12.6h6.6
				c0,0,1.9,0.1,2.1-2.5c0.2-2.7,0.7-8.5,0.7-9.4c0-0.8-0.5-2.3-0.5-2.9c0-0.6,0.1-3.6-0.3-4.4c-0.4-0.8-1.3-2.9-1.4-5.3
				c-0.1-2.5-0.1-10.9,0.6-15.5c0.6-4.6,0.7-8.6,0.5-10.6c-0.3-2-1.1-8.6-0.7-10.8c0.4-2.2,1.3-5.7,1.6-7.6c0.2-1.9,0-16.5,0-16.5
				L50.5,151.4z"/>
		</g>
		<g>
			<path style="fill:#363946;" d="M75.1,223.5c0,0,2.2-0.4,3.2,6.6c1.1,7,3.3,11.4-3.8,12.6c0,0-5.2-0.4-5.3-3.7
				c-0.1-3.2-0.1-6.5-0.4-9C68.7,227.5,67.8,219.4,75.1,223.5z"/>
			<path style="fill:#D3A56F;" d="M82.7,151.4c0,0-0.9,5.9-0.7,7.7c0.2,1.8,0.2,9.6,0.4,10.6c0.2,1,2.1,9.8,0.4,19.2
				c-1.7,9.4-5.9,22.1-5.9,23.9c0,0-0.2,3.8,0,4.8c0.2,1.1,0.4,2.3,0.2,3.1c-0.2,0.8-0.7,1.8-0.6,2.9c0.1,1.1,2.2,8.3,2,12.6h-6.6
				c0,0-1.9,0.1-2.1-2.5c-0.2-2.7-0.7-8.5-0.7-9.4c0-0.8,0.5-2.3,0.5-2.9c0-0.6-0.1-3.6,0.3-4.4c0.4-0.8,1.3-2.9,1.4-5.3
				c0.1-2.5,0.1-10.9-0.6-15.5c-0.6-4.6-0.7-8.6-0.5-10.6c0.3-2,1.1-8.6,0.7-10.8c-0.4-2.2-1.3-5.7-1.6-7.6c-0.2-1.9,0-16.5,0-16.5
				L82.7,151.4z"/>
		</g>
		<g>
			<path style="fill:#B24D4B;" d="M91.7,86.9c2.4-0.5,5.4-1.6,5.4-1.6S94.5,70.1,93,62.9c-1.5-7.2-3.1-9.6-4.1-10.5
				c-1.1-0.9-4.3-1.3-6.7-2c-2.4-0.7-6.6-2.1-6.6-2.1s-0.8-1.6-1.1-2.8c-0.4-1.3-2.2-0.8-2.2-0.8s-2.6-0.2-5-0.4v0c0,0,0,0,0,0
				c0,0,0,0,0,0v0c-3.1,0.2-5.2,0.4-5.2,0.4s-1.9-0.5-2.3,0.8c-0.4,1.3-1.2,2.8-1.2,2.8s-4.3,1.4-6.6,2.1c-2.4,0.7-5.6,1.1-6.7,2
				c-1.1,0.9-2.6,3.2-4.1,10.5c-1.5,7.2-4.2,22.5-4.2,22.5s3,1.1,5.4,1.6c2.4,0.5,6.5,0.3,6.5,0.3s-2.9,11.4-3.2,17.4
				c-0.4,5.9-1.2,21.6-0.3,33.8c0.9,12.3,1.1,13.4,1.1,13.4s11.1,0.5,20,0.5c0.2,0,0.4,0,0.5,0c0.2,0,0.4,0,0.5,0
				c9,0.1,20-0.5,20-0.5s0.2-1.2,1.1-13.4c0.9-12.3,0.1-27.9-0.3-33.8c-0.4-5.9-3.2-17.4-3.2-17.4S89.3,87.4,91.7,86.9z"/>
		</g>
		<path style="fill:#D3A56F;" d="M85.2,86.8c0,0,4.4,0.3,7.1,0c0,0-0.2,1.3,0.1,2.5c0.3,1.1,1,5.1,0.9,7.5c0,2.3-0.6,12.3-0.9,15.5
			c-0.3,3.3-0.3,5.2-0.4,7.6c-0.1,2.4-0.5,3.9-0.5,5.1c0,1.2,0.2,3.9,0.5,4.9c0.2,1,0.6,2.3,0.1,3.7c-0.5,1.4-1.1,3.5-1.4,4.2
			c-0.3,0.7-0.4,1.2-1.7,2c-1.3,0.8-4.9,3.4-5.5,2.7c-0.6-0.7,0.8-1.9,0.8-1.9s2.3-2,2.8-2.8c0.5-0.8,2.1-6.2,0.3-6.4
			c0,0-0.5,0.5-0.5,1.4c0,0.9-0.1,4.3-1.7,4.3c-1.6,0-0.6-6-0.5-7.1c0-1.1,0.1-3.8,0.8-5.2c0.7-1.5,1.3-2.5,1.6-3.7
			c0.3-1.2,0.3-5.9,0-8.8c-0.3-2.9-2.1-16.7-2.1-18.1C84.9,92.9,85.2,86.8,85.2,86.8z"/>
		<path style="fill:#D3A56F;" d="M49,86.8c0,0-4.4,0.3-7.1,0c0,0,0.2,1.3-0.1,2.5c-0.3,1.1-1,5.1-0.9,7.5c0,2.3,0.6,12.3,0.9,15.5
			c0.3,3.3,0.3,5.2,0.4,7.6c0.1,2.4,0.5,3.9,0.5,5.1c0,1.2-0.2,3.9-0.5,4.9c-0.2,1-0.6,2.3-0.1,3.7c0.5,1.4,1.1,3.5,1.4,4.2
			c0.3,0.7,0.4,1.2,1.7,2c1.3,0.8,4.9,3.4,5.5,2.7c0.6-0.7-0.8-1.9-0.8-1.9s-2.3-2-2.8-2.8c-0.5-0.8-2.1-6.2-0.3-6.4
			c0,0,0.5,0.5,0.5,1.4c0,0.9,0.1,4.3,1.7,4.3c1.6,0,0.6-6,0.5-7.1c0-1.1-0.1-3.8-0.8-5.2c-0.7-1.5-1.3-2.5-1.6-3.7
			c-0.3-1.2-0.3-5.9,0-8.8c0.3-2.9,2.1-16.7,2.1-18.1C49.3,92.9,49,86.8,49,86.8z"/>
		<path style="fill:#D3A56F;" d="M73.1,43.5c-0.4-1.8-0.5-5.5-0.5-5.5l-5.5-2.6v0l0,0l0,0v0L61.6,38c0,0-0.2,3.8-0.6,5.5
			c-0.4,1.8-0.6,3.3-0.6,3.3s1.1,1.3,2.8,2.1c1.7,0.8,2.8,1.3,4,1.3v0c0,0,0,0,0,0c0,0,0,0,0,0v0c1.2,0,2.2-0.5,3.8-1.3
			c1.7-0.9,2.7-2.1,2.7-2.1S73.5,45.3,73.1,43.5z"/>
		<path style="fill:#DEB079;" d="M67.2,50.3L67.2,50.3L67.2,50.3z"/>
		<path style="fill:#DEB079;" d="M67.2,50.3L67.2,50.3L67.2,50.3C67.2,50.3,67.2,50.3,67.2,50.3z"/>
		<path style="fill:#C49669;" d="M61.1,41.3c0,0,3,5.3,6.2,5.3c3.1,0,5.5-5.3,5.5-5.3L61.1,41.3z"/>
		<path style="fill:#C49669;" d="M72.9,164.6c0,0-0.9,3.5-0.4,5.3c0.5,1.8,1.7,5,3.2,7.4c-2.2-2.4-3.7-5.7-3.9-7.6
			C71.6,167.8,71.7,165.4,72.9,164.6z"/>
		<path style="fill:#C49669;" d="M60.4,164.6c0,0,0.9,3.5,0.4,5.3c-0.5,1.8-1.7,5-3.2,7.4c2.2-2.4,3.7-5.7,3.9-7.6
			C61.7,167.8,61.6,165.4,60.4,164.6z"/>
		<path style="fill:#994141;" d="M49,86.8c0,0,0-0.4-0.1-1.2c-0.1-0.8-0.1-1.8-0.2-3.1c0-0.6-0.1-1.3-0.1-2.1c0-0.7-0.1-1.5-0.1-2.3
			c0-0.8-0.1-1.6-0.1-2.5c0-0.8-0.1-1.7-0.1-2.5c0-0.9-0.1-1.7-0.1-2.5c0-0.4,0-0.8-0.1-1.2c0-0.4-0.1-0.8-0.1-1.2
			c0-0.8-0.1-1.6-0.2-2.3c0-0.7-0.1-1.4-0.2-2.1c-0.1-0.6-0.1-1.2-0.2-1.7c0-0.3-0.1-0.5-0.1-0.7c0-0.2-0.1-0.4-0.1-0.6
			C47.1,60,47,59.6,47,59.6s0.2,0.4,0.4,1.1c0.1,0.2,0.1,0.4,0.2,0.6c0.1,0.2,0.1,0.5,0.2,0.7c0.1,0.3,0.1,0.5,0.2,0.8
			c0.1,0.3,0.1,0.6,0.2,0.9c0.1,0.6,0.3,1.3,0.4,2.1c0.1,0.7,0.3,1.5,0.3,2.3c0.1,0.8,0.2,1.6,0.3,2.5c0.1,0.8,0.1,1.7,0.2,2.6
			c0,0.9,0.1,1.7,0.1,2.6c0,0.8,0,1.7,0,2.5c0,0.8,0,1.6-0.1,2.3c0,0.7-0.1,1.4-0.1,2.1c-0.1,1.3-0.2,2.4-0.3,3.1
			C49.1,86.4,49,86.8,49,86.8z"/>
		<path style="fill:#994141;" d="M84.9,86.8c0,0-0.1-0.4-0.1-1.2c-0.1-0.7-0.2-1.8-0.3-3.1c0-0.6-0.1-1.3-0.1-2.1
			c0-0.7-0.1-1.5-0.1-2.3c0-0.8,0-1.6,0-2.5c0-0.8,0-1.7,0.1-2.6c0-0.9,0.1-1.7,0.2-2.6c0.1-0.8,0.2-1.7,0.3-2.5
			c0.1-0.8,0.2-1.6,0.3-2.3c0.1-0.7,0.3-1.4,0.4-2.1c0.1-0.3,0.1-0.6,0.2-0.9c0.1-0.3,0.2-0.6,0.2-0.8c0.1-0.3,0.1-0.5,0.2-0.7
			c0.1-0.2,0.2-0.4,0.2-0.6c0.3-0.7,0.4-1.1,0.4-1.1s-0.1,0.4-0.2,1.2c0,0.2-0.1,0.4-0.1,0.6c0,0.2-0.1,0.5-0.1,0.7
			c-0.1,0.5-0.1,1.1-0.2,1.7c-0.1,0.6-0.1,1.3-0.2,2.1c-0.1,0.7-0.1,1.5-0.2,2.3c0,0.4-0.1,0.8-0.1,1.2c0,0.4,0,0.8-0.1,1.2
			c-0.1,0.8-0.1,1.7-0.1,2.5c-0.1,0.9-0.1,1.7-0.1,2.5c0,0.8-0.1,1.7-0.1,2.5c0,0.8-0.1,1.6-0.1,2.3c0,0.7-0.1,1.4-0.1,2.1
			c-0.1,1.3-0.1,2.4-0.2,3.1C84.9,86.4,84.9,86.8,84.9,86.8z"/>
		<path style="fill:#3F2A14;" d="M76.5,34.8c0.5,4.1,3.2,12.9,3.2,12.9s-0.8,3.9-5,2.2s-4-0.7-4-0.7s0.7-3.9,0-10.6
			c-0.7-6.7-3.7-14.5-3.7-14.5l8.1,0.6L76.5,34.8z"/>
		<g>
			<path style="fill:#D3A56F;" d="M67.1,16.5c-4.8,0-8.7,4.9-9.6,11.4c-0.3,0-0.6-0.1-0.9,0c-1.2,0.1-0.1,5.5,1,6.3
				c1.1,6.1,4.9,10.6,9.5,10.6h-0.4c4.6,0,8.4-4.5,9.5-10.6c1.1-0.8,2.2-6.2,1-6.3c-0.3,0-0.6,0-0.9,0c-0.9-6.5-4.8-11.4-9.6-11.4
				H67.1z"/>
		</g>
		<path style="fill:#3F2A14;" d="M56.6,27.4c0,0-1.1-4.2,1.3-8.3c2.4-4,8.6-6.5,13.9-3.6c3.4-0.7,7.7,10.1,4.5,11.9l-0.6,2.7
			l-0.1-3.7L74.8,24L74,22.5L72.8,21L70,19.5c0,0-4.1,1.4-6.7,4.2c-1.8,1.9-4.4,3.2-4.4,3.2s0.5-0.2-0.8,0.4c0,0,0.3,1.4,0.2,3.5
			s0.2,7.1,0.6,9.6c0.3,2.5,0.8,4.4,0.8,4.4s-2.5-7.6-2.7-9.4C56.6,33.5,56.6,27.4,56.6,27.4z"/>
	</g>
	<g>
		<g>
			<g>
				<g>
					<path style="fill:none;stroke:#C8C8C8;stroke-width:3.4726;stroke-miterlimit:10;" d="M41.4,107.7V87.6c0-1.9,1.1-4.6,2.5-5.9
						l9.1-9.1"/>
				</g>
				<path style="fill:#C8C8C8;" d="M52.5,77.7c-1.3,1.3-3.4,1.3-4.7,0l0,0c-1.3-1.3-1.3-3.4,0-4.7l5.7-5.7c1.3-1.3,3.4-1.3,4.7,0
					l0,0c1.3,1.3,1.3,3.4,0,4.7L52.5,77.7z"/>
				<g>
					<path style="fill:none;stroke:#C8C8C8;stroke-width:3.4726;stroke-miterlimit:10;" d="M95.1,107.7V87.6c0-1.9-1.1-4.6-2.5-5.9
						l-9.1-9.1"/>
				</g>
				<path style="fill:#C8C8C8;" d="M84,77.7c1.3,1.3,3.4,1.3,4.7,0l0,0c1.3-1.3,1.3-3.4,0-4.7l-5.7-5.7c-1.3-1.3-3.4-1.3-4.7,0l0,0
					c-1.3,1.3-1.3,3.4,0,4.7L84,77.7z"/>
			</g>
			<g>
				<rect x="40.2" y="121.6" style="fill:#F3D6AD;" width="27.2" height="119"/>
				<rect x="65.9" y="121.6" style="fill:#E0C5A4;" width="27.2" height="119"/>
				<rect x="18.6" y="239.1" style="fill:#FFFFFF;" width="96.6" height="3"/>
				<rect x="18.6" y="107.7" style="fill:#CCB296;" width="96.6" height="13.9"/>
			</g>
		</g>
	</g>
</g>
</svg>
