<?xml version="1.0" encoding="iso-8859-1"?>
<!-- Generator: Adobe Illustrator 18.0.0, SVG Export Plug-In . SVG Version: 6.00 Build 0)  -->
<!DOCTYPE svg PUBLIC "-//W3C//DTD SVG 1.1//EN" "http://www.w3.org/Graphics/SVG/1.1/DTD/svg11.dtd">
<svg version="1.1" id="Layer_1" xmlns="http://www.w3.org/2000/svg" xmlns:xlink="http://www.w3.org/1999/xlink" x="0px" y="0px"
	 viewBox="0 0 66 183.6" style="enable-background:new 0 0 66 183.6;" xml:space="preserve">
<g>
	<path style="fill:#222222;" d="M37.3,166.8c0.4,0.2,0.8,0.8,1,1.2l0.9,3c0.1,0.4,1.6,9.1,1.6,9.1c0,0.5-1,2.1-3.1,2.1
		c-2.1,0-4-1.9-4-2.3l-1-9.5c0-0.5-0.1-1.2-0.1-1.6c0-0.4,0.1-1.2,0.3-1.6l0.3-1c0.2-0.4,0.7-1,1.1-1h0c0.5,0,1.2,0.4,1.6,0.7
		L37.3,166.8z"/>
	<path style="fill:#DEB079;" d="M42.2,128l0.1,7.5c0,0,1.6,8.9-3.3,25.9l-1.1,5.3c0,0,2.1,10.4,1.7,11c-0.3,0.6-4.8,0.7-5.2,0
		c-0.3-0.8-0.9-7.4-0.8-8.8c0.1-1.5,0.1-3,0.1-3s-0.2-17.7,0.3-25.1c0.5-7.4,0-13.4,0-13.4L42.2,128z"/>
	<path style="fill:#222222;" d="M27,166.8c-0.4,0.2-0.8,0.8-1,1.2l-0.9,3c-0.1,0.4-1.6,9.1-1.6,9.1c0,0.5,1,2.1,3.1,2.1
		c2.1,0,4-1.9,4-2.3l1-9.5c0-0.5,0.1-1.2,0.1-1.6c0-0.4-0.1-1.2-0.3-1.6l-0.3-1c-0.2-0.4-0.7-1-1.1-1h0c-0.5,0-1.2,0.4-1.6,0.7
		L27,166.8z"/>
	<path style="fill:#DEB079;" d="M22.1,128l-0.1,7.5c0,0-1.6,8.9,3.3,25.9l1.1,5.3c0,0-1.9,10.2-1.7,11c0.2,0.8,4.6,1,5.1,0
		c0.5-1,1-7.4,0.9-8.8c-0.1-1.5-0.1-3-0.1-3s0.2-17.7-0.3-25.1c-0.5-7.4,0-13.4,0-13.4L22.1,128z"/>
	<rect x="27.5" y="47.4" style="fill:#699AC4;" width="8.1" height="10"/>
	<path style="fill:#3D3D3D;" d="M41.1,41.8L51.6,46c0,0,7.4,8.7,7.8,22l3.5,38.9c0,0,1,1.6-2.8,6.1l1,12.7c0,0-1.3,2.7-4.3,3.5
		l0.6,5.3l-4.4,2.5c0,0-2-2.7-1-4.9l-2-0.9l-0.7-4.7c0,0,1.8,34.3-3,39.8c0,0-1.3,2.3-7.4-2.7c0,0-4.9,3.3-8.3-0.3
		c0,0-2.8,4-6.2-0.7c0,0-3.3,4.9-5.8,0l-5.1-29.8l-2.7-0.9v-3.5c0,0-2.6,1.5-1.4-11.4c0,0-1.8-1.9-1.4-10.5c0,0,0.3-8.7-5.5-25.9
		l-0.6-6.4c0,0-0.8-3,0.8-4.1l2-6.2c0,0-1-9.8,6.5-15.1l13.3-4.4l6.7,8.7C31.4,53.1,32.3,49.5,41.1,41.8z"/>
	<path style="fill:#E3DFDE;" d="M32.5,65.7l11.1,1.6c0,0,2.6,1.6,2.8,8.4l-14.9-2.2C31.5,73.5,36.2,69.1,32.5,65.7z"/>
	
		<rect x="19" y="40.8" transform="matrix(0.9301 -0.3674 0.3674 0.9301 -18.6162 11.4577)" style="fill:#E3DFDE;" width="3.5" height="27.7"/>
	<path style="fill:#D3A56F;" d="M32.8,65.9L30,64.6h-5.5l-1.6,2.1c0,0,0.3,3.1,4.1,6c0,0,3.2-0.5,5.8-0.2
		C32.8,72.5,35.6,68.2,32.8,65.9z"/>
	<path style="fill:#E3DFDE;" d="M9.8,49.5c0,0,4.2,2.6,6.2,0.9V68c0,0-1,5.8-3.5,6.2c0,0-4.6-0.9-4.3-6.2L9.8,49.5z"/>
	<path style="fill:#D3A56F;" d="M11.4,50.2c0,0,0.1-3.1-0.6-4.3c0,0-0.2-2.4,2.3-5.6c0,0,2.9-1.3,4.2,0c0,0,0.6,1.3-3.3,3
		c0,0,0.6,2.3,1.5,1.7l1.8,5.5C17.3,50.4,14.1,52.9,11.4,50.2z"/>
	<path style="fill:#D3A56F;" d="M17.1,41.1c0,0-1.1-1.3,0.9-0.7v3L17.1,41.1z"/>
	<path style="fill:#3D3D3D;" d="M16.7,14.1l19.9-9.8c0,0,6.4,10,12.6,15L38,24.4v-7.2c0,0-3.7-8.7-12.5-1.8l-1.9,5.8L16.7,14.1z"/>
	<path style="fill:#222323;" d="M44,18.7c0,0-2-0.9,0-2.1C44,16.7,45.9,16.4,44,18.7z"/>
	<path style="fill:#222323;" d="M43.5,18.5c0,0-1.2-0.5-1.2,14.7l0.9,0l0.9,0v1v-1.6v1.3l0.5-1.4l0.2-0.6c0,0,0.5-10-0.3-13.5
		S43.5,18.5,43.5,18.5z"/>
	<line style="fill:none;stroke:#222323;stroke-width:0.1478;stroke-miterlimit:10;" x1="44" y1="13.3" x2="44" y2="16.7"/>
	<path style="fill:#D3A56F;" d="M36.6,41.7c-0.3-1.5-0.4-4.6-0.4-4.6l-4.6-2.2v0l0,0l0,0v0L27,37.1c0,0-0.2,3.1-0.5,4.6
		c-0.3,1.5-0.5,2.7-0.5,2.7s0.9,1.1,2.3,1.8c1.4,0.7,2.3,1.1,3.3,1.1v0c0,0,0,0,0,0c0,0,0,0,0,0v0c1,0,1.8-0.4,3.2-1.1
		c1.4-0.7,2.2-1.8,2.2-1.8S36.9,43.1,36.6,41.7z"/>
	<g>
		<path style="fill:#C49669;" d="M31.2,44.1c2.4,0,5-4.3,5-4.9c0.2-0.3,0.4-0.7,0.5-1H25.6c0.2,0.3,0.3,0.7,0.5,1
			C26.2,39.8,28.8,44.1,31.2,44.1z"/>
	</g>
	<polygon style="fill:#E3DFDE;" points="36.8,42.7 38.4,44.4 33.9,50.3 31.5,47.3 	"/>
	<path style="fill:#3F2A14;" d="M39.4,34.4c0.4,3.4,2.6,10.8,2.6,10.8s-0.7,3.2-4.2,1.9s-3.4-0.6-3.4-0.6s0.6-3.2,0-8.8
		s-3.1-12.1-3.1-12.1l6.8,0.5L39.4,34.4z"/>
	<g>
		<path style="fill:#D3A56F;" d="M31.6,19.1c-4,0-7.3,4.1-8,9.5c-0.2,0-0.5-0.1-0.7,0c-1,0.1-0.1,4.6,0.9,5.3
			c0.9,5.1,4.1,8.8,7.9,8.8h-0.4c3.8,0,7-3.7,7.9-8.8c0.9-0.7,1.9-5.2,0.9-5.3c-0.3,0-0.5,0-0.7,0c-0.7-5.4-4-9.5-8-9.5H31.6z"/>
	</g>
	<path style="fill:#3F2A14;" d="M22.8,28.2c0,0-0.9-3.5,1.1-6.9c2-3.3,7.1-5.4,11.6-3c2.9-0.6,6.4,8.4,3.7,10l-0.5,2.3l-0.1-3.1
		l-0.6-2l-0.7-1.3l-1-1.2L34,21.6c0,0-3.5,1.2-5.6,3.5c-1.5,1.6-3.7,2.7-3.7,2.7s0.4-0.2-0.7,0.3c0,0,0.2,1.2,0.2,2.9
		c0,1.7,0.2,5.9,0.5,8c0.3,2.1,0.7,3.7,0.7,3.7s-2.1-6.4-2.3-7.8C22.9,33.3,22.8,28.2,22.8,28.2z"/>
	<path style="fill:#222323;" d="M23.6,22c0,0,0.8-3.8,7.3-0.6c0,0,6.1-1.4,7.1,2.9V17c0,0-4-8.6-12.5-1.8L23.6,22z"/>
	<polygon style="fill:#E3DFDE;" points="26.3,42.7 24.7,44.4 29.3,50.3 31.7,47.3 	"/>
	<line style="fill:none;stroke:#B24D4B;stroke-width:1.7732;stroke-miterlimit:10;" x1="19.1" y1="55.2" x2="22.4" y2="54.1"/>
</g>
</svg>
