<?xml version="1.0" encoding="iso-8859-1"?>
<!-- Generator: Adobe Illustrator 18.0.0, SVG Export Plug-In . SVG Version: 6.00 Build 0)  -->
<!DOCTYPE svg PUBLIC "-//W3C//DTD SVG 1.1//EN" "http://www.w3.org/Graphics/SVG/1.1/DTD/svg11.dtd">
<svg version="1.1" id="Layer_1" xmlns="http://www.w3.org/2000/svg" xmlns:xlink="http://www.w3.org/1999/xlink" x="0px" y="0px"
	 viewBox="0 0 66 183.6" style="enable-background:new 0 0 66 183.6;" xml:space="preserve">
<g>
	<path style="fill:#4F4F4F;" d="M33,102.8h-8.3h-5.1c0,0,0.2,25.9,0.8,34.8c0.6,8.9,1.4,18.5,1.6,19.7c0.1,1.2,1.4,13.7,1.4,13.7
		s2.7,0.7,4.2,0.7c1.6,0,4.2-0.7,4.2-0.7s0.2-11.4,0-15.5c-0.2-4.1,0-19.8,0.1-24.6c0.1-4.7,0.1-14.5,1.1-14.5c1,0,1.2,9.8,1.3,14.5
		c0.1,4.8,0.3,20.5,0.1,24.6c-0.2,4.1,0,15.5,0,15.5s2.8,0.7,4.3,0.7c1.5,0,4.1-0.7,4.1-0.7s1.3-12.7,1.4-13.8
		c0.1-1.2,1-10.7,1.6-19.6c0.6-8.9,0.8-34.8,0.8-34.8H33z"/>
	<g>
		<rect x="28" y="45.3" style="fill:#B24D4B;" width="7.9" height="9.8"/>
		<path style="fill:#D3A56F;" d="M16.1,39.1c0,0,0.9-1.3,0.9-0.7v2.9L16.1,39.1z"/>
		<path style="fill:#3D3D3D;" d="M38.7,42.3l10.2,3.2c0,0,9.8,6.9,10.3,19.9l3.5,38.1c0,0,1,1.6-2.7,5.9l1,12.4c0,0-1.3,2.6-4.2,3.5
			l0.6,5.2L53,133c0,0-1.9-2.6-1-4.8l-2-0.9l-0.7-4.6c0,0,1.7,33.6-2.9,38.9c0,0-1.3,2.3-7.2-2.6c0,0-4.8,3.2-8.1-0.3
			c0,0-2.7,3.9-6.1-0.7c0,0-3.2,4.8-5.6,0L15,128.9l-2-0.9v-3.5c0,0-3.2,1.4-2-11.1c0,0-2.1-1.9-1.6-10.3c0,0,0.1-8.5-5.5-25.3
			l-0.7-6.2c0,0-0.8-2.9,0.8-4.1l1.9-6.1c0,0-1-9.5,6.4-14.8l13-4.3l6.6,8.5C31.8,50.9,32.9,49.4,38.7,42.3z"/>
		<path style="fill:#E3DFDE;" d="M32.9,63.2l10.9,1.6c0,0,2.6,1.6,2.7,8.2l-14.5-2.2C31.9,70.8,36.5,66.5,32.9,63.2z"/>
		
			<rect x="19.7" y="38.8" transform="matrix(0.9301 -0.3674 0.3674 0.9301 -17.7438 11.5274)" style="fill:#E3DFDE;" width="3.4" height="27.2"/>
		<path style="fill:#D3A56F;" d="M33.2,63.3L30.4,62h-5.4l-1.6,2.1c0,0,0.3,3,4,5.9c0,0,3.1-0.6,5.7-0.2
			C33.2,69.8,36,65.6,33.2,63.3z"/>
		<path style="fill:#E3DFDE;" d="M10.7,47.3c0,0,2.3,2.5,6.3,0.9v17.2c0,0-1.1,5.6-3.6,6.1c0,0-4.5-0.9-4.2-6.1L10.7,47.3z"/>
		<path style="fill:#D3A56F;" d="M12.2,48c0,0,0.1-3.1-0.6-4.2c0,0-0.2-2.3,2.2-5.5c0,0,2.8-1.3,4.1,0c0,0,0.6,1.3-3.2,2.9
			c0,0,0.1,2.3,1,1.7l2.2,5.4C18,48.3,14.9,50.7,12.2,48z"/>
		<path style="fill:#3D3D3D;" d="M17.4,12.7l19.5-9.5c0,0,6.6,9.8,12.7,14.7l-10.5,5v-7.1c0,0-4-8.5-12.6-1.8l-2.1,5.6L17.4,12.7z"
			/>
		<path style="fill:#222323;" d="M44.2,17.2c0,0-2-0.9,0-2C44.2,15.2,46,15,44.2,17.2z"/>
		<path style="fill:#D3A56F;" d="M26.6,34.6v6.6c0,0-0.5,2,1.8,3.2c2.3,1.2,3,0.8,3.8,0.8c0.8,0,4.8-1.8,5.1-2.8
			c0.3-1-0.1-8.3-0.1-8.3L26.6,34.6z"/>
		<g>
			<path style="fill:#C49669;" d="M31.9,42c2.4,0,5-4.3,5-4.9c0.2-0.3,0.4-0.7,0.5-1H26.2c0.2,0.3,0.3,0.7,0.5,1
				C26.8,37.7,29.4,42,31.9,42z"/>
		</g>
		<path style="fill:#D3A56F;" d="M24.6,28.8c0,0-2-10.5,6.7-10.5s7.4,10.5,7.4,10.5s1.1-0.7,1.7-0.2s0.7,4.9-2.2,5.5
			c0,0-0.8,2.6-1.2,3.1c-0.5,0.5-2.1,3.4-5.2,3.4c-1.6,0-3.6-1.6-4.8-3.4c-1.1-1.7-1.7-3.7-1.7-3.7s-3-0.7-2-4.9
			C23.2,28.5,24.1,27.8,24.6,28.8z"/>
		<path style="fill:#3F2A14;" d="M34.7,20c0,0-1.3,0.7-2.6,2.5c0-1.1,0.7-2.5,0.7-2.5s-2.2,0.9-3.8,3.7c0,0-0.1-2.6,0.7-4.7
			c0,0-4.3,3.9-4.9,8.6l-0.6-3.6l2.2-4.6l5.2-2.2L34.7,20z"/>
		<path style="fill:#222323;" d="M43.6,17c0,0-1.2-0.5-1.2,14.4l0.3,0l0.3,0v1l1-1.5v1.2l0.6-1.4l0.3-0.6c0,0,0.5-9.8-0.2-13.2
			S43.6,17,43.6,17z"/>
		<path style="fill:#3F2A14;" d="M24.8,19.6c3-4.3,6.9-4.1,10.5-2.9c4.1,1.3,4.8,6.1,4.9,8c0.1,1.9-0.6,3.7-0.6,3.7l-0.9,0.4l0,0.2
			l-0.5,1c0,0,0-1.6,0.2-3.5c0.1-1.9-0.5-4.3-0.5-4.3c0.1,0.7-0.5,1-0.5,1c0-1.5-0.8-2.1-0.8-2.1l-1.2-0.6l-1-0.6L31.6,19l-1.7-0.5
			l-2.6,1.7l-1.9,5.5L25.1,28l0.2,1.9l-0.5-0.5l-0.2-0.6c-0.5-0.7-1-0.5-1-0.5S22.9,22.3,24.8,19.6z"/>
		<line style="fill:none;stroke:#222323;stroke-width:0.1447;stroke-miterlimit:10;" x1="44.1" y1="11.9" x2="44.2" y2="15.2"/>
		<polygon style="fill:#E3DFDE;" points="37.4,40.7 38.7,42.3 34.2,48.2 31.9,45.2 		"/>
		<path style="fill:#222323;" d="M24.2,20.4c0,0,1.1-3.8,7.5-0.6c0,0,5.3-1.4,7.3,2.8v-7.1c0,0-4.3-8.5-12.6-1.8L24.2,20.4z"/>
		<polygon style="fill:#E3DFDE;" points="26.6,40.7 25.2,42.3 29.7,48.2 32,45.2 		"/>
		<line style="fill:none;stroke:#B24D4B;stroke-width:1.7362;stroke-miterlimit:10;" x1="19.8" y1="53" x2="23" y2="51.8"/>
		<path style="fill:#3F2A14;" d="M34.9,20c0,0,1.1,1.6,0.9,3c0,0,1.2-1,0.9-2L34.9,20z"/>
	</g>
	<path style="fill:#1A1C1C;" d="M24.3,169.6c0,0-0.5,4.9-1,6.1c-0.5,1.2-1.5,3.2-1.5,4.2c0,1,0.9,2.2,4.7,2.2c3.8,0,4.4-0.3,4.4-2.8
		c0-2.5,0-9.7,0-9.7H24.3z"/>
	<path style="fill:#1A1C1C;" d="M41.9,169.6c0,0,0.5,4.9,1,6.1c0.5,1.2,1.5,3.2,1.5,4.2c0,1-0.9,2.2-4.7,2.2c-3.8,0-4.4-0.3-4.4-2.8
		c0-2.5,0-9.7,0-9.7H41.9z"/>
</g>
</svg>
