<?xml version="1.0" encoding="UTF-8" standalone="no"?>
<svg
   xmlns:dc="http://purl.org/dc/elements/1.1/"
   xmlns:cc="http://creativecommons.org/ns#"
   xmlns:rdf="http://www.w3.org/1999/02/22-rdf-syntax-ns#"
   xmlns:svg="http://www.w3.org/2000/svg"
   xmlns="http://www.w3.org/2000/svg"
   height="262"
   width="259"
   xml:space="preserve"
   viewBox="0 0 259 262.00001"
   y="0px"
   x="0px"
   id="Layer_1"
   version="1.1"><metadata
     id="metadata43"><rdf:RDF><cc:Work
         rdf:about=""><dc:format>image/svg+xml</dc:format><dc:type
           rdf:resource="http://purl.org/dc/dcmitype/StillImage" /><dc:title></dc:title></cc:Work></rdf:RDF></metadata><defs
     id="defs41" /><rect
     id="rect3"
     height="38.599998"
     width="239.39999"
     style="fill:#bbc199"
     y="223.40001"
     x="9.8000002" /><g
     transform="translate(-22.100001,1.0000088)"
     id="g5"><g
       id="g7"><polygon
         id="polygon9"
         points="161.2,57.7 161.2,66.2 169.9,72.6 153.6,81.8 138.8,71 149.2,66.7 149.2,57.7 "
         style="fill:#edcaab" /><path
         id="path11"
         d="m 143.3,231.1 -1.3,15.6 c -0.1,0.7 0.4,1.6 1.1,1.9 l 5.4,2.8 c 0.6,0.3 1.6,0.2 2.1,-0.3 l 1.8,-1.7 c 0.5,-0.5 0.9,-1.5 0.9,-2.2 l -0.1,-4.8 c 0,-0.7 -0.1,-1.9 -0.1,-2.6 l -0.6,-7.4 c -0.1,-0.7 -0.6,-1.7 -1.1,-2.1 l -0.6,-0.5 c -0.6,-0.5 -1.6,-0.6 -2.3,-0.4 l -5.4,1.7" /><path
         id="path13"
         d="m 144,231.8 c 0.1,0.3 -0.4,10.3 -0.4,10.3 0,0.7 0.5,1.6 1.1,1.9 l 2.4,1.2 c 0.7,0.3 1.7,0.3 2.4,0 l 1.9,-1 c 0.7,-0.3 1.1,-1.2 1,-1.9 l -1.2,-10.5 c -0.1,-0.7 -0.7,-1.2 -1.5,-1.1 l -5.7,1.1 z"
         style="fill:#edcaab" /><path
         id="path15"
         d="m 165.1,231.1 1.3,15.6 c 0.1,0.7 -0.4,1.6 -1.1,1.9 l -5.4,2.8 c -0.6,0.3 -1.6,0.2 -2.1,-0.3 l -1.8,-1.7 c -0.5,-0.5 -0.9,-1.5 -0.9,-2.2 l 0.1,-4.8 c 0,-0.7 0.1,-1.9 0.1,-2.6 l 0.6,-7.4 c 0.1,-0.7 0.6,-1.7 1.1,-2.1 l 0.6,-0.5 c 0.6,-0.5 1.6,-0.6 2.3,-0.4 l 5.4,1.7" /><path
         id="path17"
         d="m 164.5,231.8 c -0.1,0.3 0.4,10.3 0.4,10.3 0,0.7 -0.5,1.6 -1.1,1.9 l -2.4,1.2 c -0.7,0.3 -1.7,0.3 -2.4,0 l -1.9,-1 c -0.7,-0.3 -1.1,-1.2 -1,-1.9 l 1.2,-10.5 c 0.1,-0.7 0.7,-1.2 1.5,-1.1 l 5.7,1.1 z"
         style="fill:#edcaab" /><path
         id="path19"
         d="m 175.1,130.1 c -0.9,-0.9 -8.1,-1.5 -16.9,-2.7 l 0.2,-1 c -1.3,0.2 -2.7,0.3 -4.2,0.5 -1.4,-0.2 -2.8,-0.4 -4.2,-0.5 l 0.2,1 c -8.9,1.2 -15.9,1.6 -16.9,2.6 -1,1 3.8,42.2 5.3,48.9 0,0 -0.5,34.1 4.3,53.5 0,0 4.6,1.5 9.6,0 0,0 -1,-13.7 -0.8,-20.5 0.2,-6.8 2.5,-61.9 2.5,-61.9 0,0 2.4,55.1 2.5,61.9 0.2,6.8 -0.8,20.5 -0.8,20.5 5,1.5 9.6,0 9.6,0 4.8,-19.4 4.3,-53.5 4.3,-53.5 1.5,-6.7 6.2,-48 5.3,-48.8 z"
         style="fill:#262c35" /><path
         id="path21"
         d="m 148.3,60.6 c 0,0 3.4,5.9 6.9,5.9 3.5,0 6.2,-5.9 6.2,-5.9 l -13.1,0 z"
         style="fill:#ddba9b" /><path
         id="path23"
         d="m 172.8,80.3 c 0,0 4.9,0.3 7.9,0 0,0 -0.2,22.6 0.1,23.8 0.3,1.3 1.1,5.7 1,8.3 0,2.6 -0.7,13.7 -1,17.4 -0.4,3.7 -0.3,5.8 -0.5,8.5 -0.2,2.7 -0.6,4.4 -0.6,5.7 0,1.3 0.3,4.4 0.5,5.5 0.3,1.1 0.6,2.6 0.1,4.1 -0.5,1.6 -1.3,3.9 -1.6,4.7 -0.3,0.8 -0.4,1.4 -1.9,2.2 -1.5,0.9 -5.5,3.8 -6.1,3 -0.7,-0.8 0.9,-2.1 0.9,-2.1 0,0 2.6,-2.2 3.1,-3.1 0.5,-0.9 2.3,-6.9 0.3,-7.1 0,0 -0.5,0.6 -0.5,1.5 0,0.9 -0.2,4.8 -1.9,4.8 -1.8,0 -0.7,-6.7 -0.6,-7.9 0.1,-1.2 0.1,-4.2 0.9,-5.8 0.8,-1.6 1.5,-2.8 1.8,-4.1 0.4,-1.4 0.3,-6.5 0,-9.8 -0.3,-3.3 -2.3,-18.6 -2.3,-20.2 0,-1.6 0.4,-29.4 0.4,-29.4 z"
         style="fill:#edcaab" /><path
         id="path25"
         d="m 135.4,80.3 c 0,0 -4.9,0.3 -7.9,0 0,0 0.2,22.6 -0.1,23.8 -0.3,1.3 -1.1,5.7 -1,8.3 0,2.6 0.7,13.7 1,17.4 0.4,3.7 0.3,5.8 0.5,8.5 0.2,2.7 0.6,4.4 0.6,5.7 0,1.3 -0.3,4.4 -0.5,5.5 -0.3,1.1 -0.6,2.6 -0.1,4.1 0.5,1.6 1.3,3.9 1.6,4.7 0.3,0.8 0.4,1.4 1.9,2.2 1.5,0.9 5.5,3.8 6.1,3 0.7,-0.8 -0.9,-2.1 -0.9,-2.1 0,0 -2.6,-2.2 -3.1,-3.1 -0.5,-0.9 -2.3,-6.9 -0.3,-7.1 0,0 0.5,0.6 0.5,1.5 0,0.9 0.2,4.8 1.9,4.8 1.8,0 0.7,-6.7 0.6,-7.9 -0.1,-1.2 -0.1,-4.2 -0.9,-5.8 -0.8,-1.6 -1.5,-2.8 -1.8,-4.1 -0.4,-1.4 -0.3,-6.5 0,-9.8 0.3,-3.3 2.3,-18.6 2.3,-20.2 0,-1.6 -0.4,-29.4 -0.4,-29.4 z"
         style="fill:#edcaab" /><path
         id="path27"
         d="m 176.8,72.9 c -2.1,-1.7 -5.1,-3.1 -9.7,-3.1 l -3.6,-1.8 -9,10.8 -8.2,-10.8 -5.2,1.8 c -4.5,0 -7.6,1.4 -9.7,3.1 -5.1,4.2 -4.2,11.4 -4.2,11.4 0.3,0.2 0.5,0.4 0.8,0.6 1.5,0.9 3.1,1.7 3.1,1.7 0,0 3.3,7.4 5.1,11.3 0.6,1.4 1.1,2.3 1.1,2.3 L 132,139 c 7.6,1.4 16,1.6 22.6,1.4 6.6,0.3 14.6,0 22.2,-1.4 l -5.7,-38.8 c 0,0 0.4,-1 1.1,-2.3 1.8,-3.9 5.1,-11.3 5.1,-11.3 0,0 1.7,-0.9 3.1,-1.7 0.3,-0.2 0.6,-0.4 0.8,-0.6 -0.1,0 0.7,-7.3 -4.4,-11.4 z"
         style="fill:#b24d4b" /><g
         id="g29"><path
           id="path31"
           d="m 155.1,33.2 c -5.3,0 -9.7,5.5 -10.7,12.7 -0.3,-0.1 -0.6,-0.1 -1,-0.1 -1.4,0.1 -0.1,6.2 1.1,7.1 1.2,6.8 5.5,11.8 10.6,11.8 l -0.5,0 c 5.1,0 9.4,-5 10.6,-11.8 1.3,-0.9 2.5,-7 1.1,-7.1 -0.4,0 -0.7,0 -1,0.1 -1,-7.3 -5.4,-12.7 -10.7,-12.7 l 0.5,0 z"
           style="fill:#edcaab" /></g><path
         id="path33"
         d="m 167.8,46.5 c 0,0 -0.1,-5.3 -2.8,-9.9 -2.6,-4.5 -9.5,-7.3 -15.5,-4 -3.8,-0.8 -8.5,11.3 -5,13.3 l 0.7,3 0.2,-4.1 0.8,-2.7 0.9,-1.8 1.4,-1.7 3.1,-1.6 c 0,0 4.6,1.6 7.5,4.7 2,2.2 4.9,3.6 4.9,3.6 0,0 -0.6,-0.3 0.9,0.4 0,0 0.6,2.5 0.7,4.8 0.1,2.3 -2.4,10 -2.4,10 0,0 3,-3.4 4.1,-6.7 1,-2.9 0.5,-7.3 0.5,-7.3 z"
         style="fill:#cea357" /></g><path
       id="path35"
       d="m 175.6,87.4 c 0,0 0,-0.1 -0.1,-0.2 0,-0.1 -0.1,-0.3 -0.1,-0.5 0,-0.1 0,-0.2 -0.1,-0.4 0,-0.1 0,-0.3 -0.1,-0.4 0,-0.1 0,-0.3 -0.1,-0.4 0,-0.1 0,-0.3 -0.1,-0.4 0,-0.1 0,-0.3 -0.1,-0.4 0,-0.1 0,-0.1 0,-0.2 0,-0.1 0,-0.1 0,-0.2 0,-0.1 -0.1,-0.3 -0.1,-0.4 0,-0.1 -0.1,-0.2 -0.1,-0.4 0,-0.1 -0.1,-0.2 -0.1,-0.3 0,0 0,-0.1 -0.1,-0.1 0,0 0,-0.1 -0.1,-0.1 -0.1,-0.1 -0.1,-0.2 -0.1,-0.2 0,0 0.1,0.1 0.3,0.2 0,0 0.1,0.1 0.1,0.1 0,0 0.1,0.1 0.1,0.1 0,0 0.1,0.1 0.1,0.1 0,0 0.1,0.1 0.1,0.2 0.1,0.1 0.2,0.2 0.2,0.4 0.1,0.1 0.1,0.3 0.2,0.4 0.1,0.1 0.1,0.3 0.1,0.4 0,0.1 0.1,0.3 0.1,0.4 0,0.1 0,0.3 0,0.4 0,0.1 0,0.3 0,0.4 0,0.1 0,0.3 0,0.4 0,0.1 0,0.2 -0.1,0.4 0,0.2 -0.1,0.4 -0.2,0.5 0.3,0.1 0.3,0.2 0.3,0.2 z"
       style="fill:#994141" /><path
       id="path37"
       d="m 132.2,87.4 c 0,0 0,-0.1 0.1,-0.2 0,-0.1 0.1,-0.3 0.1,-0.5 0,-0.1 0,-0.2 0.1,-0.4 0,-0.1 0,-0.3 0.1,-0.4 0,-0.1 0,-0.3 0.1,-0.4 0,-0.1 0,-0.3 0.1,-0.4 0,-0.1 0,-0.3 0.1,-0.4 0,-0.1 0,-0.1 0,-0.2 0,-0.1 0,-0.1 0,-0.2 0,-0.1 0.1,-0.3 0.1,-0.4 0,-0.1 0.1,-0.2 0.1,-0.4 0,-0.1 0.1,-0.2 0.1,-0.3 0,0 0,-0.1 0.1,-0.1 0,0 0,-0.1 0.1,-0.1 0.1,-0.1 0.1,-0.2 0.1,-0.2 0,0 -0.1,0.1 -0.3,0.2 0,0 -0.1,0.1 -0.1,0.1 0,0 -0.1,0.1 -0.1,0.1 0,0 -0.1,0.1 -0.1,0.1 0,0 -0.1,0.1 -0.1,0.2 -0.1,0.1 -0.2,0.2 -0.2,0.4 -0.1,0.1 -0.1,0.3 -0.2,0.4 -0.1,0.1 -0.1,0.3 -0.1,0.4 0,0.1 -0.1,0.3 -0.1,0.4 0,0.1 0,0.3 0,0.4 0,0.1 0,0.3 0,0.4 0,0.1 0,0.3 0,0.4 0,0.1 0,0.2 0.1,0.4 0,0.2 0.1,0.4 0.2,0.5 -0.3,0.1 -0.3,0.2 -0.3,0.2 z"
       style="fill:#994141" /></g></svg>