<?xml version="1.0" encoding="UTF-8" standalone="no"?>
<svg
   xmlns:dc="http://purl.org/dc/elements/1.1/"
   xmlns:cc="http://creativecommons.org/ns#"
   xmlns:rdf="http://www.w3.org/1999/02/22-rdf-syntax-ns#"
   xmlns:svg="http://www.w3.org/2000/svg"
   xmlns="http://www.w3.org/2000/svg"
   height="262"
   width="259"
   xml:space="preserve"
   viewBox="0 0 259 262"
   y="0px"
   x="0px"
   id="Layer_1"
   version="1.1"><metadata
     id="metadata147"><rdf:RDF><cc:Work
         rdf:about=""><dc:format>image/svg+xml</dc:format><dc:type
           rdf:resource="http://purl.org/dc/dcmitype/StillImage" /><dc:title></dc:title></cc:Work></rdf:RDF></metadata><defs
     id="defs145" /><rect
     id="rect3"
     height="38"
     width="247.8"
     style="fill:#bbc199"
     y="224"
     x="5.5999999" /><g
     transform="translate(-23.3,0.49999401)"
     id="g5"><g
       id="g7"><polygon
         id="polygon9"
         points="205.6,51.3 205.6,60 214.6,66.6 197.8,76.2 182.4,65 193.2,60.6 193.2,51.3 "
         style="fill:#edcaab" /><path
         id="path11"
         d="m 187.1,230.7 -1.4,16.1 c -0.1,0.8 0.4,1.7 1.1,2 l 5.6,2.9 c 0.7,0.3 1.7,0.2 2.2,-0.3 l 1.8,-1.8 c 0.5,-0.5 1,-1.6 1,-2.3 l -0.1,-5 c 0,-0.8 -0.1,-2 -0.1,-2.7 l -0.6,-7.6 c -0.1,-0.8 -0.6,-1.7 -1.2,-2.2 l -0.6,-0.5 c -0.6,-0.5 -1.7,-0.7 -2.4,-0.4 l -5.5,1.8" /><path
         id="path13"
         d="m 187.8,231.4 c 0.1,0.3 -0.4,10.7 -0.4,10.7 0,0.8 0.5,1.6 1.2,2 l 2.5,1.2 c 0.7,0.3 1.8,0.3 2.5,0 l 2,-1 c 0.7,-0.3 1.2,-1.2 1.1,-2 l -1.2,-10.9 c -0.1,-0.7 -0.8,-1.3 -1.5,-1.1 l -6.2,1.1 z"
         style="fill:#edcaab" /><path
         id="path15"
         d="m 209.7,230.7 1.4,16.1 c 0.1,0.8 -0.4,1.7 -1.1,2 l -5.6,2.9 c -0.7,0.3 -1.7,0.2 -2.2,-0.3 l -1.8,-1.8 c -0.5,-0.5 -1,-1.6 -1,-2.3 l 0.1,-5 c 0,-0.8 0.1,-2 0.1,-2.7 l 0.6,-7.6 c 0.1,-0.8 0.6,-1.7 1.2,-2.2 l 0.6,-0.5 c 0.6,-0.5 1.7,-0.7 2.4,-0.4 l 5.5,1.8" /><path
         id="path17"
         d="m 209,231.4 c -0.1,0.3 0.4,10.7 0.4,10.7 0,0.8 -0.5,1.6 -1.2,2 l -2.5,1.2 c -0.7,0.3 -1.8,0.3 -2.5,0 l -2,-1 c -0.7,-0.3 -1.2,-1.2 -1.1,-2 l 1.2,-10.9 c 0.1,-0.7 0.8,-1.3 1.5,-1.1 l 6.2,1.1 z"
         style="fill:#edcaab" /><path
         id="path19"
         d="m 220,126.1 c -0.9,-0.9 -8.3,-1.6 -17.5,-2.8 l 0.2,-1.1 c -1.4,0.2 -2.8,0.3 -4.3,0.5 -1.5,-0.2 -2.9,-0.4 -4.3,-0.5 l 0.2,1.1 c -9.2,1.3 -16.5,1.7 -17.5,2.7 -1,1 4,43.7 5.5,50.6 0,0 -0.5,35.3 4.5,55.3 0,0 4.8,1.5 9.9,0 0,0 -1,-14.2 -0.9,-21.2 0.2,-7 2.6,-64.1 2.6,-64.1 0,0 2.4,57.1 2.6,64.1 0.2,7 -0.9,21.2 -0.9,21.2 5.1,1.5 9.9,0 9.9,0 5,-20 4.5,-55.3 4.5,-55.3 1.5,-6.9 6.4,-49.6 5.5,-50.5 z"
         style="fill:#262c35" /><path
         id="path21"
         d="m 192.3,54.2 c 0,0 3.5,6.1 7.1,6.1 3.6,0 6.4,-6.1 6.4,-6.1 l -13.5,0 z"
         style="fill:#ddba9b" /><path
         id="path23"
         d="m 217.6,74.6 c 0,0 5,0.3 8.2,0 0,0 -0.2,23.4 0.1,24.7 0.3,1.3 1.1,5.9 1.1,8.6 -0.1,2.7 -0.7,14.2 -1.1,18 -0.4,3.8 -0.3,6 -0.5,8.8 -0.2,2.7 -0.6,4.5 -0.6,5.9 0,1.4 0.3,4.5 0.5,5.7 0.3,1.2 0.6,2.6 0.1,4.3 -0.5,1.6 -1.3,4 -1.6,4.9 -0.3,0.8 -0.4,1.4 -2,2.3 -1.5,0.9 -5.7,3.9 -6.3,3.1 -0.7,-0.8 1,-2.2 1,-2.2 0,0 2.7,-2.3 3.2,-3.2 0.5,-0.9 2.4,-7.2 0.3,-7.4 0,0 -0.5,0.6 -0.5,1.6 0,1 -0.2,5 -2,5 -1.9,0 -0.7,-6.9 -0.6,-8.2 0.1,-1.3 0.1,-4.3 0.9,-6 0.8,-1.7 1.5,-2.9 1.9,-4.3 0.4,-1.4 0.3,-6.8 0,-10.1 -0.3,-3.4 -2.4,-19.3 -2.4,-20.9 -0.1,-1.8 0.3,-30.6 0.3,-30.6 z"
         style="fill:#edcaab" /><path
         id="path25"
         d="m 178.9,74.6 c 0,0 -5,0.3 -8.2,0 0,0 0.2,23.4 -0.1,24.7 -0.3,1.3 -1.1,5.9 -1.1,8.6 0.1,2.7 0.7,14.2 1.1,18 0.4,3.8 0.3,6 0.5,8.8 0.2,2.7 0.6,4.5 0.6,5.9 0,1.4 -0.3,4.5 -0.5,5.7 -0.3,1.2 -0.6,2.6 -0.1,4.3 0.5,1.6 1.3,4 1.6,4.9 0.3,0.8 0.4,1.4 2,2.3 1.5,0.9 5.7,3.9 6.3,3.1 0.7,-0.8 -1,-2.2 -1,-2.2 0,0 -2.7,-2.3 -3.2,-3.2 -0.5,-0.9 -2.4,-7.2 -0.3,-7.4 0,0 0.5,0.6 0.5,1.6 0,1 0.2,5 2,5 1.9,0 0.7,-6.9 0.6,-8.2 -0.1,-1.3 -0.1,-4.3 -0.9,-6 -0.8,-1.7 -1.5,-2.9 -1.9,-4.3 -0.4,-1.4 -0.3,-6.8 0,-10.1 0.3,-3.4 2.4,-19.3 2.4,-20.9 0.1,-1.8 -0.3,-30.6 -0.3,-30.6 z"
         style="fill:#edcaab" /><path
         id="path27"
         d="m 221.8,66.9 c -2.1,-1.8 -5.3,-3.2 -10,-3.2 l -3.8,-1.9 -9.3,11.2 -8.5,-11.1 -5.4,1.9 c -4.7,0 -7.8,1.5 -10,3.2 -5.3,4.3 -4.4,11.8 -4.4,11.8 0.3,0.2 0.6,0.4 0.9,0.6 1.5,0.9 3.2,1.8 3.2,1.8 0,0 3.4,7.7 5.3,11.7 0.7,1.4 1.1,2.4 1.1,2.4 l -5.5,40.2 c 7.9,1.4 16.5,1.7 23.4,1.4 6.9,0.3 15.1,0 23,-1.4 l -5.9,-40.2 c 0,0 0.4,-1 1.1,-2.4 1.8,-4 5.3,-11.7 5.3,-11.7 0,0 1.7,-0.9 3.2,-1.8 0.3,-0.2 0.6,-0.4 0.8,-0.6 -0.1,0 0.8,-7.5 -4.5,-11.9 z"
         style="fill:#b24d4b" /><g
         id="g29"><path
           id="path31"
           d="m 199.3,25.9 c -5.5,0 -10.1,5.7 -11.1,13.2 -0.3,-0.1 -0.7,-0.1 -1,-0.1 -1.4,0.1 -0.1,6.4 1.2,7.3 1.3,7 5.7,12.2 10.9,12.2 l -0.5,0 c 5.3,0 9.7,-5.2 10.9,-12.2 1.3,-0.9 2.6,-7.2 1.2,-7.3 -0.4,0 -0.7,0 -1,0.1 -1,-7.5 -5.6,-13.2 -11.1,-13.2 l 0.5,0 z"
           style="fill:#edcaab" /></g><path
         id="path33"
         d="m 212.4,39.6 c 0,0 -0.1,-5.5 -2.9,-10.2 -2.7,-4.6 -9.9,-7.5 -16,-4.2 -4,-0.8 -8.8,11.7 -5.1,13.8 l 0.7,3.1 0.2,-4.2 0.8,-2.8 0.9,-1.8 1.4,-1.7 3.3,-1.7 c 0,0 4.8,1.6 7.8,4.8 2.1,2.2 5.1,3.7 5.1,3.7 0,0 -0.6,-0.3 0.9,0.4 0,0 0.7,2.6 0.7,5 0.1,2.4 -2.4,10.4 -2.4,10.4 0,0 3.1,-3.5 4.2,-6.9 1,-3.1 0.4,-7.7 0.4,-7.7 z"
         style="fill:#cea357" /></g><path
       id="path35"
       d="m 220.5,82 c 0,0 0,-0.1 -0.1,-0.2 0,-0.1 -0.1,-0.3 -0.1,-0.6 0,-0.1 0,-0.2 -0.1,-0.4 0,-0.1 0,-0.3 -0.1,-0.4 0,-0.1 0,-0.3 -0.1,-0.4 0,-0.1 0,-0.3 -0.1,-0.5 0,-0.2 0,-0.3 -0.1,-0.5 0,-0.1 0,-0.1 0,-0.2 0,-0.1 0,-0.1 0,-0.2 0,-0.1 -0.1,-0.3 -0.1,-0.4 0,-0.1 -0.1,-0.3 -0.1,-0.4 0,-0.1 -0.1,-0.2 -0.1,-0.3 0,0 0,-0.1 -0.1,-0.1 0,0 0,-0.1 -0.1,-0.1 -0.1,-0.1 -0.1,-0.2 -0.1,-0.2 0,0 0.1,0.1 0.3,0.2 0,0 0.1,0.1 0.1,0.1 0,0 0.1,0.1 0.1,0.1 0,0 0.1,0.1 0.1,0.1 0.1,0.1 0.1,0.1 0.1,0.2 0.1,0.1 0.2,0.2 0.2,0.4 0.1,0.1 0.2,0.3 0.2,0.4 0.1,0.1 0.1,0.3 0.2,0.4 0,0.2 0.1,0.3 0.1,0.5 0,0.2 0,0.3 0,0.5 0,0.2 0,0.3 0,0.4 0,0.1 0,0.3 0,0.4 0,0.1 0,0.3 -0.1,0.4 0,0.2 -0.1,0.4 -0.2,0.6 0.3,0.1 0.2,0.2 0.2,0.2 z"
       style="fill:#994141" /><path
       id="path37"
       d="m 175.6,82 c 0,0 0,-0.1 0.1,-0.2 0,-0.1 0.1,-0.3 0.1,-0.6 0,-0.1 0,-0.2 0.1,-0.4 0,-0.1 0,-0.3 0.1,-0.4 0,-0.1 0,-0.3 0.1,-0.4 0,-0.1 0,-0.3 0.1,-0.5 0,-0.2 0,-0.3 0.1,-0.5 0,-0.1 0,-0.1 0,-0.2 0,-0.1 0,-0.1 0,-0.2 0,-0.1 0.1,-0.3 0.1,-0.4 0,-0.1 0.1,-0.3 0.1,-0.4 0,-0.1 0.1,-0.2 0.1,-0.3 0,0 0,-0.1 0.1,-0.1 0,0 0,-0.1 0.1,-0.1 0.1,-0.1 0.1,-0.2 0.1,-0.2 0,0 -0.1,0.1 -0.3,0.2 0,0 -0.1,0.1 -0.1,0.1 0,0 -0.1,0.1 -0.1,0.1 0,0 -0.1,0.1 -0.1,0.1 -0.1,0.1 -0.1,0.1 -0.1,0.2 -0.1,0.1 -0.2,0.2 -0.2,0.4 -0.1,0.1 -0.2,0.3 -0.2,0.4 -0.1,0.1 -0.1,0.3 -0.2,0.4 0,0.2 -0.1,0.3 -0.1,0.5 0,0.2 0,0.3 0,0.5 0,0.2 0,0.3 0,0.4 0,0.1 0,0.3 0,0.4 0,0.1 0,0.3 0.1,0.4 0,0.2 0.1,0.4 0.2,0.6 -0.2,0.1 -0.2,0.2 -0.2,0.2 z"
       style="fill:#994141" /></g><g
     transform="translate(-23.3,0.49999401)"
     id="g39"><g
       id="g41"><path
         id="path43"
         d="m 98,234.1 c 0,0 -2.4,-0.4 -3.6,7.3 -1.2,7.7 -3.7,12.6 4.2,14 0,0 5.8,-0.5 5.9,-4.1 0.1,-3.6 0.2,-7.2 0.4,-10 0.1,-2.8 1.2,-11.8 -6.9,-7.2 z"
         style="fill:#363946" /><path
         id="path45"
         d="m 89.5,154.2 c 0,0 1,6.6 0.8,8.6 -0.2,2 -0.2,10.6 -0.4,11.8 -0.2,1.1 -2.3,10.8 -0.4,21.3 1.9,10.4 6.5,24.5 6.6,26.4 0,0 0.2,4.2 0,5.4 -0.2,1.2 -0.5,2.6 -0.3,3.4 0.2,0.9 0.8,2 0.7,3.2 -0.1,1.2 -2.5,9.2 -2.2,13.9 l 7.3,0 c 0,0 2.1,0.1 2.3,-2.8 0.3,-2.9 0.8,-9.4 0.8,-10.4 0,-0.9 -0.6,-2.5 -0.6,-3.2 0,-0.6 0.1,-3.9 -0.3,-4.8 -0.4,-0.9 -1.5,-3.2 -1.6,-5.9 -0.1,-2.7 -0.1,-12.1 0.6,-17.2 0.7,-5.1 0.8,-9.5 0.5,-11.7 -0.3,-2.2 -1.3,-9.5 -0.8,-12 0.5,-2.4 1.5,-6.3 1.7,-8.4 0.3,-2.1 0,-18.2 0,-18.2 l -14.7,0.6 z"
         style="fill:#d3a56f" /></g><g
       id="g47"><path
         id="path49"
         d="m 116.8,234.1 c 0,0 2.4,-0.4 3.6,7.3 1.2,7.7 3.7,12.6 -4.2,14 0,0 -5.8,-0.5 -5.9,-4.1 -0.1,-3.6 -0.2,-7.2 -0.4,-10 -0.1,-2.8 -1.2,-11.8 6.9,-7.2 z"
         style="fill:#363946" /><path
         id="path51"
         d="m 125.2,154.2 c 0,0 -1,6.6 -0.8,8.6 0.2,2 0.2,10.6 0.4,11.8 0.2,1.1 2.3,10.8 0.4,21.3 -1.9,10.4 -6.5,24.5 -6.6,26.4 0,0 -0.2,4.2 0,5.4 0.2,1.2 0.5,2.6 0.3,3.4 -0.2,0.9 -0.8,2 -0.7,3.2 0.1,1.2 2.5,9.2 2.2,13.9 l -7.3,0 c 0,0 -2.1,0.1 -2.3,-2.8 -0.3,-2.9 -0.8,-9.4 -0.8,-10.4 0,-0.9 0.6,-2.5 0.6,-3.2 0,-0.6 -0.1,-3.9 0.3,-4.8 0.4,-0.9 1.5,-3.2 1.6,-5.9 0.1,-2.7 0.1,-12.1 -0.6,-17.2 -0.7,-5.1 -0.8,-9.5 -0.5,-11.7 0.3,-2.2 1.3,-9.5 0.8,-12 -0.5,-2.4 -1.5,-6.3 -1.7,-8.4 -0.3,-2.1 0,-18.2 0,-18.2 l 14.7,0.6 z"
         style="fill:#d3a56f" /></g><g
       id="g53"><path
         id="path55"
         d="m 135.2,82.8 c 2.7,-0.5 6,-1.7 6,-1.7 0,0 -2.9,-16.9 -4.6,-24.9 -1.7,-8 -3.4,-10.6 -4.6,-11.6 -1.2,-1 -4.8,-1.5 -7.4,-2.2 -2.6,-0.8 -7.3,-2.3 -7.3,-2.3 0,0 -0.9,-1.7 -1.3,-3.1 -0.4,-1.4 -2.4,-0.9 -2.4,-0.9 0,0 -2.8,-0.2 -5.5,-0.5 l 0,0 c 0,0 0,0 0,0 0,0 0,0 0,0 l 0,0 c -3.4,0.2 -5.7,0.5 -5.7,0.5 0,0 -2.1,-0.5 -2.5,0.9 -0.4,1.4 -1.3,3.1 -1.3,3.1 0,0 -4.7,1.6 -7.4,2.3 -2.6,0.8 -6.2,1.3 -7.4,2.2 -1.2,1 -2.9,3.6 -4.6,11.6 -1.7,8 -4.6,24.9 -4.6,24.9 0,0 3.3,1.2 6,1.7 2.7,0.5 7.2,0.3 7.2,0.3 0,0 -3.2,12.7 -3.6,19.3 -0.4,6.6 -1.3,23.9 -0.3,37.5 1,13.6 1.2,14.9 1.2,14.9 0,0 12.3,0.6 22.2,0.5 0.2,0 0.4,0 0.6,0 0.2,0 0.4,0 0.6,0 9.9,0.1 22.2,-0.5 22.2,-0.5 0,0 0.2,-1.3 1.2,-14.9 1,-13.6 0.1,-30.9 -0.3,-37.5 -0.4,-6.6 -3.6,-19.3 -3.6,-19.3 0,0 4.6,0.2 7.2,-0.3 z"
         style="fill:#1b2a35" /></g><path
       id="path57"
       d="m 128,82.7 c 0,0 4.8,0.3 7.8,0 0,0 -0.2,1.5 0.1,2.8 0.3,1.3 1.1,5.7 1,8.3 0,2.6 -0.7,13.6 -1,17.2 -0.4,3.6 -0.3,5.8 -0.5,8.4 -0.2,2.6 -0.6,4.4 -0.6,5.7 0,1.3 0.3,4.4 0.5,5.5 0.3,1.1 0.6,2.5 0.1,4.1 -0.5,1.6 -1.3,3.9 -1.6,4.7 -0.3,0.8 -0.4,1.4 -1.9,2.2 -1.5,0.9 -5.4,3.7 -6.1,2.9 -0.7,-0.8 0.9,-2.1 0.9,-2.1 0,0 2.6,-2.2 3.1,-3.1 0.5,-0.9 2.3,-6.9 0.3,-7.1 0,0 -0.5,0.6 -0.5,1.5 0,0.9 -0.2,4.8 -1.9,4.8 -1.8,0 -0.7,-6.6 -0.6,-7.9 0.1,-1.2 0.1,-4.2 0.9,-5.8 0.8,-1.6 1.5,-2.7 1.8,-4.1 0.4,-1.4 0.3,-6.5 0,-9.7 -0.3,-3.2 -2.3,-18.5 -2.3,-20.1 0.1,-1.5 0.5,-8.2 0.5,-8.2 z"
       style="fill:#d3a56f" /><path
       id="path59"
       d="m 87.9,82.7 c 0,0 -4.8,0.4 -7.8,0 0,0 0.2,1.5 -0.1,2.7 -0.3,1.3 -1.1,5.7 -1,8.3 0,2.6 0.7,13.6 1,17.2 0.4,3.6 0.3,5.8 0.5,8.4 0.2,2.6 0.6,4.4 0.6,5.7 0,1.3 -0.3,4.4 -0.5,5.5 -0.3,1.1 -0.6,2.5 -0.1,4.1 0.5,1.6 1.3,3.9 1.6,4.7 0.3,0.8 0.4,1.4 1.9,2.2 1.5,0.9 5.4,3.7 6.1,2.9 0.7,-0.8 -0.9,-2.1 -0.9,-2.1 0,0 -2.6,-2.2 -3.1,-3.1 -0.5,-0.9 -2.3,-6.9 -0.3,-7.1 0,0 0.5,0.6 0.5,1.5 0,0.9 0.2,4.8 1.9,4.8 1.8,0 0.7,-6.6 0.6,-7.9 0,-1.2 -0.1,-4.2 -0.9,-5.8 -0.8,-1.6 -1.5,-2.7 -1.8,-4.1 -0.4,-1.4 -0.3,-6.5 0,-9.7 0.3,-3.2 2.3,-18.5 2.3,-20.1 -0.1,-1.4 -0.5,-8.1 -0.5,-8.1 z"
       style="fill:#d3a56f" /><path
       id="path61"
       d="m 114.6,34.7 c -0.4,-2 -0.5,-6.1 -0.5,-6.1 l -6.1,-2.9 0,0 0,0 0,0 0,0 -6.2,2.9 c 0,0 -0.2,4.2 -0.6,6.1 -0.4,2 -0.6,3.6 -0.6,3.6 0,0 1.2,1.4 3.1,2.4 1.8,0.9 3.1,1.5 4.4,1.5 l 0,0 c 0,0 0,0 0,0 0,0 0,0 0,0 l 0,0 c 1.4,0 2.4,-0.6 4.3,-1.5 1.9,-0.9 2.9,-2.4 2.9,-2.4 0,0 -0.3,-1.6 -0.7,-3.6 z"
       style="fill:#d3a56f" /><path
       id="path63"
       d="m 108.1,42.2 0,0 0,0 z"
       style="fill:#deb079" /><path
       id="path65"
       d="m 108,42.2 0,0 0,0 c 0,0 0.1,0 0,0 z"
       style="fill:#deb079" /><path
       id="path67"
       d="m 101.3,32.2 c 0,0 3.3,5.9 6.8,5.9 3.5,0 6.1,-5.8 6.1,-5.8 l -12.9,-0.1 z"
       style="fill:#c49669" /><path
       id="path69"
       d="m 114.3,168.9 c 0,0 -1,3.9 -0.4,5.9 0.6,2 1.9,5.5 3.6,8.2 -2.5,-2.6 -4.1,-6.3 -4.4,-8.4 -0.2,-2.2 0,-4.9 1.2,-5.7 z"
       style="fill:#c49669" /><path
       id="path71"
       d="m 100.5,168.9 c 0,0 1,3.9 0.4,5.9 -0.6,2 -1.9,5.5 -3.6,8.2 2.5,-2.6 4.1,-6.3 4.4,-8.4 0.3,-2.2 0.1,-4.9 -1.2,-5.7 z"
       style="fill:#c49669" /><path
       id="path73"
       d="m 87.9,82.7 c 0,0 0,-0.5 -0.1,-1.3 -0.1,-0.8 -0.1,-2 -0.2,-3.4 0,-0.7 -0.1,-1.5 -0.1,-2.3 0,-0.8 -0.1,-1.7 -0.1,-2.6 0,-0.9 -0.1,-1.8 -0.1,-2.7 0,-0.9 -0.1,-1.9 -0.1,-2.8 0,-0.9 -0.1,-1.9 -0.1,-2.8 0,-0.5 -0.1,-0.9 -0.1,-1.4 0,-0.5 -0.1,-0.9 -0.1,-1.3 -0.1,-0.9 -0.1,-1.7 -0.2,-2.5 -0.1,-0.8 -0.1,-1.6 -0.2,-2.3 -0.1,-0.7 -0.2,-1.3 -0.2,-1.9 0,-0.3 -0.1,-0.6 -0.1,-0.8 0,-0.2 -0.1,-0.5 -0.1,-0.7 -0.1,-0.8 -0.2,-1.3 -0.2,-1.3 0,0 0.2,0.4 0.5,1.2 0.1,0.2 0.2,0.4 0.2,0.7 0.1,0.2 0.1,0.5 0.2,0.8 0.1,0.3 0.2,0.6 0.3,0.9 0.1,0.3 0.1,0.7 0.2,1 0.2,0.7 0.3,1.5 0.4,2.3 0.1,0.8 0.3,1.7 0.4,2.6 0.1,0.9 0.2,1.8 0.3,2.7 0.1,0.9 0.1,1.9 0.2,2.8 0,1 0.1,1.9 0.1,2.8 0,0.9 0,1.9 0,2.8 0,0.9 0,1.8 -0.1,2.6 0,0.8 -0.1,1.6 -0.1,2.3 -0.1,1.4 -0.2,2.6 -0.3,3.4 -0.2,0.7 -0.3,1.2 -0.3,1.2 z"
       style="fill:#0f171c" /><path
       id="path75"
       d="m 127.6,82.7 c 0,0 -0.1,-0.5 -0.2,-1.3 -0.1,-0.8 -0.2,-2 -0.3,-3.4 0,-0.7 -0.1,-1.5 -0.1,-2.3 0,-0.8 -0.1,-1.7 -0.1,-2.6 0,-0.9 0,-1.8 0,-2.8 0,-0.9 0,-1.9 0.1,-2.8 0.1,-1 0.1,-1.9 0.2,-2.8 0.1,-0.9 0.2,-1.9 0.3,-2.7 0.1,-0.9 0.2,-1.7 0.4,-2.6 0.1,-0.8 0.3,-1.6 0.4,-2.3 0.1,-0.4 0.1,-0.7 0.2,-1 0.1,-0.3 0.2,-0.6 0.3,-0.9 0.1,-0.3 0.2,-0.5 0.2,-0.8 0.1,-0.2 0.2,-0.5 0.2,-0.7 0.3,-0.8 0.5,-1.2 0.5,-1.2 0,0 -0.1,0.5 -0.2,1.3 0,0.2 -0.1,0.4 -0.1,0.7 0,0.2 -0.1,0.5 -0.1,0.8 -0.1,0.6 -0.2,1.2 -0.2,1.9 -0.1,0.7 -0.2,1.5 -0.2,2.3 -0.1,0.8 -0.1,1.7 -0.2,2.5 0,0.4 -0.1,0.9 -0.1,1.3 0,0.5 0,0.9 -0.1,1.4 -0.1,0.9 -0.1,1.9 -0.1,2.8 -0.1,0.9 -0.1,1.9 -0.1,2.8 0,0.9 -0.1,1.8 -0.1,2.7 0,0.9 -0.1,1.7 -0.1,2.6 0,0.8 -0.1,1.6 -0.1,2.3 -0.1,1.4 -0.2,2.6 -0.2,3.4 -0.1,0.9 -0.2,1.4 -0.2,1.4 z"
       style="fill:#0f171c" /><path
       id="path77"
       d="m 118.4,25 c 0.5,4.5 3.5,14.3 3.5,14.3 0,0 -0.9,4.3 -5.5,2.5 -4.6,-1.8 -4.5,-0.8 -4.5,-0.8 0,0 0.8,-4.3 0,-11.7 -0.8,-7.4 -4.1,-16 -4.1,-16 l 9,0.6 1.6,11.1 z"
       style="fill:#3f2a14" /><g
       id="g79"><path
         id="path81"
         d="m 107.9,4.8 c -5.3,0 -9.7,5.4 -10.7,12.6 -0.3,-0.1 -0.6,-0.1 -1,-0.1 -1.3,0.1 -0.1,6.1 1.1,7 1.2,6.7 5.4,11.7 10.5,11.7 l -0.5,0 c 5.1,0 9.3,-5 10.5,-11.7 1.3,-0.9 2.5,-6.9 1.1,-7 -0.3,0 -0.7,0 -1,0.1 -1,-7.2 -5.4,-12.6 -10.7,-12.6 l 0.7,0 z"
         style="fill:#d3a56f" /></g><path
       id="path83"
       d="m 96.3,16.8 c 0,0 -1.2,-4.6 1.5,-9.2 2.6,-4.4 9.5,-7.2 15.4,-4 3.8,-0.7 8.5,11.2 4.9,13.2 l -0.7,3 -0.2,-4.1 -0.8,-2.7 -0.9,-1.8 -1.4,-1.7 -3.1,-1.6 c 0,0 -4.6,1.6 -7.5,4.6 -2,2.1 -4.9,3.5 -4.9,3.5 0,0 0.6,-0.3 -0.9,0.4 0,0 0.3,1.6 0.2,3.9 -0.1,2.3 0.3,7.8 0.6,10.6 0.4,2.8 0.9,4.9 0.9,4.9 0,0 -2.8,-8.4 -3,-10.4 -0.2,-2 -0.1,-8.6 -0.1,-8.6 z"
       style="fill:#3f2a14" /></g><g
     transform="translate(-23.3,0.49999401)"
     id="g85"><path
       id="path87"
       d="m 155.8,7.3 c 0,0 1.7,2.5 1.5,4.7 0,0 1.9,-1.6 1.4,-3.2 l -2.9,-1.5 z"
       style="fill:#777572" /><g
       id="g89"><rect
         id="rect91"
         height="31.1"
         width="14"
         style="fill:#deb079"
         y="28.4"
         x="144" /><g
         id="g93"><path
           id="path95"
           d="m 151.1,43.1 c 3.2,0 6.9,-6.1 6.9,-6.1 l -14,0 c 0,0 3.8,6.1 7.1,6.1 z"
           style="fill:#ce9f68" /></g><g
         id="g97"><path
           id="path99"
           d="m 165.4,21.3 c -0.9,-1.4 -2.1,0 -2.1,0 C 165.8,7.6 159,4.6 152.6,3.7 c 0,0 -1.2,-0.2 -1.5,-0.1 -0.3,0 -1.5,0.1 -1.5,0.1 -6.3,0.9 -13.2,3.9 -10.7,17.6 0,0 -1.3,-1.4 -2.1,0 -0.9,1.4 1.6,7.7 3.8,7.1 0,0 2.1,12.4 10.6,12.4 8.5,0 10.6,-12.4 10.6,-12.4 1.9,0.6 4.4,-5.6 3.6,-7.1 z"
           style="fill:#deb079" /></g><path
         id="path101"
         d="m 150.8,2.8 c -14.7,0 -17,23.6 -17,26.1 0,2.5 7.1,6.2 8.3,4.4 1.3,-1.9 -2.1,-6.5 -2.1,-12.5 0,-4.7 3,-6.2 5.4,-8.6 2.4,-2.4 15.7,3 15.7,6.5 0,3.5 -1.3,13.2 -1.3,14.1 0,0.9 0.7,1.6 1.6,1.6 0.9,0 5,-3.8 6.5,-6.7 1.5,-3.1 -2.4,-24.9 -17.1,-24.9 z"
         style="fill:#777572" /></g><g
       id="g103"><path
         id="path105"
         d="m 143.2,238.3 c 0,0 -2.4,-0.4 -3.6,7.3 -1.2,7.7 -3.7,12.6 4.2,14 0,0 5.8,-0.5 5.9,-4.1 0.1,-3.6 0.2,-7.2 0.4,-10 0.1,-2.7 1.2,-11.7 -6.9,-7.2 z"
         style="fill:#363946" /><path
         id="path107"
         d="m 134.8,158.4 c 0,0 1,6.6 0.8,8.6 -0.2,2 -0.2,10.6 -0.4,11.8 -0.2,1.1 -2.3,10.8 -0.4,21.3 1.9,10.4 6.5,24.5 6.6,26.4 0,0 0.2,4.2 0,5.4 -0.2,1.2 -0.5,2.6 -0.3,3.4 0.2,0.9 0.8,2 0.7,3.2 -0.1,1.2 -2.5,9.2 -2.2,13.9 l 7.3,0 c 0,0 2.1,0.1 2.3,-2.8 0.3,-2.9 0.8,-9.4 0.8,-10.4 0,-0.9 -0.6,-2.5 -0.6,-3.2 0,-0.6 0.1,-3.9 -0.3,-4.8 -0.4,-0.9 -1.5,-3.2 -1.6,-5.9 -0.1,-2.7 -0.1,-12.1 0.6,-17.2 0.7,-5.1 0.8,-9.5 0.5,-11.7 -0.3,-2.2 -1.3,-9.5 -0.8,-12 0.5,-2.4 1.5,-6.3 1.7,-8.4 0.3,-2.1 0,-18.2 0,-18.2 l -14.7,0.6 z"
         style="fill:#d3a56f" /></g><g
       id="g109"><path
         id="path111"
         d="m 162.1,238.3 c 0,0 2.4,-0.4 3.6,7.3 1.2,7.7 3.7,12.6 -4.2,14 0,0 -5.8,-0.5 -5.9,-4.1 -0.1,-3.6 -0.2,-7.2 -0.4,-10 -0.2,-2.7 -1.3,-11.7 6.9,-7.2 z"
         style="fill:#363946" /><path
         id="path113"
         d="m 170.5,158.4 c 0,0 -1,6.6 -0.8,8.6 0.2,2 0.2,10.6 0.4,11.8 0.2,1.1 2.3,10.8 0.4,21.3 -1.9,10.4 -6.5,24.5 -6.6,26.4 0,0 -0.2,4.2 0,5.4 0.2,1.2 0.5,2.6 0.3,3.4 -0.2,0.9 -0.8,2 -0.7,3.2 0.1,1.2 2.5,9.2 2.2,13.9 l -7.3,0 c 0,0 -2.1,0.1 -2.3,-2.8 -0.3,-2.9 -0.8,-9.4 -0.8,-10.4 0,-0.9 0.6,-2.5 0.6,-3.2 0,-0.6 -0.1,-3.9 0.3,-4.8 0.4,-0.9 1.5,-3.2 1.6,-5.9 0.1,-2.7 0.1,-12.1 -0.6,-17.2 -0.7,-5.1 -0.8,-9.5 -0.5,-11.7 0.3,-2.2 1.3,-9.5 0.8,-12 -0.5,-2.4 -1.5,-6.3 -1.7,-8.4 -0.3,-2.1 0,-18.2 0,-18.2 l 14.7,0.6 z"
         style="fill:#d3a56f" /></g><path
       id="path115"
       d="m 159.6,173.1 c 0,0 -1,3.9 -0.4,5.9 0.6,2 1.9,5.5 3.6,8.2 -2.5,-2.6 -4.1,-6.3 -4.4,-8.4 -0.3,-2.2 -0.1,-4.8 1.2,-5.7 z"
       style="fill:#c49669" /><path
       id="path117"
       d="m 145.8,173.1 c 0,0 1,3.9 0.4,5.9 -0.6,2 -1.9,5.5 -3.6,8.2 2.5,-2.6 4.1,-6.3 4.4,-8.4 0.2,-2.2 0.1,-4.8 -1.2,-5.7 z"
       style="fill:#c49669" /><path
       id="path119"
       d="m 161.8,42.3 16.2,5.1 c 0,0 15.6,10.9 16.3,31.6 l 5.5,60.3 c 0,0 1.6,2.5 -4.4,9.4 l 1.6,19.7 c 0,0 -2.1,4.1 -6.6,5.5 l 0.9,8.3 -6.9,3.9 c 0,0 -3,-4.1 -1.5,-7.6 l -3.1,-1.4 -1.1,-7.3 c 0,0 2.8,53.3 -4.6,61.7 0,0 -2.1,3.6 -11.5,-4.2 0,0 -7.6,5 -12.8,-0.5 0,0 -4.4,6.2 -9.6,-1.1 0,0 -5,7.6 -8.9,0 l -6.9,-46.3 -3.2,-1.4 0,-5.5 c 0,0 -5.1,2.3 -3.2,-17.7 0,0 -12.8,-3 -12.2,-16.3 l -0.8,-40.1 0.5,-9.9 c 0,0 -1.3,-4.6 1.2,-6.4 l 3,-9.6 c 0,0 -1.6,-15.1 10.1,-23.4 l 20.6,-6.9 10.4,13.5 c 0.1,0.1 1.8,-2.2 11,-13.4 z"
       style="fill:#252626" /><polygon
       id="polygon121"
       points="154.7,51.5 151,46.8 159.8,39.6 161.8,42.3 "
       style="fill:#ededed" /><polygon
       id="polygon123"
       points="147.8,52 151.3,46.8 142.7,39.6 140.5,42.3 "
       style="fill:#ededed" /><polygon
       id="polygon125"
       points="148.6,46.8 153.5,46.8 151.6,67.5 145.4,66.9 "
       style="fill:#dbd8d7" /><rect
       id="rect127"
       height="20.799999"
       width="6.1999998"
       style="fill:#ededed"
       transform="matrix(-0.9961,0.08788002,-0.08788002,-0.9961,309.6385,100.1264)"
       y="46.5"
       x="149.5" /><g
       id="g129"><path
         id="path131"
         d="m 119.6,143.2 c 0,-0.1 0,-0.2 0.1,-0.3 0.1,-0.4 0.3,-0.6 0.5,-0.7 0.1,0 0.2,0 0.3,0 0.1,0 0.1,0 0.2,0.1 0.1,0.1 0.2,0.1 0.3,0.2 0.3,0.3 0.5,0.7 0.5,1.1 0,0.4 0.2,1.1 0.5,1.7 0.3,0.6 0.6,1.1 1,1.5 0.1,0.1 0.1,0.1 0.2,0.2 0.1,0.1 0.2,0.1 0.3,0.2 0.2,0.1 0.4,0.1 0.6,0 0.4,-0.1 0.5,-0.8 0.5,-1.7 0,-0.4 0,-0.8 0,-1.2 0,-0.4 -0.1,-0.8 -0.1,-1.2 0,-0.2 -0.1,-0.5 -0.1,-0.7 0,-0.2 -0.1,-0.4 -0.1,-0.6 -0.2,-1 -0.3,-2 -0.4,-2.5 0,0 0,0 0,0 0,-0.2 -0.1,-0.4 -0.2,-0.6 0,-0.1 0,-0.1 -0.1,-0.2 -0.1,-0.2 -0.2,-0.4 -0.3,-0.7 0,0 0,0 0,0 -0.1,-0.3 -0.3,-0.6 -0.4,-0.8 0,0 0,0 0,-0.1 -0.4,-0.7 -0.8,-1.5 -1.2,-2.1 -0.4,-0.7 -0.7,-1.3 -0.8,-1.6 0,-0.2 -0.2,-0.9 -0.4,-2.1 l 3,-41.4 c 0,0 -8.9,-1.2 -9,-1.2 l -0.4,9.8 0,0 0,0 c 0,0 -0.3,1.3 -0.5,3.4 -0.4,2.6 -0.8,6.4 -0.9,10 0,1.6 0.1,3.6 0.2,5.7 0.1,1 0.2,2.1 0.3,3.2 0.2,1.6 0.3,3.2 0.5,4.7 0.1,0.9 0.2,1.8 0.3,2.7 0,0.1 0,0.2 0,0.3 0.2,1.3 0.3,2.3 0.4,3.2 0.1,0.6 0.1,1 0.1,1.3 0,0.4 0,1.1 0,1.8 0,0.8 0,1.6 0,2.5 0,0.6 0,1.2 0,1.9 0,0.6 0,1.2 0,1.8 0,0.3 0,0.6 0,0.8 0.1,1.4 0.2,2.4 0.5,2.8 0.2,0.3 0.5,0.8 0.9,1.3 1,1.6 2.5,3.7 3.7,4.4 0.8,0.5 1.9,1.2 2.9,1.7 1,0.5 1.9,0.8 2.3,0.3 0,-0.1 0.1,-0.1 0.1,-0.2 -0.4,-1.4 -5.6,-6.8 -5.3,-8.7 z"
         style="fill:#edcaab" /></g><path
       id="path133"
       d="m 123.1,134.1 c 0,0 -4.3,-3.7 -10.5,-0.6 l -2.2,-27.2 c 0,0 12.6,-9.2 12.8,-1 l -0.1,28.8 z"
       style="fill:#e3dfde" /><g
       id="g135"><path
         id="path137"
         d="m 180.3,146.3 c 0,-0.1 0,-0.2 -0.1,-0.3 -0.1,-0.4 -0.3,-0.6 -0.5,-0.7 -0.1,0 -0.2,0 -0.3,0 -0.1,0 -0.1,0 -0.2,0.1 -0.1,0.1 -0.2,0.1 -0.3,0.2 -0.3,0.3 -0.5,0.7 -0.5,1.1 0,0.4 -0.2,1.1 -0.5,1.7 -0.3,0.6 -0.6,1.1 -1,1.5 -0.1,0.1 -0.1,0.1 -0.2,0.2 -0.1,0.1 -0.2,0.1 -0.3,0.2 -0.2,0.1 -0.4,0.1 -0.6,0 -0.4,-0.1 -0.5,-0.8 -0.5,-1.7 0,-0.4 0,-0.8 0,-1.2 0,-0.4 0.1,-0.8 0.1,-1.2 0,-0.2 0.1,-0.5 0.1,-0.7 0,-0.2 0.1,-0.4 0.1,-0.6 0.2,-1 0.3,-2 0.4,-2.5 l 0,0 c 0,-0.2 0.1,-0.4 0.2,-0.6 0,-0.1 0,-0.1 0.1,-0.2 0.1,-0.2 0.2,-0.4 0.3,-0.7 0,0 0,0 0,0 0.1,-0.3 0.3,-0.6 0.4,-0.8 0,0 0,0 0,-0.1 0.4,-0.7 0.8,-1.5 1.2,-2.1 0.4,-0.7 0.7,-1.3 0.8,-1.6 0,-0.2 0.2,-0.9 0.4,-2.1 l -3,-41.4 c 0,0 8.9,-1.2 9,-1.2 l 0.4,9.8 0,0 0,0 c 0,0 0.3,1.3 0.5,3.4 0.4,2.6 0.8,6.4 0.9,10 0,1.6 -0.1,3.6 -0.2,5.7 -0.1,1 -0.2,2.1 -0.3,3.2 -0.2,1.6 -0.3,3.2 -0.5,4.7 -0.1,0.9 -0.2,1.8 -0.3,2.7 0,0.1 0,0.2 0,0.3 -0.2,1.3 -0.3,2.3 -0.4,3.2 -0.1,0.6 -0.1,1 -0.1,1.3 0,0.4 0,1.1 0,1.8 0,0.8 0,1.6 0,2.5 0,0.6 0,1.2 0,1.9 0,0.6 0,1.2 0,1.8 0,0.3 0,0.6 0,0.8 -0.1,1.4 -0.2,2.4 -0.5,2.8 -0.2,0.3 -0.5,0.8 -0.9,1.3 -1,1.6 -2.5,3.7 -3.7,4.4 -0.8,0.5 -1.9,1.2 -2.9,1.7 -1,0.5 -1.9,0.8 -2.3,0.3 0,-0.1 -0.1,-0.1 -0.1,-0.2 0.4,-1.3 5.6,-6.7 5.3,-8.7 z"
         style="fill:#edcaab" /></g><path
       id="path139"
       d="m 176.8,137.3 c 0,0 4.3,-3.7 10.5,-0.6 l 2.2,-27.2 c 0,0 -12.6,-9.2 -12.8,-1 l 0.1,28.8 z"
       style="fill:#e3dfde" /><polygon
       id="polygon141"
       points="185.8,110.7 114.1,110.7 108.9,105.1 110.5,99 112.4,88.4 114.1,81.4 185.8,81.4 187.5,88.4 189.4,94.2 191.5,102 "
       style="fill:#252626" /></g></svg>