<?xml version="1.0" encoding="UTF-8" standalone="no"?>
<svg
   xmlns:dc="http://purl.org/dc/elements/1.1/"
   xmlns:cc="http://creativecommons.org/ns#"
   xmlns:rdf="http://www.w3.org/1999/02/22-rdf-syntax-ns#"
   xmlns:svg="http://www.w3.org/2000/svg"
   xmlns="http://www.w3.org/2000/svg"
   version="1.1"
   id="Layer_1"
   x="0px"
   y="0px"
   viewBox="0 0 259 262"
   xml:space="preserve"
   width="259"
   height="262"><metadata
     id="metadata265"><rdf:RDF><cc:Work
         rdf:about=""><dc:format>image/svg+xml</dc:format><dc:type
           rdf:resource="http://purl.org/dc/dcmitype/StillImage" /><dc:title></dc:title></cc:Work></rdf:RDF></metadata><defs
     id="defs263" /><rect
     x="3.148864"
     y="223.99998"
     style="fill:#f2f2f2"
     width="243.5"
     height="38"
     id="rect3" /><path
     id="polygon9"
     d="M 202.04883 0.19921875 C 196.20987 0.19921875 188.3216 3.5364905 190.58203 16.59375 C 190.20733 16.410189 189.72656 16.353791 189.34961 17 C 188.64961 18.2 190.74883 23.499609 192.54883 23.099609 C 192.54883 23.099609 193.29426 27.43272 195.71094 30.558594 C 195.57374 32.097081 195.19889 33.848464 194.24805 34.699219 C 193.78207 35.095295 192.92708 35.656799 191.90625 36.275391 C 191.88354 36.203533 191.84961 36.099609 191.84961 36.099609 L 182.34961 41 C 182.34961 41 182.34961 41.195896 182.34961 41.199219 C 181.14961 41.399219 178.24961 41.999219 176.84961 43.699219 C 176.77825 43.785863 176.71614 43.905233 176.64844 44.003906 C 174.87505 43.425243 173.34961 42.900391 173.34961 42.900391 C 173.34961 42.900391 172.54844 41.200781 172.14844 39.800781 C 171.95694 39.130554 171.39904 38.900537 170.86914 38.837891 C 170.769 38.324634 170.77488 38.299827 170.64844 37.699219 C 170.50843 37.034204 170.41492 36.105783 170.33984 35.171875 C 172.13079 32.190161 172.94922 28.800781 172.94922 28.800781 C 174.94922 29.300781 176.84844 23.899609 176.14844 22.599609 C 175.74329 21.905071 175.19178 22.022862 174.78125 22.238281 C 177.67091 10.457931 170.42099 5.4003906 164.44922 5.4003906 C 158.71863 5.4003906 151.22531 8.4028413 152.49414 20.125 C 152.5714 20.909962 152.68788 21.732732 152.84961 22.599609 C 152.84961 22.599609 151.74922 21.399609 150.94922 22.599609 C 150.24922 23.799609 152.14922 29.300781 153.94922 28.800781 C 153.94922 28.800781 155.41536 32.546043 157.8418 35.626953 C 157.75905 36.40098 157.66576 37.143809 157.54883 37.699219 C 157.45496 38.145069 157.40973 38.474463 157.33789 38.878906 C 156.86366 38.979301 156.41223 39.226128 156.24805 39.800781 C 155.84805 41.200781 154.94922 42.900391 154.94922 42.900391 C 154.94922 42.900391 150.34805 44.399219 147.74805 45.199219 C 147.66643 45.221191 147.57157 45.240119 147.48828 45.261719 L 133.84961 41 L 131.84961 38.400391 L 130.14844 39.789062 L 130.14844 35.886719 C 130.94938 34.813113 131.58523 33.63192 132.08203 32.5 C 132.37166 32.857504 132.82442 33.099609 133.34961 33.099609 C 134.24961 33.099609 138.24805 29.4 139.74805 26.5 C 141.24805 23.7 137.44922 2.1992188 122.94922 2.1992188 C 108.44922 2.1992188 106.24805 25.400391 106.24805 27.900391 C 106.24805 30.339713 112.89771 33.810922 114.33594 32.306641 C 114.83173 33.466776 115.46859 34.68798 116.28516 35.800781 L 116.24805 35.800781 C 116.25184 35.800781 116.33595 35.926739 116.34961 35.943359 L 116.34961 39.570312 L 114.94922 38.400391 L 112.84961 41 L 116.34961 45.732422 L 116.34961 45.755859 L 112.54883 40.800781 L 104.61328 43.458984 C 104.59241 43.442531 104.56941 43.415826 104.54883 43.400391 C 103.34883 42.500391 99.848047 41.999219 97.248047 41.199219 C 96.188043 40.913833 94.820583 40.481566 93.542969 40.066406 C 94.324694 39.242557 94.548828 38.199219 94.548828 38.199219 C 94.548828 38.199219 91.548828 28.599609 91.048828 24.099609 L 90.916016 23.064453 C 91.968779 21.436506 92.81466 16.689319 91.648438 16.599609 L 90.732422 16.599609 L 90.849609 16.099609 C 94.349609 14.099609 89.848828 2.3996094 86.048828 3.0996094 C 80.248828 -0.10039063 73.549219 2.6 70.949219 7 C 68.249219 11.4 69.449219 16 69.449219 16 L 69.449219 16.585938 C 69.41534 16.59186 69.384983 16.590766 69.349609 16.599609 C 68.43756 16.669767 68.763526 19.576649 69.449219 21.626953 L 69.449219 24.699219 C 69.749219 26.599219 72.449219 34.900391 72.449219 34.900391 C 72.449219 34.900391 71.848828 32.799609 71.548828 30.099609 C 71.44295 29.146704 71.330976 27.819774 71.226562 26.4375 C 72.009528 28.696219 73.163872 30.640289 74.574219 32.103516 C 74.506673 32.653246 74.435671 33.190815 74.349609 33.599609 C 74.249069 34.077176 74.198316 34.434805 74.123047 34.863281 C 73.618806 34.950929 73.123107 35.192172 72.949219 35.800781 C 72.549219 37.200781 71.648438 38.900391 71.648438 38.900391 C 71.648438 38.900391 67.049219 40.399219 64.449219 41.199219 C 61.849219 41.899219 58.348438 42.400391 57.148438 43.400391 C 56.088672 44.267471 54.47103 46.761761 52.833984 54.003906 C 51.732137 53.70175 50.949219 53.5 50.949219 53.5 L 42.949219 47.900391 C 42.949219 47.900391 43.011326 48.519988 42.949219 49.373047 L 42.949219 47.900391 L 42.949219 46.685547 C 43.73395 45.633242 44.35943 44.476469 44.851562 43.365234 C 45.139142 43.743124 45.605398 44 46.148438 44 C 47.048437 44 51.048828 40.300391 52.548828 37.400391 C 54.048828 34.600391 50.248047 13.099609 35.748047 13.099609 C 21.248047 13.099609 19.048828 36.300781 19.048828 38.800781 C 19.048828 41.255366 25.783112 44.756467 27.164062 43.179688 C 27.668058 44.347048 28.31977 45.574324 29.148438 46.685547 L 29.148438 47.900391 L 29.148438 49.369141 C 29.086828 48.518068 29.148438 47.900391 29.148438 47.900391 L 21.148438 53.5 C 21.148438 53.5 11.349609 55.9 8.8496094 58 C 6.2496094 60.1 2.1484375 92.099609 2.1484375 92.099609 C 2.2484375 92.199609 2.3492188 92.200781 2.4492188 92.300781 C 2.53348 92.361344 2.6219891 92.40507 2.7070312 92.462891 C 2.2749736 94.281576 1.7828258 96.720537 1.6484375 98.400391 C 1.5484375 100.90039 1.3492188 111.80039 1.4492188 115.40039 C 1.5492188 119.00039 1.3496094 121.09922 1.3496094 123.69922 C 1.3496094 126.29922 1.5492187 128.00078 1.4492188 129.30078 C 1.3492187 130.60078 0.84882813 133.59961 0.54882812 134.59961 C 0.24882813 135.69961 -0.2515625 136.99961 0.1484375 138.59961 C 0.5484375 140.19961 1.1496094 142.50078 1.3496094 143.30078 C 1.5496094 144.10078 1.6488281 144.69961 3.0488281 145.59961 C 4.4488281 146.49961 8.1496094 149.70039 8.8496094 148.90039 C 9.5496094 148.20039 8.1484375 146.80078 8.1484375 146.80078 C 8.1484375 146.80078 5.7496094 144.39961 5.3496094 143.59961 C 4.9496094 142.69961 3.6488281 136.69961 5.5488281 136.59961 C 5.5488281 136.59961 6.0492188 137.19961 5.9492188 138.09961 C 5.8492188 138.99961 5.7492187 142.8 7.4492188 143 C 9.1492187 143.1 8.5488281 136.50078 8.5488281 135.30078 C 8.5488281 134.10078 8.7484375 131.19961 8.1484375 129.59961 C 7.5484375 127.99961 6.9484375 126.80039 6.6484375 125.40039 C 6.3484375 124.00039 6.8496094 119.00039 7.3496094 115.90039 C 7.8496094 112.70039 10.948828 97.900391 11.048828 96.400391 C 11.064781 96.145138 11.07625 95.363051 11.091797 94.900391 L 11.949219 94.900391 L 16.228516 81.263672 C 16.230133 81.266412 16.248047 81.300781 16.248047 81.300781 C 16.248047 81.300781 16.253349 81.259349 16.253906 81.255859 L 18.34375 103.54492 C 17.599804 105.63828 16.774156 107.86932 15.748047 110.40039 C 9.7480469 125.20039 7.3496094 173.69922 7.3496094 173.69922 C 7.3496094 173.69922 12.094056 174.8902 19.962891 175.74609 C 19.568367 180.17683 19.144845 193.711 25.449219 216.09961 L 27.248047 224.69922 C 27.248047 224.69922 27.092024 225.57395 27.072266 225.67969 C 26.814258 226.01767 26.586967 226.37781 26.449219 226.69922 L 25.048828 231.5 C 24.848828 232.2 22.349609 246.19922 22.349609 246.19922 C 22.349609 246.89922 24.049219 249.5 27.449219 249.5 C 30.849219 249.5 33.849219 246.49922 33.949219 245.69922 L 35.648438 230.19922 C 35.748438 229.49922 35.748047 228.3 35.748047 227.5 C 35.748047 226.8 35.548047 225.60039 35.248047 224.90039 L 34.849609 223.30078 C 34.694138 222.93802 34.403031 222.49922 34.0625 222.15625 C 34.105195 218.7762 34.388884 193.90819 33.548828 182.80078 C 33.384092 180.6226 33.295056 178.55899 33.234375 176.57422 C 34.061475 176.58819 34.891792 176.59961 35.748047 176.59961 C 37.093235 176.59961 38.389922 176.57641 39.662109 176.54297 C 39.601129 178.50759 39.512447 180.54614 39.349609 182.69922 C 38.508588 193.81939 38.79377 218.74375 38.835938 222.07617 C 38.454331 222.4289 38.119104 222.90438 37.949219 223.30078 L 37.548828 224.90039 C 37.248828 225.60039 37.048828 226.8 37.048828 227.5 C 37.048828 228.3 37.048437 229.49922 37.148438 230.19922 L 38.849609 245.69922 C 38.949609 246.49922 41.949609 249.5 45.349609 249.5 C 48.749609 249.5 50.449219 246.89922 50.449219 246.19922 C 50.449219 246.19922 47.948047 232.2 47.748047 231.5 L 46.349609 226.69922 C 46.240401 226.4444 46.068055 226.16664 45.876953 225.89258 C 45.803746 225.51277 45.648438 224.69922 45.648438 224.69922 L 47.449219 216.09961 C 53.829321 193.44207 53.319426 179.84835 52.921875 175.58984 C 57.78499 175.01005 60.945079 174.40129 62.628906 174.03516 C 62.058903 177.85768 61.406315 184.69741 62.748047 191.90039 C 64.648047 202.20039 69.148047 216.00039 69.248047 217.90039 C 69.248047 217.90039 69.448047 221.99922 69.248047 223.19922 C 69.048047 224.39922 68.749219 225.69961 68.949219 226.59961 C 69.149219 227.49961 69.748437 228.49922 69.648438 229.69922 C 69.635056 229.85979 69.57871 230.15366 69.498047 230.52734 C 68.81063 231.46836 68.046684 233.25949 67.548828 236.69922 C 66.448828 244.29922 63.948438 249.10039 71.648438 250.40039 C 71.648438 250.40039 77.349219 250.00039 77.449219 246.40039 C 77.549219 242.90039 77.649609 239.29961 77.849609 236.59961 C 77.890394 235.49842 78.089075 233.3876 77.777344 231.56641 C 77.812535 231.07505 77.849609 230.56808 77.849609 230.40039 C 77.849609 229.50039 77.248047 227.90078 77.248047 227.30078 C 77.248047 226.70078 77.349219 223.39961 76.949219 222.59961 C 76.549219 221.69961 75.549219 219.50078 75.449219 216.80078 C 75.349219 214.10078 75.348828 204.90039 76.048828 199.90039 C 76.748828 194.90039 76.848828 190.50039 76.548828 188.40039 C 76.248828 186.30039 75.348047 178.99922 75.748047 176.69922 C 76.148047 174.29922 77.149219 170.50039 77.449219 168.40039 C 77.630853 166.58405 77.491654 154.42966 77.462891 152.00586 C 78.43346 152.00803 79.407106 152.00962 80.349609 152 L 80.949219 152 L 81.548828 152 C 82.066901 152.00529 82.606494 152.00234 83.134766 152.00391 C 83.106029 154.42518 82.96678 166.58381 83.148438 168.40039 C 83.448438 170.50039 84.449609 174.29922 84.849609 176.69922 C 85.249609 178.99922 84.348828 186.30039 84.048828 188.40039 C 83.748828 190.50039 83.848828 194.90039 84.548828 199.90039 C 85.248828 204.90039 85.248437 214.10078 85.148438 216.80078 C 85.048438 219.50078 84.048438 221.69961 83.648438 222.59961 C 83.248438 223.39961 83.349609 226.70078 83.349609 227.30078 C 83.349609 227.90078 82.748047 229.50039 82.748047 230.40039 C 82.748047 230.56892 82.7848 231.07711 82.820312 231.57227 C 82.510026 233.39214 82.707306 235.4996 82.748047 236.59961 C 82.948047 239.29961 83.048438 242.90039 83.148438 246.40039 C 83.248437 250.00039 88.949219 250.40039 88.949219 250.40039 C 96.649219 249.10039 94.148828 244.29922 93.048828 236.69922 C 92.550972 233.25949 91.787026 231.46836 91.099609 230.52734 C 91.018946 230.15366 90.9626 229.85979 90.949219 229.69922 C 90.849219 228.49922 91.448437 227.49961 91.648438 226.59961 C 91.848438 225.69961 91.549609 224.39922 91.349609 223.19922 C 91.149609 221.99922 91.349609 217.90039 91.349609 217.90039 C 91.449609 216.00039 95.949609 202.20039 97.849609 191.90039 C 98.311792 189.4192 98.533695 186.97616 98.607422 184.67969 L 103.64844 221.09961 C 107.44844 228.49961 112.44922 221.09961 112.44922 221.09961 C 112.89751 221.72031 113.33485 222.21104 113.76758 222.64648 C 113.80299 223.444 113.9232 226.34946 113.74805 227.40039 C 113.54805 228.60039 113.24922 229.90078 113.44922 230.80078 C 113.64922 231.70078 114.24844 232.70039 114.14844 233.90039 C 114.13745 234.03219 114.09091 234.27259 114.0332 234.55078 C 113.31264 235.43619 112.48011 237.23242 111.94922 240.90039 C 110.84922 248.50039 108.34883 253.29961 116.04883 254.59961 C 116.04883 254.59961 121.74961 254.19961 121.84961 250.59961 C 121.94961 247.09961 122.04805 243.50078 122.24805 240.80078 C 122.32593 239.74934 122.51994 237.77546 122.26172 236.01367 C 122.31134 235.35375 122.34961 234.80272 122.34961 234.59961 C 122.34961 233.69961 121.74805 232.1 121.74805 231.5 C 121.74805 230.9 121.84922 227.60078 121.44922 226.80078 C 121.19572 226.23042 120.70131 225.13557 120.34766 223.72461 C 121.35585 223.03645 121.94922 222.19922 121.94922 222.19922 C 124.17091 224.54908 126.79024 224.97582 129.06641 224.70117 C 128.76589 225.63237 128.43844 226.37239 128.24805 226.80078 C 127.84805 227.60078 127.94922 230.9 127.94922 231.5 C 127.94922 232.1 127.34961 233.69961 127.34961 234.59961 C 127.34961 234.69023 127.37753 235.03751 127.38867 235.23047 C 126.91562 237.15451 127.15832 239.58953 127.24805 240.80078 C 127.44805 243.50078 127.54844 247.09961 127.64844 250.59961 C 127.74844 254.19961 133.44922 254.59961 133.44922 254.59961 C 141.14922 253.29961 138.64883 248.50039 137.54883 240.90039 C 137.01794 237.23242 136.1854 235.43619 135.46484 234.55078 C 135.40714 234.27259 135.36059 234.03219 135.34961 233.90039 C 135.24961 232.70039 135.84883 231.70078 136.04883 230.80078 C 136.24883 229.90078 135.94805 228.60039 135.74805 227.40039 C 135.61664 226.61192 135.6535 224.91617 135.69727 223.60938 C 144.00091 230.06848 145.84961 226.80078 145.84961 226.80078 C 147.86142 224.48161 149.08146 218.67681 149.82227 211.58789 C 151.26248 216.81816 152.49703 221.01574 152.54883 222 C 152.54883 222 152.74883 226.10078 152.54883 227.30078 C 152.34883 228.50078 152.04805 229.79922 152.24805 230.69922 C 152.44805 231.59922 153.04922 232.60078 152.94922 233.80078 C 152.9359 233.96065 152.88084 234.25185 152.80078 234.62305 C 152.11254 235.56285 151.34824 237.35571 150.84961 240.80078 C 149.74961 248.40078 147.24922 253.2 154.94922 254.5 C 154.94922 254.5 160.64805 254.1 160.74805 250.5 C 160.84805 247 160.94844 243.39922 161.14844 240.69922 C 161.18911 239.60098 161.38626 237.48313 161.07812 235.65234 C 161.11249 235.17074 161.14844 234.66552 161.14844 234.5 C 161.14844 233.6 160.54883 232.00039 160.54883 231.40039 C 160.54883 230.80039 160.64805 227.49922 160.24805 226.69922 C 159.84805 225.79922 158.84805 223.60039 158.74805 220.90039 C 158.64805 218.20039 158.64961 209 159.34961 204 C 160.04961 199 160.14961 194.6 159.84961 192.5 C 159.54961 190.4 158.64883 183.10078 159.04883 180.80078 C 159.06424 180.70834 159.09226 180.58666 159.10938 180.49023 L 162.84961 178.40039 L 161.94922 170.30078 C 163.8758 169.74421 165.31784 168.67631 166.36719 167.63477 C 166.37132 169.93782 166.38911 171.89894 166.44922 172.5 C 166.74922 174.6 167.74844 178.40078 168.14844 180.80078 C 168.54844 183.10078 167.64961 190.4 167.34961 192.5 C 167.04961 194.6 167.14961 199 167.84961 204 C 168.54961 209 168.54922 218.20039 168.44922 220.90039 C 168.34922 223.60039 167.34922 225.79922 166.94922 226.69922 C 166.54922 227.49922 166.64844 230.80039 166.64844 231.40039 C 166.64844 232.00039 166.04883 233.6 166.04883 234.5 C 166.04883 234.66469 166.08704 235.16861 166.12109 235.64648 C 165.81149 237.47863 166.00811 239.59977 166.04883 240.69922 C 166.24883 243.39922 166.34922 247 166.44922 250.5 C 166.54922 254.1 172.24805 254.5 172.24805 254.5 C 179.94805 253.2 177.44961 248.40078 176.34961 240.80078 C 175.8518 237.36134 175.08776 235.56803 174.40039 234.62695 C 174.3199 234.254 174.26141 233.96115 174.24805 233.80078 C 174.14805 232.60078 174.74922 231.59922 174.94922 230.69922 C 175.14922 229.79922 174.84844 228.50078 174.64844 227.30078 C 174.44844 226.10078 174.64844 222 174.64844 222 C 174.74844 220.1 179.24844 206.3 181.14844 196 C 183.04844 185.8 180.94805 176.19961 180.74805 175.09961 C 180.54805 173.99961 180.54961 165.5 180.34961 163.5 C 180.16766 161.68054 180.91456 156.69376 181.0625 155.72266 C 182.40122 155.67222 182.97557 155.65034 183.76562 155.61523 C 183.78267 155.76754 183.8362 156.17471 183.84961 156.30078 C 184.34961 160.90078 184.34883 164.50078 184.54883 167.80078 C 184.74883 171.10078 184.64883 180.7 185.04883 187 C 185.54883 193.3 188.34961 214.5 188.34961 214.5 C 188.34961 214.5 188.96 214.86208 190.44922 215.12695 L 190.44922 221 C 190.44922 221 190.44883 224.50078 189.54883 226.30078 C 189.05283 227.29277 188.60324 228.46439 188.28516 229.63672 C 188.0658 229.78644 187.87575 229.93998 187.74805 230.09961 C 186.44805 231.59961 188.34961 237.69922 188.34961 237.69922 C 188.34961 237.69922 190.74961 238.5 193.84961 238.5 C 196.94961 238.5 198.74805 237.80078 198.74805 237.80078 C 198.74805 237.80078 200.05802 232.4292 198.56055 229.43359 C 198.55091 228.63301 198.50474 227.79771 198.34961 227.09961 C 197.94961 225.29961 197.54883 222.7 197.54883 221 C 197.54883 219.5125 197.85605 216.49238 197.59766 214.95703 C 198.60322 214.65096 198.94922 214.30078 198.94922 214.30078 C 198.94922 214.30078 198.64883 187.89922 198.54883 184.19922 C 198.44883 180.49922 198.74883 166.89961 199.04883 164.59961 C 199.24883 162.29961 199.64844 140.3 199.64844 137 C 199.64844 133.7 199.94883 119.80078 201.54883 119.80078 C 203.14883 119.80078 202.64805 135.00039 202.74805 136.90039 C 202.84805 138.80039 203.64883 160.70078 204.04883 162.80078 C 204.44883 164.90078 204.44805 173.49922 204.74805 176.69922 C 205.14805 179.89922 203.34883 213.09922 203.54883 215.19922 C 203.54883 215.19922 204.03481 215.52784 205.22266 215.80859 C 205.13873 217.43217 205.34961 219.75065 205.34961 221 C 205.34961 222.7 204.94883 225.29961 204.54883 227.09961 C 204.36176 227.94143 204.3141 228.99431 204.32812 229.92578 C 203.17881 232.98103 204.34961 237.80078 204.34961 237.80078 C 204.34961 237.80078 206.14805 238.5 209.24805 238.5 C 212.34805 238.5 214.74805 237.69922 214.74805 237.69922 C 214.74805 237.69922 216.64961 231.59961 215.34961 230.09961 C 215.18025 229.88791 214.90345 229.68598 214.58008 229.49219 C 214.26364 228.36841 213.82512 227.25181 213.34961 226.30078 C 212.44961 224.50078 212.54883 221 212.54883 221 L 212.54883 215.77148 C 214.08289 215.32793 214.64844 214.69922 214.64844 214.69922 C 214.64844 214.69922 216.10724 200.7776 217.11523 190.34766 C 217.68929 199.58815 218.73359 209.64141 220.64844 217.30078 C 220.64844 217.30078 220.87274 217.35971 220.95703 217.38477 L 219.74805 231.5 C 219.64805 232.2 220.14805 233.10039 220.74805 233.40039 L 226.04883 236.19922 C 226.64883 236.49922 227.64844 236.40039 228.14844 235.90039 L 229.84961 234.19922 C 230.34961 233.69922 230.74805 232.7 230.74805 232 L 230.64844 227.30078 C 230.64844 226.60078 230.54883 225.39922 230.54883 224.69922 L 230.04883 217.5 C 230.04043 217.44123 230.0138 217.37569 230 217.31445 C 230.01643 217.30949 230.03239 217.30581 230.04883 217.30078 C 230.04883 217.30078 229.04805 203.90078 229.24805 197.30078 C 229.44805 190.70078 231.74805 136.90039 231.74805 136.90039 C 231.74805 136.90039 234.04805 190.70078 234.24805 197.30078 C 234.44222 203.70866 233.52151 216.30411 233.4668 217.04492 C 233.41582 217.2007 233.37019 217.35593 233.34961 217.5 L 232.84961 224.69922 C 232.84961 225.39922 232.74805 226.60078 232.74805 227.30078 L 232.64844 232 C 232.64844 232.7 233.04883 233.69922 233.54883 234.19922 L 235.24805 235.90039 C 235.74805 236.40039 236.74961 236.49922 237.34961 236.19922 L 242.64844 233.40039 C 243.24844 233.10039 243.74844 232.2 243.64844 231.5 L 242.44336 217.4082 C 242.5843 217.36863 242.84961 217.30078 242.84961 217.30078 C 247.54961 198.40078 247.04883 165.19922 247.04883 165.19922 C 247.47664 163.09307 248.26675 157.21246 249.0957 150.39062 C 250.55483 149.87001 253.00144 148.09851 254.04883 147.5 C 255.44883 146.6 255.54961 146.10078 255.84961 145.30078 C 256.14961 144.50078 256.84961 142.19922 257.34961 140.69922 C 257.84961 139.19922 257.54805 137.79922 257.24805 136.69922 C 257.04805 135.59922 256.74805 132.60078 256.74805 131.30078 C 256.74805 130.00078 257.14805 128.29922 257.24805 125.69922 C 257.34805 123.09922 257.34844 121.00039 257.64844 117.40039 C 258.04844 113.80039 258.64844 103 258.64844 100.5 C 258.64844 98.000002 257.94844 93.600391 257.64844 92.400391 C 257.40803 91.438751 257.4819 79.279498 257.52344 73.628906 C 257.71252 73.505436 257.9176 73.366395 258.04883 73.300781 C 257.94883 73.100781 258.74805 66 253.74805 62 C 251.74805 60.3 248.74961 58.900391 244.34961 58.900391 L 240.84961 57.099609 L 240.81836 57.136719 L 238.44922 55.400391 L 238.44922 51.007812 C 240.33608 48.947303 241.73081 46.003024 242.34961 42.599609 C 242.5866 42.421868 242.81742 42.015829 243.03516 41.53125 C 242.58381 44.56313 240.84961 50 240.84961 50 C 240.84961 50 243.74961 46.7 244.84961 43.5 C 245.44961 40.6 244.94922 36.199219 244.94922 36.199219 C 244.94922 36.199219 244.84805 30.999609 242.24805 26.599609 C 239.64805 22.199609 232.94844 19.499219 227.14844 22.699219 C 223.41786 22.012007 219.01798 33.270051 222.16992 35.574219 C 222.16372 35.616469 222.15441 35.65684 222.14844 35.699219 C 221.84844 35.699219 221.54844 35.599219 221.14844 35.699219 C 220.14604 35.776326 220.63472 39.283909 221.45898 41.306641 C 221.29101 41.272771 221.07364 41.22184 220.94922 41.199219 C 220.87196 41.186343 220.68521 41.109902 220.54883 41.0625 C 220.54883 41.062171 220.54883 41 220.54883 41 L 211.12109 36.136719 C 210.22094 35.576834 209.45663 35.064094 209.04883 34.699219 C 208.00515 33.812092 207.64748 31.95416 207.53906 30.371094 C 209.83989 27.262714 210.54883 23.099609 210.54883 23.099609 C 212.34883 23.599609 214.54805 18.2 213.74805 17 C 213.04805 15.8 211.94922 17 211.94922 17 C 211.95688 16.95927 211.95933 16.923354 211.9668 16.882812 L 212.04883 16.800781 C 215.04883 5.200781 207.94883 0.19921875 202.04883 0.19921875 z M 242.41211 35.484375 C 242.43818 35.494831 242.42175 35.489013 242.44922 35.5 C 242.44922 35.5 242.4852 35.6785 242.49023 35.699219 L 242.44922 35.699219 C 242.43896 35.626369 242.42306 35.556842 242.41211 35.484375 z M 249.61914 85.681641 C 249.54206 91.111526 249.4706 95.746453 249.46094 96.992188 L 248.24805 88.800781 C 248.24805 88.800781 248.64805 87.9 249.24805 86.5 C 249.37447 86.21741 249.47704 85.997478 249.61914 85.681641 z M 52.873047 103.59961 L 52.953125 103.59961 C 52.959179 103.68813 52.964635 103.78548 52.970703 103.87305 C 52.93792 103.78192 52.905384 103.69065 52.873047 103.59961 z M 251.89453 126.90234 C 251.87944 126.99952 251.86663 127.12547 251.84961 127.19922 C 251.75248 127.5149 251.63603 127.81898 251.50781 128.12109 C 251.54411 127.72582 251.58155 127.32477 251.61523 126.94531 C 251.70838 126.93183 251.80141 126.91614 251.89453 126.90234 z M 252.24805 138.40039 C 254.14805 138.60039 252.44922 144.60039 251.94922 145.40039 C 251.53333 146.06582 249.98431 147.46518 249.39062 147.99609 C 249.52373 146.87423 249.64909 145.73115 249.78125 144.58203 C 249.80535 144.58488 249.82428 144.59961 249.84961 144.59961 C 251.64961 144.59961 251.74805 140.80039 251.74805 139.90039 C 251.74805 138.90039 252.24805 138.40039 252.24805 138.40039 z M 62.357422 151.65039 C 62.535696 151.65794 62.643688 151.66185 62.839844 151.66992 C 62.996455 152.70015 63.729409 157.59458 63.548828 159.40039 C 63.476179 160.12688 63.43162 161.77323 63.392578 163.54883 C 63.119023 160.10643 62.766055 156.04209 62.357422 151.65039 z "
     style="fill:#e6e6e6" /></svg>