<?xml version="1.0" encoding="UTF-8" standalone="no"?>
<svg
   xmlns:dc="http://purl.org/dc/elements/1.1/"
   xmlns:cc="http://creativecommons.org/ns#"
   xmlns:rdf="http://www.w3.org/1999/02/22-rdf-syntax-ns#"
   xmlns:svg="http://www.w3.org/2000/svg"
   xmlns="http://www.w3.org/2000/svg"
   height="262"
   width="259"
   xml:space="preserve"
   viewBox="0 0 259 262"
   y="0px"
   x="0px"
   id="Layer_1"
   version="1.1"><metadata
     id="metadata265"><rdf:RDF><cc:Work
         rdf:about=""><dc:format>image/svg+xml</dc:format><dc:type
           rdf:resource="http://purl.org/dc/dcmitype/StillImage" /><dc:title></dc:title></cc:Work></rdf:RDF></metadata><defs
     id="defs263" /><rect
     id="rect3"
     height="38"
     width="243.5"
     style="fill:#bbc199"
     y="223.99998"
     x="3.148864" /><g
     transform="translate(-20.551137,-0.10001831)"
     id="g5"><g
       id="g7"><polygon
         id="polygon9"
         points="247.4,47.3 259,47.3 259,55.5 267.6,61.8 251.7,70.8 237.2,60.3 247.4,56.1 "
         style="fill:#edcaab" /><path
         id="path11"
         d="m 241.6,216.4 -1.3,15.2 c -0.1,0.7 0.4,1.6 1,1.9 l 5.3,2.8 c 0.6,0.3 1.6,0.2 2.1,-0.3 l 1.7,-1.7 c 0.5,-0.5 0.9,-1.5 0.9,-2.2 l -0.1,-4.7 c 0,-0.7 -0.1,-1.9 -0.1,-2.6 l -0.5,-7.2 c -0.1,-0.7 -0.6,-1.6 -1.1,-2.1 l -0.6,-0.4 c -0.6,-0.4 -1.6,-0.6 -2.2,-0.4 l -5.2,1.7" /><path
         id="path13"
         d="m 242.3,217.1 c 0.1,0.3 -0.3,10.1 -0.3,10.1 0,0.7 0.5,1.5 1.1,1.9 l 2.4,1.1 c 0.6,0.3 1.7,0.3 2.3,0 l 1.9,-0.9 c 0.6,-0.3 1.1,-1.2 1,-1.9 l -1.2,-10.3 c -0.1,-0.7 -0.7,-1.2 -1.4,-1.1 l -5.8,1.1 z"
         style="fill:#edcaab" /><path
         id="path15"
         d="m 262.9,216.4 1.3,15.2 c 0.1,0.7 -0.4,1.6 -1,1.9 l -5.3,2.8 c -0.6,0.3 -1.6,0.2 -2.1,-0.3 l -1.7,-1.7 c -0.5,-0.5 -0.9,-1.5 -0.9,-2.2 l 0.1,-4.7 c 0,-0.7 0.1,-1.9 0.1,-2.6 l 0.5,-7.2 c 0.1,-0.7 0.6,-1.6 1.1,-2.1 l 0.6,-0.4 c 0.6,-0.4 1.6,-0.6 2.2,-0.4 l 5.2,1.7" /><path
         id="path17"
         d="m 262.3,217.1 c -0.1,0.3 0.3,10.1 0.3,10.1 0,0.7 -0.5,1.5 -1.1,1.9 l -2.4,1.1 c -0.6,0.3 -1.7,0.3 -2.3,0 l -1.9,-0.9 c -0.6,-0.3 -1.1,-1.2 -1,-1.9 l 1.2,-10.3 c 0.1,-0.7 0.7,-1.2 1.4,-1.1 l 5.8,1.1 z"
         style="fill:#edcaab" /><path
         id="path19"
         d="m 272.6,117.8 c -0.9,-0.9 -7.9,-1.5 -16.5,-2.7 l 0.2,-1 c -1.3,0.2 -2.7,0.3 -4.1,0.5 -1.4,-0.2 -2.8,-0.3 -4.1,-0.5 l 0.2,1 c -8.6,1.2 -15.6,1.6 -16.5,2.5 -1,1 3.7,41.2 5.2,47.7 0,0 -0.5,33.3 4.2,52.1 0,0 4.5,1.5 9.4,0 0,0 -1,-13.4 -0.8,-20 0.2,-6.6 2.5,-60.4 2.5,-60.4 0,0 2.3,53.8 2.5,60.4 0.2,6.6 -0.8,20 -0.8,20 4.8,1.5 9.4,0 9.4,0 4.7,-18.9 4.2,-52.1 4.2,-52.1 1.3,-6.4 5.9,-46.6 5,-47.5 z"
         style="fill:#262c35" /><path
         id="path21"
         d="m 246.5,50.1 c 0,0 3.3,5.7 6.7,5.7 3.4,0 6,-5.7 6,-5.7 l -12.7,0 z"
         style="fill:#ddba9b" /><path
         id="path23"
         d="m 270.4,69.3 c 0,0 4.8,0.3 7.7,0 0,0 -0.2,22 0.1,23.2 0.3,1.2 1,5.6 1,8.1 0,2.5 -0.6,13.3 -1,16.9 -0.3,3.6 -0.3,5.7 -0.4,8.3 -0.1,2.6 -0.5,4.3 -0.5,5.6 0,1.3 0.3,4.3 0.5,5.4 0.3,1.1 0.6,2.5 0.1,4 -0.5,1.5 -1.2,3.8 -1.5,4.6 -0.3,0.8 -0.4,1.3 -1.8,2.2 -1.4,0.8 -5.3,3.7 -6,2.9 -0.6,-0.8 0.9,-2 0.9,-2 0,0 2.5,-2.2 3,-3 0.5,-0.8 2.2,-6.8 0.3,-7 0,0 -0.5,0.5 -0.5,1.5 0,0.9 -0.1,4.7 -1.9,4.7 -1.7,0 -0.6,-6.5 -0.6,-7.7 0,-1.2 0.1,-4.1 0.8,-5.7 0.7,-1.6 1.4,-2.7 1.8,-4 0.3,-1.3 0.3,-6.4 0,-9.6 C 272,114.5 270,99.5 270,98 c 0,-1.6 0.4,-28.7 0.4,-28.7 z"
         style="fill:#edcaab" /><path
         id="path25"
         d="m 233.9,69.3 c 0,0 -4.8,0.3 -7.7,0 0,0 0.2,22 -0.1,23.2 -0.3,1.2 -1,5.6 -1,8.1 0,2.5 0.6,13.3 1,16.9 0.3,3.6 0.3,5.7 0.4,8.3 0.1,2.6 0.5,4.3 0.5,5.6 0,1.3 -0.3,4.3 -0.5,5.4 -0.3,1.1 -0.6,2.5 -0.1,4 0.5,1.5 1.2,3.8 1.5,4.6 0.3,0.8 0.4,1.3 1.8,2.2 1.4,0.8 5.3,3.7 6,2.9 0.6,-0.8 -0.9,-2 -0.9,-2 0,0 -2.5,-2.2 -3,-3 -0.5,-0.8 -2.2,-6.8 -0.3,-7 0,0 0.5,0.5 0.5,1.5 0,0.9 0.1,4.7 1.9,4.7 1.7,0 0.6,-6.5 0.6,-7.7 0,-1.2 -0.1,-4.1 -0.8,-5.7 -0.7,-1.6 -1.4,-2.7 -1.8,-4 -0.3,-1.3 -0.3,-6.4 0,-9.6 0.3,-3.2 2.3,-18.2 2.3,-19.7 0.1,-1.6 -0.3,-28.7 -0.3,-28.7 z"
         style="fill:#edcaab" /><path
         id="path27"
         d="m 274.3,62.1 c -2,-1.7 -5,-3.1 -9.4,-3.1 l -3.5,-1.8 -8.8,10.5 -8,-10.5 -5,1.8 c -4.4,0 -7.4,1.4 -9.4,3.1 -5,4.1 -4.1,11.2 -4.1,11.2 0.3,0.2 0.5,0.4 0.8,0.6 1.4,0.8 3,1.7 3,1.7 0,0 3.2,7.2 5,11 0.6,1.4 1,2.3 1,2.3 l -5.2,37.8 c 7.4,1.4 15.6,1.6 22,1.3 6.5,0.2 14.2,0 21.7,-1.3 l -5.6,-37.8 c 0,0 0.4,-0.9 1,-2.3 1.7,-3.8 5,-11 5,-11 0,0 1.6,-0.8 3,-1.7 0.3,-0.2 0.6,-0.4 0.8,-0.5 -0.1,-0.2 0.7,-7.3 -4.3,-11.3 z"
         style="fill:#b24d4b" /><g
         id="g29"><path
           id="path31"
           d="m 253.2,23.4 c -5.2,0 -9.5,5.3 -10.5,12.4 -0.3,0 -0.6,-0.1 -1,0 -1.3,0.1 -0.1,6 1.1,6.9 1.2,6.6 5.4,11.5 10.3,11.5 l -0.5,0 c 5,0 9.1,-4.9 10.3,-11.5 1.2,-0.9 2.4,-6.8 1.1,-6.9 -0.3,0 -0.7,0 -1,0 -1,-7.1 -5.3,-12.4 -10.5,-12.4 l 0.7,0 z"
           style="fill:#edcaab" /></g><path
         id="path33"
         d="m 265.5,36.3 c 0,0 -0.1,-5.2 -2.7,-9.6 -2.6,-4.4 -9.3,-7.1 -15.1,-3.9 -3.8,-0.7 -8.3,11 -4.8,13 l 0.7,3 0.2,-4 0.8,-2.7 0.9,-1.7 1.4,-1.6 3.1,-1.6 c 0,0 4.5,1.5 7.3,4.5 2,2.1 4.8,3.5 4.8,3.5 0,0 -0.6,-0.2 0.9,0.4 0,0 0.6,2.4 0.7,4.7 0.1,2.3 -2.3,9.8 -2.3,9.8 0,0 2.9,-3.3 4,-6.5 0.6,-2.9 0.1,-7.3 0.1,-7.3 z"
         style="fill:#cea357" /></g><path
       id="path35"
       d="m 273.1,76.2 c 0,0 0,-0.1 -0.1,-0.2 0,-0.1 -0.1,-0.3 -0.1,-0.5 0,-0.1 0,-0.2 -0.1,-0.3 0,-0.1 0,-0.3 -0.1,-0.4 0,-0.1 0,-0.3 -0.1,-0.4 0,-0.1 0,-0.3 -0.1,-0.4 0,-0.1 0,-0.3 -0.1,-0.4 0,-0.1 0,-0.1 0,-0.2 0,-0.1 0,-0.1 0,-0.2 0,-0.1 -0.1,-0.3 -0.1,-0.4 0,-0.1 -0.1,-0.2 -0.1,-0.3 0,-0.1 -0.1,-0.2 -0.1,-0.3 0,0 0,-0.1 -0.1,-0.1 0,0 0,-0.1 -0.1,-0.1 -0.1,-0.1 -0.1,-0.2 -0.1,-0.2 0,0 0.1,0.1 0.2,0.2 0,0 0.1,0.1 0.1,0.1 0,0 0.1,0.1 0.1,0.1 0,0 0.1,0.1 0.1,0.1 0,0 0.1,0.1 0.1,0.2 0.1,0.1 0.2,0.2 0.2,0.3 0.1,0.1 0.1,0.3 0.2,0.4 0.1,0.1 0.1,0.3 0.1,0.4 0,0.1 0.1,0.3 0.1,0.4 0,0.1 0,0.3 0,0.4 0,0.1 0,0.3 0,0.4 0,0.1 0,0.3 0,0.4 0,0.1 0,0.2 -0.1,0.3 0,0.2 -0.1,0.4 -0.1,0.5 0.4,0.2 0.3,0.2 0.3,0.2 z"
       style="fill:#994141" /><path
       id="path37"
       d="m 230.8,76.2 c 0,0 0,-0.1 0.1,-0.2 0,-0.1 0.1,-0.3 0.1,-0.5 0,-0.1 0,-0.2 0.1,-0.3 0,-0.1 0,-0.3 0.1,-0.4 0,-0.1 0,-0.3 0.1,-0.4 0,-0.1 0,-0.3 0.1,-0.4 0,-0.1 0,-0.3 0.1,-0.4 0,-0.1 0,-0.1 0,-0.2 0,-0.1 0,-0.1 0,-0.2 0,-0.1 0.1,-0.3 0.1,-0.4 0,-0.1 0.1,-0.2 0.1,-0.3 0,-0.1 0.1,-0.2 0.1,-0.3 0,0 0,-0.1 0.1,-0.1 0,0 0,-0.1 0.1,-0.1 0.1,-0.1 0.1,-0.2 0.1,-0.2 0,0 -0.1,0.1 -0.2,0.2 0,0 -0.1,0.1 -0.1,0.1 0,0 -0.1,0.1 -0.1,0.1 0,0 -0.1,0.1 -0.1,0.1 0,0 -0.1,0.1 -0.1,0.2 -0.1,0.1 -0.2,0.2 -0.2,0.3 -0.1,0.1 -0.1,0.3 -0.2,0.4 -0.1,0.1 -0.1,0.3 -0.1,0.4 0,0.1 -0.1,0.3 -0.1,0.4 0,0.1 0,0.3 0,0.4 0,0.1 0,0.3 0,0.4 0,0.1 0,0.3 0,0.4 0,0.1 0,0.2 0.1,0.3 0,0.2 0.1,0.4 0.1,0.5 -0.3,0.2 -0.3,0.2 -0.3,0.2 z"
       style="fill:#994141" /></g><g
     transform="translate(-20.551137,-0.10001831)"
     id="g39"><path
       id="path41"
       d="m 209.1,202.7 c 0,0 1.9,7.8 1.9,8.9 0,1.1 0,9.5 0,9.5 0,0 0,3.5 -0.9,5.3 -0.9,1.8 -1.7,4.2 -1.7,6.1 0,1.9 8.6,1.2 9,1.3 0.4,0.1 1.3,-1.2 1.5,-1.6 0.2,-0.4 0.4,-3.2 0,-5 -0.4,-1.8 -0.8,-4.4 -0.8,-6.1 0,-1.7 0.4,-5.4 -0.1,-6.6 -0.5,-1.2 -0.8,-10.8 -0.7,-11.9 0,-1 -8.2,0.1 -8.2,0.1 z"
       style="fill:#deb079" /><path
       id="path43"
       d="m 215.3,227.6 c 0,0 -5.8,1.1 -7,2.6 -1.3,1.5 0.6,7.6 0.6,7.6 0,0 2.4,0.8 5.5,0.8 3.1,0 4.9,-0.7 4.9,-0.7 0,0 2.7,-11 -4,-10.3 z m -1.5,5.9 c -2.5,0 -5.4,-0.3 -4.6,-1.5 0.9,-1.2 4.6,-1.1 4.6,-1.1 0,0 2.5,-0.5 4.1,1.3 1.5,1.7 -1.6,1.3 -4.1,1.3 z"
       style="fill:#546482" /><path
       id="path45"
       d="m 234.9,202.7 c 0,0 -1.8,7.8 -1.8,8.9 0,1.1 0,9.5 0,9.5 0,0 -0.1,3.5 0.8,5.3 0.9,1.8 1.7,4.2 1.7,6.1 0,1.9 -8.6,1.2 -9,1.3 -0.4,0.1 -1.4,-1.2 -1.5,-1.6 -0.2,-0.4 -0.4,-3.2 0,-5 0.4,-1.8 0.8,-4.4 0.8,-6.1 0,-1.7 -0.4,-5.4 0.1,-6.6 0.5,-1.2 0.9,-10.8 0.8,-11.9 -0.1,-1 8.1,0.1 8.1,0.1 z"
       style="fill:#deb079" /><path
       id="path47"
       d="m 228.9,227.6 c 0,0 5.8,1.1 7,2.6 1.3,1.5 -0.6,7.6 -0.6,7.6 0,0 -2.4,0.8 -5.5,0.8 -3.1,0 -4.9,-0.7 -4.9,-0.7 0,0 -2.7,-11 4,-10.3 z m 1.5,5.9 c 2.5,0 5.4,-0.3 4.6,-1.5 -0.9,-1.2 -4.6,-1.1 -4.6,-1.1 0,0 -2.5,-0.5 -4.1,1.3 -1.5,1.7 1.6,1.3 4.1,1.3 z"
       style="fill:#546482" /><path
       id="path49"
       d="m 200.8,128.2 c 0,0 3.1,23.5 3.6,28.2 0.5,4.6 0.5,8.2 0.7,11.5 0.2,3.3 0.1,12.9 0.5,19.2 0.5,6.3 3.3,27.5 3.3,27.5 0,0 1.5,0.9 5.6,0.9 4,0 5,-1.1 5,-1.1 0,0 -0.3,-26.4 -0.4,-30.1 -0.1,-3.7 0.2,-17.3 0.5,-19.6 0.2,-2.3 0.6,-24.3 0.6,-27.6 0,-3.3 0.3,-17.2 1.9,-17.2 1.6,0 1.1,15.2 1.2,17.1 0.1,1.9 0.9,23.8 1.3,25.9 0.4,2.1 0.4,10.7 0.7,13.9 0.4,3.2 -1.4,36.4 -1.2,38.5 0,0 1.4,1 5.6,1 4.2,0 5.5,-1.5 5.5,-1.5 0,0 3.3,-31.3 3.4,-35.1 0.1,-3.8 -0.4,-13 0,-16.4 0.4,-3.4 4.9,-37.5 4.9,-37.5 l 4.2,-27.4 -16,-4.6 -34.8,4.6 3.9,29.8 z"
       style="fill:#546482" /><path
       id="path51"
       d="m 250.8,99 c 0,-7.2 -1.8,-16.8 -1.8,-16.8 0,0 -0.2,-18.9 0,-25.8 0.2,-6.9 -0.5,-10.9 -2,-12.6 -1.4,-1.7 -4.4,-2.3 -5.5,-2.5 -1.2,-0.2 -10,-4.8 -11.9,-6.5 -2,-1.7 -1.5,-7 -1.5,-7 0,0 -3,-2.2 -5.9,-3.3 -3,1.1 -5.9,3.3 -5.9,3.3 0,0 0.4,5.3 -1.5,7 -2,1.7 -10.8,6.3 -11.9,6.5 -1.2,0.2 -4.1,0.8 -5.5,2.5 -1.4,1.7 -2.1,5.7 -2,12.6 0.2,6.9 0,25.8 0,25.8 0,0 -1.8,9.5 -1.8,16.8 0,7.2 1,17.7 0.9,19.6 -0.1,1.9 -0.8,7.6 -0.9,9.6 -0.1,2 1.2,3 2,5 0.8,2 5.2,5.1 6.4,5.3 1.2,0.3 1.8,-0.8 1.2,-1.2 -0.5,-0.4 -4.5,-3 -4.7,-4.2 -0.2,-1.2 -0.6,-5.8 0,-5.9 0.6,0 0.3,3.7 0.7,4.5 0.4,0.8 1.6,2.1 2.1,1.1 0.4,-0.9 0.8,-7.9 0.2,-9.4 -0.6,-1.5 -1.4,-5.9 -1.7,-7.2 -0.4,-1.2 -1.3,-6.3 -1.1,-7.5 0.2,-1.2 1.1,-8.5 0.9,-10 -0.1,-0.7 11.4,-0.9 22.8,-0.9 11.4,0 22.9,0.2 22.8,0.9 -0.2,1.5 0.7,8.8 0.9,10 0.2,1.2 -0.8,6.2 -1.1,7.5 -0.4,1.2 -1.1,5.7 -1.7,7.2 -0.6,1.5 -0.3,8.5 0.2,9.4 0.4,0.9 1.6,-0.3 2.1,-1.1 0.4,-0.8 0.1,-4.5 0.7,-4.5 0.6,0 0.2,4.7 0,5.9 -0.2,1.2 -4.2,3.8 -4.7,4.2 -0.5,0.4 0,1.4 1.2,1.2 1.2,-0.3 5.6,-3.4 6.4,-5.3 0.8,-2 2.1,-2.9 2,-5 -0.1,-2.1 -0.8,-7.8 -0.9,-9.6 -0.5,-1.8 0.5,-12.4 0.5,-19.6 z"
       style="fill:#deb079" /><path
       id="path53"
       d="m 241.2,66.9 c -0.1,-4.4 -0.1,-25.8 -0.1,-25.8 l -9.5,-4.9 c 0,0 -1.8,6.7 -9.6,7 -7.8,-0.3 -9.6,-7 -9.6,-7 l -9.5,4.9 c 0,0 0,21.5 -0.1,25.8 -0.1,4.4 -5,35 -4.2,39.7 0,0 14.7,1.3 23.8,1.3 9.1,0 22.9,-1.2 22.9,-1.2 0.9,-4.7 -4,-35.4 -4.1,-39.8 z"
       style="fill:#bc97c1" /><g
       id="g55"><g
         id="g57"><path
           id="path59"
           d="m 221.9,36.2 c 3,0 5.7,-5.2 5.7,-5.2 l -5.7,-3.8 -5.4,3.8 c 0,0 2.8,5.2 5.4,5.2 z"
           style="fill:#ce9f68" /></g><path
         id="path61"
         d="m 234.3,17.1 c -0.7,-1.2 -1.8,0 -1.8,0 2.2,-11.7 -3.7,-15.6 -9.1,-16.3 0,0 -1,-0.1 -1.3,-0.1 -0.3,0 -1.3,0.1 -1.3,0.1 -5.4,0.7 -11.3,4.7 -9.1,16.3 0,0 -1.1,-1.2 -1.8,0 -0.7,1.2 1.4,6.5 3.2,6.1 0,0 1.8,10.6 9,10.6 7.2,0 9,-10.6 9,-10.6 1.8,0.5 4,-4.9 3.2,-6.1 z"
         style="fill:#deb079" /><g
         id="g63"><g
           id="g65"><path
             id="path67"
             d="m 216,10.1 c 3.5,-3 9.6,-3.8 9.2,-6.1 0,0 3.9,5 5.1,8.2 1.2,3.1 1.6,5.4 1.6,5.4 l 0.7,-0.7 c 3,-11.6 -4.1,-16.6 -10,-16.6 -5.9,0 -13.9,3.4 -11.4,16.8 l 0.7,1.5 c 0.1,0 0.6,-5.5 4.1,-8.5 z"
             style="fill:#baa99d" /></g></g></g></g><g
     transform="translate(-20.551137,-0.10001831)"
     id="g69"><path
       id="path71"
       d="m 81,88.4 c 0,0 4.8,-0.1 7.7,-0.7 0,0 -0.1,1.5 0.3,2.7 0.4,1.2 1.5,5.5 1.7,8 0.2,2.5 0.5,13.3 0.4,16.9 -0.1,3.6 0.2,5.7 0.2,8.3 0.1,2.6 -0.2,4.3 -0.1,5.6 0.1,1.3 0.6,4.2 0.9,5.3 0.3,1.1 0.8,2.4 0.4,4 -0.4,1.6 -0.9,3.9 -1.2,4.7 -0.2,0.8 -0.3,1.4 -1.7,2.3 -1.4,1 -5,4.1 -5.7,3.4 -0.7,-0.7 0.7,-2.1 0.7,-2.1 0,0 2.3,-2.4 2.8,-3.3 0.4,-0.9 1.7,-6.9 -0.3,-7 0,0 -0.5,0.6 -0.4,1.5 0.1,0.9 0.2,4.7 -1.5,4.9 -1.7,0.1 -1.2,-6.4 -1.2,-7.6 0,-1.2 -0.2,-4.1 0.4,-5.7 0.6,-1.6 1.2,-2.8 1.5,-4.2 C 86.1,124 85.7,119 85.1,115.9 84.5,112.7 81.3,98 81.2,96.4 81.1,95 81,88.4 81,88.4 Z"
       style="fill:#805931" /><path
       id="path73"
       d="m 31.8,88.3 c 0,0 -4.8,0 -7.7,-0.5 0,0 0.1,1.4 -0.3,2.7 -0.4,1.2 -1.4,5.5 -1.6,8 -0.1,2.5 -0.3,13.4 -0.2,17 0.1,3.6 -0.1,5.7 -0.1,8.3 0,2.6 0.2,4.3 0.1,5.6 -0.1,1.3 -0.6,4.3 -0.9,5.3 -0.3,1.1 -0.8,2.4 -0.4,4 0.4,1.6 1,3.9 1.2,4.7 0.2,0.8 0.3,1.4 1.7,2.3 1.4,0.9 5.1,4.1 5.8,3.3 0.7,-0.7 -0.7,-2.1 -0.7,-2.1 0,0 -2.4,-2.4 -2.8,-3.2 -0.4,-0.9 -1.7,-6.9 0.2,-7 0,0 0.5,0.6 0.4,1.5 -0.1,0.9 -0.2,4.7 1.5,4.9 1.7,0.1 1.1,-6.5 1.1,-7.7 0,-1.2 0.2,-4.1 -0.4,-5.7 -0.6,-1.6 -1.2,-2.8 -1.5,-4.2 -0.3,-1.4 0.2,-6.4 0.7,-9.5 0.5,-3.2 3.6,-18 3.7,-19.5 0.1,-1.6 0.2,-8.2 0.2,-8.2 z"
       style="fill:#805931" /><g
       id="g75"><path
         id="path77"
         d="m 65.3,224.8 c 0.6,0.4 1.3,1.3 1.6,2 l 1.4,4.8 c 0.2,0.7 2.7,14.7 2.7,14.7 0,0.7 -1.7,3.3 -5.1,3.3 -3.4,0 -6.4,-3 -6.5,-3.8 l -1.7,-15.5 c -0.1,-0.7 -0.1,-1.9 -0.1,-2.7 0,-0.7 0.2,-1.9 0.5,-2.6 l 0.4,-1.6 c 0.3,-0.7 1.1,-1.7 1.8,-1.7 l 0.1,0 c 0.7,0 1.9,0.7 2.5,1.1 l 2.4,2 z"
         style="fill:#222222" /><path
         id="path79"
         d="m 73.2,161.9 0.1,12.2 c 0,0 2.5,14.4 -5.3,42.1 l -1.8,8.6 c 0,0 3.3,16.9 2.8,17.8 -0.5,1 -7.9,1.2 -8.4,-0.1 -0.5,-1.3 -1.4,-12 -1.3,-14.3 0.1,-2.5 0.1,-4.8 0.1,-4.8 0,0 -0.4,-28.7 0.5,-40.6 0.9,-11.9 0,-21.6 0,-21.6 l 13.3,0.7 z"
         style="fill:#805931" /><path
         id="path81"
         d="m 48.6,224.8 c -0.6,0.4 -1.3,1.3 -1.6,2 l -1.4,4.8 c -0.2,0.7 -2.7,14.7 -2.7,14.7 0,0.7 1.7,3.3 5.1,3.3 3.4,0 6.4,-3 6.5,-3.8 l 1.7,-15.5 c 0.1,-0.7 0.1,-1.9 0.1,-2.7 0,-0.7 -0.2,-1.9 -0.5,-2.6 l -0.4,-1.6 c -0.3,-0.7 -1.1,-1.7 -1.8,-1.7 l -0.1,0 c -0.7,0 -1.9,0.7 -2.5,1.1 l -2.4,2 z"
         style="fill:#222222" /><path
         id="path83"
         d="m 40.8,161.9 -0.1,12.2 c 0,0 -2.5,14.4 5.3,42.1 l 1.8,8.6 c 0,0 -3.1,16.5 -2.8,17.8 0.3,1.3 7.4,1.6 8.2,0 0.8,-1.6 1.6,-12.1 1.5,-14.3 -0.1,-2.5 -0.1,-4.8 -0.1,-4.8 0,0 0.4,-28.7 -0.5,-40.6 -0.9,-11.9 0,-21.6 0,-21.6 l -13.3,0.6 z"
         style="fill:#805931" /><path
         id="path85"
         d="m 47.4,181.2 c 0,0 0.5,-0.5 1,-1.5 0.5,-0.9 1.1,-2.2 1.4,-3.6 0.2,-0.7 0.2,-1.4 0.3,-2 0,-0.3 0,-0.6 0,-0.9 0,-0.3 0,-0.6 -0.1,-0.8 -0.1,-0.5 -0.2,-1 -0.3,-1.2 -0.1,-0.3 -0.1,-0.5 -0.1,-0.5 l 0.1,0 c 0,0 0.1,0.1 0.3,0.4 0.2,0.3 0.5,0.7 0.7,1.2 0.1,0.3 0.2,0.6 0.3,0.9 0.1,0.3 0.2,0.7 0.2,1 0,0.4 0.1,0.7 0,1.1 0,0.4 -0.1,0.8 -0.2,1.2 -0.1,0.4 -0.2,0.8 -0.3,1.1 -0.1,0.4 -0.3,0.7 -0.5,1 -0.4,0.6 -0.7,1.2 -1.2,1.6 -0.7,0.7 -1.5,1 -1.6,1 l 0,0 z"
         style="fill:#70471e" /><path
         id="path87"
         d="m 66.5,181.2 c 0,0 -0.5,-0.5 -1,-1.5 -0.5,-0.9 -1.1,-2.2 -1.4,-3.6 -0.2,-0.7 -0.2,-1.4 -0.3,-2 0,-0.3 0,-0.6 0,-0.9 0,-0.3 0,-0.6 0.1,-0.8 0.1,-0.5 0.2,-1 0.3,-1.2 0.1,-0.3 0.1,-0.5 0.1,-0.5 l -0.1,0 c 0,0 -0.1,0.1 -0.3,0.4 -0.2,0.3 -0.5,0.7 -0.7,1.2 -0.1,0.3 -0.2,0.6 -0.3,0.9 -0.1,0.3 -0.2,0.7 -0.2,1 0,0.4 -0.1,0.7 0,1.1 0,0.4 0.1,0.8 0.2,1.2 0.1,0.4 0.2,0.8 0.3,1.1 0.1,0.4 0.3,0.7 0.5,1 0.4,0.6 0.7,1.2 1.2,1.6 0.8,0.7 1.5,1 1.6,1 l 0,0 z"
         style="fill:#70471e" /><g
         id="g89"><rect
           id="rect91"
           height="30.6"
           width="13.8"
           style="fill:#805931"
           y="38.299999"
           x="49.700001" /><g
           id="g93"><path
             id="path95"
             d="m 56.7,52.8 c 3.2,0 6.8,-6 6.8,-6 l -13.8,0 c 0,0 3.7,6 7,6 z"
             style="fill:#70471e" /></g><g
           id="g97"><path
             id="path99"
             d="m 70.7,31.4 c -0.8,-1.4 -2.1,0 -2.1,0 C 71,18 64.3,15 58.1,14.1 c 0,0 -1.2,-0.2 -1.5,-0.1 -0.3,0 -1.5,0.1 -1.5,0.1 -6.2,0.9 -13,3.8 -10.5,17.3 0,0 -1.3,-1.4 -2.1,0 -0.8,1.4 1.6,7.5 3.7,7 0,0 2.1,12.2 10.4,12.2 8.3,0 10.4,-12.2 10.4,-12.2 2.1,0.5 4.5,-5.6 3.7,-7 z"
             style="fill:#805931" /></g><path
           id="path101"
           d="m 56.3,13.2 c -14.5,0 -16.7,23.2 -16.7,25.7 0,2.5 7,6.1 8.2,4.3 1.3,-1.9 -2.1,-6.3 -2.1,-12.3 0,-4.6 3,-6.1 5.3,-8.5 2.4,-2.4 15.4,2.9 15.4,6.4 0,3.5 -1.3,13 -1.3,13.8 0,0.8 0.7,1.5 1.6,1.5 0.9,0 4.9,-3.7 6.4,-6.6 1.5,-2.8 -2.3,-24.3 -16.8,-24.3 z"
           style="fill:#3f190b" /></g><g
         id="g103"><path
           id="path105"
           d="M 76.3,110.5 C 71.4,100.9 69.5,88.4 69.5,88.4 L 56.3,88.8 43.1,88.4 c 0,0 -0.8,7.3 -6.8,22.1 -6,14.8 -8.4,63.3 -8.4,63.3 0,0 11.4,2.9 28.4,2.9 17,0 28.4,-2.9 28.4,-2.9 0,0 -3.5,-53.8 -8.4,-63.3 z"
           style="fill:#adc3c1" /><path
           id="path107"
           d="M 83.8,58.1 C 81.2,56 71.5,53.6 71.5,53.6 l -8,-5.6 c 0,0 1,7.5 -6.9,7.5 -7.9,0 -6.9,-7.5 -6.9,-7.5 l -8,5.6 c 0,0 -9.8,2.4 -12.3,4.5 -2.6,2.1 -6.7,34.1 -6.7,34.1 0.1,0.1 0.2,0.1 0.3,0.2 3.2,2.3 7,2.6 8.6,2.6 0.5,0 0.9,0 0.9,0 l 4.3,-13.7 2.1,22.4 35.5,0 1.9,-22.4 4.3,13.7 c 0,0 0.4,0 0.9,0 1.6,0 5.4,-0.4 8.6,-2.6 0.1,-0.1 0.2,-0.1 0.3,-0.2 0.1,0 -4.1,-32 -6.6,-34.1 z"
           style="fill:#38514e" /></g><path
         id="path109"
         d="m 36.8,81.4 c 0,0 -0.3,-0.5 -0.6,-1.3 -0.3,-0.8 -0.6,-1.9 -0.8,-3 -0.2,-1.1 -0.3,-2.3 -0.3,-3.1 0,-0.9 0.1,-1.5 0.1,-1.5 0,0 0.3,0.5 0.6,1.3 0.3,0.8 0.6,1.9 0.8,3 0.2,1.1 0.3,2.3 0.3,3.1 0,0.9 -0.1,1.5 -0.1,1.5 z"
         style="fill:#2a3d3a" /><path
         id="path111"
         d="m 76.3,81.4 c 0,0 -0.1,-0.6 -0.1,-1.5 0,-0.9 0.1,-2 0.3,-3.1 0.2,-1.1 0.5,-2.2 0.8,-3 0.3,-0.8 0.6,-1.3 0.6,-1.3 0,0 0.1,0.6 0.1,1.5 0,0.9 -0.1,2 -0.3,3.1 -0.2,1.1 -0.5,2.2 -0.8,3 -0.3,0.8 -0.6,1.3 -0.6,1.3 z"
         style="fill:#2a3d3a" /></g></g><g
     transform="translate(-20.551137,-0.10001831)"
     id="g113"><g
       id="g115"><path
         id="path117"
         d="m 174.9,233.7 c 0,0 -2.4,-0.4 -3.5,7.2 -1.1,7.6 -3.6,12.4 4.1,13.7 0,0 5.7,-0.4 5.8,-4 0.1,-3.5 0.2,-7.1 0.4,-9.8 0.1,-2.7 1.2,-11.6 -6.8,-7.1 z"
         style="fill:#363946" /><path
         id="path119"
         d="m 166.6,155.2 c 0,0 1,6.4 0.8,8.4 -0.2,2 -0.2,10.5 -0.4,11.6 -0.2,1.1 -2.3,10.7 -0.4,20.9 1.9,10.3 6.4,24.1 6.5,26 0,0 0.2,4.1 0,5.3 -0.2,1.2 -0.5,2.5 -0.3,3.4 0.2,0.9 0.8,1.9 0.7,3.1 -0.1,1.2 -2.4,9 -2.1,13.7 l 7.2,0 c 0,0 2.1,0.1 2.3,-2.8 0.2,-2.9 0.8,-9.3 0.8,-10.2 0,-0.9 -0.6,-2.5 -0.6,-3.1 0,-0.6 0.1,-3.9 -0.3,-4.7 -0.4,-0.9 -1.4,-3.1 -1.5,-5.8 -0.1,-2.7 -0.1,-11.9 0.6,-16.9 0.7,-5 0.8,-9.4 0.5,-11.5 -0.3,-2.1 -1.2,-9.4 -0.8,-11.7 0.4,-2.4 1.4,-6.2 1.7,-8.3 0.2,-2 0,-17.9 0,-17.9 l -14.7,0.5 z"
         style="fill:#deb079" /></g><g
       id="g121"><path
         id="path123"
         d="m 193.4,233.7 c 0,0 2.4,-0.4 3.5,7.2 1.1,7.6 3.6,12.4 -4.1,13.7 0,0 -5.7,-0.4 -5.8,-4 -0.1,-3.5 -0.2,-7.1 -0.4,-9.8 -0.1,-2.7 -1.2,-11.6 6.8,-7.1 z"
         style="fill:#363946" /><path
         id="path125"
         d="m 201.7,155.2 c 0,0 -1,6.4 -0.8,8.4 0.2,2 0.2,10.5 0.4,11.6 0.2,1.1 2.3,10.7 0.4,20.9 -1.9,10.3 -6.4,24.1 -6.5,26 0,0 -0.2,4.1 0,5.3 0.2,1.2 0.5,2.5 0.3,3.4 -0.2,0.9 -0.8,1.9 -0.7,3.1 0.1,1.2 2.4,9 2.1,13.7 l -7.2,0 c 0,0 -2.1,0.1 -2.3,-2.8 -0.2,-2.9 -0.8,-9.3 -0.8,-10.2 0,-0.9 0.6,-2.5 0.6,-3.1 0,-0.6 -0.1,-3.9 0.3,-4.7 0.4,-0.9 1.4,-3.1 1.5,-5.8 0.1,-2.7 0.1,-11.9 -0.6,-16.9 -0.7,-5 -0.8,-9.4 -0.5,-11.5 0.3,-2.1 1.2,-9.4 0.8,-11.7 -0.4,-2.4 -1.4,-6.2 -1.7,-8.3 -0.2,-2 0,-17.9 0,-17.9 l 14.7,0.5 z"
         style="fill:#deb079" /></g><g
       id="g127"><path
         id="path129"
         d="m 211.5,85 c 2.6,-0.5 5.9,-1.7 5.9,-1.7 0,0 -2.9,-16.6 -4.5,-24.4 -1.6,-7.9 -3.3,-10.5 -4.5,-11.4 -1.1,-0.9 -4.7,-1.4 -7.3,-2.2 -2.6,-0.7 -7.2,-2.3 -7.2,-2.3 0,0 -0.8,-1.7 -1.2,-3.1 -0.4,-1.4 -2.4,-0.9 -2.4,-0.9 0,0 -2.8,-0.2 -5.4,-0.5 l 0,0 c 0,0 0,0 0,0 0,0 0,0 0,0 l 0,0 c -3.3,0.2 -5.6,0.5 -5.6,0.5 0,0 -2.1,-0.5 -2.5,0.9 -0.4,1.4 -1.3,3.1 -1.3,3.1 0,0 -4.6,1.5 -7.2,2.3 -2.6,0.7 -6.1,1.2 -7.3,2.2 -1.1,0.9 -2.8,3.5 -4.5,11.4 -1.6,7.9 -4.5,24.4 -4.5,24.4 0,0 3.2,1.2 5.9,1.7 2.6,0.5 7.1,0.3 7.1,0.3 0,0 -3.1,12.4 -3.5,18.9 -0.4,6.5 -1.3,23.5 -0.3,36.8 1,13.3 1.2,14.6 1.2,14.6 0,0 12,0.6 21.8,0.5 0.2,0 0.4,0 0.6,0 0.2,0 0.4,0 0.6,0 9.8,0.1 21.8,-0.5 21.8,-0.5 0,0 0.2,-1.3 1.2,-14.6 1,-13.3 0.1,-30.4 -0.3,-36.8 -0.4,-6.5 -3.5,-18.9 -3.5,-18.9 0,0 4.3,0.2 6.9,-0.3 z"
         style="fill:#363946" /></g><path
       id="path131"
       d="m 204.4,84.9 c 0,0 4.8,0.3 7.7,0 0,0 -0.2,1.5 0.1,2.7 0.3,1.2 1,5.6 1,8.1 0,2.5 -0.6,13.3 -1,16.9 -0.3,3.6 -0.3,5.7 -0.4,8.3 -0.1,2.6 -0.5,4.3 -0.5,5.6 0,1.3 0.3,4.3 0.5,5.4 0.3,1.1 0.6,2.5 0.1,4 -0.5,1.5 -1.2,3.8 -1.5,4.6 -0.3,0.8 -0.4,1.3 -1.8,2.2 -1.4,0.8 -5.3,3.7 -6,2.9 -0.6,-0.8 0.9,-2 0.9,-2 0,0 2.5,-2.2 3,-3 0.5,-0.8 2.2,-6.8 0.3,-7 0,0 -0.5,0.5 -0.5,1.5 0,0.9 -0.1,4.7 -1.9,4.7 -1.7,0 -0.6,-6.5 -0.6,-7.7 0,-1.2 0.1,-4.1 0.8,-5.7 0.7,-1.6 1.4,-2.7 1.8,-4 0.3,-1.3 0.3,-6.4 0,-9.6 -0.3,-3.2 -2.3,-18.2 -2.3,-19.7 -0.1,-1.6 0.3,-8.2 0.3,-8.2 z"
       style="fill:#deb079" /><path
       id="path133"
       d="m 165,84.9 c 0,0 -4.8,0.4 -7.7,0 0,0 0.2,1.4 -0.1,2.7 -0.3,1.2 -1,5.6 -1,8.1 0,2.5 0.6,13.3 1,16.9 0.3,3.6 0.3,5.7 0.4,8.3 0.1,2.6 0.5,4.3 0.5,5.6 0,1.3 -0.2,4.3 -0.5,5.4 -0.3,1.1 -0.6,2.5 -0.1,4 0.5,1.5 1.2,3.8 1.5,4.6 0.3,0.8 0.4,1.3 1.8,2.2 1.4,0.8 5.3,3.7 6,2.9 0.6,-0.8 -0.9,-2 -0.9,-2 0,0 -2.5,-2.2 -3,-3 -0.5,-0.8 -2.2,-6.8 -0.3,-7 0,0 0.5,0.5 0.5,1.5 0,0.9 0.1,4.7 1.9,4.7 1.7,0 0.6,-6.5 0.6,-7.7 0,-1.2 -0.1,-4.1 -0.8,-5.7 -0.7,-1.6 -1.4,-2.7 -1.8,-4 -0.4,-1.3 -0.3,-6.4 0,-9.6 0.3,-3.2 2.3,-18.2 2.3,-19.7 0,-1.6 -0.3,-8.2 -0.3,-8.2 z"
       style="fill:#deb079" /><path
       id="path135"
       d="m 191.2,37.8 c -0.4,-1.9 -0.5,-6 -0.5,-6 l -5.9,-2.8 0,0 0,0 0,0 0,0 -6.1,2.8 c 0,0 -0.2,4.1 -0.6,6 -0.4,1.9 -0.6,3.6 -0.6,3.6 0,0 1.2,1.4 3,2.3 1.8,0.9 3,1.4 4.3,1.5 l 0,0 c 0,0 0,0 0,0 0,0 0,0 0,0 l 0,0 c 1.3,0 2.4,-0.6 4.2,-1.5 1.9,-0.9 2.9,-2.3 2.9,-2.3 0,0 -0.3,-1.7 -0.7,-3.6 z"
       style="fill:#deb079" /><path
       id="path137"
       d="m 184.8,45.2 0,0 0,0 z"
       style="fill:#deb079" /><path
       id="path139"
       d="m 184.8,45.2 0,0 0,0 c 0,0 0,0 0,0 z"
       style="fill:#deb079" /><path
       id="path141"
       d="m 178.2,35.4 c 0,0 3.3,5.7 6.7,5.7 3.4,0 6,-5.7 6,-5.7 l -12.7,0 z"
       style="fill:#ce9f68" /><path
       id="path143"
       d="m 196.7,22.7 c -0.7,-1.2 -1.9,0 -1.9,0 3.1,-11.8 -4,-16.8 -10,-16.8 -5.9,0 -13.9,3.4 -11.4,16.8 0,0 -1.1,-1.2 -1.9,0 -0.7,1.2 1.2,6.7 3,6.2 0,0 4.2,10.8 10.2,10.8 l 0,0 c 0,0 0,0 0.1,0 0,0 0,0 0,0 l 0,0 c 6.1,0 8.7,-10.8 8.7,-10.8 2,0.5 3.9,-4.9 3.2,-6.2 z"
       style="fill:#deb079" /><g
       id="g145"><path
         id="path147"
         d="m 177.7,16 c 2.4,-2.8 10.3,-4.3 9.9,-6.7 0,0 4.2,6.8 5.2,8.3 1.1,1.7 1.7,5.6 1.7,5.6 l 0.8,-0.7 c 3,-11.9 -4.3,-17 -10.3,-17 -6.1,0 -14.2,3.4 -11.6,17.1 l 0.7,1.5 c 0,0.1 1.1,-5.3 3.6,-8.1 z"
         style="fill:#121623" /></g><path
       id="path149"
       d="m 191,169.6 c 0,0 -1,3.9 -0.4,5.8 0.6,1.9 1.8,5.4 3.5,8 -2.4,-2.6 -4,-6.2 -4.3,-8.3 -0.3,-2 -0.1,-4.6 1.2,-5.5 z"
       style="fill:#ce9f68" /><path
       id="path151"
       d="m 177.4,169.6 c 0,0 1,3.9 0.4,5.8 -0.6,1.9 -1.8,5.4 -3.5,8 2.4,-2.6 4,-6.2 4.3,-8.3 0.2,-2 0.1,-4.6 -1.2,-5.5 z"
       style="fill:#ce9f68" /><path
       id="path153"
       d="m 165,84.9 c 0,0 0,-0.5 -0.1,-1.3 -0.1,-0.8 -0.1,-2 -0.2,-3.4 0,-0.7 -0.1,-1.5 -0.1,-2.3 0,-0.8 -0.1,-1.6 -0.1,-2.5 0,-0.9 -0.1,-1.8 -0.1,-2.7 0,-0.9 -0.1,-1.8 -0.1,-2.8 0,-0.9 -0.1,-1.9 -0.1,-2.8 0,-0.5 -0.1,-0.9 -0.1,-1.4 0,-0.4 -0.1,-0.9 -0.1,-1.3 -0.1,-0.9 -0.1,-1.7 -0.2,-2.5 -0.1,-0.8 -0.1,-1.5 -0.2,-2.2 -0.1,-0.7 -0.1,-1.3 -0.2,-1.9 0,-0.3 -0.1,-0.5 -0.1,-0.8 0,-0.2 -0.1,-0.5 -0.1,-0.7 C 163.1,55.5 163,55 163,55 c 0,0 0.2,0.4 0.5,1.2 0.1,0.2 0.2,0.4 0.2,0.6 0.1,0.2 0.1,0.5 0.2,0.8 0.1,0.3 0.2,0.6 0.3,0.9 0.1,0.3 0.1,0.6 0.2,1 0.1,0.7 0.3,1.4 0.4,2.2 0.1,0.8 0.3,1.6 0.4,2.5 0.1,0.9 0.2,1.8 0.3,2.7 0.1,0.9 0.1,1.9 0.2,2.8 0,0.9 0.1,1.9 0.1,2.8 0,0.9 0,1.8 0,2.7 0,0.9 0,1.7 -0.1,2.5 0,0.8 -0.1,1.6 -0.1,2.3 -0.1,1.4 -0.2,2.6 -0.3,3.4 -0.2,1.1 -0.3,1.5 -0.3,1.5 z"
       style="fill:#252834" /><path
       id="path155"
       d="m 204,84.9 c 0,0 -0.1,-0.5 -0.2,-1.3 -0.1,-0.8 -0.2,-2 -0.3,-3.4 0,-0.7 -0.1,-1.5 -0.1,-2.3 0,-0.8 -0.1,-1.7 -0.1,-2.5 0,-0.9 0,-1.8 0,-2.7 0,-0.9 0,-1.9 0.1,-2.8 0.1,-0.9 0.1,-1.9 0.2,-2.8 0.1,-0.9 0.2,-1.8 0.3,-2.7 0.1,-0.9 0.2,-1.7 0.4,-2.5 0.1,-0.8 0.3,-1.5 0.4,-2.2 0.1,-0.3 0.1,-0.7 0.2,-1 0.1,-0.3 0.2,-0.6 0.3,-0.9 0.1,-0.3 0.1,-0.5 0.2,-0.8 0.1,-0.2 0.2,-0.4 0.2,-0.6 0.3,-0.8 0.5,-1.2 0.5,-1.2 0,0 -0.1,0.5 -0.2,1.3 0,0.2 -0.1,0.4 -0.1,0.7 0,0.2 -0.1,0.5 -0.1,0.8 -0.1,0.6 -0.2,1.2 -0.2,1.9 -0.1,0.7 -0.1,1.4 -0.2,2.2 -0.1,0.8 -0.1,1.6 -0.2,2.5 0,0.4 -0.1,0.9 -0.1,1.3 0,0.4 0,0.9 -0.1,1.4 -0.1,0.9 -0.1,1.8 -0.1,2.8 -0.1,0.9 -0.1,1.9 -0.1,2.8 0,0.9 -0.1,1.8 -0.1,2.7 0,0.9 -0.1,1.7 -0.1,2.5 0,0.8 -0.1,1.6 -0.1,2.3 -0.1,1.4 -0.2,2.6 -0.2,3.4 -0.1,0.7 -0.2,1.1 -0.2,1.1 z"
       style="fill:#252834" /></g><g
     transform="translate(-20.551137,-0.10001831)"
     id="g157"><g
       id="g159"><path
         id="path161"
         d="m 91.6,229.6 c 0,0 -2.4,-0.4 -3.5,7.2 -1.1,7.6 -3.6,12.4 4.1,13.7 0,0 5.7,-0.4 5.8,-4 0.1,-3.5 0.2,-7.1 0.4,-9.8 0.1,-2.7 1.2,-11.5 -6.8,-7.1 z"
         style="fill:#363946" /><path
         id="path163"
         d="m 83.3,151.1 c 0,0 1,6.4 0.8,8.4 -0.2,2 -0.2,10.5 -0.4,11.6 -0.2,1.1 -2.3,10.7 -0.4,20.9 1.9,10.3 6.4,24.1 6.5,26 0,0 0.2,4.1 0,5.3 -0.2,1.2 -0.5,2.5 -0.3,3.4 0.2,0.9 0.8,1.9 0.7,3.1 -0.1,1.2 -2.4,9 -2.1,13.7 l 7.2,0 c 0,0 2.1,0.1 2.3,-2.8 0.2,-2.9 0.8,-9.3 0.8,-10.2 0,-0.9 -0.6,-2.5 -0.6,-3.1 0,-0.6 0.1,-3.9 -0.3,-4.7 -0.4,-0.9 -1.4,-3.1 -1.5,-5.8 -0.1,-2.7 -0.1,-11.9 0.6,-16.9 0.7,-5 0.8,-9.4 0.5,-11.5 -0.3,-2.1 -1.2,-9.4 -0.8,-11.7 0.4,-2.4 1.4,-6.2 1.7,-8.3 0.2,-2 0,-17.9 0,-17.9 l -14.7,0.5 z"
         style="fill:#d3a56f" /></g><g
       id="g165"><path
         id="path167"
         d="m 110.1,229.6 c 0,0 2.4,-0.4 3.5,7.2 1.1,7.6 3.6,12.4 -4.1,13.7 0,0 -5.7,-0.4 -5.8,-4 -0.1,-3.5 -0.2,-7.1 -0.4,-9.8 -0.1,-2.7 -1.2,-11.5 6.8,-7.1 z"
         style="fill:#363946" /><path
         id="path169"
         d="m 118.4,151.1 c 0,0 -1,6.4 -0.8,8.4 0.2,2 0.2,10.5 0.4,11.6 0.2,1.1 2.3,10.7 0.4,20.9 -1.9,10.3 -6.4,24.1 -6.5,26 0,0 -0.2,4.1 0,5.3 0.2,1.2 0.5,2.5 0.3,3.4 -0.2,0.9 -0.8,1.9 -0.7,3.1 0.1,1.2 2.4,9 2.1,13.7 l -7.2,0 c 0,0 -2.1,0.1 -2.3,-2.8 -0.2,-2.9 -0.8,-9.3 -0.8,-10.2 0,-0.9 0.6,-2.5 0.6,-3.1 0,-0.6 -0.1,-3.9 0.3,-4.7 0.4,-0.9 1.4,-3.1 1.5,-5.8 0.1,-2.7 0.1,-11.9 -0.6,-16.9 -0.7,-5 -0.8,-9.4 -0.5,-11.5 0.3,-2.1 1.2,-9.4 0.8,-11.7 -0.4,-2.4 -1.4,-6.2 -1.7,-8.3 -0.2,-2 0,-17.9 0,-17.9 l 14.7,0.5 z"
         style="fill:#d3a56f" /></g><g
       id="g171"><path
         id="path173"
         d="m 128.2,81 c 2.6,-0.5 5.9,-1.7 5.9,-1.7 0,0 -2.9,-16.6 -4.5,-24.4 -1.6,-7.9 -3.3,-10.5 -4.5,-11.4 -1.2,-0.9 -4.7,-1.4 -7.3,-2.2 -2.6,-0.7 -7.2,-2.3 -7.2,-2.3 0,0 -0.8,-1.7 -1.2,-3.1 C 109,34.5 107,35 107,35 c 0,0 -2.8,-0.2 -5.4,-0.5 l 0,0 c 0,0 0,0 0,0 0,0 0,0 0,0 l 0,0 C 98.3,34.7 96,35 96,35 c 0,0 -2.1,-0.5 -2.5,0.9 -0.4,1.4 -1.3,3.1 -1.3,3.1 0,0 -4.6,1.5 -7.2,2.3 -2.6,0.7 -6.1,1.2 -7.3,2.2 -1.1,0.9 -2.8,3.5 -4.5,11.4 -1.6,7.9 -4.5,24.4 -4.5,24.4 0,0 3.2,1.2 5.9,1.7 2.6,0.5 7.1,0.3 7.1,0.3 0,0 -3.1,12.4 -3.5,18.9 -0.4,6.5 -1.3,23.5 -0.3,36.8 1,13.3 1.2,14.6 1.2,14.6 0,0 12,0.6 21.8,0.5 0.2,0 0.4,0 0.6,0 0.2,0 0.4,0 0.6,0 9.8,0.1 21.8,-0.5 21.8,-0.5 0,0 0.2,-1.3 1.2,-14.6 1,-13.3 0.1,-30.4 -0.3,-36.8 -0.4,-6.5 -3.5,-18.9 -3.5,-18.9 0,0 4.3,0.2 6.9,-0.3 z"
         style="fill:#b24d4b" /></g><path
       id="path175"
       d="m 121.1,80.9 c 0,0 4.8,0.3 7.7,0 0,0 -0.2,1.5 0.1,2.7 0.3,1.2 1,5.6 1,8.1 0,2.5 -0.6,13.3 -1,16.9 -0.3,3.6 -0.3,5.7 -0.4,8.3 -0.1,2.6 -0.5,4.3 -0.5,5.6 0,1.3 0.3,4.3 0.5,5.4 0.3,1.1 0.6,2.5 0.1,4 -0.5,1.5 -1.2,3.8 -1.5,4.6 -0.3,0.8 -0.4,1.3 -1.8,2.2 -1.4,0.8 -5.3,3.7 -6,2.9 -0.6,-0.8 0.9,-2 0.9,-2 0,0 2.5,-2.2 3,-3 0.5,-0.8 2.2,-6.8 0.3,-7 0,0 -0.5,0.5 -0.5,1.5 0,1 -0.1,4.7 -1.9,4.7 -1.7,0 -0.6,-6.5 -0.6,-7.7 0,-1.2 0.1,-4.1 0.8,-5.7 0.7,-1.6 1.4,-2.7 1.8,-4 0.3,-1.3 0.3,-6.4 0,-9.6 -0.3,-3.2 -2.3,-18.2 -2.3,-19.7 -0.1,-1.7 0.3,-8.2 0.3,-8.2 z"
       style="fill:#d3a56f" /><path
       id="path177"
       d="m 81.7,80.9 c 0,0 -4.8,0.4 -7.7,0 0,0 0.2,1.4 -0.1,2.7 -0.3,1.2 -1,5.6 -1,8.1 0,2.5 0.6,13.3 1,16.9 0.3,3.6 0.3,5.7 0.4,8.3 0.1,2.6 0.5,4.3 0.5,5.6 0,1.3 -0.2,4.3 -0.5,5.4 -0.3,1.1 -0.6,2.5 -0.1,4 0.5,1.5 1.2,3.8 1.5,4.6 0.3,0.8 0.4,1.3 1.8,2.2 1.4,0.8 5.3,3.7 6,2.9 0.6,-0.8 -0.9,-2 -0.9,-2 0,0 -2.5,-2.2 -3,-3 -0.5,-0.8 -2.2,-6.8 -0.3,-7 0,0 0.5,0.5 0.5,1.5 0,1 0.1,4.7 1.9,4.7 1.7,0 0.6,-6.5 0.6,-7.7 0,-1.2 -0.1,-4.1 -0.8,-5.7 -0.7,-1.6 -1.4,-2.7 -1.8,-4 -0.3,-1.3 -0.3,-6.4 0,-9.6 C 80,105.6 82,90.6 82,89.1 82.1,87.4 81.7,80.9 81.7,80.9 Z"
       style="fill:#d3a56f" /><path
       id="path179"
       d="m 108,33.7 c -0.4,-1.9 -0.5,-6 -0.5,-6 l -5.9,-2.8 0,0 0,0 0,0 0,0 -6.1,2.8 c 0,0 -0.2,4.1 -0.6,6 -0.4,1.9 -0.6,3.6 -0.6,3.6 0,0 1.2,1.4 3,2.3 1.8,0.9 3,1.4 4.3,1.5 l 0,0 c 0,0 0,0 0,0 0,0 0,0 0,0 l 0,0 c 1.3,0 2.4,-0.6 4.2,-1.5 1.9,-0.9 2.9,-2.3 2.9,-2.3 0,0 -0.3,-1.6 -0.7,-3.6 z"
       style="fill:#d3a56f" /><path
       id="path181"
       d="m 101.5,41.1 0,0 0,0 z"
       style="fill:#deb079" /><path
       id="path183"
       d="m 101.5,41.1 0,0 0,0 c 0,0 0,0 0,0 z"
       style="fill:#deb079" /><path
       id="path185"
       d="m 94.9,31.3 c 0,0 3.3,5.7 6.7,5.7 3.4,0 6,-5.7 6,-5.7 l -12.7,0 z"
       style="fill:#c49669" /><path
       id="path187"
       d="m 107.7,165.6 c 0,0 -1,3.9 -0.4,5.8 0.6,1.9 1.8,5.4 3.5,8 -2.4,-2.6 -4,-6.2 -4.3,-8.3 -0.2,-2.1 -0.1,-4.7 1.2,-5.5 z"
       style="fill:#c49669" /><path
       id="path189"
       d="m 94.1,165.6 c 0,0 1,3.9 0.4,5.8 -0.6,1.9 -1.8,5.4 -3.5,8 2.4,-2.6 4,-6.2 4.3,-8.3 0.3,-2.1 0.1,-4.7 -1.2,-5.5 z"
       style="fill:#c49669" /><path
       id="path191"
       d="m 81.7,80.9 c 0,0 0,-0.5 -0.1,-1.3 -0.1,-0.8 -0.1,-2 -0.2,-3.4 0,-0.7 -0.1,-1.5 -0.1,-2.3 0,-0.8 -0.1,-1.6 -0.1,-2.5 0,-0.9 -0.1,-1.8 -0.1,-2.7 0,-0.9 -0.1,-1.8 -0.1,-2.8 0,-0.9 -0.1,-1.9 -0.1,-2.8 0,-0.5 -0.1,-0.9 -0.1,-1.4 0,-0.4 -0.1,-0.9 -0.1,-1.3 C 80.6,59.5 80.6,58.7 80.5,57.9 80.4,57.1 80.4,56.4 80.3,55.7 80.2,55 80.2,54.4 80.1,53.8 80.1,53.5 80,53.3 80,53 80,52.8 79.9,52.5 79.9,52.3 79.8,51.5 79.7,51 79.7,51 c 0,0 0.2,0.4 0.5,1.2 0.1,0.2 0.2,0.4 0.2,0.6 0.1,0.2 0.1,0.5 0.2,0.8 0.1,0.3 0.2,0.6 0.3,0.9 0.1,0.3 0.1,0.6 0.2,1 0.1,0.7 0.3,1.4 0.4,2.2 0.1,0.8 0.3,1.6 0.4,2.5 0.1,0.9 0.2,1.8 0.3,2.7 0.1,0.9 0.1,1.9 0.2,2.8 0,0.9 0.1,1.9 0.1,2.8 0,0.9 0,1.8 0,2.7 0,0.9 0,1.7 -0.1,2.5 0,0.8 -0.1,1.6 -0.1,2.3 -0.1,1.4 -0.2,2.6 -0.3,3.4 -0.2,1 -0.3,1.5 -0.3,1.5 z"
       style="fill:#994141" /><path
       id="path193"
       d="m 120.8,80.9 c 0,0 -0.1,-0.5 -0.2,-1.3 -0.1,-0.8 -0.2,-2 -0.3,-3.4 0,-0.7 -0.1,-1.5 -0.1,-2.3 0,-0.8 -0.1,-1.7 -0.1,-2.5 0,-0.9 0,-1.8 0,-2.7 0,-0.9 0,-1.9 0.1,-2.8 0.1,-0.9 0.1,-1.9 0.2,-2.8 0.1,-0.9 0.2,-1.8 0.3,-2.7 0.1,-0.9 0.2,-1.7 0.4,-2.5 0.1,-0.8 0.3,-1.5 0.4,-2.2 0.1,-0.3 0.1,-0.7 0.2,-1 0.1,-0.3 0.2,-0.6 0.3,-0.9 0.1,-0.3 0.1,-0.5 0.2,-0.8 0.1,-0.2 0.2,-0.4 0.2,-0.6 0.3,-0.8 0.5,-1.2 0.5,-1.2 0,0 -0.1,0.5 -0.2,1.3 0,0.2 -0.1,0.4 -0.1,0.7 0,0.2 -0.1,0.5 -0.1,0.8 -0.1,0.6 -0.2,1.2 -0.2,1.9 -0.1,0.7 -0.1,1.4 -0.2,2.2 -0.1,0.8 -0.1,1.6 -0.2,2.5 0,0.4 -0.1,0.9 -0.1,1.3 0,0.4 0,0.9 -0.1,1.4 -0.1,0.9 -0.1,1.8 -0.1,2.8 -0.1,0.9 -0.1,1.9 -0.1,2.8 0,0.9 -0.1,1.8 -0.1,2.7 0,0.9 -0.1,1.7 -0.1,2.5 0,0.8 -0.1,1.6 -0.1,2.3 -0.1,1.4 -0.2,2.6 -0.2,3.4 -0.2,0.6 -0.2,1.1 -0.2,1.1 z"
       style="fill:#994141" /><path
       id="path195"
       d="m 111.6,24.2 c 0.5,4.5 3.5,14.1 3.5,14.1 0,0 -0.9,4.2 -5.4,2.4 -4.5,-1.8 -4.4,-0.8 -4.4,-0.8 0,0 0.8,-4.2 0,-11.5 -0.8,-7.3 -4,-15.7 -4,-15.7 l 8.9,0.6 1.4,10.9 z"
       style="fill:#3f2a14" /><g
       id="g197"><path
         id="path199"
         d="m 101.4,4.3 c -5.2,0 -9.5,5.3 -10.5,12.4 -0.3,0 -0.6,-0.1 -1,0 -1.3,0.1 -0.1,6 1.1,6.9 1.2,6.6 5.4,11.5 10.3,11.5 l -0.5,0 c 5,0 9.1,-4.9 10.3,-11.5 1.2,-0.9 2.4,-6.8 1.1,-6.9 -0.3,0 -0.7,0 -1,0 -1,-7.1 -5.3,-12.4 -10.5,-12.4 l 0.7,0 z"
         style="fill:#d3a56f" /></g><path
       id="path201"
       d="m 90,16.1 c 0,0 -1.2,-4.6 1.5,-9 2.6,-4.4 9.3,-7.1 15.1,-3.9 3.8,-0.7 8.3,11 4.8,13 l -0.7,3 -0.2,-4 -0.8,-2.7 -0.9,-1.7 -1.4,-1.6 -3.1,-1.6 c 0,0 -4.5,1.5 -7.3,4.5 -2,2.1 -4.8,3.5 -4.8,3.5 0,0 0.6,-0.2 -0.9,0.4 0,0 0.3,1.6 0.2,3.8 -0.1,2.2 0.3,7.7 0.6,10.4 0.3,2.7 0.9,4.8 0.9,4.8 0,0 -2.7,-8.3 -3,-10.2 0,-2 0,-8.7 0,-8.7 z"
       style="fill:#3f2a14" /></g><g
     transform="translate(-20.551137,-0.10001831)"
     id="g203"><path
       id="path205"
       d="m 148.4,6.8 c 0,0 1.7,2.4 1.5,4.7 0,0 1.8,-1.6 1.4,-3.2 l -2.9,-1.5 z"
       style="fill:#777572" /><g
       id="g207"><rect
         id="rect209"
         height="30.6"
         width="13.8"
         style="fill:#deb079"
         y="27.5"
         x="136.89999" /><g
         id="g211"><path
           id="path213"
           d="m 143.8,41.9 c 3.2,0 6.8,-6 6.8,-6 l -13.8,0 c 0.1,0 3.7,6 7,6 z"
           style="fill:#ce9f68" /></g><g
         id="g215"><path
           id="path217"
           d="m 157.9,20.6 c -0.8,-1.4 -2.1,0 -2.1,0 2.5,-13.4 -4.3,-16.4 -10.5,-17.3 0,0 -1.2,-0.2 -1.5,-0.1 -0.3,0 -1.5,0.1 -1.5,0.1 -6.2,0.9 -13,3.8 -10.5,17.3 0,0 -1.3,-1.4 -2.1,0 -0.8,1.4 1.6,7.5 3.7,7 0,0 2.1,12.2 10.4,12.2 8.3,0 10.4,-12.2 10.4,-12.2 2,0.5 4.5,-5.6 3.7,-7 z"
           style="fill:#deb079" /></g><path
         id="path219"
         d="m 143.5,2.3 c -14.5,0 -16.7,23.2 -16.7,25.7 0,2.5 7,6.1 8.2,4.3 1.3,-1.9 -2.1,-6.3 -2.1,-12.3 0,-4.6 3,-6.1 5.3,-8.5 2.4,-2.4 15.4,2.9 15.4,6.4 0,3.5 -1.3,13 -1.3,13.8 0,0.8 0.7,1.5 1.6,1.5 0.9,0 4.9,-3.7 6.4,-6.6 C 161.8,23.8 158,2.3 143.5,2.3 Z"
         style="fill:#777572" /></g><g
       id="g221"><path
         id="path223"
         d="m 136,233.8 c 0,0 -2.4,-0.4 -3.5,7.2 -1.1,7.6 -3.6,12.4 4.1,13.7 0,0 5.7,-0.4 5.8,-4 0.1,-3.5 0.2,-7.1 0.4,-9.8 0.2,-2.7 1.2,-11.5 -6.8,-7.1 z"
         style="fill:#363946" /><path
         id="path225"
         d="m 127.8,155.3 c 0,0 1,6.4 0.8,8.4 -0.2,2 -0.2,10.5 -0.4,11.6 -0.2,1.1 -2.3,10.7 -0.4,20.9 1.9,10.3 6.4,24.1 6.5,26 0,0 0.2,4.1 0,5.3 -0.2,1.2 -0.5,2.5 -0.3,3.4 0.2,0.9 0.8,1.9 0.7,3.1 -0.1,1.2 -2.4,9 -2.1,13.7 l 7.2,0 c 0,0 2.1,0.1 2.3,-2.8 0.2,-2.9 0.8,-9.3 0.8,-10.2 0,-0.9 -0.6,-2.5 -0.6,-3.1 0,-0.6 0.1,-3.9 -0.3,-4.7 -0.4,-0.9 -1.4,-3.1 -1.5,-5.8 -0.1,-2.7 -0.1,-11.9 0.6,-16.9 0.7,-5 0.8,-9.4 0.5,-11.5 -0.3,-2.1 -1.2,-9.4 -0.8,-11.7 0.4,-2.4 1.4,-6.2 1.7,-8.3 0.2,-2 0,-17.9 0,-17.9 l -14.7,0.5 z"
         style="fill:#d3a56f" /></g><g
       id="g227"><path
         id="path229"
         d="m 154.6,233.8 c 0,0 2.4,-0.4 3.5,7.2 1.1,7.6 3.6,12.4 -4.1,13.7 0,0 -5.7,-0.4 -5.8,-4 -0.1,-3.5 -0.2,-7.1 -0.4,-9.8 -0.2,-2.7 -1.2,-11.5 6.8,-7.1 z"
         style="fill:#363946" /><path
         id="path231"
         d="m 162.8,155.3 c 0,0 -1,6.4 -0.8,8.4 0.2,2 0.2,10.5 0.4,11.6 0.2,1.1 2.3,10.7 0.4,20.9 -1.9,10.3 -6.4,24.1 -6.5,26 0,0 -0.2,4.1 0,5.3 0.2,1.2 0.5,2.5 0.3,3.4 -0.2,0.9 -0.8,1.9 -0.7,3.1 0.1,1.2 2.4,9 2.1,13.7 l -7,0 c 0,0 -2.1,0.1 -2.3,-2.8 -0.2,-2.9 -0.8,-9.3 -0.8,-10.2 0,-0.9 0.6,-2.5 0.6,-3.1 0,-0.6 -0.1,-3.9 0.3,-4.7 0.4,-0.9 1.4,-3.1 1.5,-5.8 0.1,-2.7 0.1,-11.9 -0.6,-16.9 -0.7,-5 -0.8,-9.4 -0.5,-11.5 0.3,-2.1 1.2,-9.4 0.8,-11.7 -0.4,-2.4 -1.4,-6.2 -1.7,-8.3 -0.2,-2 0,-17.9 0,-17.9 l 14.5,0.5 z"
         style="fill:#d3a56f" /></g><path
       id="path233"
       d="m 152.1,169.7 c 0,0 -1,3.9 -0.4,5.8 0.6,1.9 1.8,5.4 3.5,8 -2.4,-2.6 -4,-6.2 -4.3,-8.3 -0.2,-2 0,-4.6 1.2,-5.5 z"
       style="fill:#c49669" /><path
       id="path235"
       d="m 138.6,169.7 c 0,0 1,3.9 0.4,5.8 -0.6,1.9 -1.8,5.4 -3.5,8 2.4,-2.6 4,-6.2 4.3,-8.3 0.2,-2 0,-4.6 -1.2,-5.5 z"
       style="fill:#c49669" /><path
       id="path237"
       d="m 154.4,41.1 16,5 c 0,0 15.3,10.7 16,31 l 5.4,59.3 c 0,0 1.6,2.5 -4.3,9.2 L 189,165 c 0,0 -2,4.1 -6.5,5.4 l 0.9,8.1 -6.8,3.8 c 0,0 -3,-4.1 -1.5,-7.4 l -3.1,-1.4 -1.1,-7.2 c 0,0 2.7,52.3 -4.5,60.6 0,0 -2,3.6 -11.3,-4.1 0,0 -7.4,5 -12.6,-0.5 0,0 -4.3,6.1 -9.5,-1.1 0,0 -5,7.4 -8.8,0 l -6.3,-45.5 -2.6,-1.4 0,-5.4 c 0,0 -5.5,2.3 -3.7,-17.3 0,0 -12.9,-2.9 -12.2,-16 l -1,-39.4 0.5,-9.7 c 0,0 -1.3,-4.5 1.1,-6.3 l 2.9,-9.5 c 0,0 -1.6,-14.9 9.9,-23 l 20.3,-6.8 10.2,13.3 c 0.3,0.2 2,-2 11.1,-13.1 z"
       style="fill:#252626" /><polygon
       id="polygon239"
       points="154.4,41.1 147.4,50.2 143.7,45.6 152.4,38.5 "
       style="fill:#ededed" /><polygon
       id="polygon241"
       points="133.4,41.1 140.5,50.7 144,45.6 135.5,38.5 "
       style="fill:#ededed" /><polygon
       id="polygon243"
       points="138.2,65.4 141.3,45.6 146.1,45.6 144.3,65.9 "
       style="fill:#dbd8d7" /><rect
       id="rect245"
       height="20.4"
       width="6.0999999"
       style="fill:#ededed"
       transform="matrix(-0.9961,0.08788002,-0.08788002,-0.9961,294.9066,97.9965)"
       y="45.299999"
       x="142.2" /><g
       id="g247"><path
         id="path249"
         d="m 112.8,140.3 c 0,-0.1 0,-0.2 0.1,-0.3 0.1,-0.4 0.3,-0.6 0.5,-0.7 0.1,0 0.2,0 0.3,0 0.1,0 0.1,0 0.2,0.1 0.1,0.1 0.2,0.1 0.3,0.2 0.3,0.3 0.5,0.7 0.5,1.1 0,0.4 0.2,1.1 0.5,1.7 0.3,0.5 0.6,1.1 0.9,1.4 0.1,0.1 0.1,0.1 0.2,0.2 0.1,0.1 0.2,0.1 0.3,0.2 0.2,0.1 0.4,0.1 0.6,0 0.4,-0.1 0.5,-0.8 0.5,-1.7 0,-0.4 0,-0.8 0,-1.2 0,-0.4 -0.1,-0.8 -0.1,-1.2 0,-0.2 -0.1,-0.5 -0.1,-0.7 0,-0.2 -0.1,-0.4 -0.1,-0.6 -0.2,-1 -0.3,-1.9 -0.4,-2.4 l 0,0 c 0,-0.2 -0.1,-0.4 -0.2,-0.6 0,-0.1 0,-0.1 -0.1,-0.2 -0.1,-0.2 -0.2,-0.4 -0.3,-0.7 0,0 0,0 0,0 -0.1,-0.3 -0.3,-0.5 -0.4,-0.8 0,0 0,0 0,-0.1 -0.4,-0.7 -0.8,-1.4 -1.2,-2.1 -0.4,-0.7 -0.7,-1.3 -0.8,-1.6 0,-0.2 -0.2,-0.9 -0.4,-2 l 3,-40.7 c 0,0 -8.7,-1.1 -8.8,-1.2 l -0.4,9.7 0,0 0,0 c 0,0 -0.3,1.3 -0.5,3.3 -0.4,2.6 -0.8,6.3 -0.9,9.8 0,1.6 0.1,3.5 0.2,5.6 0.1,1 0.2,2.1 0.3,3.1 0.2,1.6 0.3,3.2 0.5,4.6 0.1,0.9 0.2,1.8 0.3,2.6 0,0.1 0,0.2 0,0.3 0.1,1.2 0.3,2.3 0.4,3.1 0.1,0.6 0.1,1 0.1,1.3 0,0.4 0,1 0,1.8 0,0.7 0,1.6 0,2.5 0,0.6 0,1.2 0,1.8 0,0.6 0,1.2 0,1.8 0,0.3 0,0.6 0,0.8 0.1,1.3 0.2,2.4 0.5,2.8 0.2,0.3 0.5,0.8 0.8,1.3 1,1.6 2.4,3.6 3.6,4.4 0.8,0.5 1.8,1.2 2.8,1.7 1,0.5 1.8,0.8 2.2,0.3 0,-0.1 0.1,-0.1 0.1,-0.2 -0.2,-1.3 -5.2,-6.6 -5,-8.5 z"
         style="fill:#edcaab" /></g><path
       id="path251"
       d="m 116.3,131.4 c 0,0 -4.3,-3.6 -10.3,-0.6 l -2.2,-26.7 c 0,0 12.3,-9.1 12.5,-1 l 0,28.3 z"
       style="fill:#e3dfde" /><g
       id="g253"><path
         id="path255"
         d="m 172.5,143.4 c 0,-0.1 0,-0.2 -0.1,-0.3 -0.1,-0.4 -0.3,-0.6 -0.5,-0.7 -0.1,0 -0.2,0 -0.3,0 -0.1,0 -0.1,0 -0.2,0.1 -0.1,0.1 -0.2,0.1 -0.3,0.2 -0.3,0.3 -0.5,0.7 -0.5,1.1 0,0.4 -0.2,1.1 -0.5,1.7 -0.3,0.5 -0.6,1.1 -0.9,1.4 -0.1,0.1 -0.1,0.1 -0.2,0.2 -0.1,0.1 -0.2,0.1 -0.3,0.2 -0.2,0.1 -0.4,0.1 -0.6,0 -0.4,-0.1 -0.5,-0.8 -0.5,-1.7 0,-0.4 0,-0.8 0,-1.2 0,-0.4 0.1,-0.8 0.1,-1.2 0,-0.2 0.1,-0.5 0.1,-0.7 0,-0.2 0.1,-0.4 0.1,-0.6 0.2,-1 0.3,-1.9 0.4,-2.4 0,0 0,0 0,0 0,-0.2 0.1,-0.4 0.2,-0.6 0,-0.1 0,-0.1 0.1,-0.2 0.1,-0.2 0.2,-0.4 0.3,-0.7 0,0 0,0 0,0 0.1,-0.3 0.3,-0.5 0.4,-0.8 0,0 0,0 0,-0.1 0.4,-0.7 0.8,-1.4 1.2,-2.1 0.4,-0.7 0.7,-1.3 0.8,-1.6 0,-0.2 0.2,-0.9 0.4,-2 l -3,-40.7 c 0,0 8.7,-1.1 8.8,-1.2 l 0.4,9.7 0,0 0,0 c 0,0 0.3,1.3 0.5,3.3 0.4,2.6 0.8,6.3 0.9,9.8 0,1.6 -0.1,3.5 -0.2,5.6 -0.1,1 -0.2,2.1 -0.3,3.1 -0.2,1.6 -0.3,3.2 -0.5,4.6 -0.1,0.9 -0.2,1.8 -0.3,2.6 0,0.1 0,0.2 0,0.3 -0.1,1.2 -0.3,2.3 -0.4,3.1 -0.1,0.6 -0.1,1 -0.1,1.3 0,0.4 0,1 0,1.8 0,0.7 0,1.6 0,2.5 0,0.6 0,1.2 0,1.8 0,0.6 0,1.2 0,1.8 0,0.3 0,0.6 0,0.8 -0.1,1.3 -0.2,2.4 -0.5,2.8 -0.2,0.3 -0.5,0.8 -0.8,1.3 -1,1.6 -2.4,3.6 -3.6,4.4 -0.8,0.5 -1.8,1.2 -2.8,1.7 -1,0.5 -1.8,0.8 -2.2,0.3 0,-0.1 -0.1,-0.1 -0.1,-0.2 0.2,-1.3 5.3,-6.6 5,-8.5 z"
         style="fill:#edcaab" /></g><path
       id="path257"
       d="m 169,134.5 c 0,0 4.3,-3.6 10.3,-0.6 l 2.2,-26.7 c 0,0 -12.3,-9.1 -12.5,-1 l 0,28.3 z"
       style="fill:#e3dfde" /><polygon
       id="polygon259"
       points="183.5,99.8 177.9,108.3 107.5,108.3 102.3,102.9 103.9,96.9 105.8,86.4 107.5,79.5 177.9,79.5 179.6,86.4 181.5,92.1 "
       style="fill:#252626" /></g></svg>