<?xml version="1.0" encoding="UTF-8" standalone="no"?>
<svg
   xmlns:dc="http://purl.org/dc/elements/1.1/"
   xmlns:cc="http://creativecommons.org/ns#"
   xmlns:rdf="http://www.w3.org/1999/02/22-rdf-syntax-ns#"
   xmlns:svg="http://www.w3.org/2000/svg"
   xmlns="http://www.w3.org/2000/svg"
   height="262"
   width="259"
   xml:space="preserve"
   viewBox="0 0 259 262"
   y="0px"
   x="0px"
   id="Layer_1"
   version="1.1"><metadata
     id="metadata115"><rdf:RDF><cc:Work
         rdf:about=""><dc:format>image/svg+xml</dc:format><dc:type
           rdf:resource="http://purl.org/dc/dcmitype/StillImage" /><dc:title></dc:title></cc:Work></rdf:RDF></metadata><defs
     id="defs113" /><rect
     id="rect3"
     height="38"
     width="238.2"
     style="fill:#bbc199"
     y="224"
     x="10.4" /><g
     transform="translate(-21.300001,-6.1035156e-6)"
     id="g5"><polygon
       id="polygon7"
       points="85.3,138.2 79,123.2 73.6,123.2 72.6,139.8 79.6,146.7 83.9,148.1 83.9,146.1 78.8,143.2 79.6,138.1 82.1,138.8 82.5,142.1 85.3,143.6 "
       style="fill:#e8ba8f" /><polygon
       id="polygon9"
       points="121.5,138.2 127.6,123.2 132.9,123.2 134,139.8 127.2,146.7 123,148.1 123,146.1 127.9,143.2 127,138.1 124.5,138.8 124.2,142.1 121.5,143.6 "
       style="fill:#e8ba8f" /><polygon
       id="polygon11"
       points="95.5,30.2 95.5,37.9 104,46.3 111.4,39.2 111.4,27.9 "
       style="fill:#eac19a" /><path
       id="path13"
       d="m 93,20.4 c 0,0 -2.9,-15.2 9.8,-15.2 12.7,0 10.7,15.2 10.7,15.2 0,0 1.6,-1.1 2.4,-0.4 0.8,0.7 1,7.1 -3.3,8 0,0 -1.1,3.8 -1.8,4.5 -0.7,0.7 -3,4.9 -7.6,4.9 -2.4,0 -5.2,-2.3 -7,-4.9 -1.7,-2.5 -2.4,-5.4 -2.4,-5.4 0,0 -4.3,-1.1 -2.9,-7.1 0,-0.1 1.3,-1 2.1,0.4 z"
       style="fill:#e9be94" /><path
       id="path15"
       d="m 95.8,36.8 c 0,0 0.5,2.4 6.5,6.7 l 4.2,0 c 0,0 4.7,-4.9 4.9,-5.2 0.2,-0.3 0.1,-2 0.1,-2 0,0 2.3,2.2 1.8,6.3 -0.5,4.1 -8.5,33 -8.5,33 0,0 -16,-34.8 -9.1,-38.7"
       style="fill:#d6d5d6" /><path
       id="path17"
       d="m 90.9,232.6 c 0,0 -0.8,7.5 -1.5,9.3 -0.7,1.9 -2.3,4.9 -2.3,6.4 0,1.5 1.4,3.4 7.2,3.4 5.8,0 6.7,-0.5 6.7,-4.3 0,-3.8 0,-14.8 0,-14.8 l -10.1,0 z"
       style="fill:#1a1c1c" /><path
       id="path19"
       d="m 117.7,232.6 c 0,0 0.8,7.5 1.5,9.3 0.7,1.9 2.3,4.9 2.3,6.4 0,1.5 -1.3,3.4 -7.1,3.4 -5.8,0 -6.7,-0.5 -6.7,-4.3 0,-3.8 0,-14.8 0,-14.8 l 10,0 z"
       style="fill:#1a1c1c" /><path
       id="path21"
       d="m 93.3,22 -1.5,-2.4 0,-11.3 c 0,0 3.6,-6.7 12.7,-8.4 0,0 8.4,3.1 9.8,10.3 l 0,9.5 -1.9,2.1 c 0,0 2.1,-14.3 -9.4,-14.3 C 91.6,7.6 93.3,22 93.3,22 Z"
       style="fill:#3f2a14" /><polygon
       id="polygon23"
       points="105.9,49.1 107.1,48.2 107.1,46.7 105.2,43.6 102,43.6 99.8,46.7 99.8,48.2 101.3,49.1 99,69.6 103.6,69.6 104,69.6 108.6,69.6 "
       style="fill:#668c9e" /><path
       id="path25"
       d="m 131,50.2 c -2.3,-2.3 -14.1,-6.8 -14.1,-6.8 l -4.4,-5.7 c 0.1,10.5 -6.4,26.2 -8.8,31.5 -2.3,-5.3 -8.9,-21 -8.8,-31.5 l -4.4,5.6 c 0,0 -11.8,4.7 -14.1,7 -2.3,2.3 -9.8,18 -5.4,83.1 0,0 5.1,0 8.8,0 l 1.7,6.7 c 0,0 10.8,0.5 22.3,0.4 11.5,0.1 22.3,-0.4 22.3,-0.4 l 1.7,-6.7 c 3.7,0 8.8,0 8.8,0 4.2,-65.2 -3.3,-80.9 -5.6,-83.2 z"
       style="fill:#424041" /><circle
       id="circle27"
       r="1.2"
       cy="85.199997"
       cx="104.4"
       style="fill:#605f60" /><circle
       id="circle29"
       r="1.2"
       cy="98.300003"
       cx="104.4"
       style="fill:#605f60" /><path
       id="path31"
       d="m 104.1,137.1 -13.6,0 -8.4,0 c 0,0 0.4,33 1.4,46.6 1,13.6 2.4,28.3 2.6,30.1 0.2,1.8 2.4,21 2.4,21 0,0 4.3,1.1 6.9,1.1 2.6,0 6.8,-1.1 6.8,-1.1 0,0 0.4,-17.4 0,-23.6 -0.4,-6.3 0,-30.2 0.2,-37.6 0.2,-7.3 0.2,-22.2 1.8,-22.2 1.6,0 2,14.9 2.2,22.2 0.2,7.3 0.6,31.3 0.2,37.6 -0.4,6.3 0,23.6 0,23.6 0,0 4.6,1.1 7.1,1.1 2.5,0 6.7,-1.1 6.7,-1.1 0,0 2.2,-19.3 2.4,-21.1 0.2,-1.8 1.6,-16.4 2.6,-30 1,-13.6 1.4,-46.6 1.4,-46.6 l -22.7,0 z"
       style="fill:#4c4c4c" /></g><g
     transform="translate(-21.300001,-6.1035156e-6)"
     id="g33"><g
       id="g35"><polygon
         id="polygon37"
         points="180.4,139.2 174.2,124.4 168.9,124.4 167.8,140.8 174.7,147.7 179,149 179,147.1 174,144.2 174.8,139.1 177.3,139.8 177.6,143.1 180.4,144.6 "
         style="fill:#e8ba8f" /><polygon
         id="polygon39"
         points="216.2,139.2 222.2,124.4 227.4,124.4 228.5,140.8 221.7,147.7 217.6,149 217.6,147.1 222.5,144.2 221.6,139.1 219.1,139.8 218.9,143.1 216.2,144.6 "
         style="fill:#e8ba8f" /><polygon
         id="polygon41"
         points="190.5,32.6 190.5,40.2 198.9,48.5 206.2,41.5 206.2,30.4 "
         style="fill:#eac19a" /><path
         id="path43"
         d="m 188,22.9 c 0,0 -2.9,-15 9.7,-15 12.5,0 10.5,15 10.5,15 0,0 1.5,-1.1 2.4,-0.4 0.9,0.7 1,7 -3.2,7.9 0,0 -1.1,3.8 -1.8,4.4 -0.7,0.7 -3,4.9 -7.5,4.9 -2.4,0 -5.1,-2.2 -6.9,-4.9 -1.6,-2.5 -2.4,-5.4 -2.4,-5.4 0,0 -4.3,-1.1 -2.9,-7 0,0.1 1.3,-0.9 2.1,0.5 z"
         style="fill:#e9be94" /><path
         id="path45"
         d="m 190.8,39.1 c 0,0 0.5,2.4 6.4,6.7 l 4.1,0 c 0,0 4.6,-4.8 4.8,-5.1 0.2,-0.3 0.1,-2 0.1,-2 0,0 2.2,2.2 1.8,6.2 -0.4,4 -8.4,32.6 -8.4,32.6 0,0 -15.8,-34.4 -9,-38.2"
         style="fill:#d6d5d6" /><path
         id="path47"
         d="m 186,232.4 c 0,0 -0.8,7.4 -1.5,9.2 -0.7,1.9 -2.3,4.8 -2.3,6.3 0,1.5 1.3,3.4 7.1,3.4 5.7,0 6.6,-0.5 6.6,-4.3 0,-3.8 0,-14.6 0,-14.6 l -9.9,0 z"
         style="fill:#493c34" /><path
         id="path49"
         d="m 212.4,232.4 c 0,0 0.8,7.4 1.5,9.2 0.7,1.9 2.3,4.8 2.3,6.3 0,1.5 -1.3,3.4 -7,3.4 -5.7,0 -6.6,-0.5 -6.6,-4.3 0,-3.8 0,-14.6 0,-14.6 l 9.8,0 z"
         style="fill:#493c34" /><polygon
         id="polygon51"
         points="200.8,51.3 201.9,50.4 201.9,48.9 200.1,45.9 196.9,45.9 194.7,48.9 194.7,50.4 196.2,51.3 193.9,71.5 198.4,71.5 198.9,71.5 203.4,71.5 "
         style="fill:#b24d4b" /><path
         id="path53"
         d="m 225.6,52.4 c -2.3,-2.3 -13.9,-6.8 -13.9,-6.8 L 207.3,40 c 0.1,10.4 -6.4,25.9 -8.7,31.1 -2.3,-5.2 -8.8,-20.7 -8.7,-31.1 l -4.4,5.5 c 0,0 -11.7,4.6 -13.9,6.9 -2.3,2.3 -9.7,17.7 -5.4,82.1 0,0 5.1,0 8.7,0 l 1.7,6.6 c 0,0 10.6,0.5 22,0.4 11.4,0.1 22,-0.3 22,-0.3 l 1.7,-6.6 c 3.6,0 8.7,0 8.7,0 4.2,-64.5 -3.2,-80 -5.4,-82.2 z"
         style="fill:#1b2a35" /><circle
         id="circle55"
         r="1.2"
         cy="86.900002"
         cx="199.3"
         style="fill:#4f4c4d" /><circle
         id="circle57"
         r="1.2"
         cy="99.800003"
         cx="199.3"
         style="fill:#4f4c4d" /><path
         id="path59"
         d="m 198.9,138.2 -13.4,0 -8.3,0 c 0,0 0.4,32.6 1.4,46 1,13.4 2.3,28 2.5,29.7 0.2,1.8 2.3,20.7 2.3,20.7 0,0 4.3,1.1 6.8,1.1 2.6,0 6.7,-1.1 6.7,-1.1 0,0 0.4,-17.2 0,-23.3 -0.4,-6.2 0,-29.9 0.2,-37.1 0.2,-7.2 0.2,-21.9 1.7,-21.9 1.6,0 1.9,14.7 2.1,21.9 0.2,7.2 0.6,30.9 0.2,37.1 -0.4,6.2 0,23.3 0,23.3 0,0 4.5,1.1 7,1.1 2.5,0 6.6,-1.1 6.6,-1.1 0,0 2.1,-19.1 2.3,-20.9 0.2,-1.8 1.6,-16.2 2.5,-29.6 1,-13.4 1.4,-46 1.4,-46 l -22,0 z"
         style="fill:#243742" /></g><g
       id="g61"><path
         id="path63"
         d="m 186.9,22.1 c 0,0 -0.3,-7.1 0.5,-9.4 0.8,-2.4 2.7,-6.9 10.3,-7 7.7,-0.1 11.3,4.7 11.8,6.9 0.5,2.2 0.3,9.4 0.3,9.4 l -1.9,2.1 c 0,0 0.7,-7.8 -2.1,-10.2 0,0 -4.7,1.5 -7.4,1.5 -2.7,0 -6.9,-1.6 -6.9,-1.6 0,0 -2.9,0.2 -2.8,10.2 l -1.8,-1.9 z"
         style="fill:#baa99d" /></g></g><g
     transform="translate(-21.300001,-6.1035156e-6)"
     id="g65"><path
       id="path67"
       d="m 153.4,136.6 -12.6,0 -7.8,0 c 0,0 0.4,39.5 1.3,53 0.9,13.6 2.2,28.3 2.4,30 0.2,1.8 2.2,20.9 2.2,20.9 0,0 4,1.1 6.4,1.1 2.4,0 6.4,-1.1 6.4,-1.1 0,0 0.4,-17.3 0,-23.6 -0.4,-6.2 0,-30.2 0.2,-37.5 0.2,-7.2 0.2,-22.1 1.6,-22.1 1.5,0 1.8,14.9 2,22.1 0.2,7.3 0.5,31.2 0.2,37.5 -0.4,6.2 0,23.6 0,23.6 0,0 4.2,1.1 6.6,1.1 2.3,0 6.2,-1.1 6.2,-1.1 0,0 2,-19.3 2.2,-21.1 0.2,-1.8 1.5,-16.4 2.4,-29.9 0.9,-13.6 1.3,-53.1 1.3,-53.1 l -21,0 z"
       style="fill:#4f4f4f" /><path
       id="path69"
       d="m 162,44.4 15.6,4.9 c 0,0 15,10.5 15.7,30.4 l 5.3,58 c 0,0 1.5,2.4 -4.2,9 l 1.5,19 c 0,0 -2,4 -6.4,5.3 l 0.9,7.9 -6.6,3.7 c 0,0 -2.9,-4 -1.5,-7.3 l -3,-1.3 -1,-7.1 c 0,0 2.6,51.2 -4.4,59.3 0,0 -2,3.5 -11,-4 0,0 -7.3,4.8 -12.3,-0.4 0,0 -4.2,6 -9.3,-1.1 0,0 -4.8,7.3 -8.6,0 l -6.6,-44.5 -3.1,-1.3 0,-5.3 c 0,0 -4.8,2.2 -3.1,-17 0,0 -12.3,-2.9 -11.7,-15.7 l -0.8,-38.6 0.5,-9.5 c 0,0 -1.3,-4.4 1.1,-6.2 l 2.9,-9.3 c 0,0 -1.5,-14.5 9.7,-22.5 l 19.8,-6.6 10,13 c 0.1,0.2 1.8,-2 10.6,-12.8 z"
       style="fill:#252626" /><path
       id="path71"
       d="m 143.7,32.7 0,10.1 c 0,0 -0.7,3 2.8,4.9 3.5,1.9 4.5,1.3 5.8,1.3 1.2,0 7.3,-2.8 7.7,-4.3 0.4,-1.5 -0.1,-12.6 -0.1,-12.6 l -16.2,0.6 z"
       style="fill:#d3a56f" /><g
       id="g73"><path
         id="path75"
         d="m 151.6,44 c 3.6,0 7.6,-6.6 7.7,-7.5 0.3,-0.5 0.6,-1.1 0.8,-1.6 l -17.1,0 c 0.2,0.5 0.5,1.1 0.8,1.6 0.1,0.8 4.1,7.5 7.8,7.5 z"
         style="fill:#c49669" /></g><path
       id="path77"
       d="m 140.6,23.8 c 0,0 -3,-16 10.3,-16 13.3,0 11.2,16 11.2,16 0,0 1.6,-1.1 2.5,-0.4 0.9,0.7 1,7.5 -3.4,8.4 0,0 -1.2,4 -1.9,4.7 -0.7,0.7 -3.2,5.2 -8,5.2 -2.5,0 -5.5,-2.4 -7.4,-5.2 -1.7,-2.6 -2.5,-5.7 -2.5,-5.7 0,0 -4.6,-1.1 -3,-7.5 0,0 1.4,-1 2.2,0.5 z"
       style="fill:#d3a56f" /><path
       id="path79"
       d="m 156,10.4 c 0,0 -2,1 -4,3.8 0,-1.6 1.1,-3.8 1.1,-3.8 0,0 -3.3,1.4 -5.8,5.7 0,0 -0.2,-3.9 1,-7.1 0,0 -6.6,5.9 -7.5,13.1 l -0.9,-5.5 3.4,-6.9 7.9,-3.3 4.8,4 z"
       style="fill:#777572" /><path
       id="path81"
       d="m 140.8,9.8 c 4.6,-6.6 10.5,-6.2 16.1,-4.4 6.2,2 7.4,9.2 7.5,12.1 0.1,2.9 -0.9,5.7 -0.9,5.7 l -1.4,0.6 -0.1,0.2 -0.8,1.5 c 0,0 0,-2.4 0.2,-5.3 0.2,-2.9 -0.8,-6.5 -0.8,-6.5 0.1,1 -0.7,1.5 -0.7,1.5 0,-2.3 -1.2,-3.2 -1.2,-3.2 l -1.8,-0.9 -1.5,-0.9 -4.4,-1.4 -2.6,-0.8 -3.9,2.6 -2.9,8.4 -0.3,3.5 0.3,2.9 -0.7,-0.8 -0.4,-1 c -0.8,-1 -1.6,-0.8 -1.6,-0.8 0,0 -0.9,-9 1.9,-13 z"
       style="fill:#777572" /><polygon
       id="polygon83"
       points="155.2,53.3 151.6,48.8 160.1,41.9 162,44.4 "
       style="fill:#ededed" /><polygon
       id="polygon85"
       points="148.5,53.8 151.9,48.8 143.6,41.9 141.5,44.4 "
       style="fill:#ededed" /><path
       id="path87"
       d="m 156.2,10.3 c 0,0 1.6,2.4 1.4,4.6 0,0 1.8,-1.5 1.3,-3.1 l -2.7,-1.5 z"
       style="fill:#777572" /><polygon
       id="polygon89"
       points="149.3,48.8 154,48.8 152.2,68.7 146.2,68.2 "
       style="fill:#dbd8d7" /><rect
       id="rect91"
       height="20"
       width="6"
       style="fill:#ededed"
       transform="matrix(-0.9961,0.08788002,-0.08788002,-0.9961,310.8512,103.2656)"
       y="48.5"
       x="150.2" /><path
       id="path93"
       d="m 140.1,238.3 c 0,0 -0.8,7.4 -1.5,9.3 -0.7,1.9 -2.3,4.9 -2.3,6.4 0,1.5 1.4,3.4 7.2,3.4 5.8,0 6.7,-0.5 6.7,-4.3 0,-3.8 0,-14.8 0,-14.8 l -10.1,0 z"
       style="fill:#1a1c1c" /><path
       id="path95"
       d="m 166.9,238.3 c 0,0 0.8,7.4 1.5,9.3 0.7,1.9 2.3,4.9 2.3,6.4 0,1.5 -1.3,3.4 -7.1,3.4 -5.8,0 -6.6,-0.5 -6.6,-4.3 0,-3.8 0,-14.8 0,-14.8 l 9.9,0 z"
       style="fill:#1a1c1c" /><g
       id="g97"><path
         id="path99"
         d="m 121.4,141.4 c 0,-0.1 0,-0.2 0.1,-0.3 0.1,-0.4 0.3,-0.6 0.4,-0.7 0.1,0 0.2,0 0.3,0 0,0 0.1,0 0.1,0.1 0.1,0.1 0.2,0.1 0.3,0.2 0.3,0.3 0.5,0.7 0.5,1.1 0,0.4 0.2,1 0.5,1.7 0.2,0.5 0.6,1.1 0.9,1.4 0.1,0.1 0.1,0.1 0.2,0.2 0.1,0.1 0.2,0.1 0.3,0.2 0.2,0.1 0.4,0.1 0.5,0 0.3,-0.1 0.5,-0.8 0.5,-1.7 0,-0.4 0,-0.7 0,-1.1 0,-0.4 -0.1,-0.8 -0.1,-1.2 0,-0.2 -0.1,-0.5 -0.1,-0.7 0,-0.2 -0.1,-0.4 -0.1,-0.6 -0.2,-1 -0.3,-1.9 -0.4,-2.4 l 0,0 c 0,-0.2 -0.1,-0.4 -0.2,-0.6 0,-0.1 0,-0.1 -0.1,-0.2 -0.1,-0.2 -0.2,-0.4 -0.3,-0.7 0,0 0,0 0,0 -0.1,-0.3 -0.3,-0.5 -0.4,-0.8 0,0 0,0 0,-0.1 -0.4,-0.7 -0.8,-1.4 -1.2,-2 -0.4,-0.7 -0.7,-1.2 -0.8,-1.6 0,-0.1 -0.2,-0.9 -0.4,-2 l 2.9,-39.8 c 0,0 -8.5,-1.1 -8.6,-1.1 l -0.4,9.5 0,0 0,0 c 0,0 -0.2,1.3 -0.5,3.3 -0.4,2.5 -0.8,6.2 -0.8,9.6 0,1.5 0.1,3.4 0.2,5.4 0.1,1 0.2,2 0.3,3.1 0.1,1.5 0.3,3.1 0.5,4.5 0.1,0.9 0.2,1.8 0.3,2.6 0,0.1 0,0.2 0,0.3 0.1,1.2 0.3,2.3 0.4,3.1 0.1,0.5 0.1,1 0.1,1.3 0,0.4 0,1 0,1.8 0,0.7 0,1.6 0,2.4 0,0.6 0,1.2 0,1.8 0,0.6 0,1.2 0,1.7 0,0.3 0,0.5 0,0.8 0.1,1.3 0.2,2.3 0.4,2.7 0.2,0.3 0.5,0.8 0.8,1.3 1,1.5 2.4,3.6 3.5,4.3 0.8,0.5 1.8,1.2 2.8,1.7 0.9,0.5 1.8,0.7 2.2,0.3 0,-0.1 0.1,-0.1 0.1,-0.2 0,-1.5 -5,-6.7 -4.7,-8.6 z"
         style="fill:#edcaab" /></g><path
       id="path101"
       d="m 124.8,132.8 c 0,0 -4.2,-3.5 -10.1,-0.6 l -2.1,-26.1 c 0,0 12.1,-8.9 12.3,-1 l -0.1,27.7 z"
       style="fill:#e3dfde" /><g
       id="g103"><path
         id="path105"
         d="m 179.8,144.5 c 0,-0.1 0,-0.2 -0.1,-0.3 -0.1,-0.4 -0.3,-0.6 -0.4,-0.7 -0.1,0 -0.2,0 -0.3,0 0,0 -0.1,0 -0.1,0.1 -0.1,0.1 -0.2,0.1 -0.3,0.2 -0.3,0.3 -0.5,0.7 -0.5,1.1 0,0.4 -0.2,1 -0.5,1.7 -0.2,0.5 -0.6,1.1 -0.9,1.4 -0.1,0.1 -0.1,0.1 -0.2,0.2 -0.1,0.1 -0.2,0.1 -0.3,0.2 -0.2,0.1 -0.4,0.1 -0.5,0 -0.3,-0.1 -0.5,-0.8 -0.5,-1.7 0,-0.4 0,-0.7 0,-1.1 0,-0.4 0.1,-0.8 0.1,-1.2 0,-0.2 0.1,-0.5 0.1,-0.7 0,-0.2 0.1,-0.4 0.1,-0.6 0.2,-1 0.3,-1.9 0.4,-2.4 0,0 0,0 0,0 0,-0.2 0.1,-0.4 0.2,-0.6 0,-0.1 0,-0.1 0.1,-0.2 0.1,-0.2 0.2,-0.4 0.3,-0.7 0,0 0,0 0,0 0.1,-0.3 0.3,-0.5 0.4,-0.8 0,0 0,0 0,-0.1 0.4,-0.7 0.8,-1.4 1.2,-2 0.4,-0.7 0.7,-1.2 0.8,-1.6 0,-0.1 0.2,-0.9 0.4,-2 l -3,-39.7 c 0,0 8.5,-1.1 8.6,-1.1 l 0.4,9.5 0,0 0,0 c 0,0 0.2,1.3 0.5,3.3 0.4,2.5 0.8,6.2 0.8,9.6 0,1.5 -0.1,3.4 -0.2,5.4 -0.1,1 -0.2,2 -0.3,3.1 -0.1,1.5 -0.3,3.1 -0.5,4.5 -0.1,0.9 -0.2,1.8 -0.3,2.6 0,0.1 0,0.2 0,0.3 -0.1,1.2 -0.3,2.3 -0.4,3.1 -0.1,0.5 -0.1,1 -0.1,1.3 0,0.4 0,1 0,1.8 0,0.7 0,1.6 0,2.4 0,0.6 0,1.2 0,1.8 0,0.6 0,1.2 0,1.7 0,0.3 0,0.5 0,0.8 -0.1,1.3 -0.2,2.3 -0.4,2.7 -0.2,0.3 -0.5,0.8 -0.8,1.3 -1,1.5 -2.4,3.6 -3.5,4.3 -0.8,0.5 -1.8,1.2 -2.8,1.7 -0.9,0.5 -1.8,0.7 -2.2,0.3 0,-0.1 -0.1,-0.1 -0.1,-0.2 0.1,-1.7 5,-6.9 4.8,-8.7 z"
         style="fill:#edcaab" /></g><path
       id="path107"
       d="m 176.4,135.8 c 0,0 4.2,-3.5 10.1,-0.6 l 2.1,-26.1 c 0,0 -12.1,-8.9 -12.3,-1 l 0.1,27.7 z"
       style="fill:#e3dfde" /><polygon
       id="polygon109"
       points="185.1,110.2 116.1,110.2 111.1,104.8 112.6,99 114.5,88.8 116.1,82 185.1,82 186.7,88.8 188.5,94.3 190.5,101.8 "
       style="fill:#252626" /></g></svg>