<?xml version="1.0" encoding="UTF-8" standalone="no"?>
<svg
   xmlns:dc="http://purl.org/dc/elements/1.1/"
   xmlns:cc="http://creativecommons.org/ns#"
   xmlns:rdf="http://www.w3.org/1999/02/22-rdf-syntax-ns#"
   xmlns:svg="http://www.w3.org/2000/svg"
   xmlns="http://www.w3.org/2000/svg"
   height="262"
   width="259"
   xml:space="preserve"
   viewBox="0 0 259 262"
   y="0px"
   x="0px"
   id="Layer_1"
   version="1.1"><metadata
     id="metadata245"><rdf:RDF><cc:Work
         rdf:about=""><dc:format>image/svg+xml</dc:format><dc:type
           rdf:resource="http://purl.org/dc/dcmitype/StillImage" /><dc:title></dc:title></cc:Work></rdf:RDF></metadata><defs
     id="defs243" /><g
     transform="translate(8.5704995,0)"
     id="g3694"><rect
       x="6.2163277"
       y="224.00002"
       style="fill:#bbc199"
       width="230"
       height="38"
       id="rect3" /><g
       id="g5"
       transform="translate(-29.183673,-0.09998779)"><polygon
         style="fill:#e8ba8f"
         points="217.6,137.1 220.4,138.5 220.4,133.3 214.2,118.8 209.1,118.8 208.1,134.8 214.8,141.5 219,142.9 219,140.9 214.1,138.2 214.9,133.2 217.3,133.9 "
         id="polygon7" /><polygon
         style="fill:#e8ba8f"
         points="258,137.1 255.4,138.5 255.4,133.3 261.2,118.8 266.4,118.8 267.4,134.8 260.8,141.5 256.8,142.9 256.8,140.9 261.5,138.2 260.7,133.2 258.2,133.9 "
         id="polygon9" /><polygon
         style="fill:#edcaab"
         points="230.2,29 230.2,36.4 238.4,44.5 245.6,37.7 245.6,26.8 "
         id="polygon11" /><g
         id="g13"><path
           style="fill:#ddba9b"
           d="m 237.9,38.7 c 3.2,0 6.7,-5.8 6.8,-6.7 0.3,-0.5 0.5,-0.9 0.7,-1.4 l -15.1,0 c 0.2,0.5 0.5,0.9 0.7,1.4 0.1,0.8 3.6,6.7 6.9,6.7 z"
           id="path15" /></g><path
         style="fill:#edcaab"
         d="m 227.8,19.5 c 0,0 -2.8,-14.7 9.4,-14.7 12.2,0 10.3,14.7 10.3,14.7 0,0 1.5,-1 2.3,-0.3 0.8,0.7 0.9,6.9 -3.1,7.7 0,0 -1.1,3.7 -1.7,4.3 -0.6,0.6 -2.9,4.8 -7.3,4.8 -2.3,0 -5,-2.2 -6.8,-4.8 -1.6,-2.4 -2.3,-5.2 -2.3,-5.2 0,0 -4.2,-1.1 -2.8,-6.9 -0.1,0 1.2,-1 2,0.4 z"
         id="path17" /><path
         style="fill:#d6d5d6"
         d="m 230.5,35.3 c 0,0 0.5,2.3 6.2,6.5 l 4,0 c 0,0 4.5,-4.7 4.7,-5 0.2,-0.3 0.1,-1.9 0.1,-1.9 0,0 2.2,2.1 1.7,6.1 -0.4,3.9 -8.2,31.8 -8.2,31.8 0,0 -15.5,-33.6 -8.8,-37.4"
         id="path19" /><path
         style="fill:#1a1c1c"
         d="m 225.8,224.5 c 0,0 -0.8,7.2 -1.5,9 -0.7,1.8 -2.2,4.7 -2.2,6.2 0,1.5 1.3,3.3 6.9,3.3 5.6,0 6.5,-0.5 6.5,-4.2 0,-3.7 0,-14.3 0,-14.3 l -9.7,0 z"
         id="path21" /><path
         style="fill:#1a1c1c"
         d="m 251.7,224.5 c 0,0 0.8,7.2 1.5,9 0.7,1.8 2.2,4.7 2.2,6.2 0,1.5 -1.3,3.3 -6.9,3.3 -5.6,0 -6.4,-0.5 -6.4,-4.2 0,-3.7 0,-14.3 0,-14.3 l 9.6,0 z"
         id="path23" /><path
         style="fill:#3f2a14"
         d="m 228.1,21.1 -1.4,-2.3 0,-10.9 c 0,0 3.5,-6.5 12.2,-8.1 0,0 8.1,3 9.5,9.9 l 0,9.2 -1.8,2 c 0,0 2,-13.8 -9.1,-13.8 -11.1,0 -9.4,14 -9.4,14 z"
         id="path25" /><polygon
         style="fill:#668c9e"
         points="238.4,67 242.8,67 240.3,47.3 241.4,46.4 241.4,44.9 239.6,41.9 236.4,42 234.4,44.9 234.4,46.4 235.8,47.3 233.6,67 238,67 "
         id="polygon27" /><path
         style="fill:#393536"
         d="m 264.5,48.3 c -2.2,-2.2 -13.6,-6.6 -13.6,-6.6 l -4.3,-5.5 c 0.1,10.2 -6.2,25.3 -8.5,30.4 -2.3,-5.1 -8.6,-20.3 -8.5,-30.5 l -4.3,5.4 c 0,0 -11.4,4.5 -13.6,6.7 -2.2,2.2 -9.4,17.3 -5.2,80.3 0,0 5,0 8.5,0 l 1.6,6.4 c 0,0 10.4,0.5 21.5,0.4 11.1,0.1 21.5,-0.3 21.5,-0.3 l 1.6,-6.5 c 3.5,0 8.5,0 8.5,0 4.3,-62.9 -2.9,-78 -5.2,-80.2 z"
         id="path29" /><circle
         style="fill:#4f4c4d"
         cx="238.8"
         cy="82.099998"
         r="1.2"
         id="circle31" /><circle
         style="fill:#4f4c4d"
         cx="238.8"
         cy="94.699997"
         r="1.2"
         id="circle33" /><path
         style="fill:#302c2d"
         d="m 238.5,132.3 -13.1,0 -8.1,0 c 0,0 0.4,31.8 1.3,45 0.9,13.1 2.3,27.4 2.5,29.1 0.2,1.7 2.3,20.3 2.3,20.3 0,0 4.2,1.1 6.7,1.1 2.5,0 6.6,-1.1 6.6,-1.1 0,0 0.4,-16.8 0,-22.8 -0.4,-6 0,-29.2 0.2,-36.3 0.2,-7 0.2,-21.4 1.7,-21.4 1.5,0 1.9,14.4 2.1,21.4 0.2,7.1 0.5,30.3 0.2,36.3 -0.4,6 0,22.8 0,22.8 0,0 4.4,1.1 6.8,1.1 2.4,0 6.5,-1.1 6.5,-1.1 0,0 2.1,-18.7 2.3,-20.4 0.2,-1.7 1.5,-15.8 2.5,-29 1,-13.1 1.3,-45 1.3,-45 l -21.8,0 z"
         id="path35" /></g><g
       id="g37"
       transform="translate(-29.183673,-0.09998779)"><g
         id="g39"><path
           style="fill:#1a1c1c"
           d="m 199,228 c 0,0 -0.8,7.7 -1.6,9.6 -0.7,1.9 -2.4,5 -2.4,6.6 0,1.6 1.4,3.5 7.4,3.5 6,0 6.9,-0.5 6.9,-4.5 0,-3.9 0,-15.2 0,-15.2 l -10.3,0 z"
           id="path41" /><path
           style="fill:#1a1c1c"
           d="m 226.5,228 c 0,0 0.8,7.7 1.6,9.6 0.7,1.9 2.4,5 2.4,6.6 0,1.6 -1.3,3.5 -7.3,3.5 -6,0 -6.8,-0.5 -6.8,-4.5 0,-3.9 0,-15.2 0,-15.2 l 10.1,0 z"
           id="path43" /><path
           style="fill:#343638"
           d="m 212.6,130 -13,0 -8.1,0 c 0,0 0.4,33.9 1.3,47.8 0.9,14 2.3,29.1 2.4,30.9 0.2,1.8 2.3,21.6 2.3,21.6 0,0 4.2,1.2 6.6,1.2 2.5,0 6.6,-1.2 6.6,-1.2 0,0 0.4,-17.8 0,-24.3 -0.4,-6.4 0,-31.1 0.2,-38.6 0.2,-7.5 0.2,-22.8 1.7,-22.8 1.5,0 1.9,15.3 2.1,22.8 0.2,7.5 0.5,32.2 0.2,38.6 -0.4,6.4 0,24.3 0,24.3 0,0 4.4,1.2 6.8,1.2 2.4,0 6.4,-1.2 6.4,-1.2 0,0 2.1,-19.9 2.3,-21.7 0.2,-1.8 1.5,-16.8 2.4,-30.8 0.9,-14 1.3,-47.8 1.3,-47.8 l -21.5,0 z"
           id="path45" /><path
           style="fill:#5f839b"
           d="m 244,82.3 c 0,0 0.2,-8.3 -0.9,-13.5 -1.1,-5.2 -2.2,-11.2 -4.9,-13.2 -2.6,-1.9 -9.1,-3.7 -12.1,-4.7 -2.9,-1 -4.3,-2.3 -5.4,-4.1 -0.9,-1.4 -6.8,-1.8 -9.1,-1.9 l 0,0 c 0,0 0,0 -0.4,0 -0.4,0 -0.5,0 -0.5,0 l 0,0.1 c -2.2,0.1 -6.7,0.6 -7.6,1.9 -1.1,1.8 -2.3,3.1 -5.2,4.1 -2.9,1 -9.9,2.6 -12.1,4.7 -2.2,2.2 -3.8,8 -4.9,13.2 -1.1,5.2 -0.9,13.5 -0.9,13.5 0,0 3.4,2 3.9,2.1 0.6,0.1 9.1,1.2 9.1,1.2 l -3.4,46.7 c 0,0 14.4,1.2 22.8,1.2 8.4,0 21.9,-1.2 21.9,-1.2 L 231,85.6 c 0,0 8.5,-1.2 9.1,-1.3 0.5,-0.1 3.9,-2 3.9,-2 z"
           id="path47" /><path
           style="fill:#d3a56f"
           d="m 204.6,37.4 0,8.9 c 0,0 -0.6,2.7 2.5,4.3 3.1,1.7 4.2,2 5.3,2 1.1,0 6.3,-3.4 6.6,-4.7 0.4,-1.3 -0.1,-11.2 -0.1,-11.2 l -14.3,0.7 z"
           id="path49" /><g
           id="g51"><path
             style="fill:#d3a56f"
             d="m 189.4,141.1 c 0,-0.1 0,-0.3 0.1,-0.4 0.1,-0.4 0.3,-0.6 0.5,-0.7 0.1,0 0.2,0 0.3,0 0.1,0 0.1,0 0.2,0.1 0.1,0.1 0.2,0.1 0.3,0.2 0.3,0.3 0.5,0.7 0.5,1.2 0,0.4 0.2,1.1 0.5,1.8 0.3,0.6 0.6,1.1 1,1.5 0.1,0.1 0.2,0.1 0.2,0.2 0.1,0.1 0.2,0.1 0.3,0.2 0.2,0.1 0.4,0.1 0.6,0 0.4,-0.1 0.5,-0.8 0.5,-1.8 0,-0.4 0,-0.8 0,-1.2 0,-0.4 -0.1,-0.8 -0.1,-1.3 0,-0.3 -0.1,-0.5 -0.1,-0.7 0,-0.2 -0.1,-0.4 -0.1,-0.7 -0.2,-1.1 -0.3,-2 -0.4,-2.6 l 0,0 c 0,-0.2 -0.1,-0.4 -0.2,-0.6 0,-0.1 0,-0.1 -0.1,-0.2 -0.1,-0.2 -0.2,-0.5 -0.3,-0.7 0,0 0,0 0,0 -0.1,-0.3 -0.3,-0.6 -0.5,-0.9 0,0 0,0 0,-0.1 -0.4,-0.7 -0.9,-1.5 -1.3,-2.2 -0.4,-0.7 -0.8,-1.3 -0.9,-1.7 0,-0.2 -0.2,-0.9 -0.5,-2.1 L 193,85.5 c 0,0 -9.2,-1.2 -9.3,-1.2 l -0.4,10.2 0,0 0,0 c 0,0 -0.3,1.4 -0.6,3.5 -0.4,2.7 -0.9,6.6 -0.9,10.4 0,1.7 0.1,3.7 0.2,5.9 0.1,1.1 0.2,2.2 0.3,3.3 0.2,1.7 0.3,3.3 0.5,4.9 0.1,1 0.2,1.9 0.3,2.8 0,0.1 0,0.2 0,0.3 0.2,1.3 0.3,2.4 0.4,3.3 0.1,0.6 0.1,1.1 0.1,1.3 0,0.4 0,1.1 0,1.9 0,0.8 0,1.7 0,2.6 0,0.6 0,1.3 0,1.9 0,0.6 0,1.3 0,1.9 0,0.3 0,0.6 0,0.9 0.1,1.4 0.2,2.5 0.5,2.9 0.2,0.3 0.5,0.8 0.9,1.4 1.1,1.6 2.6,3.8 3.8,4.6 0.8,0.5 1.9,1.3 3,1.8 1,0.5 1.9,0.8 2.4,0.3 0.1,-0.1 0.1,-0.1 0.1,-0.2 0.2,-1.5 -5.2,-7.2 -4.9,-9.1 z"
             id="path53" /><path
             style="fill:#d3a56f"
             d="m 242.5,102.2 c -0.4,-4.3 -1.1,-7.7 -1.1,-7.7 L 241,83.9 c -0.4,0.2 -10,1.7 -10,1.7 l 3.1,42 0.2,3.3 0,0 c -0.2,0.4 -0.4,0.9 -0.8,1.5 -0.4,0.7 -0.9,1.4 -1.3,2.2 0,0 0,0 0,0.1 -0.2,0.3 -0.3,0.6 -0.5,0.9 0,0 0,0 0,0 -0.1,0.2 -0.2,0.5 -0.3,0.7 0,0.1 0,0.1 -0.1,0.2 -0.1,0.2 -0.2,0.4 -0.2,0.6 -0.1,0.3 -0.1,0.8 -0.2,1.3 -0.1,0.4 -0.1,0.8 -0.2,1.2 0,0.2 -0.1,0.4 -0.1,0.7 -0.1,0.7 -0.2,1.4 -0.2,2 0,0.2 0,0.4 0,0.6 0,0.6 0,1.1 0.1,1.5 0,0.1 0,0.1 0,0.2 0,0.2 0.1,0.3 0.1,0.4 0.1,0.1 0.2,0.3 0.3,0.3 0.2,0.1 0.4,0 0.6,0 0.1,0 0.2,-0.1 0.3,-0.2 0.1,-0.1 0.2,-0.1 0.2,-0.2 0.1,-0.1 0.2,-0.3 0.3,-0.4 0.1,-0.1 0.1,-0.2 0.2,-0.2 0.1,-0.2 0.2,-0.3 0.3,-0.5 0.2,-0.3 0.3,-0.7 0.5,-1 0.1,-0.2 0.1,-0.4 0.2,-0.6 0,-0.2 0.1,-0.4 0.1,-0.5 0,-0.3 0.1,-0.6 0.2,-0.8 0.1,-0.1 0.2,-0.2 0.3,-0.3 0,0 0.1,-0.1 0.1,-0.1 0.2,-0.1 0.4,-0.2 0.6,-0.2 0.2,0.1 0.4,0.3 0.5,0.7 0,0.1 0,0.2 0.1,0.4 0,0.1 0,0.3 0,0.4 -0.1,0.4 -0.3,0.9 -0.6,1.4 -0.1,0.2 -0.2,0.4 -0.3,0.6 -0.4,0.6 -0.8,1.2 -1.2,1.9 -1,1.4 -2,2.7 -2.5,3.7 -0.1,0.2 -0.2,0.3 -0.2,0.5 -0.1,0.2 -0.1,0.4 -0.1,0.5 0,0.1 0,0.2 0.1,0.2 0.3,0.3 0.8,0.3 1.5,0 0.1,0 0.2,-0.1 0.3,-0.1 0.1,-0.1 0.3,-0.1 0.4,-0.2 0.8,-0.4 1.7,-1 2.5,-1.4 0.2,-0.1 0.5,-0.3 0.7,-0.4 0.8,-0.5 1.8,-1.7 2.6,-2.8 0.8,-1.2 1.6,-2.4 2.1,-3.1 0.5,-0.7 0.5,-3.1 0.5,-5.7 0,-0.3 0,-0.6 0,-1 0,-0.6 0,-1.3 0,-1.9 0,-0.3 0,-0.6 0,-0.9 0,-0.6 0,-1.1 0,-1.6 0,-0.5 0,-0.9 0,-1.2 0,-0.3 0.1,-0.8 0.1,-1.3 0.2,-1.5 0.5,-3.8 0.8,-6.4 0.5,-4.7 1.1,-10.3 1,-14.1 -0.3,-2.2 -0.4,-4.3 -0.6,-6.3 z"
             id="path55" /></g><g
           id="g57"><path
             style="fill:#c49669"
             d="m 211.7,47.4 c 3.2,0 6.7,-5.8 6.8,-6.7 0.3,-0.5 0.5,-0.9 0.7,-1.4 l -15.1,0 c 0.2,0.5 0.5,0.9 0.7,1.4 0.1,0.8 3.6,6.7 6.9,6.7 z"
             id="path59" /></g><path
           style="fill:#406c84"
           d="m 193.1,85.6 c 0,0 -0.2,-0.7 -0.3,-1.7 -0.1,-1 -0.2,-2.4 -0.2,-3.8 0,-1.4 0.1,-2.8 0.2,-3.8 0.1,-1 0.3,-1.7 0.3,-1.7 0,0 0.2,0.7 0.3,1.7 0.1,1 0.2,2.4 0.2,3.8 0,1.4 -0.1,2.8 -0.2,3.8 -0.1,1 -0.3,1.7 -0.3,1.7 z"
           id="path61" /><path
           style="fill:#406c84"
           d="m 231,85.6 c 0,0 -0.2,-0.7 -0.3,-1.7 -0.1,-1 -0.2,-2.4 -0.2,-3.8 0,-1.4 0.1,-2.8 0.2,-3.8 0.1,-1 0.3,-1.7 0.3,-1.7 0,0 0.2,0.7 0.3,1.7 0.1,1 0.2,2.4 0.2,3.8 0,1.4 -0.1,2.8 -0.2,3.8 -0.1,1 -0.3,1.7 -0.3,1.7 z"
           id="path63" /><path
           style="fill:#d3a56f"
           d="m 201.9,29.5 c 0,0 -2.7,-14.2 9.1,-14.2 11.8,0 9.9,14.2 9.9,14.2 0,0 1.5,-1 2.2,-0.3 0.7,0.7 0.9,6.6 -3,7.4 0,0 -1.1,3.5 -1.7,4.2 -0.6,0.6 -2.8,4.6 -7.1,4.6 -2.2,0 -4.8,-2.1 -6.5,-4.6 -1.5,-2.3 -2.2,-5.1 -2.2,-5.1 0,0 -4,-1 -2.7,-6.6 0,0 1.3,-0.9 2,0.4 z"
           id="path65" /><path
           style="fill:#3f2a14"
           d="m 215.6,17.7 c 0,0 -1.8,0.9 -3.5,3.4 0,-1.4 1,-3.4 1,-3.4 0,0 -2.9,1.2 -5.1,5.1 0,0 -0.2,-3.5 0.9,-6.3 0,0 -5.8,5.2 -6.7,11.6 l -0.8,-4.9 3,-6.2 7,-2.9 4.2,3.6 z"
           id="path67" /><path
           style="fill:#3f2a14"
           d="m 215.6,17.6 c 0,0 1.4,2.1 1.3,4 0,0 1.6,-1.3 1.2,-2.7 l -2.5,-1.3 z"
           id="path69" /><path
           style="fill:#3f2a14"
           d="m 202.1,17.1 c 4.1,-5.8 9.3,-5.5 14.2,-3.9 5.5,1.8 6.5,8.2 6.6,10.7 0.1,2.6 -0.8,5 -0.8,5 l -1.3,0.5 0,0.2 -0.7,1.3 c 0,0 0,-2.1 0.2,-4.7 0.2,-2.6 -0.7,-5.8 -0.7,-5.8 0.1,0.9 -0.6,1.4 -0.6,1.4 0,-2 -1,-2.8 -1,-2.8 l -1.6,-0.8 -1.3,-0.8 -3.9,-1.3 -2.3,-0.7 -3.5,2.3 -2.6,7.4 -0.3,3.1 0.3,2.6 -0.6,-0.7 -0.3,-0.8 c -0.7,-0.9 -1.4,-0.7 -1.4,-0.7 0,0 -0.9,-7.9 1.6,-11.5 z"
           id="path71" /></g><polygon
         style="fill:#393536"
         points="212.7,120.7 218.7,109.1 214.3,57.6 215.2,56.8 215.2,55.6 213.7,53.1 211.1,53.2 209.3,55.6 209.3,56.8 210.5,57.6 206.3,109.1 212.4,120.7 "
         id="polygon73" /><path
         style="fill:#4d7287"
         d="m 204.6,45.9 c 0,0 -1,-0.4 -3.7,3.6 l 8.3,8.3 2.5,-5.2 -7.1,-6.7 z"
         id="path75" /><path
         style="fill:#4d7287"
         d="m 219.2,45.9 c 0,0 1.4,-0.4 4.1,3.6 l -8.3,8.3 -2.5,-5.2 6.7,-6.7 z"
         id="path77" /></g><g
       id="g79"
       transform="translate(-29.183673,-0.09998779)"><g
         id="g81"><path
           style="fill:#1a1c1c"
           d="m 48,221.6 c 0,0 -0.8,7.7 -1.6,9.6 -0.7,1.9 -2.4,5 -2.4,6.6 0,1.6 1.4,3.5 7.4,3.5 6,0 6.9,-0.5 6.9,-4.5 0,-3.9 0,-15.2 0,-15.2 l -10.3,0 z"
           id="path83" /><path
           style="fill:#1a1c1c"
           d="m 75.6,221.6 c 0,0 0.8,7.7 1.6,9.6 0.7,1.9 2.4,5 2.4,6.6 0,1.6 -1.3,3.5 -7.3,3.5 -6,0 -6.8,-0.5 -6.8,-4.5 0,-3.9 0,-15.2 0,-15.2 l 10.1,0 z"
           id="path85" /><path
           style="fill:#4f4f4f"
           d="m 61.7,123.6 -13,0 -8.1,0 c 0,0 0.4,33.9 1.3,47.8 0.9,14 2.3,29.1 2.4,30.9 0.2,1.8 2.3,21.6 2.3,21.6 0,0 4.2,1.2 6.6,1.2 2.5,0 6.6,-1.2 6.6,-1.2 0,0 0.4,-17.8 0,-24.3 -0.4,-6.4 0,-31.1 0.2,-38.6 0.2,-7.5 0.2,-22.8 1.7,-22.8 1.5,0 1.9,15.3 2.1,22.8 0.2,7.5 0.5,32.2 0.2,38.6 -0.4,6.4 0,24.3 0,24.3 0,0 4.4,1.2 6.8,1.2 2.4,0 6.4,-1.2 6.4,-1.2 0,0 2.1,-19.9 2.3,-21.7 0.2,-1.8 1.5,-16.8 2.4,-30.8 0.9,-14 1.3,-47.8 1.3,-47.8 l -21.5,0 z"
           id="path87" /><path
           style="fill:#a7bcb6"
           d="M 93,76 C 93,76 93.2,67.7 92.1,62.5 91,57.3 90,51.3 87.3,49.3 84.7,47.4 78.2,45.6 75.2,44.6 72.3,43.6 70.9,42.3 69.8,40.5 68.9,39.1 63,38.7 60.7,38.6 l 0,0 c 0,0 0,0 -0.4,0 -0.4,0 -0.5,0 -0.5,0 l 0,0.1 c -2.2,0.1 -6.7,0.6 -7.6,1.9 -1.1,1.8 -2.3,3.1 -5.2,4.1 -2.9,1 -9.9,2.6 -12.1,4.7 -2.2,2.2 -3.8,8 -4.9,13.2 -1,5.1 -0.8,13.4 -0.8,13.4 0,0 3.4,2 3.9,2.1 0.6,0.1 9.1,1.2 9.1,1.2 L 38.8,126 c 0,0 14.4,1.2 22.8,1.2 8.4,0 21.9,-1.2 21.9,-1.2 L 80.1,79.3 c 0,0 8.5,-1.2 9.1,-1.3 0.5,-0.2 3.8,-2 3.8,-2 z"
           id="path89" /><path
           style="fill:#d3a56f"
           d="m 53.7,31.1 0,8.9 c 0,0 -0.6,2.7 2.5,4.3 3.1,1.7 4.2,2 5.3,2 1.1,0 6.3,-3.4 6.6,-4.7 C 68.5,40.3 68,30.4 68,30.4 l -14.3,0.7 z"
           id="path91" /><g
           id="g93"><path
             style="fill:#d3a56f"
             d="m 38.5,134.8 c 0,-0.1 0,-0.3 0.1,-0.4 0.1,-0.4 0.3,-0.6 0.5,-0.7 0.1,0 0.2,0 0.3,0 0.1,0 0.1,0 0.2,0.1 0.1,0.1 0.2,0.1 0.3,0.2 0.3,0.3 0.5,0.7 0.5,1.2 0,0.4 0.2,1.1 0.5,1.8 0.3,0.6 0.6,1.1 1,1.5 0.1,0.1 0.2,0.1 0.2,0.2 0.1,0.1 0.2,0.1 0.3,0.2 0.2,0.1 0.4,0.1 0.6,0 0.4,-0.1 0.5,-0.8 0.5,-1.8 0,-0.4 0,-0.8 0,-1.2 0,-0.4 -0.1,-0.8 -0.1,-1.3 0,-0.3 -0.1,-0.5 -0.1,-0.7 0,-0.2 -0.1,-0.4 -0.1,-0.7 -0.2,-1.1 -0.3,-2 -0.4,-2.6 l 0,0 c 0,-0.2 -0.1,-0.4 -0.2,-0.6 0,-0.1 0,-0.1 -0.1,-0.2 -0.1,-0.2 -0.2,-0.5 -0.3,-0.7 0,0 0,0 0,0 -0.1,-0.3 -0.3,-0.6 -0.5,-0.9 0,0 0,0 0,-0.1 -0.4,-0.7 -0.9,-1.5 -1.3,-2.2 -0.4,-0.7 -0.8,-1.3 -0.9,-1.7 0,-0.2 -0.2,-0.9 -0.5,-2.1 l 3.1,-42.9 c 0,0 -9.2,-1.2 -9.3,-1.2 l -0.4,10.2 0,0 0,0 c 0,0 -0.3,1.4 -0.6,3.5 -0.4,2.7 -0.9,6.6 -0.9,10.4 0,1.7 0.1,3.7 0.2,5.9 0.1,1.1 0.2,2.2 0.3,3.3 0.2,1.7 0.3,3.3 0.5,4.9 0.1,1 0.2,1.9 0.3,2.8 0,0.1 0,0.2 0,0.3 0.2,1.3 0.3,2.4 0.4,3.3 0.1,0.6 0.1,1.1 0.1,1.3 0,0.4 0,1.1 0,1.9 0,0.8 0,1.7 0,2.6 0,0.6 0,1.3 0,1.9 0,0.6 0,1.3 0,1.9 0,0.3 0,0.6 0,0.9 0.1,1.4 0.2,2.5 0.5,2.9 0.2,0.3 0.5,0.8 0.9,1.4 1.1,1.6 2.6,3.8 3.8,4.6 0.8,0.5 1.9,1.3 3,1.8 1,0.5 1.9,0.8 2.4,0.3 0.1,-0.1 0.1,-0.1 0.1,-0.2 0.1,-1.6 -5.2,-7.2 -4.9,-9.1 z"
             id="path95" /><path
             style="fill:#d3a56f"
             d="M 91.5,95.9 C 91.1,91.6 90.4,88.2 90.4,88.2 L 90,77.6 c -0.4,0.2 -10,1.7 -10,1.7 l 3.1,42 0.2,3.3 0,0 c -0.2,0.4 -0.4,0.9 -0.8,1.5 -0.4,0.7 -0.9,1.4 -1.3,2.2 0,0 0,0 0,0.1 -0.2,0.3 -0.3,0.6 -0.5,0.9 0,0 0,0 0,0 -0.1,0.2 -0.2,0.5 -0.3,0.7 0,0.1 0,0.1 -0.1,0.2 -0.1,0.2 -0.2,0.4 -0.2,0.6 -0.1,0.3 -0.1,0.8 -0.2,1.3 -0.1,0.4 -0.1,0.8 -0.2,1.2 0,0.2 -0.1,0.4 -0.1,0.7 -0.1,0.7 -0.2,1.4 -0.2,2 0,0.2 0,0.4 0,0.6 0,0.6 0,1.1 0.1,1.5 0,0.1 0,0.1 0,0.2 0,0.2 0.1,0.3 0.1,0.4 0.1,0.1 0.2,0.3 0.3,0.3 0.2,0.1 0.4,0 0.6,0 0.1,0 0.2,-0.1 0.3,-0.2 0.1,-0.1 0.2,-0.1 0.2,-0.2 0.1,-0.1 0.2,-0.3 0.3,-0.4 0.1,-0.1 0.1,-0.2 0.2,-0.2 0.1,-0.2 0.2,-0.3 0.3,-0.5 0.2,-0.3 0.3,-0.7 0.5,-1 0.1,-0.2 0.1,-0.4 0.2,-0.6 0,-0.2 0.1,-0.4 0.1,-0.5 0,-0.3 0.1,-0.6 0.2,-0.8 0.1,-0.1 0.2,-0.2 0.3,-0.3 0,0 0.1,-0.1 0.1,-0.1 0.2,-0.1 0.4,-0.2 0.6,-0.2 0.2,0.1 0.4,0.3 0.5,0.7 0,0.1 0,0.2 0.1,0.4 0,0.1 0,0.3 0,0.4 -0.1,0.4 -0.3,0.9 -0.6,1.4 -0.1,0.2 -0.2,0.4 -0.3,0.6 -0.4,0.6 -0.8,1.2 -1.2,1.9 -1,1.4 -2,2.7 -2.5,3.7 -0.1,0.2 -0.2,0.3 -0.2,0.5 -0.1,0.2 -0.1,0.4 -0.1,0.5 0,0.1 0,0.2 0.1,0.2 0.3,0.3 0.8,0.3 1.5,0 0.1,0 0.2,-0.1 0.3,-0.1 0.1,-0.1 0.3,-0.1 0.4,-0.2 0.8,-0.4 1.7,-1 2.5,-1.4 0.2,-0.1 0.5,-0.3 0.7,-0.4 0.8,-0.5 1.8,-1.7 2.6,-2.8 0.8,-1.2 1.6,-2.4 2.1,-3.1 0.5,-0.7 0.5,-3.1 0.5,-5.7 0,-0.3 0,-0.6 0,-1 0,-0.6 0,-1.3 0,-1.9 0,-0.3 0,-0.6 0,-0.9 0,-0.6 0,-1.1 0,-1.6 0,-0.5 0,-0.9 0,-1.2 0,-0.3 0.1,-0.8 0.1,-1.3 0.2,-1.5 0.5,-3.8 0.8,-6.4 0.5,-4.7 1.1,-10.3 1,-14.1 -0.2,-2.2 -0.4,-4.3 -0.6,-6.3 z"
             id="path97" /></g><g
           id="g99"><path
             style="fill:#c49669"
             d="m 60.8,41.1 c 3.2,0 6.7,-5.8 6.8,-6.7 0.3,-0.5 0.5,-0.9 0.7,-1.4 l -15.1,0 c 0.2,0.5 0.5,0.9 0.7,1.4 0,0.8 3.6,6.7 6.9,6.7 z"
             id="path101" /></g><path
           style="fill:#7fa599"
           d="m 42.2,79.2 c 0,0 -0.2,-0.7 -0.3,-1.7 -0.1,-1 -0.2,-2.4 -0.2,-3.8 0,-1.4 0.1,-2.8 0.2,-3.8 0.1,-1 0.3,-1.7 0.3,-1.7 0,0 0.2,0.7 0.3,1.7 0.1,1 0.2,2.4 0.2,3.8 0,1.4 -0.1,2.8 -0.2,3.8 -0.1,1.1 -0.3,1.7 -0.3,1.7 z"
           id="path103" /><path
           style="fill:#7fa599"
           d="m 80.1,79.2 c 0,0 -0.2,-0.7 -0.3,-1.7 -0.1,-1 -0.2,-2.4 -0.2,-3.8 0,-1.4 0.1,-2.8 0.2,-3.8 0.1,-1 0.3,-1.7 0.3,-1.7 0,0 0.2,0.7 0.3,1.7 0.1,1 0.2,2.4 0.2,3.8 0,1.4 -0.1,2.8 -0.2,3.8 -0.1,1.1 -0.3,1.7 -0.3,1.7 z"
           id="path105" /><path
           style="fill:#d3a56f"
           d="m 50.5,22.7 c 0,0 -2.8,-14.9 9.6,-14.9 12.4,0 10.5,14.9 10.5,14.9 0,0 1.5,-1.1 2.4,-0.4 0.8,0.7 0.9,7 -3.2,7.8 0,0 -1.1,3.7 -1.8,4.4 -0.6,0.6 -3,4.8 -7.4,4.8 -2.3,0 -5.1,-2.2 -6.9,-4.8 -1.6,-2.4 -2.4,-5.3 -2.4,-5.3 0,0 -4.3,-1.1 -2.8,-7 -0.1,0 1.2,-0.9 2,0.5 z"
           id="path107" /></g><polygon
         style="fill:#43657a"
         points="61.8,114.4 67.8,102.8 63.3,51.3 64.2,50.5 64.2,49.3 62.8,46.8 60.1,46.8 58.4,49.3 58.4,50.5 59.6,51.3 55.4,102.8 61.4,114.4 "
         id="polygon109" /><path
         style="fill:#c5d3cf"
         d="m 53.6,39.6 c 0,0 -1,-0.4 -3.7,3.6 l 8.3,8.3 2.5,-5.2 -7.1,-6.7 z"
         id="path111" /><path
         style="fill:#c5d3cf"
         d="m 68.2,39.6 c 0,0 1.4,-0.4 4.1,3.6 l -8.3,8.3 -2.5,-5.2 6.7,-6.7 z"
         id="path113" /></g><g
       id="g115"
       transform="translate(-29.183673,-0.09998779)"><g
         id="g117"><g
           id="g119"><path
             style="fill:#1a1c1c"
             d="m 91.8,219.7 c 0,0 -0.8,7.7 -1.6,9.6 -0.7,1.9 -2.4,5 -2.4,6.6 0,1.6 1.4,3.5 7.4,3.5 6,0 6.9,-0.5 6.9,-4.5 0,-3.9 0,-15.2 0,-15.2 l -10.3,0 z"
             id="path121" /><path
             style="fill:#1a1c1c"
             d="m 119.3,219.7 c 0,0 0.8,7.7 1.6,9.6 0.7,1.9 2.4,5 2.4,6.6 0,1.6 -1.3,3.5 -7.3,3.5 -6,0 -6.8,-0.5 -6.8,-4.5 0,-3.9 0,-15.2 0,-15.2 l 10.1,0 z"
             id="path123" /><path
             style="fill:#4f4f4f"
             d="m 105.4,121.7 -13,0 -8.1,0 c 0,0 0.4,33.9 1.3,47.8 0.9,14 2.3,29.1 2.4,30.9 0.2,1.8 2.3,21.6 2.3,21.6 0,0 4.2,1.2 6.6,1.2 2.5,0 6.6,-1.2 6.6,-1.2 0,0 0.4,-17.8 0,-24.3 -0.4,-6.4 0,-31.1 0.2,-38.6 0.2,-7.5 0.2,-22.8 1.7,-22.8 1.5,0 1.9,15.3 2.1,22.8 0.2,7.5 0.5,32.2 0.2,38.6 -0.4,6.4 0,24.3 0,24.3 0,0 4.4,1.2 6.8,1.2 2.4,0 6.4,-1.2 6.4,-1.2 0,0 2.1,-19.9 2.3,-21.7 0.2,-1.8 1.5,-16.8 2.4,-30.8 0.9,-14 1.3,-47.8 1.3,-47.8 l -21.5,0 z"
             id="path125" /><path
             style="fill:#d4d8d7"
             d="m 136.8,74.1 c 0,0 0.2,-8.3 -0.9,-13.5 -1.1,-5.2 -2.2,-11.2 -4.9,-13.2 -2.6,-1.9 -9.1,-3.7 -12.1,-4.7 -2.9,-1 -4.3,-2.3 -5.4,-4.1 -0.9,-1.4 -6.8,-1.8 -9.1,-1.9 l 0,0 c 0,0 0,0 -0.4,0 -0.4,0 -0.5,0 -0.5,0 l 0,0.1 c -2.2,0.1 -6.7,0.6 -7.6,1.9 -1.1,1.8 -2.3,3.1 -5.2,4.1 -2.9,1 -9.9,2.6 -12.1,4.7 -2.2,2.2 -3.8,8 -4.9,13.2 -0.9,5 -0.7,13.4 -0.7,13.4 0,0 3.4,2 3.9,2.1 0.6,0.1 9.1,1.2 9.1,1.2 L 82.5,124 c 0,0 14.4,1.2 22.8,1.2 8.4,0 21.9,-1.2 21.9,-1.2 l -3.4,-46.7 c 0,0 8.5,-1.2 9.1,-1.3 0.5,-0.1 3.9,-1.9 3.9,-1.9 z"
             id="path127" /><path
             style="fill:#edcaab"
             d="m 97.5,29.1 0,8.9 c 0,0 -0.6,2.7 2.5,4.3 3.1,1.7 4.2,2 5.3,2 1.1,0 6.3,-3.4 6.6,-4.7 0.4,-1.3 -0.1,-11.2 -0.1,-11.2 l -14.3,0.7 z"
             id="path129" /><g
             id="g131"><path
               style="fill:#edcaab"
               d="m 82.2,132.8 c 0,-0.1 0,-0.3 0.1,-0.4 0.1,-0.4 0.3,-0.6 0.5,-0.7 0.1,0 0.2,0 0.3,0 0.1,0 0.1,0 0.2,0.1 0.1,0.1 0.2,0.1 0.3,0.2 0.3,0.3 0.5,0.7 0.5,1.2 0,0.4 0.2,1.1 0.5,1.8 0.3,0.6 0.6,1.1 1,1.5 0.1,0.1 0.2,0.1 0.2,0.2 0.1,0.1 0.2,0.1 0.3,0.2 0.2,0.1 0.4,0.1 0.6,0 0.4,-0.1 0.5,-0.8 0.5,-1.8 0,-0.4 0,-0.8 0,-1.2 0,-0.4 -0.1,-0.8 -0.1,-1.3 0,-0.3 -0.1,-0.5 -0.1,-0.7 0,-0.2 -0.1,-0.4 -0.1,-0.7 -0.2,-1.1 -0.3,-2 -0.4,-2.6 l 0,0 c 0,-0.2 -0.1,-0.4 -0.2,-0.6 0,-0.1 0,-0.1 -0.1,-0.2 -0.1,-0.2 -0.2,-0.5 -0.3,-0.7 0,0 0,0 0,0 -0.1,-0.3 -0.3,-0.6 -0.5,-0.9 0,0 0,0 0,-0.1 -0.4,-0.7 -0.9,-1.5 -1.3,-2.2 -0.4,-0.7 -0.8,-1.3 -0.9,-1.7 0,-0.2 -0.2,-0.9 -0.5,-2.1 l 3.1,-42.9 c 0,0 -9.2,-1.2 -9.3,-1.2 l -0.4,10.2 0,0 0,0 c 0,0 -0.3,1.4 -0.6,3.5 -0.4,2.7 -0.9,6.6 -0.9,10.4 0,1.7 0.1,3.7 0.2,5.9 0.1,1.1 0.2,2.2 0.3,3.3 0.2,1.7 0.3,3.3 0.5,4.9 0.1,1 0.2,1.9 0.3,2.8 0,0.1 0,0.2 0,0.3 0.2,1.3 0.3,2.4 0.4,3.3 0.1,0.6 0.1,1.1 0.1,1.3 0,0.4 0,1.1 0,1.9 0,0.8 0,1.7 0,2.6 0,0.6 0,1.3 0,1.9 0,0.6 0,1.3 0,1.9 0,0.3 0,0.6 0,0.9 0.1,1.4 0.2,2.5 0.5,2.9 0.2,0.3 0.5,0.8 0.9,1.4 1.1,1.6 2.6,3.8 3.8,4.6 0.8,0.5 1.9,1.3 3,1.8 1,0.5 1.9,0.8 2.4,0.3 0.1,-0.1 0.1,-0.1 0.1,-0.2 0.2,-1.5 -5.1,-7.1 -4.9,-9.1 z"
               id="path133" /><path
               style="fill:#edcaab"
               d="m 135.3,94 c -0.4,-4.3 -1.1,-7.7 -1.1,-7.7 l -0.4,-10.6 c -0.4,0.2 -10,1.7 -10,1.7 l 3.1,42 0.2,3.3 0,0 c -0.2,0.4 -0.4,0.9 -0.8,1.5 -0.4,0.7 -0.9,1.4 -1.3,2.2 0,0 0,0 0,0.1 -0.2,0.3 -0.3,0.6 -0.5,0.9 0,0 0,0 0,0 -0.1,0.2 -0.2,0.5 -0.3,0.7 0,0.1 0,0.1 -0.1,0.2 -0.1,0.2 -0.2,0.4 -0.2,0.6 -0.1,0.3 -0.1,0.8 -0.2,1.3 -0.1,0.4 -0.1,0.8 -0.2,1.2 0,0.2 -0.1,0.4 -0.1,0.7 -0.1,0.7 -0.2,1.4 -0.2,2 0,0.2 0,0.4 0,0.6 0,0.6 0,1.1 0.1,1.5 0,0.1 0,0.1 0,0.2 0,0.2 0.1,0.3 0.1,0.4 0.1,0.1 0.2,0.3 0.3,0.3 0.2,0.1 0.4,0 0.6,0 0.1,0 0.2,-0.1 0.3,-0.2 0.1,-0.1 0.2,-0.1 0.2,-0.2 0.1,-0.1 0.2,-0.3 0.3,-0.4 0.1,-0.1 0.1,-0.2 0.2,-0.2 0.1,-0.2 0.2,-0.3 0.3,-0.5 0.2,-0.3 0.3,-0.7 0.5,-1 0.1,-0.2 0.1,-0.4 0.2,-0.6 0,-0.2 0.1,-0.4 0.1,-0.5 0,-0.3 0.1,-0.6 0.2,-0.8 0.1,-0.1 0.2,-0.2 0.3,-0.3 0,0 0.1,-0.1 0.1,-0.1 0.2,-0.1 0.4,-0.2 0.6,-0.2 0.2,0.1 0.4,0.3 0.5,0.7 0,0.1 0,0.2 0.1,0.4 0,0.1 0,0.3 0,0.4 -0.1,0.4 -0.3,0.9 -0.6,1.4 -0.1,0.2 -0.2,0.4 -0.3,0.6 -0.4,0.6 -0.8,1.2 -1.2,1.9 -1,1.4 -2,2.7 -2.5,3.7 -0.1,0.2 -0.2,0.3 -0.2,0.5 -0.1,0.2 -0.1,0.4 -0.1,0.5 0,0.1 0,0.2 0.1,0.2 0.3,0.3 0.8,0.3 1.5,0 0.1,0 0.2,-0.1 0.3,-0.1 0.1,-0.1 0.3,-0.1 0.4,-0.2 0.8,-0.4 1.7,-1 2.5,-1.4 0.2,-0.1 0.5,-0.3 0.7,-0.4 0.8,-0.5 1.8,-1.7 2.6,-2.8 0.8,-1.2 1.6,-2.4 2.1,-3.1 0.5,-0.7 0.5,-3.1 0.5,-5.7 0,-0.3 0,-0.6 0,-1 0,-0.6 0,-1.3 0,-1.9 0,-0.3 0,-0.6 0,-0.9 0,-0.6 0,-1.1 0,-1.6 0,-0.5 0,-0.9 0,-1.2 0,-0.3 0.1,-0.8 0.1,-1.3 0.2,-1.5 0.5,-3.8 0.8,-6.4 0.5,-4.7 1.1,-10.3 1,-14.1 -0.2,-2.2 -0.4,-4.4 -0.6,-6.3 z"
               id="path135" /></g><g
             id="g137"><path
               style="fill:#ddba9b"
               d="m 104.5,39.2 c 3.2,0 6.7,-5.8 6.8,-6.7 0.3,-0.5 0.5,-0.9 0.7,-1.4 l -15.1,0 c 0.2,0.5 0.5,0.9 0.7,1.4 0.1,0.8 3.6,6.7 6.9,6.7 z"
               id="path139" /></g><g
             id="g141"><path
               style="fill:#edcaab"
               d="m 116.8,20.2 c -0.7,-1.2 -1.8,0 -1.8,0 C 117.2,8.5 111.3,5.8 105.9,5 l -2.6,0 C 97.9,5.7 92,8.5 94.2,20.2 c 0,0 -1.1,-1.2 -1.8,0 -0.7,1.2 1.4,6.5 3.2,6.1 0,0 0.7,10.6 9,10.6 8.3,0 9,-10.6 9,-10.6 1.8,0.4 3.9,-4.9 3.2,-6.1 z"
               id="path143" /></g><g
             id="g145"><path
               style="fill:#bd9a7b"
               d="m 93.4,20 c 0,0 -0.3,-6.8 0.5,-9.1 0.7,-2.3 2.6,-6.7 10,-6.8 7.4,-0.1 10.9,4.6 11.4,6.7 0.5,2.1 0.3,9.1 0.3,9.1 l -1.8,2 c 0,0 0.7,-7.5 -2,-9.8 0,0 -4.5,1.4 -7.1,1.4 -2.6,0 -6.7,-1.5 -6.7,-1.5 0,0 -2.8,0.2 -2.7,9.8 L 93.4,20 Z"
               id="path147" /></g><path
             style="fill:#b5bab9"
             d="m 85.9,77.3 c 0,0 -0.2,-0.7 -0.3,-1.7 -0.1,-1 -0.2,-2.4 -0.2,-3.8 0,-1.4 0.1,-2.8 0.2,-3.8 0.1,-1 0.3,-1.7 0.3,-1.7 0,0 0.2,0.7 0.3,1.7 0.1,1 0.2,2.4 0.2,3.8 0,1.4 -0.1,2.8 -0.2,3.8 -0.1,1 -0.3,1.7 -0.3,1.7 z"
             id="path149" /><path
             style="fill:#b5bab9"
             d="m 123.9,77.3 c 0,0 -0.2,-0.7 -0.3,-1.7 -0.1,-1 -0.2,-2.4 -0.2,-3.8 0,-1.4 0.1,-2.8 0.2,-3.8 0.1,-1 0.3,-1.7 0.3,-1.7 0,0 0.2,0.7 0.3,1.7 0.1,1 0.2,2.4 0.2,3.8 0,1.4 -0.1,2.8 -0.2,3.8 -0.2,1 -0.3,1.7 -0.3,1.7 z"
             id="path151" /></g><path
           style="fill:#eaeaea"
           d="m 97.4,37.7 c 0,0 -1,-0.4 -3.7,3.6 l 8.3,8.3 2.5,-5.2 -7.1,-6.7 z"
           id="path153" /><path
           style="fill:#eaeaea"
           d="m 112,37.6 c 0,0 1.4,-0.4 4.1,3.6 l -8.3,8.3 -2.5,-5.2 6.7,-6.7 z"
           id="path155" /></g><polygon
         style="fill:#b24d4b"
         points="104.9,113.7 110.9,102 106.4,50.5 107.3,49.8 107.3,48.5 105.9,46.1 103.2,46.1 101.5,48.5 101.5,49.8 102.7,50.5 98.5,102 104.5,113.7 "
         id="polygon157" /></g><g
       id="g159"
       transform="translate(-29.183673,-0.09998779)"><g
         id="g161"><polygon
           style="fill:#edcaab"
           points="161.8,144.2 164.5,145.6 164.5,140.5 158.4,126.2 153.3,126.2 152.3,142 159,148.6 163.1,149.9 163.1,148 158.3,145.3 159,140.3 161.4,141 "
           id="polygon163" /><polygon
           style="fill:#edcaab"
           points="201.6,144.2 199,145.6 199,140.5 204.8,126.2 209.9,126.2 210.9,142 204.4,148.6 200.4,149.9 200.4,148 205.1,145.3 204.3,140.3 201.8,141 "
           id="polygon165" /><polygon
           style="fill:#edcaab"
           points="174.2,37.5 174.2,44.8 182.3,52.8 189.4,46.1 189.4,35.3 "
           id="polygon167" /><g
           id="g169"><path
             style="fill:#ddba9b"
             d="m 181.8,47.4 c 3.2,0 6.7,-5.8 6.8,-6.7 0.3,-0.5 0.5,-0.9 0.7,-1.4 l -15.1,0 c 0.2,0.5 0.5,0.9 0.7,1.4 0.1,0.8 3.6,6.7 6.9,6.7 z"
             id="path171" /></g><path
           style="fill:#edcaab"
           d="m 171.8,28.1 c 0,0 -2.8,-14.5 9.3,-14.5 12.1,0 10.2,14.5 10.2,14.5 0,0 1.5,-1 2.3,-0.3 0.8,0.7 0.9,6.8 -3.1,7.6 0,0 -1.1,3.6 -1.7,4.3 -0.6,0.6 -2.9,4.7 -7.3,4.7 -2.3,0 -5,-2.1 -6.7,-4.7 -1.6,-2.4 -2.3,-5.2 -2.3,-5.2 0,0 -4.1,-1 -2.8,-6.8 0.1,0 1.4,-0.9 2.1,0.4 z"
           id="path173" /><path
           style="fill:#d6d5d6"
           d="m 174.5,43.8 c 0,0 0.5,2.3 6.2,6.4 l 4,0 c 0,0 4.5,-4.7 4.7,-4.9 0.2,-0.3 0.1,-1.9 0.1,-1.9 0,0 2.2,2.1 1.7,6 -0.4,3.9 -8.1,31.4 -8.1,31.4 0,0 -15.3,-33.2 -8.7,-36.9"
           id="path175" /><path
           style="fill:#493c34"
           d="m 169.8,230.5 c 0,0 -0.8,7.1 -1.5,8.9 -0.7,1.8 -2.2,4.7 -2.2,6.1 0,1.4 1.3,3.3 6.8,3.3 5.5,0 6.4,-0.5 6.4,-4.1 0,-3.7 0,-14.1 0,-14.1 l -9.5,0 z"
           id="path177" /><path
           style="fill:#493c34"
           d="m 195.4,230.5 c 0,0 0.8,7.1 1.4,8.9 0.7,1.8 2.2,4.7 2.2,6.1 0,1.4 -1.2,3.3 -6.8,3.3 -5.5,0 -6.4,-0.5 -6.4,-4.1 0,-3.7 0,-14.1 0,-14.1 l 9.6,0 z"
           id="path179" /><polygon
           style="fill:#b24d4b"
           points="182.3,75.1 186.7,75.1 184.2,55.5 185.2,54.6 185.2,53.2 183.5,50.3 180.4,50.3 178.3,53.2 178.3,54.6 179.7,55.5 177.5,75.1 181.9,75.1 "
           id="polygon181" /><path
           style="fill:#1b2a35"
           d="M 208.1,56.5 C 205.9,54.3 194.6,50 194.6,50 l -4.2,-5.4 c 0.1,10.1 -6.1,25 -8.4,30 -2.2,-5.1 -8.5,-20 -8.4,-30.1 l -4.2,5.3 c 0,0 -11.3,4.4 -13.5,6.6 -2.2,2.2 -9.3,17.1 -5.2,79.3 0,0 4.9,0 8.4,0 l 1.6,6.4 c 0,0 10.3,0.5 21.2,0.4 11,0.1 21.2,-0.3 21.2,-0.3 l 1.6,-6.4 c 3.5,0 8.4,0 8.4,0 4.3,-62.1 -2.8,-77.1 -5,-79.3 z"
           id="path183" /><circle
           style="fill:#4f4c4d"
           cx="182.7"
           cy="90"
           r="1.2"
           id="circle185" /><circle
           style="fill:#4f4c4d"
           cx="182.7"
           cy="102.4"
           r="1.2"
           id="circle187" /><path
           style="fill:#243742"
           d="m 182.3,139.5 -12.9,0 -8,0 c 0,0 0.4,31.4 1.3,44.4 0.9,13 2.2,27 2.4,28.7 0.2,1.7 2.2,20 2.2,20 0,0 4.1,1.1 6.6,1.1 2.5,0 6.5,-1.1 6.5,-1.1 0,0 0.4,-16.6 0,-22.5 -0.4,-6 0,-28.8 0.2,-35.8 0.2,-6.9 0.2,-21.1 1.7,-21.1 1.5,0 1.9,14.2 2.1,21.1 0.2,7 0.5,29.9 0.2,35.8 -0.4,6 0,22.5 0,22.5 0,0 4.3,1.1 6.7,1.1 2.4,0 6.4,-1.1 6.4,-1.1 0,0 2.1,-18.4 2.2,-20.2 0.2,-1.7 1.5,-15.6 2.4,-28.6 0.9,-13 1.3,-44.4 1.3,-44.4 l -21.3,0 z"
           id="path189" /></g><g
         id="g191"><path
           style="fill:#baa99d"
           d="m 170.7,27.3 c 0,0 -0.3,-6.8 0.5,-9.1 0.7,-2.3 2.6,-6.7 10,-6.8 7.4,-0.1 10.9,4.6 11.4,6.7 0.5,2.1 0.3,9.1 0.3,9.1 l -1.8,2 c 0,0 0.7,-7.5 -2,-9.8 0,0 -4.5,1.4 -7.1,1.4 -2.6,0 -6.7,-1.5 -6.7,-1.5 0,0 -2.8,0.2 -2.7,9.8 l -1.9,-1.8 z"
           id="path193" /></g></g><g
       id="g195"
       transform="translate(-29.183673,-0.09998779)"><path
         style="fill:#4f4f4f"
         d="m 138.4,133.5 -12.2,0 -7.6,0 c 0,0 0.4,38.1 1.2,51.2 0.9,13.1 2.1,27.3 2.3,29 0.2,1.7 2.1,20.2 2.1,20.2 0,0 3.9,1.1 6.2,1.1 2.3,0 6.1,-1.1 6.1,-1.1 0,0 0.4,-16.7 0,-22.8 -0.4,-6 0,-29.1 0.2,-36.2 0.2,-7 0.1,-21.4 1.6,-21.4 1.4,0 1.8,14.4 2,21.3 0.2,7.1 0.5,30.2 0.2,36.2 -0.4,6 0,22.8 0,22.8 0,0 4.1,1.1 6.4,1.1 2.3,0 6,-1.1 6,-1.1 0,0 1.9,-18.6 2.1,-20.4 0.2,-1.7 1.4,-15.8 2.3,-28.9 0.9,-13.1 1.2,-51.3 1.2,-51.3 l -20.1,0 z"
         id="path197" /><path
         style="fill:#252626"
         d="m 146.7,44.5 15.1,4.7 c 0,0 14.5,10.1 15.1,29.3 l 5.1,56 c 0,0 1.5,2.3 -4,8.7 l 1.5,18.3 c 0,0 -1.9,3.8 -6.2,5.1 l 0.9,7.7 -6.4,3.6 c 0,0 -2.8,-3.8 -1.4,-7 l -2.9,-1.3 -1,-6.8 c 0,0 2.6,49.5 -4.3,57.3 0,0 -1.9,3.4 -10.6,-3.9 0,0 -7,4.7 -11.9,-0.4 0,0 -4,5.7 -8.9,-1.1 0,0 -4.7,7 -8.3,0 l -6.4,-43 -3,-1.3 0,-5.1 c 0,0 -4.7,2.1 -3,-16.4 0,0 -11.9,-2.8 -11.3,-15.1 L 94,96.5 94.5,87.3 c 0,0 -1.2,-4.3 1.1,-6 l 2.8,-8.9 c 0,0 -1.5,-14.1 9.4,-21.7 l 19.2,-6.4 9.7,12.6 c -0.2,0.2 1.5,-2 10,-12.4 z"
         id="path199" /><path
         style="fill:#d3a56f"
         d="m 129,33.1 0,9.7 c 0,0 -0.7,2.9 2.7,4.7 3.4,1.8 4.4,1.2 5.6,1.2 1.2,0 7,-2.7 7.4,-4.1 0.4,-1.4 -0.1,-12.2 -0.1,-12.2 L 129,33.1 Z"
         id="path201" /><g
         id="g203"><path
           style="fill:#c49669"
           d="m 136.7,44.1 c 3.5,0 7.3,-6.4 7.4,-7.3 0.3,-0.5 0.5,-1 0.8,-1.5 l -16.5,0 c 0.2,0.5 0.5,1 0.8,1.5 0,0.9 3.9,7.3 7.5,7.3 z"
           id="path205" /></g><path
         style="fill:#d3a56f"
         d="m 126,24.6 c 0,0 -2.9,-15.4 9.9,-15.4 12.8,0 10.8,15.4 10.8,15.4 0,0 1.6,-1.1 2.4,-0.4 0.9,0.7 1,7.2 -3.3,8.1 0,0 -1.2,3.9 -1.8,4.5 -0.7,0.7 -3.1,5 -7.7,5 -2.4,0 -5.3,-2.3 -7.1,-5 -1.7,-2.5 -2.4,-5.5 -2.4,-5.5 0,0 -4.4,-1.1 -2.9,-7.2 0,0 1.3,-1 2.1,0.5 z"
         id="path207" /><path
         style="fill:#777572"
         d="m 140.9,11.7 c 0,0 -1.9,1 -3.9,3.7 0,-1.6 1.1,-3.7 1.1,-3.7 0,0 -3.2,1.3 -5.6,5.5 0,0 -0.2,-3.8 1,-6.9 0,0 -6.3,5.7 -7.3,12.6 l -0.9,-5.3 3.3,-6.7 7.6,-3.2 4.7,4 z"
         id="path209" /><path
         style="fill:#777572"
         d="m 126.2,11.1 c 4.5,-6.4 10.1,-6 15.5,-4.2 6,1.9 7.1,8.9 7.2,11.7 0.1,2.8 -0.8,5.5 -0.8,5.5 l -1.4,0.6 -0.1,0.2 -0.7,1.4 c 0,0 0,-2.3 0.2,-5.1 0.2,-2.8 -0.8,-6.3 -0.8,-6.3 0.1,1 -0.7,1.5 -0.7,1.5 0,-2.2 -1.1,-3.1 -1.1,-3.1 l -1.7,-0.8 -1.4,-0.8 -4.3,-1.4 -2.5,-0.7 -3.8,2.5 -2.8,8.1 -0.3,3.4 0.3,2.8 -0.7,-0.7 -0.4,-0.9 c -0.7,-1 -1.5,-0.8 -1.5,-0.8 0,0 -0.9,-9 1.8,-12.9 z"
         id="path211" /><polygon
         style="fill:#ededed"
         points="144.8,42.1 146.7,44.5 140.1,53.1 136.7,48.7 "
         id="polygon213" /><polygon
         style="fill:#ededed"
         points="128.9,42.1 126.9,44.5 133.6,53.5 136.9,48.7 "
         id="polygon215" /><path
         style="fill:#777572"
         d="m 141.1,11.6 c 0,0 1.6,2.3 1.4,4.4 0,0 1.7,-1.5 1.3,-3 l -2.7,-1.4 z"
         id="path217" /><polygon
         style="fill:#dbd8d7"
         points="137.2,67.9 131.5,67.4 134.4,48.7 138.9,48.7 "
         id="polygon219" /><rect
         x="135.2"
         y="48.400002"
         transform="matrix(-0.9961,0.08788002,-0.08788002,-0.9961,280.8413,103.8088)"
         style="fill:#ededed"
         width="5.8000002"
         height="19.299999"
         id="rect221" /><path
         style="fill:#1a1c1c"
         d="m 125.6,231.8 c 0,0 -0.8,7.2 -1.5,9 -0.7,1.8 -2.2,4.7 -2.2,6.2 0,1.5 1.3,3.3 6.9,3.3 5.6,0 6.5,-0.5 6.5,-4.2 0,-3.7 0,-14.3 0,-14.3 l -9.7,0 z"
         id="path223" /><path
         style="fill:#1a1c1c"
         d="m 151.4,231.8 c 0,0 0.8,7.2 1.5,9 0.7,1.8 2.2,4.7 2.2,6.2 0,1.5 -1.3,3.3 -6.9,3.3 -5.6,0 -6.4,-0.5 -6.4,-4.2 0,-3.7 0,-14.3 0,-14.3 l 9.6,0 z"
         id="path225" /><g
         id="g227"><path
           style="fill:#edcaab"
           d="m 107.5,138.2 c 0,-0.1 0,-0.2 0.1,-0.3 0.1,-0.4 0.3,-0.6 0.4,-0.6 0.1,0 0.2,0 0.3,0 0,0 0.1,0 0.1,0.1 0.1,0 0.2,0.1 0.3,0.2 0.3,0.3 0.5,0.7 0.5,1 0,0.4 0.2,1 0.5,1.6 0.2,0.5 0.6,1 0.9,1.4 0.1,0.1 0.1,0.1 0.2,0.2 0.1,0.1 0.2,0.1 0.3,0.2 0.2,0.1 0.4,0.1 0.5,0 0.3,-0.1 0.5,-0.8 0.5,-1.6 0,-0.3 0,-0.7 0,-1.1 0,-0.4 -0.1,-0.8 -0.1,-1.1 0,-0.2 -0.1,-0.4 -0.1,-0.7 0,-0.2 -0.1,-0.4 -0.1,-0.6 -0.1,-1 -0.3,-1.8 -0.4,-2.3 l 0,0 c 0,-0.2 -0.1,-0.4 -0.2,-0.6 0,0 0,-0.1 -0.1,-0.2 -0.1,-0.2 -0.2,-0.4 -0.3,-0.6 0,0 0,0 0,0 -0.1,-0.3 -0.3,-0.5 -0.4,-0.8 0,0 0,0 0,-0.1 -0.4,-0.7 -0.8,-1.4 -1.1,-2 -0.4,-0.6 -0.7,-1.2 -0.8,-1.5 0,-0.1 -0.2,-0.8 -0.4,-1.9 l 2.8,-38.5 c 0,0 -8.2,-1.1 -8.3,-1.1 l -0.3,9.1 0,0 0,0 c 0,0 -0.2,1.2 -0.5,3.1 -0.4,2.4 -0.8,6 -0.8,9.3 0,1.5 0.1,3.3 0.2,5.3 0.1,1 0.2,2 0.3,3 0.1,1.5 0.3,3 0.5,4.4 0.1,0.9 0.2,1.7 0.3,2.5 0,0.1 0,0.2 0,0.3 0.1,1.2 0.3,2.2 0.4,2.9 0.1,0.5 0.1,0.9 0.1,1.2 0,0.4 0,1 0,1.7 0,0.7 0,1.5 0,2.4 0,0.6 0,1.1 0,1.7 0,0.6 0,1.1 0,1.7 0,0.3 0,0.5 0,0.8 0.1,1.3 0.2,2.3 0.4,2.6 0.2,0.3 0.5,0.7 0.8,1.2 0.9,1.5 2.3,3.4 3.4,4.1 0.7,0.5 1.7,1.1 2.7,1.6 0.9,0.5 1.7,0.7 2.1,0.3 0,-0.1 0.1,-0.1 0.1,-0.2 -0.3,-1.3 -5.1,-6.3 -4.8,-8.1 z"
           id="path229" /></g><path
         style="fill:#e3dfde"
         d="m 110.7,129.9 c 0,0 -4,-3.4 -9.7,-0.6 L 99,104 c 0,0 11.7,-8.6 11.9,-0.9 l -0.2,26.8 z"
         id="path231" /><g
         id="g233"><path
           style="fill:#edcaab"
           d="m 163.9,141.2 c 0,-0.1 0,-0.2 -0.1,-0.3 -0.1,-0.4 -0.3,-0.6 -0.4,-0.6 -0.1,0 -0.2,0 -0.3,0 0,0 -0.1,0 -0.1,0.1 -0.1,0 -0.2,0.1 -0.3,0.2 -0.3,0.3 -0.5,0.7 -0.5,1 0,0.4 -0.2,1 -0.5,1.6 -0.2,0.5 -0.6,1 -0.9,1.4 -0.1,0.1 -0.1,0.1 -0.2,0.2 -0.1,0.1 -0.2,0.1 -0.3,0.2 -0.2,0.1 -0.4,0.1 -0.5,0 -0.3,-0.1 -0.5,-0.8 -0.5,-1.6 0,-0.3 0,-0.7 0,-1.1 0,-0.4 0.1,-0.8 0.1,-1.1 0,-0.2 0.1,-0.4 0.1,-0.7 0,-0.2 0.1,-0.4 0.1,-0.6 0.1,-1 0.3,-1.8 0.4,-2.3 l 0,0 c 0,-0.2 0.1,-0.4 0.2,-0.6 0,0 0,-0.1 0.1,-0.2 0.1,-0.2 0.2,-0.4 0.3,-0.6 0,0 0,0 0,0 0.1,-0.3 0.3,-0.5 0.4,-0.8 0,0 0,0 0,-0.1 0.4,-0.7 0.8,-1.4 1.1,-2 0.4,-0.6 0.7,-1.2 0.8,-1.5 0,-0.1 0.2,-0.8 0.4,-1.9 l -2.8,-38.5 c 0,0 8.2,-1.1 8.3,-1.1 l 0.3,9.1 0,0 0,0 c 0,0 0.2,1.2 0.5,3.1 0.4,2.4 0.8,6 0.8,9.3 0,1.5 -0.1,3.3 -0.2,5.3 -0.1,1 -0.2,2 -0.3,3 -0.1,1.5 -0.3,3 -0.5,4.4 -0.1,0.9 -0.2,1.7 -0.3,2.5 0,0.1 0,0.2 0,0.3 -0.1,1.2 -0.3,2.2 -0.4,2.9 -0.1,0.5 -0.1,0.9 -0.1,1.2 0,0.4 0,1 0,1.7 0,0.7 0,1.5 0,2.4 0,0.6 0,1.1 0,1.7 0,0.6 0,1.1 0,1.7 0,0.3 0,0.5 0,0.8 -0.1,1.3 -0.2,2.3 -0.4,2.6 -0.2,0.3 -0.5,0.7 -0.8,1.2 -0.9,1.5 -2.3,3.4 -3.4,4.1 -0.7,0.5 -1.7,1.1 -2.7,1.6 -0.9,0.5 -1.7,0.7 -2.1,0.3 0,-0.1 -0.1,-0.1 -0.1,-0.2 0.2,-1.3 5,-6.3 4.8,-8.1 z"
           id="path235" /></g><path
         style="fill:#e3dfde"
         d="m 160.6,132.8 c 0,0 4,-3.4 9.7,-0.6 l 2.1,-25.3 c 0,0 -11.7,-8.6 -11.9,-0.9 l 0.1,26.8 z"
         id="path237" /><polygon
         style="fill:#252626"
         points="169,108 102.4,108 97.5,102.9 99,97.3 100.8,87.3 102.4,80.8 169,80.8 170.5,87.3 172.3,92.7 174.3,100 "
         id="polygon239" /></g></g></svg>