<?xml version="1.0" encoding="UTF-8" standalone="no"?>
<svg
   xmlns:dc="http://purl.org/dc/elements/1.1/"
   xmlns:cc="http://creativecommons.org/ns#"
   xmlns:rdf="http://www.w3.org/1999/02/22-rdf-syntax-ns#"
   xmlns:svg="http://www.w3.org/2000/svg"
   xmlns="http://www.w3.org/2000/svg"
   version="1.1"
   id="Layer_1"
   x="0px"
   y="0px"
   viewBox="0 0 259 262"
   xml:space="preserve"
   width="259"
   height="262"><metadata
     id="metadata245"><rdf:RDF><cc:Work
         rdf:about=""><dc:format>image/svg+xml</dc:format><dc:type
           rdf:resource="http://purl.org/dc/dcmitype/StillImage" /><dc:title></dc:title></cc:Work></rdf:RDF></metadata><defs
     id="defs243" /><g
     id="g3694"
     transform="translate(8.5704995,0)"><rect
       id="rect3"
       height="38"
       width="230"
       style="fill:#f2f2f2"
       y="224.00002"
       x="6.2163277" /><path
       id="polygon7"
       transform="translate(-8.5704995,0)"
       d="M 218.28711 -0.30078125 C 209.58711 1.2992187 206.08594 7.8007812 206.08594 7.8007812 L 206.08594 18.662109 C 205.55976 18.659319 205.12844 19 205.1875 19 C 203.7875 24.8 207.98633 25.900391 207.98633 25.900391 C 207.98633 25.900391 208.48636 27.865842 209.58594 29.914062 L 209.58594 35.300781 C 209.06928 35.593809 208.69961 36.080861 208.42969 36.699219 L 204.6875 41.400391 C 204.6875 41.400391 201.71725 42.575671 198.51758 44.015625 C 198.49721 42.210283 198.4662 41.118539 198.4043 39.607422 C 198.46496 39.473925 198.52774 39.344724 198.58594 39.199219 L 198.52148 39.199219 C 199.01382 37.968894 199.48633 36.5 199.48633 36.5 C 203.38633 35.7 203.18633 29.799609 202.48633 29.099609 C 201.78633 28.399609 200.28711 29.400391 200.28711 29.400391 C 200.28711 29.400391 200.29794 29.281247 200.30078 29.257812 L 201.48633 28.800781 C 201.48633 28.800781 202.38711 26.400781 202.28711 23.800781 C 202.18711 21.300781 201.1875 14.899609 195.6875 13.099609 C 190.7875 11.499609 185.58633 11.2 181.48633 17 C 178.98633 20.6 179.88672 28.5 179.88672 28.5 C 179.88672 28.5 180.56268 28.312272 181.25 29.158203 C 181.26115 29.224397 181.28711 29.400391 181.28711 29.400391 C 180.58711 28.100391 179.28711 29 179.28711 29 C 177.98711 34.6 181.98633 35.599609 181.98633 35.599609 C 181.98633 35.599609 182.63064 38.134886 183.98633 40.363281 L 183.98633 45.800781 C 183.98633 45.800781 182.99993 45.42064 180.35352 49.308594 C 179.58357 49.91428 178.61983 50.440832 177.28711 50.900391 C 177.16941 50.940976 176.96264 50.99846 176.83203 51.041016 C 175.24078 50.39357 173.98633 49.900391 173.98633 49.900391 L 169.78711 44.5 C 169.78739 44.527855 169.78498 44.558009 169.78516 44.585938 C 169.3379 43.752536 168.88672 43.300781 168.88672 43.300781 C 168.88672 43.300781 168.98711 44.899219 168.78711 45.199219 L 168.78711 38.419922 C 169.32569 37.11564 169.88672 35.300781 169.88672 35.300781 C 173.88672 34.500781 173.78633 28.399219 172.98633 27.699219 C 172.69456 27.443917 172.31072 27.418403 171.93945 27.484375 L 172.28711 27.099609 C 172.28711 27.099609 172.48633 20.1 171.98633 18 C 171.48633 15.9 167.98594 11.200781 160.58594 11.300781 C 153.18594 11.400781 151.28594 15.799609 150.58594 18.099609 C 149.78594 20.399609 150.08594 27.199219 150.08594 27.199219 L 150.19727 27.304688 C 149.6532 27.27256 149.1468 27.599609 149.08594 27.599609 C 147.78594 33.399609 151.88672 34.400391 151.88672 34.400391 C 151.88672 34.400391 152.41256 36.489626 153.58594 38.605469 L 153.58594 43.933594 C 153.35403 44.097133 153.16269 44.316041 152.99023 44.558594 C 152.99041 44.507016 152.98582 44.451722 152.98633 44.400391 L 148.78711 49.699219 C 148.78711 49.699219 146.63893 50.557368 144.14648 51.628906 C 142.41289 49.969484 141.1875 49.099609 141.1875 49.099609 L 126.08594 44.400391 L 124.23828 42.064453 C 124.25816 39.83953 124.18352 37.664968 124.10352 35.542969 C 124.16417 35.428374 124.21835 35.313813 124.28711 35.199219 L 124.13281 35.199219 C 124.66107 33.871174 125.1875 32.199219 125.1875 32.199219 C 129.4875 31.299219 129.38633 24.799609 128.48633 24.099609 C 128.22165 23.868018 127.86852 23.842952 127.51562 23.900391 C 127.60164 23.633946 128.38176 21.150173 128.28711 18.5 C 128.18711 15.7 127.08594 8.7007812 121.08594 6.8007812 C 115.68594 5.0007813 110.08594 4.6000002 105.58594 11 C 102.95334 14.802638 103.73626 23.32433 103.77734 23.753906 C 103.48787 23.850465 103.28711 24 103.28711 24 C 101.78711 30.1 106.1875 31.199219 106.1875 31.199219 C 106.1875 31.199219 106.83896 33.9481 108.38672 36.376953 L 108.38672 42.082031 L 108.28711 42 L 106.41992 44.242188 L 106.38672 44.199219 L 104.80078 44.728516 C 102.37633 43.868322 99.855661 43.12246 98.287109 42.599609 C 97.092518 42.187681 96.161993 41.721078 95.392578 41.193359 L 95.486328 41.099609 C 92.897149 37.263788 91.539734 37.476266 91.429688 37.5 C 91.457229 35.759423 91.405555 33.980314 91.332031 32.021484 C 92.77452 29.208908 92.986328 26.199219 92.986328 26.199219 C 94.786328 26.599219 96.8875 21.299609 96.1875 20.099609 C 95.823981 19.476433 95.357472 19.504743 94.988281 19.671875 C 94.994755 19.439648 95.178937 12.763254 94.6875 10.699219 C 94.1875 8.599219 90.687109 3.9 83.287109 4 C 75.887109 4.1 73.987109 8.5007814 73.287109 10.800781 C 72.541107 12.945537 72.745527 18.795516 72.777344 19.603516 C 72.450673 19.523168 72.084386 19.589992 71.787109 20.099609 C 71.087109 21.299609 73.186328 26.599219 74.986328 26.199219 C 74.986328 26.199219 75.2094 29.562455 76.886719 32.5 L 76.886719 37.65625 C 76.877166 37.659539 76.866921 37.662707 76.857422 37.666016 L 76.787109 37.599609 C 76.787109 37.599609 75.798127 37.218674 73.150391 41.109375 C 72.380836 41.714221 71.417205 42.240161 70.085938 42.699219 C 67.767286 43.498754 62.863256 44.687593 59.851562 46.203125 C 57.848719 45.530148 55.880149 44.931404 54.585938 44.5 C 53.381262 44.084595 52.446838 43.613357 51.673828 43.080078 C 49.099262 39.27462 47.745455 39.475651 47.630859 39.5 C 47.657314 37.828073 47.609417 36.107845 47.539062 34.1875 C 48.235671 33.18319 49.1875 30 49.1875 30 C 53.2875 29.2 53.186719 22.899219 52.386719 22.199219 C 51.486719 21.499219 49.986328 22.599609 49.986328 22.599609 C 49.986328 22.599609 51.886328 7.6992188 39.486328 7.6992188 C 27.086328 7.6992188 29.886719 22.599609 29.886719 22.599609 C 29.086719 21.199609 27.786719 22.099609 27.886719 22.099609 C 26.386719 27.999609 30.6875 29.099609 30.6875 29.099609 C 30.6875 29.099609 31.485938 32.000391 33.085938 34.400391 L 33.085938 39.589844 C 33.084628 39.590313 33.08334 39.591327 33.082031 39.591797 L 32.986328 39.5 C 32.986328 39.5 31.987109 39.099609 29.287109 43.099609 L 29.306641 43.119141 C 28.56008 43.677889 27.637115 44.168438 26.386719 44.599609 C 23.486719 45.599609 16.487109 47.200781 14.287109 49.300781 C 12.087109 51.500781 10.486719 57.3 9.3867188 62.5 C 8.3867188 67.6 8.5859375 75.900391 8.5859375 75.900391 C 8.5859375 75.900391 11.529883 77.625274 12.296875 77.914062 C 12.293214 77.913735 12.188676 77.900391 12.1875 77.900391 L 11.787109 88.099609 C 11.787109 88.099609 11.4875 89.499609 11.1875 91.599609 C 10.7875 94.299609 10.287109 98.200002 10.287109 102 C 10.287109 103.7 10.386328 105.70039 10.486328 107.90039 L 10.787109 111.19922 C 10.987109 112.89922 11.087109 114.49961 11.287109 116.09961 C 11.387109 117.09961 11.485938 118.00039 11.585938 118.90039 L 11.585938 119.19922 C 11.785937 120.49922 11.886328 121.6 11.986328 122.5 C 12.086328 123.1 12.085938 123.60078 12.085938 123.80078 L 12.085938 125.69922 L 12.085938 128.30078 L 12.085938 130.19922 L 12.085938 132.09961 L 12.085938 133 C 12.185937 134.4 12.285937 135.50039 12.585938 135.90039 C 12.785938 136.20039 13.086328 136.70078 13.486328 137.30078 C 14.586328 138.90078 16.087109 141.10039 17.287109 141.90039 C 18.087109 142.40039 19.187109 143.19922 20.287109 143.69922 C 20.304648 143.70799 20.320416 143.71401 20.337891 143.72266 C 20.550494 153.58402 20.858999 164.68886 21.287109 171.30078 C 22.187109 185.30078 23.5875 200.39922 23.6875 202.19922 C 23.8875 203.99922 25.986328 223.80078 25.986328 223.80078 C 25.986328 223.80078 26.45541 223.92617 27.078125 224.08398 C 26.774422 226.51009 26.292445 229.89944 25.787109 231.09961 C 25.087109 232.99961 23.386719 236.09922 23.386719 237.69922 C 23.386719 239.29922 24.787109 241.19922 30.787109 241.19922 C 36.787109 241.19922 37.6875 240.69922 37.6875 236.69922 L 37.6875 224.18945 C 38.528157 223.98102 39.1875 223.80078 39.1875 223.80078 C 39.1875 223.80078 39.5875 206 39.1875 199.5 C 38.7875 193.1 39.186719 168.40039 39.386719 160.90039 C 39.586719 153.40039 39.585938 138.09961 41.085938 138.09961 C 42.585938 138.09961 42.9875 153.40039 43.1875 160.90039 C 43.3875 168.40039 43.686719 193.1 43.386719 199.5 C 42.986719 205.9 43.386719 223.80078 43.386719 223.80078 C 43.386719 223.80078 44.048004 223.96956 44.886719 224.16797 L 44.886719 236.69922 C 44.886719 240.69922 45.6875 241.19922 51.6875 241.19922 C 57.6875 241.19922 58.986328 239.29922 58.986328 237.69922 C 58.986328 236.09922 57.285938 232.99961 56.585938 231.09961 C 56.084835 229.90949 55.607229 226.56816 55.302734 224.14453 C 56.024499 223.95753 56.585938 223.80078 56.585938 223.80078 C 56.585938 223.80078 58.686719 203.89961 58.886719 202.09961 C 59.086719 200.29961 60.387109 185.30078 61.287109 171.30078 C 61.72059 164.55774 62.031469 153.24923 62.244141 143.30859 C 62.734321 143.02123 63.2255 142.731 63.6875 142.5 C 63.791529 142.44799 63.920787 142.369 64.050781 142.29102 C 64.263215 152.03625 64.564902 162.8917 64.986328 169.40039 C 65.886328 183.40039 67.286719 198.50078 67.386719 200.30078 C 67.586719 202.10078 69.6875 221.90039 69.6875 221.90039 C 69.6875 221.90039 70.202807 222.03796 70.875 222.20703 C 70.57098 224.63227 70.089632 228.00294 69.585938 229.19922 C 68.885937 231.09922 67.1875 234.20078 67.1875 235.80078 C 67.1875 237.40078 68.585938 239.30078 74.585938 239.30078 C 80.585938 239.30078 81.486328 238.80078 81.486328 234.80078 L 81.486328 222.26367 C 82.272052 222.067 82.886719 221.90039 82.886719 221.90039 C 82.886719 221.90039 83.286719 204.09961 82.886719 197.59961 C 82.486719 191.19961 82.885938 166.5 83.085938 159 C 83.16401 156.0723 83.21379 151.96594 83.332031 148.03516 C 84.597137 148.58147 85.486328 148.80078 85.486328 148.80078 C 84.450187 160.07643 85.792429 163.68277 86.998047 164.79297 C 87.174338 175.04772 87.333559 192.31701 87.085938 197.59961 C 86.685937 203.99961 87.085938 221.90039 87.085938 221.90039 C 87.085938 221.90039 87.747788 222.06928 88.585938 222.26758 L 88.585938 234.80078 C 88.585938 238.80078 89.386719 239.30078 95.386719 239.30078 C 101.38672 239.30078 102.6875 237.40078 102.6875 235.80078 C 102.6875 234.20078 100.98711 231.09922 100.28711 229.19922 C 99.786015 228.00912 99.308403 224.66776 99.003906 222.24414 C 99.725296 222.05723 100.28711 221.90039 100.28711 221.90039 C 100.28711 221.90039 100.61023 218.84924 100.74609 217.5625 C 101.14104 217.6925 101.52991 217.71659 101.91016 217.68164 C 102.50066 223.30556 103.58594 233.80078 103.58594 233.80078 C 103.58594 233.80078 104.06219 233.92624 104.68359 234.08008 C 104.40068 236.32619 103.96854 239.45925 103.48633 240.69922 C 102.78633 242.49922 101.28711 245.40039 101.28711 246.90039 C 101.28711 248.40039 102.5875 250.19922 108.1875 250.19922 C 113.7875 250.19922 114.6875 249.7 114.6875 246 L 114.6875 234.11133 C 115.36277 233.94237 115.88672 233.80078 115.88672 233.80078 C 115.88672 233.80078 116.11961 223.89981 116.04492 216.55664 C 117.2269 217.45781 118.48855 217.87562 119.7207 218.01172 C 119.69012 225.10795 119.88672 233.69922 119.88672 233.69922 C 119.88672 233.69922 120.67988 233.88296 121.1875 234.00586 L 121.1875 246 C 121.1875 249.7 121.98594 250.19922 127.58594 250.19922 C 133.18594 250.19922 134.48633 248.40039 134.48633 246.90039 C 134.48633 245.40039 132.98711 242.49922 132.28711 240.69922 C 131.79918 239.44456 131.36233 236.25239 131.08203 234.01758 C 131.75927 233.84475 132.28711 233.69922 132.28711 233.69922 C 132.28711 233.69922 133.04196 226.37292 133.66016 220.36523 C 136.74138 221.47112 137.58594 220 137.58594 220 C 141.14814 215.97316 142.1728 200.84687 142.33594 187.14062 C 143.21136 199.09223 144.30349 210.94591 144.48633 212.5 C 144.68633 214.2 146.6875 232.5 146.6875 232.5 C 146.6875 232.5 147.62852 232.74806 148.84961 233.00586 C 148.5582 235.248 148.14595 238.12192 147.6875 239.30078 C 146.9875 241.10078 145.48633 244.00039 145.48633 245.40039 C 145.48633 246.80039 146.78711 248.69922 152.28711 248.69922 C 157.78711 248.69922 158.6875 248.19961 158.6875 244.59961 L 158.6875 232.77148 C 159.31293 232.62119 159.78711 232.5 159.78711 232.5 C 159.78711 232.5 160.18711 215.9 159.78711 210 C 159.38711 204 159.78633 181.19922 159.98633 174.19922 C 160.18633 167.29922 160.1875 153.09961 161.6875 153.09961 C 163.1875 153.09961 163.58711 167.29922 163.78711 174.19922 C 163.98711 181.19922 164.28633 204.1 163.98633 210 C 163.58633 216 163.98633 232.5 163.98633 232.5 C 163.98633 232.5 164.76245 232.66983 165.1875 232.76953 L 165.1875 244.59961 C 165.1875 248.19961 166.08594 248.69922 171.58594 248.69922 C 174.95469 248.69922 176.72463 248.01088 177.60547 247.1582 C 178.65688 247.43228 180.0176 247.59961 181.78711 247.59961 C 187.78711 247.59961 188.6875 247.09961 188.6875 243.09961 L 188.6875 230.56445 C 189.47279 230.36787 190.08594 230.19922 190.08594 230.19922 C 190.08594 230.19922 190.48594 212.40039 190.08594 205.90039 C 189.68594 199.50039 190.08711 174.80078 190.28711 167.30078 C 190.48711 159.80078 190.48633 144.5 191.98633 144.5 C 193.48633 144.5 193.88594 159.80078 194.08594 167.30078 C 194.28594 174.80078 194.58711 199.50039 194.28711 205.90039 C 193.88711 212.30039 194.28711 230.19922 194.28711 230.19922 C 194.28711 230.19922 194.94826 230.36992 195.78711 230.56836 L 195.78711 243.09961 C 195.78711 247.09961 196.58594 247.59961 202.58594 247.59961 C 208.58594 247.59961 209.88672 245.69961 209.88672 244.09961 C 209.88672 243.75659 209.79764 243.33517 209.66797 242.88086 C 214.08747 242.78538 214.88672 242.08514 214.88672 238.69922 L 214.88672 226.88867 C 215.56508 226.73018 216.08594 226.59961 216.08594 226.59961 C 216.08594 226.59961 216.48594 209.80078 216.08594 203.80078 C 215.68594 197.80078 216.08711 174.6 216.28711 167.5 C 216.48711 160.5 216.48633 146.09961 217.98633 146.09961 C 219.48633 146.09961 219.88594 160.5 220.08594 167.5 C 220.28594 174.6 220.58711 197.80078 220.28711 203.80078 C 219.88711 209.80078 220.28711 226.59961 220.28711 226.59961 C 220.28711 226.59961 221.06848 226.76709 221.48633 226.86328 L 221.48633 238.69922 C 221.48633 242.39922 222.28672 242.90039 227.88672 242.90039 C 233.48672 242.90039 234.78711 241.09961 234.78711 239.59961 C 234.78711 238.09961 233.28594 235.20039 232.58594 233.40039 C 232.13352 232.23702 231.72462 229.37849 231.43164 227.10547 C 232.64384 226.84743 233.58594 226.59961 233.58594 226.59961 C 233.58594 226.59961 235.68672 207.89922 235.88672 206.19922 C 236.08672 204.49922 237.38672 190.39922 238.38672 177.19922 C 239.05134 168.49271 239.38909 152.05394 239.55273 141.62305 L 240.1875 141.40039 L 246.78711 134.69922 L 246.39258 128.40039 L 249.08594 128.40039 C 253.38594 65.500393 246.18672 50.399219 243.88672 48.199219 C 241.68672 45.999219 230.28711 41.599609 230.28711 41.599609 L 225.98633 36.099609 C 225.98754 36.223054 225.97721 36.355615 225.97656 36.480469 C 225.54764 35.534379 225.11915 35.053685 224.98633 34.916016 L 224.98633 29.966797 C 225.52548 28.66947 226.08594 26.800781 226.08594 26.800781 C 230.08594 26.000781 229.9875 19.799609 229.1875 19.099609 C 228.72278 18.692978 228.04691 18.862794 227.54102 19.074219 L 227.78711 18.800781 L 227.78711 9.5996094 C 226.38711 2.6996094 218.28711 -0.30078125 218.28711 -0.30078125 z M 21.480469 79.185547 C 21.482726 79.185839 21.585938 79.199219 21.585938 79.199219 L 18.453125 122.25781 C 18.427695 122.15743 18.41386 122.10857 18.386719 122 L 21.480469 79.185547 z M 19.927734 126.03711 C 19.972851 126.04064 19.974317 126.04125 20.021484 126.04492 C 20.02214 126.09463 20.022742 126.14682 20.023438 126.19922 C 19.991767 126.14544 19.958633 126.09012 19.927734 126.03711 z M 240.08594 133.09961 L 240.88672 138.09961 L 239.59961 138.83984 C 239.64539 135.64673 239.6688 133.90589 239.67578 133.21484 L 240.08594 133.09961 z M 18.486328 133.59961 L 18.787109 133.59961 C 18.887109 133.59961 18.886328 133.59922 18.986328 133.69922 C 19.086328 133.79922 19.187109 133.80039 19.287109 133.90039 C 19.587109 134.20039 19.787109 134.59961 19.787109 135.09961 C 19.787109 135.45142 19.957835 136.04442 20.199219 136.65625 C 20.21612 137.59256 20.228849 138.34713 20.248047 139.3418 C 18.978156 137.51108 17.737295 135.64557 17.886719 134.69922 C 17.886719 134.59922 17.886328 134.40078 17.986328 134.30078 C 18.086328 133.90078 18.286328 133.69961 18.486328 133.59961 z M 63.1875 133.90039 C 63.3875 134.00039 63.5875 134.19961 63.6875 134.59961 C 63.6875 134.69961 63.687109 134.8 63.787109 135 L 63.787109 135.40039 C 63.710791 135.70566 63.558043 136.07386 63.365234 136.45117 C 63.011377 135.92532 62.682739 135.41249 62.402344 134.92773 C 62.406128 134.70981 62.412367 134.48484 62.416016 134.27148 L 62.486328 134.19922 L 62.585938 134.09961 C 62.785938 133.99961 62.9875 133.90039 63.1875 133.90039 z M 177.33203 230.32031 C 177.5252 230.37264 177.73715 230.42108 178.07422 230.50586 C 177.77022 232.93117 177.29093 236.30343 176.78711 237.5 C 176.61528 237.96639 176.38131 238.50705 176.12891 239.07812 C 175.74502 237.74945 175.38099 235.11217 175.11133 232.97656 C 176.22295 232.73121 177.08594 232.5 177.08594 232.5 C 177.08594 232.5 177.28222 230.7582 177.33203 230.32031 z "
       style="fill:#e6e6e6" /></g></svg>