<?xml version="1.0" encoding="UTF-8" standalone="no"?>
<svg
   xmlns:dc="http://purl.org/dc/elements/1.1/"
   xmlns:cc="http://creativecommons.org/ns#"
   xmlns:rdf="http://www.w3.org/1999/02/22-rdf-syntax-ns#"
   xmlns:svg="http://www.w3.org/2000/svg"
   xmlns="http://www.w3.org/2000/svg"
   height="262"
   width="259"
   xml:space="preserve"
   viewBox="0 0 259 262"
   y="0px"
   x="0px"
   id="Layer_1"
   version="1.1"><metadata
     id="metadata83"><rdf:RDF><cc:Work
         rdf:about=""><dc:format>image/svg+xml</dc:format><dc:type
           rdf:resource="http://purl.org/dc/dcmitype/StillImage" /><dc:title></dc:title></cc:Work></rdf:RDF></metadata><defs
     id="defs81" /><rect
     id="rect3"
     height="38"
     width="246.5"
     style="fill:#bbc199"
     y="224"
     x="6.25" /><g
     transform="translate(-21.549999,3.0517578e-6)"
     id="g5"><path
       id="path7"
       d="m 173.9,217.2 c 0,0 1.9,7.9 1.9,9 0,1.1 0,9.7 0,9.7 0,0 0,3.5 -0.9,5.3 -1,1.8 -1.8,4.2 -1.8,6.1 0,1.9 8.7,1.3 9.1,1.4 0.5,0.1 1.4,-1.2 1.5,-1.6 0.2,-0.5 0.4,-3.3 0,-5.1 -0.4,-1.8 -0.8,-4.4 -0.8,-6.1 0,-1.7 0.5,-5.4 -0.1,-6.7 -0.5,-1.3 -0.8,-10.9 -0.7,-12 0.1,-1.1 -8.2,0 -8.2,0 z"
       style="fill:#deb079" /><path
       id="path9"
       d="m 180.2,242.4 c 0,0 -5.8,1.1 -7.1,2.6 -1.3,1.5 0.6,7.6 0.6,7.6 0,0 2.4,0.8 5.5,0.8 3.1,0 4.9,-0.7 4.9,-0.7 0,0 2.9,-11 -3.9,-10.3 z m -1.6,5.9 c -2.5,0 -5.5,-0.3 -4.6,-1.5 0.9,-1.3 4.6,-1.1 4.6,-1.1 0,0 2.5,-0.5 4.1,1.3 1.6,1.8 -1.5,1.3 -4.1,1.3 z"
       style="fill:#546482" /><path
       id="path11"
       d="m 200,217.2 c 0,0 -1.8,7.9 -1.8,9 0,1.1 0,9.7 0,9.7 0,0 -0.1,3.5 0.8,5.3 0.9,1.8 1.7,4.2 1.7,6.1 0,1.9 -8.7,1.3 -9.1,1.4 -0.5,0.1 -1.4,-1.2 -1.6,-1.6 -0.2,-0.5 -0.4,-3.3 0,-5.1 0.4,-1.8 0.8,-4.4 0.8,-6.1 0,-1.7 -0.5,-5.4 0.1,-6.7 0.5,-1.3 0.9,-10.9 0.8,-12 0,-1.1 8.3,0 8.3,0 z"
       style="fill:#deb079" /><path
       id="path13"
       d="m 193.9,242.4 c 0,0 5.8,1.1 7.1,2.6 1.3,1.5 -0.6,7.6 -0.6,7.6 0,0 -2.4,0.8 -5.5,0.8 -3.1,0 -4.9,-0.7 -4.9,-0.7 0,0 -2.9,-11 3.9,-10.3 z m 1.6,5.9 c 2.5,0 5.5,-0.3 4.6,-1.5 -0.9,-1.3 -4.6,-1.1 -4.6,-1.1 0,0 -2.5,-0.5 -4.1,1.3 -1.6,1.8 1.5,1.3 4.1,1.3 z"
       style="fill:#546482" /><path
       id="path15"
       d="m 165.5,141.7 c 0,0 3.1,23.8 3.6,28.5 0.5,4.7 0.5,8.3 0.7,11.7 0.2,3.3 0.1,13.1 0.5,19.5 0.5,6.4 3.3,27.8 3.3,27.8 0,0 1.6,0.9 5.7,0.9 4.1,0 5.1,-1.2 5.1,-1.2 0,0 -0.3,-26.7 -0.4,-30.4 -0.1,-3.7 0.2,-17.5 0.5,-19.8 0.2,-2.3 0.6,-24.6 0.6,-28 0,-3.3 0.3,-17.4 1.9,-17.4 1.6,0 1.1,15.3 1.2,17.3 0.1,2 0.9,24.1 1.3,26.3 0.4,2.2 0.4,10.8 0.7,14.1 0.4,3.2 -1.4,36.8 -1.2,39 0,0 1.4,1 5.7,1 4.2,0 5.5,-1.5 5.5,-1.5 0,0 3.3,-31.6 3.4,-35.5 0.1,-3.9 -0.4,-13.1 0,-16.6 0.4,-3.5 4.9,-38 4.9,-38 l 4.2,-27.7 -16.2,-4.7 -35.2,4.7 4.2,30 z"
       style="fill:#546482" /><path
       id="path17"
       d="m 216.1,112.2 c 0,-7.3 -1.8,-17 -1.8,-17 0,0 -0.2,-19.1 0,-26.1 0.2,-7 -0.5,-11 -2,-12.7 -1.4,-1.7 -4.4,-2.3 -5.6,-2.5 -1.2,-0.2 -10.1,-4.9 -12.1,-6.6 -2,-1.7 -1.5,-7.1 -1.5,-7.1 0,0 -3,-2.2 -6,-3.4 -3,1.1 -6,3.4 -6,3.4 0,0 0.5,5.4 -1.5,7.1 -2,1.7 -10.9,6.4 -12.1,6.6 -1.2,0.2 -4.1,0.8 -5.6,2.5 -1.4,1.7 -2.2,5.8 -2,12.7 0.2,6.9 0,26.1 0,26.1 0,0 -1.8,9.7 -1.8,17 0,7.3 1,18 0.9,19.9 -0.1,1.9 -0.8,7.7 -0.9,9.7 -0.1,2.1 1.2,3.1 2,5.1 0.8,2 5.2,5.1 6.5,5.4 1.3,0.3 1.8,-0.8 1.3,-1.2 -0.5,-0.4 -4.6,-3.1 -4.8,-4.2 -0.2,-1.2 -0.6,-5.9 0,-5.9 0.6,0 0.3,3.7 0.7,4.6 0.5,0.8 1.6,2.1 2.1,1.1 0.5,-0.9 0.8,-8 0.2,-9.5 -0.6,-1.5 -1.4,-6 -1.8,-7.3 -0.4,-1.3 -1.3,-6.4 -1.1,-7.5 0.2,-1.2 1.1,-8.6 0.9,-10.1 -0.1,-0.7 11.6,-0.9 23.1,-0.9 11.5,0 23.2,0.2 23.1,0.9 -0.2,1.5 0.7,8.9 0.9,10.1 0.2,1.2 -0.8,6.3 -1.1,7.5 -0.4,1.3 -1.1,5.7 -1.8,7.3 -0.6,1.5 -0.3,8.6 0.2,9.5 0.5,0.9 1.6,-0.3 2.1,-1.1 0.5,-0.8 0.1,-4.6 0.7,-4.6 0.6,0 0.2,4.8 0,5.9 -0.2,1.2 -4.2,3.9 -4.8,4.2 -0.5,0.4 0,1.4 1.3,1.2 1.3,-0.3 5.7,-3.4 6.5,-5.4 0.8,-2 2.1,-3 2,-5.1 -0.1,-2.1 -0.8,-7.9 -0.9,-9.7 -0.3,-1.9 0.7,-12.6 0.7,-19.9 z"
       style="fill:#deb079" /><path
       id="path19"
       d="m 206.4,79.7 c -0.1,-4.4 -0.1,-26.1 -0.1,-26.1 l -9.6,-4.9 c 0,0 -1.8,6.8 -9.7,7.1 -7.9,-0.3 -9.7,-7.1 -9.7,-7.1 l -9.6,4.9 c 0,0 0,21.7 -0.1,26.1 -0.1,4.4 -5.1,35.5 -4.2,40.2 0,0 14.9,1.3 24.1,1.3 9.2,0 23.2,-1.2 23.2,-1.2 0.8,-4.8 -4.2,-35.9 -4.3,-40.3 z"
       style="fill:#bc97c1" /><g
       id="g21"><g
         id="g23"><path
           id="path25"
           d="m 186.9,48.6 c 3,0 5.8,-5.3 5.8,-5.3 l -5.8,-3.9 -5.4,3.9 c -0.1,0.1 2.7,5.3 5.4,5.3 z"
           style="fill:#ce9f68" /></g><path
         id="path27"
         d="m 199.5,29.3 c -0.7,-1.2 -1.9,0 -1.9,0 2.2,-11.8 -3.8,-15.8 -9.2,-16.5 0,0 -1.1,-0.1 -1.3,-0.1 -0.3,0 -1.3,0.1 -1.3,0.1 -5.5,0.8 -11.4,4.7 -9.2,16.5 0,0 -1.1,-1.2 -1.9,0 -0.7,1.2 1.4,6.6 3.3,6.1 0,0 1.8,10.7 9.1,10.7 7.3,0 9.1,-10.7 9.1,-10.7 1.8,0.5 4,-4.9 3.3,-6.1 z"
         style="fill:#deb079" /><g
         id="g29"><g
           id="g31"><path
             id="path33"
             d="m 180.9,22.2 c 3.5,-3 9.7,-3.9 9.3,-6.2 0,0 3.9,5.1 5.1,8.3 1.2,3.2 1.7,5.5 1.7,5.5 l 0.8,-0.7 c 3.1,-11.8 -4.1,-16.8 -10.1,-16.8 -6,0 -14.1,3.4 -11.6,17 l 0.7,1.5 c 0,-0.1 0.5,-5.6 4.1,-8.6 z"
             style="fill:#baa99d" /></g></g></g></g><g
     transform="translate(-21.549999,3.0517578e-6)"
     id="g35"><path
       id="path37"
       d="m 143,91.6 c 0,0 4.8,-0.1 7.8,-0.7 0,0 -0.1,1.5 0.3,2.7 0.4,1.2 1.5,5.5 1.7,8.1 0.2,2.6 0.5,13.5 0.4,17.2 -0.1,3.6 0.2,5.8 0.2,8.4 0.1,2.6 -0.2,4.4 -0.1,5.7 0.1,1.3 0.6,4.3 0.9,5.4 0.3,1.1 0.8,2.5 0.4,4.1 -0.4,1.6 -0.9,3.9 -1.2,4.8 -0.2,0.8 -0.3,1.4 -1.7,2.4 -1.4,1 -5.1,4.2 -5.8,3.4 -0.7,-0.8 0.7,-2.1 0.7,-2.1 0,0 2.4,-2.4 2.8,-3.3 0.4,-0.9 1.7,-7 -0.3,-7.1 0,0 -0.5,0.6 -0.4,1.5 0.1,1 0.2,4.8 -1.5,4.9 -1.8,0.1 -1.2,-6.5 -1.2,-7.7 0,-1.2 -0.2,-4.1 0.4,-5.8 0.6,-1.7 1.2,-2.8 1.5,-4.2 0.2,-1.4 -0.2,-6.5 -0.8,-9.6 -0.6,-3.2 -3.8,-18.1 -3.9,-19.7 -0.1,-1.8 -0.2,-8.4 -0.2,-8.4 z"
       style="fill:#805931" /><path
       id="path39"
       d="m 93.2,91.5 c 0,0 -4.8,0 -7.8,-0.6 0,0 0.1,1.5 -0.3,2.7 -0.4,1.2 -1.5,5.6 -1.6,8.1 -0.1,2.6 -0.3,13.5 -0.2,17.2 0.1,3.6 -0.1,5.8 -0.1,8.4 0,2.6 0.2,4.4 0.1,5.7 -0.1,1.3 -0.6,4.3 -0.9,5.4 -0.3,1.1 -0.8,2.5 -0.4,4.1 0.4,1.6 1,3.9 1.2,4.7 0.2,0.8 0.3,1.4 1.7,2.3 1.4,1 5.1,4.1 5.8,3.3 0.7,-0.8 -0.8,-2.1 -0.8,-2.1 0,0 -2.4,-2.4 -2.8,-3.3 -0.4,-0.9 -1.8,-7 0.2,-7.1 0,0 0.5,0.6 0.4,1.5 -0.1,1 -0.2,4.8 1.6,4.9 1.8,0.1 1.1,-6.5 1.2,-7.7 0,-1.2 0.2,-4.1 -0.4,-5.8 -0.6,-1.7 -1.3,-2.8 -1.5,-4.2 -0.3,-1.4 0.2,-6.5 0.7,-9.7 0.5,-3.2 3.6,-18.2 3.7,-19.7 0.1,-1.4 0.2,-8.1 0.2,-8.1 z"
       style="fill:#805931" /><g
       id="g41"><path
         id="path43"
         d="m 127.1,229.7 c 0.6,0.4 1.4,1.3 1.6,2 l 1.5,4.9 c 0.2,0.7 2.7,14.9 2.7,14.9 0,0.8 -1.7,3.4 -5.1,3.4 -3.4,0 -6.5,-3.1 -6.6,-3.8 l -1.7,-15.7 c -0.1,-0.8 -0.2,-2 -0.2,-2.7 0,-0.7 0.2,-1.9 0.5,-2.6 l 0.4,-1.6 c 0.3,-0.7 1.1,-1.7 1.8,-1.7 l 0.1,0 c 0.8,0 1.9,0.7 2.6,1.1 l 2.4,1.8 z"
         style="fill:#222222" /><path
         id="path45"
         d="m 135.1,166 0.1,12.3 c 0,0 2.6,14.5 -5.4,42.6 l -1.8,8.7 c 0,0 3.4,17.1 2.8,18.1 -0.5,1 -8,1.2 -8.5,-0.1 -0.5,-1.3 -1.5,-12.2 -1.3,-14.4 0.1,-2.5 0.2,-4.9 0.2,-4.9 0,0 -0.4,-29 0.5,-41.1 0.9,-12.1 0,-21.9 0,-21.9 l 13.4,0.7 z"
         style="fill:#805931" /><path
         id="path47"
         d="m 110.2,229.7 c -0.6,0.4 -1.4,1.3 -1.6,2 l -1.5,4.9 c -0.2,0.7 -2.7,14.9 -2.7,14.9 0,0.8 1.7,3.4 5.1,3.4 3.4,0 6.5,-3.1 6.6,-3.8 l 1.7,-15.7 c 0.1,-0.8 0.2,-2 0.2,-2.7 0,-0.7 -0.2,-1.9 -0.5,-2.6 l -0.4,-1.6 c -0.3,-0.7 -1.1,-1.7 -1.8,-1.7 l -0.1,0 c -0.8,0 -1.9,0.7 -2.6,1.1 l -2.4,1.8 z"
         style="fill:#222222" /><path
         id="path49"
         d="m 102.3,166 -0.1,12.3 c 0,0 -2.6,14.5 5.4,42.6 l 1.8,8.7 c 0,0 -3.1,16.7 -2.8,18.1 0.3,1.3 7.5,1.6 8.3,0 0.8,-1.6 1.6,-12.2 1.5,-14.5 -0.1,-2.5 -0.2,-4.9 -0.2,-4.9 0,0 0.4,-29 -0.5,-41.1 -0.9,-12.1 0,-21.9 0,-21.9 l -13.4,0.7 z"
         style="fill:#805931" /><path
         id="path51"
         d="m 109,185.5 c 0,0 0.5,-0.5 1,-1.5 0.5,-0.9 1.1,-2.2 1.4,-3.6 0.2,-0.7 0.2,-1.4 0.3,-2.1 0,-0.3 0,-0.7 0,-1 0,-0.3 0,-0.6 -0.1,-0.9 -0.1,-0.5 -0.2,-1 -0.3,-1.3 -0.1,-0.3 -0.1,-0.5 -0.1,-0.5 l 0.1,0 c 0,0 0.1,0.1 0.3,0.4 0.2,0.3 0.5,0.7 0.7,1.2 0.1,0.3 0.2,0.6 0.3,0.9 0.1,0.3 0.2,0.7 0.2,1 0,0.4 0.1,0.8 0,1.1 0,0.4 -0.1,0.8 -0.2,1.2 -0.1,0.4 -0.2,0.8 -0.3,1.1 -0.1,0.4 -0.3,0.7 -0.5,1 -0.4,0.6 -0.8,1.2 -1.2,1.6 -0.8,1.1 -1.5,1.5 -1.6,1.4 l 0,0 z"
         style="fill:#70471e" /><path
         id="path53"
         d="m 128.3,185.5 c 0,0 -0.5,-0.5 -1,-1.5 -0.5,-0.9 -1.1,-2.2 -1.4,-3.6 -0.2,-0.7 -0.2,-1.4 -0.3,-2.1 0,-0.3 0,-0.7 0,-1 0,-0.3 0,-0.6 0.1,-0.9 0.1,-0.5 0.2,-1 0.3,-1.3 0.1,-0.3 0.1,-0.5 0.1,-0.5 l -0.1,0 c 0,0 -0.1,0.1 -0.3,0.4 -0.2,0.3 -0.5,0.7 -0.7,1.2 -0.1,0.3 -0.2,0.6 -0.3,0.9 -0.1,0.3 -0.2,0.7 -0.2,1 0,0.4 -0.1,0.8 0,1.1 0,0.4 0.1,0.8 0.2,1.2 0.1,0.4 0.2,0.8 0.3,1.1 0.1,0.4 0.3,0.7 0.5,1 0.4,0.6 0.8,1.2 1.2,1.6 0.8,1.1 1.5,1.5 1.6,1.4 l 0,0 z"
         style="fill:#70471e" /><g
         id="g55"><rect
           id="rect57"
           height="31"
           width="13.9"
           style="fill:#805931"
           y="40.900002"
           x="111.3" /><g
           id="g59"><path
             id="path61"
             d="m 118.3,55.5 c 3.2,0 6.9,-6 6.9,-6 l -13.9,0 c 0,-0.1 3.7,6 7,6 z"
             style="fill:#70471e" /></g><g
           id="g63"><path
             id="path65"
             d="m 132.5,33.9 c -0.9,-1.4 -2.1,0 -2.1,0 2.5,-13.6 -4.3,-16.6 -10.6,-17.5 0,0 -1.2,-0.2 -1.5,-0.1 -0.3,0 -1.5,0.1 -1.5,0.1 -6.3,0.9 -13.2,3.9 -10.6,17.5 0,0 -1.3,-1.4 -2.1,0 -0.9,1.4 1.6,7.6 3.8,7.1 0,0 2.1,12.3 10.5,12.3 8.4,0 10.5,-12.3 10.5,-12.3 2,0.5 4.5,-5.7 3.6,-7.1 z"
             style="fill:#805931" /></g><path
           id="path67"
           d="m 118,15.4 c -14.6,0 -16.9,23.5 -16.9,26 0,2.5 7,6.2 8.3,4.3 1.3,-1.9 -2.1,-6.4 -2.1,-12.4 0,-4.6 3,-6.2 5.4,-8.6 2.4,-2.4 15.6,2.9 15.6,6.5 0,3.5 -1.3,13.2 -1.3,14 0,0.9 0.7,1.6 1.6,1.6 0.9,0 5,-3.7 6.5,-6.7 1.4,-2.9 -2.4,-24.7 -17.1,-24.7 z"
           style="fill:#3f190b" /></g><g
         id="g69"><path
           id="path71"
           d="m 138.2,113.9 c -5,-9.7 -6.9,-22.4 -6.9,-22.4 L 118,91.9 104.7,91.5 c 0,0 -0.8,7.4 -6.9,22.4 -6.1,15 -8.6,64 -8.6,64 0,0 11.5,3 28.7,3 17.2,0 28.7,-3 28.7,-3 0,0 -3.4,-54.3 -8.4,-64 z"
           style="fill:#adc3c1" /><path
           id="path73"
           d="m 145.8,60.9 c -2.6,-2.1 -12.5,-4.6 -12.5,-4.6 l -8.1,-5.6 c 0,0 1,7.6 -7,7.6 -8,0 -7,-7.6 -7,-7.6 l -8.1,5.6 c 0,0 -9.9,2.5 -12.5,4.6 -2.6,2.1 -6.8,34.5 -6.8,34.5 0.1,0.1 0.2,0.2 0.3,0.2 3.2,2.3 7.1,2.7 8.7,2.7 0.5,0 0.9,0 0.9,0 l 4.3,-13.9 2.2,22.7 36,0 1.9,-22.7 4.3,13.9 c 0,0 0.4,0 0.9,0 1.6,0 5.5,-0.4 8.7,-2.7 0.1,-0.1 0.2,-0.1 0.3,-0.2 0.3,0 -3.9,-32.4 -6.5,-34.5 z"
           style="fill:#38514e" /></g><path
         id="path75"
         d="m 98.2,84.5 c 0,0 -0.3,-0.5 -0.6,-1.3 -0.3,-0.8 -0.6,-1.9 -0.9,-3.1 -0.2,-1.1 -0.3,-2.3 -0.3,-3.2 0,-0.9 0.1,-1.5 0.1,-1.5 0,0 0.3,0.5 0.6,1.3 0.3,0.8 0.6,1.9 0.9,3.1 0.2,1.1 0.3,2.3 0.3,3.2 0,0.9 -0.1,1.5 -0.1,1.5 z"
         style="fill:#2a3d3a" /><path
         id="path77"
         d="m 138.2,84.5 c 0,0 -0.1,-0.6 -0.1,-1.5 0,-0.9 0.1,-2 0.3,-3.2 0.2,-1.1 0.5,-2.2 0.9,-3.1 0.3,-0.8 0.6,-1.3 0.6,-1.3 0,0 0.1,0.6 0.1,1.5 0,0.9 -0.1,2 -0.3,3.2 -0.2,1.1 -0.5,2.2 -0.9,3.1 -0.3,0.7 -0.6,1.3 -0.6,1.3 z"
         style="fill:#2a3d3a" /></g></g></svg>