<?xml version="1.0" encoding="iso-8859-1"?>
<!-- Generator: Adobe Illustrator 18.0.0, SVG Export Plug-In . SVG Version: 6.00 Build 0)  -->
<!DOCTYPE svg PUBLIC "-//W3C//DTD SVG 1.1//EN" "http://www.w3.org/Graphics/SVG/1.1/DTD/svg11.dtd">
<svg version="1.1" id="Layer_1" xmlns="http://www.w3.org/2000/svg" xmlns:xlink="http://www.w3.org/1999/xlink" x="0px" y="0px"
	 viewBox="0 0 28.3 111.6" style="enable-background:new 0 0 28.3 111.6;" xml:space="preserve">
<g>
	<g>
		<polygon style="fill:#EDCAAB;" points="6.5,20.2 11.8,18 11.8,13.4 17.9,13.4 17.9,17.7 22.3,21 14,25.6 		"/>
		<path d="M8.8,101.2l-0.7,7.9c0,0.4,0.2,0.8,0.5,1l2.8,1.4c0.3,0.2,0.8,0.1,1.1-0.2l0.9-0.9c0.3-0.3,0.5-0.8,0.5-1.1l0-2.4
			c0-0.4,0-1-0.1-1.3l-0.3-3.7c0-0.4-0.3-0.9-0.6-1.1l-0.3-0.2c-0.3-0.2-0.8-0.3-1.2-0.2L8.8,101.2"/>
		<path style="fill:#EDCAAB;" d="M9.1,101.6c0,0.2-0.2,5.2-0.2,5.2c0,0.4,0.2,0.8,0.6,1l1.2,0.6c0.3,0.2,0.9,0.2,1.2,0l1-0.5
			c0.3-0.2,0.6-0.6,0.5-1l-0.6-5.3c0-0.4-0.4-0.6-0.7-0.5L9.1,101.6z"/>
		<path d="M19.9,101.2l0.7,7.9c0,0.4-0.2,0.8-0.5,1l-2.8,1.4c-0.3,0.2-0.8,0.1-1.1-0.2l-0.9-0.9c-0.3-0.3-0.5-0.8-0.5-1.1l0-2.4
			c0-0.4,0-1,0.1-1.3l0.3-3.7c0-0.4,0.3-0.9,0.6-1.1l0.3-0.2c0.3-0.2,0.8-0.3,1.2-0.2L19.9,101.2"/>
		<path style="fill:#EDCAAB;" d="M19.5,101.6c0,0.2,0.2,5.2,0.2,5.2c0,0.4-0.2,0.8-0.6,1l-1.2,0.6c-0.3,0.2-0.9,0.2-1.2,0l-1-0.5
			c-0.3-0.2-0.6-0.6-0.5-1l0.6-5.3c0-0.4,0.4-0.6,0.7-0.5L19.5,101.6z"/>
		<path style="fill:#546482;" d="M24.9,50.1c-0.4-0.4-4.1-0.8-8.6-1.4l0.1-0.5c-0.7,0.1-1.4,0.2-2.1,0.3c-0.7-0.1-1.4-0.2-2.1-0.3
			l0.1,0.5c-4.5,0.6-8.1,0.8-8.6,1.3c-0.5,0.5,1.9,21.4,2.7,24.7c0,0-0.3,17.3,2.2,27.1c0,0,2.3,0.8,4.9,0c0,0-0.5-7-0.4-10.4
			s1.3-31.4,1.3-31.4s1.2,27.9,1.3,31.4c0.1,3.4-0.4,10.4-0.4,10.4c2.5,0.8,4.9,0,4.9,0c2.4-9.8,2.2-27.1,2.2-27.1
			C23,71.4,25.4,50.5,24.9,50.1z"/>
		<path style="fill:#DDBA9B;" d="M11.4,14.9c0,0,1.7,3,3.5,3s3.1-3,3.1-3L11.4,14.9z"/>
		<path style="fill:#EDCAAB;" d="M23.7,24.9c0,0,2.5,0.2,4,0c0,0-0.1,11.4,0.1,12.1c0.2,0.6,0.5,2.9,0.5,4.2c0,1.3-0.3,6.9-0.5,8.8
			c-0.2,1.9-0.2,2.9-0.2,4.3c-0.1,1.3-0.3,2.2-0.3,2.9c0,0.7,0.1,2.2,0.3,2.8c0.1,0.6,0.3,1.3,0.1,2.1c-0.3,0.8-0.6,2-0.8,2.4
			c-0.2,0.4-0.2,0.7-1,1.1c-0.8,0.4-2.8,1.9-3.1,1.5c-0.3-0.4,0.5-1.1,0.5-1.1s1.3-1.1,1.6-1.6c0.3-0.4,1.2-3.5,0.2-3.6
			c0,0-0.3,0.3-0.3,0.8s-0.1,2.5-1,2.5c-0.9,0-0.3-3.4-0.3-4c0-0.6,0.1-2.1,0.4-2.9c0.4-0.8,0.8-1.4,0.9-2.1c0.2-0.7,0.2-3.3,0-5
			c-0.2-1.7-1.2-9.4-1.2-10.2C23.5,38.9,23.7,24.9,23.7,24.9z"/>
		<path style="fill:#EDCAAB;" d="M4.8,24.9c0,0-2.5,0.2-4,0c0,0,0.1,11.4-0.1,12.1c-0.2,0.6-0.5,2.9-0.5,4.2c0,1.3,0.3,6.9,0.5,8.8
			c0.2,1.9,0.2,2.9,0.2,4.3c0.1,1.3,0.3,2.2,0.3,2.9c0,0.7-0.1,2.2-0.3,2.8C0.9,60.5,0.7,61.2,1,62c0.3,0.8,0.6,2,0.8,2.4
			c0.2,0.4,0.2,0.7,1,1.1c0.8,0.4,2.8,1.9,3.1,1.5c0.3-0.4-0.5-1.1-0.5-1.1S4,64.8,3.8,64.4c-0.3-0.4-1.2-3.5-0.2-3.6
			c0,0,0.3,0.3,0.3,0.8S4,64,4.9,64c0.9,0,0.3-3.4,0.3-4c0-0.6-0.1-2.1-0.4-2.9c-0.4-0.8-0.8-1.4-0.9-2.1c-0.2-0.7-0.2-3.3,0-5
			C4,48.3,5,40.5,5,39.7C5,38.9,4.8,24.9,4.8,24.9z"/>
		<path style="fill:#B24D4B;" d="M25.8,21.1c-1.1-0.9-2.6-1.6-4.9-1.6l-1.8-0.9l-4.6,5.4l-4.2-5.4l-2.6,0.9c-2.3,0-3.8,0.7-4.9,1.6
			c-2.6,2.1-2.2,5.8-2.2,5.8c0.1,0.1,0.3,0.2,0.4,0.3c0.7,0.4,1.6,0.9,1.6,0.9s1.7,3.7,2.6,5.7C5.6,34.5,5.8,35,5.8,35L3.1,54.6
			c3.8,0.7,8.1,0.8,11.4,0.7c3.4,0.1,7.4,0,11.2-0.7L22.9,35c0,0,0.2-0.5,0.5-1.2c0.9-2,2.6-5.7,2.6-5.7s0.8-0.4,1.6-0.9
			c0.1-0.1,0.3-0.2,0.4-0.3C28,26.9,28.4,23.2,25.8,21.1z"/>
		<g>
			<path style="fill:#EDCAAB;" d="M14.8,1c-2.7,0-4.9,2.8-5.4,6.4c-0.2,0-0.3,0-0.5,0c-0.7,0-0.1,3.1,0.6,3.6c0.6,3.4,2.8,6,5.4,6
				h-0.2c2.6,0,4.7-2.5,5.4-6c0.6-0.5,1.3-3.5,0.6-3.6c-0.2,0-0.3,0-0.5,0C19.5,3.8,17.3,1,14.6,1H14.8z"/>
		</g>
		<path style="fill:#CEA357;" d="M21.2,7.8c0,0-0.1-2.7-1.4-5c-1.3-2.3-4.8-3.7-7.9-2C10,0.3,7.6,6.4,9.4,7.5L9.8,9l0.1-2.1l0.4-1.4
			l0.5-0.9l0.7-0.8L13,3c0,0,2.3,0.8,3.8,2.4c1,1.1,2.5,1.8,2.5,1.8S19,7,19.7,7.3c0,0,0.3,1.3,0.4,2.4c0,1.2-1.2,5.1-1.2,5.1
			s1.5-1.7,2.1-3.4C21.5,10,21.2,7.8,21.2,7.8z"/>
	</g>
	<path style="fill:#994141;" d="M25.2,28.5c0,0,0,0,0-0.1c0-0.1,0-0.2-0.1-0.3c0-0.1,0-0.1,0-0.2c0-0.1,0-0.1,0-0.2
		c0-0.1,0-0.1,0-0.2c0-0.1,0-0.1,0-0.2c0-0.1,0-0.1,0-0.2c0,0,0-0.1,0-0.1c0,0,0-0.1,0-0.1c0-0.1,0-0.1,0-0.2c0-0.1,0-0.1-0.1-0.2
		c0-0.1,0-0.1-0.1-0.2c0,0,0,0,0-0.1c0,0,0,0,0-0.1c0-0.1-0.1-0.1-0.1-0.1s0,0,0.1,0.1c0,0,0,0,0.1,0.1c0,0,0,0,0.1,0.1
		c0,0,0,0,0.1,0.1c0,0,0,0.1,0.1,0.1c0,0.1,0.1,0.1,0.1,0.2c0,0.1,0.1,0.1,0.1,0.2c0,0.1,0.1,0.1,0.1,0.2c0,0.1,0,0.1,0.1,0.2
		c0,0.1,0,0.1,0,0.2c0,0.1,0,0.1,0,0.2c0,0.1,0,0.1,0,0.2c0,0.1,0,0.1,0,0.2c0,0.1-0.1,0.2-0.1,0.3C25.2,28.4,25.2,28.5,25.2,28.5z"
		/>
	<path style="fill:#994141;" d="M3.2,28.5c0,0,0,0,0-0.1c0-0.1,0-0.2,0.1-0.3c0-0.1,0-0.1,0-0.2c0-0.1,0-0.1,0-0.2
		c0-0.1,0-0.1,0-0.2c0-0.1,0-0.1,0-0.2c0-0.1,0-0.1,0-0.2c0,0,0-0.1,0-0.1c0,0,0-0.1,0-0.1c0-0.1,0-0.1,0-0.2c0-0.1,0-0.1,0.1-0.2
		c0-0.1,0-0.1,0.1-0.2c0,0,0,0,0-0.1c0,0,0,0,0-0.1c0-0.1,0.1-0.1,0.1-0.1s0,0-0.1,0.1c0,0,0,0-0.1,0.1c0,0,0,0-0.1,0.1
		c0,0,0,0-0.1,0.1c0,0,0,0.1-0.1,0.1c0,0.1-0.1,0.1-0.1,0.2c0,0.1-0.1,0.1-0.1,0.2c0,0.1-0.1,0.1-0.1,0.2c0,0.1,0,0.1-0.1,0.2
		c0,0.1,0,0.1,0,0.2c0,0.1,0,0.1,0,0.2c0,0.1,0,0.1,0,0.2c0,0.1,0,0.1,0,0.2c0,0.1,0.1,0.2,0.1,0.3C3.2,28.4,3.2,28.5,3.2,28.5z"/>
</g>
</svg>
