<?xml version="1.0" encoding="iso-8859-1"?>
<!-- Generator: Adobe Illustrator 18.0.0, SVG Export Plug-In . SVG Version: 6.00 Build 0)  -->
<!DOCTYPE svg PUBLIC "-//W3C//DTD SVG 1.1//EN" "http://www.w3.org/Graphics/SVG/1.1/DTD/svg11.dtd">
<svg version="1.1" id="Layer_1" xmlns="http://www.w3.org/2000/svg" xmlns:xlink="http://www.w3.org/1999/xlink" x="0px" y="0px"
	 viewBox="0 0 34 130.7" style="enable-background:new 0 0 34 130.7;" xml:space="preserve">
<g>
	<polygon style="fill:#EDCAAB;" points="2,63.4 1.5,71.9 5,75.5 7.1,76.2 7.1,75.2 4.6,73.7 5,71 6.2,71.4 6.4,73.1 7.8,73.9 
		7.8,71.1 4.7,63.4 	"/>
	<polygon style="fill:#EDCAAB;" points="31.6,63.4 32.1,71.9 28.7,75.5 26.6,76.2 26.6,75.2 29.1,73.7 28.6,71 27.3,71.4 27.2,73.1 
		25.9,73.9 25.9,71.1 28.9,63.4 	"/>
	<polygon style="fill:#EDCAAB;" points="12.9,15.6 12.9,19.5 17.1,23.8 20.8,20.2 20.8,14.4 	"/>
	<g>
		<path style="fill:#DDBA9B;" d="M16.9,20c1.4,0,3-2.5,3-2.9c0.1-0.2,0.2-0.4,0.3-0.6h-6.8c0.1,0.2,0.2,0.4,0.3,0.6
			C13.9,17.5,15.4,20,16.9,20z"/>
	</g>
	<path style="fill:#EDCAAB;" d="M11.7,10.5c0,0-1.4-7.8,4.9-7.8s5.3,7.8,5.3,7.8s0.8-0.6,1.2-0.2c0.4,0.4,0.5,3.7-1.6,4.1
		c0,0-0.6,2-0.9,2.3c-0.3,0.3-1.5,2.5-3.8,2.5c-1.2,0-2.6-1.2-3.5-2.5c-0.8-1.3-1.2-2.8-1.2-2.8s-2.2-0.6-1.4-3.7
		C10.6,10.3,11.3,9.8,11.7,10.5z"/>
	<path style="fill:#D6D5D6;" d="M13,18.9c0,0,0.2,1.2,3.2,3.5h2.1c0,0,2.3-2.5,2.4-2.7c0.1-0.1,0-1,0-1s1.1,1.1,0.9,3.2
		c-0.2,2.1-4.2,17-4.2,17S9.5,21,12.9,19"/>
	<path style="fill:#1A1C1C;" d="M10.6,119.6c0,0-0.4,3.8-0.8,4.8c-0.4,1-1.2,2.5-1.2,3.3c0,0.8,0.7,1.8,3.6,1.8
		c2.9,0,3.4-0.3,3.4-2.2c0-2,0-7.6,0-7.6H10.6z"/>
	<path style="fill:#1A1C1C;" d="M24,119.6c0,0,0.4,3.8,0.8,4.8c0.4,1,1.2,2.5,1.2,3.3c0,0.8-0.6,1.8-3.5,1.8c-2.9,0-3.3-0.3-3.3-2.2
		c0-2,0-7.6,0-7.6H24z"/>
	<path style="fill:#3F2A14;" d="M11.8,11.4l-0.7-1.2l0-5.8c0,0,1.8-3.4,6.3-4.3c0,0,4.2,1.6,4.9,5.3v4.9l-0.9,1.1c0,0,1-7.4-4.7-7.4
		C11,3.9,11.8,11.4,11.8,11.4z"/>
	<polygon style="fill:#668C9E;" points="18.7,24 17.8,22.5 16.1,22.5 15.1,24 15.1,24.8 15.8,25.3 14.7,35.8 16.9,35.8 17.2,35.8 
		19.4,35.8 18.1,25.3 18.7,24.8 	"/>
	<path style="fill:#393536;" d="M30.6,25.8c-1.2-1.2-7-3.5-7-3.5l-2.2-2.9c0,5.4-3.2,13.5-4.4,16.2c-1.2-2.7-4.4-10.8-4.4-16.2
		l-2.2,2.9c0,0-5.9,2.4-7,3.6C2.2,27-1.5,35.1,0.7,68.6c0,0,2.6,0,4.4,0L5.9,72c0,0,5.4,0.3,11.1,0.2c5.7,0.1,11.1-0.2,11.1-0.2
		l0.8-3.5c1.8,0,4.4,0,4.4,0C35.5,35.1,31.8,27,30.6,25.8z"/>
	<ellipse style="fill:#4F4C4D;" cx="17.3" cy="43.9" rx="0.6" ry="0.6"/>
	<ellipse style="fill:#4F4C4D;" cx="17.3" cy="50.6" rx="0.6" ry="0.6"/>
	<path style="fill:#302C2D;" d="M17.2,70.6h-6.8H6.2c0,0,0.2,17,0.7,23.9c0.5,7,1.2,14.6,1.3,15.5c0.1,0.9,1.2,10.8,1.2,10.8
		s2.2,0.6,3.4,0.6c1.3,0,3.4-0.6,3.4-0.6s0.2-8.9,0-12.2c-0.2-3.2,0-15.6,0.1-19.3c0.1-3.7,0.1-11.4,0.9-11.4s1,7.7,1.1,11.4
		c0.1,3.8,0.3,16.1,0.1,19.3c-0.2,3.2,0,12.2,0,12.2s2.3,0.6,3.5,0.6c1.2,0,3.3-0.6,3.3-0.6s1.1-9.9,1.2-10.9
		c0.1-0.9,0.8-8.4,1.3-15.4c0.5-7,0.7-24,0.7-24H17.2z"/>
</g>
</svg>
