<?xml version="1.0" encoding="iso-8859-1"?>
<!-- Generator: Adobe Illustrator 18.0.0, SVG Export Plug-In . SVG Version: 6.00 Build 0)  -->
<!DOCTYPE svg PUBLIC "-//W3C//DTD SVG 1.1//EN" "http://www.w3.org/Graphics/SVG/1.1/DTD/svg11.dtd">
<svg version="1.1" id="Layer_1" xmlns="http://www.w3.org/2000/svg" xmlns:xlink="http://www.w3.org/1999/xlink" x="0px" y="0px"
	 viewBox="0 0 26.3 100.1" style="enable-background:new 0 0 26.3 100.1;" xml:space="preserve">
<g>
	<g>
		<path style="fill:#363946;" d="M9.2,91.6c0,0-1-0.2-1.4,2.9c-0.5,3.1-1.5,5,1.6,5.5c0,0,2.3-0.2,2.3-1.6c0-1.4,0.1-2.8,0.2-3.9
			C12,93.3,12.4,89.8,9.2,91.6z"/>
		<path style="fill:#D3A56F;" d="M5.9,60.1c0,0,0.4,2.6,0.3,3.4c-0.1,0.8-0.1,4.2-0.2,4.6c-0.1,0.4-0.9,4.3-0.2,8.4
			c0.8,4.1,2.6,9.7,2.6,10.4c0,0,0.1,1.6,0,2.1c-0.1,0.5-0.2,1-0.1,1.4c0.1,0.3,0.3,0.8,0.3,1.2c-0.1,0.5-1,3.6-0.9,5.5h2.9
			c0,0,0.8,0.1,0.9-1.1c0.1-1.2,0.3-3.7,0.3-4.1c0-0.3-0.2-1-0.2-1.2c0-0.3,0.1-1.6-0.1-1.9c-0.2-0.3-0.6-1.3-0.6-2.3
			c0-1.1,0-4.8,0.2-6.8c0.3-2,0.3-3.8,0.2-4.6c-0.1-0.9-0.5-3.8-0.3-4.7c0.2-1,0.6-2.5,0.7-3.3c0.1-0.8,0-7.2,0-7.2L5.9,60.1z"/>
	</g>
	<g>
		<path style="fill:#363946;" d="M16.6,91.6c0,0,1-0.2,1.4,2.9c0.5,3.1,1.5,5-1.6,5.5c0,0-2.3-0.2-2.3-1.6c0-1.4-0.1-2.8-0.2-3.9
			C13.9,93.3,13.4,89.8,16.6,91.6z"/>
		<path style="fill:#D3A56F;" d="M20,60.1c0,0-0.4,2.6-0.3,3.4c0.1,0.8,0.1,4.2,0.2,4.6c0.1,0.4,0.9,4.3,0.2,8.4
			c-0.8,4.1-2.6,9.7-2.6,10.4c0,0-0.1,1.6,0,2.1c0.1,0.5,0.2,1,0.1,1.4c-0.1,0.3-0.3,0.8-0.3,1.2c0.1,0.5,1,3.6,0.9,5.5h-2.9
			c0,0-0.8,0.1-0.9-1.1c-0.1-1.2-0.3-3.7-0.3-4.1c0-0.3,0.2-1,0.2-1.2c0-0.3-0.1-1.6,0.1-1.9c0.2-0.3,0.6-1.3,0.6-2.3
			c0-1.1,0-4.8-0.2-6.8c-0.3-2-0.3-3.8-0.2-4.6c0.1-0.9,0.5-3.8,0.3-4.7c-0.2-1-0.6-2.5-0.7-3.3c-0.1-0.8,0-7.2,0-7.2L20,60.1z"/>
	</g>
	<g>
		<path style="fill:#B24D4B;" d="M23.9,32c1.1-0.2,2.4-0.7,2.4-0.7s-1.2-6.6-1.8-9.8c-0.7-3.2-1.3-4.2-1.8-4.6
			c-0.5-0.4-1.9-0.6-2.9-0.9c-1-0.3-2.9-0.9-2.9-0.9s-0.3-0.7-0.5-1.2c-0.2-0.6-1-0.4-1-0.4s-1.1-0.1-2.2-0.2v0c0,0,0,0,0,0
			c0,0,0,0,0,0v0c-1.3,0.1-2.2,0.2-2.2,0.2s-0.8-0.2-1,0.4c-0.2,0.6-0.5,1.2-0.5,1.2s-1.9,0.6-2.9,0.9c-1,0.3-2.5,0.5-2.9,0.9
			c-0.5,0.4-1.1,1.4-1.8,4.6C1.2,24.7,0,31.3,0,31.3s1.3,0.5,2.4,0.7c1.1,0.2,2.9,0.1,2.9,0.1s-1.3,5-1.4,7.6
			c-0.2,2.6-0.5,9.4-0.1,14.8c0.4,5.3,0.5,5.9,0.5,5.9s4.8,0.2,8.7,0.2c0.1,0,0.2,0,0.2,0c0.1,0,0.2,0,0.2,0c3.9,0,8.7-0.2,8.7-0.2
			s0.1-0.5,0.5-5.9c0.4-5.3,0-12.2-0.1-14.8c-0.2-2.6-1.4-7.6-1.4-7.6S22.8,32.2,23.9,32z"/>
	</g>
	<path style="fill:#D3A56F;" d="M21.1,32c0,0,1.9,0.1,3.1,0c0,0-0.1,0.6,0,1.1c0.1,0.5,0.4,2.2,0.4,3.3c0,1-0.3,5.3-0.4,6.8
		c-0.1,1.4-0.1,2.3-0.2,3.3c-0.1,1-0.2,1.7-0.2,2.2c0,0.5,0.1,1.7,0.2,2.2c0.1,0.4,0.2,1,0,1.6c-0.2,0.6-0.5,1.5-0.6,1.8
		c-0.1,0.3-0.2,0.5-0.7,0.9c-0.6,0.3-2.1,1.5-2.4,1.2c-0.3-0.3,0.4-0.8,0.4-0.8s1-0.9,1.2-1.2c0.2-0.3,0.9-2.7,0.1-2.8
		c0,0-0.2,0.2-0.2,0.6s-0.1,1.9-0.8,1.9c-0.7,0-0.3-2.6-0.2-3.1c0-0.5,0-1.6,0.3-2.3c0.3-0.6,0.6-1.1,0.7-1.6c0.1-0.5,0.1-2.6,0-3.8
		c-0.1-1.3-0.9-7.3-0.9-7.9C20.9,34.6,21.1,32,21.1,32z"/>
	<path style="fill:#D3A56F;" d="M5.3,32c0,0-1.9,0.1-3.1,0c0,0,0.1,0.6,0,1.1c-0.1,0.5-0.4,2.2-0.4,3.3c0,1,0.3,5.3,0.4,6.8
		c0.1,1.4,0.1,2.3,0.2,3.3c0.1,1,0.2,1.7,0.2,2.2c0,0.5-0.1,1.7-0.2,2.2c-0.1,0.4-0.2,1,0,1.6c0.2,0.6,0.5,1.5,0.6,1.8
		c0.1,0.3,0.2,0.5,0.7,0.9c0.6,0.3,2.1,1.5,2.4,1.2c0.3-0.3-0.4-0.8-0.4-0.8s-1-0.9-1.2-1.2c-0.2-0.3-0.9-2.7-0.1-2.8
		c0,0,0.2,0.2,0.2,0.6s0.1,1.9,0.8,1.9c0.7,0,0.3-2.6,0.2-3.1c0-0.5,0-1.6-0.3-2.3c-0.3-0.6-0.6-1.1-0.7-1.6c-0.1-0.5-0.1-2.6,0-3.8
		c0.1-1.3,0.9-7.3,0.9-7.9C5.4,34.6,5.3,32,5.3,32z"/>
	<path style="fill:#D3A56F;" d="M15.8,13.1c-0.2-0.8-0.2-2.4-0.2-2.4l-2.4-1.1v0l0,0l0,0v0l-2.5,1.1c0,0-0.1,1.6-0.2,2.4
		c-0.2,0.8-0.2,1.4-0.2,1.4s0.5,0.6,1.2,0.9c0.7,0.4,1.2,0.6,1.7,0.6v0c0,0,0,0,0,0c0,0,0,0,0,0v0c0.5,0,1-0.2,1.7-0.6
		c0.7-0.4,1.2-0.9,1.2-0.9S15.9,13.9,15.8,13.1z"/>
	<path style="fill:#DEB079;" d="M13.2,16L13.2,16L13.2,16z"/>
	<polygon style="fill:#DEB079;" points="13.2,16 13.2,16 13.2,16 	"/>
	<path style="fill:#C49669;" d="M10.5,12.1c0,0,1.3,2.3,2.7,2.3s2.4-2.3,2.4-2.3L10.5,12.1z"/>
	<path style="fill:#C49669;" d="M15.7,65.9c0,0-0.4,1.5-0.2,2.3c0.2,0.8,0.7,2.2,1.4,3.2c-1-1-1.6-2.5-1.7-3.3
		C15.1,67.3,15.2,66.2,15.7,65.9z"/>
	<path style="fill:#C49669;" d="M10.2,65.9c0,0,0.4,1.5,0.2,2.3C10.2,69,9.7,70.4,9,71.5c1-1,1.6-2.5,1.7-3.3
		C10.8,67.3,10.7,66.2,10.2,65.9z"/>
	<path style="fill:#994141;" d="M5.3,32c0,0,0-0.2,0-0.5c0-0.3-0.1-0.8-0.1-1.4c0-0.3,0-0.6,0-0.9c0-0.3,0-0.7,0-1
		c0-0.3,0-0.7-0.1-1.1c0-0.4,0-0.7-0.1-1.1c0-0.4,0-0.7-0.1-1.1c0-0.2,0-0.4,0-0.5c0-0.2,0-0.4,0-0.5c0-0.3,0-0.7-0.1-1
		c0-0.3-0.1-0.6-0.1-0.9c0-0.3-0.1-0.5-0.1-0.8c0-0.1,0-0.2,0-0.3c0-0.1,0-0.2,0-0.3c-0.1-0.3-0.1-0.5-0.1-0.5s0.1,0.2,0.2,0.5
		c0,0.1,0.1,0.2,0.1,0.3c0,0.1,0.1,0.2,0.1,0.3c0,0.1,0.1,0.2,0.1,0.4c0,0.1,0.1,0.3,0.1,0.4c0.1,0.3,0.1,0.6,0.2,0.9
		c0.1,0.3,0.1,0.7,0.1,1c0,0.4,0.1,0.7,0.1,1.1c0,0.4,0.1,0.7,0.1,1.1c0,0.4,0,0.8,0,1.1c0,0.4,0,0.7,0,1.1c0,0.4,0,0.7,0,1
		c0,0.3,0,0.6,0,0.9c0,0.6-0.1,1-0.1,1.4C5.3,31.8,5.3,32,5.3,32z"/>
	<path style="fill:#994141;" d="M20.9,32c0,0,0-0.2-0.1-0.5c0-0.3-0.1-0.8-0.1-1.4c0-0.3,0-0.6,0-0.9c0-0.3,0-0.7,0-1
		c0-0.4,0-0.7,0-1.1c0-0.4,0-0.7,0-1.1c0-0.4,0-0.8,0.1-1.1c0-0.4,0.1-0.7,0.1-1.1c0-0.4,0.1-0.7,0.1-1c0-0.3,0.1-0.6,0.2-0.9
		c0-0.1,0.1-0.3,0.1-0.4c0-0.1,0.1-0.2,0.1-0.4c0-0.1,0.1-0.2,0.1-0.3c0-0.1,0.1-0.2,0.1-0.3c0.1-0.3,0.2-0.5,0.2-0.5s0,0.2-0.1,0.5
		c0,0.1,0,0.2,0,0.3c0,0.1,0,0.2,0,0.3c0,0.2-0.1,0.5-0.1,0.8c0,0.3-0.1,0.6-0.1,0.9c0,0.3-0.1,0.7-0.1,1c0,0.2,0,0.4,0,0.5
		c0,0.2,0,0.4,0,0.5c0,0.4,0,0.7-0.1,1.1c0,0.4,0,0.7-0.1,1.1c0,0.4,0,0.7-0.1,1.1c0,0.3,0,0.7,0,1c0,0.3,0,0.6,0,0.9
		c0,0.6-0.1,1-0.1,1.4C20.9,31.8,20.9,32,20.9,32z"/>
	<path style="fill:#3F2A14;" d="M17.2,9.3c0.2,1.8,1.4,5.6,1.4,5.6s-0.4,1.7-2.2,1c-1.8-0.7-1.8-0.3-1.8-0.3s0.3-1.7,0-4.6
		c-0.3-2.9-1.6-6.3-1.6-6.3l3.5,0.2L17.2,9.3z"/>
	<g>
		<path style="fill:#D3A56F;" d="M13.2,1.3c-2.1,0-3.8,2.1-4.2,5c-0.1,0-0.2,0-0.4,0C8,6.3,8.5,8.6,9,9c0.5,2.7,2.1,4.6,4.1,4.6H13
			c2,0,3.7-2,4.1-4.6c0.5-0.4,1-2.7,0.4-2.8c-0.1,0-0.3,0-0.4,0c-0.4-2.8-2.1-5-4.2-5H13.2z"/>
	</g>
	<path style="fill:#3F2A14;" d="M8.6,6c0,0-0.5-1.8,0.6-3.6c1-1.7,3.7-2.9,6.1-1.6c1.5-0.3,3.3,4.4,1.9,5.2l-0.3,1.2l-0.1-1.6
		l-0.3-1.1l-0.4-0.7l-0.5-0.7l-1.2-0.6c0,0-1.8,0.6-2.9,1.8c-0.8,0.8-1.9,1.4-1.9,1.4S9.8,5.7,9.2,6c0,0,0.1,0.6,0.1,1.5
		s0.1,3.1,0.2,4.2c0.1,1.1,0.4,1.9,0.4,1.9s-1.1-3.3-1.2-4.1C8.6,8.7,8.6,6,8.6,6z"/>
</g>
</svg>
