<?xml version="1.0" encoding="iso-8859-1"?>
<!-- Generator: Adobe Illustrator 18.0.0, SVG Export Plug-In . SVG Version: 6.00 Build 0)  -->
<!DOCTYPE svg PUBLIC "-//W3C//DTD SVG 1.1//EN" "http://www.w3.org/Graphics/SVG/1.1/DTD/svg11.dtd">
<svg version="1.1" id="Layer_1" xmlns="http://www.w3.org/2000/svg" xmlns:xlink="http://www.w3.org/1999/xlink" x="0px" y="0px"
	 viewBox="0 0 32.1 106" style="enable-background:new 0 0 32.1 106;" xml:space="preserve">
<g>
	<path style="fill:#805931;" d="M26.9,34.1c0,0,2.1,0,3.4-0.3c0,0,0,0.7,0.1,1.2c0.2,0.5,0.7,2.4,0.7,3.6c0.1,1.1,0.2,6,0.2,7.6
		c0,1.6,0.1,2.5,0.1,3.7c0,1.2-0.1,1.9,0,2.5c0,0.6,0.3,1.9,0.4,2.4c0.2,0.5,0.4,1.1,0.2,1.8c-0.2,0.7-0.4,1.7-0.5,2.1
		c-0.1,0.4-0.1,0.6-0.7,1c-0.6,0.4-2.2,1.8-2.6,1.5c-0.3-0.3,0.3-0.9,0.3-0.9s1-1.1,1.2-1.5c0.2-0.4,0.7-3.1-0.1-3.1
		c0,0-0.2,0.3-0.2,0.7s0.1,2.1-0.7,2.2c-0.8,0.1-0.5-2.9-0.5-3.4c0-0.5-0.1-1.8,0.2-2.6c0.3-0.7,0.5-1.2,0.6-1.9
		c0.1-0.6-0.1-2.8-0.4-4.2c-0.2-1.4-1.7-8-1.7-8.7C27,37,26.9,34.1,26.9,34.1z"/>
	<path style="fill:#805931;" d="M5,34.1c0,0-2.1,0-3.4-0.2c0,0,0,0.6-0.1,1.2c-0.2,0.5-0.6,2.4-0.7,3.6c-0.1,1.1-0.1,6-0.1,7.6
		c0,1.6,0,2.5-0.1,3.7c0,1.2,0.1,1.9,0.1,2.5c0,0.6-0.2,1.9-0.4,2.4c-0.1,0.5-0.3,1.1-0.2,1.8c0.2,0.7,0.4,1.7,0.5,2.1
		c0.1,0.4,0.1,0.6,0.7,1C2,60,3.6,61.4,3.9,61.1c0.3-0.3-0.3-0.9-0.3-0.9s-1.1-1.1-1.3-1.4c-0.2-0.4-0.8-3.1,0.1-3.1
		c0,0,0.2,0.3,0.2,0.7s-0.1,2.1,0.7,2.2c0.8,0.1,0.5-2.9,0.5-3.4c0-0.5,0.1-1.8-0.2-2.6c-0.3-0.7-0.6-1.2-0.7-1.9
		C2.8,50,3,47.8,3.2,46.4c0.2-1.4,1.6-8,1.6-8.7C4.9,37,5,34.1,5,34.1z"/>
	<g>
		<path style="fill:#222222;" d="M19.9,94.9c0.3,0.2,0.6,0.6,0.7,0.9l0.6,2.1c0.1,0.3,1.2,6.6,1.2,6.6c0,0.3-0.8,1.5-2.3,1.5
			c-1.5,0-2.9-1.4-2.9-1.7l-0.7-6.9c0-0.3-0.1-0.9-0.1-1.2c0-0.3,0.1-0.8,0.2-1.2l0.2-0.7c0.1-0.3,0.5-0.7,0.8-0.7h0
			c0.3,0,0.8,0.3,1.1,0.5L19.9,94.9z"/>
		<path style="fill:#805931;" d="M23.5,66.9l0.1,5.4c0,0,1.1,6.4-2.4,18.8l-0.8,3.8c0,0,1.5,7.5,1.2,8c-0.2,0.4-3.5,0.5-3.7,0
			c-0.2-0.6-0.6-5.4-0.6-6.4c0.1-1.1,0.1-2.2,0.1-2.2s-0.2-12.8,0.2-18.1c0.4-5.3,0-9.7,0-9.7L23.5,66.9z"/>
		<path style="fill:#222222;" d="M12.5,94.9c-0.3,0.2-0.6,0.6-0.7,0.9L11.1,98c-0.1,0.3-1.2,6.6-1.2,6.6c0,0.3,0.8,1.5,2.3,1.5
			c1.5,0,2.9-1.4,2.9-1.7l0.7-6.9c0-0.3,0.1-0.9,0.1-1.2c0-0.3-0.1-0.8-0.2-1.2l-0.2-0.7c-0.1-0.3-0.5-0.7-0.8-0.7h0
			c-0.3,0-0.8,0.3-1.1,0.5L12.5,94.9z"/>
		<path style="fill:#805931;" d="M9,66.9l-0.1,5.4c0,0-1.1,6.4,2.4,18.8l0.8,3.8c0,0-1.4,7.4-1.2,8c0.1,0.6,3.3,0.7,3.7,0
			c0.4-0.7,0.7-5.4,0.7-6.4c-0.1-1.1-0.1-2.2-0.1-2.2s0.2-12.8-0.2-18.1c-0.4-5.3,0-9.7,0-9.7L9,66.9z"/>
		<path style="fill:#70471E;" d="M11.9,75.5c0,0,0.2-0.2,0.4-0.6c0.2-0.4,0.5-1,0.6-1.6c0.1-0.3,0.1-0.6,0.1-0.9c0-0.1,0-0.3,0-0.4
			c0-0.1,0-0.3,0-0.4c0-0.2-0.1-0.4-0.1-0.6c0-0.1-0.1-0.2-0.1-0.2l0.1,0c0,0,0.1,0.1,0.1,0.2s0.2,0.3,0.3,0.5
			c0.1,0.1,0.1,0.3,0.1,0.4c0,0.1,0.1,0.3,0.1,0.5c0,0.2,0,0.3,0,0.5c0,0.2,0,0.3-0.1,0.5c0,0.2-0.1,0.3-0.1,0.5
			c0,0.2-0.1,0.3-0.2,0.5c-0.2,0.3-0.3,0.5-0.5,0.7C12.3,75.4,12,75.5,11.9,75.5L11.9,75.5z"/>
		<path style="fill:#70471E;" d="M20.5,75.5c0,0-0.2-0.2-0.4-0.6c-0.2-0.4-0.5-1-0.6-1.6c-0.1-0.3-0.1-0.6-0.1-0.9
			c0-0.1,0-0.3,0-0.4c0-0.1,0-0.3,0-0.4c0-0.2,0.1-0.4,0.1-0.6c0-0.1,0.1-0.2,0.1-0.2l-0.1,0c0,0-0.1,0.1-0.1,0.2
			c-0.1,0.1-0.2,0.3-0.3,0.5c-0.1,0.1-0.1,0.3-0.1,0.4c0,0.1-0.1,0.3-0.1,0.5c0,0.2,0,0.3,0,0.5c0,0.2,0,0.3,0.1,0.5
			c0,0.2,0.1,0.3,0.1,0.5c0,0.2,0.1,0.3,0.2,0.5c0.2,0.3,0.3,0.5,0.5,0.7C20.1,75.4,20.4,75.5,20.5,75.5L20.5,75.5z"/>
		<g>
			<rect x="13" y="11.8" style="fill:#805931;" width="6.1" height="13.7"/>
			<g>
				<path style="fill:#70471E;" d="M16.1,18.2c1.4,0,3-2.7,3-2.7H13C13,15.5,14.6,18.2,16.1,18.2z"/>
			</g>
			<g>
				<path style="fill:#805931;" d="M22.3,8.7c-0.4-0.6-0.9,0-0.9,0c1.1-6-1.9-7.3-4.7-7.7c0,0-0.5-0.1-0.7-0.1
					c-0.1,0-0.7,0.1-0.7,0.1c-2.8,0.4-5.8,1.7-4.7,7.7c0,0-0.6-0.6-0.9,0c-0.4,0.6,0.7,3.4,1.7,3.1c0,0,0.9,5.4,4.6,5.4
					c3.7,0,4.6-5.4,4.6-5.4C21.6,12,22.7,9.3,22.3,8.7z"/>
			</g>
			<path style="fill:#3F190B;" d="M15.9,0.5C9.5,0.5,8.5,10.9,8.5,12c0,1.1,3.1,2.7,3.7,1.9c0.6-0.8-0.9-2.8-0.9-5.5
				c0-2,1.3-2.7,2.4-3.8c1.1-1.1,6.9,1.3,6.9,2.8c0,1.5-0.6,5.8-0.6,6.2c0,0.4,0.3,0.7,0.7,0.7s2.2-1.6,2.9-2.9
				C24.1,10.1,22.4,0.5,15.9,0.5z"/>
		</g>
		<g>
			<path style="fill:#ADC3C1;" d="M24.8,43.9c-2.2-4.3-3-9.9-3-9.9l-5.9,0.2l-5.9-0.2c0,0-0.4,3.3-3,9.9c-2.7,6.6-3.8,28.2-3.8,28.2
				s5.1,1.3,12.7,1.3s12.7-1.3,12.7-1.3S27,48.2,24.8,43.9z"/>
			<path style="fill:#38514E;" d="M28.2,20.6c-1.1-0.9-5.5-2-5.5-2l-3.6-2.5c0,0,0.4,3.4-3.1,3.4S13,16.1,13,16.1l-3.6,2.5
				c0,0-4.4,1.1-5.5,2c-1.1,0.9-3,15.2-3,15.2c0,0,0.1,0.1,0.2,0.1c1.4,1,3.1,1.2,3.8,1.2c0.2,0,0.4,0,0.4,0L7.2,31l1,10H24l0.8-10
				l1.9,6.1c0,0,0.2,0,0.4,0c0.7,0,2.4-0.2,3.8-1.2c0,0,0.1-0.1,0.2-0.1C31.1,35.8,29.3,21.5,28.2,20.6z"/>
		</g>
		<path style="fill:#2A3D3A;" d="M7.2,31c0,0-0.1-0.2-0.3-0.6C6.8,30,6.7,29.5,6.6,29c-0.1-0.5-0.1-1-0.1-1.4c0-0.4,0-0.7,0-0.7
			s0.1,0.2,0.3,0.6c0.1,0.4,0.3,0.8,0.4,1.3c0.1,0.5,0.1,1,0.1,1.4C7.3,30.7,7.2,31,7.2,31z"/>
		<path style="fill:#2A3D3A;" d="M24.8,31c0,0,0-0.3,0-0.7c0-0.4,0.1-0.9,0.1-1.4c0.1-0.5,0.2-1,0.4-1.3c0.1-0.4,0.3-0.6,0.3-0.6
			s0,0.3,0,0.7c0,0.4-0.1,0.9-0.1,1.4c-0.1,0.5-0.2,1-0.4,1.3C25,30.7,24.8,31,24.8,31z"/>
	</g>
</g>
</svg>
