<?xml version="1.0" encoding="iso-8859-1"?>
<!-- Generator: Adobe Illustrator 18.0.0, SVG Export Plug-In . SVG Version: 6.00 Build 0)  -->
<!DOCTYPE svg PUBLIC "-//W3C//DTD SVG 1.1//EN" "http://www.w3.org/Graphics/SVG/1.1/DTD/svg11.dtd">
<svg version="1.1" id="Layer_1" xmlns="http://www.w3.org/2000/svg" xmlns:xlink="http://www.w3.org/1999/xlink" x="0px" y="0px"
	 viewBox="0 0 30.6 112.7" style="enable-background:new 0 0 30.6 112.7;" xml:space="preserve">
<g>
	<path style="fill:#1A1C1C;" d="M9,103.3c0,0-0.4,3.7-0.7,4.6c-0.4,0.9-1.1,2.4-1.1,3.2c0,0.7,0.7,1.7,3.5,1.7
		c2.9,0,3.3-0.2,3.3-2.1c0-1.9,0-7.3,0-7.3H9z"/>
	<path style="fill:#1A1C1C;" d="M22.2,103.3c0,0,0.4,3.7,0.7,4.6c0.4,0.9,1.1,2.4,1.1,3.2c0,0.7-0.6,1.7-3.5,1.7
		c-2.9,0-3.3-0.2-3.3-2.1c0-1.9,0-7.3,0-7.3H22.2z"/>
	<path style="fill:#4F4F4F;" d="M15.6,56.4H9.3H5.5c0,0,0.2,16.2,0.6,22.9c0.5,6.7,1.1,13.9,1.2,14.8c0.1,0.9,1.1,10.3,1.1,10.3h6.3
		c0,0,0.2-8.5,0-11.6c-0.2-3.1,0-14.9,0.1-18.5c0.1-3.6,0.1-10.9,0.8-10.9c0.7,0,0.9,7.3,1,10.9c0.1,3.6,0.3,15.4,0.1,18.5
		c-0.2,3.1,0,11.6,0,11.6H23c0,0,1-9.5,1.1-10.4c0.1-0.9,0.7-8.1,1.2-14.8c0.5-6.7,0.6-22.9,0.6-22.9H15.6z"/>
	<path style="fill:#E5B26E;" d="M30.6,33.5c0,0,0.1-4-0.4-6.5c-0.5-2.5-1-5.3-2.3-6.3c-1.2-0.9-4.4-1.8-5.8-2.3
		c-1.4-0.5-2.1-1.1-2.6-2c-0.4-0.7-3.2-0.9-4.4-0.9v0c0,0,0,0-0.2,0c-0.2,0-0.3,0-0.3,0l0,0c-1.1,0.1-3.2,0.3-3.6,0.9
		c-0.5,0.9-1.1,1.5-2.5,2c-1.4,0.5-4.8,1.2-5.8,2.3c-1.1,1-1.8,3.8-2.3,6.3C-0.1,29.6,0,33.5,0,33.5s1.6,0.9,1.9,1
		c0.3,0.1,4.3,0.6,4.3,0.6L4.6,57.5c0,0,6.9,0.6,10.9,0.6S26,57.5,26,57.5l-1.6-22.4c0,0,4.1-0.6,4.3-0.6
		C29,34.4,30.6,33.5,30.6,33.5z"/>
	<path style="fill:#805931;" d="M11.7,12v4.3c0,0-0.3,1.3,1.2,2.1c1.5,0.8,2,1,2.5,1c0.5,0,3-1.6,3.2-2.2c0.2-0.6,0-5.4,0-5.4
		L11.7,12z"/>
	<g>
		<path style="fill:#805931;" d="M4.5,61.7c0-0.1,0-0.1,0-0.2c0.1-0.2,0.1-0.3,0.2-0.3c0,0,0.1,0,0.2,0c0,0,0.1,0,0.1,0
			c0.1,0,0.1,0.1,0.1,0.1c0.1,0.1,0.2,0.4,0.2,0.6c0,0.2,0.1,0.5,0.3,0.9c0.1,0.3,0.3,0.5,0.5,0.7c0,0,0.1,0.1,0.1,0.1
			c0.1,0,0.1,0.1,0.2,0.1c0.1,0,0.2,0.1,0.3,0c0.2-0.1,0.2-0.4,0.2-0.9c0-0.2,0-0.4,0-0.6c0-0.2,0-0.4-0.1-0.6c0-0.1,0-0.2,0-0.4
			c0-0.1,0-0.2,0-0.3c-0.1-0.5-0.2-1-0.2-1.2v0c0-0.1,0-0.2-0.1-0.3c0,0,0-0.1,0-0.1c0-0.1-0.1-0.2-0.2-0.3c0,0,0,0,0,0
			c-0.1-0.1-0.1-0.3-0.2-0.4c0,0,0,0,0,0c-0.2-0.4-0.4-0.7-0.6-1c-0.2-0.3-0.4-0.6-0.4-0.8c0-0.1-0.1-0.4-0.2-1l1.5-20.6
			c0,0-4.4-0.6-4.4-0.6l-0.2,4.9v0v0c0,0-0.1,0.7-0.3,1.7c-0.2,1.3-0.4,3.2-0.4,5c0,0.8,0,1.8,0.1,2.8c0,0.5,0.1,1.1,0.1,1.6
			c0.1,0.8,0.2,1.6,0.2,2.3c0.1,0.5,0.1,0.9,0.2,1.3c0,0,0,0.1,0,0.1c0.1,0.6,0.1,1.2,0.2,1.6c0,0.3,0.1,0.5,0.1,0.6
			c0,0.2,0,0.5,0,0.9c0,0.4,0,0.8,0,1.3c0,0.3,0,0.6,0,0.9c0,0.3,0,0.6,0,0.9c0,0.1,0,0.3,0,0.4c0,0.7,0.1,1.2,0.2,1.4
			c0.1,0.2,0.3,0.4,0.4,0.7c0.5,0.8,1.2,1.8,1.8,2.2c0.4,0.2,0.9,0.6,1.4,0.9c0.5,0.2,0.9,0.4,1.1,0.2c0,0,0-0.1,0-0.1
			C6.9,65.3,4.3,62.6,4.5,61.7z"/>
		<path style="fill:#805931;" d="M29.9,43.1c-0.2-2.1-0.5-3.7-0.5-3.7l-0.2-5.1c-0.2,0.1-4.8,0.8-4.8,0.8l1.5,20.1l0.1,1.6l0,0
			c-0.1,0.2-0.2,0.4-0.4,0.7c-0.2,0.3-0.4,0.7-0.6,1c0,0,0,0,0,0c-0.1,0.1-0.2,0.3-0.2,0.4c0,0,0,0,0,0c-0.1,0.1-0.1,0.2-0.1,0.3
			c0,0,0,0.1,0,0.1c0,0.1-0.1,0.2-0.1,0.3c0,0.1-0.1,0.4-0.1,0.6c0,0.2-0.1,0.4-0.1,0.6c0,0.1,0,0.2,0,0.3c0,0.3-0.1,0.7-0.1,1
			c0,0.1,0,0.2,0,0.3c0,0.3,0,0.5,0,0.7c0,0,0,0.1,0,0.1c0,0.1,0,0.1,0.1,0.2c0,0.1,0.1,0.1,0.1,0.1c0.1,0,0.2,0,0.3,0
			c0.1,0,0.1-0.1,0.2-0.1c0,0,0.1-0.1,0.1-0.1c0.1-0.1,0.1-0.1,0.2-0.2c0,0,0.1-0.1,0.1-0.1c0.1-0.1,0.1-0.2,0.1-0.2
			c0.1-0.2,0.2-0.3,0.2-0.5c0-0.1,0.1-0.2,0.1-0.3c0-0.1,0-0.2,0-0.2c0-0.1,0-0.3,0.1-0.4c0-0.1,0.1-0.1,0.1-0.2c0,0,0,0,0.1-0.1
			c0.1-0.1,0.2-0.1,0.3-0.1c0.1,0,0.2,0.1,0.2,0.3c0,0.1,0,0.1,0,0.2c0,0.1,0,0.1,0,0.2c0,0.2-0.1,0.4-0.3,0.7
			c-0.1,0.1-0.1,0.2-0.2,0.3c-0.2,0.3-0.4,0.6-0.6,0.9c-0.5,0.7-0.9,1.3-1.2,1.8c0,0.1-0.1,0.2-0.1,0.2c0,0.1-0.1,0.2-0.1,0.3
			c0,0,0,0.1,0,0.1c0.1,0.2,0.4,0.1,0.7,0c0,0,0.1,0,0.1-0.1c0.1,0,0.1-0.1,0.2-0.1c0.4-0.2,0.8-0.5,1.2-0.7
			c0.1-0.1,0.2-0.1,0.3-0.2c0.4-0.2,0.8-0.8,1.3-1.4c0.4-0.6,0.8-1.2,1-1.5s0.3-1.5,0.2-2.7c0-0.2,0-0.3,0-0.5c0-0.3,0-0.6,0-0.9
			c0-0.1,0-0.3,0-0.4c0-0.3,0-0.5,0-0.7c0-0.2,0-0.4,0-0.6c0-0.1,0-0.4,0.1-0.6c0.1-0.7,0.2-1.8,0.4-3c0.3-2.2,0.5-5,0.5-6.7
			C30,45,30,44,29.9,43.1z"/>
	</g>
	<g>
		<path style="fill:#70471E;" d="M15.1,16.8c1.5,0,3.2-2.8,3.3-3.2c0.1-0.2,0.2-0.4,0.3-0.7h-7.2c0.1,0.2,0.2,0.4,0.3,0.7
			C11.9,14,13.5,16.8,15.1,16.8z"/>
	</g>
	<g>
		<path style="fill:#805931;" d="M21,7.7c-0.4-0.6-0.9,0-0.9,0c1-5.6-1.8-6.9-4.4-7.3h-1.2c-2.6,0.4-5.4,1.7-4.4,7.3
			c0,0-0.5-0.6-0.9,0c-0.4,0.6,0.7,3.1,1.6,2.9c0,0,0.3,5.1,4.3,5.1s4.3-5.1,4.3-5.1C20.3,10.9,21.4,8.3,21,7.7z"/>
	</g>
	<g>
		<path style="fill:#231F20;" d="M9.8,7.6c0,0-0.1-3.3,0.2-4.4c0.4-1.1,1.2-3.2,4.8-3.3c3.6-0.1,5.2,2.2,5.5,3.2
			c0.2,1,0.1,4.3,0.1,4.3l-0.9,1c0,0,0.3-3.6-1-4.7c0,0-2.2,0.7-3.4,0.7c-1.3,0-3.2-0.7-3.2-0.7s-1.4,0.1-1.3,4.7L9.8,7.6z"/>
	</g>
	<path style="fill:#CE944E;" d="M6.2,35.1c0,0-0.1-0.3-0.2-0.8c-0.1-0.5-0.1-1.2-0.1-1.8c0-0.7,0-1.3,0.1-1.8
		c0.1-0.5,0.2-0.8,0.2-0.8s0.1,0.3,0.2,0.8c0.1,0.5,0.1,1.2,0.1,1.8c0,0.7,0,1.3-0.1,1.8C6.3,34.8,6.2,35.1,6.2,35.1z"/>
	<path style="fill:#CE944E;" d="M24.4,35.1c0,0-0.1-0.3-0.2-0.8c-0.1-0.5-0.1-1.2-0.1-1.8c0-0.7,0-1.3,0.1-1.8
		c0.1-0.5,0.2-0.8,0.2-0.8s0.1,0.3,0.2,0.8c0.1,0.5,0.1,1.2,0.1,1.8c0,0.7,0,1.3-0.1,1.8C24.5,34.8,24.4,35.1,24.4,35.1z"/>
</g>
</svg>
