<?xml version="1.0" encoding="iso-8859-1"?>
<!-- Generator: Adobe Illustrator 18.0.0, SVG Export Plug-In . SVG Version: 6.00 Build 0)  -->
<!DOCTYPE svg PUBLIC "-//W3C//DTD SVG 1.1//EN" "http://www.w3.org/Graphics/SVG/1.1/DTD/svg11.dtd">
<svg version="1.1" id="Layer_1" xmlns="http://www.w3.org/2000/svg" xmlns:xlink="http://www.w3.org/1999/xlink" x="0px" y="0px"
	 viewBox="0 0 27.5 101.9" style="enable-background:new 0 0 27.5 101.9;" xml:space="preserve">
<g>
	<g>
		<path style="fill:#1A1C1C;" d="M8.1,93.4c0,0-0.4,3.3-0.7,4.1c-0.3,0.8-1,2.2-1,2.8c0,0.7,0.6,1.5,3.2,1.5c2.6,0,3-0.2,3-1.9
			c0-1.7,0-6.6,0-6.6H8.1z"/>
		<path style="fill:#1A1C1C;" d="M20,93.4c0,0,0.4,3.3,0.7,4.1c0.3,0.8,1,2.2,1,2.8c0,0.7-0.6,1.5-3.2,1.5c-2.6,0-3-0.2-3-1.9
			c0-1.7,0-6.6,0-6.6H20z"/>
		<path style="fill:#4F4F4F;" d="M14,51.2H8.4H4.9c0,0,0.2,14.6,0.6,20.6c0.4,6,1,12.6,1.1,13.3c0.1,0.8,1,9.3,1,9.3
			s1.8,0.5,2.9,0.5c1.1,0,2.8-0.5,2.8-0.5s0.2-7.7,0-10.5c-0.2-2.8,0-13.4,0.1-16.6c0.1-3.2,0.1-9.8,0.7-9.8s0.8,6.6,0.9,9.8
			C15,70.6,15.1,81.2,15,84c-0.2,2.8,0,10.5,0,10.5s1.9,0.5,2.9,0.5c1,0,2.8-0.5,2.8-0.5s0.9-8.6,1-9.4c0.1-0.8,0.7-7.3,1.1-13.3
			c0.4-6,0.6-20.6,0.6-20.6H14z"/>
		<path style="fill:#A7BCB6;" d="M27.5,30.6c0,0,0.1-3.6-0.4-5.8c-0.5-2.2-0.9-4.8-2.1-5.7c-1.1-0.8-3.9-1.6-5.2-2
			c-1.3-0.4-1.8-1-2.3-1.8c-0.4-0.6-2.9-0.8-3.9-0.8v0c0,0,0,0-0.2,0c-0.2,0-0.2,0-0.2,0l0,0c-0.9,0.1-2.9,0.2-3.3,0.8
			c-0.5,0.8-1,1.3-2.2,1.8c-1.3,0.4-4.3,1.1-5.2,2c-0.9,0.9-1.6,3.4-2.1,5.7C-0.1,27,0,30.6,0,30.6s1.5,0.8,1.7,0.9
			C1.9,31.6,5.6,32,5.6,32L4.1,52.2c0,0,6.2,0.5,9.8,0.5s9.5-0.5,9.5-0.5L21.9,32c0,0,3.7-0.5,3.9-0.6
			C26.1,31.4,27.5,30.6,27.5,30.6z"/>
		<path style="fill:#D3A56F;" d="M10.6,11.2v3.8c0,0-0.3,1.1,1.1,1.9c1.3,0.7,1.8,0.9,2.3,0.9c0.5,0,2.7-1.5,2.9-2
			c0.2-0.6,0-4.8,0-4.8L10.6,11.2z"/>
		<g>
			<path style="fill:#D3A56F;" d="M4,56c0-0.1,0-0.1,0-0.2c0-0.2,0.1-0.3,0.2-0.3c0,0,0.1,0,0.1,0c0,0,0,0,0.1,0
				c0,0,0.1,0.1,0.1,0.1c0.1,0.1,0.2,0.3,0.2,0.5c0,0.2,0.1,0.5,0.2,0.8c0.1,0.2,0.3,0.5,0.4,0.7c0,0,0.1,0.1,0.1,0.1
				c0,0,0.1,0.1,0.1,0.1c0.1,0,0.2,0,0.3,0c0.2-0.1,0.2-0.4,0.2-0.8c0-0.2,0-0.3,0-0.5c0-0.2,0-0.4-0.1-0.6c0-0.1,0-0.2,0-0.3
				c0-0.1,0-0.2,0-0.3c-0.1-0.5-0.1-0.9-0.2-1.1v0c0-0.1,0-0.2-0.1-0.3c0,0,0,0,0-0.1c0-0.1-0.1-0.2-0.1-0.3c0,0,0,0,0,0
				c-0.1-0.1-0.1-0.2-0.2-0.4c0,0,0,0,0,0c-0.2-0.3-0.4-0.6-0.6-0.9c-0.2-0.3-0.3-0.6-0.4-0.7c0-0.1-0.1-0.4-0.2-0.9L5.6,32
				c0,0-4-0.5-4-0.5l-0.2,4.4v0v0c0,0-0.1,0.6-0.2,1.5c-0.2,1.2-0.4,2.9-0.4,4.5c0,0.7,0,1.6,0.1,2.5c0,0.5,0.1,0.9,0.1,1.4
				c0.1,0.7,0.1,1.4,0.2,2.1c0,0.4,0.1,0.8,0.1,1.2c0,0,0,0.1,0,0.1c0.1,0.6,0.1,1,0.2,1.4c0,0.3,0.1,0.5,0.1,0.6c0,0.2,0,0.5,0,0.8
				c0,0.3,0,0.7,0,1.1c0,0.3,0,0.6,0,0.8c0,0.3,0,0.5,0,0.8c0,0.1,0,0.3,0,0.4c0,0.6,0.1,1.1,0.2,1.3c0.1,0.1,0.2,0.4,0.4,0.6
				c0.5,0.7,1.1,1.7,1.6,2c0.4,0.2,0.8,0.5,1.3,0.8C5.6,60,6,60.2,6.1,60c0,0,0-0.1,0-0.1C6.2,59.2,3.9,56.8,4,56z"/>
			<path style="fill:#D3A56F;" d="M26.9,39.2c-0.2-1.9-0.5-3.3-0.5-3.3l-0.2-4.6c-0.2,0.1-4.3,0.7-4.3,0.7l1.3,18.1l0.1,1.4l0,0
				c-0.1,0.2-0.2,0.4-0.3,0.6c-0.2,0.3-0.4,0.6-0.5,0.9c0,0,0,0,0,0c-0.1,0.1-0.1,0.3-0.2,0.4c0,0,0,0,0,0c-0.1,0.1-0.1,0.2-0.1,0.3
				c0,0,0,0,0,0.1c0,0.1-0.1,0.2-0.1,0.3c0,0.1-0.1,0.3-0.1,0.6c0,0.2-0.1,0.3-0.1,0.5c0,0.1,0,0.2,0,0.3c0,0.3-0.1,0.6-0.1,0.9
				c0,0.1,0,0.2,0,0.3c0,0.3,0,0.5,0,0.7c0,0,0,0,0,0.1c0,0.1,0,0.1,0.1,0.2c0,0.1,0.1,0.1,0.1,0.1c0.1,0,0.2,0,0.3,0
				c0,0,0.1,0,0.1-0.1c0,0,0.1-0.1,0.1-0.1c0.1-0.1,0.1-0.1,0.1-0.2c0,0,0-0.1,0.1-0.1c0-0.1,0.1-0.1,0.1-0.2
				c0.1-0.1,0.1-0.3,0.2-0.4c0-0.1,0.1-0.2,0.1-0.3c0-0.1,0-0.2,0-0.2c0-0.1,0-0.2,0.1-0.4c0-0.1,0.1-0.1,0.1-0.1c0,0,0,0,0.1-0.1
				c0.1-0.1,0.2-0.1,0.3-0.1c0.1,0,0.2,0.1,0.2,0.3c0,0,0,0.1,0,0.2c0,0.1,0,0.1,0,0.2c0,0.2-0.1,0.4-0.2,0.6c0,0.1-0.1,0.2-0.1,0.3
				c-0.2,0.3-0.3,0.5-0.5,0.8c-0.4,0.6-0.8,1.2-1.1,1.6c0,0.1-0.1,0.1-0.1,0.2c0,0.1-0.1,0.2-0.1,0.2c0,0,0,0.1,0,0.1
				c0.1,0.1,0.4,0.1,0.6,0c0,0,0.1,0,0.1,0c0.1,0,0.1-0.1,0.2-0.1c0.4-0.2,0.7-0.4,1.1-0.6c0.1-0.1,0.2-0.1,0.3-0.2
				c0.4-0.2,0.8-0.7,1.1-1.2c0.4-0.5,0.7-1,0.9-1.3c0.2-0.3,0.2-1.3,0.2-2.5c0-0.1,0-0.3,0-0.4c0-0.3,0-0.6,0-0.8c0-0.1,0-0.3,0-0.4
				c0-0.2,0-0.5,0-0.7c0-0.2,0-0.4,0-0.5c0-0.1,0-0.3,0.1-0.6c0.1-0.6,0.2-1.6,0.3-2.7c0.2-2,0.5-4.5,0.4-6.1C27,41,27,40,26.9,39.2
				z"/>
		</g>
		<g>
			<path style="fill:#C49669;" d="M13.6,15.6c1.4,0,2.9-2.5,2.9-2.9c0.1-0.2,0.2-0.4,0.3-0.6h-6.5c0.1,0.2,0.2,0.4,0.3,0.6
				C10.7,13,12.2,15.6,13.6,15.6z"/>
		</g>
		<path style="fill:#7FA599;" d="M5.6,32c0,0-0.1-0.3-0.1-0.7c-0.1-0.4-0.1-1-0.1-1.6c0-0.6,0-1.2,0.1-1.6c0.1-0.4,0.1-0.7,0.1-0.7
			s0.1,0.3,0.1,0.7c0.1,0.4,0.1,1,0.1,1.6c0,0.6,0,1.2-0.1,1.6C5.7,31.7,5.6,32,5.6,32z"/>
		<path style="fill:#7FA599;" d="M22,32c0,0-0.1-0.3-0.1-0.7c-0.1-0.4-0.1-1-0.1-1.6c0-0.6,0-1.2,0.1-1.6c0.1-0.4,0.1-0.7,0.1-0.7
			s0.1,0.3,0.1,0.7c0.1,0.4,0.1,1,0.1,1.6c0,0.6,0,1.2-0.1,1.6C22,31.7,22,32,22,32z"/>
		<path style="fill:#D3A56F;" d="M9.4,7.9c0,0-1.2-6.1,3.9-6.1s4.3,6.1,4.3,6.1s0.6-0.4,1-0.1c0.3,0.3,0.4,2.9-1.3,3.2
			c0,0-0.5,1.5-0.7,1.8c-0.3,0.3-1.2,2-3.1,2c-1,0-2.1-0.9-2.8-2c-0.7-1-1-2.2-1-2.2S8,10.1,8.5,7.7C8.5,7.7,9.1,7.3,9.4,7.9z"/>
		<path style="fill:#3F2A14;" d="M15.3,2.7c0,0-0.8,0.4-1.5,1.4c0-0.6,0.4-1.4,0.4-1.4S12.9,3.3,12,4.9c0,0-0.1-1.5,0.4-2.7
			c0,0-2.5,2.3-2.9,5L9.1,5.1l1.3-2.7l3-1.3L15.3,2.7z"/>
		<path style="fill:#3F2A14;" d="M15.3,2.7c0,0,0.6,0.9,0.5,1.7c0,0,0.7-0.6,0.5-1.2L15.3,2.7z"/>
		<path style="fill:#3F2A14;" d="M9.5,2.5c1.8-2.5,4-2.4,6.1-1.7c2.4,0.8,2.8,3.5,2.9,4.6c0,1.1-0.3,2.2-0.3,2.2l-0.5,0.2l0,0.1
			l-0.3,0.6c0,0,0-0.9,0.1-2S17.1,4,17.1,4c0.1,0.4-0.3,0.6-0.3,0.6c0-0.9-0.4-1.2-0.4-1.2L15.7,3l-0.6-0.3l-1.7-0.5l-1-0.3l-1.5,1
			L9.8,6.1L9.7,7.4l0.1,1.1L9.5,8.2L9.4,7.9C9.1,7.5,8.8,7.6,8.8,7.6S8.4,4,9.5,2.5z"/>
	</g>
	<polygon style="fill:#43657A;" points="15.1,19.1 14.5,18 13.3,18 12.6,19.1 12.6,19.6 13.1,19.9 11.3,42.2 13.9,47.2 14.1,47.2 
		16.7,42.2 14.7,19.9 15.1,19.6 	"/>
	<path style="fill:#C5D3CF;" d="M10.6,14.9c0,0-0.4-0.2-1.6,1.5l3.6,3.6l1.1-2.2L10.6,14.9z"/>
	<path style="fill:#C5D3CF;" d="M16.8,14.9c0,0,0.6-0.2,1.8,1.5L15,20L14,17.8L16.8,14.9z"/>
</g>
</svg>
