<?xml version="1.0" encoding="iso-8859-1"?>
<!-- Generator: Adobe Illustrator 18.0.0, SVG Export Plug-In . SVG Version: 6.00 Build 0)  -->
<!DOCTYPE svg PUBLIC "-//W3C//DTD SVG 1.1//EN" "http://www.w3.org/Graphics/SVG/1.1/DTD/svg11.dtd">
<svg version="1.1" id="Layer_1" xmlns="http://www.w3.org/2000/svg" xmlns:xlink="http://www.w3.org/1999/xlink" x="0px" y="0px"
	 viewBox="0 0 263.3 151.6" style="enable-background:new 0 0 263.3 151.6;" xml:space="preserve">
<g>
	<polygon style="fill:#9E9E9E;" points="145.5,83.2 206.1,74.6 206.1,64.6 145.5,64.6 	"/>
	<polygon style="fill:#9E9E9E;" points="259.6,122.7 4.6,122.7 24.8,99.9 244.2,99.9 	"/>
	<polygon style="fill:#B7B7B7;" points="259.6,150.3 237.8,150.3 234.9,139.7 26.1,139.7 23.5,150.3 3,150.3 3,122.7 259.6,122.7 	
		"/>
	<polygon style="fill:#9E9E9E;" points="119.8,83.2 61.1,74.6 61.1,64.6 119.8,64.6 	"/>
	<polygon style="fill:#B7B7B7;" points="147.7,99.9 116,99.9 120.8,3.1 142.9,3.1 	"/>
	<polygon style="fill:#828282;" points="138.1,6.3 126.2,6.3 123.3,14 123.3,41.5 140.9,41.5 140.9,13.6 	"/>
	<path style="fill:#FFFFFF;" d="M141.5,16.6c-9.3-14.1-18.5-0.1-18.5-0.1v25.1h18.9L141.5,16.6z"/>
</g>
</svg>
